<?xml version='1.0' encoding='utf-8'?>
<svg xmlns:xlink="http://www.w3.org/1999/xlink" xmlns="http://www.w3.org/2000/svg" id="chart-c56b2efd-b837-499f-81d0-5a2736ca36af" class="pygal-chart" viewBox="0 0 800 600"><!--Generated with pygal 2.4.0 (lxml) ©Kozea 2012-2016 on 2019-08-04--><!--http://pygal.org--><!--http://github.com/Kozea/pygal--><defs><style type="text/css">#chart-c56b2efd-b837-499f-81d0-5a2736ca36af{-webkit-user-select:none;-webkit-font-smoothing:antialiased;font-family:Consolas,"Liberation Mono",Menlo,Courier,monospace}#chart-c56b2efd-b837-499f-81d0-5a2736ca36af .title{font-family:Consolas,"Liberation Mono",Menlo,Courier,monospace;font-size:16px}#chart-c56b2efd-b837-499f-81d0-5a2736ca36af .legends .legend text{font-family:Consolas,"Liberation Mono",Menlo,Courier,monospace;font-size:14px}#chart-c56b2efd-b837-499f-81d0-5a2736ca36af .axis text{font-family:Consolas,"Liberation Mono",Menlo,Courier,monospace;font-size:10px}#chart-c56b2efd-b837-499f-81d0-5a2736ca36af .axis text.major{font-family:Consolas,"Liberation Mono",Menlo,Courier,monospace;font-size:10px}#chart-c56b2efd-b837-499f-81d0-5a2736ca36af .text-overlay text.value{font-family:Consolas,"Liberation Mono",Menlo,Courier,monospace;font-size:16px}#chart-c56b2efd-b837-499f-81d0-5a2736ca36af .text-overlay text.label{font-family:Consolas,"Liberation Mono",Menlo,Courier,monospace;font-size:10px}#chart-c56b2efd-b837-499f-81d0-5a2736ca36af .tooltip{font-family:Consolas,"Liberation Mono",Menlo,Courier,monospace;font-size:14px}#chart-c56b2efd-b837-499f-81d0-5a2736ca36af text.no_data{font-family:Consolas,"Liberation Mono",Menlo,Courier,monospace;font-size:64px}
#chart-c56b2efd-b837-499f-81d0-5a2736ca36af{background-color:rgba(249,249,249,1)}#chart-c56b2efd-b837-499f-81d0-5a2736ca36af path,#chart-c56b2efd-b837-499f-81d0-5a2736ca36af line,#chart-c56b2efd-b837-499f-81d0-5a2736ca36af rect,#chart-c56b2efd-b837-499f-81d0-5a2736ca36af circle{-webkit-transition:150ms;-moz-transition:150ms;transition:150ms}#chart-c56b2efd-b837-499f-81d0-5a2736ca36af .graph &gt; .background{fill:rgba(249,249,249,1)}#chart-c56b2efd-b837-499f-81d0-5a2736ca36af .plot &gt; .background{fill:rgba(255,255,255,1)}#chart-c56b2efd-b837-499f-81d0-5a2736ca36af .graph{fill:rgba(0,0,0,.87)}#chart-c56b2efd-b837-499f-81d0-5a2736ca36af text.no_data{fill:rgba(0,0,0,1)}#chart-c56b2efd-b837-499f-81d0-5a2736ca36af .title{fill:rgba(0,0,0,1)}#chart-c56b2efd-b837-499f-81d0-5a2736ca36af .legends .legend text{fill:rgba(0,0,0,.87)}#chart-c56b2efd-b837-499f-81d0-5a2736ca36af .legends .legend:hover text{fill:rgba(0,0,0,1)}#chart-c56b2efd-b837-499f-81d0-5a2736ca36af .axis .line{stroke:rgba(0,0,0,1)}#chart-c56b2efd-b837-499f-81d0-5a2736ca36af .axis .guide.line{stroke:rgba(0,0,0,.54)}#chart-c56b2efd-b837-499f-81d0-5a2736ca36af .axis .major.line{stroke:rgba(0,0,0,.87)}#chart-c56b2efd-b837-499f-81d0-5a2736ca36af .axis text.major{fill:rgba(0,0,0,1)}#chart-c56b2efd-b837-499f-81d0-5a2736ca36af .axis.y .guides:hover .guide.line,#chart-c56b2efd-b837-499f-81d0-5a2736ca36af .line-graph .axis.x .guides:hover .guide.line,#chart-c56b2efd-b837-499f-81d0-5a2736ca36af .stackedline-graph .axis.x .guides:hover .guide.line,#chart-c56b2efd-b837-499f-81d0-5a2736ca36af .xy-graph .axis.x .guides:hover .guide.line{stroke:rgba(0,0,0,1)}#chart-c56b2efd-b837-499f-81d0-5a2736ca36af .axis .guides:hover text{fill:rgba(0,0,0,1)}#chart-c56b2efd-b837-499f-81d0-5a2736ca36af .reactive{fill-opacity:.7;stroke-opacity:.8}#chart-c56b2efd-b837-499f-81d0-5a2736ca36af .ci{stroke:rgba(0,0,0,.87)}#chart-c56b2efd-b837-499f-81d0-5a2736ca36af .reactive.active,#chart-c56b2efd-b837-499f-81d0-5a2736ca36af .active .reactive{fill-opacity:.8;stroke-opacity:.9;stroke-width:4}#chart-c56b2efd-b837-499f-81d0-5a2736ca36af .ci .reactive.active{stroke-width:1.5}#chart-c56b2efd-b837-499f-81d0-5a2736ca36af .series text{fill:rgba(0,0,0,1)}#chart-c56b2efd-b837-499f-81d0-5a2736ca36af .tooltip rect{fill:rgba(255,255,255,1);stroke:rgba(0,0,0,1);-webkit-transition:opacity 150ms;-moz-transition:opacity 150ms;transition:opacity 150ms}#chart-c56b2efd-b837-499f-81d0-5a2736ca36af .tooltip .label{fill:rgba(0,0,0,.87)}#chart-c56b2efd-b837-499f-81d0-5a2736ca36af .tooltip .label{fill:rgba(0,0,0,.87)}#chart-c56b2efd-b837-499f-81d0-5a2736ca36af .tooltip .legend{font-size:.8em;fill:rgba(0,0,0,.54)}#chart-c56b2efd-b837-499f-81d0-5a2736ca36af .tooltip .x_label{font-size:.6em;fill:rgba(0,0,0,1)}#chart-c56b2efd-b837-499f-81d0-5a2736ca36af .tooltip .xlink{font-size:.5em;text-decoration:underline}#chart-c56b2efd-b837-499f-81d0-5a2736ca36af .tooltip .value{font-size:1.5em}#chart-c56b2efd-b837-499f-81d0-5a2736ca36af .bound{font-size:.5em}#chart-c56b2efd-b837-499f-81d0-5a2736ca36af .max-value{font-size:.75em;fill:rgba(0,0,0,.54)}#chart-c56b2efd-b837-499f-81d0-5a2736ca36af .map-element{fill:rgba(255,255,255,1);stroke:rgba(0,0,0,.54) !important}#chart-c56b2efd-b837-499f-81d0-5a2736ca36af .map-element .reactive{fill-opacity:inherit;stroke-opacity:inherit}#chart-c56b2efd-b837-499f-81d0-5a2736ca36af .color-0,#chart-c56b2efd-b837-499f-81d0-5a2736ca36af .color-0 a:visited{stroke:red;fill:red}#chart-c56b2efd-b837-499f-81d0-5a2736ca36af .color-1,#chart-c56b2efd-b837-499f-81d0-5a2736ca36af .color-1 a:visited{stroke:blue;fill:blue}#chart-c56b2efd-b837-499f-81d0-5a2736ca36af .color-2,#chart-c56b2efd-b837-499f-81d0-5a2736ca36af .color-2 a:visited{stroke:green;fill:green}#chart-c56b2efd-b837-499f-81d0-5a2736ca36af .text-overlay .color-0 text{fill:white}#chart-c56b2efd-b837-499f-81d0-5a2736ca36af .text-overlay .color-1 text{fill:white}#chart-c56b2efd-b837-499f-81d0-5a2736ca36af .text-overlay .color-2 text{fill:white}
#chart-c56b2efd-b837-499f-81d0-5a2736ca36af text.no_data{text-anchor:middle}#chart-c56b2efd-b837-499f-81d0-5a2736ca36af .guide.line{fill:none}#chart-c56b2efd-b837-499f-81d0-5a2736ca36af .centered{text-anchor:middle}#chart-c56b2efd-b837-499f-81d0-5a2736ca36af .title{text-anchor:middle}#chart-c56b2efd-b837-499f-81d0-5a2736ca36af .legends .legend text{fill-opacity:1}#chart-c56b2efd-b837-499f-81d0-5a2736ca36af .axis.x text{text-anchor:middle}#chart-c56b2efd-b837-499f-81d0-5a2736ca36af .axis.x:not(.web) text[transform]{text-anchor:start}#chart-c56b2efd-b837-499f-81d0-5a2736ca36af .axis.x:not(.web) text[transform].backwards{text-anchor:end}#chart-c56b2efd-b837-499f-81d0-5a2736ca36af .axis.y text{text-anchor:end}#chart-c56b2efd-b837-499f-81d0-5a2736ca36af .axis.y text[transform].backwards{text-anchor:start}#chart-c56b2efd-b837-499f-81d0-5a2736ca36af .axis.y2 text{text-anchor:start}#chart-c56b2efd-b837-499f-81d0-5a2736ca36af .axis.y2 text[transform].backwards{text-anchor:end}#chart-c56b2efd-b837-499f-81d0-5a2736ca36af .axis .guide.line{stroke-dasharray:4,4}#chart-c56b2efd-b837-499f-81d0-5a2736ca36af .axis .major.guide.line{stroke-dasharray:6,6}#chart-c56b2efd-b837-499f-81d0-5a2736ca36af .horizontal .axis.y .guide.line,#chart-c56b2efd-b837-499f-81d0-5a2736ca36af .horizontal .axis.y2 .guide.line,#chart-c56b2efd-b837-499f-81d0-5a2736ca36af .vertical .axis.x .guide.line{opacity:0}#chart-c56b2efd-b837-499f-81d0-5a2736ca36af .horizontal .axis.always_show .guide.line,#chart-c56b2efd-b837-499f-81d0-5a2736ca36af .vertical .axis.always_show .guide.line{opacity:1 !important}#chart-c56b2efd-b837-499f-81d0-5a2736ca36af .axis.y .guides:hover .guide.line,#chart-c56b2efd-b837-499f-81d0-5a2736ca36af .axis.y2 .guides:hover .guide.line,#chart-c56b2efd-b837-499f-81d0-5a2736ca36af .axis.x .guides:hover .guide.line{opacity:1}#chart-c56b2efd-b837-499f-81d0-5a2736ca36af .axis .guides:hover text{opacity:1}#chart-c56b2efd-b837-499f-81d0-5a2736ca36af .nofill{fill:none}#chart-c56b2efd-b837-499f-81d0-5a2736ca36af .subtle-fill{fill-opacity:.2}#chart-c56b2efd-b837-499f-81d0-5a2736ca36af .dot{stroke-width:1px;fill-opacity:1}#chart-c56b2efd-b837-499f-81d0-5a2736ca36af .dot.active{stroke-width:5px}#chart-c56b2efd-b837-499f-81d0-5a2736ca36af .dot.negative{fill:transparent}#chart-c56b2efd-b837-499f-81d0-5a2736ca36af text,#chart-c56b2efd-b837-499f-81d0-5a2736ca36af tspan{stroke:none !important}#chart-c56b2efd-b837-499f-81d0-5a2736ca36af .series text.active{opacity:1}#chart-c56b2efd-b837-499f-81d0-5a2736ca36af .tooltip rect{fill-opacity:.95;stroke-width:.5}#chart-c56b2efd-b837-499f-81d0-5a2736ca36af .tooltip text{fill-opacity:1}#chart-c56b2efd-b837-499f-81d0-5a2736ca36af .showable{visibility:hidden}#chart-c56b2efd-b837-499f-81d0-5a2736ca36af .showable.shown{visibility:visible}#chart-c56b2efd-b837-499f-81d0-5a2736ca36af .gauge-background{fill:rgba(229,229,229,1);stroke:none}#chart-c56b2efd-b837-499f-81d0-5a2736ca36af .bg-lines{stroke:rgba(249,249,249,1);stroke-width:2px}</style><script type="text/javascript">window.pygal = window.pygal || {};window.pygal.config = window.pygal.config || {};window.pygal.config['c56b2efd-b837-499f-81d0-5a2736ca36af'] = {"allow_interruptions": false, "box_mode": "extremes", "classes": ["pygal-chart"], "css": ["file://style.css", "file://graph.css"], "defs": [], "disable_xml_declaration": false, "dots_size": 2.5, "dynamic_print_values": false, "explicit_size": false, "fill": false, "force_uri_protocol": "https", "formatter": null, "half_pie": false, "height": 600, "include_x_axis": false, "inner_radius": 0, "interpolate": null, "interpolation_parameters": {}, "interpolation_precision": 250, "inverse_y_axis": false, "js": ["//kozea.github.io/pygal.js/2.0.x/pygal-tooltips.min.js"], "legend_at_bottom": true, "legend_at_bottom_columns": null, "legend_box_size": 12, "logarithmic": false, "margin": 20, "margin_bottom": null, "margin_left": null, "margin_right": null, "margin_top": null, "max_scale": 16, "min_scale": 4, "missing_value_fill_truncation": "x", "no_data_text": "No data", "no_prefix": false, "order_min": null, "pretty_print": false, "print_labels": false, "print_values": false, "print_values_position": "center", "print_zeroes": true, "range": null, "rounded_bars": null, "secondary_range": null, "show_dots": true, "show_legend": true, "show_minor_x_labels": false, "show_minor_y_labels": true, "show_only_major_dots": false, "show_x_guides": false, "show_x_labels": true, "show_y_guides": true, "show_y_labels": true, "spacing": 10, "stack_from_top": false, "strict": false, "stroke": true, "stroke_style": null, "style": {"background": "rgba(249, 249, 249, 1)", "ci_colors": [], "colors": ["red", "blue", "green", "#a3a3a3"], "font_family": "Consolas, \"Liberation Mono\", Menlo, Courier, monospace", "foreground": "rgba(0, 0, 0, .87)", "foreground_strong": "rgba(0, 0, 0, 1)", "foreground_subtle": "rgba(0, 0, 0, .54)", "guide_stroke_dasharray": "4,4", "label_font_family": "Consolas, \"Liberation Mono\", Menlo, Courier, monospace", "label_font_size": 10, "legend_font_family": "Consolas, \"Liberation Mono\", Menlo, Courier, monospace", "legend_font_size": 14, "major_guide_stroke_dasharray": "6,6", "major_label_font_family": "Consolas, \"Liberation Mono\", Menlo, Courier, monospace", "major_label_font_size": 10, "no_data_font_family": "Consolas, \"Liberation Mono\", Menlo, Courier, monospace", "no_data_font_size": 64, "opacity": ".7", "opacity_hover": ".8", "plot_background": "rgba(255, 255, 255, 1)", "stroke_opacity": ".8", "stroke_opacity_hover": ".9", "title_font_family": "Consolas, \"Liberation Mono\", Menlo, Courier, monospace", "title_font_size": 16, "tooltip_font_family": "Consolas, \"Liberation Mono\", Menlo, Courier, monospace", "tooltip_font_size": 14, "transition": "150ms", "value_background": "rgba(229, 229, 229, 1)", "value_colors": [], "value_font_family": "Consolas, \"Liberation Mono\", Menlo, Courier, monospace", "value_font_size": 16, "value_label_font_family": "Consolas, \"Liberation Mono\", Menlo, Courier, monospace", "value_label_font_size": 10}, "title": "A Flintoff: Future and Past Averages in ODIs", "tooltip_border_radius": 10, "tooltip_fancy_mode": true, "truncate_label": null, "truncate_legend": null, "width": 800, "x_label_rotation": 45, "x_labels": ["1999", "0", "0", "0", "0", "0", "0", "0", "2000", "2001", "0", "0", "0", "0", "2002", "0", "0", "0", "0", "0", "0", "0", "0", "0", "0", "0", "0", "0", "0", "0", "0", "0", "2003", "0", "0", "0", "0", "0", "0", "0", "0", "0", "0", "0", "0", "0", "0", "0", "0", "0", "0", "2004", "0", "0", "0", "0", "0", "0", "0", "0", "0", "0", "2005", "0", "0", "0", "0", "0", "0", "0", "0", "0", "0", "0", "0", "0", "0", "0", "0", "2006", "0", "0", "0", "0", "2007", "0", "0", "0", "0", "0", "0", "0", "0", "0", "0", "0", "0", "0", "0", "0", "0", "0", "0", "0", "0", "0", "2008", "0", "0", "0", "0", "0", "0", "0", "0", "0", "2009", "0", "0"], "x_labels_major": ["1999", "2000", "2001", "2002", "2003", "2004", "2005", "2006", "2007", "2008", "2009"], "x_labels_major_count": null, "x_labels_major_every": null, "x_title": null, "xrange": null, "y_label_rotation": 0, "y_labels": null, "y_labels_major": null, "y_labels_major_count": null, "y_labels_major_every": null, "y_title": null, "zero": 70.0, "legends": ["Future Average", "Past Average", "Career Average"]}</script><script type="text/javascript" xlink:href="https://kozea.github.io/pygal.js/2.0.x/pygal-tooltips.min.js"/></defs><title>A Flintoff: Future and Past Averages in ODIs</title><g class="graph line-graph vertical"><rect class="background" height="600" width="800" x="0" y="0"/><g class="plot" transform="translate(42, 46)"><rect class="background" height="462.02943725152284" width="738.0" x="0" y="0"/><g class="axis y always_show"><g class="guides"><path class="axis major line" d="M0.000000 453.144256 h738.000000"/><text class="major" x="-5" y="456.6442557659166">0</text><title>0</title></g><g class="guides"><path class="guide line" d="M0.000000 381.489566 h738.000000"/><text class="" x="-5" y="384.98956636586655">10</text><title>10</title></g><g class="guides"><path class="guide line" d="M0.000000 309.834877 h738.000000"/><text class="" x="-5" y="313.33487696581653">20</text><title>20</title></g><g class="guides"><path class="guide line" d="M0.000000 238.180188 h738.000000"/><text class="" x="-5" y="241.68018756576646">30</text><title>30</title></g><g class="guides"><path class="guide line" d="M0.000000 166.525498 h738.000000"/><text class="" x="-5" y="170.02549816571639">40</text><title>40</title></g><g class="guides"><path class="major guide line" d="M0.000000 94.870809 h738.000000"/><text class="major" x="-5" y="98.37080876566631">50</text><title>50</title></g><g class="guides"><path class="guide line" d="M0.000000 23.216119 h738.000000"/><text class="" x="-5" y="26.716119365616237">60</text><title>60</title></g></g><g class="axis x"><g class="guides"><path class="major line" d="M14.192308 0.000000 v462.029437"/><text class="major" x="14.192307692307692" y="477.02943725152284" transform="rotate(45 14.192308 477.029437)">1999</text></g><g class="guides"><path class="major guide line" d="M62.301825 0.000000 v462.029437"/><text class="major" x="62.301825293350724" y="477.02943725152284" transform="rotate(45 62.301825 477.029437)">2000</text></g><g class="guides"><path class="major guide line" d="M68.315515 0.000000 v462.029437"/><text class="major" x="68.3155149934811" y="477.02943725152284" transform="rotate(45 68.315515 477.029437)">2001</text></g><g class="guides"><path class="major guide line" d="M98.383963 0.000000 v462.029437"/><text class="major" x="98.383963494133" y="477.02943725152284" transform="rotate(45 98.383963 477.029437)">2002</text></g><g class="guides"><path class="major guide line" d="M206.630378 0.000000 v462.029437"/><text class="major" x="206.6303780964798" y="477.02943725152284" transform="rotate(45 206.630378 477.029437)">2003</text></g><g class="guides"><path class="major guide line" d="M320.890482 0.000000 v462.029437"/><text class="major" x="320.890482398957" y="477.02943725152284" transform="rotate(45 320.890482 477.029437)">2004</text></g><g class="guides"><path class="major guide line" d="M387.041069 0.000000 v462.029437"/><text class="major" x="387.04106910039116" y="477.02943725152284" transform="rotate(45 387.041069 477.029437)">2005</text></g><g class="guides"><path class="major guide line" d="M489.273794 0.000000 v462.029437"/><text class="major" x="489.27379400260753" y="477.02943725152284" transform="rotate(45 489.273794 477.029437)">2006</text></g><g class="guides"><path class="major guide line" d="M519.342243 0.000000 v462.029437"/><text class="major" x="519.3422425032595" y="477.02943725152284" transform="rotate(45 519.342243 477.029437)">2007</text></g><g class="guides"><path class="major guide line" d="M651.643416 0.000000 v462.029437"/><text class="major" x="651.6434159061279" y="477.02943725152284" transform="rotate(45 651.643416 477.029437)">2008</text></g><g class="guides"><path class="major guide line" d="M711.780313 0.000000 v462.029437"/><text class="major" x="711.7803129074315" y="477.02943725152284" transform="rotate(45 711.780313 477.029437)">2009</text></g></g><g class="series serie-0 color-0"><path class="line reactive nofill" d="M14.192308 278.450123 L20.205997 280.026526 26.219687 278.951706 32.233377 280.814728 38.247066 278.880051 44.260756 279.381634 50.274446 280.169836 56.288136 280.743073 62.301825 280.958037 68.315515 281.817893 74.329205 282.247822 80.342894 282.176167 86.356584 284.110843 92.370274 282.462786 98.383963 281.817893 104.397653 281.961203 110.411343 282.462786 116.425033 283.752570 122.438722 284.899045 128.452412 285.758901 134.466102 284.182498 140.479791 284.540772 146.493481 285.615592 152.507171 287.263650 158.520860 283.465951 164.534550 285.114009 170.548240 284.039189 176.561930 286.905376 182.575619 285.400628 188.589309 287.263650 194.602999 287.621923 200.616688 288.123506 206.630378 288.625089 212.644068 290.416456 218.657757 290.774730 224.671447 290.058183 230.685137 289.556600 236.698827 287.836887 242.712516 289.341636 248.726206 290.631420 254.739896 291.419622 260.753585 287.908542 266.767275 289.341636 272.780965 287.980197 278.794654 288.553434 284.808344 285.042354 290.822034 286.547103 296.835724 284.684081 302.849413 279.309979 308.863103 278.808396 314.876793 277.590267 320.890482 279.524943 326.904172 277.590267 332.917862 277.733576 338.931551 278.306814 344.945241 280.528109 350.958931 282.032857 356.972621 282.319476 362.986310 282.892714 369.000000 278.235159 375.013690 276.085518 381.027379 278.521778 387.041069 275.655590 393.054759 279.453289 399.068449 278.665087 405.082138 281.173001 411.095828 281.746239 417.109518 275.727245 423.123207 276.945375 429.136897 272.072856 435.150587 274.867389 441.164276 276.730410 447.177966 280.098181 453.191656 286.547103 459.205346 290.631420 465.219035 292.924370 471.232725 293.497608 477.246415 294.357464 483.260104 298.083508 489.273794 295.503939 495.287484 298.943364 501.301173 299.731566 507.314863 298.800055 513.328553 297.581925 519.342243 300.878041 525.355932 306.682071 531.369622 306.180488 537.383312 311.841208 543.397001 304.030847 549.410691 304.532430 555.424381 313.489266 561.438070 317.286965 567.451760 319.794879 573.465450 317.573583 579.479140 316.212144 585.492829 318.863368 591.506519 318.433440 597.520209 312.772719 603.533898 308.330128 609.547588 311.196316 615.561278 314.779051 621.574967 318.218476 627.588657 322.876030 633.602347 321.442937 639.616037 311.984518 645.629726 315.065669 651.643416 311.053007 657.657106 297.295306 663.670795 298.298472 669.684485 281.173001 675.698175 272.932712 681.711864 233.880906 687.725554 262.829401 693.739244 301.881206 699.752934 263.259329 705.766623 287.120340 711.780313 338.496753 717.794003 361.211289 723.807692 425.915474"/></g><g class="series serie-1 color-1"><path class="line reactive nofill" d="M14.192308 453.144256 L20.205997 8.885181 26.219687 247.710261 32.233377 145.029091 38.247066 263.975876 44.260756 246.778750 50.274446 231.014719 56.288136 214.319176 62.301825 219.764932 68.315515 199.271691 74.329205 201.492987 80.342894 211.882917 86.356584 177.703630 92.370274 219.908242 98.383963 237.606950 104.397653 241.977886 110.411343 239.541627 116.425033 227.431984 122.438722 216.253853 128.452412 212.886082 134.466102 235.314000 140.479791 235.457309 146.493481 230.369826 152.507171 219.263350 158.520860 250.576449 164.534550 243.196016 170.548240 252.511125 176.561930 239.111699 182.575619 248.498463 188.589309 240.401483 194.602999 240.544792 200.616688 239.899900 206.630378 240.759756 212.644068 235.672273 218.657757 235.887238 224.671447 240.903066 230.685137 244.629110 236.698827 251.722924 242.712516 247.495297 248.726206 243.697599 254.739896 242.622778 260.753585 255.162349 266.767275 251.651269 272.780965 256.953716 278.794654 256.165515 284.808344 265.050696 290.822034 262.471127 296.835724 266.698754 302.849413 276.945375 308.863103 277.805231 314.876793 279.668253 320.890482 276.730410 326.904172 279.596598 332.917862 279.381634 338.931551 278.593432 344.945241 275.440626 350.958931 273.434295 356.972621 273.147676 362.986310 272.502784 369.000000 278.593432 375.013690 281.173001 381.027379 278.235159 387.041069 281.316311 393.054759 277.303648 399.068449 278.163504 405.082138 275.655590 411.095828 275.154007 417.109518 280.743073 423.123207 279.668253 429.136897 283.465951 435.150587 281.173001 441.164276 279.668253 447.177966 277.160339 453.191656 272.216165 459.205346 269.349977 465.219035 267.630265 471.232725 267.988538 477.246415 267.701920 483.260104 265.480624 489.273794 267.701920 495.287484 265.623934 501.301173 265.408970 507.314863 266.913718 513.328553 268.131848 519.342243 266.412135 525.355932 263.259329 531.369622 264.262495 537.383312 261.396307 543.397001 266.698754 549.410691 266.483790 555.424381 262.399473 561.438070 261.181343 567.451760 260.536451 573.465450 262.901055 579.479140 263.832566 585.492829 262.829401 591.506519 263.904221 597.520209 267.415301 603.533898 269.708251 609.547588 269.206668 615.561278 268.561776 621.574967 267.988538 627.588657 267.630265 633.602347 268.346812 639.616037 272.072856 645.629726 271.786237 651.643416 273.290985 657.657106 275.870554 663.670795 276.013864 669.684485 278.163504 675.698175 278.880051 681.711864 281.244656 687.725554 279.309979 693.739244 277.088684 699.752934 278.951706 705.766623 278.091850 711.780313 276.228828 717.794003 275.368971 723.807692 273.935878"/></g><g class="series serie-2 color-2"><path class="line reactive nofill" d="M14.192308 278.450123 L20.205997 278.450123 26.219687 278.450123 32.233377 278.450123 38.247066 278.450123 44.260756 278.450123 50.274446 278.450123 56.288136 278.450123 62.301825 278.450123 68.315515 278.450123 74.329205 278.450123 80.342894 278.450123 86.356584 278.450123 92.370274 278.450123 98.383963 278.450123 104.397653 278.450123 110.411343 278.450123 116.425033 278.450123 122.438722 278.450123 128.452412 278.450123 134.466102 278.450123 140.479791 278.450123 146.493481 278.450123 152.507171 278.450123 158.520860 278.450123 164.534550 278.450123 170.548240 278.450123 176.561930 278.450123 182.575619 278.450123 188.589309 278.450123 194.602999 278.450123 200.616688 278.450123 206.630378 278.450123 212.644068 278.450123 218.657757 278.450123 224.671447 278.450123 230.685137 278.450123 236.698827 278.450123 242.712516 278.450123 248.726206 278.450123 254.739896 278.450123 260.753585 278.450123 266.767275 278.450123 272.780965 278.450123 278.794654 278.450123 284.808344 278.450123 290.822034 278.450123 296.835724 278.450123 302.849413 278.450123 308.863103 278.450123 314.876793 278.450123 320.890482 278.450123 326.904172 278.450123 332.917862 278.450123 338.931551 278.450123 344.945241 278.450123 350.958931 278.450123 356.972621 278.450123 362.986310 278.450123 369.000000 278.450123 375.013690 278.450123 381.027379 278.450123 387.041069 278.450123 393.054759 278.450123 399.068449 278.450123 405.082138 278.450123 411.095828 278.450123 417.109518 278.450123 423.123207 278.450123 429.136897 278.450123 435.150587 278.450123 441.164276 278.450123 447.177966 278.450123 453.191656 278.450123 459.205346 278.450123 465.219035 278.450123 471.232725 278.450123 477.246415 278.450123 483.260104 278.450123 489.273794 278.450123 495.287484 278.450123 501.301173 278.450123 507.314863 278.450123 513.328553 278.450123 519.342243 278.450123 525.355932 278.450123 531.369622 278.450123 537.383312 278.450123 543.397001 278.450123 549.410691 278.450123 555.424381 278.450123 561.438070 278.450123 567.451760 278.450123 573.465450 278.450123 579.479140 278.450123 585.492829 278.450123 591.506519 278.450123 597.520209 278.450123 603.533898 278.450123 609.547588 278.450123 615.561278 278.450123 621.574967 278.450123 627.588657 278.450123 633.602347 278.450123 639.616037 278.450123 645.629726 278.450123 651.643416 278.450123 657.657106 278.450123 663.670795 278.450123 669.684485 278.450123 675.698175 278.450123 681.711864 278.450123 687.725554 278.450123 693.739244 278.450123 699.752934 278.450123 705.766623 278.450123 711.780313 278.450123 717.794003 278.450123 723.807692 278.450123"/></g></g><g class="titles"><text class="title plot_title" x="400.0" y="26">A Flintoff: Future and Past Averages in ODIs</text></g><g class="plot overlay" transform="translate(42, 46)"><g class="series serie-0 color-0"><g class="dots"><desc class="label">169 wickets in 119 innings (937.2 overs)</desc><circle class="dot reactive tooltip-trigger" cx="14.192307692307692" cy="278.4501230085946" r="2.5"/><desc class="value">24.38</desc><desc class="x top">14.192307692307692</desc><desc class="y top">278.4501230085946</desc><desc class="x_label">1999</desc></g><g class="dots"><desc class="label">162 wickets in 111 innings (897.0 overs)</desc><circle class="dot reactive tooltip-trigger" cx="62.301825293350724" cy="280.9580371375963" r="2.5"/><desc class="value">24.03</desc><desc class="x top">62.301825293350724</desc><desc class="y top">280.9580371375963</desc><desc class="x_label">2000</desc></g><g class="dots"><desc class="label">162 wickets in 110 innings (893.0 overs)</desc><circle class="dot reactive tooltip-trigger" cx="68.3155149934811" cy="281.8178934103969" r="2.5"/><desc class="value">23.91</desc><desc class="x top">68.3155149934811</desc><desc class="y top">281.8178934103969</desc><desc class="x_label">2001</desc></g><g class="dots"><desc class="label">156 wickets in 105 innings (862.3 overs)</desc><circle class="dot reactive tooltip-trigger" cx="98.383963494133" cy="281.8178934103969" r="2.5"/><desc class="value">23.91</desc><desc class="x top">98.383963494133</desc><desc class="y top">281.8178934103969</desc><desc class="x_label">2002</desc></g><g class="dots"><desc class="label">133 wickets in 87 innings (718.4 overs)</desc><circle class="dot reactive tooltip-trigger" cx="206.6303780964798" cy="288.62508890340166" r="2.5"/><desc class="value">22.96</desc><desc class="x top">206.6303780964798</desc><desc class="y top">288.62508890340166</desc><desc class="x_label">2003</desc></g><g class="dots"><desc class="label">103 wickets in 68 innings (551.0 overs)</desc><circle class="dot reactive tooltip-trigger" cx="320.890482398957" cy="279.52494334959533" r="2.5"/><desc class="value">24.23</desc><desc class="x top">320.890482398957</desc><desc class="y top">279.52494334959533</desc><desc class="x_label">2004</desc></g><g class="dots"><desc class="label">87 wickets in 57 innings (469.3 overs)</desc><circle class="dot reactive tooltip-trigger" cx="387.04106910039116" cy="275.65559012199265" r="2.5"/><desc class="value">24.77</desc><desc class="x left top">387.04106910039116</desc><desc class="y left top">275.65559012199265</desc><desc class="x_label">2005</desc></g><g class="dots"><desc class="label">65 wickets in 40 innings (325.2 overs)</desc><circle class="dot reactive tooltip-trigger" cx="489.27379400260753" cy="295.50393908580645" r="2.5"/><desc class="value">22</desc><desc class="x left top">489.27379400260753</desc><desc class="y left top">295.50393908580645</desc><desc class="x_label">2006</desc></g><g class="dots"><desc class="label">59 wickets in 35 innings (285.2 overs)</desc><circle class="dot reactive tooltip-trigger" cx="519.3422425032595" cy="300.87804079081025" r="2.5"/><desc class="value">21.25</desc><desc class="x left top">519.3422425032595</desc><desc class="y left top">300.87804079081025</desc><desc class="x_label">2007</desc></g><g class="dots"><desc class="label">23 wickets in 13 innings (99.4 overs)</desc><circle class="dot reactive tooltip-trigger" cx="651.6434159061279" cy="311.05300668561733" r="2.5"/><desc class="value">19.83</desc><desc class="x left top">651.6434159061279</desc><desc class="y left top">311.05300668561733</desc><desc class="x_label">2008</desc></g><g class="dots"><desc class="label">6 wickets in 3 innings (19.0 overs)</desc><circle class="dot reactive tooltip-trigger" cx="711.7803129074315" cy="338.49675272583653" r="2.5"/><desc class="value">16</desc><desc class="x left top">711.7803129074315</desc><desc class="y left top">338.49675272583653</desc><desc class="x_label">2009</desc></g></g><g class="series serie-1 color-1"><g class="dots"><desc class="label">0 wickets over 0 innings</desc><circle class="dot reactive tooltip-trigger" cx="14.192307692307692" cy="453.1442557659166" r="2.5"/><desc class="value">0</desc><desc class="x top">14.192307692307692</desc><desc class="y top">453.1442557659166</desc><desc class="x_label">1999</desc></g><g class="dots"><desc class="label">7 wickets in 8 innings (40.2 overs)</desc><circle class="dot reactive tooltip-trigger" cx="62.301825293350724" cy="219.76493238995354" r="2.5"/><desc class="value">32.57</desc><desc class="x ">62.301825293350724</desc><desc class="y ">219.76493238995354</desc><desc class="x_label">2000</desc></g><g class="dots"><desc class="label">7 wickets in 9 innings (44.2 overs)</desc><circle class="dot reactive tooltip-trigger" cx="68.3155149934811" cy="199.27169122153924" r="2.5"/><desc class="value">35.43</desc><desc class="x ">68.3155149934811</desc><desc class="y ">199.27169122153924</desc><desc class="x_label">2001</desc></g><g class="dots"><desc class="label">13 wickets in 14 innings (74.5 overs)</desc><circle class="dot reactive tooltip-trigger" cx="98.383963494133" cy="237.60695005056604" r="2.5"/><desc class="value">30.08</desc><desc class="x top">98.383963494133</desc><desc class="y top">237.60695005056604</desc><desc class="x_label">2002</desc></g><g class="dots"><desc class="label">36 wickets in 32 innings (218.4 overs)</desc><circle class="dot reactive tooltip-trigger" cx="206.6303780964798" cy="240.75975638416824" r="2.5"/><desc class="value">29.64</desc><desc class="x top">206.6303780964798</desc><desc class="y top">240.75975638416824</desc><desc class="x_label">2003</desc></g><g class="dots"><desc class="label">66 wickets in 51 innings (386.2 overs)</desc><circle class="dot reactive tooltip-trigger" cx="320.890482398957" cy="276.7304104629934" r="2.5"/><desc class="value">24.62</desc><desc class="x top">320.890482398957</desc><desc class="y top">276.7304104629934</desc><desc class="x_label">2004</desc></g><g class="dots"><desc class="label">82 wickets in 62 innings (467.5 overs)</desc><circle class="dot reactive tooltip-trigger" cx="387.04106910039116" cy="281.31631058459664" r="2.5"/><desc class="value">23.98</desc><desc class="x left top">387.04106910039116</desc><desc class="y left top">281.31631058459664</desc><desc class="x_label">2005</desc></g><g class="dots"><desc class="label">104 wickets in 79 innings (612.0 overs)</desc><circle class="dot reactive tooltip-trigger" cx="489.27379400260753" cy="267.7019195985871" r="2.5"/><desc class="value">25.88</desc><desc class="x left top">489.27379400260753</desc><desc class="y left top">267.7019195985871</desc><desc class="x_label">2006</desc></g><g class="dots"><desc class="label">110 wickets in 84 innings (652.0 overs)</desc><circle class="dot reactive tooltip-trigger" cx="519.3422425032595" cy="266.41213518938616" r="2.5"/><desc class="value">26.06</desc><desc class="x left top">519.3422425032595</desc><desc class="y left top">266.41213518938616</desc><desc class="x_label">2007</desc></g><g class="dots"><desc class="label">146 wickets in 106 innings (837.4 overs)</desc><circle class="dot reactive tooltip-trigger" cx="651.6434159061279" cy="273.29098537179095" r="2.5"/><desc class="value">25.1</desc><desc class="x left top">651.6434159061279</desc><desc class="y left top">273.29098537179095</desc><desc class="x_label">2008</desc></g><g class="dots"><desc class="label">163 wickets in 116 innings (918.2 overs)</desc><circle class="dot reactive tooltip-trigger" cx="711.7803129074315" cy="276.22882763719304" r="2.5"/><desc class="value">24.69</desc><desc class="x left top">711.7803129074315</desc><desc class="y left top">276.22882763719304</desc><desc class="x_label">2009</desc></g></g><g class="series serie-2 color-2"/></g><g class="plot text-overlay" transform="translate(42, 46)"><g class="series serie-0 color-0"/><g class="series serie-1 color-1"/><g class="series serie-2 color-2"/></g><g class="plot tooltip-overlay" transform="translate(42, 46)"><g class="tooltip" style="opacity: 0" transform="translate(0 0)"><rect class="tooltip-box" height="0" rx="10" ry="10" width="0"/><g class="text"/></g></g><g class="legends" transform="translate(52, 545)"><g class="legend reactive activate-serie" id="activate-serie-0"><rect class="color-0 reactive" height="12" width="12" x="0.0" y="1.0"/><text x="17.0" y="11.2">Future Average</text></g><g class="legend reactive activate-serie" id="activate-serie-1"><rect class="color-1 reactive" height="12" width="12" x="369.0" y="1.0"/><text x="386.0" y="11.2">Past Average</text></g><g class="legend reactive activate-serie" id="activate-serie-2"><rect class="color-2 reactive" height="12" width="12" x="0.0" y="22.0"/><text x="17.0" y="32.2">Career Average</text></g></g></g></svg>