<?xml version='1.0' encoding='utf-8'?>
<svg xmlns:xlink="http://www.w3.org/1999/xlink" xmlns="http://www.w3.org/2000/svg" id="chart-9ce38336-79ce-47f4-8580-c1a4ae6dd7f6" class="pygal-chart" viewBox="0 0 800 600"><!--Generated with pygal 2.4.0 (lxml) ©Kozea 2012-2016 on 2019-08-04--><!--http://pygal.org--><!--http://github.com/Kozea/pygal--><defs><style type="text/css">#chart-9ce38336-79ce-47f4-8580-c1a4ae6dd7f6{-webkit-user-select:none;-webkit-font-smoothing:antialiased;font-family:Consolas,"Liberation Mono",Menlo,Courier,monospace}#chart-9ce38336-79ce-47f4-8580-c1a4ae6dd7f6 .title{font-family:Consolas,"Liberation Mono",Menlo,Courier,monospace;font-size:16px}#chart-9ce38336-79ce-47f4-8580-c1a4ae6dd7f6 .legends .legend text{font-family:Consolas,"Liberation Mono",Menlo,Courier,monospace;font-size:14px}#chart-9ce38336-79ce-47f4-8580-c1a4ae6dd7f6 .axis text{font-family:Consolas,"Liberation Mono",Menlo,Courier,monospace;font-size:10px}#chart-9ce38336-79ce-47f4-8580-c1a4ae6dd7f6 .axis text.major{font-family:Consolas,"Liberation Mono",Menlo,Courier,monospace;font-size:10px}#chart-9ce38336-79ce-47f4-8580-c1a4ae6dd7f6 .text-overlay text.value{font-family:Consolas,"Liberation Mono",Menlo,Courier,monospace;font-size:16px}#chart-9ce38336-79ce-47f4-8580-c1a4ae6dd7f6 .text-overlay text.label{font-family:Consolas,"Liberation Mono",Menlo,Courier,monospace;font-size:10px}#chart-9ce38336-79ce-47f4-8580-c1a4ae6dd7f6 .tooltip{font-family:Consolas,"Liberation Mono",Menlo,Courier,monospace;font-size:14px}#chart-9ce38336-79ce-47f4-8580-c1a4ae6dd7f6 text.no_data{font-family:Consolas,"Liberation Mono",Menlo,Courier,monospace;font-size:64px}
#chart-9ce38336-79ce-47f4-8580-c1a4ae6dd7f6{background-color:rgba(249,249,249,1)}#chart-9ce38336-79ce-47f4-8580-c1a4ae6dd7f6 path,#chart-9ce38336-79ce-47f4-8580-c1a4ae6dd7f6 line,#chart-9ce38336-79ce-47f4-8580-c1a4ae6dd7f6 rect,#chart-9ce38336-79ce-47f4-8580-c1a4ae6dd7f6 circle{-webkit-transition:150ms;-moz-transition:150ms;transition:150ms}#chart-9ce38336-79ce-47f4-8580-c1a4ae6dd7f6 .graph &gt; .background{fill:rgba(249,249,249,1)}#chart-9ce38336-79ce-47f4-8580-c1a4ae6dd7f6 .plot &gt; .background{fill:rgba(255,255,255,1)}#chart-9ce38336-79ce-47f4-8580-c1a4ae6dd7f6 .graph{fill:rgba(0,0,0,.87)}#chart-9ce38336-79ce-47f4-8580-c1a4ae6dd7f6 text.no_data{fill:rgba(0,0,0,1)}#chart-9ce38336-79ce-47f4-8580-c1a4ae6dd7f6 .title{fill:rgba(0,0,0,1)}#chart-9ce38336-79ce-47f4-8580-c1a4ae6dd7f6 .legends .legend text{fill:rgba(0,0,0,.87)}#chart-9ce38336-79ce-47f4-8580-c1a4ae6dd7f6 .legends .legend:hover text{fill:rgba(0,0,0,1)}#chart-9ce38336-79ce-47f4-8580-c1a4ae6dd7f6 .axis .line{stroke:rgba(0,0,0,1)}#chart-9ce38336-79ce-47f4-8580-c1a4ae6dd7f6 .axis .guide.line{stroke:rgba(0,0,0,.54)}#chart-9ce38336-79ce-47f4-8580-c1a4ae6dd7f6 .axis .major.line{stroke:rgba(0,0,0,.87)}#chart-9ce38336-79ce-47f4-8580-c1a4ae6dd7f6 .axis text.major{fill:rgba(0,0,0,1)}#chart-9ce38336-79ce-47f4-8580-c1a4ae6dd7f6 .axis.y .guides:hover .guide.line,#chart-9ce38336-79ce-47f4-8580-c1a4ae6dd7f6 .line-graph .axis.x .guides:hover .guide.line,#chart-9ce38336-79ce-47f4-8580-c1a4ae6dd7f6 .stackedline-graph .axis.x .guides:hover .guide.line,#chart-9ce38336-79ce-47f4-8580-c1a4ae6dd7f6 .xy-graph .axis.x .guides:hover .guide.line{stroke:rgba(0,0,0,1)}#chart-9ce38336-79ce-47f4-8580-c1a4ae6dd7f6 .axis .guides:hover text{fill:rgba(0,0,0,1)}#chart-9ce38336-79ce-47f4-8580-c1a4ae6dd7f6 .reactive{fill-opacity:.7;stroke-opacity:.8}#chart-9ce38336-79ce-47f4-8580-c1a4ae6dd7f6 .ci{stroke:rgba(0,0,0,.87)}#chart-9ce38336-79ce-47f4-8580-c1a4ae6dd7f6 .reactive.active,#chart-9ce38336-79ce-47f4-8580-c1a4ae6dd7f6 .active .reactive{fill-opacity:.8;stroke-opacity:.9;stroke-width:4}#chart-9ce38336-79ce-47f4-8580-c1a4ae6dd7f6 .ci .reactive.active{stroke-width:1.5}#chart-9ce38336-79ce-47f4-8580-c1a4ae6dd7f6 .series text{fill:rgba(0,0,0,1)}#chart-9ce38336-79ce-47f4-8580-c1a4ae6dd7f6 .tooltip rect{fill:rgba(255,255,255,1);stroke:rgba(0,0,0,1);-webkit-transition:opacity 150ms;-moz-transition:opacity 150ms;transition:opacity 150ms}#chart-9ce38336-79ce-47f4-8580-c1a4ae6dd7f6 .tooltip .label{fill:rgba(0,0,0,.87)}#chart-9ce38336-79ce-47f4-8580-c1a4ae6dd7f6 .tooltip .label{fill:rgba(0,0,0,.87)}#chart-9ce38336-79ce-47f4-8580-c1a4ae6dd7f6 .tooltip .legend{font-size:.8em;fill:rgba(0,0,0,.54)}#chart-9ce38336-79ce-47f4-8580-c1a4ae6dd7f6 .tooltip .x_label{font-size:.6em;fill:rgba(0,0,0,1)}#chart-9ce38336-79ce-47f4-8580-c1a4ae6dd7f6 .tooltip .xlink{font-size:.5em;text-decoration:underline}#chart-9ce38336-79ce-47f4-8580-c1a4ae6dd7f6 .tooltip .value{font-size:1.5em}#chart-9ce38336-79ce-47f4-8580-c1a4ae6dd7f6 .bound{font-size:.5em}#chart-9ce38336-79ce-47f4-8580-c1a4ae6dd7f6 .max-value{font-size:.75em;fill:rgba(0,0,0,.54)}#chart-9ce38336-79ce-47f4-8580-c1a4ae6dd7f6 .map-element{fill:rgba(255,255,255,1);stroke:rgba(0,0,0,.54) !important}#chart-9ce38336-79ce-47f4-8580-c1a4ae6dd7f6 .map-element .reactive{fill-opacity:inherit;stroke-opacity:inherit}#chart-9ce38336-79ce-47f4-8580-c1a4ae6dd7f6 .color-0,#chart-9ce38336-79ce-47f4-8580-c1a4ae6dd7f6 .color-0 a:visited{stroke:red;fill:red}#chart-9ce38336-79ce-47f4-8580-c1a4ae6dd7f6 .color-1,#chart-9ce38336-79ce-47f4-8580-c1a4ae6dd7f6 .color-1 a:visited{stroke:blue;fill:blue}#chart-9ce38336-79ce-47f4-8580-c1a4ae6dd7f6 .color-2,#chart-9ce38336-79ce-47f4-8580-c1a4ae6dd7f6 .color-2 a:visited{stroke:green;fill:green}#chart-9ce38336-79ce-47f4-8580-c1a4ae6dd7f6 .text-overlay .color-0 text{fill:white}#chart-9ce38336-79ce-47f4-8580-c1a4ae6dd7f6 .text-overlay .color-1 text{fill:white}#chart-9ce38336-79ce-47f4-8580-c1a4ae6dd7f6 .text-overlay .color-2 text{fill:white}
#chart-9ce38336-79ce-47f4-8580-c1a4ae6dd7f6 text.no_data{text-anchor:middle}#chart-9ce38336-79ce-47f4-8580-c1a4ae6dd7f6 .guide.line{fill:none}#chart-9ce38336-79ce-47f4-8580-c1a4ae6dd7f6 .centered{text-anchor:middle}#chart-9ce38336-79ce-47f4-8580-c1a4ae6dd7f6 .title{text-anchor:middle}#chart-9ce38336-79ce-47f4-8580-c1a4ae6dd7f6 .legends .legend text{fill-opacity:1}#chart-9ce38336-79ce-47f4-8580-c1a4ae6dd7f6 .axis.x text{text-anchor:middle}#chart-9ce38336-79ce-47f4-8580-c1a4ae6dd7f6 .axis.x:not(.web) text[transform]{text-anchor:start}#chart-9ce38336-79ce-47f4-8580-c1a4ae6dd7f6 .axis.x:not(.web) text[transform].backwards{text-anchor:end}#chart-9ce38336-79ce-47f4-8580-c1a4ae6dd7f6 .axis.y text{text-anchor:end}#chart-9ce38336-79ce-47f4-8580-c1a4ae6dd7f6 .axis.y text[transform].backwards{text-anchor:start}#chart-9ce38336-79ce-47f4-8580-c1a4ae6dd7f6 .axis.y2 text{text-anchor:start}#chart-9ce38336-79ce-47f4-8580-c1a4ae6dd7f6 .axis.y2 text[transform].backwards{text-anchor:end}#chart-9ce38336-79ce-47f4-8580-c1a4ae6dd7f6 .axis .guide.line{stroke-dasharray:4,4}#chart-9ce38336-79ce-47f4-8580-c1a4ae6dd7f6 .axis .major.guide.line{stroke-dasharray:6,6}#chart-9ce38336-79ce-47f4-8580-c1a4ae6dd7f6 .horizontal .axis.y .guide.line,#chart-9ce38336-79ce-47f4-8580-c1a4ae6dd7f6 .horizontal .axis.y2 .guide.line,#chart-9ce38336-79ce-47f4-8580-c1a4ae6dd7f6 .vertical .axis.x .guide.line{opacity:0}#chart-9ce38336-79ce-47f4-8580-c1a4ae6dd7f6 .horizontal .axis.always_show .guide.line,#chart-9ce38336-79ce-47f4-8580-c1a4ae6dd7f6 .vertical .axis.always_show .guide.line{opacity:1 !important}#chart-9ce38336-79ce-47f4-8580-c1a4ae6dd7f6 .axis.y .guides:hover .guide.line,#chart-9ce38336-79ce-47f4-8580-c1a4ae6dd7f6 .axis.y2 .guides:hover .guide.line,#chart-9ce38336-79ce-47f4-8580-c1a4ae6dd7f6 .axis.x .guides:hover .guide.line{opacity:1}#chart-9ce38336-79ce-47f4-8580-c1a4ae6dd7f6 .axis .guides:hover text{opacity:1}#chart-9ce38336-79ce-47f4-8580-c1a4ae6dd7f6 .nofill{fill:none}#chart-9ce38336-79ce-47f4-8580-c1a4ae6dd7f6 .subtle-fill{fill-opacity:.2}#chart-9ce38336-79ce-47f4-8580-c1a4ae6dd7f6 .dot{stroke-width:1px;fill-opacity:1}#chart-9ce38336-79ce-47f4-8580-c1a4ae6dd7f6 .dot.active{stroke-width:5px}#chart-9ce38336-79ce-47f4-8580-c1a4ae6dd7f6 .dot.negative{fill:transparent}#chart-9ce38336-79ce-47f4-8580-c1a4ae6dd7f6 text,#chart-9ce38336-79ce-47f4-8580-c1a4ae6dd7f6 tspan{stroke:none !important}#chart-9ce38336-79ce-47f4-8580-c1a4ae6dd7f6 .series text.active{opacity:1}#chart-9ce38336-79ce-47f4-8580-c1a4ae6dd7f6 .tooltip rect{fill-opacity:.95;stroke-width:.5}#chart-9ce38336-79ce-47f4-8580-c1a4ae6dd7f6 .tooltip text{fill-opacity:1}#chart-9ce38336-79ce-47f4-8580-c1a4ae6dd7f6 .showable{visibility:hidden}#chart-9ce38336-79ce-47f4-8580-c1a4ae6dd7f6 .showable.shown{visibility:visible}#chart-9ce38336-79ce-47f4-8580-c1a4ae6dd7f6 .gauge-background{fill:rgba(229,229,229,1);stroke:none}#chart-9ce38336-79ce-47f4-8580-c1a4ae6dd7f6 .bg-lines{stroke:rgba(249,249,249,1);stroke-width:2px}</style><script type="text/javascript">window.pygal = window.pygal || {};window.pygal.config = window.pygal.config || {};window.pygal.config['9ce38336-79ce-47f4-8580-c1a4ae6dd7f6'] = {"allow_interruptions": false, "box_mode": "extremes", "classes": ["pygal-chart"], "css": ["file://style.css", "file://graph.css"], "defs": [], "disable_xml_declaration": false, "dots_size": 2.5, "dynamic_print_values": false, "explicit_size": false, "fill": false, "force_uri_protocol": "https", "formatter": null, "half_pie": false, "height": 600, "include_x_axis": false, "inner_radius": 0, "interpolate": null, "interpolation_parameters": {}, "interpolation_precision": 250, "inverse_y_axis": false, "js": ["//kozea.github.io/pygal.js/2.0.x/pygal-tooltips.min.js"], "legend_at_bottom": true, "legend_at_bottom_columns": null, "legend_box_size": 12, "logarithmic": false, "margin": 20, "margin_bottom": null, "margin_left": null, "margin_right": null, "margin_top": null, "max_scale": 16, "min_scale": 4, "missing_value_fill_truncation": "x", "no_data_text": "No data", "no_prefix": false, "order_min": null, "pretty_print": false, "print_labels": false, "print_values": false, "print_values_position": "center", "print_zeroes": true, "range": null, "rounded_bars": null, "secondary_range": null, "show_dots": true, "show_legend": true, "show_minor_x_labels": false, "show_minor_y_labels": true, "show_only_major_dots": false, "show_x_guides": false, "show_x_labels": true, "show_y_guides": true, "show_y_labels": true, "spacing": 10, "stack_from_top": false, "strict": false, "stroke": true, "stroke_style": null, "style": {"background": "rgba(249, 249, 249, 1)", "ci_colors": [], "colors": ["red", "blue", "green", "#a3a3a3"], "font_family": "Consolas, \"Liberation Mono\", Menlo, Courier, monospace", "foreground": "rgba(0, 0, 0, .87)", "foreground_strong": "rgba(0, 0, 0, 1)", "foreground_subtle": "rgba(0, 0, 0, .54)", "guide_stroke_dasharray": "4,4", "label_font_family": "Consolas, \"Liberation Mono\", Menlo, Courier, monospace", "label_font_size": 10, "legend_font_family": "Consolas, \"Liberation Mono\", Menlo, Courier, monospace", "legend_font_size": 14, "major_guide_stroke_dasharray": "6,6", "major_label_font_family": "Consolas, \"Liberation Mono\", Menlo, Courier, monospace", "major_label_font_size": 10, "no_data_font_family": "Consolas, \"Liberation Mono\", Menlo, Courier, monospace", "no_data_font_size": 64, "opacity": ".7", "opacity_hover": ".8", "plot_background": "rgba(255, 255, 255, 1)", "stroke_opacity": ".8", "stroke_opacity_hover": ".9", "title_font_family": "Consolas, \"Liberation Mono\", Menlo, Courier, monospace", "title_font_size": 16, "tooltip_font_family": "Consolas, \"Liberation Mono\", Menlo, Courier, monospace", "tooltip_font_size": 14, "transition": "150ms", "value_background": "rgba(229, 229, 229, 1)", "value_colors": [], "value_font_family": "Consolas, \"Liberation Mono\", Menlo, Courier, monospace", "value_font_size": 16, "value_label_font_family": "Consolas, \"Liberation Mono\", Menlo, Courier, monospace", "value_label_font_size": 10}, "title": "A Kumble: Future and Past Averages in ODIs", "tooltip_border_radius": 10, "tooltip_fancy_mode": true, "truncate_label": null, "truncate_legend": null, "width": 800, "x_label_rotation": 45, "x_labels": ["1990", "0", "0", "0", "0", "0", "0", "1991", "0", "0", "1992", "0", "0", "0", "0", "0", "0", "0", "1993", "0", "0", "0", "0", "0", "0", "0", "0", "0", "0", "0", "0", "0", "0", "0", "0", "0", "1994", "0", "0", "0", "0", "0", "0", "0", "0", "0", "0", "0", "0", "0", "0", "0", "0", "0", "0", "0", "0", "0", "0", "1995", "0", "0", "0", "0", "0", "0", "0", "0", "0", "0", "0", "1996", "0", "0", "0", "0", "0", "0", "0", "0", "0", "0", "0", "0", "0", "0", "0", "0", "0", "0", "0", "0", "0", "0", "0", "0", "0", "0", "0", "0", "0", "0", "0", "1997", "0", "0", "0", "0", "0", "0", "0", "0", "0", "0", "0", "0", "0", "0", "0", "0", "0", "0", "0", "0", "0", "0", "1998", "0", "0", "0", "0", "0", "0", "0", "0", "0", "0", "0", "0", "0", "0", "0", "0", "0", "0", "0", "0", "0", "0", "0", "0", "1999", "0", "0", "0", "0", "0", "0", "0", "0", "0", "0", "0", "0", "0", "0", "0", "0", "0", "0", "0", "0", "0", "0", "0", "0", "0", "0", "0", "0", "2000", "0", "0", "0", "0", "0", "0", "0", "0", "0", "0", "0", "0", "0", "0", "0", "0", "0", "0", "0", "0", "0", "0", "0", "2001", "0", "0", "0", "0", "0", "0", "2002", "0", "0", "0", "0", "0", "0", "0", "0", "0", "0", "0", "0", "0", "0", "0", "0", "0", "0", "0", "2003", "0", "0", "0", "0", "0", "0", "0", "0", "2004", "0", "0", "0", "0", "0", "0", "0", "0", "0", "0", "0", "0", "2005", "0", "0", "0", "0", "2006", "0", "0", "2007", "0", "0", "0"], "x_labels_major": ["1990", "1991", "1992", "1993", "1994", "1995", "1996", "1997", "1998", "1999", "2000", "2001", "2002", "2003", "2004", "2005", "2006", "2007"], "x_labels_major_count": null, "x_labels_major_every": null, "x_title": null, "xrange": null, "y_label_rotation": 0, "y_labels": null, "y_labels_major": null, "y_labels_major_count": null, "y_labels_major_every": null, "y_title": null, "zero": 70.0, "legends": ["Future Average", "Past Average", "Career Average"]}</script><script type="text/javascript" xlink:href="https://kozea.github.io/pygal.js/2.0.x/pygal-tooltips.min.js"/></defs><title>A Kumble: Future and Past Averages in ODIs</title><g class="graph line-graph vertical"><rect class="background" height="600" width="800" x="0" y="0"/><g class="plot" transform="translate(42, 46)"><rect class="background" height="462.02943725152284" width="738.0" x="0" y="0"/><g class="axis y always_show"><g class="guides"><path class="axis major line" d="M0.000000 453.144256 h738.000000"/><text class="major" x="-5" y="456.6442557659166">0</text><title>0</title></g><g class="guides"><path class="guide line" d="M0.000000 381.489566 h738.000000"/><text class="" x="-5" y="384.98956636586655">10</text><title>10</title></g><g class="guides"><path class="guide line" d="M0.000000 309.834877 h738.000000"/><text class="" x="-5" y="313.33487696581653">20</text><title>20</title></g><g class="guides"><path class="guide line" d="M0.000000 238.180188 h738.000000"/><text class="" x="-5" y="241.68018756576646">30</text><title>30</title></g><g class="guides"><path class="guide line" d="M0.000000 166.525498 h738.000000"/><text class="" x="-5" y="170.02549816571639">40</text><title>40</title></g><g class="guides"><path class="major guide line" d="M0.000000 94.870809 h738.000000"/><text class="major" x="-5" y="98.37080876566631">50</text><title>50</title></g><g class="guides"><path class="guide line" d="M0.000000 23.216119 h738.000000"/><text class="" x="-5" y="26.716119365616237">60</text><title>60</title></g></g><g class="axis x"><g class="guides"><path class="major line" d="M14.192308 0.000000 v462.029437"/><text class="major" x="14.192307692307692" y="477.02943725152284" transform="rotate(45 14.192308 477.029437)">1990</text></g><g class="guides"><path class="major guide line" d="M33.007867 0.000000 v462.029437"/><text class="major" x="33.00786713286713" y="477.02943725152284" transform="rotate(45 33.007867 477.029437)">1991</text></g><g class="guides"><path class="major guide line" d="M41.071678 0.000000 v462.029437"/><text class="major" x="41.07167832167832" y="477.02943725152284" transform="rotate(45 41.071678 477.029437)">1992</text></g><g class="guides"><path class="major guide line" d="M62.575175 0.000000 v462.029437"/><text class="major" x="62.57517482517482" y="477.02943725152284" transform="rotate(45 62.575175 477.029437)">1993</text></g><g class="guides"><path class="major guide line" d="M110.958042 0.000000 v462.029437"/><text class="major" x="110.95804195804193" y="477.02943725152284" transform="rotate(45 110.958042 477.029437)">1994</text></g><g class="guides"><path class="major guide line" d="M172.780594 0.000000 v462.029437"/><text class="major" x="172.7805944055944" y="477.02943725152284" transform="rotate(45 172.780594 477.029437)">1995</text></g><g class="guides"><path class="major guide line" d="M205.035839 0.000000 v462.029437"/><text class="major" x="205.03583916083917" y="477.02943725152284" transform="rotate(45 205.035839 477.029437)">1996</text></g><g class="guides"><path class="major guide line" d="M291.049825 0.000000 v462.029437"/><text class="major" x="291.0498251748252" y="477.02943725152284" transform="rotate(45 291.049825 477.029437)">1997</text></g><g class="guides"><path class="major guide line" d="M352.872378 0.000000 v462.029437"/><text class="major" x="352.8723776223776" y="477.02943725152284" transform="rotate(45 352.872378 477.029437)">1998</text></g><g class="guides"><path class="major guide line" d="M420.070804 0.000000 v462.029437"/><text class="major" x="420.0708041958042" y="477.02943725152284" transform="rotate(45 420.070804 477.029437)">1999</text></g><g class="guides"><path class="major guide line" d="M498.020979 0.000000 v462.029437"/><text class="major" x="498.0209790209789" y="477.02943725152284" transform="rotate(45 498.020979 477.029437)">2000</text></g><g class="guides"><path class="major guide line" d="M562.531469 0.000000 v462.029437"/><text class="major" x="562.5314685314685" y="477.02943725152284" transform="rotate(45 562.531469 477.029437)">2001</text></g><g class="guides"><path class="major guide line" d="M581.347028 0.000000 v462.029437"/><text class="major" x="581.347027972028" y="477.02943725152284" transform="rotate(45 581.347028 477.029437)">2002</text></g><g class="guides"><path class="major guide line" d="M635.105769 0.000000 v462.029437"/><text class="major" x="635.1057692307692" y="477.02943725152284" transform="rotate(45 635.105769 477.029437)">2003</text></g><g class="guides"><path class="major guide line" d="M659.297203 0.000000 v462.029437"/><text class="major" x="659.2972027972028" y="477.02943725152284" transform="rotate(45 659.297203 477.029437)">2004</text></g><g class="guides"><path class="major guide line" d="M694.240385 0.000000 v462.029437"/><text class="major" x="694.2403846153845" y="477.02943725152284" transform="rotate(45 694.240385 477.029437)">2005</text></g><g class="guides"><path class="major guide line" d="M707.680070 0.000000 v462.029437"/><text class="major" x="707.6800699300699" y="477.02943725152284" transform="rotate(45 707.680070 477.029437)">2006</text></g><g class="guides"><path class="major guide line" d="M715.743881 0.000000 v462.029437"/><text class="major" x="715.743881118881" y="477.02943725152284" transform="rotate(45 715.743881 477.029437)">2007</text></g></g><g class="series serie-0 color-0"><path class="line reactive nofill" d="M14.192308 231.731266 L16.880245 232.017884 19.568182 232.017884 22.256119 231.372992 24.944056 232.591122 27.631993 233.307669 30.319930 234.454144 33.007867 234.669108 35.695804 233.092705 38.383741 233.594287 41.071678 234.382489 43.759615 234.454144 46.447552 235.314000 49.135490 235.743928 51.823427 235.099036 54.511364 235.099036 57.199301 235.242345 59.887238 235.242345 62.575175 236.030547 65.263112 236.532130 67.951049 236.675439 70.638986 237.535295 73.326923 238.036878 76.014860 238.323497 78.702797 239.613281 81.390734 239.756591 84.078671 239.183353 86.766608 238.538461 89.454545 237.678605 92.142483 238.466806 94.830420 239.326663 97.518357 240.401483 100.206294 238.896734 102.894231 239.899900 105.582168 239.971555 108.270105 239.255008 110.958042 235.314000 113.645979 234.095870 116.333916 235.027381 119.021853 235.242345 121.709790 235.958892 124.397727 233.092705 127.085664 231.946230 129.773601 231.158028 132.461538 231.802920 135.149476 230.728100 137.837413 232.161194 140.525350 231.802920 143.213287 231.802920 145.901224 231.587956 148.589161 232.161194 151.277098 232.447812 153.965035 232.519467 156.652972 233.880906 159.340909 235.170691 162.028846 235.457309 164.716783 235.385655 167.404720 234.884072 170.092657 233.594287 172.780594 233.092705 175.468531 234.024216 178.156469 231.802920 180.844406 231.731266 183.532343 230.656445 186.220280 229.724934 188.908217 229.868244 191.596154 229.581625 194.284091 230.656445 196.972028 230.226517 199.659965 231.229683 202.347902 230.871409 205.035839 228.650114 207.723776 226.715437 210.411713 224.995725 213.099650 225.425653 215.787587 224.709106 218.475524 223.777595 221.163462 222.344501 223.851399 222.917739 226.539336 224.279178 229.227273 224.494142 231.915210 225.067379 234.603147 224.494142 237.291084 223.705940 239.979021 223.849250 242.666958 223.132703 245.354895 222.057882 248.042832 223.204357 250.730769 223.849250 253.418706 225.067379 256.106643 221.986228 258.794580 221.054717 261.482517 218.905076 264.170455 218.905076 266.858392 214.820759 269.546329 213.745938 272.234266 211.882917 274.922203 209.733276 277.610140 208.730110 280.298077 208.085218 282.986014 209.518312 285.673951 207.297016 288.361888 203.069390 291.049825 203.069390 293.737762 203.356009 296.425699 202.926080 299.113636 202.711116 301.801573 202.782771 304.489510 202.639462 307.177448 201.922915 309.865385 200.919749 312.553322 200.274857 315.241259 199.773274 317.929196 197.766943 320.617133 198.196871 323.305070 199.558310 325.993007 199.343346 328.680944 198.698454 331.368881 199.629965 334.056818 201.206368 336.744755 200.418166 339.432692 202.711116 342.120629 204.860757 344.808566 205.219030 347.496503 206.007232 350.184441 204.932412 352.872378 205.720613 355.560315 206.437160 358.248252 206.078887 360.936189 206.437160 363.624126 204.932412 366.312063 201.994569 369.000000 202.997735 371.687937 200.919749 374.375874 201.206368 377.063811 201.707951 379.751748 197.480324 382.439685 195.259029 385.127622 193.396007 387.815559 192.536150 390.503497 192.321186 393.191434 191.532985 395.879371 190.458164 398.567308 191.532985 401.255245 192.249532 403.943182 190.959747 406.631119 193.324352 409.319056 194.184208 412.006993 192.392841 414.694930 190.028236 417.382867 188.666797 420.070804 186.087228 422.758741 186.158883 425.446678 186.660466 428.134615 188.738452 430.822552 191.103057 433.510490 191.389675 436.198427 185.800610 438.886364 185.442336 441.574301 188.810107 444.262238 188.451833 446.950175 190.314855 449.638112 187.520322 452.326049 186.875430 455.013986 183.937588 457.701923 184.367516 460.389860 182.146220 463.077797 181.429674 465.765734 178.348522 468.453671 181.644638 471.141608 179.423342 473.829545 182.719458 476.517483 185.084063 479.205420 188.523488 481.893357 189.240035 484.581294 188.093560 487.269231 184.940753 489.957168 185.943919 492.645105 185.155717 495.333042 182.432839 498.020979 179.566652 500.708916 179.280033 503.396853 180.784781 506.084790 181.716292 508.772727 180.713127 511.460664 171.326362 514.148601 170.681470 516.836538 170.394851 519.524476 174.550823 522.212413 174.335859 524.900350 170.824780 527.588287 170.179887 530.276224 168.460175 532.964161 171.899600 535.652098 166.883772 538.340035 169.463340 541.027972 168.101901 543.715909 172.329528 546.403846 175.840608 549.091783 168.388520 551.779720 162.297871 554.467657 166.740462 557.155594 161.079742 559.843531 158.141900 562.531469 159.145065 565.219406 165.307368 567.907343 160.793123 570.595280 147.393696 573.283217 146.533840 575.971154 153.341035 578.659091 150.761466 581.347028 153.842618 584.034965 149.973265 586.722902 150.546502 589.410839 143.882616 592.098776 137.720313 594.786713 143.094415 597.474650 149.400027 600.162587 153.555999 602.850524 154.630820 605.538462 161.652979 608.226399 168.173556 610.914336 161.294706 613.602273 154.200892 616.290210 156.278878 618.978147 157.425353 621.666084 152.911107 624.354021 162.656145 627.041958 162.727800 629.729895 164.232548 632.417832 170.609815 635.105769 173.476003 637.793706 165.307368 640.481643 160.219885 643.169580 128.763477 645.857517 123.532685 648.545455 136.143910 651.233392 120.093259 653.921329 133.349377 656.609266 137.577004 659.297203 122.027936 661.985140 125.109088 664.673077 122.529519 667.361014 139.798299 670.048951 154.129237 672.736888 165.880606 675.424825 157.640317 678.112762 173.332694 680.800699 162.369526 683.488636 181.644638 686.176573 179.280033 688.864510 161.581325 691.552448 187.162049 694.240385 203.212699 696.928322 204.932412 699.616259 195.760611 702.304196 140.228227 704.992133 191.174711 707.680070 193.396007 710.368007 214.892414 713.055944 185.657300 715.743881 225.067379 718.431818 275.440626 721.119755 221.484645 723.807692 362.357764"/></g><g class="series serie-1 color-1"><path class="line reactive nofill" d="M14.192308 453.144256 L16.880245 152.194560 19.568182 184.439171 22.256119 266.842063 24.944056 162.942764 27.631993 100.244910 30.319930 8.885181 33.007867 40.413245 35.695804 184.009242 38.383741 164.949095 41.071678 137.075421 43.759615 143.595998 46.447552 116.367216 49.135490 100.603184 51.823427 142.019594 54.511364 147.751970 57.199301 152.194560 59.887238 156.493842 62.575175 140.729810 65.263112 136.072255 67.951049 139.153407 70.638986 122.672828 73.326923 112.999445 76.014860 115.579014 78.702797 92.506204 81.390734 97.522032 84.078671 120.451533 86.766608 138.795133 89.454545 157.640317 92.142483 147.608660 94.830420 137.003766 97.518357 123.819303 100.206294 152.982762 102.894231 142.234558 105.582168 144.312544 108.270105 157.497007 110.958042 203.141044 113.645979 214.534140 116.333916 207.511981 119.021853 206.365505 121.709790 201.278023 124.397727 223.562631 127.085664 230.728100 129.773601 235.242345 132.461538 231.587956 135.149476 237.248677 137.837413 229.796589 140.525350 231.659611 143.213287 231.659611 145.901224 232.806086 148.589161 229.868244 151.277098 228.578459 153.965035 228.148531 156.652972 221.842918 159.340909 215.823924 162.028846 214.892414 164.716783 215.608960 167.404720 218.475148 170.092657 224.350833 172.780594 226.428819 175.468531 222.917739 178.156469 231.587956 180.844406 231.874575 183.532343 235.528964 186.220280 238.466806 188.908217 237.821914 191.596154 238.681770 194.284091 235.170691 196.972028 236.460475 199.659965 233.379323 202.347902 234.525798 205.035839 240.616447 207.723776 245.488966 210.411713 249.501628 213.099650 248.068535 215.787587 249.429974 218.475524 251.221341 221.163462 253.800910 223.851399 252.152852 226.539336 248.928391 229.227273 248.211844 231.915210 246.707096 234.603147 247.566952 237.291084 248.856736 239.979021 248.283499 242.666958 249.286664 245.354895 251.078032 248.042832 248.785082 250.730769 247.280333 253.418706 244.772419 256.106643 249.859902 258.794580 251.078032 261.482517 254.159183 264.170455 253.872565 266.858392 259.461630 269.546329 260.464796 272.234266 262.256163 274.922203 264.262495 277.610140 264.907387 280.298077 265.122351 282.986014 263.044365 285.673951 264.907387 288.361888 268.848395 291.049825 268.418466 293.737762 267.558610 296.425699 267.271991 299.113636 267.057027 301.801573 266.627099 304.489510 266.412135 307.177448 266.340480 309.865385 266.627099 312.553322 267.057027 315.241259 267.128682 317.929196 268.490121 320.617133 267.558610 323.305070 266.125516 325.993007 265.982207 328.680944 265.838898 331.368881 264.477459 334.056818 262.829401 336.744755 263.259329 339.432692 260.966379 342.120629 258.816738 344.808566 258.100191 347.496503 257.025371 350.184441 257.455299 352.872378 256.452133 355.560315 255.448968 358.248252 255.520622 360.936189 254.947385 363.624126 255.663932 366.312063 257.455299 369.000000 256.237169 371.687937 257.383644 374.375874 256.882061 377.063811 256.165515 379.751748 258.601774 382.439685 259.604940 385.127622 260.393141 387.815559 260.321487 390.503497 260.178177 393.191434 260.321487 395.879371 260.751415 398.567308 259.676594 401.255245 258.816738 403.943182 259.031702 406.631119 257.455299 409.319056 256.595443 412.006993 257.097026 414.694930 257.956882 417.382867 258.530119 420.070804 259.389976 422.758741 259.031702 425.446678 258.673429 428.134615 257.455299 430.822552 255.735586 433.510490 255.234004 436.198427 257.168680 438.886364 257.025371 441.574301 255.234004 444.262238 255.090694 446.950175 254.087529 449.638112 254.947385 452.326049 255.019040 455.013986 255.878896 457.701923 255.377313 460.389860 255.807241 463.077797 255.807241 465.765734 256.595443 468.453671 255.090694 471.141608 255.448968 473.829545 253.944219 476.517483 252.869399 479.205420 251.364650 481.893357 250.719758 484.581294 250.719758 487.269231 251.507960 489.957168 250.791413 492.645105 250.576449 495.333042 251.149686 498.020979 251.651269 500.708916 251.436305 503.396853 250.648104 506.084790 250.289830 508.772727 250.361485 511.460664 252.439471 514.148601 252.009543 516.836538 251.794579 519.524476 250.433139 522.212413 250.218175 524.900350 250.719758 527.588287 250.648104 530.276224 250.504794 532.964161 249.501628 535.652098 250.289830 538.340035 249.286664 541.027972 249.358319 543.715909 248.211844 546.403846 247.208678 549.091783 248.355153 551.779720 249.286664 554.467657 248.211844 557.155594 249.000046 559.843531 249.000046 562.531469 248.426808 565.219406 247.065369 567.907343 247.423642 570.595280 249.286664 573.283217 249.071700 575.971154 247.710261 578.659091 247.925225 581.347028 247.280333 584.034965 247.351988 586.722902 246.922060 589.410839 247.423642 592.098776 247.781916 594.786713 246.850405 597.474650 245.775585 600.162587 244.772419 602.850524 244.270836 605.538462 243.124361 608.226399 242.049541 610.914336 242.622778 613.602273 243.124361 616.290210 242.479469 618.978147 242.049541 621.666084 242.049541 624.354021 240.831411 627.041958 240.544792 629.729895 240.114864 632.417832 239.326663 635.105769 238.968389 637.793706 239.469972 640.481643 239.756591 643.169580 241.834577 645.857517 241.977886 648.545455 240.759756 651.233392 241.476303 653.921329 240.329828 656.609266 239.613281 659.297203 240.186519 661.985140 239.541627 664.673077 239.398317 667.361014 238.180188 670.048951 237.177022 672.736888 236.388820 675.424825 236.675439 678.112762 235.672273 680.800699 235.887238 683.488636 234.740762 686.176573 234.740762 688.864510 235.242345 691.552448 233.952561 694.240385 233.164359 696.928322 232.949395 699.616259 233.092705 702.304196 234.239180 704.992133 232.877741 707.680070 232.662776 710.368007 232.161194 713.055944 232.591122 715.743881 231.874575 718.431818 231.086373 721.119755 231.874575 723.807692 230.584790"/></g><g class="series serie-2 color-2"><path class="line reactive nofill" d="M14.192308 231.731266 L16.880245 231.731266 19.568182 231.731266 22.256119 231.731266 24.944056 231.731266 27.631993 231.731266 30.319930 231.731266 33.007867 231.731266 35.695804 231.731266 38.383741 231.731266 41.071678 231.731266 43.759615 231.731266 46.447552 231.731266 49.135490 231.731266 51.823427 231.731266 54.511364 231.731266 57.199301 231.731266 59.887238 231.731266 62.575175 231.731266 65.263112 231.731266 67.951049 231.731266 70.638986 231.731266 73.326923 231.731266 76.014860 231.731266 78.702797 231.731266 81.390734 231.731266 84.078671 231.731266 86.766608 231.731266 89.454545 231.731266 92.142483 231.731266 94.830420 231.731266 97.518357 231.731266 100.206294 231.731266 102.894231 231.731266 105.582168 231.731266 108.270105 231.731266 110.958042 231.731266 113.645979 231.731266 116.333916 231.731266 119.021853 231.731266 121.709790 231.731266 124.397727 231.731266 127.085664 231.731266 129.773601 231.731266 132.461538 231.731266 135.149476 231.731266 137.837413 231.731266 140.525350 231.731266 143.213287 231.731266 145.901224 231.731266 148.589161 231.731266 151.277098 231.731266 153.965035 231.731266 156.652972 231.731266 159.340909 231.731266 162.028846 231.731266 164.716783 231.731266 167.404720 231.731266 170.092657 231.731266 172.780594 231.731266 175.468531 231.731266 178.156469 231.731266 180.844406 231.731266 183.532343 231.731266 186.220280 231.731266 188.908217 231.731266 191.596154 231.731266 194.284091 231.731266 196.972028 231.731266 199.659965 231.731266 202.347902 231.731266 205.035839 231.731266 207.723776 231.731266 210.411713 231.731266 213.099650 231.731266 215.787587 231.731266 218.475524 231.731266 221.163462 231.731266 223.851399 231.731266 226.539336 231.731266 229.227273 231.731266 231.915210 231.731266 234.603147 231.731266 237.291084 231.731266 239.979021 231.731266 242.666958 231.731266 245.354895 231.731266 248.042832 231.731266 250.730769 231.731266 253.418706 231.731266 256.106643 231.731266 258.794580 231.731266 261.482517 231.731266 264.170455 231.731266 266.858392 231.731266 269.546329 231.731266 272.234266 231.731266 274.922203 231.731266 277.610140 231.731266 280.298077 231.731266 282.986014 231.731266 285.673951 231.731266 288.361888 231.731266 291.049825 231.731266 293.737762 231.731266 296.425699 231.731266 299.113636 231.731266 301.801573 231.731266 304.489510 231.731266 307.177448 231.731266 309.865385 231.731266 312.553322 231.731266 315.241259 231.731266 317.929196 231.731266 320.617133 231.731266 323.305070 231.731266 325.993007 231.731266 328.680944 231.731266 331.368881 231.731266 334.056818 231.731266 336.744755 231.731266 339.432692 231.731266 342.120629 231.731266 344.808566 231.731266 347.496503 231.731266 350.184441 231.731266 352.872378 231.731266 355.560315 231.731266 358.248252 231.731266 360.936189 231.731266 363.624126 231.731266 366.312063 231.731266 369.000000 231.731266 371.687937 231.731266 374.375874 231.731266 377.063811 231.731266 379.751748 231.731266 382.439685 231.731266 385.127622 231.731266 387.815559 231.731266 390.503497 231.731266 393.191434 231.731266 395.879371 231.731266 398.567308 231.731266 401.255245 231.731266 403.943182 231.731266 406.631119 231.731266 409.319056 231.731266 412.006993 231.731266 414.694930 231.731266 417.382867 231.731266 420.070804 231.731266 422.758741 231.731266 425.446678 231.731266 428.134615 231.731266 430.822552 231.731266 433.510490 231.731266 436.198427 231.731266 438.886364 231.731266 441.574301 231.731266 444.262238 231.731266 446.950175 231.731266 449.638112 231.731266 452.326049 231.731266 455.013986 231.731266 457.701923 231.731266 460.389860 231.731266 463.077797 231.731266 465.765734 231.731266 468.453671 231.731266 471.141608 231.731266 473.829545 231.731266 476.517483 231.731266 479.205420 231.731266 481.893357 231.731266 484.581294 231.731266 487.269231 231.731266 489.957168 231.731266 492.645105 231.731266 495.333042 231.731266 498.020979 231.731266 500.708916 231.731266 503.396853 231.731266 506.084790 231.731266 508.772727 231.731266 511.460664 231.731266 514.148601 231.731266 516.836538 231.731266 519.524476 231.731266 522.212413 231.731266 524.900350 231.731266 527.588287 231.731266 530.276224 231.731266 532.964161 231.731266 535.652098 231.731266 538.340035 231.731266 541.027972 231.731266 543.715909 231.731266 546.403846 231.731266 549.091783 231.731266 551.779720 231.731266 554.467657 231.731266 557.155594 231.731266 559.843531 231.731266 562.531469 231.731266 565.219406 231.731266 567.907343 231.731266 570.595280 231.731266 573.283217 231.731266 575.971154 231.731266 578.659091 231.731266 581.347028 231.731266 584.034965 231.731266 586.722902 231.731266 589.410839 231.731266 592.098776 231.731266 594.786713 231.731266 597.474650 231.731266 600.162587 231.731266 602.850524 231.731266 605.538462 231.731266 608.226399 231.731266 610.914336 231.731266 613.602273 231.731266 616.290210 231.731266 618.978147 231.731266 621.666084 231.731266 624.354021 231.731266 627.041958 231.731266 629.729895 231.731266 632.417832 231.731266 635.105769 231.731266 637.793706 231.731266 640.481643 231.731266 643.169580 231.731266 645.857517 231.731266 648.545455 231.731266 651.233392 231.731266 653.921329 231.731266 656.609266 231.731266 659.297203 231.731266 661.985140 231.731266 664.673077 231.731266 667.361014 231.731266 670.048951 231.731266 672.736888 231.731266 675.424825 231.731266 678.112762 231.731266 680.800699 231.731266 683.488636 231.731266 686.176573 231.731266 688.864510 231.731266 691.552448 231.731266 694.240385 231.731266 696.928322 231.731266 699.616259 231.731266 702.304196 231.731266 704.992133 231.731266 707.680070 231.731266 710.368007 231.731266 713.055944 231.731266 715.743881 231.731266 718.431818 231.731266 721.119755 231.731266 723.807692 231.731266"/></g></g><g class="titles"><text class="title plot_title" x="400.0" y="26">A Kumble: Future and Past Averages in ODIs</text></g><g class="plot overlay" transform="translate(42, 46)"><g class="series serie-0 color-0"><g class="dots"><desc class="label">337 wickets in 265 innings (2416.0 overs)</desc><circle class="dot reactive tooltip-trigger" cx="14.192307692307692" cy="231.73126551976193" r="2.5"/><desc class="value">30.9</desc><desc class="x top">14.192307692307692</desc><desc class="y top">231.73126551976193</desc><desc class="x_label">1990</desc></g><g class="dots"><desc class="label">332 wickets in 258 innings (2348.0 overs)</desc><circle class="dot reactive tooltip-trigger" cx="33.00786713286713" cy="234.66910778516402" r="2.5"/><desc class="value">30.49</desc><desc class="x top">33.00786713286713</desc><desc class="y top">234.66910778516402</desc><desc class="x_label">1991</desc></g><g class="dots"><desc class="label">328 wickets in 255 innings (2321.0 overs)</desc><circle class="dot reactive tooltip-trigger" cx="41.07167832167832" cy="234.3824890275638" r="2.5"/><desc class="value">30.53</desc><desc class="x top">41.07167832167832</desc><desc class="y top">234.3824890275638</desc><desc class="x_label">1992</desc></g><g class="dots"><desc class="label">322 wickets in 247 innings (2245.0 overs)</desc><circle class="dot reactive tooltip-trigger" cx="62.57517482517482" cy="236.03054688376494" r="2.5"/><desc class="value">30.3</desc><desc class="x top">62.57517482517482</desc><desc class="y top">236.03054688376494</desc><desc class="x_label">1993</desc></g><g class="dots"><desc class="label">300 wickets in 229 innings (2084.5 overs)</desc><circle class="dot reactive tooltip-trigger" cx="110.95804195804193" cy="235.31399998976445" r="2.5"/><desc class="value">30.4</desc><desc class="x top">110.95804195804193</desc><desc class="y top">235.31399998976445</desc><desc class="x_label">1994</desc></g><g class="dots"><desc class="label">268 wickets in 206 innings (1875.5 overs)</desc><circle class="dot reactive tooltip-trigger" cx="172.7805944055944" cy="233.0927046183629" r="2.5"/><desc class="value">30.71</desc><desc class="x top">172.7805944055944</desc><desc class="y top">233.0927046183629</desc><desc class="x_label">1995</desc></g><g class="dots"><desc class="label">250 wickets in 194 innings (1771.5 overs)</desc><circle class="dot reactive tooltip-trigger" cx="205.03583916083917" cy="228.65011387555978" r="2.5"/><desc class="value">31.33</desc><desc class="x ">205.03583916083917</desc><desc class="y ">228.65011387555978</desc><desc class="x_label">1996</desc></g><g class="dots"><desc class="label">189 wickets in 162 innings (1467.4 overs)</desc><circle class="dot reactive tooltip-trigger" cx="291.0498251748252" cy="203.0693897597419" r="2.5"/><desc class="value">34.9</desc><desc class="x ">291.0498251748252</desc><desc class="y ">203.0693897597419</desc><desc class="x_label">1997</desc></g><g class="dots"><desc class="label">164 wickets in 139 innings (1262.5 overs)</desc><circle class="dot reactive tooltip-trigger" cx="352.8723776223776" cy="205.72061326754374" r="2.5"/><desc class="value">34.53</desc><desc class="x ">352.8723776223776</desc><desc class="y ">205.72061326754374</desc><desc class="x_label">1998</desc></g><g class="dots"><desc class="label">127 wickets in 114 innings (1027.5 overs)</desc><circle class="dot reactive tooltip-trigger" cx="420.0708041958042" cy="186.08722837193" r="2.5"/><desc class="value">37.27</desc><desc class="x left">420.0708041958042</desc><desc class="y left">186.08722837193</desc><desc class="x_label">1999</desc></g><g class="dots"><desc class="label">93 wickets in 85 innings (769.3 overs)</desc><circle class="dot reactive tooltip-trigger" cx="498.0209790209789" cy="179.56665163652548" r="2.5"/><desc class="value">38.18</desc><desc class="x left">498.0209790209789</desc><desc class="y left">179.56665163652548</desc><desc class="x_label">2000</desc></g><g class="dots"><desc class="label">63 wickets in 61 innings (554.5 overs)</desc><circle class="dot reactive tooltip-trigger" cx="562.5314685314685" cy="159.14506515751117" r="2.5"/><desc class="value">41.03</desc><desc class="x left">562.5314685314685</desc><desc class="y left">159.14506515751117</desc><desc class="x_label">2001</desc></g><g class="dots"><desc class="label">56 wickets in 54 innings (486.5 overs)</desc><circle class="dot reactive tooltip-trigger" cx="581.347027972028" cy="153.8426181419075" r="2.5"/><desc class="value">41.77</desc><desc class="x left">581.347027972028</desc><desc class="y left">153.8426181419075</desc><desc class="x_label">2002</desc></g><g class="dots"><desc class="label">37 wickets in 34 innings (304.1 overs)</desc><circle class="dot reactive tooltip-trigger" cx="635.1057692307692" cy="173.4760030375212" r="2.5"/><desc class="value">39.03</desc><desc class="x left">635.1057692307692</desc><desc class="y left">173.4760030375212</desc><desc class="x_label">2003</desc></g><g class="dots"><desc class="label">24 wickets in 25 innings (226.3 overs)</desc><circle class="dot reactive tooltip-trigger" cx="659.2972027972028" cy="122.02793604828526" r="2.5"/><desc class="value">46.21</desc><desc class="x left">659.2972027972028</desc><desc class="y left">122.02793604828526</desc><desc class="x_label">2004</desc></g><g class="dots"><desc class="label">16 wickets in 12 innings (113.1 overs)</desc><circle class="dot reactive tooltip-trigger" cx="694.2403846153845" cy="203.212699138542" r="2.5"/><desc class="value">34.88</desc><desc class="x left">694.2403846153845</desc><desc class="y left">203.212699138542</desc><desc class="x_label">2005</desc></g><g class="dots"><desc class="label">8 wickets in 7 innings (63.1 overs)</desc><circle class="dot reactive tooltip-trigger" cx="707.6800699300699" cy="193.39600669073513" r="2.5"/><desc class="value">36.25</desc><desc class="x left">707.6800699300699</desc><desc class="y left">193.39600669073513</desc><desc class="x_label">2006</desc></g><g class="dots"><desc class="label">6 wickets in 4 innings (36.1 overs)</desc><circle class="dot reactive tooltip-trigger" cx="715.743881118881" cy="225.0673794055573" r="2.5"/><desc class="value">31.83</desc><desc class="x left">715.743881118881</desc><desc class="y left">225.0673794055573</desc><desc class="x_label">2007</desc></g></g><g class="series serie-1 color-1"><g class="dots"><desc class="label">0 wickets over 0 innings</desc><circle class="dot reactive tooltip-trigger" cx="14.192307692307692" cy="453.1442557659166" r="2.5"/><desc class="value">0</desc><desc class="x top">14.192307692307692</desc><desc class="y top">453.1442557659166</desc><desc class="x_label">1990</desc></g><g class="dots"><desc class="label">5 wickets in 7 innings (68.0 overs)</desc><circle class="dot reactive tooltip-trigger" cx="33.00786713286713" cy="40.41324482162827" r="2.5"/><desc class="value">57.6</desc><desc class="x ">33.00786713286713</desc><desc class="y ">40.41324482162827</desc><desc class="x_label">1991</desc></g><g class="dots"><desc class="label">9 wickets in 10 innings (95.0 overs)</desc><circle class="dot reactive tooltip-trigger" cx="41.07167832167832" cy="137.07542082229577" r="2.5"/><desc class="value">44.11</desc><desc class="x ">41.07167832167832</desc><desc class="y ">137.07542082229577</desc><desc class="x_label">1992</desc></g><g class="dots"><desc class="label">15 wickets in 18 innings (171.0 overs)</desc><circle class="dot reactive tooltip-trigger" cx="62.57517482517482" cy="140.72980998169828" r="2.5"/><desc class="value">43.6</desc><desc class="x ">62.57517482517482</desc><desc class="y ">140.72980998169828</desc><desc class="x_label">1993</desc></g><g class="dots"><desc class="label">37 wickets in 36 innings (331.1 overs)</desc><circle class="dot reactive tooltip-trigger" cx="110.95804195804193" cy="203.14104444914193" r="2.5"/><desc class="value">34.89</desc><desc class="x ">110.95804195804193</desc><desc class="y ">203.14104444914193</desc><desc class="x_label">1994</desc></g><g class="dots"><desc class="label">69 wickets in 59 innings (540.1 overs)</desc><circle class="dot reactive tooltip-trigger" cx="172.7805944055944" cy="226.42881850415822" r="2.5"/><desc class="value">31.64</desc><desc class="x ">172.7805944055944</desc><desc class="y ">226.42881850415822</desc><desc class="x_label">1995</desc></g><g class="dots"><desc class="label">87 wickets in 71 innings (644.1 overs)</desc><circle class="dot reactive tooltip-trigger" cx="205.03583916083917" cy="240.61644700536814" r="2.5"/><desc class="value">29.66</desc><desc class="x top">205.03583916083917</desc><desc class="y top">240.61644700536814</desc><desc class="x_label">1996</desc></g><g class="dots"><desc class="label">148 wickets in 103 innings (948.2 overs)</desc><circle class="dot reactive tooltip-trigger" cx="291.0498251748252" cy="268.4184664925875" r="2.5"/><desc class="value">25.78</desc><desc class="x top">291.0498251748252</desc><desc class="y top">268.4184664925875</desc><desc class="x_label">1997</desc></g><g class="dots"><desc class="label">173 wickets in 126 innings (1153.1 overs)</desc><circle class="dot reactive tooltip-trigger" cx="352.8723776223776" cy="256.45213336277925" r="2.5"/><desc class="value">27.45</desc><desc class="x top">352.8723776223776</desc><desc class="y top">256.45213336277925</desc><desc class="x_label">1998</desc></g><g class="dots"><desc class="label">210 wickets in 151 innings (1388.1 overs)</desc><circle class="dot reactive tooltip-trigger" cx="420.0708041958042" cy="259.3899756281813" r="2.5"/><desc class="value">27.04</desc><desc class="x left top">420.0708041958042</desc><desc class="y left top">259.3899756281813</desc><desc class="x_label">1999</desc></g><g class="dots"><desc class="label">244 wickets in 180 innings (1646.3 overs)</desc><circle class="dot reactive tooltip-trigger" cx="498.0209790209789" cy="251.65126917297587" r="2.5"/><desc class="value">28.12</desc><desc class="x left top">498.0209790209789</desc><desc class="y left top">251.65126917297587</desc><desc class="x_label">2000</desc></g><g class="dots"><desc class="label">274 wickets in 204 innings (1861.1 overs)</desc><circle class="dot reactive tooltip-trigger" cx="562.5314685314685" cy="248.4268081499736" r="2.5"/><desc class="value">28.57</desc><desc class="x left top">562.5314685314685</desc><desc class="y left top">248.4268081499736</desc><desc class="x_label">2001</desc></g><g class="dots"><desc class="label">281 wickets in 211 innings (1929.1 overs)</desc><circle class="dot reactive tooltip-trigger" cx="581.347027972028" cy="247.2803331195728" r="2.5"/><desc class="value">28.73</desc><desc class="x left top">581.347027972028</desc><desc class="y left top">247.2803331195728</desc><desc class="x_label">2002</desc></g><g class="dots"><desc class="label">300 wickets in 231 innings (2111.5 overs)</desc><circle class="dot reactive tooltip-trigger" cx="635.1057692307692" cy="238.968389149167" r="2.5"/><desc class="value">29.89</desc><desc class="x left top">635.1057692307692</desc><desc class="y left top">238.968389149167</desc><desc class="x_label">2003</desc></g><g class="dots"><desc class="label">313 wickets in 240 innings (2189.3 overs)</desc><circle class="dot reactive tooltip-trigger" cx="659.2972027972028" cy="240.18651886896785" r="2.5"/><desc class="value">29.72</desc><desc class="x left top">659.2972027972028</desc><desc class="y left top">240.18651886896785</desc><desc class="x_label">2004</desc></g><g class="dots"><desc class="label">321 wickets in 253 innings (2302.5 overs)</desc><circle class="dot reactive tooltip-trigger" cx="694.2403846153845" cy="233.16435930776294" r="2.5"/><desc class="value">30.7</desc><desc class="x left top">694.2403846153845</desc><desc class="y left top">233.16435930776294</desc><desc class="x_label">2005</desc></g><g class="dots"><desc class="label">329 wickets in 258 innings (2352.5 overs)</desc><circle class="dot reactive tooltip-trigger" cx="707.6800699300699" cy="232.6627764819626" r="2.5"/><desc class="value">30.77</desc><desc class="x left top">707.6800699300699</desc><desc class="y left top">232.6627764819626</desc><desc class="x_label">2006</desc></g><g class="dots"><desc class="label">331 wickets in 261 innings (2379.5 overs)</desc><circle class="dot reactive tooltip-trigger" cx="715.743881118881" cy="231.87457489856206" r="2.5"/><desc class="value">30.88</desc><desc class="x left top">715.743881118881</desc><desc class="y left top">231.87457489856206</desc><desc class="x_label">2007</desc></g></g><g class="series serie-2 color-2"/></g><g class="plot text-overlay" transform="translate(42, 46)"><g class="series serie-0 color-0"/><g class="series serie-1 color-1"/><g class="series serie-2 color-2"/></g><g class="plot tooltip-overlay" transform="translate(42, 46)"><g class="tooltip" style="opacity: 0" transform="translate(0 0)"><rect class="tooltip-box" height="0" rx="10" ry="10" width="0"/><g class="text"/></g></g><g class="legends" transform="translate(52, 545)"><g class="legend reactive activate-serie" id="activate-serie-0"><rect class="color-0 reactive" height="12" width="12" x="0.0" y="1.0"/><text x="17.0" y="11.2">Future Average</text></g><g class="legend reactive activate-serie" id="activate-serie-1"><rect class="color-1 reactive" height="12" width="12" x="369.0" y="1.0"/><text x="386.0" y="11.2">Past Average</text></g><g class="legend reactive activate-serie" id="activate-serie-2"><rect class="color-2 reactive" height="12" width="12" x="0.0" y="22.0"/><text x="17.0" y="32.2">Career Average</text></g></g></g></svg>