<?xml version='1.0' encoding='utf-8'?>
<svg xmlns:xlink="http://www.w3.org/1999/xlink" xmlns="http://www.w3.org/2000/svg" id="chart-9bec4209-c835-43e1-9184-48d1b7900fb5" class="pygal-chart" viewBox="0 0 800 600"><!--Generated with pygal 2.4.0 (lxml) ©Kozea 2012-2016 on 2019-08-04--><!--http://pygal.org--><!--http://github.com/Kozea/pygal--><defs><style type="text/css">#chart-9bec4209-c835-43e1-9184-48d1b7900fb5{-webkit-user-select:none;-webkit-font-smoothing:antialiased;font-family:Consolas,"Liberation Mono",Menlo,Courier,monospace}#chart-9bec4209-c835-43e1-9184-48d1b7900fb5 .title{font-family:Consolas,"Liberation Mono",Menlo,Courier,monospace;font-size:16px}#chart-9bec4209-c835-43e1-9184-48d1b7900fb5 .legends .legend text{font-family:Consolas,"Liberation Mono",Menlo,Courier,monospace;font-size:14px}#chart-9bec4209-c835-43e1-9184-48d1b7900fb5 .axis text{font-family:Consolas,"Liberation Mono",Menlo,Courier,monospace;font-size:10px}#chart-9bec4209-c835-43e1-9184-48d1b7900fb5 .axis text.major{font-family:Consolas,"Liberation Mono",Menlo,Courier,monospace;font-size:10px}#chart-9bec4209-c835-43e1-9184-48d1b7900fb5 .text-overlay text.value{font-family:Consolas,"Liberation Mono",Menlo,Courier,monospace;font-size:16px}#chart-9bec4209-c835-43e1-9184-48d1b7900fb5 .text-overlay text.label{font-family:Consolas,"Liberation Mono",Menlo,Courier,monospace;font-size:10px}#chart-9bec4209-c835-43e1-9184-48d1b7900fb5 .tooltip{font-family:Consolas,"Liberation Mono",Menlo,Courier,monospace;font-size:14px}#chart-9bec4209-c835-43e1-9184-48d1b7900fb5 text.no_data{font-family:Consolas,"Liberation Mono",Menlo,Courier,monospace;font-size:64px}
#chart-9bec4209-c835-43e1-9184-48d1b7900fb5{background-color:rgba(249,249,249,1)}#chart-9bec4209-c835-43e1-9184-48d1b7900fb5 path,#chart-9bec4209-c835-43e1-9184-48d1b7900fb5 line,#chart-9bec4209-c835-43e1-9184-48d1b7900fb5 rect,#chart-9bec4209-c835-43e1-9184-48d1b7900fb5 circle{-webkit-transition:150ms;-moz-transition:150ms;transition:150ms}#chart-9bec4209-c835-43e1-9184-48d1b7900fb5 .graph &gt; .background{fill:rgba(249,249,249,1)}#chart-9bec4209-c835-43e1-9184-48d1b7900fb5 .plot &gt; .background{fill:rgba(255,255,255,1)}#chart-9bec4209-c835-43e1-9184-48d1b7900fb5 .graph{fill:rgba(0,0,0,.87)}#chart-9bec4209-c835-43e1-9184-48d1b7900fb5 text.no_data{fill:rgba(0,0,0,1)}#chart-9bec4209-c835-43e1-9184-48d1b7900fb5 .title{fill:rgba(0,0,0,1)}#chart-9bec4209-c835-43e1-9184-48d1b7900fb5 .legends .legend text{fill:rgba(0,0,0,.87)}#chart-9bec4209-c835-43e1-9184-48d1b7900fb5 .legends .legend:hover text{fill:rgba(0,0,0,1)}#chart-9bec4209-c835-43e1-9184-48d1b7900fb5 .axis .line{stroke:rgba(0,0,0,1)}#chart-9bec4209-c835-43e1-9184-48d1b7900fb5 .axis .guide.line{stroke:rgba(0,0,0,.54)}#chart-9bec4209-c835-43e1-9184-48d1b7900fb5 .axis .major.line{stroke:rgba(0,0,0,.87)}#chart-9bec4209-c835-43e1-9184-48d1b7900fb5 .axis text.major{fill:rgba(0,0,0,1)}#chart-9bec4209-c835-43e1-9184-48d1b7900fb5 .axis.y .guides:hover .guide.line,#chart-9bec4209-c835-43e1-9184-48d1b7900fb5 .line-graph .axis.x .guides:hover .guide.line,#chart-9bec4209-c835-43e1-9184-48d1b7900fb5 .stackedline-graph .axis.x .guides:hover .guide.line,#chart-9bec4209-c835-43e1-9184-48d1b7900fb5 .xy-graph .axis.x .guides:hover .guide.line{stroke:rgba(0,0,0,1)}#chart-9bec4209-c835-43e1-9184-48d1b7900fb5 .axis .guides:hover text{fill:rgba(0,0,0,1)}#chart-9bec4209-c835-43e1-9184-48d1b7900fb5 .reactive{fill-opacity:.7;stroke-opacity:.8}#chart-9bec4209-c835-43e1-9184-48d1b7900fb5 .ci{stroke:rgba(0,0,0,.87)}#chart-9bec4209-c835-43e1-9184-48d1b7900fb5 .reactive.active,#chart-9bec4209-c835-43e1-9184-48d1b7900fb5 .active .reactive{fill-opacity:.8;stroke-opacity:.9;stroke-width:4}#chart-9bec4209-c835-43e1-9184-48d1b7900fb5 .ci .reactive.active{stroke-width:1.5}#chart-9bec4209-c835-43e1-9184-48d1b7900fb5 .series text{fill:rgba(0,0,0,1)}#chart-9bec4209-c835-43e1-9184-48d1b7900fb5 .tooltip rect{fill:rgba(255,255,255,1);stroke:rgba(0,0,0,1);-webkit-transition:opacity 150ms;-moz-transition:opacity 150ms;transition:opacity 150ms}#chart-9bec4209-c835-43e1-9184-48d1b7900fb5 .tooltip .label{fill:rgba(0,0,0,.87)}#chart-9bec4209-c835-43e1-9184-48d1b7900fb5 .tooltip .label{fill:rgba(0,0,0,.87)}#chart-9bec4209-c835-43e1-9184-48d1b7900fb5 .tooltip .legend{font-size:.8em;fill:rgba(0,0,0,.54)}#chart-9bec4209-c835-43e1-9184-48d1b7900fb5 .tooltip .x_label{font-size:.6em;fill:rgba(0,0,0,1)}#chart-9bec4209-c835-43e1-9184-48d1b7900fb5 .tooltip .xlink{font-size:.5em;text-decoration:underline}#chart-9bec4209-c835-43e1-9184-48d1b7900fb5 .tooltip .value{font-size:1.5em}#chart-9bec4209-c835-43e1-9184-48d1b7900fb5 .bound{font-size:.5em}#chart-9bec4209-c835-43e1-9184-48d1b7900fb5 .max-value{font-size:.75em;fill:rgba(0,0,0,.54)}#chart-9bec4209-c835-43e1-9184-48d1b7900fb5 .map-element{fill:rgba(255,255,255,1);stroke:rgba(0,0,0,.54) !important}#chart-9bec4209-c835-43e1-9184-48d1b7900fb5 .map-element .reactive{fill-opacity:inherit;stroke-opacity:inherit}#chart-9bec4209-c835-43e1-9184-48d1b7900fb5 .color-0,#chart-9bec4209-c835-43e1-9184-48d1b7900fb5 .color-0 a:visited{stroke:red;fill:red}#chart-9bec4209-c835-43e1-9184-48d1b7900fb5 .color-1,#chart-9bec4209-c835-43e1-9184-48d1b7900fb5 .color-1 a:visited{stroke:blue;fill:blue}#chart-9bec4209-c835-43e1-9184-48d1b7900fb5 .color-2,#chart-9bec4209-c835-43e1-9184-48d1b7900fb5 .color-2 a:visited{stroke:green;fill:green}#chart-9bec4209-c835-43e1-9184-48d1b7900fb5 .text-overlay .color-0 text{fill:white}#chart-9bec4209-c835-43e1-9184-48d1b7900fb5 .text-overlay .color-1 text{fill:white}#chart-9bec4209-c835-43e1-9184-48d1b7900fb5 .text-overlay .color-2 text{fill:white}
#chart-9bec4209-c835-43e1-9184-48d1b7900fb5 text.no_data{text-anchor:middle}#chart-9bec4209-c835-43e1-9184-48d1b7900fb5 .guide.line{fill:none}#chart-9bec4209-c835-43e1-9184-48d1b7900fb5 .centered{text-anchor:middle}#chart-9bec4209-c835-43e1-9184-48d1b7900fb5 .title{text-anchor:middle}#chart-9bec4209-c835-43e1-9184-48d1b7900fb5 .legends .legend text{fill-opacity:1}#chart-9bec4209-c835-43e1-9184-48d1b7900fb5 .axis.x text{text-anchor:middle}#chart-9bec4209-c835-43e1-9184-48d1b7900fb5 .axis.x:not(.web) text[transform]{text-anchor:start}#chart-9bec4209-c835-43e1-9184-48d1b7900fb5 .axis.x:not(.web) text[transform].backwards{text-anchor:end}#chart-9bec4209-c835-43e1-9184-48d1b7900fb5 .axis.y text{text-anchor:end}#chart-9bec4209-c835-43e1-9184-48d1b7900fb5 .axis.y text[transform].backwards{text-anchor:start}#chart-9bec4209-c835-43e1-9184-48d1b7900fb5 .axis.y2 text{text-anchor:start}#chart-9bec4209-c835-43e1-9184-48d1b7900fb5 .axis.y2 text[transform].backwards{text-anchor:end}#chart-9bec4209-c835-43e1-9184-48d1b7900fb5 .axis .guide.line{stroke-dasharray:4,4}#chart-9bec4209-c835-43e1-9184-48d1b7900fb5 .axis .major.guide.line{stroke-dasharray:6,6}#chart-9bec4209-c835-43e1-9184-48d1b7900fb5 .horizontal .axis.y .guide.line,#chart-9bec4209-c835-43e1-9184-48d1b7900fb5 .horizontal .axis.y2 .guide.line,#chart-9bec4209-c835-43e1-9184-48d1b7900fb5 .vertical .axis.x .guide.line{opacity:0}#chart-9bec4209-c835-43e1-9184-48d1b7900fb5 .horizontal .axis.always_show .guide.line,#chart-9bec4209-c835-43e1-9184-48d1b7900fb5 .vertical .axis.always_show .guide.line{opacity:1 !important}#chart-9bec4209-c835-43e1-9184-48d1b7900fb5 .axis.y .guides:hover .guide.line,#chart-9bec4209-c835-43e1-9184-48d1b7900fb5 .axis.y2 .guides:hover .guide.line,#chart-9bec4209-c835-43e1-9184-48d1b7900fb5 .axis.x .guides:hover .guide.line{opacity:1}#chart-9bec4209-c835-43e1-9184-48d1b7900fb5 .axis .guides:hover text{opacity:1}#chart-9bec4209-c835-43e1-9184-48d1b7900fb5 .nofill{fill:none}#chart-9bec4209-c835-43e1-9184-48d1b7900fb5 .subtle-fill{fill-opacity:.2}#chart-9bec4209-c835-43e1-9184-48d1b7900fb5 .dot{stroke-width:1px;fill-opacity:1}#chart-9bec4209-c835-43e1-9184-48d1b7900fb5 .dot.active{stroke-width:5px}#chart-9bec4209-c835-43e1-9184-48d1b7900fb5 .dot.negative{fill:transparent}#chart-9bec4209-c835-43e1-9184-48d1b7900fb5 text,#chart-9bec4209-c835-43e1-9184-48d1b7900fb5 tspan{stroke:none !important}#chart-9bec4209-c835-43e1-9184-48d1b7900fb5 .series text.active{opacity:1}#chart-9bec4209-c835-43e1-9184-48d1b7900fb5 .tooltip rect{fill-opacity:.95;stroke-width:.5}#chart-9bec4209-c835-43e1-9184-48d1b7900fb5 .tooltip text{fill-opacity:1}#chart-9bec4209-c835-43e1-9184-48d1b7900fb5 .showable{visibility:hidden}#chart-9bec4209-c835-43e1-9184-48d1b7900fb5 .showable.shown{visibility:visible}#chart-9bec4209-c835-43e1-9184-48d1b7900fb5 .gauge-background{fill:rgba(229,229,229,1);stroke:none}#chart-9bec4209-c835-43e1-9184-48d1b7900fb5 .bg-lines{stroke:rgba(249,249,249,1);stroke-width:2px}</style><script type="text/javascript">window.pygal = window.pygal || {};window.pygal.config = window.pygal.config || {};window.pygal.config['9bec4209-c835-43e1-9184-48d1b7900fb5'] = {"allow_interruptions": false, "box_mode": "extremes", "classes": ["pygal-chart"], "css": ["file://style.css", "file://graph.css"], "defs": [], "disable_xml_declaration": false, "dots_size": 2.5, "dynamic_print_values": false, "explicit_size": false, "fill": false, "force_uri_protocol": "https", "formatter": null, "half_pie": false, "height": 600, "include_x_axis": false, "inner_radius": 0, "interpolate": null, "interpolation_parameters": {}, "interpolation_precision": 250, "inverse_y_axis": false, "js": ["//kozea.github.io/pygal.js/2.0.x/pygal-tooltips.min.js"], "legend_at_bottom": true, "legend_at_bottom_columns": null, "legend_box_size": 12, "logarithmic": false, "margin": 20, "margin_bottom": null, "margin_left": null, "margin_right": null, "margin_top": null, "max_scale": 16, "min_scale": 4, "missing_value_fill_truncation": "x", "no_data_text": "No data", "no_prefix": false, "order_min": null, "pretty_print": false, "print_labels": false, "print_values": false, "print_values_position": "center", "print_zeroes": true, "range": null, "rounded_bars": null, "secondary_range": null, "show_dots": true, "show_legend": true, "show_minor_x_labels": false, "show_minor_y_labels": true, "show_only_major_dots": false, "show_x_guides": false, "show_x_labels": true, "show_y_guides": true, "show_y_labels": true, "spacing": 10, "stack_from_top": false, "strict": false, "stroke": true, "stroke_style": null, "style": {"background": "rgba(249, 249, 249, 1)", "ci_colors": [], "colors": ["red", "blue", "green", "#a3a3a3"], "font_family": "Consolas, \"Liberation Mono\", Menlo, Courier, monospace", "foreground": "rgba(0, 0, 0, .87)", "foreground_strong": "rgba(0, 0, 0, 1)", "foreground_subtle": "rgba(0, 0, 0, .54)", "guide_stroke_dasharray": "4,4", "label_font_family": "Consolas, \"Liberation Mono\", Menlo, Courier, monospace", "label_font_size": 10, "legend_font_family": "Consolas, \"Liberation Mono\", Menlo, Courier, monospace", "legend_font_size": 14, "major_guide_stroke_dasharray": "6,6", "major_label_font_family": "Consolas, \"Liberation Mono\", Menlo, Courier, monospace", "major_label_font_size": 10, "no_data_font_family": "Consolas, \"Liberation Mono\", Menlo, Courier, monospace", "no_data_font_size": 64, "opacity": ".7", "opacity_hover": ".8", "plot_background": "rgba(255, 255, 255, 1)", "stroke_opacity": ".8", "stroke_opacity_hover": ".9", "title_font_family": "Consolas, \"Liberation Mono\", Menlo, Courier, monospace", "title_font_size": 16, "tooltip_font_family": "Consolas, \"Liberation Mono\", Menlo, Courier, monospace", "tooltip_font_size": 14, "transition": "150ms", "value_background": "rgba(229, 229, 229, 1)", "value_colors": [], "value_font_family": "Consolas, \"Liberation Mono\", Menlo, Courier, monospace", "value_font_size": 16, "value_label_font_family": "Consolas, \"Liberation Mono\", Menlo, Courier, monospace", "value_label_font_size": 10}, "title": "A Nehra: Future and Past Averages in ODIs", "tooltip_border_radius": 10, "tooltip_fancy_mode": true, "truncate_label": null, "truncate_legend": null, "width": 800, "x_label_rotation": 45, "x_labels": ["2001", "0", "0", "0", "0", "0", "0", "0", "0", "0", "2002", "0", "0", "0", "0", "0", "0", "0", "0", "0", "0", "0", "0", "0", "0", "0", "2003", "0", "0", "0", "0", "0", "0", "0", "0", "0", "0", "0", "0", "0", "2004", "0", "0", "0", "0", "0", "0", "0", "0", "0", "0", "0", "0", "0", "0", "2005", "0", "0", "0", "0", "0", "0", "0", "0", "0", "0", "0", "0", "0", "0", "0", "0", "2009", "0", "0", "0", "0", "0", "0", "0", "0", "0", "0", "0", "0", "0", "0", "0", "0", "0", "0", "0", "0", "2010", "0", "0", "0", "0", "0", "0", "0", "0", "0", "0", "0", "0", "0", "0", "0", "0", "0", "0", "0", "2011", "0", "0", "0", "0", "0", "0"], "x_labels_major": ["2001", "2002", "2003", "2004", "2005", "2009", "2010", "2011"], "x_labels_major_count": null, "x_labels_major_every": null, "x_title": null, "xrange": null, "y_label_rotation": 0, "y_labels": null, "y_labels_major": null, "y_labels_major_count": null, "y_labels_major_every": null, "y_title": null, "zero": 60, "legends": ["Future Average", "Past Average", "Career Average"]}</script><script type="text/javascript" xlink:href="https://kozea.github.io/pygal.js/2.0.x/pygal-tooltips.min.js"/></defs><title>A Nehra: Future and Past Averages in ODIs</title><g class="graph line-graph vertical"><rect class="background" height="600" width="800" x="0" y="0"/><g class="plot" transform="translate(42, 46)"><rect class="background" height="462.02943725152284" width="738.0" x="0" y="0"/><g class="axis y always_show"><g class="guides"><path class="axis major line" d="M0.000000 453.144256 h738.000000"/><text class="major" x="-5" y="456.6442557659166">0</text><title>0</title></g><g class="guides"><path class="guide line" d="M0.000000 362.479139 h738.000000"/><text class="" x="-5" y="365.97913856585325">10</text><title>10</title></g><g class="guides"><path class="guide line" d="M0.000000 271.814021 h738.000000"/><text class="" x="-5" y="275.3140213657899">20</text><title>20</title></g><g class="guides"><path class="guide line" d="M0.000000 181.148904 h738.000000"/><text class="" x="-5" y="184.64890416572655">30</text><title>30</title></g><g class="guides"><path class="guide line" d="M0.000000 90.483787 h738.000000"/><text class="" x="-5" y="93.98378696566323">40</text><title>40</title></g></g><g class="axis x"><g class="guides"><path class="major line" d="M14.192308 0.000000 v462.029437"/><text class="major" x="14.192307692307692" y="477.02943725152284" transform="rotate(45 14.192308 477.029437)">2001</text></g><g class="guides"><path class="major guide line" d="M73.823853 0.000000 v462.029437"/><text class="major" x="73.82385261797027" y="477.02943725152284" transform="rotate(45 73.823853 477.029437)">2002</text></g><g class="guides"><path class="major guide line" d="M169.234324 0.000000 v462.029437"/><text class="major" x="169.23432449903038" y="477.02943725152284" transform="rotate(45 169.234324 477.029437)">2003</text></g><g class="guides"><path class="major guide line" d="M252.718487 0.000000 v462.029437"/><text class="major" x="252.718487394958" y="477.02943725152284" transform="rotate(45 252.718487 477.029437)">2004</text></g><g class="guides"><path class="major guide line" d="M342.165805 0.000000 v462.029437"/><text class="major" x="342.16580478345185" y="477.02943725152284" transform="rotate(45 342.165805 477.029437)">2005</text></g><g class="guides"><path class="major guide line" d="M443.539431 0.000000 v462.029437"/><text class="major" x="443.5394311570782" y="477.02943725152284" transform="rotate(45 443.539431 477.029437)">2009</text></g><g class="guides"><path class="major guide line" d="M568.765676 0.000000 v462.029437"/><text class="major" x="568.7656755009697" y="477.02943725152284" transform="rotate(45 568.765676 477.029437)">2010</text></g><g class="guides"><path class="major guide line" d="M688.028765 0.000000 v462.029437"/><text class="major" x="688.0287653522947" y="477.02943725152284" transform="rotate(45 688.028765 477.029437)">2011</text></g></g><g class="series serie-0 color-0"><path class="line reactive nofill" d="M14.192308 165.463839 L20.155462 163.741202 26.118617 165.554504 32.081771 167.458471 38.044926 167.277141 44.008080 169.362439 49.971235 169.634434 55.934389 167.730467 61.897544 164.103862 67.860698 159.933267 73.823853 164.013197 79.787007 161.565239 85.750162 161.383909 91.713316 162.653220 97.676471 160.386592 103.639625 160.023932 109.602780 161.927899 115.565934 164.103862 121.529089 166.551820 127.492243 165.645169 133.455398 168.365123 139.418552 167.549137 145.381707 172.082392 151.344861 173.805030 157.308016 177.431634 163.271170 174.349020 169.234324 177.250304 175.197479 179.788927 181.160633 178.247620 187.123788 178.338286 193.086942 180.332918 199.050097 182.780876 205.013251 182.780876 210.976406 171.085076 216.939560 171.991727 222.902715 174.258355 228.865869 167.367806 234.829024 166.733151 240.792178 162.562555 246.755333 167.186476 252.718487 173.623699 258.681642 175.437002 264.644796 176.524983 270.607951 177.250304 276.571105 177.431634 282.534260 179.788927 288.497414 175.708997 294.460569 175.255672 300.423723 180.060923 306.386878 179.335602 312.350032 180.604913 318.313187 182.690211 324.276341 176.796979 330.239496 178.338286 336.202650 179.698262 342.165805 180.151588 348.128959 179.426267 354.092114 174.439685 360.055268 170.722416 366.018423 178.610281 371.981577 176.524983 377.944732 180.242253 383.907886 176.071658 389.871041 171.629067 395.834195 171.357072 401.797350 155.128016 407.760504 153.314713 413.723659 153.314713 419.686813 157.213313 425.649968 151.410746 431.613122 152.861388 437.576277 151.592076 443.539431 157.122648 449.502586 149.960104 455.465740 155.309346 461.428895 143.341550 467.392049 144.701527 473.355204 132.099076 479.318358 136.451001 485.281513 143.522881 491.244667 129.016462 497.207822 129.469787 503.170976 114.782038 509.134131 111.427429 515.097285 111.880755 521.060440 122.397908 527.023594 106.440848 532.986749 115.688690 538.949903 120.403276 544.913058 130.739099 550.876212 139.896276 556.839367 130.557769 562.802521 129.651118 568.765676 136.088341 574.728830 150.776090 580.691984 153.677374 586.655139 151.320081 592.618293 141.890908 598.581448 152.045402 604.544602 149.960104 610.507757 135.816346 616.470911 156.850653 622.434066 117.683322 628.397220 63.828243 634.360375 61.561615 640.323529 83.683903 646.286684 37.354028 652.249838 47.236526 658.212993 20.399651 664.176147 17.045042 670.139302 57.844345 676.102456 92.297089 682.065611 81.417275 688.028765 8.885181 693.991920 30.644810 699.955074 24.751577 705.918229 119.949950 711.881383 90.483787 717.844538 8.885181 723.807692 303.546812"/></g><g class="series serie-1 color-1"><path class="line reactive nofill" d="M14.192308 453.144256 L20.155462 303.546812 26.118617 163.015881 32.081771 13.418437 38.044926 97.283671 44.008080 17.951693 49.971235 39.711321 55.934389 117.683322 61.897544 186.588811 67.860698 227.206784 73.823853 181.874225 79.787007 202.908532 85.750162 202.092546 91.713316 190.215416 97.676471 205.356490 103.639625 204.993830 109.602780 191.666058 115.565934 174.802346 121.529089 158.029299 127.492243 164.647853 133.455398 147.784141 139.418552 154.312029 145.381707 129.016462 151.344861 121.672587 157.308016 102.451582 163.271170 123.032564 169.234324 108.979471 175.197479 96.558350 181.160633 109.251466 187.123788 111.336764 193.086942 102.904908 199.050097 92.297089 205.013251 92.297089 210.976406 146.605495 216.939560 145.154853 222.902715 137.992308 228.865869 160.386592 234.829024 162.199895 240.792178 172.898379 246.755333 161.383909 252.718487 145.245518 258.681642 141.528248 264.644796 139.714946 270.607951 138.808294 276.571105 139.986941 282.534260 135.816346 288.497414 146.061504 294.460569 147.330815 300.423723 138.445634 306.386878 140.530932 312.350032 138.989625 318.313187 135.363020 324.276341 147.330815 330.239496 144.701527 336.202650 143.069555 342.165805 143.613546 348.128959 145.336183 354.092114 153.858704 360.055268 159.207946 366.018423 149.597443 371.981577 153.133383 377.944732 148.962788 383.907886 154.221364 389.871041 159.298611 395.834195 159.842602 401.797350 174.077025 407.760504 175.346337 413.723659 175.074341 419.686813 171.991727 425.649968 175.980992 431.613122 174.893011 437.576277 175.346337 443.539431 171.357072 449.502586 175.618332 455.465740 172.173058 461.428895 178.791611 467.392049 177.975625 473.355204 184.050188 479.318358 181.148904 485.281513 177.340969 491.244667 183.052872 497.207822 182.327551 503.170976 187.132802 509.134131 187.223467 515.097285 186.407481 521.060440 182.236886 527.023594 186.407481 532.986749 182.508881 538.949903 180.876909 544.913058 176.978309 550.876212 173.714365 556.839367 175.890327 562.802521 175.437002 568.765676 173.623699 574.728830 169.543769 580.691984 168.637118 586.655139 168.999778 592.618293 171.085076 598.581448 168.546453 604.544602 168.727783 610.507757 171.085076 616.470911 167.095811 622.434066 172.898379 628.397220 177.884960 634.360375 177.250304 640.323529 174.802346 646.286684 178.066290 652.249838 176.162323 658.212993 176.434318 664.176147 175.618332 670.139302 172.807713 676.102456 170.450420 682.065611 169.997095 688.028765 171.719732 693.991920 169.906430 699.955074 169.181109 705.918229 166.733151 711.881383 167.005146 717.844538 167.549137 723.807692 163.741202"/></g><g class="series serie-2 color-2"><path class="line reactive nofill" d="M14.192308 165.463839 L20.155462 165.463839 26.118617 165.463839 32.081771 165.463839 38.044926 165.463839 44.008080 165.463839 49.971235 165.463839 55.934389 165.463839 61.897544 165.463839 67.860698 165.463839 73.823853 165.463839 79.787007 165.463839 85.750162 165.463839 91.713316 165.463839 97.676471 165.463839 103.639625 165.463839 109.602780 165.463839 115.565934 165.463839 121.529089 165.463839 127.492243 165.463839 133.455398 165.463839 139.418552 165.463839 145.381707 165.463839 151.344861 165.463839 157.308016 165.463839 163.271170 165.463839 169.234324 165.463839 175.197479 165.463839 181.160633 165.463839 187.123788 165.463839 193.086942 165.463839 199.050097 165.463839 205.013251 165.463839 210.976406 165.463839 216.939560 165.463839 222.902715 165.463839 228.865869 165.463839 234.829024 165.463839 240.792178 165.463839 246.755333 165.463839 252.718487 165.463839 258.681642 165.463839 264.644796 165.463839 270.607951 165.463839 276.571105 165.463839 282.534260 165.463839 288.497414 165.463839 294.460569 165.463839 300.423723 165.463839 306.386878 165.463839 312.350032 165.463839 318.313187 165.463839 324.276341 165.463839 330.239496 165.463839 336.202650 165.463839 342.165805 165.463839 348.128959 165.463839 354.092114 165.463839 360.055268 165.463839 366.018423 165.463839 371.981577 165.463839 377.944732 165.463839 383.907886 165.463839 389.871041 165.463839 395.834195 165.463839 401.797350 165.463839 407.760504 165.463839 413.723659 165.463839 419.686813 165.463839 425.649968 165.463839 431.613122 165.463839 437.576277 165.463839 443.539431 165.463839 449.502586 165.463839 455.465740 165.463839 461.428895 165.463839 467.392049 165.463839 473.355204 165.463839 479.318358 165.463839 485.281513 165.463839 491.244667 165.463839 497.207822 165.463839 503.170976 165.463839 509.134131 165.463839 515.097285 165.463839 521.060440 165.463839 527.023594 165.463839 532.986749 165.463839 538.949903 165.463839 544.913058 165.463839 550.876212 165.463839 556.839367 165.463839 562.802521 165.463839 568.765676 165.463839 574.728830 165.463839 580.691984 165.463839 586.655139 165.463839 592.618293 165.463839 598.581448 165.463839 604.544602 165.463839 610.507757 165.463839 616.470911 165.463839 622.434066 165.463839 628.397220 165.463839 634.360375 165.463839 640.323529 165.463839 646.286684 165.463839 652.249838 165.463839 658.212993 165.463839 664.176147 165.463839 670.139302 165.463839 676.102456 165.463839 682.065611 165.463839 688.028765 165.463839 693.991920 165.463839 699.955074 165.463839 705.918229 165.463839 711.881383 165.463839 717.844538 165.463839 723.807692 165.463839"/></g></g><g class="titles"><text class="title plot_title" x="400.0" y="26">A Nehra: Future and Past Averages in ODIs</text></g><g class="plot overlay" transform="translate(42, 46)"><g class="series serie-0 color-0"><g class="dots"><desc class="label">157 wickets in 120 innings (958.3 overs)</desc><circle class="dot reactive tooltip-trigger" cx="14.192307692307692" cy="165.4638388901156" r="2.5"/><desc class="value">31.73</desc><desc class="x ">14.192307692307692</desc><desc class="y ">165.4638388901156</desc><desc class="x_label">2001</desc></g><g class="dots"><desc class="label">144 wickets in 110 innings (870.5 overs)</desc><circle class="dot reactive tooltip-trigger" cx="73.82385261797027" cy="164.01319701491457" r="2.5"/><desc class="value">31.89</desc><desc class="x ">73.82385261797027</desc><desc class="y ">164.01319701491457</desc><desc class="x_label">2002</desc></g><g class="dots"><desc class="label">130 wickets in 94 innings (740.0 overs)</desc><circle class="dot reactive tooltip-trigger" cx="169.23432449903038" cy="177.2503041261238" r="2.5"/><desc class="value">30.43</desc><desc class="x ">169.23432449903038</desc><desc class="y ">177.2503041261238</desc><desc class="x_label">2003</desc></g><g class="dots"><desc class="label">112 wickets in 80 innings (626.5 overs)</desc><circle class="dot reactive tooltip-trigger" cx="252.718487394958" cy="173.62369943812126" r="2.5"/><desc class="value">30.83</desc><desc class="x ">252.718487394958</desc><desc class="y ">173.62369943812126</desc><desc class="x_label">2004</desc></g><g class="dots"><desc class="label">94 wickets in 65 innings (501.3 overs)</desc><circle class="dot reactive tooltip-trigger" cx="342.16580478345185" cy="180.1515878765258" r="2.5"/><desc class="value">30.11</desc><desc class="x ">342.16580478345185</desc><desc class="y ">180.1515878765258</desc><desc class="x_label">2005</desc></g><g class="dots"><desc class="label">65 wickets in 48 innings (362.3 overs)</desc><circle class="dot reactive tooltip-trigger" cx="443.5394311570782" cy="157.12264810770978" r="2.5"/><desc class="value">32.65</desc><desc class="x left">443.5394311570782</desc><desc class="y left">157.12264810770978</desc><desc class="x_label">2009</desc></g><g class="dots"><desc class="label">34 wickets in 27 innings (205.0 overs)</desc><circle class="dot reactive tooltip-trigger" cx="568.7656755009697" cy="136.08834091729506" r="2.5"/><desc class="value">34.97</desc><desc class="x left">568.7656755009697</desc><desc class="y left">136.08834091729506</desc><desc class="x_label">2010</desc></g><g class="dots"><desc class="label">6 wickets in 7 innings (49.4 overs)</desc><circle class="dot reactive tooltip-trigger" cx="688.0287653522947" cy="8.88518148560621" r="2.5"/><desc class="value">49</desc><desc class="x left">688.0287653522947</desc><desc class="y left">8.88518148560621</desc><desc class="x_label">2011</desc></g></g><g class="series serie-1 color-1"><g class="dots"><desc class="label">0 wickets over 0 innings</desc><circle class="dot reactive tooltip-trigger" cx="14.192307692307692" cy="453.1442557659166" r="2.5"/><desc class="value">0</desc><desc class="x top">14.192307692307692</desc><desc class="y top">453.1442557659166</desc><desc class="x_label">2001</desc></g><g class="dots"><desc class="label">13 wickets in 10 innings (87.4 overs)</desc><circle class="dot reactive tooltip-trigger" cx="73.82385261797027" cy="181.87422510332703" r="2.5"/><desc class="value">29.92</desc><desc class="x ">73.82385261797027</desc><desc class="y ">181.87422510332703</desc><desc class="x_label">2002</desc></g><g class="dots"><desc class="label">27 wickets in 26 innings (218.3 overs)</desc><circle class="dot reactive tooltip-trigger" cx="169.23432449903038" cy="108.97947087447614" r="2.5"/><desc class="value">37.96</desc><desc class="x ">169.23432449903038</desc><desc class="y ">108.97947087447614</desc><desc class="x_label">2003</desc></g><g class="dots"><desc class="label">45 wickets in 40 innings (331.4 overs)</desc><circle class="dot reactive tooltip-trigger" cx="252.718487394958" cy="145.24551775450146" r="2.5"/><desc class="value">33.96</desc><desc class="x ">252.718487394958</desc><desc class="y ">145.24551775450146</desc><desc class="x_label">2004</desc></g><g class="dots"><desc class="label">63 wickets in 55 innings (457.0 overs)</desc><circle class="dot reactive tooltip-trigger" cx="342.16580478345185" cy="143.61354564490034" r="2.5"/><desc class="value">34.14</desc><desc class="x ">342.16580478345185</desc><desc class="y ">143.61354564490034</desc><desc class="x_label">2005</desc></g><g class="dots"><desc class="label">92 wickets in 72 innings (596.0 overs)</desc><circle class="dot reactive tooltip-trigger" cx="443.5394311570782" cy="171.35707150811976" r="2.5"/><desc class="value">31.08</desc><desc class="x left">443.5394311570782</desc><desc class="y left">171.35707150811976</desc><desc class="x_label">2009</desc></g><g class="dots"><desc class="label">123 wickets in 93 innings (753.3 overs)</desc><circle class="dot reactive tooltip-trigger" cx="568.7656755009697" cy="173.62369943812126" r="2.5"/><desc class="value">30.83</desc><desc class="x left">568.7656755009697</desc><desc class="y left">173.62369943812126</desc><desc class="x_label">2010</desc></g><g class="dots"><desc class="label">151 wickets in 113 innings (908.5 overs)</desc><circle class="dot reactive tooltip-trigger" cx="688.0287653522947" cy="171.71973197691995" r="2.5"/><desc class="value">31.04</desc><desc class="x left">688.0287653522947</desc><desc class="y left">171.71973197691995</desc><desc class="x_label">2011</desc></g></g><g class="series serie-2 color-2"/></g><g class="plot text-overlay" transform="translate(42, 46)"><g class="series serie-0 color-0"/><g class="series serie-1 color-1"/><g class="series serie-2 color-2"/></g><g class="plot tooltip-overlay" transform="translate(42, 46)"><g class="tooltip" style="opacity: 0" transform="translate(0 0)"><rect class="tooltip-box" height="0" rx="10" ry="10" width="0"/><g class="text"/></g></g><g class="legends" transform="translate(52, 545)"><g class="legend reactive activate-serie" id="activate-serie-0"><rect class="color-0 reactive" height="12" width="12" x="0.0" y="1.0"/><text x="17.0" y="11.2">Future Average</text></g><g class="legend reactive activate-serie" id="activate-serie-1"><rect class="color-1 reactive" height="12" width="12" x="369.0" y="1.0"/><text x="386.0" y="11.2">Past Average</text></g><g class="legend reactive activate-serie" id="activate-serie-2"><rect class="color-2 reactive" height="12" width="12" x="0.0" y="22.0"/><text x="17.0" y="32.2">Career Average</text></g></g></g></svg>