<?xml version='1.0' encoding='utf-8'?>
<svg xmlns:xlink="http://www.w3.org/1999/xlink" xmlns="http://www.w3.org/2000/svg" id="chart-5f3b7e2d-2974-4758-acd3-c0d6f18f44a7" class="pygal-chart" viewBox="0 0 800 600"><!--Generated with pygal 2.4.0 (lxml) ©Kozea 2012-2016 on 2019-08-04--><!--http://pygal.org--><!--http://github.com/Kozea/pygal--><defs><style type="text/css">#chart-5f3b7e2d-2974-4758-acd3-c0d6f18f44a7{-webkit-user-select:none;-webkit-font-smoothing:antialiased;font-family:Consolas,"Liberation Mono",Menlo,Courier,monospace}#chart-5f3b7e2d-2974-4758-acd3-c0d6f18f44a7 .title{font-family:Consolas,"Liberation Mono",Menlo,Courier,monospace;font-size:16px}#chart-5f3b7e2d-2974-4758-acd3-c0d6f18f44a7 .legends .legend text{font-family:Consolas,"Liberation Mono",Menlo,Courier,monospace;font-size:14px}#chart-5f3b7e2d-2974-4758-acd3-c0d6f18f44a7 .axis text{font-family:Consolas,"Liberation Mono",Menlo,Courier,monospace;font-size:10px}#chart-5f3b7e2d-2974-4758-acd3-c0d6f18f44a7 .axis text.major{font-family:Consolas,"Liberation Mono",Menlo,Courier,monospace;font-size:10px}#chart-5f3b7e2d-2974-4758-acd3-c0d6f18f44a7 .text-overlay text.value{font-family:Consolas,"Liberation Mono",Menlo,Courier,monospace;font-size:16px}#chart-5f3b7e2d-2974-4758-acd3-c0d6f18f44a7 .text-overlay text.label{font-family:Consolas,"Liberation Mono",Menlo,Courier,monospace;font-size:10px}#chart-5f3b7e2d-2974-4758-acd3-c0d6f18f44a7 .tooltip{font-family:Consolas,"Liberation Mono",Menlo,Courier,monospace;font-size:14px}#chart-5f3b7e2d-2974-4758-acd3-c0d6f18f44a7 text.no_data{font-family:Consolas,"Liberation Mono",Menlo,Courier,monospace;font-size:64px}
#chart-5f3b7e2d-2974-4758-acd3-c0d6f18f44a7{background-color:rgba(249,249,249,1)}#chart-5f3b7e2d-2974-4758-acd3-c0d6f18f44a7 path,#chart-5f3b7e2d-2974-4758-acd3-c0d6f18f44a7 line,#chart-5f3b7e2d-2974-4758-acd3-c0d6f18f44a7 rect,#chart-5f3b7e2d-2974-4758-acd3-c0d6f18f44a7 circle{-webkit-transition:150ms;-moz-transition:150ms;transition:150ms}#chart-5f3b7e2d-2974-4758-acd3-c0d6f18f44a7 .graph &gt; .background{fill:rgba(249,249,249,1)}#chart-5f3b7e2d-2974-4758-acd3-c0d6f18f44a7 .plot &gt; .background{fill:rgba(255,255,255,1)}#chart-5f3b7e2d-2974-4758-acd3-c0d6f18f44a7 .graph{fill:rgba(0,0,0,.87)}#chart-5f3b7e2d-2974-4758-acd3-c0d6f18f44a7 text.no_data{fill:rgba(0,0,0,1)}#chart-5f3b7e2d-2974-4758-acd3-c0d6f18f44a7 .title{fill:rgba(0,0,0,1)}#chart-5f3b7e2d-2974-4758-acd3-c0d6f18f44a7 .legends .legend text{fill:rgba(0,0,0,.87)}#chart-5f3b7e2d-2974-4758-acd3-c0d6f18f44a7 .legends .legend:hover text{fill:rgba(0,0,0,1)}#chart-5f3b7e2d-2974-4758-acd3-c0d6f18f44a7 .axis .line{stroke:rgba(0,0,0,1)}#chart-5f3b7e2d-2974-4758-acd3-c0d6f18f44a7 .axis .guide.line{stroke:rgba(0,0,0,.54)}#chart-5f3b7e2d-2974-4758-acd3-c0d6f18f44a7 .axis .major.line{stroke:rgba(0,0,0,.87)}#chart-5f3b7e2d-2974-4758-acd3-c0d6f18f44a7 .axis text.major{fill:rgba(0,0,0,1)}#chart-5f3b7e2d-2974-4758-acd3-c0d6f18f44a7 .axis.y .guides:hover .guide.line,#chart-5f3b7e2d-2974-4758-acd3-c0d6f18f44a7 .line-graph .axis.x .guides:hover .guide.line,#chart-5f3b7e2d-2974-4758-acd3-c0d6f18f44a7 .stackedline-graph .axis.x .guides:hover .guide.line,#chart-5f3b7e2d-2974-4758-acd3-c0d6f18f44a7 .xy-graph .axis.x .guides:hover .guide.line{stroke:rgba(0,0,0,1)}#chart-5f3b7e2d-2974-4758-acd3-c0d6f18f44a7 .axis .guides:hover text{fill:rgba(0,0,0,1)}#chart-5f3b7e2d-2974-4758-acd3-c0d6f18f44a7 .reactive{fill-opacity:.7;stroke-opacity:.8}#chart-5f3b7e2d-2974-4758-acd3-c0d6f18f44a7 .ci{stroke:rgba(0,0,0,.87)}#chart-5f3b7e2d-2974-4758-acd3-c0d6f18f44a7 .reactive.active,#chart-5f3b7e2d-2974-4758-acd3-c0d6f18f44a7 .active .reactive{fill-opacity:.8;stroke-opacity:.9;stroke-width:4}#chart-5f3b7e2d-2974-4758-acd3-c0d6f18f44a7 .ci .reactive.active{stroke-width:1.5}#chart-5f3b7e2d-2974-4758-acd3-c0d6f18f44a7 .series text{fill:rgba(0,0,0,1)}#chart-5f3b7e2d-2974-4758-acd3-c0d6f18f44a7 .tooltip rect{fill:rgba(255,255,255,1);stroke:rgba(0,0,0,1);-webkit-transition:opacity 150ms;-moz-transition:opacity 150ms;transition:opacity 150ms}#chart-5f3b7e2d-2974-4758-acd3-c0d6f18f44a7 .tooltip .label{fill:rgba(0,0,0,.87)}#chart-5f3b7e2d-2974-4758-acd3-c0d6f18f44a7 .tooltip .label{fill:rgba(0,0,0,.87)}#chart-5f3b7e2d-2974-4758-acd3-c0d6f18f44a7 .tooltip .legend{font-size:.8em;fill:rgba(0,0,0,.54)}#chart-5f3b7e2d-2974-4758-acd3-c0d6f18f44a7 .tooltip .x_label{font-size:.6em;fill:rgba(0,0,0,1)}#chart-5f3b7e2d-2974-4758-acd3-c0d6f18f44a7 .tooltip .xlink{font-size:.5em;text-decoration:underline}#chart-5f3b7e2d-2974-4758-acd3-c0d6f18f44a7 .tooltip .value{font-size:1.5em}#chart-5f3b7e2d-2974-4758-acd3-c0d6f18f44a7 .bound{font-size:.5em}#chart-5f3b7e2d-2974-4758-acd3-c0d6f18f44a7 .max-value{font-size:.75em;fill:rgba(0,0,0,.54)}#chart-5f3b7e2d-2974-4758-acd3-c0d6f18f44a7 .map-element{fill:rgba(255,255,255,1);stroke:rgba(0,0,0,.54) !important}#chart-5f3b7e2d-2974-4758-acd3-c0d6f18f44a7 .map-element .reactive{fill-opacity:inherit;stroke-opacity:inherit}#chart-5f3b7e2d-2974-4758-acd3-c0d6f18f44a7 .color-0,#chart-5f3b7e2d-2974-4758-acd3-c0d6f18f44a7 .color-0 a:visited{stroke:red;fill:red}#chart-5f3b7e2d-2974-4758-acd3-c0d6f18f44a7 .color-1,#chart-5f3b7e2d-2974-4758-acd3-c0d6f18f44a7 .color-1 a:visited{stroke:blue;fill:blue}#chart-5f3b7e2d-2974-4758-acd3-c0d6f18f44a7 .color-2,#chart-5f3b7e2d-2974-4758-acd3-c0d6f18f44a7 .color-2 a:visited{stroke:green;fill:green}#chart-5f3b7e2d-2974-4758-acd3-c0d6f18f44a7 .text-overlay .color-0 text{fill:white}#chart-5f3b7e2d-2974-4758-acd3-c0d6f18f44a7 .text-overlay .color-1 text{fill:white}#chart-5f3b7e2d-2974-4758-acd3-c0d6f18f44a7 .text-overlay .color-2 text{fill:white}
#chart-5f3b7e2d-2974-4758-acd3-c0d6f18f44a7 text.no_data{text-anchor:middle}#chart-5f3b7e2d-2974-4758-acd3-c0d6f18f44a7 .guide.line{fill:none}#chart-5f3b7e2d-2974-4758-acd3-c0d6f18f44a7 .centered{text-anchor:middle}#chart-5f3b7e2d-2974-4758-acd3-c0d6f18f44a7 .title{text-anchor:middle}#chart-5f3b7e2d-2974-4758-acd3-c0d6f18f44a7 .legends .legend text{fill-opacity:1}#chart-5f3b7e2d-2974-4758-acd3-c0d6f18f44a7 .axis.x text{text-anchor:middle}#chart-5f3b7e2d-2974-4758-acd3-c0d6f18f44a7 .axis.x:not(.web) text[transform]{text-anchor:start}#chart-5f3b7e2d-2974-4758-acd3-c0d6f18f44a7 .axis.x:not(.web) text[transform].backwards{text-anchor:end}#chart-5f3b7e2d-2974-4758-acd3-c0d6f18f44a7 .axis.y text{text-anchor:end}#chart-5f3b7e2d-2974-4758-acd3-c0d6f18f44a7 .axis.y text[transform].backwards{text-anchor:start}#chart-5f3b7e2d-2974-4758-acd3-c0d6f18f44a7 .axis.y2 text{text-anchor:start}#chart-5f3b7e2d-2974-4758-acd3-c0d6f18f44a7 .axis.y2 text[transform].backwards{text-anchor:end}#chart-5f3b7e2d-2974-4758-acd3-c0d6f18f44a7 .axis .guide.line{stroke-dasharray:4,4}#chart-5f3b7e2d-2974-4758-acd3-c0d6f18f44a7 .axis .major.guide.line{stroke-dasharray:6,6}#chart-5f3b7e2d-2974-4758-acd3-c0d6f18f44a7 .horizontal .axis.y .guide.line,#chart-5f3b7e2d-2974-4758-acd3-c0d6f18f44a7 .horizontal .axis.y2 .guide.line,#chart-5f3b7e2d-2974-4758-acd3-c0d6f18f44a7 .vertical .axis.x .guide.line{opacity:0}#chart-5f3b7e2d-2974-4758-acd3-c0d6f18f44a7 .horizontal .axis.always_show .guide.line,#chart-5f3b7e2d-2974-4758-acd3-c0d6f18f44a7 .vertical .axis.always_show .guide.line{opacity:1 !important}#chart-5f3b7e2d-2974-4758-acd3-c0d6f18f44a7 .axis.y .guides:hover .guide.line,#chart-5f3b7e2d-2974-4758-acd3-c0d6f18f44a7 .axis.y2 .guides:hover .guide.line,#chart-5f3b7e2d-2974-4758-acd3-c0d6f18f44a7 .axis.x .guides:hover .guide.line{opacity:1}#chart-5f3b7e2d-2974-4758-acd3-c0d6f18f44a7 .axis .guides:hover text{opacity:1}#chart-5f3b7e2d-2974-4758-acd3-c0d6f18f44a7 .nofill{fill:none}#chart-5f3b7e2d-2974-4758-acd3-c0d6f18f44a7 .subtle-fill{fill-opacity:.2}#chart-5f3b7e2d-2974-4758-acd3-c0d6f18f44a7 .dot{stroke-width:1px;fill-opacity:1}#chart-5f3b7e2d-2974-4758-acd3-c0d6f18f44a7 .dot.active{stroke-width:5px}#chart-5f3b7e2d-2974-4758-acd3-c0d6f18f44a7 .dot.negative{fill:transparent}#chart-5f3b7e2d-2974-4758-acd3-c0d6f18f44a7 text,#chart-5f3b7e2d-2974-4758-acd3-c0d6f18f44a7 tspan{stroke:none !important}#chart-5f3b7e2d-2974-4758-acd3-c0d6f18f44a7 .series text.active{opacity:1}#chart-5f3b7e2d-2974-4758-acd3-c0d6f18f44a7 .tooltip rect{fill-opacity:.95;stroke-width:.5}#chart-5f3b7e2d-2974-4758-acd3-c0d6f18f44a7 .tooltip text{fill-opacity:1}#chart-5f3b7e2d-2974-4758-acd3-c0d6f18f44a7 .showable{visibility:hidden}#chart-5f3b7e2d-2974-4758-acd3-c0d6f18f44a7 .showable.shown{visibility:visible}#chart-5f3b7e2d-2974-4758-acd3-c0d6f18f44a7 .gauge-background{fill:rgba(229,229,229,1);stroke:none}#chart-5f3b7e2d-2974-4758-acd3-c0d6f18f44a7 .bg-lines{stroke:rgba(249,249,249,1);stroke-width:2px}</style><script type="text/javascript">window.pygal = window.pygal || {};window.pygal.config = window.pygal.config || {};window.pygal.config['5f3b7e2d-2974-4758-acd3-c0d6f18f44a7'] = {"allow_interruptions": false, "box_mode": "extremes", "classes": ["pygal-chart"], "css": ["file://style.css", "file://graph.css"], "defs": [], "disable_xml_declaration": false, "dots_size": 2.5, "dynamic_print_values": false, "explicit_size": false, "fill": false, "force_uri_protocol": "https", "formatter": null, "half_pie": false, "height": 600, "include_x_axis": false, "inner_radius": 0, "interpolate": null, "interpolation_parameters": {}, "interpolation_precision": 250, "inverse_y_axis": false, "js": ["//kozea.github.io/pygal.js/2.0.x/pygal-tooltips.min.js"], "legend_at_bottom": true, "legend_at_bottom_columns": null, "legend_box_size": 12, "logarithmic": false, "margin": 20, "margin_bottom": null, "margin_left": null, "margin_right": null, "margin_top": null, "max_scale": 16, "min_scale": 4, "missing_value_fill_truncation": "x", "no_data_text": "No data", "no_prefix": false, "order_min": null, "pretty_print": false, "print_labels": false, "print_values": false, "print_values_position": "center", "print_zeroes": true, "range": null, "rounded_bars": null, "secondary_range": null, "show_dots": true, "show_legend": true, "show_minor_x_labels": false, "show_minor_y_labels": true, "show_only_major_dots": false, "show_x_guides": false, "show_x_labels": true, "show_y_guides": true, "show_y_labels": true, "spacing": 10, "stack_from_top": false, "strict": false, "stroke": true, "stroke_style": null, "style": {"background": "rgba(249, 249, 249, 1)", "ci_colors": [], "colors": ["red", "blue", "green", "#a3a3a3"], "font_family": "Consolas, \"Liberation Mono\", Menlo, Courier, monospace", "foreground": "rgba(0, 0, 0, .87)", "foreground_strong": "rgba(0, 0, 0, 1)", "foreground_subtle": "rgba(0, 0, 0, .54)", "guide_stroke_dasharray": "4,4", "label_font_family": "Consolas, \"Liberation Mono\", Menlo, Courier, monospace", "label_font_size": 10, "legend_font_family": "Consolas, \"Liberation Mono\", Menlo, Courier, monospace", "legend_font_size": 14, "major_guide_stroke_dasharray": "6,6", "major_label_font_family": "Consolas, \"Liberation Mono\", Menlo, Courier, monospace", "major_label_font_size": 10, "no_data_font_family": "Consolas, \"Liberation Mono\", Menlo, Courier, monospace", "no_data_font_size": 64, "opacity": ".7", "opacity_hover": ".8", "plot_background": "rgba(255, 255, 255, 1)", "stroke_opacity": ".8", "stroke_opacity_hover": ".9", "title_font_family": "Consolas, \"Liberation Mono\", Menlo, Courier, monospace", "title_font_size": 16, "tooltip_font_family": "Consolas, \"Liberation Mono\", Menlo, Courier, monospace", "tooltip_font_size": 14, "transition": "150ms", "value_background": "rgba(229, 229, 229, 1)", "value_colors": [], "value_font_family": "Consolas, \"Liberation Mono\", Menlo, Courier, monospace", "value_font_size": 16, "value_label_font_family": "Consolas, \"Liberation Mono\", Menlo, Courier, monospace", "value_label_font_size": 10}, "title": "A Symonds: Future and Past Averages in ODIs", "tooltip_border_radius": 10, "tooltip_fancy_mode": true, "truncate_label": null, "truncate_legend": null, "width": 800, "x_label_rotation": 45, "x_labels": ["1999", "0", "0", "0", "0", "0", "0", "0", "2000", "0", "0", "0", "0", "0", "0", "0", "0", "0", "0", "0", "0", "0", "0", "0", "2001", "0", "0", "0", "0", "0", "0", "0", "0", "0", "0", "0", "0", "0", "0", "0", "2002", "0", "0", "0", "0", "2003", "0", "0", "0", "0", "0", "0", "0", "0", "0", "0", "0", "0", "0", "0", "0", "0", "0", "0", "0", "0", "2004", "0", "0", "0", "0", "0", "0", "0", "0", "0", "0", "0", "0", "0", "0", "0", "0", "0", "0", "0", "0", "0", "2005", "0", "0", "0", "0", "0", "0", "0", "0", "0", "0", "0", "0", "0", "0", "0", "0", "0", "0", "0", "0", "0", "2006", "0", "0", "0", "0", "0", "0", "0", "0", "0", "0", "0", "0", "0", "0", "0", "0", "0", "0", "0", "0", "0", "2007", "0", "0", "0", "0", "0", "0", "0", "0", "0", "0", "0", "0", "0", "0", "2008", "0", "0", "0", "0", "0", "2009", "0", "0", "0", "0"], "x_labels_major": ["1999", "2000", "2001", "2002", "2003", "2004", "2005", "2006", "2007", "2008", "2009"], "x_labels_major_count": null, "x_labels_major_every": null, "x_title": null, "xrange": null, "y_label_rotation": 0, "y_labels": null, "y_labels_major": null, "y_labels_major_count": null, "y_labels_major_every": null, "y_title": null, "zero": 70.0, "legends": ["Future Average", "Past Average", "Career Average"]}</script><script type="text/javascript" xlink:href="https://kozea.github.io/pygal.js/2.0.x/pygal-tooltips.min.js"/></defs><title>A Symonds: Future and Past Averages in ODIs</title><g class="graph line-graph vertical"><rect class="background" height="600" width="800" x="0" y="0"/><g class="plot" transform="translate(42, 46)"><rect class="background" height="462.02943725152284" width="738.0" x="0" y="0"/><g class="axis y always_show"><g class="guides"><path class="axis major line" d="M0.000000 453.144256 h738.000000"/><text class="major" x="-5" y="456.6442557659166">0</text><title>0</title></g><g class="guides"><path class="guide line" d="M0.000000 383.728775 h738.000000"/><text class="" x="-5" y="387.22877540961815">10</text><title>10</title></g><g class="guides"><path class="guide line" d="M0.000000 314.313295 h738.000000"/><text class="" x="-5" y="317.8132950533196">20</text><title>20</title></g><g class="guides"><path class="guide line" d="M0.000000 244.897815 h738.000000"/><text class="" x="-5" y="248.39781469702112">30</text><title>30</title></g><g class="guides"><path class="guide line" d="M0.000000 175.482334 h738.000000"/><text class="" x="-5" y="178.98233434072262">40</text><title>40</title></g><g class="guides"><path class="major guide line" d="M0.000000 106.066854 h738.000000"/><text class="major" x="-5" y="109.56685398442409">50</text><title>50</title></g><g class="guides"><path class="guide line" d="M0.000000 36.651374 h738.000000"/><text class="" x="-5" y="40.15137362812561">60</text><title>60</title></g></g><g class="axis x"><g class="guides"><path class="major line" d="M14.192308 0.000000 v462.029437"/><text class="major" x="14.192307692307692" y="477.02943725152284" transform="rotate(45 14.192308 477.029437)">1999</text></g><g class="guides"><path class="major guide line" d="M50.351053 0.000000 v462.029437"/><text class="major" x="50.35105340519354" y="477.02943725152284" transform="rotate(45 50.351053 477.029437)">2000</text></g><g class="guides"><path class="major guide line" d="M122.668545 0.000000 v462.029437"/><text class="major" x="122.6685448309652" y="477.02943725152284" transform="rotate(45 122.668545 477.029437)">2001</text></g><g class="guides"><path class="major guide line" d="M194.986036 0.000000 v462.029437"/><text class="major" x="194.9860362567369" y="477.02943725152284" transform="rotate(45 194.986036 477.029437)">2002</text></g><g class="guides"><path class="major guide line" d="M217.585252 0.000000 v462.029437"/><text class="major" x="217.58525232729053" y="477.02943725152284" transform="rotate(45 217.585252 477.029437)">2003</text></g><g class="guides"><path class="major guide line" d="M312.501960 0.000000 v462.029437"/><text class="major" x="312.5019598236159" y="477.02943725152284" transform="rotate(45 312.501960 477.029437)">2004</text></g><g class="guides"><path class="major guide line" d="M411.938511 0.000000 v462.029437"/><text class="major" x="411.9385105340519" y="477.02943725152284" transform="rotate(45 411.938511 477.029437)">2005</text></g><g class="guides"><path class="major guide line" d="M511.375061 0.000000 v462.029437"/><text class="major" x="511.375061244488" y="477.02943725152284" transform="rotate(45 511.375061 477.029437)">2006</text></g><g class="guides"><path class="major guide line" d="M610.811612 0.000000 v462.029437"/><text class="major" x="610.8116119549242" y="477.02943725152284" transform="rotate(45 610.811612 477.029437)">2007</text></g><g class="guides"><path class="major guide line" d="M678.609260 0.000000 v462.029437"/><text class="major" x="678.609260166585" y="477.02943725152284" transform="rotate(45 678.609260 477.029437)">2008</text></g><g class="guides"><path class="major guide line" d="M705.728319 0.000000 v462.029437"/><text class="major" x="705.7283194512494" y="477.02943725152284" transform="rotate(45 705.728319 477.029437)">2009</text></g></g><g class="series serie-0 color-0"><path class="line reactive nofill" d="M14.192308 194.502176 L18.712151 195.265746 23.231994 194.641007 27.751837 195.751655 32.271681 195.543408 36.791524 196.237563 41.311367 193.044451 45.831210 192.280881 50.351053 193.044451 54.870897 188.601860 59.390740 190.198416 63.910583 182.007389 68.430426 178.953108 72.950269 176.940059 77.470113 178.467200 81.989956 177.148306 86.509799 176.245905 91.029642 178.050707 95.549486 180.410833 100.069329 181.521481 104.589172 179.508432 109.109015 180.757911 113.628858 179.230770 118.148702 179.924925 122.668545 178.536615 127.188388 170.415004 131.708231 172.775131 136.228074 173.746947 140.747918 170.900913 145.267761 167.707801 149.787604 171.247990 154.307447 166.805399 158.827291 167.777216 163.347134 170.692666 167.866977 173.261039 172.386820 173.261039 176.906663 174.927010 181.426507 176.592982 185.946350 172.566884 190.466193 169.859680 194.986036 170.831497 199.505879 173.885778 204.025723 168.332540 208.545566 168.818448 213.065409 171.178575 217.585252 173.677532 222.105096 174.441102 226.624939 176.940059 231.144782 178.883693 235.664625 181.729728 240.184468 184.436931 244.704312 186.033487 249.224155 180.410833 253.743998 180.619080 258.263841 182.423882 262.783684 181.799143 267.303528 180.133172 271.823371 179.855510 276.343214 180.272002 280.863057 178.953108 285.382901 178.953108 289.902744 180.966157 294.422587 185.825241 298.942430 183.951023 303.462273 185.200502 307.982117 178.536615 312.501960 178.189538 317.021803 175.204672 321.541646 169.790265 326.061489 170.484420 330.581333 171.109159 335.101176 175.274088 339.621019 171.942145 344.140862 167.291308 348.660706 172.219807 353.180549 173.399870 357.700392 173.330454 362.220235 173.885778 366.740078 174.718764 371.259922 179.855510 375.779765 174.788180 380.299608 180.827326 384.819451 184.159269 389.339294 177.981292 393.859138 176.940059 398.378981 180.410833 402.898824 179.716679 407.418667 184.020438 411.938511 185.061671 416.458354 186.380565 420.978197 188.463029 425.498040 193.252697 430.017883 199.569506 434.537727 198.528274 439.057570 204.428590 443.577413 206.580470 448.097256 197.278795 452.617099 197.139964 457.136943 189.851339 461.656786 189.643092 466.176629 159.863851 470.696472 166.111244 475.216316 170.067927 479.736159 175.621165 484.256002 181.035573 488.775845 185.547579 493.295688 185.478164 497.815532 187.352381 502.335375 178.744862 506.855218 185.894656 511.375061 188.601860 515.894904 192.558543 520.414748 195.335162 524.934591 198.320027 529.454434 199.777752 533.974277 186.033487 538.494121 189.573677 543.013964 190.337247 547.533807 181.660312 552.053650 188.810107 556.573493 176.037658 561.093337 187.352381 565.613180 185.131086 570.133023 184.436931 574.652866 158.336711 579.172709 152.366979 583.692553 151.395163 588.212396 157.503725 592.732239 171.803314 597.252082 158.961450 601.771926 167.221892 606.291769 169.026695 610.811612 176.384736 615.331455 155.698922 619.851298 163.195794 624.371142 186.727642 628.890985 176.037658 633.410828 194.571591 637.930671 203.803850 642.450514 214.840912 646.970358 213.313771 651.490201 223.448431 656.010044 248.715666 660.529887 233.097183 665.049731 243.509505 669.569574 224.836741 674.089417 254.893644 678.609260 285.019962 683.129103 288.074243 687.648947 302.720910 692.168790 309.662458 696.688633 315.146281 701.208476 317.784069 705.728319 290.017877 710.248163 277.314844 714.768006 8.885181 719.287849 293.488651 723.807692 355.962583"/></g><g class="series serie-1 color-1"><path class="line reactive nofill" d="M14.192308 453.144256 L18.712151 355.962583 23.231994 182.423882 27.751837 29.709826 32.271681 130.362272 36.791524 81.771436 41.311367 232.403028 45.831210 242.607104 50.351053 221.088305 54.870897 267.110768 59.390740 247.674434 63.910583 300.916107 68.430426 308.204733 72.950269 314.729788 77.470113 304.109219 81.989956 305.428114 86.509799 304.456297 91.029642 293.488651 95.549486 279.258477 100.069329 272.664007 104.589172 279.605555 109.109015 272.316929 113.628858 275.995950 118.148702 272.316929 122.668545 271.136866 127.188388 289.115476 131.708231 279.883217 136.228074 272.386345 140.747918 275.648872 145.267761 279.189062 149.787604 268.082585 154.307447 275.301795 158.827291 269.470895 163.347134 261.349284 167.866977 253.991243 172.386820 251.839363 176.906663 247.396772 181.426507 242.745935 185.946350 249.479236 190.466193 251.839363 194.986036 249.618067 199.505879 242.468273 204.025723 249.409821 208.545566 248.299173 213.065409 243.440090 217.585252 238.095098 222.105096 235.110232 226.624939 230.042902 231.144782 226.155635 235.664625 220.463566 240.184468 214.910327 244.704312 211.786631 249.224155 221.227136 253.743998 219.908242 258.263841 216.715130 262.783684 217.131623 267.303528 219.283502 271.823371 218.936425 276.343214 218.242270 280.863057 219.561164 285.382901 219.561164 289.902744 216.298637 294.422587 208.524103 298.942430 210.467736 303.462273 208.593518 307.982117 216.506883 312.501960 216.298637 317.021803 218.797594 321.541646 223.726093 326.061489 222.060122 330.581333 220.532981 335.101176 215.951559 339.621019 218.172855 344.140862 221.365967 348.660706 216.506883 353.180549 215.396236 357.700392 214.771496 362.220235 213.730264 366.740078 212.341954 371.259922 207.691117 375.779765 211.231307 380.299608 206.163977 384.819451 203.317942 389.339294 207.760533 393.859138 208.177026 398.378981 205.469822 402.898824 205.608653 407.418667 202.415541 411.938511 201.443724 416.458354 200.471907 420.978197 198.805936 425.498040 195.404577 430.017883 190.961986 434.537727 191.864388 439.057570 187.977121 443.577413 186.797058 448.097256 192.905620 452.617099 193.044451 457.136943 197.001133 461.656786 197.001133 466.176629 209.426504 470.696472 206.788716 475.216316 205.053329 479.736159 202.623787 484.256002 200.333076 488.775845 198.389443 493.295688 198.320027 497.815532 197.417626 502.335375 200.402492 506.855218 197.764704 511.375061 196.654056 515.894904 195.265746 520.414748 194.224514 524.934591 193.183282 529.454434 192.697373 533.974277 197.139964 538.494121 195.959901 543.013964 195.682239 547.533807 197.834119 552.053650 195.890486 556.573493 198.597689 561.093337 196.098732 565.613180 196.515225 570.133023 196.445809 574.652866 200.541323 579.172709 201.166062 583.692553 200.888400 588.212396 199.985999 592.732239 197.834119 597.252082 199.361260 601.771926 198.250612 606.291769 197.764704 610.811612 196.862302 615.331455 198.736520 619.851298 197.903534 624.371142 195.404577 628.890985 196.376394 633.410828 194.502176 637.930671 193.599775 642.450514 192.489127 646.970358 192.836204 651.490201 191.933803 656.010044 189.643092 660.529887 191.378479 665.049731 190.545494 669.569574 192.350296 674.089417 190.129001 678.609260 187.977121 683.129103 187.768874 687.648947 186.658227 692.168790 186.172318 696.688633 186.797058 701.208476 188.740691 705.728319 191.586726 710.248163 192.627958 714.768006 195.959901 719.287849 195.751655 723.807692 195.265746"/></g><g class="series serie-2 color-2"><path class="line reactive nofill" d="M14.192308 194.502176 L18.712151 194.502176 23.231994 194.502176 27.751837 194.502176 32.271681 194.502176 36.791524 194.502176 41.311367 194.502176 45.831210 194.502176 50.351053 194.502176 54.870897 194.502176 59.390740 194.502176 63.910583 194.502176 68.430426 194.502176 72.950269 194.502176 77.470113 194.502176 81.989956 194.502176 86.509799 194.502176 91.029642 194.502176 95.549486 194.502176 100.069329 194.502176 104.589172 194.502176 109.109015 194.502176 113.628858 194.502176 118.148702 194.502176 122.668545 194.502176 127.188388 194.502176 131.708231 194.502176 136.228074 194.502176 140.747918 194.502176 145.267761 194.502176 149.787604 194.502176 154.307447 194.502176 158.827291 194.502176 163.347134 194.502176 167.866977 194.502176 172.386820 194.502176 176.906663 194.502176 181.426507 194.502176 185.946350 194.502176 190.466193 194.502176 194.986036 194.502176 199.505879 194.502176 204.025723 194.502176 208.545566 194.502176 213.065409 194.502176 217.585252 194.502176 222.105096 194.502176 226.624939 194.502176 231.144782 194.502176 235.664625 194.502176 240.184468 194.502176 244.704312 194.502176 249.224155 194.502176 253.743998 194.502176 258.263841 194.502176 262.783684 194.502176 267.303528 194.502176 271.823371 194.502176 276.343214 194.502176 280.863057 194.502176 285.382901 194.502176 289.902744 194.502176 294.422587 194.502176 298.942430 194.502176 303.462273 194.502176 307.982117 194.502176 312.501960 194.502176 317.021803 194.502176 321.541646 194.502176 326.061489 194.502176 330.581333 194.502176 335.101176 194.502176 339.621019 194.502176 344.140862 194.502176 348.660706 194.502176 353.180549 194.502176 357.700392 194.502176 362.220235 194.502176 366.740078 194.502176 371.259922 194.502176 375.779765 194.502176 380.299608 194.502176 384.819451 194.502176 389.339294 194.502176 393.859138 194.502176 398.378981 194.502176 402.898824 194.502176 407.418667 194.502176 411.938511 194.502176 416.458354 194.502176 420.978197 194.502176 425.498040 194.502176 430.017883 194.502176 434.537727 194.502176 439.057570 194.502176 443.577413 194.502176 448.097256 194.502176 452.617099 194.502176 457.136943 194.502176 461.656786 194.502176 466.176629 194.502176 470.696472 194.502176 475.216316 194.502176 479.736159 194.502176 484.256002 194.502176 488.775845 194.502176 493.295688 194.502176 497.815532 194.502176 502.335375 194.502176 506.855218 194.502176 511.375061 194.502176 515.894904 194.502176 520.414748 194.502176 524.934591 194.502176 529.454434 194.502176 533.974277 194.502176 538.494121 194.502176 543.013964 194.502176 547.533807 194.502176 552.053650 194.502176 556.573493 194.502176 561.093337 194.502176 565.613180 194.502176 570.133023 194.502176 574.652866 194.502176 579.172709 194.502176 583.692553 194.502176 588.212396 194.502176 592.732239 194.502176 597.252082 194.502176 601.771926 194.502176 606.291769 194.502176 610.811612 194.502176 615.331455 194.502176 619.851298 194.502176 624.371142 194.502176 628.890985 194.502176 633.410828 194.502176 637.930671 194.502176 642.450514 194.502176 646.970358 194.502176 651.490201 194.502176 656.010044 194.502176 660.529887 194.502176 665.049731 194.502176 669.569574 194.502176 674.089417 194.502176 678.609260 194.502176 683.129103 194.502176 687.648947 194.502176 692.168790 194.502176 696.688633 194.502176 701.208476 194.502176 705.728319 194.502176 710.248163 194.502176 714.768006 194.502176 719.287849 194.502176 723.807692 194.502176"/></g></g><g class="titles"><text class="title plot_title" x="400.0" y="26">A Symonds: Future and Past Averages in ODIs</text></g><g class="plot overlay" transform="translate(42, 46)"><g class="series serie-0 color-0"><g class="dots"><desc class="label">133 wickets in 158 innings (989.1 overs)</desc><circle class="dot reactive tooltip-trigger" cx="14.192307692307692" cy="194.50217595834846" r="2.5"/><desc class="value">37.26</desc><desc class="x ">14.192307692307692</desc><desc class="y ">194.50217595834846</desc><desc class="x_label">1999</desc></g><g class="dots"><desc class="label">126 wickets in 150 innings (945.4 overs)</desc><circle class="dot reactive tooltip-trigger" cx="50.35105340519354" cy="193.04445087086617" r="2.5"/><desc class="value">37.47</desc><desc class="x ">50.35105340519354</desc><desc class="y ">193.04445087086617</desc><desc class="x_label">2000</desc></g><g class="dots"><desc class="label">110 wickets in 134 innings (864.5 overs)</desc><circle class="dot reactive tooltip-trigger" cx="122.6685448309652" cy="178.53661547639973" r="2.5"/><desc class="value">39.56</desc><desc class="x ">122.6685448309652</desc><desc class="y ">178.53661547639973</desc><desc class="x_label">2001</desc></g><g class="dots"><desc class="label">93 wickets in 118 innings (752.5 overs)</desc><circle class="dot reactive tooltip-trigger" cx="194.9860362567369" cy="170.83149715685056" r="2.5"/><desc class="value">40.67</desc><desc class="x ">194.9860362567369</desc><desc class="y ">170.83149715685056</desc><desc class="x_label">2002</desc></g><g class="dots"><desc class="label">90 wickets in 113 innings (717.5 overs)</desc><circle class="dot reactive tooltip-trigger" cx="217.58525232729053" cy="173.67753185145887" r="2.5"/><desc class="value">40.26</desc><desc class="x ">217.58525232729053</desc><desc class="y ">173.67753185145887</desc><desc class="x_label">2003</desc></g><g class="dots"><desc class="label">76 wickets in 92 innings (594.5 overs)</desc><circle class="dot reactive tooltip-trigger" cx="312.5019598236159" cy="178.18953807461827" r="2.5"/><desc class="value">39.61</desc><desc class="x ">312.5019598236159</desc><desc class="y ">178.18953807461827</desc><desc class="x_label">2004</desc></g><g class="dots"><desc class="label">56 wickets in 70 innings (417.0 overs)</desc><circle class="dot reactive tooltip-trigger" cx="411.9385105340519" cy="185.0616706298918" r="2.5"/><desc class="value">38.62</desc><desc class="x left">411.9385105340519</desc><desc class="y left">185.0616706298918</desc><desc class="x_label">2005</desc></g><g class="dots"><desc class="label">35 wickets in 48 innings (245.0 overs)</desc><circle class="dot reactive tooltip-trigger" cx="511.375061244488" cy="188.60186012806304" r="2.5"/><desc class="value">38.11</desc><desc class="x left">511.375061244488</desc><desc class="y left">188.60186012806304</desc><desc class="x_label">2006</desc></g><g class="dots"><desc class="label">15 wickets in 26 innings (111.4 overs)</desc><circle class="dot reactive tooltip-trigger" cx="610.8116119549242" cy="176.38473558535452" r="2.5"/><desc class="value">39.87</desc><desc class="x left">610.8116119549242</desc><desc class="y left">176.38473558535452</desc><desc class="x_label">2007</desc></g><g class="dots"><desc class="label">9 wickets in 11 innings (40.5 overs)</desc><circle class="dot reactive tooltip-trigger" cx="678.609260166585" cy="285.01996234296166" r="2.5"/><desc class="value">24.22</desc><desc class="x left top">678.609260166585</desc><desc class="y left top">285.01996234296166</desc><desc class="x_label">2008</desc></g><g class="dots"><desc class="label">4 wickets in 5 innings (18.0 overs)</desc><circle class="dot reactive tooltip-trigger" cx="705.7283194512494" cy="290.0178769286151" r="2.5"/><desc class="value">23.5</desc><desc class="x left top">705.7283194512494</desc><desc class="y left top">290.0178769286151</desc><desc class="x_label">2009</desc></g></g><g class="series serie-1 color-1"><g class="dots"><desc class="label">0 wickets over 0 innings</desc><circle class="dot reactive tooltip-trigger" cx="14.192307692307692" cy="453.1442557659166" r="2.5"/><desc class="value">0</desc><desc class="x top">14.192307692307692</desc><desc class="y top">453.1442557659166</desc><desc class="x_label">1999</desc></g><g class="dots"><desc class="label">7 wickets in 8 innings (43.3 overs)</desc><circle class="dot reactive tooltip-trigger" cx="50.35105340519354" cy="221.08830493481074" r="2.5"/><desc class="value">33.43</desc><desc class="x ">50.35105340519354</desc><desc class="y ">221.08830493481074</desc><desc class="x_label">2000</desc></g><g class="dots"><desc class="label">23 wickets in 24 innings (124.2 overs)</desc><circle class="dot reactive tooltip-trigger" cx="122.6685448309652" cy="271.13686627170193" r="2.5"/><desc class="value">26.22</desc><desc class="x top">122.6685448309652</desc><desc class="y top">271.13686627170193</desc><desc class="x_label">2001</desc></g><g class="dots"><desc class="label">40 wickets in 40 innings (236.2 overs)</desc><circle class="dot reactive tooltip-trigger" cx="194.9860362567369" cy="249.61806736124942" r="2.5"/><desc class="value">29.32</desc><desc class="x top">194.9860362567369</desc><desc class="y top">249.61806736124942</desc><desc class="x_label">2002</desc></g><g class="dots"><desc class="label">43 wickets in 45 innings (271.2 overs)</desc><circle class="dot reactive tooltip-trigger" cx="217.58525232729053" cy="238.09509762210388" r="2.5"/><desc class="value">30.98</desc><desc class="x top">217.58525232729053</desc><desc class="y top">238.09509762210388</desc><desc class="x_label">2003</desc></g><g class="dots"><desc class="label">57 wickets in 66 innings (394.2 overs)</desc><circle class="dot reactive tooltip-trigger" cx="312.5019598236159" cy="216.29863679022614" r="2.5"/><desc class="value">34.12</desc><desc class="x ">312.5019598236159</desc><desc class="y ">216.29863679022614</desc><desc class="x_label">2004</desc></g><g class="dots"><desc class="label">77 wickets in 88 innings (572.1 overs)</desc><circle class="dot reactive tooltip-trigger" cx="411.9385105340519" cy="201.44372399397827" r="2.5"/><desc class="value">36.26</desc><desc class="x left">411.9385105340519</desc><desc class="y left">201.44372399397827</desc><desc class="x_label">2005</desc></g><g class="dots"><desc class="label">98 wickets in 110 innings (744.1 overs)</desc><circle class="dot reactive tooltip-trigger" cx="511.375061244488" cy="196.65405584939367" r="2.5"/><desc class="value">36.95</desc><desc class="x left">511.375061244488</desc><desc class="y left">196.65405584939367</desc><desc class="x_label">2006</desc></g><g class="dots"><desc class="label">118 wickets in 132 innings (877.3 overs)</desc><circle class="dot reactive tooltip-trigger" cx="610.8116119549242" cy="196.86230229046254" r="2.5"/><desc class="value">36.92</desc><desc class="x left">610.8116119549242</desc><desc class="y left">196.86230229046254</desc><desc class="x_label">2007</desc></g><g class="dots"><desc class="label">124 wickets in 147 innings (948.2 overs)</desc><circle class="dot reactive tooltip-trigger" cx="678.609260166585" cy="187.97712080485633" r="2.5"/><desc class="value">38.2</desc><desc class="x left">678.609260166585</desc><desc class="y left">187.97712080485633</desc><desc class="x_label">2008</desc></g><g class="dots"><desc class="label">129 wickets in 153 innings (971.1 overs)</desc><circle class="dot reactive tooltip-trigger" cx="705.7283194512494" cy="191.58672578338388" r="2.5"/><desc class="value">37.68</desc><desc class="x left">705.7283194512494</desc><desc class="y left">191.58672578338388</desc><desc class="x_label">2009</desc></g></g><g class="series serie-2 color-2"/></g><g class="plot text-overlay" transform="translate(42, 46)"><g class="series serie-0 color-0"/><g class="series serie-1 color-1"/><g class="series serie-2 color-2"/></g><g class="plot tooltip-overlay" transform="translate(42, 46)"><g class="tooltip" style="opacity: 0" transform="translate(0 0)"><rect class="tooltip-box" height="0" rx="10" ry="10" width="0"/><g class="text"/></g></g><g class="legends" transform="translate(52, 545)"><g class="legend reactive activate-serie" id="activate-serie-0"><rect class="color-0 reactive" height="12" width="12" x="0.0" y="1.0"/><text x="17.0" y="11.2">Future Average</text></g><g class="legend reactive activate-serie" id="activate-serie-1"><rect class="color-1 reactive" height="12" width="12" x="369.0" y="1.0"/><text x="386.0" y="11.2">Past Average</text></g><g class="legend reactive activate-serie" id="activate-serie-2"><rect class="color-2 reactive" height="12" width="12" x="0.0" y="22.0"/><text x="17.0" y="32.2">Career Average</text></g></g></g></svg>