<?xml version='1.0' encoding='utf-8'?>
<svg xmlns:xlink="http://www.w3.org/1999/xlink" xmlns="http://www.w3.org/2000/svg" id="chart-905e34ff-fb00-4915-bfd0-e89bd5dcddc7" class="pygal-chart" viewBox="0 0 800 600"><!--Generated with pygal 2.4.0 (lxml) ©Kozea 2012-2016 on 2019-08-04--><!--http://pygal.org--><!--http://github.com/Kozea/pygal--><defs><style type="text/css">#chart-905e34ff-fb00-4915-bfd0-e89bd5dcddc7{-webkit-user-select:none;-webkit-font-smoothing:antialiased;font-family:Consolas,"Liberation Mono",Menlo,Courier,monospace}#chart-905e34ff-fb00-4915-bfd0-e89bd5dcddc7 .title{font-family:Consolas,"Liberation Mono",Menlo,Courier,monospace;font-size:16px}#chart-905e34ff-fb00-4915-bfd0-e89bd5dcddc7 .legends .legend text{font-family:Consolas,"Liberation Mono",Menlo,Courier,monospace;font-size:14px}#chart-905e34ff-fb00-4915-bfd0-e89bd5dcddc7 .axis text{font-family:Consolas,"Liberation Mono",Menlo,Courier,monospace;font-size:10px}#chart-905e34ff-fb00-4915-bfd0-e89bd5dcddc7 .axis text.major{font-family:Consolas,"Liberation Mono",Menlo,Courier,monospace;font-size:10px}#chart-905e34ff-fb00-4915-bfd0-e89bd5dcddc7 .text-overlay text.value{font-family:Consolas,"Liberation Mono",Menlo,Courier,monospace;font-size:16px}#chart-905e34ff-fb00-4915-bfd0-e89bd5dcddc7 .text-overlay text.label{font-family:Consolas,"Liberation Mono",Menlo,Courier,monospace;font-size:10px}#chart-905e34ff-fb00-4915-bfd0-e89bd5dcddc7 .tooltip{font-family:Consolas,"Liberation Mono",Menlo,Courier,monospace;font-size:14px}#chart-905e34ff-fb00-4915-bfd0-e89bd5dcddc7 text.no_data{font-family:Consolas,"Liberation Mono",Menlo,Courier,monospace;font-size:64px}
#chart-905e34ff-fb00-4915-bfd0-e89bd5dcddc7{background-color:rgba(249,249,249,1)}#chart-905e34ff-fb00-4915-bfd0-e89bd5dcddc7 path,#chart-905e34ff-fb00-4915-bfd0-e89bd5dcddc7 line,#chart-905e34ff-fb00-4915-bfd0-e89bd5dcddc7 rect,#chart-905e34ff-fb00-4915-bfd0-e89bd5dcddc7 circle{-webkit-transition:150ms;-moz-transition:150ms;transition:150ms}#chart-905e34ff-fb00-4915-bfd0-e89bd5dcddc7 .graph &gt; .background{fill:rgba(249,249,249,1)}#chart-905e34ff-fb00-4915-bfd0-e89bd5dcddc7 .plot &gt; .background{fill:rgba(255,255,255,1)}#chart-905e34ff-fb00-4915-bfd0-e89bd5dcddc7 .graph{fill:rgba(0,0,0,.87)}#chart-905e34ff-fb00-4915-bfd0-e89bd5dcddc7 text.no_data{fill:rgba(0,0,0,1)}#chart-905e34ff-fb00-4915-bfd0-e89bd5dcddc7 .title{fill:rgba(0,0,0,1)}#chart-905e34ff-fb00-4915-bfd0-e89bd5dcddc7 .legends .legend text{fill:rgba(0,0,0,.87)}#chart-905e34ff-fb00-4915-bfd0-e89bd5dcddc7 .legends .legend:hover text{fill:rgba(0,0,0,1)}#chart-905e34ff-fb00-4915-bfd0-e89bd5dcddc7 .axis .line{stroke:rgba(0,0,0,1)}#chart-905e34ff-fb00-4915-bfd0-e89bd5dcddc7 .axis .guide.line{stroke:rgba(0,0,0,.54)}#chart-905e34ff-fb00-4915-bfd0-e89bd5dcddc7 .axis .major.line{stroke:rgba(0,0,0,.87)}#chart-905e34ff-fb00-4915-bfd0-e89bd5dcddc7 .axis text.major{fill:rgba(0,0,0,1)}#chart-905e34ff-fb00-4915-bfd0-e89bd5dcddc7 .axis.y .guides:hover .guide.line,#chart-905e34ff-fb00-4915-bfd0-e89bd5dcddc7 .line-graph .axis.x .guides:hover .guide.line,#chart-905e34ff-fb00-4915-bfd0-e89bd5dcddc7 .stackedline-graph .axis.x .guides:hover .guide.line,#chart-905e34ff-fb00-4915-bfd0-e89bd5dcddc7 .xy-graph .axis.x .guides:hover .guide.line{stroke:rgba(0,0,0,1)}#chart-905e34ff-fb00-4915-bfd0-e89bd5dcddc7 .axis .guides:hover text{fill:rgba(0,0,0,1)}#chart-905e34ff-fb00-4915-bfd0-e89bd5dcddc7 .reactive{fill-opacity:.7;stroke-opacity:.8}#chart-905e34ff-fb00-4915-bfd0-e89bd5dcddc7 .ci{stroke:rgba(0,0,0,.87)}#chart-905e34ff-fb00-4915-bfd0-e89bd5dcddc7 .reactive.active,#chart-905e34ff-fb00-4915-bfd0-e89bd5dcddc7 .active .reactive{fill-opacity:.8;stroke-opacity:.9;stroke-width:4}#chart-905e34ff-fb00-4915-bfd0-e89bd5dcddc7 .ci .reactive.active{stroke-width:1.5}#chart-905e34ff-fb00-4915-bfd0-e89bd5dcddc7 .series text{fill:rgba(0,0,0,1)}#chart-905e34ff-fb00-4915-bfd0-e89bd5dcddc7 .tooltip rect{fill:rgba(255,255,255,1);stroke:rgba(0,0,0,1);-webkit-transition:opacity 150ms;-moz-transition:opacity 150ms;transition:opacity 150ms}#chart-905e34ff-fb00-4915-bfd0-e89bd5dcddc7 .tooltip .label{fill:rgba(0,0,0,.87)}#chart-905e34ff-fb00-4915-bfd0-e89bd5dcddc7 .tooltip .label{fill:rgba(0,0,0,.87)}#chart-905e34ff-fb00-4915-bfd0-e89bd5dcddc7 .tooltip .legend{font-size:.8em;fill:rgba(0,0,0,.54)}#chart-905e34ff-fb00-4915-bfd0-e89bd5dcddc7 .tooltip .x_label{font-size:.6em;fill:rgba(0,0,0,1)}#chart-905e34ff-fb00-4915-bfd0-e89bd5dcddc7 .tooltip .xlink{font-size:.5em;text-decoration:underline}#chart-905e34ff-fb00-4915-bfd0-e89bd5dcddc7 .tooltip .value{font-size:1.5em}#chart-905e34ff-fb00-4915-bfd0-e89bd5dcddc7 .bound{font-size:.5em}#chart-905e34ff-fb00-4915-bfd0-e89bd5dcddc7 .max-value{font-size:.75em;fill:rgba(0,0,0,.54)}#chart-905e34ff-fb00-4915-bfd0-e89bd5dcddc7 .map-element{fill:rgba(255,255,255,1);stroke:rgba(0,0,0,.54) !important}#chart-905e34ff-fb00-4915-bfd0-e89bd5dcddc7 .map-element .reactive{fill-opacity:inherit;stroke-opacity:inherit}#chart-905e34ff-fb00-4915-bfd0-e89bd5dcddc7 .color-0,#chart-905e34ff-fb00-4915-bfd0-e89bd5dcddc7 .color-0 a:visited{stroke:red;fill:red}#chart-905e34ff-fb00-4915-bfd0-e89bd5dcddc7 .color-1,#chart-905e34ff-fb00-4915-bfd0-e89bd5dcddc7 .color-1 a:visited{stroke:blue;fill:blue}#chart-905e34ff-fb00-4915-bfd0-e89bd5dcddc7 .color-2,#chart-905e34ff-fb00-4915-bfd0-e89bd5dcddc7 .color-2 a:visited{stroke:green;fill:green}#chart-905e34ff-fb00-4915-bfd0-e89bd5dcddc7 .text-overlay .color-0 text{fill:white}#chart-905e34ff-fb00-4915-bfd0-e89bd5dcddc7 .text-overlay .color-1 text{fill:white}#chart-905e34ff-fb00-4915-bfd0-e89bd5dcddc7 .text-overlay .color-2 text{fill:white}
#chart-905e34ff-fb00-4915-bfd0-e89bd5dcddc7 text.no_data{text-anchor:middle}#chart-905e34ff-fb00-4915-bfd0-e89bd5dcddc7 .guide.line{fill:none}#chart-905e34ff-fb00-4915-bfd0-e89bd5dcddc7 .centered{text-anchor:middle}#chart-905e34ff-fb00-4915-bfd0-e89bd5dcddc7 .title{text-anchor:middle}#chart-905e34ff-fb00-4915-bfd0-e89bd5dcddc7 .legends .legend text{fill-opacity:1}#chart-905e34ff-fb00-4915-bfd0-e89bd5dcddc7 .axis.x text{text-anchor:middle}#chart-905e34ff-fb00-4915-bfd0-e89bd5dcddc7 .axis.x:not(.web) text[transform]{text-anchor:start}#chart-905e34ff-fb00-4915-bfd0-e89bd5dcddc7 .axis.x:not(.web) text[transform].backwards{text-anchor:end}#chart-905e34ff-fb00-4915-bfd0-e89bd5dcddc7 .axis.y text{text-anchor:end}#chart-905e34ff-fb00-4915-bfd0-e89bd5dcddc7 .axis.y text[transform].backwards{text-anchor:start}#chart-905e34ff-fb00-4915-bfd0-e89bd5dcddc7 .axis.y2 text{text-anchor:start}#chart-905e34ff-fb00-4915-bfd0-e89bd5dcddc7 .axis.y2 text[transform].backwards{text-anchor:end}#chart-905e34ff-fb00-4915-bfd0-e89bd5dcddc7 .axis .guide.line{stroke-dasharray:4,4}#chart-905e34ff-fb00-4915-bfd0-e89bd5dcddc7 .axis .major.guide.line{stroke-dasharray:6,6}#chart-905e34ff-fb00-4915-bfd0-e89bd5dcddc7 .horizontal .axis.y .guide.line,#chart-905e34ff-fb00-4915-bfd0-e89bd5dcddc7 .horizontal .axis.y2 .guide.line,#chart-905e34ff-fb00-4915-bfd0-e89bd5dcddc7 .vertical .axis.x .guide.line{opacity:0}#chart-905e34ff-fb00-4915-bfd0-e89bd5dcddc7 .horizontal .axis.always_show .guide.line,#chart-905e34ff-fb00-4915-bfd0-e89bd5dcddc7 .vertical .axis.always_show .guide.line{opacity:1 !important}#chart-905e34ff-fb00-4915-bfd0-e89bd5dcddc7 .axis.y .guides:hover .guide.line,#chart-905e34ff-fb00-4915-bfd0-e89bd5dcddc7 .axis.y2 .guides:hover .guide.line,#chart-905e34ff-fb00-4915-bfd0-e89bd5dcddc7 .axis.x .guides:hover .guide.line{opacity:1}#chart-905e34ff-fb00-4915-bfd0-e89bd5dcddc7 .axis .guides:hover text{opacity:1}#chart-905e34ff-fb00-4915-bfd0-e89bd5dcddc7 .nofill{fill:none}#chart-905e34ff-fb00-4915-bfd0-e89bd5dcddc7 .subtle-fill{fill-opacity:.2}#chart-905e34ff-fb00-4915-bfd0-e89bd5dcddc7 .dot{stroke-width:1px;fill-opacity:1}#chart-905e34ff-fb00-4915-bfd0-e89bd5dcddc7 .dot.active{stroke-width:5px}#chart-905e34ff-fb00-4915-bfd0-e89bd5dcddc7 .dot.negative{fill:transparent}#chart-905e34ff-fb00-4915-bfd0-e89bd5dcddc7 text,#chart-905e34ff-fb00-4915-bfd0-e89bd5dcddc7 tspan{stroke:none !important}#chart-905e34ff-fb00-4915-bfd0-e89bd5dcddc7 .series text.active{opacity:1}#chart-905e34ff-fb00-4915-bfd0-e89bd5dcddc7 .tooltip rect{fill-opacity:.95;stroke-width:.5}#chart-905e34ff-fb00-4915-bfd0-e89bd5dcddc7 .tooltip text{fill-opacity:1}#chart-905e34ff-fb00-4915-bfd0-e89bd5dcddc7 .showable{visibility:hidden}#chart-905e34ff-fb00-4915-bfd0-e89bd5dcddc7 .showable.shown{visibility:visible}#chart-905e34ff-fb00-4915-bfd0-e89bd5dcddc7 .gauge-background{fill:rgba(229,229,229,1);stroke:none}#chart-905e34ff-fb00-4915-bfd0-e89bd5dcddc7 .bg-lines{stroke:rgba(249,249,249,1);stroke-width:2px}</style><script type="text/javascript">window.pygal = window.pygal || {};window.pygal.config = window.pygal.config || {};window.pygal.config['905e34ff-fb00-4915-bfd0-e89bd5dcddc7'] = {"allow_interruptions": false, "box_mode": "extremes", "classes": ["pygal-chart"], "css": ["file://style.css", "file://graph.css"], "defs": [], "disable_xml_declaration": false, "dots_size": 2.5, "dynamic_print_values": false, "explicit_size": false, "fill": false, "force_uri_protocol": "https", "formatter": null, "half_pie": false, "height": 600, "include_x_axis": false, "inner_radius": 0, "interpolate": null, "interpolation_parameters": {}, "interpolation_precision": 250, "inverse_y_axis": false, "js": ["//kozea.github.io/pygal.js/2.0.x/pygal-tooltips.min.js"], "legend_at_bottom": true, "legend_at_bottom_columns": null, "legend_box_size": 12, "logarithmic": false, "margin": 20, "margin_bottom": null, "margin_left": null, "margin_right": null, "margin_top": null, "max_scale": 16, "min_scale": 4, "missing_value_fill_truncation": "x", "no_data_text": "No data", "no_prefix": false, "order_min": null, "pretty_print": false, "print_labels": false, "print_values": false, "print_values_position": "center", "print_zeroes": true, "range": null, "rounded_bars": null, "secondary_range": null, "show_dots": true, "show_legend": true, "show_minor_x_labels": false, "show_minor_y_labels": true, "show_only_major_dots": false, "show_x_guides": false, "show_x_labels": true, "show_y_guides": true, "show_y_labels": true, "spacing": 10, "stack_from_top": false, "strict": false, "stroke": true, "stroke_style": null, "style": {"background": "rgba(249, 249, 249, 1)", "ci_colors": [], "colors": ["red", "blue", "green", "#a3a3a3"], "font_family": "Consolas, \"Liberation Mono\", Menlo, Courier, monospace", "foreground": "rgba(0, 0, 0, .87)", "foreground_strong": "rgba(0, 0, 0, 1)", "foreground_subtle": "rgba(0, 0, 0, .54)", "guide_stroke_dasharray": "4,4", "label_font_family": "Consolas, \"Liberation Mono\", Menlo, Courier, monospace", "label_font_size": 10, "legend_font_family": "Consolas, \"Liberation Mono\", Menlo, Courier, monospace", "legend_font_size": 14, "major_guide_stroke_dasharray": "6,6", "major_label_font_family": "Consolas, \"Liberation Mono\", Menlo, Courier, monospace", "major_label_font_size": 10, "no_data_font_family": "Consolas, \"Liberation Mono\", Menlo, Courier, monospace", "no_data_font_size": 64, "opacity": ".7", "opacity_hover": ".8", "plot_background": "rgba(255, 255, 255, 1)", "stroke_opacity": ".8", "stroke_opacity_hover": ".9", "title_font_family": "Consolas, \"Liberation Mono\", Menlo, Courier, monospace", "title_font_size": 16, "tooltip_font_family": "Consolas, \"Liberation Mono\", Menlo, Courier, monospace", "tooltip_font_size": 14, "transition": "150ms", "value_background": "rgba(229, 229, 229, 1)", "value_colors": [], "value_font_family": "Consolas, \"Liberation Mono\", Menlo, Courier, monospace", "value_font_size": 16, "value_label_font_family": "Consolas, \"Liberation Mono\", Menlo, Courier, monospace", "value_label_font_size": 10}, "title": "AA Donald: Future and Past Averages in ODIs", "tooltip_border_radius": 10, "tooltip_fancy_mode": true, "truncate_label": null, "truncate_legend": null, "width": 800, "x_label_rotation": 45, "x_labels": ["1991", "0", "0", "1992", "0", "0", "0", "0", "0", "0", "0", "0", "0", "0", "0", "0", "0", "0", "0", "0", "0", "1993", "0", "0", "0", "0", "0", "0", "0", "0", "0", "0", "0", "0", "0", "0", "1994", "0", "0", "0", "0", "0", "0", "0", "0", "1995", "0", "0", "0", "0", "0", "1996", "0", "0", "0", "0", "0", "0", "0", "0", "0", "0", "0", "0", "0", "0", "0", "0", "0", "0", "0", "1997", "0", "0", "0", "0", "0", "0", "0", "0", "0", "0", "0", "0", "0", "0", "0", "0", "0", "0", "0", "0", "0", "1998", "0", "0", "0", "0", "0", "0", "0", "0", "0", "0", "0", "0", "1999", "0", "0", "0", "0", "0", "0", "0", "0", "0", "0", "0", "0", "0", "2000", "0", "0", "0", "0", "0", "0", "2001", "0", "0", "0", "0", "0", "0", "2002", "0", "0", "0", "0", "0", "0", "0", "0", "0", "0", "0", "0", "0", "0", "0", "0", "0", "0", "0", "0", "0", "0", "0", "0", "2003", "0", "0"], "x_labels_major": ["1991", "1992", "1993", "1994", "1995", "1996", "1997", "1998", "1999", "2000", "2001", "2002", "2003"], "x_labels_major_count": null, "x_labels_major_every": null, "x_title": null, "xrange": null, "y_label_rotation": 0, "y_labels": null, "y_labels_major": null, "y_labels_major_count": null, "y_labels_major_every": null, "y_title": null, "zero": 140.0, "legends": ["Future Average", "Past Average", "Career Average"]}</script><script type="text/javascript" xlink:href="https://kozea.github.io/pygal.js/2.0.x/pygal-tooltips.min.js"/></defs><title>AA Donald: Future and Past Averages in ODIs</title><g class="graph line-graph vertical"><rect class="background" height="600" width="800" x="0" y="0"/><g class="plot" transform="translate(48, 46)"><rect class="background" height="462.02943725152284" width="732.0" x="0" y="0"/><g class="axis y always_show"><g class="guides"><path class="axis major line" d="M0.000000 453.144256 h732.000000"/><text class="major" x="-5" y="456.6442557659166">0</text><title>0</title></g><g class="guides"><path class="guide line" d="M0.000000 419.741318 h732.000000"/><text class="" x="-5" y="423.2413178501038">10</text><title>10</title></g><g class="guides"><path class="guide line" d="M0.000000 386.338380 h732.000000"/><text class="" x="-5" y="389.83837993429097">20</text><title>20</title></g><g class="guides"><path class="guide line" d="M0.000000 352.935442 h732.000000"/><text class="" x="-5" y="356.43544201847817">30</text><title>30</title></g><g class="guides"><path class="guide line" d="M0.000000 319.532504 h732.000000"/><text class="" x="-5" y="323.03250410266537">40</text><title>40</title></g><g class="guides"><path class="major guide line" d="M0.000000 286.129566 h732.000000"/><text class="major" x="-5" y="289.62956618685257">50</text><title>50</title></g><g class="guides"><path class="guide line" d="M0.000000 252.726628 h732.000000"/><text class="" x="-5" y="256.2266282710398">60</text><title>60</title></g><g class="guides"><path class="guide line" d="M0.000000 219.323690 h732.000000"/><text class="" x="-5" y="222.82369035522694">70</text><title>70</title></g><g class="guides"><path class="guide line" d="M0.000000 185.920752 h732.000000"/><text class="" x="-5" y="189.42075243941412">80</text><title>80</title></g><g class="guides"><path class="guide line" d="M0.000000 152.517815 h732.000000"/><text class="" x="-5" y="156.01781452360132">90</text><title>90</title></g><g class="guides"><path class="major guide line" d="M0.000000 119.114877 h732.000000"/><text class="major" x="-5" y="122.61487660778846">100</text><title>100</title></g><g class="guides"><path class="guide line" d="M0.000000 85.711939 h732.000000"/><text class="" x="-5" y="89.21193869197566">110</text><title>110</title></g><g class="guides"><path class="guide line" d="M0.000000 52.309001 h732.000000"/><text class="" x="-5" y="55.80900077616286">120</text><title>120</title></g><g class="guides"><path class="guide line" d="M0.000000 18.906063 h732.000000"/><text class="" x="-5" y="22.406062860350005">130</text><title>130</title></g></g><g class="axis x"><g class="guides"><path class="major line" d="M14.076923 0.000000 v462.029437"/><text class="major" x="14.076923076923077" y="477.02943725152284" transform="rotate(45 14.076923 477.029437)">1991</text></g><g class="guides"><path class="major guide line" d="M27.192069 0.000000 v462.029437"/><text class="major" x="27.192068800764453" y="477.02943725152284" transform="rotate(45 27.192069 477.029437)">1992</text></g><g class="guides"><path class="major guide line" d="M105.882943 0.000000 v462.029437"/><text class="major" x="105.8829431438127" y="477.02943725152284" transform="rotate(45 105.882943 477.029437)">1993</text></g><g class="guides"><path class="major guide line" d="M171.458672 0.000000 v462.029437"/><text class="major" x="171.45867176301957" y="477.02943725152284" transform="rotate(45 171.458672 477.029437)">1994</text></g><g class="guides"><path class="major guide line" d="M210.804109 0.000000 v462.029437"/><text class="major" x="210.8041089345437" y="477.02943725152284" transform="rotate(45 210.804109 477.029437)">1995</text></g><g class="guides"><path class="major guide line" d="M237.034400 0.000000 v462.029437"/><text class="major" x="237.03440038222647" y="477.02943725152284" transform="rotate(45 237.034400 477.029437)">1996</text></g><g class="guides"><path class="major guide line" d="M324.468705 0.000000 v462.029437"/><text class="major" x="324.4687052078356" y="477.02943725152284" transform="rotate(45 324.468705 477.029437)">1997</text></g><g class="guides"><path class="major guide line" d="M420.646441 0.000000 v462.029437"/><text class="major" x="420.6464405160057" y="477.02943725152284" transform="rotate(45 420.646441 477.029437)">1998</text></g><g class="guides"><path class="major guide line" d="M477.478739 0.000000 v462.029437"/><text class="major" x="477.4787386526517" y="477.02943725152284" transform="rotate(45 477.478739 477.029437)">1999</text></g><g class="guides"><path class="major guide line" d="M538.682752 0.000000 v462.029437"/><text class="major" x="538.6827520305781" y="477.02943725152284" transform="rotate(45 538.682752 477.029437)">2000</text></g><g class="guides"><path class="major guide line" d="M569.284759 0.000000 v462.029437"/><text class="major" x="569.2847587195414" y="477.02943725152284" transform="rotate(45 569.284759 477.029437)">2001</text></g><g class="guides"><path class="major guide line" d="M599.886765 0.000000 v462.029437"/><text class="major" x="599.8867654085045" y="477.02943725152284" transform="rotate(45 599.886765 477.029437)">2002</text></g><g class="guides"><path class="major guide line" d="M709.179646 0.000000 v462.029437"/><text class="major" x="709.179646440516" y="477.02943725152284" transform="rotate(45 709.179646 477.029437)">2003</text></g></g><g class="series serie-0 color-0"><path class="line reactive nofill" d="M14.076923 380.359254 L18.448638 379.357166 22.820354 378.989734 27.192069 379.390569 31.563784 378.989734 35.935499 379.190151 40.307215 378.889525 44.678930 378.755913 49.050645 379.156748 53.422360 379.190151 57.794075 379.758001 62.165791 379.624389 66.537506 379.958419 70.909221 379.991822 75.280936 380.659880 79.652652 380.526269 84.024367 380.860298 88.396082 381.194327 92.767797 380.659880 97.139513 380.860298 101.511228 380.826895 105.882943 381.194327 110.254658 381.327939 114.626374 380.793492 118.998089 381.361342 123.369804 381.327939 127.741519 381.595163 132.113235 381.929192 136.484950 381.962595 140.856665 381.595163 145.228380 381.494954 149.600096 381.394745 153.971811 381.561760 158.343526 382.129610 162.715241 382.797669 167.086957 383.265310 171.458672 383.699548 175.830387 383.632742 180.202102 382.897877 184.573817 383.198504 188.945533 383.632742 193.317248 382.964683 197.688963 383.265310 202.060678 383.966771 206.432394 384.601427 210.804109 384.668233 215.175824 384.100383 219.547539 384.601427 223.919255 384.634830 228.290970 385.469904 232.662685 385.570112 237.034400 385.603515 241.406116 385.202680 245.777831 385.970948 250.149546 386.171365 254.521261 386.371783 258.892977 385.703724 263.264692 385.002262 267.636407 384.501218 272.008122 385.403098 276.379838 385.035665 280.751553 384.434412 285.123268 384.334204 289.494983 382.363430 293.866699 381.762177 298.238414 381.327939 302.610129 381.160925 306.981844 381.294536 311.353559 380.125433 315.725275 379.390569 320.096990 379.925016 324.468705 380.225642 328.840420 380.693283 333.212136 379.557584 337.583851 380.559672 341.955566 379.624389 346.327281 378.989734 350.698997 379.357166 355.070712 378.856122 359.442427 378.388481 363.814142 378.755913 368.185858 378.755913 372.557573 378.822719 376.929288 379.190151 381.301003 379.223554 385.672719 380.760089 390.044434 380.593075 394.416149 381.194327 398.787864 381.595163 403.159580 381.695372 407.531295 381.461551 411.903010 380.726686 416.274725 381.461551 420.646441 382.363430 425.018156 381.127522 429.389871 380.292448 433.761586 378.455287 438.133301 377.453198 442.505017 377.987645 446.876732 377.987645 451.248447 377.653616 455.620162 378.522092 459.991878 378.555495 464.363593 377.319587 468.735308 376.952154 473.107023 376.751737 477.478739 376.584722 481.850454 377.787228 486.222169 376.818543 490.593884 375.449022 494.965600 375.348813 499.337315 375.148396 503.709030 375.582634 508.080745 375.649440 512.452461 372.309146 516.824176 372.041923 521.195891 370.538790 525.567606 371.674490 529.939322 373.678666 534.311037 375.749649 538.682752 372.676578 543.054467 371.474073 547.426183 370.672402 551.797898 370.739208 556.169613 369.469896 560.541328 372.108728 564.913043 371.340461 569.284759 372.676578 573.656474 373.778875 578.028189 375.649440 582.399904 375.248605 586.771620 377.753825 591.143335 379.390569 595.515050 375.983469 599.886765 373.912487 604.258481 376.183887 608.630196 373.845681 613.001911 372.977205 617.373626 371.841505 621.745342 375.248605 626.117057 379.190151 630.488772 375.515828 634.860487 373.511652 639.232203 373.411443 643.603918 366.697452 647.975633 364.359247 652.347348 362.956323 656.719064 360.785132 661.090779 354.605589 665.462494 356.275736 669.834209 363.357159 674.205925 358.513733 678.577640 350.864460 682.949355 354.872812 687.321070 328.818521 691.692785 323.841483 696.064501 313.419766 700.436216 293.645227 704.807931 172.559577 709.179646 8.885181 713.551362 189.261046 717.923077 362.956323"/></g><g class="series serie-1 color-1"><path class="line reactive nofill" d="M14.076923 453.144256 L18.448638 433.770552 22.820354 426.021070 27.192069 408.618140 31.563784 410.288286 35.935499 403.808116 40.307215 404.309161 44.678930 404.609787 49.050645 398.530452 53.422360 396.927111 57.794075 388.943809 62.165791 389.678674 66.537506 384.968859 70.909221 384.100383 75.280936 377.286184 79.652652 379.023137 84.024367 375.682843 88.396082 372.977205 92.767797 377.987645 97.139513 376.517916 101.511228 377.052363 105.882943 374.380128 110.254658 373.578458 114.626374 377.586810 118.998089 374.146308 123.369804 374.480337 127.741519 373.311234 132.113235 371.307058 136.484950 371.440670 140.856665 373.845681 145.228380 374.747560 149.600096 375.382216 153.971811 374.680755 158.343526 371.908311 162.715241 368.768435 167.086957 366.497035 171.458672 364.893694 175.830387 365.895782 180.202102 369.904134 184.573817 368.634823 188.945533 367.231899 193.317248 370.839417 197.688963 369.970940 202.060678 367.365511 206.432394 365.461544 210.804109 365.762170 215.175824 368.501211 219.547539 366.864467 223.919255 367.298705 228.290970 364.793485 232.662685 364.726679 237.034400 364.993903 241.406116 366.897870 245.777831 364.860291 250.149546 364.860291 254.521261 365.160917 258.892977 367.833152 263.264692 370.037746 267.636407 371.607684 272.008122 369.670314 276.379838 370.772611 280.751553 372.409355 285.123268 372.876996 289.494983 376.918751 293.866699 378.087854 298.238414 378.856122 302.610129 379.156748 306.981844 379.023137 311.353559 380.693283 315.725275 381.661969 320.096990 380.960507 324.468705 380.559672 328.840420 379.958419 333.212136 381.327939 337.583851 380.125433 341.955566 381.227730 346.327281 381.828983 350.698997 381.428148 355.070712 381.895789 359.442427 382.296624 363.814142 381.929192 368.185858 381.895789 372.557573 381.828983 376.929288 381.461551 381.301003 381.394745 385.672719 380.025225 390.044434 380.192239 394.416149 379.691195 398.787864 379.357166 403.159580 379.323763 407.531295 379.524181 411.903010 380.125433 416.274725 379.557584 420.646441 378.856122 425.018156 379.824807 429.389871 380.426060 433.761586 381.595163 438.133301 382.163013 442.505017 381.795580 446.876732 381.795580 451.248447 381.995998 455.620162 381.461551 459.991878 381.428148 464.363593 382.029401 468.735308 382.163013 473.107023 382.229819 477.478739 382.229819 481.850454 381.628566 486.222169 382.029401 490.593884 382.563848 494.965600 382.563848 499.337315 382.630654 503.709030 382.396833 508.080745 382.330027 512.452461 383.499130 516.824176 383.499130 521.195891 383.833160 525.567606 383.365518 529.939322 382.697460 534.311037 381.962595 538.682752 382.831071 543.054467 383.098295 547.426183 383.231907 551.797898 383.098295 556.169613 383.332116 560.541328 382.597251 564.913043 382.764266 569.284759 382.363430 573.656474 382.029401 578.028189 381.561760 582.399904 381.595163 586.771620 380.993910 591.143335 380.593075 595.515050 381.327939 599.886765 381.695372 604.258481 381.194327 608.630196 381.561760 613.001911 381.628566 617.373626 381.762177 621.745342 381.194327 626.117057 380.559672 630.488772 381.060716 634.860487 381.294536 639.232203 381.227730 643.603918 381.828983 647.975633 381.929192 652.347348 381.895789 656.719064 381.929192 661.090779 382.196416 665.462494 381.962595 669.834209 381.494954 674.205925 381.661969 678.577640 381.862386 682.949355 381.561760 687.321070 382.129610 691.692785 381.862386 696.064501 381.895789 700.436216 381.661969 704.807931 381.895789 709.179646 381.728775 713.551362 381.060716 717.923077 380.693283"/></g><g class="series serie-2 color-2"><path class="line reactive nofill" d="M14.076923 380.359254 L18.448638 380.359254 22.820354 380.359254 27.192069 380.359254 31.563784 380.359254 35.935499 380.359254 40.307215 380.359254 44.678930 380.359254 49.050645 380.359254 53.422360 380.359254 57.794075 380.359254 62.165791 380.359254 66.537506 380.359254 70.909221 380.359254 75.280936 380.359254 79.652652 380.359254 84.024367 380.359254 88.396082 380.359254 92.767797 380.359254 97.139513 380.359254 101.511228 380.359254 105.882943 380.359254 110.254658 380.359254 114.626374 380.359254 118.998089 380.359254 123.369804 380.359254 127.741519 380.359254 132.113235 380.359254 136.484950 380.359254 140.856665 380.359254 145.228380 380.359254 149.600096 380.359254 153.971811 380.359254 158.343526 380.359254 162.715241 380.359254 167.086957 380.359254 171.458672 380.359254 175.830387 380.359254 180.202102 380.359254 184.573817 380.359254 188.945533 380.359254 193.317248 380.359254 197.688963 380.359254 202.060678 380.359254 206.432394 380.359254 210.804109 380.359254 215.175824 380.359254 219.547539 380.359254 223.919255 380.359254 228.290970 380.359254 232.662685 380.359254 237.034400 380.359254 241.406116 380.359254 245.777831 380.359254 250.149546 380.359254 254.521261 380.359254 258.892977 380.359254 263.264692 380.359254 267.636407 380.359254 272.008122 380.359254 276.379838 380.359254 280.751553 380.359254 285.123268 380.359254 289.494983 380.359254 293.866699 380.359254 298.238414 380.359254 302.610129 380.359254 306.981844 380.359254 311.353559 380.359254 315.725275 380.359254 320.096990 380.359254 324.468705 380.359254 328.840420 380.359254 333.212136 380.359254 337.583851 380.359254 341.955566 380.359254 346.327281 380.359254 350.698997 380.359254 355.070712 380.359254 359.442427 380.359254 363.814142 380.359254 368.185858 380.359254 372.557573 380.359254 376.929288 380.359254 381.301003 380.359254 385.672719 380.359254 390.044434 380.359254 394.416149 380.359254 398.787864 380.359254 403.159580 380.359254 407.531295 380.359254 411.903010 380.359254 416.274725 380.359254 420.646441 380.359254 425.018156 380.359254 429.389871 380.359254 433.761586 380.359254 438.133301 380.359254 442.505017 380.359254 446.876732 380.359254 451.248447 380.359254 455.620162 380.359254 459.991878 380.359254 464.363593 380.359254 468.735308 380.359254 473.107023 380.359254 477.478739 380.359254 481.850454 380.359254 486.222169 380.359254 490.593884 380.359254 494.965600 380.359254 499.337315 380.359254 503.709030 380.359254 508.080745 380.359254 512.452461 380.359254 516.824176 380.359254 521.195891 380.359254 525.567606 380.359254 529.939322 380.359254 534.311037 380.359254 538.682752 380.359254 543.054467 380.359254 547.426183 380.359254 551.797898 380.359254 556.169613 380.359254 560.541328 380.359254 564.913043 380.359254 569.284759 380.359254 573.656474 380.359254 578.028189 380.359254 582.399904 380.359254 586.771620 380.359254 591.143335 380.359254 595.515050 380.359254 599.886765 380.359254 604.258481 380.359254 608.630196 380.359254 613.001911 380.359254 617.373626 380.359254 621.745342 380.359254 626.117057 380.359254 630.488772 380.359254 634.860487 380.359254 639.232203 380.359254 643.603918 380.359254 647.975633 380.359254 652.347348 380.359254 656.719064 380.359254 661.090779 380.359254 665.462494 380.359254 669.834209 380.359254 674.205925 380.359254 678.577640 380.359254 682.949355 380.359254 687.321070 380.359254 691.692785 380.359254 696.064501 380.359254 700.436216 380.359254 704.807931 380.359254 709.179646 380.359254 713.551362 380.359254 717.923077 380.359254"/></g></g><g class="titles"><text class="title plot_title" x="400.0" y="26">AA Donald: Future and Past Averages in ODIs</text></g><g class="plot overlay" transform="translate(48, 46)"><g class="series serie-0 color-0"><g class="dots"><desc class="label">272 wickets in 162 innings (1426.5 overs)</desc><circle class="dot reactive tooltip-trigger" cx="14.076923076923077" cy="380.35925404736054" r="2.5"/><desc class="value">21.79</desc><desc class="x top">14.076923076923077</desc><desc class="y top">380.35925404736054</desc><desc class="x_label">1991</desc></g><g class="dots"><desc class="label">263 wickets in 159 innings (1399.1 overs)</desc><circle class="dot reactive tooltip-trigger" cx="27.192068800764453" cy="379.39056884780194" r="2.5"/><desc class="value">22.08</desc><desc class="x top">27.192068800764453</desc><desc class="y top">379.39056884780194</desc><desc class="x_label">1992</desc></g><g class="dots"><desc class="label">239 wickets in 141 innings (1234.1 overs)</desc><circle class="dot reactive tooltip-trigger" cx="105.8829431438127" cy="381.19432749525583" r="2.5"/><desc class="value">21.54</desc><desc class="x top">105.8829431438127</desc><desc class="y top">381.19432749525583</desc><desc class="x_label">1993</desc></g><g class="dots"><desc class="label">224 wickets in 126 innings (1101.1 overs)</desc><circle class="dot reactive tooltip-trigger" cx="171.45867176301957" cy="383.6995478389418" r="2.5"/><desc class="value">20.79</desc><desc class="x top">171.45867176301957</desc><desc class="y top">383.6995478389418</desc><desc class="x_label">1994</desc></g><g class="dots"><desc class="label">210 wickets in 117 innings (1017.3 overs)</desc><circle class="dot reactive tooltip-trigger" cx="210.8041089345437" cy="384.6682330385004" r="2.5"/><desc class="value">20.5</desc><desc class="x top">210.8041089345437</desc><desc class="y top">384.6682330385004</desc><desc class="x_label">1995</desc></g><g class="dots"><desc class="label">203 wickets in 111 innings (965.3 overs)</desc><circle class="dot reactive tooltip-trigger" cx="237.03440038222647" cy="385.6035153001431" r="2.5"/><desc class="value">20.22</desc><desc class="x top">237.03440038222647</desc><desc class="y top">385.6035153001431</desc><desc class="x_label">1996</desc></g><g class="dots"><desc class="label">152 wickets in 91 innings (781.5 overs)</desc><circle class="dot reactive tooltip-trigger" cx="324.4687052078356" cy="380.22564229569724" r="2.5"/><desc class="value">21.83</desc><desc class="x top">324.4687052078356</desc><desc class="y top">380.22564229569724</desc><desc class="x_label">1997</desc></g><g class="dots"><desc class="label">117 wickets in 69 innings (580.5 overs)</desc><circle class="dot reactive tooltip-trigger" cx="420.6464405160057" cy="382.3634303223093" r="2.5"/><desc class="value">21.19</desc><desc class="x left top">420.6464405160057</desc><desc class="y left top">382.3634303223093</desc><desc class="x_label">1998</desc></g><g class="dots"><desc class="label">90 wickets in 56 innings (475.5 overs)</desc><circle class="dot reactive tooltip-trigger" cx="477.4787386526517" cy="376.58472206287365" r="2.5"/><desc class="value">22.92</desc><desc class="x left top">477.4787386526517</desc><desc class="y left top">376.58472206287365</desc><desc class="x_label">1999</desc></g><g class="dots"><desc class="label">66 wickets in 42 innings (353.5 overs)</desc><circle class="dot reactive tooltip-trigger" cx="538.6827520305781" cy="372.67657832672353" r="2.5"/><desc class="value">24.09</desc><desc class="x left top">538.6827520305781</desc><desc class="y left top">372.67657832672353</desc><desc class="x_label">2000</desc></g><g class="dots"><desc class="label">56 wickets in 35 innings (297.5 overs)</desc><circle class="dot reactive tooltip-trigger" cx="569.2847587195414" cy="372.67657832672353" r="2.5"/><desc class="value">24.09</desc><desc class="x left top">569.2847587195414</desc><desc class="y left top">372.67657832672353</desc><desc class="x_label">2001</desc></g><g class="dots"><desc class="label">46 wickets in 28 innings (239.2 overs)</desc><circle class="dot reactive tooltip-trigger" cx="599.8867654085045" cy="373.91248702960866" r="2.5"/><desc class="value">23.72</desc><desc class="x left top">599.8867654085045</desc><desc class="y left top">373.91248702960866</desc><desc class="x_label">2002</desc></g><g class="dots"><desc class="label">1 wickets in 3 innings (24.5 overs)</desc><circle class="dot reactive tooltip-trigger" cx="709.179646440516" cy="8.88518148560621" r="2.5"/><desc class="value">133</desc><desc class="x left">709.179646440516</desc><desc class="y left">8.88518148560621</desc><desc class="x_label">2003</desc></g></g><g class="series serie-1 color-1"><g class="dots"><desc class="label">0 wickets over 0 innings</desc><circle class="dot reactive tooltip-trigger" cx="14.076923076923077" cy="453.1442557659166" r="2.5"/><desc class="value">0</desc><desc class="x top">14.076923076923077</desc><desc class="y top">453.1442557659166</desc><desc class="x_label">1991</desc></g><g class="dots"><desc class="label">9 wickets in 3 innings (27.4 overs)</desc><circle class="dot reactive tooltip-trigger" cx="27.192068800764453" cy="408.61813952413814" r="2.5"/><desc class="value">13.33</desc><desc class="x top">27.192068800764453</desc><desc class="y top">408.61813952413814</desc><desc class="x_label">1992</desc></g><g class="dots"><desc class="label">33 wickets in 21 innings (192.4 overs)</desc><circle class="dot reactive tooltip-trigger" cx="105.8829431438127" cy="374.38012816043" r="2.5"/><desc class="value">23.58</desc><desc class="x top">105.8829431438127</desc><desc class="y top">374.38012816043</desc><desc class="x_label">1993</desc></g><g class="dots"><desc class="label">48 wickets in 36 innings (325.4 overs)</desc><circle class="dot reactive tooltip-trigger" cx="171.45867176301957" cy="364.89369379233915" r="2.5"/><desc class="value">26.42</desc><desc class="x top">171.45867176301957</desc><desc class="y top">364.89369379233915</desc><desc class="x_label">1994</desc></g><g class="dots"><desc class="label">62 wickets in 45 innings (409.2 overs)</desc><circle class="dot reactive tooltip-trigger" cx="210.8041089345437" cy="365.7621701781503" r="2.5"/><desc class="value">26.16</desc><desc class="x top">210.8041089345437</desc><desc class="y top">365.7621701781503</desc><desc class="x_label">1995</desc></g><g class="dots"><desc class="label">69 wickets in 51 innings (461.2 overs)</desc><circle class="dot reactive tooltip-trigger" cx="237.03440038222647" cy="364.99390260608664" r="2.5"/><desc class="value">26.39</desc><desc class="x top">237.03440038222647</desc><desc class="y top">364.99390260608664</desc><desc class="x_label">1996</desc></g><g class="dots"><desc class="label">120 wickets in 71 innings (645.0 overs)</desc><circle class="dot reactive tooltip-trigger" cx="324.4687052078356" cy="380.5596716748554" r="2.5"/><desc class="value">21.73</desc><desc class="x top">324.4687052078356</desc><desc class="y top">380.5596716748554</desc><desc class="x_label">1997</desc></g><g class="dots"><desc class="label">155 wickets in 93 innings (846.0 overs)</desc><circle class="dot reactive tooltip-trigger" cx="420.6464405160057" cy="378.85612184114893" r="2.5"/><desc class="value">22.24</desc><desc class="x left top">420.6464405160057</desc><desc class="y left top">378.85612184114893</desc><desc class="x_label">1998</desc></g><g class="dots"><desc class="label">182 wickets in 106 innings (951.0 overs)</desc><circle class="dot reactive tooltip-trigger" cx="477.4787386526517" cy="382.229818570646" r="2.5"/><desc class="value">21.23</desc><desc class="x left top">477.4787386526517</desc><desc class="y left top">382.229818570646</desc><desc class="x_label">1999</desc></g><g class="dots"><desc class="label">206 wickets in 120 innings (1073.0 overs)</desc><circle class="dot reactive tooltip-trigger" cx="538.6827520305781" cy="382.8310714531307" r="2.5"/><desc class="value">21.05</desc><desc class="x left top">538.6827520305781</desc><desc class="y left top">382.8310714531307</desc><desc class="x_label">2000</desc></g><g class="dots"><desc class="label">216 wickets in 127 innings (1129.0 overs)</desc><circle class="dot reactive tooltip-trigger" cx="569.2847587195414" cy="382.3634303223093" r="2.5"/><desc class="value">21.19</desc><desc class="x left top">569.2847587195414</desc><desc class="y left top">382.3634303223093</desc><desc class="x_label">2001</desc></g><g class="dots"><desc class="label">226 wickets in 134 innings (1187.3 overs)</desc><circle class="dot reactive tooltip-trigger" cx="599.8867654085045" cy="381.69537156399304" r="2.5"/><desc class="value">21.39</desc><desc class="x left top">599.8867654085045</desc><desc class="y left top">381.69537156399304</desc><desc class="x_label">2002</desc></g><g class="dots"><desc class="label">271 wickets in 159 innings (1402.0 overs)</desc><circle class="dot reactive tooltip-trigger" cx="709.179646440516" cy="381.72877450190884" r="2.5"/><desc class="value">21.38</desc><desc class="x left top">709.179646440516</desc><desc class="y left top">381.72877450190884</desc><desc class="x_label">2003</desc></g></g><g class="series serie-2 color-2"/></g><g class="plot text-overlay" transform="translate(48, 46)"><g class="series serie-0 color-0"/><g class="series serie-1 color-1"/><g class="series serie-2 color-2"/></g><g class="plot tooltip-overlay" transform="translate(48, 46)"><g class="tooltip" style="opacity: 0" transform="translate(0 0)"><rect class="tooltip-box" height="0" rx="10" ry="10" width="0"/><g class="text"/></g></g><g class="legends" transform="translate(58, 545)"><g class="legend reactive activate-serie" id="activate-serie-0"><rect class="color-0 reactive" height="12" width="12" x="0.0" y="1.0"/><text x="17.0" y="11.2">Future Average</text></g><g class="legend reactive activate-serie" id="activate-serie-1"><rect class="color-1 reactive" height="12" width="12" x="366.0" y="1.0"/><text x="383.0" y="11.2">Past Average</text></g><g class="legend reactive activate-serie" id="activate-serie-2"><rect class="color-2 reactive" height="12" width="12" x="0.0" y="22.0"/><text x="17.0" y="32.2">Career Average</text></g></g></g></svg>