<?xml version='1.0' encoding='utf-8'?>
<svg xmlns:xlink="http://www.w3.org/1999/xlink" xmlns="http://www.w3.org/2000/svg" id="chart-8434edc0-c866-48de-aa0a-75da4d746f2a" class="pygal-chart" viewBox="0 0 800 600"><!--Generated with pygal 2.4.0 (lxml) ©Kozea 2012-2016 on 2019-08-02--><!--http://pygal.org--><!--http://github.com/Kozea/pygal--><defs><style type="text/css">#chart-8434edc0-c866-48de-aa0a-75da4d746f2a{-webkit-user-select:none;-webkit-font-smoothing:antialiased;font-family:Consolas,"Liberation Mono",Menlo,Courier,monospace}#chart-8434edc0-c866-48de-aa0a-75da4d746f2a .title{font-family:Consolas,"Liberation Mono",Menlo,Courier,monospace;font-size:16px}#chart-8434edc0-c866-48de-aa0a-75da4d746f2a .legends .legend text{font-family:Consolas,"Liberation Mono",Menlo,Courier,monospace;font-size:14px}#chart-8434edc0-c866-48de-aa0a-75da4d746f2a .axis text{font-family:Consolas,"Liberation Mono",Menlo,Courier,monospace;font-size:10px}#chart-8434edc0-c866-48de-aa0a-75da4d746f2a .axis text.major{font-family:Consolas,"Liberation Mono",Menlo,Courier,monospace;font-size:10px}#chart-8434edc0-c866-48de-aa0a-75da4d746f2a .text-overlay text.value{font-family:Consolas,"Liberation Mono",Menlo,Courier,monospace;font-size:16px}#chart-8434edc0-c866-48de-aa0a-75da4d746f2a .text-overlay text.label{font-family:Consolas,"Liberation Mono",Menlo,Courier,monospace;font-size:10px}#chart-8434edc0-c866-48de-aa0a-75da4d746f2a .tooltip{font-family:Consolas,"Liberation Mono",Menlo,Courier,monospace;font-size:14px}#chart-8434edc0-c866-48de-aa0a-75da4d746f2a text.no_data{font-family:Consolas,"Liberation Mono",Menlo,Courier,monospace;font-size:64px}
#chart-8434edc0-c866-48de-aa0a-75da4d746f2a{background-color:rgba(249,249,249,1)}#chart-8434edc0-c866-48de-aa0a-75da4d746f2a path,#chart-8434edc0-c866-48de-aa0a-75da4d746f2a line,#chart-8434edc0-c866-48de-aa0a-75da4d746f2a rect,#chart-8434edc0-c866-48de-aa0a-75da4d746f2a circle{-webkit-transition:150ms;-moz-transition:150ms;transition:150ms}#chart-8434edc0-c866-48de-aa0a-75da4d746f2a .graph &gt; .background{fill:rgba(249,249,249,1)}#chart-8434edc0-c866-48de-aa0a-75da4d746f2a .plot &gt; .background{fill:rgba(255,255,255,1)}#chart-8434edc0-c866-48de-aa0a-75da4d746f2a .graph{fill:rgba(0,0,0,.87)}#chart-8434edc0-c866-48de-aa0a-75da4d746f2a text.no_data{fill:rgba(0,0,0,1)}#chart-8434edc0-c866-48de-aa0a-75da4d746f2a .title{fill:rgba(0,0,0,1)}#chart-8434edc0-c866-48de-aa0a-75da4d746f2a .legends .legend text{fill:rgba(0,0,0,.87)}#chart-8434edc0-c866-48de-aa0a-75da4d746f2a .legends .legend:hover text{fill:rgba(0,0,0,1)}#chart-8434edc0-c866-48de-aa0a-75da4d746f2a .axis .line{stroke:rgba(0,0,0,1)}#chart-8434edc0-c866-48de-aa0a-75da4d746f2a .axis .guide.line{stroke:rgba(0,0,0,.54)}#chart-8434edc0-c866-48de-aa0a-75da4d746f2a .axis .major.line{stroke:rgba(0,0,0,.87)}#chart-8434edc0-c866-48de-aa0a-75da4d746f2a .axis text.major{fill:rgba(0,0,0,1)}#chart-8434edc0-c866-48de-aa0a-75da4d746f2a .axis.y .guides:hover .guide.line,#chart-8434edc0-c866-48de-aa0a-75da4d746f2a .line-graph .axis.x .guides:hover .guide.line,#chart-8434edc0-c866-48de-aa0a-75da4d746f2a .stackedline-graph .axis.x .guides:hover .guide.line,#chart-8434edc0-c866-48de-aa0a-75da4d746f2a .xy-graph .axis.x .guides:hover .guide.line{stroke:rgba(0,0,0,1)}#chart-8434edc0-c866-48de-aa0a-75da4d746f2a .axis .guides:hover text{fill:rgba(0,0,0,1)}#chart-8434edc0-c866-48de-aa0a-75da4d746f2a .reactive{fill-opacity:.7;stroke-opacity:.8}#chart-8434edc0-c866-48de-aa0a-75da4d746f2a .ci{stroke:rgba(0,0,0,.87)}#chart-8434edc0-c866-48de-aa0a-75da4d746f2a .reactive.active,#chart-8434edc0-c866-48de-aa0a-75da4d746f2a .active .reactive{fill-opacity:.8;stroke-opacity:.9;stroke-width:4}#chart-8434edc0-c866-48de-aa0a-75da4d746f2a .ci .reactive.active{stroke-width:1.5}#chart-8434edc0-c866-48de-aa0a-75da4d746f2a .series text{fill:rgba(0,0,0,1)}#chart-8434edc0-c866-48de-aa0a-75da4d746f2a .tooltip rect{fill:rgba(255,255,255,1);stroke:rgba(0,0,0,1);-webkit-transition:opacity 150ms;-moz-transition:opacity 150ms;transition:opacity 150ms}#chart-8434edc0-c866-48de-aa0a-75da4d746f2a .tooltip .label{fill:rgba(0,0,0,.87)}#chart-8434edc0-c866-48de-aa0a-75da4d746f2a .tooltip .label{fill:rgba(0,0,0,.87)}#chart-8434edc0-c866-48de-aa0a-75da4d746f2a .tooltip .legend{font-size:.8em;fill:rgba(0,0,0,.54)}#chart-8434edc0-c866-48de-aa0a-75da4d746f2a .tooltip .x_label{font-size:.6em;fill:rgba(0,0,0,1)}#chart-8434edc0-c866-48de-aa0a-75da4d746f2a .tooltip .xlink{font-size:.5em;text-decoration:underline}#chart-8434edc0-c866-48de-aa0a-75da4d746f2a .tooltip .value{font-size:1.5em}#chart-8434edc0-c866-48de-aa0a-75da4d746f2a .bound{font-size:.5em}#chart-8434edc0-c866-48de-aa0a-75da4d746f2a .max-value{font-size:.75em;fill:rgba(0,0,0,.54)}#chart-8434edc0-c866-48de-aa0a-75da4d746f2a .map-element{fill:rgba(255,255,255,1);stroke:rgba(0,0,0,.54) !important}#chart-8434edc0-c866-48de-aa0a-75da4d746f2a .map-element .reactive{fill-opacity:inherit;stroke-opacity:inherit}#chart-8434edc0-c866-48de-aa0a-75da4d746f2a .color-0,#chart-8434edc0-c866-48de-aa0a-75da4d746f2a .color-0 a:visited{stroke:#F44336;fill:#F44336}#chart-8434edc0-c866-48de-aa0a-75da4d746f2a .color-1,#chart-8434edc0-c866-48de-aa0a-75da4d746f2a .color-1 a:visited{stroke:#3F51B5;fill:#3F51B5}#chart-8434edc0-c866-48de-aa0a-75da4d746f2a .color-2,#chart-8434edc0-c866-48de-aa0a-75da4d746f2a .color-2 a:visited{stroke:#009688;fill:#009688}#chart-8434edc0-c866-48de-aa0a-75da4d746f2a .text-overlay .color-0 text{fill:black}#chart-8434edc0-c866-48de-aa0a-75da4d746f2a .text-overlay .color-1 text{fill:black}#chart-8434edc0-c866-48de-aa0a-75da4d746f2a .text-overlay .color-2 text{fill:black}
#chart-8434edc0-c866-48de-aa0a-75da4d746f2a text.no_data{text-anchor:middle}#chart-8434edc0-c866-48de-aa0a-75da4d746f2a .guide.line{fill:none}#chart-8434edc0-c866-48de-aa0a-75da4d746f2a .centered{text-anchor:middle}#chart-8434edc0-c866-48de-aa0a-75da4d746f2a .title{text-anchor:middle}#chart-8434edc0-c866-48de-aa0a-75da4d746f2a .legends .legend text{fill-opacity:1}#chart-8434edc0-c866-48de-aa0a-75da4d746f2a .axis.x text{text-anchor:middle}#chart-8434edc0-c866-48de-aa0a-75da4d746f2a .axis.x:not(.web) text[transform]{text-anchor:start}#chart-8434edc0-c866-48de-aa0a-75da4d746f2a .axis.x:not(.web) text[transform].backwards{text-anchor:end}#chart-8434edc0-c866-48de-aa0a-75da4d746f2a .axis.y text{text-anchor:end}#chart-8434edc0-c866-48de-aa0a-75da4d746f2a .axis.y text[transform].backwards{text-anchor:start}#chart-8434edc0-c866-48de-aa0a-75da4d746f2a .axis.y2 text{text-anchor:start}#chart-8434edc0-c866-48de-aa0a-75da4d746f2a .axis.y2 text[transform].backwards{text-anchor:end}#chart-8434edc0-c866-48de-aa0a-75da4d746f2a .axis .guide.line{stroke-dasharray:4,4}#chart-8434edc0-c866-48de-aa0a-75da4d746f2a .axis .major.guide.line{stroke-dasharray:6,6}#chart-8434edc0-c866-48de-aa0a-75da4d746f2a .horizontal .axis.y .guide.line,#chart-8434edc0-c866-48de-aa0a-75da4d746f2a .horizontal .axis.y2 .guide.line,#chart-8434edc0-c866-48de-aa0a-75da4d746f2a .vertical .axis.x .guide.line{opacity:0}#chart-8434edc0-c866-48de-aa0a-75da4d746f2a .horizontal .axis.always_show .guide.line,#chart-8434edc0-c866-48de-aa0a-75da4d746f2a .vertical .axis.always_show .guide.line{opacity:1 !important}#chart-8434edc0-c866-48de-aa0a-75da4d746f2a .axis.y .guides:hover .guide.line,#chart-8434edc0-c866-48de-aa0a-75da4d746f2a .axis.y2 .guides:hover .guide.line,#chart-8434edc0-c866-48de-aa0a-75da4d746f2a .axis.x .guides:hover .guide.line{opacity:1}#chart-8434edc0-c866-48de-aa0a-75da4d746f2a .axis .guides:hover text{opacity:1}#chart-8434edc0-c866-48de-aa0a-75da4d746f2a .nofill{fill:none}#chart-8434edc0-c866-48de-aa0a-75da4d746f2a .subtle-fill{fill-opacity:.2}#chart-8434edc0-c866-48de-aa0a-75da4d746f2a .dot{stroke-width:1px;fill-opacity:1}#chart-8434edc0-c866-48de-aa0a-75da4d746f2a .dot.active{stroke-width:5px}#chart-8434edc0-c866-48de-aa0a-75da4d746f2a .dot.negative{fill:transparent}#chart-8434edc0-c866-48de-aa0a-75da4d746f2a text,#chart-8434edc0-c866-48de-aa0a-75da4d746f2a tspan{stroke:none !important}#chart-8434edc0-c866-48de-aa0a-75da4d746f2a .series text.active{opacity:1}#chart-8434edc0-c866-48de-aa0a-75da4d746f2a .tooltip rect{fill-opacity:.95;stroke-width:.5}#chart-8434edc0-c866-48de-aa0a-75da4d746f2a .tooltip text{fill-opacity:1}#chart-8434edc0-c866-48de-aa0a-75da4d746f2a .showable{visibility:hidden}#chart-8434edc0-c866-48de-aa0a-75da4d746f2a .showable.shown{visibility:visible}#chart-8434edc0-c866-48de-aa0a-75da4d746f2a .gauge-background{fill:rgba(229,229,229,1);stroke:none}#chart-8434edc0-c866-48de-aa0a-75da4d746f2a .bg-lines{stroke:rgba(249,249,249,1);stroke-width:2px}</style><script type="text/javascript">window.pygal = window.pygal || {};window.pygal.config = window.pygal.config || {};window.pygal.config['8434edc0-c866-48de-aa0a-75da4d746f2a'] = {"allow_interruptions": false, "box_mode": "extremes", "classes": ["pygal-chart"], "css": ["file://style.css", "file://graph.css"], "defs": [], "disable_xml_declaration": false, "dots_size": 2.5, "dynamic_print_values": false, "explicit_size": false, "fill": false, "force_uri_protocol": "https", "formatter": null, "half_pie": false, "height": 600, "include_x_axis": false, "inner_radius": 0, "interpolate": null, "interpolation_parameters": {}, "interpolation_precision": 250, "inverse_y_axis": false, "js": ["//kozea.github.io/pygal.js/2.0.x/pygal-tooltips.min.js"], "legend_at_bottom": true, "legend_at_bottom_columns": null, "legend_box_size": 12, "logarithmic": false, "margin": 20, "margin_bottom": null, "margin_left": null, "margin_right": null, "margin_top": null, "max_scale": 16, "min_scale": 4, "missing_value_fill_truncation": "x", "no_data_text": "No data", "no_prefix": false, "order_min": null, "pretty_print": false, "print_labels": false, "print_values": false, "print_values_position": "center", "print_zeroes": true, "range": null, "rounded_bars": null, "secondary_range": null, "show_dots": true, "show_legend": true, "show_minor_x_labels": false, "show_minor_y_labels": true, "show_only_major_dots": false, "show_x_guides": false, "show_x_labels": true, "show_y_guides": true, "show_y_labels": true, "spacing": 10, "stack_from_top": false, "strict": false, "stroke": true, "stroke_style": null, "style": {"background": "rgba(249, 249, 249, 1)", "ci_colors": [], "colors": ["#F44336", "#3F51B5", "#009688", "#FFC107", "#FF5722", "#9C27B0", "#03A9F4", "#8BC34A", "#FF9800", "#E91E63", "#2196F3", "#4CAF50", "#FFEB3B", "#673AB7", "#00BCD4", "#CDDC39", "#9E9E9E", "#607D8B"], "font_family": "Consolas, \"Liberation Mono\", Menlo, Courier, monospace", "foreground": "rgba(0, 0, 0, .87)", "foreground_strong": "rgba(0, 0, 0, 1)", "foreground_subtle": "rgba(0, 0, 0, .54)", "guide_stroke_dasharray": "4,4", "label_font_family": "Consolas, \"Liberation Mono\", Menlo, Courier, monospace", "label_font_size": 10, "legend_font_family": "Consolas, \"Liberation Mono\", Menlo, Courier, monospace", "legend_font_size": 14, "major_guide_stroke_dasharray": "6,6", "major_label_font_family": "Consolas, \"Liberation Mono\", Menlo, Courier, monospace", "major_label_font_size": 10, "no_data_font_family": "Consolas, \"Liberation Mono\", Menlo, Courier, monospace", "no_data_font_size": 64, "opacity": ".7", "opacity_hover": ".8", "plot_background": "rgba(255, 255, 255, 1)", "stroke_opacity": ".8", "stroke_opacity_hover": ".9", "title_font_family": "Consolas, \"Liberation Mono\", Menlo, Courier, monospace", "title_font_size": 16, "tooltip_font_family": "Consolas, \"Liberation Mono\", Menlo, Courier, monospace", "tooltip_font_size": 14, "transition": "150ms", "value_background": "rgba(229, 229, 229, 1)", "value_colors": [], "value_font_family": "Consolas, \"Liberation Mono\", Menlo, Courier, monospace", "value_font_size": 16, "value_label_font_family": "Consolas, \"Liberation Mono\", Menlo, Courier, monospace", "value_label_font_size": 10}, "title": "Aamer Sohail: Future and Past Averages in ODIs", "tooltip_border_radius": 10, "tooltip_fancy_mode": true, "truncate_label": null, "truncate_legend": null, "width": 800, "x_label_rotation": 45, "x_labels": ["1992", "0", "0", "0", "0", "0", "0", "0", "0", "0", "0", "0", "0", "0", "0", "0", "0", "0", "1993", "0", "0", "0", "0", "0", "0", "0", "0", "0", "0", "0", "1994", "0", "0", "0", "0", "0", "0", "0", "0", "0", "0", "0", "0", "0", "0", "0", "0", "0", "0", "0", "0", "0", "0", "0", "0", "0", "1995", "0", "0", "0", "0", "0", "0", "0", "0", "0", "0", "0", "0", "0", "0", "0", "0", "1996", "0", "0", "0", "0", "0", "0", "0", "0", "0", "0", "0", "0", "0", "0", "0", "0", "0", "0", "0", "0", "0", "0", "0", "1997", "0", "0", "0", "0", "0", "0", "0", "0", "0", "1998", "0", "0", "0", "0", "0", "0", "0", "0", "0", "0", "1999", "0", "0", "0", "2000", "0", "0"], "x_labels_major": ["1992", "1993", "1994", "1995", "1996", "1997", "1998", "1999", "2000"], "x_labels_major_count": null, "x_labels_major_every": null, "x_title": null, "xrange": null, "y_label_rotation": 0, "y_labels": null, "y_labels_major": null, "y_labels_major_count": null, "y_labels_major_every": null, "y_title": null, "zero": 0, "legends": ["Future Average", "Past Average", "Career Average"]}</script><script type="text/javascript" xlink:href="https://kozea.github.io/pygal.js/2.0.x/pygal-tooltips.min.js"/></defs><title>Aamer Sohail: Future and Past Averages in ODIs</title><g class="graph line-graph vertical"><rect class="background" height="600" width="800" x="0" y="0"/><g class="plot" transform="translate(48, 46)"><rect class="background" height="462.02943725152284" width="732.0" x="0" y="0"/><g class="axis y always_show"><g class="guides"><path class="axis major line" d="M0.000000 453.144256 h732.000000"/><text class="major" x="-5" y="456.6442557659166">0</text><title>0</title></g><g class="guides"><path class="guide line" d="M0.000000 416.729578 h732.000000"/><text class="" x="-5" y="420.22957754621905">10</text><title>10</title></g><g class="guides"><path class="guide line" d="M0.000000 380.314899 h732.000000"/><text class="" x="-5" y="383.81489932652147">20</text><title>20</title></g><g class="guides"><path class="guide line" d="M0.000000 343.900221 h732.000000"/><text class="" x="-5" y="347.4002211068239">30</text><title>30</title></g><g class="guides"><path class="guide line" d="M0.000000 307.485543 h732.000000"/><text class="" x="-5" y="310.98554288712637">40</text><title>40</title></g><g class="guides"><path class="major guide line" d="M0.000000 271.070865 h732.000000"/><text class="major" x="-5" y="274.57086466742874">50</text><title>50</title></g><g class="guides"><path class="guide line" d="M0.000000 234.656186 h732.000000"/><text class="" x="-5" y="238.15618644773116">60</text><title>60</title></g><g class="guides"><path class="guide line" d="M0.000000 198.241508 h732.000000"/><text class="" x="-5" y="201.74150822803358">70</text><title>70</title></g><g class="guides"><path class="guide line" d="M0.000000 161.826830 h732.000000"/><text class="" x="-5" y="165.326830008336">80</text><title>80</title></g><g class="guides"><path class="guide line" d="M0.000000 125.412152 h732.000000"/><text class="" x="-5" y="128.91215178863843">90</text><title>90</title></g><g class="guides"><path class="major guide line" d="M0.000000 88.997474 h732.000000"/><text class="major" x="-5" y="92.49747356894085">100</text><title>100</title></g><g class="guides"><path class="guide line" d="M0.000000 52.582795 h732.000000"/><text class="" x="-5" y="56.08279534924333">110</text><title>110</title></g><g class="guides"><path class="guide line" d="M0.000000 16.168117 h732.000000"/><text class="" x="-5" y="19.66811712954575">120</text><title>120</title></g></g><g class="axis x"><g class="guides"><path class="major line" d="M14.076923 0.000000 v462.029437"/><text class="major" x="14.076923076923077" y="477.02943725152284" transform="rotate(45 14.076923 477.029437)">1992</text></g><g class="guides"><path class="major guide line" d="M116.248139 0.000000 v462.029437"/><text class="major" x="116.24813895781637" y="477.02943725152284" transform="rotate(45 116.248139 477.029437)">1993</text></g><g class="guides"><path class="major guide line" d="M184.362283 0.000000 v462.029437"/><text class="major" x="184.36228287841192" y="477.02943725152284" transform="rotate(45 184.362283 477.029437)">1994</text></g><g class="guides"><path class="major guide line" d="M331.942928 0.000000 v462.029437"/><text class="major" x="331.9429280397022" y="477.02943725152284" transform="rotate(45 331.942928 477.029437)">1995</text></g><g class="guides"><path class="major guide line" d="M428.437965 0.000000 v462.029437"/><text class="major" x="428.4379652605459" y="477.02943725152284" transform="rotate(45 428.437965 477.029437)">1996</text></g><g class="guides"><path class="major guide line" d="M564.666253 0.000000 v462.029437"/><text class="major" x="564.666253101737" y="477.02943725152284" transform="rotate(45 564.666253 477.029437)">1997</text></g><g class="guides"><path class="major guide line" d="M621.428040 0.000000 v462.029437"/><text class="major" x="621.4280397022331" y="477.02943725152284" transform="rotate(45 621.428040 477.029437)">1998</text></g><g class="guides"><path class="major guide line" d="M683.866005 0.000000 v462.029437"/><text class="major" x="683.8660049627791" y="477.02943725152284" transform="rotate(45 683.866005 477.029437)">1999</text></g><g class="guides"><path class="major guide line" d="M706.570720 0.000000 v462.029437"/><text class="major" x="706.5707196029776" y="477.02943725152284" transform="rotate(45 706.570720 477.029437)">2000</text></g></g><g class="series serie-0 color-0"><path class="line reactive nofill" d="M14.076923 294.521917 L19.753102 295.978505 25.429280 297.471506 31.105459 294.849650 36.781638 295.723602 42.457816 294.412673 48.133995 293.757209 53.810174 294.267015 59.486352 296.488310 65.162531 296.888872 70.838710 298.418288 76.514888 295.505114 82.191067 292.737598 87.867246 292.337037 93.543424 294.121356 99.219603 291.062523 104.895782 290.661962 110.571960 290.297815 116.248139 291.317426 121.924318 292.701184 127.600496 293.575136 133.276675 292.701184 138.952854 294.376259 144.629032 291.426670 150.305211 293.028916 155.981390 288.040105 161.657568 286.037297 167.333747 284.726369 173.009926 284.471466 178.686104 286.292200 184.362283 287.457470 190.038462 283.925246 195.714640 282.104512 201.390819 283.925246 207.066998 285.709565 212.743176 286.802006 218.419355 285.309004 224.095533 280.757169 229.771712 281.813195 235.447891 280.393022 241.124069 275.549870 246.800248 273.328575 252.476427 272.709525 258.152605 273.911210 263.828784 275.914017 269.504963 277.771165 275.181141 275.877602 280.857320 277.334189 286.533499 279.154923 292.209677 279.883217 297.885856 278.936435 303.562035 281.194145 309.238213 273.619892 314.914392 274.639503 320.590571 277.006457 326.266749 275.841188 331.942928 269.286545 337.619107 271.398597 343.295285 275.804773 348.971464 265.535834 354.647643 268.230520 360.323821 271.070865 366.000000 261.785122 371.676179 265.208101 377.352357 256.905555 383.028536 259.636656 388.704715 265.899980 394.380893 266.628274 400.057072 245.799078 405.733251 243.832685 411.409429 247.328494 417.085608 238.042752 422.761787 236.476920 428.437965 225.698176 434.114144 227.919471 439.790323 230.869060 445.466501 235.785041 451.142680 224.933467 456.818859 223.112733 462.495037 217.432044 468.171216 229.521717 473.847395 226.863445 479.523573 230.504913 485.199752 235.348065 490.875931 245.070784 496.552109 253.555404 502.228288 255.631041 507.904467 251.042792 513.580645 256.687067 519.256824 262.695489 524.933002 267.247323 530.609181 273.255745 536.285360 269.723522 541.961538 276.642310 547.637717 272.272549 553.313896 280.393022 558.990074 281.995268 564.666253 284.617125 570.342432 271.070865 576.018610 275.149309 581.694789 276.168920 587.370968 284.653540 593.047146 284.908442 598.723325 282.759976 604.399504 291.863646 610.075682 297.872068 615.751861 303.079367 621.428040 311.381913 627.104218 313.712453 632.780397 312.510768 638.456576 322.597634 644.132754 315.059796 649.808933 301.295048 655.485112 290.188571 661.161290 303.407099 666.837469 310.070985 672.513648 308.687227 678.189826 321.323121 683.866005 264.989613 689.542184 196.420774 695.218362 225.552517 700.894541 8.885181 706.570720 38.016924 712.246898 161.826830 717.923077 296.561139"/></g><g class="series serie-1 color-1"><path class="line reactive nofill" d="M14.076923 453.144256 L19.753102 329.334350 25.429280 201.882976 31.105459 280.174534 36.781638 243.759856 42.457816 296.561139 48.133995 309.306277 53.810174 299.292240 59.486352 254.684259 65.162531 256.504993 70.838710 231.743012 76.514888 283.561099 82.191067 309.524765 87.867246 310.762864 93.543424 297.289433 99.219603 315.387528 104.895782 315.897334 110.571960 315.824504 116.248139 310.617205 121.924318 303.589172 127.600496 299.146582 133.276675 302.860879 138.952854 295.104552 144.629032 306.830079 150.305211 300.421095 155.981390 315.496772 161.657568 320.303510 167.333747 322.561220 173.009926 321.578023 178.686104 316.662042 184.362283 313.493965 190.038462 319.866533 195.714640 322.597634 201.390819 318.555605 207.066998 314.477161 212.743176 311.964548 218.419355 314.222258 224.095533 321.031803 229.771712 319.028996 235.447891 320.339924 241.124069 325.911370 246.800248 327.914177 252.476427 327.185884 258.152605 325.365150 263.828784 322.379146 269.504963 319.575216 275.181141 321.104633 280.857320 319.028996 286.533499 316.443554 292.209677 315.387528 297.885856 315.678845 303.562035 312.656427 309.238213 319.174655 314.914392 317.936556 320.590571 315.132625 326.266749 315.496772 331.942928 320.303510 337.619107 318.155044 343.295285 313.639624 348.971464 320.267095 354.647643 317.827312 360.323821 315.351113 366.000000 320.958974 371.676179 318.191458 377.352357 322.124244 383.028536 320.121436 388.704715 315.496772 394.380893 314.986967 400.057072 323.908563 405.733251 323.617245 411.409429 321.578023 417.085608 323.726489 422.761787 322.998196 428.437965 324.818930 434.114144 323.835733 439.790323 322.561220 445.466501 320.376339 451.142680 321.869341 456.818859 320.995389 462.495037 321.432365 468.171216 317.208262 473.847395 316.698456 479.523573 315.496772 485.199752 313.930941 490.875931 310.726449 496.552109 307.922519 502.228288 307.267055 507.904467 307.886104 513.580645 306.138200 519.256824 304.281051 524.933002 302.897293 530.609181 301.040145 536.285360 301.622780 541.961538 299.656387 547.637717 300.457510 553.313896 298.309044 558.990074 297.872068 564.666253 297.143774 570.342432 299.947704 576.018610 299.000923 581.694789 298.418288 587.370968 296.597554 593.047146 296.561139 598.723325 296.816042 604.399504 295.031723 610.075682 293.830039 615.751861 292.810428 621.428040 291.171767 627.104218 290.698376 632.780397 291.244596 638.456576 289.423862 644.132754 291.135352 649.808933 293.611550 655.485112 294.958894 661.161290 293.575136 666.837469 293.101745 672.513648 293.429477 678.189826 292.846842 683.866005 295.577943 689.542184 296.852457 695.218362 296.160578 700.894541 297.908483 706.570720 297.544336 712.246898 296.087749 717.923077 296.342651"/></g><g class="series serie-2 color-2"><path class="line reactive nofill" d="M14.076923 294.521917 L19.753102 294.521917 25.429280 294.521917 31.105459 294.521917 36.781638 294.521917 42.457816 294.521917 48.133995 294.521917 53.810174 294.521917 59.486352 294.521917 65.162531 294.521917 70.838710 294.521917 76.514888 294.521917 82.191067 294.521917 87.867246 294.521917 93.543424 294.521917 99.219603 294.521917 104.895782 294.521917 110.571960 294.521917 116.248139 294.521917 121.924318 294.521917 127.600496 294.521917 133.276675 294.521917 138.952854 294.521917 144.629032 294.521917 150.305211 294.521917 155.981390 294.521917 161.657568 294.521917 167.333747 294.521917 173.009926 294.521917 178.686104 294.521917 184.362283 294.521917 190.038462 294.521917 195.714640 294.521917 201.390819 294.521917 207.066998 294.521917 212.743176 294.521917 218.419355 294.521917 224.095533 294.521917 229.771712 294.521917 235.447891 294.521917 241.124069 294.521917 246.800248 294.521917 252.476427 294.521917 258.152605 294.521917 263.828784 294.521917 269.504963 294.521917 275.181141 294.521917 280.857320 294.521917 286.533499 294.521917 292.209677 294.521917 297.885856 294.521917 303.562035 294.521917 309.238213 294.521917 314.914392 294.521917 320.590571 294.521917 326.266749 294.521917 331.942928 294.521917 337.619107 294.521917 343.295285 294.521917 348.971464 294.521917 354.647643 294.521917 360.323821 294.521917 366.000000 294.521917 371.676179 294.521917 377.352357 294.521917 383.028536 294.521917 388.704715 294.521917 394.380893 294.521917 400.057072 294.521917 405.733251 294.521917 411.409429 294.521917 417.085608 294.521917 422.761787 294.521917 428.437965 294.521917 434.114144 294.521917 439.790323 294.521917 445.466501 294.521917 451.142680 294.521917 456.818859 294.521917 462.495037 294.521917 468.171216 294.521917 473.847395 294.521917 479.523573 294.521917 485.199752 294.521917 490.875931 294.521917 496.552109 294.521917 502.228288 294.521917 507.904467 294.521917 513.580645 294.521917 519.256824 294.521917 524.933002 294.521917 530.609181 294.521917 536.285360 294.521917 541.961538 294.521917 547.637717 294.521917 553.313896 294.521917 558.990074 294.521917 564.666253 294.521917 570.342432 294.521917 576.018610 294.521917 581.694789 294.521917 587.370968 294.521917 593.047146 294.521917 598.723325 294.521917 604.399504 294.521917 610.075682 294.521917 615.751861 294.521917 621.428040 294.521917 627.104218 294.521917 632.780397 294.521917 638.456576 294.521917 644.132754 294.521917 649.808933 294.521917 655.485112 294.521917 661.161290 294.521917 666.837469 294.521917 672.513648 294.521917 678.189826 294.521917 683.866005 294.521917 689.542184 294.521917 695.218362 294.521917 700.894541 294.521917 706.570720 294.521917 712.246898 294.521917 717.923077 294.521917"/></g></g><g class="titles"><text class="title plot_title" x="400.0" y="26">Aamer Sohail: Future and Past Averages in ODIs</text></g><g class="plot overlay" transform="translate(48, 46)"><g class="series serie-0 color-0"><g class="dots"><desc class="label">85 wickets in 125 innings (806.0 overs)</desc><circle class="dot reactive tooltip-trigger" cx="14.076923076923077" cy="294.52191744091397" r="2.5"/><desc class="value">43.56</desc><desc class="x top">14.076923076923077</desc><desc class="y top">294.52191744091397</desc><desc class="x_label">1992</desc></g><g class="dots"><desc class="label">71 wickets in 107 innings (682.3 overs)</desc><circle class="dot reactive tooltip-trigger" cx="116.24813895781637" cy="291.3174257575806" r="2.5"/><desc class="value">44.44</desc><desc class="x top">116.24813895781637</desc><desc class="y top">291.3174257575806</desc><desc class="x_label">1993</desc></g><g class="dots"><desc class="label">62 wickets in 95 innings (610.4 overs)</desc><circle class="dot reactive tooltip-trigger" cx="184.36228287841192" cy="287.4574698662927" r="2.5"/><desc class="value">45.5</desc><desc class="x top">184.36228287841192</desc><desc class="y top">287.4574698662927</desc><desc class="x_label">1994</desc></g><g class="dots"><desc class="label">43 wickets in 69 innings (454.2 overs)</desc><circle class="dot reactive tooltip-trigger" cx="331.9429280397022" cy="269.2865454346636" r="2.5"/><desc class="value">50.49</desc><desc class="x top">331.9429280397022</desc><desc class="y top">269.2865454346636</desc><desc class="x_label">1995</desc></g><g class="dots"><desc class="label">26 wickets in 52 innings (327.5 overs)</desc><circle class="dot reactive tooltip-trigger" cx="428.4379652605459" cy="225.69817560568555" r="2.5"/><desc class="value">62.46</desc><desc class="x left">428.4379652605459</desc><desc class="y left">225.69817560568555</desc><desc class="x_label">1996</desc></g><g class="dots"><desc class="label">18 wickets in 28 innings (166.5 overs)</desc><circle class="dot reactive tooltip-trigger" cx="564.666253101737" cy="284.6171249651562" r="2.5"/><desc class="value">46.28</desc><desc class="x left top">564.666253101737</desc><desc class="y left top">284.6171249651562</desc><desc class="x_label">1997</desc></g><g class="dots"><desc class="label">14 wickets in 18 innings (104.2 overs)</desc><circle class="dot reactive tooltip-trigger" cx="621.4280397022331" cy="311.381913456634" r="2.5"/><desc class="value">38.93</desc><desc class="x left top">621.4280397022331</desc><desc class="y left top">311.381913456634</desc><desc class="x_label">1998</desc></g><g class="dots"><desc class="label">3 wickets in 7 innings (27.4 overs)</desc><circle class="dot reactive tooltip-trigger" cx="683.8660049627791" cy="264.9896134047392" r="2.5"/><desc class="value">51.67</desc><desc class="x left top">683.8660049627791</desc><desc class="y left top">264.9896134047392</desc><desc class="x_label">1999</desc></g><g class="dots"><desc class="label">1 wickets in 3 innings (18.0 overs)</desc><circle class="dot reactive tooltip-trigger" cx="706.5707196029776" cy="38.01692406136425" r="2.5"/><desc class="value">114</desc><desc class="x left">706.5707196029776</desc><desc class="y left">38.01692406136425</desc><desc class="x_label">2000</desc></g></g><g class="series serie-1 color-1"><g class="dots"><desc class="label">0 wickets over 0 innings</desc><circle class="dot reactive tooltip-trigger" cx="14.076923076923077" cy="453.1442557659166" r="2.5"/><desc class="value">0</desc><desc class="x top">14.076923076923077</desc><desc class="y top">453.1442557659166</desc><desc class="x_label">1992</desc></g><g class="dots"><desc class="label">14 wickets in 18 innings (123.3 overs)</desc><circle class="dot reactive tooltip-trigger" cx="116.24813895781637" cy="310.6172052140203" r="2.5"/><desc class="value">39.14</desc><desc class="x top">116.24813895781637</desc><desc class="y top">310.6172052140203</desc><desc class="x_label">1993</desc></g><g class="dots"><desc class="label">23 wickets in 30 innings (195.2 overs)</desc><circle class="dot reactive tooltip-trigger" cx="184.36228287841192" cy="313.49396479337645" r="2.5"/><desc class="value">38.35</desc><desc class="x top">184.36228287841192</desc><desc class="y top">313.49396479337645</desc><desc class="x_label">1994</desc></g><g class="dots"><desc class="label">42 wickets in 56 innings (351.4 overs)</desc><circle class="dot reactive tooltip-trigger" cx="331.9429280397022" cy="320.30350962045986" r="2.5"/><desc class="value">36.48</desc><desc class="x top">331.9429280397022</desc><desc class="y top">320.30350962045986</desc><desc class="x_label">1995</desc></g><g class="dots"><desc class="label">59 wickets in 73 innings (478.1 overs)</desc><circle class="dot reactive tooltip-trigger" cx="428.4379652605459" cy="324.8189297197024" r="2.5"/><desc class="value">35.24</desc><desc class="x left top">428.4379652605459</desc><desc class="y left top">324.8189297197024</desc><desc class="x_label">1996</desc></g><g class="dots"><desc class="label">67 wickets in 97 innings (639.1 overs)</desc><circle class="dot reactive tooltip-trigger" cx="564.666253101737" cy="297.14377427273223" r="2.5"/><desc class="value">42.84</desc><desc class="x left top">564.666253101737</desc><desc class="y left top">297.14377427273223</desc><desc class="x_label">1997</desc></g><g class="dots"><desc class="label">71 wickets in 107 innings (701.4 overs)</desc><circle class="dot reactive tooltip-trigger" cx="621.4280397022331" cy="291.1717670447018" r="2.5"/><desc class="value">44.48</desc><desc class="x left top">621.4280397022331</desc><desc class="y left top">291.1717670447018</desc><desc class="x_label">1998</desc></g><g class="dots"><desc class="label">82 wickets in 118 innings (778.2 overs)</desc><circle class="dot reactive tooltip-trigger" cx="683.8660049627791" cy="295.57794310928523" r="2.5"/><desc class="value">43.27</desc><desc class="x left top">683.8660049627791</desc><desc class="y left top">295.57794310928523</desc><desc class="x_label">1999</desc></g><g class="dots"><desc class="label">84 wickets in 122 innings (788.0 overs)</desc><circle class="dot reactive tooltip-trigger" cx="706.5707196029776" cy="297.5443357331489" r="2.5"/><desc class="value">42.73</desc><desc class="x left top">706.5707196029776</desc><desc class="y left top">297.5443357331489</desc><desc class="x_label">2000</desc></g></g><g class="series serie-2 color-2"/></g><g class="plot text-overlay" transform="translate(48, 46)"><g class="series serie-0 color-0"/><g class="series serie-1 color-1"/><g class="series serie-2 color-2"/></g><g class="plot tooltip-overlay" transform="translate(48, 46)"><g class="tooltip" style="opacity: 0" transform="translate(0 0)"><rect class="tooltip-box" height="0" rx="10" ry="10" width="0"/><g class="text"/></g></g><g class="legends" transform="translate(58, 545)"><g class="legend reactive activate-serie" id="activate-serie-0"><rect class="color-0 reactive" height="12" width="12" x="0.0" y="1.0"/><text x="17.0" y="11.2">Future Average</text></g><g class="legend reactive activate-serie" id="activate-serie-1"><rect class="color-1 reactive" height="12" width="12" x="366.0" y="1.0"/><text x="383.0" y="11.2">Past Average</text></g><g class="legend reactive activate-serie" id="activate-serie-2"><rect class="color-2 reactive" height="12" width="12" x="0.0" y="22.0"/><text x="17.0" y="32.2">Career Average</text></g></g></g></svg>