<?xml version='1.0' encoding='utf-8'?>
<svg xmlns:xlink="http://www.w3.org/1999/xlink" xmlns="http://www.w3.org/2000/svg" id="chart-6fb1eeb9-6182-46d6-b8e9-d565294d1181" class="pygal-chart" viewBox="0 0 800 600"><!--Generated with pygal 2.4.0 (lxml) ©Kozea 2012-2016 on 2019-08-04--><!--http://pygal.org--><!--http://github.com/Kozea/pygal--><defs><style type="text/css">#chart-6fb1eeb9-6182-46d6-b8e9-d565294d1181{-webkit-user-select:none;-webkit-font-smoothing:antialiased;font-family:Consolas,"Liberation Mono",Menlo,Courier,monospace}#chart-6fb1eeb9-6182-46d6-b8e9-d565294d1181 .title{font-family:Consolas,"Liberation Mono",Menlo,Courier,monospace;font-size:16px}#chart-6fb1eeb9-6182-46d6-b8e9-d565294d1181 .legends .legend text{font-family:Consolas,"Liberation Mono",Menlo,Courier,monospace;font-size:14px}#chart-6fb1eeb9-6182-46d6-b8e9-d565294d1181 .axis text{font-family:Consolas,"Liberation Mono",Menlo,Courier,monospace;font-size:10px}#chart-6fb1eeb9-6182-46d6-b8e9-d565294d1181 .axis text.major{font-family:Consolas,"Liberation Mono",Menlo,Courier,monospace;font-size:10px}#chart-6fb1eeb9-6182-46d6-b8e9-d565294d1181 .text-overlay text.value{font-family:Consolas,"Liberation Mono",Menlo,Courier,monospace;font-size:16px}#chart-6fb1eeb9-6182-46d6-b8e9-d565294d1181 .text-overlay text.label{font-family:Consolas,"Liberation Mono",Menlo,Courier,monospace;font-size:10px}#chart-6fb1eeb9-6182-46d6-b8e9-d565294d1181 .tooltip{font-family:Consolas,"Liberation Mono",Menlo,Courier,monospace;font-size:14px}#chart-6fb1eeb9-6182-46d6-b8e9-d565294d1181 text.no_data{font-family:Consolas,"Liberation Mono",Menlo,Courier,monospace;font-size:64px}
#chart-6fb1eeb9-6182-46d6-b8e9-d565294d1181{background-color:rgba(249,249,249,1)}#chart-6fb1eeb9-6182-46d6-b8e9-d565294d1181 path,#chart-6fb1eeb9-6182-46d6-b8e9-d565294d1181 line,#chart-6fb1eeb9-6182-46d6-b8e9-d565294d1181 rect,#chart-6fb1eeb9-6182-46d6-b8e9-d565294d1181 circle{-webkit-transition:150ms;-moz-transition:150ms;transition:150ms}#chart-6fb1eeb9-6182-46d6-b8e9-d565294d1181 .graph &gt; .background{fill:rgba(249,249,249,1)}#chart-6fb1eeb9-6182-46d6-b8e9-d565294d1181 .plot &gt; .background{fill:rgba(255,255,255,1)}#chart-6fb1eeb9-6182-46d6-b8e9-d565294d1181 .graph{fill:rgba(0,0,0,.87)}#chart-6fb1eeb9-6182-46d6-b8e9-d565294d1181 text.no_data{fill:rgba(0,0,0,1)}#chart-6fb1eeb9-6182-46d6-b8e9-d565294d1181 .title{fill:rgba(0,0,0,1)}#chart-6fb1eeb9-6182-46d6-b8e9-d565294d1181 .legends .legend text{fill:rgba(0,0,0,.87)}#chart-6fb1eeb9-6182-46d6-b8e9-d565294d1181 .legends .legend:hover text{fill:rgba(0,0,0,1)}#chart-6fb1eeb9-6182-46d6-b8e9-d565294d1181 .axis .line{stroke:rgba(0,0,0,1)}#chart-6fb1eeb9-6182-46d6-b8e9-d565294d1181 .axis .guide.line{stroke:rgba(0,0,0,.54)}#chart-6fb1eeb9-6182-46d6-b8e9-d565294d1181 .axis .major.line{stroke:rgba(0,0,0,.87)}#chart-6fb1eeb9-6182-46d6-b8e9-d565294d1181 .axis text.major{fill:rgba(0,0,0,1)}#chart-6fb1eeb9-6182-46d6-b8e9-d565294d1181 .axis.y .guides:hover .guide.line,#chart-6fb1eeb9-6182-46d6-b8e9-d565294d1181 .line-graph .axis.x .guides:hover .guide.line,#chart-6fb1eeb9-6182-46d6-b8e9-d565294d1181 .stackedline-graph .axis.x .guides:hover .guide.line,#chart-6fb1eeb9-6182-46d6-b8e9-d565294d1181 .xy-graph .axis.x .guides:hover .guide.line{stroke:rgba(0,0,0,1)}#chart-6fb1eeb9-6182-46d6-b8e9-d565294d1181 .axis .guides:hover text{fill:rgba(0,0,0,1)}#chart-6fb1eeb9-6182-46d6-b8e9-d565294d1181 .reactive{fill-opacity:.7;stroke-opacity:.8}#chart-6fb1eeb9-6182-46d6-b8e9-d565294d1181 .ci{stroke:rgba(0,0,0,.87)}#chart-6fb1eeb9-6182-46d6-b8e9-d565294d1181 .reactive.active,#chart-6fb1eeb9-6182-46d6-b8e9-d565294d1181 .active .reactive{fill-opacity:.8;stroke-opacity:.9;stroke-width:4}#chart-6fb1eeb9-6182-46d6-b8e9-d565294d1181 .ci .reactive.active{stroke-width:1.5}#chart-6fb1eeb9-6182-46d6-b8e9-d565294d1181 .series text{fill:rgba(0,0,0,1)}#chart-6fb1eeb9-6182-46d6-b8e9-d565294d1181 .tooltip rect{fill:rgba(255,255,255,1);stroke:rgba(0,0,0,1);-webkit-transition:opacity 150ms;-moz-transition:opacity 150ms;transition:opacity 150ms}#chart-6fb1eeb9-6182-46d6-b8e9-d565294d1181 .tooltip .label{fill:rgba(0,0,0,.87)}#chart-6fb1eeb9-6182-46d6-b8e9-d565294d1181 .tooltip .label{fill:rgba(0,0,0,.87)}#chart-6fb1eeb9-6182-46d6-b8e9-d565294d1181 .tooltip .legend{font-size:.8em;fill:rgba(0,0,0,.54)}#chart-6fb1eeb9-6182-46d6-b8e9-d565294d1181 .tooltip .x_label{font-size:.6em;fill:rgba(0,0,0,1)}#chart-6fb1eeb9-6182-46d6-b8e9-d565294d1181 .tooltip .xlink{font-size:.5em;text-decoration:underline}#chart-6fb1eeb9-6182-46d6-b8e9-d565294d1181 .tooltip .value{font-size:1.5em}#chart-6fb1eeb9-6182-46d6-b8e9-d565294d1181 .bound{font-size:.5em}#chart-6fb1eeb9-6182-46d6-b8e9-d565294d1181 .max-value{font-size:.75em;fill:rgba(0,0,0,.54)}#chart-6fb1eeb9-6182-46d6-b8e9-d565294d1181 .map-element{fill:rgba(255,255,255,1);stroke:rgba(0,0,0,.54) !important}#chart-6fb1eeb9-6182-46d6-b8e9-d565294d1181 .map-element .reactive{fill-opacity:inherit;stroke-opacity:inherit}#chart-6fb1eeb9-6182-46d6-b8e9-d565294d1181 .color-0,#chart-6fb1eeb9-6182-46d6-b8e9-d565294d1181 .color-0 a:visited{stroke:red;fill:red}#chart-6fb1eeb9-6182-46d6-b8e9-d565294d1181 .color-1,#chart-6fb1eeb9-6182-46d6-b8e9-d565294d1181 .color-1 a:visited{stroke:blue;fill:blue}#chart-6fb1eeb9-6182-46d6-b8e9-d565294d1181 .color-2,#chart-6fb1eeb9-6182-46d6-b8e9-d565294d1181 .color-2 a:visited{stroke:green;fill:green}#chart-6fb1eeb9-6182-46d6-b8e9-d565294d1181 .text-overlay .color-0 text{fill:white}#chart-6fb1eeb9-6182-46d6-b8e9-d565294d1181 .text-overlay .color-1 text{fill:white}#chart-6fb1eeb9-6182-46d6-b8e9-d565294d1181 .text-overlay .color-2 text{fill:white}
#chart-6fb1eeb9-6182-46d6-b8e9-d565294d1181 text.no_data{text-anchor:middle}#chart-6fb1eeb9-6182-46d6-b8e9-d565294d1181 .guide.line{fill:none}#chart-6fb1eeb9-6182-46d6-b8e9-d565294d1181 .centered{text-anchor:middle}#chart-6fb1eeb9-6182-46d6-b8e9-d565294d1181 .title{text-anchor:middle}#chart-6fb1eeb9-6182-46d6-b8e9-d565294d1181 .legends .legend text{fill-opacity:1}#chart-6fb1eeb9-6182-46d6-b8e9-d565294d1181 .axis.x text{text-anchor:middle}#chart-6fb1eeb9-6182-46d6-b8e9-d565294d1181 .axis.x:not(.web) text[transform]{text-anchor:start}#chart-6fb1eeb9-6182-46d6-b8e9-d565294d1181 .axis.x:not(.web) text[transform].backwards{text-anchor:end}#chart-6fb1eeb9-6182-46d6-b8e9-d565294d1181 .axis.y text{text-anchor:end}#chart-6fb1eeb9-6182-46d6-b8e9-d565294d1181 .axis.y text[transform].backwards{text-anchor:start}#chart-6fb1eeb9-6182-46d6-b8e9-d565294d1181 .axis.y2 text{text-anchor:start}#chart-6fb1eeb9-6182-46d6-b8e9-d565294d1181 .axis.y2 text[transform].backwards{text-anchor:end}#chart-6fb1eeb9-6182-46d6-b8e9-d565294d1181 .axis .guide.line{stroke-dasharray:4,4}#chart-6fb1eeb9-6182-46d6-b8e9-d565294d1181 .axis .major.guide.line{stroke-dasharray:6,6}#chart-6fb1eeb9-6182-46d6-b8e9-d565294d1181 .horizontal .axis.y .guide.line,#chart-6fb1eeb9-6182-46d6-b8e9-d565294d1181 .horizontal .axis.y2 .guide.line,#chart-6fb1eeb9-6182-46d6-b8e9-d565294d1181 .vertical .axis.x .guide.line{opacity:0}#chart-6fb1eeb9-6182-46d6-b8e9-d565294d1181 .horizontal .axis.always_show .guide.line,#chart-6fb1eeb9-6182-46d6-b8e9-d565294d1181 .vertical .axis.always_show .guide.line{opacity:1 !important}#chart-6fb1eeb9-6182-46d6-b8e9-d565294d1181 .axis.y .guides:hover .guide.line,#chart-6fb1eeb9-6182-46d6-b8e9-d565294d1181 .axis.y2 .guides:hover .guide.line,#chart-6fb1eeb9-6182-46d6-b8e9-d565294d1181 .axis.x .guides:hover .guide.line{opacity:1}#chart-6fb1eeb9-6182-46d6-b8e9-d565294d1181 .axis .guides:hover text{opacity:1}#chart-6fb1eeb9-6182-46d6-b8e9-d565294d1181 .nofill{fill:none}#chart-6fb1eeb9-6182-46d6-b8e9-d565294d1181 .subtle-fill{fill-opacity:.2}#chart-6fb1eeb9-6182-46d6-b8e9-d565294d1181 .dot{stroke-width:1px;fill-opacity:1}#chart-6fb1eeb9-6182-46d6-b8e9-d565294d1181 .dot.active{stroke-width:5px}#chart-6fb1eeb9-6182-46d6-b8e9-d565294d1181 .dot.negative{fill:transparent}#chart-6fb1eeb9-6182-46d6-b8e9-d565294d1181 text,#chart-6fb1eeb9-6182-46d6-b8e9-d565294d1181 tspan{stroke:none !important}#chart-6fb1eeb9-6182-46d6-b8e9-d565294d1181 .series text.active{opacity:1}#chart-6fb1eeb9-6182-46d6-b8e9-d565294d1181 .tooltip rect{fill-opacity:.95;stroke-width:.5}#chart-6fb1eeb9-6182-46d6-b8e9-d565294d1181 .tooltip text{fill-opacity:1}#chart-6fb1eeb9-6182-46d6-b8e9-d565294d1181 .showable{visibility:hidden}#chart-6fb1eeb9-6182-46d6-b8e9-d565294d1181 .showable.shown{visibility:visible}#chart-6fb1eeb9-6182-46d6-b8e9-d565294d1181 .gauge-background{fill:rgba(229,229,229,1);stroke:none}#chart-6fb1eeb9-6182-46d6-b8e9-d565294d1181 .bg-lines{stroke:rgba(249,249,249,1);stroke-width:2px}</style><script type="text/javascript">window.pygal = window.pygal || {};window.pygal.config = window.pygal.config || {};window.pygal.config['6fb1eeb9-6182-46d6-b8e9-d565294d1181'] = {"allow_interruptions": false, "box_mode": "extremes", "classes": ["pygal-chart"], "css": ["file://style.css", "file://graph.css"], "defs": [], "disable_xml_declaration": false, "dots_size": 2.5, "dynamic_print_values": false, "explicit_size": false, "fill": false, "force_uri_protocol": "https", "formatter": null, "half_pie": false, "height": 600, "include_x_axis": false, "inner_radius": 0, "interpolate": null, "interpolation_parameters": {}, "interpolation_precision": 250, "inverse_y_axis": false, "js": ["//kozea.github.io/pygal.js/2.0.x/pygal-tooltips.min.js"], "legend_at_bottom": true, "legend_at_bottom_columns": null, "legend_box_size": 12, "logarithmic": false, "margin": 20, "margin_bottom": null, "margin_left": null, "margin_right": null, "margin_top": null, "max_scale": 16, "min_scale": 4, "missing_value_fill_truncation": "x", "no_data_text": "No data", "no_prefix": false, "order_min": null, "pretty_print": false, "print_labels": false, "print_values": false, "print_values_position": "center", "print_zeroes": true, "range": null, "rounded_bars": null, "secondary_range": null, "show_dots": true, "show_legend": true, "show_minor_x_labels": false, "show_minor_y_labels": true, "show_only_major_dots": false, "show_x_guides": false, "show_x_labels": true, "show_y_guides": true, "show_y_labels": true, "spacing": 10, "stack_from_top": false, "strict": false, "stroke": true, "stroke_style": null, "style": {"background": "rgba(249, 249, 249, 1)", "ci_colors": [], "colors": ["red", "blue", "green", "#a3a3a3"], "font_family": "Consolas, \"Liberation Mono\", Menlo, Courier, monospace", "foreground": "rgba(0, 0, 0, .87)", "foreground_strong": "rgba(0, 0, 0, 1)", "foreground_subtle": "rgba(0, 0, 0, .54)", "guide_stroke_dasharray": "4,4", "label_font_family": "Consolas, \"Liberation Mono\", Menlo, Courier, monospace", "label_font_size": 10, "legend_font_family": "Consolas, \"Liberation Mono\", Menlo, Courier, monospace", "legend_font_size": 14, "major_guide_stroke_dasharray": "6,6", "major_label_font_family": "Consolas, \"Liberation Mono\", Menlo, Courier, monospace", "major_label_font_size": 10, "no_data_font_family": "Consolas, \"Liberation Mono\", Menlo, Courier, monospace", "no_data_font_size": 64, "opacity": ".7", "opacity_hover": ".8", "plot_background": "rgba(255, 255, 255, 1)", "stroke_opacity": ".8", "stroke_opacity_hover": ".9", "title_font_family": "Consolas, \"Liberation Mono\", Menlo, Courier, monospace", "title_font_size": 16, "tooltip_font_family": "Consolas, \"Liberation Mono\", Menlo, Courier, monospace", "tooltip_font_size": 14, "transition": "150ms", "value_background": "rgba(229, 229, 229, 1)", "value_colors": [], "value_font_family": "Consolas, \"Liberation Mono\", Menlo, Courier, monospace", "value_font_size": 16, "value_label_font_family": "Consolas, \"Liberation Mono\", Menlo, Courier, monospace", "value_label_font_size": 10}, "title": "Aaqib Javed: Future and Past Averages in ODIs", "tooltip_border_radius": 10, "tooltip_fancy_mode": true, "truncate_label": null, "truncate_legend": null, "width": 800, "x_label_rotation": 45, "x_labels": ["1988", "0", "0", "1989", "0", "0", "0", "0", "0", "0", "0", "0", "0", "0", "0", "0", "0", "0", "0", "0", "0", "0", "1990", "0", "0", "0", "0", "0", "0", "0", "0", "0", "0", "0", "1991", "0", "0", "0", "0", "0", "0", "0", "1992", "0", "0", "0", "0", "0", "0", "0", "0", "0", "0", "0", "0", "0", "0", "0", "0", "0", "0", "0", "0", "0", "0", "0", "0", "1993", "0", "0", "0", "0", "0", "0", "0", "0", "0", "0", "0", "0", "0", "0", "0", "0", "0", "0", "0", "1994", "0", "0", "0", "0", "0", "0", "0", "0", "0", "0", "0", "0", "0", "0", "1995", "0", "0", "0", "0", "0", "0", "0", "0", "0", "0", "0", "0", "0", "0", "0", "0", "0", "1996", "0", "0", "0", "0", "0", "0", "0", "0", "0", "0", "0", "1997", "0", "0", "0", "0", "0", "0", "0", "0", "0", "0", "0", "0", "0", "0", "0", "1998", "0", "0", "0", "0", "0", "0", "0", "0", "0", "0"], "x_labels_major": ["1988", "1989", "1990", "1991", "1992", "1993", "1994", "1995", "1996", "1997", "1998"], "x_labels_major_count": null, "x_labels_major_every": null, "x_title": null, "xrange": null, "y_label_rotation": 0, "y_labels": null, "y_labels_major": null, "y_labels_major_count": null, "y_labels_major_every": null, "y_title": null, "zero": 150.0, "legends": ["Future Average", "Past Average", "Career Average"]}</script><script type="text/javascript" xlink:href="https://kozea.github.io/pygal.js/2.0.x/pygal-tooltips.min.js"/></defs><title>Aaqib Javed: Future and Past Averages in ODIs</title><g class="graph line-graph vertical"><rect class="background" height="600" width="800" x="0" y="0"/><g class="plot" transform="translate(48, 46)"><rect class="background" height="462.02943725152284" width="732.0" x="0" y="0"/><g class="axis y always_show"><g class="guides"><path class="axis major line" d="M0.000000 453.144256 h732.000000"/><text class="major" x="-5" y="456.6442557659166">0</text><title>0</title></g><g class="guides"><path class="guide line" d="M0.000000 421.858405 h732.000000"/><text class="" x="-5" y="425.35840546448634">10</text><title>10</title></g><g class="guides"><path class="guide line" d="M0.000000 390.572555 h732.000000"/><text class="" x="-5" y="394.072555163056">20</text><title>20</title></g><g class="guides"><path class="guide line" d="M0.000000 359.286705 h732.000000"/><text class="" x="-5" y="362.7867048616257">30</text><title>30</title></g><g class="guides"><path class="guide line" d="M0.000000 328.000855 h732.000000"/><text class="" x="-5" y="331.50085456019536">40</text><title>40</title></g><g class="guides"><path class="major guide line" d="M0.000000 296.715004 h732.000000"/><text class="major" x="-5" y="300.2150042587651">50</text><title>50</title></g><g class="guides"><path class="guide line" d="M0.000000 265.429154 h732.000000"/><text class="" x="-5" y="268.92915395733473">60</text><title>60</title></g><g class="guides"><path class="guide line" d="M0.000000 234.143304 h732.000000"/><text class="" x="-5" y="237.64330365590445">70</text><title>70</title></g><g class="guides"><path class="guide line" d="M0.000000 202.857453 h732.000000"/><text class="" x="-5" y="206.3574533544741">80</text><title>80</title></g><g class="guides"><path class="guide line" d="M0.000000 171.571603 h732.000000"/><text class="" x="-5" y="175.07160305304382">90</text><title>90</title></g><g class="guides"><path class="major guide line" d="M0.000000 140.285753 h732.000000"/><text class="major" x="-5" y="143.78575275161353">100</text><title>100</title></g><g class="guides"><path class="guide line" d="M0.000000 108.999902 h732.000000"/><text class="" x="-5" y="112.49990245018324">110</text><title>110</title></g><g class="guides"><path class="guide line" d="M0.000000 77.714052 h732.000000"/><text class="" x="-5" y="81.2140521487529">120</text><title>120</title></g><g class="guides"><path class="guide line" d="M0.000000 46.428202 h732.000000"/><text class="" x="-5" y="49.92820184732261">130</text><title>130</title></g><g class="guides"><path class="guide line" d="M0.000000 15.142352 h732.000000"/><text class="" x="-5" y="18.64235154589221">140</text><title>140</title></g></g><g class="axis x"><g class="guides"><path class="major line" d="M14.076923 0.000000 v462.029437"/><text class="major" x="14.076923076923077" y="477.02943725152284" transform="rotate(45 14.076923 477.029437)">1988</text></g><g class="guides"><path class="major guide line" d="M27.441091 0.000000 v462.029437"/><text class="major" x="27.441090555014604" y="477.02943725152284" transform="rotate(45 27.441091 477.029437)">1989</text></g><g class="guides"><path class="major guide line" d="M112.080818 0.000000 v462.029437"/><text class="major" x="112.08081791626093" y="477.02943725152284" transform="rotate(45 112.080818 477.029437)">1990</text></g><g class="guides"><path class="major guide line" d="M165.537488 0.000000 v462.029437"/><text class="major" x="165.53748782862706" y="477.02943725152284" transform="rotate(45 165.537488 477.029437)">1991</text></g><g class="guides"><path class="major guide line" d="M201.175268 0.000000 v462.029437"/><text class="major" x="201.17526777020447" y="477.02943725152284" transform="rotate(45 201.175268 477.029437)">1992</text></g><g class="guides"><path class="major guide line" d="M312.543330 0.000000 v462.029437"/><text class="major" x="312.5433300876339" y="477.02943725152284" transform="rotate(45 312.543330 477.029437)">1993</text></g><g class="guides"><path class="major guide line" d="M401.637780 0.000000 v462.029437"/><text class="major" x="401.63777994157743" y="477.02943725152284" transform="rotate(45 401.637780 477.029437)">1994</text></g><g class="guides"><path class="major guide line" d="M468.458617 0.000000 v462.029437"/><text class="major" x="468.45861733203503" y="477.02943725152284" transform="rotate(45 468.458617 477.029437)">1995</text></g><g class="guides"><path class="major guide line" d="M548.643622 0.000000 v462.029437"/><text class="major" x="548.6436222005843" y="477.02943725152284" transform="rotate(45 548.643622 477.029437)">1996</text></g><g class="guides"><path class="major guide line" d="M602.100292 0.000000 v462.029437"/><text class="major" x="602.1002921129503" y="477.02943725152284" transform="rotate(45 602.100292 477.029437)">1997</text></g><g class="guides"><path class="major guide line" d="M673.375852 0.000000 v462.029437"/><text class="major" x="673.3758519961051" y="477.02943725152284" transform="rotate(45 673.375852 477.029437)">1998</text></g></g><g class="series serie-0 color-0"><path class="line reactive nofill" d="M14.076923 354.812828 L18.531646 355.094401 22.986368 355.876547 27.441091 356.721265 31.895813 356.220692 36.350536 355.063115 40.805258 354.812828 45.259981 354.343541 49.714703 355.094401 54.169426 355.563689 58.624148 356.158120 63.078870 356.971552 67.533593 356.126834 71.988315 356.564836 76.443038 355.688832 80.897760 356.283263 85.352483 357.159267 89.807205 356.314549 94.261928 356.345835 98.716650 356.815123 103.171373 355.970405 107.626095 354.687685 112.080818 355.594975 116.535540 355.563689 120.990263 355.720118 125.444985 356.815123 129.899708 357.346982 134.354430 357.002838 138.809153 356.908980 143.263875 357.096695 147.718598 357.597269 152.173320 357.691126 156.628043 357.534697 161.082765 358.097843 165.537488 358.003985 169.992210 358.692274 174.446933 359.505706 178.901655 358.723560 183.356378 358.848703 187.811100 354.875400 192.265823 355.031829 196.720545 354.718971 201.175268 352.435104 205.629990 352.278674 210.084713 352.747962 214.539435 351.089812 218.994158 350.464095 223.448880 349.400376 227.903603 350.495381 232.358325 350.902097 236.813048 351.089812 241.267770 350.119951 245.722493 350.182522 250.177215 348.086370 254.631938 349.150089 259.086660 349.150089 263.541383 349.494234 267.996105 348.367943 272.450828 347.022652 276.905550 348.086370 281.360273 347.710940 285.814995 346.866222 290.269718 348.148942 294.724440 347.147795 299.179163 347.022652 303.633885 348.148942 308.088608 345.771218 312.543330 347.022652 316.998053 347.554511 321.452775 347.710940 325.907498 349.400376 330.362220 349.775806 334.816943 348.618230 339.271665 347.335510 343.726388 348.649516 348.181110 349.181375 352.635833 350.182522 357.090555 351.527814 361.545278 351.496528 366.000000 351.778101 370.454722 351.778101 374.909445 351.778101 379.364167 352.403818 383.818890 352.591533 388.273612 353.123392 392.728335 351.559100 397.183057 352.716676 401.637780 352.998249 406.092502 352.122245 410.547225 353.217250 415.001947 355.313402 419.456670 355.125687 423.911392 354.906686 428.366115 356.283263 432.820837 355.563689 437.275560 356.940266 441.730282 358.097843 446.185005 357.440840 450.639727 357.472126 455.094450 359.036418 459.549172 356.283263 464.003895 355.188258 468.458617 355.188258 472.913340 354.656399 477.368062 356.158120 481.822785 355.282116 486.277507 357.190553 490.732230 354.937972 495.186952 347.617083 499.641675 349.150089 504.096397 351.433956 508.551120 353.248536 513.005842 353.029535 517.460565 352.966963 521.915287 352.873106 526.370010 353.373679 530.824732 354.781542 535.279455 355.188258 539.734177 354.593827 544.188900 351.809387 548.643622 351.527814 553.098345 348.336657 557.553067 345.364501 562.007790 347.773512 566.462512 346.115362 570.917235 348.618230 575.371957 353.561394 579.826680 351.997102 584.281402 349.337804 588.736125 349.306519 593.190847 351.559100 597.645570 356.596122 602.100292 358.942561 606.555015 362.509147 611.009737 351.058526 615.464460 338.262613 619.919182 346.271791 624.373905 352.403818 628.828627 353.029535 633.283350 346.490792 637.738072 341.923058 642.192795 349.118804 646.647517 346.428220 651.102240 352.216103 655.556962 353.561394 660.011685 331.567441 664.466407 347.898655 668.921130 339.482762 673.375852 352.247389 677.830574 342.705204 682.285297 325.654416 686.740019 335.040171 691.194742 321.211825 695.649464 334.258025 700.104187 342.079487 704.558909 360.850997 709.013632 302.972174 713.468354 224.757549 717.923077 306.100759"/></g><g class="series serie-1 color-1"><path class="line reactive nofill" d="M14.076923 453.144256 L18.531646 299.843589 22.986368 159.057263 27.441091 8.885181 31.895813 270.653891 36.350536 347.304224 40.805258 354.593827 45.259981 362.415290 49.714703 349.900950 54.169426 341.766629 58.624148 331.442298 63.078870 317.676524 67.533593 337.386610 71.988315 331.849014 76.443038 344.895214 80.897760 338.231328 85.352483 328.626572 89.807205 340.859339 94.261928 341.516342 98.716650 337.386610 103.171373 345.739932 107.626095 355.501117 112.080818 349.650663 116.535540 350.026093 120.990263 349.306519 125.444985 342.799062 129.899708 339.420190 134.354430 342.642633 138.809153 344.050496 143.263875 343.643780 147.718598 341.109626 152.173320 341.297341 156.628043 342.517489 161.082765 339.952049 165.537488 340.796767 169.992210 337.855897 174.446933 334.351882 178.901655 339.420190 183.356378 339.451476 187.811100 354.562541 192.265823 354.124540 196.720545 355.063115 201.175268 360.725854 205.629990 360.944855 210.084713 359.818564 214.539435 363.134864 218.994158 364.073440 223.448880 365.762876 227.903603 363.572866 232.358325 362.509147 236.813048 362.165003 241.267770 363.666724 245.722493 363.291294 250.177215 366.326021 254.631938 364.511442 259.086660 364.261155 263.541383 363.510295 267.996105 364.824300 272.450828 366.138306 276.905550 364.386298 281.360273 364.448870 285.814995 365.137159 290.269718 363.479009 294.724440 364.355013 299.179163 364.292441 303.633885 362.915863 308.088608 365.105873 312.543330 363.666724 316.998053 363.072293 321.452775 362.696863 325.907498 360.819712 330.362220 360.412995 334.816943 361.414143 339.271665 362.415290 343.726388 361.101284 348.181110 360.538139 352.635833 359.536992 357.090555 358.129128 361.545278 358.129128 366.000000 357.816270 370.454722 357.753698 374.909445 357.691126 379.364167 357.096695 383.818890 356.846409 388.273612 356.345835 392.728335 357.691126 397.183057 356.689979 401.637780 356.408407 406.092502 357.096695 410.547225 356.158120 415.001947 354.374826 419.456670 354.499970 423.911392 354.718971 428.366115 353.592680 432.820837 354.187111 437.275560 353.123392 441.730282 352.216103 446.185005 352.810534 450.639727 352.841820 455.094450 351.684243 459.549172 353.780395 464.003895 354.531256 468.458617 354.562541 472.913340 354.875400 477.368062 353.968110 481.822785 354.531256 486.277507 353.404965 490.732230 354.718971 495.186952 358.254272 499.641675 357.503411 504.096397 356.408407 508.551120 355.532403 513.005842 355.626260 517.460565 355.626260 521.915287 355.657546 526.370010 355.407259 530.824732 354.812828 535.279455 354.656399 539.734177 354.875400 544.188900 355.907833 548.643622 355.970405 553.098345 356.971552 557.553067 357.816270 562.007790 357.034124 566.462512 357.409554 570.917235 356.596122 575.371957 355.156973 579.826680 355.594975 584.281402 356.251977 588.736125 356.189406 593.190847 355.594975 597.645570 354.343541 602.100292 353.780395 606.555015 352.966963 611.009737 355.532403 615.464460 357.440840 619.919182 356.158120 624.373905 355.188258 628.828627 355.063115 633.283350 355.939119 637.738072 356.377121 642.192795 355.501117 646.647517 355.782690 651.102240 355.094401 655.556962 354.937972 660.011685 356.721265 664.466407 355.375974 668.921130 355.876547 673.375852 354.969258 677.830574 355.501117 682.285297 356.126834 686.740019 355.720118 691.194742 355.939119 695.649464 355.375974 700.104187 355.094401 704.558909 354.656399 709.013632 355.375974 713.468354 355.532403 717.923077 355.063115"/></g><g class="series serie-2 color-2"><path class="line reactive nofill" d="M14.076923 354.812828 L18.531646 354.812828 22.986368 354.812828 27.441091 354.812828 31.895813 354.812828 36.350536 354.812828 40.805258 354.812828 45.259981 354.812828 49.714703 354.812828 54.169426 354.812828 58.624148 354.812828 63.078870 354.812828 67.533593 354.812828 71.988315 354.812828 76.443038 354.812828 80.897760 354.812828 85.352483 354.812828 89.807205 354.812828 94.261928 354.812828 98.716650 354.812828 103.171373 354.812828 107.626095 354.812828 112.080818 354.812828 116.535540 354.812828 120.990263 354.812828 125.444985 354.812828 129.899708 354.812828 134.354430 354.812828 138.809153 354.812828 143.263875 354.812828 147.718598 354.812828 152.173320 354.812828 156.628043 354.812828 161.082765 354.812828 165.537488 354.812828 169.992210 354.812828 174.446933 354.812828 178.901655 354.812828 183.356378 354.812828 187.811100 354.812828 192.265823 354.812828 196.720545 354.812828 201.175268 354.812828 205.629990 354.812828 210.084713 354.812828 214.539435 354.812828 218.994158 354.812828 223.448880 354.812828 227.903603 354.812828 232.358325 354.812828 236.813048 354.812828 241.267770 354.812828 245.722493 354.812828 250.177215 354.812828 254.631938 354.812828 259.086660 354.812828 263.541383 354.812828 267.996105 354.812828 272.450828 354.812828 276.905550 354.812828 281.360273 354.812828 285.814995 354.812828 290.269718 354.812828 294.724440 354.812828 299.179163 354.812828 303.633885 354.812828 308.088608 354.812828 312.543330 354.812828 316.998053 354.812828 321.452775 354.812828 325.907498 354.812828 330.362220 354.812828 334.816943 354.812828 339.271665 354.812828 343.726388 354.812828 348.181110 354.812828 352.635833 354.812828 357.090555 354.812828 361.545278 354.812828 366.000000 354.812828 370.454722 354.812828 374.909445 354.812828 379.364167 354.812828 383.818890 354.812828 388.273612 354.812828 392.728335 354.812828 397.183057 354.812828 401.637780 354.812828 406.092502 354.812828 410.547225 354.812828 415.001947 354.812828 419.456670 354.812828 423.911392 354.812828 428.366115 354.812828 432.820837 354.812828 437.275560 354.812828 441.730282 354.812828 446.185005 354.812828 450.639727 354.812828 455.094450 354.812828 459.549172 354.812828 464.003895 354.812828 468.458617 354.812828 472.913340 354.812828 477.368062 354.812828 481.822785 354.812828 486.277507 354.812828 490.732230 354.812828 495.186952 354.812828 499.641675 354.812828 504.096397 354.812828 508.551120 354.812828 513.005842 354.812828 517.460565 354.812828 521.915287 354.812828 526.370010 354.812828 530.824732 354.812828 535.279455 354.812828 539.734177 354.812828 544.188900 354.812828 548.643622 354.812828 553.098345 354.812828 557.553067 354.812828 562.007790 354.812828 566.462512 354.812828 570.917235 354.812828 575.371957 354.812828 579.826680 354.812828 584.281402 354.812828 588.736125 354.812828 593.190847 354.812828 597.645570 354.812828 602.100292 354.812828 606.555015 354.812828 611.009737 354.812828 615.464460 354.812828 619.919182 354.812828 624.373905 354.812828 628.828627 354.812828 633.283350 354.812828 637.738072 354.812828 642.192795 354.812828 646.647517 354.812828 651.102240 354.812828 655.556962 354.812828 660.011685 354.812828 664.466407 354.812828 668.921130 354.812828 673.375852 354.812828 677.830574 354.812828 682.285297 354.812828 686.740019 354.812828 691.194742 354.812828 695.649464 354.812828 700.104187 354.812828 704.558909 354.812828 709.013632 354.812828 713.468354 354.812828 717.923077 354.812828"/></g></g><g class="titles"><text class="title plot_title" x="400.0" y="26">Aaqib Javed: Future and Past Averages in ODIs</text></g><g class="plot overlay" transform="translate(48, 46)"><g class="series serie-0 color-0"><g class="dots"><desc class="label">182 wickets in 159 innings (1335.2 overs)</desc><circle class="dot reactive tooltip-trigger" cx="14.076923076923077" cy="354.8128282685212" r="2.5"/><desc class="value">31.43</desc><desc class="x top">14.076923076923077</desc><desc class="y top">354.8128282685212</desc><desc class="x_label">1988</desc></g><g class="dots"><desc class="label">181 wickets in 156 innings (1309.2 overs)</desc><circle class="dot reactive tooltip-trigger" cx="27.441090555014604" cy="356.7212651369084" r="2.5"/><desc class="value">30.82</desc><desc class="x top">27.441090555014604</desc><desc class="y top">356.7212651369084</desc><desc class="x_label">1989</desc></g><g class="dots"><desc class="label">158 wickets in 137 innings (1144.1 overs)</desc><circle class="dot reactive tooltip-trigger" cx="112.08081791626093" cy="355.59497452605694" r="2.5"/><desc class="value">31.18</desc><desc class="x top">112.08081791626093</desc><desc class="y top">355.59497452605694</desc><desc class="x_label">1990</desc></g><g class="dots"><desc class="label">148 wickets in 125 innings (1045.2 overs)</desc><circle class="dot reactive tooltip-trigger" cx="165.53748782862706" cy="358.00398499926706" r="2.5"/><desc class="value">30.41</desc><desc class="x top">165.53748782862706</desc><desc class="y top">358.00398499926706</desc><desc class="x_label">1991</desc></g><g class="dots"><desc class="label">130 wickets in 117 innings (972.2 overs)</desc><circle class="dot reactive tooltip-trigger" cx="201.17526777020447" cy="352.43510364561246" r="2.5"/><desc class="value">32.19</desc><desc class="x top">201.17526777020447</desc><desc class="y top">352.43510364561246</desc><desc class="x_label">1992</desc></g><g class="dots"><desc class="label">97 wickets in 92 innings (762.5 overs)</desc><circle class="dot reactive tooltip-trigger" cx="312.5433300876339" cy="347.02265154346503" r="2.5"/><desc class="value">33.92</desc><desc class="x top">312.5433300876339</desc><desc class="y top">347.02265154346503</desc><desc class="x_label">1993</desc></g><g class="dots"><desc class="label">86 wickets in 72 innings (617.2 overs)</desc><circle class="dot reactive tooltip-trigger" cx="401.63777994157743" cy="352.99824895103825" r="2.5"/><desc class="value">32.01</desc><desc class="x left top">401.63777994157743</desc><desc class="y left top">352.99824895103825</desc><desc class="x_label">1994</desc></g><g class="dots"><desc class="label">71 wickets in 57 innings (474.4 overs)</desc><circle class="dot reactive tooltip-trigger" cx="468.45861733203503" cy="355.18825847213833" r="2.5"/><desc class="value">31.31</desc><desc class="x left top">468.45861733203503</desc><desc class="y left top">355.18825847213833</desc><desc class="x_label">1995</desc></g><g class="dots"><desc class="label">48 wickets in 39 innings (316.5 overs)</desc><circle class="dot reactive tooltip-trigger" cx="548.6436222005843" cy="351.527813986871" r="2.5"/><desc class="value">32.48</desc><desc class="x left top">548.6436222005843</desc><desc class="y left top">351.527813986871</desc><desc class="x_label">1996</desc></g><g class="dots"><desc class="label">36 wickets in 27 innings (223.1 overs)</desc><circle class="dot reactive tooltip-trigger" cx="602.1002921129503" cy="358.94256050830995" r="2.5"/><desc class="value">30.11</desc><desc class="x left top">602.1002921129503</desc><desc class="y left top">358.94256050830995</desc><desc class="x_label">1997</desc></g><g class="dots"><desc class="label">12 wickets in 11 innings (83.5 overs)</desc><circle class="dot reactive tooltip-trigger" cx="673.3758519961051" cy="352.2473885438039" r="2.5"/><desc class="value">32.25</desc><desc class="x left top">673.3758519961051</desc><desc class="y left top">352.2473885438039</desc><desc class="x_label">1998</desc></g></g><g class="series serie-1 color-1"><g class="dots"><desc class="label">0 wickets over 0 innings</desc><circle class="dot reactive tooltip-trigger" cx="14.076923076923077" cy="453.1442557659166" r="2.5"/><desc class="value">0</desc><desc class="x top">14.076923076923077</desc><desc class="y top">453.1442557659166</desc><desc class="x_label">1988</desc></g><g class="dots"><desc class="label">1 wickets in 3 innings (26.0 overs)</desc><circle class="dot reactive tooltip-trigger" cx="27.441090555014604" cy="8.88518148560621" r="2.5"/><desc class="value">142</desc><desc class="x ">27.441090555014604</desc><desc class="y ">8.88518148560621</desc><desc class="x_label">1989</desc></g><g class="dots"><desc class="label">24 wickets in 22 innings (191.1 overs)</desc><circle class="dot reactive tooltip-trigger" cx="112.08081791626093" cy="349.6506629687852" r="2.5"/><desc class="value">33.08</desc><desc class="x top">112.08081791626093</desc><desc class="y top">349.6506629687852</desc><desc class="x_label">1990</desc></g><g class="dots"><desc class="label">34 wickets in 34 innings (290.0 overs)</desc><circle class="dot reactive tooltip-trigger" cx="165.53748782862706" cy="340.7967673334804" r="2.5"/><desc class="value">35.91</desc><desc class="x top">165.53748782862706</desc><desc class="y top">340.7967673334804</desc><desc class="x_label">1991</desc></g><g class="dots"><desc class="label">52 wickets in 42 innings (363.0 overs)</desc><circle class="dot reactive tooltip-trigger" cx="201.17526777020447" cy="360.72585397549153" r="2.5"/><desc class="value">29.54</desc><desc class="x top">201.17526777020447</desc><desc class="y top">360.72585397549153</desc><desc class="x_label">1992</desc></g><g class="dots"><desc class="label">85 wickets in 67 innings (572.3 overs)</desc><circle class="dot reactive tooltip-trigger" cx="312.5433300876339" cy="363.6667239038259" r="2.5"/><desc class="value">28.6</desc><desc class="x top">312.5433300876339</desc><desc class="y top">363.6667239038259</desc><desc class="x_label">1993</desc></g><g class="dots"><desc class="label">96 wickets in 87 innings (718.0 overs)</desc><circle class="dot reactive tooltip-trigger" cx="401.63777994157743" cy="356.4084066338941" r="2.5"/><desc class="value">30.92</desc><desc class="x left top">401.63777994157743</desc><desc class="y left top">356.4084066338941</desc><desc class="x_label">1994</desc></g><g class="dots"><desc class="label">111 wickets in 102 innings (860.4 overs)</desc><circle class="dot reactive tooltip-trigger" cx="468.45861733203503" cy="354.56254146610974" r="2.5"/><desc class="value">31.51</desc><desc class="x left top">468.45861733203503</desc><desc class="y left top">354.56254146610974</desc><desc class="x_label">1995</desc></g><g class="dots"><desc class="label">134 wickets in 120 innings (1018.3 overs)</desc><circle class="dot reactive tooltip-trigger" cx="548.6436222005843" cy="355.9704047296741" r="2.5"/><desc class="value">31.06</desc><desc class="x left top">548.6436222005843</desc><desc class="y left top">355.9704047296741</desc><desc class="x_label">1996</desc></g><g class="dots"><desc class="label">146 wickets in 132 innings (1112.1 overs)</desc><circle class="dot reactive tooltip-trigger" cx="602.1002921129503" cy="353.78039520857396" r="2.5"/><desc class="value">31.76</desc><desc class="x left top">602.1002921129503</desc><desc class="y left top">353.78039520857396</desc><desc class="x_label">1997</desc></g><g class="dots"><desc class="label">170 wickets in 148 innings (1251.3 overs)</desc><circle class="dot reactive tooltip-trigger" cx="673.3758519961051" cy="354.96925752002835" r="2.5"/><desc class="value">31.38</desc><desc class="x left top">673.3758519961051</desc><desc class="y left top">354.96925752002835</desc><desc class="x_label">1998</desc></g></g><g class="series serie-2 color-2"/></g><g class="plot text-overlay" transform="translate(48, 46)"><g class="series serie-0 color-0"/><g class="series serie-1 color-1"/><g class="series serie-2 color-2"/></g><g class="plot tooltip-overlay" transform="translate(48, 46)"><g class="tooltip" style="opacity: 0" transform="translate(0 0)"><rect class="tooltip-box" height="0" rx="10" ry="10" width="0"/><g class="text"/></g></g><g class="legends" transform="translate(58, 545)"><g class="legend reactive activate-serie" id="activate-serie-0"><rect class="color-0 reactive" height="12" width="12" x="0.0" y="1.0"/><text x="17.0" y="11.2">Future Average</text></g><g class="legend reactive activate-serie" id="activate-serie-1"><rect class="color-1 reactive" height="12" width="12" x="366.0" y="1.0"/><text x="383.0" y="11.2">Past Average</text></g><g class="legend reactive activate-serie" id="activate-serie-2"><rect class="color-2 reactive" height="12" width="12" x="0.0" y="22.0"/><text x="17.0" y="32.2">Career Average</text></g></g></g></svg>