<?xml version='1.0' encoding='utf-8'?>
<svg xmlns:xlink="http://www.w3.org/1999/xlink" xmlns="http://www.w3.org/2000/svg" id="chart-8a3e7ce6-8629-4e1f-b3d1-a166939f225c" class="pygal-chart" viewBox="0 0 800 600"><!--Generated with pygal 2.4.0 (lxml) ©Kozea 2012-2016 on 2019-08-04--><!--http://pygal.org--><!--http://github.com/Kozea/pygal--><defs><style type="text/css">#chart-8a3e7ce6-8629-4e1f-b3d1-a166939f225c{-webkit-user-select:none;-webkit-font-smoothing:antialiased;font-family:Consolas,"Liberation Mono",Menlo,Courier,monospace}#chart-8a3e7ce6-8629-4e1f-b3d1-a166939f225c .title{font-family:Consolas,"Liberation Mono",Menlo,Courier,monospace;font-size:16px}#chart-8a3e7ce6-8629-4e1f-b3d1-a166939f225c .legends .legend text{font-family:Consolas,"Liberation Mono",Menlo,Courier,monospace;font-size:14px}#chart-8a3e7ce6-8629-4e1f-b3d1-a166939f225c .axis text{font-family:Consolas,"Liberation Mono",Menlo,Courier,monospace;font-size:10px}#chart-8a3e7ce6-8629-4e1f-b3d1-a166939f225c .axis text.major{font-family:Consolas,"Liberation Mono",Menlo,Courier,monospace;font-size:10px}#chart-8a3e7ce6-8629-4e1f-b3d1-a166939f225c .text-overlay text.value{font-family:Consolas,"Liberation Mono",Menlo,Courier,monospace;font-size:16px}#chart-8a3e7ce6-8629-4e1f-b3d1-a166939f225c .text-overlay text.label{font-family:Consolas,"Liberation Mono",Menlo,Courier,monospace;font-size:10px}#chart-8a3e7ce6-8629-4e1f-b3d1-a166939f225c .tooltip{font-family:Consolas,"Liberation Mono",Menlo,Courier,monospace;font-size:14px}#chart-8a3e7ce6-8629-4e1f-b3d1-a166939f225c text.no_data{font-family:Consolas,"Liberation Mono",Menlo,Courier,monospace;font-size:64px}
#chart-8a3e7ce6-8629-4e1f-b3d1-a166939f225c{background-color:rgba(249,249,249,1)}#chart-8a3e7ce6-8629-4e1f-b3d1-a166939f225c path,#chart-8a3e7ce6-8629-4e1f-b3d1-a166939f225c line,#chart-8a3e7ce6-8629-4e1f-b3d1-a166939f225c rect,#chart-8a3e7ce6-8629-4e1f-b3d1-a166939f225c circle{-webkit-transition:150ms;-moz-transition:150ms;transition:150ms}#chart-8a3e7ce6-8629-4e1f-b3d1-a166939f225c .graph &gt; .background{fill:rgba(249,249,249,1)}#chart-8a3e7ce6-8629-4e1f-b3d1-a166939f225c .plot &gt; .background{fill:rgba(255,255,255,1)}#chart-8a3e7ce6-8629-4e1f-b3d1-a166939f225c .graph{fill:rgba(0,0,0,.87)}#chart-8a3e7ce6-8629-4e1f-b3d1-a166939f225c text.no_data{fill:rgba(0,0,0,1)}#chart-8a3e7ce6-8629-4e1f-b3d1-a166939f225c .title{fill:rgba(0,0,0,1)}#chart-8a3e7ce6-8629-4e1f-b3d1-a166939f225c .legends .legend text{fill:rgba(0,0,0,.87)}#chart-8a3e7ce6-8629-4e1f-b3d1-a166939f225c .legends .legend:hover text{fill:rgba(0,0,0,1)}#chart-8a3e7ce6-8629-4e1f-b3d1-a166939f225c .axis .line{stroke:rgba(0,0,0,1)}#chart-8a3e7ce6-8629-4e1f-b3d1-a166939f225c .axis .guide.line{stroke:rgba(0,0,0,.54)}#chart-8a3e7ce6-8629-4e1f-b3d1-a166939f225c .axis .major.line{stroke:rgba(0,0,0,.87)}#chart-8a3e7ce6-8629-4e1f-b3d1-a166939f225c .axis text.major{fill:rgba(0,0,0,1)}#chart-8a3e7ce6-8629-4e1f-b3d1-a166939f225c .axis.y .guides:hover .guide.line,#chart-8a3e7ce6-8629-4e1f-b3d1-a166939f225c .line-graph .axis.x .guides:hover .guide.line,#chart-8a3e7ce6-8629-4e1f-b3d1-a166939f225c .stackedline-graph .axis.x .guides:hover .guide.line,#chart-8a3e7ce6-8629-4e1f-b3d1-a166939f225c .xy-graph .axis.x .guides:hover .guide.line{stroke:rgba(0,0,0,1)}#chart-8a3e7ce6-8629-4e1f-b3d1-a166939f225c .axis .guides:hover text{fill:rgba(0,0,0,1)}#chart-8a3e7ce6-8629-4e1f-b3d1-a166939f225c .reactive{fill-opacity:.7;stroke-opacity:.8}#chart-8a3e7ce6-8629-4e1f-b3d1-a166939f225c .ci{stroke:rgba(0,0,0,.87)}#chart-8a3e7ce6-8629-4e1f-b3d1-a166939f225c .reactive.active,#chart-8a3e7ce6-8629-4e1f-b3d1-a166939f225c .active .reactive{fill-opacity:.8;stroke-opacity:.9;stroke-width:4}#chart-8a3e7ce6-8629-4e1f-b3d1-a166939f225c .ci .reactive.active{stroke-width:1.5}#chart-8a3e7ce6-8629-4e1f-b3d1-a166939f225c .series text{fill:rgba(0,0,0,1)}#chart-8a3e7ce6-8629-4e1f-b3d1-a166939f225c .tooltip rect{fill:rgba(255,255,255,1);stroke:rgba(0,0,0,1);-webkit-transition:opacity 150ms;-moz-transition:opacity 150ms;transition:opacity 150ms}#chart-8a3e7ce6-8629-4e1f-b3d1-a166939f225c .tooltip .label{fill:rgba(0,0,0,.87)}#chart-8a3e7ce6-8629-4e1f-b3d1-a166939f225c .tooltip .label{fill:rgba(0,0,0,.87)}#chart-8a3e7ce6-8629-4e1f-b3d1-a166939f225c .tooltip .legend{font-size:.8em;fill:rgba(0,0,0,.54)}#chart-8a3e7ce6-8629-4e1f-b3d1-a166939f225c .tooltip .x_label{font-size:.6em;fill:rgba(0,0,0,1)}#chart-8a3e7ce6-8629-4e1f-b3d1-a166939f225c .tooltip .xlink{font-size:.5em;text-decoration:underline}#chart-8a3e7ce6-8629-4e1f-b3d1-a166939f225c .tooltip .value{font-size:1.5em}#chart-8a3e7ce6-8629-4e1f-b3d1-a166939f225c .bound{font-size:.5em}#chart-8a3e7ce6-8629-4e1f-b3d1-a166939f225c .max-value{font-size:.75em;fill:rgba(0,0,0,.54)}#chart-8a3e7ce6-8629-4e1f-b3d1-a166939f225c .map-element{fill:rgba(255,255,255,1);stroke:rgba(0,0,0,.54) !important}#chart-8a3e7ce6-8629-4e1f-b3d1-a166939f225c .map-element .reactive{fill-opacity:inherit;stroke-opacity:inherit}#chart-8a3e7ce6-8629-4e1f-b3d1-a166939f225c .color-0,#chart-8a3e7ce6-8629-4e1f-b3d1-a166939f225c .color-0 a:visited{stroke:red;fill:red}#chart-8a3e7ce6-8629-4e1f-b3d1-a166939f225c .color-1,#chart-8a3e7ce6-8629-4e1f-b3d1-a166939f225c .color-1 a:visited{stroke:blue;fill:blue}#chart-8a3e7ce6-8629-4e1f-b3d1-a166939f225c .color-2,#chart-8a3e7ce6-8629-4e1f-b3d1-a166939f225c .color-2 a:visited{stroke:green;fill:green}#chart-8a3e7ce6-8629-4e1f-b3d1-a166939f225c .text-overlay .color-0 text{fill:white}#chart-8a3e7ce6-8629-4e1f-b3d1-a166939f225c .text-overlay .color-1 text{fill:white}#chart-8a3e7ce6-8629-4e1f-b3d1-a166939f225c .text-overlay .color-2 text{fill:white}
#chart-8a3e7ce6-8629-4e1f-b3d1-a166939f225c text.no_data{text-anchor:middle}#chart-8a3e7ce6-8629-4e1f-b3d1-a166939f225c .guide.line{fill:none}#chart-8a3e7ce6-8629-4e1f-b3d1-a166939f225c .centered{text-anchor:middle}#chart-8a3e7ce6-8629-4e1f-b3d1-a166939f225c .title{text-anchor:middle}#chart-8a3e7ce6-8629-4e1f-b3d1-a166939f225c .legends .legend text{fill-opacity:1}#chart-8a3e7ce6-8629-4e1f-b3d1-a166939f225c .axis.x text{text-anchor:middle}#chart-8a3e7ce6-8629-4e1f-b3d1-a166939f225c .axis.x:not(.web) text[transform]{text-anchor:start}#chart-8a3e7ce6-8629-4e1f-b3d1-a166939f225c .axis.x:not(.web) text[transform].backwards{text-anchor:end}#chart-8a3e7ce6-8629-4e1f-b3d1-a166939f225c .axis.y text{text-anchor:end}#chart-8a3e7ce6-8629-4e1f-b3d1-a166939f225c .axis.y text[transform].backwards{text-anchor:start}#chart-8a3e7ce6-8629-4e1f-b3d1-a166939f225c .axis.y2 text{text-anchor:start}#chart-8a3e7ce6-8629-4e1f-b3d1-a166939f225c .axis.y2 text[transform].backwards{text-anchor:end}#chart-8a3e7ce6-8629-4e1f-b3d1-a166939f225c .axis .guide.line{stroke-dasharray:4,4}#chart-8a3e7ce6-8629-4e1f-b3d1-a166939f225c .axis .major.guide.line{stroke-dasharray:6,6}#chart-8a3e7ce6-8629-4e1f-b3d1-a166939f225c .horizontal .axis.y .guide.line,#chart-8a3e7ce6-8629-4e1f-b3d1-a166939f225c .horizontal .axis.y2 .guide.line,#chart-8a3e7ce6-8629-4e1f-b3d1-a166939f225c .vertical .axis.x .guide.line{opacity:0}#chart-8a3e7ce6-8629-4e1f-b3d1-a166939f225c .horizontal .axis.always_show .guide.line,#chart-8a3e7ce6-8629-4e1f-b3d1-a166939f225c .vertical .axis.always_show .guide.line{opacity:1 !important}#chart-8a3e7ce6-8629-4e1f-b3d1-a166939f225c .axis.y .guides:hover .guide.line,#chart-8a3e7ce6-8629-4e1f-b3d1-a166939f225c .axis.y2 .guides:hover .guide.line,#chart-8a3e7ce6-8629-4e1f-b3d1-a166939f225c .axis.x .guides:hover .guide.line{opacity:1}#chart-8a3e7ce6-8629-4e1f-b3d1-a166939f225c .axis .guides:hover text{opacity:1}#chart-8a3e7ce6-8629-4e1f-b3d1-a166939f225c .nofill{fill:none}#chart-8a3e7ce6-8629-4e1f-b3d1-a166939f225c .subtle-fill{fill-opacity:.2}#chart-8a3e7ce6-8629-4e1f-b3d1-a166939f225c .dot{stroke-width:1px;fill-opacity:1}#chart-8a3e7ce6-8629-4e1f-b3d1-a166939f225c .dot.active{stroke-width:5px}#chart-8a3e7ce6-8629-4e1f-b3d1-a166939f225c .dot.negative{fill:transparent}#chart-8a3e7ce6-8629-4e1f-b3d1-a166939f225c text,#chart-8a3e7ce6-8629-4e1f-b3d1-a166939f225c tspan{stroke:none !important}#chart-8a3e7ce6-8629-4e1f-b3d1-a166939f225c .series text.active{opacity:1}#chart-8a3e7ce6-8629-4e1f-b3d1-a166939f225c .tooltip rect{fill-opacity:.95;stroke-width:.5}#chart-8a3e7ce6-8629-4e1f-b3d1-a166939f225c .tooltip text{fill-opacity:1}#chart-8a3e7ce6-8629-4e1f-b3d1-a166939f225c .showable{visibility:hidden}#chart-8a3e7ce6-8629-4e1f-b3d1-a166939f225c .showable.shown{visibility:visible}#chart-8a3e7ce6-8629-4e1f-b3d1-a166939f225c .gauge-background{fill:rgba(229,229,229,1);stroke:none}#chart-8a3e7ce6-8629-4e1f-b3d1-a166939f225c .bg-lines{stroke:rgba(249,249,249,1);stroke-width:2px}</style><script type="text/javascript">window.pygal = window.pygal || {};window.pygal.config = window.pygal.config || {};window.pygal.config['8a3e7ce6-8629-4e1f-b3d1-a166939f225c'] = {"allow_interruptions": false, "box_mode": "extremes", "classes": ["pygal-chart"], "css": ["file://style.css", "file://graph.css"], "defs": [], "disable_xml_declaration": false, "dots_size": 2.5, "dynamic_print_values": false, "explicit_size": false, "fill": false, "force_uri_protocol": "https", "formatter": null, "half_pie": false, "height": 600, "include_x_axis": false, "inner_radius": 0, "interpolate": null, "interpolation_parameters": {}, "interpolation_precision": 250, "inverse_y_axis": false, "js": ["//kozea.github.io/pygal.js/2.0.x/pygal-tooltips.min.js"], "legend_at_bottom": true, "legend_at_bottom_columns": null, "legend_box_size": 12, "logarithmic": false, "margin": 20, "margin_bottom": null, "margin_left": null, "margin_right": null, "margin_top": null, "max_scale": 16, "min_scale": 4, "missing_value_fill_truncation": "x", "no_data_text": "No data", "no_prefix": false, "order_min": null, "pretty_print": false, "print_labels": false, "print_values": false, "print_values_position": "center", "print_zeroes": true, "range": null, "rounded_bars": null, "secondary_range": null, "show_dots": true, "show_legend": true, "show_minor_x_labels": false, "show_minor_y_labels": true, "show_only_major_dots": false, "show_x_guides": false, "show_x_labels": true, "show_y_guides": true, "show_y_labels": true, "spacing": 10, "stack_from_top": false, "strict": false, "stroke": true, "stroke_style": null, "style": {"background": "rgba(249, 249, 249, 1)", "ci_colors": [], "colors": ["red", "blue", "green", "#a3a3a3"], "font_family": "Consolas, \"Liberation Mono\", Menlo, Courier, monospace", "foreground": "rgba(0, 0, 0, .87)", "foreground_strong": "rgba(0, 0, 0, 1)", "foreground_subtle": "rgba(0, 0, 0, .54)", "guide_stroke_dasharray": "4,4", "label_font_family": "Consolas, \"Liberation Mono\", Menlo, Courier, monospace", "label_font_size": 10, "legend_font_family": "Consolas, \"Liberation Mono\", Menlo, Courier, monospace", "legend_font_size": 14, "major_guide_stroke_dasharray": "6,6", "major_label_font_family": "Consolas, \"Liberation Mono\", Menlo, Courier, monospace", "major_label_font_size": 10, "no_data_font_family": "Consolas, \"Liberation Mono\", Menlo, Courier, monospace", "no_data_font_size": 64, "opacity": ".7", "opacity_hover": ".8", "plot_background": "rgba(255, 255, 255, 1)", "stroke_opacity": ".8", "stroke_opacity_hover": ".9", "title_font_family": "Consolas, \"Liberation Mono\", Menlo, Courier, monospace", "title_font_size": 16, "tooltip_font_family": "Consolas, \"Liberation Mono\", Menlo, Courier, monospace", "tooltip_font_size": 14, "transition": "150ms", "value_background": "rgba(229, 229, 229, 1)", "value_colors": [], "value_font_family": "Consolas, \"Liberation Mono\", Menlo, Courier, monospace", "value_font_size": 16, "value_label_font_family": "Consolas, \"Liberation Mono\", Menlo, Courier, monospace", "value_label_font_size": 10}, "title": "AB Agarkar: Future and Past Averages in ODIs", "tooltip_border_radius": 10, "tooltip_fancy_mode": true, "truncate_label": null, "truncate_legend": null, "width": 800, "x_label_rotation": 45, "x_labels": ["1998", "0", "0", "0", "0", "0", "0", "0", "0", "0", "0", "0", "0", "0", "0", "0", "0", "0", "0", "0", "0", "0", "0", "0", "0", "0", "0", "0", "0", "0", "1999", "0", "0", "0", "0", "0", "0", "0", "0", "0", "0", "2000", "0", "0", "0", "0", "0", "0", "0", "0", "0", "0", "0", "0", "0", "0", "0", "0", "0", "0", "0", "0", "0", "0", "0", "0", "0", "0", "0", "2001", "0", "0", "0", "0", "0", "0", "0", "0", "0", "0", "0", "2002", "0", "0", "0", "0", "0", "0", "0", "0", "0", "0", "0", "0", "0", "0", "0", "0", "0", "0", "0", "0", "0", "0", "0", "0", "0", "2003", "0", "0", "0", "0", "0", "0", "0", "0", "0", "0", "0", "2004", "0", "0", "0", "0", "0", "0", "0", "0", "0", "0", "0", "0", "2005", "0", "0", "0", "0", "0", "0", "0", "0", "0", "0", "0", "0", "0", "0", "0", "2006", "0", "0", "0", "0", "0", "0", "0", "0", "0", "0", "0", "0", "0", "0", "0", "0", "0", "0", "0", "0", "0", "0", "2007", "0", "0", "0", "0", "0", "0", "0", "0", "0", "0", "0", "0", "0", "0", "0", "0"], "x_labels_major": ["1998", "1999", "2000", "2001", "2002", "2003", "2004", "2005", "2006", "2007"], "x_labels_major_count": null, "x_labels_major_every": null, "x_title": null, "xrange": null, "y_label_rotation": 0, "y_labels": null, "y_labels_major": null, "y_labels_major_count": null, "y_labels_major_every": null, "y_title": null, "zero": 70.0, "legends": ["Future Average", "Past Average", "Career Average"]}</script><script type="text/javascript" xlink:href="https://kozea.github.io/pygal.js/2.0.x/pygal-tooltips.min.js"/></defs><title>AB Agarkar: Future and Past Averages in ODIs</title><g class="graph line-graph vertical"><rect class="background" height="600" width="800" x="0" y="0"/><g class="plot" transform="translate(42, 46)"><rect class="background" height="462.02943725152284" width="738.0" x="0" y="0"/><g class="axis y always_show"><g class="guides"><path class="axis major line" d="M0.000000 453.144256 h738.000000"/><text class="major" x="-5" y="456.6442557659166">0</text><title>0</title></g><g class="guides"><path class="guide line" d="M0.000000 382.626942 h738.000000"/><text class="" x="-5" y="386.12694238808956">10</text><title>10</title></g><g class="guides"><path class="guide line" d="M0.000000 312.109629 h738.000000"/><text class="" x="-5" y="315.60962901026255">20</text><title>20</title></g><g class="guides"><path class="guide line" d="M0.000000 241.592316 h738.000000"/><text class="" x="-5" y="245.09231563243551">30</text><title>30</title></g><g class="guides"><path class="guide line" d="M0.000000 171.075002 h738.000000"/><text class="" x="-5" y="174.57500225460848">40</text><title>40</title></g><g class="guides"><path class="major guide line" d="M0.000000 100.557689 h738.000000"/><text class="major" x="-5" y="104.05768887678141">50</text><title>50</title></g><g class="guides"><path class="guide line" d="M0.000000 30.040375 h738.000000"/><text class="" x="-5" y="33.540375498954404">60</text><title>60</title></g></g><g class="axis x"><g class="guides"><path class="major line" d="M14.192308 0.000000 v462.029437"/><text class="major" x="14.192307692307692" y="477.02943725152284" transform="rotate(45 14.192308 477.029437)">1998</text></g><g class="guides"><path class="major guide line" d="M128.034348 0.000000 v462.029437"/><text class="major" x="128.03434800493625" y="477.02943725152284" transform="rotate(45 128.034348 477.029437)">1999</text></g><g class="guides"><path class="major guide line" d="M169.776429 0.000000 v462.029437"/><text class="major" x="169.77642945290003" y="477.02943725152284" transform="rotate(45 169.776429 477.029437)">2000</text></g><g class="guides"><path class="major guide line" d="M276.029000 0.000000 v462.029437"/><text class="major" x="276.0290004113533" y="477.02943725152284" transform="rotate(45 276.029000 477.029437)">2001</text></g><g class="guides"><path class="major guide line" d="M321.565817 0.000000 v462.029437"/><text class="major" x="321.5658165364048" y="477.02943725152284" transform="rotate(45 321.565817 477.029437)">2002</text></g><g class="guides"><path class="major guide line" d="M420.228918 0.000000 v462.029437"/><text class="major" x="420.2289181406828" y="477.02943725152284" transform="rotate(45 420.228918 477.029437)">2003</text></g><g class="guides"><path class="major guide line" d="M465.765734 0.000000 v462.029437"/><text class="major" x="465.76573426573424" y="477.02943725152284" transform="rotate(45 465.765734 477.029437)">2004</text></g><g class="guides"><path class="major guide line" d="M515.097285 0.000000 v462.029437"/><text class="major" x="515.0972850678734" y="477.02943725152284" transform="rotate(45 515.097285 477.029437)">2005</text></g><g class="guides"><path class="major guide line" d="M575.813040 0.000000 v462.029437"/><text class="major" x="575.8130399012751" y="477.02943725152284" transform="rotate(45 575.813040 477.029437)">2006</text></g><g class="guides"><path class="major guide line" d="M663.091937 0.000000 v462.029437"/><text class="major" x="663.0919374742904" y="477.02943725152284" transform="rotate(45 663.091937 477.029437)">2007</text></g></g><g class="series serie-0 color-0"><path class="line reactive nofill" d="M14.192308 256.753538 L17.987042 256.824055 21.781777 257.529228 25.576512 255.907330 29.371246 255.625261 33.165981 255.554744 36.960716 253.580259 40.755450 253.721294 44.550185 252.522499 48.344920 252.028878 52.139654 250.548014 55.934389 249.983876 59.729124 249.067151 63.523858 247.727322 67.318593 248.785082 71.113328 247.022149 74.908063 246.740080 78.702797 246.740080 82.497532 246.740080 86.292267 247.022149 90.087001 248.291460 93.881736 247.022149 97.676471 247.515770 101.471205 247.092666 105.265940 248.079908 109.060675 248.785082 112.855409 248.714564 116.650144 249.560772 120.444879 248.009391 124.239613 249.278703 128.034348 249.490255 131.829083 247.233701 135.623817 248.573530 139.418552 246.951631 143.213287 248.009391 147.008021 247.445253 150.802756 249.137668 154.597491 250.054393 158.392225 251.394222 162.186960 251.535257 165.981695 252.028878 169.776429 253.298190 173.571164 252.734051 177.365899 253.368707 181.160633 255.343192 184.955368 255.695778 188.750103 257.529228 192.544838 255.836813 196.339572 257.106125 200.134307 259.151127 203.929042 260.138369 207.723776 260.279404 211.518511 261.055094 215.313246 262.535958 219.107980 262.888544 222.902715 262.888544 226.697450 262.676992 230.492184 262.183371 234.286919 262.324406 238.081654 263.100096 241.876388 264.651477 245.671123 264.157856 249.465858 264.721994 253.260592 266.061823 257.055327 264.933546 260.850062 267.401652 264.644796 268.177343 268.439531 268.882516 272.234266 265.779754 276.029000 263.734752 279.823735 264.792512 283.618470 263.100096 287.413204 264.580960 291.207939 266.343893 295.002674 264.157856 298.797408 265.356650 302.592143 266.061823 306.386878 265.568202 310.181613 262.183371 313.976347 263.734752 317.771082 264.369408 321.565817 265.779754 325.360551 264.439925 329.155286 265.286133 332.950021 262.042337 336.744755 263.805269 340.539490 264.157856 344.334225 266.343893 348.128959 268.388895 351.923694 267.965791 355.718429 266.837514 359.513163 263.311648 363.307898 265.427168 367.102633 263.241131 370.897367 263.946304 374.692102 261.548715 378.486837 264.016821 382.281571 262.112854 386.076306 262.112854 389.871041 260.914059 393.665775 261.478198 397.460510 261.971819 401.255245 262.465440 405.049979 263.311648 408.844714 265.850271 412.639449 269.235102 416.434183 266.202858 420.228918 266.414410 424.023653 263.311648 427.818387 264.792512 431.613122 265.215616 435.407857 261.548715 439.202592 259.926817 442.997326 257.035607 446.792061 259.151127 450.586796 261.760267 454.381530 257.176642 458.176265 258.022850 461.971000 256.189400 465.765734 257.670263 469.560469 248.926116 473.355204 251.676291 477.149938 254.990605 480.944673 251.676291 484.739408 251.605774 488.534142 255.907330 492.328877 256.824055 496.123612 259.292161 499.918346 260.349921 503.713081 260.843542 507.507816 260.561473 511.302550 258.586988 515.097285 256.683021 518.892020 254.496984 522.686754 253.509742 526.481489 244.624560 530.276224 244.836112 534.070958 239.406279 537.865693 243.707835 541.660428 245.682320 545.455162 245.400251 549.249897 245.752837 553.044632 234.187998 556.839367 233.835411 560.634101 232.001961 564.428836 231.085236 568.223571 230.239028 572.018305 235.386792 575.813040 239.547314 579.607775 239.265244 583.402509 238.066450 587.197244 240.887142 590.991979 242.015420 594.786713 246.246458 598.581448 242.650075 602.376183 246.740080 606.170917 242.791110 609.965652 242.861627 613.760387 239.265244 617.555121 233.130238 621.349856 227.700405 625.144591 226.219541 628.939325 222.200054 632.734060 226.924714 636.528795 223.962987 640.323529 214.513667 644.118264 208.942800 647.912999 216.911256 651.707733 213.103321 655.502468 207.391419 659.297203 217.616429 663.091937 226.924714 666.886672 239.547314 670.681407 237.290760 674.476142 220.789708 678.270876 210.635215 682.065611 226.290059 685.860346 220.860225 689.655080 238.912658 693.449815 210.141594 697.244550 209.295386 701.039284 204.429691 704.834019 165.574652 708.628754 137.861348 712.423488 203.301414 716.218223 270.786483 720.012958 168.747931 723.807692 8.885181"/></g><g class="series serie-1 color-1"><path class="line reactive nofill" d="M14.192308 453.144256 L17.987042 234.540584 21.781777 142.868077 25.576512 295.679095 29.371246 295.326508 33.165981 289.544089 36.960716 318.667739 40.755450 308.583763 44.550185 316.199633 48.344920 317.116358 52.139654 325.014297 55.934389 324.591193 59.729124 325.225849 63.523858 328.892750 67.318593 320.289637 71.113328 324.661711 74.908063 322.687226 78.702797 318.808774 82.497532 315.282908 86.292267 310.840317 90.087001 303.435999 93.881736 306.679796 97.676471 303.012896 101.471205 302.660309 105.265940 297.159959 109.060675 293.704610 112.855409 292.294264 116.650144 287.851673 120.444879 292.223747 124.239613 287.146500 128.034348 285.595119 131.829083 292.223747 135.623817 286.511844 139.418552 290.390296 143.213287 286.159258 147.008021 286.793914 150.802756 281.434598 154.597491 278.049767 158.392225 273.536659 162.186960 272.549416 165.981695 270.998035 169.776429 266.908031 173.571164 268.177343 177.365899 266.273375 181.160633 260.702508 184.955368 259.644748 188.750103 254.567501 192.544838 259.080609 196.339572 255.836813 200.134307 250.477497 203.929042 247.938874 207.723776 247.797839 211.518511 245.964389 215.313246 242.226971 219.107980 241.592316 222.902715 242.015420 226.697450 243.073179 230.492184 244.624560 234.286919 244.624560 238.081654 243.002662 241.876388 239.547314 245.671123 241.239729 249.465858 240.252487 253.260592 237.431794 257.055327 240.675591 260.850062 235.809896 264.644796 234.893171 268.439531 233.976446 272.234266 240.746108 276.029000 244.977147 279.823735 243.355248 283.618470 246.599045 287.413204 244.483525 291.207939 241.662833 295.002674 245.611802 298.797408 243.989904 302.592143 243.073179 306.386878 244.271974 310.181613 249.490255 313.976347 247.515770 317.771082 246.669562 321.565817 244.836112 325.360551 246.951631 329.155286 246.034906 332.950021 250.548014 336.744755 248.361978 340.539490 248.220943 344.334225 245.752837 348.128959 243.355248 351.923694 244.201456 355.718429 245.752837 359.513163 250.054393 363.307898 247.868357 367.102633 250.336462 370.897367 249.631289 374.692102 252.240430 378.486837 249.913359 382.281571 251.887843 386.076306 251.887843 389.871041 253.086638 393.665775 252.593017 397.460510 252.240430 401.255245 251.887843 405.049979 251.323705 408.844714 249.208185 412.639449 246.387493 416.434183 249.208185 420.228918 249.278703 424.023653 251.817326 427.818387 250.759566 431.613122 250.548014 435.407857 253.368707 439.202592 254.567501 442.997326 256.541986 446.792061 255.202157 450.586796 253.439224 454.381530 256.471469 458.176265 255.977848 461.971000 257.035607 465.765734 256.189400 469.560469 260.914059 473.355204 259.433196 477.149938 257.670263 480.944673 259.292161 484.739408 259.292161 488.534142 257.176642 492.328877 256.683021 496.123612 255.554744 499.918346 255.061122 503.713081 254.849571 507.507816 255.061122 511.302550 255.907330 515.097285 256.753538 518.892020 257.670263 522.686754 258.022850 526.481489 261.055094 530.276224 260.843542 534.070958 262.394923 537.865693 261.055094 541.660428 260.349921 545.455162 260.420438 549.249897 260.138369 553.044632 263.029579 556.839367 262.888544 560.634101 263.100096 564.428836 263.100096 568.223571 263.170614 572.018305 261.901302 575.813040 260.914059 579.607775 260.773025 583.402509 260.843542 587.197244 260.208886 590.991979 259.926817 594.786713 258.939575 598.581448 259.574231 602.376183 258.728023 606.170917 259.362679 609.965652 259.292161 613.760387 259.785782 617.555121 260.631990 621.349856 261.337163 625.144591 261.407681 628.939325 261.689750 632.734060 260.984577 636.528795 261.125611 640.323529 262.042337 644.118264 262.324406 647.912999 261.407681 651.707733 261.478198 655.502468 261.619233 659.297203 260.490956 663.091937 259.574231 666.886672 258.304919 670.681407 258.445954 674.476142 259.433196 678.270876 259.856300 682.065611 258.798540 685.860346 258.869057 689.655080 257.811298 693.449815 258.939575 697.244550 258.798540 701.039284 258.798540 704.834019 259.715265 708.628754 259.715265 712.423488 258.093367 716.218223 256.400951 720.012958 257.670263 723.807692 257.599746"/></g><g class="series serie-2 color-2"><path class="line reactive nofill" d="M14.192308 256.753538 L17.987042 256.753538 21.781777 256.753538 25.576512 256.753538 29.371246 256.753538 33.165981 256.753538 36.960716 256.753538 40.755450 256.753538 44.550185 256.753538 48.344920 256.753538 52.139654 256.753538 55.934389 256.753538 59.729124 256.753538 63.523858 256.753538 67.318593 256.753538 71.113328 256.753538 74.908063 256.753538 78.702797 256.753538 82.497532 256.753538 86.292267 256.753538 90.087001 256.753538 93.881736 256.753538 97.676471 256.753538 101.471205 256.753538 105.265940 256.753538 109.060675 256.753538 112.855409 256.753538 116.650144 256.753538 120.444879 256.753538 124.239613 256.753538 128.034348 256.753538 131.829083 256.753538 135.623817 256.753538 139.418552 256.753538 143.213287 256.753538 147.008021 256.753538 150.802756 256.753538 154.597491 256.753538 158.392225 256.753538 162.186960 256.753538 165.981695 256.753538 169.776429 256.753538 173.571164 256.753538 177.365899 256.753538 181.160633 256.753538 184.955368 256.753538 188.750103 256.753538 192.544838 256.753538 196.339572 256.753538 200.134307 256.753538 203.929042 256.753538 207.723776 256.753538 211.518511 256.753538 215.313246 256.753538 219.107980 256.753538 222.902715 256.753538 226.697450 256.753538 230.492184 256.753538 234.286919 256.753538 238.081654 256.753538 241.876388 256.753538 245.671123 256.753538 249.465858 256.753538 253.260592 256.753538 257.055327 256.753538 260.850062 256.753538 264.644796 256.753538 268.439531 256.753538 272.234266 256.753538 276.029000 256.753538 279.823735 256.753538 283.618470 256.753538 287.413204 256.753538 291.207939 256.753538 295.002674 256.753538 298.797408 256.753538 302.592143 256.753538 306.386878 256.753538 310.181613 256.753538 313.976347 256.753538 317.771082 256.753538 321.565817 256.753538 325.360551 256.753538 329.155286 256.753538 332.950021 256.753538 336.744755 256.753538 340.539490 256.753538 344.334225 256.753538 348.128959 256.753538 351.923694 256.753538 355.718429 256.753538 359.513163 256.753538 363.307898 256.753538 367.102633 256.753538 370.897367 256.753538 374.692102 256.753538 378.486837 256.753538 382.281571 256.753538 386.076306 256.753538 389.871041 256.753538 393.665775 256.753538 397.460510 256.753538 401.255245 256.753538 405.049979 256.753538 408.844714 256.753538 412.639449 256.753538 416.434183 256.753538 420.228918 256.753538 424.023653 256.753538 427.818387 256.753538 431.613122 256.753538 435.407857 256.753538 439.202592 256.753538 442.997326 256.753538 446.792061 256.753538 450.586796 256.753538 454.381530 256.753538 458.176265 256.753538 461.971000 256.753538 465.765734 256.753538 469.560469 256.753538 473.355204 256.753538 477.149938 256.753538 480.944673 256.753538 484.739408 256.753538 488.534142 256.753538 492.328877 256.753538 496.123612 256.753538 499.918346 256.753538 503.713081 256.753538 507.507816 256.753538 511.302550 256.753538 515.097285 256.753538 518.892020 256.753538 522.686754 256.753538 526.481489 256.753538 530.276224 256.753538 534.070958 256.753538 537.865693 256.753538 541.660428 256.753538 545.455162 256.753538 549.249897 256.753538 553.044632 256.753538 556.839367 256.753538 560.634101 256.753538 564.428836 256.753538 568.223571 256.753538 572.018305 256.753538 575.813040 256.753538 579.607775 256.753538 583.402509 256.753538 587.197244 256.753538 590.991979 256.753538 594.786713 256.753538 598.581448 256.753538 602.376183 256.753538 606.170917 256.753538 609.965652 256.753538 613.760387 256.753538 617.555121 256.753538 621.349856 256.753538 625.144591 256.753538 628.939325 256.753538 632.734060 256.753538 636.528795 256.753538 640.323529 256.753538 644.118264 256.753538 647.912999 256.753538 651.707733 256.753538 655.502468 256.753538 659.297203 256.753538 663.091937 256.753538 666.886672 256.753538 670.681407 256.753538 674.476142 256.753538 678.270876 256.753538 682.065611 256.753538 685.860346 256.753538 689.655080 256.753538 693.449815 256.753538 697.244550 256.753538 701.039284 256.753538 704.834019 256.753538 708.628754 256.753538 712.423488 256.753538 716.218223 256.753538 720.012958 256.753538 723.807692 256.753538"/></g></g><g class="titles"><text class="title plot_title" x="400.0" y="26">AB Agarkar: Future and Past Averages in ODIs</text></g><g class="plot overlay" transform="translate(42, 46)"><g class="series serie-0 color-0"><g class="dots"><desc class="label">288 wickets in 188 innings (1580.4 overs)</desc><circle class="dot reactive tooltip-trigger" cx="14.192307692307692" cy="256.75353800866833" r="2.5"/><desc class="value">27.85</desc><desc class="x top">14.192307692307692</desc><desc class="y top">256.75353800866833</desc><desc class="x_label">1998</desc></g><g class="dots"><desc class="label">230 wickets in 158 innings (1311.5 overs)</desc><circle class="dot reactive tooltip-trigger" cx="128.03434800493625" cy="249.49025473075213" r="2.5"/><desc class="value">28.88</desc><desc class="x top">128.03434800493625</desc><desc class="y top">249.49025473075213</desc><desc class="x_label">1999</desc></g><g class="dots"><desc class="label">215 wickets in 147 innings (1216.5 overs)</desc><circle class="dot reactive tooltip-trigger" cx="169.77642945290003" cy="253.2981896531548" r="2.5"/><desc class="value">28.34</desc><desc class="x top">169.77642945290003</desc><desc class="y top">253.2981896531548</desc><desc class="x_label">2000</desc></g><g class="dots"><desc class="label">181 wickets in 119 innings (965.4 overs)</desc><circle class="dot reactive tooltip-trigger" cx="276.0290004113533" cy="263.73475203307316" r="2.5"/><desc class="value">26.86</desc><desc class="x top">276.0290004113533</desc><desc class="y top">263.73475203307316</desc><desc class="x_label">2001</desc></g><g class="dots"><desc class="label">164 wickets in 107 innings (864.2 overs)</desc><circle class="dot reactive tooltip-trigger" cx="321.5658165364048" cy="265.7797541210302" r="2.5"/><desc class="value">26.57</desc><desc class="x top">321.5658165364048</desc><desc class="y top">265.7797541210302</desc><desc class="x_label">2002</desc></g><g class="dots"><desc class="label">126 wickets in 81 innings (671.0 overs)</desc><circle class="dot reactive tooltip-trigger" cx="420.2289181406828" cy="266.41440994143056" r="2.5"/><desc class="value">26.48</desc><desc class="x left top">420.2289181406828</desc><desc class="y left top">266.41440994143056</desc><desc class="x_label">2003</desc></g><g class="dots"><desc class="label">106 wickets in 69 innings (584.1 overs)</desc><circle class="dot reactive tooltip-trigger" cx="465.76573426573424" cy="257.67026308258005" r="2.5"/><desc class="value">27.72</desc><desc class="x left top">465.76573426573424</desc><desc class="y left top">257.67026308258005</desc><desc class="x_label">2004</desc></g><g class="dots"><desc class="label">85 wickets in 56 innings (472.3 overs)</desc><circle class="dot reactive tooltip-trigger" cx="515.0972850678734" cy="256.68302069529045" r="2.5"/><desc class="value">27.86</desc><desc class="x left top">515.0972850678734</desc><desc class="y left top">256.68302069529045</desc><desc class="x_label">2005</desc></g><g class="dots"><desc class="label">56 wickets in 40 innings (342.5 overs)</desc><circle class="dot reactive tooltip-trigger" cx="575.8130399012751" cy="239.5473135444785" r="2.5"/><desc class="value">30.29</desc><desc class="x left top">575.8130399012751</desc><desc class="y left top">239.5473135444785</desc><desc class="x_label">2006</desc></g><g class="dots"><desc class="label">25 wickets in 17 innings (154.0 overs)</desc><circle class="dot reactive tooltip-trigger" cx="663.0919374742904" cy="226.92471444984753" r="2.5"/><desc class="value">32.08</desc><desc class="x left">663.0919374742904</desc><desc class="y left">226.92471444984753</desc><desc class="x_label">2007</desc></g></g><g class="series serie-1 color-1"><g class="dots"><desc class="label">0 wickets over 0 innings</desc><circle class="dot reactive tooltip-trigger" cx="14.192307692307692" cy="453.1442557659166" r="2.5"/><desc class="value">0</desc><desc class="x top">14.192307692307692</desc><desc class="y top">453.1442557659166</desc><desc class="x_label">1998</desc></g><g class="dots"><desc class="label">58 wickets in 30 innings (268.5 overs)</desc><circle class="dot reactive tooltip-trigger" cx="128.03434800493625" cy="285.59511918019956" r="2.5"/><desc class="value">23.76</desc><desc class="x top">128.03434800493625</desc><desc class="y top">285.59511918019956</desc><desc class="x_label">1999</desc></g><g class="dots"><desc class="label">73 wickets in 41 innings (363.5 overs)</desc><circle class="dot reactive tooltip-trigger" cx="169.77642945290003" cy="266.90803113507536" r="2.5"/><desc class="value">26.41</desc><desc class="x top">169.77642945290003</desc><desc class="y top">266.90803113507536</desc><desc class="x_label">2000</desc></g><g class="dots"><desc class="label">107 wickets in 69 innings (615.0 overs)</desc><circle class="dot reactive tooltip-trigger" cx="276.0290004113533" cy="244.9771466745712" r="2.5"/><desc class="value">29.52</desc><desc class="x top">276.0290004113533</desc><desc class="y top">244.9771466745712</desc><desc class="x_label">2001</desc></g><g class="dots"><desc class="label">124 wickets in 81 innings (716.2 overs)</desc><circle class="dot reactive tooltip-trigger" cx="321.5658165364048" cy="244.83611204781553" r="2.5"/><desc class="value">29.54</desc><desc class="x top">321.5658165364048</desc><desc class="y top">244.83611204781553</desc><desc class="x_label">2002</desc></g><g class="dots"><desc class="label">162 wickets in 107 innings (909.4 overs)</desc><circle class="dot reactive tooltip-trigger" cx="420.2289181406828" cy="249.27870279061864" r="2.5"/><desc class="value">28.91</desc><desc class="x left top">420.2289181406828</desc><desc class="y left top">249.27870279061864</desc><desc class="x_label">2003</desc></g><g class="dots"><desc class="label">182 wickets in 119 innings (996.3 overs)</desc><circle class="dot reactive tooltip-trigger" cx="465.76573426573424" cy="256.1893995016457" r="2.5"/><desc class="value">27.93</desc><desc class="x left top">465.76573426573424</desc><desc class="y left top">256.1893995016457</desc><desc class="x_label">2004</desc></g><g class="dots"><desc class="label">203 wickets in 132 innings (1108.1 overs)</desc><circle class="dot reactive tooltip-trigger" cx="515.0972850678734" cy="256.75353800866833" r="2.5"/><desc class="value">27.85</desc><desc class="x left top">515.0972850678734</desc><desc class="y left top">256.75353800866833</desc><desc class="x_label">2005</desc></g><g class="dots"><desc class="label">232 wickets in 148 innings (1237.5 overs)</desc><circle class="dot reactive tooltip-trigger" cx="575.8130399012751" cy="260.9140594979601" r="2.5"/><desc class="value">27.26</desc><desc class="x left top">575.8130399012751</desc><desc class="y left top">260.9140594979601</desc><desc class="x_label">2006</desc></g><g class="dots"><desc class="label">263 wickets in 171 innings (1426.4 overs)</desc><circle class="dot reactive tooltip-trigger" cx="663.0919374742904" cy="259.57423054378137" r="2.5"/><desc class="value">27.45</desc><desc class="x left top">663.0919374742904</desc><desc class="y left top">259.57423054378137</desc><desc class="x_label">2007</desc></g></g><g class="series serie-2 color-2"/></g><g class="plot text-overlay" transform="translate(42, 46)"><g class="series serie-0 color-0"/><g class="series serie-1 color-1"/><g class="series serie-2 color-2"/></g><g class="plot tooltip-overlay" transform="translate(42, 46)"><g class="tooltip" style="opacity: 0" transform="translate(0 0)"><rect class="tooltip-box" height="0" rx="10" ry="10" width="0"/><g class="text"/></g></g><g class="legends" transform="translate(52, 545)"><g class="legend reactive activate-serie" id="activate-serie-0"><rect class="color-0 reactive" height="12" width="12" x="0.0" y="1.0"/><text x="17.0" y="11.2">Future Average</text></g><g class="legend reactive activate-serie" id="activate-serie-1"><rect class="color-1 reactive" height="12" width="12" x="369.0" y="1.0"/><text x="386.0" y="11.2">Past Average</text></g><g class="legend reactive activate-serie" id="activate-serie-2"><rect class="color-2 reactive" height="12" width="12" x="0.0" y="22.0"/><text x="17.0" y="32.2">Career Average</text></g></g></g></svg>