<?xml version='1.0' encoding='utf-8'?>
<svg xmlns:xlink="http://www.w3.org/1999/xlink" xmlns="http://www.w3.org/2000/svg" id="chart-1a875248-a545-423f-8a7f-f2025dcce171" class="pygal-chart" viewBox="0 0 800 600"><!--Generated with pygal 2.4.0 (lxml) ©Kozea 2012-2016 on 2019-08-04--><!--http://pygal.org--><!--http://github.com/Kozea/pygal--><defs><style type="text/css">#chart-1a875248-a545-423f-8a7f-f2025dcce171{-webkit-user-select:none;-webkit-font-smoothing:antialiased;font-family:Consolas,"Liberation Mono",Menlo,Courier,monospace}#chart-1a875248-a545-423f-8a7f-f2025dcce171 .title{font-family:Consolas,"Liberation Mono",Menlo,Courier,monospace;font-size:16px}#chart-1a875248-a545-423f-8a7f-f2025dcce171 .legends .legend text{font-family:Consolas,"Liberation Mono",Menlo,Courier,monospace;font-size:14px}#chart-1a875248-a545-423f-8a7f-f2025dcce171 .axis text{font-family:Consolas,"Liberation Mono",Menlo,Courier,monospace;font-size:10px}#chart-1a875248-a545-423f-8a7f-f2025dcce171 .axis text.major{font-family:Consolas,"Liberation Mono",Menlo,Courier,monospace;font-size:10px}#chart-1a875248-a545-423f-8a7f-f2025dcce171 .text-overlay text.value{font-family:Consolas,"Liberation Mono",Menlo,Courier,monospace;font-size:16px}#chart-1a875248-a545-423f-8a7f-f2025dcce171 .text-overlay text.label{font-family:Consolas,"Liberation Mono",Menlo,Courier,monospace;font-size:10px}#chart-1a875248-a545-423f-8a7f-f2025dcce171 .tooltip{font-family:Consolas,"Liberation Mono",Menlo,Courier,monospace;font-size:14px}#chart-1a875248-a545-423f-8a7f-f2025dcce171 text.no_data{font-family:Consolas,"Liberation Mono",Menlo,Courier,monospace;font-size:64px}
#chart-1a875248-a545-423f-8a7f-f2025dcce171{background-color:rgba(249,249,249,1)}#chart-1a875248-a545-423f-8a7f-f2025dcce171 path,#chart-1a875248-a545-423f-8a7f-f2025dcce171 line,#chart-1a875248-a545-423f-8a7f-f2025dcce171 rect,#chart-1a875248-a545-423f-8a7f-f2025dcce171 circle{-webkit-transition:150ms;-moz-transition:150ms;transition:150ms}#chart-1a875248-a545-423f-8a7f-f2025dcce171 .graph &gt; .background{fill:rgba(249,249,249,1)}#chart-1a875248-a545-423f-8a7f-f2025dcce171 .plot &gt; .background{fill:rgba(255,255,255,1)}#chart-1a875248-a545-423f-8a7f-f2025dcce171 .graph{fill:rgba(0,0,0,.87)}#chart-1a875248-a545-423f-8a7f-f2025dcce171 text.no_data{fill:rgba(0,0,0,1)}#chart-1a875248-a545-423f-8a7f-f2025dcce171 .title{fill:rgba(0,0,0,1)}#chart-1a875248-a545-423f-8a7f-f2025dcce171 .legends .legend text{fill:rgba(0,0,0,.87)}#chart-1a875248-a545-423f-8a7f-f2025dcce171 .legends .legend:hover text{fill:rgba(0,0,0,1)}#chart-1a875248-a545-423f-8a7f-f2025dcce171 .axis .line{stroke:rgba(0,0,0,1)}#chart-1a875248-a545-423f-8a7f-f2025dcce171 .axis .guide.line{stroke:rgba(0,0,0,.54)}#chart-1a875248-a545-423f-8a7f-f2025dcce171 .axis .major.line{stroke:rgba(0,0,0,.87)}#chart-1a875248-a545-423f-8a7f-f2025dcce171 .axis text.major{fill:rgba(0,0,0,1)}#chart-1a875248-a545-423f-8a7f-f2025dcce171 .axis.y .guides:hover .guide.line,#chart-1a875248-a545-423f-8a7f-f2025dcce171 .line-graph .axis.x .guides:hover .guide.line,#chart-1a875248-a545-423f-8a7f-f2025dcce171 .stackedline-graph .axis.x .guides:hover .guide.line,#chart-1a875248-a545-423f-8a7f-f2025dcce171 .xy-graph .axis.x .guides:hover .guide.line{stroke:rgba(0,0,0,1)}#chart-1a875248-a545-423f-8a7f-f2025dcce171 .axis .guides:hover text{fill:rgba(0,0,0,1)}#chart-1a875248-a545-423f-8a7f-f2025dcce171 .reactive{fill-opacity:.7;stroke-opacity:.8}#chart-1a875248-a545-423f-8a7f-f2025dcce171 .ci{stroke:rgba(0,0,0,.87)}#chart-1a875248-a545-423f-8a7f-f2025dcce171 .reactive.active,#chart-1a875248-a545-423f-8a7f-f2025dcce171 .active .reactive{fill-opacity:.8;stroke-opacity:.9;stroke-width:4}#chart-1a875248-a545-423f-8a7f-f2025dcce171 .ci .reactive.active{stroke-width:1.5}#chart-1a875248-a545-423f-8a7f-f2025dcce171 .series text{fill:rgba(0,0,0,1)}#chart-1a875248-a545-423f-8a7f-f2025dcce171 .tooltip rect{fill:rgba(255,255,255,1);stroke:rgba(0,0,0,1);-webkit-transition:opacity 150ms;-moz-transition:opacity 150ms;transition:opacity 150ms}#chart-1a875248-a545-423f-8a7f-f2025dcce171 .tooltip .label{fill:rgba(0,0,0,.87)}#chart-1a875248-a545-423f-8a7f-f2025dcce171 .tooltip .label{fill:rgba(0,0,0,.87)}#chart-1a875248-a545-423f-8a7f-f2025dcce171 .tooltip .legend{font-size:.8em;fill:rgba(0,0,0,.54)}#chart-1a875248-a545-423f-8a7f-f2025dcce171 .tooltip .x_label{font-size:.6em;fill:rgba(0,0,0,1)}#chart-1a875248-a545-423f-8a7f-f2025dcce171 .tooltip .xlink{font-size:.5em;text-decoration:underline}#chart-1a875248-a545-423f-8a7f-f2025dcce171 .tooltip .value{font-size:1.5em}#chart-1a875248-a545-423f-8a7f-f2025dcce171 .bound{font-size:.5em}#chart-1a875248-a545-423f-8a7f-f2025dcce171 .max-value{font-size:.75em;fill:rgba(0,0,0,.54)}#chart-1a875248-a545-423f-8a7f-f2025dcce171 .map-element{fill:rgba(255,255,255,1);stroke:rgba(0,0,0,.54) !important}#chart-1a875248-a545-423f-8a7f-f2025dcce171 .map-element .reactive{fill-opacity:inherit;stroke-opacity:inherit}#chart-1a875248-a545-423f-8a7f-f2025dcce171 .color-0,#chart-1a875248-a545-423f-8a7f-f2025dcce171 .color-0 a:visited{stroke:red;fill:red}#chart-1a875248-a545-423f-8a7f-f2025dcce171 .color-1,#chart-1a875248-a545-423f-8a7f-f2025dcce171 .color-1 a:visited{stroke:blue;fill:blue}#chart-1a875248-a545-423f-8a7f-f2025dcce171 .color-2,#chart-1a875248-a545-423f-8a7f-f2025dcce171 .color-2 a:visited{stroke:green;fill:green}#chart-1a875248-a545-423f-8a7f-f2025dcce171 .text-overlay .color-0 text{fill:white}#chart-1a875248-a545-423f-8a7f-f2025dcce171 .text-overlay .color-1 text{fill:white}#chart-1a875248-a545-423f-8a7f-f2025dcce171 .text-overlay .color-2 text{fill:white}
#chart-1a875248-a545-423f-8a7f-f2025dcce171 text.no_data{text-anchor:middle}#chart-1a875248-a545-423f-8a7f-f2025dcce171 .guide.line{fill:none}#chart-1a875248-a545-423f-8a7f-f2025dcce171 .centered{text-anchor:middle}#chart-1a875248-a545-423f-8a7f-f2025dcce171 .title{text-anchor:middle}#chart-1a875248-a545-423f-8a7f-f2025dcce171 .legends .legend text{fill-opacity:1}#chart-1a875248-a545-423f-8a7f-f2025dcce171 .axis.x text{text-anchor:middle}#chart-1a875248-a545-423f-8a7f-f2025dcce171 .axis.x:not(.web) text[transform]{text-anchor:start}#chart-1a875248-a545-423f-8a7f-f2025dcce171 .axis.x:not(.web) text[transform].backwards{text-anchor:end}#chart-1a875248-a545-423f-8a7f-f2025dcce171 .axis.y text{text-anchor:end}#chart-1a875248-a545-423f-8a7f-f2025dcce171 .axis.y text[transform].backwards{text-anchor:start}#chart-1a875248-a545-423f-8a7f-f2025dcce171 .axis.y2 text{text-anchor:start}#chart-1a875248-a545-423f-8a7f-f2025dcce171 .axis.y2 text[transform].backwards{text-anchor:end}#chart-1a875248-a545-423f-8a7f-f2025dcce171 .axis .guide.line{stroke-dasharray:4,4}#chart-1a875248-a545-423f-8a7f-f2025dcce171 .axis .major.guide.line{stroke-dasharray:6,6}#chart-1a875248-a545-423f-8a7f-f2025dcce171 .horizontal .axis.y .guide.line,#chart-1a875248-a545-423f-8a7f-f2025dcce171 .horizontal .axis.y2 .guide.line,#chart-1a875248-a545-423f-8a7f-f2025dcce171 .vertical .axis.x .guide.line{opacity:0}#chart-1a875248-a545-423f-8a7f-f2025dcce171 .horizontal .axis.always_show .guide.line,#chart-1a875248-a545-423f-8a7f-f2025dcce171 .vertical .axis.always_show .guide.line{opacity:1 !important}#chart-1a875248-a545-423f-8a7f-f2025dcce171 .axis.y .guides:hover .guide.line,#chart-1a875248-a545-423f-8a7f-f2025dcce171 .axis.y2 .guides:hover .guide.line,#chart-1a875248-a545-423f-8a7f-f2025dcce171 .axis.x .guides:hover .guide.line{opacity:1}#chart-1a875248-a545-423f-8a7f-f2025dcce171 .axis .guides:hover text{opacity:1}#chart-1a875248-a545-423f-8a7f-f2025dcce171 .nofill{fill:none}#chart-1a875248-a545-423f-8a7f-f2025dcce171 .subtle-fill{fill-opacity:.2}#chart-1a875248-a545-423f-8a7f-f2025dcce171 .dot{stroke-width:1px;fill-opacity:1}#chart-1a875248-a545-423f-8a7f-f2025dcce171 .dot.active{stroke-width:5px}#chart-1a875248-a545-423f-8a7f-f2025dcce171 .dot.negative{fill:transparent}#chart-1a875248-a545-423f-8a7f-f2025dcce171 text,#chart-1a875248-a545-423f-8a7f-f2025dcce171 tspan{stroke:none !important}#chart-1a875248-a545-423f-8a7f-f2025dcce171 .series text.active{opacity:1}#chart-1a875248-a545-423f-8a7f-f2025dcce171 .tooltip rect{fill-opacity:.95;stroke-width:.5}#chart-1a875248-a545-423f-8a7f-f2025dcce171 .tooltip text{fill-opacity:1}#chart-1a875248-a545-423f-8a7f-f2025dcce171 .showable{visibility:hidden}#chart-1a875248-a545-423f-8a7f-f2025dcce171 .showable.shown{visibility:visible}#chart-1a875248-a545-423f-8a7f-f2025dcce171 .gauge-background{fill:rgba(229,229,229,1);stroke:none}#chart-1a875248-a545-423f-8a7f-f2025dcce171 .bg-lines{stroke:rgba(249,249,249,1);stroke-width:2px}</style><script type="text/javascript">window.pygal = window.pygal || {};window.pygal.config = window.pygal.config || {};window.pygal.config['1a875248-a545-423f-8a7f-f2025dcce171'] = {"allow_interruptions": false, "box_mode": "extremes", "classes": ["pygal-chart"], "css": ["file://style.css", "file://graph.css"], "defs": [], "disable_xml_declaration": false, "dots_size": 2.5, "dynamic_print_values": false, "explicit_size": false, "fill": false, "force_uri_protocol": "https", "formatter": null, "half_pie": false, "height": 600, "include_x_axis": false, "inner_radius": 0, "interpolate": null, "interpolation_parameters": {}, "interpolation_precision": 250, "inverse_y_axis": false, "js": ["//kozea.github.io/pygal.js/2.0.x/pygal-tooltips.min.js"], "legend_at_bottom": true, "legend_at_bottom_columns": null, "legend_box_size": 12, "logarithmic": false, "margin": 20, "margin_bottom": null, "margin_left": null, "margin_right": null, "margin_top": null, "max_scale": 16, "min_scale": 4, "missing_value_fill_truncation": "x", "no_data_text": "No data", "no_prefix": false, "order_min": null, "pretty_print": false, "print_labels": false, "print_values": false, "print_values_position": "center", "print_zeroes": true, "range": null, "rounded_bars": null, "secondary_range": null, "show_dots": true, "show_legend": true, "show_minor_x_labels": false, "show_minor_y_labels": true, "show_only_major_dots": false, "show_x_guides": false, "show_x_labels": true, "show_y_guides": true, "show_y_labels": true, "spacing": 10, "stack_from_top": false, "strict": false, "stroke": true, "stroke_style": null, "style": {"background": "rgba(249, 249, 249, 1)", "ci_colors": [], "colors": ["red", "blue", "green", "#a3a3a3"], "font_family": "Consolas, \"Liberation Mono\", Menlo, Courier, monospace", "foreground": "rgba(0, 0, 0, .87)", "foreground_strong": "rgba(0, 0, 0, 1)", "foreground_subtle": "rgba(0, 0, 0, .54)", "guide_stroke_dasharray": "4,4", "label_font_family": "Consolas, \"Liberation Mono\", Menlo, Courier, monospace", "label_font_size": 10, "legend_font_family": "Consolas, \"Liberation Mono\", Menlo, Courier, monospace", "legend_font_size": 14, "major_guide_stroke_dasharray": "6,6", "major_label_font_family": "Consolas, \"Liberation Mono\", Menlo, Courier, monospace", "major_label_font_size": 10, "no_data_font_family": "Consolas, \"Liberation Mono\", Menlo, Courier, monospace", "no_data_font_size": 64, "opacity": ".7", "opacity_hover": ".8", "plot_background": "rgba(255, 255, 255, 1)", "stroke_opacity": ".8", "stroke_opacity_hover": ".9", "title_font_family": "Consolas, \"Liberation Mono\", Menlo, Courier, monospace", "title_font_size": 16, "tooltip_font_family": "Consolas, \"Liberation Mono\", Menlo, Courier, monospace", "tooltip_font_size": 14, "transition": "150ms", "value_background": "rgba(229, 229, 229, 1)", "value_colors": [], "value_font_family": "Consolas, \"Liberation Mono\", Menlo, Courier, monospace", "value_font_size": 16, "value_label_font_family": "Consolas, \"Liberation Mono\", Menlo, Courier, monospace", "value_label_font_size": 10}, "title": "Abdur Razzak: Future and Past Averages in ODIs", "tooltip_border_radius": 10, "tooltip_fancy_mode": true, "truncate_label": null, "truncate_legend": null, "width": 800, "x_label_rotation": 45, "x_labels": ["2004", "0", "0", "0", "0", "2005", "2006", "0", "0", "0", "0", "0", "0", "0", "0", "0", "0", "0", "0", "0", "0", "0", "0", "0", "0", "0", "0", "0", "0", "0", "0", "0", "2007", "0", "0", "0", "0", "0", "0", "0", "0", "0", "0", "0", "0", "0", "0", "0", "0", "0", "0", "0", "0", "0", "0", "2008", "0", "0", "0", "0", "0", "0", "0", "0", "0", "0", "0", "0", "0", "0", "0", "0", "0", "0", "0", "0", "0", "0", "0", "0", "0", "2009", "0", "0", "0", "0", "0", "0", "0", "2010", "0", "0", "0", "0", "0", "0", "0", "0", "0", "0", "0", "0", "0", "0", "0", "0", "0", "0", "0", "0", "0", "2011", "0", "0", "0", "0", "0", "0", "0", "0", "0", "0", "0", "0", "0", "0", "0", "0", "0", "2012", "0", "0", "0", "0", "0", "0", "0", "0", "2013", "0", "0", "0", "0", "0", "0", "0", "2014", "0", "0", "0", "0", "0"], "x_labels_major": ["2004", "2005", "2006", "2007", "2008", "2009", "2010", "2011", "2012", "2013", "2014"], "x_labels_major_count": null, "x_labels_major_every": null, "x_title": null, "xrange": null, "y_label_rotation": 0, "y_labels": null, "y_labels_major": null, "y_labels_major_count": null, "y_labels_major_every": null, "y_title": null, "zero": 160.0, "legends": ["Future Average", "Past Average", "Career Average"]}</script><script type="text/javascript" xlink:href="https://kozea.github.io/pygal.js/2.0.x/pygal-tooltips.min.js"/></defs><title>Abdur Razzak: Future and Past Averages in ODIs</title><g class="graph line-graph vertical"><rect class="background" height="600" width="800" x="0" y="0"/><g class="plot" transform="translate(48, 46)"><rect class="background" height="462.02943725152284" width="732.0" x="0" y="0"/><g class="axis y always_show"><g class="guides"><path class="axis major line" d="M0.000000 453.144256 h732.000000"/><text class="major" x="-5" y="456.6442557659166">0</text><title>0</title></g><g class="guides"><path class="guide line" d="M0.000000 424.107715 h732.000000"/><text class="" x="-5" y="427.607714963282">10</text><title>10</title></g><g class="guides"><path class="guide line" d="M0.000000 395.071174 h732.000000"/><text class="" x="-5" y="398.5711741606473">20</text><title>20</title></g><g class="guides"><path class="guide line" d="M0.000000 366.034633 h732.000000"/><text class="" x="-5" y="369.5346333580126">30</text><title>30</title></g><g class="guides"><path class="guide line" d="M0.000000 336.998093 h732.000000"/><text class="" x="-5" y="340.498092555378">40</text><title>40</title></g><g class="guides"><path class="major guide line" d="M0.000000 307.961552 h732.000000"/><text class="major" x="-5" y="311.4615517527433">50</text><title>50</title></g><g class="guides"><path class="guide line" d="M0.000000 278.925011 h732.000000"/><text class="" x="-5" y="282.42501095010863">60</text><title>60</title></g><g class="guides"><path class="guide line" d="M0.000000 249.888470 h732.000000"/><text class="" x="-5" y="253.38847014747395">70</text><title>70</title></g><g class="guides"><path class="guide line" d="M0.000000 220.851929 h732.000000"/><text class="" x="-5" y="224.35192934483928">80</text><title>80</title></g><g class="guides"><path class="guide line" d="M0.000000 191.815389 h732.000000"/><text class="" x="-5" y="195.31538854220463">90</text><title>90</title></g><g class="guides"><path class="major guide line" d="M0.000000 162.778848 h732.000000"/><text class="major" x="-5" y="166.27884773956993">100</text><title>100</title></g><g class="guides"><path class="guide line" d="M0.000000 133.742307 h732.000000"/><text class="" x="-5" y="137.24230693693528">110</text><title>110</title></g><g class="guides"><path class="guide line" d="M0.000000 104.705766 h732.000000"/><text class="" x="-5" y="108.20576613430057">120</text><title>120</title></g><g class="guides"><path class="guide line" d="M0.000000 75.669225 h732.000000"/><text class="" x="-5" y="79.16922533166598">130</text><title>130</title></g><g class="guides"><path class="guide line" d="M0.000000 46.632685 h732.000000"/><text class="" x="-5" y="50.13268452903128">140</text><title>140</title></g><g class="guides"><path class="major guide line" d="M0.000000 17.596144 h732.000000"/><text class="major" x="-5" y="21.096143726396633">150</text><title>150</title></g></g><g class="axis x"><g class="guides"><path class="major line" d="M14.076923 0.000000 v462.029437"/><text class="major" x="14.076923076923077" y="477.02943725152284" transform="rotate(45 14.076923 477.029437)">2004</text></g><g class="guides"><path class="major guide line" d="M37.383087 0.000000 v462.029437"/><text class="major" x="37.38308711156394" y="477.02943725152284" transform="rotate(45 37.383087 477.029437)">2005</text></g><g class="guides"><path class="major guide line" d="M42.044320 0.000000 v462.029437"/><text class="major" x="42.0443199184921" y="477.02943725152284" transform="rotate(45 42.044320 477.029437)">2006</text></g><g class="guides"><path class="major guide line" d="M163.236373 0.000000 v462.029437"/><text class="major" x="163.23637289862452" y="477.02943725152284" transform="rotate(45 163.236373 477.029437)">2007</text></g><g class="guides"><path class="major guide line" d="M270.444727 0.000000 v462.029437"/><text class="major" x="270.4447274579725" y="477.02943725152284" transform="rotate(45 270.444727 477.029437)">2008</text></g><g class="guides"><path class="major guide line" d="M391.636780 0.000000 v462.029437"/><text class="major" x="391.6367804381049" y="477.02943725152284" transform="rotate(45 391.636780 477.029437)">2009</text></g><g class="guides"><path class="major guide line" d="M428.926643 0.000000 v462.029437"/><text class="major" x="428.9266428935303" y="477.02943725152284" transform="rotate(45 428.926643 477.029437)">2010</text></g><g class="guides"><path class="major guide line" d="M531.473765 0.000000 v462.029437"/><text class="major" x="531.47376464595" y="477.02943725152284" transform="rotate(45 531.473765 477.029437)">2011</text></g><g class="guides"><path class="major guide line" d="M615.375955 0.000000 v462.029437"/><text class="major" x="615.3759551706572" y="477.02943725152284" transform="rotate(45 615.375955 477.029437)">2012</text></g><g class="guides"><path class="major guide line" d="M657.327050 0.000000 v462.029437"/><text class="major" x="657.3270504330108" y="477.02943725152284" transform="rotate(45 657.327050 477.029437)">2013</text></g><g class="guides"><path class="major guide line" d="M694.616913 0.000000 v462.029437"/><text class="major" x="694.6169128884361" y="477.02943725152284" transform="rotate(45 694.616913 477.029437)">2014</text></g></g><g class="series serie-0 color-0"><path class="line reactive nofill" d="M14.076923 368.067191 L18.738156 367.050912 23.399389 366.731510 28.060621 367.312241 32.721854 367.892972 37.383087 367.892972 42.044320 368.183337 46.705553 368.473703 51.366786 368.328520 56.028018 367.892972 60.689251 368.125264 65.350484 368.009118 70.011717 367.225132 74.672950 367.283205 79.334182 367.370314 83.995415 368.125264 88.656648 367.660680 93.317881 367.747789 97.979114 367.951045 102.640346 367.399351 107.301579 366.470181 111.962812 365.831378 116.624045 365.686195 121.285278 365.482939 125.946510 365.976560 130.607743 365.192574 135.268976 363.653637 139.930209 364.321477 144.591442 362.201810 149.252674 361.563006 153.913907 361.475896 158.575140 360.633837 163.236373 358.659352 167.897606 358.281877 172.558839 358.833571 177.220071 359.036827 181.881304 359.123937 186.542537 359.094900 191.203770 358.194767 195.865003 356.975233 200.526235 358.049585 205.187468 356.423538 209.848701 356.742940 214.509934 357.526927 219.171167 355.958954 223.832399 355.174967 228.493632 356.191246 233.154865 356.423538 237.816098 357.207525 242.477331 357.033306 247.138563 357.381744 251.799796 357.468854 256.461029 356.278356 261.122262 357.265598 265.783495 357.497890 270.444727 357.875365 275.105960 358.862608 279.767193 358.078621 284.428426 357.933438 289.089659 358.804535 293.750891 357.091379 298.412124 356.684867 303.073357 358.368987 307.734590 358.949717 312.395823 359.936960 317.057056 360.053106 321.718288 359.849850 326.379521 358.252840 331.040754 358.630315 335.701987 356.539685 340.363220 355.291113 345.024452 356.946196 349.685685 357.991512 354.346918 359.182010 359.008151 359.501412 363.669384 359.646594 368.330616 359.356229 372.991849 357.468854 377.653082 359.443339 382.314315 360.053106 386.975548 361.708189 391.636780 363.392308 396.298013 360.720946 400.959246 361.563006 405.620479 361.563006 410.281712 359.588521 414.942944 354.855565 419.604177 353.868323 424.265410 351.661546 428.926643 349.745134 433.587876 351.196961 438.249109 353.781213 442.910341 355.407259 447.571574 356.975233 452.232807 358.572242 456.894040 356.713904 461.555273 355.610515 466.216505 356.220283 470.877738 357.526927 475.538971 356.510648 480.200204 359.327192 484.861437 359.995033 489.522669 359.907923 494.183902 362.201810 498.845135 362.056627 503.506368 362.811577 508.167601 363.276162 512.828833 361.882408 517.490066 357.323671 522.151299 349.309586 526.812532 341.005135 531.473765 343.008657 536.134997 347.770649 540.796230 347.364138 545.457463 347.886795 550.118696 345.099287 554.779929 338.943541 559.441161 339.524272 564.102394 340.685733 568.763627 345.244470 573.424860 340.656697 578.086093 344.083009 582.747326 344.954105 587.408558 344.402410 592.069791 343.792643 596.731024 349.599951 601.392257 352.503605 606.053490 353.868323 610.714722 356.104136 615.375955 347.886795 620.037188 348.612709 624.698421 349.164403 629.359654 345.825201 634.020886 339.495235 638.682119 327.532180 643.343352 307.409857 648.004585 293.646537 652.665818 278.431390 657.327050 287.868266 661.988283 299.744211 666.649516 215.886681 671.310749 181.158978 675.971982 202.471799 680.633214 223.755583 685.294447 204.010736 689.955680 167.134329 694.616913 126.976793 699.278146 43.729030 703.939379 126.483172 708.600611 8.885181 713.261844 107.609420 717.923077 232.466546"/></g><g class="series serie-1 color-1"><path class="line reactive nofill" d="M14.076923 453.144256 L18.738156 436.680537 23.399389 422.365523 28.060621 399.136290 32.721854 375.326326 37.383087 374.251974 42.044320 364.379551 46.705553 356.075100 51.366786 361.679152 56.028018 371.261211 60.689251 367.079949 65.350484 368.938287 70.011717 378.200944 74.672950 376.807190 79.334182 375.384399 83.995415 367.312241 88.656648 371.841942 93.317881 370.883736 97.979114 369.083470 102.640346 373.177622 107.301579 378.723602 111.962812 381.743402 116.624045 382.207987 121.285278 382.178950 125.946510 379.449515 130.607743 382.759681 135.268976 387.666856 139.930209 384.676093 144.591442 390.425328 149.252674 391.470643 153.913907 391.093168 158.575140 392.719214 163.236373 396.087453 167.897606 395.826124 172.558839 394.258151 177.220071 393.009580 181.881304 392.225593 186.542537 391.644862 191.203770 392.254630 195.865003 393.416091 200.526235 390.454364 205.187468 392.370776 209.848701 391.731972 214.509934 390.076889 219.171167 391.761009 223.832399 392.254630 228.493632 390.309181 233.154865 389.409049 237.816098 388.044331 242.477331 387.492637 247.138563 386.505395 251.799796 385.982737 256.461029 386.795760 261.122262 385.198750 265.783495 384.211508 270.444727 383.601741 275.105960 382.120877 279.767193 382.701608 284.428426 382.614498 289.089659 381.365927 293.750891 382.933900 298.412124 382.875827 303.073357 380.669050 307.734590 379.943136 312.395823 378.636492 317.057056 378.288054 321.718288 378.142871 326.379521 379.420479 331.040754 378.752638 335.701987 380.407721 340.363220 380.988452 345.024452 379.304333 349.685685 378.026725 354.346918 376.865263 359.008151 376.371642 363.669384 376.226459 368.330616 376.371642 372.991849 377.591177 377.653082 375.819948 382.314315 375.152107 386.975548 373.700280 391.636780 372.103270 396.298013 373.932572 400.959246 373.177622 405.620479 372.974367 410.281712 374.106792 414.942944 376.574898 419.604177 376.836227 424.265410 377.794432 428.926643 378.259017 433.587876 377.445994 438.249109 376.023203 442.910341 375.123071 447.571574 374.251974 452.232807 373.351842 456.894040 373.990646 461.555273 374.310047 466.216505 373.874499 470.877738 373.119549 475.538971 373.351842 480.200204 372.074234 484.861437 371.667722 489.522669 371.638686 494.183902 370.622407 498.845135 370.651443 503.506368 370.273968 508.167601 370.012639 512.828833 370.477224 517.490066 371.870978 522.151299 373.874499 526.812532 375.587655 531.473765 375.035961 536.134997 373.700280 540.796230 373.671244 545.457463 373.526061 550.118696 373.932572 554.779929 374.832705 559.441161 374.484267 564.102394 374.019682 568.763627 373.032440 573.424860 373.438951 578.086093 372.771111 582.747326 372.625928 587.408558 372.567855 592.069791 372.509782 596.731024 371.435430 601.392257 370.912772 606.053490 370.651443 610.714722 370.186859 615.375955 371.232174 620.037188 370.999882 624.698421 370.796626 629.359654 370.970845 634.020886 371.464466 638.682119 372.161343 643.343352 373.148586 648.004585 373.467988 652.665818 373.584134 657.327050 373.003403 661.988283 372.277490 666.649516 373.409915 671.310749 373.642207 675.971982 373.003403 680.633214 372.364599 685.294447 372.132307 689.955680 372.016161 694.616913 371.609649 699.278146 371.232174 703.939379 370.419151 708.600611 369.809384 713.261844 369.344799 717.923077 368.735032"/></g><g class="series serie-2 color-2"><path class="line reactive nofill" d="M14.076923 368.067191 L18.738156 368.067191 23.399389 368.067191 28.060621 368.067191 32.721854 368.067191 37.383087 368.067191 42.044320 368.067191 46.705553 368.067191 51.366786 368.067191 56.028018 368.067191 60.689251 368.067191 65.350484 368.067191 70.011717 368.067191 74.672950 368.067191 79.334182 368.067191 83.995415 368.067191 88.656648 368.067191 93.317881 368.067191 97.979114 368.067191 102.640346 368.067191 107.301579 368.067191 111.962812 368.067191 116.624045 368.067191 121.285278 368.067191 125.946510 368.067191 130.607743 368.067191 135.268976 368.067191 139.930209 368.067191 144.591442 368.067191 149.252674 368.067191 153.913907 368.067191 158.575140 368.067191 163.236373 368.067191 167.897606 368.067191 172.558839 368.067191 177.220071 368.067191 181.881304 368.067191 186.542537 368.067191 191.203770 368.067191 195.865003 368.067191 200.526235 368.067191 205.187468 368.067191 209.848701 368.067191 214.509934 368.067191 219.171167 368.067191 223.832399 368.067191 228.493632 368.067191 233.154865 368.067191 237.816098 368.067191 242.477331 368.067191 247.138563 368.067191 251.799796 368.067191 256.461029 368.067191 261.122262 368.067191 265.783495 368.067191 270.444727 368.067191 275.105960 368.067191 279.767193 368.067191 284.428426 368.067191 289.089659 368.067191 293.750891 368.067191 298.412124 368.067191 303.073357 368.067191 307.734590 368.067191 312.395823 368.067191 317.057056 368.067191 321.718288 368.067191 326.379521 368.067191 331.040754 368.067191 335.701987 368.067191 340.363220 368.067191 345.024452 368.067191 349.685685 368.067191 354.346918 368.067191 359.008151 368.067191 363.669384 368.067191 368.330616 368.067191 372.991849 368.067191 377.653082 368.067191 382.314315 368.067191 386.975548 368.067191 391.636780 368.067191 396.298013 368.067191 400.959246 368.067191 405.620479 368.067191 410.281712 368.067191 414.942944 368.067191 419.604177 368.067191 424.265410 368.067191 428.926643 368.067191 433.587876 368.067191 438.249109 368.067191 442.910341 368.067191 447.571574 368.067191 452.232807 368.067191 456.894040 368.067191 461.555273 368.067191 466.216505 368.067191 470.877738 368.067191 475.538971 368.067191 480.200204 368.067191 484.861437 368.067191 489.522669 368.067191 494.183902 368.067191 498.845135 368.067191 503.506368 368.067191 508.167601 368.067191 512.828833 368.067191 517.490066 368.067191 522.151299 368.067191 526.812532 368.067191 531.473765 368.067191 536.134997 368.067191 540.796230 368.067191 545.457463 368.067191 550.118696 368.067191 554.779929 368.067191 559.441161 368.067191 564.102394 368.067191 568.763627 368.067191 573.424860 368.067191 578.086093 368.067191 582.747326 368.067191 587.408558 368.067191 592.069791 368.067191 596.731024 368.067191 601.392257 368.067191 606.053490 368.067191 610.714722 368.067191 615.375955 368.067191 620.037188 368.067191 624.698421 368.067191 629.359654 368.067191 634.020886 368.067191 638.682119 368.067191 643.343352 368.067191 648.004585 368.067191 652.665818 368.067191 657.327050 368.067191 661.988283 368.067191 666.649516 368.067191 671.310749 368.067191 675.971982 368.067191 680.633214 368.067191 685.294447 368.067191 689.955680 368.067191 694.616913 368.067191 699.278146 368.067191 703.939379 368.067191 708.600611 368.067191 713.261844 368.067191 717.923077 368.067191"/></g></g><g class="titles"><text class="title plot_title" x="400.0" y="26">Abdur Razzak: Future and Past Averages in ODIs</text></g><g class="plot overlay" transform="translate(48, 46)"><g class="series serie-0 color-0"><g class="dots"><desc class="label">207 wickets in 152 innings (1327.3 overs)</desc><circle class="dot reactive tooltip-trigger" cx="14.076923076923077" cy="368.06719121419707" r="2.5"/><desc class="value">29.3</desc><desc class="x top">14.076923076923077</desc><desc class="y top">368.06719121419707</desc><desc class="x_label">2004</desc></g><g class="dots"><desc class="label">201 wickets in 147 innings (1282.3 overs)</desc><circle class="dot reactive tooltip-trigger" cx="37.38308711156394" cy="367.8929719693812" r="2.5"/><desc class="value">29.36</desc><desc class="x top">37.38308711156394</desc><desc class="y top">367.8929719693812</desc><desc class="x_label">2005</desc></g><g class="dots"><desc class="label">200 wickets in 146 innings (1274.3 overs)</desc><circle class="dot reactive tooltip-trigger" cx="42.0443199184921" cy="368.1833373774076" r="2.5"/><desc class="value">29.26</desc><desc class="x top">42.0443199184921</desc><desc class="y top">368.1833373774076</desc><desc class="x_label">2006</desc></g><g class="dots"><desc class="label">155 wickets in 120 innings (1043.3 overs)</desc><circle class="dot reactive tooltip-trigger" cx="163.23637289862452" cy="358.65935199414344" r="2.5"/><desc class="value">32.54</desc><desc class="x top">163.23637289862452</desc><desc class="y top">358.65935199414344</desc><desc class="x_label">2007</desc></g><g class="dots"><desc class="label">125 wickets in 97 innings (848.2 overs)</desc><circle class="dot reactive tooltip-trigger" cx="270.4447274579725" cy="357.8753653924723" r="2.5"/><desc class="value">32.81</desc><desc class="x top">270.4447274579725</desc><desc class="y top">357.8753653924723</desc><desc class="x_label">2008</desc></g><g class="dots"><desc class="label">96 wickets in 71 innings (622.4 overs)</desc><circle class="dot reactive tooltip-trigger" cx="391.6367804381049" cy="363.39230814497284" r="2.5"/><desc class="value">30.91</desc><desc class="x left top">391.6367804381049</desc><desc class="y left top">363.39230814497284</desc><desc class="x_label">2009</desc></g><g class="dots"><desc class="label">74 wickets in 63 innings (552.0 overs)</desc><circle class="dot reactive tooltip-trigger" cx="428.9266428935303" cy="349.7451339677346" r="2.5"/><desc class="value">35.61</desc><desc class="x left top">428.9266428935303</desc><desc class="y left top">349.7451339677346</desc><desc class="x_label">2010</desc></g><g class="dots"><desc class="label">45 wickets in 41 innings (346.4 overs)</desc><circle class="dot reactive tooltip-trigger" cx="531.47376464595" cy="343.0086565015233" r="2.5"/><desc class="value">37.93</desc><desc class="x left top">531.47376464595</desc><desc class="y left top">343.0086565015233</desc><desc class="x_label">2011</desc></g><g class="dots"><desc class="label">28 wickets in 23 innings (207.0 overs)</desc><circle class="dot reactive tooltip-trigger" cx="615.3759551706572" cy="347.88679535636595" r="2.5"/><desc class="value">36.25</desc><desc class="x left top">615.3759551706572</desc><desc class="y left top">347.88679535636595</desc><desc class="x_label">2012</desc></g><g class="dots"><desc class="label">12 wickets in 14 innings (123.0 overs)</desc><circle class="dot reactive tooltip-trigger" cx="657.3270504330108" cy="287.8682655173201" r="2.5"/><desc class="value">56.92</desc><desc class="x left top">657.3270504330108</desc><desc class="y left top">287.8682655173201</desc><desc class="x_label">2013</desc></g><g class="dots"><desc class="label">3 wickets in 6 innings (54.0 overs)</desc><circle class="dot reactive tooltip-trigger" cx="694.6169128884361" cy="126.97679292992143" r="2.5"/><desc class="value">112.33</desc><desc class="x left">694.6169128884361</desc><desc class="y left">126.97679292992143</desc><desc class="x_label">2014</desc></g></g><g class="series serie-1 color-1"><g class="dots"><desc class="label">0 wickets over 0 innings</desc><circle class="dot reactive tooltip-trigger" cx="14.076923076923077" cy="453.1442557659166" r="2.5"/><desc class="value">0</desc><desc class="x top">14.076923076923077</desc><desc class="y top">453.1442557659166</desc><desc class="x_label">2004</desc></g><g class="dots"><desc class="label">6 wickets in 5 innings (45.0 overs)</desc><circle class="dot reactive tooltip-trigger" cx="37.38308711156394" cy="374.25197440515825" r="2.5"/><desc class="value">27.17</desc><desc class="x top">37.38308711156394</desc><desc class="y top">374.25197440515825</desc><desc class="x_label">2005</desc></g><g class="dots"><desc class="label">7 wickets in 6 innings (53.0 overs)</desc><circle class="dot reactive tooltip-trigger" cx="42.0443199184921" cy="364.37955053226244" r="2.5"/><desc class="value">30.57</desc><desc class="x top">42.0443199184921</desc><desc class="y top">364.37955053226244</desc><desc class="x_label">2006</desc></g><g class="dots"><desc class="label">52 wickets in 32 innings (284.0 overs)</desc><circle class="dot reactive tooltip-trigger" cx="163.23637289862452" cy="396.0874530887395" r="2.5"/><desc class="value">19.65</desc><desc class="x top">163.23637289862452</desc><desc class="y top">396.0874530887395</desc><desc class="x_label">2007</desc></g><g class="dots"><desc class="label">82 wickets in 55 innings (479.1 overs)</desc><circle class="dot reactive tooltip-trigger" cx="270.4447274579725" cy="383.60174054360664" r="2.5"/><desc class="value">23.95</desc><desc class="x top">270.4447274579725</desc><desc class="y top">383.60174054360664</desc><desc class="x_label">2008</desc></g><g class="dots"><desc class="label">111 wickets in 81 innings (704.5 overs)</desc><circle class="dot reactive tooltip-trigger" cx="391.6367804381049" cy="372.10327038576327" r="2.5"/><desc class="value">27.91</desc><desc class="x left top">391.6367804381049</desc><desc class="y left top">372.10327038576327</desc><desc class="x_label">2009</desc></g><g class="dots"><desc class="label">133 wickets in 89 innings (775.3 overs)</desc><circle class="dot reactive tooltip-trigger" cx="428.9266428935303" cy="378.25901703592183" r="2.5"/><desc class="value">25.79</desc><desc class="x left top">428.9266428935303</desc><desc class="y left top">378.25901703592183</desc><desc class="x_label">2010</desc></g><g class="dots"><desc class="label">162 wickets in 111 innings (980.5 overs)</desc><circle class="dot reactive tooltip-trigger" cx="531.47376464595" cy="375.0359610068294" r="2.5"/><desc class="value">26.9</desc><desc class="x left top">531.47376464595</desc><desc class="y left top">375.0359610068294</desc><desc class="x_label">2011</desc></g><g class="dots"><desc class="label">179 wickets in 129 innings (1120.3 overs)</desc><circle class="dot reactive tooltip-trigger" cx="615.3759551706572" cy="371.23217416168427" r="2.5"/><desc class="value">28.21</desc><desc class="x left top">615.3759551706572</desc><desc class="y left top">371.23217416168427</desc><desc class="x_label">2012</desc></g><g class="dots"><desc class="label">195 wickets in 138 innings (1204.3 overs)</desc><circle class="dot reactive tooltip-trigger" cx="657.3270504330108" cy="373.00340315064494" r="2.5"/><desc class="value">27.6</desc><desc class="x left top">657.3270504330108</desc><desc class="y left top">373.00340315064494</desc><desc class="x_label">2013</desc></g><g class="dots"><desc class="label">204 wickets in 146 innings (1273.3 overs)</desc><circle class="dot reactive tooltip-trigger" cx="694.6169128884361" cy="371.60964919211847" r="2.5"/><desc class="value">28.08</desc><desc class="x left top">694.6169128884361</desc><desc class="y left top">371.60964919211847</desc><desc class="x_label">2014</desc></g></g><g class="series serie-2 color-2"/></g><g class="plot text-overlay" transform="translate(48, 46)"><g class="series serie-0 color-0"/><g class="series serie-1 color-1"/><g class="series serie-2 color-2"/></g><g class="plot tooltip-overlay" transform="translate(48, 46)"><g class="tooltip" style="opacity: 0" transform="translate(0 0)"><rect class="tooltip-box" height="0" rx="10" ry="10" width="0"/><g class="text"/></g></g><g class="legends" transform="translate(58, 545)"><g class="legend reactive activate-serie" id="activate-serie-0"><rect class="color-0 reactive" height="12" width="12" x="0.0" y="1.0"/><text x="17.0" y="11.2">Future Average</text></g><g class="legend reactive activate-serie" id="activate-serie-1"><rect class="color-1 reactive" height="12" width="12" x="366.0" y="1.0"/><text x="383.0" y="11.2">Past Average</text></g><g class="legend reactive activate-serie" id="activate-serie-2"><rect class="color-2 reactive" height="12" width="12" x="0.0" y="22.0"/><text x="17.0" y="32.2">Career Average</text></g></g></g></svg>