<?xml version='1.0' encoding='utf-8'?>
<svg xmlns:xlink="http://www.w3.org/1999/xlink" xmlns="http://www.w3.org/2000/svg" id="chart-200f6812-f165-40e4-a5c4-746f04785461" class="pygal-chart" viewBox="0 0 800 600"><!--Generated with pygal 2.4.0 (lxml) ©Kozea 2012-2016 on 2019-08-04--><!--http://pygal.org--><!--http://github.com/Kozea/pygal--><defs><style type="text/css">#chart-200f6812-f165-40e4-a5c4-746f04785461{-webkit-user-select:none;-webkit-font-smoothing:antialiased;font-family:Consolas,"Liberation Mono",Menlo,Courier,monospace}#chart-200f6812-f165-40e4-a5c4-746f04785461 .title{font-family:Consolas,"Liberation Mono",Menlo,Courier,monospace;font-size:16px}#chart-200f6812-f165-40e4-a5c4-746f04785461 .legends .legend text{font-family:Consolas,"Liberation Mono",Menlo,Courier,monospace;font-size:14px}#chart-200f6812-f165-40e4-a5c4-746f04785461 .axis text{font-family:Consolas,"Liberation Mono",Menlo,Courier,monospace;font-size:10px}#chart-200f6812-f165-40e4-a5c4-746f04785461 .axis text.major{font-family:Consolas,"Liberation Mono",Menlo,Courier,monospace;font-size:10px}#chart-200f6812-f165-40e4-a5c4-746f04785461 .text-overlay text.value{font-family:Consolas,"Liberation Mono",Menlo,Courier,monospace;font-size:16px}#chart-200f6812-f165-40e4-a5c4-746f04785461 .text-overlay text.label{font-family:Consolas,"Liberation Mono",Menlo,Courier,monospace;font-size:10px}#chart-200f6812-f165-40e4-a5c4-746f04785461 .tooltip{font-family:Consolas,"Liberation Mono",Menlo,Courier,monospace;font-size:14px}#chart-200f6812-f165-40e4-a5c4-746f04785461 text.no_data{font-family:Consolas,"Liberation Mono",Menlo,Courier,monospace;font-size:64px}
#chart-200f6812-f165-40e4-a5c4-746f04785461{background-color:rgba(249,249,249,1)}#chart-200f6812-f165-40e4-a5c4-746f04785461 path,#chart-200f6812-f165-40e4-a5c4-746f04785461 line,#chart-200f6812-f165-40e4-a5c4-746f04785461 rect,#chart-200f6812-f165-40e4-a5c4-746f04785461 circle{-webkit-transition:150ms;-moz-transition:150ms;transition:150ms}#chart-200f6812-f165-40e4-a5c4-746f04785461 .graph &gt; .background{fill:rgba(249,249,249,1)}#chart-200f6812-f165-40e4-a5c4-746f04785461 .plot &gt; .background{fill:rgba(255,255,255,1)}#chart-200f6812-f165-40e4-a5c4-746f04785461 .graph{fill:rgba(0,0,0,.87)}#chart-200f6812-f165-40e4-a5c4-746f04785461 text.no_data{fill:rgba(0,0,0,1)}#chart-200f6812-f165-40e4-a5c4-746f04785461 .title{fill:rgba(0,0,0,1)}#chart-200f6812-f165-40e4-a5c4-746f04785461 .legends .legend text{fill:rgba(0,0,0,.87)}#chart-200f6812-f165-40e4-a5c4-746f04785461 .legends .legend:hover text{fill:rgba(0,0,0,1)}#chart-200f6812-f165-40e4-a5c4-746f04785461 .axis .line{stroke:rgba(0,0,0,1)}#chart-200f6812-f165-40e4-a5c4-746f04785461 .axis .guide.line{stroke:rgba(0,0,0,.54)}#chart-200f6812-f165-40e4-a5c4-746f04785461 .axis .major.line{stroke:rgba(0,0,0,.87)}#chart-200f6812-f165-40e4-a5c4-746f04785461 .axis text.major{fill:rgba(0,0,0,1)}#chart-200f6812-f165-40e4-a5c4-746f04785461 .axis.y .guides:hover .guide.line,#chart-200f6812-f165-40e4-a5c4-746f04785461 .line-graph .axis.x .guides:hover .guide.line,#chart-200f6812-f165-40e4-a5c4-746f04785461 .stackedline-graph .axis.x .guides:hover .guide.line,#chart-200f6812-f165-40e4-a5c4-746f04785461 .xy-graph .axis.x .guides:hover .guide.line{stroke:rgba(0,0,0,1)}#chart-200f6812-f165-40e4-a5c4-746f04785461 .axis .guides:hover text{fill:rgba(0,0,0,1)}#chart-200f6812-f165-40e4-a5c4-746f04785461 .reactive{fill-opacity:.7;stroke-opacity:.8}#chart-200f6812-f165-40e4-a5c4-746f04785461 .ci{stroke:rgba(0,0,0,.87)}#chart-200f6812-f165-40e4-a5c4-746f04785461 .reactive.active,#chart-200f6812-f165-40e4-a5c4-746f04785461 .active .reactive{fill-opacity:.8;stroke-opacity:.9;stroke-width:4}#chart-200f6812-f165-40e4-a5c4-746f04785461 .ci .reactive.active{stroke-width:1.5}#chart-200f6812-f165-40e4-a5c4-746f04785461 .series text{fill:rgba(0,0,0,1)}#chart-200f6812-f165-40e4-a5c4-746f04785461 .tooltip rect{fill:rgba(255,255,255,1);stroke:rgba(0,0,0,1);-webkit-transition:opacity 150ms;-moz-transition:opacity 150ms;transition:opacity 150ms}#chart-200f6812-f165-40e4-a5c4-746f04785461 .tooltip .label{fill:rgba(0,0,0,.87)}#chart-200f6812-f165-40e4-a5c4-746f04785461 .tooltip .label{fill:rgba(0,0,0,.87)}#chart-200f6812-f165-40e4-a5c4-746f04785461 .tooltip .legend{font-size:.8em;fill:rgba(0,0,0,.54)}#chart-200f6812-f165-40e4-a5c4-746f04785461 .tooltip .x_label{font-size:.6em;fill:rgba(0,0,0,1)}#chart-200f6812-f165-40e4-a5c4-746f04785461 .tooltip .xlink{font-size:.5em;text-decoration:underline}#chart-200f6812-f165-40e4-a5c4-746f04785461 .tooltip .value{font-size:1.5em}#chart-200f6812-f165-40e4-a5c4-746f04785461 .bound{font-size:.5em}#chart-200f6812-f165-40e4-a5c4-746f04785461 .max-value{font-size:.75em;fill:rgba(0,0,0,.54)}#chart-200f6812-f165-40e4-a5c4-746f04785461 .map-element{fill:rgba(255,255,255,1);stroke:rgba(0,0,0,.54) !important}#chart-200f6812-f165-40e4-a5c4-746f04785461 .map-element .reactive{fill-opacity:inherit;stroke-opacity:inherit}#chart-200f6812-f165-40e4-a5c4-746f04785461 .color-0,#chart-200f6812-f165-40e4-a5c4-746f04785461 .color-0 a:visited{stroke:red;fill:red}#chart-200f6812-f165-40e4-a5c4-746f04785461 .color-1,#chart-200f6812-f165-40e4-a5c4-746f04785461 .color-1 a:visited{stroke:blue;fill:blue}#chart-200f6812-f165-40e4-a5c4-746f04785461 .color-2,#chart-200f6812-f165-40e4-a5c4-746f04785461 .color-2 a:visited{stroke:green;fill:green}#chart-200f6812-f165-40e4-a5c4-746f04785461 .text-overlay .color-0 text{fill:white}#chart-200f6812-f165-40e4-a5c4-746f04785461 .text-overlay .color-1 text{fill:white}#chart-200f6812-f165-40e4-a5c4-746f04785461 .text-overlay .color-2 text{fill:white}
#chart-200f6812-f165-40e4-a5c4-746f04785461 text.no_data{text-anchor:middle}#chart-200f6812-f165-40e4-a5c4-746f04785461 .guide.line{fill:none}#chart-200f6812-f165-40e4-a5c4-746f04785461 .centered{text-anchor:middle}#chart-200f6812-f165-40e4-a5c4-746f04785461 .title{text-anchor:middle}#chart-200f6812-f165-40e4-a5c4-746f04785461 .legends .legend text{fill-opacity:1}#chart-200f6812-f165-40e4-a5c4-746f04785461 .axis.x text{text-anchor:middle}#chart-200f6812-f165-40e4-a5c4-746f04785461 .axis.x:not(.web) text[transform]{text-anchor:start}#chart-200f6812-f165-40e4-a5c4-746f04785461 .axis.x:not(.web) text[transform].backwards{text-anchor:end}#chart-200f6812-f165-40e4-a5c4-746f04785461 .axis.y text{text-anchor:end}#chart-200f6812-f165-40e4-a5c4-746f04785461 .axis.y text[transform].backwards{text-anchor:start}#chart-200f6812-f165-40e4-a5c4-746f04785461 .axis.y2 text{text-anchor:start}#chart-200f6812-f165-40e4-a5c4-746f04785461 .axis.y2 text[transform].backwards{text-anchor:end}#chart-200f6812-f165-40e4-a5c4-746f04785461 .axis .guide.line{stroke-dasharray:4,4}#chart-200f6812-f165-40e4-a5c4-746f04785461 .axis .major.guide.line{stroke-dasharray:6,6}#chart-200f6812-f165-40e4-a5c4-746f04785461 .horizontal .axis.y .guide.line,#chart-200f6812-f165-40e4-a5c4-746f04785461 .horizontal .axis.y2 .guide.line,#chart-200f6812-f165-40e4-a5c4-746f04785461 .vertical .axis.x .guide.line{opacity:0}#chart-200f6812-f165-40e4-a5c4-746f04785461 .horizontal .axis.always_show .guide.line,#chart-200f6812-f165-40e4-a5c4-746f04785461 .vertical .axis.always_show .guide.line{opacity:1 !important}#chart-200f6812-f165-40e4-a5c4-746f04785461 .axis.y .guides:hover .guide.line,#chart-200f6812-f165-40e4-a5c4-746f04785461 .axis.y2 .guides:hover .guide.line,#chart-200f6812-f165-40e4-a5c4-746f04785461 .axis.x .guides:hover .guide.line{opacity:1}#chart-200f6812-f165-40e4-a5c4-746f04785461 .axis .guides:hover text{opacity:1}#chart-200f6812-f165-40e4-a5c4-746f04785461 .nofill{fill:none}#chart-200f6812-f165-40e4-a5c4-746f04785461 .subtle-fill{fill-opacity:.2}#chart-200f6812-f165-40e4-a5c4-746f04785461 .dot{stroke-width:1px;fill-opacity:1}#chart-200f6812-f165-40e4-a5c4-746f04785461 .dot.active{stroke-width:5px}#chart-200f6812-f165-40e4-a5c4-746f04785461 .dot.negative{fill:transparent}#chart-200f6812-f165-40e4-a5c4-746f04785461 text,#chart-200f6812-f165-40e4-a5c4-746f04785461 tspan{stroke:none !important}#chart-200f6812-f165-40e4-a5c4-746f04785461 .series text.active{opacity:1}#chart-200f6812-f165-40e4-a5c4-746f04785461 .tooltip rect{fill-opacity:.95;stroke-width:.5}#chart-200f6812-f165-40e4-a5c4-746f04785461 .tooltip text{fill-opacity:1}#chart-200f6812-f165-40e4-a5c4-746f04785461 .showable{visibility:hidden}#chart-200f6812-f165-40e4-a5c4-746f04785461 .showable.shown{visibility:visible}#chart-200f6812-f165-40e4-a5c4-746f04785461 .gauge-background{fill:rgba(229,229,229,1);stroke:none}#chart-200f6812-f165-40e4-a5c4-746f04785461 .bg-lines{stroke:rgba(249,249,249,1);stroke-width:2px}</style><script type="text/javascript">window.pygal = window.pygal || {};window.pygal.config = window.pygal.config || {};window.pygal.config['200f6812-f165-40e4-a5c4-746f04785461'] = {"allow_interruptions": false, "box_mode": "extremes", "classes": ["pygal-chart"], "css": ["file://style.css", "file://graph.css"], "defs": [], "disable_xml_declaration": false, "dots_size": 2.5, "dynamic_print_values": false, "explicit_size": false, "fill": false, "force_uri_protocol": "https", "formatter": null, "half_pie": false, "height": 600, "include_x_axis": false, "inner_radius": 0, "interpolate": null, "interpolation_parameters": {}, "interpolation_precision": 250, "inverse_y_axis": false, "js": ["//kozea.github.io/pygal.js/2.0.x/pygal-tooltips.min.js"], "legend_at_bottom": true, "legend_at_bottom_columns": null, "legend_box_size": 12, "logarithmic": false, "margin": 20, "margin_bottom": null, "margin_left": null, "margin_right": null, "margin_top": null, "max_scale": 16, "min_scale": 4, "missing_value_fill_truncation": "x", "no_data_text": "No data", "no_prefix": false, "order_min": null, "pretty_print": false, "print_labels": false, "print_values": false, "print_values_position": "center", "print_zeroes": true, "range": null, "rounded_bars": null, "secondary_range": null, "show_dots": true, "show_legend": true, "show_minor_x_labels": false, "show_minor_y_labels": true, "show_only_major_dots": false, "show_x_guides": false, "show_x_labels": true, "show_y_guides": true, "show_y_labels": true, "spacing": 10, "stack_from_top": false, "strict": false, "stroke": true, "stroke_style": null, "style": {"background": "rgba(249, 249, 249, 1)", "ci_colors": [], "colors": ["red", "blue", "green", "#a3a3a3"], "font_family": "Consolas, \"Liberation Mono\", Menlo, Courier, monospace", "foreground": "rgba(0, 0, 0, .87)", "foreground_strong": "rgba(0, 0, 0, 1)", "foreground_subtle": "rgba(0, 0, 0, .54)", "guide_stroke_dasharray": "4,4", "label_font_family": "Consolas, \"Liberation Mono\", Menlo, Courier, monospace", "label_font_size": 10, "legend_font_family": "Consolas, \"Liberation Mono\", Menlo, Courier, monospace", "legend_font_size": 14, "major_guide_stroke_dasharray": "6,6", "major_label_font_family": "Consolas, \"Liberation Mono\", Menlo, Courier, monospace", "major_label_font_size": 10, "no_data_font_family": "Consolas, \"Liberation Mono\", Menlo, Courier, monospace", "no_data_font_size": 64, "opacity": ".7", "opacity_hover": ".8", "plot_background": "rgba(255, 255, 255, 1)", "stroke_opacity": ".8", "stroke_opacity_hover": ".9", "title_font_family": "Consolas, \"Liberation Mono\", Menlo, Courier, monospace", "title_font_size": 16, "tooltip_font_family": "Consolas, \"Liberation Mono\", Menlo, Courier, monospace", "tooltip_font_size": 14, "transition": "150ms", "value_background": "rgba(229, 229, 229, 1)", "value_colors": [], "value_font_family": "Consolas, \"Liberation Mono\", Menlo, Courier, monospace", "value_font_size": 16, "value_label_font_family": "Consolas, \"Liberation Mono\", Menlo, Courier, monospace", "value_label_font_size": 10}, "title": "Abdul Qadir: Future and Past Averages in ODIs", "tooltip_border_radius": 10, "tooltip_fancy_mode": true, "truncate_label": null, "truncate_legend": null, "width": 800, "x_label_rotation": 45, "x_labels": ["1983", "0", "0", "0", "0", "0", "1984", "0", "0", "0", "0", "0", "0", "0", "0", "0", "0", "1985", "0", "0", "0", "0", "0", "0", "0", "0", "0", "0", "1986", "0", "0", "0", "0", "0", "0", "0", "0", "0", "0", "0", "0", "0", "1987", "0", "0", "0", "0", "0", "0", "0", "0", "0", "0", "0", "0", "0", "0", "0", "0", "0", "1988", "0", "0", "0", "0", "0", "0", "0", "0", "0", "0", "0", "0", "1989", "0", "0", "0", "0", "0", "0", "0", "0", "0", "0", "0", "0", "0", "0", "0", "0", "0", "0", "0", "0", "0", "1990", "0", "0", "1993", "0"], "x_labels_major": ["1983", "1984", "1985", "1986", "1987", "1988", "1989", "1990", "1993"], "x_labels_major_count": null, "x_labels_major_every": null, "x_title": null, "xrange": null, "y_label_rotation": 0, "y_labels": null, "y_labels_major": null, "y_labels_major_count": null, "y_labels_major_every": null, "y_title": null, "zero": 170.0, "legends": ["Future Average", "Past Average", "Career Average"]}</script><script type="text/javascript" xlink:href="https://kozea.github.io/pygal.js/2.0.x/pygal-tooltips.min.js"/></defs><title>Abdul Qadir: Future and Past Averages in ODIs</title><g class="graph line-graph vertical"><rect class="background" height="600" width="800" x="0" y="0"/><g class="plot" transform="translate(48, 46)"><rect class="background" height="462.02943725152284" width="732.0" x="0" y="0"/><g class="axis y always_show"><g class="guides"><path class="axis major line" d="M0.000000 453.144256 h732.000000"/><text class="major" x="-5" y="456.6442557659166">0</text><title>0</title></g><g class="guides"><path class="guide line" d="M0.000000 400.569217 h732.000000"/><text class="" x="-5" y="404.06921738954856">20</text><title>20</title></g><g class="guides"><path class="guide line" d="M0.000000 347.994179 h732.000000"/><text class="" x="-5" y="351.4941790131804">40</text><title>40</title></g><g class="guides"><path class="guide line" d="M0.000000 295.419141 h732.000000"/><text class="" x="-5" y="298.91914063681236">60</text><title>60</title></g><g class="guides"><path class="guide line" d="M0.000000 242.844102 h732.000000"/><text class="" x="-5" y="246.34410226044423">80</text><title>80</title></g><g class="guides"><path class="major guide line" d="M0.000000 190.269064 h732.000000"/><text class="major" x="-5" y="193.76906388407616">100</text><title>100</title></g><g class="guides"><path class="guide line" d="M0.000000 137.694026 h732.000000"/><text class="" x="-5" y="141.19402550770803">120</text><title>120</title></g><g class="guides"><path class="guide line" d="M0.000000 85.118987 h732.000000"/><text class="" x="-5" y="88.61898713133996">140</text><title>140</title></g><g class="guides"><path class="guide line" d="M0.000000 32.543949 h732.000000"/><text class="" x="-5" y="36.04394875497184">160</text><title>160</title></g></g><g class="axis x"><g class="guides"><path class="major line" d="M14.076923 0.000000 v462.029437"/><text class="major" x="14.076923076923077" y="477.02943725152284" transform="rotate(45 14.076923 477.029437)">1983</text></g><g class="guides"><path class="major guide line" d="M56.734266 0.000000 v462.029437"/><text class="major" x="56.73426573426573" y="477.02943725152284" transform="rotate(45 56.734266 477.029437)">1984</text></g><g class="guides"><path class="major guide line" d="M134.939394 0.000000 v462.029437"/><text class="major" x="134.9393939393939" y="477.02943725152284" transform="rotate(45 134.939394 477.029437)">1985</text></g><g class="guides"><path class="major guide line" d="M213.144522 0.000000 v462.029437"/><text class="major" x="213.14452214452214" y="477.02943725152284" transform="rotate(45 213.144522 477.029437)">1986</text></g><g class="guides"><path class="major guide line" d="M312.678322 0.000000 v462.029437"/><text class="major" x="312.67832167832165" y="477.02943725152284" transform="rotate(45 312.678322 477.029437)">1987</text></g><g class="guides"><path class="major guide line" d="M440.650350 0.000000 v462.029437"/><text class="major" x="440.65034965034965" y="477.02943725152284" transform="rotate(45 440.650350 477.029437)">1988</text></g><g class="guides"><path class="major guide line" d="M533.074592 0.000000 v462.029437"/><text class="major" x="533.074592074592" y="477.02943725152284" transform="rotate(45 533.074592 477.029437)">1989</text></g><g class="guides"><path class="major guide line" d="M689.484848 0.000000 v462.029437"/><text class="major" x="689.4848484848484" y="477.02943725152284" transform="rotate(45 689.484848 477.029437)">1990</text></g><g class="guides"><path class="major guide line" d="M710.813520 0.000000 v462.029437"/><text class="major" x="710.8135198135197" y="477.02943725152284" transform="rotate(45 710.813520 477.029437)">1993</text></g></g><g class="series serie-0 color-0"><path class="line reactive nofill" d="M14.076923 384.349818 L21.186480 382.641129 28.296037 383.718918 35.405594 381.852504 42.515152 382.930292 49.624709 382.930292 56.734266 383.272030 63.843823 383.902930 70.953380 383.666343 78.062937 382.483404 85.172494 380.564415 92.282051 379.565490 99.391608 378.303689 106.501166 379.618065 113.610723 380.091240 120.720280 380.222678 127.829837 379.880940 134.939394 380.801003 142.048951 380.248965 149.158508 379.434052 156.268065 380.117527 163.377622 378.960877 170.487179 380.064952 177.596737 380.774715 184.706294 381.852504 191.815851 379.223752 198.925408 380.432978 206.034965 380.354115 213.144522 380.906153 220.254079 379.118602 227.363636 378.829439 234.473193 376.910450 241.582751 374.544573 248.692308 372.573009 255.801865 374.307986 262.911422 374.176548 270.020979 370.128270 277.130536 370.759171 284.240093 371.206058 291.349650 370.522583 298.459207 371.679234 305.568765 372.941035 312.678322 372.546722 319.787879 371.784384 326.897436 372.310134 334.006993 371.574084 341.116550 370.785458 348.226107 371.705521 355.335664 372.862172 362.445221 370.759171 369.554779 371.127196 376.664336 369.523657 383.773893 364.345016 390.883450 366.605743 397.993007 362.741477 405.102564 358.877212 412.212121 360.638476 419.321678 363.030640 426.431235 360.691051 433.540793 355.459834 440.650350 350.780656 447.759907 355.591272 454.869464 358.745774 461.979021 360.454463 469.088578 360.507038 476.198135 363.214653 483.307692 363.214653 490.417249 360.875063 497.526807 362.005427 504.636364 358.036011 511.745921 349.466280 518.855478 339.398160 525.965035 343.683026 533.074592 347.994179 540.184149 351.332694 547.293706 349.755443 554.403263 354.119171 561.512821 357.746849 568.622378 359.008650 575.731935 362.767765 582.841492 360.033863 589.951049 363.635253 597.060606 365.711967 604.170163 367.420656 611.279720 373.834810 618.389277 363.424953 625.498834 369.549945 632.608392 369.024194 639.717949 352.541920 646.827506 344.208776 653.937063 326.596138 661.046620 323.888524 668.156177 220.946599 675.265734 263.874118 682.375291 186.325936 689.484848 8.885181 696.594406 69.346476 703.703963 185.011560 710.813520 248.101606 717.923077 361.137939"/></g><g class="series serie-1 color-1"><path class="line reactive nofill" d="M14.076923 453.144256 L21.186480 439.343308 28.296037 404.512345 35.405594 418.681318 42.515152 403.776295 49.624709 400.096042 56.734266 395.311714 63.843823 388.950134 70.953380 390.658823 78.062937 397.940465 85.172494 404.459770 92.282051 405.931871 99.391608 407.877148 106.501166 402.803657 113.610723 400.963530 120.720280 399.728017 127.829837 399.596579 134.939394 396.442077 142.048951 397.204415 149.158508 398.571366 156.268065 396.547227 163.377622 398.755379 170.487179 395.811176 177.596737 393.918475 184.706294 391.079423 191.815851 396.152914 198.925408 393.419012 206.034965 393.261287 213.144522 392.052061 220.254079 394.838538 227.363636 394.680813 234.473193 396.967827 241.582751 399.465142 248.692308 400.858380 255.801865 398.413641 262.911422 398.177053 270.020979 401.436706 277.130536 400.174905 284.240093 399.202266 291.349650 399.044541 298.459207 397.809028 305.568765 396.494652 312.678322 396.520939 319.787879 396.573514 326.897436 395.706026 334.006993 396.047764 341.116550 395.679739 348.226107 394.601951 355.335664 393.655600 362.445221 394.365363 369.554779 393.813325 376.664336 394.312788 383.773893 396.179202 390.883450 394.838538 397.993007 395.916326 405.102564 396.678665 412.212121 395.811176 419.321678 394.654526 426.431235 395.022551 433.540793 396.047764 440.650350 396.468364 447.759907 394.733388 454.869464 393.603025 461.979021 392.972124 469.088578 392.630387 476.198135 391.684036 483.307692 391.421161 490.417249 391.552598 497.526807 390.921698 504.636364 391.447448 511.745921 392.498949 518.855478 393.340150 525.965035 392.498949 533.074592 391.631461 540.184149 390.974273 547.293706 390.895410 554.403263 390.080497 561.512821 389.397022 568.622378 389.160434 575.731935 388.450671 582.841492 388.450671 589.951049 387.846058 597.060606 387.504320 604.170163 387.031145 611.279720 386.005932 618.389277 387.031145 625.498834 386.268807 632.608392 386.189944 639.717949 387.241445 646.827506 387.294020 653.937063 387.583183 661.046620 387.241445 668.156177 388.161508 675.265734 387.162583 682.375291 387.399170 689.484848 387.215158 696.594406 386.768270 703.703963 385.874494 710.813520 385.401319 717.923077 385.059581"/></g><g class="series serie-2 color-2"><path class="line reactive nofill" d="M14.076923 384.349818 L21.186480 384.349818 28.296037 384.349818 35.405594 384.349818 42.515152 384.349818 49.624709 384.349818 56.734266 384.349818 63.843823 384.349818 70.953380 384.349818 78.062937 384.349818 85.172494 384.349818 92.282051 384.349818 99.391608 384.349818 106.501166 384.349818 113.610723 384.349818 120.720280 384.349818 127.829837 384.349818 134.939394 384.349818 142.048951 384.349818 149.158508 384.349818 156.268065 384.349818 163.377622 384.349818 170.487179 384.349818 177.596737 384.349818 184.706294 384.349818 191.815851 384.349818 198.925408 384.349818 206.034965 384.349818 213.144522 384.349818 220.254079 384.349818 227.363636 384.349818 234.473193 384.349818 241.582751 384.349818 248.692308 384.349818 255.801865 384.349818 262.911422 384.349818 270.020979 384.349818 277.130536 384.349818 284.240093 384.349818 291.349650 384.349818 298.459207 384.349818 305.568765 384.349818 312.678322 384.349818 319.787879 384.349818 326.897436 384.349818 334.006993 384.349818 341.116550 384.349818 348.226107 384.349818 355.335664 384.349818 362.445221 384.349818 369.554779 384.349818 376.664336 384.349818 383.773893 384.349818 390.883450 384.349818 397.993007 384.349818 405.102564 384.349818 412.212121 384.349818 419.321678 384.349818 426.431235 384.349818 433.540793 384.349818 440.650350 384.349818 447.759907 384.349818 454.869464 384.349818 461.979021 384.349818 469.088578 384.349818 476.198135 384.349818 483.307692 384.349818 490.417249 384.349818 497.526807 384.349818 504.636364 384.349818 511.745921 384.349818 518.855478 384.349818 525.965035 384.349818 533.074592 384.349818 540.184149 384.349818 547.293706 384.349818 554.403263 384.349818 561.512821 384.349818 568.622378 384.349818 575.731935 384.349818 582.841492 384.349818 589.951049 384.349818 597.060606 384.349818 604.170163 384.349818 611.279720 384.349818 618.389277 384.349818 625.498834 384.349818 632.608392 384.349818 639.717949 384.349818 646.827506 384.349818 653.937063 384.349818 661.046620 384.349818 668.156177 384.349818 675.265734 384.349818 682.375291 384.349818 689.484848 384.349818 696.594406 384.349818 703.703963 384.349818 710.813520 384.349818 717.923077 384.349818"/></g></g><g class="titles"><text class="title plot_title" x="400.0" y="26">Abdul Qadir: Future and Past Averages in ODIs</text></g><g class="plot overlay" transform="translate(48, 46)"><g class="series serie-0 color-0"><g class="dots"><desc class="label">132 wickets in 100 innings (850.0 overs)</desc><circle class="dot reactive tooltip-trigger" cx="14.076923076923077" cy="384.34981805043896" r="2.5"/><desc class="value">26.17</desc><desc class="x top">14.076923076923077</desc><desc class="y top">384.34981805043896</desc><desc class="x_label">1983</desc></g><g class="dots"><desc class="label">120 wickets in 94 innings (782.2 overs)</desc><circle class="dot reactive tooltip-trigger" cx="56.73426573426573" cy="383.2720297637234" r="2.5"/><desc class="value">26.58</desc><desc class="x top">56.73426573426573</desc><desc class="y top">383.2720297637234</desc><desc class="x_label">1984</desc></g><g class="dots"><desc class="label">102 wickets in 83 innings (679.2 overs)</desc><circle class="dot reactive tooltip-trigger" cx="134.9393939393939" cy="380.8010029600341" r="2.5"/><desc class="value">27.52</desc><desc class="x top">134.9393939393939</desc><desc class="y top">380.8010029600341</desc><desc class="x_label">1985</desc></g><g class="dots"><desc class="label">91 wickets in 72 innings (598.5 overs)</desc><circle class="dot reactive tooltip-trigger" cx="213.14452214452214" cy="380.90615303678686" r="2.5"/><desc class="value">27.48</desc><desc class="x top">213.14452214452214</desc><desc class="y top">380.90615303678686</desc><desc class="x_label">1986</desc></g><g class="dots"><desc class="label">67 wickets in 58 innings (474.3 overs)</desc><circle class="dot reactive tooltip-trigger" cx="312.67832167832165" cy="372.54672193494434" r="2.5"/><desc class="value">30.66</desc><desc class="x top">312.67832167832165</desc><desc class="y top">372.54672193494434</desc><desc class="x_label">1987</desc></g><g class="dots"><desc class="label">35 wickets in 40 innings (307.4 overs)</desc><circle class="dot reactive tooltip-trigger" cx="440.65034965034965" cy="350.78065604712793" r="2.5"/><desc class="value">38.94</desc><desc class="x left top">440.65034965034965</desc><desc class="y left top">350.78065604712793</desc><desc class="x_label">1988</desc></g><g class="dots"><desc class="label">22 wickets in 27 innings (197.4 overs)</desc><circle class="dot reactive tooltip-trigger" cx="533.074592074592" cy="347.9941790131804" r="2.5"/><desc class="value">40</desc><desc class="x left top">533.074592074592</desc><desc class="y left top">347.9941790131804</desc><desc class="x_label">1989</desc></g><g class="dots"><desc class="label">1 wickets in 5 innings (36.2 overs)</desc><circle class="dot reactive tooltip-trigger" cx="689.4848484848484" cy="8.885181485606154" r="2.5"/><desc class="value">169</desc><desc class="x left">689.4848484848484</desc><desc class="y left">8.885181485606154</desc><desc class="x_label">1990</desc></g><g class="dots"><desc class="label">1 wickets in 2 innings (17.2 overs)</desc><circle class="dot reactive tooltip-trigger" cx="710.8135198135197" cy="248.10160609808105" r="2.5"/><desc class="value">78</desc><desc class="x left top">710.8135198135197</desc><desc class="y left top">248.10160609808105</desc><desc class="x_label">1993</desc></g></g><g class="series serie-1 color-1"><g class="dots"><desc class="label">0 wickets over 0 innings</desc><circle class="dot reactive tooltip-trigger" cx="14.076923076923077" cy="453.1442557659166" r="2.5"/><desc class="value">0</desc><desc class="x top">14.076923076923077</desc><desc class="y top">453.1442557659166</desc><desc class="x_label">1983</desc></g><g class="dots"><desc class="label">12 wickets in 6 innings (67.4 overs)</desc><circle class="dot reactive tooltip-trigger" cx="56.73426573426573" cy="395.3117135519117" r="2.5"/><desc class="value">22</desc><desc class="x top">56.73426573426573</desc><desc class="y top">395.3117135519117</desc><desc class="x_label">1984</desc></g><g class="dots"><desc class="label">30 wickets in 17 innings (170.4 overs)</desc><circle class="dot reactive tooltip-trigger" cx="134.9393939393939" cy="396.4420768770036" r="2.5"/><desc class="value">21.57</desc><desc class="x top">134.9393939393939</desc><desc class="y top">396.4420768770036</desc><desc class="x_label">1985</desc></g><g class="dots"><desc class="label">41 wickets in 28 innings (251.1 overs)</desc><circle class="dot reactive tooltip-trigger" cx="213.14452214452214" cy="392.0520611725769" r="2.5"/><desc class="value">23.24</desc><desc class="x top">213.14452214452214</desc><desc class="y top">392.0520611725769</desc><desc class="x_label">1986</desc></g><g class="dots"><desc class="label">65 wickets in 42 innings (375.3 overs)</desc><circle class="dot reactive tooltip-trigger" cx="312.67832167832165" cy="396.52093943456816" r="2.5"/><desc class="value">21.54</desc><desc class="x top">312.67832167832165</desc><desc class="y top">396.52093943456816</desc><desc class="x_label">1987</desc></g><g class="dots"><desc class="label">97 wickets in 60 innings (542.2 overs)</desc><circle class="dot reactive tooltip-trigger" cx="440.65034965034965" cy="396.4683643961918" r="2.5"/><desc class="value">21.56</desc><desc class="x left top">440.65034965034965</desc><desc class="y left top">396.4683643961918</desc><desc class="x_label">1988</desc></g><g class="dots"><desc class="label">110 wickets in 73 innings (652.2 overs)</desc><circle class="dot reactive tooltip-trigger" cx="533.074592074592" cy="391.63146086556594" r="2.5"/><desc class="value">23.4</desc><desc class="x left top">533.074592074592</desc><desc class="y left top">391.63146086556594</desc><desc class="x_label">1989</desc></g><g class="dots"><desc class="label">131 wickets in 95 innings (813.4 overs)</desc><circle class="dot reactive tooltip-trigger" cx="689.4848484848484" cy="387.215157641951" r="2.5"/><desc class="value">25.08</desc><desc class="x left top">689.4848484848484</desc><desc class="y left top">387.215157641951</desc><desc class="x_label">1990</desc></g><g class="dots"><desc class="label">131 wickets in 98 innings (832.4 overs)</desc><circle class="dot reactive tooltip-trigger" cx="710.8135198135197" cy="385.40131881796634" r="2.5"/><desc class="value">25.77</desc><desc class="x left top">710.8135198135197</desc><desc class="y left top">385.40131881796634</desc><desc class="x_label">1993</desc></g></g><g class="series serie-2 color-2"/></g><g class="plot text-overlay" transform="translate(48, 46)"><g class="series serie-0 color-0"/><g class="series serie-1 color-1"/><g class="series serie-2 color-2"/></g><g class="plot tooltip-overlay" transform="translate(48, 46)"><g class="tooltip" style="opacity: 0" transform="translate(0 0)"><rect class="tooltip-box" height="0" rx="10" ry="10" width="0"/><g class="text"/></g></g><g class="legends" transform="translate(58, 545)"><g class="legend reactive activate-serie" id="activate-serie-0"><rect class="color-0 reactive" height="12" width="12" x="0.0" y="1.0"/><text x="17.0" y="11.2">Future Average</text></g><g class="legend reactive activate-serie" id="activate-serie-1"><rect class="color-1 reactive" height="12" width="12" x="366.0" y="1.0"/><text x="383.0" y="11.2">Past Average</text></g><g class="legend reactive activate-serie" id="activate-serie-2"><rect class="color-2 reactive" height="12" width="12" x="0.0" y="22.0"/><text x="17.0" y="32.2">Career Average</text></g></g></g></svg>