<?xml version='1.0' encoding='utf-8'?>
<svg xmlns:xlink="http://www.w3.org/1999/xlink" xmlns="http://www.w3.org/2000/svg" id="chart-4e0e670e-ed33-43de-9283-8239eaa65362" class="pygal-chart" viewBox="0 0 800 600"><!--Generated with pygal 2.4.0 (lxml) ©Kozea 2012-2016 on 2019-08-04--><!--http://pygal.org--><!--http://github.com/Kozea/pygal--><defs><style type="text/css">#chart-4e0e670e-ed33-43de-9283-8239eaa65362{-webkit-user-select:none;-webkit-font-smoothing:antialiased;font-family:Consolas,"Liberation Mono",Menlo,Courier,monospace}#chart-4e0e670e-ed33-43de-9283-8239eaa65362 .title{font-family:Consolas,"Liberation Mono",Menlo,Courier,monospace;font-size:16px}#chart-4e0e670e-ed33-43de-9283-8239eaa65362 .legends .legend text{font-family:Consolas,"Liberation Mono",Menlo,Courier,monospace;font-size:14px}#chart-4e0e670e-ed33-43de-9283-8239eaa65362 .axis text{font-family:Consolas,"Liberation Mono",Menlo,Courier,monospace;font-size:10px}#chart-4e0e670e-ed33-43de-9283-8239eaa65362 .axis text.major{font-family:Consolas,"Liberation Mono",Menlo,Courier,monospace;font-size:10px}#chart-4e0e670e-ed33-43de-9283-8239eaa65362 .text-overlay text.value{font-family:Consolas,"Liberation Mono",Menlo,Courier,monospace;font-size:16px}#chart-4e0e670e-ed33-43de-9283-8239eaa65362 .text-overlay text.label{font-family:Consolas,"Liberation Mono",Menlo,Courier,monospace;font-size:10px}#chart-4e0e670e-ed33-43de-9283-8239eaa65362 .tooltip{font-family:Consolas,"Liberation Mono",Menlo,Courier,monospace;font-size:14px}#chart-4e0e670e-ed33-43de-9283-8239eaa65362 text.no_data{font-family:Consolas,"Liberation Mono",Menlo,Courier,monospace;font-size:64px}
#chart-4e0e670e-ed33-43de-9283-8239eaa65362{background-color:rgba(249,249,249,1)}#chart-4e0e670e-ed33-43de-9283-8239eaa65362 path,#chart-4e0e670e-ed33-43de-9283-8239eaa65362 line,#chart-4e0e670e-ed33-43de-9283-8239eaa65362 rect,#chart-4e0e670e-ed33-43de-9283-8239eaa65362 circle{-webkit-transition:150ms;-moz-transition:150ms;transition:150ms}#chart-4e0e670e-ed33-43de-9283-8239eaa65362 .graph &gt; .background{fill:rgba(249,249,249,1)}#chart-4e0e670e-ed33-43de-9283-8239eaa65362 .plot &gt; .background{fill:rgba(255,255,255,1)}#chart-4e0e670e-ed33-43de-9283-8239eaa65362 .graph{fill:rgba(0,0,0,.87)}#chart-4e0e670e-ed33-43de-9283-8239eaa65362 text.no_data{fill:rgba(0,0,0,1)}#chart-4e0e670e-ed33-43de-9283-8239eaa65362 .title{fill:rgba(0,0,0,1)}#chart-4e0e670e-ed33-43de-9283-8239eaa65362 .legends .legend text{fill:rgba(0,0,0,.87)}#chart-4e0e670e-ed33-43de-9283-8239eaa65362 .legends .legend:hover text{fill:rgba(0,0,0,1)}#chart-4e0e670e-ed33-43de-9283-8239eaa65362 .axis .line{stroke:rgba(0,0,0,1)}#chart-4e0e670e-ed33-43de-9283-8239eaa65362 .axis .guide.line{stroke:rgba(0,0,0,.54)}#chart-4e0e670e-ed33-43de-9283-8239eaa65362 .axis .major.line{stroke:rgba(0,0,0,.87)}#chart-4e0e670e-ed33-43de-9283-8239eaa65362 .axis text.major{fill:rgba(0,0,0,1)}#chart-4e0e670e-ed33-43de-9283-8239eaa65362 .axis.y .guides:hover .guide.line,#chart-4e0e670e-ed33-43de-9283-8239eaa65362 .line-graph .axis.x .guides:hover .guide.line,#chart-4e0e670e-ed33-43de-9283-8239eaa65362 .stackedline-graph .axis.x .guides:hover .guide.line,#chart-4e0e670e-ed33-43de-9283-8239eaa65362 .xy-graph .axis.x .guides:hover .guide.line{stroke:rgba(0,0,0,1)}#chart-4e0e670e-ed33-43de-9283-8239eaa65362 .axis .guides:hover text{fill:rgba(0,0,0,1)}#chart-4e0e670e-ed33-43de-9283-8239eaa65362 .reactive{fill-opacity:.7;stroke-opacity:.8}#chart-4e0e670e-ed33-43de-9283-8239eaa65362 .ci{stroke:rgba(0,0,0,.87)}#chart-4e0e670e-ed33-43de-9283-8239eaa65362 .reactive.active,#chart-4e0e670e-ed33-43de-9283-8239eaa65362 .active .reactive{fill-opacity:.8;stroke-opacity:.9;stroke-width:4}#chart-4e0e670e-ed33-43de-9283-8239eaa65362 .ci .reactive.active{stroke-width:1.5}#chart-4e0e670e-ed33-43de-9283-8239eaa65362 .series text{fill:rgba(0,0,0,1)}#chart-4e0e670e-ed33-43de-9283-8239eaa65362 .tooltip rect{fill:rgba(255,255,255,1);stroke:rgba(0,0,0,1);-webkit-transition:opacity 150ms;-moz-transition:opacity 150ms;transition:opacity 150ms}#chart-4e0e670e-ed33-43de-9283-8239eaa65362 .tooltip .label{fill:rgba(0,0,0,.87)}#chart-4e0e670e-ed33-43de-9283-8239eaa65362 .tooltip .label{fill:rgba(0,0,0,.87)}#chart-4e0e670e-ed33-43de-9283-8239eaa65362 .tooltip .legend{font-size:.8em;fill:rgba(0,0,0,.54)}#chart-4e0e670e-ed33-43de-9283-8239eaa65362 .tooltip .x_label{font-size:.6em;fill:rgba(0,0,0,1)}#chart-4e0e670e-ed33-43de-9283-8239eaa65362 .tooltip .xlink{font-size:.5em;text-decoration:underline}#chart-4e0e670e-ed33-43de-9283-8239eaa65362 .tooltip .value{font-size:1.5em}#chart-4e0e670e-ed33-43de-9283-8239eaa65362 .bound{font-size:.5em}#chart-4e0e670e-ed33-43de-9283-8239eaa65362 .max-value{font-size:.75em;fill:rgba(0,0,0,.54)}#chart-4e0e670e-ed33-43de-9283-8239eaa65362 .map-element{fill:rgba(255,255,255,1);stroke:rgba(0,0,0,.54) !important}#chart-4e0e670e-ed33-43de-9283-8239eaa65362 .map-element .reactive{fill-opacity:inherit;stroke-opacity:inherit}#chart-4e0e670e-ed33-43de-9283-8239eaa65362 .color-0,#chart-4e0e670e-ed33-43de-9283-8239eaa65362 .color-0 a:visited{stroke:red;fill:red}#chart-4e0e670e-ed33-43de-9283-8239eaa65362 .color-1,#chart-4e0e670e-ed33-43de-9283-8239eaa65362 .color-1 a:visited{stroke:blue;fill:blue}#chart-4e0e670e-ed33-43de-9283-8239eaa65362 .color-2,#chart-4e0e670e-ed33-43de-9283-8239eaa65362 .color-2 a:visited{stroke:green;fill:green}#chart-4e0e670e-ed33-43de-9283-8239eaa65362 .text-overlay .color-0 text{fill:white}#chart-4e0e670e-ed33-43de-9283-8239eaa65362 .text-overlay .color-1 text{fill:white}#chart-4e0e670e-ed33-43de-9283-8239eaa65362 .text-overlay .color-2 text{fill:white}
#chart-4e0e670e-ed33-43de-9283-8239eaa65362 text.no_data{text-anchor:middle}#chart-4e0e670e-ed33-43de-9283-8239eaa65362 .guide.line{fill:none}#chart-4e0e670e-ed33-43de-9283-8239eaa65362 .centered{text-anchor:middle}#chart-4e0e670e-ed33-43de-9283-8239eaa65362 .title{text-anchor:middle}#chart-4e0e670e-ed33-43de-9283-8239eaa65362 .legends .legend text{fill-opacity:1}#chart-4e0e670e-ed33-43de-9283-8239eaa65362 .axis.x text{text-anchor:middle}#chart-4e0e670e-ed33-43de-9283-8239eaa65362 .axis.x:not(.web) text[transform]{text-anchor:start}#chart-4e0e670e-ed33-43de-9283-8239eaa65362 .axis.x:not(.web) text[transform].backwards{text-anchor:end}#chart-4e0e670e-ed33-43de-9283-8239eaa65362 .axis.y text{text-anchor:end}#chart-4e0e670e-ed33-43de-9283-8239eaa65362 .axis.y text[transform].backwards{text-anchor:start}#chart-4e0e670e-ed33-43de-9283-8239eaa65362 .axis.y2 text{text-anchor:start}#chart-4e0e670e-ed33-43de-9283-8239eaa65362 .axis.y2 text[transform].backwards{text-anchor:end}#chart-4e0e670e-ed33-43de-9283-8239eaa65362 .axis .guide.line{stroke-dasharray:4,4}#chart-4e0e670e-ed33-43de-9283-8239eaa65362 .axis .major.guide.line{stroke-dasharray:6,6}#chart-4e0e670e-ed33-43de-9283-8239eaa65362 .horizontal .axis.y .guide.line,#chart-4e0e670e-ed33-43de-9283-8239eaa65362 .horizontal .axis.y2 .guide.line,#chart-4e0e670e-ed33-43de-9283-8239eaa65362 .vertical .axis.x .guide.line{opacity:0}#chart-4e0e670e-ed33-43de-9283-8239eaa65362 .horizontal .axis.always_show .guide.line,#chart-4e0e670e-ed33-43de-9283-8239eaa65362 .vertical .axis.always_show .guide.line{opacity:1 !important}#chart-4e0e670e-ed33-43de-9283-8239eaa65362 .axis.y .guides:hover .guide.line,#chart-4e0e670e-ed33-43de-9283-8239eaa65362 .axis.y2 .guides:hover .guide.line,#chart-4e0e670e-ed33-43de-9283-8239eaa65362 .axis.x .guides:hover .guide.line{opacity:1}#chart-4e0e670e-ed33-43de-9283-8239eaa65362 .axis .guides:hover text{opacity:1}#chart-4e0e670e-ed33-43de-9283-8239eaa65362 .nofill{fill:none}#chart-4e0e670e-ed33-43de-9283-8239eaa65362 .subtle-fill{fill-opacity:.2}#chart-4e0e670e-ed33-43de-9283-8239eaa65362 .dot{stroke-width:1px;fill-opacity:1}#chart-4e0e670e-ed33-43de-9283-8239eaa65362 .dot.active{stroke-width:5px}#chart-4e0e670e-ed33-43de-9283-8239eaa65362 .dot.negative{fill:transparent}#chart-4e0e670e-ed33-43de-9283-8239eaa65362 text,#chart-4e0e670e-ed33-43de-9283-8239eaa65362 tspan{stroke:none !important}#chart-4e0e670e-ed33-43de-9283-8239eaa65362 .series text.active{opacity:1}#chart-4e0e670e-ed33-43de-9283-8239eaa65362 .tooltip rect{fill-opacity:.95;stroke-width:.5}#chart-4e0e670e-ed33-43de-9283-8239eaa65362 .tooltip text{fill-opacity:1}#chart-4e0e670e-ed33-43de-9283-8239eaa65362 .showable{visibility:hidden}#chart-4e0e670e-ed33-43de-9283-8239eaa65362 .showable.shown{visibility:visible}#chart-4e0e670e-ed33-43de-9283-8239eaa65362 .gauge-background{fill:rgba(229,229,229,1);stroke:none}#chart-4e0e670e-ed33-43de-9283-8239eaa65362 .bg-lines{stroke:rgba(249,249,249,1);stroke-width:2px}</style><script type="text/javascript">window.pygal = window.pygal || {};window.pygal.config = window.pygal.config || {};window.pygal.config['4e0e670e-ed33-43de-9283-8239eaa65362'] = {"allow_interruptions": false, "box_mode": "extremes", "classes": ["pygal-chart"], "css": ["file://style.css", "file://graph.css"], "defs": [], "disable_xml_declaration": false, "dots_size": 2.5, "dynamic_print_values": false, "explicit_size": false, "fill": false, "force_uri_protocol": "https", "formatter": null, "half_pie": false, "height": 600, "include_x_axis": false, "inner_radius": 0, "interpolate": null, "interpolation_parameters": {}, "interpolation_precision": 250, "inverse_y_axis": false, "js": ["//kozea.github.io/pygal.js/2.0.x/pygal-tooltips.min.js"], "legend_at_bottom": true, "legend_at_bottom_columns": null, "legend_box_size": 12, "logarithmic": false, "margin": 20, "margin_bottom": null, "margin_left": null, "margin_right": null, "margin_top": null, "max_scale": 16, "min_scale": 4, "missing_value_fill_truncation": "x", "no_data_text": "No data", "no_prefix": false, "order_min": null, "pretty_print": false, "print_labels": false, "print_values": false, "print_values_position": "center", "print_zeroes": true, "range": null, "rounded_bars": null, "secondary_range": null, "show_dots": true, "show_legend": true, "show_minor_x_labels": false, "show_minor_y_labels": true, "show_only_major_dots": false, "show_x_guides": false, "show_x_labels": true, "show_y_guides": true, "show_y_labels": true, "spacing": 10, "stack_from_top": false, "strict": false, "stroke": true, "stroke_style": null, "style": {"background": "rgba(249, 249, 249, 1)", "ci_colors": [], "colors": ["red", "blue", "green", "#a3a3a3"], "font_family": "Consolas, \"Liberation Mono\", Menlo, Courier, monospace", "foreground": "rgba(0, 0, 0, .87)", "foreground_strong": "rgba(0, 0, 0, 1)", "foreground_subtle": "rgba(0, 0, 0, .54)", "guide_stroke_dasharray": "4,4", "label_font_family": "Consolas, \"Liberation Mono\", Menlo, Courier, monospace", "label_font_size": 10, "legend_font_family": "Consolas, \"Liberation Mono\", Menlo, Courier, monospace", "legend_font_size": 14, "major_guide_stroke_dasharray": "6,6", "major_label_font_family": "Consolas, \"Liberation Mono\", Menlo, Courier, monospace", "major_label_font_size": 10, "no_data_font_family": "Consolas, \"Liberation Mono\", Menlo, Courier, monospace", "no_data_font_size": 64, "opacity": ".7", "opacity_hover": ".8", "plot_background": "rgba(255, 255, 255, 1)", "stroke_opacity": ".8", "stroke_opacity_hover": ".9", "title_font_family": "Consolas, \"Liberation Mono\", Menlo, Courier, monospace", "title_font_size": 16, "tooltip_font_family": "Consolas, \"Liberation Mono\", Menlo, Courier, monospace", "tooltip_font_size": 14, "transition": "150ms", "value_background": "rgba(229, 229, 229, 1)", "value_colors": [], "value_font_family": "Consolas, \"Liberation Mono\", Menlo, Courier, monospace", "value_font_size": 16, "value_label_font_family": "Consolas, \"Liberation Mono\", Menlo, Courier, monospace", "value_label_font_size": 10}, "title": "Abdul Razzaq: Future and Past Averages in ODIs", "tooltip_border_radius": 10, "tooltip_fancy_mode": true, "truncate_label": null, "truncate_legend": null, "width": 800, "x_label_rotation": 45, "x_labels": ["1996", "0", "1997", "0", "1998", "0", "0", "0", "0", "0", "0", "0", "0", "1999", "0", "0", "0", "0", "0", "0", "0", "0", "0", "0", "0", "0", "0", "0", "0", "0", "0", "2000", "0", "0", "0", "0", "0", "0", "0", "0", "0", "0", "0", "0", "0", "0", "0", "0", "0", "0", "0", "0", "0", "0", "0", "0", "0", "0", "0", "0", "0", "0", "0", "0", "0", "0", "0", "0", "0", "2001", "0", "0", "0", "0", "0", "0", "0", "0", "0", "0", "0", "0", "0", "0", "0", "0", "0", "0", "0", "2002", "0", "0", "0", "0", "0", "0", "0", "0", "0", "0", "0", "0", "0", "0", "0", "0", "0", "0", "0", "0", "0", "0", "0", "0", "0", "2003", "0", "0", "0", "0", "0", "0", "0", "0", "0", "0", "0", "0", "0", "0", "0", "0", "0", "0", "0", "0", "0", "0", "0", "0", "0", "0", "0", "0", "2004", "0", "0", "0", "0", "0", "0", "0", "0", "0", "0", "0", "0", "0", "0", "0", "0", "0", "0", "0", "0", "0", "0", "0", "0", "2005", "0", "0", "0", "0", "0", "0", "0", "0", "0", "0", "0", "0", "0", "0", "0", "0", "0", "0", "0", "0", "0", "0", "0", "0", "2006", "0", "0", "0", "0", "0", "0", "0", "0", "0", "0", "0", "0", "0", "0", "0", "0", "0", "0", "0", "0", "0", "2007", "0", "0", "0", "0", "2009", "0", "0", "0", "0", "0", "2010", "0", "0", "0", "0", "0", "0", "0", "0", "0", "0", "2011", "0", "0", "0", "0", "0", "0", "0", "0", "0", "0", "0", "0", "0", "0", "0"], "x_labels_major": ["1996", "1997", "1998", "1999", "2000", "2001", "2002", "2003", "2004", "2005", "2006", "2007", "2009", "2010", "2011"], "x_labels_major_count": null, "x_labels_major_every": null, "x_title": null, "xrange": null, "y_label_rotation": 0, "y_labels": null, "y_labels_major": null, "y_labels_major_count": null, "y_labels_major_every": null, "y_title": null, "zero": 60, "legends": ["Future Average", "Past Average", "Career Average"]}</script><script type="text/javascript" xlink:href="https://kozea.github.io/pygal.js/2.0.x/pygal-tooltips.min.js"/></defs><title>Abdul Razzaq: Future and Past Averages in ODIs</title><g class="graph line-graph vertical"><rect class="background" height="600" width="800" x="0" y="0"/><g class="plot" transform="translate(42, 46)"><rect class="background" height="462.02943725152284" width="738.0" x="0" y="0"/><g class="axis y always_show"><g class="guides"><path class="axis major line" d="M0.000000 453.144256 h738.000000"/><text class="major" x="-5" y="456.6442557659166">0</text><title>0</title></g><g class="guides"><path class="guide line" d="M0.000000 360.763496 h738.000000"/><text class="" x="-5" y="364.2634958823004">10</text><title>10</title></g><g class="guides"><path class="guide line" d="M0.000000 268.382736 h738.000000"/><text class="" x="-5" y="271.8827359986842">20</text><title>20</title></g><g class="guides"><path class="guide line" d="M0.000000 176.001976 h738.000000"/><text class="" x="-5" y="179.50197611506792">30</text><title>30</title></g><g class="guides"><path class="guide line" d="M0.000000 83.621216 h738.000000"/><text class="" x="-5" y="87.12121623145174">40</text><title>40</title></g></g><g class="axis x"><g class="guides"><path class="major line" d="M14.192308 0.000000 v462.029437"/><text class="major" x="14.192307692307692" y="477.02943725152284" transform="rotate(45 14.192308 477.029437)">1996</text></g><g class="guides"><path class="major guide line" d="M19.801915 0.000000 v462.029437"/><text class="major" x="19.80191547582852" y="477.02943725152284" transform="rotate(45 19.801915 477.029437)">1997</text></g><g class="guides"><path class="major guide line" d="M25.411523 0.000000 v462.029437"/><text class="major" x="25.411523259349345" y="477.02943725152284" transform="rotate(45 25.411523 477.029437)">1998</text></g><g class="guides"><path class="major guide line" d="M50.654758 0.000000 v462.029437"/><text class="major" x="50.65475828519306" y="477.02943725152284" transform="rotate(45 50.654758 477.029437)">1999</text></g><g class="guides"><path class="major guide line" d="M101.141228 0.000000 v462.029437"/><text class="major" x="101.14122833688052" y="477.02943725152284" transform="rotate(45 101.141228 477.029437)">2000</text></g><g class="guides"><path class="major guide line" d="M207.723776 0.000000 v462.029437"/><text class="major" x="207.7237762237762" y="477.02943725152284" transform="rotate(45 207.723776 477.029437)">2001</text></g><g class="guides"><path class="major guide line" d="M263.819854 0.000000 v462.029437"/><text class="major" x="263.8198540589845" y="477.02943725152284" transform="rotate(45 263.819854 477.029437)">2002</text></g><g class="guides"><path class="major guide line" d="M336.744755 0.000000 v462.029437"/><text class="major" x="336.7447552447552" y="477.02943725152284" transform="rotate(45 336.744755 477.029437)">2003</text></g><g class="guides"><path class="major guide line" d="M418.084068 0.000000 v462.029437"/><text class="major" x="418.08406810580726" y="477.02943725152284" transform="rotate(45 418.084068 477.029437)">2004</text></g><g class="guides"><path class="major guide line" d="M488.204165 0.000000 v462.029437"/><text class="major" x="488.20416539981755" y="477.02943725152284" transform="rotate(45 488.204165 477.029437)">2005</text></g><g class="guides"><path class="major guide line" d="M558.324263 0.000000 v462.029437"/><text class="major" x="558.324262693828" y="477.02943725152284" transform="rotate(45 558.324263 477.029437)">2006</text></g><g class="guides"><path class="major guide line" d="M620.029948 0.000000 v462.029437"/><text class="major" x="620.0299483125569" y="477.02943725152284" transform="rotate(45 620.029948 477.029437)">2007</text></g><g class="guides"><path class="major guide line" d="M634.053968 0.000000 v462.029437"/><text class="major" x="634.053967771359" y="477.02943725152284" transform="rotate(45 634.053968 477.029437)">2009</text></g><g class="guides"><path class="major guide line" d="M650.882791 0.000000 v462.029437"/><text class="major" x="650.8827911219216" y="477.02943725152284" transform="rotate(45 650.882791 477.029437)">2010</text></g><g class="guides"><path class="major guide line" d="M681.735634 0.000000 v462.029437"/><text class="major" x="681.7356339312861" y="477.02943725152284" transform="rotate(45 681.735634 477.029437)">2011</text></g></g><g class="series serie-0 color-0"><path class="line reactive nofill" d="M14.192308 159.003916 L16.997112 157.802966 19.801915 157.525824 22.606719 157.987728 25.411523 159.465820 28.216327 159.927724 31.021131 160.666770 33.825935 160.112485 36.630739 160.112485 39.435543 160.759151 42.240347 161.221055 45.045151 161.867720 47.849954 162.606766 50.654758 160.943912 53.459562 159.650582 56.264366 157.341063 59.069170 155.123924 61.873974 155.770590 64.678778 157.156301 67.483582 158.634393 70.288386 158.911536 73.093189 156.232493 75.897993 154.846782 78.702797 155.401067 81.507601 155.123924 84.312405 153.830594 87.117209 153.830594 89.922013 152.260121 92.726817 146.994418 95.531621 147.918225 98.336424 149.026794 101.141228 148.287748 103.946032 143.761091 106.750836 143.668710 109.555640 145.146802 112.360444 144.684899 115.165248 139.603957 117.970052 139.973480 120.774856 140.158241 123.579659 140.897287 126.384463 142.282999 129.189267 142.652522 131.994071 138.310626 134.798875 138.680149 137.603679 139.234434 140.408483 140.527764 143.213287 137.941103 146.018091 137.848722 148.822894 138.125865 151.627698 136.370630 154.432502 134.707776 157.237306 135.169680 160.042110 135.354442 162.846914 134.153492 165.651718 133.322065 168.456522 128.610646 171.261326 123.160181 174.066130 123.344943 176.870933 122.051612 179.675737 118.448763 182.480541 117.247813 185.285345 117.986859 188.090149 115.954482 190.894953 112.259252 193.699757 111.150683 196.504561 110.781160 199.309365 112.998298 202.114168 112.813536 204.918972 114.938294 207.723776 113.090679 210.528580 115.123055 213.333384 114.661152 216.138188 112.998298 218.942992 109.025925 221.747796 110.504017 224.552600 112.628775 227.357403 110.226875 230.162207 104.961172 232.967011 108.102118 235.771815 107.270691 238.576619 107.547833 241.381423 105.515456 244.186227 106.993548 246.991031 105.700218 249.795835 108.102118 252.600638 108.933544 255.405442 110.781160 258.210246 109.210687 261.015050 110.134494 263.819854 111.427825 266.624658 109.672591 269.429462 109.672591 272.234266 97.293569 275.039070 93.783100 277.843874 89.718346 280.648677 89.533585 283.453481 87.501208 286.258285 90.180250 289.063089 92.489769 291.867893 91.473581 294.672697 92.674531 297.477501 92.212627 300.282305 92.120246 303.087109 93.228815 305.891912 87.316447 308.696716 84.175501 311.501520 87.131685 314.306324 77.708848 317.111128 79.648844 319.915932 75.676471 322.720736 79.279321 325.525540 80.387890 328.330344 79.186940 331.135147 82.050743 333.939951 81.404078 336.744755 83.898359 339.549559 87.316447 342.354363 89.533585 345.159167 88.240254 347.963971 91.104058 350.768775 87.593589 353.573579 89.071681 356.378382 90.826916 359.183186 89.348823 361.987990 84.360262 364.792794 83.159312 367.597598 83.621216 370.402402 81.865982 373.207206 80.295509 376.012010 79.741224 378.816814 82.143124 381.621618 74.198379 384.426421 68.747914 387.231225 70.041245 390.036029 66.346014 392.840833 68.747914 395.645637 71.611717 398.450441 74.105998 401.255245 72.812667 404.060049 75.861232 406.864853 74.845044 409.669656 73.551713 412.474460 74.383140 415.279264 74.105998 418.084068 74.567902 420.888872 76.600278 423.693676 74.937425 426.498480 79.741224 429.303284 82.697409 432.108088 91.196439 434.912891 93.505958 437.717695 89.903108 440.522499 90.180250 443.327303 95.907857 446.132107 98.771661 448.936911 97.940234 451.741715 91.750723 454.546519 91.658342 457.351323 87.408827 460.156126 84.452643 462.960930 83.251693 465.765734 84.637405 468.570538 87.039304 471.375342 85.561212 474.180146 90.180250 476.984950 87.778350 479.789754 90.919296 482.594558 93.136434 485.399362 93.598338 488.204165 94.891669 491.008969 101.081180 493.813773 96.554523 496.618577 97.108807 499.423381 97.755472 502.228185 103.113557 505.032989 89.348823 507.837793 97.940234 510.642597 85.838354 513.447400 81.496459 516.252204 82.974551 519.057008 91.473581 521.861812 96.831665 524.666616 103.298318 527.471420 99.418326 530.276224 98.494519 533.081028 76.785040 535.885832 82.420266 538.690635 60.618407 541.495439 63.851734 544.300243 68.932675 547.105047 64.406018 549.909851 70.687910 552.714655 67.546964 555.519459 68.840295 558.324263 69.764102 561.129067 75.584090 563.933870 76.045994 566.738674 76.507898 569.543478 77.893609 572.348282 88.702158 575.153086 74.845044 577.957890 73.459333 580.762694 76.507898 583.567498 85.745974 586.372302 95.445953 589.177106 97.847853 591.981909 86.115497 594.786713 76.785040 597.591517 89.441204 600.396321 73.828856 603.201125 37.430836 606.005929 27.176572 608.810733 22.465153 611.615537 28.562283 614.420341 37.430836 617.225144 55.537465 620.029948 68.378391 622.834752 76.138375 625.639556 67.454583 628.444360 74.752663 631.249164 84.360262 634.053968 89.256443 636.858772 69.117437 639.663576 66.068872 642.468379 75.861232 645.273183 52.119377 648.077987 35.583221 650.882791 47.315578 653.687595 36.137506 656.492399 16.829927 659.297203 50.179381 662.102007 8.885181 664.906811 44.174632 667.711614 65.976491 670.516418 89.533585 673.321222 87.316447 676.126026 104.868791 678.930830 132.583019 681.735634 149.211556 684.540438 168.611515 687.345242 194.478128 690.150046 182.191487 692.954849 201.683827 695.759653 160.204866 698.564457 190.505755 701.369261 220.899025 704.174065 206.764769 706.978869 282.239850 709.783673 292.401734 712.588477 209.905715 715.393281 106.716406 718.198085 171.382938 721.002888 120.573520 723.807692 286.858888"/></g><g class="series serie-1 color-1"><path class="line reactive nofill" d="M14.192308 453.144256 L16.997112 319.192154 19.801915 289.907453 22.606719 226.811394 25.411523 132.121115 28.216327 97.478330 31.021131 74.383140 33.825935 112.905917 36.630739 117.894478 39.435543 102.097368 42.240347 87.131685 45.045151 67.454583 47.849954 55.906988 50.654758 118.264001 53.459562 148.287748 56.264366 184.685768 59.069170 207.411434 61.873974 197.157170 64.678778 181.267679 67.483582 163.715335 70.288386 160.020105 73.093189 185.979098 75.897993 196.233363 78.702797 191.706705 81.507601 192.538132 84.312405 200.298116 87.117209 199.281928 89.922013 207.319054 92.726817 232.169478 95.531621 226.534252 98.336424 219.790456 101.141228 222.654260 103.946032 239.190416 106.750836 237.527562 109.555640 230.137101 112.360444 228.659009 115.165248 241.961839 117.970052 238.543751 120.774856 236.141851 123.579659 232.816143 126.384463 227.458059 129.189267 224.409494 131.994071 234.478997 134.798875 231.615194 137.603679 228.012344 140.408483 223.578067 143.213287 229.490436 146.018091 228.197105 148.822894 225.979967 151.627698 228.659009 154.432502 230.876147 157.237306 228.104725 160.042110 226.257109 162.846914 227.180917 165.651718 228.104725 168.456522 236.418993 171.261326 243.901835 174.066130 241.961839 176.870933 241.961839 179.675737 245.472308 182.480541 245.010404 185.285345 243.439931 188.090149 244.733261 190.894953 247.597065 193.699757 246.673257 196.504561 245.934211 199.309365 242.054219 202.114168 239.652320 204.918972 236.049470 207.723776 236.696135 210.528580 233.185666 213.333384 232.908524 216.138188 233.185666 218.942992 235.864709 221.747796 233.647570 224.552600 230.414244 227.357403 231.892336 230.162207 236.049470 232.967011 231.615194 235.771815 231.615194 238.576619 230.137101 241.381423 230.691386 244.186227 228.751390 246.991031 229.398055 249.795835 226.257109 252.600638 224.132352 255.405442 221.730452 258.210246 221.915214 261.015050 219.698076 263.819854 218.219983 266.624658 219.328553 269.429462 218.589506 272.234266 226.996156 275.039070 228.843771 277.843874 230.968528 280.648677 230.137101 283.453481 230.044721 286.258285 227.365679 289.063089 225.056160 291.867893 225.148540 294.672697 223.947590 297.477501 223.393306 300.282305 222.561879 303.087109 220.621883 305.891912 223.208544 308.696716 223.947590 311.501520 221.453310 314.306324 225.518063 317.111128 223.947590 319.915932 225.148540 322.720736 222.284737 325.525540 221.453310 328.330344 221.453310 331.135147 218.312364 333.939951 217.942841 336.744755 216.002845 339.549559 213.416184 342.354363 211.753330 345.159167 211.938092 347.963971 209.813334 350.768775 210.737142 353.573579 209.720953 356.378382 208.427623 359.183186 208.704765 361.987990 210.644761 364.792794 210.737142 367.597598 210.367619 370.402402 210.737142 373.207206 211.014284 376.012010 210.644761 378.816814 209.074288 381.621618 211.660949 384.426421 213.323803 387.231225 212.492376 390.036029 213.046661 392.840833 211.568569 395.645637 209.998096 398.450441 208.520004 401.255245 208.427623 404.060049 206.672388 406.864853 205.748581 409.669656 205.748581 412.474460 204.547631 415.279264 203.900966 418.084068 202.977158 420.888872 201.129543 423.693676 201.314304 426.498480 198.912405 429.303284 197.434312 432.108088 193.092417 434.912891 191.983848 437.717695 192.630513 440.522499 191.983848 443.327303 189.212425 446.132107 187.826713 448.936911 187.734333 451.741715 189.581948 454.546519 189.120044 457.351323 189.951471 460.156126 190.598136 462.960930 190.505755 465.765734 189.951471 468.570538 189.027663 471.375342 189.027663 474.180146 187.180048 476.984950 187.641952 479.789754 186.348621 482.594558 184.962910 485.399362 184.316245 488.204165 183.392437 491.008969 180.990537 493.813773 181.821964 496.618577 181.267679 499.423381 180.621014 502.228185 178.681018 505.032989 181.729583 507.837793 178.958160 510.642597 181.452441 513.447400 181.729583 516.252204 180.898156 519.057008 178.403876 521.861812 176.925784 524.666616 174.985788 527.471420 175.447692 530.276224 175.262930 533.081028 179.235303 535.885832 177.849591 538.690635 180.990537 541.495439 180.251491 544.300243 179.142922 547.105047 179.604826 549.909851 178.219114 552.714655 178.403876 555.519459 178.126734 558.324263 177.480068 561.129067 175.817215 563.933870 175.262930 566.738674 174.708645 569.543478 174.061980 572.348282 172.029603 575.153086 173.784838 577.957890 173.507696 580.762694 173.045792 583.567498 171.475319 586.372302 169.812465 589.177106 169.442942 591.981909 170.643892 594.786713 171.382938 597.591517 169.442942 600.396321 170.921034 603.201125 173.692457 606.005929 173.784838 608.810733 173.600076 611.615537 172.953411 614.420341 172.029603 617.225144 170.089607 620.029948 168.703896 622.834752 167.872469 625.639556 167.964850 628.444360 167.318185 631.249164 166.394377 634.053968 165.562950 636.858772 166.671519 639.663576 166.486758 642.468379 165.378189 645.273183 166.209616 648.077987 166.301996 650.882791 165.655331 653.687595 165.747712 656.492399 166.301996 659.297203 164.546762 662.102007 165.470569 664.906811 163.900097 667.711614 162.976289 670.516418 161.960101 673.321222 161.775339 676.126026 161.128674 678.930830 160.020105 681.735634 159.373439 684.540438 158.634393 687.345242 157.710586 690.150046 158.264870 692.954849 157.525824 695.759653 159.003916 698.564457 158.172489 701.369261 157.341063 704.174065 157.987728 706.978869 156.232493 709.783673 156.509636 712.588477 158.449632 715.393281 159.465820 718.198085 158.911536 721.002888 159.188678 723.807692 159.650582"/></g><g class="series serie-2 color-2"><path class="line reactive nofill" d="M14.192308 159.003916 L16.997112 159.003916 19.801915 159.003916 22.606719 159.003916 25.411523 159.003916 28.216327 159.003916 31.021131 159.003916 33.825935 159.003916 36.630739 159.003916 39.435543 159.003916 42.240347 159.003916 45.045151 159.003916 47.849954 159.003916 50.654758 159.003916 53.459562 159.003916 56.264366 159.003916 59.069170 159.003916 61.873974 159.003916 64.678778 159.003916 67.483582 159.003916 70.288386 159.003916 73.093189 159.003916 75.897993 159.003916 78.702797 159.003916 81.507601 159.003916 84.312405 159.003916 87.117209 159.003916 89.922013 159.003916 92.726817 159.003916 95.531621 159.003916 98.336424 159.003916 101.141228 159.003916 103.946032 159.003916 106.750836 159.003916 109.555640 159.003916 112.360444 159.003916 115.165248 159.003916 117.970052 159.003916 120.774856 159.003916 123.579659 159.003916 126.384463 159.003916 129.189267 159.003916 131.994071 159.003916 134.798875 159.003916 137.603679 159.003916 140.408483 159.003916 143.213287 159.003916 146.018091 159.003916 148.822894 159.003916 151.627698 159.003916 154.432502 159.003916 157.237306 159.003916 160.042110 159.003916 162.846914 159.003916 165.651718 159.003916 168.456522 159.003916 171.261326 159.003916 174.066130 159.003916 176.870933 159.003916 179.675737 159.003916 182.480541 159.003916 185.285345 159.003916 188.090149 159.003916 190.894953 159.003916 193.699757 159.003916 196.504561 159.003916 199.309365 159.003916 202.114168 159.003916 204.918972 159.003916 207.723776 159.003916 210.528580 159.003916 213.333384 159.003916 216.138188 159.003916 218.942992 159.003916 221.747796 159.003916 224.552600 159.003916 227.357403 159.003916 230.162207 159.003916 232.967011 159.003916 235.771815 159.003916 238.576619 159.003916 241.381423 159.003916 244.186227 159.003916 246.991031 159.003916 249.795835 159.003916 252.600638 159.003916 255.405442 159.003916 258.210246 159.003916 261.015050 159.003916 263.819854 159.003916 266.624658 159.003916 269.429462 159.003916 272.234266 159.003916 275.039070 159.003916 277.843874 159.003916 280.648677 159.003916 283.453481 159.003916 286.258285 159.003916 289.063089 159.003916 291.867893 159.003916 294.672697 159.003916 297.477501 159.003916 300.282305 159.003916 303.087109 159.003916 305.891912 159.003916 308.696716 159.003916 311.501520 159.003916 314.306324 159.003916 317.111128 159.003916 319.915932 159.003916 322.720736 159.003916 325.525540 159.003916 328.330344 159.003916 331.135147 159.003916 333.939951 159.003916 336.744755 159.003916 339.549559 159.003916 342.354363 159.003916 345.159167 159.003916 347.963971 159.003916 350.768775 159.003916 353.573579 159.003916 356.378382 159.003916 359.183186 159.003916 361.987990 159.003916 364.792794 159.003916 367.597598 159.003916 370.402402 159.003916 373.207206 159.003916 376.012010 159.003916 378.816814 159.003916 381.621618 159.003916 384.426421 159.003916 387.231225 159.003916 390.036029 159.003916 392.840833 159.003916 395.645637 159.003916 398.450441 159.003916 401.255245 159.003916 404.060049 159.003916 406.864853 159.003916 409.669656 159.003916 412.474460 159.003916 415.279264 159.003916 418.084068 159.003916 420.888872 159.003916 423.693676 159.003916 426.498480 159.003916 429.303284 159.003916 432.108088 159.003916 434.912891 159.003916 437.717695 159.003916 440.522499 159.003916 443.327303 159.003916 446.132107 159.003916 448.936911 159.003916 451.741715 159.003916 454.546519 159.003916 457.351323 159.003916 460.156126 159.003916 462.960930 159.003916 465.765734 159.003916 468.570538 159.003916 471.375342 159.003916 474.180146 159.003916 476.984950 159.003916 479.789754 159.003916 482.594558 159.003916 485.399362 159.003916 488.204165 159.003916 491.008969 159.003916 493.813773 159.003916 496.618577 159.003916 499.423381 159.003916 502.228185 159.003916 505.032989 159.003916 507.837793 159.003916 510.642597 159.003916 513.447400 159.003916 516.252204 159.003916 519.057008 159.003916 521.861812 159.003916 524.666616 159.003916 527.471420 159.003916 530.276224 159.003916 533.081028 159.003916 535.885832 159.003916 538.690635 159.003916 541.495439 159.003916 544.300243 159.003916 547.105047 159.003916 549.909851 159.003916 552.714655 159.003916 555.519459 159.003916 558.324263 159.003916 561.129067 159.003916 563.933870 159.003916 566.738674 159.003916 569.543478 159.003916 572.348282 159.003916 575.153086 159.003916 577.957890 159.003916 580.762694 159.003916 583.567498 159.003916 586.372302 159.003916 589.177106 159.003916 591.981909 159.003916 594.786713 159.003916 597.591517 159.003916 600.396321 159.003916 603.201125 159.003916 606.005929 159.003916 608.810733 159.003916 611.615537 159.003916 614.420341 159.003916 617.225144 159.003916 620.029948 159.003916 622.834752 159.003916 625.639556 159.003916 628.444360 159.003916 631.249164 159.003916 634.053968 159.003916 636.858772 159.003916 639.663576 159.003916 642.468379 159.003916 645.273183 159.003916 648.077987 159.003916 650.882791 159.003916 653.687595 159.003916 656.492399 159.003916 659.297203 159.003916 662.102007 159.003916 664.906811 159.003916 667.711614 159.003916 670.516418 159.003916 673.321222 159.003916 676.126026 159.003916 678.930830 159.003916 681.735634 159.003916 684.540438 159.003916 687.345242 159.003916 690.150046 159.003916 692.954849 159.003916 695.759653 159.003916 698.564457 159.003916 701.369261 159.003916 704.174065 159.003916 706.978869 159.003916 709.783673 159.003916 712.588477 159.003916 715.393281 159.003916 718.198085 159.003916 721.002888 159.003916 723.807692 159.003916"/></g></g><g class="titles"><text class="title plot_title" x="400.0" y="26">Abdul Razzaq: Future and Past Averages in ODIs</text></g><g class="plot overlay" transform="translate(42, 46)"><g class="series serie-0 color-0"><g class="dots"><desc class="label">269 wickets in 254 innings (1823.3 overs)</desc><circle class="dot reactive tooltip-trigger" cx="14.192307692307692" cy="159.00391629648254" r="2.5"/><desc class="value">31.84</desc><desc class="x ">14.192307692307692</desc><desc class="y ">159.00391629648254</desc><desc class="x_label">1996</desc></g><g class="dots"><desc class="label">266 wickets in 252 innings (1811.0 overs)</desc><circle class="dot reactive tooltip-trigger" cx="19.80191547582852" cy="157.52582413834472" r="2.5"/><desc class="value">32</desc><desc class="x ">19.80191547582852</desc><desc class="y ">157.52582413834472</desc><desc class="x_label">1997</desc></g><g class="dots"><desc class="label">265 wickets in 250 innings (1799.0 overs)</desc><circle class="dot reactive tooltip-trigger" cx="25.411523259349345" cy="159.46582009590065" r="2.5"/><desc class="value">31.79</desc><desc class="x ">25.411523259349345</desc><desc class="y ">159.46582009590065</desc><desc class="x_label">1998</desc></g><g class="dots"><desc class="label">257 wickets in 241 innings (1740.5 overs)</desc><circle class="dot reactive tooltip-trigger" cx="50.65475828519306" cy="160.94391225403854" r="2.5"/><desc class="value">31.63</desc><desc class="x ">50.65475828519306</desc><desc class="y ">160.94391225403854</desc><desc class="x_label">1999</desc></g><g class="dots"><desc class="label">230 wickets in 223 innings (1600.2 overs)</desc><circle class="dot reactive tooltip-trigger" cx="101.14122833688052" cy="148.2877481499831" r="2.5"/><desc class="value">33</desc><desc class="x ">101.14122833688052</desc><desc class="y ">148.2877481499831</desc><desc class="x_label">2000</desc></g><g class="dots"><desc class="label">169 wickets in 185 innings (1285.3 overs)</desc><circle class="dot reactive tooltip-trigger" cx="207.7237762237762" cy="113.09067863432534" r="2.5"/><desc class="value">36.81</desc><desc class="x ">207.7237762237762</desc><desc class="y ">113.09067863432534</desc><desc class="x_label">2001</desc></g><g class="dots"><desc class="label">149 wickets in 165 innings (1132.3 overs)</desc><circle class="dot reactive tooltip-trigger" cx="263.8198540589845" cy="111.42782495642018" r="2.5"/><desc class="value">36.99</desc><desc class="x ">263.8198540589845</desc><desc class="y ">111.42782495642018</desc><desc class="x_label">2002</desc></g><g class="dots"><desc class="label">116 wickets in 139 innings (933.5 overs)</desc><circle class="dot reactive tooltip-trigger" cx="336.7447552447552" cy="83.89835851110263" r="2.5"/><desc class="value">39.97</desc><desc class="x ">336.7447552447552</desc><desc class="y ">83.89835851110263</desc><desc class="x_label">2003</desc></g><g class="dots"><desc class="label">92 wickets in 110 innings (736.4 overs)</desc><circle class="dot reactive tooltip-trigger" cx="418.08406810580726" cy="74.56790176285739" r="2.5"/><desc class="value">40.98</desc><desc class="x left">418.08406810580726</desc><desc class="y left">74.56790176285739</desc><desc class="x_label">2004</desc></g><g class="dots"><desc class="label">74 wickets in 85 innings (555.4 overs)</desc><circle class="dot reactive tooltip-trigger" cx="488.20416539981755" cy="94.89166893725292" r="2.5"/><desc class="value">38.78</desc><desc class="x left">488.20416539981755</desc><desc class="y left">94.89166893725292</desc><desc class="x_label">2005</desc></g><g class="dots"><desc class="label">46 wickets in 60 innings (372.5 overs)</desc><circle class="dot reactive tooltip-trigger" cx="558.324262693828" cy="69.7641022489093" r="2.5"/><desc class="value">41.5</desc><desc class="x left">558.324262693828</desc><desc class="y left">69.7641022489093</desc><desc class="x_label">2006</desc></g><g class="dots"><desc class="label">26 wickets in 38 innings (215.4 overs)</desc><circle class="dot reactive tooltip-trigger" cx="620.0299483125569" cy="68.37839085065508" r="2.5"/><desc class="value">41.65</desc><desc class="x left">620.0299483125569</desc><desc class="y left">68.37839085065508</desc><desc class="x_label">2007</desc></g><g class="dots"><desc class="label">23 wickets in 33 innings (190.4 overs)</desc><circle class="dot reactive tooltip-trigger" cx="634.053967771359" cy="89.25644258435233" r="2.5"/><desc class="value">39.39</desc><desc class="x left">634.053967771359</desc><desc class="y left">89.25644258435233</desc><desc class="x_label">2009</desc></g><g class="dots"><desc class="label">15 wickets in 27 innings (139.4 overs)</desc><circle class="dot reactive tooltip-trigger" cx="650.8827911219216" cy="47.315577597190554" r="2.5"/><desc class="value">43.93</desc><desc class="x left">650.8827911219216</desc><desc class="y left">47.315577597190554</desc><desc class="x_label">2010</desc></g><g class="dots"><desc class="label">10 wickets in 16 innings (80.0 overs)</desc><circle class="dot reactive tooltip-trigger" cx="681.7356339312861" cy="149.21155574881925" r="2.5"/><desc class="value">32.9</desc><desc class="x left">681.7356339312861</desc><desc class="y left">149.21155574881925</desc><desc class="x_label">2011</desc></g></g><g class="series serie-1 color-1"><g class="dots"><desc class="label">0 wickets over 0 innings</desc><circle class="dot reactive tooltip-trigger" cx="14.192307692307692" cy="453.1442557659166" r="2.5"/><desc class="value">0</desc><desc class="x top">14.192307692307692</desc><desc class="y top">453.1442557659166</desc><desc class="x_label">1996</desc></g><g class="dots"><desc class="label">3 wickets in 2 innings (12.3 overs)</desc><circle class="dot reactive tooltip-trigger" cx="19.80191547582852" cy="289.90745305156673" r="2.5"/><desc class="value">17.67</desc><desc class="x top">19.80191547582852</desc><desc class="y top">289.90745305156673</desc><desc class="x_label">1997</desc></g><g class="dots"><desc class="label">4 wickets in 4 innings (24.3 overs)</desc><circle class="dot reactive tooltip-trigger" cx="25.411523259349345" cy="132.12111517035027" r="2.5"/><desc class="value">34.75</desc><desc class="x ">25.411523259349345</desc><desc class="y ">132.12111517035027</desc><desc class="x_label">1998</desc></g><g class="dots"><desc class="label">12 wickets in 13 innings (82.4 overs)</desc><circle class="dot reactive tooltip-trigger" cx="50.65475828519306" cy="118.26400118780782" r="2.5"/><desc class="value">36.25</desc><desc class="x ">50.65475828519306</desc><desc class="y ">118.26400118780782</desc><desc class="x_label">1999</desc></g><g class="dots"><desc class="label">39 wickets in 31 innings (223.1 overs)</desc><circle class="dot reactive tooltip-trigger" cx="101.14122833688052" cy="222.65425985629412" r="2.5"/><desc class="value">24.95</desc><desc class="x ">101.14122833688052</desc><desc class="y ">222.65425985629412</desc><desc class="x_label">2000</desc></g><g class="dots"><desc class="label">100 wickets in 69 innings (538.0 overs)</desc><circle class="dot reactive tooltip-trigger" cx="207.7237762237762" cy="236.6961353586038" r="2.5"/><desc class="value">23.43</desc><desc class="x top">207.7237762237762</desc><desc class="y top">236.6961353586038</desc><desc class="x_label">2001</desc></g><g class="dots"><desc class="label">120 wickets in 89 innings (691.0 overs)</desc><circle class="dot reactive tooltip-trigger" cx="263.8198540589845" cy="218.21998338188055" r="2.5"/><desc class="value">25.43</desc><desc class="x ">263.8198540589845</desc><desc class="y ">218.21998338188055</desc><desc class="x_label">2002</desc></g><g class="dots"><desc class="label">153 wickets in 115 innings (889.4 overs)</desc><circle class="dot reactive tooltip-trigger" cx="336.7447552447552" cy="216.00284514467373" r="2.5"/><desc class="value">25.67</desc><desc class="x ">336.7447552447552</desc><desc class="y ">216.00284514467373</desc><desc class="x_label">2003</desc></g><g class="dots"><desc class="label">177 wickets in 144 innings (1086.5 overs)</desc><circle class="dot reactive tooltip-trigger" cx="418.08406810580726" cy="202.97715800108386" r="2.5"/><desc class="value">27.08</desc><desc class="x left">418.08406810580726</desc><desc class="y left">202.97715800108386</desc><desc class="x_label">2004</desc></g><g class="dots"><desc class="label">195 wickets in 169 innings (1267.5 overs)</desc><circle class="dot reactive tooltip-trigger" cx="488.20416539981755" cy="183.39243690575728" r="2.5"/><desc class="value">29.2</desc><desc class="x left">488.20416539981755</desc><desc class="y left">183.39243690575728</desc><desc class="x_label">2005</desc></g><g class="dots"><desc class="label">223 wickets in 194 innings (1450.4 overs)</desc><circle class="dot reactive tooltip-trigger" cx="558.324262693828" cy="177.4800682732058" r="2.5"/><desc class="value">29.84</desc><desc class="x left">558.324262693828</desc><desc class="y left">177.4800682732058</desc><desc class="x_label">2006</desc></g><g class="dots"><desc class="label">243 wickets in 216 innings (1607.5 overs)</desc><circle class="dot reactive tooltip-trigger" cx="620.0299483125569" cy="168.70389608426228" r="2.5"/><desc class="value">30.79</desc><desc class="x left">620.0299483125569</desc><desc class="y left">168.70389608426228</desc><desc class="x_label">2007</desc></g><g class="dots"><desc class="label">246 wickets in 221 innings (1632.5 overs)</desc><circle class="dot reactive tooltip-trigger" cx="634.053967771359" cy="165.5629502482193" r="2.5"/><desc class="value">31.13</desc><desc class="x left">634.053967771359</desc><desc class="y left">165.5629502482193</desc><desc class="x_label">2009</desc></g><g class="dots"><desc class="label">254 wickets in 227 innings (1683.5 overs)</desc><circle class="dot reactive tooltip-trigger" cx="650.8827911219216" cy="165.6553310081029" r="2.5"/><desc class="value">31.12</desc><desc class="x left">650.8827911219216</desc><desc class="y left">165.6553310081029</desc><desc class="x_label">2010</desc></g><g class="dots"><desc class="label">259 wickets in 238 innings (1743.3 overs)</desc><circle class="dot reactive tooltip-trigger" cx="681.7356339312861" cy="159.37343933601704" r="2.5"/><desc class="value">31.8</desc><desc class="x left">681.7356339312861</desc><desc class="y left">159.37343933601704</desc><desc class="x_label">2011</desc></g></g><g class="series serie-2 color-2"/></g><g class="plot text-overlay" transform="translate(42, 46)"><g class="series serie-0 color-0"/><g class="series serie-1 color-1"/><g class="series serie-2 color-2"/></g><g class="plot tooltip-overlay" transform="translate(42, 46)"><g class="tooltip" style="opacity: 0" transform="translate(0 0)"><rect class="tooltip-box" height="0" rx="10" ry="10" width="0"/><g class="text"/></g></g><g class="legends" transform="translate(52, 545)"><g class="legend reactive activate-serie" id="activate-serie-0"><rect class="color-0 reactive" height="12" width="12" x="0.0" y="1.0"/><text x="17.0" y="11.2">Future Average</text></g><g class="legend reactive activate-serie" id="activate-serie-1"><rect class="color-1 reactive" height="12" width="12" x="369.0" y="1.0"/><text x="386.0" y="11.2">Past Average</text></g><g class="legend reactive activate-serie" id="activate-serie-2"><rect class="color-2 reactive" height="12" width="12" x="0.0" y="22.0"/><text x="17.0" y="32.2">Career Average</text></g></g></g></svg>