<?xml version='1.0' encoding='utf-8'?>
<svg xmlns:xlink="http://www.w3.org/1999/xlink" xmlns="http://www.w3.org/2000/svg" id="chart-874c338d-c22b-4c52-a872-d660c917baac" class="pygal-chart" viewBox="0 0 800 600"><!--Generated with pygal 2.4.0 (lxml) ©Kozea 2012-2016 on 2019-08-04--><!--http://pygal.org--><!--http://github.com/Kozea/pygal--><defs><style type="text/css">#chart-874c338d-c22b-4c52-a872-d660c917baac{-webkit-user-select:none;-webkit-font-smoothing:antialiased;font-family:Consolas,"Liberation Mono",Menlo,Courier,monospace}#chart-874c338d-c22b-4c52-a872-d660c917baac .title{font-family:Consolas,"Liberation Mono",Menlo,Courier,monospace;font-size:16px}#chart-874c338d-c22b-4c52-a872-d660c917baac .legends .legend text{font-family:Consolas,"Liberation Mono",Menlo,Courier,monospace;font-size:14px}#chart-874c338d-c22b-4c52-a872-d660c917baac .axis text{font-family:Consolas,"Liberation Mono",Menlo,Courier,monospace;font-size:10px}#chart-874c338d-c22b-4c52-a872-d660c917baac .axis text.major{font-family:Consolas,"Liberation Mono",Menlo,Courier,monospace;font-size:10px}#chart-874c338d-c22b-4c52-a872-d660c917baac .text-overlay text.value{font-family:Consolas,"Liberation Mono",Menlo,Courier,monospace;font-size:16px}#chart-874c338d-c22b-4c52-a872-d660c917baac .text-overlay text.label{font-family:Consolas,"Liberation Mono",Menlo,Courier,monospace;font-size:10px}#chart-874c338d-c22b-4c52-a872-d660c917baac .tooltip{font-family:Consolas,"Liberation Mono",Menlo,Courier,monospace;font-size:14px}#chart-874c338d-c22b-4c52-a872-d660c917baac text.no_data{font-family:Consolas,"Liberation Mono",Menlo,Courier,monospace;font-size:64px}
#chart-874c338d-c22b-4c52-a872-d660c917baac{background-color:rgba(249,249,249,1)}#chart-874c338d-c22b-4c52-a872-d660c917baac path,#chart-874c338d-c22b-4c52-a872-d660c917baac line,#chart-874c338d-c22b-4c52-a872-d660c917baac rect,#chart-874c338d-c22b-4c52-a872-d660c917baac circle{-webkit-transition:150ms;-moz-transition:150ms;transition:150ms}#chart-874c338d-c22b-4c52-a872-d660c917baac .graph &gt; .background{fill:rgba(249,249,249,1)}#chart-874c338d-c22b-4c52-a872-d660c917baac .plot &gt; .background{fill:rgba(255,255,255,1)}#chart-874c338d-c22b-4c52-a872-d660c917baac .graph{fill:rgba(0,0,0,.87)}#chart-874c338d-c22b-4c52-a872-d660c917baac text.no_data{fill:rgba(0,0,0,1)}#chart-874c338d-c22b-4c52-a872-d660c917baac .title{fill:rgba(0,0,0,1)}#chart-874c338d-c22b-4c52-a872-d660c917baac .legends .legend text{fill:rgba(0,0,0,.87)}#chart-874c338d-c22b-4c52-a872-d660c917baac .legends .legend:hover text{fill:rgba(0,0,0,1)}#chart-874c338d-c22b-4c52-a872-d660c917baac .axis .line{stroke:rgba(0,0,0,1)}#chart-874c338d-c22b-4c52-a872-d660c917baac .axis .guide.line{stroke:rgba(0,0,0,.54)}#chart-874c338d-c22b-4c52-a872-d660c917baac .axis .major.line{stroke:rgba(0,0,0,.87)}#chart-874c338d-c22b-4c52-a872-d660c917baac .axis text.major{fill:rgba(0,0,0,1)}#chart-874c338d-c22b-4c52-a872-d660c917baac .axis.y .guides:hover .guide.line,#chart-874c338d-c22b-4c52-a872-d660c917baac .line-graph .axis.x .guides:hover .guide.line,#chart-874c338d-c22b-4c52-a872-d660c917baac .stackedline-graph .axis.x .guides:hover .guide.line,#chart-874c338d-c22b-4c52-a872-d660c917baac .xy-graph .axis.x .guides:hover .guide.line{stroke:rgba(0,0,0,1)}#chart-874c338d-c22b-4c52-a872-d660c917baac .axis .guides:hover text{fill:rgba(0,0,0,1)}#chart-874c338d-c22b-4c52-a872-d660c917baac .reactive{fill-opacity:.7;stroke-opacity:.8}#chart-874c338d-c22b-4c52-a872-d660c917baac .ci{stroke:rgba(0,0,0,.87)}#chart-874c338d-c22b-4c52-a872-d660c917baac .reactive.active,#chart-874c338d-c22b-4c52-a872-d660c917baac .active .reactive{fill-opacity:.8;stroke-opacity:.9;stroke-width:4}#chart-874c338d-c22b-4c52-a872-d660c917baac .ci .reactive.active{stroke-width:1.5}#chart-874c338d-c22b-4c52-a872-d660c917baac .series text{fill:rgba(0,0,0,1)}#chart-874c338d-c22b-4c52-a872-d660c917baac .tooltip rect{fill:rgba(255,255,255,1);stroke:rgba(0,0,0,1);-webkit-transition:opacity 150ms;-moz-transition:opacity 150ms;transition:opacity 150ms}#chart-874c338d-c22b-4c52-a872-d660c917baac .tooltip .label{fill:rgba(0,0,0,.87)}#chart-874c338d-c22b-4c52-a872-d660c917baac .tooltip .label{fill:rgba(0,0,0,.87)}#chart-874c338d-c22b-4c52-a872-d660c917baac .tooltip .legend{font-size:.8em;fill:rgba(0,0,0,.54)}#chart-874c338d-c22b-4c52-a872-d660c917baac .tooltip .x_label{font-size:.6em;fill:rgba(0,0,0,1)}#chart-874c338d-c22b-4c52-a872-d660c917baac .tooltip .xlink{font-size:.5em;text-decoration:underline}#chart-874c338d-c22b-4c52-a872-d660c917baac .tooltip .value{font-size:1.5em}#chart-874c338d-c22b-4c52-a872-d660c917baac .bound{font-size:.5em}#chart-874c338d-c22b-4c52-a872-d660c917baac .max-value{font-size:.75em;fill:rgba(0,0,0,.54)}#chart-874c338d-c22b-4c52-a872-d660c917baac .map-element{fill:rgba(255,255,255,1);stroke:rgba(0,0,0,.54) !important}#chart-874c338d-c22b-4c52-a872-d660c917baac .map-element .reactive{fill-opacity:inherit;stroke-opacity:inherit}#chart-874c338d-c22b-4c52-a872-d660c917baac .color-0,#chart-874c338d-c22b-4c52-a872-d660c917baac .color-0 a:visited{stroke:red;fill:red}#chart-874c338d-c22b-4c52-a872-d660c917baac .color-1,#chart-874c338d-c22b-4c52-a872-d660c917baac .color-1 a:visited{stroke:blue;fill:blue}#chart-874c338d-c22b-4c52-a872-d660c917baac .color-2,#chart-874c338d-c22b-4c52-a872-d660c917baac .color-2 a:visited{stroke:green;fill:green}#chart-874c338d-c22b-4c52-a872-d660c917baac .text-overlay .color-0 text{fill:white}#chart-874c338d-c22b-4c52-a872-d660c917baac .text-overlay .color-1 text{fill:white}#chart-874c338d-c22b-4c52-a872-d660c917baac .text-overlay .color-2 text{fill:white}
#chart-874c338d-c22b-4c52-a872-d660c917baac text.no_data{text-anchor:middle}#chart-874c338d-c22b-4c52-a872-d660c917baac .guide.line{fill:none}#chart-874c338d-c22b-4c52-a872-d660c917baac .centered{text-anchor:middle}#chart-874c338d-c22b-4c52-a872-d660c917baac .title{text-anchor:middle}#chart-874c338d-c22b-4c52-a872-d660c917baac .legends .legend text{fill-opacity:1}#chart-874c338d-c22b-4c52-a872-d660c917baac .axis.x text{text-anchor:middle}#chart-874c338d-c22b-4c52-a872-d660c917baac .axis.x:not(.web) text[transform]{text-anchor:start}#chart-874c338d-c22b-4c52-a872-d660c917baac .axis.x:not(.web) text[transform].backwards{text-anchor:end}#chart-874c338d-c22b-4c52-a872-d660c917baac .axis.y text{text-anchor:end}#chart-874c338d-c22b-4c52-a872-d660c917baac .axis.y text[transform].backwards{text-anchor:start}#chart-874c338d-c22b-4c52-a872-d660c917baac .axis.y2 text{text-anchor:start}#chart-874c338d-c22b-4c52-a872-d660c917baac .axis.y2 text[transform].backwards{text-anchor:end}#chart-874c338d-c22b-4c52-a872-d660c917baac .axis .guide.line{stroke-dasharray:4,4}#chart-874c338d-c22b-4c52-a872-d660c917baac .axis .major.guide.line{stroke-dasharray:6,6}#chart-874c338d-c22b-4c52-a872-d660c917baac .horizontal .axis.y .guide.line,#chart-874c338d-c22b-4c52-a872-d660c917baac .horizontal .axis.y2 .guide.line,#chart-874c338d-c22b-4c52-a872-d660c917baac .vertical .axis.x .guide.line{opacity:0}#chart-874c338d-c22b-4c52-a872-d660c917baac .horizontal .axis.always_show .guide.line,#chart-874c338d-c22b-4c52-a872-d660c917baac .vertical .axis.always_show .guide.line{opacity:1 !important}#chart-874c338d-c22b-4c52-a872-d660c917baac .axis.y .guides:hover .guide.line,#chart-874c338d-c22b-4c52-a872-d660c917baac .axis.y2 .guides:hover .guide.line,#chart-874c338d-c22b-4c52-a872-d660c917baac .axis.x .guides:hover .guide.line{opacity:1}#chart-874c338d-c22b-4c52-a872-d660c917baac .axis .guides:hover text{opacity:1}#chart-874c338d-c22b-4c52-a872-d660c917baac .nofill{fill:none}#chart-874c338d-c22b-4c52-a872-d660c917baac .subtle-fill{fill-opacity:.2}#chart-874c338d-c22b-4c52-a872-d660c917baac .dot{stroke-width:1px;fill-opacity:1}#chart-874c338d-c22b-4c52-a872-d660c917baac .dot.active{stroke-width:5px}#chart-874c338d-c22b-4c52-a872-d660c917baac .dot.negative{fill:transparent}#chart-874c338d-c22b-4c52-a872-d660c917baac text,#chart-874c338d-c22b-4c52-a872-d660c917baac tspan{stroke:none !important}#chart-874c338d-c22b-4c52-a872-d660c917baac .series text.active{opacity:1}#chart-874c338d-c22b-4c52-a872-d660c917baac .tooltip rect{fill-opacity:.95;stroke-width:.5}#chart-874c338d-c22b-4c52-a872-d660c917baac .tooltip text{fill-opacity:1}#chart-874c338d-c22b-4c52-a872-d660c917baac .showable{visibility:hidden}#chart-874c338d-c22b-4c52-a872-d660c917baac .showable.shown{visibility:visible}#chart-874c338d-c22b-4c52-a872-d660c917baac .gauge-background{fill:rgba(229,229,229,1);stroke:none}#chart-874c338d-c22b-4c52-a872-d660c917baac .bg-lines{stroke:rgba(249,249,249,1);stroke-width:2px}</style><script type="text/javascript">window.pygal = window.pygal || {};window.pygal.config = window.pygal.config || {};window.pygal.config['874c338d-c22b-4c52-a872-d660c917baac'] = {"allow_interruptions": false, "box_mode": "extremes", "classes": ["pygal-chart"], "css": ["file://style.css", "file://graph.css"], "defs": [], "disable_xml_declaration": false, "dots_size": 2.5, "dynamic_print_values": false, "explicit_size": false, "fill": false, "force_uri_protocol": "https", "formatter": null, "half_pie": false, "height": 600, "include_x_axis": false, "inner_radius": 0, "interpolate": null, "interpolation_parameters": {}, "interpolation_precision": 250, "inverse_y_axis": false, "js": ["//kozea.github.io/pygal.js/2.0.x/pygal-tooltips.min.js"], "legend_at_bottom": true, "legend_at_bottom_columns": null, "legend_box_size": 12, "logarithmic": false, "margin": 20, "margin_bottom": null, "margin_left": null, "margin_right": null, "margin_top": null, "max_scale": 16, "min_scale": 4, "missing_value_fill_truncation": "x", "no_data_text": "No data", "no_prefix": false, "order_min": null, "pretty_print": false, "print_labels": false, "print_values": false, "print_values_position": "center", "print_zeroes": true, "range": null, "rounded_bars": null, "secondary_range": null, "show_dots": true, "show_legend": true, "show_minor_x_labels": false, "show_minor_y_labels": true, "show_only_major_dots": false, "show_x_guides": false, "show_x_labels": true, "show_y_guides": true, "show_y_labels": true, "spacing": 10, "stack_from_top": false, "strict": false, "stroke": true, "stroke_style": null, "style": {"background": "rgba(249, 249, 249, 1)", "ci_colors": [], "colors": ["red", "blue", "green", "#a3a3a3"], "font_family": "Consolas, \"Liberation Mono\", Menlo, Courier, monospace", "foreground": "rgba(0, 0, 0, .87)", "foreground_strong": "rgba(0, 0, 0, 1)", "foreground_subtle": "rgba(0, 0, 0, .54)", "guide_stroke_dasharray": "4,4", "label_font_family": "Consolas, \"Liberation Mono\", Menlo, Courier, monospace", "label_font_size": 10, "legend_font_family": "Consolas, \"Liberation Mono\", Menlo, Courier, monospace", "legend_font_size": 14, "major_guide_stroke_dasharray": "6,6", "major_label_font_family": "Consolas, \"Liberation Mono\", Menlo, Courier, monospace", "major_label_font_size": 10, "no_data_font_family": "Consolas, \"Liberation Mono\", Menlo, Courier, monospace", "no_data_font_size": 64, "opacity": ".7", "opacity_hover": ".8", "plot_background": "rgba(255, 255, 255, 1)", "stroke_opacity": ".8", "stroke_opacity_hover": ".9", "title_font_family": "Consolas, \"Liberation Mono\", Menlo, Courier, monospace", "title_font_size": 16, "tooltip_font_family": "Consolas, \"Liberation Mono\", Menlo, Courier, monospace", "tooltip_font_size": 14, "transition": "150ms", "value_background": "rgba(229, 229, 229, 1)", "value_colors": [], "value_font_family": "Consolas, \"Liberation Mono\", Menlo, Courier, monospace", "value_font_size": 16, "value_label_font_family": "Consolas, \"Liberation Mono\", Menlo, Courier, monospace", "value_label_font_size": 10}, "title": "AD Mathews: Future and Past Averages in ODIs", "tooltip_border_radius": 10, "tooltip_fancy_mode": true, "truncate_label": null, "truncate_legend": null, "width": 800, "x_label_rotation": 45, "x_labels": ["2008", "0", "2009", "0", "0", "0", "0", "0", "0", "0", "0", "0", "0", "0", "0", "0", "0", "0", "2010", "0", "0", "0", "0", "0", "0", "0", "2011", "0", "0", "0", "0", "0", "0", "0", "0", "0", "0", "0", "0", "0", "0", "2012", "0", "0", "0", "0", "0", "0", "0", "0", "0", "0", "0", "0", "0", "0", "0", "0", "0", "0", "0", "0", "0", "0", "0", "0", "0", "2013", "0", "0", "0", "0", "0", "0", "0", "0", "0", "0", "0", "0", "0", "0", "0", "0", "0", "0", "0", "0", "0", "0", "0", "0", "2014", "0", "0", "0", "0", "0", "0", "0", "0", "0", "0", "0", "0", "0", "0", "0", "0", "0", "0", "0", "0", "0", "0", "0", "0", "0", "0", "0", "2015", "0", "0", "0", "0", "0", "0", "0", "0", "0", "0", "0", "0", "0", "0", "0", "0", "0", "2016", "0", "0", "0", "0", "0", "0", "0", "2017", "0", "0", "0", "0", "0", "0", "0", "2019"], "x_labels_major": ["2008", "2009", "2010", "2011", "2012", "2013", "2014", "2015", "2016", "2017", "2019"], "x_labels_major_count": null, "x_labels_major_every": null, "x_title": null, "xrange": null, "y_label_rotation": 0, "y_labels": null, "y_labels_major": null, "y_labels_major_count": null, "y_labels_major_every": null, "y_title": null, "zero": 120.0, "legends": ["Future Average", "Past Average", "Career Average"]}</script><script type="text/javascript" xlink:href="https://kozea.github.io/pygal.js/2.0.x/pygal-tooltips.min.js"/></defs><title>AD Mathews: Future and Past Averages in ODIs</title><g class="graph line-graph vertical"><rect class="background" height="600" width="800" x="0" y="0"/><g class="plot" transform="translate(48, 46)"><rect class="background" height="462.02943725152284" width="732.0" x="0" y="0"/><g class="axis y always_show"><g class="guides"><path class="axis major line" d="M0.000000 453.144256 h732.000000"/><text class="major" x="-5" y="456.6442557659166">0</text><title>0</title></g><g class="guides"><path class="guide line" d="M0.000000 414.174162 h732.000000"/><text class="" x="-5" y="417.67416153080165">10</text><title>10</title></g><g class="guides"><path class="guide line" d="M0.000000 375.204067 h732.000000"/><text class="" x="-5" y="378.70406729568674">20</text><title>20</title></g><g class="guides"><path class="guide line" d="M0.000000 336.233973 h732.000000"/><text class="" x="-5" y="339.73397306057177">30</text><title>30</title></g><g class="guides"><path class="guide line" d="M0.000000 297.263879 h732.000000"/><text class="" x="-5" y="300.7638788254568">40</text><title>40</title></g><g class="guides"><path class="major guide line" d="M0.000000 258.293785 h732.000000"/><text class="major" x="-5" y="261.7937845903419">50</text><title>50</title></g><g class="guides"><path class="guide line" d="M0.000000 219.323690 h732.000000"/><text class="" x="-5" y="222.82369035522694">60</text><title>60</title></g><g class="guides"><path class="guide line" d="M0.000000 180.353596 h732.000000"/><text class="" x="-5" y="183.853596120112">70</text><title>70</title></g><g class="guides"><path class="guide line" d="M0.000000 141.383502 h732.000000"/><text class="" x="-5" y="144.88350188499703">80</text><title>80</title></g><g class="guides"><path class="guide line" d="M0.000000 102.413408 h732.000000"/><text class="" x="-5" y="105.91340764988206">90</text><title>90</title></g><g class="guides"><path class="major guide line" d="M0.000000 63.443313 h732.000000"/><text class="major" x="-5" y="66.94331341476715">100</text><title>100</title></g><g class="guides"><path class="guide line" d="M0.000000 24.473219 h732.000000"/><text class="" x="-5" y="27.973219179652176">110</text><title>110</title></g></g><g class="axis x"><g class="guides"><path class="major line" d="M14.076923 0.000000 v462.029437"/><text class="major" x="14.076923076923077" y="477.02943725152284" transform="rotate(45 14.076923 477.029437)">2008</text></g><g class="guides"><path class="major guide line" d="M23.217782 0.000000 v462.029437"/><text class="major" x="23.217782217782215" y="477.02943725152284" transform="rotate(45 23.217782 477.029437)">2009</text></g><g class="guides"><path class="major guide line" d="M96.344655 0.000000 v462.029437"/><text class="major" x="96.34465534465534" y="477.02943725152284" transform="rotate(45 96.344655 477.029437)">2010</text></g><g class="guides"><path class="major guide line" d="M132.908092 0.000000 v462.029437"/><text class="major" x="132.90809190809188" y="477.02943725152284" transform="rotate(45 132.908092 477.029437)">2011</text></g><g class="guides"><path class="major guide line" d="M201.464535 0.000000 v462.029437"/><text class="major" x="201.46453546453546" y="477.02943725152284" transform="rotate(45 201.464535 477.029437)">2012</text></g><g class="guides"><path class="major guide line" d="M320.295704 0.000000 v462.029437"/><text class="major" x="320.29570429570424" y="477.02943725152284" transform="rotate(45 320.295704 477.029437)">2013</text></g><g class="guides"><path class="major guide line" d="M434.556444 0.000000 v462.029437"/><text class="major" x="434.5564435564435" y="477.02943725152284" transform="rotate(45 434.556444 477.029437)">2014</text></g><g class="guides"><path class="major guide line" d="M562.528472 0.000000 v462.029437"/><text class="major" x="562.5284715284715" y="477.02943725152284" transform="rotate(45 562.528472 477.029437)">2015</text></g><g class="guides"><path class="major guide line" d="M644.796204 0.000000 v462.029437"/><text class="major" x="644.7962037962037" y="477.02943725152284" transform="rotate(45 644.796204 477.029437)">2016</text></g><g class="guides"><path class="major guide line" d="M681.359640 0.000000 v462.029437"/><text class="major" x="681.3596403596403" y="477.02943725152284" transform="rotate(45 681.359640 477.029437)">2017</text></g><g class="guides"><path class="major guide line" d="M717.923077 0.000000 v462.029437"/><text class="major" x="717.9230769230769" y="477.02943725152284" transform="rotate(45 717.923077 477.029437)">2019</text></g></g><g class="series serie-0 color-0"><path class="line reactive nofill" d="M14.076923 320.762846 L18.647353 321.542248 23.217782 322.009889 27.788212 321.503277 32.358641 321.892978 36.929071 322.750320 41.499500 323.490752 46.069930 322.867231 50.640360 321.931948 55.210789 323.646633 59.781219 323.529722 64.351648 324.192214 68.922078 317.489358 73.492507 318.073909 78.062937 317.060687 82.633367 318.034939 87.203796 316.632016 91.774226 317.606268 96.344655 318.619490 100.915085 319.165072 105.485514 317.918029 110.055944 318.034939 114.626374 318.658461 119.196803 315.813644 123.767233 314.137930 128.337662 313.475438 132.908092 314.021019 137.478521 315.540853 142.048951 316.437165 146.619381 317.918029 151.189810 318.853311 155.760240 318.190819 160.330669 316.320255 164.901099 315.579823 169.471528 314.839391 174.041958 316.125404 178.612388 316.748926 183.182817 316.943776 187.753247 317.995969 192.323676 318.853311 196.894106 317.489358 201.464535 316.320255 206.034965 317.411418 210.605395 318.073909 215.175824 319.087132 219.746254 319.359922 224.316683 320.178294 228.887113 318.307730 233.457542 316.632016 238.027972 318.424640 242.598402 317.995969 247.168831 318.619490 251.739261 317.216567 256.309690 319.593743 260.880120 320.022414 265.450549 320.957696 270.020979 323.529722 274.591409 323.529722 279.161838 323.529722 283.732268 325.751018 288.302697 327.114971 292.873127 322.360620 297.443556 325.166466 302.013986 324.309124 306.584416 325.984838 311.154845 326.296599 315.725275 325.244406 320.295704 326.413509 324.866134 327.231881 329.436563 324.659855 334.006993 323.217962 338.577423 326.413509 343.147852 329.219356 347.718282 327.387762 352.288711 325.634107 356.859141 327.543642 361.429570 326.764240 366.000000 325.166466 370.570430 327.153941 375.140859 326.491450 379.711289 318.619490 384.281718 316.281285 388.852148 316.515105 393.422577 317.879059 397.993007 320.412115 402.563437 322.984141 407.133866 325.828958 411.704296 326.179689 416.274725 328.517894 420.845155 329.920818 425.415584 332.259023 429.986014 330.934040 434.556444 330.466399 439.126873 323.802513 443.697303 327.816433 448.267732 329.725967 452.838162 329.102446 457.408591 329.920818 461.979021 332.064173 466.549451 332.609754 471.119880 332.064173 475.690310 329.920818 480.260739 329.725967 484.831169 328.868625 489.401598 328.634805 493.972028 329.803908 498.542458 334.324438 503.112887 332.882545 507.683317 334.558259 512.253746 335.805302 516.824176 339.468491 521.394605 341.455966 525.965035 343.365500 530.535465 341.884637 535.105894 338.883939 539.676324 341.027295 544.246753 340.247893 548.817183 336.935435 553.387612 339.858192 557.958042 341.806697 562.528472 342.235368 567.098901 344.573573 571.669331 344.846364 576.239760 335.142810 580.810190 332.804605 585.380619 337.364106 589.951049 328.439954 594.521479 329.219356 599.091908 331.518592 603.662338 337.519986 608.232767 335.766332 612.803197 337.208225 617.373626 349.873506 621.944056 352.055831 626.514486 347.652211 631.084915 349.873506 635.655345 345.236065 640.225774 350.341147 644.796204 355.407259 649.366633 350.769818 653.937063 353.770515 658.507493 339.663341 663.077922 343.560351 667.648352 351.822011 672.218781 367.877690 676.789211 350.535998 681.359640 328.439954 685.930070 337.208225 690.500500 347.925001 695.070929 364.487291 699.641359 322.594440 704.211788 349.873506 708.782218 277.778832 713.352647 312.851917 717.923077 429.762199"/></g><g class="series serie-1 color-1"><path class="line reactive nofill" d="M14.076923 453.144256 L18.647353 359.616030 23.217782 308.954907 27.788212 234.911728 32.358641 188.147615 36.929071 94.619389 41.499500 8.885181 46.069930 201.787148 50.640360 287.521355 55.210789 240.757242 59.781219 259.852588 64.351648 245.043953 68.922078 351.471280 73.492507 346.171347 78.062937 349.717626 82.633367 341.923607 87.203796 348.197792 91.774226 340.130982 96.344655 333.038425 100.915085 329.803908 105.485514 334.986930 110.055944 333.700917 114.626374 330.583309 119.196803 340.481713 123.767233 344.495633 128.337662 345.664736 132.908092 342.741979 137.478521 337.675867 142.048951 334.792080 146.619381 330.037728 151.189810 326.647330 155.760240 328.323044 160.330669 332.726665 164.901099 334.168558 169.471528 335.415601 174.041958 332.220053 178.612388 330.700220 183.182817 330.193608 187.753247 327.621582 192.323676 325.478227 196.894106 328.556864 201.464535 330.895070 206.034965 328.323044 210.605395 326.881150 215.175824 324.542945 219.746254 323.880453 224.316683 322.087829 228.887113 325.906898 233.457542 328.751715 238.027972 325.244406 242.598402 325.906898 247.168831 324.737795 251.739261 326.881150 256.309690 322.789291 260.880120 322.048859 265.450549 320.373145 270.020979 315.930554 274.591409 315.930554 279.161838 316.125404 283.732268 312.384275 288.302697 310.474741 292.873127 318.424640 297.443556 314.332780 302.013986 315.774674 306.584416 313.436468 311.154845 313.241617 315.725275 314.878361 320.295704 313.397498 324.866134 312.618096 329.436563 316.164375 334.006993 317.956999 338.577423 314.371750 343.147852 311.176202 347.718282 313.748229 352.288711 315.930554 356.859141 314.059989 361.429570 315.034242 366.000000 316.670986 370.570430 314.878361 375.140859 315.657763 379.711289 322.399590 384.281718 324.075304 388.852148 323.802513 393.422577 322.789291 397.993007 320.996666 402.563437 319.126102 407.133866 317.099657 411.704296 316.865836 416.274725 315.190122 420.845155 314.176900 425.415584 312.501186 429.986014 313.709259 434.556444 314.254840 439.126873 318.931251 443.697303 316.515105 448.267732 315.384973 452.838162 315.930554 457.408591 315.462913 461.979021 314.254840 466.549451 313.904109 471.119880 314.488660 475.690310 315.852614 480.260739 316.125404 484.831169 316.748926 489.401598 316.982747 493.972028 316.437165 498.542458 314.293810 503.112887 315.423943 507.683317 314.722481 512.253746 314.176900 516.824176 312.540156 521.394605 311.682814 525.965035 310.864442 530.535465 312.228395 535.105894 314.059989 539.676324 313.280588 544.246753 313.865139 548.817183 315.540853 553.387612 314.605571 557.958042 313.982049 562.528472 313.826169 567.098901 313.085737 571.669331 312.968827 576.239760 316.748926 580.810190 317.567298 585.380619 316.359225 589.951049 319.048162 594.521479 318.970221 599.091908 318.619490 603.662338 317.645238 608.232767 318.151849 612.803197 318.073909 617.373626 316.047464 621.944056 315.696733 626.514486 316.709956 631.084915 316.709956 635.655345 317.645238 640.225774 316.982747 644.796204 316.320255 649.366633 317.567298 653.937063 317.606268 658.507493 319.320952 663.077922 319.048162 667.648352 318.424640 672.218781 317.216567 676.789211 319.126102 681.359640 320.451085 685.930070 320.139324 690.500500 319.749623 695.070929 319.165072 699.641359 320.723876 704.211788 320.217264 708.782218 321.113576 713.352647 320.801816 717.923077 319.788593"/></g><g class="series serie-2 color-2"><path class="line reactive nofill" d="M14.076923 320.762846 L18.647353 320.762846 23.217782 320.762846 27.788212 320.762846 32.358641 320.762846 36.929071 320.762846 41.499500 320.762846 46.069930 320.762846 50.640360 320.762846 55.210789 320.762846 59.781219 320.762846 64.351648 320.762846 68.922078 320.762846 73.492507 320.762846 78.062937 320.762846 82.633367 320.762846 87.203796 320.762846 91.774226 320.762846 96.344655 320.762846 100.915085 320.762846 105.485514 320.762846 110.055944 320.762846 114.626374 320.762846 119.196803 320.762846 123.767233 320.762846 128.337662 320.762846 132.908092 320.762846 137.478521 320.762846 142.048951 320.762846 146.619381 320.762846 151.189810 320.762846 155.760240 320.762846 160.330669 320.762846 164.901099 320.762846 169.471528 320.762846 174.041958 320.762846 178.612388 320.762846 183.182817 320.762846 187.753247 320.762846 192.323676 320.762846 196.894106 320.762846 201.464535 320.762846 206.034965 320.762846 210.605395 320.762846 215.175824 320.762846 219.746254 320.762846 224.316683 320.762846 228.887113 320.762846 233.457542 320.762846 238.027972 320.762846 242.598402 320.762846 247.168831 320.762846 251.739261 320.762846 256.309690 320.762846 260.880120 320.762846 265.450549 320.762846 270.020979 320.762846 274.591409 320.762846 279.161838 320.762846 283.732268 320.762846 288.302697 320.762846 292.873127 320.762846 297.443556 320.762846 302.013986 320.762846 306.584416 320.762846 311.154845 320.762846 315.725275 320.762846 320.295704 320.762846 324.866134 320.762846 329.436563 320.762846 334.006993 320.762846 338.577423 320.762846 343.147852 320.762846 347.718282 320.762846 352.288711 320.762846 356.859141 320.762846 361.429570 320.762846 366.000000 320.762846 370.570430 320.762846 375.140859 320.762846 379.711289 320.762846 384.281718 320.762846 388.852148 320.762846 393.422577 320.762846 397.993007 320.762846 402.563437 320.762846 407.133866 320.762846 411.704296 320.762846 416.274725 320.762846 420.845155 320.762846 425.415584 320.762846 429.986014 320.762846 434.556444 320.762846 439.126873 320.762846 443.697303 320.762846 448.267732 320.762846 452.838162 320.762846 457.408591 320.762846 461.979021 320.762846 466.549451 320.762846 471.119880 320.762846 475.690310 320.762846 480.260739 320.762846 484.831169 320.762846 489.401598 320.762846 493.972028 320.762846 498.542458 320.762846 503.112887 320.762846 507.683317 320.762846 512.253746 320.762846 516.824176 320.762846 521.394605 320.762846 525.965035 320.762846 530.535465 320.762846 535.105894 320.762846 539.676324 320.762846 544.246753 320.762846 548.817183 320.762846 553.387612 320.762846 557.958042 320.762846 562.528472 320.762846 567.098901 320.762846 571.669331 320.762846 576.239760 320.762846 580.810190 320.762846 585.380619 320.762846 589.951049 320.762846 594.521479 320.762846 599.091908 320.762846 603.662338 320.762846 608.232767 320.762846 612.803197 320.762846 617.373626 320.762846 621.944056 320.762846 626.514486 320.762846 631.084915 320.762846 635.655345 320.762846 640.225774 320.762846 644.796204 320.762846 649.366633 320.762846 653.937063 320.762846 658.507493 320.762846 663.077922 320.762846 667.648352 320.762846 672.218781 320.762846 676.789211 320.762846 681.359640 320.762846 685.930070 320.762846 690.500500 320.762846 695.070929 320.762846 699.641359 320.762846 704.211788 320.762846 708.782218 320.762846 713.352647 320.762846 717.923077 320.762846"/></g></g><g class="titles"><text class="title plot_title" x="400.0" y="26">AD Mathews: Future and Past Averages in ODIs</text></g><g class="plot overlay" transform="translate(48, 46)"><g class="series serie-0 color-0"><g class="dots"><desc class="label">115 wickets in 155 innings (847.1 overs)</desc><circle class="dot reactive tooltip-trigger" cx="14.076923076923077" cy="320.76284564923117" r="2.5"/><desc class="value">33.97</desc><desc class="x top">14.076923076923077</desc><desc class="y top">320.76284564923117</desc><desc class="x_label">2008</desc></g><g class="dots"><desc class="label">115 wickets in 153 innings (837.1 overs)</desc><circle class="dot reactive tooltip-trigger" cx="23.217782217782215" cy="322.00988866475484" r="2.5"/><desc class="value">33.65</desc><desc class="x top">23.217782217782215</desc><desc class="y top">322.00988866475484</desc><desc class="x_label">2009</desc></g><g class="dots"><desc class="label">98 wickets in 137 innings (738.1 overs)</desc><circle class="dot reactive tooltip-trigger" cx="96.34465534465534" cy="318.6194904662998" r="2.5"/><desc class="value">34.52</desc><desc class="x top">96.34465534465534</desc><desc class="y top">318.6194904662998</desc><desc class="x_label">2010</desc></g><g class="dots"><desc class="label">88 wickets in 129 innings (680.1 overs)</desc><circle class="dot reactive tooltip-trigger" cx="132.90809190809188" cy="314.0210193465563" r="2.5"/><desc class="value">35.7</desc><desc class="x top">132.90809190809188</desc><desc class="y top">314.0210193465563</desc><desc class="x_label">2011</desc></g><g class="dots"><desc class="label">80 wickets in 114 innings (610.1 overs)</desc><circle class="dot reactive tooltip-trigger" cx="201.46453546453546" cy="316.32025490642803" r="2.5"/><desc class="value">35.11</desc><desc class="x top">201.46453546453546</desc><desc class="y top">316.32025490642803</desc><desc class="x_label">2012</desc></g><g class="dots"><desc class="label">65 wickets in 88 innings (455.3 overs)</desc><circle class="dot reactive tooltip-trigger" cx="320.29570429570424" cy="326.41350931332283" r="2.5"/><desc class="value">32.52</desc><desc class="x top">320.29570429570424</desc><desc class="y top">326.41350931332283</desc><desc class="x_label">2013</desc></g><g class="dots"><desc class="label">46 wickets in 63 innings (302.5 overs)</desc><circle class="dot reactive tooltip-trigger" cx="434.5564435564435" cy="330.4663991137748" r="2.5"/><desc class="value">31.48</desc><desc class="x left top">434.5564435564435</desc><desc class="y left top">330.4663991137748</desc><desc class="x_label">2014</desc></g><g class="dots"><desc class="label">28 wickets in 35 innings (161.1 overs)</desc><circle class="dot reactive tooltip-trigger" cx="562.5284715284715" cy="342.23536757277947" r="2.5"/><desc class="value">28.46</desc><desc class="x left top">562.5284715284715</desc><desc class="y left top">342.23536757277947</desc><desc class="x_label">2015</desc></g><g class="dots"><desc class="label">13 wickets in 17 innings (75.0 overs)</desc><circle class="dot reactive tooltip-trigger" cx="644.7962037962037" cy="355.4072594242483" r="2.5"/><desc class="value">25.08</desc><desc class="x left top">644.7962037962037</desc><desc class="y left top">355.4072594242483</desc><desc class="x_label">2016</desc></g><g class="dots"><desc class="label">4 wickets in 9 innings (31.0 overs)</desc><circle class="dot reactive tooltip-trigger" cx="681.3596403596403" cy="328.4399542135488" r="2.5"/><desc class="value">32</desc><desc class="x left top">681.3596403596403</desc><desc class="y left top">328.4399542135488</desc><desc class="x_label">2017</desc></g><g class="dots"><desc class="label">1 wickets in 1 innings (2.0 overs)</desc><circle class="dot reactive tooltip-trigger" cx="717.9230769230769" cy="429.7621992248477" r="2.5"/><desc class="value">6</desc><desc class="x left top">717.9230769230769</desc><desc class="y left top">429.7621992248477</desc><desc class="x_label">2019</desc></g></g><g class="series serie-1 color-1"><g class="dots"><desc class="label">0 wickets over 0 innings</desc><circle class="dot reactive tooltip-trigger" cx="14.076923076923077" cy="453.1442557659166" r="2.5"/><desc class="value">0</desc><desc class="x top">14.076923076923077</desc><desc class="y top">453.1442557659166</desc><desc class="x_label">2008</desc></g><g class="dots"><desc class="label">0 wickets in 2 innings (10.0 overs)</desc><circle class="dot reactive tooltip-trigger" cx="23.217782217782215" cy="308.9549070959913" r="2.5"/><desc class="value">37</desc><desc class="x top">23.217782217782215</desc><desc class="y top">308.9549070959913</desc><desc class="x_label">2009</desc></g><g class="dots"><desc class="label">17 wickets in 18 innings (109.0 overs)</desc><circle class="dot reactive tooltip-trigger" cx="96.34465534465534" cy="333.03842533329237" r="2.5"/><desc class="value">30.82</desc><desc class="x top">96.34465534465534</desc><desc class="y top">333.03842533329237</desc><desc class="x_label">2010</desc></g><g class="dots"><desc class="label">27 wickets in 26 innings (167.0 overs)</desc><circle class="dot reactive tooltip-trigger" cx="132.90809190809188" cy="342.741978797836" r="2.5"/><desc class="value">28.33</desc><desc class="x top">132.90809190809188</desc><desc class="y top">342.741978797836</desc><desc class="x_label">2011</desc></g><g class="dots"><desc class="label">35 wickets in 41 innings (237.0 overs)</desc><circle class="dot reactive tooltip-trigger" cx="201.46453546453546" cy="330.89507015036105" r="2.5"/><desc class="value">31.37</desc><desc class="x top">201.46453546453546</desc><desc class="y top">330.89507015036105</desc><desc class="x_label">2012</desc></g><g class="dots"><desc class="label">50 wickets in 67 innings (391.4 overs)</desc><circle class="dot reactive tooltip-trigger" cx="320.29570429570424" cy="313.3974978387944" r="2.5"/><desc class="value">35.86</desc><desc class="x top">320.29570429570424</desc><desc class="y top">313.3974978387944</desc><desc class="x_label">2013</desc></g><g class="dots"><desc class="label">69 wickets in 92 innings (544.2 overs)</desc><circle class="dot reactive tooltip-trigger" cx="434.5564435564435" cy="314.25483991196694" r="2.5"/><desc class="value">35.64</desc><desc class="x left top">434.5564435564435</desc><desc class="y left top">314.25483991196694</desc><desc class="x_label">2014</desc></g><g class="dots"><desc class="label">87 wickets in 120 innings (686.0 overs)</desc><circle class="dot reactive tooltip-trigger" cx="562.5284715284715" cy="313.8261688753807" r="2.5"/><desc class="value">35.75</desc><desc class="x left top">562.5284715284715</desc><desc class="y left top">313.8261688753807</desc><desc class="x_label">2015</desc></g><g class="dots"><desc class="label">102 wickets in 138 innings (772.1 overs)</desc><circle class="dot reactive tooltip-trigger" cx="644.7962037962037" cy="316.32025490642803" r="2.5"/><desc class="value">35.11</desc><desc class="x left top">644.7962037962037</desc><desc class="y left top">316.32025490642803</desc><desc class="x_label">2016</desc></g><g class="dots"><desc class="label">111 wickets in 146 innings (816.1 overs)</desc><circle class="dot reactive tooltip-trigger" cx="681.3596403596403" cy="320.4510848953503" r="2.5"/><desc class="value">34.05</desc><desc class="x left top">681.3596403596403</desc><desc class="y left top">320.4510848953503</desc><desc class="x_label">2017</desc></g><g class="dots"><desc class="label">114 wickets in 154 innings (845.1 overs)</desc><circle class="dot reactive tooltip-trigger" cx="717.9230769230769" cy="319.7885932933533" r="2.5"/><desc class="value">34.22</desc><desc class="x left top">717.9230769230769</desc><desc class="y left top">319.7885932933533</desc><desc class="x_label">2019</desc></g></g><g class="series serie-2 color-2"/></g><g class="plot text-overlay" transform="translate(48, 46)"><g class="series serie-0 color-0"/><g class="series serie-1 color-1"/><g class="series serie-2 color-2"/></g><g class="plot tooltip-overlay" transform="translate(48, 46)"><g class="tooltip" style="opacity: 0" transform="translate(0 0)"><rect class="tooltip-box" height="0" rx="10" ry="10" width="0"/><g class="text"/></g></g><g class="legends" transform="translate(58, 545)"><g class="legend reactive activate-serie" id="activate-serie-0"><rect class="color-0 reactive" height="12" width="12" x="0.0" y="1.0"/><text x="17.0" y="11.2">Future Average</text></g><g class="legend reactive activate-serie" id="activate-serie-1"><rect class="color-1 reactive" height="12" width="12" x="366.0" y="1.0"/><text x="383.0" y="11.2">Past Average</text></g><g class="legend reactive activate-serie" id="activate-serie-2"><rect class="color-2 reactive" height="12" width="12" x="0.0" y="22.0"/><text x="17.0" y="32.2">Career Average</text></g></g></g></svg>