<?xml version='1.0' encoding='utf-8'?>
<svg xmlns:xlink="http://www.w3.org/1999/xlink" xmlns="http://www.w3.org/2000/svg" id="chart-e7e38e4d-0541-4f20-b3de-989912c140f2" class="pygal-chart" viewBox="0 0 800 600"><!--Generated with pygal 2.4.0 (lxml) ©Kozea 2012-2016 on 2019-08-04--><!--http://pygal.org--><!--http://github.com/Kozea/pygal--><defs><style type="text/css">#chart-e7e38e4d-0541-4f20-b3de-989912c140f2{-webkit-user-select:none;-webkit-font-smoothing:antialiased;font-family:Consolas,"Liberation Mono",Menlo,Courier,monospace}#chart-e7e38e4d-0541-4f20-b3de-989912c140f2 .title{font-family:Consolas,"Liberation Mono",Menlo,Courier,monospace;font-size:16px}#chart-e7e38e4d-0541-4f20-b3de-989912c140f2 .legends .legend text{font-family:Consolas,"Liberation Mono",Menlo,Courier,monospace;font-size:14px}#chart-e7e38e4d-0541-4f20-b3de-989912c140f2 .axis text{font-family:Consolas,"Liberation Mono",Menlo,Courier,monospace;font-size:10px}#chart-e7e38e4d-0541-4f20-b3de-989912c140f2 .axis text.major{font-family:Consolas,"Liberation Mono",Menlo,Courier,monospace;font-size:10px}#chart-e7e38e4d-0541-4f20-b3de-989912c140f2 .text-overlay text.value{font-family:Consolas,"Liberation Mono",Menlo,Courier,monospace;font-size:16px}#chart-e7e38e4d-0541-4f20-b3de-989912c140f2 .text-overlay text.label{font-family:Consolas,"Liberation Mono",Menlo,Courier,monospace;font-size:10px}#chart-e7e38e4d-0541-4f20-b3de-989912c140f2 .tooltip{font-family:Consolas,"Liberation Mono",Menlo,Courier,monospace;font-size:14px}#chart-e7e38e4d-0541-4f20-b3de-989912c140f2 text.no_data{font-family:Consolas,"Liberation Mono",Menlo,Courier,monospace;font-size:64px}
#chart-e7e38e4d-0541-4f20-b3de-989912c140f2{background-color:rgba(249,249,249,1)}#chart-e7e38e4d-0541-4f20-b3de-989912c140f2 path,#chart-e7e38e4d-0541-4f20-b3de-989912c140f2 line,#chart-e7e38e4d-0541-4f20-b3de-989912c140f2 rect,#chart-e7e38e4d-0541-4f20-b3de-989912c140f2 circle{-webkit-transition:150ms;-moz-transition:150ms;transition:150ms}#chart-e7e38e4d-0541-4f20-b3de-989912c140f2 .graph &gt; .background{fill:rgba(249,249,249,1)}#chart-e7e38e4d-0541-4f20-b3de-989912c140f2 .plot &gt; .background{fill:rgba(255,255,255,1)}#chart-e7e38e4d-0541-4f20-b3de-989912c140f2 .graph{fill:rgba(0,0,0,.87)}#chart-e7e38e4d-0541-4f20-b3de-989912c140f2 text.no_data{fill:rgba(0,0,0,1)}#chart-e7e38e4d-0541-4f20-b3de-989912c140f2 .title{fill:rgba(0,0,0,1)}#chart-e7e38e4d-0541-4f20-b3de-989912c140f2 .legends .legend text{fill:rgba(0,0,0,.87)}#chart-e7e38e4d-0541-4f20-b3de-989912c140f2 .legends .legend:hover text{fill:rgba(0,0,0,1)}#chart-e7e38e4d-0541-4f20-b3de-989912c140f2 .axis .line{stroke:rgba(0,0,0,1)}#chart-e7e38e4d-0541-4f20-b3de-989912c140f2 .axis .guide.line{stroke:rgba(0,0,0,.54)}#chart-e7e38e4d-0541-4f20-b3de-989912c140f2 .axis .major.line{stroke:rgba(0,0,0,.87)}#chart-e7e38e4d-0541-4f20-b3de-989912c140f2 .axis text.major{fill:rgba(0,0,0,1)}#chart-e7e38e4d-0541-4f20-b3de-989912c140f2 .axis.y .guides:hover .guide.line,#chart-e7e38e4d-0541-4f20-b3de-989912c140f2 .line-graph .axis.x .guides:hover .guide.line,#chart-e7e38e4d-0541-4f20-b3de-989912c140f2 .stackedline-graph .axis.x .guides:hover .guide.line,#chart-e7e38e4d-0541-4f20-b3de-989912c140f2 .xy-graph .axis.x .guides:hover .guide.line{stroke:rgba(0,0,0,1)}#chart-e7e38e4d-0541-4f20-b3de-989912c140f2 .axis .guides:hover text{fill:rgba(0,0,0,1)}#chart-e7e38e4d-0541-4f20-b3de-989912c140f2 .reactive{fill-opacity:.7;stroke-opacity:.8}#chart-e7e38e4d-0541-4f20-b3de-989912c140f2 .ci{stroke:rgba(0,0,0,.87)}#chart-e7e38e4d-0541-4f20-b3de-989912c140f2 .reactive.active,#chart-e7e38e4d-0541-4f20-b3de-989912c140f2 .active .reactive{fill-opacity:.8;stroke-opacity:.9;stroke-width:4}#chart-e7e38e4d-0541-4f20-b3de-989912c140f2 .ci .reactive.active{stroke-width:1.5}#chart-e7e38e4d-0541-4f20-b3de-989912c140f2 .series text{fill:rgba(0,0,0,1)}#chart-e7e38e4d-0541-4f20-b3de-989912c140f2 .tooltip rect{fill:rgba(255,255,255,1);stroke:rgba(0,0,0,1);-webkit-transition:opacity 150ms;-moz-transition:opacity 150ms;transition:opacity 150ms}#chart-e7e38e4d-0541-4f20-b3de-989912c140f2 .tooltip .label{fill:rgba(0,0,0,.87)}#chart-e7e38e4d-0541-4f20-b3de-989912c140f2 .tooltip .label{fill:rgba(0,0,0,.87)}#chart-e7e38e4d-0541-4f20-b3de-989912c140f2 .tooltip .legend{font-size:.8em;fill:rgba(0,0,0,.54)}#chart-e7e38e4d-0541-4f20-b3de-989912c140f2 .tooltip .x_label{font-size:.6em;fill:rgba(0,0,0,1)}#chart-e7e38e4d-0541-4f20-b3de-989912c140f2 .tooltip .xlink{font-size:.5em;text-decoration:underline}#chart-e7e38e4d-0541-4f20-b3de-989912c140f2 .tooltip .value{font-size:1.5em}#chart-e7e38e4d-0541-4f20-b3de-989912c140f2 .bound{font-size:.5em}#chart-e7e38e4d-0541-4f20-b3de-989912c140f2 .max-value{font-size:.75em;fill:rgba(0,0,0,.54)}#chart-e7e38e4d-0541-4f20-b3de-989912c140f2 .map-element{fill:rgba(255,255,255,1);stroke:rgba(0,0,0,.54) !important}#chart-e7e38e4d-0541-4f20-b3de-989912c140f2 .map-element .reactive{fill-opacity:inherit;stroke-opacity:inherit}#chart-e7e38e4d-0541-4f20-b3de-989912c140f2 .color-0,#chart-e7e38e4d-0541-4f20-b3de-989912c140f2 .color-0 a:visited{stroke:red;fill:red}#chart-e7e38e4d-0541-4f20-b3de-989912c140f2 .color-1,#chart-e7e38e4d-0541-4f20-b3de-989912c140f2 .color-1 a:visited{stroke:blue;fill:blue}#chart-e7e38e4d-0541-4f20-b3de-989912c140f2 .color-2,#chart-e7e38e4d-0541-4f20-b3de-989912c140f2 .color-2 a:visited{stroke:green;fill:green}#chart-e7e38e4d-0541-4f20-b3de-989912c140f2 .text-overlay .color-0 text{fill:white}#chart-e7e38e4d-0541-4f20-b3de-989912c140f2 .text-overlay .color-1 text{fill:white}#chart-e7e38e4d-0541-4f20-b3de-989912c140f2 .text-overlay .color-2 text{fill:white}
#chart-e7e38e4d-0541-4f20-b3de-989912c140f2 text.no_data{text-anchor:middle}#chart-e7e38e4d-0541-4f20-b3de-989912c140f2 .guide.line{fill:none}#chart-e7e38e4d-0541-4f20-b3de-989912c140f2 .centered{text-anchor:middle}#chart-e7e38e4d-0541-4f20-b3de-989912c140f2 .title{text-anchor:middle}#chart-e7e38e4d-0541-4f20-b3de-989912c140f2 .legends .legend text{fill-opacity:1}#chart-e7e38e4d-0541-4f20-b3de-989912c140f2 .axis.x text{text-anchor:middle}#chart-e7e38e4d-0541-4f20-b3de-989912c140f2 .axis.x:not(.web) text[transform]{text-anchor:start}#chart-e7e38e4d-0541-4f20-b3de-989912c140f2 .axis.x:not(.web) text[transform].backwards{text-anchor:end}#chart-e7e38e4d-0541-4f20-b3de-989912c140f2 .axis.y text{text-anchor:end}#chart-e7e38e4d-0541-4f20-b3de-989912c140f2 .axis.y text[transform].backwards{text-anchor:start}#chart-e7e38e4d-0541-4f20-b3de-989912c140f2 .axis.y2 text{text-anchor:start}#chart-e7e38e4d-0541-4f20-b3de-989912c140f2 .axis.y2 text[transform].backwards{text-anchor:end}#chart-e7e38e4d-0541-4f20-b3de-989912c140f2 .axis .guide.line{stroke-dasharray:4,4}#chart-e7e38e4d-0541-4f20-b3de-989912c140f2 .axis .major.guide.line{stroke-dasharray:6,6}#chart-e7e38e4d-0541-4f20-b3de-989912c140f2 .horizontal .axis.y .guide.line,#chart-e7e38e4d-0541-4f20-b3de-989912c140f2 .horizontal .axis.y2 .guide.line,#chart-e7e38e4d-0541-4f20-b3de-989912c140f2 .vertical .axis.x .guide.line{opacity:0}#chart-e7e38e4d-0541-4f20-b3de-989912c140f2 .horizontal .axis.always_show .guide.line,#chart-e7e38e4d-0541-4f20-b3de-989912c140f2 .vertical .axis.always_show .guide.line{opacity:1 !important}#chart-e7e38e4d-0541-4f20-b3de-989912c140f2 .axis.y .guides:hover .guide.line,#chart-e7e38e4d-0541-4f20-b3de-989912c140f2 .axis.y2 .guides:hover .guide.line,#chart-e7e38e4d-0541-4f20-b3de-989912c140f2 .axis.x .guides:hover .guide.line{opacity:1}#chart-e7e38e4d-0541-4f20-b3de-989912c140f2 .axis .guides:hover text{opacity:1}#chart-e7e38e4d-0541-4f20-b3de-989912c140f2 .nofill{fill:none}#chart-e7e38e4d-0541-4f20-b3de-989912c140f2 .subtle-fill{fill-opacity:.2}#chart-e7e38e4d-0541-4f20-b3de-989912c140f2 .dot{stroke-width:1px;fill-opacity:1}#chart-e7e38e4d-0541-4f20-b3de-989912c140f2 .dot.active{stroke-width:5px}#chart-e7e38e4d-0541-4f20-b3de-989912c140f2 .dot.negative{fill:transparent}#chart-e7e38e4d-0541-4f20-b3de-989912c140f2 text,#chart-e7e38e4d-0541-4f20-b3de-989912c140f2 tspan{stroke:none !important}#chart-e7e38e4d-0541-4f20-b3de-989912c140f2 .series text.active{opacity:1}#chart-e7e38e4d-0541-4f20-b3de-989912c140f2 .tooltip rect{fill-opacity:.95;stroke-width:.5}#chart-e7e38e4d-0541-4f20-b3de-989912c140f2 .tooltip text{fill-opacity:1}#chart-e7e38e4d-0541-4f20-b3de-989912c140f2 .showable{visibility:hidden}#chart-e7e38e4d-0541-4f20-b3de-989912c140f2 .showable.shown{visibility:visible}#chart-e7e38e4d-0541-4f20-b3de-989912c140f2 .gauge-background{fill:rgba(229,229,229,1);stroke:none}#chart-e7e38e4d-0541-4f20-b3de-989912c140f2 .bg-lines{stroke:rgba(249,249,249,1);stroke-width:2px}</style><script type="text/javascript">window.pygal = window.pygal || {};window.pygal.config = window.pygal.config || {};window.pygal.config['e7e38e4d-0541-4f20-b3de-989912c140f2'] = {"allow_interruptions": false, "box_mode": "extremes", "classes": ["pygal-chart"], "css": ["file://style.css", "file://graph.css"], "defs": [], "disable_xml_declaration": false, "dots_size": 2.5, "dynamic_print_values": false, "explicit_size": false, "fill": false, "force_uri_protocol": "https", "formatter": null, "half_pie": false, "height": 600, "include_x_axis": false, "inner_radius": 0, "interpolate": null, "interpolation_parameters": {}, "interpolation_precision": 250, "inverse_y_axis": false, "js": ["//kozea.github.io/pygal.js/2.0.x/pygal-tooltips.min.js"], "legend_at_bottom": true, "legend_at_bottom_columns": null, "legend_box_size": 12, "logarithmic": false, "margin": 20, "margin_bottom": null, "margin_left": null, "margin_right": null, "margin_top": null, "max_scale": 16, "min_scale": 4, "missing_value_fill_truncation": "x", "no_data_text": "No data", "no_prefix": false, "order_min": null, "pretty_print": false, "print_labels": false, "print_values": false, "print_values_position": "center", "print_zeroes": true, "range": null, "rounded_bars": null, "secondary_range": null, "show_dots": true, "show_legend": true, "show_minor_x_labels": false, "show_minor_y_labels": true, "show_only_major_dots": false, "show_x_guides": false, "show_x_labels": true, "show_y_guides": true, "show_y_labels": true, "spacing": 10, "stack_from_top": false, "strict": false, "stroke": true, "stroke_style": null, "style": {"background": "rgba(249, 249, 249, 1)", "ci_colors": [], "colors": ["red", "blue", "green", "#a3a3a3"], "font_family": "Consolas, \"Liberation Mono\", Menlo, Courier, monospace", "foreground": "rgba(0, 0, 0, .87)", "foreground_strong": "rgba(0, 0, 0, 1)", "foreground_subtle": "rgba(0, 0, 0, .54)", "guide_stroke_dasharray": "4,4", "label_font_family": "Consolas, \"Liberation Mono\", Menlo, Courier, monospace", "label_font_size": 10, "legend_font_family": "Consolas, \"Liberation Mono\", Menlo, Courier, monospace", "legend_font_size": 14, "major_guide_stroke_dasharray": "6,6", "major_label_font_family": "Consolas, \"Liberation Mono\", Menlo, Courier, monospace", "major_label_font_size": 10, "no_data_font_family": "Consolas, \"Liberation Mono\", Menlo, Courier, monospace", "no_data_font_size": 64, "opacity": ".7", "opacity_hover": ".8", "plot_background": "rgba(255, 255, 255, 1)", "stroke_opacity": ".8", "stroke_opacity_hover": ".9", "title_font_family": "Consolas, \"Liberation Mono\", Menlo, Courier, monospace", "title_font_size": 16, "tooltip_font_family": "Consolas, \"Liberation Mono\", Menlo, Courier, monospace", "tooltip_font_size": 14, "transition": "150ms", "value_background": "rgba(229, 229, 229, 1)", "value_colors": [], "value_font_family": "Consolas, \"Liberation Mono\", Menlo, Courier, monospace", "value_font_size": 16, "value_label_font_family": "Consolas, \"Liberation Mono\", Menlo, Courier, monospace", "value_label_font_size": 10}, "title": "AG Cremer: Future and Past Averages in ODIs", "tooltip_border_radius": 10, "tooltip_fancy_mode": true, "truncate_label": null, "truncate_legend": null, "width": 800, "x_label_rotation": 45, "x_labels": ["2009", "0", "0", "0", "0", "0", "0", "0", "0", "0", "0", "0", "0", "0", "0", "0", "0", "0", "0", "2010", "0", "0", "0", "0", "0", "0", "0", "0", "0", "0", "0", "0", "0", "0", "0", "0", "0", "2011", "0", "0", "0", "0", "0", "2015", "0", "0", "0", "0", "0", "0", "0", "0", "0", "0", "0", "0", "0", "0", "2016", "0", "0", "0", "0", "0", "0", "0", "0", "0", "2017", "0", "0", "0", "0", "0", "0", "0", "0", "0", "0", "0", "2018", "0", "0", "0", "0", "0", "0", "0", "0", "0", "0", "0", "0", "0", "0"], "x_labels_major": ["2009", "2010", "2011", "2015", "2016", "2017", "2018"], "x_labels_major_count": null, "x_labels_major_every": null, "x_title": null, "xrange": null, "y_label_rotation": 0, "y_labels": null, "y_labels_major": null, "y_labels_major_count": null, "y_labels_major_every": null, "y_title": null, "zero": 60, "legends": ["Future Average", "Past Average", "Career Average"]}</script><script type="text/javascript" xlink:href="https://kozea.github.io/pygal.js/2.0.x/pygal-tooltips.min.js"/></defs><title>AG Cremer: Future and Past Averages in ODIs</title><g class="graph line-graph vertical"><rect class="background" height="600" width="800" x="0" y="0"/><g class="plot" transform="translate(42, 46)"><rect class="background" height="462.02943725152284" width="738.0" x="0" y="0"/><g class="axis y always_show"><g class="guides"><path class="axis major line" d="M0.000000 453.144256 h738.000000"/><text class="major" x="-5" y="456.6442557659166">0</text><title>0</title></g><g class="guides"><path class="guide line" d="M0.000000 361.544447 h738.000000"/><text class="" x="-5" y="365.0444466359557">10</text><title>10</title></g><g class="guides"><path class="guide line" d="M0.000000 269.944638 h738.000000"/><text class="" x="-5" y="273.4446375059948">20</text><title>20</title></g><g class="guides"><path class="guide line" d="M0.000000 178.344828 h738.000000"/><text class="" x="-5" y="181.8448283760339">30</text><title>30</title></g><g class="guides"><path class="guide line" d="M0.000000 86.745019 h738.000000"/><text class="" x="-5" y="90.24501924607296">40</text><title>40</title></g></g><g class="axis x"><g class="guides"><path class="major line" d="M14.192308 0.000000 v462.029437"/><text class="major" x="14.192307692307692" y="477.02943725152284" transform="rotate(45 14.192308 477.029437)">2009</text></g><g class="guides"><path class="major guide line" d="M157.625205 0.000000 v462.029437"/><text class="major" x="157.62520458265138" y="477.02943725152284" transform="rotate(45 157.625205 477.029437)">2010</text></g><g class="guides"><path class="major guide line" d="M293.509002 0.000000 v462.029437"/><text class="major" x="293.5090016366612" y="477.02943725152284" transform="rotate(45 293.509002 477.029437)">2011</text></g><g class="guides"><path class="major guide line" d="M338.803601 0.000000 v462.029437"/><text class="major" x="338.8036006546645" y="477.02943725152284" transform="rotate(45 338.803601 477.029437)">2015</text></g><g class="guides"><path class="major guide line" d="M452.040098 0.000000 v462.029437"/><text class="major" x="452.0400981996727" y="477.02943725152284" transform="rotate(45 452.040098 477.029437)">2016</text></g><g class="guides"><path class="major guide line" d="M527.531097 0.000000 v462.029437"/><text class="major" x="527.5310965630115" y="477.02943725152284" transform="rotate(45 527.531097 477.029437)">2017</text></g><g class="guides"><path class="major guide line" d="M618.120295 0.000000 v462.029437"/><text class="major" x="618.120294599018" y="477.02943725152284" transform="rotate(45 618.120295 477.029437)">2018</text></g></g><g class="series serie-0 color-0"><path class="line reactive nofill" d="M14.192308 176.238033 L21.741408 173.764838 29.290507 172.024442 36.839607 165.154456 44.388707 160.024867 51.937807 151.506084 59.486907 154.162479 67.036007 155.811275 74.585106 155.719676 82.134206 141.521705 89.683306 146.651294 97.232406 148.025292 104.781506 148.116891 112.330606 148.483291 119.879705 151.048085 127.428805 148.758090 134.977905 143.078902 142.527005 143.353701 150.076105 144.727698 157.625205 149.032889 165.174304 154.162479 172.723404 151.872484 180.272504 152.971681 187.821604 145.643697 195.370704 143.720101 202.919804 148.300091 210.468903 149.582488 218.018003 150.590086 225.567103 146.742894 233.116203 149.948888 240.665303 147.109293 248.214403 146.193295 255.763502 147.750492 263.312602 155.719676 270.861702 160.391266 278.410802 165.062856 285.959902 169.551247 293.509002 172.390841 301.058101 173.673238 308.607201 165.520855 316.156301 170.650444 323.705401 176.329633 331.254501 180.543224 338.803601 176.146433 346.352700 174.864036 353.901800 178.619628 361.450900 185.489613 369.000000 190.161204 376.549100 196.206791 384.098200 203.168377 391.647300 211.961958 399.196399 206.557570 406.745499 209.397164 414.294599 206.465970 421.843699 213.519155 429.392799 211.687159 436.941899 211.778759 444.490998 190.894002 452.040098 194.741194 459.589198 195.931992 467.138298 192.267999 474.687398 192.817598 482.236498 202.343978 489.785597 205.824771 497.334697 211.137560 504.883797 216.175550 512.432897 220.022742 519.981997 225.793530 527.531097 227.350726 535.080196 220.938740 542.629296 217.641146 550.178396 221.946338 557.727496 212.145158 565.276596 215.809150 572.825696 220.938740 580.374795 190.069604 587.923895 199.321185 595.472995 205.458372 603.022095 223.778334 610.571195 239.716700 618.120295 231.106318 625.669394 247.960683 633.218494 254.830669 640.767594 266.372245 648.316694 242.464695 655.865794 229.823921 663.414894 186.772011 670.963993 203.351576 678.513093 234.953510 686.062193 251.624676 693.611293 288.264599 701.160393 295.134585 708.709493 242.464695 716.258592 8.885181 723.807692 141.704905"/></g><g class="series serie-1 color-1"><path class="line reactive nofill" d="M14.192308 453.144256 L21.741408 324.904523 29.290507 297.424580 36.839607 330.583711 44.388707 335.713300 51.937807 348.079275 59.486907 329.759313 67.036007 307.683759 74.585106 299.622976 82.134206 321.332130 89.683306 299.806175 97.232406 287.898200 104.781506 282.035812 112.330606 275.623826 119.879705 266.463845 127.428805 265.731046 134.977905 274.799427 142.527005 269.669838 150.076105 261.883854 157.625205 250.159079 165.174304 236.419107 172.723404 237.335105 180.272504 232.297116 187.821604 241.457097 195.370704 242.922694 202.919804 233.579513 210.468903 230.923119 218.018003 226.892727 225.567103 230.465120 233.116203 224.602732 240.665303 225.976729 248.214403 225.793530 255.763502 221.579938 263.312602 208.847565 270.861702 201.427980 278.410802 194.099996 285.959902 186.863611 293.509002 182.283620 301.058101 180.085225 308.607201 190.527603 316.156301 183.749217 323.705401 176.146433 331.254501 170.650444 338.803601 176.421232 346.352700 177.886829 353.901800 173.581638 361.450900 165.887254 369.000000 160.666065 376.549100 153.796080 384.098200 145.918496 391.647300 136.117316 399.196399 145.460497 406.745499 143.720101 414.294599 147.567293 421.843699 140.788907 429.392799 144.727698 436.941899 146.742894 444.490998 166.070454 452.040098 163.780459 459.589198 162.956060 467.138298 166.162054 474.687398 166.253654 482.236498 160.391266 489.785597 158.284470 497.334697 155.078477 504.883797 151.964083 512.432897 150.590086 519.981997 147.200893 527.531097 147.384093 535.080196 153.612880 542.629296 156.818873 550.178396 154.803677 557.727496 160.666065 565.276596 159.841667 572.825696 158.376070 580.374795 171.841242 587.923895 169.184847 595.472995 167.719251 603.022095 162.314862 610.571195 157.643272 618.120295 161.673663 625.669394 157.185272 633.218494 157.460072 640.767594 154.712078 648.316694 163.688859 655.865794 167.902450 663.414894 175.047235 670.963993 173.490038 678.513093 170.284045 686.062193 169.368047 693.611293 165.978854 701.160393 167.719251 708.709493 173.398439 716.258592 179.169227 723.807692 178.894427"/></g><g class="series serie-2 color-2"><path class="line reactive nofill" d="M14.192308 176.238033 L21.741408 176.238033 29.290507 176.238033 36.839607 176.238033 44.388707 176.238033 51.937807 176.238033 59.486907 176.238033 67.036007 176.238033 74.585106 176.238033 82.134206 176.238033 89.683306 176.238033 97.232406 176.238033 104.781506 176.238033 112.330606 176.238033 119.879705 176.238033 127.428805 176.238033 134.977905 176.238033 142.527005 176.238033 150.076105 176.238033 157.625205 176.238033 165.174304 176.238033 172.723404 176.238033 180.272504 176.238033 187.821604 176.238033 195.370704 176.238033 202.919804 176.238033 210.468903 176.238033 218.018003 176.238033 225.567103 176.238033 233.116203 176.238033 240.665303 176.238033 248.214403 176.238033 255.763502 176.238033 263.312602 176.238033 270.861702 176.238033 278.410802 176.238033 285.959902 176.238033 293.509002 176.238033 301.058101 176.238033 308.607201 176.238033 316.156301 176.238033 323.705401 176.238033 331.254501 176.238033 338.803601 176.238033 346.352700 176.238033 353.901800 176.238033 361.450900 176.238033 369.000000 176.238033 376.549100 176.238033 384.098200 176.238033 391.647300 176.238033 399.196399 176.238033 406.745499 176.238033 414.294599 176.238033 421.843699 176.238033 429.392799 176.238033 436.941899 176.238033 444.490998 176.238033 452.040098 176.238033 459.589198 176.238033 467.138298 176.238033 474.687398 176.238033 482.236498 176.238033 489.785597 176.238033 497.334697 176.238033 504.883797 176.238033 512.432897 176.238033 519.981997 176.238033 527.531097 176.238033 535.080196 176.238033 542.629296 176.238033 550.178396 176.238033 557.727496 176.238033 565.276596 176.238033 572.825696 176.238033 580.374795 176.238033 587.923895 176.238033 595.472995 176.238033 603.022095 176.238033 610.571195 176.238033 618.120295 176.238033 625.669394 176.238033 633.218494 176.238033 640.767594 176.238033 648.316694 176.238033 655.865794 176.238033 663.414894 176.238033 670.963993 176.238033 678.513093 176.238033 686.062193 176.238033 693.611293 176.238033 701.160393 176.238033 708.709493 176.238033 716.258592 176.238033 723.807692 176.238033"/></g></g><g class="titles"><text class="title plot_title" x="400.0" y="26">AG Cremer: Future and Past Averages in ODIs</text></g><g class="plot overlay" transform="translate(42, 46)"><g class="series serie-0 color-0"><g class="dots"><desc class="label">119 wickets in 95 innings (780.0 overs)</desc><circle class="dot reactive tooltip-trigger" cx="14.192307692307692" cy="176.2380327660448" r="2.5"/><desc class="value">30.23</desc><desc class="x ">14.192307692307692</desc><desc class="y ">176.2380327660448</desc><desc class="x_label">2009</desc></g><g class="dots"><desc class="label">87 wickets in 76 innings (622.1 overs)</desc><circle class="dot reactive tooltip-trigger" cx="157.62520458265138" cy="149.03288945444638" r="2.5"/><desc class="value">33.2</desc><desc class="x ">157.62520458265138</desc><desc class="y ">149.03288945444638</desc><desc class="x_label">2010</desc></g><g class="dots"><desc class="label">72 wickets in 58 innings (485.3 overs)</desc><circle class="dot reactive tooltip-trigger" cx="293.5090016366612" cy="172.39084078258645" r="2.5"/><desc class="value">30.65</desc><desc class="x ">293.5090016366612</desc><desc class="y ">172.39084078258645</desc><desc class="x_label">2011</desc></g><g class="dots"><desc class="label">66 wickets in 52 innings (439.1 overs)</desc><circle class="dot reactive tooltip-trigger" cx="338.8036006546645" cy="176.14643295691485" r="2.5"/><desc class="value">30.24</desc><desc class="x ">338.8036006546645</desc><desc class="y ">176.14643295691485</desc><desc class="x_label">2015</desc></g><g class="dots"><desc class="label">48 wickets in 37 innings (312.4 overs)</desc><circle class="dot reactive tooltip-trigger" cx="452.0400981996727" cy="194.7411942102969" r="2.5"/><desc class="value">28.21</desc><desc class="x left">452.0400981996727</desc><desc class="y left">194.7411942102969</desc><desc class="x_label">2016</desc></g><g class="dots"><desc class="label">43 wickets in 27 innings (244.1 overs)</desc><circle class="dot reactive tooltip-trigger" cx="527.5310965630115" cy="227.350726260563" r="2.5"/><desc class="value">24.65</desc><desc class="x left">527.5310965630115</desc><desc class="y left">227.350726260563</desc><desc class="x_label">2017</desc></g><g class="dots"><desc class="label">25 wickets in 15 innings (137.0 overs)</desc><circle class="dot reactive tooltip-trigger" cx="618.120294599018" cy="231.1063184348914" r="2.5"/><desc class="value">24.24</desc><desc class="x left top">618.120294599018</desc><desc class="y left top">231.1063184348914</desc><desc class="x_label">2018</desc></g></g><g class="series serie-1 color-1"><g class="dots"><desc class="label">0 wickets over 0 innings</desc><circle class="dot reactive tooltip-trigger" cx="14.192307692307692" cy="453.1442557659166" r="2.5"/><desc class="value">0</desc><desc class="x top">14.192307692307692</desc><desc class="y top">453.1442557659166</desc><desc class="x_label">2009</desc></g><g class="dots"><desc class="label">32 wickets in 19 innings (157.5 overs)</desc><circle class="dot reactive tooltip-trigger" cx="157.62520458265138" cy="250.15907873392325" r="2.5"/><desc class="value">22.16</desc><desc class="x top">157.62520458265138</desc><desc class="y top">250.15907873392325</desc><desc class="x_label">2010</desc></g><g class="dots"><desc class="label">47 wickets in 37 innings (294.3 overs)</desc><circle class="dot reactive tooltip-trigger" cx="293.5090016366612" cy="182.28362016862224" r="2.5"/><desc class="value">29.57</desc><desc class="x ">293.5090016366612</desc><desc class="y ">182.28362016862224</desc><desc class="x_label">2011</desc></g><g class="dots"><desc class="label">53 wickets in 43 innings (340.5 overs)</desc><circle class="dot reactive tooltip-trigger" cx="338.8036006546645" cy="176.4212323843047" r="2.5"/><desc class="value">30.21</desc><desc class="x ">338.8036006546645</desc><desc class="y ">176.4212323843047</desc><desc class="x_label">2015</desc></g><g class="dots"><desc class="label">71 wickets in 58 innings (467.2 overs)</desc><circle class="dot reactive tooltip-trigger" cx="452.0400981996727" cy="163.78045872437008" r="2.5"/><desc class="value">31.59</desc><desc class="x left">452.0400981996727</desc><desc class="y left">163.78045872437008</desc><desc class="x_label">2016</desc></g><g class="dots"><desc class="label">76 wickets in 68 innings (535.5 overs)</desc><circle class="dot reactive tooltip-trigger" cx="527.5310965630115" cy="147.38409289010707" r="2.5"/><desc class="value">33.38</desc><desc class="x left">527.5310965630115</desc><desc class="y left">147.38409289010707</desc><desc class="x_label">2017</desc></g><g class="dots"><desc class="label">94 wickets in 80 innings (643.0 overs)</desc><circle class="dot reactive tooltip-trigger" cx="618.120294599018" cy="161.673663114381" r="2.5"/><desc class="value">31.82</desc><desc class="x left">618.120294599018</desc><desc class="y left">161.673663114381</desc><desc class="x_label">2018</desc></g></g><g class="series serie-2 color-2"/></g><g class="plot text-overlay" transform="translate(42, 46)"><g class="series serie-0 color-0"/><g class="series serie-1 color-1"/><g class="series serie-2 color-2"/></g><g class="plot tooltip-overlay" transform="translate(42, 46)"><g class="tooltip" style="opacity: 0" transform="translate(0 0)"><rect class="tooltip-box" height="0" rx="10" ry="10" width="0"/><g class="text"/></g></g><g class="legends" transform="translate(52, 545)"><g class="legend reactive activate-serie" id="activate-serie-0"><rect class="color-0 reactive" height="12" width="12" x="0.0" y="1.0"/><text x="17.0" y="11.2">Future Average</text></g><g class="legend reactive activate-serie" id="activate-serie-1"><rect class="color-1 reactive" height="12" width="12" x="369.0" y="1.0"/><text x="386.0" y="11.2">Past Average</text></g><g class="legend reactive activate-serie" id="activate-serie-2"><rect class="color-2 reactive" height="12" width="12" x="0.0" y="22.0"/><text x="17.0" y="32.2">Career Average</text></g></g></g></svg>