<?xml version='1.0' encoding='utf-8'?>
<svg xmlns:xlink="http://www.w3.org/1999/xlink" xmlns="http://www.w3.org/2000/svg" id="chart-ee736551-e62f-43de-8fcc-3498a61cffab" class="pygal-chart" viewBox="0 0 800 600"><!--Generated with pygal 2.4.0 (lxml) ©Kozea 2012-2016 on 2019-08-04--><!--http://pygal.org--><!--http://github.com/Kozea/pygal--><defs><style type="text/css">#chart-ee736551-e62f-43de-8fcc-3498a61cffab{-webkit-user-select:none;-webkit-font-smoothing:antialiased;font-family:Consolas,"Liberation Mono",Menlo,Courier,monospace}#chart-ee736551-e62f-43de-8fcc-3498a61cffab .title{font-family:Consolas,"Liberation Mono",Menlo,Courier,monospace;font-size:16px}#chart-ee736551-e62f-43de-8fcc-3498a61cffab .legends .legend text{font-family:Consolas,"Liberation Mono",Menlo,Courier,monospace;font-size:14px}#chart-ee736551-e62f-43de-8fcc-3498a61cffab .axis text{font-family:Consolas,"Liberation Mono",Menlo,Courier,monospace;font-size:10px}#chart-ee736551-e62f-43de-8fcc-3498a61cffab .axis text.major{font-family:Consolas,"Liberation Mono",Menlo,Courier,monospace;font-size:10px}#chart-ee736551-e62f-43de-8fcc-3498a61cffab .text-overlay text.value{font-family:Consolas,"Liberation Mono",Menlo,Courier,monospace;font-size:16px}#chart-ee736551-e62f-43de-8fcc-3498a61cffab .text-overlay text.label{font-family:Consolas,"Liberation Mono",Menlo,Courier,monospace;font-size:10px}#chart-ee736551-e62f-43de-8fcc-3498a61cffab .tooltip{font-family:Consolas,"Liberation Mono",Menlo,Courier,monospace;font-size:14px}#chart-ee736551-e62f-43de-8fcc-3498a61cffab text.no_data{font-family:Consolas,"Liberation Mono",Menlo,Courier,monospace;font-size:64px}
#chart-ee736551-e62f-43de-8fcc-3498a61cffab{background-color:rgba(249,249,249,1)}#chart-ee736551-e62f-43de-8fcc-3498a61cffab path,#chart-ee736551-e62f-43de-8fcc-3498a61cffab line,#chart-ee736551-e62f-43de-8fcc-3498a61cffab rect,#chart-ee736551-e62f-43de-8fcc-3498a61cffab circle{-webkit-transition:150ms;-moz-transition:150ms;transition:150ms}#chart-ee736551-e62f-43de-8fcc-3498a61cffab .graph &gt; .background{fill:rgba(249,249,249,1)}#chart-ee736551-e62f-43de-8fcc-3498a61cffab .plot &gt; .background{fill:rgba(255,255,255,1)}#chart-ee736551-e62f-43de-8fcc-3498a61cffab .graph{fill:rgba(0,0,0,.87)}#chart-ee736551-e62f-43de-8fcc-3498a61cffab text.no_data{fill:rgba(0,0,0,1)}#chart-ee736551-e62f-43de-8fcc-3498a61cffab .title{fill:rgba(0,0,0,1)}#chart-ee736551-e62f-43de-8fcc-3498a61cffab .legends .legend text{fill:rgba(0,0,0,.87)}#chart-ee736551-e62f-43de-8fcc-3498a61cffab .legends .legend:hover text{fill:rgba(0,0,0,1)}#chart-ee736551-e62f-43de-8fcc-3498a61cffab .axis .line{stroke:rgba(0,0,0,1)}#chart-ee736551-e62f-43de-8fcc-3498a61cffab .axis .guide.line{stroke:rgba(0,0,0,.54)}#chart-ee736551-e62f-43de-8fcc-3498a61cffab .axis .major.line{stroke:rgba(0,0,0,.87)}#chart-ee736551-e62f-43de-8fcc-3498a61cffab .axis text.major{fill:rgba(0,0,0,1)}#chart-ee736551-e62f-43de-8fcc-3498a61cffab .axis.y .guides:hover .guide.line,#chart-ee736551-e62f-43de-8fcc-3498a61cffab .line-graph .axis.x .guides:hover .guide.line,#chart-ee736551-e62f-43de-8fcc-3498a61cffab .stackedline-graph .axis.x .guides:hover .guide.line,#chart-ee736551-e62f-43de-8fcc-3498a61cffab .xy-graph .axis.x .guides:hover .guide.line{stroke:rgba(0,0,0,1)}#chart-ee736551-e62f-43de-8fcc-3498a61cffab .axis .guides:hover text{fill:rgba(0,0,0,1)}#chart-ee736551-e62f-43de-8fcc-3498a61cffab .reactive{fill-opacity:.7;stroke-opacity:.8}#chart-ee736551-e62f-43de-8fcc-3498a61cffab .ci{stroke:rgba(0,0,0,.87)}#chart-ee736551-e62f-43de-8fcc-3498a61cffab .reactive.active,#chart-ee736551-e62f-43de-8fcc-3498a61cffab .active .reactive{fill-opacity:.8;stroke-opacity:.9;stroke-width:4}#chart-ee736551-e62f-43de-8fcc-3498a61cffab .ci .reactive.active{stroke-width:1.5}#chart-ee736551-e62f-43de-8fcc-3498a61cffab .series text{fill:rgba(0,0,0,1)}#chart-ee736551-e62f-43de-8fcc-3498a61cffab .tooltip rect{fill:rgba(255,255,255,1);stroke:rgba(0,0,0,1);-webkit-transition:opacity 150ms;-moz-transition:opacity 150ms;transition:opacity 150ms}#chart-ee736551-e62f-43de-8fcc-3498a61cffab .tooltip .label{fill:rgba(0,0,0,.87)}#chart-ee736551-e62f-43de-8fcc-3498a61cffab .tooltip .label{fill:rgba(0,0,0,.87)}#chart-ee736551-e62f-43de-8fcc-3498a61cffab .tooltip .legend{font-size:.8em;fill:rgba(0,0,0,.54)}#chart-ee736551-e62f-43de-8fcc-3498a61cffab .tooltip .x_label{font-size:.6em;fill:rgba(0,0,0,1)}#chart-ee736551-e62f-43de-8fcc-3498a61cffab .tooltip .xlink{font-size:.5em;text-decoration:underline}#chart-ee736551-e62f-43de-8fcc-3498a61cffab .tooltip .value{font-size:1.5em}#chart-ee736551-e62f-43de-8fcc-3498a61cffab .bound{font-size:.5em}#chart-ee736551-e62f-43de-8fcc-3498a61cffab .max-value{font-size:.75em;fill:rgba(0,0,0,.54)}#chart-ee736551-e62f-43de-8fcc-3498a61cffab .map-element{fill:rgba(255,255,255,1);stroke:rgba(0,0,0,.54) !important}#chart-ee736551-e62f-43de-8fcc-3498a61cffab .map-element .reactive{fill-opacity:inherit;stroke-opacity:inherit}#chart-ee736551-e62f-43de-8fcc-3498a61cffab .color-0,#chart-ee736551-e62f-43de-8fcc-3498a61cffab .color-0 a:visited{stroke:red;fill:red}#chart-ee736551-e62f-43de-8fcc-3498a61cffab .color-1,#chart-ee736551-e62f-43de-8fcc-3498a61cffab .color-1 a:visited{stroke:blue;fill:blue}#chart-ee736551-e62f-43de-8fcc-3498a61cffab .color-2,#chart-ee736551-e62f-43de-8fcc-3498a61cffab .color-2 a:visited{stroke:green;fill:green}#chart-ee736551-e62f-43de-8fcc-3498a61cffab .text-overlay .color-0 text{fill:white}#chart-ee736551-e62f-43de-8fcc-3498a61cffab .text-overlay .color-1 text{fill:white}#chart-ee736551-e62f-43de-8fcc-3498a61cffab .text-overlay .color-2 text{fill:white}
#chart-ee736551-e62f-43de-8fcc-3498a61cffab text.no_data{text-anchor:middle}#chart-ee736551-e62f-43de-8fcc-3498a61cffab .guide.line{fill:none}#chart-ee736551-e62f-43de-8fcc-3498a61cffab .centered{text-anchor:middle}#chart-ee736551-e62f-43de-8fcc-3498a61cffab .title{text-anchor:middle}#chart-ee736551-e62f-43de-8fcc-3498a61cffab .legends .legend text{fill-opacity:1}#chart-ee736551-e62f-43de-8fcc-3498a61cffab .axis.x text{text-anchor:middle}#chart-ee736551-e62f-43de-8fcc-3498a61cffab .axis.x:not(.web) text[transform]{text-anchor:start}#chart-ee736551-e62f-43de-8fcc-3498a61cffab .axis.x:not(.web) text[transform].backwards{text-anchor:end}#chart-ee736551-e62f-43de-8fcc-3498a61cffab .axis.y text{text-anchor:end}#chart-ee736551-e62f-43de-8fcc-3498a61cffab .axis.y text[transform].backwards{text-anchor:start}#chart-ee736551-e62f-43de-8fcc-3498a61cffab .axis.y2 text{text-anchor:start}#chart-ee736551-e62f-43de-8fcc-3498a61cffab .axis.y2 text[transform].backwards{text-anchor:end}#chart-ee736551-e62f-43de-8fcc-3498a61cffab .axis .guide.line{stroke-dasharray:4,4}#chart-ee736551-e62f-43de-8fcc-3498a61cffab .axis .major.guide.line{stroke-dasharray:6,6}#chart-ee736551-e62f-43de-8fcc-3498a61cffab .horizontal .axis.y .guide.line,#chart-ee736551-e62f-43de-8fcc-3498a61cffab .horizontal .axis.y2 .guide.line,#chart-ee736551-e62f-43de-8fcc-3498a61cffab .vertical .axis.x .guide.line{opacity:0}#chart-ee736551-e62f-43de-8fcc-3498a61cffab .horizontal .axis.always_show .guide.line,#chart-ee736551-e62f-43de-8fcc-3498a61cffab .vertical .axis.always_show .guide.line{opacity:1 !important}#chart-ee736551-e62f-43de-8fcc-3498a61cffab .axis.y .guides:hover .guide.line,#chart-ee736551-e62f-43de-8fcc-3498a61cffab .axis.y2 .guides:hover .guide.line,#chart-ee736551-e62f-43de-8fcc-3498a61cffab .axis.x .guides:hover .guide.line{opacity:1}#chart-ee736551-e62f-43de-8fcc-3498a61cffab .axis .guides:hover text{opacity:1}#chart-ee736551-e62f-43de-8fcc-3498a61cffab .nofill{fill:none}#chart-ee736551-e62f-43de-8fcc-3498a61cffab .subtle-fill{fill-opacity:.2}#chart-ee736551-e62f-43de-8fcc-3498a61cffab .dot{stroke-width:1px;fill-opacity:1}#chart-ee736551-e62f-43de-8fcc-3498a61cffab .dot.active{stroke-width:5px}#chart-ee736551-e62f-43de-8fcc-3498a61cffab .dot.negative{fill:transparent}#chart-ee736551-e62f-43de-8fcc-3498a61cffab text,#chart-ee736551-e62f-43de-8fcc-3498a61cffab tspan{stroke:none !important}#chart-ee736551-e62f-43de-8fcc-3498a61cffab .series text.active{opacity:1}#chart-ee736551-e62f-43de-8fcc-3498a61cffab .tooltip rect{fill-opacity:.95;stroke-width:.5}#chart-ee736551-e62f-43de-8fcc-3498a61cffab .tooltip text{fill-opacity:1}#chart-ee736551-e62f-43de-8fcc-3498a61cffab .showable{visibility:hidden}#chart-ee736551-e62f-43de-8fcc-3498a61cffab .showable.shown{visibility:visible}#chart-ee736551-e62f-43de-8fcc-3498a61cffab .gauge-background{fill:rgba(229,229,229,1);stroke:none}#chart-ee736551-e62f-43de-8fcc-3498a61cffab .bg-lines{stroke:rgba(249,249,249,1);stroke-width:2px}</style><script type="text/javascript">window.pygal = window.pygal || {};window.pygal.config = window.pygal.config || {};window.pygal.config['ee736551-e62f-43de-8fcc-3498a61cffab'] = {"allow_interruptions": false, "box_mode": "extremes", "classes": ["pygal-chart"], "css": ["file://style.css", "file://graph.css"], "defs": [], "disable_xml_declaration": false, "dots_size": 2.5, "dynamic_print_values": false, "explicit_size": false, "fill": false, "force_uri_protocol": "https", "formatter": null, "half_pie": false, "height": 600, "include_x_axis": false, "inner_radius": 0, "interpolate": null, "interpolation_parameters": {}, "interpolation_precision": 250, "inverse_y_axis": false, "js": ["//kozea.github.io/pygal.js/2.0.x/pygal-tooltips.min.js"], "legend_at_bottom": true, "legend_at_bottom_columns": null, "legend_box_size": 12, "logarithmic": false, "margin": 20, "margin_bottom": null, "margin_left": null, "margin_right": null, "margin_top": null, "max_scale": 16, "min_scale": 4, "missing_value_fill_truncation": "x", "no_data_text": "No data", "no_prefix": false, "order_min": null, "pretty_print": false, "print_labels": false, "print_values": false, "print_values_position": "center", "print_zeroes": true, "range": null, "rounded_bars": null, "secondary_range": null, "show_dots": true, "show_legend": true, "show_minor_x_labels": false, "show_minor_y_labels": true, "show_only_major_dots": false, "show_x_guides": false, "show_x_labels": true, "show_y_guides": true, "show_y_labels": true, "spacing": 10, "stack_from_top": false, "strict": false, "stroke": true, "stroke_style": null, "style": {"background": "rgba(249, 249, 249, 1)", "ci_colors": [], "colors": ["red", "blue", "green", "#a3a3a3"], "font_family": "Consolas, \"Liberation Mono\", Menlo, Courier, monospace", "foreground": "rgba(0, 0, 0, .87)", "foreground_strong": "rgba(0, 0, 0, 1)", "foreground_subtle": "rgba(0, 0, 0, .54)", "guide_stroke_dasharray": "4,4", "label_font_family": "Consolas, \"Liberation Mono\", Menlo, Courier, monospace", "label_font_size": 10, "legend_font_family": "Consolas, \"Liberation Mono\", Menlo, Courier, monospace", "legend_font_size": 14, "major_guide_stroke_dasharray": "6,6", "major_label_font_family": "Consolas, \"Liberation Mono\", Menlo, Courier, monospace", "major_label_font_size": 10, "no_data_font_family": "Consolas, \"Liberation Mono\", Menlo, Courier, monospace", "no_data_font_size": 64, "opacity": ".7", "opacity_hover": ".8", "plot_background": "rgba(255, 255, 255, 1)", "stroke_opacity": ".8", "stroke_opacity_hover": ".9", "title_font_family": "Consolas, \"Liberation Mono\", Menlo, Courier, monospace", "title_font_size": 16, "tooltip_font_family": "Consolas, \"Liberation Mono\", Menlo, Courier, monospace", "tooltip_font_size": 14, "transition": "150ms", "value_background": "rgba(229, 229, 229, 1)", "value_colors": [], "value_font_family": "Consolas, \"Liberation Mono\", Menlo, Courier, monospace", "value_font_size": 16, "value_label_font_family": "Consolas, \"Liberation Mono\", Menlo, Courier, monospace", "value_label_font_size": 10}, "title": "AU Rashid: Future and Past Averages in ODIs", "tooltip_border_radius": 10, "tooltip_fancy_mode": true, "truncate_label": null, "truncate_legend": null, "width": 800, "x_label_rotation": 45, "x_labels": ["2009", "0", "0", "0", "0", "2015", "0", "0", "0", "0", "0", "0", "0", "0", "0", "0", "0", "0", "0", "2016", "0", "0", "0", "0", "0", "0", "0", "0", "0", "0", "0", "0", "0", "0", "0", "0", "2017", "0", "0", "0", "0", "0", "0", "0", "0", "0", "0", "0", "0", "0", "0", "2018", "0", "0", "0", "0", "0", "0", "0", "0", "0", "0", "0", "0", "0", "0", "0", "0", "0", "0", "0", "0", "0", "0", "2019", "0", "0", "0", "0", "0", "0", "0", "0", "0", "0", "0", "0", "0", "0", "0", "0", "0", "0"], "x_labels_major": ["2009", "2015", "2016", "2017", "2018", "2019"], "x_labels_major_count": null, "x_labels_major_every": null, "x_title": null, "xrange": null, "y_label_rotation": 0, "y_labels": null, "y_labels_major": null, "y_labels_major_count": null, "y_labels_major_every": null, "y_title": null, "zero": 70.0, "legends": ["Future Average", "Past Average", "Career Average"]}</script><script type="text/javascript" xlink:href="https://kozea.github.io/pygal.js/2.0.x/pygal-tooltips.min.js"/></defs><title>AU Rashid: Future and Past Averages in ODIs</title><g class="graph line-graph vertical"><rect class="background" height="600" width="800" x="0" y="0"/><g class="plot" transform="translate(42, 46)"><rect class="background" height="462.02943725152284" width="738.0" x="0" y="0"/><g class="axis y always_show"><g class="guides"><path class="axis major line" d="M0.000000 453.144256 h738.000000"/><text class="major" x="-5" y="456.6442557659166">0</text><title>0</title></g><g class="guides"><path class="guide line" d="M0.000000 383.368997 h738.000000"/><text class="" x="-5" y="386.86899673021526">10</text><title>10</title></g><g class="guides"><path class="guide line" d="M0.000000 313.593738 h738.000000"/><text class="" x="-5" y="317.09373769451395">20</text><title>20</title></g><g class="guides"><path class="guide line" d="M0.000000 243.818479 h738.000000"/><text class="" x="-5" y="247.31847865881258">30</text><title>30</title></g><g class="guides"><path class="guide line" d="M0.000000 174.043220 h738.000000"/><text class="" x="-5" y="177.5432196231112">40</text><title>40</title></g><g class="guides"><path class="major guide line" d="M0.000000 104.267961 h738.000000"/><text class="major" x="-5" y="107.76796058740985">50</text><title>50</title></g><g class="guides"><path class="guide line" d="M0.000000 34.492702 h738.000000"/><text class="" x="-5" y="37.992701551708535">60</text><title>60</title></g></g><g class="axis x"><g class="guides"><path class="major line" d="M14.192308 0.000000 v462.029437"/><text class="major" x="14.192307692307692" y="477.02943725152284" transform="rotate(45 14.192308 477.029437)">2009</text></g><g class="guides"><path class="major guide line" d="M52.758361 0.000000 v462.029437"/><text class="major" x="52.758361204013376" y="477.02943725152284" transform="rotate(45 52.758361 477.029437)">2015</text></g><g class="guides"><path class="major guide line" d="M160.743311 0.000000 v462.029437"/><text class="major" x="160.7433110367893" y="477.02943725152284" transform="rotate(45 160.743311 477.029437)">2016</text></g><g class="guides"><path class="major guide line" d="M291.867893 0.000000 v462.029437"/><text class="major" x="291.8678929765886" y="477.02943725152284" transform="rotate(45 291.867893 477.029437)">2017</text></g><g class="guides"><path class="major guide line" d="M407.566054 0.000000 v462.029437"/><text class="major" x="407.56605351170566" y="477.02943725152284" transform="rotate(45 407.566054 477.029437)">2018</text></g><g class="guides"><path class="major guide line" d="M584.969900 0.000000 v462.029437"/><text class="major" x="584.9698996655519" y="477.02943725152284" transform="rotate(45 584.969900 477.029437)">2019</text></g></g><g class="series serie-0 color-0"><path class="line reactive nofill" d="M14.192308 231.258932 L21.905518 230.491404 29.618729 232.305561 37.331940 233.491740 45.045151 234.677920 52.758361 236.073425 60.471572 232.514887 68.184783 236.143200 75.897993 238.306233 83.611204 240.608817 91.324415 239.771514 99.037625 236.282751 106.750836 236.980503 114.464047 235.864099 122.177258 239.352862 129.890468 241.236794 137.603679 244.586007 145.316890 244.725557 153.030100 247.586343 160.743311 246.958365 168.456522 249.400499 176.169732 250.237802 183.882943 251.144881 191.596154 249.958701 199.309365 251.772858 207.022575 253.935891 214.735786 252.540386 222.448997 256.168700 230.162207 256.238475 237.875418 255.261621 245.588629 254.842970 253.301839 256.308250 261.015050 257.424654 268.728261 254.912745 276.441472 250.307578 284.154682 249.958701 291.867893 244.376681 299.581104 248.144545 307.294314 249.191174 315.007525 248.772522 322.720736 246.818815 330.433946 236.701402 338.147157 239.841289 345.860368 240.469266 353.573579 244.097580 361.286789 242.911400 369.000000 235.445448 376.713211 237.608481 384.426421 234.608144 392.139632 228.398146 399.852843 232.026460 407.566054 233.142864 415.279264 234.189493 422.992475 235.166347 430.705686 233.840617 438.418896 228.258596 446.132107 231.119382 453.845318 234.049942 461.558528 238.096907 469.271739 234.468594 476.984950 244.237130 484.698161 237.538705 492.411371 239.003986 500.124582 235.166347 507.837793 231.328707 515.551003 216.955004 523.264214 218.001633 530.977425 217.652757 538.690635 223.304553 546.403846 217.373655 554.117057 205.232760 561.830268 208.721523 569.543478 180.741644 577.256689 179.904341 584.969900 183.672205 592.683110 169.717154 600.396321 165.321312 608.109532 108.942903 615.822742 97.778861 623.535953 99.313917 631.249164 115.571553 638.962375 141.807050 646.675585 119.478967 654.388796 110.547734 662.102007 140.551095 669.815217 155.413225 677.528428 202.720851 685.241639 154.296821 692.954849 83.335383 700.668060 168.810075 708.381271 238.585334 716.094482 236.840953 723.807692 181.020746"/></g><g class="series serie-1 color-1"><path class="line reactive nofill" d="M14.192308 453.144256 L21.905518 341.503841 29.618729 83.335383 37.331940 72.869094 45.045151 71.682915 52.758361 8.885181 60.471572 207.953996 68.184783 136.155254 75.897993 112.989868 83.611204 92.615492 91.324415 129.666155 99.037625 188.486698 106.750836 185.835238 114.464047 199.650740 122.177258 175.229399 129.890468 162.041875 137.603679 138.736939 145.316890 143.551431 153.030100 124.851662 160.743311 144.877161 168.456522 131.550087 176.169732 132.457165 183.882943 132.736266 191.596154 147.179745 199.309365 143.272330 207.022575 133.992221 214.735786 147.807722 222.448997 133.364244 230.162207 141.179073 237.875418 151.436036 245.588629 158.483337 253.301839 156.808731 261.015050 158.971764 268.728261 172.508164 276.441472 189.882203 284.154682 193.161641 291.867893 207.674894 299.581104 200.836919 307.294314 199.929841 315.007525 202.441750 322.720736 206.418940 330.433946 223.792979 338.147157 219.815790 345.860368 219.536689 353.573579 215.001297 361.286789 217.303880 369.000000 226.863091 376.713211 224.700058 384.426421 228.049270 392.139632 233.840617 399.852843 230.630955 407.566054 229.654101 415.279264 228.886573 422.992475 228.328371 430.705686 229.444775 438.418896 233.282415 446.132107 231.398483 453.845318 229.514551 461.558528 227.002641 469.271739 229.375000 476.984950 223.653429 484.698161 227.909720 492.411371 227.351518 500.124582 229.444775 507.837793 231.258932 515.551003 236.631627 523.264214 235.933874 530.977425 235.864099 538.690635 233.840617 546.403846 235.445448 554.117057 238.166683 561.830268 237.259604 569.543478 242.492749 577.256689 242.143872 584.969900 240.887918 592.683110 241.864771 600.396321 242.004322 608.109532 245.632635 615.822742 245.772186 623.535953 245.632635 631.249164 242.841625 638.962375 240.190165 646.675585 240.608817 654.388796 240.329716 662.102007 238.096907 669.815217 236.352526 677.528428 233.212639 685.241639 234.677920 692.954849 235.515223 700.668060 233.073089 708.381271 231.049606 716.094482 231.189157 723.807692 233.212639"/></g><g class="series serie-2 color-2"><path class="line reactive nofill" d="M14.192308 231.258932 L21.905518 231.258932 29.618729 231.258932 37.331940 231.258932 45.045151 231.258932 52.758361 231.258932 60.471572 231.258932 68.184783 231.258932 75.897993 231.258932 83.611204 231.258932 91.324415 231.258932 99.037625 231.258932 106.750836 231.258932 114.464047 231.258932 122.177258 231.258932 129.890468 231.258932 137.603679 231.258932 145.316890 231.258932 153.030100 231.258932 160.743311 231.258932 168.456522 231.258932 176.169732 231.258932 183.882943 231.258932 191.596154 231.258932 199.309365 231.258932 207.022575 231.258932 214.735786 231.258932 222.448997 231.258932 230.162207 231.258932 237.875418 231.258932 245.588629 231.258932 253.301839 231.258932 261.015050 231.258932 268.728261 231.258932 276.441472 231.258932 284.154682 231.258932 291.867893 231.258932 299.581104 231.258932 307.294314 231.258932 315.007525 231.258932 322.720736 231.258932 330.433946 231.258932 338.147157 231.258932 345.860368 231.258932 353.573579 231.258932 361.286789 231.258932 369.000000 231.258932 376.713211 231.258932 384.426421 231.258932 392.139632 231.258932 399.852843 231.258932 407.566054 231.258932 415.279264 231.258932 422.992475 231.258932 430.705686 231.258932 438.418896 231.258932 446.132107 231.258932 453.845318 231.258932 461.558528 231.258932 469.271739 231.258932 476.984950 231.258932 484.698161 231.258932 492.411371 231.258932 500.124582 231.258932 507.837793 231.258932 515.551003 231.258932 523.264214 231.258932 530.977425 231.258932 538.690635 231.258932 546.403846 231.258932 554.117057 231.258932 561.830268 231.258932 569.543478 231.258932 577.256689 231.258932 584.969900 231.258932 592.683110 231.258932 600.396321 231.258932 608.109532 231.258932 615.822742 231.258932 623.535953 231.258932 631.249164 231.258932 638.962375 231.258932 646.675585 231.258932 654.388796 231.258932 662.102007 231.258932 669.815217 231.258932 677.528428 231.258932 685.241639 231.258932 692.954849 231.258932 700.668060 231.258932 708.381271 231.258932 716.094482 231.258932 723.807692 231.258932"/></g></g><g class="titles"><text class="title plot_title" x="400.0" y="26">AU Rashid: Future and Past Averages in ODIs</text></g><g class="plot overlay" transform="translate(42, 46)"><g class="series serie-0 color-0"><g class="dots"><desc class="label">143 wickets in 93 innings (808.3 overs)</desc><circle class="dot reactive tooltip-trigger" cx="14.192307692307692" cy="231.25893203238635" r="2.5"/><desc class="value">31.8</desc><desc class="x top">14.192307692307692</desc><desc class="y top">231.25893203238635</desc><desc class="x_label">2009</desc></g><g class="dots"><desc class="label">140 wickets in 88 innings (774.3 overs)</desc><circle class="dot reactive tooltip-trigger" cx="52.758361204013376" cy="236.07342490584972" r="2.5"/><desc class="value">31.11</desc><desc class="x top">52.758361204013376</desc><desc class="y top">236.07342490584972</desc><desc class="x_label">2015</desc></g><g class="dots"><desc class="label">121 wickets in 74 innings (646.3 overs)</desc><circle class="dot reactive tooltip-trigger" cx="160.7433110367893" cy="246.95836531541914" r="2.5"/><desc class="value">29.55</desc><desc class="x top">160.7433110367893</desc><desc class="y top">246.95836531541914</desc><desc class="x_label">2016</desc></g><g class="dots"><desc class="label">92 wickets in 57 innings (488.1 overs)</desc><circle class="dot reactive tooltip-trigger" cx="291.8678929765886" cy="244.3766807310982" r="2.5"/><desc class="value">29.92</desc><desc class="x top">291.8678929765886</desc><desc class="y top">244.3766807310982</desc><desc class="x_label">2017</desc></g><g class="dots"><desc class="label">66 wickets in 42 innings (364.5 overs)</desc><circle class="dot reactive tooltip-trigger" cx="407.56605351170566" cy="233.14286402635025" r="2.5"/><desc class="value">31.53</desc><desc class="x left top">407.56605351170566</desc><desc class="y left top">233.14286402635025</desc><desc class="x_label">2018</desc></g><g class="dots"><desc class="label">24 wickets in 19 innings (151.5 overs)</desc><circle class="dot reactive tooltip-trigger" cx="584.9698996655519" cy="183.672205370038" r="2.5"/><desc class="value">38.62</desc><desc class="x left">584.9698996655519</desc><desc class="y left">183.672205370038</desc><desc class="x_label">2019</desc></g></g><g class="series serie-1 color-1"><g class="dots"><desc class="label">0 wickets over 0 innings</desc><circle class="dot reactive tooltip-trigger" cx="14.192307692307692" cy="453.1442557659166" r="2.5"/><desc class="value">0</desc><desc class="x top">14.192307692307692</desc><desc class="y top">453.1442557659166</desc><desc class="x_label">2009</desc></g><g class="dots"><desc class="label">3 wickets in 5 innings (34.0 overs)</desc><circle class="dot reactive tooltip-trigger" cx="52.758361204013376" cy="8.885181485606154" r="2.5"/><desc class="value">63.67</desc><desc class="x ">52.758361204013376</desc><desc class="y ">8.885181485606154</desc><desc class="x_label">2015</desc></g><g class="dots"><desc class="label">22 wickets in 19 innings (162.0 overs)</desc><circle class="dot reactive tooltip-trigger" cx="160.7433110367893" cy="144.87716134618807" r="2.5"/><desc class="value">44.18</desc><desc class="x ">160.7433110367893</desc><desc class="y ">144.87716134618807</desc><desc class="x_label">2016</desc></g><g class="dots"><desc class="label">51 wickets in 36 innings (320.2 overs)</desc><circle class="dot reactive tooltip-trigger" cx="291.8678929765886" cy="207.6748944783193" r="2.5"/><desc class="value">35.18</desc><desc class="x ">291.8678929765886</desc><desc class="y ">207.6748944783193</desc><desc class="x_label">2017</desc></g><g class="dots"><desc class="label">77 wickets in 51 innings (443.4 overs)</desc><circle class="dot reactive tooltip-trigger" cx="407.56605351170566" cy="229.65410107456518" r="2.5"/><desc class="value">32.03</desc><desc class="x left">407.56605351170566</desc><desc class="y left">229.65410107456518</desc><desc class="x_label">2018</desc></g><g class="dots"><desc class="label">119 wickets in 74 innings (656.4 overs)</desc><circle class="dot reactive tooltip-trigger" cx="584.9698996655519" cy="240.88791777931314" r="2.5"/><desc class="value">30.42</desc><desc class="x left top">584.9698996655519</desc><desc class="y left top">240.88791777931314</desc><desc class="x_label">2019</desc></g></g><g class="series serie-2 color-2"/></g><g class="plot text-overlay" transform="translate(42, 46)"><g class="series serie-0 color-0"/><g class="series serie-1 color-1"/><g class="series serie-2 color-2"/></g><g class="plot tooltip-overlay" transform="translate(42, 46)"><g class="tooltip" style="opacity: 0" transform="translate(0 0)"><rect class="tooltip-box" height="0" rx="10" ry="10" width="0"/><g class="text"/></g></g><g class="legends" transform="translate(52, 545)"><g class="legend reactive activate-serie" id="activate-serie-0"><rect class="color-0 reactive" height="12" width="12" x="0.0" y="1.0"/><text x="17.0" y="11.2">Future Average</text></g><g class="legend reactive activate-serie" id="activate-serie-1"><rect class="color-1 reactive" height="12" width="12" x="369.0" y="1.0"/><text x="386.0" y="11.2">Past Average</text></g><g class="legend reactive activate-serie" id="activate-serie-2"><rect class="color-2 reactive" height="12" width="12" x="0.0" y="22.0"/><text x="17.0" y="32.2">Career Average</text></g></g></g></svg>