<?xml version='1.0' encoding='utf-8'?>
<svg xmlns:xlink="http://www.w3.org/1999/xlink" xmlns="http://www.w3.org/2000/svg" id="chart-c0c1b002-d6d6-42c6-b6a4-6ae1c3856f79" class="pygal-chart" viewBox="0 0 800 600"><!--Generated with pygal 2.4.0 (lxml) ©Kozea 2012-2016 on 2019-08-04--><!--http://pygal.org--><!--http://github.com/Kozea/pygal--><defs><style type="text/css">#chart-c0c1b002-d6d6-42c6-b6a4-6ae1c3856f79{-webkit-user-select:none;-webkit-font-smoothing:antialiased;font-family:Consolas,"Liberation Mono",Menlo,Courier,monospace}#chart-c0c1b002-d6d6-42c6-b6a4-6ae1c3856f79 .title{font-family:Consolas,"Liberation Mono",Menlo,Courier,monospace;font-size:16px}#chart-c0c1b002-d6d6-42c6-b6a4-6ae1c3856f79 .legends .legend text{font-family:Consolas,"Liberation Mono",Menlo,Courier,monospace;font-size:14px}#chart-c0c1b002-d6d6-42c6-b6a4-6ae1c3856f79 .axis text{font-family:Consolas,"Liberation Mono",Menlo,Courier,monospace;font-size:10px}#chart-c0c1b002-d6d6-42c6-b6a4-6ae1c3856f79 .axis text.major{font-family:Consolas,"Liberation Mono",Menlo,Courier,monospace;font-size:10px}#chart-c0c1b002-d6d6-42c6-b6a4-6ae1c3856f79 .text-overlay text.value{font-family:Consolas,"Liberation Mono",Menlo,Courier,monospace;font-size:16px}#chart-c0c1b002-d6d6-42c6-b6a4-6ae1c3856f79 .text-overlay text.label{font-family:Consolas,"Liberation Mono",Menlo,Courier,monospace;font-size:10px}#chart-c0c1b002-d6d6-42c6-b6a4-6ae1c3856f79 .tooltip{font-family:Consolas,"Liberation Mono",Menlo,Courier,monospace;font-size:14px}#chart-c0c1b002-d6d6-42c6-b6a4-6ae1c3856f79 text.no_data{font-family:Consolas,"Liberation Mono",Menlo,Courier,monospace;font-size:64px}
#chart-c0c1b002-d6d6-42c6-b6a4-6ae1c3856f79{background-color:rgba(249,249,249,1)}#chart-c0c1b002-d6d6-42c6-b6a4-6ae1c3856f79 path,#chart-c0c1b002-d6d6-42c6-b6a4-6ae1c3856f79 line,#chart-c0c1b002-d6d6-42c6-b6a4-6ae1c3856f79 rect,#chart-c0c1b002-d6d6-42c6-b6a4-6ae1c3856f79 circle{-webkit-transition:150ms;-moz-transition:150ms;transition:150ms}#chart-c0c1b002-d6d6-42c6-b6a4-6ae1c3856f79 .graph &gt; .background{fill:rgba(249,249,249,1)}#chart-c0c1b002-d6d6-42c6-b6a4-6ae1c3856f79 .plot &gt; .background{fill:rgba(255,255,255,1)}#chart-c0c1b002-d6d6-42c6-b6a4-6ae1c3856f79 .graph{fill:rgba(0,0,0,.87)}#chart-c0c1b002-d6d6-42c6-b6a4-6ae1c3856f79 text.no_data{fill:rgba(0,0,0,1)}#chart-c0c1b002-d6d6-42c6-b6a4-6ae1c3856f79 .title{fill:rgba(0,0,0,1)}#chart-c0c1b002-d6d6-42c6-b6a4-6ae1c3856f79 .legends .legend text{fill:rgba(0,0,0,.87)}#chart-c0c1b002-d6d6-42c6-b6a4-6ae1c3856f79 .legends .legend:hover text{fill:rgba(0,0,0,1)}#chart-c0c1b002-d6d6-42c6-b6a4-6ae1c3856f79 .axis .line{stroke:rgba(0,0,0,1)}#chart-c0c1b002-d6d6-42c6-b6a4-6ae1c3856f79 .axis .guide.line{stroke:rgba(0,0,0,.54)}#chart-c0c1b002-d6d6-42c6-b6a4-6ae1c3856f79 .axis .major.line{stroke:rgba(0,0,0,.87)}#chart-c0c1b002-d6d6-42c6-b6a4-6ae1c3856f79 .axis text.major{fill:rgba(0,0,0,1)}#chart-c0c1b002-d6d6-42c6-b6a4-6ae1c3856f79 .axis.y .guides:hover .guide.line,#chart-c0c1b002-d6d6-42c6-b6a4-6ae1c3856f79 .line-graph .axis.x .guides:hover .guide.line,#chart-c0c1b002-d6d6-42c6-b6a4-6ae1c3856f79 .stackedline-graph .axis.x .guides:hover .guide.line,#chart-c0c1b002-d6d6-42c6-b6a4-6ae1c3856f79 .xy-graph .axis.x .guides:hover .guide.line{stroke:rgba(0,0,0,1)}#chart-c0c1b002-d6d6-42c6-b6a4-6ae1c3856f79 .axis .guides:hover text{fill:rgba(0,0,0,1)}#chart-c0c1b002-d6d6-42c6-b6a4-6ae1c3856f79 .reactive{fill-opacity:.7;stroke-opacity:.8}#chart-c0c1b002-d6d6-42c6-b6a4-6ae1c3856f79 .ci{stroke:rgba(0,0,0,.87)}#chart-c0c1b002-d6d6-42c6-b6a4-6ae1c3856f79 .reactive.active,#chart-c0c1b002-d6d6-42c6-b6a4-6ae1c3856f79 .active .reactive{fill-opacity:.8;stroke-opacity:.9;stroke-width:4}#chart-c0c1b002-d6d6-42c6-b6a4-6ae1c3856f79 .ci .reactive.active{stroke-width:1.5}#chart-c0c1b002-d6d6-42c6-b6a4-6ae1c3856f79 .series text{fill:rgba(0,0,0,1)}#chart-c0c1b002-d6d6-42c6-b6a4-6ae1c3856f79 .tooltip rect{fill:rgba(255,255,255,1);stroke:rgba(0,0,0,1);-webkit-transition:opacity 150ms;-moz-transition:opacity 150ms;transition:opacity 150ms}#chart-c0c1b002-d6d6-42c6-b6a4-6ae1c3856f79 .tooltip .label{fill:rgba(0,0,0,.87)}#chart-c0c1b002-d6d6-42c6-b6a4-6ae1c3856f79 .tooltip .label{fill:rgba(0,0,0,.87)}#chart-c0c1b002-d6d6-42c6-b6a4-6ae1c3856f79 .tooltip .legend{font-size:.8em;fill:rgba(0,0,0,.54)}#chart-c0c1b002-d6d6-42c6-b6a4-6ae1c3856f79 .tooltip .x_label{font-size:.6em;fill:rgba(0,0,0,1)}#chart-c0c1b002-d6d6-42c6-b6a4-6ae1c3856f79 .tooltip .xlink{font-size:.5em;text-decoration:underline}#chart-c0c1b002-d6d6-42c6-b6a4-6ae1c3856f79 .tooltip .value{font-size:1.5em}#chart-c0c1b002-d6d6-42c6-b6a4-6ae1c3856f79 .bound{font-size:.5em}#chart-c0c1b002-d6d6-42c6-b6a4-6ae1c3856f79 .max-value{font-size:.75em;fill:rgba(0,0,0,.54)}#chart-c0c1b002-d6d6-42c6-b6a4-6ae1c3856f79 .map-element{fill:rgba(255,255,255,1);stroke:rgba(0,0,0,.54) !important}#chart-c0c1b002-d6d6-42c6-b6a4-6ae1c3856f79 .map-element .reactive{fill-opacity:inherit;stroke-opacity:inherit}#chart-c0c1b002-d6d6-42c6-b6a4-6ae1c3856f79 .color-0,#chart-c0c1b002-d6d6-42c6-b6a4-6ae1c3856f79 .color-0 a:visited{stroke:red;fill:red}#chart-c0c1b002-d6d6-42c6-b6a4-6ae1c3856f79 .color-1,#chart-c0c1b002-d6d6-42c6-b6a4-6ae1c3856f79 .color-1 a:visited{stroke:blue;fill:blue}#chart-c0c1b002-d6d6-42c6-b6a4-6ae1c3856f79 .color-2,#chart-c0c1b002-d6d6-42c6-b6a4-6ae1c3856f79 .color-2 a:visited{stroke:green;fill:green}#chart-c0c1b002-d6d6-42c6-b6a4-6ae1c3856f79 .text-overlay .color-0 text{fill:white}#chart-c0c1b002-d6d6-42c6-b6a4-6ae1c3856f79 .text-overlay .color-1 text{fill:white}#chart-c0c1b002-d6d6-42c6-b6a4-6ae1c3856f79 .text-overlay .color-2 text{fill:white}
#chart-c0c1b002-d6d6-42c6-b6a4-6ae1c3856f79 text.no_data{text-anchor:middle}#chart-c0c1b002-d6d6-42c6-b6a4-6ae1c3856f79 .guide.line{fill:none}#chart-c0c1b002-d6d6-42c6-b6a4-6ae1c3856f79 .centered{text-anchor:middle}#chart-c0c1b002-d6d6-42c6-b6a4-6ae1c3856f79 .title{text-anchor:middle}#chart-c0c1b002-d6d6-42c6-b6a4-6ae1c3856f79 .legends .legend text{fill-opacity:1}#chart-c0c1b002-d6d6-42c6-b6a4-6ae1c3856f79 .axis.x text{text-anchor:middle}#chart-c0c1b002-d6d6-42c6-b6a4-6ae1c3856f79 .axis.x:not(.web) text[transform]{text-anchor:start}#chart-c0c1b002-d6d6-42c6-b6a4-6ae1c3856f79 .axis.x:not(.web) text[transform].backwards{text-anchor:end}#chart-c0c1b002-d6d6-42c6-b6a4-6ae1c3856f79 .axis.y text{text-anchor:end}#chart-c0c1b002-d6d6-42c6-b6a4-6ae1c3856f79 .axis.y text[transform].backwards{text-anchor:start}#chart-c0c1b002-d6d6-42c6-b6a4-6ae1c3856f79 .axis.y2 text{text-anchor:start}#chart-c0c1b002-d6d6-42c6-b6a4-6ae1c3856f79 .axis.y2 text[transform].backwards{text-anchor:end}#chart-c0c1b002-d6d6-42c6-b6a4-6ae1c3856f79 .axis .guide.line{stroke-dasharray:4,4}#chart-c0c1b002-d6d6-42c6-b6a4-6ae1c3856f79 .axis .major.guide.line{stroke-dasharray:6,6}#chart-c0c1b002-d6d6-42c6-b6a4-6ae1c3856f79 .horizontal .axis.y .guide.line,#chart-c0c1b002-d6d6-42c6-b6a4-6ae1c3856f79 .horizontal .axis.y2 .guide.line,#chart-c0c1b002-d6d6-42c6-b6a4-6ae1c3856f79 .vertical .axis.x .guide.line{opacity:0}#chart-c0c1b002-d6d6-42c6-b6a4-6ae1c3856f79 .horizontal .axis.always_show .guide.line,#chart-c0c1b002-d6d6-42c6-b6a4-6ae1c3856f79 .vertical .axis.always_show .guide.line{opacity:1 !important}#chart-c0c1b002-d6d6-42c6-b6a4-6ae1c3856f79 .axis.y .guides:hover .guide.line,#chart-c0c1b002-d6d6-42c6-b6a4-6ae1c3856f79 .axis.y2 .guides:hover .guide.line,#chart-c0c1b002-d6d6-42c6-b6a4-6ae1c3856f79 .axis.x .guides:hover .guide.line{opacity:1}#chart-c0c1b002-d6d6-42c6-b6a4-6ae1c3856f79 .axis .guides:hover text{opacity:1}#chart-c0c1b002-d6d6-42c6-b6a4-6ae1c3856f79 .nofill{fill:none}#chart-c0c1b002-d6d6-42c6-b6a4-6ae1c3856f79 .subtle-fill{fill-opacity:.2}#chart-c0c1b002-d6d6-42c6-b6a4-6ae1c3856f79 .dot{stroke-width:1px;fill-opacity:1}#chart-c0c1b002-d6d6-42c6-b6a4-6ae1c3856f79 .dot.active{stroke-width:5px}#chart-c0c1b002-d6d6-42c6-b6a4-6ae1c3856f79 .dot.negative{fill:transparent}#chart-c0c1b002-d6d6-42c6-b6a4-6ae1c3856f79 text,#chart-c0c1b002-d6d6-42c6-b6a4-6ae1c3856f79 tspan{stroke:none !important}#chart-c0c1b002-d6d6-42c6-b6a4-6ae1c3856f79 .series text.active{opacity:1}#chart-c0c1b002-d6d6-42c6-b6a4-6ae1c3856f79 .tooltip rect{fill-opacity:.95;stroke-width:.5}#chart-c0c1b002-d6d6-42c6-b6a4-6ae1c3856f79 .tooltip text{fill-opacity:1}#chart-c0c1b002-d6d6-42c6-b6a4-6ae1c3856f79 .showable{visibility:hidden}#chart-c0c1b002-d6d6-42c6-b6a4-6ae1c3856f79 .showable.shown{visibility:visible}#chart-c0c1b002-d6d6-42c6-b6a4-6ae1c3856f79 .gauge-background{fill:rgba(229,229,229,1);stroke:none}#chart-c0c1b002-d6d6-42c6-b6a4-6ae1c3856f79 .bg-lines{stroke:rgba(249,249,249,1);stroke-width:2px}</style><script type="text/javascript">window.pygal = window.pygal || {};window.pygal.config = window.pygal.config || {};window.pygal.config['c0c1b002-d6d6-42c6-b6a4-6ae1c3856f79'] = {"allow_interruptions": false, "box_mode": "extremes", "classes": ["pygal-chart"], "css": ["file://style.css", "file://graph.css"], "defs": [], "disable_xml_declaration": false, "dots_size": 2.5, "dynamic_print_values": false, "explicit_size": false, "fill": false, "force_uri_protocol": "https", "formatter": null, "half_pie": false, "height": 600, "include_x_axis": false, "inner_radius": 0, "interpolate": null, "interpolation_parameters": {}, "interpolation_precision": 250, "inverse_y_axis": false, "js": ["//kozea.github.io/pygal.js/2.0.x/pygal-tooltips.min.js"], "legend_at_bottom": true, "legend_at_bottom_columns": null, "legend_box_size": 12, "logarithmic": false, "margin": 20, "margin_bottom": null, "margin_left": null, "margin_right": null, "margin_top": null, "max_scale": 16, "min_scale": 4, "missing_value_fill_truncation": "x", "no_data_text": "No data", "no_prefix": false, "order_min": null, "pretty_print": false, "print_labels": false, "print_values": false, "print_values_position": "center", "print_zeroes": true, "range": null, "rounded_bars": null, "secondary_range": null, "show_dots": true, "show_legend": true, "show_minor_x_labels": false, "show_minor_y_labels": true, "show_only_major_dots": false, "show_x_guides": false, "show_x_labels": true, "show_y_guides": true, "show_y_labels": true, "spacing": 10, "stack_from_top": false, "strict": false, "stroke": true, "stroke_style": null, "style": {"background": "rgba(249, 249, 249, 1)", "ci_colors": [], "colors": ["red", "blue", "green", "#a3a3a3"], "font_family": "Consolas, \"Liberation Mono\", Menlo, Courier, monospace", "foreground": "rgba(0, 0, 0, .87)", "foreground_strong": "rgba(0, 0, 0, 1)", "foreground_subtle": "rgba(0, 0, 0, .54)", "guide_stroke_dasharray": "4,4", "label_font_family": "Consolas, \"Liberation Mono\", Menlo, Courier, monospace", "label_font_size": 10, "legend_font_family": "Consolas, \"Liberation Mono\", Menlo, Courier, monospace", "legend_font_size": 14, "major_guide_stroke_dasharray": "6,6", "major_label_font_family": "Consolas, \"Liberation Mono\", Menlo, Courier, monospace", "major_label_font_size": 10, "no_data_font_family": "Consolas, \"Liberation Mono\", Menlo, Courier, monospace", "no_data_font_size": 64, "opacity": ".7", "opacity_hover": ".8", "plot_background": "rgba(255, 255, 255, 1)", "stroke_opacity": ".8", "stroke_opacity_hover": ".9", "title_font_family": "Consolas, \"Liberation Mono\", Menlo, Courier, monospace", "title_font_size": 16, "tooltip_font_family": "Consolas, \"Liberation Mono\", Menlo, Courier, monospace", "tooltip_font_size": 14, "transition": "150ms", "value_background": "rgba(229, 229, 229, 1)", "value_colors": [], "value_font_family": "Consolas, \"Liberation Mono\", Menlo, Courier, monospace", "value_font_size": 16, "value_label_font_family": "Consolas, \"Liberation Mono\", Menlo, Courier, monospace", "value_label_font_size": 10}, "title": "B Kumar: Future and Past Averages in ODIs", "tooltip_border_radius": 10, "tooltip_fancy_mode": true, "truncate_label": null, "truncate_legend": null, "width": 800, "x_label_rotation": 45, "x_labels": ["2013", "0", "0", "0", "0", "0", "0", "0", "0", "0", "0", "0", "0", "0", "0", "0", "0", "0", "0", "0", "0", "0", "0", "0", "0", "0", "2014", "0", "0", "0", "0", "0", "0", "0", "0", "0", "0", "0", "0", "0", "0", "0", "2015", "0", "0", "0", "0", "0", "0", "0", "0", "0", "0", "0", "0", "2016", "0", "2017", "0", "0", "0", "0", "0", "0", "0", "0", "0", "0", "0", "0", "0", "0", "0", "0", "0", "0", "0", "0", "0", "0", "2018", "0", "0", "0", "0", "0", "0", "0", "0", "0", "0", "0", "0", "0", "2019", "0", "0", "0", "0", "0", "0", "0", "0", "0", "0", "0", "0", "0", "0", "0"], "x_labels_major": ["2013", "2014", "2015", "2016", "2017", "2018", "2019"], "x_labels_major_count": null, "x_labels_major_every": null, "x_title": null, "xrange": null, "y_label_rotation": 0, "y_labels": null, "y_labels_major": null, "y_labels_major_count": null, "y_labels_major_every": null, "y_title": null, "zero": 60, "legends": ["Future Average", "Past Average", "Career Average"]}</script><script type="text/javascript" xlink:href="https://kozea.github.io/pygal.js/2.0.x/pygal-tooltips.min.js"/></defs><title>B Kumar: Future and Past Averages in ODIs</title><g class="graph line-graph vertical"><rect class="background" height="600" width="800" x="0" y="0"/><g class="plot" transform="translate(42, 46)"><rect class="background" height="462.02943725152284" width="738.0" x="0" y="0"/><g class="axis y always_show"><g class="guides"><path class="axis major line" d="M0.000000 453.144256 h738.000000"/><text class="major" x="-5" y="456.6442557659166">0</text><title>0</title></g><g class="guides"><path class="guide line" d="M0.000000 408.292254 h738.000000"/><text class="" x="-5" y="411.7922543241892">4</text><title>4</title></g><g class="guides"><path class="guide line" d="M0.000000 363.440253 h738.000000"/><text class="" x="-5" y="366.9402528824617">8</text><title>8</title></g><g class="guides"><path class="guide line" d="M0.000000 318.588251 h738.000000"/><text class="" x="-5" y="322.08825144073427">12</text><title>12</title></g><g class="guides"><path class="guide line" d="M0.000000 273.736250 h738.000000"/><text class="" x="-5" y="277.23624999900676">16</text><title>16</title></g><g class="guides"><path class="major guide line" d="M0.000000 228.884249 h738.000000"/><text class="major" x="-5" y="232.38424855727936">20</text><title>20</title></g><g class="guides"><path class="guide line" d="M0.000000 184.032247 h738.000000"/><text class="" x="-5" y="187.5322471155519">24</text><title>24</title></g><g class="guides"><path class="guide line" d="M0.000000 139.180246 h738.000000"/><text class="" x="-5" y="142.6802456738244">28</text><title>28</title></g><g class="guides"><path class="guide line" d="M0.000000 94.328244 h738.000000"/><text class="" x="-5" y="97.82824423209695">32</text><title>32</title></g><g class="guides"><path class="guide line" d="M0.000000 49.476243 h738.000000"/><text class="" x="-5" y="52.976242790369554">36</text><title>36</title></g></g><g class="axis x"><g class="guides"><path class="major line" d="M14.192308 0.000000 v462.029437"/><text class="major" x="14.192307692307692" y="477.02943725152284" transform="rotate(45 14.192308 477.029437)">2013</text></g><g class="guides"><path class="major guide line" d="M183.458363 0.000000 v462.029437"/><text class="major" x="183.45836273817926" y="477.02943725152284" transform="rotate(45 183.458363 477.029437)">2014</text></g><g class="guides"><path class="major guide line" d="M287.622089 0.000000 v462.029437"/><text class="major" x="287.6220889202541" y="477.02943725152284" transform="rotate(45 287.622089 477.029437)">2015</text></g><g class="guides"><path class="major guide line" d="M372.255116 0.000000 v462.029437"/><text class="major" x="372.2551164431898" y="477.02943725152284" transform="rotate(45 372.255116 477.029437)">2016</text></g><g class="guides"><path class="major guide line" d="M385.275582 0.000000 v462.029437"/><text class="major" x="385.27558221594916" y="477.02943725152284" transform="rotate(45 385.275582 477.029437)">2017</text></g><g class="guides"><path class="major guide line" d="M535.010939 0.000000 v462.029437"/><text class="major" x="535.0109386026818" y="477.02943725152284" transform="rotate(45 535.010939 477.029437)">2018</text></g><g class="guides"><path class="major guide line" d="M626.154199 0.000000 v462.029437"/><text class="major" x="626.1541990119972" y="477.02943725152284" transform="rotate(45 626.154199 477.029437)">2019</text></g></g><g class="series serie-0 color-0"><path class="line reactive nofill" d="M14.192308 60.913503 L20.702541 56.988953 27.212773 59.343683 33.723006 55.755523 40.233239 60.464983 46.743472 53.400793 53.253705 53.849313 59.763938 56.652563 66.274171 60.913503 72.784404 58.895163 79.294637 58.558773 85.804869 53.512923 92.315102 51.718843 98.825335 53.625053 105.335568 53.737183 111.845801 45.663823 118.356034 30.974792 124.866267 25.368292 131.376500 29.853492 137.886733 35.796382 144.396965 37.141942 150.907198 37.702592 157.417431 42.972703 163.927664 45.775953 170.437897 43.981873 176.948130 44.542523 183.458363 52.391623 189.968596 52.615883 196.478829 53.400793 202.989061 54.858483 209.499294 62.259063 216.009527 63.828883 222.519760 64.501663 229.029993 69.996033 235.540226 68.426213 242.050459 71.565854 248.560692 71.005203 255.070924 72.350764 261.581157 65.510833 268.091390 66.856393 274.601623 71.790114 281.111856 75.938924 287.622089 70.332423 294.132322 71.677984 300.642555 74.032714 307.152788 72.014374 313.663020 67.641303 320.173253 72.126504 326.683486 72.350764 333.193719 56.988953 339.703952 58.783033 346.214185 68.762603 352.724418 59.119423 359.234651 69.211123 365.744884 63.604623 372.255116 75.378274 378.765349 82.330334 385.275582 93.655464 391.785815 98.813444 398.296048 108.232365 404.806281 106.886805 411.316514 110.923485 417.826747 104.083555 424.336980 102.401604 430.847212 104.756335 437.357445 94.552504 443.867678 98.140664 450.377911 104.532075 456.888144 114.848035 463.398377 122.697135 469.908610 100.495394 476.418843 99.037704 482.929076 79.414954 489.439308 91.300734 495.949541 93.206944 502.459774 98.813444 508.970007 86.142754 515.480240 101.616694 521.990473 104.419945 528.500706 106.886805 535.010939 108.008105 541.521171 119.669625 548.031404 116.417855 554.541637 128.527895 561.051870 136.489126 567.562103 149.159816 574.072336 163.624586 580.582569 178.425747 587.092802 159.700036 593.603035 143.441186 600.113267 159.475776 606.623500 171.025167 613.133733 187.284017 619.643966 189.638747 626.154199 184.817157 632.664432 192.329867 639.174665 168.894697 645.684898 156.784656 652.195131 167.437007 658.705363 162.166896 665.215596 158.354476 671.725829 137.722556 678.236062 145.571656 684.746295 179.771307 691.256528 151.514546 697.766761 137.834686 704.276994 60.689243 710.787227 78.630044 717.297459 127.967245 723.807692 292.461961"/></g><g class="series serie-1 color-1"><path class="line reactive nofill" d="M14.192308 453.144256 L20.702541 301.768751 27.212773 124.266955 33.723006 186.274847 40.233239 69.659643 46.743472 172.819247 53.253705 154.093536 59.763938 116.754245 66.274171 60.689243 72.784404 82.106074 79.294637 83.115244 85.804869 120.790925 92.315102 129.424935 98.825335 115.296555 105.335568 111.147745 111.845801 148.038516 118.356034 197.151458 124.866267 206.906768 131.376500 188.517447 137.886733 164.297366 144.396965 153.869276 150.907198 147.477866 157.417431 127.967245 163.927664 117.202765 170.437897 118.660455 176.948130 114.175255 183.458363 88.721744 189.968596 86.703404 196.478829 83.115244 202.989061 78.069394 209.499294 56.988953 216.009527 52.728013 222.519760 51.046063 229.029993 36.693422 235.540226 42.187793 242.050459 34.675082 248.560692 36.805552 255.070924 34.562952 261.581157 51.158193 268.091390 48.691333 274.601623 38.487502 281.111856 29.965622 287.622089 42.860573 294.132322 40.954363 300.642555 36.469162 307.152788 40.954363 313.663020 49.476243 320.173253 41.963533 326.683486 42.412053 333.193719 66.407873 339.703952 63.828883 346.214185 49.700503 352.724418 63.043973 359.234651 50.036893 365.744884 57.661733 372.255116 44.430393 378.765349 36.581292 385.275582 23.686342 391.785815 19.201142 398.296048 8.885181 404.806281 11.912692 411.316514 9.221571 417.826747 18.976882 424.336980 23.013562 430.847212 22.116522 437.357445 32.993132 443.867678 29.965622 450.377911 24.695512 456.888144 16.173632 463.398377 9.557962 469.908610 32.881002 476.418843 34.675082 482.929076 49.364113 489.439308 41.963533 495.949541 41.515013 502.459774 38.823892 508.970007 47.570033 515.480240 40.281582 521.990473 39.608802 528.500706 39.160282 535.010939 39.384542 541.521171 35.123602 548.031404 37.366202 554.541637 32.320352 561.051870 28.956452 567.562103 23.574212 574.072336 17.407062 580.582569 11.239912 587.092802 23.686342 593.603035 33.329522 600.113267 27.947282 606.623500 24.134862 613.133733 20.434572 619.643966 21.443742 626.154199 24.583382 632.664432 25.704682 639.174665 37.141942 645.684898 42.075663 652.195131 39.945192 658.705363 43.196963 665.215596 45.888083 671.725829 50.709673 678.236062 50.485413 684.746295 47.457903 691.256528 53.176533 697.766761 55.755523 704.276994 60.913503 710.787227 60.128593 717.297459 58.670903 723.807692 55.307003"/></g><g class="series serie-2 color-2"><path class="line reactive nofill" d="M14.192308 60.913503 L20.702541 60.913503 27.212773 60.913503 33.723006 60.913503 40.233239 60.913503 46.743472 60.913503 53.253705 60.913503 59.763938 60.913503 66.274171 60.913503 72.784404 60.913503 79.294637 60.913503 85.804869 60.913503 92.315102 60.913503 98.825335 60.913503 105.335568 60.913503 111.845801 60.913503 118.356034 60.913503 124.866267 60.913503 131.376500 60.913503 137.886733 60.913503 144.396965 60.913503 150.907198 60.913503 157.417431 60.913503 163.927664 60.913503 170.437897 60.913503 176.948130 60.913503 183.458363 60.913503 189.968596 60.913503 196.478829 60.913503 202.989061 60.913503 209.499294 60.913503 216.009527 60.913503 222.519760 60.913503 229.029993 60.913503 235.540226 60.913503 242.050459 60.913503 248.560692 60.913503 255.070924 60.913503 261.581157 60.913503 268.091390 60.913503 274.601623 60.913503 281.111856 60.913503 287.622089 60.913503 294.132322 60.913503 300.642555 60.913503 307.152788 60.913503 313.663020 60.913503 320.173253 60.913503 326.683486 60.913503 333.193719 60.913503 339.703952 60.913503 346.214185 60.913503 352.724418 60.913503 359.234651 60.913503 365.744884 60.913503 372.255116 60.913503 378.765349 60.913503 385.275582 60.913503 391.785815 60.913503 398.296048 60.913503 404.806281 60.913503 411.316514 60.913503 417.826747 60.913503 424.336980 60.913503 430.847212 60.913503 437.357445 60.913503 443.867678 60.913503 450.377911 60.913503 456.888144 60.913503 463.398377 60.913503 469.908610 60.913503 476.418843 60.913503 482.929076 60.913503 489.439308 60.913503 495.949541 60.913503 502.459774 60.913503 508.970007 60.913503 515.480240 60.913503 521.990473 60.913503 528.500706 60.913503 535.010939 60.913503 541.521171 60.913503 548.031404 60.913503 554.541637 60.913503 561.051870 60.913503 567.562103 60.913503 574.072336 60.913503 580.582569 60.913503 587.092802 60.913503 593.603035 60.913503 600.113267 60.913503 606.623500 60.913503 613.133733 60.913503 619.643966 60.913503 626.154199 60.913503 632.664432 60.913503 639.174665 60.913503 645.684898 60.913503 652.195131 60.913503 658.705363 60.913503 665.215596 60.913503 671.725829 60.913503 678.236062 60.913503 684.746295 60.913503 691.256528 60.913503 697.766761 60.913503 704.276994 60.913503 710.787227 60.913503 717.297459 60.913503 723.807692 60.913503"/></g></g><g class="titles"><text class="title plot_title" x="400.0" y="26">B Kumar: Future and Past Averages in ODIs</text></g><g class="plot overlay" transform="translate(42, 46)"><g class="series serie-0 color-0"><g class="dots"><desc class="label">128 wickets in 110 innings (891.3 overs)</desc><circle class="dot reactive tooltip-trigger" cx="14.192307692307692" cy="60.91350315801003" r="2.5"/><desc class="value">34.98</desc><desc class="x ">14.192307692307692</desc><desc class="y ">60.91350315801003</desc><desc class="x_label">2013</desc></g><g class="dots"><desc class="label">98 wickets in 84 innings (679.3 overs)</desc><circle class="dot reactive tooltip-trigger" cx="183.45836273817926" cy="52.39162288408181" r="2.5"/><desc class="value">35.74</desc><desc class="x ">183.45836273817926</desc><desc class="y ">52.39162288408181</desc><desc class="x_label">2014</desc></g><g class="dots"><desc class="label">84 wickets in 68 innings (542.1 overs)</desc><circle class="dot reactive tooltip-trigger" cx="287.6220889202541" cy="70.33242346077276" r="2.5"/><desc class="value">34.14</desc><desc class="x ">287.6220889202541</desc><desc class="y ">70.33242346077276</desc><desc class="x_label">2015</desc></g><g class="dots"><desc class="label">68 wickets in 55 innings (438.4 overs)</desc><circle class="dot reactive tooltip-trigger" cx="372.2551164431898" cy="75.37827362296719" r="2.5"/><desc class="value">33.69</desc><desc class="x left">372.2551164431898</desc><desc class="y left">75.37827362296719</desc><desc class="x_label">2016</desc></g><g class="dots"><desc class="label">68 wickets in 53 innings (421.4 overs)</desc><circle class="dot reactive tooltip-trigger" cx="385.27558221594916" cy="93.65546421047105" r="2.5"/><desc class="value">32.06</desc><desc class="x left">385.27558221594916</desc><desc class="y left">93.65546421047105</desc><desc class="x_label">2017</desc></g><g class="dots"><desc class="label">40 wickets in 30 innings (233.5 overs)</desc><circle class="dot reactive tooltip-trigger" cx="535.0109386026818" cy="108.00810467182384" r="2.5"/><desc class="value">30.78</desc><desc class="x left">535.0109386026818</desc><desc class="y left">108.00810467182384</desc><desc class="x_label">2018</desc></g><g class="dots"><desc class="label">29 wickets in 16 innings (132.5 overs)</desc><circle class="dot reactive tooltip-trigger" cx="626.1541990119972" cy="184.81715714078217" r="2.5"/><desc class="value">23.93</desc><desc class="x left">626.1541990119972</desc><desc class="y left">184.81715714078217</desc><desc class="x_label">2019</desc></g></g><g class="series serie-1 color-1"><g class="dots"><desc class="label">0 wickets over 0 innings</desc><circle class="dot reactive tooltip-trigger" cx="14.192307692307692" cy="453.1442557659166" r="2.5"/><desc class="value">0</desc><desc class="x top">14.192307692307692</desc><desc class="y top">453.1442557659166</desc><desc class="x_label">2013</desc></g><g class="dots"><desc class="label">30 wickets in 26 innings (212.0 overs)</desc><circle class="dot reactive tooltip-trigger" cx="183.45836273817926" cy="88.72174405188105" r="2.5"/><desc class="value">32.5</desc><desc class="x ">183.45836273817926</desc><desc class="y ">88.72174405188105</desc><desc class="x_label">2014</desc></g><g class="dots"><desc class="label">44 wickets in 42 innings (349.2 overs)</desc><circle class="dot reactive tooltip-trigger" cx="287.6220889202541" cy="42.86057257771472" r="2.5"/><desc class="value">36.59</desc><desc class="x ">287.6220889202541</desc><desc class="y ">42.86057257771472</desc><desc class="x_label">2015</desc></g><g class="dots"><desc class="label">60 wickets in 55 innings (452.5 overs)</desc><circle class="dot reactive tooltip-trigger" cx="372.2551164431898" cy="44.430392628175184" r="2.5"/><desc class="value">36.45</desc><desc class="x left">372.2551164431898</desc><desc class="y left">44.430392628175184</desc><desc class="x_label">2016</desc></g><g class="dots"><desc class="label">60 wickets in 57 innings (469.5 overs)</desc><circle class="dot reactive tooltip-trigger" cx="385.27558221594916" cy="23.686341961376286" r="2.5"/><desc class="value">38.3</desc><desc class="x left">385.27558221594916</desc><desc class="y left">23.686341961376286</desc><desc class="x_label">2017</desc></g><g class="dots"><desc class="label">88 wickets in 80 innings (657.4 overs)</desc><circle class="dot reactive tooltip-trigger" cx="535.0109386026818" cy="39.38454246598093" r="2.5"/><desc class="value">36.9</desc><desc class="x left">535.0109386026818</desc><desc class="y left">39.38454246598093</desc><desc class="x_label">2018</desc></g><g class="dots"><desc class="label">99 wickets in 94 innings (758.4 overs)</desc><circle class="dot reactive tooltip-trigger" cx="626.1541990119972" cy="24.583381990210853" r="2.5"/><desc class="value">38.22</desc><desc class="x left">626.1541990119972</desc><desc class="y left">24.583381990210853</desc><desc class="x_label">2019</desc></g></g><g class="series serie-2 color-2"/></g><g class="plot text-overlay" transform="translate(42, 46)"><g class="series serie-0 color-0"/><g class="series serie-1 color-1"/><g class="series serie-2 color-2"/></g><g class="plot tooltip-overlay" transform="translate(42, 46)"><g class="tooltip" style="opacity: 0" transform="translate(0 0)"><rect class="tooltip-box" height="0" rx="10" ry="10" width="0"/><g class="text"/></g></g><g class="legends" transform="translate(52, 545)"><g class="legend reactive activate-serie" id="activate-serie-0"><rect class="color-0 reactive" height="12" width="12" x="0.0" y="1.0"/><text x="17.0" y="11.2">Future Average</text></g><g class="legend reactive activate-serie" id="activate-serie-1"><rect class="color-1 reactive" height="12" width="12" x="369.0" y="1.0"/><text x="386.0" y="11.2">Past Average</text></g><g class="legend reactive activate-serie" id="activate-serie-2"><rect class="color-2 reactive" height="12" width="12" x="0.0" y="22.0"/><text x="17.0" y="32.2">Career Average</text></g></g></g></svg>