<?xml version='1.0' encoding='utf-8'?>
<svg xmlns:xlink="http://www.w3.org/1999/xlink" xmlns="http://www.w3.org/2000/svg" id="chart-4b92536f-2340-410f-9fd1-a675534cfa94" class="pygal-chart" viewBox="0 0 800 600"><!--Generated with pygal 2.4.0 (lxml) ©Kozea 2012-2016 on 2019-08-04--><!--http://pygal.org--><!--http://github.com/Kozea/pygal--><defs><style type="text/css">#chart-4b92536f-2340-410f-9fd1-a675534cfa94{-webkit-user-select:none;-webkit-font-smoothing:antialiased;font-family:Consolas,"Liberation Mono",Menlo,Courier,monospace}#chart-4b92536f-2340-410f-9fd1-a675534cfa94 .title{font-family:Consolas,"Liberation Mono",Menlo,Courier,monospace;font-size:16px}#chart-4b92536f-2340-410f-9fd1-a675534cfa94 .legends .legend text{font-family:Consolas,"Liberation Mono",Menlo,Courier,monospace;font-size:14px}#chart-4b92536f-2340-410f-9fd1-a675534cfa94 .axis text{font-family:Consolas,"Liberation Mono",Menlo,Courier,monospace;font-size:10px}#chart-4b92536f-2340-410f-9fd1-a675534cfa94 .axis text.major{font-family:Consolas,"Liberation Mono",Menlo,Courier,monospace;font-size:10px}#chart-4b92536f-2340-410f-9fd1-a675534cfa94 .text-overlay text.value{font-family:Consolas,"Liberation Mono",Menlo,Courier,monospace;font-size:16px}#chart-4b92536f-2340-410f-9fd1-a675534cfa94 .text-overlay text.label{font-family:Consolas,"Liberation Mono",Menlo,Courier,monospace;font-size:10px}#chart-4b92536f-2340-410f-9fd1-a675534cfa94 .tooltip{font-family:Consolas,"Liberation Mono",Menlo,Courier,monospace;font-size:14px}#chart-4b92536f-2340-410f-9fd1-a675534cfa94 text.no_data{font-family:Consolas,"Liberation Mono",Menlo,Courier,monospace;font-size:64px}
#chart-4b92536f-2340-410f-9fd1-a675534cfa94{background-color:rgba(249,249,249,1)}#chart-4b92536f-2340-410f-9fd1-a675534cfa94 path,#chart-4b92536f-2340-410f-9fd1-a675534cfa94 line,#chart-4b92536f-2340-410f-9fd1-a675534cfa94 rect,#chart-4b92536f-2340-410f-9fd1-a675534cfa94 circle{-webkit-transition:150ms;-moz-transition:150ms;transition:150ms}#chart-4b92536f-2340-410f-9fd1-a675534cfa94 .graph &gt; .background{fill:rgba(249,249,249,1)}#chart-4b92536f-2340-410f-9fd1-a675534cfa94 .plot &gt; .background{fill:rgba(255,255,255,1)}#chart-4b92536f-2340-410f-9fd1-a675534cfa94 .graph{fill:rgba(0,0,0,.87)}#chart-4b92536f-2340-410f-9fd1-a675534cfa94 text.no_data{fill:rgba(0,0,0,1)}#chart-4b92536f-2340-410f-9fd1-a675534cfa94 .title{fill:rgba(0,0,0,1)}#chart-4b92536f-2340-410f-9fd1-a675534cfa94 .legends .legend text{fill:rgba(0,0,0,.87)}#chart-4b92536f-2340-410f-9fd1-a675534cfa94 .legends .legend:hover text{fill:rgba(0,0,0,1)}#chart-4b92536f-2340-410f-9fd1-a675534cfa94 .axis .line{stroke:rgba(0,0,0,1)}#chart-4b92536f-2340-410f-9fd1-a675534cfa94 .axis .guide.line{stroke:rgba(0,0,0,.54)}#chart-4b92536f-2340-410f-9fd1-a675534cfa94 .axis .major.line{stroke:rgba(0,0,0,.87)}#chart-4b92536f-2340-410f-9fd1-a675534cfa94 .axis text.major{fill:rgba(0,0,0,1)}#chart-4b92536f-2340-410f-9fd1-a675534cfa94 .axis.y .guides:hover .guide.line,#chart-4b92536f-2340-410f-9fd1-a675534cfa94 .line-graph .axis.x .guides:hover .guide.line,#chart-4b92536f-2340-410f-9fd1-a675534cfa94 .stackedline-graph .axis.x .guides:hover .guide.line,#chart-4b92536f-2340-410f-9fd1-a675534cfa94 .xy-graph .axis.x .guides:hover .guide.line{stroke:rgba(0,0,0,1)}#chart-4b92536f-2340-410f-9fd1-a675534cfa94 .axis .guides:hover text{fill:rgba(0,0,0,1)}#chart-4b92536f-2340-410f-9fd1-a675534cfa94 .reactive{fill-opacity:.7;stroke-opacity:.8}#chart-4b92536f-2340-410f-9fd1-a675534cfa94 .ci{stroke:rgba(0,0,0,.87)}#chart-4b92536f-2340-410f-9fd1-a675534cfa94 .reactive.active,#chart-4b92536f-2340-410f-9fd1-a675534cfa94 .active .reactive{fill-opacity:.8;stroke-opacity:.9;stroke-width:4}#chart-4b92536f-2340-410f-9fd1-a675534cfa94 .ci .reactive.active{stroke-width:1.5}#chart-4b92536f-2340-410f-9fd1-a675534cfa94 .series text{fill:rgba(0,0,0,1)}#chart-4b92536f-2340-410f-9fd1-a675534cfa94 .tooltip rect{fill:rgba(255,255,255,1);stroke:rgba(0,0,0,1);-webkit-transition:opacity 150ms;-moz-transition:opacity 150ms;transition:opacity 150ms}#chart-4b92536f-2340-410f-9fd1-a675534cfa94 .tooltip .label{fill:rgba(0,0,0,.87)}#chart-4b92536f-2340-410f-9fd1-a675534cfa94 .tooltip .label{fill:rgba(0,0,0,.87)}#chart-4b92536f-2340-410f-9fd1-a675534cfa94 .tooltip .legend{font-size:.8em;fill:rgba(0,0,0,.54)}#chart-4b92536f-2340-410f-9fd1-a675534cfa94 .tooltip .x_label{font-size:.6em;fill:rgba(0,0,0,1)}#chart-4b92536f-2340-410f-9fd1-a675534cfa94 .tooltip .xlink{font-size:.5em;text-decoration:underline}#chart-4b92536f-2340-410f-9fd1-a675534cfa94 .tooltip .value{font-size:1.5em}#chart-4b92536f-2340-410f-9fd1-a675534cfa94 .bound{font-size:.5em}#chart-4b92536f-2340-410f-9fd1-a675534cfa94 .max-value{font-size:.75em;fill:rgba(0,0,0,.54)}#chart-4b92536f-2340-410f-9fd1-a675534cfa94 .map-element{fill:rgba(255,255,255,1);stroke:rgba(0,0,0,.54) !important}#chart-4b92536f-2340-410f-9fd1-a675534cfa94 .map-element .reactive{fill-opacity:inherit;stroke-opacity:inherit}#chart-4b92536f-2340-410f-9fd1-a675534cfa94 .color-0,#chart-4b92536f-2340-410f-9fd1-a675534cfa94 .color-0 a:visited{stroke:red;fill:red}#chart-4b92536f-2340-410f-9fd1-a675534cfa94 .color-1,#chart-4b92536f-2340-410f-9fd1-a675534cfa94 .color-1 a:visited{stroke:blue;fill:blue}#chart-4b92536f-2340-410f-9fd1-a675534cfa94 .color-2,#chart-4b92536f-2340-410f-9fd1-a675534cfa94 .color-2 a:visited{stroke:green;fill:green}#chart-4b92536f-2340-410f-9fd1-a675534cfa94 .text-overlay .color-0 text{fill:white}#chart-4b92536f-2340-410f-9fd1-a675534cfa94 .text-overlay .color-1 text{fill:white}#chart-4b92536f-2340-410f-9fd1-a675534cfa94 .text-overlay .color-2 text{fill:white}
#chart-4b92536f-2340-410f-9fd1-a675534cfa94 text.no_data{text-anchor:middle}#chart-4b92536f-2340-410f-9fd1-a675534cfa94 .guide.line{fill:none}#chart-4b92536f-2340-410f-9fd1-a675534cfa94 .centered{text-anchor:middle}#chart-4b92536f-2340-410f-9fd1-a675534cfa94 .title{text-anchor:middle}#chart-4b92536f-2340-410f-9fd1-a675534cfa94 .legends .legend text{fill-opacity:1}#chart-4b92536f-2340-410f-9fd1-a675534cfa94 .axis.x text{text-anchor:middle}#chart-4b92536f-2340-410f-9fd1-a675534cfa94 .axis.x:not(.web) text[transform]{text-anchor:start}#chart-4b92536f-2340-410f-9fd1-a675534cfa94 .axis.x:not(.web) text[transform].backwards{text-anchor:end}#chart-4b92536f-2340-410f-9fd1-a675534cfa94 .axis.y text{text-anchor:end}#chart-4b92536f-2340-410f-9fd1-a675534cfa94 .axis.y text[transform].backwards{text-anchor:start}#chart-4b92536f-2340-410f-9fd1-a675534cfa94 .axis.y2 text{text-anchor:start}#chart-4b92536f-2340-410f-9fd1-a675534cfa94 .axis.y2 text[transform].backwards{text-anchor:end}#chart-4b92536f-2340-410f-9fd1-a675534cfa94 .axis .guide.line{stroke-dasharray:4,4}#chart-4b92536f-2340-410f-9fd1-a675534cfa94 .axis .major.guide.line{stroke-dasharray:6,6}#chart-4b92536f-2340-410f-9fd1-a675534cfa94 .horizontal .axis.y .guide.line,#chart-4b92536f-2340-410f-9fd1-a675534cfa94 .horizontal .axis.y2 .guide.line,#chart-4b92536f-2340-410f-9fd1-a675534cfa94 .vertical .axis.x .guide.line{opacity:0}#chart-4b92536f-2340-410f-9fd1-a675534cfa94 .horizontal .axis.always_show .guide.line,#chart-4b92536f-2340-410f-9fd1-a675534cfa94 .vertical .axis.always_show .guide.line{opacity:1 !important}#chart-4b92536f-2340-410f-9fd1-a675534cfa94 .axis.y .guides:hover .guide.line,#chart-4b92536f-2340-410f-9fd1-a675534cfa94 .axis.y2 .guides:hover .guide.line,#chart-4b92536f-2340-410f-9fd1-a675534cfa94 .axis.x .guides:hover .guide.line{opacity:1}#chart-4b92536f-2340-410f-9fd1-a675534cfa94 .axis .guides:hover text{opacity:1}#chart-4b92536f-2340-410f-9fd1-a675534cfa94 .nofill{fill:none}#chart-4b92536f-2340-410f-9fd1-a675534cfa94 .subtle-fill{fill-opacity:.2}#chart-4b92536f-2340-410f-9fd1-a675534cfa94 .dot{stroke-width:1px;fill-opacity:1}#chart-4b92536f-2340-410f-9fd1-a675534cfa94 .dot.active{stroke-width:5px}#chart-4b92536f-2340-410f-9fd1-a675534cfa94 .dot.negative{fill:transparent}#chart-4b92536f-2340-410f-9fd1-a675534cfa94 text,#chart-4b92536f-2340-410f-9fd1-a675534cfa94 tspan{stroke:none !important}#chart-4b92536f-2340-410f-9fd1-a675534cfa94 .series text.active{opacity:1}#chart-4b92536f-2340-410f-9fd1-a675534cfa94 .tooltip rect{fill-opacity:.95;stroke-width:.5}#chart-4b92536f-2340-410f-9fd1-a675534cfa94 .tooltip text{fill-opacity:1}#chart-4b92536f-2340-410f-9fd1-a675534cfa94 .showable{visibility:hidden}#chart-4b92536f-2340-410f-9fd1-a675534cfa94 .showable.shown{visibility:visible}#chart-4b92536f-2340-410f-9fd1-a675534cfa94 .gauge-background{fill:rgba(229,229,229,1);stroke:none}#chart-4b92536f-2340-410f-9fd1-a675534cfa94 .bg-lines{stroke:rgba(249,249,249,1);stroke-width:2px}</style><script type="text/javascript">window.pygal = window.pygal || {};window.pygal.config = window.pygal.config || {};window.pygal.config['4b92536f-2340-410f-9fd1-a675534cfa94'] = {"allow_interruptions": false, "box_mode": "extremes", "classes": ["pygal-chart"], "css": ["file://style.css", "file://graph.css"], "defs": [], "disable_xml_declaration": false, "dots_size": 2.5, "dynamic_print_values": false, "explicit_size": false, "fill": false, "force_uri_protocol": "https", "formatter": null, "half_pie": false, "height": 600, "include_x_axis": false, "inner_radius": 0, "interpolate": null, "interpolation_parameters": {}, "interpolation_precision": 250, "inverse_y_axis": false, "js": ["//kozea.github.io/pygal.js/2.0.x/pygal-tooltips.min.js"], "legend_at_bottom": true, "legend_at_bottom_columns": null, "legend_box_size": 12, "logarithmic": false, "margin": 20, "margin_bottom": null, "margin_left": null, "margin_right": null, "margin_top": null, "max_scale": 16, "min_scale": 4, "missing_value_fill_truncation": "x", "no_data_text": "No data", "no_prefix": false, "order_min": null, "pretty_print": false, "print_labels": false, "print_values": false, "print_values_position": "center", "print_zeroes": true, "range": null, "rounded_bars": null, "secondary_range": null, "show_dots": true, "show_legend": true, "show_minor_x_labels": false, "show_minor_y_labels": true, "show_only_major_dots": false, "show_x_guides": false, "show_x_labels": true, "show_y_guides": true, "show_y_labels": true, "spacing": 10, "stack_from_top": false, "strict": false, "stroke": true, "stroke_style": null, "style": {"background": "rgba(249, 249, 249, 1)", "ci_colors": [], "colors": ["red", "blue", "green", "#a3a3a3"], "font_family": "Consolas, \"Liberation Mono\", Menlo, Courier, monospace", "foreground": "rgba(0, 0, 0, .87)", "foreground_strong": "rgba(0, 0, 0, 1)", "foreground_subtle": "rgba(0, 0, 0, .54)", "guide_stroke_dasharray": "4,4", "label_font_family": "Consolas, \"Liberation Mono\", Menlo, Courier, monospace", "label_font_size": 10, "legend_font_family": "Consolas, \"Liberation Mono\", Menlo, Courier, monospace", "legend_font_size": 14, "major_guide_stroke_dasharray": "6,6", "major_label_font_family": "Consolas, \"Liberation Mono\", Menlo, Courier, monospace", "major_label_font_size": 10, "no_data_font_family": "Consolas, \"Liberation Mono\", Menlo, Courier, monospace", "no_data_font_size": 64, "opacity": ".7", "opacity_hover": ".8", "plot_background": "rgba(255, 255, 255, 1)", "stroke_opacity": ".8", "stroke_opacity_hover": ".9", "title_font_family": "Consolas, \"Liberation Mono\", Menlo, Courier, monospace", "title_font_size": 16, "tooltip_font_family": "Consolas, \"Liberation Mono\", Menlo, Courier, monospace", "tooltip_font_size": 14, "transition": "150ms", "value_background": "rgba(229, 229, 229, 1)", "value_colors": [], "value_font_family": "Consolas, \"Liberation Mono\", Menlo, Courier, monospace", "value_font_size": 16, "value_label_font_family": "Consolas, \"Liberation Mono\", Menlo, Courier, monospace", "value_label_font_size": 10}, "title": "B Lee: Future and Past Averages in ODIs", "tooltip_border_radius": 10, "tooltip_fancy_mode": true, "truncate_label": null, "truncate_legend": null, "width": 800, "x_label_rotation": 45, "x_labels": ["2000", "0", "0", "0", "0", "0", "0", "0", "0", "0", "0", "0", "0", "0", "0", "0", "0", "0", "0", "2001", "0", "0", "0", "0", "0", "0", "0", "0", "2002", "0", "0", "0", "0", "0", "0", "0", "0", "0", "0", "0", "0", "0", "0", "0", "0", "0", "0", "0", "2003", "0", "0", "0", "0", "0", "0", "0", "0", "0", "0", "0", "0", "0", "0", "0", "0", "0", "0", "0", "0", "0", "0", "0", "2004", "0", "0", "0", "0", "0", "0", "0", "0", "0", "0", "0", "0", "0", "0", "0", "2005", "0", "0", "0", "0", "0", "0", "0", "0", "0", "0", "0", "0", "0", "0", "0", "0", "0", "0", "0", "0", "0", "0", "0", "0", "0", "2006", "0", "0", "0", "0", "0", "0", "0", "0", "0", "0", "0", "0", "0", "0", "0", "0", "0", "0", "0", "0", "0", "0", "0", "0", "0", "2007", "0", "0", "0", "0", "0", "0", "0", "0", "0", "0", "0", "0", "0", "0", "0", "0", "2008", "0", "0", "0", "0", "0", "0", "0", "0", "0", "0", "0", "0", "2009", "0", "0", "0", "0", "0", "0", "0", "0", "0", "0", "0", "2011", "0", "0", "0", "0", "0", "0", "0", "0", "0", "0", "0", "0", "0", "0", "0", "0", "0", "0", "2012", "0", "0", "0", "0", "0", "0", "0", "0", "0", "0", "0", "0", "0", "0", "0"], "x_labels_major": ["2000", "2001", "2002", "2003", "2004", "2005", "2006", "2007", "2008", "2009", "2011", "2012"], "x_labels_major_count": null, "x_labels_major_every": null, "x_title": null, "xrange": null, "y_label_rotation": 0, "y_labels": null, "y_labels_major": null, "y_labels_major_count": null, "y_labels_major_every": null, "y_title": null, "zero": 130.0, "legends": ["Future Average", "Past Average", "Career Average"]}</script><script type="text/javascript" xlink:href="https://kozea.github.io/pygal.js/2.0.x/pygal-tooltips.min.js"/></defs><title>B Lee: Future and Past Averages in ODIs</title><g class="graph line-graph vertical"><rect class="background" height="600" width="800" x="0" y="0"/><g class="plot" transform="translate(48, 46)"><rect class="background" height="462.02943725152284" width="732.0" x="0" y="0"/><g class="axis y always_show"><g class="guides"><path class="axis major line" d="M0.000000 453.144256 h732.000000"/><text class="major" x="-5" y="456.6442557659166">0</text><title>0</title></g><g class="guides"><path class="guide line" d="M0.000000 418.163226 h732.000000"/><text class="" x="-5" y="421.66322629502605">10</text><title>10</title></g><g class="guides"><path class="guide line" d="M0.000000 383.182197 h732.000000"/><text class="" x="-5" y="386.6821968241354">20</text><title>20</title></g><g class="guides"><path class="guide line" d="M0.000000 348.201167 h732.000000"/><text class="" x="-5" y="351.70116735324484">30</text><title>30</title></g><g class="guides"><path class="guide line" d="M0.000000 313.220138 h732.000000"/><text class="" x="-5" y="316.72013788235427">40</text><title>40</title></g><g class="guides"><path class="major guide line" d="M0.000000 278.239108 h732.000000"/><text class="major" x="-5" y="281.7391084114637">50</text><title>50</title></g><g class="guides"><path class="guide line" d="M0.000000 243.258079 h732.000000"/><text class="" x="-5" y="246.7580789405731">60</text><title>60</title></g><g class="guides"><path class="guide line" d="M0.000000 208.277049 h732.000000"/><text class="" x="-5" y="211.77704946968248">70</text><title>70</title></g><g class="guides"><path class="guide line" d="M0.000000 173.296020 h732.000000"/><text class="" x="-5" y="176.7960199987919">80</text><title>80</title></g><g class="guides"><path class="guide line" d="M0.000000 138.314991 h732.000000"/><text class="" x="-5" y="141.81499052790127">90</text><title>90</title></g><g class="guides"><path class="major guide line" d="M0.000000 103.333961 h732.000000"/><text class="major" x="-5" y="106.8339610570107">100</text><title>100</title></g><g class="guides"><path class="guide line" d="M0.000000 68.352932 h732.000000"/><text class="" x="-5" y="71.85293158612012">110</text><title>110</title></g><g class="guides"><path class="guide line" d="M0.000000 33.371902 h732.000000"/><text class="" x="-5" y="36.87190211522949">120</text><title>120</title></g></g><g class="axis x"><g class="guides"><path class="major line" d="M14.076923 0.000000 v462.029437"/><text class="major" x="14.076923076923077" y="477.02943725152284" transform="rotate(45 14.076923 477.029437)">2000</text></g><g class="guides"><path class="major guide line" d="M75.989316 0.000000 v462.029437"/><text class="major" x="75.98931623931624" y="477.02943725152284" transform="rotate(45 75.989316 477.029437)">2001</text></g><g class="guides"><path class="major guide line" d="M105.316239 0.000000 v462.029437"/><text class="major" x="105.31623931623929" y="477.02943725152284" transform="rotate(45 105.316239 477.029437)">2002</text></g><g class="guides"><path class="major guide line" d="M170.487179 0.000000 v462.029437"/><text class="major" x="170.48717948717945" y="477.02943725152284" transform="rotate(45 170.487179 477.029437)">2003</text></g><g class="guides"><path class="major guide line" d="M248.692308 0.000000 v462.029437"/><text class="major" x="248.69230769230768" y="477.02943725152284" transform="rotate(45 248.692308 477.029437)">2004</text></g><g class="guides"><path class="major guide line" d="M300.829060 0.000000 v462.029437"/><text class="major" x="300.8290598290598" y="477.02943725152284" transform="rotate(45 300.829060 477.029437)">2005</text></g><g class="guides"><path class="major guide line" d="M385.551282 0.000000 v462.029437"/><text class="major" x="385.55128205128204" y="477.02943725152284" transform="rotate(45 385.551282 477.029437)">2006</text></g><g class="guides"><path class="major guide line" d="M470.273504 0.000000 v462.029437"/><text class="major" x="470.2735042735043" y="477.02943725152284" transform="rotate(45 470.273504 477.029437)">2007</text></g><g class="guides"><path class="major guide line" d="M525.668803 0.000000 v462.029437"/><text class="major" x="525.6688034188033" y="477.02943725152284" transform="rotate(45 525.668803 477.029437)">2008</text></g><g class="guides"><path class="major guide line" d="M568.029915 0.000000 v462.029437"/><text class="major" x="568.0299145299145" y="477.02943725152284" transform="rotate(45 568.029915 477.029437)">2009</text></g><g class="guides"><path class="major guide line" d="M607.132479 0.000000 v462.029437"/><text class="major" x="607.1324786324786" y="477.02943725152284" transform="rotate(45 607.132479 477.029437)">2011</text></g><g class="guides"><path class="major guide line" d="M669.044872 0.000000 v462.029437"/><text class="major" x="669.0448717948718" y="477.02943725152284" transform="rotate(45 669.044872 477.029437)">2012</text></g></g><g class="series serie-0 color-0"><path class="line reactive nofill" d="M14.076923 371.428571 L17.335470 371.778381 20.594017 372.233135 23.852564 372.303097 27.111111 372.408040 30.369658 372.443021 33.628205 371.603476 36.886752 371.603476 40.145299 371.078761 43.403846 370.903855 46.662393 370.414121 49.920940 370.449102 53.179487 371.043780 56.438034 371.428571 59.696581 371.533514 62.955128 371.148723 66.213675 370.763931 69.472222 371.288647 72.730769 371.113742 75.989316 371.043780 79.247863 371.218685 82.506410 371.918305 85.764957 371.323628 89.023504 371.813362 92.282051 372.443021 95.540598 372.547964 98.799145 372.478002 102.057692 372.408040 105.316239 372.163173 108.574786 371.848343 111.833333 371.813362 115.091880 371.988267 118.350427 372.093210 121.608974 372.547964 124.867521 372.023248 128.126068 371.708419 131.384615 372.093210 134.643162 372.478002 137.901709 372.443021 141.160256 372.338078 144.418803 371.673438 147.677350 371.638457 150.935897 371.568495 154.194444 371.183704 157.452991 370.903855 160.711538 371.358609 163.970085 370.798912 167.228632 370.624007 170.487179 370.029330 173.745726 370.519064 177.004274 371.323628 180.262821 371.568495 183.521368 371.918305 186.779915 371.428571 190.038462 370.309178 193.297009 370.484083 196.555556 370.064311 199.814103 370.554045 203.072650 370.589026 206.331197 371.323628 209.589744 371.078761 212.848291 370.099292 216.106838 369.329709 219.365385 368.839975 222.623932 368.595108 225.882479 368.665070 229.141026 368.280278 232.399573 368.385221 235.658120 368.140354 238.916667 367.825525 242.175214 368.315259 245.433761 367.300809 248.692308 367.650620 251.950855 367.685601 255.209402 368.560127 258.467949 368.525145 261.726496 368.630089 264.985043 367.895487 268.243590 367.650620 271.502137 367.510696 274.760684 367.615639 278.019231 368.210316 281.277778 368.630089 284.536325 368.700051 287.794872 369.364690 291.053419 369.329709 294.311966 369.574576 297.570513 369.469633 300.829060 369.469633 304.087607 368.874956 307.346154 369.574576 310.604701 369.644538 313.863248 369.749482 317.121795 368.804994 320.380342 369.469633 323.638889 368.630089 326.897436 368.735032 330.155983 368.210316 333.414530 367.825525 336.673077 367.405753 339.931624 367.265828 343.190171 367.440734 346.448718 367.055942 349.707265 366.811075 352.965812 367.020961 356.224359 367.265828 359.482906 367.020961 362.741453 367.930468 366.000000 366.356322 369.258547 366.776094 372.517094 366.426284 375.775641 366.846056 379.034188 365.481796 382.292735 364.012593 385.551282 365.271910 388.809829 364.817156 392.068376 365.796625 395.326923 363.592820 398.585470 364.117536 401.844017 364.992061 405.102564 364.782175 408.361111 363.173048 411.619658 363.312972 414.878205 364.397384 418.136752 365.341872 421.395299 366.671151 424.653846 368.000430 427.912393 368.630089 431.170940 367.475715 434.429487 368.210316 437.688034 369.224766 440.946581 368.909937 444.205128 368.420202 447.463675 367.755563 450.722222 365.586739 453.980769 363.557839 457.239316 364.082555 460.497863 364.747194 463.756410 364.852137 467.014957 364.292441 470.273504 364.957080 473.532051 365.027043 476.790598 364.817156 480.049145 363.557839 483.307692 365.131986 486.566239 365.761644 489.824786 364.712213 493.083333 365.551758 496.341880 365.691682 499.600427 367.055942 502.858974 365.866587 506.117521 366.706132 509.376068 366.461265 512.634615 368.105373 515.893162 368.490164 519.151709 368.490164 522.410256 367.265828 525.668803 366.321341 528.927350 362.753276 532.185897 363.033124 535.444444 363.662782 538.702991 364.537308 541.961538 361.808788 545.220085 361.913731 548.478632 363.277991 551.737179 364.607270 554.995726 364.012593 558.254274 364.012593 561.512821 364.467346 564.771368 363.907650 568.029915 365.831606 571.288462 365.166967 574.547009 367.055942 577.805556 365.726663 581.064103 367.370772 584.322650 363.452896 587.581197 363.277991 590.839744 363.697763 594.098291 364.572289 597.356838 364.817156 600.615385 364.572289 603.873932 364.222479 607.132479 364.362403 610.391026 363.872669 613.649573 363.068105 616.908120 359.465059 620.166667 362.473427 623.425214 360.129698 626.683761 363.208029 629.942308 363.872669 633.200855 364.152517 636.459402 364.292441 639.717949 364.327422 642.976496 359.080268 646.235043 350.649839 649.493590 352.363910 652.752137 353.168474 656.010684 357.331216 659.269231 357.995856 662.527778 357.436159 665.786325 359.989774 669.044872 346.067325 672.303419 347.886338 675.561966 340.295455 678.820513 351.874175 682.079060 351.314479 685.337607 344.703064 688.596154 347.186717 691.854701 337.077200 695.113248 334.208756 698.371795 335.363130 701.630342 343.373785 704.888889 348.795845 708.147436 293.385894 711.405983 8.885181 714.664530 208.277049 717.923077 411.167020"/></g><g class="series serie-1 color-1"><path class="line reactive nofill" d="M14.076923 453.144256 L17.335470 316.718241 20.594017 145.311196 23.852564 43.866211 27.111111 183.790329 30.369658 276.490057 33.628205 364.152517 36.886752 365.341872 40.145299 380.768506 43.403846 383.182197 46.662393 390.353308 49.920940 387.834674 53.179487 378.005004 56.438034 371.533514 59.696581 369.959368 62.955128 375.241503 66.213675 379.439227 69.472222 373.282565 72.730769 374.646826 75.989316 375.276484 79.247863 373.492452 82.506410 366.496246 85.764957 372.408040 89.023504 368.140354 92.282051 362.963162 95.540598 362.683314 98.799145 363.522858 102.057692 364.537308 105.316239 366.671151 108.574786 368.735032 111.833333 369.119823 115.091880 368.140354 118.350427 367.650620 121.608974 365.131986 124.867521 368.280278 128.126068 370.099292 131.384615 368.350240 134.643162 366.566208 137.901709 366.846056 141.160256 367.335790 144.418803 370.449102 147.677350 370.484083 150.935897 370.903855 154.194444 372.338078 157.452991 373.317547 160.711538 371.673438 163.970085 373.527433 167.228632 374.122110 170.487179 375.836181 173.745726 374.262034 177.004274 371.778381 180.262821 370.973818 183.521368 369.924387 186.779915 371.463552 190.038462 374.506902 193.297009 374.017167 196.555556 375.066598 199.814103 373.737319 203.072650 373.597395 206.331197 371.708419 209.589744 372.268116 212.848291 374.541883 216.106838 376.116029 219.365385 377.025536 222.623932 377.375346 225.882479 377.130479 229.141026 377.725156 232.399573 377.515270 235.658120 377.760137 238.916667 378.144929 242.175214 377.200441 245.433761 378.774587 248.692308 378.144929 251.950855 377.970023 255.209402 376.395877 258.467949 376.360896 261.726496 376.116029 264.985043 377.165460 268.243590 377.410327 271.502137 377.515270 274.760684 377.270403 278.019231 376.360896 281.277778 375.661275 284.536325 375.521351 287.794872 374.506902 291.053419 374.541883 294.311966 374.087129 297.570513 374.192072 300.829060 374.122110 304.087607 374.821731 307.346154 373.877243 310.604701 373.737319 313.863248 373.562414 317.121795 374.646826 320.380342 373.807281 323.638889 374.716788 326.897436 374.541883 330.155983 375.066598 333.414530 375.381427 336.673077 375.731238 339.931624 375.801200 343.190171 375.591313 346.448718 375.906143 349.707265 376.046067 352.965812 375.801200 356.224359 375.486370 359.482906 375.661275 362.741453 374.786750 366.000000 376.011086 369.258547 375.626294 372.517094 375.836181 375.775641 375.416408 379.034188 376.395877 382.292735 377.410327 385.551282 376.360896 388.809829 376.605763 392.068376 375.836181 395.326923 377.270403 398.585470 376.815649 401.844017 376.185991 405.102564 376.185991 408.361111 377.095498 411.619658 376.955574 414.878205 376.220972 418.136752 375.556332 421.395299 374.681807 424.653846 373.772300 427.912393 373.317547 431.170940 373.982186 434.429487 373.492452 437.688034 372.792831 440.946581 373.002717 444.205128 373.247584 447.463675 373.562414 450.722222 374.646826 453.980769 375.556332 457.239316 375.241503 460.497863 374.891693 463.756410 374.786750 467.014957 374.961655 470.273504 374.611845 473.532051 374.471920 476.790598 374.506902 480.049145 374.996636 483.307692 374.297015 486.566239 373.947205 489.824786 374.297015 493.083333 373.912224 496.341880 373.842262 499.600427 373.282565 502.858974 373.702338 506.117521 373.352528 509.376068 373.387509 512.634615 372.757850 515.893162 372.582945 519.151709 372.547964 522.410256 372.967736 525.668803 373.247584 528.927350 374.331996 532.185897 374.192072 535.444444 373.947205 538.702991 373.632376 541.961538 374.297015 545.220085 374.157091 548.478632 373.772300 551.737179 373.352528 554.995726 373.457471 558.254274 373.422490 561.512821 373.282565 564.771368 373.317547 568.029915 372.862793 571.288462 372.967736 574.547009 372.478002 577.805556 372.757850 581.064103 372.373059 584.322650 373.107660 587.581197 373.072679 590.839744 372.967736 594.098291 372.757850 597.356838 372.687888 600.615385 372.687888 603.873932 372.687888 607.132479 372.652907 610.391026 372.687888 613.649573 372.757850 616.908120 373.212603 620.166667 372.722869 623.425214 372.967736 626.683761 372.547964 629.942308 372.408040 633.200855 372.373059 636.459402 372.303097 639.717949 372.268116 642.976496 372.757850 646.235043 373.387509 649.493590 373.177622 652.752137 373.037698 656.010684 372.687888 659.269231 372.582945 662.527778 372.547964 665.786325 372.303097 669.044872 373.072679 672.303419 372.862793 675.561966 373.072679 678.820513 372.443021 682.079060 372.443021 685.337607 372.512983 688.596154 372.338078 691.854701 372.443021 695.113248 372.443021 698.371795 372.303097 701.630342 372.023248 704.888889 371.778381 708.147436 372.058229 711.405983 372.373059 714.664530 372.058229 717.923077 371.533514"/></g><g class="series serie-2 color-2"><path class="line reactive nofill" d="M14.076923 371.428571 L17.335470 371.428571 20.594017 371.428571 23.852564 371.428571 27.111111 371.428571 30.369658 371.428571 33.628205 371.428571 36.886752 371.428571 40.145299 371.428571 43.403846 371.428571 46.662393 371.428571 49.920940 371.428571 53.179487 371.428571 56.438034 371.428571 59.696581 371.428571 62.955128 371.428571 66.213675 371.428571 69.472222 371.428571 72.730769 371.428571 75.989316 371.428571 79.247863 371.428571 82.506410 371.428571 85.764957 371.428571 89.023504 371.428571 92.282051 371.428571 95.540598 371.428571 98.799145 371.428571 102.057692 371.428571 105.316239 371.428571 108.574786 371.428571 111.833333 371.428571 115.091880 371.428571 118.350427 371.428571 121.608974 371.428571 124.867521 371.428571 128.126068 371.428571 131.384615 371.428571 134.643162 371.428571 137.901709 371.428571 141.160256 371.428571 144.418803 371.428571 147.677350 371.428571 150.935897 371.428571 154.194444 371.428571 157.452991 371.428571 160.711538 371.428571 163.970085 371.428571 167.228632 371.428571 170.487179 371.428571 173.745726 371.428571 177.004274 371.428571 180.262821 371.428571 183.521368 371.428571 186.779915 371.428571 190.038462 371.428571 193.297009 371.428571 196.555556 371.428571 199.814103 371.428571 203.072650 371.428571 206.331197 371.428571 209.589744 371.428571 212.848291 371.428571 216.106838 371.428571 219.365385 371.428571 222.623932 371.428571 225.882479 371.428571 229.141026 371.428571 232.399573 371.428571 235.658120 371.428571 238.916667 371.428571 242.175214 371.428571 245.433761 371.428571 248.692308 371.428571 251.950855 371.428571 255.209402 371.428571 258.467949 371.428571 261.726496 371.428571 264.985043 371.428571 268.243590 371.428571 271.502137 371.428571 274.760684 371.428571 278.019231 371.428571 281.277778 371.428571 284.536325 371.428571 287.794872 371.428571 291.053419 371.428571 294.311966 371.428571 297.570513 371.428571 300.829060 371.428571 304.087607 371.428571 307.346154 371.428571 310.604701 371.428571 313.863248 371.428571 317.121795 371.428571 320.380342 371.428571 323.638889 371.428571 326.897436 371.428571 330.155983 371.428571 333.414530 371.428571 336.673077 371.428571 339.931624 371.428571 343.190171 371.428571 346.448718 371.428571 349.707265 371.428571 352.965812 371.428571 356.224359 371.428571 359.482906 371.428571 362.741453 371.428571 366.000000 371.428571 369.258547 371.428571 372.517094 371.428571 375.775641 371.428571 379.034188 371.428571 382.292735 371.428571 385.551282 371.428571 388.809829 371.428571 392.068376 371.428571 395.326923 371.428571 398.585470 371.428571 401.844017 371.428571 405.102564 371.428571 408.361111 371.428571 411.619658 371.428571 414.878205 371.428571 418.136752 371.428571 421.395299 371.428571 424.653846 371.428571 427.912393 371.428571 431.170940 371.428571 434.429487 371.428571 437.688034 371.428571 440.946581 371.428571 444.205128 371.428571 447.463675 371.428571 450.722222 371.428571 453.980769 371.428571 457.239316 371.428571 460.497863 371.428571 463.756410 371.428571 467.014957 371.428571 470.273504 371.428571 473.532051 371.428571 476.790598 371.428571 480.049145 371.428571 483.307692 371.428571 486.566239 371.428571 489.824786 371.428571 493.083333 371.428571 496.341880 371.428571 499.600427 371.428571 502.858974 371.428571 506.117521 371.428571 509.376068 371.428571 512.634615 371.428571 515.893162 371.428571 519.151709 371.428571 522.410256 371.428571 525.668803 371.428571 528.927350 371.428571 532.185897 371.428571 535.444444 371.428571 538.702991 371.428571 541.961538 371.428571 545.220085 371.428571 548.478632 371.428571 551.737179 371.428571 554.995726 371.428571 558.254274 371.428571 561.512821 371.428571 564.771368 371.428571 568.029915 371.428571 571.288462 371.428571 574.547009 371.428571 577.805556 371.428571 581.064103 371.428571 584.322650 371.428571 587.581197 371.428571 590.839744 371.428571 594.098291 371.428571 597.356838 371.428571 600.615385 371.428571 603.873932 371.428571 607.132479 371.428571 610.391026 371.428571 613.649573 371.428571 616.908120 371.428571 620.166667 371.428571 623.425214 371.428571 626.683761 371.428571 629.942308 371.428571 633.200855 371.428571 636.459402 371.428571 639.717949 371.428571 642.976496 371.428571 646.235043 371.428571 649.493590 371.428571 652.752137 371.428571 656.010684 371.428571 659.269231 371.428571 662.527778 371.428571 665.786325 371.428571 669.044872 371.428571 672.303419 371.428571 675.561966 371.428571 678.820513 371.428571 682.079060 371.428571 685.337607 371.428571 688.596154 371.428571 691.854701 371.428571 695.113248 371.428571 698.371795 371.428571 701.630342 371.428571 704.888889 371.428571 708.147436 371.428571 711.405983 371.428571 714.664530 371.428571 717.923077 371.428571"/></g></g><g class="titles"><text class="title plot_title" x="400.0" y="26">B Lee: Future and Past Averages in ODIs</text></g><g class="plot overlay" transform="translate(48, 46)"><g class="series serie-0 color-0"><g class="dots"><desc class="label">380 wickets in 217 innings (1864.1 overs)</desc><circle class="dot reactive tooltip-trigger" cx="14.076923076923077" cy="371.4285709219162" r="2.5"/><desc class="value">23.36</desc><desc class="x top">14.076923076923077</desc><desc class="y top">371.4285709219162</desc><desc class="x_label">2000</desc></g><g class="dots"><desc class="label">346 wickets in 198 innings (1690.0 overs)</desc><circle class="dot reactive tooltip-trigger" cx="75.98931623931624" cy="371.04377959773643" r="2.5"/><desc class="value">23.47</desc><desc class="x top">75.98931623931624</desc><desc class="y top">371.04377959773643</desc><desc class="x_label">2001</desc></g><g class="dots"><desc class="label">330 wickets in 189 innings (1609.0 overs)</desc><circle class="dot reactive tooltip-trigger" cx="105.31623931623929" cy="372.1631725408049" r="2.5"/><desc class="value">23.15</desc><desc class="x top">105.31623931623929</desc><desc class="y top">372.1631725408049</desc><desc class="x_label">2002</desc></g><g class="dots"><desc class="label">289 wickets in 169 innings (1443.2 overs)</desc><circle class="dot reactive tooltip-trigger" cx="170.48717948717945" cy="370.0293297430806" r="2.5"/><desc class="value">23.76</desc><desc class="x top">170.48717948717945</desc><desc class="y top">370.0293297430806</desc><desc class="x_label">2003</desc></g><g class="dots"><desc class="label">243 wickets in 145 innings (1238.0 overs)</desc><circle class="dot reactive tooltip-trigger" cx="248.69230769230768" cy="367.65061973906" r="2.5"/><desc class="value">24.44</desc><desc class="x top">248.69230769230768</desc><desc class="y top">367.65061973906</desc><desc class="x_label">2004</desc></g><g class="dots"><desc class="label">220 wickets in 129 innings (1101.3 overs)</desc><circle class="dot reactive tooltip-trigger" cx="300.8290598290598" cy="369.46963327154634" r="2.5"/><desc class="value">23.92</desc><desc class="x top">300.8290598290598</desc><desc class="y top">369.46963327154634</desc><desc class="x_label">2005</desc></g><g class="dots"><desc class="label">169 wickets in 103 innings (875.4 overs)</desc><circle class="dot reactive tooltip-trigger" cx="385.55128205128204" cy="365.27190973503946" r="2.5"/><desc class="value">25.12</desc><desc class="x left top">385.55128205128204</desc><desc class="y left top">365.27190973503946</desc><desc class="x_label">2006</desc></g><g class="dots"><desc class="label">125 wickets in 77 innings (644.0 overs)</desc><circle class="dot reactive tooltip-trigger" cx="470.2735042735043" cy="364.95708046980144" r="2.5"/><desc class="value">25.21</desc><desc class="x left top">470.2735042735043</desc><desc class="y left top">364.95708046980144</desc><desc class="x_label">2007</desc></g><g class="dots"><desc class="label">100 wickets in 60 innings (504.2 overs)</desc><circle class="dot reactive tooltip-trigger" cx="525.6688034188033" cy="366.3213406191662" r="2.5"/><desc class="value">24.82</desc><desc class="x left top">525.6688034188033</desc><desc class="y left top">366.3213406191662</desc><desc class="x_label">2008</desc></g><g class="dots"><desc class="label">77 wickets in 47 innings (388.4 overs)</desc><circle class="dot reactive tooltip-trigger" cx="568.0299145299145" cy="365.8316062065737" r="2.5"/><desc class="value">24.96</desc><desc class="x left top">568.0299145299145</desc><desc class="y left top">365.8316062065737</desc><desc class="x_label">2009</desc></g><g class="dots"><desc class="label">56 wickets in 35 innings (284.3 overs)</desc><circle class="dot reactive tooltip-trigger" cx="607.1324786324786" cy="364.36240296879635" r="2.5"/><desc class="value">25.38</desc><desc class="x left top">607.1324786324786</desc><desc class="y left top">364.36240296879635</desc><desc class="x_label">2011</desc></g><g class="dots"><desc class="label">23 wickets in 16 innings (128.2 overs)</desc><circle class="dot reactive tooltip-trigger" cx="669.0448717948718" cy="346.06732455552054" r="2.5"/><desc class="value">30.61</desc><desc class="x left top">669.0448717948718</desc><desc class="y left top">346.06732455552054</desc><desc class="x_label">2012</desc></g></g><g class="series serie-1 color-1"><g class="dots"><desc class="label">0 wickets over 0 innings</desc><circle class="dot reactive tooltip-trigger" cx="14.076923076923077" cy="453.1442557659166" r="2.5"/><desc class="value">0</desc><desc class="x top">14.076923076923077</desc><desc class="y top">453.1442557659166</desc><desc class="x_label">2000</desc></g><g class="dots"><desc class="label">34 wickets in 19 innings (174.1 overs)</desc><circle class="dot reactive tooltip-trigger" cx="75.98931623931624" cy="375.27648416371414" r="2.5"/><desc class="value">22.26</desc><desc class="x top">75.98931623931624</desc><desc class="y top">375.27648416371414</desc><desc class="x_label">2001</desc></g><g class="dots"><desc class="label">50 wickets in 28 innings (255.1 overs)</desc><circle class="dot reactive tooltip-trigger" cx="105.31623931623929" cy="366.6711509138751" r="2.5"/><desc class="value">24.72</desc><desc class="x top">105.31623931623929</desc><desc class="y top">366.6711509138751</desc><desc class="x_label">2002</desc></g><g class="dots"><desc class="label">91 wickets in 48 innings (420.5 overs)</desc><circle class="dot reactive tooltip-trigger" cx="170.48717948717945" cy="375.8361806352484" r="2.5"/><desc class="value">22.1</desc><desc class="x top">170.48717948717945</desc><desc class="y top">375.8361806352484</desc><desc class="x_label">2003</desc></g><g class="dots"><desc class="label">137 wickets in 72 innings (626.1 overs)</desc><circle class="dot reactive tooltip-trigger" cx="248.69230769230768" cy="378.1449285803272" r="2.5"/><desc class="value">21.44</desc><desc class="x top">248.69230769230768</desc><desc class="y top">378.1449285803272</desc><desc class="x_label">2004</desc></g><g class="dots"><desc class="label">160 wickets in 88 innings (762.4 overs)</desc><circle class="dot reactive tooltip-trigger" cx="300.8290598290598" cy="374.1221101911748" r="2.5"/><desc class="value">22.59</desc><desc class="x top">300.8290598290598</desc><desc class="y top">374.1221101911748</desc><desc class="x_label">2005</desc></g><g class="dots"><desc class="label">211 wickets in 114 innings (988.3 overs)</desc><circle class="dot reactive tooltip-trigger" cx="385.55128205128204" cy="376.3608960773118" r="2.5"/><desc class="value">21.95</desc><desc class="x left top">385.55128205128204</desc><desc class="y left top">376.3608960773118</desc><desc class="x_label">2006</desc></g><g class="dots"><desc class="label">255 wickets in 140 innings (1220.1 overs)</desc><circle class="dot reactive tooltip-trigger" cx="470.2735042735043" cy="374.6118446037673" r="2.5"/><desc class="value">22.45</desc><desc class="x left top">470.2735042735043</desc><desc class="y left top">374.6118446037673</desc><desc class="x_label">2007</desc></g><g class="dots"><desc class="label">280 wickets in 157 innings (1359.5 overs)</desc><circle class="dot reactive tooltip-trigger" cx="525.6688034188033" cy="373.2475844544025" r="2.5"/><desc class="value">22.84</desc><desc class="x left top">525.6688034188033</desc><desc class="y left top">373.2475844544025</desc><desc class="x_label">2008</desc></g><g class="dots"><desc class="label">303 wickets in 170 innings (1475.3 overs)</desc><circle class="dot reactive tooltip-trigger" cx="568.0299145299145" cy="372.8627931302227" r="2.5"/><desc class="value">22.95</desc><desc class="x left top">568.0299145299145</desc><desc class="y left top">372.8627931302227</desc><desc class="x_label">2009</desc></g><g class="dots"><desc class="label">324 wickets in 182 innings (1579.4 overs)</desc><circle class="dot reactive tooltip-trigger" cx="607.1324786324786" cy="372.6529069533974" r="2.5"/><desc class="value">23.01</desc><desc class="x left top">607.1324786324786</desc><desc class="y left top">372.6529069533974</desc><desc class="x_label">2011</desc></g><g class="dots"><desc class="label">357 wickets in 201 innings (1735.5 overs)</desc><circle class="dot reactive tooltip-trigger" cx="669.0448717948718" cy="373.0726793070481" r="2.5"/><desc class="value">22.89</desc><desc class="x left top">669.0448717948718</desc><desc class="y left top">373.0726793070481</desc><desc class="x_label">2012</desc></g></g><g class="series serie-2 color-2"/></g><g class="plot text-overlay" transform="translate(48, 46)"><g class="series serie-0 color-0"/><g class="series serie-1 color-1"/><g class="series serie-2 color-2"/></g><g class="plot tooltip-overlay" transform="translate(48, 46)"><g class="tooltip" style="opacity: 0" transform="translate(0 0)"><rect class="tooltip-box" height="0" rx="10" ry="10" width="0"/><g class="text"/></g></g><g class="legends" transform="translate(58, 545)"><g class="legend reactive activate-serie" id="activate-serie-0"><rect class="color-0 reactive" height="12" width="12" x="0.0" y="1.0"/><text x="17.0" y="11.2">Future Average</text></g><g class="legend reactive activate-serie" id="activate-serie-1"><rect class="color-1 reactive" height="12" width="12" x="366.0" y="1.0"/><text x="383.0" y="11.2">Past Average</text></g><g class="legend reactive activate-serie" id="activate-serie-2"><rect class="color-2 reactive" height="12" width="12" x="0.0" y="22.0"/><text x="17.0" y="32.2">Career Average</text></g></g></g></svg>