<?xml version='1.0' encoding='utf-8'?>
<svg xmlns:xlink="http://www.w3.org/1999/xlink" xmlns="http://www.w3.org/2000/svg" id="chart-06a05a19-54f8-4eee-9a96-d05c6245ac65" class="pygal-chart" viewBox="0 0 800 600"><!--Generated with pygal 2.4.0 (lxml) ©Kozea 2012-2016 on 2019-08-04--><!--http://pygal.org--><!--http://github.com/Kozea/pygal--><defs><style type="text/css">#chart-06a05a19-54f8-4eee-9a96-d05c6245ac65{-webkit-user-select:none;-webkit-font-smoothing:antialiased;font-family:Consolas,"Liberation Mono",Menlo,Courier,monospace}#chart-06a05a19-54f8-4eee-9a96-d05c6245ac65 .title{font-family:Consolas,"Liberation Mono",Menlo,Courier,monospace;font-size:16px}#chart-06a05a19-54f8-4eee-9a96-d05c6245ac65 .legends .legend text{font-family:Consolas,"Liberation Mono",Menlo,Courier,monospace;font-size:14px}#chart-06a05a19-54f8-4eee-9a96-d05c6245ac65 .axis text{font-family:Consolas,"Liberation Mono",Menlo,Courier,monospace;font-size:10px}#chart-06a05a19-54f8-4eee-9a96-d05c6245ac65 .axis text.major{font-family:Consolas,"Liberation Mono",Menlo,Courier,monospace;font-size:10px}#chart-06a05a19-54f8-4eee-9a96-d05c6245ac65 .text-overlay text.value{font-family:Consolas,"Liberation Mono",Menlo,Courier,monospace;font-size:16px}#chart-06a05a19-54f8-4eee-9a96-d05c6245ac65 .text-overlay text.label{font-family:Consolas,"Liberation Mono",Menlo,Courier,monospace;font-size:10px}#chart-06a05a19-54f8-4eee-9a96-d05c6245ac65 .tooltip{font-family:Consolas,"Liberation Mono",Menlo,Courier,monospace;font-size:14px}#chart-06a05a19-54f8-4eee-9a96-d05c6245ac65 text.no_data{font-family:Consolas,"Liberation Mono",Menlo,Courier,monospace;font-size:64px}
#chart-06a05a19-54f8-4eee-9a96-d05c6245ac65{background-color:rgba(249,249,249,1)}#chart-06a05a19-54f8-4eee-9a96-d05c6245ac65 path,#chart-06a05a19-54f8-4eee-9a96-d05c6245ac65 line,#chart-06a05a19-54f8-4eee-9a96-d05c6245ac65 rect,#chart-06a05a19-54f8-4eee-9a96-d05c6245ac65 circle{-webkit-transition:150ms;-moz-transition:150ms;transition:150ms}#chart-06a05a19-54f8-4eee-9a96-d05c6245ac65 .graph &gt; .background{fill:rgba(249,249,249,1)}#chart-06a05a19-54f8-4eee-9a96-d05c6245ac65 .plot &gt; .background{fill:rgba(255,255,255,1)}#chart-06a05a19-54f8-4eee-9a96-d05c6245ac65 .graph{fill:rgba(0,0,0,.87)}#chart-06a05a19-54f8-4eee-9a96-d05c6245ac65 text.no_data{fill:rgba(0,0,0,1)}#chart-06a05a19-54f8-4eee-9a96-d05c6245ac65 .title{fill:rgba(0,0,0,1)}#chart-06a05a19-54f8-4eee-9a96-d05c6245ac65 .legends .legend text{fill:rgba(0,0,0,.87)}#chart-06a05a19-54f8-4eee-9a96-d05c6245ac65 .legends .legend:hover text{fill:rgba(0,0,0,1)}#chart-06a05a19-54f8-4eee-9a96-d05c6245ac65 .axis .line{stroke:rgba(0,0,0,1)}#chart-06a05a19-54f8-4eee-9a96-d05c6245ac65 .axis .guide.line{stroke:rgba(0,0,0,.54)}#chart-06a05a19-54f8-4eee-9a96-d05c6245ac65 .axis .major.line{stroke:rgba(0,0,0,.87)}#chart-06a05a19-54f8-4eee-9a96-d05c6245ac65 .axis text.major{fill:rgba(0,0,0,1)}#chart-06a05a19-54f8-4eee-9a96-d05c6245ac65 .axis.y .guides:hover .guide.line,#chart-06a05a19-54f8-4eee-9a96-d05c6245ac65 .line-graph .axis.x .guides:hover .guide.line,#chart-06a05a19-54f8-4eee-9a96-d05c6245ac65 .stackedline-graph .axis.x .guides:hover .guide.line,#chart-06a05a19-54f8-4eee-9a96-d05c6245ac65 .xy-graph .axis.x .guides:hover .guide.line{stroke:rgba(0,0,0,1)}#chart-06a05a19-54f8-4eee-9a96-d05c6245ac65 .axis .guides:hover text{fill:rgba(0,0,0,1)}#chart-06a05a19-54f8-4eee-9a96-d05c6245ac65 .reactive{fill-opacity:.7;stroke-opacity:.8}#chart-06a05a19-54f8-4eee-9a96-d05c6245ac65 .ci{stroke:rgba(0,0,0,.87)}#chart-06a05a19-54f8-4eee-9a96-d05c6245ac65 .reactive.active,#chart-06a05a19-54f8-4eee-9a96-d05c6245ac65 .active .reactive{fill-opacity:.8;stroke-opacity:.9;stroke-width:4}#chart-06a05a19-54f8-4eee-9a96-d05c6245ac65 .ci .reactive.active{stroke-width:1.5}#chart-06a05a19-54f8-4eee-9a96-d05c6245ac65 .series text{fill:rgba(0,0,0,1)}#chart-06a05a19-54f8-4eee-9a96-d05c6245ac65 .tooltip rect{fill:rgba(255,255,255,1);stroke:rgba(0,0,0,1);-webkit-transition:opacity 150ms;-moz-transition:opacity 150ms;transition:opacity 150ms}#chart-06a05a19-54f8-4eee-9a96-d05c6245ac65 .tooltip .label{fill:rgba(0,0,0,.87)}#chart-06a05a19-54f8-4eee-9a96-d05c6245ac65 .tooltip .label{fill:rgba(0,0,0,.87)}#chart-06a05a19-54f8-4eee-9a96-d05c6245ac65 .tooltip .legend{font-size:.8em;fill:rgba(0,0,0,.54)}#chart-06a05a19-54f8-4eee-9a96-d05c6245ac65 .tooltip .x_label{font-size:.6em;fill:rgba(0,0,0,1)}#chart-06a05a19-54f8-4eee-9a96-d05c6245ac65 .tooltip .xlink{font-size:.5em;text-decoration:underline}#chart-06a05a19-54f8-4eee-9a96-d05c6245ac65 .tooltip .value{font-size:1.5em}#chart-06a05a19-54f8-4eee-9a96-d05c6245ac65 .bound{font-size:.5em}#chart-06a05a19-54f8-4eee-9a96-d05c6245ac65 .max-value{font-size:.75em;fill:rgba(0,0,0,.54)}#chart-06a05a19-54f8-4eee-9a96-d05c6245ac65 .map-element{fill:rgba(255,255,255,1);stroke:rgba(0,0,0,.54) !important}#chart-06a05a19-54f8-4eee-9a96-d05c6245ac65 .map-element .reactive{fill-opacity:inherit;stroke-opacity:inherit}#chart-06a05a19-54f8-4eee-9a96-d05c6245ac65 .color-0,#chart-06a05a19-54f8-4eee-9a96-d05c6245ac65 .color-0 a:visited{stroke:red;fill:red}#chart-06a05a19-54f8-4eee-9a96-d05c6245ac65 .color-1,#chart-06a05a19-54f8-4eee-9a96-d05c6245ac65 .color-1 a:visited{stroke:blue;fill:blue}#chart-06a05a19-54f8-4eee-9a96-d05c6245ac65 .color-2,#chart-06a05a19-54f8-4eee-9a96-d05c6245ac65 .color-2 a:visited{stroke:green;fill:green}#chart-06a05a19-54f8-4eee-9a96-d05c6245ac65 .text-overlay .color-0 text{fill:white}#chart-06a05a19-54f8-4eee-9a96-d05c6245ac65 .text-overlay .color-1 text{fill:white}#chart-06a05a19-54f8-4eee-9a96-d05c6245ac65 .text-overlay .color-2 text{fill:white}
#chart-06a05a19-54f8-4eee-9a96-d05c6245ac65 text.no_data{text-anchor:middle}#chart-06a05a19-54f8-4eee-9a96-d05c6245ac65 .guide.line{fill:none}#chart-06a05a19-54f8-4eee-9a96-d05c6245ac65 .centered{text-anchor:middle}#chart-06a05a19-54f8-4eee-9a96-d05c6245ac65 .title{text-anchor:middle}#chart-06a05a19-54f8-4eee-9a96-d05c6245ac65 .legends .legend text{fill-opacity:1}#chart-06a05a19-54f8-4eee-9a96-d05c6245ac65 .axis.x text{text-anchor:middle}#chart-06a05a19-54f8-4eee-9a96-d05c6245ac65 .axis.x:not(.web) text[transform]{text-anchor:start}#chart-06a05a19-54f8-4eee-9a96-d05c6245ac65 .axis.x:not(.web) text[transform].backwards{text-anchor:end}#chart-06a05a19-54f8-4eee-9a96-d05c6245ac65 .axis.y text{text-anchor:end}#chart-06a05a19-54f8-4eee-9a96-d05c6245ac65 .axis.y text[transform].backwards{text-anchor:start}#chart-06a05a19-54f8-4eee-9a96-d05c6245ac65 .axis.y2 text{text-anchor:start}#chart-06a05a19-54f8-4eee-9a96-d05c6245ac65 .axis.y2 text[transform].backwards{text-anchor:end}#chart-06a05a19-54f8-4eee-9a96-d05c6245ac65 .axis .guide.line{stroke-dasharray:4,4}#chart-06a05a19-54f8-4eee-9a96-d05c6245ac65 .axis .major.guide.line{stroke-dasharray:6,6}#chart-06a05a19-54f8-4eee-9a96-d05c6245ac65 .horizontal .axis.y .guide.line,#chart-06a05a19-54f8-4eee-9a96-d05c6245ac65 .horizontal .axis.y2 .guide.line,#chart-06a05a19-54f8-4eee-9a96-d05c6245ac65 .vertical .axis.x .guide.line{opacity:0}#chart-06a05a19-54f8-4eee-9a96-d05c6245ac65 .horizontal .axis.always_show .guide.line,#chart-06a05a19-54f8-4eee-9a96-d05c6245ac65 .vertical .axis.always_show .guide.line{opacity:1 !important}#chart-06a05a19-54f8-4eee-9a96-d05c6245ac65 .axis.y .guides:hover .guide.line,#chart-06a05a19-54f8-4eee-9a96-d05c6245ac65 .axis.y2 .guides:hover .guide.line,#chart-06a05a19-54f8-4eee-9a96-d05c6245ac65 .axis.x .guides:hover .guide.line{opacity:1}#chart-06a05a19-54f8-4eee-9a96-d05c6245ac65 .axis .guides:hover text{opacity:1}#chart-06a05a19-54f8-4eee-9a96-d05c6245ac65 .nofill{fill:none}#chart-06a05a19-54f8-4eee-9a96-d05c6245ac65 .subtle-fill{fill-opacity:.2}#chart-06a05a19-54f8-4eee-9a96-d05c6245ac65 .dot{stroke-width:1px;fill-opacity:1}#chart-06a05a19-54f8-4eee-9a96-d05c6245ac65 .dot.active{stroke-width:5px}#chart-06a05a19-54f8-4eee-9a96-d05c6245ac65 .dot.negative{fill:transparent}#chart-06a05a19-54f8-4eee-9a96-d05c6245ac65 text,#chart-06a05a19-54f8-4eee-9a96-d05c6245ac65 tspan{stroke:none !important}#chart-06a05a19-54f8-4eee-9a96-d05c6245ac65 .series text.active{opacity:1}#chart-06a05a19-54f8-4eee-9a96-d05c6245ac65 .tooltip rect{fill-opacity:.95;stroke-width:.5}#chart-06a05a19-54f8-4eee-9a96-d05c6245ac65 .tooltip text{fill-opacity:1}#chart-06a05a19-54f8-4eee-9a96-d05c6245ac65 .showable{visibility:hidden}#chart-06a05a19-54f8-4eee-9a96-d05c6245ac65 .showable.shown{visibility:visible}#chart-06a05a19-54f8-4eee-9a96-d05c6245ac65 .gauge-background{fill:rgba(229,229,229,1);stroke:none}#chart-06a05a19-54f8-4eee-9a96-d05c6245ac65 .bg-lines{stroke:rgba(249,249,249,1);stroke-width:2px}</style><script type="text/javascript">window.pygal = window.pygal || {};window.pygal.config = window.pygal.config || {};window.pygal.config['06a05a19-54f8-4eee-9a96-d05c6245ac65'] = {"allow_interruptions": false, "box_mode": "extremes", "classes": ["pygal-chart"], "css": ["file://style.css", "file://graph.css"], "defs": [], "disable_xml_declaration": false, "dots_size": 2.5, "dynamic_print_values": false, "explicit_size": false, "fill": false, "force_uri_protocol": "https", "formatter": null, "half_pie": false, "height": 600, "include_x_axis": false, "inner_radius": 0, "interpolate": null, "interpolation_parameters": {}, "interpolation_precision": 250, "inverse_y_axis": false, "js": ["//kozea.github.io/pygal.js/2.0.x/pygal-tooltips.min.js"], "legend_at_bottom": true, "legend_at_bottom_columns": null, "legend_box_size": 12, "logarithmic": false, "margin": 20, "margin_bottom": null, "margin_left": null, "margin_right": null, "margin_top": null, "max_scale": 16, "min_scale": 4, "missing_value_fill_truncation": "x", "no_data_text": "No data", "no_prefix": false, "order_min": null, "pretty_print": false, "print_labels": false, "print_values": false, "print_values_position": "center", "print_zeroes": true, "range": null, "rounded_bars": null, "secondary_range": null, "show_dots": true, "show_legend": true, "show_minor_x_labels": false, "show_minor_y_labels": true, "show_only_major_dots": false, "show_x_guides": false, "show_x_labels": true, "show_y_guides": true, "show_y_labels": true, "spacing": 10, "stack_from_top": false, "strict": false, "stroke": true, "stroke_style": null, "style": {"background": "rgba(249, 249, 249, 1)", "ci_colors": [], "colors": ["red", "blue", "green", "#a3a3a3"], "font_family": "Consolas, \"Liberation Mono\", Menlo, Courier, monospace", "foreground": "rgba(0, 0, 0, .87)", "foreground_strong": "rgba(0, 0, 0, 1)", "foreground_subtle": "rgba(0, 0, 0, .54)", "guide_stroke_dasharray": "4,4", "label_font_family": "Consolas, \"Liberation Mono\", Menlo, Courier, monospace", "label_font_size": 10, "legend_font_family": "Consolas, \"Liberation Mono\", Menlo, Courier, monospace", "legend_font_size": 14, "major_guide_stroke_dasharray": "6,6", "major_label_font_family": "Consolas, \"Liberation Mono\", Menlo, Courier, monospace", "major_label_font_size": 10, "no_data_font_family": "Consolas, \"Liberation Mono\", Menlo, Courier, monospace", "no_data_font_size": 64, "opacity": ".7", "opacity_hover": ".8", "plot_background": "rgba(255, 255, 255, 1)", "stroke_opacity": ".8", "stroke_opacity_hover": ".9", "title_font_family": "Consolas, \"Liberation Mono\", Menlo, Courier, monospace", "title_font_size": 16, "tooltip_font_family": "Consolas, \"Liberation Mono\", Menlo, Courier, monospace", "tooltip_font_size": 14, "transition": "150ms", "value_background": "rgba(229, 229, 229, 1)", "value_colors": [], "value_font_family": "Consolas, \"Liberation Mono\", Menlo, Courier, monospace", "value_font_size": 16, "value_label_font_family": "Consolas, \"Liberation Mono\", Menlo, Courier, monospace", "value_label_font_size": 10}, "title": "BKV Prasad: Future and Past Averages in ODIs", "tooltip_border_radius": 10, "tooltip_fancy_mode": true, "truncate_label": null, "truncate_legend": null, "width": 800, "x_label_rotation": 45, "x_labels": ["1994", "0", "0", "0", "0", "0", "0", "0", "0", "0", "0", "1995", "0", "0", "0", "0", "0", "0", "0", "0", "0", "1996", "0", "0", "0", "0", "0", "0", "0", "0", "0", "0", "0", "0", "0", "0", "0", "0", "0", "0", "0", "0", "0", "0", "0", "0", "0", "0", "0", "0", "0", "1997", "0", "0", "0", "0", "0", "0", "0", "0", "0", "0", "0", "0", "0", "0", "0", "0", "0", "0", "0", "0", "0", "0", "0", "0", "1998", "0", "0", "0", "0", "0", "0", "0", "0", "0", "0", "0", "0", "0", "0", "0", "0", "0", "0", "0", "0", "0", "0", "1999", "0", "0", "0", "0", "0", "0", "0", "0", "0", "0", "0", "0", "0", "0", "0", "0", "0", "0", "0", "0", "0", "0", "0", "0", "0", "0", "0", "0", "0", "0", "0", "0", "0", "2000", "0", "0", "0", "0", "0", "0", "0", "0", "0", "0", "0", "0", "0", "0", "0", "0", "0", "0", "0", "0", "0", "0", "0", "0", "2001", "0"], "x_labels_major": ["1994", "1995", "1996", "1997", "1998", "1999", "2000", "2001"], "x_labels_major_count": null, "x_labels_major_every": null, "x_title": null, "xrange": null, "y_label_rotation": 0, "y_labels": null, "y_labels_major": null, "y_labels_major_count": null, "y_labels_major_every": null, "y_title": null, "zero": 150.0, "legends": ["Future Average", "Past Average", "Career Average"]}</script><script type="text/javascript" xlink:href="https://kozea.github.io/pygal.js/2.0.x/pygal-tooltips.min.js"/></defs><title>BKV Prasad: Future and Past Averages in ODIs</title><g class="graph line-graph vertical"><rect class="background" height="600" width="800" x="0" y="0"/><g class="plot" transform="translate(48, 46)"><rect class="background" height="462.02943725152284" width="732.0" x="0" y="0"/><g class="axis y always_show"><g class="guides"><path class="axis major line" d="M0.000000 453.144256 h732.000000"/><text class="major" x="-5" y="456.6442557659166">0</text><title>0</title></g><g class="guides"><path class="guide line" d="M0.000000 423.328211 h732.000000"/><text class="" x="-5" y="426.8282105122045">10</text><title>10</title></g><g class="guides"><path class="guide line" d="M0.000000 393.512165 h732.000000"/><text class="" x="-5" y="397.01216525849236">20</text><title>20</title></g><g class="guides"><path class="guide line" d="M0.000000 363.696120 h732.000000"/><text class="" x="-5" y="367.1961200047803">30</text><title>30</title></g><g class="guides"><path class="guide line" d="M0.000000 333.880075 h732.000000"/><text class="" x="-5" y="337.38007475106815">40</text><title>40</title></g><g class="guides"><path class="major guide line" d="M0.000000 304.064029 h732.000000"/><text class="major" x="-5" y="307.56402949735605">50</text><title>50</title></g><g class="guides"><path class="guide line" d="M0.000000 274.247984 h732.000000"/><text class="" x="-5" y="277.74798424364394">60</text><title>60</title></g><g class="guides"><path class="guide line" d="M0.000000 244.431939 h732.000000"/><text class="" x="-5" y="247.9319389899318">70</text><title>70</title></g><g class="guides"><path class="guide line" d="M0.000000 214.615894 h732.000000"/><text class="" x="-5" y="218.1158937362197">80</text><title>80</title></g><g class="guides"><path class="guide line" d="M0.000000 184.799848 h732.000000"/><text class="" x="-5" y="188.29984848250763">90</text><title>90</title></g><g class="guides"><path class="major guide line" d="M0.000000 154.983803 h732.000000"/><text class="major" x="-5" y="158.48380322879552">100</text><title>100</title></g><g class="guides"><path class="guide line" d="M0.000000 125.167758 h732.000000"/><text class="" x="-5" y="128.66775797508336">110</text><title>110</title></g><g class="guides"><path class="guide line" d="M0.000000 95.351713 h732.000000"/><text class="" x="-5" y="98.85171272137126">120</text><title>120</title></g><g class="guides"><path class="guide line" d="M0.000000 65.535667 h732.000000"/><text class="" x="-5" y="69.03566746765921">130</text><title>130</title></g><g class="guides"><path class="guide line" d="M0.000000 35.719622 h732.000000"/><text class="" x="-5" y="39.21962221394705">140</text><title>140</title></g></g><g class="axis x"><g class="guides"><path class="major line" d="M14.076923 0.000000 v462.029437"/><text class="major" x="14.076923076923077" y="477.02943725152284" transform="rotate(45 14.076923 477.029437)">1994</text></g><g class="guides"><path class="major guide line" d="M62.770682 0.000000 v462.029437"/><text class="major" x="62.77068214804064" y="477.02943725152284" transform="rotate(45 62.770682 477.029437)">1995</text></g><g class="guides"><path class="major guide line" d="M107.037736 0.000000 v462.029437"/><text class="major" x="107.03773584905659" y="477.02943725152284" transform="rotate(45 107.037736 477.029437)">1996</text></g><g class="guides"><path class="major guide line" d="M239.838897 0.000000 v462.029437"/><text class="major" x="239.8388969521045" y="477.02943725152284" transform="rotate(45 239.838897 477.029437)">1997</text></g><g class="guides"><path class="major guide line" d="M350.506531 0.000000 v462.029437"/><text class="major" x="350.50653120464443" y="477.02943725152284" transform="rotate(45 350.506531 477.029437)">1998</text></g><g class="guides"><path class="major guide line" d="M452.320755 0.000000 v462.029437"/><text class="major" x="452.32075471698107" y="477.02943725152284" transform="rotate(45 452.320755 477.029437)">1999</text></g><g class="guides"><path class="major guide line" d="M602.828737 0.000000 v462.029437"/><text class="major" x="602.8287373004355" y="477.02943725152284" transform="rotate(45 602.828737 477.029437)">2000</text></g><g class="guides"><path class="major guide line" d="M713.496372 0.000000 v462.029437"/><text class="major" x="713.4963715529753" y="477.02943725152284" transform="rotate(45 713.496372 477.029437)">2001</text></g></g><g class="series serie-0 color-0"><path class="line reactive nofill" d="M14.076923 356.808614 L18.503628 357.554015 22.930334 358.150336 27.357039 358.836105 31.783745 358.597576 36.210450 357.673279 40.637155 357.285670 45.063861 358.060887 49.490566 358.597576 53.917271 358.508128 58.343977 358.388864 62.770682 358.806289 67.197388 358.955369 71.624093 359.492058 76.050798 359.670954 80.477504 358.746656 84.904209 358.209968 89.330914 358.537944 93.757620 358.239784 98.184325 358.448496 102.611030 358.418680 107.037736 358.806289 111.464441 358.955369 115.891147 359.521874 120.317852 359.283345 124.744557 359.670954 129.171263 360.356723 133.597968 359.492058 138.024673 359.820034 142.451379 359.969114 146.878084 360.774148 151.304790 360.803964 155.731495 361.579181 160.158200 361.936973 164.584906 362.503478 169.011611 361.996605 173.438316 361.340652 177.865022 362.235134 182.291727 361.877341 186.718433 361.698445 191.145138 361.251204 195.571843 361.102124 199.998549 359.700770 204.425254 360.058562 208.851959 360.088379 213.278665 360.356723 217.705370 359.193897 222.132075 359.402609 226.558781 358.895737 230.985486 359.670954 235.412192 358.209968 239.838897 355.943948 244.265602 355.884316 248.692308 354.751306 253.119013 354.930203 257.545718 355.168731 261.972424 355.317811 266.399129 356.421005 270.825835 357.047142 275.252540 356.510453 279.679245 357.375118 284.105951 357.434751 288.532656 356.391189 292.959361 356.063212 297.386067 357.226038 301.812772 358.239784 306.239478 359.700770 310.666183 361.310836 315.092888 360.833780 319.519594 357.971439 323.946299 357.524199 328.373004 358.687024 332.799710 358.299416 337.226415 359.849850 341.653120 360.446171 346.079826 361.281020 350.506531 362.384214 354.933237 363.547040 359.359942 363.636488 363.786647 363.934648 368.213353 364.292441 372.640058 363.964464 377.066763 364.292441 381.493469 363.517224 385.920174 362.920903 390.346880 362.056238 394.773585 359.939298 399.200290 359.849850 403.626996 356.391189 408.053701 357.464567 412.480406 357.076958 416.907112 356.003580 421.333817 355.675604 425.760522 356.510453 430.187228 357.792543 434.613933 358.687024 439.040639 359.402609 443.467344 360.535619 447.894049 362.264950 452.320755 362.712191 456.747460 364.262625 461.174165 364.799314 465.600871 364.739682 470.027576 364.501153 474.454282 366.856621 478.880987 364.471337 483.307692 363.517224 487.734398 362.622742 492.161103 359.760402 496.587808 356.987510 501.014514 357.583831 505.441219 358.418680 509.867925 359.939298 514.294630 358.687024 518.721335 360.714515 523.148041 360.416355 527.574746 361.907157 532.001451 354.810939 536.428157 357.285670 540.854862 357.554015 545.281567 359.581506 549.708273 357.554015 554.134978 357.226038 558.561684 356.271925 562.988389 359.432426 567.415094 359.879666 571.841800 362.205318 576.268505 360.118195 580.695210 361.668629 585.121916 356.868246 589.548621 356.182477 593.975327 352.723815 598.402032 350.487612 602.828737 347.714720 607.255443 350.129819 611.682148 354.840755 616.108853 354.482962 620.535559 351.978414 624.962264 349.116074 629.388970 354.423330 633.815675 356.421005 638.242380 362.920903 642.669086 364.739682 647.095791 360.953044 651.522496 368.794664 655.949202 365.186922 660.375907 363.397960 664.802612 360.535619 669.229318 364.560785 673.656023 351.352277 678.082729 346.313366 682.509434 352.515103 686.936139 343.719370 691.362845 365.485083 695.789550 354.393514 700.216255 346.671158 704.642961 312.263442 709.069666 336.116278 713.496372 357.732911 717.923077 386.058154"/></g><g class="series serie-1 color-1"><path class="line reactive nofill" d="M14.076923 453.144256 L18.503628 307.045634 22.930334 190.763058 27.357039 59.572458 31.783745 8.885181 36.210450 315.245046 40.637155 342.318016 45.063861 317.988123 49.490566 300.098495 53.917271 310.891904 58.343977 320.105062 62.770682 310.385031 67.197388 306.300233 71.624093 294.373815 76.050798 297.772844 80.477504 327.409993 84.904209 338.561194 89.330914 336.265358 93.757620 340.976294 98.184325 339.664388 102.611030 341.870775 107.037736 338.441930 111.464441 338.054321 115.891147 332.985593 120.317852 337.279104 124.744557 335.430509 129.171263 330.242517 133.597968 339.276779 138.024673 337.964873 142.451379 337.935057 146.878084 333.134674 151.304790 334.774556 155.731495 330.510862 160.158200 329.646196 164.584906 327.648521 169.011611 332.120928 173.438316 336.682783 177.865022 332.806697 182.291727 335.847934 186.718433 337.756161 191.145138 340.558869 195.571843 342.019855 199.998549 347.714720 204.425254 346.790422 208.851959 347.028951 213.278665 346.462446 217.705370 350.427980 222.132075 350.010555 226.558781 351.650438 230.985486 349.891291 235.412192 353.648113 239.838897 358.627392 244.265602 358.627392 248.692308 360.625067 253.119013 360.207643 257.545718 359.700770 261.972424 359.402609 266.399129 357.524199 270.825835 356.450821 275.252540 357.315486 279.679245 355.914132 284.105951 355.824684 288.532656 357.494383 292.959361 357.911807 297.386067 356.212293 301.812772 354.721490 306.239478 352.574735 310.666183 350.189452 315.092888 351.113749 319.519594 355.317811 323.946299 355.943948 328.373004 354.453146 332.799710 354.989835 337.226415 353.081608 341.653120 352.366023 346.079826 351.322461 350.506531 350.010555 354.933237 348.549569 359.359942 348.609201 363.786647 348.460121 368.213353 348.191776 372.640058 348.907362 377.066763 348.728465 381.493469 349.831659 385.920174 350.696324 390.346880 351.799518 394.773585 354.005905 399.200290 354.154986 403.626996 357.166406 408.053701 356.301741 412.480406 356.599901 416.907112 357.434751 421.333817 357.673279 425.760522 357.047142 430.187228 356.093028 434.613933 355.496708 439.040639 355.019651 443.467344 354.274250 447.894049 353.051792 452.320755 352.843080 456.747460 351.799518 461.174165 351.441725 465.600871 351.590806 470.027576 351.859150 474.454282 350.308716 478.880987 352.187127 483.307692 352.932528 487.734398 353.677929 492.161103 355.317811 496.587808 356.748981 501.014514 356.450821 505.441219 356.093028 509.867925 355.377443 514.294630 356.003580 518.721335 355.109099 523.148041 355.287995 527.574746 354.691674 532.001451 357.554015 536.428157 356.659533 540.854862 356.540269 545.281567 355.824684 549.708273 356.570085 554.134978 356.689349 558.561684 356.987510 562.988389 356.003580 567.415094 355.884316 571.841800 355.168731 576.268505 355.884316 580.695210 355.407259 585.121916 356.808614 589.548621 356.987510 593.975327 357.822359 598.402032 358.209968 602.828737 358.657208 607.255443 358.180152 611.682148 357.226038 616.108853 357.285670 620.535559 357.703095 624.962264 358.090703 629.388970 357.226038 633.815675 356.898062 638.242380 355.854500 642.669086 355.615972 647.095791 356.242109 651.522496 355.138915 655.949202 355.765052 660.375907 356.063212 664.802612 356.450821 669.229318 356.093028 673.656023 357.255854 678.082729 357.494383 682.509434 357.106774 686.936139 357.524199 691.362845 356.361373 695.789550 356.927878 700.216255 357.196222 704.642961 357.762727 709.069666 357.255854 713.496372 356.808614 717.923077 356.510453"/></g><g class="series serie-2 color-2"><path class="line reactive nofill" d="M14.076923 356.808614 L18.503628 356.808614 22.930334 356.808614 27.357039 356.808614 31.783745 356.808614 36.210450 356.808614 40.637155 356.808614 45.063861 356.808614 49.490566 356.808614 53.917271 356.808614 58.343977 356.808614 62.770682 356.808614 67.197388 356.808614 71.624093 356.808614 76.050798 356.808614 80.477504 356.808614 84.904209 356.808614 89.330914 356.808614 93.757620 356.808614 98.184325 356.808614 102.611030 356.808614 107.037736 356.808614 111.464441 356.808614 115.891147 356.808614 120.317852 356.808614 124.744557 356.808614 129.171263 356.808614 133.597968 356.808614 138.024673 356.808614 142.451379 356.808614 146.878084 356.808614 151.304790 356.808614 155.731495 356.808614 160.158200 356.808614 164.584906 356.808614 169.011611 356.808614 173.438316 356.808614 177.865022 356.808614 182.291727 356.808614 186.718433 356.808614 191.145138 356.808614 195.571843 356.808614 199.998549 356.808614 204.425254 356.808614 208.851959 356.808614 213.278665 356.808614 217.705370 356.808614 222.132075 356.808614 226.558781 356.808614 230.985486 356.808614 235.412192 356.808614 239.838897 356.808614 244.265602 356.808614 248.692308 356.808614 253.119013 356.808614 257.545718 356.808614 261.972424 356.808614 266.399129 356.808614 270.825835 356.808614 275.252540 356.808614 279.679245 356.808614 284.105951 356.808614 288.532656 356.808614 292.959361 356.808614 297.386067 356.808614 301.812772 356.808614 306.239478 356.808614 310.666183 356.808614 315.092888 356.808614 319.519594 356.808614 323.946299 356.808614 328.373004 356.808614 332.799710 356.808614 337.226415 356.808614 341.653120 356.808614 346.079826 356.808614 350.506531 356.808614 354.933237 356.808614 359.359942 356.808614 363.786647 356.808614 368.213353 356.808614 372.640058 356.808614 377.066763 356.808614 381.493469 356.808614 385.920174 356.808614 390.346880 356.808614 394.773585 356.808614 399.200290 356.808614 403.626996 356.808614 408.053701 356.808614 412.480406 356.808614 416.907112 356.808614 421.333817 356.808614 425.760522 356.808614 430.187228 356.808614 434.613933 356.808614 439.040639 356.808614 443.467344 356.808614 447.894049 356.808614 452.320755 356.808614 456.747460 356.808614 461.174165 356.808614 465.600871 356.808614 470.027576 356.808614 474.454282 356.808614 478.880987 356.808614 483.307692 356.808614 487.734398 356.808614 492.161103 356.808614 496.587808 356.808614 501.014514 356.808614 505.441219 356.808614 509.867925 356.808614 514.294630 356.808614 518.721335 356.808614 523.148041 356.808614 527.574746 356.808614 532.001451 356.808614 536.428157 356.808614 540.854862 356.808614 545.281567 356.808614 549.708273 356.808614 554.134978 356.808614 558.561684 356.808614 562.988389 356.808614 567.415094 356.808614 571.841800 356.808614 576.268505 356.808614 580.695210 356.808614 585.121916 356.808614 589.548621 356.808614 593.975327 356.808614 598.402032 356.808614 602.828737 356.808614 607.255443 356.808614 611.682148 356.808614 616.108853 356.808614 620.535559 356.808614 624.962264 356.808614 629.388970 356.808614 633.815675 356.808614 638.242380 356.808614 642.669086 356.808614 647.095791 356.808614 651.522496 356.808614 655.949202 356.808614 660.375907 356.808614 664.802612 356.808614 669.229318 356.808614 673.656023 356.808614 678.082729 356.808614 682.509434 356.808614 686.936139 356.808614 691.362845 356.808614 695.789550 356.808614 700.216255 356.808614 704.642961 356.808614 709.069666 356.808614 713.496372 356.808614 717.923077 356.808614"/></g></g><g class="titles"><text class="title plot_title" x="400.0" y="26">BKV Prasad: Future and Past Averages in ODIs</text></g><g class="plot overlay" transform="translate(48, 46)"><g class="series serie-0 color-0"><g class="dots"><desc class="label">196 wickets in 160 innings (1354.5 overs)</desc><circle class="dot reactive tooltip-trigger" cx="14.076923076923077" cy="356.8086135511728" r="2.5"/><desc class="value">32.31</desc><desc class="x top">14.076923076923077</desc><desc class="y top">356.8086135511728</desc><desc class="x_label">1994</desc></g><g class="dots"><desc class="label">188 wickets in 149 innings (1271.3 overs)</desc><circle class="dot reactive tooltip-trigger" cx="62.77068214804064" cy="358.8062885831715" r="2.5"/><desc class="value">31.64</desc><desc class="x top">62.77068214804064</desc><desc class="y top">358.8062885831715</desc><desc class="x_label">1995</desc></g><g class="dots"><desc class="label">177 wickets in 139 innings (1196.3 overs)</desc><circle class="dot reactive tooltip-trigger" cx="107.03773584905659" cy="358.8062885831715" r="2.5"/><desc class="value">31.64</desc><desc class="x top">107.03773584905659</desc><desc class="y top">358.8062885831715</desc><desc class="x_label">1996</desc></g><g class="dots"><desc class="label">132 wickets in 109 innings (922.5 overs)</desc><circle class="dot reactive tooltip-trigger" cx="239.8388969521045" cy="355.94394823881515" r="2.5"/><desc class="value">32.6</desc><desc class="x top">239.8388969521045</desc><desc class="y top">355.94394823881515</desc><desc class="x_label">1997</desc></g><g class="dots"><desc class="label">108 wickets in 84 innings (720.0 overs)</desc><circle class="dot reactive tooltip-trigger" cx="350.50653120464443" cy="362.38421401361694" r="2.5"/><desc class="value">30.44</desc><desc class="x top">350.50653120464443</desc><desc class="y top">362.38421401361694</desc><desc class="x_label">1998</desc></g><g class="dots"><desc class="label">79 wickets in 61 innings (527.0 overs)</desc><circle class="dot reactive tooltip-trigger" cx="452.32075471698107" cy="362.7121905114078" r="2.5"/><desc class="value">30.33</desc><desc class="x left top">452.32075471698107</desc><desc class="y left top">362.7121905114078</desc><desc class="x_label">1999</desc></g><g class="dots"><desc class="label">33 wickets in 27 innings (235.3 overs)</desc><circle class="dot reactive tooltip-trigger" cx="602.8287373004355" cy="347.71471974879057" r="2.5"/><desc class="value">35.36</desc><desc class="x left top">602.8287373004355</desc><desc class="y left top">347.71471974879057</desc><desc class="x_label">2000</desc></g><g class="dots"><desc class="label">3 wickets in 2 innings (15.2 overs)</desc><circle class="dot reactive tooltip-trigger" cx="713.4963715529753" cy="357.7329109540379" r="2.5"/><desc class="value">32</desc><desc class="x left top">713.4963715529753</desc><desc class="y left top">357.7329109540379</desc><desc class="x_label">2001</desc></g></g><g class="series serie-1 color-1"><g class="dots"><desc class="label">0 wickets over 0 innings</desc><circle class="dot reactive tooltip-trigger" cx="14.076923076923077" cy="453.1442557659166" r="2.5"/><desc class="value">0</desc><desc class="x top">14.076923076923077</desc><desc class="y top">453.1442557659166</desc><desc class="x_label">1994</desc></g><g class="dots"><desc class="label">8 wickets in 11 innings (83.2 overs)</desc><circle class="dot reactive tooltip-trigger" cx="62.77068214804064" cy="310.385031091143" r="2.5"/><desc class="value">47.88</desc><desc class="x top">62.77068214804064</desc><desc class="y top">310.385031091143</desc><desc class="x_label">1995</desc></g><g class="dots"><desc class="label">19 wickets in 21 innings (158.2 overs)</desc><circle class="dot reactive tooltip-trigger" cx="107.03773584905659" cy="338.4419296748862" r="2.5"/><desc class="value">38.47</desc><desc class="x top">107.03773584905659</desc><desc class="y top">338.4419296748862</desc><desc class="x_label">1996</desc></g><g class="dots"><desc class="label">64 wickets in 51 innings (432.0 overs)</desc><circle class="dot reactive tooltip-trigger" cx="239.8388969521045" cy="358.62739231164926" r="2.5"/><desc class="value">31.7</desc><desc class="x top">239.8388969521045</desc><desc class="y top">358.62739231164926</desc><desc class="x_label">1997</desc></g><g class="dots"><desc class="label">88 wickets in 76 innings (634.5 overs)</desc><circle class="dot reactive tooltip-trigger" cx="350.50653120464443" cy="350.01055523332644" r="2.5"/><desc class="value">34.59</desc><desc class="x top">350.50653120464443</desc><desc class="y top">350.01055523332644</desc><desc class="x_label">1998</desc></g><g class="dots"><desc class="label">117 wickets in 99 innings (827.5 overs)</desc><circle class="dot reactive tooltip-trigger" cx="452.32075471698107" cy="352.8430795324291" r="2.5"/><desc class="value">33.64</desc><desc class="x left top">452.32075471698107</desc><desc class="y left top">352.8430795324291</desc><desc class="x_label">1999</desc></g><g class="dots"><desc class="label">163 wickets in 133 innings (1119.2 overs)</desc><circle class="dot reactive tooltip-trigger" cx="602.8287373004355" cy="358.6572083569029" r="2.5"/><desc class="value">31.69</desc><desc class="x left top">602.8287373004355</desc><desc class="y left top">358.6572083569029</desc><desc class="x_label">2000</desc></g><g class="dots"><desc class="label">193 wickets in 158 innings (1339.3 overs)</desc><circle class="dot reactive tooltip-trigger" cx="713.4963715529753" cy="356.8086135511728" r="2.5"/><desc class="value">32.31</desc><desc class="x left top">713.4963715529753</desc><desc class="y left top">356.8086135511728</desc><desc class="x_label">2001</desc></g></g><g class="series serie-2 color-2"/></g><g class="plot text-overlay" transform="translate(48, 46)"><g class="series serie-0 color-0"/><g class="series serie-1 color-1"/><g class="series serie-2 color-2"/></g><g class="plot tooltip-overlay" transform="translate(48, 46)"><g class="tooltip" style="opacity: 0" transform="translate(0 0)"><rect class="tooltip-box" height="0" rx="10" ry="10" width="0"/><g class="text"/></g></g><g class="legends" transform="translate(58, 545)"><g class="legend reactive activate-serie" id="activate-serie-0"><rect class="color-0 reactive" height="12" width="12" x="0.0" y="1.0"/><text x="17.0" y="11.2">Future Average</text></g><g class="legend reactive activate-serie" id="activate-serie-1"><rect class="color-1 reactive" height="12" width="12" x="366.0" y="1.0"/><text x="383.0" y="11.2">Past Average</text></g><g class="legend reactive activate-serie" id="activate-serie-2"><rect class="color-2 reactive" height="12" width="12" x="0.0" y="22.0"/><text x="17.0" y="32.2">Career Average</text></g></g></g></svg>