<?xml version='1.0' encoding='utf-8'?>
<svg xmlns:xlink="http://www.w3.org/1999/xlink" xmlns="http://www.w3.org/2000/svg" id="chart-8bd43cab-0dab-4018-a98b-e2778a8e6ae1" class="pygal-chart" viewBox="0 0 800 600"><!--Generated with pygal 2.4.0 (lxml) ©Kozea 2012-2016 on 2019-08-04--><!--http://pygal.org--><!--http://github.com/Kozea/pygal--><defs><style type="text/css">#chart-8bd43cab-0dab-4018-a98b-e2778a8e6ae1{-webkit-user-select:none;-webkit-font-smoothing:antialiased;font-family:Consolas,"Liberation Mono",Menlo,Courier,monospace}#chart-8bd43cab-0dab-4018-a98b-e2778a8e6ae1 .title{font-family:Consolas,"Liberation Mono",Menlo,Courier,monospace;font-size:16px}#chart-8bd43cab-0dab-4018-a98b-e2778a8e6ae1 .legends .legend text{font-family:Consolas,"Liberation Mono",Menlo,Courier,monospace;font-size:14px}#chart-8bd43cab-0dab-4018-a98b-e2778a8e6ae1 .axis text{font-family:Consolas,"Liberation Mono",Menlo,Courier,monospace;font-size:10px}#chart-8bd43cab-0dab-4018-a98b-e2778a8e6ae1 .axis text.major{font-family:Consolas,"Liberation Mono",Menlo,Courier,monospace;font-size:10px}#chart-8bd43cab-0dab-4018-a98b-e2778a8e6ae1 .text-overlay text.value{font-family:Consolas,"Liberation Mono",Menlo,Courier,monospace;font-size:16px}#chart-8bd43cab-0dab-4018-a98b-e2778a8e6ae1 .text-overlay text.label{font-family:Consolas,"Liberation Mono",Menlo,Courier,monospace;font-size:10px}#chart-8bd43cab-0dab-4018-a98b-e2778a8e6ae1 .tooltip{font-family:Consolas,"Liberation Mono",Menlo,Courier,monospace;font-size:14px}#chart-8bd43cab-0dab-4018-a98b-e2778a8e6ae1 text.no_data{font-family:Consolas,"Liberation Mono",Menlo,Courier,monospace;font-size:64px}
#chart-8bd43cab-0dab-4018-a98b-e2778a8e6ae1{background-color:rgba(249,249,249,1)}#chart-8bd43cab-0dab-4018-a98b-e2778a8e6ae1 path,#chart-8bd43cab-0dab-4018-a98b-e2778a8e6ae1 line,#chart-8bd43cab-0dab-4018-a98b-e2778a8e6ae1 rect,#chart-8bd43cab-0dab-4018-a98b-e2778a8e6ae1 circle{-webkit-transition:150ms;-moz-transition:150ms;transition:150ms}#chart-8bd43cab-0dab-4018-a98b-e2778a8e6ae1 .graph &gt; .background{fill:rgba(249,249,249,1)}#chart-8bd43cab-0dab-4018-a98b-e2778a8e6ae1 .plot &gt; .background{fill:rgba(255,255,255,1)}#chart-8bd43cab-0dab-4018-a98b-e2778a8e6ae1 .graph{fill:rgba(0,0,0,.87)}#chart-8bd43cab-0dab-4018-a98b-e2778a8e6ae1 text.no_data{fill:rgba(0,0,0,1)}#chart-8bd43cab-0dab-4018-a98b-e2778a8e6ae1 .title{fill:rgba(0,0,0,1)}#chart-8bd43cab-0dab-4018-a98b-e2778a8e6ae1 .legends .legend text{fill:rgba(0,0,0,.87)}#chart-8bd43cab-0dab-4018-a98b-e2778a8e6ae1 .legends .legend:hover text{fill:rgba(0,0,0,1)}#chart-8bd43cab-0dab-4018-a98b-e2778a8e6ae1 .axis .line{stroke:rgba(0,0,0,1)}#chart-8bd43cab-0dab-4018-a98b-e2778a8e6ae1 .axis .guide.line{stroke:rgba(0,0,0,.54)}#chart-8bd43cab-0dab-4018-a98b-e2778a8e6ae1 .axis .major.line{stroke:rgba(0,0,0,.87)}#chart-8bd43cab-0dab-4018-a98b-e2778a8e6ae1 .axis text.major{fill:rgba(0,0,0,1)}#chart-8bd43cab-0dab-4018-a98b-e2778a8e6ae1 .axis.y .guides:hover .guide.line,#chart-8bd43cab-0dab-4018-a98b-e2778a8e6ae1 .line-graph .axis.x .guides:hover .guide.line,#chart-8bd43cab-0dab-4018-a98b-e2778a8e6ae1 .stackedline-graph .axis.x .guides:hover .guide.line,#chart-8bd43cab-0dab-4018-a98b-e2778a8e6ae1 .xy-graph .axis.x .guides:hover .guide.line{stroke:rgba(0,0,0,1)}#chart-8bd43cab-0dab-4018-a98b-e2778a8e6ae1 .axis .guides:hover text{fill:rgba(0,0,0,1)}#chart-8bd43cab-0dab-4018-a98b-e2778a8e6ae1 .reactive{fill-opacity:.7;stroke-opacity:.8}#chart-8bd43cab-0dab-4018-a98b-e2778a8e6ae1 .ci{stroke:rgba(0,0,0,.87)}#chart-8bd43cab-0dab-4018-a98b-e2778a8e6ae1 .reactive.active,#chart-8bd43cab-0dab-4018-a98b-e2778a8e6ae1 .active .reactive{fill-opacity:.8;stroke-opacity:.9;stroke-width:4}#chart-8bd43cab-0dab-4018-a98b-e2778a8e6ae1 .ci .reactive.active{stroke-width:1.5}#chart-8bd43cab-0dab-4018-a98b-e2778a8e6ae1 .series text{fill:rgba(0,0,0,1)}#chart-8bd43cab-0dab-4018-a98b-e2778a8e6ae1 .tooltip rect{fill:rgba(255,255,255,1);stroke:rgba(0,0,0,1);-webkit-transition:opacity 150ms;-moz-transition:opacity 150ms;transition:opacity 150ms}#chart-8bd43cab-0dab-4018-a98b-e2778a8e6ae1 .tooltip .label{fill:rgba(0,0,0,.87)}#chart-8bd43cab-0dab-4018-a98b-e2778a8e6ae1 .tooltip .label{fill:rgba(0,0,0,.87)}#chart-8bd43cab-0dab-4018-a98b-e2778a8e6ae1 .tooltip .legend{font-size:.8em;fill:rgba(0,0,0,.54)}#chart-8bd43cab-0dab-4018-a98b-e2778a8e6ae1 .tooltip .x_label{font-size:.6em;fill:rgba(0,0,0,1)}#chart-8bd43cab-0dab-4018-a98b-e2778a8e6ae1 .tooltip .xlink{font-size:.5em;text-decoration:underline}#chart-8bd43cab-0dab-4018-a98b-e2778a8e6ae1 .tooltip .value{font-size:1.5em}#chart-8bd43cab-0dab-4018-a98b-e2778a8e6ae1 .bound{font-size:.5em}#chart-8bd43cab-0dab-4018-a98b-e2778a8e6ae1 .max-value{font-size:.75em;fill:rgba(0,0,0,.54)}#chart-8bd43cab-0dab-4018-a98b-e2778a8e6ae1 .map-element{fill:rgba(255,255,255,1);stroke:rgba(0,0,0,.54) !important}#chart-8bd43cab-0dab-4018-a98b-e2778a8e6ae1 .map-element .reactive{fill-opacity:inherit;stroke-opacity:inherit}#chart-8bd43cab-0dab-4018-a98b-e2778a8e6ae1 .color-0,#chart-8bd43cab-0dab-4018-a98b-e2778a8e6ae1 .color-0 a:visited{stroke:red;fill:red}#chart-8bd43cab-0dab-4018-a98b-e2778a8e6ae1 .color-1,#chart-8bd43cab-0dab-4018-a98b-e2778a8e6ae1 .color-1 a:visited{stroke:blue;fill:blue}#chart-8bd43cab-0dab-4018-a98b-e2778a8e6ae1 .color-2,#chart-8bd43cab-0dab-4018-a98b-e2778a8e6ae1 .color-2 a:visited{stroke:green;fill:green}#chart-8bd43cab-0dab-4018-a98b-e2778a8e6ae1 .text-overlay .color-0 text{fill:white}#chart-8bd43cab-0dab-4018-a98b-e2778a8e6ae1 .text-overlay .color-1 text{fill:white}#chart-8bd43cab-0dab-4018-a98b-e2778a8e6ae1 .text-overlay .color-2 text{fill:white}
#chart-8bd43cab-0dab-4018-a98b-e2778a8e6ae1 text.no_data{text-anchor:middle}#chart-8bd43cab-0dab-4018-a98b-e2778a8e6ae1 .guide.line{fill:none}#chart-8bd43cab-0dab-4018-a98b-e2778a8e6ae1 .centered{text-anchor:middle}#chart-8bd43cab-0dab-4018-a98b-e2778a8e6ae1 .title{text-anchor:middle}#chart-8bd43cab-0dab-4018-a98b-e2778a8e6ae1 .legends .legend text{fill-opacity:1}#chart-8bd43cab-0dab-4018-a98b-e2778a8e6ae1 .axis.x text{text-anchor:middle}#chart-8bd43cab-0dab-4018-a98b-e2778a8e6ae1 .axis.x:not(.web) text[transform]{text-anchor:start}#chart-8bd43cab-0dab-4018-a98b-e2778a8e6ae1 .axis.x:not(.web) text[transform].backwards{text-anchor:end}#chart-8bd43cab-0dab-4018-a98b-e2778a8e6ae1 .axis.y text{text-anchor:end}#chart-8bd43cab-0dab-4018-a98b-e2778a8e6ae1 .axis.y text[transform].backwards{text-anchor:start}#chart-8bd43cab-0dab-4018-a98b-e2778a8e6ae1 .axis.y2 text{text-anchor:start}#chart-8bd43cab-0dab-4018-a98b-e2778a8e6ae1 .axis.y2 text[transform].backwards{text-anchor:end}#chart-8bd43cab-0dab-4018-a98b-e2778a8e6ae1 .axis .guide.line{stroke-dasharray:4,4}#chart-8bd43cab-0dab-4018-a98b-e2778a8e6ae1 .axis .major.guide.line{stroke-dasharray:6,6}#chart-8bd43cab-0dab-4018-a98b-e2778a8e6ae1 .horizontal .axis.y .guide.line,#chart-8bd43cab-0dab-4018-a98b-e2778a8e6ae1 .horizontal .axis.y2 .guide.line,#chart-8bd43cab-0dab-4018-a98b-e2778a8e6ae1 .vertical .axis.x .guide.line{opacity:0}#chart-8bd43cab-0dab-4018-a98b-e2778a8e6ae1 .horizontal .axis.always_show .guide.line,#chart-8bd43cab-0dab-4018-a98b-e2778a8e6ae1 .vertical .axis.always_show .guide.line{opacity:1 !important}#chart-8bd43cab-0dab-4018-a98b-e2778a8e6ae1 .axis.y .guides:hover .guide.line,#chart-8bd43cab-0dab-4018-a98b-e2778a8e6ae1 .axis.y2 .guides:hover .guide.line,#chart-8bd43cab-0dab-4018-a98b-e2778a8e6ae1 .axis.x .guides:hover .guide.line{opacity:1}#chart-8bd43cab-0dab-4018-a98b-e2778a8e6ae1 .axis .guides:hover text{opacity:1}#chart-8bd43cab-0dab-4018-a98b-e2778a8e6ae1 .nofill{fill:none}#chart-8bd43cab-0dab-4018-a98b-e2778a8e6ae1 .subtle-fill{fill-opacity:.2}#chart-8bd43cab-0dab-4018-a98b-e2778a8e6ae1 .dot{stroke-width:1px;fill-opacity:1}#chart-8bd43cab-0dab-4018-a98b-e2778a8e6ae1 .dot.active{stroke-width:5px}#chart-8bd43cab-0dab-4018-a98b-e2778a8e6ae1 .dot.negative{fill:transparent}#chart-8bd43cab-0dab-4018-a98b-e2778a8e6ae1 text,#chart-8bd43cab-0dab-4018-a98b-e2778a8e6ae1 tspan{stroke:none !important}#chart-8bd43cab-0dab-4018-a98b-e2778a8e6ae1 .series text.active{opacity:1}#chart-8bd43cab-0dab-4018-a98b-e2778a8e6ae1 .tooltip rect{fill-opacity:.95;stroke-width:.5}#chart-8bd43cab-0dab-4018-a98b-e2778a8e6ae1 .tooltip text{fill-opacity:1}#chart-8bd43cab-0dab-4018-a98b-e2778a8e6ae1 .showable{visibility:hidden}#chart-8bd43cab-0dab-4018-a98b-e2778a8e6ae1 .showable.shown{visibility:visible}#chart-8bd43cab-0dab-4018-a98b-e2778a8e6ae1 .gauge-background{fill:rgba(229,229,229,1);stroke:none}#chart-8bd43cab-0dab-4018-a98b-e2778a8e6ae1 .bg-lines{stroke:rgba(249,249,249,1);stroke-width:2px}</style><script type="text/javascript">window.pygal = window.pygal || {};window.pygal.config = window.pygal.config || {};window.pygal.config['8bd43cab-0dab-4018-a98b-e2778a8e6ae1'] = {"allow_interruptions": false, "box_mode": "extremes", "classes": ["pygal-chart"], "css": ["file://style.css", "file://graph.css"], "defs": [], "disable_xml_declaration": false, "dots_size": 2.5, "dynamic_print_values": false, "explicit_size": false, "fill": false, "force_uri_protocol": "https", "formatter": null, "half_pie": false, "height": 600, "include_x_axis": false, "inner_radius": 0, "interpolate": null, "interpolation_parameters": {}, "interpolation_precision": 250, "inverse_y_axis": false, "js": ["//kozea.github.io/pygal.js/2.0.x/pygal-tooltips.min.js"], "legend_at_bottom": true, "legend_at_bottom_columns": null, "legend_box_size": 12, "logarithmic": false, "margin": 20, "margin_bottom": null, "margin_left": null, "margin_right": null, "margin_top": null, "max_scale": 16, "min_scale": 4, "missing_value_fill_truncation": "x", "no_data_text": "No data", "no_prefix": false, "order_min": null, "pretty_print": false, "print_labels": false, "print_values": false, "print_values_position": "center", "print_zeroes": true, "range": null, "rounded_bars": null, "secondary_range": null, "show_dots": true, "show_legend": true, "show_minor_x_labels": false, "show_minor_y_labels": true, "show_only_major_dots": false, "show_x_guides": false, "show_x_labels": true, "show_y_guides": true, "show_y_labels": true, "spacing": 10, "stack_from_top": false, "strict": false, "stroke": true, "stroke_style": null, "style": {"background": "rgba(249, 249, 249, 1)", "ci_colors": [], "colors": ["red", "blue", "green", "#a3a3a3"], "font_family": "Consolas, \"Liberation Mono\", Menlo, Courier, monospace", "foreground": "rgba(0, 0, 0, .87)", "foreground_strong": "rgba(0, 0, 0, 1)", "foreground_subtle": "rgba(0, 0, 0, .54)", "guide_stroke_dasharray": "4,4", "label_font_family": "Consolas, \"Liberation Mono\", Menlo, Courier, monospace", "label_font_size": 10, "legend_font_family": "Consolas, \"Liberation Mono\", Menlo, Courier, monospace", "legend_font_size": 14, "major_guide_stroke_dasharray": "6,6", "major_label_font_family": "Consolas, \"Liberation Mono\", Menlo, Courier, monospace", "major_label_font_size": 10, "no_data_font_family": "Consolas, \"Liberation Mono\", Menlo, Courier, monospace", "no_data_font_size": 64, "opacity": ".7", "opacity_hover": ".8", "plot_background": "rgba(255, 255, 255, 1)", "stroke_opacity": ".8", "stroke_opacity_hover": ".9", "title_font_family": "Consolas, \"Liberation Mono\", Menlo, Courier, monospace", "title_font_size": 16, "tooltip_font_family": "Consolas, \"Liberation Mono\", Menlo, Courier, monospace", "tooltip_font_size": 14, "transition": "150ms", "value_background": "rgba(229, 229, 229, 1)", "value_colors": [], "value_font_family": "Consolas, \"Liberation Mono\", Menlo, Courier, monospace", "value_font_size": 16, "value_label_font_family": "Consolas, \"Liberation Mono\", Menlo, Courier, monospace", "value_label_font_size": 10}, "title": "CH Gayle: Future and Past Averages in ODIs", "tooltip_border_radius": 10, "tooltip_fancy_mode": true, "truncate_label": null, "truncate_legend": null, "width": 800, "x_label_rotation": 45, "x_labels": ["1999", "0", "0", "0", "0", "0", "2000", "0", "0", "0", "0", "0", "0", "0", "0", "0", "0", "0", "2001", "0", "0", "0", "0", "0", "0", "0", "0", "0", "0", "0", "0", "2002", "0", "0", "0", "0", "0", "0", "0", "0", "0", "0", "0", "0", "0", "0", "0", "0", "0", "0", "0", "0", "2003", "0", "0", "0", "0", "0", "0", "0", "0", "0", "0", "0", "0", "0", "0", "0", "0", "0", "0", "2004", "0", "0", "0", "0", "0", "0", "0", "0", "0", "0", "0", "0", "0", "0", "0", "0", "0", "2005", "0", "0", "0", "0", "0", "0", "0", "0", "0", "0", "0", "2006", "0", "0", "0", "0", "0", "0", "0", "0", "0", "0", "0", "0", "0", "0", "0", "0", "0", "0", "0", "0", "0", "0", "0", "0", "0", "0", "0", "0", "0", "2007", "0", "0", "0", "0", "0", "0", "0", "0", "0", "0", "0", "0", "0", "0", "2008", "0", "0", "0", "0", "0", "0", "0", "0", "0", "0", "0", "2009", "0", "0", "0", "0", "0", "0", "0", "0", "0", "2010", "0", "0", "0", "0", "0", "0", "0", "0", "2011", "0", "0", "2012", "2013", "0", "2014", "0", "2015", "0", "0", "0", "0", "2018", "0", "0", "0", "2019", "0", "0", "0", "0"], "x_labels_major": ["1999", "2000", "2001", "2002", "2003", "2004", "2005", "2006", "2007", "2008", "2009", "2010", "2011", "2012", "2013", "2014", "2015", "2018", "2019"], "x_labels_major_count": null, "x_labels_major_every": null, "x_title": null, "xrange": null, "y_label_rotation": 0, "y_labels": null, "y_labels_major": null, "y_labels_major_count": null, "y_labels_major_every": null, "y_title": null, "zero": 70.0, "legends": ["Future Average", "Past Average", "Career Average"]}</script><script type="text/javascript" xlink:href="https://kozea.github.io/pygal.js/2.0.x/pygal-tooltips.min.js"/></defs><title>CH Gayle: Future and Past Averages in ODIs</title><g class="graph line-graph vertical"><rect class="background" height="600" width="800" x="0" y="0"/><g class="plot" transform="translate(42, 46)"><rect class="background" height="462.02943725152284" width="738.0" x="0" y="0"/><g class="axis y always_show"><g class="guides"><path class="axis major line" d="M0.000000 453.144256 h738.000000"/><text class="major" x="-5" y="456.6442557659166">0</text><title>0</title></g><g class="guides"><path class="guide line" d="M0.000000 387.493439 h738.000000"/><text class="" x="-5" y="390.9934394100262">10</text><title>10</title></g><g class="guides"><path class="guide line" d="M0.000000 321.842623 h738.000000"/><text class="" x="-5" y="325.34262305413574">20</text><title>20</title></g><g class="guides"><path class="guide line" d="M0.000000 256.191807 h738.000000"/><text class="" x="-5" y="259.6918066982454">30</text><title>30</title></g><g class="guides"><path class="guide line" d="M0.000000 190.540990 h738.000000"/><text class="" x="-5" y="194.04099034235492">40</text><title>40</title></g><g class="guides"><path class="major guide line" d="M0.000000 124.890174 h738.000000"/><text class="major" x="-5" y="128.3901739864645">50</text><title>50</title></g><g class="guides"><path class="guide line" d="M0.000000 59.239358 h738.000000"/><text class="" x="-5" y="62.73935763057409">60</text><title>60</title></g></g><g class="axis x"><g class="guides"><path class="major line" d="M14.192308 0.000000 v462.029437"/><text class="major" x="14.192307692307692" y="477.02943725152284" transform="rotate(45 14.192308 477.029437)">1999</text></g><g class="guides"><path class="major guide line" d="M35.695804 0.000000 v462.029437"/><text class="major" x="35.69580419580419" y="477.02943725152284" transform="rotate(45 35.695804 477.029437)">2000</text></g><g class="guides"><path class="major guide line" d="M78.702797 0.000000 v462.029437"/><text class="major" x="78.70279720279721" y="477.02943725152284" transform="rotate(45 78.702797 477.029437)">2001</text></g><g class="guides"><path class="major guide line" d="M125.293706 0.000000 v462.029437"/><text class="major" x="125.2937062937063" y="477.02943725152284" transform="rotate(45 125.293706 477.029437)">2002</text></g><g class="guides"><path class="major guide line" d="M200.555944 0.000000 v462.029437"/><text class="major" x="200.55594405594408" y="477.02943725152284" transform="rotate(45 200.555944 477.029437)">2003</text></g><g class="guides"><path class="major guide line" d="M268.650350 0.000000 v462.029437"/><text class="major" x="268.6503496503496" y="477.02943725152284" transform="rotate(45 268.650350 477.029437)">2004</text></g><g class="guides"><path class="major guide line" d="M333.160839 0.000000 v462.029437"/><text class="major" x="333.16083916083915" y="477.02943725152284" transform="rotate(45 333.160839 477.029437)">2005</text></g><g class="guides"><path class="major guide line" d="M376.167832 0.000000 v462.029437"/><text class="major" x="376.16783216783216" y="477.02943725152284" transform="rotate(45 376.167832 477.029437)">2006</text></g><g class="guides"><path class="major guide line" d="M483.685315 0.000000 v462.029437"/><text class="major" x="483.6853146853147" y="477.02943725152284" transform="rotate(45 483.685315 477.029437)">2007</text></g><g class="guides"><path class="major guide line" d="M537.444056 0.000000 v462.029437"/><text class="major" x="537.4440559440559" y="477.02943725152284" transform="rotate(45 537.444056 477.029437)">2008</text></g><g class="guides"><path class="major guide line" d="M580.451049 0.000000 v462.029437"/><text class="major" x="580.451048951049" y="477.02943725152284" transform="rotate(45 580.451049 477.029437)">2009</text></g><g class="guides"><path class="major guide line" d="M616.290210 0.000000 v462.029437"/><text class="major" x="616.2902097902098" y="477.02943725152284" transform="rotate(45 616.290210 477.029437)">2010</text></g><g class="guides"><path class="major guide line" d="M648.545455 0.000000 v462.029437"/><text class="major" x="648.5454545454545" y="477.02943725152284" transform="rotate(45 648.545455 477.029437)">2011</text></g><g class="guides"><path class="major guide line" d="M659.297203 0.000000 v462.029437"/><text class="major" x="659.2972027972028" y="477.02943725152284" transform="rotate(45 659.297203 477.029437)">2012</text></g><g class="guides"><path class="major guide line" d="M662.881119 0.000000 v462.029437"/><text class="major" x="662.8811188811188" y="477.02943725152284" transform="rotate(45 662.881119 477.029437)">2013</text></g><g class="guides"><path class="major guide line" d="M670.048951 0.000000 v462.029437"/><text class="major" x="670.048951048951" y="477.02943725152284" transform="rotate(45 670.048951 477.029437)">2014</text></g><g class="guides"><path class="major guide line" d="M677.216783 0.000000 v462.029437"/><text class="major" x="677.2167832167833" y="477.02943725152284" transform="rotate(45 677.216783 477.029437)">2015</text></g><g class="guides"><path class="major guide line" d="M695.136364 0.000000 v462.029437"/><text class="major" x="695.1363636363635" y="477.02943725152284" transform="rotate(45 695.136364 477.029437)">2018</text></g><g class="guides"><path class="major guide line" d="M709.472028 0.000000 v462.029437"/><text class="major" x="709.472027972028" y="477.02943725152284" transform="rotate(45 709.472028 477.029437)">2019</text></g></g><g class="series serie-0 color-0"><path class="line reactive nofill" d="M14.192308 220.149509 L17.776224 221.659477 21.360140 219.558651 24.944056 219.755604 28.527972 221.002969 32.111888 221.199922 35.695804 223.432049 39.279720 224.022907 42.863636 223.432049 46.447552 224.351161 50.031469 223.957256 53.615385 222.250335 57.199301 222.315985 60.783217 223.760303 64.367133 222.053382 67.951049 222.315985 71.534965 223.760303 75.118881 224.876367 78.702797 222.841192 82.286713 223.432049 85.870629 223.300748 89.454545 224.942018 93.038462 225.729828 96.622378 225.532875 100.206294 224.876367 103.790210 224.351161 107.374126 223.235097 110.958042 222.709890 114.541958 222.578589 118.125874 223.366399 121.709790 222.841192 125.293706 225.007669 128.877622 225.467225 132.461538 219.886905 136.045455 219.821254 139.629371 215.947856 143.213287 211.877506 146.797203 212.468363 150.381119 210.498839 153.965035 208.266711 157.548951 203.277249 161.132867 204.327662 164.716783 202.358137 168.300699 203.211598 171.884615 202.948995 175.468531 203.933757 179.052448 204.721567 182.636364 207.084996 186.220280 208.594965 189.804196 203.671154 193.388112 203.802455 196.972028 205.903281 200.555944 201.570327 204.139860 200.651216 207.723776 200.519914 211.307692 202.226836 214.891608 202.423788 218.475524 202.686391 222.059441 204.327662 225.643357 205.049821 229.227273 208.135409 232.811189 208.529314 236.395105 203.933757 239.979021 194.545690 243.562937 195.596103 247.146853 198.222136 250.730769 197.565628 254.314685 193.757880 257.898601 194.808293 261.482517 195.530452 265.066434 194.020484 268.650350 184.566766 272.234266 187.783656 275.818182 186.601941 279.402098 187.521053 282.986014 189.031022 286.569930 181.415527 290.153846 180.759019 293.737762 177.345176 297.321678 176.229112 300.905594 178.592542 304.489510 180.627717 308.073427 181.218574 311.657343 182.072035 315.241259 176.623017 318.825175 177.082573 322.409091 170.911396 325.993007 163.952410 329.576923 160.932472 333.160839 161.654631 336.744755 163.098949 340.328671 165.002823 343.912587 168.219713 347.496503 172.880921 351.080420 175.835207 354.664336 177.607780 358.248252 176.557366 361.832168 178.789494 365.416084 171.305301 369.000000 172.027460 372.583916 177.345176 376.167832 181.415527 379.751748 177.279525 383.335664 181.152924 386.919580 184.107210 390.503497 176.229112 394.087413 180.102511 397.671329 174.193937 401.255245 166.841046 404.839161 164.543267 408.423077 166.184537 412.006993 162.967647 415.590909 164.871521 419.174825 163.558505 422.758741 167.825808 426.342657 171.239650 429.926573 171.370952 433.510490 175.900858 437.094406 176.426065 440.678322 182.203337 444.262238 173.077873 447.846154 173.537429 451.430070 155.746058 455.013986 152.726120 458.597902 151.741358 462.181818 156.796471 465.765734 140.121163 469.349650 147.802309 472.933566 148.590119 476.517483 152.726120 480.101399 142.747196 483.685315 141.631132 487.269231 133.621733 490.853147 135.985162 494.437063 128.369667 498.020979 125.284079 501.604895 131.652208 505.188811 115.764711 508.772727 121.935887 512.356643 129.354429 515.940559 142.025037 519.524476 140.843322 523.108392 125.152777 526.692308 132.636970 530.276224 135.197352 533.860140 126.597095 537.444056 109.659185 541.027972 111.234804 544.611888 83.201906 548.195804 60.814977 551.779720 59.239358 555.363636 64.491423 558.947552 53.002530 562.531469 39.938018 566.115385 51.952117 569.699301 56.678976 573.283217 68.693075 576.867133 84.777525 580.451049 82.414096 584.034965 70.728250 587.618881 75.258157 591.202797 87.140955 594.786713 92.852576 598.370629 94.953402 601.954545 96.135116 605.538462 108.871375 609.122378 120.360268 612.706294 125.677984 616.290210 130.207890 619.874126 122.723697 623.458042 125.743635 627.041958 129.682684 630.625874 137.166877 634.209790 126.268841 637.793706 138.939449 641.377622 158.175138 644.961538 165.790633 648.545455 136.247765 652.129371 146.948848 655.713287 167.234951 659.297203 182.794194 662.881119 179.380352 666.465035 203.014645 670.048951 210.236235 673.632867 197.106072 677.216783 239.385198 680.800699 243.061643 684.384615 245.950279 687.968531 253.697076 691.552448 225.532875 695.136364 146.226689 698.720280 169.204475 702.304196 10.001245 705.888112 95.347307 709.472028 141.302878 713.055944 190.540990 716.639860 262.756888 720.223776 334.972786 723.807692 269.321970"/></g><g class="series serie-1 color-1"><path class="line reactive nofill" d="M14.192308 453.144256 L17.776224 210.236235 21.360140 272.604511 24.944056 243.061643 28.527972 175.244350 32.111888 164.280664 35.695804 43.942717 39.279720 8.885181 42.863636 88.782225 46.447552 51.033006 50.031469 97.316831 53.615385 172.749619 57.199301 170.845745 60.783217 138.020337 64.367133 187.652354 67.951049 186.601941 71.534965 164.280664 75.118881 146.554943 78.702797 186.142386 82.286713 177.936034 85.870629 182.991146 89.454545 163.755457 93.038462 154.170438 96.622378 161.457679 100.206294 175.769557 103.790210 183.188099 107.374126 194.939595 110.958042 201.701629 114.541958 203.671154 118.125874 198.025183 121.709790 202.752042 125.293706 188.440164 128.877622 185.485877 132.461538 221.856430 136.045455 222.119033 139.629371 239.582150 143.213287 253.828377 146.797203 250.414535 150.381119 255.469648 153.965035 260.656062 157.548951 270.569335 161.132867 267.286795 164.716783 270.044129 168.300699 267.680700 171.884615 266.827239 175.468531 264.201206 179.052448 262.034729 182.636364 255.600949 186.220280 251.530599 189.804196 261.115618 193.388112 260.853015 196.972028 255.666600 200.555944 262.494285 204.139860 262.231682 207.723776 261.312570 211.307692 257.767426 214.891608 256.323108 218.475524 254.878790 222.059441 251.596250 225.643357 249.364122 229.227273 243.389898 232.811189 242.011230 236.395105 248.445010 239.979021 259.343046 243.562937 257.767426 247.146853 253.828377 250.730769 253.959679 254.314685 257.701775 257.898601 256.191807 261.482517 255.272695 265.066434 256.454410 268.650350 264.989016 272.234266 260.918665 275.818182 261.378221 279.402098 259.277395 282.986014 256.585712 286.569930 262.362983 290.153846 262.034729 293.737762 263.544698 297.321678 263.610349 300.905594 261.246920 304.489510 259.211744 308.073427 258.686538 311.657343 257.833077 315.241259 260.262157 318.825175 258.883490 322.409091 262.297333 325.993007 264.923365 329.576923 266.170731 333.160839 264.529460 336.744755 263.479047 340.328671 261.969079 343.912587 259.605649 347.496503 256.060505 351.080420 253.762726 354.664336 252.449710 358.248252 252.449710 361.832168 250.808440 365.416084 253.762726 369.000000 252.449710 372.583916 248.904566 376.167832 246.147232 379.751748 247.525899 383.335664 245.031168 386.919580 242.602088 390.503497 245.490724 394.087413 243.258596 397.671329 245.293771 401.255245 247.854153 404.839161 248.248058 408.423077 247.460248 412.006993 248.248058 415.590909 247.328946 419.174825 247.263296 422.758741 245.228120 426.342657 243.586850 429.926573 242.864691 433.510490 240.763865 437.094406 239.976055 440.678322 237.350022 444.262238 240.304309 447.846154 239.582150 451.430070 244.702914 455.013986 245.031168 458.597902 244.637263 462.181818 242.864691 465.765734 246.212883 469.349650 243.718152 472.933566 243.455548 476.517483 242.142532 480.101399 243.783802 483.685315 243.324247 487.269231 243.980755 490.853147 243.324247 494.437063 243.652501 498.020979 243.521199 501.604895 242.011230 505.188811 243.980755 508.772727 242.602088 512.356643 240.895166 515.940559 238.006531 519.524476 237.546975 523.108392 239.319547 526.692308 237.809578 530.276224 237.284372 533.860140 238.203483 537.444056 239.647801 541.027972 239.385198 544.611888 242.076881 548.195804 243.127294 551.779720 242.076881 555.363636 241.354722 558.947552 241.617325 562.531469 241.945580 566.115385 240.501262 569.699301 239.910404 573.283217 238.466086 576.867133 236.562213 580.451049 235.774403 584.034965 236.037006 587.618881 235.511800 591.202797 234.264434 594.786713 233.673577 598.370629 233.476624 601.954545 233.345323 605.538462 231.966655 609.122378 230.784941 612.706294 230.194083 616.290210 229.734528 619.874126 229.800179 623.458042 229.471924 627.041958 229.143670 630.625874 228.355861 634.209790 228.749765 637.793706 227.633702 641.377622 225.861130 644.961538 224.745066 648.545455 226.123733 652.129371 225.335923 655.713287 223.891605 659.297203 222.841192 662.881119 222.775541 666.465035 221.265572 670.048951 220.806017 673.632867 221.528176 677.216783 219.099095 680.800699 218.902143 684.384615 218.705191 687.968531 218.508238 691.552448 219.952556 695.136364 221.987731 698.720280 221.462525 702.304196 222.709890 705.888112 221.725128 709.472028 221.134271 713.055944 220.543413 716.639860 219.689953 720.223776 218.770841 723.807692 219.886905"/></g><g class="series serie-2 color-2"><path class="line reactive nofill" d="M14.192308 220.149509 L17.776224 220.149509 21.360140 220.149509 24.944056 220.149509 28.527972 220.149509 32.111888 220.149509 35.695804 220.149509 39.279720 220.149509 42.863636 220.149509 46.447552 220.149509 50.031469 220.149509 53.615385 220.149509 57.199301 220.149509 60.783217 220.149509 64.367133 220.149509 67.951049 220.149509 71.534965 220.149509 75.118881 220.149509 78.702797 220.149509 82.286713 220.149509 85.870629 220.149509 89.454545 220.149509 93.038462 220.149509 96.622378 220.149509 100.206294 220.149509 103.790210 220.149509 107.374126 220.149509 110.958042 220.149509 114.541958 220.149509 118.125874 220.149509 121.709790 220.149509 125.293706 220.149509 128.877622 220.149509 132.461538 220.149509 136.045455 220.149509 139.629371 220.149509 143.213287 220.149509 146.797203 220.149509 150.381119 220.149509 153.965035 220.149509 157.548951 220.149509 161.132867 220.149509 164.716783 220.149509 168.300699 220.149509 171.884615 220.149509 175.468531 220.149509 179.052448 220.149509 182.636364 220.149509 186.220280 220.149509 189.804196 220.149509 193.388112 220.149509 196.972028 220.149509 200.555944 220.149509 204.139860 220.149509 207.723776 220.149509 211.307692 220.149509 214.891608 220.149509 218.475524 220.149509 222.059441 220.149509 225.643357 220.149509 229.227273 220.149509 232.811189 220.149509 236.395105 220.149509 239.979021 220.149509 243.562937 220.149509 247.146853 220.149509 250.730769 220.149509 254.314685 220.149509 257.898601 220.149509 261.482517 220.149509 265.066434 220.149509 268.650350 220.149509 272.234266 220.149509 275.818182 220.149509 279.402098 220.149509 282.986014 220.149509 286.569930 220.149509 290.153846 220.149509 293.737762 220.149509 297.321678 220.149509 300.905594 220.149509 304.489510 220.149509 308.073427 220.149509 311.657343 220.149509 315.241259 220.149509 318.825175 220.149509 322.409091 220.149509 325.993007 220.149509 329.576923 220.149509 333.160839 220.149509 336.744755 220.149509 340.328671 220.149509 343.912587 220.149509 347.496503 220.149509 351.080420 220.149509 354.664336 220.149509 358.248252 220.149509 361.832168 220.149509 365.416084 220.149509 369.000000 220.149509 372.583916 220.149509 376.167832 220.149509 379.751748 220.149509 383.335664 220.149509 386.919580 220.149509 390.503497 220.149509 394.087413 220.149509 397.671329 220.149509 401.255245 220.149509 404.839161 220.149509 408.423077 220.149509 412.006993 220.149509 415.590909 220.149509 419.174825 220.149509 422.758741 220.149509 426.342657 220.149509 429.926573 220.149509 433.510490 220.149509 437.094406 220.149509 440.678322 220.149509 444.262238 220.149509 447.846154 220.149509 451.430070 220.149509 455.013986 220.149509 458.597902 220.149509 462.181818 220.149509 465.765734 220.149509 469.349650 220.149509 472.933566 220.149509 476.517483 220.149509 480.101399 220.149509 483.685315 220.149509 487.269231 220.149509 490.853147 220.149509 494.437063 220.149509 498.020979 220.149509 501.604895 220.149509 505.188811 220.149509 508.772727 220.149509 512.356643 220.149509 515.940559 220.149509 519.524476 220.149509 523.108392 220.149509 526.692308 220.149509 530.276224 220.149509 533.860140 220.149509 537.444056 220.149509 541.027972 220.149509 544.611888 220.149509 548.195804 220.149509 551.779720 220.149509 555.363636 220.149509 558.947552 220.149509 562.531469 220.149509 566.115385 220.149509 569.699301 220.149509 573.283217 220.149509 576.867133 220.149509 580.451049 220.149509 584.034965 220.149509 587.618881 220.149509 591.202797 220.149509 594.786713 220.149509 598.370629 220.149509 601.954545 220.149509 605.538462 220.149509 609.122378 220.149509 612.706294 220.149509 616.290210 220.149509 619.874126 220.149509 623.458042 220.149509 627.041958 220.149509 630.625874 220.149509 634.209790 220.149509 637.793706 220.149509 641.377622 220.149509 644.961538 220.149509 648.545455 220.149509 652.129371 220.149509 655.713287 220.149509 659.297203 220.149509 662.881119 220.149509 666.465035 220.149509 670.048951 220.149509 673.632867 220.149509 677.216783 220.149509 680.800699 220.149509 684.384615 220.149509 687.968531 220.149509 691.552448 220.149509 695.136364 220.149509 698.720280 220.149509 702.304196 220.149509 705.888112 220.149509 709.472028 220.149509 713.055944 220.149509 716.639860 220.149509 720.223776 220.149509 723.807692 220.149509"/></g></g><g class="titles"><text class="title plot_title" x="400.0" y="26">CH Gayle: Future and Past Averages in ODIs</text></g><g class="plot overlay" transform="translate(42, 46)"><g class="series serie-0 color-0"><g class="dots"><desc class="label">167 wickets in 199 innings (1237.2 overs)</desc><circle class="dot reactive tooltip-trigger" cx="14.192307692307692" cy="220.1495085188615" r="2.5"/><desc class="value">35.49</desc><desc class="x ">14.192307692307692</desc><desc class="y ">220.1495085188615</desc><desc class="x_label">1999</desc></g><g class="dots"><desc class="label">164 wickets in 193 innings (1195.3 overs)</desc><circle class="dot reactive tooltip-trigger" cx="35.69580419580419" cy="223.432049336656" r="2.5"/><desc class="value">34.99</desc><desc class="x ">35.69580419580419</desc><desc class="y ">223.432049336656</desc><desc class="x_label">2000</desc></g><g class="dots"><desc class="label">155 wickets in 181 innings (1119.1 overs)</desc><circle class="dot reactive tooltip-trigger" cx="78.70279720279721" cy="222.84119198945305" r="2.5"/><desc class="value">35.08</desc><desc class="x ">78.70279720279721</desc><desc class="y ">222.84119198945305</desc><desc class="x_label">2001</desc></g><g class="dots"><desc class="label">145 wickets in 168 innings (1039.3 overs)</desc><circle class="dot reactive tooltip-trigger" cx="125.2937062937063" cy="225.00766892919742" r="2.5"/><desc class="value">34.75</desc><desc class="x ">125.2937062937063</desc><desc class="y ">225.00766892919742</desc><desc class="x_label">2002</desc></g><g class="dots"><desc class="label">116 wickets in 147 innings (913.2 overs)</desc><circle class="dot reactive tooltip-trigger" cx="200.55594405594408" cy="201.5703274901445" r="2.5"/><desc class="value">38.32</desc><desc class="x ">200.55594405594408</desc><desc class="y ">201.5703274901445</desc><desc class="x_label">2003</desc></g><g class="dots"><desc class="label">93 wickets in 128 innings (769.2 overs)</desc><circle class="dot reactive tooltip-trigger" cx="268.6503496503496" cy="184.56676605396893" r="2.5"/><desc class="value">40.91</desc><desc class="x ">268.6503496503496</desc><desc class="y ">184.56676605396893</desc><desc class="x_label">2004</desc></g><g class="dots"><desc class="label">72 wickets in 110 innings (640.4 overs)</desc><circle class="dot reactive tooltip-trigger" cx="333.16083916083915" cy="161.65463114576312" r="2.5"/><desc class="value">44.4</desc><desc class="x ">333.16083916083915</desc><desc class="y ">161.65463114576312</desc><desc class="x_label">2005</desc></g><g class="dots"><desc class="label">67 wickets in 98 innings (573.5 overs)</desc><circle class="dot reactive tooltip-trigger" cx="376.16783216783216" cy="181.41552686888616" r="2.5"/><desc class="value">41.39</desc><desc class="x left">376.16783216783216</desc><desc class="y left">181.41552686888616</desc><desc class="x_label">2006</desc></g><g class="dots"><desc class="label">38 wickets in 68 innings (343.4 overs)</desc><circle class="dot reactive tooltip-trigger" cx="483.6853146853147" cy="141.63113215721654" r="2.5"/><desc class="value">47.45</desc><desc class="x left">483.6853146853147</desc><desc class="y left">141.63113215721654</desc><desc class="x_label">2007</desc></g><g class="dots"><desc class="label">25 wickets in 53 innings (246.3 overs)</desc><circle class="dot reactive tooltip-trigger" cx="537.4440559440559" cy="109.65918459189794" r="2.5"/><desc class="value">52.32</desc><desc class="x left">537.4440559440559</desc><desc class="y left">109.65918459189794</desc><desc class="x_label">2008</desc></g><g class="dots"><desc class="label">17 wickets in 41 innings (180.0 overs)</desc><circle class="dot reactive tooltip-trigger" cx="580.451048951049" cy="82.41409580420338" r="2.5"/><desc class="value">56.47</desc><desc class="x left">580.451048951049</desc><desc class="y left">82.41409580420338</desc><desc class="x_label">2009</desc></g><g class="dots"><desc class="label">16 wickets in 31 innings (154.3 overs)</desc><circle class="dot reactive tooltip-trigger" cx="616.2902097902098" cy="130.20789011129165" r="2.5"/><desc class="value">49.19</desc><desc class="x left">616.2902097902098</desc><desc class="y left">130.20789011129165</desc><desc class="x_label">2010</desc></g><g class="dots"><desc class="label">11 wickets in 22 innings (101.2 overs)</desc><circle class="dot reactive tooltip-trigger" cx="648.5454545454545" cy="136.24776521603349" r="2.5"/><desc class="value">48.27</desc><desc class="x left">648.5454545454545</desc><desc class="y left">136.24776521603349</desc><desc class="x_label">2011</desc></g><g class="dots"><desc class="label">11 wickets in 19 innings (81.2 overs)</desc><circle class="dot reactive tooltip-trigger" cx="659.2972027972028" cy="182.79419401235987" r="2.5"/><desc class="value">41.18</desc><desc class="x left">659.2972027972028</desc><desc class="y left">182.79419401235987</desc><desc class="x_label">2012</desc></g><g class="dots"><desc class="label">10 wickets in 18 innings (71.2 overs)</desc><circle class="dot reactive tooltip-trigger" cx="662.8811188811188" cy="179.3803515618535" r="2.5"/><desc class="value">41.7</desc><desc class="x left">662.8811188811188</desc><desc class="y left">179.3803515618535</desc><desc class="x_label">2013</desc></g><g class="dots"><desc class="label">10 wickets in 16 innings (65.2 overs)</desc><circle class="dot reactive tooltip-trigger" cx="670.048951048951" cy="210.23623524912207" r="2.5"/><desc class="value">37</desc><desc class="x left">670.048951048951</desc><desc class="y left">210.23623524912207</desc><desc class="x_label">2014</desc></g><g class="dots"><desc class="label">9 wickets in 14 innings (53.2 overs)</desc><circle class="dot reactive tooltip-trigger" cx="677.2167832167833" cy="239.3851977111374" r="2.5"/><desc class="value">32.56</desc><desc class="x left top">677.2167832167833</desc><desc class="y left top">239.3851977111374</desc><desc class="x_label">2015</desc></g><g class="dots"><desc class="label">4 wickets in 9 innings (33.4 overs)</desc><circle class="dot reactive tooltip-trigger" cx="695.1363636363635" cy="146.22668930212888" r="2.5"/><desc class="value">46.75</desc><desc class="x left">695.1363636363635</desc><desc class="y left">146.22668930212888</desc><desc class="x_label">2018</desc></g><g class="dots"><desc class="label">2 wickets in 5 innings (17.0 overs)</desc><circle class="dot reactive tooltip-trigger" cx="709.472027972028" cy="141.30287807543715" r="2.5"/><desc class="value">47.5</desc><desc class="x left">709.472027972028</desc><desc class="y left">141.30287807543715</desc><desc class="x_label">2019</desc></g></g><g class="series serie-1 color-1"><g class="dots"><desc class="label">0 wickets over 0 innings</desc><circle class="dot reactive tooltip-trigger" cx="14.192307692307692" cy="453.1442557659166" r="2.5"/><desc class="value">0</desc><desc class="x top">14.192307692307692</desc><desc class="y top">453.1442557659166</desc><desc class="x_label">1999</desc></g><g class="dots"><desc class="label">3 wickets in 6 innings (41.5 overs)</desc><circle class="dot reactive tooltip-trigger" cx="35.69580419580419" cy="43.942717419651615" r="2.5"/><desc class="value">62.33</desc><desc class="x ">35.69580419580419</desc><desc class="y ">43.942717419651615</desc><desc class="x_label">2000</desc></g><g class="dots"><desc class="label">12 wickets in 18 innings (118.1 overs)</desc><circle class="dot reactive tooltip-trigger" cx="78.70279720279721" cy="186.14238564651026" r="2.5"/><desc class="value">40.67</desc><desc class="x ">78.70279720279721</desc><desc class="y ">186.14238564651026</desc><desc class="x_label">2001</desc></g><g class="dots"><desc class="label">22 wickets in 31 innings (197.5 overs)</desc><circle class="dot reactive tooltip-trigger" cx="125.2937062937063" cy="188.4401642189664" r="2.5"/><desc class="value">40.32</desc><desc class="x ">125.2937062937063</desc><desc class="y ">188.4401642189664</desc><desc class="x_label">2002</desc></g><g class="dots"><desc class="label">51 wickets in 52 innings (324.0 overs)</desc><circle class="dot reactive tooltip-trigger" cx="200.55594405594408" cy="262.4942850684108" r="2.5"/><desc class="value">29.04</desc><desc class="x top">200.55594405594408</desc><desc class="y top">262.4942850684108</desc><desc class="x_label">2003</desc></g><g class="dots"><desc class="label">74 wickets in 71 innings (468.0 overs)</desc><circle class="dot reactive tooltip-trigger" cx="268.6503496503496" cy="264.9890160899347" r="2.5"/><desc class="value">28.66</desc><desc class="x top">268.6503496503496</desc><desc class="y top">264.9890160899347</desc><desc class="x_label">2004</desc></g><g class="dots"><desc class="label">95 wickets in 89 innings (596.4 overs)</desc><circle class="dot reactive tooltip-trigger" cx="333.16083916083915" cy="264.5294603754435" r="2.5"/><desc class="value">28.73</desc><desc class="x top">333.16083916083915</desc><desc class="y top">264.5294603754435</desc><desc class="x_label">2005</desc></g><g class="dots"><desc class="label">100 wickets in 101 innings (663.3 overs)</desc><circle class="dot reactive tooltip-trigger" cx="376.16783216783216" cy="246.1472317957941" r="2.5"/><desc class="value">31.53</desc><desc class="x left top">376.16783216783216</desc><desc class="y left top">246.1472317957941</desc><desc class="x_label">2006</desc></g><g class="dots"><desc class="label">129 wickets in 131 innings (893.4 overs)</desc><circle class="dot reactive tooltip-trigger" cx="483.6853146853147" cy="243.32424669249082" r="2.5"/><desc class="value">31.96</desc><desc class="x left top">483.6853146853147</desc><desc class="y left top">243.32424669249082</desc><desc class="x_label">2007</desc></g><g class="dots"><desc class="label">142 wickets in 146 innings (990.5 overs)</desc><circle class="dot reactive tooltip-trigger" cx="537.4440559440559" cy="239.64780097656094" r="2.5"/><desc class="value">32.52</desc><desc class="x left top">537.4440559440559</desc><desc class="y left top">239.64780097656094</desc><desc class="x_label">2008</desc></g><g class="dots"><desc class="label">150 wickets in 158 innings (1057.2 overs)</desc><circle class="dot reactive tooltip-trigger" cx="580.451048951049" cy="235.77440281156342" r="2.5"/><desc class="value">33.11</desc><desc class="x left top">580.451048951049</desc><desc class="y left top">235.77440281156342</desc><desc class="x_label">2009</desc></g><g class="dots"><desc class="label">151 wickets in 168 innings (1082.5 overs)</desc><circle class="dot reactive tooltip-trigger" cx="616.2902097902098" cy="229.7345277068215" r="2.5"/><desc class="value">34.03</desc><desc class="x left">616.2902097902098</desc><desc class="y left">229.7345277068215</desc><desc class="x_label">2010</desc></g><g class="dots"><desc class="label">156 wickets in 177 innings (1136.0 overs)</desc><circle class="dot reactive tooltip-trigger" cx="648.5454545454545" cy="226.12373280724756" r="2.5"/><desc class="value">34.58</desc><desc class="x left">648.5454545454545</desc><desc class="y left">226.12373280724756</desc><desc class="x_label">2011</desc></g><g class="dots"><desc class="label">156 wickets in 180 innings (1156.0 overs)</desc><circle class="dot reactive tooltip-trigger" cx="659.2972027972028" cy="222.84119198945305" r="2.5"/><desc class="value">35.08</desc><desc class="x left">659.2972027972028</desc><desc class="y left">222.84119198945305</desc><desc class="x_label">2012</desc></g><g class="dots"><desc class="label">157 wickets in 181 innings (1166.0 overs)</desc><circle class="dot reactive tooltip-trigger" cx="662.8811188811188" cy="222.7755411730971" r="2.5"/><desc class="value">35.09</desc><desc class="x left">662.8811188811188</desc><desc class="y left">222.7755411730971</desc><desc class="x_label">2013</desc></g><g class="dots"><desc class="label">157 wickets in 183 innings (1172.0 overs)</desc><circle class="dot reactive tooltip-trigger" cx="670.048951048951" cy="220.8060166824204" r="2.5"/><desc class="value">35.39</desc><desc class="x left">670.048951048951</desc><desc class="y left">220.8060166824204</desc><desc class="x_label">2014</desc></g><g class="dots"><desc class="label">158 wickets in 185 innings (1184.0 overs)</desc><circle class="dot reactive tooltip-trigger" cx="677.2167832167833" cy="219.09909545716727" r="2.5"/><desc class="value">35.65</desc><desc class="x left">677.2167832167833</desc><desc class="y left">219.09909545716727</desc><desc class="x_label">2015</desc></g><g class="dots"><desc class="label">163 wickets in 190 innings (1203.4 overs)</desc><circle class="dot reactive tooltip-trigger" cx="695.1363636363635" cy="221.98773137682645" r="2.5"/><desc class="value">35.21</desc><desc class="x left">695.1363636363635</desc><desc class="y left">221.98773137682645</desc><desc class="x_label">2018</desc></g><g class="dots"><desc class="label">165 wickets in 194 innings (1220.2 overs)</desc><circle class="dot reactive tooltip-trigger" cx="709.472027972028" cy="221.13427076419987" r="2.5"/><desc class="value">35.34</desc><desc class="x left">709.472027972028</desc><desc class="y left">221.13427076419987</desc><desc class="x_label">2019</desc></g></g><g class="series serie-2 color-2"/></g><g class="plot text-overlay" transform="translate(42, 46)"><g class="series serie-0 color-0"/><g class="series serie-1 color-1"/><g class="series serie-2 color-2"/></g><g class="plot tooltip-overlay" transform="translate(42, 46)"><g class="tooltip" style="opacity: 0" transform="translate(0 0)"><rect class="tooltip-box" height="0" rx="10" ry="10" width="0"/><g class="text"/></g></g><g class="legends" transform="translate(52, 545)"><g class="legend reactive activate-serie" id="activate-serie-0"><rect class="color-0 reactive" height="12" width="12" x="0.0" y="1.0"/><text x="17.0" y="11.2">Future Average</text></g><g class="legend reactive activate-serie" id="activate-serie-1"><rect class="color-1 reactive" height="12" width="12" x="369.0" y="1.0"/><text x="386.0" y="11.2">Past Average</text></g><g class="legend reactive activate-serie" id="activate-serie-2"><rect class="color-2 reactive" height="12" width="12" x="0.0" y="22.0"/><text x="17.0" y="32.2">Career Average</text></g></g></g></svg>