<?xml version='1.0' encoding='utf-8'?>
<svg xmlns:xlink="http://www.w3.org/1999/xlink" xmlns="http://www.w3.org/2000/svg" id="chart-8529fc03-8d09-4ec8-94f5-174e2c6eb090" class="pygal-chart" viewBox="0 0 800 600"><!--Generated with pygal 2.4.0 (lxml) ©Kozea 2012-2016 on 2019-08-04--><!--http://pygal.org--><!--http://github.com/Kozea/pygal--><defs><style type="text/css">#chart-8529fc03-8d09-4ec8-94f5-174e2c6eb090{-webkit-user-select:none;-webkit-font-smoothing:antialiased;font-family:Consolas,"Liberation Mono",Menlo,Courier,monospace}#chart-8529fc03-8d09-4ec8-94f5-174e2c6eb090 .title{font-family:Consolas,"Liberation Mono",Menlo,Courier,monospace;font-size:16px}#chart-8529fc03-8d09-4ec8-94f5-174e2c6eb090 .legends .legend text{font-family:Consolas,"Liberation Mono",Menlo,Courier,monospace;font-size:14px}#chart-8529fc03-8d09-4ec8-94f5-174e2c6eb090 .axis text{font-family:Consolas,"Liberation Mono",Menlo,Courier,monospace;font-size:10px}#chart-8529fc03-8d09-4ec8-94f5-174e2c6eb090 .axis text.major{font-family:Consolas,"Liberation Mono",Menlo,Courier,monospace;font-size:10px}#chart-8529fc03-8d09-4ec8-94f5-174e2c6eb090 .text-overlay text.value{font-family:Consolas,"Liberation Mono",Menlo,Courier,monospace;font-size:16px}#chart-8529fc03-8d09-4ec8-94f5-174e2c6eb090 .text-overlay text.label{font-family:Consolas,"Liberation Mono",Menlo,Courier,monospace;font-size:10px}#chart-8529fc03-8d09-4ec8-94f5-174e2c6eb090 .tooltip{font-family:Consolas,"Liberation Mono",Menlo,Courier,monospace;font-size:14px}#chart-8529fc03-8d09-4ec8-94f5-174e2c6eb090 text.no_data{font-family:Consolas,"Liberation Mono",Menlo,Courier,monospace;font-size:64px}
#chart-8529fc03-8d09-4ec8-94f5-174e2c6eb090{background-color:rgba(249,249,249,1)}#chart-8529fc03-8d09-4ec8-94f5-174e2c6eb090 path,#chart-8529fc03-8d09-4ec8-94f5-174e2c6eb090 line,#chart-8529fc03-8d09-4ec8-94f5-174e2c6eb090 rect,#chart-8529fc03-8d09-4ec8-94f5-174e2c6eb090 circle{-webkit-transition:150ms;-moz-transition:150ms;transition:150ms}#chart-8529fc03-8d09-4ec8-94f5-174e2c6eb090 .graph &gt; .background{fill:rgba(249,249,249,1)}#chart-8529fc03-8d09-4ec8-94f5-174e2c6eb090 .plot &gt; .background{fill:rgba(255,255,255,1)}#chart-8529fc03-8d09-4ec8-94f5-174e2c6eb090 .graph{fill:rgba(0,0,0,.87)}#chart-8529fc03-8d09-4ec8-94f5-174e2c6eb090 text.no_data{fill:rgba(0,0,0,1)}#chart-8529fc03-8d09-4ec8-94f5-174e2c6eb090 .title{fill:rgba(0,0,0,1)}#chart-8529fc03-8d09-4ec8-94f5-174e2c6eb090 .legends .legend text{fill:rgba(0,0,0,.87)}#chart-8529fc03-8d09-4ec8-94f5-174e2c6eb090 .legends .legend:hover text{fill:rgba(0,0,0,1)}#chart-8529fc03-8d09-4ec8-94f5-174e2c6eb090 .axis .line{stroke:rgba(0,0,0,1)}#chart-8529fc03-8d09-4ec8-94f5-174e2c6eb090 .axis .guide.line{stroke:rgba(0,0,0,.54)}#chart-8529fc03-8d09-4ec8-94f5-174e2c6eb090 .axis .major.line{stroke:rgba(0,0,0,.87)}#chart-8529fc03-8d09-4ec8-94f5-174e2c6eb090 .axis text.major{fill:rgba(0,0,0,1)}#chart-8529fc03-8d09-4ec8-94f5-174e2c6eb090 .axis.y .guides:hover .guide.line,#chart-8529fc03-8d09-4ec8-94f5-174e2c6eb090 .line-graph .axis.x .guides:hover .guide.line,#chart-8529fc03-8d09-4ec8-94f5-174e2c6eb090 .stackedline-graph .axis.x .guides:hover .guide.line,#chart-8529fc03-8d09-4ec8-94f5-174e2c6eb090 .xy-graph .axis.x .guides:hover .guide.line{stroke:rgba(0,0,0,1)}#chart-8529fc03-8d09-4ec8-94f5-174e2c6eb090 .axis .guides:hover text{fill:rgba(0,0,0,1)}#chart-8529fc03-8d09-4ec8-94f5-174e2c6eb090 .reactive{fill-opacity:.7;stroke-opacity:.8}#chart-8529fc03-8d09-4ec8-94f5-174e2c6eb090 .ci{stroke:rgba(0,0,0,.87)}#chart-8529fc03-8d09-4ec8-94f5-174e2c6eb090 .reactive.active,#chart-8529fc03-8d09-4ec8-94f5-174e2c6eb090 .active .reactive{fill-opacity:.8;stroke-opacity:.9;stroke-width:4}#chart-8529fc03-8d09-4ec8-94f5-174e2c6eb090 .ci .reactive.active{stroke-width:1.5}#chart-8529fc03-8d09-4ec8-94f5-174e2c6eb090 .series text{fill:rgba(0,0,0,1)}#chart-8529fc03-8d09-4ec8-94f5-174e2c6eb090 .tooltip rect{fill:rgba(255,255,255,1);stroke:rgba(0,0,0,1);-webkit-transition:opacity 150ms;-moz-transition:opacity 150ms;transition:opacity 150ms}#chart-8529fc03-8d09-4ec8-94f5-174e2c6eb090 .tooltip .label{fill:rgba(0,0,0,.87)}#chart-8529fc03-8d09-4ec8-94f5-174e2c6eb090 .tooltip .label{fill:rgba(0,0,0,.87)}#chart-8529fc03-8d09-4ec8-94f5-174e2c6eb090 .tooltip .legend{font-size:.8em;fill:rgba(0,0,0,.54)}#chart-8529fc03-8d09-4ec8-94f5-174e2c6eb090 .tooltip .x_label{font-size:.6em;fill:rgba(0,0,0,1)}#chart-8529fc03-8d09-4ec8-94f5-174e2c6eb090 .tooltip .xlink{font-size:.5em;text-decoration:underline}#chart-8529fc03-8d09-4ec8-94f5-174e2c6eb090 .tooltip .value{font-size:1.5em}#chart-8529fc03-8d09-4ec8-94f5-174e2c6eb090 .bound{font-size:.5em}#chart-8529fc03-8d09-4ec8-94f5-174e2c6eb090 .max-value{font-size:.75em;fill:rgba(0,0,0,.54)}#chart-8529fc03-8d09-4ec8-94f5-174e2c6eb090 .map-element{fill:rgba(255,255,255,1);stroke:rgba(0,0,0,.54) !important}#chart-8529fc03-8d09-4ec8-94f5-174e2c6eb090 .map-element .reactive{fill-opacity:inherit;stroke-opacity:inherit}#chart-8529fc03-8d09-4ec8-94f5-174e2c6eb090 .color-0,#chart-8529fc03-8d09-4ec8-94f5-174e2c6eb090 .color-0 a:visited{stroke:red;fill:red}#chart-8529fc03-8d09-4ec8-94f5-174e2c6eb090 .color-1,#chart-8529fc03-8d09-4ec8-94f5-174e2c6eb090 .color-1 a:visited{stroke:blue;fill:blue}#chart-8529fc03-8d09-4ec8-94f5-174e2c6eb090 .color-2,#chart-8529fc03-8d09-4ec8-94f5-174e2c6eb090 .color-2 a:visited{stroke:green;fill:green}#chart-8529fc03-8d09-4ec8-94f5-174e2c6eb090 .text-overlay .color-0 text{fill:white}#chart-8529fc03-8d09-4ec8-94f5-174e2c6eb090 .text-overlay .color-1 text{fill:white}#chart-8529fc03-8d09-4ec8-94f5-174e2c6eb090 .text-overlay .color-2 text{fill:white}
#chart-8529fc03-8d09-4ec8-94f5-174e2c6eb090 text.no_data{text-anchor:middle}#chart-8529fc03-8d09-4ec8-94f5-174e2c6eb090 .guide.line{fill:none}#chart-8529fc03-8d09-4ec8-94f5-174e2c6eb090 .centered{text-anchor:middle}#chart-8529fc03-8d09-4ec8-94f5-174e2c6eb090 .title{text-anchor:middle}#chart-8529fc03-8d09-4ec8-94f5-174e2c6eb090 .legends .legend text{fill-opacity:1}#chart-8529fc03-8d09-4ec8-94f5-174e2c6eb090 .axis.x text{text-anchor:middle}#chart-8529fc03-8d09-4ec8-94f5-174e2c6eb090 .axis.x:not(.web) text[transform]{text-anchor:start}#chart-8529fc03-8d09-4ec8-94f5-174e2c6eb090 .axis.x:not(.web) text[transform].backwards{text-anchor:end}#chart-8529fc03-8d09-4ec8-94f5-174e2c6eb090 .axis.y text{text-anchor:end}#chart-8529fc03-8d09-4ec8-94f5-174e2c6eb090 .axis.y text[transform].backwards{text-anchor:start}#chart-8529fc03-8d09-4ec8-94f5-174e2c6eb090 .axis.y2 text{text-anchor:start}#chart-8529fc03-8d09-4ec8-94f5-174e2c6eb090 .axis.y2 text[transform].backwards{text-anchor:end}#chart-8529fc03-8d09-4ec8-94f5-174e2c6eb090 .axis .guide.line{stroke-dasharray:4,4}#chart-8529fc03-8d09-4ec8-94f5-174e2c6eb090 .axis .major.guide.line{stroke-dasharray:6,6}#chart-8529fc03-8d09-4ec8-94f5-174e2c6eb090 .horizontal .axis.y .guide.line,#chart-8529fc03-8d09-4ec8-94f5-174e2c6eb090 .horizontal .axis.y2 .guide.line,#chart-8529fc03-8d09-4ec8-94f5-174e2c6eb090 .vertical .axis.x .guide.line{opacity:0}#chart-8529fc03-8d09-4ec8-94f5-174e2c6eb090 .horizontal .axis.always_show .guide.line,#chart-8529fc03-8d09-4ec8-94f5-174e2c6eb090 .vertical .axis.always_show .guide.line{opacity:1 !important}#chart-8529fc03-8d09-4ec8-94f5-174e2c6eb090 .axis.y .guides:hover .guide.line,#chart-8529fc03-8d09-4ec8-94f5-174e2c6eb090 .axis.y2 .guides:hover .guide.line,#chart-8529fc03-8d09-4ec8-94f5-174e2c6eb090 .axis.x .guides:hover .guide.line{opacity:1}#chart-8529fc03-8d09-4ec8-94f5-174e2c6eb090 .axis .guides:hover text{opacity:1}#chart-8529fc03-8d09-4ec8-94f5-174e2c6eb090 .nofill{fill:none}#chart-8529fc03-8d09-4ec8-94f5-174e2c6eb090 .subtle-fill{fill-opacity:.2}#chart-8529fc03-8d09-4ec8-94f5-174e2c6eb090 .dot{stroke-width:1px;fill-opacity:1}#chart-8529fc03-8d09-4ec8-94f5-174e2c6eb090 .dot.active{stroke-width:5px}#chart-8529fc03-8d09-4ec8-94f5-174e2c6eb090 .dot.negative{fill:transparent}#chart-8529fc03-8d09-4ec8-94f5-174e2c6eb090 text,#chart-8529fc03-8d09-4ec8-94f5-174e2c6eb090 tspan{stroke:none !important}#chart-8529fc03-8d09-4ec8-94f5-174e2c6eb090 .series text.active{opacity:1}#chart-8529fc03-8d09-4ec8-94f5-174e2c6eb090 .tooltip rect{fill-opacity:.95;stroke-width:.5}#chart-8529fc03-8d09-4ec8-94f5-174e2c6eb090 .tooltip text{fill-opacity:1}#chart-8529fc03-8d09-4ec8-94f5-174e2c6eb090 .showable{visibility:hidden}#chart-8529fc03-8d09-4ec8-94f5-174e2c6eb090 .showable.shown{visibility:visible}#chart-8529fc03-8d09-4ec8-94f5-174e2c6eb090 .gauge-background{fill:rgba(229,229,229,1);stroke:none}#chart-8529fc03-8d09-4ec8-94f5-174e2c6eb090 .bg-lines{stroke:rgba(249,249,249,1);stroke-width:2px}</style><script type="text/javascript">window.pygal = window.pygal || {};window.pygal.config = window.pygal.config || {};window.pygal.config['8529fc03-8d09-4ec8-94f5-174e2c6eb090'] = {"allow_interruptions": false, "box_mode": "extremes", "classes": ["pygal-chart"], "css": ["file://style.css", "file://graph.css"], "defs": [], "disable_xml_declaration": false, "dots_size": 2.5, "dynamic_print_values": false, "explicit_size": false, "fill": false, "force_uri_protocol": "https", "formatter": null, "half_pie": false, "height": 600, "include_x_axis": false, "inner_radius": 0, "interpolate": null, "interpolation_parameters": {}, "interpolation_precision": 250, "inverse_y_axis": false, "js": ["//kozea.github.io/pygal.js/2.0.x/pygal-tooltips.min.js"], "legend_at_bottom": true, "legend_at_bottom_columns": null, "legend_box_size": 12, "logarithmic": false, "margin": 20, "margin_bottom": null, "margin_left": null, "margin_right": null, "margin_top": null, "max_scale": 16, "min_scale": 4, "missing_value_fill_truncation": "x", "no_data_text": "No data", "no_prefix": false, "order_min": null, "pretty_print": false, "print_labels": false, "print_values": false, "print_values_position": "center", "print_zeroes": true, "range": null, "rounded_bars": null, "secondary_range": null, "show_dots": true, "show_legend": true, "show_minor_x_labels": false, "show_minor_y_labels": true, "show_only_major_dots": false, "show_x_guides": false, "show_x_labels": true, "show_y_guides": true, "show_y_labels": true, "spacing": 10, "stack_from_top": false, "strict": false, "stroke": true, "stroke_style": null, "style": {"background": "rgba(249, 249, 249, 1)", "ci_colors": [], "colors": ["red", "blue", "green", "#a3a3a3"], "font_family": "Consolas, \"Liberation Mono\", Menlo, Courier, monospace", "foreground": "rgba(0, 0, 0, .87)", "foreground_strong": "rgba(0, 0, 0, 1)", "foreground_subtle": "rgba(0, 0, 0, .54)", "guide_stroke_dasharray": "4,4", "label_font_family": "Consolas, \"Liberation Mono\", Menlo, Courier, monospace", "label_font_size": 10, "legend_font_family": "Consolas, \"Liberation Mono\", Menlo, Courier, monospace", "legend_font_size": 14, "major_guide_stroke_dasharray": "6,6", "major_label_font_family": "Consolas, \"Liberation Mono\", Menlo, Courier, monospace", "major_label_font_size": 10, "no_data_font_family": "Consolas, \"Liberation Mono\", Menlo, Courier, monospace", "no_data_font_size": 64, "opacity": ".7", "opacity_hover": ".8", "plot_background": "rgba(255, 255, 255, 1)", "stroke_opacity": ".8", "stroke_opacity_hover": ".9", "title_font_family": "Consolas, \"Liberation Mono\", Menlo, Courier, monospace", "title_font_size": 16, "tooltip_font_family": "Consolas, \"Liberation Mono\", Menlo, Courier, monospace", "tooltip_font_size": 14, "transition": "150ms", "value_background": "rgba(229, 229, 229, 1)", "value_colors": [], "value_font_family": "Consolas, \"Liberation Mono\", Menlo, Courier, monospace", "value_font_size": 16, "value_label_font_family": "Consolas, \"Liberation Mono\", Menlo, Courier, monospace", "value_label_font_size": 10}, "title": "CJ McDermott: Future and Past Averages in ODIs", "tooltip_border_radius": 10, "tooltip_fancy_mode": true, "truncate_label": null, "truncate_legend": null, "width": 800, "x_label_rotation": 45, "x_labels": ["1985", "0", "0", "0", "0", "0", "0", "0", "0", "0", "0", "0", "0", "0", "0", "0", "0", "1986", "0", "0", "0", "0", "0", "0", "0", "0", "0", "0", "0", "0", "0", "0", "0", "0", "0", "0", "0", "0", "1987", "0", "0", "0", "0", "0", "0", "0", "0", "1988", "0", "0", "0", "0", "0", "0", "0", "0", "0", "0", "0", "0", "1989", "0", "0", "0", "1990", "1991", "0", "0", "0", "0", "0", "0", "0", "0", "0", "1992", "0", "0", "0", "0", "0", "0", "0", "0", "0", "0", "0", "0", "0", "0", "0", "0", "0", "0", "0", "0", "1993", "0", "0", "0", "0", "0", "0", "0", "0", "0", "0", "0", "1994", "0", "0", "0", "0", "0", "0", "0", "0", "0", "0", "0", "0", "0", "0", "0", "0", "0", "1995", "0", "0", "0", "0", "1996", "0", "0", "0", "0", "0", "0"], "x_labels_major": ["1985", "1986", "1987", "1988", "1989", "1990", "1991", "1992", "1993", "1994", "1995", "1996"], "x_labels_major_count": null, "x_labels_major_every": null, "x_title": null, "xrange": null, "y_label_rotation": 0, "y_labels": null, "y_labels_major": null, "y_labels_major_count": null, "y_labels_major_every": null, "y_title": null, "zero": 110.0, "legends": ["Future Average", "Past Average", "Career Average"]}</script><script type="text/javascript" xlink:href="https://kozea.github.io/pygal.js/2.0.x/pygal-tooltips.min.js"/></defs><title>CJ McDermott: Future and Past Averages in ODIs</title><g class="graph line-graph vertical"><rect class="background" height="600" width="800" x="0" y="0"/><g class="plot" transform="translate(48, 46)"><rect class="background" height="462.02943725152284" width="732.0" x="0" y="0"/><g class="axis y always_show"><g class="guides"><path class="axis major line" d="M0.000000 453.144256 h732.000000"/><text class="major" x="-5" y="456.6442557659166">0</text><title>0</title></g><g class="guides"><path class="guide line" d="M0.000000 409.158209 h732.000000"/><text class="" x="-5" y="412.65820880747003">10</text><title>10</title></g><g class="guides"><path class="guide line" d="M0.000000 365.172162 h732.000000"/><text class="" x="-5" y="368.6721618490235">20</text><title>20</title></g><g class="guides"><path class="guide line" d="M0.000000 321.186115 h732.000000"/><text class="" x="-5" y="324.68611489057685">30</text><title>30</title></g><g class="guides"><path class="guide line" d="M0.000000 277.200068 h732.000000"/><text class="" x="-5" y="280.7000679321303">40</text><title>40</title></g><g class="guides"><path class="major guide line" d="M0.000000 233.214021 h732.000000"/><text class="major" x="-5" y="236.71402097368372">50</text><title>50</title></g><g class="guides"><path class="guide line" d="M0.000000 189.227974 h732.000000"/><text class="" x="-5" y="192.72797401523712">60</text><title>60</title></g><g class="guides"><path class="guide line" d="M0.000000 145.241927 h732.000000"/><text class="" x="-5" y="148.7419270567906">70</text><title>70</title></g><g class="guides"><path class="guide line" d="M0.000000 101.255880 h732.000000"/><text class="" x="-5" y="104.755880098344">80</text><title>80</title></g><g class="guides"><path class="guide line" d="M0.000000 57.269833 h732.000000"/><text class="" x="-5" y="60.7698331398974">90</text><title>90</title></g><g class="guides"><path class="major guide line" d="M0.000000 13.283786 h732.000000"/><text class="major" x="-5" y="16.783786181450807">100</text><title>100</title></g></g><g class="axis x"><g class="guides"><path class="major line" d="M14.076923 0.000000 v462.029437"/><text class="major" x="14.076923076923077" y="477.02943725152284" transform="rotate(45 14.076923 477.029437)">1985</text></g><g class="guides"><path class="major guide line" d="M101.415497 0.000000 v462.029437"/><text class="major" x="101.41549691184728" y="477.02943725152284" transform="rotate(45 101.415497 477.029437)">1986</text></g><g class="guides"><path class="major guide line" d="M209.304323 0.000000 v462.029437"/><text class="major" x="209.30432341381245" y="477.02943725152284" transform="rotate(45 209.304323 477.029437)">1987</text></g><g class="guides"><path class="major guide line" d="M255.542392 0.000000 v462.029437"/><text class="major" x="255.54239191465473" y="477.02943725152284" transform="rotate(45 255.542392 477.029437)">1988</text></g><g class="guides"><path class="major guide line" d="M322.330713 0.000000 v462.029437"/><text class="major" x="322.33071308253795" y="477.02943725152284" transform="rotate(45 322.330713 477.029437)">1989</text></g><g class="guides"><path class="major guide line" d="M342.880966 0.000000 v462.029437"/><text class="major" x="342.8809657495789" y="477.02943725152284" transform="rotate(45 342.880966 477.029437)">1990</text></g><g class="guides"><path class="major guide line" d="M348.018529 0.000000 v462.029437"/><text class="major" x="348.0185289163391" y="477.02943725152284" transform="rotate(45 348.018529 477.029437)">1991</text></g><g class="guides"><path class="major guide line" d="M399.394161 0.000000 v462.029437"/><text class="major" x="399.3941605839416" y="477.02943725152284" transform="rotate(45 399.394161 477.029437)">1992</text></g><g class="guides"><path class="major guide line" d="M507.282987 0.000000 v462.029437"/><text class="major" x="507.2829870859068" y="477.02943725152284" transform="rotate(45 507.282987 477.029437)">1993</text></g><g class="guides"><path class="major guide line" d="M568.933745 0.000000 v462.029437"/><text class="major" x="568.9337450870297" y="477.02943725152284" transform="rotate(45 568.933745 477.029437)">1994</text></g><g class="guides"><path class="major guide line" d="M661.409882 0.000000 v462.029437"/><text class="major" x="661.4098820887142" y="477.02943725152284" transform="rotate(45 661.409882 477.029437)">1995</text></g><g class="guides"><path class="major guide line" d="M687.097698 0.000000 v462.029437"/><text class="major" x="687.0976979225154" y="477.02943725152284" transform="rotate(45 687.097698 477.029437)">1996</text></g></g><g class="series serie-0 color-0"><path class="line reactive nofill" d="M14.076923 344.410748 L19.214486 345.026552 24.352049 346.082217 29.489613 345.730329 34.627176 344.762636 39.764739 345.554385 44.902302 346.126204 50.039865 346.917952 55.177428 346.654036 60.314992 345.994245 65.452555 347.313827 70.590118 347.005924 75.727681 346.214176 80.865244 347.445785 86.002807 346.566064 91.140371 345.906273 96.277934 346.082217 101.415497 346.126204 106.553060 346.038231 111.690623 345.598371 116.828186 346.126204 121.965750 346.873966 127.103313 347.401799 132.240876 348.105576 137.378439 346.742008 142.516002 347.313827 147.653565 346.785994 152.791129 348.237534 157.928692 348.941311 163.066255 349.865018 168.203818 350.304878 173.341381 351.052641 178.478944 351.536487 183.616508 352.152292 188.754071 352.944041 193.891634 354.967399 199.029197 355.979078 204.166760 356.023064 209.304323 357.694534 214.441887 358.926143 219.579450 358.090408 224.717013 357.870478 229.854576 358.090408 234.992139 357.958450 240.129702 358.618241 245.267266 358.618241 250.404829 356.638869 255.542392 357.562576 260.679955 358.002436 265.817518 357.826492 270.955081 357.342645 276.092645 356.946771 281.230208 356.858799 286.367771 357.782506 291.505334 358.090408 296.642897 357.870478 301.780460 357.386632 306.918024 358.134394 312.055587 358.398311 317.193150 358.178380 322.330713 356.374952 327.468276 356.155022 332.605839 356.550897 337.743403 358.266352 342.880966 358.442297 348.018529 358.970129 353.156092 356.858799 358.293655 355.319287 363.431218 356.199008 368.568782 356.023064 373.706345 354.395580 378.843908 355.187329 383.981471 352.988027 389.119034 350.832711 394.256597 349.996976 399.394161 349.117255 404.531724 347.973617 409.669287 346.126204 414.806850 344.410748 419.944413 344.542706 425.081976 343.838929 430.219540 343.443055 435.357103 344.762636 440.494666 345.378441 445.632229 347.049911 450.769792 347.269841 455.907355 347.797673 461.044919 347.929631 466.182482 346.785994 471.320045 349.293199 476.457608 350.568794 481.595171 351.008655 486.732734 353.075999 491.870298 352.284250 497.007861 348.853338 502.145424 351.140613 507.282987 353.032013 512.420550 353.207957 517.558113 351.756418 522.695677 352.064320 527.833240 353.383901 532.970803 352.548166 538.108366 349.952990 543.245929 346.214176 548.383492 347.225855 553.521056 345.554385 558.658619 344.630678 563.796182 342.959208 568.933745 341.903543 574.071308 343.399069 579.208871 344.982566 584.346435 340.979836 589.483998 342.827250 594.621561 346.126204 599.759124 351.712431 604.896687 347.181869 610.034250 351.844390 615.171814 351.580473 620.309377 351.536487 625.446940 345.466413 630.584503 342.827250 635.722066 344.454734 640.859629 354.351594 645.997193 359.234046 651.134756 365.348106 656.272319 367.767339 661.409882 362.181111 666.547445 351.976348 671.685008 341.155780 676.822572 356.726841 681.960135 342.387390 687.097698 337.328994 692.235261 358.310339 697.372824 357.650548 702.510387 353.735790 707.647951 377.488255 712.785514 354.175650 717.923077 400.360999"/></g><g class="series serie-1 color-1"><path class="line reactive nofill" d="M14.076923 453.144256 L19.214486 224.416812 24.352049 8.885181 29.489613 256.658584 34.627176 332.930389 39.764739 306.538761 44.902302 296.070082 50.039865 283.270142 55.177428 300.952533 60.314992 321.186115 65.452555 302.228129 70.590118 311.817087 75.727681 325.848636 80.865244 313.356599 86.002807 325.804650 91.140371 333.282278 96.277934 333.018362 101.415497 333.590180 106.553060 334.689831 111.690623 337.768855 116.828186 334.821789 121.965750 330.687101 127.103313 327.871994 132.240876 324.045208 137.378439 332.842417 142.516002 330.951017 147.653565 334.161999 152.791129 327.784022 157.928692 324.792971 163.066255 320.702268 168.203818 319.602617 173.341381 317.447301 178.478944 316.347650 183.616508 313.884431 188.754071 310.761422 193.891634 302.711975 199.029197 298.753231 204.166760 299.940854 209.304323 293.518891 214.441887 290.395882 219.579450 299.017147 224.717013 301.040505 229.854576 301.436380 234.992139 305.043236 240.129702 304.251487 245.267266 306.230859 250.404829 315.247999 255.542392 313.840445 260.679955 312.740794 265.817518 314.632194 270.955081 317.579259 276.092645 319.558631 281.230208 320.746254 286.367771 319.558631 291.505334 319.514645 296.642897 320.966185 301.780460 322.769613 306.918024 321.977864 312.055587 322.461710 317.193150 323.693320 322.330713 327.828008 327.468276 328.751715 332.605839 328.883673 337.743403 326.684371 342.880966 326.816329 348.018529 326.508427 353.156092 330.247241 358.293655 332.710459 363.431218 331.786752 368.568782 332.446543 373.706345 334.733817 378.843908 334.161999 383.981471 336.713189 389.119034 339.000464 394.256597 339.880185 399.394161 340.759906 404.531724 341.727599 409.669287 343.223124 414.806850 344.410748 419.944413 344.322776 425.081976 344.762636 430.219540 344.982566 435.357103 344.190817 440.494666 343.838929 445.632229 342.827250 450.769792 342.739278 455.907355 342.475362 461.044919 342.431376 466.182482 343.135152 471.320045 341.859557 476.457608 341.243752 481.595171 341.111794 486.732734 340.056129 491.870298 340.539976 497.007861 342.431376 502.145424 341.463683 507.282987 340.627948 512.420550 340.627948 517.558113 341.419696 522.695677 341.375710 527.833240 340.935850 532.970803 341.375710 538.108366 342.519348 543.245929 343.838929 548.383492 343.531027 553.521056 344.058859 558.658619 344.366762 563.796182 344.806622 568.933745 345.070538 574.071308 344.674664 579.208871 344.278790 584.346435 345.202497 589.483998 344.762636 594.621561 344.058859 599.759124 342.827250 604.896687 343.882915 610.034250 342.959208 615.171814 343.091166 620.309377 343.179138 625.446940 344.234803 630.584503 344.630678 635.722066 344.410748 640.859629 343.091166 645.997193 342.519348 651.134756 341.727599 656.272319 341.595641 661.409882 342.563334 666.547445 343.750957 671.685008 344.630678 676.822572 343.575013 681.960135 344.542706 687.097698 344.762636 692.235261 343.750957 697.372824 343.926901 702.510387 344.190817 707.647951 343.575013 712.785514 344.322776 717.923077 344.146831"/></g><g class="series serie-2 color-2"><path class="line reactive nofill" d="M14.076923 344.410748 L19.214486 344.410748 24.352049 344.410748 29.489613 344.410748 34.627176 344.410748 39.764739 344.410748 44.902302 344.410748 50.039865 344.410748 55.177428 344.410748 60.314992 344.410748 65.452555 344.410748 70.590118 344.410748 75.727681 344.410748 80.865244 344.410748 86.002807 344.410748 91.140371 344.410748 96.277934 344.410748 101.415497 344.410748 106.553060 344.410748 111.690623 344.410748 116.828186 344.410748 121.965750 344.410748 127.103313 344.410748 132.240876 344.410748 137.378439 344.410748 142.516002 344.410748 147.653565 344.410748 152.791129 344.410748 157.928692 344.410748 163.066255 344.410748 168.203818 344.410748 173.341381 344.410748 178.478944 344.410748 183.616508 344.410748 188.754071 344.410748 193.891634 344.410748 199.029197 344.410748 204.166760 344.410748 209.304323 344.410748 214.441887 344.410748 219.579450 344.410748 224.717013 344.410748 229.854576 344.410748 234.992139 344.410748 240.129702 344.410748 245.267266 344.410748 250.404829 344.410748 255.542392 344.410748 260.679955 344.410748 265.817518 344.410748 270.955081 344.410748 276.092645 344.410748 281.230208 344.410748 286.367771 344.410748 291.505334 344.410748 296.642897 344.410748 301.780460 344.410748 306.918024 344.410748 312.055587 344.410748 317.193150 344.410748 322.330713 344.410748 327.468276 344.410748 332.605839 344.410748 337.743403 344.410748 342.880966 344.410748 348.018529 344.410748 353.156092 344.410748 358.293655 344.410748 363.431218 344.410748 368.568782 344.410748 373.706345 344.410748 378.843908 344.410748 383.981471 344.410748 389.119034 344.410748 394.256597 344.410748 399.394161 344.410748 404.531724 344.410748 409.669287 344.410748 414.806850 344.410748 419.944413 344.410748 425.081976 344.410748 430.219540 344.410748 435.357103 344.410748 440.494666 344.410748 445.632229 344.410748 450.769792 344.410748 455.907355 344.410748 461.044919 344.410748 466.182482 344.410748 471.320045 344.410748 476.457608 344.410748 481.595171 344.410748 486.732734 344.410748 491.870298 344.410748 497.007861 344.410748 502.145424 344.410748 507.282987 344.410748 512.420550 344.410748 517.558113 344.410748 522.695677 344.410748 527.833240 344.410748 532.970803 344.410748 538.108366 344.410748 543.245929 344.410748 548.383492 344.410748 553.521056 344.410748 558.658619 344.410748 563.796182 344.410748 568.933745 344.410748 574.071308 344.410748 579.208871 344.410748 584.346435 344.410748 589.483998 344.410748 594.621561 344.410748 599.759124 344.410748 604.896687 344.410748 610.034250 344.410748 615.171814 344.410748 620.309377 344.410748 625.446940 344.410748 630.584503 344.410748 635.722066 344.410748 640.859629 344.410748 645.997193 344.410748 651.134756 344.410748 656.272319 344.410748 661.409882 344.410748 666.547445 344.410748 671.685008 344.410748 676.822572 344.410748 681.960135 344.410748 687.097698 344.410748 692.235261 344.410748 697.372824 344.410748 702.510387 344.410748 707.647951 344.410748 712.785514 344.410748 717.923077 344.410748"/></g></g><g class="titles"><text class="title plot_title" x="400.0" y="26">CJ McDermott: Future and Past Averages in ODIs</text></g><g class="plot overlay" transform="translate(48, 46)"><g class="series serie-0 color-0"><g class="dots"><desc class="label">203 wickets in 138 innings (1243.3 overs)</desc><circle class="dot reactive tooltip-trigger" cx="14.076923076923077" cy="344.4107476846367" r="2.5"/><desc class="value">24.72</desc><desc class="x top">14.076923076923077</desc><desc class="y top">344.4107476846367</desc><desc class="x_label">1985</desc></g><g class="dots"><desc class="label">175 wickets in 121 innings (1080.2 overs)</desc><circle class="dot reactive tooltip-trigger" cx="101.41549691184728" cy="346.1262035160161" r="2.5"/><desc class="value">24.33</desc><desc class="x top">101.41549691184728</desc><desc class="y top">346.1262035160161</desc><desc class="x_label">1986</desc></g><g class="dots"><desc class="label">161 wickets in 100 innings (894.1 overs)</desc><circle class="dot reactive tooltip-trigger" cx="209.30432341381245" cy="357.69453386608757" r="2.5"/><desc class="value">21.7</desc><desc class="x top">209.30432341381245</desc><desc class="y top">357.69453386608757</desc><desc class="x_label">1987</desc></g><g class="dots"><desc class="label">142 wickets in 91 innings (811.1 overs)</desc><circle class="dot reactive tooltip-trigger" cx="255.54239191465473" cy="357.56257572521224" r="2.5"/><desc class="value">21.73</desc><desc class="x top">255.54239191465473</desc><desc class="y top">357.56257572521224</desc><desc class="x_label">1988</desc></g><g class="dots"><desc class="label">118 wickets in 78 innings (695.0 overs)</desc><circle class="dot reactive tooltip-trigger" cx="322.33071308253795" cy="356.37495245733413" r="2.5"/><desc class="value">22</desc><desc class="x top">322.33071308253795</desc><desc class="y top">356.37495245733413</desc><desc class="x_label">1989</desc></g><g class="dots"><desc class="label">113 wickets in 74 innings (660.0 overs)</desc><circle class="dot reactive tooltip-trigger" cx="342.8809657495789" cy="358.44229666438116" r="2.5"/><desc class="value">21.53</desc><desc class="x top">342.8809657495789</desc><desc class="y top">358.44229666438116</desc><desc class="x_label">1990</desc></g><g class="dots"><desc class="label">112 wickets in 73 innings (652.0 overs)</desc><circle class="dot reactive tooltip-trigger" cx="348.0185289163391" cy="358.97012922788247" r="2.5"/><desc class="value">21.41</desc><desc class="x top">348.0185289163391</desc><desc class="y top">358.97012922788247</desc><desc class="x_label">1991</desc></g><g class="dots"><desc class="label">89 wickets in 63 innings (567.0 overs)</desc><circle class="dot reactive tooltip-trigger" cx="399.3941605839416" cy="349.1172547091905" r="2.5"/><desc class="value">23.65</desc><desc class="x left top">399.3941605839416</desc><desc class="y left top">349.1172547091905</desc><desc class="x_label">1992</desc></g><g class="dots"><desc class="label">62 wickets in 42 innings (381.1 overs)</desc><circle class="dot reactive tooltip-trigger" cx="507.2829870859068" cy="353.0320128884922" r="2.5"/><desc class="value">22.76</desc><desc class="x left top">507.2829870859068</desc><desc class="y left top">353.0320128884922</desc><desc class="x_label">1993</desc></g><g class="dots"><desc class="label">42 wickets in 30 innings (267.1 overs)</desc><circle class="dot reactive tooltip-trigger" cx="568.9337450870297" cy="341.9035430080052" r="2.5"/><desc class="value">25.29</desc><desc class="x left top">568.9337450870297</desc><desc class="y left top">341.9035430080052</desc><desc class="x_label">1994</desc></g><g class="dots"><desc class="label">19 wickets in 12 innings (98.5 overs)</desc><circle class="dot reactive tooltip-trigger" cx="661.4098820887142" cy="362.1811106558491" r="2.5"/><desc class="value">20.68</desc><desc class="x left top">661.4098820887142</desc><desc class="y left top">362.1811106558491</desc><desc class="x_label">1995</desc></g><g class="dots"><desc class="label">9 wickets in 7 innings (56.0 overs)</desc><circle class="dot reactive tooltip-trigger" cx="687.0976979225154" cy="337.3289941243268" r="2.5"/><desc class="value">26.33</desc><desc class="x left top">687.0976979225154</desc><desc class="y left top">337.3289941243268</desc><desc class="x_label">1996</desc></g></g><g class="series serie-1 color-1"><g class="dots"><desc class="label">0 wickets over 0 innings</desc><circle class="dot reactive tooltip-trigger" cx="14.076923076923077" cy="453.1442557659166" r="2.5"/><desc class="value">0</desc><desc class="x top">14.076923076923077</desc><desc class="y top">453.1442557659166</desc><desc class="x_label">1985</desc></g><g class="dots"><desc class="label">28 wickets in 17 innings (163.1 overs)</desc><circle class="dot reactive tooltip-trigger" cx="101.41549691184728" cy="333.5901801328588" r="2.5"/><desc class="value">27.18</desc><desc class="x top">101.41549691184728</desc><desc class="y top">333.5901801328588</desc><desc class="x_label">1986</desc></g><g class="dots"><desc class="label">42 wickets in 38 innings (349.2 overs)</desc><circle class="dot reactive tooltip-trigger" cx="209.30432341381245" cy="293.51889135371397" r="2.5"/><desc class="value">36.29</desc><desc class="x top">209.30432341381245</desc><desc class="y top">293.51889135371397</desc><desc class="x_label">1987</desc></g><g class="dots"><desc class="label">61 wickets in 47 innings (432.2 overs)</desc><circle class="dot reactive tooltip-trigger" cx="255.54239191465473" cy="313.8404450485163" r="2.5"/><desc class="value">31.67</desc><desc class="x top">255.54239191465473</desc><desc class="y top">313.8404450485163</desc><desc class="x_label">1988</desc></g><g class="dots"><desc class="label">85 wickets in 60 innings (548.3 overs)</desc><circle class="dot reactive tooltip-trigger" cx="322.33071308253795" cy="327.82800798130233" r="2.5"/><desc class="value">28.49</desc><desc class="x top">322.33071308253795</desc><desc class="y top">327.82800798130233</desc><desc class="x_label">1989</desc></g><g class="dots"><desc class="label">90 wickets in 64 innings (583.3 overs)</desc><circle class="dot reactive tooltip-trigger" cx="342.8809657495789" cy="326.8163289012581" r="2.5"/><desc class="value">28.72</desc><desc class="x top">342.8809657495789</desc><desc class="y top">326.8163289012581</desc><desc class="x_label">1990</desc></g><g class="dots"><desc class="label">91 wickets in 65 innings (591.3 overs)</desc><circle class="dot reactive tooltip-trigger" cx="348.0185289163391" cy="326.50842657254896" r="2.5"/><desc class="value">28.79</desc><desc class="x top">348.0185289163391</desc><desc class="y top">326.50842657254896</desc><desc class="x_label">1991</desc></g><g class="dots"><desc class="label">114 wickets in 75 innings (676.3 overs)</desc><circle class="dot reactive tooltip-trigger" cx="399.3941605839416" cy="340.7599057870856" r="2.5"/><desc class="value">25.55</desc><desc class="x left top">399.3941605839416</desc><desc class="y left top">340.7599057870856</desc><desc class="x_label">1992</desc></g><g class="dots"><desc class="label">141 wickets in 96 innings (862.2 overs)</desc><circle class="dot reactive tooltip-trigger" cx="507.2829870859068" cy="340.62794764621026" r="2.5"/><desc class="value">25.58</desc><desc class="x left top">507.2829870859068</desc><desc class="y left top">340.62794764621026</desc><desc class="x_label">1993</desc></g><g class="dots"><desc class="label">161 wickets in 108 innings (976.2 overs)</desc><circle class="dot reactive tooltip-trigger" cx="568.9337450870297" cy="345.0705383890134" r="2.5"/><desc class="value">24.57</desc><desc class="x left top">568.9337450870297</desc><desc class="y left top">345.0705383890134</desc><desc class="x_label">1994</desc></g><g class="dots"><desc class="label">184 wickets in 126 innings (1144.4 overs)</desc><circle class="dot reactive tooltip-trigger" cx="661.4098820887142" cy="342.5633337123819" r="2.5"/><desc class="value">25.14</desc><desc class="x left top">661.4098820887142</desc><desc class="y left top">342.5633337123819</desc><desc class="x_label">1995</desc></g><g class="dots"><desc class="label">194 wickets in 131 innings (1187.3 overs)</desc><circle class="dot reactive tooltip-trigger" cx="687.0976979225154" cy="344.76263606030426" r="2.5"/><desc class="value">24.64</desc><desc class="x left top">687.0976979225154</desc><desc class="y left top">344.76263606030426</desc><desc class="x_label">1996</desc></g></g><g class="series serie-2 color-2"/></g><g class="plot text-overlay" transform="translate(48, 46)"><g class="series serie-0 color-0"/><g class="series serie-1 color-1"/><g class="series serie-2 color-2"/></g><g class="plot tooltip-overlay" transform="translate(48, 46)"><g class="tooltip" style="opacity: 0" transform="translate(0 0)"><rect class="tooltip-box" height="0" rx="10" ry="10" width="0"/><g class="text"/></g></g><g class="legends" transform="translate(58, 545)"><g class="legend reactive activate-serie" id="activate-serie-0"><rect class="color-0 reactive" height="12" width="12" x="0.0" y="1.0"/><text x="17.0" y="11.2">Future Average</text></g><g class="legend reactive activate-serie" id="activate-serie-1"><rect class="color-1 reactive" height="12" width="12" x="366.0" y="1.0"/><text x="383.0" y="11.2">Past Average</text></g><g class="legend reactive activate-serie" id="activate-serie-2"><rect class="color-2 reactive" height="12" width="12" x="0.0" y="22.0"/><text x="17.0" y="32.2">Career Average</text></g></g></g></svg>