<?xml version='1.0' encoding='utf-8'?>
<svg xmlns:xlink="http://www.w3.org/1999/xlink" xmlns="http://www.w3.org/2000/svg" id="chart-d10690bb-070c-49dd-a421-499c7c0b9968" class="pygal-chart" viewBox="0 0 800 600"><!--Generated with pygal 2.4.0 (lxml) ©Kozea 2012-2016 on 2019-08-04--><!--http://pygal.org--><!--http://github.com/Kozea/pygal--><defs><style type="text/css">#chart-d10690bb-070c-49dd-a421-499c7c0b9968{-webkit-user-select:none;-webkit-font-smoothing:antialiased;font-family:Consolas,"Liberation Mono",Menlo,Courier,monospace}#chart-d10690bb-070c-49dd-a421-499c7c0b9968 .title{font-family:Consolas,"Liberation Mono",Menlo,Courier,monospace;font-size:16px}#chart-d10690bb-070c-49dd-a421-499c7c0b9968 .legends .legend text{font-family:Consolas,"Liberation Mono",Menlo,Courier,monospace;font-size:14px}#chart-d10690bb-070c-49dd-a421-499c7c0b9968 .axis text{font-family:Consolas,"Liberation Mono",Menlo,Courier,monospace;font-size:10px}#chart-d10690bb-070c-49dd-a421-499c7c0b9968 .axis text.major{font-family:Consolas,"Liberation Mono",Menlo,Courier,monospace;font-size:10px}#chart-d10690bb-070c-49dd-a421-499c7c0b9968 .text-overlay text.value{font-family:Consolas,"Liberation Mono",Menlo,Courier,monospace;font-size:16px}#chart-d10690bb-070c-49dd-a421-499c7c0b9968 .text-overlay text.label{font-family:Consolas,"Liberation Mono",Menlo,Courier,monospace;font-size:10px}#chart-d10690bb-070c-49dd-a421-499c7c0b9968 .tooltip{font-family:Consolas,"Liberation Mono",Menlo,Courier,monospace;font-size:14px}#chart-d10690bb-070c-49dd-a421-499c7c0b9968 text.no_data{font-family:Consolas,"Liberation Mono",Menlo,Courier,monospace;font-size:64px}
#chart-d10690bb-070c-49dd-a421-499c7c0b9968{background-color:rgba(249,249,249,1)}#chart-d10690bb-070c-49dd-a421-499c7c0b9968 path,#chart-d10690bb-070c-49dd-a421-499c7c0b9968 line,#chart-d10690bb-070c-49dd-a421-499c7c0b9968 rect,#chart-d10690bb-070c-49dd-a421-499c7c0b9968 circle{-webkit-transition:150ms;-moz-transition:150ms;transition:150ms}#chart-d10690bb-070c-49dd-a421-499c7c0b9968 .graph &gt; .background{fill:rgba(249,249,249,1)}#chart-d10690bb-070c-49dd-a421-499c7c0b9968 .plot &gt; .background{fill:rgba(255,255,255,1)}#chart-d10690bb-070c-49dd-a421-499c7c0b9968 .graph{fill:rgba(0,0,0,.87)}#chart-d10690bb-070c-49dd-a421-499c7c0b9968 text.no_data{fill:rgba(0,0,0,1)}#chart-d10690bb-070c-49dd-a421-499c7c0b9968 .title{fill:rgba(0,0,0,1)}#chart-d10690bb-070c-49dd-a421-499c7c0b9968 .legends .legend text{fill:rgba(0,0,0,.87)}#chart-d10690bb-070c-49dd-a421-499c7c0b9968 .legends .legend:hover text{fill:rgba(0,0,0,1)}#chart-d10690bb-070c-49dd-a421-499c7c0b9968 .axis .line{stroke:rgba(0,0,0,1)}#chart-d10690bb-070c-49dd-a421-499c7c0b9968 .axis .guide.line{stroke:rgba(0,0,0,.54)}#chart-d10690bb-070c-49dd-a421-499c7c0b9968 .axis .major.line{stroke:rgba(0,0,0,.87)}#chart-d10690bb-070c-49dd-a421-499c7c0b9968 .axis text.major{fill:rgba(0,0,0,1)}#chart-d10690bb-070c-49dd-a421-499c7c0b9968 .axis.y .guides:hover .guide.line,#chart-d10690bb-070c-49dd-a421-499c7c0b9968 .line-graph .axis.x .guides:hover .guide.line,#chart-d10690bb-070c-49dd-a421-499c7c0b9968 .stackedline-graph .axis.x .guides:hover .guide.line,#chart-d10690bb-070c-49dd-a421-499c7c0b9968 .xy-graph .axis.x .guides:hover .guide.line{stroke:rgba(0,0,0,1)}#chart-d10690bb-070c-49dd-a421-499c7c0b9968 .axis .guides:hover text{fill:rgba(0,0,0,1)}#chart-d10690bb-070c-49dd-a421-499c7c0b9968 .reactive{fill-opacity:.7;stroke-opacity:.8}#chart-d10690bb-070c-49dd-a421-499c7c0b9968 .ci{stroke:rgba(0,0,0,.87)}#chart-d10690bb-070c-49dd-a421-499c7c0b9968 .reactive.active,#chart-d10690bb-070c-49dd-a421-499c7c0b9968 .active .reactive{fill-opacity:.8;stroke-opacity:.9;stroke-width:4}#chart-d10690bb-070c-49dd-a421-499c7c0b9968 .ci .reactive.active{stroke-width:1.5}#chart-d10690bb-070c-49dd-a421-499c7c0b9968 .series text{fill:rgba(0,0,0,1)}#chart-d10690bb-070c-49dd-a421-499c7c0b9968 .tooltip rect{fill:rgba(255,255,255,1);stroke:rgba(0,0,0,1);-webkit-transition:opacity 150ms;-moz-transition:opacity 150ms;transition:opacity 150ms}#chart-d10690bb-070c-49dd-a421-499c7c0b9968 .tooltip .label{fill:rgba(0,0,0,.87)}#chart-d10690bb-070c-49dd-a421-499c7c0b9968 .tooltip .label{fill:rgba(0,0,0,.87)}#chart-d10690bb-070c-49dd-a421-499c7c0b9968 .tooltip .legend{font-size:.8em;fill:rgba(0,0,0,.54)}#chart-d10690bb-070c-49dd-a421-499c7c0b9968 .tooltip .x_label{font-size:.6em;fill:rgba(0,0,0,1)}#chart-d10690bb-070c-49dd-a421-499c7c0b9968 .tooltip .xlink{font-size:.5em;text-decoration:underline}#chart-d10690bb-070c-49dd-a421-499c7c0b9968 .tooltip .value{font-size:1.5em}#chart-d10690bb-070c-49dd-a421-499c7c0b9968 .bound{font-size:.5em}#chart-d10690bb-070c-49dd-a421-499c7c0b9968 .max-value{font-size:.75em;fill:rgba(0,0,0,.54)}#chart-d10690bb-070c-49dd-a421-499c7c0b9968 .map-element{fill:rgba(255,255,255,1);stroke:rgba(0,0,0,.54) !important}#chart-d10690bb-070c-49dd-a421-499c7c0b9968 .map-element .reactive{fill-opacity:inherit;stroke-opacity:inherit}#chart-d10690bb-070c-49dd-a421-499c7c0b9968 .color-0,#chart-d10690bb-070c-49dd-a421-499c7c0b9968 .color-0 a:visited{stroke:red;fill:red}#chart-d10690bb-070c-49dd-a421-499c7c0b9968 .color-1,#chart-d10690bb-070c-49dd-a421-499c7c0b9968 .color-1 a:visited{stroke:blue;fill:blue}#chart-d10690bb-070c-49dd-a421-499c7c0b9968 .color-2,#chart-d10690bb-070c-49dd-a421-499c7c0b9968 .color-2 a:visited{stroke:green;fill:green}#chart-d10690bb-070c-49dd-a421-499c7c0b9968 .text-overlay .color-0 text{fill:white}#chart-d10690bb-070c-49dd-a421-499c7c0b9968 .text-overlay .color-1 text{fill:white}#chart-d10690bb-070c-49dd-a421-499c7c0b9968 .text-overlay .color-2 text{fill:white}
#chart-d10690bb-070c-49dd-a421-499c7c0b9968 text.no_data{text-anchor:middle}#chart-d10690bb-070c-49dd-a421-499c7c0b9968 .guide.line{fill:none}#chart-d10690bb-070c-49dd-a421-499c7c0b9968 .centered{text-anchor:middle}#chart-d10690bb-070c-49dd-a421-499c7c0b9968 .title{text-anchor:middle}#chart-d10690bb-070c-49dd-a421-499c7c0b9968 .legends .legend text{fill-opacity:1}#chart-d10690bb-070c-49dd-a421-499c7c0b9968 .axis.x text{text-anchor:middle}#chart-d10690bb-070c-49dd-a421-499c7c0b9968 .axis.x:not(.web) text[transform]{text-anchor:start}#chart-d10690bb-070c-49dd-a421-499c7c0b9968 .axis.x:not(.web) text[transform].backwards{text-anchor:end}#chart-d10690bb-070c-49dd-a421-499c7c0b9968 .axis.y text{text-anchor:end}#chart-d10690bb-070c-49dd-a421-499c7c0b9968 .axis.y text[transform].backwards{text-anchor:start}#chart-d10690bb-070c-49dd-a421-499c7c0b9968 .axis.y2 text{text-anchor:start}#chart-d10690bb-070c-49dd-a421-499c7c0b9968 .axis.y2 text[transform].backwards{text-anchor:end}#chart-d10690bb-070c-49dd-a421-499c7c0b9968 .axis .guide.line{stroke-dasharray:4,4}#chart-d10690bb-070c-49dd-a421-499c7c0b9968 .axis .major.guide.line{stroke-dasharray:6,6}#chart-d10690bb-070c-49dd-a421-499c7c0b9968 .horizontal .axis.y .guide.line,#chart-d10690bb-070c-49dd-a421-499c7c0b9968 .horizontal .axis.y2 .guide.line,#chart-d10690bb-070c-49dd-a421-499c7c0b9968 .vertical .axis.x .guide.line{opacity:0}#chart-d10690bb-070c-49dd-a421-499c7c0b9968 .horizontal .axis.always_show .guide.line,#chart-d10690bb-070c-49dd-a421-499c7c0b9968 .vertical .axis.always_show .guide.line{opacity:1 !important}#chart-d10690bb-070c-49dd-a421-499c7c0b9968 .axis.y .guides:hover .guide.line,#chart-d10690bb-070c-49dd-a421-499c7c0b9968 .axis.y2 .guides:hover .guide.line,#chart-d10690bb-070c-49dd-a421-499c7c0b9968 .axis.x .guides:hover .guide.line{opacity:1}#chart-d10690bb-070c-49dd-a421-499c7c0b9968 .axis .guides:hover text{opacity:1}#chart-d10690bb-070c-49dd-a421-499c7c0b9968 .nofill{fill:none}#chart-d10690bb-070c-49dd-a421-499c7c0b9968 .subtle-fill{fill-opacity:.2}#chart-d10690bb-070c-49dd-a421-499c7c0b9968 .dot{stroke-width:1px;fill-opacity:1}#chart-d10690bb-070c-49dd-a421-499c7c0b9968 .dot.active{stroke-width:5px}#chart-d10690bb-070c-49dd-a421-499c7c0b9968 .dot.negative{fill:transparent}#chart-d10690bb-070c-49dd-a421-499c7c0b9968 text,#chart-d10690bb-070c-49dd-a421-499c7c0b9968 tspan{stroke:none !important}#chart-d10690bb-070c-49dd-a421-499c7c0b9968 .series text.active{opacity:1}#chart-d10690bb-070c-49dd-a421-499c7c0b9968 .tooltip rect{fill-opacity:.95;stroke-width:.5}#chart-d10690bb-070c-49dd-a421-499c7c0b9968 .tooltip text{fill-opacity:1}#chart-d10690bb-070c-49dd-a421-499c7c0b9968 .showable{visibility:hidden}#chart-d10690bb-070c-49dd-a421-499c7c0b9968 .showable.shown{visibility:visible}#chart-d10690bb-070c-49dd-a421-499c7c0b9968 .gauge-background{fill:rgba(229,229,229,1);stroke:none}#chart-d10690bb-070c-49dd-a421-499c7c0b9968 .bg-lines{stroke:rgba(249,249,249,1);stroke-width:2px}</style><script type="text/javascript">window.pygal = window.pygal || {};window.pygal.config = window.pygal.config || {};window.pygal.config['d10690bb-070c-49dd-a421-499c7c0b9968'] = {"allow_interruptions": false, "box_mode": "extremes", "classes": ["pygal-chart"], "css": ["file://style.css", "file://graph.css"], "defs": [], "disable_xml_declaration": false, "dots_size": 2.5, "dynamic_print_values": false, "explicit_size": false, "fill": false, "force_uri_protocol": "https", "formatter": null, "half_pie": false, "height": 600, "include_x_axis": false, "inner_radius": 0, "interpolate": null, "interpolation_parameters": {}, "interpolation_precision": 250, "inverse_y_axis": false, "js": ["//kozea.github.io/pygal.js/2.0.x/pygal-tooltips.min.js"], "legend_at_bottom": true, "legend_at_bottom_columns": null, "legend_box_size": 12, "logarithmic": false, "margin": 20, "margin_bottom": null, "margin_left": null, "margin_right": null, "margin_top": null, "max_scale": 16, "min_scale": 4, "missing_value_fill_truncation": "x", "no_data_text": "No data", "no_prefix": false, "order_min": null, "pretty_print": false, "print_labels": false, "print_values": false, "print_values_position": "center", "print_zeroes": true, "range": null, "rounded_bars": null, "secondary_range": null, "show_dots": true, "show_legend": true, "show_minor_x_labels": false, "show_minor_y_labels": true, "show_only_major_dots": false, "show_x_guides": false, "show_x_labels": true, "show_y_guides": true, "show_y_labels": true, "spacing": 10, "stack_from_top": false, "strict": false, "stroke": true, "stroke_style": null, "style": {"background": "rgba(249, 249, 249, 1)", "ci_colors": [], "colors": ["red", "blue", "green", "#a3a3a3"], "font_family": "Consolas, \"Liberation Mono\", Menlo, Courier, monospace", "foreground": "rgba(0, 0, 0, .87)", "foreground_strong": "rgba(0, 0, 0, 1)", "foreground_subtle": "rgba(0, 0, 0, .54)", "guide_stroke_dasharray": "4,4", "label_font_family": "Consolas, \"Liberation Mono\", Menlo, Courier, monospace", "label_font_size": 10, "legend_font_family": "Consolas, \"Liberation Mono\", Menlo, Courier, monospace", "legend_font_size": 14, "major_guide_stroke_dasharray": "6,6", "major_label_font_family": "Consolas, \"Liberation Mono\", Menlo, Courier, monospace", "major_label_font_size": 10, "no_data_font_family": "Consolas, \"Liberation Mono\", Menlo, Courier, monospace", "no_data_font_size": 64, "opacity": ".7", "opacity_hover": ".8", "plot_background": "rgba(255, 255, 255, 1)", "stroke_opacity": ".8", "stroke_opacity_hover": ".9", "title_font_family": "Consolas, \"Liberation Mono\", Menlo, Courier, monospace", "title_font_size": 16, "tooltip_font_family": "Consolas, \"Liberation Mono\", Menlo, Courier, monospace", "tooltip_font_size": 14, "transition": "150ms", "value_background": "rgba(229, 229, 229, 1)", "value_colors": [], "value_font_family": "Consolas, \"Liberation Mono\", Menlo, Courier, monospace", "value_font_size": 16, "value_label_font_family": "Consolas, \"Liberation Mono\", Menlo, Courier, monospace", "value_label_font_size": 10}, "title": "CL Cairns: Future and Past Averages in ODIs", "tooltip_border_radius": 10, "tooltip_fancy_mode": true, "truncate_label": null, "truncate_legend": null, "width": 800, "x_label_rotation": 45, "x_labels": ["1991", "0", "1992", "0", "0", "0", "0", "0", "0", "0", "1993", "0", "0", "1994", "0", "0", "0", "0", "0", "0", "0", "0", "1995", "0", "0", "0", "0", "0", "0", "0", "0", "0", "0", "0", "0", "1996", "0", "0", "0", "0", "0", "0", "0", "0", "0", "0", "0", "0", "0", "0", "0", "0", "0", "0", "1997", "0", "0", "0", "0", "0", "0", "0", "0", "1998", "0", "0", "0", "0", "0", "0", "0", "0", "0", "0", "0", "0", "0", "0", "0", "0", "0", "0", "0", "1999", "0", "0", "0", "0", "0", "0", "0", "0", "0", "0", "0", "0", "0", "0", "0", "0", "0", "0", "0", "2000", "0", "0", "0", "0", "0", "0", "0", "0", "0", "0", "0", "0", "0", "0", "0", "0", "0", "0", "0", "0", "2001", "2002", "0", "0", "0", "0", "0", "0", "0", "0", "0", "0", "0", "0", "2003", "0", "0", "0", "0", "0", "0", "0", "0", "0", "0", "2004", "0", "0", "0", "0", "0", "0", "0", "0", "0", "0", "0", "0", "0", "0", "0", "0", "0", "0", "0", "0", "0", "2005", "0", "0", "0", "0", "0", "0", "0", "0", "0", "0", "0", "2006", "0", "0"], "x_labels_major": ["1991", "1992", "1993", "1994", "1995", "1996", "1997", "1998", "1999", "2000", "2001", "2002", "2003", "2004", "2005", "2006"], "x_labels_major_count": null, "x_labels_major_every": null, "x_title": null, "xrange": null, "y_label_rotation": 0, "y_labels": null, "y_labels_major": null, "y_labels_major_count": null, "y_labels_major_every": null, "y_title": null, "zero": 80.0, "legends": ["Future Average", "Past Average", "Career Average"]}</script><script type="text/javascript" xlink:href="https://kozea.github.io/pygal.js/2.0.x/pygal-tooltips.min.js"/></defs><title>CL Cairns: Future and Past Averages in ODIs</title><g class="graph line-graph vertical"><rect class="background" height="600" width="800" x="0" y="0"/><g class="plot" transform="translate(42, 46)"><rect class="background" height="462.02943725152284" width="738.0" x="0" y="0"/><g class="axis y always_show"><g class="guides"><path class="axis major line" d="M0.000000 453.144256 h738.000000"/><text class="major" x="-5" y="456.6442557659166">0</text><title>0</title></g><g class="guides"><path class="guide line" d="M0.000000 393.909713 h738.000000"/><text class="" x="-5" y="397.4097125285419">10</text><title>10</title></g><g class="guides"><path class="guide line" d="M0.000000 334.675169 h738.000000"/><text class="" x="-5" y="338.1751692911672">20</text><title>20</title></g><g class="guides"><path class="guide line" d="M0.000000 275.440626 h738.000000"/><text class="" x="-5" y="278.94062605379247">30</text><title>30</title></g><g class="guides"><path class="guide line" d="M0.000000 216.206083 h738.000000"/><text class="" x="-5" y="219.70608281641776">40</text><title>40</title></g><g class="guides"><path class="major guide line" d="M0.000000 156.971540 h738.000000"/><text class="major" x="-5" y="160.47153957904305">50</text><title>50</title></g><g class="guides"><path class="guide line" d="M0.000000 97.736996 h738.000000"/><text class="" x="-5" y="101.23699634166832">60</text><title>60</title></g><g class="guides"><path class="guide line" d="M0.000000 38.502453 h738.000000"/><text class="" x="-5" y="42.00245310429358">70</text><title>70</title></g></g><g class="axis x"><g class="guides"><path class="major line" d="M14.192308 0.000000 v462.029437"/><text class="major" x="14.192307692307692" y="477.02943725152284" transform="rotate(45 14.192308 477.029437)">1991</text></g><g class="guides"><path class="major guide line" d="M21.863825 0.000000 v462.029437"/><text class="major" x="21.863825363825363" y="477.02943725152284" transform="rotate(45 21.863825 477.029437)">1992</text></g><g class="guides"><path class="major guide line" d="M52.549896 0.000000 v462.029437"/><text class="major" x="52.549896049896056" y="477.02943725152284" transform="rotate(45 52.549896 477.029437)">1993</text></g><g class="guides"><path class="major guide line" d="M64.057173 0.000000 v462.029437"/><text class="major" x="64.05717255717256" y="477.02943725152284" transform="rotate(45 64.057173 477.029437)">1994</text></g><g class="guides"><path class="major guide line" d="M98.579002 0.000000 v462.029437"/><text class="major" x="98.57900207900208" y="477.02943725152284" transform="rotate(45 98.579002 477.029437)">1995</text></g><g class="guides"><path class="major guide line" d="M148.443867 0.000000 v462.029437"/><text class="major" x="148.44386694386694" y="477.02943725152284" transform="rotate(45 148.443867 477.029437)">1996</text></g><g class="guides"><path class="major guide line" d="M221.323285 0.000000 v462.029437"/><text class="major" x="221.32328482328484" y="477.02943725152284" transform="rotate(45 221.323285 477.029437)">1997</text></g><g class="guides"><path class="major guide line" d="M255.845114 0.000000 v462.029437"/><text class="major" x="255.84511434511435" y="477.02943725152284" transform="rotate(45 255.845114 477.029437)">1998</text></g><g class="guides"><path class="major guide line" d="M332.560291 0.000000 v462.029437"/><text class="major" x="332.5602910602911" y="477.02943725152284" transform="rotate(45 332.560291 477.029437)">1999</text></g><g class="guides"><path class="major guide line" d="M409.275468 0.000000 v462.029437"/><text class="major" x="409.27546777546775" y="477.02943725152284" transform="rotate(45 409.275468 477.029437)">2000</text></g><g class="guides"><path class="major guide line" d="M489.826403 0.000000 v462.029437"/><text class="major" x="489.82640332640335" y="477.02943725152284" transform="rotate(45 489.826403 477.029437)">2001</text></g><g class="guides"><path class="major guide line" d="M493.662162 0.000000 v462.029437"/><text class="major" x="493.66216216216213" y="477.02943725152284" transform="rotate(45 493.662162 477.029437)">2002</text></g><g class="guides"><path class="major guide line" d="M543.527027 0.000000 v462.029437"/><text class="major" x="543.5270270270271" y="477.02943725152284" transform="rotate(45 543.527027 477.029437)">2003</text></g><g class="guides"><path class="major guide line" d="M585.720374 0.000000 v462.029437"/><text class="major" x="585.7203742203742" y="477.02943725152284" transform="rotate(45 585.720374 477.029437)">2004</text></g><g class="guides"><path class="major guide line" d="M670.107069 0.000000 v462.029437"/><text class="major" x="670.1070686070686" y="477.02943725152284" transform="rotate(45 670.107069 477.029437)">2005</text></g><g class="guides"><path class="major guide line" d="M716.136175 0.000000 v462.029437"/><text class="major" x="716.1361746361745" y="477.02943725152284" transform="rotate(45 716.136175 477.029437)">2006</text></g></g><g class="series serie-0 color-0"><path class="line reactive nofill" d="M14.192308 258.795719 L18.028067 258.084905 21.863825 255.774758 25.699584 255.715523 29.535343 256.840979 33.371102 255.893227 37.206861 256.840979 41.042620 256.130165 44.878378 256.959449 48.714137 258.203374 52.549896 258.854954 56.385655 259.684238 60.221414 259.684238 64.057173 259.506534 67.892931 258.854954 71.728690 258.381078 75.564449 259.388065 79.400208 260.039645 83.235967 259.032658 87.071726 259.802707 90.907484 259.565768 94.743243 260.276583 98.579002 259.269596 102.414761 258.795719 106.250520 259.447299 110.086279 260.276583 113.922037 259.743472 117.757796 259.032658 121.593555 257.907201 125.429314 257.907201 129.265073 255.715523 133.100832 254.471598 136.936590 253.583080 140.772349 253.879252 144.608108 256.130165 148.443867 256.307869 152.279626 257.196387 156.115385 258.084905 159.951143 258.973423 163.786902 258.854954 167.622661 259.625003 171.458420 261.520508 175.294179 261.283570 179.129938 262.053619 182.965696 263.119841 186.801455 261.342805 190.637214 261.935150 194.472973 260.987398 198.308732 259.743472 202.144491 258.914188 205.980249 255.656289 209.816008 253.938487 213.651767 254.530832 217.487526 254.590067 221.323285 256.485572 225.159044 257.492559 228.994802 258.025670 232.830561 259.091892 236.666320 260.158114 240.502079 259.861941 244.337838 258.321843 248.173597 260.631990 252.009356 258.914188 255.845114 254.886240 259.680873 256.485572 263.516632 256.307869 267.352391 255.597054 271.188150 256.130165 275.023909 256.604041 278.859667 255.537820 282.695426 256.307869 286.531185 258.854954 290.366944 252.931500 294.202703 252.872265 298.038462 253.997721 301.874220 254.234660 305.709979 253.049969 309.545738 253.701549 313.381497 254.886240 317.217256 251.095229 321.053015 253.760783 324.888773 255.004709 328.724532 255.123178 332.560291 257.847967 336.396050 258.854954 340.231809 260.809694 344.067568 260.691225 347.903326 256.900214 351.739085 257.729498 355.574844 258.440312 359.410603 253.938487 363.246362 256.426338 367.082121 258.795719 370.917879 259.565768 374.753638 259.151127 378.589397 254.767770 382.425156 256.011696 386.260915 254.649301 390.096674 254.590067 393.932432 257.551794 397.768191 260.039645 401.603950 263.593717 405.439709 262.468261 409.275468 263.060607 413.111227 264.956112 416.946985 262.409027 420.782744 257.611029 424.618503 257.196387 428.454262 257.077918 432.290021 256.189400 436.125780 256.604041 439.961538 256.248634 443.797297 261.698212 447.633056 259.210361 451.468815 254.234660 455.304574 255.360116 459.140333 256.722510 462.976091 257.196387 466.811850 260.335818 470.647609 262.942137 474.483368 263.416014 478.319127 263.297545 482.154886 263.534483 485.990644 263.238310 489.826403 267.088555 493.662162 269.102530 497.497921 264.541470 501.333680 266.555445 505.169439 266.614679 509.005198 264.837643 512.840956 263.593717 516.676715 264.067594 520.512474 263.593717 524.348233 263.593717 528.183992 261.342805 532.019751 259.091892 535.855509 253.701549 539.691268 250.325180 543.527027 241.439998 547.362786 244.046318 551.198545 246.178762 555.034304 239.129851 558.870062 236.405062 562.705821 237.945160 566.541580 244.460960 570.377339 246.830342 574.213098 252.990734 578.048857 255.063943 581.884615 256.781745 585.720374 262.290557 589.556133 263.001372 593.391892 267.147790 597.227651 275.144453 601.063410 271.708850 604.899168 274.196701 608.734927 273.841293 612.570686 269.517172 616.406445 268.273246 620.242204 270.227986 624.077963 262.645965 627.913721 268.924826 631.749480 266.377741 635.585239 265.429988 639.420998 250.384414 643.256757 246.060293 647.092516 250.088242 650.928274 251.272932 654.764033 237.589753 658.599792 233.443335 662.435551 210.934208 666.271310 217.213070 670.107069 163.724278 673.942827 158.333934 677.778586 134.877055 681.614345 139.793522 685.450104 141.155917 689.285863 124.392541 693.121622 87.844828 696.957380 95.782256 700.793139 112.545632 704.628898 22.212954 708.464657 8.885181 712.300416 129.309008 716.136175 91.813542 719.971933 26.655544 723.807692 192.512266"/></g><g class="series serie-1 color-1"><path class="line reactive nofill" d="M14.192308 453.144256 L18.028067 331.713442 21.863825 358.368987 25.699584 344.804276 29.535343 314.357721 33.371102 320.873521 37.206861 301.089183 41.042620 305.591009 44.878378 291.078545 48.714137 269.517172 52.549896 258.203374 56.385655 243.690911 60.221414 244.816367 64.057173 248.548143 67.892931 258.440312 71.728690 263.949125 75.564449 252.102216 79.400208 245.467947 83.235967 257.018683 87.071726 249.555131 90.907484 252.042981 94.743243 245.823354 98.579002 255.004709 102.414761 259.210361 106.250520 253.820018 110.086279 247.600391 113.922037 252.457623 117.757796 257.433325 121.593555 264.186063 125.429314 264.008359 129.265073 274.552108 133.100832 279.350106 136.936590 282.015660 140.772349 279.942451 144.608108 270.287221 148.443867 269.220999 152.279626 265.548457 156.115385 261.935150 159.951143 258.262609 163.786902 258.558781 167.622661 255.656289 171.458420 248.251971 175.294179 249.495896 179.129938 246.534169 182.965696 242.565455 186.801455 249.851303 190.637214 247.955798 194.472973 251.746809 198.308732 255.952461 202.144491 258.618016 205.980249 267.443963 209.816008 271.531146 213.651767 269.635641 217.487526 269.220999 221.323285 264.600705 225.159044 262.053619 228.994802 260.809694 232.830561 258.144139 236.666320 255.656289 240.502079 256.367103 244.337838 259.980410 248.173597 254.827005 252.009356 258.618016 255.845114 266.555445 259.680873 263.356779 263.516632 263.593717 267.352391 264.778408 271.188150 263.593717 275.023909 262.764434 278.859667 264.541470 282.695426 263.297545 286.531185 258.795719 290.366944 268.095543 294.202703 268.036308 298.038462 266.318506 301.874220 265.726161 305.709979 267.207025 309.545738 266.081568 313.381497 264.363766 317.217256 269.161764 321.053015 265.607692 324.888773 263.949125 328.724532 263.652952 332.560291 260.098879 336.396050 258.736485 340.231809 256.248634 344.067568 256.485572 347.903326 261.105867 351.739085 260.098879 355.574844 259.269596 359.410603 264.067594 363.246362 261.402039 367.082121 258.854954 370.917879 258.025670 374.753638 258.440312 378.589397 262.764434 382.425156 261.461274 386.260915 262.645965 390.096674 262.586730 393.932432 259.980410 397.768191 257.729498 401.603950 254.649301 405.439709 255.715523 409.275468 255.123178 413.111227 253.583080 416.946985 255.833992 420.782744 259.743472 424.618503 260.039645 428.454262 260.158114 432.290021 260.750459 436.125780 260.395052 439.961538 260.631990 443.797297 256.840979 447.633056 258.558781 451.468815 261.698212 455.304574 260.928163 459.140333 260.098879 462.976091 259.802707 466.811850 257.907201 470.647609 256.307869 474.483368 256.070930 478.319127 256.307869 482.154886 256.248634 485.990644 256.426338 489.826403 254.412363 493.662162 253.346141 497.497921 255.952461 501.333680 255.063943 505.169439 255.123178 509.005198 256.070930 512.840956 256.663276 516.676715 256.604041 520.512474 256.840979 524.348233 256.900214 528.183992 257.847967 532.019751 258.736485 535.855509 260.631990 539.691268 261.638977 543.527027 264.126828 547.362786 263.297545 551.198545 262.645965 555.034304 264.482236 558.870062 265.074581 562.705821 264.482236 566.541580 262.705199 570.377339 261.994385 574.213098 260.335818 578.048857 259.802707 581.884615 259.328830 585.720374 257.907201 589.556133 257.788732 593.391892 256.722510 597.227651 254.767770 601.063410 255.833992 604.899168 255.241647 608.734927 255.419350 612.570686 256.544807 616.406445 256.900214 620.242204 256.604041 624.077963 258.144139 627.913721 256.959449 631.749480 257.492559 635.585239 257.729498 639.420998 260.098879 643.256757 260.631990 647.092516 260.039645 650.928274 259.921176 654.764033 261.579743 658.599792 261.935150 662.435551 263.830656 666.271310 262.942137 670.107069 265.963099 673.942827 265.785396 677.778586 266.022334 681.614345 265.074581 685.450104 264.304532 689.285863 264.363766 693.121622 264.067594 696.957380 263.830656 700.793139 263.297545 704.628898 263.652952 708.464657 262.586730 712.300416 260.809694 716.136175 260.513521 719.971933 259.980410 723.807692 260.098879"/></g><g class="series serie-2 color-2"><path class="line reactive nofill" d="M14.192308 258.795719 L18.028067 258.795719 21.863825 258.795719 25.699584 258.795719 29.535343 258.795719 33.371102 258.795719 37.206861 258.795719 41.042620 258.795719 44.878378 258.795719 48.714137 258.795719 52.549896 258.795719 56.385655 258.795719 60.221414 258.795719 64.057173 258.795719 67.892931 258.795719 71.728690 258.795719 75.564449 258.795719 79.400208 258.795719 83.235967 258.795719 87.071726 258.795719 90.907484 258.795719 94.743243 258.795719 98.579002 258.795719 102.414761 258.795719 106.250520 258.795719 110.086279 258.795719 113.922037 258.795719 117.757796 258.795719 121.593555 258.795719 125.429314 258.795719 129.265073 258.795719 133.100832 258.795719 136.936590 258.795719 140.772349 258.795719 144.608108 258.795719 148.443867 258.795719 152.279626 258.795719 156.115385 258.795719 159.951143 258.795719 163.786902 258.795719 167.622661 258.795719 171.458420 258.795719 175.294179 258.795719 179.129938 258.795719 182.965696 258.795719 186.801455 258.795719 190.637214 258.795719 194.472973 258.795719 198.308732 258.795719 202.144491 258.795719 205.980249 258.795719 209.816008 258.795719 213.651767 258.795719 217.487526 258.795719 221.323285 258.795719 225.159044 258.795719 228.994802 258.795719 232.830561 258.795719 236.666320 258.795719 240.502079 258.795719 244.337838 258.795719 248.173597 258.795719 252.009356 258.795719 255.845114 258.795719 259.680873 258.795719 263.516632 258.795719 267.352391 258.795719 271.188150 258.795719 275.023909 258.795719 278.859667 258.795719 282.695426 258.795719 286.531185 258.795719 290.366944 258.795719 294.202703 258.795719 298.038462 258.795719 301.874220 258.795719 305.709979 258.795719 309.545738 258.795719 313.381497 258.795719 317.217256 258.795719 321.053015 258.795719 324.888773 258.795719 328.724532 258.795719 332.560291 258.795719 336.396050 258.795719 340.231809 258.795719 344.067568 258.795719 347.903326 258.795719 351.739085 258.795719 355.574844 258.795719 359.410603 258.795719 363.246362 258.795719 367.082121 258.795719 370.917879 258.795719 374.753638 258.795719 378.589397 258.795719 382.425156 258.795719 386.260915 258.795719 390.096674 258.795719 393.932432 258.795719 397.768191 258.795719 401.603950 258.795719 405.439709 258.795719 409.275468 258.795719 413.111227 258.795719 416.946985 258.795719 420.782744 258.795719 424.618503 258.795719 428.454262 258.795719 432.290021 258.795719 436.125780 258.795719 439.961538 258.795719 443.797297 258.795719 447.633056 258.795719 451.468815 258.795719 455.304574 258.795719 459.140333 258.795719 462.976091 258.795719 466.811850 258.795719 470.647609 258.795719 474.483368 258.795719 478.319127 258.795719 482.154886 258.795719 485.990644 258.795719 489.826403 258.795719 493.662162 258.795719 497.497921 258.795719 501.333680 258.795719 505.169439 258.795719 509.005198 258.795719 512.840956 258.795719 516.676715 258.795719 520.512474 258.795719 524.348233 258.795719 528.183992 258.795719 532.019751 258.795719 535.855509 258.795719 539.691268 258.795719 543.527027 258.795719 547.362786 258.795719 551.198545 258.795719 555.034304 258.795719 558.870062 258.795719 562.705821 258.795719 566.541580 258.795719 570.377339 258.795719 574.213098 258.795719 578.048857 258.795719 581.884615 258.795719 585.720374 258.795719 589.556133 258.795719 593.391892 258.795719 597.227651 258.795719 601.063410 258.795719 604.899168 258.795719 608.734927 258.795719 612.570686 258.795719 616.406445 258.795719 620.242204 258.795719 624.077963 258.795719 627.913721 258.795719 631.749480 258.795719 635.585239 258.795719 639.420998 258.795719 643.256757 258.795719 647.092516 258.795719 650.928274 258.795719 654.764033 258.795719 658.599792 258.795719 662.435551 258.795719 666.271310 258.795719 670.107069 258.795719 673.942827 258.795719 677.778586 258.795719 681.614345 258.795719 685.450104 258.795719 689.285863 258.795719 693.121622 258.795719 696.957380 258.795719 700.793139 258.795719 704.628898 258.795719 708.464657 258.795719 712.300416 258.795719 716.136175 258.795719 719.971933 258.795719 723.807692 258.795719"/></g></g><g class="titles"><text class="title plot_title" x="400.0" y="26">CL Cairns: Future and Past Averages in ODIs</text></g><g class="plot overlay" transform="translate(42, 46)"><g class="series serie-0 color-0"><g class="dots"><desc class="label">201 wickets in 186 innings (1361.2 overs)</desc><circle class="dot reactive tooltip-trigger" cx="14.192307692307692" cy="258.79571940409016" r="2.5"/><desc class="value">32.81</desc><desc class="x top">14.192307692307692</desc><desc class="y top">258.79571940409016</desc><desc class="x_label">1991</desc></g><g class="dots"><desc class="label">195 wickets in 184 innings (1342.2 overs)</desc><circle class="dot reactive tooltip-trigger" cx="21.863825363825363" cy="255.77475769898405" r="2.5"/><desc class="value">33.32</desc><desc class="x top">21.863825363825363</desc><desc class="y top">255.77475769898405</desc><desc class="x_label">1992</desc></g><g class="dots"><desc class="label">190 wickets in 176 innings (1300.1 overs)</desc><circle class="dot reactive tooltip-trigger" cx="52.549896049896056" cy="258.85495394732754" r="2.5"/><desc class="value">32.8</desc><desc class="x top">52.549896049896056</desc><desc class="y top">258.85495394732754</desc><desc class="x_label">1993</desc></g><g class="dots"><desc class="label">188 wickets in 173 innings (1276.2 overs)</desc><circle class="dot reactive tooltip-trigger" cx="64.05717255717256" cy="259.5065339229387" r="2.5"/><desc class="value">32.69</desc><desc class="x top">64.05717255717256</desc><desc class="y top">259.5065339229387</desc><desc class="x_label">1994</desc></g><g class="dots"><desc class="label">179 wickets in 164 innings (1202.2 overs)</desc><circle class="dot reactive tooltip-trigger" cx="98.57900207900208" cy="259.2695957499892" r="2.5"/><desc class="value">32.73</desc><desc class="x top">98.57900207900208</desc><desc class="y top">259.2695957499892</desc><desc class="x_label">1995</desc></g><g class="dots"><desc class="label">162 wickets in 151 innings (1100.2 overs)</desc><circle class="dot reactive tooltip-trigger" cx="148.44386694386694" cy="256.3078685881204" r="2.5"/><desc class="value">33.23</desc><desc class="x top">148.44386694386694</desc><desc class="y top">256.3078685881204</desc><desc class="x_label">1996</desc></g><g class="dots"><desc class="label">143 wickets in 132 innings (955.2 overs)</desc><circle class="dot reactive tooltip-trigger" cx="221.32328482328484" cy="256.48557221783255" r="2.5"/><desc class="value">33.2</desc><desc class="x top">221.32328482328484</desc><desc class="y top">256.48557221783255</desc><desc class="x_label">1997</desc></g><g class="dots"><desc class="label">133 wickets in 123 innings (887.3 overs)</desc><circle class="dot reactive tooltip-trigger" cx="255.84511434511435" cy="254.88623955042343" r="2.5"/><desc class="value">33.47</desc><desc class="x top">255.84511434511435</desc><desc class="y top">254.88623955042343</desc><desc class="x_label">1998</desc></g><g class="dots"><desc class="label">114 wickets in 103 innings (738.5 overs)</desc><circle class="dot reactive tooltip-trigger" cx="332.5602910602911" cy="257.8479667122922" r="2.5"/><desc class="value">32.97</desc><desc class="x top">332.5602910602911</desc><desc class="y top">257.8479667122922</desc><desc class="x_label">1999</desc></g><g class="dots"><desc class="label">93 wickets in 83 innings (582.5 overs)</desc><circle class="dot reactive tooltip-trigger" cx="409.27546777546775" cy="263.0606065171811" r="2.5"/><desc class="value">32.09</desc><desc class="x left top">409.27546777546775</desc><desc class="y left top">263.0606065171811</desc><desc class="x_label">2000</desc></g><g class="dots"><desc class="label">70 wickets in 62 innings (429.0 overs)</desc><circle class="dot reactive tooltip-trigger" cx="489.82640332640335" cy="267.0885554573226" r="2.5"/><desc class="value">31.41</desc><desc class="x left top">489.82640332640335</desc><desc class="y left top">267.0885554573226</desc><desc class="x_label">2001</desc></g><g class="dots"><desc class="label">70 wickets in 61 innings (426.0 overs)</desc><circle class="dot reactive tooltip-trigger" cx="493.66216216216213" cy="269.10252992739333" r="2.5"/><desc class="value">31.07</desc><desc class="x left top">493.66216216216213</desc><desc class="y left top">269.10252992739333</desc><desc class="x_label">2002</desc></g><g class="dots"><desc class="label">47 wickets in 48 innings (315.0 overs)</desc><circle class="dot reactive tooltip-trigger" cx="543.5270270270271" cy="241.43999823553938" r="2.5"/><desc class="value">35.74</desc><desc class="x left top">543.5270270270271</desc><desc class="y left top">241.43999823553938</desc><desc class="x_label">2003</desc></g><g class="dots"><desc class="label">41 wickets in 37 innings (254.0 overs)</desc><circle class="dot reactive tooltip-trigger" cx="585.7203742203742" cy="262.29055745509527" r="2.5"/><desc class="value">32.22</desc><desc class="x left top">585.7203742203742</desc><desc class="y left top">262.29055745509527</desc><desc class="x_label">2004</desc></g><g class="dots"><desc class="label">14 wickets in 15 innings (109.0 overs)</desc><circle class="dot reactive tooltip-trigger" cx="670.1070686070686" cy="163.72427750810374" r="2.5"/><desc class="value">48.86</desc><desc class="x left">670.1070686070686</desc><desc class="y left">163.72427750810374</desc><desc class="x_label">2005</desc></g><g class="dots"><desc class="label">2 wickets in 3 innings (21.0 overs)</desc><circle class="dot reactive tooltip-trigger" cx="716.1361746361745" cy="91.81354201793079" r="2.5"/><desc class="value">61</desc><desc class="x left">716.1361746361745</desc><desc class="y left">91.81354201793079</desc><desc class="x_label">2006</desc></g></g><g class="series serie-1 color-1"><g class="dots"><desc class="label">0 wickets over 0 innings</desc><circle class="dot reactive tooltip-trigger" cx="14.192307692307692" cy="453.1442557659166" r="2.5"/><desc class="value">0</desc><desc class="x top">14.192307692307692</desc><desc class="y top">453.1442557659166</desc><desc class="x_label">1991</desc></g><g class="dots"><desc class="label">6 wickets in 2 innings (19.0 overs)</desc><circle class="dot reactive tooltip-trigger" cx="21.863825363825363" cy="358.3689865861171" r="2.5"/><desc class="value">16</desc><desc class="x top">21.863825363825363</desc><desc class="y top">358.3689865861171</desc><desc class="x_label">1992</desc></g><g class="dots"><desc class="label">11 wickets in 10 innings (61.1 overs)</desc><circle class="dot reactive tooltip-trigger" cx="52.549896049896056" cy="258.2033739717164" r="2.5"/><desc class="value">32.91</desc><desc class="x top">52.549896049896056</desc><desc class="y top">258.2033739717164</desc><desc class="x_label">1993</desc></g><g class="dots"><desc class="label">13 wickets in 13 innings (85.0 overs)</desc><circle class="dot reactive tooltip-trigger" cx="64.05717255717256" cy="248.54814342402432" r="2.5"/><desc class="value">34.54</desc><desc class="x top">64.05717255717256</desc><desc class="y top">248.54814342402432</desc><desc class="x_label">1994</desc></g><g class="dots"><desc class="label">22 wickets in 22 innings (159.0 overs)</desc><circle class="dot reactive tooltip-trigger" cx="98.57900207900208" cy="255.00470863689816" r="2.5"/><desc class="value">33.45</desc><desc class="x top">98.57900207900208</desc><desc class="y top">255.00470863689816</desc><desc class="x_label">1995</desc></g><g class="dots"><desc class="label">39 wickets in 35 innings (261.0 overs)</desc><circle class="dot reactive tooltip-trigger" cx="148.44386694386694" cy="269.22099901386815" r="2.5"/><desc class="value">31.05</desc><desc class="x top">148.44386694386694</desc><desc class="y top">269.22099901386815</desc><desc class="x_label">1996</desc></g><g class="dots"><desc class="label">58 wickets in 54 innings (406.0 overs)</desc><circle class="dot reactive tooltip-trigger" cx="221.32328482328484" cy="264.6007046413529" r="2.5"/><desc class="value">31.83</desc><desc class="x top">221.32328482328484</desc><desc class="y top">264.6007046413529</desc><desc class="x_label">1997</desc></g><g class="dots"><desc class="label">68 wickets in 63 innings (473.5 overs)</desc><circle class="dot reactive tooltip-trigger" cx="255.84511434511435" cy="266.5554445681862" r="2.5"/><desc class="value">31.5</desc><desc class="x top">255.84511434511435</desc><desc class="y top">266.5554445681862</desc><desc class="x_label">1998</desc></g><g class="dots"><desc class="label">87 wickets in 83 innings (622.3 overs)</desc><circle class="dot reactive tooltip-trigger" cx="332.5602910602911" cy="260.0988793553124" r="2.5"/><desc class="value">32.59</desc><desc class="x top">332.5602910602911</desc><desc class="y top">260.0988793553124</desc><desc class="x_label">1999</desc></g><g class="dots"><desc class="label">108 wickets in 103 innings (778.3 overs)</desc><circle class="dot reactive tooltip-trigger" cx="409.27546777546775" cy="255.12317772337292" r="2.5"/><desc class="value">33.43</desc><desc class="x left top">409.27546777546775</desc><desc class="y left top">255.12317772337292</desc><desc class="x_label">2000</desc></g><g class="dots"><desc class="label">131 wickets in 124 innings (932.2 overs)</desc><circle class="dot reactive tooltip-trigger" cx="489.82640332640335" cy="254.41236320452447" r="2.5"/><desc class="value">33.55</desc><desc class="x left top">489.82640332640335</desc><desc class="y left top">254.41236320452447</desc><desc class="x_label">2001</desc></g><g class="dots"><desc class="label">131 wickets in 125 innings (935.2 overs)</desc><circle class="dot reactive tooltip-trigger" cx="493.66216216216213" cy="253.3461414262517" r="2.5"/><desc class="value">33.73</desc><desc class="x left top">493.66216216216213</desc><desc class="y left top">253.3461414262517</desc><desc class="x_label">2002</desc></g><g class="dots"><desc class="label">154 wickets in 138 innings (1046.2 overs)</desc><circle class="dot reactive tooltip-trigger" cx="543.5270270270271" cy="264.12682829545395" r="2.5"/><desc class="value">31.91</desc><desc class="x left top">543.5270270270271</desc><desc class="y left top">264.12682829545395</desc><desc class="x_label">2003</desc></g><g class="dots"><desc class="label">160 wickets in 149 innings (1107.2 overs)</desc><circle class="dot reactive tooltip-trigger" cx="585.7203742203742" cy="257.90720125552957" r="2.5"/><desc class="value">32.96</desc><desc class="x left top">585.7203742203742</desc><desc class="y left top">257.90720125552957</desc><desc class="x_label">2004</desc></g><g class="dots"><desc class="label">187 wickets in 171 innings (1252.2 overs)</desc><circle class="dot reactive tooltip-trigger" cx="670.1070686070686" cy="265.9630991358125" r="2.5"/><desc class="value">31.6</desc><desc class="x left top">670.1070686070686</desc><desc class="y left top">265.9630991358125</desc><desc class="x_label">2005</desc></g><g class="dots"><desc class="label">199 wickets in 183 innings (1340.2 overs)</desc><circle class="dot reactive tooltip-trigger" cx="716.1361746361745" cy="260.513521157974" r="2.5"/><desc class="value">32.52</desc><desc class="x left top">716.1361746361745</desc><desc class="y left top">260.513521157974</desc><desc class="x_label">2006</desc></g></g><g class="series serie-2 color-2"/></g><g class="plot text-overlay" transform="translate(42, 46)"><g class="series serie-0 color-0"/><g class="series serie-1 color-1"/><g class="series serie-2 color-2"/></g><g class="plot tooltip-overlay" transform="translate(42, 46)"><g class="tooltip" style="opacity: 0" transform="translate(0 0)"><rect class="tooltip-box" height="0" rx="10" ry="10" width="0"/><g class="text"/></g></g><g class="legends" transform="translate(52, 545)"><g class="legend reactive activate-serie" id="activate-serie-0"><rect class="color-0 reactive" height="12" width="12" x="0.0" y="1.0"/><text x="17.0" y="11.2">Future Average</text></g><g class="legend reactive activate-serie" id="activate-serie-1"><rect class="color-1 reactive" height="12" width="12" x="369.0" y="1.0"/><text x="386.0" y="11.2">Past Average</text></g><g class="legend reactive activate-serie" id="activate-serie-2"><rect class="color-2 reactive" height="12" width="12" x="0.0" y="22.0"/><text x="17.0" y="32.2">Career Average</text></g></g></g></svg>