<?xml version='1.0' encoding='utf-8'?>
<svg xmlns:xlink="http://www.w3.org/1999/xlink" xmlns="http://www.w3.org/2000/svg" id="chart-a55adb96-fd0f-4f84-99cf-9fee4d96960d" class="pygal-chart" viewBox="0 0 800 600"><!--Generated with pygal 2.4.0 (lxml) ©Kozea 2012-2016 on 2019-08-04--><!--http://pygal.org--><!--http://github.com/Kozea/pygal--><defs><style type="text/css">#chart-a55adb96-fd0f-4f84-99cf-9fee4d96960d{-webkit-user-select:none;-webkit-font-smoothing:antialiased;font-family:Consolas,"Liberation Mono",Menlo,Courier,monospace}#chart-a55adb96-fd0f-4f84-99cf-9fee4d96960d .title{font-family:Consolas,"Liberation Mono",Menlo,Courier,monospace;font-size:16px}#chart-a55adb96-fd0f-4f84-99cf-9fee4d96960d .legends .legend text{font-family:Consolas,"Liberation Mono",Menlo,Courier,monospace;font-size:14px}#chart-a55adb96-fd0f-4f84-99cf-9fee4d96960d .axis text{font-family:Consolas,"Liberation Mono",Menlo,Courier,monospace;font-size:10px}#chart-a55adb96-fd0f-4f84-99cf-9fee4d96960d .axis text.major{font-family:Consolas,"Liberation Mono",Menlo,Courier,monospace;font-size:10px}#chart-a55adb96-fd0f-4f84-99cf-9fee4d96960d .text-overlay text.value{font-family:Consolas,"Liberation Mono",Menlo,Courier,monospace;font-size:16px}#chart-a55adb96-fd0f-4f84-99cf-9fee4d96960d .text-overlay text.label{font-family:Consolas,"Liberation Mono",Menlo,Courier,monospace;font-size:10px}#chart-a55adb96-fd0f-4f84-99cf-9fee4d96960d .tooltip{font-family:Consolas,"Liberation Mono",Menlo,Courier,monospace;font-size:14px}#chart-a55adb96-fd0f-4f84-99cf-9fee4d96960d text.no_data{font-family:Consolas,"Liberation Mono",Menlo,Courier,monospace;font-size:64px}
#chart-a55adb96-fd0f-4f84-99cf-9fee4d96960d{background-color:rgba(249,249,249,1)}#chart-a55adb96-fd0f-4f84-99cf-9fee4d96960d path,#chart-a55adb96-fd0f-4f84-99cf-9fee4d96960d line,#chart-a55adb96-fd0f-4f84-99cf-9fee4d96960d rect,#chart-a55adb96-fd0f-4f84-99cf-9fee4d96960d circle{-webkit-transition:150ms;-moz-transition:150ms;transition:150ms}#chart-a55adb96-fd0f-4f84-99cf-9fee4d96960d .graph &gt; .background{fill:rgba(249,249,249,1)}#chart-a55adb96-fd0f-4f84-99cf-9fee4d96960d .plot &gt; .background{fill:rgba(255,255,255,1)}#chart-a55adb96-fd0f-4f84-99cf-9fee4d96960d .graph{fill:rgba(0,0,0,.87)}#chart-a55adb96-fd0f-4f84-99cf-9fee4d96960d text.no_data{fill:rgba(0,0,0,1)}#chart-a55adb96-fd0f-4f84-99cf-9fee4d96960d .title{fill:rgba(0,0,0,1)}#chart-a55adb96-fd0f-4f84-99cf-9fee4d96960d .legends .legend text{fill:rgba(0,0,0,.87)}#chart-a55adb96-fd0f-4f84-99cf-9fee4d96960d .legends .legend:hover text{fill:rgba(0,0,0,1)}#chart-a55adb96-fd0f-4f84-99cf-9fee4d96960d .axis .line{stroke:rgba(0,0,0,1)}#chart-a55adb96-fd0f-4f84-99cf-9fee4d96960d .axis .guide.line{stroke:rgba(0,0,0,.54)}#chart-a55adb96-fd0f-4f84-99cf-9fee4d96960d .axis .major.line{stroke:rgba(0,0,0,.87)}#chart-a55adb96-fd0f-4f84-99cf-9fee4d96960d .axis text.major{fill:rgba(0,0,0,1)}#chart-a55adb96-fd0f-4f84-99cf-9fee4d96960d .axis.y .guides:hover .guide.line,#chart-a55adb96-fd0f-4f84-99cf-9fee4d96960d .line-graph .axis.x .guides:hover .guide.line,#chart-a55adb96-fd0f-4f84-99cf-9fee4d96960d .stackedline-graph .axis.x .guides:hover .guide.line,#chart-a55adb96-fd0f-4f84-99cf-9fee4d96960d .xy-graph .axis.x .guides:hover .guide.line{stroke:rgba(0,0,0,1)}#chart-a55adb96-fd0f-4f84-99cf-9fee4d96960d .axis .guides:hover text{fill:rgba(0,0,0,1)}#chart-a55adb96-fd0f-4f84-99cf-9fee4d96960d .reactive{fill-opacity:.7;stroke-opacity:.8}#chart-a55adb96-fd0f-4f84-99cf-9fee4d96960d .ci{stroke:rgba(0,0,0,.87)}#chart-a55adb96-fd0f-4f84-99cf-9fee4d96960d .reactive.active,#chart-a55adb96-fd0f-4f84-99cf-9fee4d96960d .active .reactive{fill-opacity:.8;stroke-opacity:.9;stroke-width:4}#chart-a55adb96-fd0f-4f84-99cf-9fee4d96960d .ci .reactive.active{stroke-width:1.5}#chart-a55adb96-fd0f-4f84-99cf-9fee4d96960d .series text{fill:rgba(0,0,0,1)}#chart-a55adb96-fd0f-4f84-99cf-9fee4d96960d .tooltip rect{fill:rgba(255,255,255,1);stroke:rgba(0,0,0,1);-webkit-transition:opacity 150ms;-moz-transition:opacity 150ms;transition:opacity 150ms}#chart-a55adb96-fd0f-4f84-99cf-9fee4d96960d .tooltip .label{fill:rgba(0,0,0,.87)}#chart-a55adb96-fd0f-4f84-99cf-9fee4d96960d .tooltip .label{fill:rgba(0,0,0,.87)}#chart-a55adb96-fd0f-4f84-99cf-9fee4d96960d .tooltip .legend{font-size:.8em;fill:rgba(0,0,0,.54)}#chart-a55adb96-fd0f-4f84-99cf-9fee4d96960d .tooltip .x_label{font-size:.6em;fill:rgba(0,0,0,1)}#chart-a55adb96-fd0f-4f84-99cf-9fee4d96960d .tooltip .xlink{font-size:.5em;text-decoration:underline}#chart-a55adb96-fd0f-4f84-99cf-9fee4d96960d .tooltip .value{font-size:1.5em}#chart-a55adb96-fd0f-4f84-99cf-9fee4d96960d .bound{font-size:.5em}#chart-a55adb96-fd0f-4f84-99cf-9fee4d96960d .max-value{font-size:.75em;fill:rgba(0,0,0,.54)}#chart-a55adb96-fd0f-4f84-99cf-9fee4d96960d .map-element{fill:rgba(255,255,255,1);stroke:rgba(0,0,0,.54) !important}#chart-a55adb96-fd0f-4f84-99cf-9fee4d96960d .map-element .reactive{fill-opacity:inherit;stroke-opacity:inherit}#chart-a55adb96-fd0f-4f84-99cf-9fee4d96960d .color-0,#chart-a55adb96-fd0f-4f84-99cf-9fee4d96960d .color-0 a:visited{stroke:red;fill:red}#chart-a55adb96-fd0f-4f84-99cf-9fee4d96960d .color-1,#chart-a55adb96-fd0f-4f84-99cf-9fee4d96960d .color-1 a:visited{stroke:blue;fill:blue}#chart-a55adb96-fd0f-4f84-99cf-9fee4d96960d .color-2,#chart-a55adb96-fd0f-4f84-99cf-9fee4d96960d .color-2 a:visited{stroke:green;fill:green}#chart-a55adb96-fd0f-4f84-99cf-9fee4d96960d .text-overlay .color-0 text{fill:white}#chart-a55adb96-fd0f-4f84-99cf-9fee4d96960d .text-overlay .color-1 text{fill:white}#chart-a55adb96-fd0f-4f84-99cf-9fee4d96960d .text-overlay .color-2 text{fill:white}
#chart-a55adb96-fd0f-4f84-99cf-9fee4d96960d text.no_data{text-anchor:middle}#chart-a55adb96-fd0f-4f84-99cf-9fee4d96960d .guide.line{fill:none}#chart-a55adb96-fd0f-4f84-99cf-9fee4d96960d .centered{text-anchor:middle}#chart-a55adb96-fd0f-4f84-99cf-9fee4d96960d .title{text-anchor:middle}#chart-a55adb96-fd0f-4f84-99cf-9fee4d96960d .legends .legend text{fill-opacity:1}#chart-a55adb96-fd0f-4f84-99cf-9fee4d96960d .axis.x text{text-anchor:middle}#chart-a55adb96-fd0f-4f84-99cf-9fee4d96960d .axis.x:not(.web) text[transform]{text-anchor:start}#chart-a55adb96-fd0f-4f84-99cf-9fee4d96960d .axis.x:not(.web) text[transform].backwards{text-anchor:end}#chart-a55adb96-fd0f-4f84-99cf-9fee4d96960d .axis.y text{text-anchor:end}#chart-a55adb96-fd0f-4f84-99cf-9fee4d96960d .axis.y text[transform].backwards{text-anchor:start}#chart-a55adb96-fd0f-4f84-99cf-9fee4d96960d .axis.y2 text{text-anchor:start}#chart-a55adb96-fd0f-4f84-99cf-9fee4d96960d .axis.y2 text[transform].backwards{text-anchor:end}#chart-a55adb96-fd0f-4f84-99cf-9fee4d96960d .axis .guide.line{stroke-dasharray:4,4}#chart-a55adb96-fd0f-4f84-99cf-9fee4d96960d .axis .major.guide.line{stroke-dasharray:6,6}#chart-a55adb96-fd0f-4f84-99cf-9fee4d96960d .horizontal .axis.y .guide.line,#chart-a55adb96-fd0f-4f84-99cf-9fee4d96960d .horizontal .axis.y2 .guide.line,#chart-a55adb96-fd0f-4f84-99cf-9fee4d96960d .vertical .axis.x .guide.line{opacity:0}#chart-a55adb96-fd0f-4f84-99cf-9fee4d96960d .horizontal .axis.always_show .guide.line,#chart-a55adb96-fd0f-4f84-99cf-9fee4d96960d .vertical .axis.always_show .guide.line{opacity:1 !important}#chart-a55adb96-fd0f-4f84-99cf-9fee4d96960d .axis.y .guides:hover .guide.line,#chart-a55adb96-fd0f-4f84-99cf-9fee4d96960d .axis.y2 .guides:hover .guide.line,#chart-a55adb96-fd0f-4f84-99cf-9fee4d96960d .axis.x .guides:hover .guide.line{opacity:1}#chart-a55adb96-fd0f-4f84-99cf-9fee4d96960d .axis .guides:hover text{opacity:1}#chart-a55adb96-fd0f-4f84-99cf-9fee4d96960d .nofill{fill:none}#chart-a55adb96-fd0f-4f84-99cf-9fee4d96960d .subtle-fill{fill-opacity:.2}#chart-a55adb96-fd0f-4f84-99cf-9fee4d96960d .dot{stroke-width:1px;fill-opacity:1}#chart-a55adb96-fd0f-4f84-99cf-9fee4d96960d .dot.active{stroke-width:5px}#chart-a55adb96-fd0f-4f84-99cf-9fee4d96960d .dot.negative{fill:transparent}#chart-a55adb96-fd0f-4f84-99cf-9fee4d96960d text,#chart-a55adb96-fd0f-4f84-99cf-9fee4d96960d tspan{stroke:none !important}#chart-a55adb96-fd0f-4f84-99cf-9fee4d96960d .series text.active{opacity:1}#chart-a55adb96-fd0f-4f84-99cf-9fee4d96960d .tooltip rect{fill-opacity:.95;stroke-width:.5}#chart-a55adb96-fd0f-4f84-99cf-9fee4d96960d .tooltip text{fill-opacity:1}#chart-a55adb96-fd0f-4f84-99cf-9fee4d96960d .showable{visibility:hidden}#chart-a55adb96-fd0f-4f84-99cf-9fee4d96960d .showable.shown{visibility:visible}#chart-a55adb96-fd0f-4f84-99cf-9fee4d96960d .gauge-background{fill:rgba(229,229,229,1);stroke:none}#chart-a55adb96-fd0f-4f84-99cf-9fee4d96960d .bg-lines{stroke:rgba(249,249,249,1);stroke-width:2px}</style><script type="text/javascript">window.pygal = window.pygal || {};window.pygal.config = window.pygal.config || {};window.pygal.config['a55adb96-fd0f-4f84-99cf-9fee4d96960d'] = {"allow_interruptions": false, "box_mode": "extremes", "classes": ["pygal-chart"], "css": ["file://style.css", "file://graph.css"], "defs": [], "disable_xml_declaration": false, "dots_size": 2.5, "dynamic_print_values": false, "explicit_size": false, "fill": false, "force_uri_protocol": "https", "formatter": null, "half_pie": false, "height": 600, "include_x_axis": false, "inner_radius": 0, "interpolate": null, "interpolation_parameters": {}, "interpolation_precision": 250, "inverse_y_axis": false, "js": ["//kozea.github.io/pygal.js/2.0.x/pygal-tooltips.min.js"], "legend_at_bottom": true, "legend_at_bottom_columns": null, "legend_box_size": 12, "logarithmic": false, "margin": 20, "margin_bottom": null, "margin_left": null, "margin_right": null, "margin_top": null, "max_scale": 16, "min_scale": 4, "missing_value_fill_truncation": "x", "no_data_text": "No data", "no_prefix": false, "order_min": null, "pretty_print": false, "print_labels": false, "print_values": false, "print_values_position": "center", "print_zeroes": true, "range": null, "rounded_bars": null, "secondary_range": null, "show_dots": true, "show_legend": true, "show_minor_x_labels": false, "show_minor_y_labels": true, "show_only_major_dots": false, "show_x_guides": false, "show_x_labels": true, "show_y_guides": true, "show_y_labels": true, "spacing": 10, "stack_from_top": false, "strict": false, "stroke": true, "stroke_style": null, "style": {"background": "rgba(249, 249, 249, 1)", "ci_colors": [], "colors": ["red", "blue", "green", "#a3a3a3"], "font_family": "Consolas, \"Liberation Mono\", Menlo, Courier, monospace", "foreground": "rgba(0, 0, 0, .87)", "foreground_strong": "rgba(0, 0, 0, 1)", "foreground_subtle": "rgba(0, 0, 0, .54)", "guide_stroke_dasharray": "4,4", "label_font_family": "Consolas, \"Liberation Mono\", Menlo, Courier, monospace", "label_font_size": 10, "legend_font_family": "Consolas, \"Liberation Mono\", Menlo, Courier, monospace", "legend_font_size": 14, "major_guide_stroke_dasharray": "6,6", "major_label_font_family": "Consolas, \"Liberation Mono\", Menlo, Courier, monospace", "major_label_font_size": 10, "no_data_font_family": "Consolas, \"Liberation Mono\", Menlo, Courier, monospace", "no_data_font_size": 64, "opacity": ".7", "opacity_hover": ".8", "plot_background": "rgba(255, 255, 255, 1)", "stroke_opacity": ".8", "stroke_opacity_hover": ".9", "title_font_family": "Consolas, \"Liberation Mono\", Menlo, Courier, monospace", "title_font_size": 16, "tooltip_font_family": "Consolas, \"Liberation Mono\", Menlo, Courier, monospace", "tooltip_font_size": 14, "transition": "150ms", "value_background": "rgba(229, 229, 229, 1)", "value_colors": [], "value_font_family": "Consolas, \"Liberation Mono\", Menlo, Courier, monospace", "value_font_size": 16, "value_label_font_family": "Consolas, \"Liberation Mono\", Menlo, Courier, monospace", "value_label_font_size": 10}, "title": "CL Hooper: Future and Past Averages in ODIs", "tooltip_border_radius": 10, "tooltip_fancy_mode": true, "truncate_label": null, "truncate_legend": null, "width": 800, "x_label_rotation": 45, "x_labels": ["1987", "0", "0", "0", "0", "0", "0", "0", "0", "1988", "0", "0", "0", "0", "0", "0", "0", "0", "0", "0", "0", "0", "0", "0", "0", "0", "0", "1989", "0", "0", "0", "1990", "0", "0", "0", "0", "0", "0", "1991", "0", "0", "0", "0", "0", "0", "0", "0", "0", "0", "0", "0", "0", "0", "0", "0", "0", "0", "1992", "0", "0", "0", "0", "0", "0", "0", "0", "0", "0", "0", "0", "0", "0", "0", "0", "0", "1993", "0", "0", "0", "0", "0", "0", "0", "0", "0", "0", "0", "0", "0", "0", "0", "0", "0", "0", "0", "0", "0", "0", "0", "0", "0", "1994", "0", "0", "0", "0", "0", "0", "0", "0", "1995", "0", "0", "0", "0", "0", "0", "0", "0", "0", "1996", "0", "0", "0", "0", "1997", "0", "0", "0", "0", "0", "0", "0", "0", "0", "0", "0", "0", "0", "0", "0", "0", "0", "1998", "0", "0", "0", "0", "0", "0", "0", "1999", "0", "0", "0", "0", "0", "0", "0", "0", "0", "0", "2001", "0", "0", "0", "0", "0", "0", "0", "0", "0", "0", "0", "0", "0", "0", "0", "0", "0", "2002", "0", "0", "0", "0", "0", "0", "0", "0", "0", "0", "0", "0", "0", "0", "0", "0", "0", "0", "2003", "0", "0", "0"], "x_labels_major": ["1987", "1988", "1989", "1990", "1991", "1992", "1993", "1994", "1995", "1996", "1997", "1998", "1999", "2001", "2002", "2003"], "x_labels_major_count": null, "x_labels_major_every": null, "x_title": null, "xrange": null, "y_label_rotation": 0, "y_labels": null, "y_labels_major": null, "y_labels_major_count": null, "y_labels_major_every": null, "y_title": null, "zero": 110.0, "legends": ["Future Average", "Past Average", "Career Average"]}</script><script type="text/javascript" xlink:href="https://kozea.github.io/pygal.js/2.0.x/pygal-tooltips.min.js"/></defs><title>CL Hooper: Future and Past Averages in ODIs</title><g class="graph line-graph vertical"><rect class="background" height="600" width="800" x="0" y="0"/><g class="plot" transform="translate(48, 46)"><rect class="background" height="462.02943725152284" width="732.0" x="0" y="0"/><g class="axis y always_show"><g class="guides"><path class="axis major line" d="M0.000000 453.144256 h732.000000"/><text class="major" x="-5" y="456.6442557659166">0</text><title>0</title></g><g class="guides"><path class="guide line" d="M0.000000 410.012307 h732.000000"/><text class="" x="-5" y="413.5123068066632">10</text><title>10</title></g><g class="guides"><path class="guide line" d="M0.000000 366.880358 h732.000000"/><text class="" x="-5" y="370.38035784740975">20</text><title>20</title></g><g class="guides"><path class="guide line" d="M0.000000 323.748409 h732.000000"/><text class="" x="-5" y="327.2484088881563">30</text><title>30</title></g><g class="guides"><path class="guide line" d="M0.000000 280.616460 h732.000000"/><text class="" x="-5" y="284.1164599289028">40</text><title>40</title></g><g class="guides"><path class="major guide line" d="M0.000000 237.484511 h732.000000"/><text class="major" x="-5" y="240.98451096964942">50</text><title>50</title></g><g class="guides"><path class="guide line" d="M0.000000 194.352562 h732.000000"/><text class="" x="-5" y="197.852562010396">60</text><title>60</title></g><g class="guides"><path class="guide line" d="M0.000000 151.220613 h732.000000"/><text class="" x="-5" y="154.72061305114255">70</text><title>70</title></g><g class="guides"><path class="guide line" d="M0.000000 108.088664 h732.000000"/><text class="" x="-5" y="111.58866409188909">80</text><title>80</title></g><g class="guides"><path class="guide line" d="M0.000000 64.956715 h732.000000"/><text class="" x="-5" y="68.45671513263574">90</text><title>90</title></g><g class="guides"><path class="major guide line" d="M0.000000 21.824766 h732.000000"/><text class="major" x="-5" y="25.324766173382272">100</text><title>100</title></g></g><g class="axis x"><g class="guides"><path class="major line" d="M14.076923 0.000000 v462.029437"/><text class="major" x="14.076923076923077" y="477.02943725152284" transform="rotate(45 14.076923 477.029437)">1987</text></g><g class="guides"><path class="major guide line" d="M45.436405 0.000000 v462.029437"/><text class="major" x="45.436405178979435" y="477.02943725152284" transform="rotate(45 45.436405 477.029437)">1988</text></g><g class="guides"><path class="major guide line" d="M108.155369 0.000000 v462.029437"/><text class="major" x="108.15536938309215" y="477.02943725152284" transform="rotate(45 108.155369 477.029437)">1989</text></g><g class="guides"><path class="major guide line" d="M122.092917 0.000000 v462.029437"/><text class="major" x="122.09291698400608" y="477.02943725152284" transform="rotate(45 122.092917 477.029437)">1990</text></g><g class="guides"><path class="major guide line" d="M146.483625 0.000000 v462.029437"/><text class="major" x="146.48362528560548" y="477.02943725152284" transform="rotate(45 146.483625 477.029437)">1991</text></g><g class="guides"><path class="major guide line" d="M212.686976 0.000000 v462.029437"/><text class="major" x="212.68697638994666" y="477.02943725152284" transform="rotate(45 212.686976 477.029437)">1992</text></g><g class="guides"><path class="major guide line" d="M275.405941 0.000000 v462.029437"/><text class="major" x="275.4059405940594" y="477.02943725152284" transform="rotate(45 275.405941 477.029437)">1993</text></g><g class="guides"><path class="major guide line" d="M366.000000 0.000000 v462.029437"/><text class="major" x="366.0" y="477.02943725152284" transform="rotate(45 366.000000 477.029437)">1994</text></g><g class="guides"><path class="major guide line" d="M397.359482 0.000000 v462.029437"/><text class="major" x="397.3594821020564" y="477.02943725152284" transform="rotate(45 397.359482 477.029437)">1995</text></g><g class="guides"><path class="major guide line" d="M432.203351 0.000000 v462.029437"/><text class="major" x="432.2033511043412" y="477.02943725152284" transform="rotate(45 432.203351 477.029437)">1996</text></g><g class="guides"><path class="major guide line" d="M449.625286 0.000000 v462.029437"/><text class="major" x="449.6252856054836" y="477.02943725152284" transform="rotate(45 449.625286 477.029437)">1997</text></g><g class="guides"><path class="major guide line" d="M512.344250 0.000000 v462.029437"/><text class="major" x="512.3442498095964" y="477.02943725152284" transform="rotate(45 512.344250 477.029437)">1998</text></g><g class="guides"><path class="major guide line" d="M540.219345 0.000000 v462.029437"/><text class="major" x="540.2193450114241" y="477.02943725152284" transform="rotate(45 540.219345 477.029437)">1999</text></g><g class="guides"><path class="major guide line" d="M578.547601 0.000000 v462.029437"/><text class="major" x="578.5476009139376" y="477.02943725152284" transform="rotate(45 578.547601 477.029437)">2001</text></g><g class="guides"><path class="major guide line" d="M641.266565 0.000000 v462.029437"/><text class="major" x="641.2665651180503" y="477.02943725152284" transform="rotate(45 641.266565 477.029437)">2002</text></g><g class="guides"><path class="major guide line" d="M707.469916 0.000000 v462.029437"/><text class="major" x="707.4699162223915" y="477.02943725152284" transform="rotate(45 707.469916 477.029437)">2003</text></g></g><g class="series serie-0 color-0"><path class="line reactive nofill" d="M14.076923 297.653580 L17.561310 298.171163 21.045697 296.316489 24.530084 294.763739 28.014471 293.987364 31.498858 293.987364 34.983244 293.944232 38.467631 294.591211 41.952018 294.720607 45.436405 293.210989 48.920792 293.512913 52.405179 292.822801 55.889566 292.865933 59.373953 292.995329 62.858340 293.642309 66.342727 293.728572 69.827113 294.030496 73.311500 294.979399 76.795887 295.108795 80.280274 295.842038 83.764661 296.920337 87.249048 296.618413 90.733435 297.049732 94.217822 295.151927 97.702209 295.410718 101.186596 294.418684 104.670982 294.332420 108.155369 294.461816 111.639756 294.246156 115.124143 294.461816 118.608530 292.132690 122.092917 292.132690 125.577304 291.054392 129.061691 290.924996 132.546078 289.631037 136.030465 290.450544 139.514851 290.450544 142.999238 291.356315 146.483625 291.054392 149.968012 291.226919 153.452399 291.701371 156.936786 293.124725 160.421173 293.685440 163.905560 293.901100 167.389947 292.305218 170.874334 292.477746 174.358720 293.512913 177.843107 292.348350 181.327494 291.485711 184.811881 291.270051 188.296268 291.960163 191.780655 288.466475 195.265042 289.285982 198.749429 289.501641 202.233816 290.493676 205.718203 290.278016 209.202589 290.709336 212.686976 290.838732 216.171363 291.615107 219.655750 290.364280 223.140137 289.027190 226.624524 290.364280 230.108911 290.407412 233.593298 289.458509 237.077685 289.674169 240.562072 290.881864 244.046458 291.183787 247.530845 289.242850 251.015232 289.329114 254.499619 289.501641 257.984006 289.717301 261.468393 288.337079 264.952780 286.482405 268.437167 283.333773 271.921554 283.721960 275.405941 282.600530 278.890327 283.161245 282.374714 283.290641 285.859101 281.996682 289.343488 279.969481 292.827875 280.832120 296.312262 277.640355 299.796649 273.672216 303.281036 274.966175 306.765423 277.036508 310.249810 274.793647 313.734196 274.750515 317.218583 276.691453 320.702970 274.664251 324.187357 274.017272 327.671744 274.491723 331.156131 270.307924 334.640518 270.307924 338.124905 269.617813 341.609292 272.637049 345.093679 270.998035 348.578065 270.437320 352.062452 264.528243 355.546839 260.948291 359.031226 263.104889 362.515613 263.622472 366.000000 263.061757 369.484387 259.568069 372.968774 261.120819 376.453161 262.846097 379.937548 264.743903 383.421935 263.881264 386.906321 264.528243 390.390708 264.614507 393.875095 266.512313 397.359482 266.037861 400.843869 268.625778 404.328256 268.065063 407.812643 265.304618 411.297030 259.524937 414.781417 259.524937 418.265804 260.991423 421.750190 260.560104 425.234577 259.179881 428.718964 259.438673 432.203351 260.430708 435.687738 261.767798 439.172125 260.991423 442.656512 256.678228 446.140899 258.360374 449.625286 259.956256 453.109673 262.587305 456.594059 266.210389 460.078446 265.822201 463.562833 265.218354 467.047220 266.727972 470.531607 269.272757 474.015994 271.645015 477.500381 271.903806 480.984768 274.491723 484.469155 276.173869 487.953542 276.087605 491.437928 275.354362 494.922315 275.915077 498.406702 278.114807 501.891089 279.322501 505.375476 277.856015 508.859863 267.245556 512.344250 262.759833 515.828637 266.814236 519.313024 269.704077 522.797411 268.582646 526.281797 266.857368 529.766184 259.136749 533.250571 259.352409 536.734958 259.050485 540.219345 259.050485 543.703732 254.737291 547.188119 238.907865 550.672506 244.773810 554.156893 248.741950 557.641280 234.594670 561.125666 239.166657 564.610053 234.551538 568.094440 241.107595 571.578827 245.118866 575.063214 245.118866 578.547601 250.424096 582.031988 242.876005 585.516375 249.345797 589.000762 246.930408 592.485149 243.781776 595.969535 249.604589 599.453922 237.484511 602.938309 244.126831 606.422696 249.345797 609.907083 252.408165 613.391470 261.034555 616.875857 251.200471 620.360244 263.579340 623.844631 265.132090 627.329018 253.874652 630.813404 258.187846 634.297791 265.520278 637.782178 262.457909 641.266565 248.138102 644.750952 233.473240 648.235339 232.265545 651.719726 222.560857 655.204113 230.842191 658.688500 197.889382 662.172887 190.039367 665.657273 202.547632 669.141660 209.017425 672.626047 218.075134 676.110434 231.877358 679.594821 202.461368 683.079208 88.247968 686.563595 110.676581 690.047982 74.661404 693.532369 119.949950 697.016756 185.726172 700.501142 155.533808 703.985529 182.836332 707.469916 214.495182 710.954303 8.885181 714.438690 190.039367 717.923077 323.748409"/></g><g class="series serie-1 color-1"><path class="line reactive nofill" d="M14.076923 453.144256 L17.561310 353.940773 21.045697 381.243297 24.530084 387.022978 28.014471 382.494123 31.498858 372.142456 34.983244 365.155080 38.467631 353.509454 41.952018 346.090758 45.436405 359.246003 48.920792 350.533349 52.405179 355.105336 55.889566 354.501488 59.373953 353.078134 62.858340 345.314383 66.342727 343.891029 69.827113 340.699265 73.311500 329.226166 76.795887 325.905006 80.280274 317.796200 83.764661 305.676122 87.249048 308.264039 90.733435 303.390129 94.217822 318.184387 97.702209 314.906359 101.186596 320.513513 104.670982 319.780270 108.155369 318.917631 111.639756 319.435214 115.124143 318.098124 118.608530 328.794847 122.092917 327.500888 125.577304 330.735785 129.061691 330.304465 132.546078 333.841285 136.030465 330.045673 139.514851 329.010507 142.999238 325.085499 146.483625 325.516819 149.968012 323.877805 153.452399 321.807471 156.936786 316.157186 160.421173 313.353609 163.905560 312.016519 167.389947 316.847297 170.874334 315.639602 174.358720 312.016519 177.843107 315.122019 181.327494 316.761033 184.811881 316.933561 188.296268 314.776964 191.780655 322.583846 195.265042 320.254721 198.749429 319.176422 202.233816 316.588505 205.718203 316.631637 209.202589 315.035755 212.686976 314.259380 216.171363 312.447838 219.655750 314.604436 223.140137 316.717901 226.624524 313.741797 230.108911 313.353609 233.593298 314.561304 237.077685 313.698665 240.562072 311.283276 244.046458 310.420637 247.530845 313.439873 251.015232 312.965422 254.499619 312.232179 257.984006 311.542067 261.468393 313.267345 264.952780 315.596471 268.437167 319.219554 271.921554 318.184387 275.405941 319.305818 278.890327 318.572575 282.374714 317.925596 285.859101 318.788235 289.343488 320.556645 292.827875 319.478346 296.312262 322.540714 299.796649 325.646215 303.281036 324.136596 306.765423 321.721207 310.249810 323.273957 313.734196 322.756374 317.218583 320.642909 320.702970 321.850603 324.187357 322.023131 327.671744 321.074228 331.156131 323.619013 334.640518 323.058298 338.124905 323.187694 341.609292 320.427249 345.093679 320.944832 348.578065 320.944832 352.062452 324.265992 355.546839 325.905006 359.031226 324.265992 362.515613 323.877805 366.000000 323.748409 369.484387 325.171763 372.968774 324.050333 376.453161 322.842638 379.937548 321.419284 383.421935 321.548679 386.906321 320.599777 390.390708 320.039061 393.875095 318.745103 397.359482 318.615707 400.843869 316.890429 404.328256 316.847297 407.812643 317.753068 411.297030 319.823402 414.781417 319.348950 418.265804 318.054992 421.750190 317.796200 425.234577 318.098124 428.718964 317.494276 432.203351 316.545373 435.687738 315.855262 439.172125 315.812130 442.656512 317.019825 446.140899 316.243450 449.625286 315.467075 453.109673 314.216248 456.594059 312.534102 460.078446 312.361574 463.562833 312.275310 467.047220 311.585199 470.531607 310.463769 474.015994 309.385470 477.500381 309.256074 480.984768 308.091511 484.469155 307.358268 487.953542 307.142609 491.437928 307.228872 494.922315 306.754421 498.406702 305.848650 501.891089 305.158539 505.375476 305.546726 508.859863 308.565963 512.344250 309.514866 515.828637 308.134643 519.313024 307.142609 522.797411 307.272004 526.281797 307.573928 529.766184 309.342338 533.250571 308.954150 536.734958 308.695359 540.219345 308.393435 543.703732 308.867886 547.188119 311.110748 550.672506 309.773657 554.156893 308.867886 557.641280 310.636296 561.125666 309.687394 564.610053 309.730525 568.094440 308.479699 571.578827 307.703324 575.063214 307.315136 578.547601 306.323102 582.031988 306.926949 585.516375 305.848650 589.000762 305.891782 592.485149 306.021178 595.969535 305.115407 599.453922 306.193706 602.938309 305.244803 606.422696 304.511560 609.907083 304.080240 613.391470 302.829414 616.875857 303.605789 620.360244 302.009907 623.844631 301.837379 627.329018 302.700018 630.813404 302.225566 634.297791 301.362927 637.782178 301.492323 641.266565 302.441226 644.750952 303.045073 648.235339 302.743150 651.719726 303.088205 655.204113 302.484358 658.688500 303.692053 662.172887 303.519525 665.657273 302.829414 669.141660 302.484358 672.626047 302.009907 676.110434 301.233532 679.594821 301.751115 683.079208 303.217601 686.563595 302.613754 690.047982 302.354962 693.532369 301.406059 697.016756 300.025837 700.501142 299.896441 703.985529 299.465122 707.469916 298.947538 710.954303 299.163198 714.438690 298.214295 717.923077 297.524184"/></g><g class="series serie-2 color-2"><path class="line reactive nofill" d="M14.076923 297.653580 L17.561310 297.653580 21.045697 297.653580 24.530084 297.653580 28.014471 297.653580 31.498858 297.653580 34.983244 297.653580 38.467631 297.653580 41.952018 297.653580 45.436405 297.653580 48.920792 297.653580 52.405179 297.653580 55.889566 297.653580 59.373953 297.653580 62.858340 297.653580 66.342727 297.653580 69.827113 297.653580 73.311500 297.653580 76.795887 297.653580 80.280274 297.653580 83.764661 297.653580 87.249048 297.653580 90.733435 297.653580 94.217822 297.653580 97.702209 297.653580 101.186596 297.653580 104.670982 297.653580 108.155369 297.653580 111.639756 297.653580 115.124143 297.653580 118.608530 297.653580 122.092917 297.653580 125.577304 297.653580 129.061691 297.653580 132.546078 297.653580 136.030465 297.653580 139.514851 297.653580 142.999238 297.653580 146.483625 297.653580 149.968012 297.653580 153.452399 297.653580 156.936786 297.653580 160.421173 297.653580 163.905560 297.653580 167.389947 297.653580 170.874334 297.653580 174.358720 297.653580 177.843107 297.653580 181.327494 297.653580 184.811881 297.653580 188.296268 297.653580 191.780655 297.653580 195.265042 297.653580 198.749429 297.653580 202.233816 297.653580 205.718203 297.653580 209.202589 297.653580 212.686976 297.653580 216.171363 297.653580 219.655750 297.653580 223.140137 297.653580 226.624524 297.653580 230.108911 297.653580 233.593298 297.653580 237.077685 297.653580 240.562072 297.653580 244.046458 297.653580 247.530845 297.653580 251.015232 297.653580 254.499619 297.653580 257.984006 297.653580 261.468393 297.653580 264.952780 297.653580 268.437167 297.653580 271.921554 297.653580 275.405941 297.653580 278.890327 297.653580 282.374714 297.653580 285.859101 297.653580 289.343488 297.653580 292.827875 297.653580 296.312262 297.653580 299.796649 297.653580 303.281036 297.653580 306.765423 297.653580 310.249810 297.653580 313.734196 297.653580 317.218583 297.653580 320.702970 297.653580 324.187357 297.653580 327.671744 297.653580 331.156131 297.653580 334.640518 297.653580 338.124905 297.653580 341.609292 297.653580 345.093679 297.653580 348.578065 297.653580 352.062452 297.653580 355.546839 297.653580 359.031226 297.653580 362.515613 297.653580 366.000000 297.653580 369.484387 297.653580 372.968774 297.653580 376.453161 297.653580 379.937548 297.653580 383.421935 297.653580 386.906321 297.653580 390.390708 297.653580 393.875095 297.653580 397.359482 297.653580 400.843869 297.653580 404.328256 297.653580 407.812643 297.653580 411.297030 297.653580 414.781417 297.653580 418.265804 297.653580 421.750190 297.653580 425.234577 297.653580 428.718964 297.653580 432.203351 297.653580 435.687738 297.653580 439.172125 297.653580 442.656512 297.653580 446.140899 297.653580 449.625286 297.653580 453.109673 297.653580 456.594059 297.653580 460.078446 297.653580 463.562833 297.653580 467.047220 297.653580 470.531607 297.653580 474.015994 297.653580 477.500381 297.653580 480.984768 297.653580 484.469155 297.653580 487.953542 297.653580 491.437928 297.653580 494.922315 297.653580 498.406702 297.653580 501.891089 297.653580 505.375476 297.653580 508.859863 297.653580 512.344250 297.653580 515.828637 297.653580 519.313024 297.653580 522.797411 297.653580 526.281797 297.653580 529.766184 297.653580 533.250571 297.653580 536.734958 297.653580 540.219345 297.653580 543.703732 297.653580 547.188119 297.653580 550.672506 297.653580 554.156893 297.653580 557.641280 297.653580 561.125666 297.653580 564.610053 297.653580 568.094440 297.653580 571.578827 297.653580 575.063214 297.653580 578.547601 297.653580 582.031988 297.653580 585.516375 297.653580 589.000762 297.653580 592.485149 297.653580 595.969535 297.653580 599.453922 297.653580 602.938309 297.653580 606.422696 297.653580 609.907083 297.653580 613.391470 297.653580 616.875857 297.653580 620.360244 297.653580 623.844631 297.653580 627.329018 297.653580 630.813404 297.653580 634.297791 297.653580 637.782178 297.653580 641.266565 297.653580 644.750952 297.653580 648.235339 297.653580 651.719726 297.653580 655.204113 297.653580 658.688500 297.653580 662.172887 297.653580 665.657273 297.653580 669.141660 297.653580 672.626047 297.653580 676.110434 297.653580 679.594821 297.653580 683.079208 297.653580 686.563595 297.653580 690.047982 297.653580 693.532369 297.653580 697.016756 297.653580 700.501142 297.653580 703.985529 297.653580 707.469916 297.653580 710.954303 297.653580 714.438690 297.653580 717.923077 297.653580"/></g></g><g class="titles"><text class="title plot_title" x="400.0" y="26">CL Hooper: Future and Past Averages in ODIs</text></g><g class="plot overlay" transform="translate(48, 46)"><g class="series serie-0 color-0"><g class="dots"><desc class="label">193 wickets in 203 innings (1595.3 overs)</desc><circle class="dot reactive tooltip-trigger" cx="14.076923076923077" cy="297.65357976780797" r="2.5"/><desc class="value">36.05</desc><desc class="x top">14.076923076923077</desc><desc class="y top">297.65357976780797</desc><desc class="x_label">1987</desc></g><g class="dots"><desc class="label">180 wickets in 194 innings (1532.3 overs)</desc><circle class="dot reactive tooltip-trigger" cx="45.436405178979435" cy="293.2109890250049" r="2.5"/><desc class="value">37.08</desc><desc class="x top">45.436405178979435</desc><desc class="y top">293.2109890250049</desc><desc class="x_label">1988</desc></g><g class="dots"><desc class="label">168 wickets in 176 innings (1437.3 overs)</desc><circle class="dot reactive tooltip-trigger" cx="108.15536938309215" cy="294.46181554482325" r="2.5"/><desc class="value">36.79</desc><desc class="x top">108.15536938309215</desc><desc class="y top">294.46181554482325</desc><desc class="x_label">1989</desc></g><g class="dots"><desc class="label">163 wickets in 172 innings (1413.3 overs)</desc><circle class="dot reactive tooltip-trigger" cx="122.09291698400608" cy="292.13269030102356" r="2.5"/><desc class="value">37.33</desc><desc class="x top">122.09291698400608</desc><desc class="y top">292.13269030102356</desc><desc class="x_label">1990</desc></g><g class="dots"><desc class="label">156 wickets in 165 innings (1356.2 overs)</desc><circle class="dot reactive tooltip-trigger" cx="146.48362528560548" cy="291.0543915770422" r="2.5"/><desc class="value">37.58</desc><desc class="x top">146.48362528560548</desc><desc class="y top">291.0543915770422</desc><desc class="x_label">1991</desc></g><g class="dots"><desc class="label">137 wickets in 146 innings (1197.4 overs)</desc><circle class="dot reactive tooltip-trigger" cx="212.68697638994666" cy="290.8387318322459" r="2.5"/><desc class="value">37.63</desc><desc class="x top">212.68697638994666</desc><desc class="y top">290.8387318322459</desc><desc class="x_label">1992</desc></g><g class="dots"><desc class="label">114 wickets in 128 innings (1031.5 overs)</desc><circle class="dot reactive tooltip-trigger" cx="275.4059405940594" cy="282.6005295810285" r="2.5"/><desc class="value">39.54</desc><desc class="x top">275.4059405940594</desc><desc class="y top">282.6005295810285</desc><desc class="x_label">1993</desc></g><g class="dots"><desc class="label">83 wickets in 102 innings (821.5 overs)</desc><circle class="dot reactive tooltip-trigger" cx="366.0" cy="263.0617567024867" r="2.5"/><desc class="value">44.07</desc><desc class="x top">366.0</desc><desc class="y top">263.0617567024867</desc><desc class="x_label">1994</desc></g><g class="dots"><desc class="label">77 wickets in 93 innings (756.5 overs)</desc><circle class="dot reactive tooltip-trigger" cx="397.3594821020564" cy="266.03786118067524" r="2.5"/><desc class="value">43.38</desc><desc class="x left top">397.3594821020564</desc><desc class="y left top">266.03786118067524</desc><desc class="x_label">1995</desc></g><g class="dots"><desc class="label">65 wickets in 83 innings (670.5 overs)</desc><circle class="dot reactive tooltip-trigger" cx="432.2033511043412" cy="260.43070781597226" r="2.5"/><desc class="value">44.68</desc><desc class="x left top">432.2033511043412</desc><desc class="y left top">260.43070781597226</desc><desc class="x_label">1996</desc></g><g class="dots"><desc class="label">62 wickets in 78 innings (635.5 overs)</desc><circle class="dot reactive tooltip-trigger" cx="449.6252856054836" cy="259.95625637742046" r="2.5"/><desc class="value">44.79</desc><desc class="x left top">449.6252856054836</desc><desc class="y left top">259.95625637742046</desc><desc class="x_label">1997</desc></g><g class="dots"><desc class="label">49 wickets in 60 innings (489.2 overs)</desc><circle class="dot reactive tooltip-trigger" cx="512.3442498095964" cy="262.75983305977195" r="2.5"/><desc class="value">44.14</desc><desc class="x left top">512.3442498095964</desc><desc class="y left top">262.75983305977195</desc><desc class="x_label">1998</desc></g><g class="dots"><desc class="label">42 wickets in 52 innings (423.2 overs)</desc><circle class="dot reactive tooltip-trigger" cx="540.2193450114241" cy="259.05048544927615" r="2.5"/><desc class="value">45</desc><desc class="x left top">540.2193450114241</desc><desc class="y left top">259.05048544927615</desc><desc class="x_label">1999</desc></g><g class="dots"><desc class="label">30 wickets in 41 innings (329.2 overs)</desc><circle class="dot reactive tooltip-trigger" cx="578.5476009139376" cy="250.42409565742548" r="2.5"/><desc class="value">47</desc><desc class="x left top">578.5476009139376</desc><desc class="y left top">250.42409565742548</desc><desc class="x_label">2001</desc></g><g class="dots"><desc class="label">17 wickets in 23 innings (177.0 overs)</desc><circle class="dot reactive tooltip-trigger" cx="641.2665651180503" cy="248.13810236258504" r="2.5"/><desc class="value">47.53</desc><desc class="x left top">641.2665651180503</desc><desc class="y left top">248.13810236258504</desc><desc class="x_label">2002</desc></g><g class="dots"><desc class="label">3 wickets in 4 innings (33.0 overs)</desc><circle class="dot reactive tooltip-trigger" cx="707.4699162223915" cy="214.49518217436736" r="2.5"/><desc class="value">55.33</desc><desc class="x left">707.4699162223915</desc><desc class="y left">214.49518217436736</desc><desc class="x_label">2003</desc></g></g><g class="series serie-1 color-1"><g class="dots"><desc class="label">0 wickets over 0 innings</desc><circle class="dot reactive tooltip-trigger" cx="14.076923076923077" cy="453.1442557659166" r="2.5"/><desc class="value">0</desc><desc class="x top">14.076923076923077</desc><desc class="y top">453.1442557659166</desc><desc class="x_label">1987</desc></g><g class="dots"><desc class="label">13 wickets in 9 innings (63.0 overs)</desc><circle class="dot reactive tooltip-trigger" cx="45.436405178979435" cy="359.2460028816219" r="2.5"/><desc class="value">21.77</desc><desc class="x top">45.436405178979435</desc><desc class="y top">359.2460028816219</desc><desc class="x_label">1988</desc></g><g class="dots"><desc class="label">25 wickets in 27 innings (158.0 overs)</desc><circle class="dot reactive tooltip-trigger" cx="108.15536938309215" cy="318.91763060471993" r="2.5"/><desc class="value">31.12</desc><desc class="x top">108.15536938309215</desc><desc class="y top">318.91763060471993</desc><desc class="x_label">1989</desc></g><g class="dots"><desc class="label">30 wickets in 31 innings (182.0 overs)</desc><circle class="dot reactive tooltip-trigger" cx="122.09291698400608" cy="327.5008884476114" r="2.5"/><desc class="value">29.13</desc><desc class="x top">122.09291698400608</desc><desc class="y top">327.5008884476114</desc><desc class="x_label">1990</desc></g><g class="dots"><desc class="label">37 wickets in 38 innings (239.1 overs)</desc><circle class="dot reactive tooltip-trigger" cx="146.48362528560548" cy="325.51681879548573" r="2.5"/><desc class="value">29.59</desc><desc class="x top">146.48362528560548</desc><desc class="y top">325.51681879548573</desc><desc class="x_label">1991</desc></g><g class="dots"><desc class="label">56 wickets in 57 innings (397.5 overs)</desc><circle class="dot reactive tooltip-trigger" cx="212.68697638994666" cy="314.25938011712054" r="2.5"/><desc class="value">32.2</desc><desc class="x top">212.68697638994666</desc><desc class="y top">314.25938011712054</desc><desc class="x_label">1992</desc></g><g class="dots"><desc class="label">79 wickets in 75 innings (563.4 overs)</desc><circle class="dot reactive tooltip-trigger" cx="275.4059405940594" cy="319.3058181453532" r="2.5"/><desc class="value">31.03</desc><desc class="x top">275.4059405940594</desc><desc class="y top">319.3058181453532</desc><desc class="x_label">1993</desc></g><g class="dots"><desc class="label">110 wickets in 101 innings (773.4 overs)</desc><circle class="dot reactive tooltip-trigger" cx="366.0" cy="323.7484088881563" r="2.5"/><desc class="value">30</desc><desc class="x top">366.0</desc><desc class="y top">323.7484088881563</desc><desc class="x_label">1994</desc></g><g class="dots"><desc class="label">116 wickets in 110 innings (838.4 overs)</desc><circle class="dot reactive tooltip-trigger" cx="397.3594821020564" cy="318.61570696200516" r="2.5"/><desc class="value">31.19</desc><desc class="x left top">397.3594821020564</desc><desc class="y left top">318.61570696200516</desc><desc class="x_label">1995</desc></g><g class="dots"><desc class="label">128 wickets in 120 innings (924.4 overs)</desc><circle class="dot reactive tooltip-trigger" cx="432.2033511043412" cy="316.545373411961" r="2.5"/><desc class="value">31.67</desc><desc class="x left top">432.2033511043412</desc><desc class="y left top">316.545373411961</desc><desc class="x_label">1996</desc></g><g class="dots"><desc class="label">131 wickets in 125 innings (959.4 overs)</desc><circle class="dot reactive tooltip-trigger" cx="449.6252856054836" cy="315.4670746879797" r="2.5"/><desc class="value">31.92</desc><desc class="x left top">449.6252856054836</desc><desc class="y left top">315.4670746879797</desc><desc class="x_label">1997</desc></g><g class="dots"><desc class="label">144 wickets in 143 innings (1106.1 overs)</desc><circle class="dot reactive tooltip-trigger" cx="512.3442498095964" cy="309.51486573160264" r="2.5"/><desc class="value">33.3</desc><desc class="x left top">512.3442498095964</desc><desc class="y left top">309.51486573160264</desc><desc class="x_label">1998</desc></g><g class="dots"><desc class="label">151 wickets in 151 innings (1172.1 overs)</desc><circle class="dot reactive tooltip-trigger" cx="540.2193450114241" cy="308.3934350586621" r="2.5"/><desc class="value">33.56</desc><desc class="x left top">540.2193450114241</desc><desc class="y left top">308.3934350586621</desc><desc class="x_label">1999</desc></g><g class="dots"><desc class="label">163 wickets in 162 innings (1266.1 overs)</desc><circle class="dot reactive tooltip-trigger" cx="578.5476009139376" cy="306.3231015086179" r="2.5"/><desc class="value">34.04</desc><desc class="x left top">578.5476009139376</desc><desc class="y left top">306.3231015086179</desc><desc class="x_label">2001</desc></g><g class="dots"><desc class="label">176 wickets in 180 innings (1418.3 overs)</desc><circle class="dot reactive tooltip-trigger" cx="641.2665651180503" cy="302.4412261022851" r="2.5"/><desc class="value">34.94</desc><desc class="x left top">641.2665651180503</desc><desc class="y left top">302.4412261022851</desc><desc class="x_label">2002</desc></g><g class="dots"><desc class="label">190 wickets in 199 innings (1562.3 overs)</desc><circle class="dot reactive tooltip-trigger" cx="707.4699162223915" cy="298.94753823658556" r="2.5"/><desc class="value">35.75</desc><desc class="x left top">707.4699162223915</desc><desc class="y left top">298.94753823658556</desc><desc class="x_label">2003</desc></g></g><g class="series serie-2 color-2"/></g><g class="plot text-overlay" transform="translate(48, 46)"><g class="series serie-0 color-0"/><g class="series serie-1 color-1"/><g class="series serie-2 color-2"/></g><g class="plot tooltip-overlay" transform="translate(48, 46)"><g class="tooltip" style="opacity: 0" transform="translate(0 0)"><rect class="tooltip-box" height="0" rx="10" ry="10" width="0"/><g class="text"/></g></g><g class="legends" transform="translate(58, 545)"><g class="legend reactive activate-serie" id="activate-serie-0"><rect class="color-0 reactive" height="12" width="12" x="0.0" y="1.0"/><text x="17.0" y="11.2">Future Average</text></g><g class="legend reactive activate-serie" id="activate-serie-1"><rect class="color-1 reactive" height="12" width="12" x="366.0" y="1.0"/><text x="383.0" y="11.2">Past Average</text></g><g class="legend reactive activate-serie" id="activate-serie-2"><rect class="color-2 reactive" height="12" width="12" x="0.0" y="22.0"/><text x="17.0" y="32.2">Career Average</text></g></g></g></svg>