<?xml version='1.0' encoding='utf-8'?>
<svg xmlns:xlink="http://www.w3.org/1999/xlink" xmlns="http://www.w3.org/2000/svg" id="chart-b936caf0-8c20-429b-9be9-413b317a243d" class="pygal-chart" viewBox="0 0 800 600"><!--Generated with pygal 2.4.0 (lxml) ©Kozea 2012-2016 on 2019-08-04--><!--http://pygal.org--><!--http://github.com/Kozea/pygal--><defs><style type="text/css">#chart-b936caf0-8c20-429b-9be9-413b317a243d{-webkit-user-select:none;-webkit-font-smoothing:antialiased;font-family:Consolas,"Liberation Mono",Menlo,Courier,monospace}#chart-b936caf0-8c20-429b-9be9-413b317a243d .title{font-family:Consolas,"Liberation Mono",Menlo,Courier,monospace;font-size:16px}#chart-b936caf0-8c20-429b-9be9-413b317a243d .legends .legend text{font-family:Consolas,"Liberation Mono",Menlo,Courier,monospace;font-size:14px}#chart-b936caf0-8c20-429b-9be9-413b317a243d .axis text{font-family:Consolas,"Liberation Mono",Menlo,Courier,monospace;font-size:10px}#chart-b936caf0-8c20-429b-9be9-413b317a243d .axis text.major{font-family:Consolas,"Liberation Mono",Menlo,Courier,monospace;font-size:10px}#chart-b936caf0-8c20-429b-9be9-413b317a243d .text-overlay text.value{font-family:Consolas,"Liberation Mono",Menlo,Courier,monospace;font-size:16px}#chart-b936caf0-8c20-429b-9be9-413b317a243d .text-overlay text.label{font-family:Consolas,"Liberation Mono",Menlo,Courier,monospace;font-size:10px}#chart-b936caf0-8c20-429b-9be9-413b317a243d .tooltip{font-family:Consolas,"Liberation Mono",Menlo,Courier,monospace;font-size:14px}#chart-b936caf0-8c20-429b-9be9-413b317a243d text.no_data{font-family:Consolas,"Liberation Mono",Menlo,Courier,monospace;font-size:64px}
#chart-b936caf0-8c20-429b-9be9-413b317a243d{background-color:rgba(249,249,249,1)}#chart-b936caf0-8c20-429b-9be9-413b317a243d path,#chart-b936caf0-8c20-429b-9be9-413b317a243d line,#chart-b936caf0-8c20-429b-9be9-413b317a243d rect,#chart-b936caf0-8c20-429b-9be9-413b317a243d circle{-webkit-transition:150ms;-moz-transition:150ms;transition:150ms}#chart-b936caf0-8c20-429b-9be9-413b317a243d .graph &gt; .background{fill:rgba(249,249,249,1)}#chart-b936caf0-8c20-429b-9be9-413b317a243d .plot &gt; .background{fill:rgba(255,255,255,1)}#chart-b936caf0-8c20-429b-9be9-413b317a243d .graph{fill:rgba(0,0,0,.87)}#chart-b936caf0-8c20-429b-9be9-413b317a243d text.no_data{fill:rgba(0,0,0,1)}#chart-b936caf0-8c20-429b-9be9-413b317a243d .title{fill:rgba(0,0,0,1)}#chart-b936caf0-8c20-429b-9be9-413b317a243d .legends .legend text{fill:rgba(0,0,0,.87)}#chart-b936caf0-8c20-429b-9be9-413b317a243d .legends .legend:hover text{fill:rgba(0,0,0,1)}#chart-b936caf0-8c20-429b-9be9-413b317a243d .axis .line{stroke:rgba(0,0,0,1)}#chart-b936caf0-8c20-429b-9be9-413b317a243d .axis .guide.line{stroke:rgba(0,0,0,.54)}#chart-b936caf0-8c20-429b-9be9-413b317a243d .axis .major.line{stroke:rgba(0,0,0,.87)}#chart-b936caf0-8c20-429b-9be9-413b317a243d .axis text.major{fill:rgba(0,0,0,1)}#chart-b936caf0-8c20-429b-9be9-413b317a243d .axis.y .guides:hover .guide.line,#chart-b936caf0-8c20-429b-9be9-413b317a243d .line-graph .axis.x .guides:hover .guide.line,#chart-b936caf0-8c20-429b-9be9-413b317a243d .stackedline-graph .axis.x .guides:hover .guide.line,#chart-b936caf0-8c20-429b-9be9-413b317a243d .xy-graph .axis.x .guides:hover .guide.line{stroke:rgba(0,0,0,1)}#chart-b936caf0-8c20-429b-9be9-413b317a243d .axis .guides:hover text{fill:rgba(0,0,0,1)}#chart-b936caf0-8c20-429b-9be9-413b317a243d .reactive{fill-opacity:.7;stroke-opacity:.8}#chart-b936caf0-8c20-429b-9be9-413b317a243d .ci{stroke:rgba(0,0,0,.87)}#chart-b936caf0-8c20-429b-9be9-413b317a243d .reactive.active,#chart-b936caf0-8c20-429b-9be9-413b317a243d .active .reactive{fill-opacity:.8;stroke-opacity:.9;stroke-width:4}#chart-b936caf0-8c20-429b-9be9-413b317a243d .ci .reactive.active{stroke-width:1.5}#chart-b936caf0-8c20-429b-9be9-413b317a243d .series text{fill:rgba(0,0,0,1)}#chart-b936caf0-8c20-429b-9be9-413b317a243d .tooltip rect{fill:rgba(255,255,255,1);stroke:rgba(0,0,0,1);-webkit-transition:opacity 150ms;-moz-transition:opacity 150ms;transition:opacity 150ms}#chart-b936caf0-8c20-429b-9be9-413b317a243d .tooltip .label{fill:rgba(0,0,0,.87)}#chart-b936caf0-8c20-429b-9be9-413b317a243d .tooltip .label{fill:rgba(0,0,0,.87)}#chart-b936caf0-8c20-429b-9be9-413b317a243d .tooltip .legend{font-size:.8em;fill:rgba(0,0,0,.54)}#chart-b936caf0-8c20-429b-9be9-413b317a243d .tooltip .x_label{font-size:.6em;fill:rgba(0,0,0,1)}#chart-b936caf0-8c20-429b-9be9-413b317a243d .tooltip .xlink{font-size:.5em;text-decoration:underline}#chart-b936caf0-8c20-429b-9be9-413b317a243d .tooltip .value{font-size:1.5em}#chart-b936caf0-8c20-429b-9be9-413b317a243d .bound{font-size:.5em}#chart-b936caf0-8c20-429b-9be9-413b317a243d .max-value{font-size:.75em;fill:rgba(0,0,0,.54)}#chart-b936caf0-8c20-429b-9be9-413b317a243d .map-element{fill:rgba(255,255,255,1);stroke:rgba(0,0,0,.54) !important}#chart-b936caf0-8c20-429b-9be9-413b317a243d .map-element .reactive{fill-opacity:inherit;stroke-opacity:inherit}#chart-b936caf0-8c20-429b-9be9-413b317a243d .color-0,#chart-b936caf0-8c20-429b-9be9-413b317a243d .color-0 a:visited{stroke:red;fill:red}#chart-b936caf0-8c20-429b-9be9-413b317a243d .color-1,#chart-b936caf0-8c20-429b-9be9-413b317a243d .color-1 a:visited{stroke:blue;fill:blue}#chart-b936caf0-8c20-429b-9be9-413b317a243d .color-2,#chart-b936caf0-8c20-429b-9be9-413b317a243d .color-2 a:visited{stroke:green;fill:green}#chart-b936caf0-8c20-429b-9be9-413b317a243d .text-overlay .color-0 text{fill:white}#chart-b936caf0-8c20-429b-9be9-413b317a243d .text-overlay .color-1 text{fill:white}#chart-b936caf0-8c20-429b-9be9-413b317a243d .text-overlay .color-2 text{fill:white}
#chart-b936caf0-8c20-429b-9be9-413b317a243d text.no_data{text-anchor:middle}#chart-b936caf0-8c20-429b-9be9-413b317a243d .guide.line{fill:none}#chart-b936caf0-8c20-429b-9be9-413b317a243d .centered{text-anchor:middle}#chart-b936caf0-8c20-429b-9be9-413b317a243d .title{text-anchor:middle}#chart-b936caf0-8c20-429b-9be9-413b317a243d .legends .legend text{fill-opacity:1}#chart-b936caf0-8c20-429b-9be9-413b317a243d .axis.x text{text-anchor:middle}#chart-b936caf0-8c20-429b-9be9-413b317a243d .axis.x:not(.web) text[transform]{text-anchor:start}#chart-b936caf0-8c20-429b-9be9-413b317a243d .axis.x:not(.web) text[transform].backwards{text-anchor:end}#chart-b936caf0-8c20-429b-9be9-413b317a243d .axis.y text{text-anchor:end}#chart-b936caf0-8c20-429b-9be9-413b317a243d .axis.y text[transform].backwards{text-anchor:start}#chart-b936caf0-8c20-429b-9be9-413b317a243d .axis.y2 text{text-anchor:start}#chart-b936caf0-8c20-429b-9be9-413b317a243d .axis.y2 text[transform].backwards{text-anchor:end}#chart-b936caf0-8c20-429b-9be9-413b317a243d .axis .guide.line{stroke-dasharray:4,4}#chart-b936caf0-8c20-429b-9be9-413b317a243d .axis .major.guide.line{stroke-dasharray:6,6}#chart-b936caf0-8c20-429b-9be9-413b317a243d .horizontal .axis.y .guide.line,#chart-b936caf0-8c20-429b-9be9-413b317a243d .horizontal .axis.y2 .guide.line,#chart-b936caf0-8c20-429b-9be9-413b317a243d .vertical .axis.x .guide.line{opacity:0}#chart-b936caf0-8c20-429b-9be9-413b317a243d .horizontal .axis.always_show .guide.line,#chart-b936caf0-8c20-429b-9be9-413b317a243d .vertical .axis.always_show .guide.line{opacity:1 !important}#chart-b936caf0-8c20-429b-9be9-413b317a243d .axis.y .guides:hover .guide.line,#chart-b936caf0-8c20-429b-9be9-413b317a243d .axis.y2 .guides:hover .guide.line,#chart-b936caf0-8c20-429b-9be9-413b317a243d .axis.x .guides:hover .guide.line{opacity:1}#chart-b936caf0-8c20-429b-9be9-413b317a243d .axis .guides:hover text{opacity:1}#chart-b936caf0-8c20-429b-9be9-413b317a243d .nofill{fill:none}#chart-b936caf0-8c20-429b-9be9-413b317a243d .subtle-fill{fill-opacity:.2}#chart-b936caf0-8c20-429b-9be9-413b317a243d .dot{stroke-width:1px;fill-opacity:1}#chart-b936caf0-8c20-429b-9be9-413b317a243d .dot.active{stroke-width:5px}#chart-b936caf0-8c20-429b-9be9-413b317a243d .dot.negative{fill:transparent}#chart-b936caf0-8c20-429b-9be9-413b317a243d text,#chart-b936caf0-8c20-429b-9be9-413b317a243d tspan{stroke:none !important}#chart-b936caf0-8c20-429b-9be9-413b317a243d .series text.active{opacity:1}#chart-b936caf0-8c20-429b-9be9-413b317a243d .tooltip rect{fill-opacity:.95;stroke-width:.5}#chart-b936caf0-8c20-429b-9be9-413b317a243d .tooltip text{fill-opacity:1}#chart-b936caf0-8c20-429b-9be9-413b317a243d .showable{visibility:hidden}#chart-b936caf0-8c20-429b-9be9-413b317a243d .showable.shown{visibility:visible}#chart-b936caf0-8c20-429b-9be9-413b317a243d .gauge-background{fill:rgba(229,229,229,1);stroke:none}#chart-b936caf0-8c20-429b-9be9-413b317a243d .bg-lines{stroke:rgba(249,249,249,1);stroke-width:2px}</style><script type="text/javascript">window.pygal = window.pygal || {};window.pygal.config = window.pygal.config || {};window.pygal.config['b936caf0-8c20-429b-9be9-413b317a243d'] = {"allow_interruptions": false, "box_mode": "extremes", "classes": ["pygal-chart"], "css": ["file://style.css", "file://graph.css"], "defs": [], "disable_xml_declaration": false, "dots_size": 2.5, "dynamic_print_values": false, "explicit_size": false, "fill": false, "force_uri_protocol": "https", "formatter": null, "half_pie": false, "height": 600, "include_x_axis": false, "inner_radius": 0, "interpolate": null, "interpolation_parameters": {}, "interpolation_precision": 250, "inverse_y_axis": false, "js": ["//kozea.github.io/pygal.js/2.0.x/pygal-tooltips.min.js"], "legend_at_bottom": true, "legend_at_bottom_columns": null, "legend_box_size": 12, "logarithmic": false, "margin": 20, "margin_bottom": null, "margin_left": null, "margin_right": null, "margin_top": null, "max_scale": 16, "min_scale": 4, "missing_value_fill_truncation": "x", "no_data_text": "No data", "no_prefix": false, "order_min": null, "pretty_print": false, "print_labels": false, "print_values": false, "print_values_position": "center", "print_zeroes": true, "range": null, "rounded_bars": null, "secondary_range": null, "show_dots": true, "show_legend": true, "show_minor_x_labels": false, "show_minor_y_labels": true, "show_only_major_dots": false, "show_x_guides": false, "show_x_labels": true, "show_y_guides": true, "show_y_labels": true, "spacing": 10, "stack_from_top": false, "strict": false, "stroke": true, "stroke_style": null, "style": {"background": "rgba(249, 249, 249, 1)", "ci_colors": [], "colors": ["red", "blue", "green", "#a3a3a3"], "font_family": "Consolas, \"Liberation Mono\", Menlo, Courier, monospace", "foreground": "rgba(0, 0, 0, .87)", "foreground_strong": "rgba(0, 0, 0, 1)", "foreground_subtle": "rgba(0, 0, 0, .54)", "guide_stroke_dasharray": "4,4", "label_font_family": "Consolas, \"Liberation Mono\", Menlo, Courier, monospace", "label_font_size": 10, "legend_font_family": "Consolas, \"Liberation Mono\", Menlo, Courier, monospace", "legend_font_size": 14, "major_guide_stroke_dasharray": "6,6", "major_label_font_family": "Consolas, \"Liberation Mono\", Menlo, Courier, monospace", "major_label_font_size": 10, "no_data_font_family": "Consolas, \"Liberation Mono\", Menlo, Courier, monospace", "no_data_font_size": 64, "opacity": ".7", "opacity_hover": ".8", "plot_background": "rgba(255, 255, 255, 1)", "stroke_opacity": ".8", "stroke_opacity_hover": ".9", "title_font_family": "Consolas, \"Liberation Mono\", Menlo, Courier, monospace", "title_font_size": 16, "tooltip_font_family": "Consolas, \"Liberation Mono\", Menlo, Courier, monospace", "tooltip_font_size": 14, "transition": "150ms", "value_background": "rgba(229, 229, 229, 1)", "value_colors": [], "value_font_family": "Consolas, \"Liberation Mono\", Menlo, Courier, monospace", "value_font_size": 16, "value_label_font_family": "Consolas, \"Liberation Mono\", Menlo, Courier, monospace", "value_label_font_size": 10}, "title": "CR Woakes: Future and Past Averages in ODIs", "tooltip_border_radius": 10, "tooltip_fancy_mode": true, "truncate_label": null, "truncate_legend": null, "width": 800, "x_label_rotation": 45, "x_labels": ["2011", "0", "0", "0", "2012", "2013", "0", "0", "0", "0", "0", "0", "2014", "0", "0", "0", "0", "0", "0", "0", "0", "0", "0", "2015", "0", "0", "0", "0", "0", "0", "0", "0", "0", "0", "0", "0", "0", "0", "0", "0", "2016", "0", "0", "0", "0", "0", "0", "0", "0", "0", "0", "0", "0", "0", "2017", "0", "0", "0", "0", "0", "0", "0", "0", "0", "0", "2018", "0", "0", "0", "0", "0", "0", "0", "0", "0", "0", "0", "2019", "0", "0", "0", "0", "0", "0", "0", "0", "0", "0", "0", "0", "0", "0", "0", "0", "0"], "x_labels_major": ["2011", "2012", "2013", "2014", "2015", "2016", "2017", "2018", "2019"], "x_labels_major_count": null, "x_labels_major_every": null, "x_title": null, "xrange": null, "y_label_rotation": 0, "y_labels": null, "y_labels_major": null, "y_labels_major_count": null, "y_labels_major_every": null, "y_title": null, "zero": 60, "legends": ["Future Average", "Past Average", "Career Average"]}</script><script type="text/javascript" xlink:href="https://kozea.github.io/pygal.js/2.0.x/pygal-tooltips.min.js"/></defs><title>CR Woakes: Future and Past Averages in ODIs</title><g class="graph line-graph vertical"><rect class="background" height="600" width="800" x="0" y="0"/><g class="plot" transform="translate(42, 46)"><rect class="background" height="462.02943725152284" width="738.0" x="0" y="0"/><g class="axis y always_show"><g class="guides"><path class="axis major line" d="M0.000000 453.144256 h738.000000"/><text class="major" x="-5" y="456.6442557659166">0</text><title>0</title></g><g class="guides"><path class="guide line" d="M0.000000 406.819013 h738.000000"/><text class="" x="-5" y="410.31901340092077">4</text><title>4</title></g><g class="guides"><path class="guide line" d="M0.000000 360.493771 h738.000000"/><text class="" x="-5" y="363.99377103592485">8</text><title>8</title></g><g class="guides"><path class="guide line" d="M0.000000 314.168529 h738.000000"/><text class="" x="-5" y="317.66852867092905">12</text><title>12</title></g><g class="guides"><path class="guide line" d="M0.000000 267.843286 h738.000000"/><text class="" x="-5" y="271.34328630593313">16</text><title>16</title></g><g class="guides"><path class="major guide line" d="M0.000000 221.518044 h738.000000"/><text class="major" x="-5" y="225.01804394093728">20</text><title>20</title></g><g class="guides"><path class="guide line" d="M0.000000 175.192802 h738.000000"/><text class="" x="-5" y="178.69280157594142">24</text><title>24</title></g><g class="guides"><path class="guide line" d="M0.000000 128.867559 h738.000000"/><text class="" x="-5" y="132.36755921094556">28</text><title>28</title></g><g class="guides"><path class="guide line" d="M0.000000 82.542317 h738.000000"/><text class="" x="-5" y="86.0423168459497">32</text><title>32</title></g><g class="guides"><path class="guide line" d="M0.000000 36.217074 h738.000000"/><text class="" x="-5" y="39.71707448095384">36</text><title>36</title></g></g><g class="axis x"><g class="guides"><path class="major line" d="M14.192308 0.000000 v462.029437"/><text class="major" x="14.192307692307692" y="477.02943725152284" transform="rotate(45 14.192308 477.029437)">2011</text></g><g class="guides"><path class="major guide line" d="M44.388707 0.000000 v462.029437"/><text class="major" x="44.38870703764321" y="477.02943725152284" transform="rotate(45 44.388707 477.029437)">2012</text></g><g class="guides"><path class="major guide line" d="M51.937807 0.000000 v462.029437"/><text class="major" x="51.93780687397709" y="477.02943725152284" transform="rotate(45 51.937807 477.029437)">2013</text></g><g class="guides"><path class="major guide line" d="M104.781506 0.000000 v462.029437"/><text class="major" x="104.78150572831423" y="477.02943725152284" transform="rotate(45 104.781506 477.029437)">2014</text></g><g class="guides"><path class="major guide line" d="M187.821604 0.000000 v462.029437"/><text class="major" x="187.8216039279869" y="477.02943725152284" transform="rotate(45 187.821604 477.029437)">2015</text></g><g class="guides"><path class="major guide line" d="M316.156301 0.000000 v462.029437"/><text class="major" x="316.15630114566284" y="477.02943725152284" transform="rotate(45 316.156301 477.029437)">2016</text></g><g class="guides"><path class="major guide line" d="M421.843699 0.000000 v462.029437"/><text class="major" x="421.8436988543372" y="477.02943725152284" transform="rotate(45 421.843699 477.029437)">2017</text></g><g class="guides"><path class="major guide line" d="M504.883797 0.000000 v462.029437"/><text class="major" x="504.8837970540098" y="477.02943725152284" transform="rotate(45 504.883797 477.029437)">2018</text></g><g class="guides"><path class="major guide line" d="M595.472995 0.000000 v462.029437"/><text class="major" x="595.4729950900163" y="477.02943725152284" transform="rotate(45 595.472995 477.029437)">2019</text></g></g><g class="series serie-0 color-0"><path class="line reactive nofill" d="M14.192308 100.261722 L21.741408 100.261722 29.290507 88.448785 36.839607 94.702693 44.388707 96.439890 51.937807 99.451030 59.486907 101.998919 67.036007 103.272863 74.585106 102.577984 82.134206 100.493348 89.683306 100.724974 97.232406 104.894246 104.781506 109.295144 112.330606 103.041237 119.879705 104.315181 127.428805 108.021200 134.977905 113.811855 142.527005 114.738360 150.076105 117.054622 157.625205 112.422098 165.174304 114.738360 172.723404 101.304040 180.272504 100.261722 187.821604 107.905387 195.370704 98.987778 202.919804 102.925423 210.468903 102.693797 218.018003 101.072414 225.567103 111.379780 233.116203 115.549052 240.665303 109.526771 248.214403 105.357499 255.763502 114.159295 263.312602 121.918773 270.861702 128.867559 278.410802 133.384270 285.959902 136.047972 293.509002 140.912122 301.058101 131.415448 308.607201 121.918773 316.156301 128.056867 323.705401 129.909877 331.254501 134.310775 338.803601 134.426588 346.352700 139.290739 353.901800 132.573579 361.450900 141.838627 369.000000 147.050217 376.549100 149.482292 384.098200 143.923263 391.647300 133.500083 399.196399 136.627037 406.745499 142.649319 414.294599 140.448870 421.843699 151.335302 429.392799 158.631527 436.941899 151.335302 444.490998 155.504574 452.040098 144.733955 459.589198 149.713918 467.138298 136.974477 474.687398 121.455520 482.236498 122.266212 489.785597 118.676006 497.334697 125.972232 504.883797 122.613651 512.432897 131.531261 519.981997 133.847523 527.531097 134.426588 535.080196 136.627037 542.629296 134.542401 550.178396 130.604756 557.727496 125.740605 565.276596 130.141503 572.825696 112.074659 580.374795 87.985533 587.923895 102.230545 595.472995 108.137013 603.022095 107.905387 610.571195 146.934404 618.120295 160.021285 625.669394 168.475641 633.218494 190.480132 640.767594 177.393251 648.316694 130.257316 655.865794 147.629282 663.414894 140.448870 670.963993 200.092619 678.513093 194.533590 686.062193 234.025859 693.611293 237.268626 701.160393 248.502498 708.709493 286.025944 716.258592 343.121805 723.807692 310.346696"/></g><g class="series serie-1 color-1"><path class="line reactive nofill" d="M14.192308 453.144256 L21.741408 94.123627 29.290507 327.371223 36.839607 206.578153 44.388707 173.571418 51.937807 115.664865 59.486907 70.961006 67.036007 55.557863 74.585106 73.045642 82.134206 98.292899 89.683306 95.629198 97.232406 60.885266 104.781506 23.130194 112.330606 81.963251 119.879705 75.593530 127.428805 52.430909 134.977905 17.107912 142.527005 20.929745 150.076105 8.885181 157.625205 43.165861 165.174304 35.290570 172.723404 96.671516 180.272504 100.261722 187.821604 76.056783 195.370704 103.620302 202.919804 92.849683 210.468903 94.123627 218.018003 98.292899 225.567103 73.740521 233.116203 65.054538 240.665303 80.226055 248.214403 89.954356 255.763502 72.234950 263.312602 56.368555 270.861702 42.355169 278.410802 33.205934 285.959902 27.878531 293.509002 18.034417 301.058101 44.671431 308.607201 65.865230 316.156301 56.252742 323.705401 54.631358 331.254501 48.030011 338.803601 50.809526 346.352700 43.629113 353.901800 57.295060 361.450900 44.903057 369.000000 38.070084 376.549100 36.796140 384.098200 48.493264 391.647300 65.054538 399.196399 62.854089 406.745499 56.600181 414.294599 61.116892 421.843699 50.577900 429.392799 43.397487 436.941899 55.905302 444.490998 54.978798 452.040098 67.718239 459.589198 64.012220 467.138298 75.593530 474.687398 87.638094 482.236498 87.059028 489.785597 89.954356 497.334697 85.900897 504.883797 88.796225 512.432897 84.742766 519.981997 84.163700 527.531097 84.858579 535.080196 84.395327 542.629296 86.364149 550.178396 88.680411 557.727496 91.228300 565.276596 90.070169 572.825696 96.671516 580.374795 103.504489 587.923895 99.682657 595.472995 98.177086 603.022095 98.408712 610.571195 89.259477 618.120295 86.827402 625.669394 84.974392 633.218494 80.920933 640.767594 86.827402 648.316694 96.439890 655.865794 94.239441 663.414894 96.208263 670.963993 90.185982 678.513093 91.575739 686.062193 87.869720 693.611293 88.680411 701.160393 90.185982 708.709493 90.649234 716.258592 89.491103 723.807692 95.745011"/></g><g class="series serie-2 color-2"><path class="line reactive nofill" d="M14.192308 100.261722 L21.741408 100.261722 29.290507 100.261722 36.839607 100.261722 44.388707 100.261722 51.937807 100.261722 59.486907 100.261722 67.036007 100.261722 74.585106 100.261722 82.134206 100.261722 89.683306 100.261722 97.232406 100.261722 104.781506 100.261722 112.330606 100.261722 119.879705 100.261722 127.428805 100.261722 134.977905 100.261722 142.527005 100.261722 150.076105 100.261722 157.625205 100.261722 165.174304 100.261722 172.723404 100.261722 180.272504 100.261722 187.821604 100.261722 195.370704 100.261722 202.919804 100.261722 210.468903 100.261722 218.018003 100.261722 225.567103 100.261722 233.116203 100.261722 240.665303 100.261722 248.214403 100.261722 255.763502 100.261722 263.312602 100.261722 270.861702 100.261722 278.410802 100.261722 285.959902 100.261722 293.509002 100.261722 301.058101 100.261722 308.607201 100.261722 316.156301 100.261722 323.705401 100.261722 331.254501 100.261722 338.803601 100.261722 346.352700 100.261722 353.901800 100.261722 361.450900 100.261722 369.000000 100.261722 376.549100 100.261722 384.098200 100.261722 391.647300 100.261722 399.196399 100.261722 406.745499 100.261722 414.294599 100.261722 421.843699 100.261722 429.392799 100.261722 436.941899 100.261722 444.490998 100.261722 452.040098 100.261722 459.589198 100.261722 467.138298 100.261722 474.687398 100.261722 482.236498 100.261722 489.785597 100.261722 497.334697 100.261722 504.883797 100.261722 512.432897 100.261722 519.981997 100.261722 527.531097 100.261722 535.080196 100.261722 542.629296 100.261722 550.178396 100.261722 557.727496 100.261722 565.276596 100.261722 572.825696 100.261722 580.374795 100.261722 587.923895 100.261722 595.472995 100.261722 603.022095 100.261722 610.571195 100.261722 618.120295 100.261722 625.669394 100.261722 633.218494 100.261722 640.767594 100.261722 648.316694 100.261722 655.865794 100.261722 663.414894 100.261722 670.963993 100.261722 678.513093 100.261722 686.062193 100.261722 693.611293 100.261722 701.160393 100.261722 708.709493 100.261722 716.258592 100.261722 723.807692 100.261722"/></g></g><g class="titles"><text class="title plot_title" x="400.0" y="26">CR Woakes: Future and Past Averages in ODIs</text></g><g class="plot overlay" transform="translate(42, 46)"><g class="series serie-0 color-0"><g class="dots"><desc class="label">142 wickets in 95 innings (773.0 overs)</desc><circle class="dot reactive tooltip-trigger" cx="14.192307692307692" cy="100.26172205056065" r="2.5"/><desc class="value">30.47</desc><desc class="x ">14.192307692307692</desc><desc class="y ">100.26172205056065</desc><desc class="x_label">2011</desc></g><g class="dots"><desc class="label">135 wickets in 91 innings (740.4 overs)</desc><circle class="dot reactive tooltip-trigger" cx="44.38870703764321" cy="96.43988955544847" r="2.5"/><desc class="value">30.8</desc><desc class="x ">44.38870703764321</desc><desc class="y ">96.43988955544847</desc><desc class="x_label">2012</desc></g><g class="dots"><desc class="label">135 wickets in 90 innings (734.4 overs)</desc><circle class="dot reactive tooltip-trigger" cx="51.93780687397709" cy="99.45103030917318" r="2.5"/><desc class="value">30.54</desc><desc class="x ">51.93780687397709</desc><desc class="y ">99.45103030917318</desc><desc class="x_label">2013</desc></g><g class="dots"><desc class="label">127 wickets in 83 innings (674.4 overs)</desc><circle class="dot reactive tooltip-trigger" cx="104.78150572831423" cy="109.29514431173476" r="2.5"/><desc class="value">29.69</desc><desc class="x ">104.78150572831423</desc><desc class="y ">109.29514431173476</desc><desc class="x_label">2014</desc></g><g class="dots"><desc class="label">108 wickets in 72 innings (584.4 overs)</desc><circle class="dot reactive tooltip-trigger" cx="187.8216039279869" cy="107.90538704078494" r="2.5"/><desc class="value">29.81</desc><desc class="x ">187.8216039279869</desc><desc class="y ">107.90538704078494</desc><desc class="x_label">2015</desc></g><g class="dots"><desc class="label">87 wickets in 55 innings (447.3 overs)</desc><circle class="dot reactive tooltip-trigger" cx="316.15630114566284" cy="128.05686746955814" r="2.5"/><desc class="value">28.07</desc><desc class="x ">316.15630114566284</desc><desc class="y ">128.05686746955814</desc><desc class="x_label">2016</desc></g><g class="dots"><desc class="label">70 wickets in 41 innings (332.0 overs)</desc><circle class="dot reactive tooltip-trigger" cx="421.8436988543372" cy="151.33530175796858" r="2.5"/><desc class="value">26.06</desc><desc class="x left">421.8436988543372</desc><desc class="y left">151.33530175796858</desc><desc class="x_label">2017</desc></g><g class="dots"><desc class="label">48 wickets in 30 innings (244.0 overs)</desc><circle class="dot reactive tooltip-trigger" cx="504.8837970540098" cy="122.61365149167113" r="2.5"/><desc class="value">28.54</desc><desc class="x left">504.8837970540098</desc><desc class="y left">122.61365149167113</desc><desc class="x_label">2018</desc></g><g class="dots"><desc class="label">29 wickets in 18 innings (145.0 overs)</desc><circle class="dot reactive tooltip-trigger" cx="595.4729950900163" cy="108.1370132526099" r="2.5"/><desc class="value">29.79</desc><desc class="x left">595.4729950900163</desc><desc class="y left">108.1370132526099</desc><desc class="x_label">2019</desc></g></g><g class="series serie-1 color-1"><g class="dots"><desc class="label">0 wickets over 0 innings</desc><circle class="dot reactive tooltip-trigger" cx="14.192307692307692" cy="453.1442557659166" r="2.5"/><desc class="value">0</desc><desc class="x top">14.192307692307692</desc><desc class="y top">453.1442557659166</desc><desc class="x_label">2011</desc></g><g class="dots"><desc class="label">7 wickets in 4 innings (32.2 overs)</desc><circle class="dot reactive tooltip-trigger" cx="44.38870703764321" cy="173.57141809316659" r="2.5"/><desc class="value">24.14</desc><desc class="x ">44.38870703764321</desc><desc class="y ">173.57141809316659</desc><desc class="x_label">2012</desc></g><g class="dots"><desc class="label">7 wickets in 5 innings (38.2 overs)</desc><circle class="dot reactive tooltip-trigger" cx="51.93780687397709" cy="115.66486513692178" r="2.5"/><desc class="value">29.14</desc><desc class="x ">51.93780687397709</desc><desc class="y ">115.66486513692178</desc><desc class="x_label">2013</desc></g><g class="dots"><desc class="label">15 wickets in 12 innings (98.2 overs)</desc><circle class="dot reactive tooltip-trigger" cx="104.78150572831423" cy="23.130193512842425" r="2.5"/><desc class="value">37.13</desc><desc class="x ">104.78150572831423</desc><desc class="y ">23.130193512842425</desc><desc class="x_label">2014</desc></g><g class="dots"><desc class="label">34 wickets in 23 innings (188.2 overs)</desc><circle class="dot reactive tooltip-trigger" cx="187.8216039279869" cy="76.0567829148502" r="2.5"/><desc class="value">32.56</desc><desc class="x ">187.8216039279869</desc><desc class="y ">76.0567829148502</desc><desc class="x_label">2015</desc></g><g class="dots"><desc class="label">55 wickets in 40 innings (325.3 overs)</desc><circle class="dot reactive tooltip-trigger" cx="316.15630114566284" cy="56.2527418038145" r="2.5"/><desc class="value">34.27</desc><desc class="x ">316.15630114566284</desc><desc class="y ">56.2527418038145</desc><desc class="x_label">2016</desc></g><g class="dots"><desc class="label">72 wickets in 54 innings (441.0 overs)</desc><circle class="dot reactive tooltip-trigger" cx="421.8436988543372" cy="50.577899614102535" r="2.5"/><desc class="value">34.76</desc><desc class="x left">421.8436988543372</desc><desc class="y left">50.577899614102535</desc><desc class="x_label">2017</desc></g><g class="dots"><desc class="label">94 wickets in 65 innings (529.0 overs)</desc><circle class="dot reactive tooltip-trigger" cx="504.8837970540098" cy="88.79622456522407" r="2.5"/><desc class="value">31.46</desc><desc class="x left">504.8837970540098</desc><desc class="y left">88.79622456522407</desc><desc class="x_label">2018</desc></g><g class="dots"><desc class="label">113 wickets in 77 innings (628.0 overs)</desc><circle class="dot reactive tooltip-trigger" cx="595.4729950900163" cy="98.17708614413579" r="2.5"/><desc class="value">30.65</desc><desc class="x left">595.4729950900163</desc><desc class="y left">98.17708614413579</desc><desc class="x_label">2019</desc></g></g><g class="series serie-2 color-2"/></g><g class="plot text-overlay" transform="translate(42, 46)"><g class="series serie-0 color-0"/><g class="series serie-1 color-1"/><g class="series serie-2 color-2"/></g><g class="plot tooltip-overlay" transform="translate(42, 46)"><g class="tooltip" style="opacity: 0" transform="translate(0 0)"><rect class="tooltip-box" height="0" rx="10" ry="10" width="0"/><g class="text"/></g></g><g class="legends" transform="translate(52, 545)"><g class="legend reactive activate-serie" id="activate-serie-0"><rect class="color-0 reactive" height="12" width="12" x="0.0" y="1.0"/><text x="17.0" y="11.2">Future Average</text></g><g class="legend reactive activate-serie" id="activate-serie-1"><rect class="color-1 reactive" height="12" width="12" x="369.0" y="1.0"/><text x="386.0" y="11.2">Past Average</text></g><g class="legend reactive activate-serie" id="activate-serie-2"><rect class="color-2 reactive" height="12" width="12" x="0.0" y="22.0"/><text x="17.0" y="32.2">Career Average</text></g></g></g></svg>