<?xml version='1.0' encoding='utf-8'?>
<svg xmlns:xlink="http://www.w3.org/1999/xlink" xmlns="http://www.w3.org/2000/svg" id="chart-723ea090-dd64-47ee-b9ff-9501c2a5d883" class="pygal-chart" viewBox="0 0 800 600"><!--Generated with pygal 2.4.0 (lxml) ©Kozea 2012-2016 on 2019-08-04--><!--http://pygal.org--><!--http://github.com/Kozea/pygal--><defs><style type="text/css">#chart-723ea090-dd64-47ee-b9ff-9501c2a5d883{-webkit-user-select:none;-webkit-font-smoothing:antialiased;font-family:Consolas,"Liberation Mono",Menlo,Courier,monospace}#chart-723ea090-dd64-47ee-b9ff-9501c2a5d883 .title{font-family:Consolas,"Liberation Mono",Menlo,Courier,monospace;font-size:16px}#chart-723ea090-dd64-47ee-b9ff-9501c2a5d883 .legends .legend text{font-family:Consolas,"Liberation Mono",Menlo,Courier,monospace;font-size:14px}#chart-723ea090-dd64-47ee-b9ff-9501c2a5d883 .axis text{font-family:Consolas,"Liberation Mono",Menlo,Courier,monospace;font-size:10px}#chart-723ea090-dd64-47ee-b9ff-9501c2a5d883 .axis text.major{font-family:Consolas,"Liberation Mono",Menlo,Courier,monospace;font-size:10px}#chart-723ea090-dd64-47ee-b9ff-9501c2a5d883 .text-overlay text.value{font-family:Consolas,"Liberation Mono",Menlo,Courier,monospace;font-size:16px}#chart-723ea090-dd64-47ee-b9ff-9501c2a5d883 .text-overlay text.label{font-family:Consolas,"Liberation Mono",Menlo,Courier,monospace;font-size:10px}#chart-723ea090-dd64-47ee-b9ff-9501c2a5d883 .tooltip{font-family:Consolas,"Liberation Mono",Menlo,Courier,monospace;font-size:14px}#chart-723ea090-dd64-47ee-b9ff-9501c2a5d883 text.no_data{font-family:Consolas,"Liberation Mono",Menlo,Courier,monospace;font-size:64px}
#chart-723ea090-dd64-47ee-b9ff-9501c2a5d883{background-color:rgba(249,249,249,1)}#chart-723ea090-dd64-47ee-b9ff-9501c2a5d883 path,#chart-723ea090-dd64-47ee-b9ff-9501c2a5d883 line,#chart-723ea090-dd64-47ee-b9ff-9501c2a5d883 rect,#chart-723ea090-dd64-47ee-b9ff-9501c2a5d883 circle{-webkit-transition:150ms;-moz-transition:150ms;transition:150ms}#chart-723ea090-dd64-47ee-b9ff-9501c2a5d883 .graph &gt; .background{fill:rgba(249,249,249,1)}#chart-723ea090-dd64-47ee-b9ff-9501c2a5d883 .plot &gt; .background{fill:rgba(255,255,255,1)}#chart-723ea090-dd64-47ee-b9ff-9501c2a5d883 .graph{fill:rgba(0,0,0,.87)}#chart-723ea090-dd64-47ee-b9ff-9501c2a5d883 text.no_data{fill:rgba(0,0,0,1)}#chart-723ea090-dd64-47ee-b9ff-9501c2a5d883 .title{fill:rgba(0,0,0,1)}#chart-723ea090-dd64-47ee-b9ff-9501c2a5d883 .legends .legend text{fill:rgba(0,0,0,.87)}#chart-723ea090-dd64-47ee-b9ff-9501c2a5d883 .legends .legend:hover text{fill:rgba(0,0,0,1)}#chart-723ea090-dd64-47ee-b9ff-9501c2a5d883 .axis .line{stroke:rgba(0,0,0,1)}#chart-723ea090-dd64-47ee-b9ff-9501c2a5d883 .axis .guide.line{stroke:rgba(0,0,0,.54)}#chart-723ea090-dd64-47ee-b9ff-9501c2a5d883 .axis .major.line{stroke:rgba(0,0,0,.87)}#chart-723ea090-dd64-47ee-b9ff-9501c2a5d883 .axis text.major{fill:rgba(0,0,0,1)}#chart-723ea090-dd64-47ee-b9ff-9501c2a5d883 .axis.y .guides:hover .guide.line,#chart-723ea090-dd64-47ee-b9ff-9501c2a5d883 .line-graph .axis.x .guides:hover .guide.line,#chart-723ea090-dd64-47ee-b9ff-9501c2a5d883 .stackedline-graph .axis.x .guides:hover .guide.line,#chart-723ea090-dd64-47ee-b9ff-9501c2a5d883 .xy-graph .axis.x .guides:hover .guide.line{stroke:rgba(0,0,0,1)}#chart-723ea090-dd64-47ee-b9ff-9501c2a5d883 .axis .guides:hover text{fill:rgba(0,0,0,1)}#chart-723ea090-dd64-47ee-b9ff-9501c2a5d883 .reactive{fill-opacity:.7;stroke-opacity:.8}#chart-723ea090-dd64-47ee-b9ff-9501c2a5d883 .ci{stroke:rgba(0,0,0,.87)}#chart-723ea090-dd64-47ee-b9ff-9501c2a5d883 .reactive.active,#chart-723ea090-dd64-47ee-b9ff-9501c2a5d883 .active .reactive{fill-opacity:.8;stroke-opacity:.9;stroke-width:4}#chart-723ea090-dd64-47ee-b9ff-9501c2a5d883 .ci .reactive.active{stroke-width:1.5}#chart-723ea090-dd64-47ee-b9ff-9501c2a5d883 .series text{fill:rgba(0,0,0,1)}#chart-723ea090-dd64-47ee-b9ff-9501c2a5d883 .tooltip rect{fill:rgba(255,255,255,1);stroke:rgba(0,0,0,1);-webkit-transition:opacity 150ms;-moz-transition:opacity 150ms;transition:opacity 150ms}#chart-723ea090-dd64-47ee-b9ff-9501c2a5d883 .tooltip .label{fill:rgba(0,0,0,.87)}#chart-723ea090-dd64-47ee-b9ff-9501c2a5d883 .tooltip .label{fill:rgba(0,0,0,.87)}#chart-723ea090-dd64-47ee-b9ff-9501c2a5d883 .tooltip .legend{font-size:.8em;fill:rgba(0,0,0,.54)}#chart-723ea090-dd64-47ee-b9ff-9501c2a5d883 .tooltip .x_label{font-size:.6em;fill:rgba(0,0,0,1)}#chart-723ea090-dd64-47ee-b9ff-9501c2a5d883 .tooltip .xlink{font-size:.5em;text-decoration:underline}#chart-723ea090-dd64-47ee-b9ff-9501c2a5d883 .tooltip .value{font-size:1.5em}#chart-723ea090-dd64-47ee-b9ff-9501c2a5d883 .bound{font-size:.5em}#chart-723ea090-dd64-47ee-b9ff-9501c2a5d883 .max-value{font-size:.75em;fill:rgba(0,0,0,.54)}#chart-723ea090-dd64-47ee-b9ff-9501c2a5d883 .map-element{fill:rgba(255,255,255,1);stroke:rgba(0,0,0,.54) !important}#chart-723ea090-dd64-47ee-b9ff-9501c2a5d883 .map-element .reactive{fill-opacity:inherit;stroke-opacity:inherit}#chart-723ea090-dd64-47ee-b9ff-9501c2a5d883 .color-0,#chart-723ea090-dd64-47ee-b9ff-9501c2a5d883 .color-0 a:visited{stroke:red;fill:red}#chart-723ea090-dd64-47ee-b9ff-9501c2a5d883 .color-1,#chart-723ea090-dd64-47ee-b9ff-9501c2a5d883 .color-1 a:visited{stroke:blue;fill:blue}#chart-723ea090-dd64-47ee-b9ff-9501c2a5d883 .color-2,#chart-723ea090-dd64-47ee-b9ff-9501c2a5d883 .color-2 a:visited{stroke:green;fill:green}#chart-723ea090-dd64-47ee-b9ff-9501c2a5d883 .text-overlay .color-0 text{fill:white}#chart-723ea090-dd64-47ee-b9ff-9501c2a5d883 .text-overlay .color-1 text{fill:white}#chart-723ea090-dd64-47ee-b9ff-9501c2a5d883 .text-overlay .color-2 text{fill:white}
#chart-723ea090-dd64-47ee-b9ff-9501c2a5d883 text.no_data{text-anchor:middle}#chart-723ea090-dd64-47ee-b9ff-9501c2a5d883 .guide.line{fill:none}#chart-723ea090-dd64-47ee-b9ff-9501c2a5d883 .centered{text-anchor:middle}#chart-723ea090-dd64-47ee-b9ff-9501c2a5d883 .title{text-anchor:middle}#chart-723ea090-dd64-47ee-b9ff-9501c2a5d883 .legends .legend text{fill-opacity:1}#chart-723ea090-dd64-47ee-b9ff-9501c2a5d883 .axis.x text{text-anchor:middle}#chart-723ea090-dd64-47ee-b9ff-9501c2a5d883 .axis.x:not(.web) text[transform]{text-anchor:start}#chart-723ea090-dd64-47ee-b9ff-9501c2a5d883 .axis.x:not(.web) text[transform].backwards{text-anchor:end}#chart-723ea090-dd64-47ee-b9ff-9501c2a5d883 .axis.y text{text-anchor:end}#chart-723ea090-dd64-47ee-b9ff-9501c2a5d883 .axis.y text[transform].backwards{text-anchor:start}#chart-723ea090-dd64-47ee-b9ff-9501c2a5d883 .axis.y2 text{text-anchor:start}#chart-723ea090-dd64-47ee-b9ff-9501c2a5d883 .axis.y2 text[transform].backwards{text-anchor:end}#chart-723ea090-dd64-47ee-b9ff-9501c2a5d883 .axis .guide.line{stroke-dasharray:4,4}#chart-723ea090-dd64-47ee-b9ff-9501c2a5d883 .axis .major.guide.line{stroke-dasharray:6,6}#chart-723ea090-dd64-47ee-b9ff-9501c2a5d883 .horizontal .axis.y .guide.line,#chart-723ea090-dd64-47ee-b9ff-9501c2a5d883 .horizontal .axis.y2 .guide.line,#chart-723ea090-dd64-47ee-b9ff-9501c2a5d883 .vertical .axis.x .guide.line{opacity:0}#chart-723ea090-dd64-47ee-b9ff-9501c2a5d883 .horizontal .axis.always_show .guide.line,#chart-723ea090-dd64-47ee-b9ff-9501c2a5d883 .vertical .axis.always_show .guide.line{opacity:1 !important}#chart-723ea090-dd64-47ee-b9ff-9501c2a5d883 .axis.y .guides:hover .guide.line,#chart-723ea090-dd64-47ee-b9ff-9501c2a5d883 .axis.y2 .guides:hover .guide.line,#chart-723ea090-dd64-47ee-b9ff-9501c2a5d883 .axis.x .guides:hover .guide.line{opacity:1}#chart-723ea090-dd64-47ee-b9ff-9501c2a5d883 .axis .guides:hover text{opacity:1}#chart-723ea090-dd64-47ee-b9ff-9501c2a5d883 .nofill{fill:none}#chart-723ea090-dd64-47ee-b9ff-9501c2a5d883 .subtle-fill{fill-opacity:.2}#chart-723ea090-dd64-47ee-b9ff-9501c2a5d883 .dot{stroke-width:1px;fill-opacity:1}#chart-723ea090-dd64-47ee-b9ff-9501c2a5d883 .dot.active{stroke-width:5px}#chart-723ea090-dd64-47ee-b9ff-9501c2a5d883 .dot.negative{fill:transparent}#chart-723ea090-dd64-47ee-b9ff-9501c2a5d883 text,#chart-723ea090-dd64-47ee-b9ff-9501c2a5d883 tspan{stroke:none !important}#chart-723ea090-dd64-47ee-b9ff-9501c2a5d883 .series text.active{opacity:1}#chart-723ea090-dd64-47ee-b9ff-9501c2a5d883 .tooltip rect{fill-opacity:.95;stroke-width:.5}#chart-723ea090-dd64-47ee-b9ff-9501c2a5d883 .tooltip text{fill-opacity:1}#chart-723ea090-dd64-47ee-b9ff-9501c2a5d883 .showable{visibility:hidden}#chart-723ea090-dd64-47ee-b9ff-9501c2a5d883 .showable.shown{visibility:visible}#chart-723ea090-dd64-47ee-b9ff-9501c2a5d883 .gauge-background{fill:rgba(229,229,229,1);stroke:none}#chart-723ea090-dd64-47ee-b9ff-9501c2a5d883 .bg-lines{stroke:rgba(249,249,249,1);stroke-width:2px}</style><script type="text/javascript">window.pygal = window.pygal || {};window.pygal.config = window.pygal.config || {};window.pygal.config['723ea090-dd64-47ee-b9ff-9501c2a5d883'] = {"allow_interruptions": false, "box_mode": "extremes", "classes": ["pygal-chart"], "css": ["file://style.css", "file://graph.css"], "defs": [], "disable_xml_declaration": false, "dots_size": 2.5, "dynamic_print_values": false, "explicit_size": false, "fill": false, "force_uri_protocol": "https", "formatter": null, "half_pie": false, "height": 600, "include_x_axis": false, "inner_radius": 0, "interpolate": null, "interpolation_parameters": {}, "interpolation_precision": 250, "inverse_y_axis": false, "js": ["//kozea.github.io/pygal.js/2.0.x/pygal-tooltips.min.js"], "legend_at_bottom": true, "legend_at_bottom_columns": null, "legend_box_size": 12, "logarithmic": false, "margin": 20, "margin_bottom": null, "margin_left": null, "margin_right": null, "margin_top": null, "max_scale": 16, "min_scale": 4, "missing_value_fill_truncation": "x", "no_data_text": "No data", "no_prefix": false, "order_min": null, "pretty_print": false, "print_labels": false, "print_values": false, "print_values_position": "center", "print_zeroes": true, "range": null, "rounded_bars": null, "secondary_range": null, "show_dots": true, "show_legend": true, "show_minor_x_labels": false, "show_minor_y_labels": true, "show_only_major_dots": false, "show_x_guides": false, "show_x_labels": true, "show_y_guides": true, "show_y_labels": true, "spacing": 10, "stack_from_top": false, "strict": false, "stroke": true, "stroke_style": null, "style": {"background": "rgba(249, 249, 249, 1)", "ci_colors": [], "colors": ["red", "blue", "green", "#a3a3a3"], "font_family": "Consolas, \"Liberation Mono\", Menlo, Courier, monospace", "foreground": "rgba(0, 0, 0, .87)", "foreground_strong": "rgba(0, 0, 0, 1)", "foreground_subtle": "rgba(0, 0, 0, .54)", "guide_stroke_dasharray": "4,4", "label_font_family": "Consolas, \"Liberation Mono\", Menlo, Courier, monospace", "label_font_size": 10, "legend_font_family": "Consolas, \"Liberation Mono\", Menlo, Courier, monospace", "legend_font_size": 14, "major_guide_stroke_dasharray": "6,6", "major_label_font_family": "Consolas, \"Liberation Mono\", Menlo, Courier, monospace", "major_label_font_size": 10, "no_data_font_family": "Consolas, \"Liberation Mono\", Menlo, Courier, monospace", "no_data_font_size": 64, "opacity": ".7", "opacity_hover": ".8", "plot_background": "rgba(255, 255, 255, 1)", "stroke_opacity": ".8", "stroke_opacity_hover": ".9", "title_font_family": "Consolas, \"Liberation Mono\", Menlo, Courier, monospace", "title_font_size": 16, "tooltip_font_family": "Consolas, \"Liberation Mono\", Menlo, Courier, monospace", "tooltip_font_size": 14, "transition": "150ms", "value_background": "rgba(229, 229, 229, 1)", "value_colors": [], "value_font_family": "Consolas, \"Liberation Mono\", Menlo, Courier, monospace", "value_font_size": 16, "value_label_font_family": "Consolas, \"Liberation Mono\", Menlo, Courier, monospace", "value_label_font_size": 10}, "title": "CRD Fernando: Future and Past Averages in ODIs", "tooltip_border_radius": 10, "tooltip_fancy_mode": true, "truncate_label": null, "truncate_legend": null, "width": 800, "x_label_rotation": 45, "x_labels": ["2001", "0", "0", "0", "0", "0", "0", "0", "0", "0", "0", "0", "0", "0", "0", "0", "0", "0", "0", "2002", "0", "0", "0", "0", "0", "0", "0", "0", "0", "0", "0", "0", "0", "0", "0", "0", "0", "0", "0", "0", "2003", "0", "0", "0", "0", "0", "0", "0", "0", "0", "0", "0", "0", "0", "2004", "0", "0", "0", "0", "0", "0", "2005", "0", "0", "0", "0", "0", "0", "0", "0", "0", "0", "0", "0", "2006", "0", "0", "0", "0", "0", "0", "0", "0", "0", "0", "0", "0", "0", "0", "0", "0", "0", "0", "0", "0", "2007", "0", "0", "0", "0", "0", "0", "0", "0", "0", "0", "0", "0", "0", "0", "0", "0", "0", "0", "0", "0", "0", "2008", "0", "0", "0", "0", "0", "0", "2009", "0", "0", "0", "2010", "0", "0", "0", "0", "0", "2011", "0", "0", "0", "0", "0", "2012"], "x_labels_major": ["2001", "2002", "2003", "2004", "2005", "2006", "2007", "2008", "2009", "2010", "2011", "2012"], "x_labels_major_count": null, "x_labels_major_every": null, "x_title": null, "xrange": null, "y_label_rotation": 0, "y_labels": null, "y_labels_major": null, "y_labels_major_count": null, "y_labels_major_every": null, "y_title": null, "zero": 190.0, "legends": ["Future Average", "Past Average", "Career Average"]}</script><script type="text/javascript" xlink:href="https://kozea.github.io/pygal.js/2.0.x/pygal-tooltips.min.js"/></defs><title>CRD Fernando: Future and Past Averages in ODIs</title><g class="graph line-graph vertical"><rect class="background" height="600" width="800" x="0" y="0"/><g class="plot" transform="translate(48, 46)"><rect class="background" height="462.02943725152284" width="732.0" x="0" y="0"/><g class="axis y always_show"><g class="guides"><path class="axis major line" d="M0.000000 453.144256 h732.000000"/><text class="major" x="-5" y="456.6442557659166">0</text><title>0</title></g><g class="guides"><path class="guide line" d="M0.000000 404.855226 h732.000000"/><text class="" x="-5" y="408.3552259528394">20</text><title>20</title></g><g class="guides"><path class="guide line" d="M0.000000 356.566196 h732.000000"/><text class="" x="-5" y="360.0661961397622">40</text><title>40</title></g><g class="guides"><path class="guide line" d="M0.000000 308.277166 h732.000000"/><text class="" x="-5" y="311.777166326685">60</text><title>60</title></g><g class="guides"><path class="guide line" d="M0.000000 259.988137 h732.000000"/><text class="" x="-5" y="263.48813651360774">80</text><title>80</title></g><g class="guides"><path class="major guide line" d="M0.000000 211.699107 h732.000000"/><text class="major" x="-5" y="215.19910670053054">100</text><title>100</title></g><g class="guides"><path class="guide line" d="M0.000000 163.410077 h732.000000"/><text class="" x="-5" y="166.91007688745333">120</text><title>120</title></g><g class="guides"><path class="guide line" d="M0.000000 115.121047 h732.000000"/><text class="" x="-5" y="118.62104707437612">140</text><title>140</title></g><g class="guides"><path class="guide line" d="M0.000000 66.832017 h732.000000"/><text class="" x="-5" y="70.33201726129892">160</text><title>160</title></g><g class="guides"><path class="guide line" d="M0.000000 18.542987 h732.000000"/><text class="" x="-5" y="22.042987448221652">180</text><title>180</title></g></g><g class="axis x"><g class="guides"><path class="major line" d="M14.076923 0.000000 v462.029437"/><text class="major" x="14.076923076923077" y="477.02943725152284" transform="rotate(45 14.076923 477.029437)">2001</text></g><g class="guides"><path class="major guide line" d="M109.598901 0.000000 v462.029437"/><text class="major" x="109.59890109890108" y="477.02943725152284" transform="rotate(45 109.598901 477.029437)">2002</text></g><g class="guides"><path class="major guide line" d="M215.175824 0.000000 v462.029437"/><text class="major" x="215.17582417582418" y="477.02943725152284" transform="rotate(45 215.175824 477.029437)">2003</text></g><g class="guides"><path class="major guide line" d="M285.560440 0.000000 v462.029437"/><text class="major" x="285.56043956043953" y="477.02943725152284" transform="rotate(45 285.560440 477.029437)">2004</text></g><g class="guides"><path class="major guide line" d="M320.752747 0.000000 v462.029437"/><text class="major" x="320.75274725274727" y="477.02943725152284" transform="rotate(45 320.752747 477.029437)">2005</text></g><g class="guides"><path class="major guide line" d="M386.109890 0.000000 v462.029437"/><text class="major" x="386.10989010989016" y="477.02943725152284" transform="rotate(45 386.109890 477.029437)">2006</text></g><g class="guides"><path class="major guide line" d="M491.686813 0.000000 v462.029437"/><text class="major" x="491.6868131868132" y="477.02943725152284" transform="rotate(45 491.686813 477.029437)">2007</text></g><g class="guides"><path class="major guide line" d="M602.291209 0.000000 v462.029437"/><text class="major" x="602.2912087912089" y="477.02943725152284" transform="rotate(45 602.291209 477.029437)">2008</text></g><g class="guides"><path class="major guide line" d="M637.483516 0.000000 v462.029437"/><text class="major" x="637.4835164835165" y="477.02943725152284" transform="rotate(45 637.483516 477.029437)">2009</text></g><g class="guides"><path class="major guide line" d="M657.593407 0.000000 v462.029437"/><text class="major" x="657.5934065934066" y="477.02943725152284" transform="rotate(45 657.593407 477.029437)">2010</text></g><g class="guides"><path class="major guide line" d="M687.758242 0.000000 v462.029437"/><text class="major" x="687.7582417582418" y="477.02943725152284" transform="rotate(45 687.758242 477.029437)">2011</text></g><g class="guides"><path class="major guide line" d="M717.923077 0.000000 v462.029437"/><text class="major" x="717.9230769230769" y="477.02943725152284" transform="rotate(45 717.923077 477.029437)">2012</text></g></g><g class="series serie-0 color-0"><path class="line reactive nofill" d="M14.076923 380.227821 L19.104396 380.928012 24.131868 381.410902 29.159341 381.748925 34.186813 382.207671 39.214286 381.869648 44.241758 381.917937 49.269231 382.304249 54.296703 382.376683 59.324176 381.869648 64.351648 381.724781 69.379121 381.290179 74.406593 381.290179 79.434066 381.121168 84.461538 381.459191 89.489011 380.903867 94.516484 380.276110 99.543956 379.865653 104.571429 379.431052 109.598901 378.706716 114.626374 378.465271 119.653846 378.320404 124.681319 377.958236 129.708791 377.306334 134.736264 377.185612 139.763736 376.702722 144.791209 376.002531 149.818681 376.388843 154.846154 375.736941 159.873626 375.881808 164.901099 375.978386 169.928571 374.843594 174.956044 374.626293 179.983516 374.867738 185.010989 375.398918 190.038462 376.002531 195.065934 377.040745 200.093407 377.571924 205.120879 377.089034 210.148352 375.640363 215.175824 376.074964 220.203297 376.340554 225.230769 375.833519 230.258242 376.775155 235.285714 376.557854 240.313187 376.920022 245.340659 377.233901 250.368132 376.050820 255.395604 376.702722 260.423077 376.726866 265.450549 377.016600 270.478022 376.026675 275.505495 377.306334 280.532967 376.847589 285.560440 376.895878 290.587912 375.930097 295.615385 375.664507 300.642857 375.567929 305.670330 374.867738 310.697802 375.423062 315.725275 375.181617 320.752747 375.688652 325.780220 376.340554 330.807692 376.364698 335.835165 377.547780 340.862637 378.344549 345.890110 377.571924 350.917582 378.610138 355.945055 376.799300 360.972527 377.644358 366.000000 378.585994 371.027473 378.899872 376.054945 380.058809 381.082418 379.986376 386.109890 381.072879 391.137363 382.666417 396.164835 382.473261 401.192308 382.642272 406.219780 383.487330 411.247253 384.115088 416.274725 384.211666 421.302198 385.467180 426.329670 384.525544 431.357143 384.259955 436.384615 383.221741 441.412088 385.274024 446.439560 384.984290 451.467033 385.998360 456.494505 384.549689 461.521978 383.366608 466.549451 383.704631 471.576923 382.666417 476.604396 383.197596 481.631868 384.332388 486.659341 385.177446 491.686813 385.708626 496.714286 384.911857 501.741758 384.332388 506.769231 383.777064 511.796703 384.863568 516.824176 385.008435 521.851648 385.781059 526.879121 383.970221 531.906593 385.274024 536.934066 386.819273 541.961538 388.726690 546.989011 390.754829 552.016484 391.624032 557.043956 388.943991 562.071429 385.322313 567.098901 380.372688 572.126374 381.555769 577.153846 380.131243 582.181319 379.696641 587.208791 378.682572 592.236264 378.682572 597.263736 377.064889 602.291209 363.568105 607.318681 364.920198 612.346154 365.234077 617.373626 369.893968 622.401099 369.000621 627.428571 364.413163 632.456044 367.020771 637.483516 362.819626 642.510989 365.765256 647.538462 373.129333 652.565934 376.606144 657.593407 376.944167 662.620879 384.742845 667.648352 380.107098 672.675824 385.684481 677.703297 376.799300 682.730769 370.183703 687.758242 364.340730 692.785714 354.489768 697.813187 366.562025 702.840659 358.014867 707.868132 386.505395 712.895604 317.934972 717.923077 296.204909"/></g><g class="series serie-1 color-1"><path class="line reactive nofill" d="M14.076923 453.144256 L19.104396 322.763875 24.131868 231.014719 29.159341 95.805435 34.186813 8.885181 39.214286 278.506979 44.241758 302.241038 49.269231 285.339877 54.296703 315.110064 59.324176 347.705159 64.351648 356.131595 69.379121 365.861834 74.406593 367.093205 79.434066 369.918113 84.461538 365.910123 89.489011 373.467357 94.516484 379.744930 99.543956 382.907862 104.571429 385.539614 109.598901 389.209580 114.626374 389.789049 119.653846 389.740760 124.681319 390.803118 129.708791 392.855402 134.736264 392.517379 139.763736 393.579737 144.791209 395.245709 149.818681 393.410726 154.846154 394.811108 159.873626 393.917761 164.901099 393.193425 169.928571 395.390576 174.956044 395.535443 179.983516 394.907686 185.010989 393.410726 190.038462 391.455020 195.065934 388.702545 200.093407 387.302164 205.120879 387.905776 210.148352 390.416806 215.175824 389.233725 220.203297 388.436956 225.230769 389.040569 230.258242 387.181441 235.285714 387.278019 240.313187 386.553684 245.340659 385.829348 250.368132 387.712620 255.395604 386.505395 260.423077 386.312239 265.450549 385.829348 270.478022 387.060718 275.505495 384.984290 280.532967 385.612048 285.560440 385.418891 290.587912 386.626117 295.615385 386.867562 300.642857 386.867562 305.670330 387.519464 310.697802 386.626117 315.725275 386.819273 320.752747 386.167371 325.780220 385.177446 330.807692 385.056724 335.835165 383.559764 340.862637 382.569839 345.890110 383.414897 350.917582 382.159382 355.945055 384.066799 360.972527 383.052729 366.000000 382.014515 371.027473 381.652347 376.054945 380.396832 381.082418 380.445121 386.109890 379.382763 391.137363 377.813369 396.164835 378.103103 401.192308 377.982381 406.219780 377.258045 411.247253 376.751011 416.274725 376.751011 421.302198 375.664507 426.329670 376.630288 431.357143 376.992456 436.384615 377.982381 441.412088 376.437132 446.439560 376.823444 451.467033 376.171542 456.494505 377.378768 461.521978 378.296260 466.549451 378.127248 471.576923 378.827439 476.604396 378.513560 481.631868 377.861658 486.659341 377.378768 491.686813 377.137323 496.714286 377.716791 501.741758 378.078959 506.769231 378.441127 511.796703 377.982381 516.824176 377.958236 521.851648 377.596069 526.879121 378.585994 531.906593 378.006525 536.934066 377.330479 541.961538 376.485421 546.989011 375.712796 552.016484 375.592074 557.043956 376.944167 562.071429 378.513560 567.098901 380.179532 572.126374 379.817364 577.153846 380.251965 582.181319 380.372688 587.208791 380.614133 592.236264 380.589988 597.263736 380.952156 602.291209 383.270030 607.318681 382.907862 612.346154 382.738850 617.373626 381.966226 622.401099 382.038659 627.428571 382.545694 632.456044 382.159382 637.483516 382.545694 642.510989 382.038659 647.538462 381.121168 652.565934 380.662422 657.593407 380.565844 662.620879 379.744930 667.648352 380.227821 672.675824 379.696641 677.703297 380.469266 682.730769 380.855578 687.758242 381.024590 692.785714 381.217746 697.813187 380.759000 702.840659 380.831434 707.868132 380.058809 712.895604 380.903867 717.923077 381.048734"/></g><g class="series serie-2 color-2"><path class="line reactive nofill" d="M14.076923 380.227821 L19.104396 380.227821 24.131868 380.227821 29.159341 380.227821 34.186813 380.227821 39.214286 380.227821 44.241758 380.227821 49.269231 380.227821 54.296703 380.227821 59.324176 380.227821 64.351648 380.227821 69.379121 380.227821 74.406593 380.227821 79.434066 380.227821 84.461538 380.227821 89.489011 380.227821 94.516484 380.227821 99.543956 380.227821 104.571429 380.227821 109.598901 380.227821 114.626374 380.227821 119.653846 380.227821 124.681319 380.227821 129.708791 380.227821 134.736264 380.227821 139.763736 380.227821 144.791209 380.227821 149.818681 380.227821 154.846154 380.227821 159.873626 380.227821 164.901099 380.227821 169.928571 380.227821 174.956044 380.227821 179.983516 380.227821 185.010989 380.227821 190.038462 380.227821 195.065934 380.227821 200.093407 380.227821 205.120879 380.227821 210.148352 380.227821 215.175824 380.227821 220.203297 380.227821 225.230769 380.227821 230.258242 380.227821 235.285714 380.227821 240.313187 380.227821 245.340659 380.227821 250.368132 380.227821 255.395604 380.227821 260.423077 380.227821 265.450549 380.227821 270.478022 380.227821 275.505495 380.227821 280.532967 380.227821 285.560440 380.227821 290.587912 380.227821 295.615385 380.227821 300.642857 380.227821 305.670330 380.227821 310.697802 380.227821 315.725275 380.227821 320.752747 380.227821 325.780220 380.227821 330.807692 380.227821 335.835165 380.227821 340.862637 380.227821 345.890110 380.227821 350.917582 380.227821 355.945055 380.227821 360.972527 380.227821 366.000000 380.227821 371.027473 380.227821 376.054945 380.227821 381.082418 380.227821 386.109890 380.227821 391.137363 380.227821 396.164835 380.227821 401.192308 380.227821 406.219780 380.227821 411.247253 380.227821 416.274725 380.227821 421.302198 380.227821 426.329670 380.227821 431.357143 380.227821 436.384615 380.227821 441.412088 380.227821 446.439560 380.227821 451.467033 380.227821 456.494505 380.227821 461.521978 380.227821 466.549451 380.227821 471.576923 380.227821 476.604396 380.227821 481.631868 380.227821 486.659341 380.227821 491.686813 380.227821 496.714286 380.227821 501.741758 380.227821 506.769231 380.227821 511.796703 380.227821 516.824176 380.227821 521.851648 380.227821 526.879121 380.227821 531.906593 380.227821 536.934066 380.227821 541.961538 380.227821 546.989011 380.227821 552.016484 380.227821 557.043956 380.227821 562.071429 380.227821 567.098901 380.227821 572.126374 380.227821 577.153846 380.227821 582.181319 380.227821 587.208791 380.227821 592.236264 380.227821 597.263736 380.227821 602.291209 380.227821 607.318681 380.227821 612.346154 380.227821 617.373626 380.227821 622.401099 380.227821 627.428571 380.227821 632.456044 380.227821 637.483516 380.227821 642.510989 380.227821 647.538462 380.227821 652.565934 380.227821 657.593407 380.227821 662.620879 380.227821 667.648352 380.227821 672.675824 380.227821 677.703297 380.227821 682.730769 380.227821 687.758242 380.227821 692.785714 380.227821 697.813187 380.227821 702.840659 380.227821 707.868132 380.227821 712.895604 380.227821 717.923077 380.227821"/></g></g><g class="titles"><text class="title plot_title" x="400.0" y="26">CRD Fernando: Future and Past Averages in ODIs</text></g><g class="plot overlay" transform="translate(48, 46)"><g class="series serie-0 color-0"><g class="dots"><desc class="label">187 wickets in 141 innings (1084.3 overs)</desc><circle class="dot reactive tooltip-trigger" cx="14.076923076923077" cy="380.22782074817" r="2.5"/><desc class="value">30.2</desc><desc class="x top">14.076923076923077</desc><desc class="y top">380.22782074817</desc><desc class="x_label">2001</desc></g><g class="dots"><desc class="label">160 wickets in 122 innings (951.1 overs)</desc><circle class="dot reactive tooltip-trigger" cx="109.59890109890108" cy="378.7067163090581" r="2.5"/><desc class="value">30.83</desc><desc class="x top">109.59890109890108</desc><desc class="y top">378.7067163090581</desc><desc class="x_label">2002</desc></g><g class="dots"><desc class="label">128 wickets in 101 innings (784.0 overs)</desc><circle class="dot reactive tooltip-trigger" cx="215.17582417582418" cy="376.0749641842454" r="2.5"/><desc class="value">31.92</desc><desc class="x top">215.17582417582418</desc><desc class="y top">376.0749641842454</desc><desc class="x_label">2003</desc></g><g class="dots"><desc class="label">114 wickets in 87 innings (693.0 overs)</desc><circle class="dot reactive tooltip-trigger" cx="285.56043956043953" cy="376.8958776910677" r="2.5"/><desc class="value">31.58</desc><desc class="x top">285.56043956043953</desc><desc class="y top">376.8958776910677</desc><desc class="x_label">2004</desc></g><g class="dots"><desc class="label">106 wickets in 80 innings (647.0 overs)</desc><circle class="dot reactive tooltip-trigger" cx="320.75274725274727" cy="375.6886519457408" r="2.5"/><desc class="value">32.08</desc><desc class="x top">320.75274725274727</desc><desc class="y top">375.6886519457408</desc><desc class="x_label">2005</desc></g><g class="dots"><desc class="label">93 wickets in 67 innings (531.0 overs)</desc><circle class="dot reactive tooltip-trigger" cx="386.10989010989016" cy="381.07287876989886" r="2.5"/><desc class="value">29.85</desc><desc class="x left top">386.10989010989016</desc><desc class="y left top">381.07287876989886</desc><desc class="x_label">2006</desc></g><g class="dots"><desc class="label">67 wickets in 46 innings (374.3 overs)</desc><circle class="dot reactive tooltip-trigger" cx="491.6868131868132" cy="385.7086256319543" r="2.5"/><desc class="value">27.93</desc><desc class="x left top">491.6868131868132</desc><desc class="y left top">385.7086256319543</desc><desc class="x_label">2007</desc></g><g class="dots"><desc class="label">29 wickets in 24 innings (200.3 overs)</desc><circle class="dot reactive tooltip-trigger" cx="602.2912087912089" cy="363.5681054626584" r="2.5"/><desc class="value">37.1</desc><desc class="x left top">602.2912087912089</desc><desc class="y left top">363.5681054626584</desc><desc class="x_label">2008</desc></g><g class="dots"><desc class="label">22 wickets in 17 innings (146.3 overs)</desc><circle class="dot reactive tooltip-trigger" cx="637.4835164835165" cy="362.81962550055573" r="2.5"/><desc class="value">37.41</desc><desc class="x left top">637.4835164835165</desc><desc class="y left top">362.81962550055573</desc><desc class="x_label">2009</desc></g><g class="dots"><desc class="label">18 wickets in 13 innings (110.3 overs)</desc><circle class="dot reactive tooltip-trigger" cx="657.5934065934066" cy="376.9441667208808" r="2.5"/><desc class="value">31.56</desc><desc class="x left top">657.5934065934066</desc><desc class="y left top">376.9441667208808</desc><desc class="x_label">2010</desc></g><g class="dots"><desc class="label">9 wickets in 7 innings (63.1 overs)</desc><circle class="dot reactive tooltip-trigger" cx="687.7582417582418" cy="364.34072993966765" r="2.5"/><desc class="value">36.78</desc><desc class="x left top">687.7582417582418</desc><desc class="y left top">364.34072993966765</desc><desc class="x_label">2011</desc></g><g class="dots"><desc class="label">0 wickets in 1 innings (9.0 overs)</desc><circle class="dot reactive tooltip-trigger" cx="717.9230769230769" cy="296.20490887341566" r="2.5"/><desc class="value">65</desc><desc class="x left top">717.9230769230769</desc><desc class="y left top">296.20490887341566</desc><desc class="x_label">2012</desc></g></g><g class="series serie-1 color-1"><g class="dots"><desc class="label">0 wickets over 0 innings</desc><circle class="dot reactive tooltip-trigger" cx="14.076923076923077" cy="453.1442557659166" r="2.5"/><desc class="value">0</desc><desc class="x top">14.076923076923077</desc><desc class="y top">453.1442557659166</desc><desc class="x_label">2001</desc></g><g class="dots"><desc class="label">27 wickets in 19 innings (133.2 overs)</desc><circle class="dot reactive tooltip-trigger" cx="109.59890109890108" cy="389.2095802934024" r="2.5"/><desc class="value">26.48</desc><desc class="x top">109.59890109890108</desc><desc class="y top">389.2095802934024</desc><desc class="x_label">2002</desc></g><g class="dots"><desc class="label">59 wickets in 40 innings (300.3 overs)</desc><circle class="dot reactive tooltip-trigger" cx="215.17582417582418" cy="389.2337248083089" r="2.5"/><desc class="value">26.47</desc><desc class="x top">215.17582417582418</desc><desc class="y top">389.2337248083089</desc><desc class="x_label">2003</desc></g><g class="dots"><desc class="label">73 wickets in 54 innings (391.3 overs)</desc><circle class="dot reactive tooltip-trigger" cx="285.56043956043953" cy="385.41889145307584" r="2.5"/><desc class="value">28.05</desc><desc class="x top">285.56043956043953</desc><desc class="y top">385.41889145307584</desc><desc class="x_label">2004</desc></g><g class="dots"><desc class="label">81 wickets in 61 innings (437.3 overs)</desc><circle class="dot reactive tooltip-trigger" cx="320.75274725274727" cy="386.16737141517854" r="2.5"/><desc class="value">27.74</desc><desc class="x top">320.75274725274727</desc><desc class="y top">386.16737141517854</desc><desc class="x_label">2005</desc></g><g class="dots"><desc class="label">94 wickets in 74 innings (553.3 overs)</desc><circle class="dot reactive tooltip-trigger" cx="386.10989010989016" cy="379.3827627264412" r="2.5"/><desc class="value">30.55</desc><desc class="x left top">386.10989010989016</desc><desc class="y left top">379.3827627264412</desc><desc class="x_label">2006</desc></g><g class="dots"><desc class="label">120 wickets in 95 innings (710.0 overs)</desc><circle class="dot reactive tooltip-trigger" cx="491.6868131868132" cy="377.1373228401331" r="2.5"/><desc class="value">31.48</desc><desc class="x left top">491.6868131868132</desc><desc class="y left top">377.1373228401331</desc><desc class="x_label">2007</desc></g><g class="dots"><desc class="label">158 wickets in 117 innings (884.0 overs)</desc><circle class="dot reactive tooltip-trigger" cx="602.2912087912089" cy="383.2700296263939" r="2.5"/><desc class="value">28.94</desc><desc class="x left top">602.2912087912089</desc><desc class="y left top">383.2700296263939</desc><desc class="x_label">2008</desc></g><g class="dots"><desc class="label">165 wickets in 124 innings (938.0 overs)</desc><circle class="dot reactive tooltip-trigger" cx="637.4835164835165" cy="382.54569417919777" r="2.5"/><desc class="value">29.24</desc><desc class="x left top">637.4835164835165</desc><desc class="y left top">382.54569417919777</desc><desc class="x_label">2009</desc></g><g class="dots"><desc class="label">169 wickets in 128 innings (974.0 overs)</desc><circle class="dot reactive tooltip-trigger" cx="657.5934065934066" cy="380.56584395686156" r="2.5"/><desc class="value">30.06</desc><desc class="x left top">657.5934065934066</desc><desc class="y left top">380.56584395686156</desc><desc class="x_label">2010</desc></g><g class="dots"><desc class="label">178 wickets in 134 innings (1021.2 overs)</desc><circle class="dot reactive tooltip-trigger" cx="687.7582417582418" cy="381.0245897400858" r="2.5"/><desc class="value">29.87</desc><desc class="x left top">687.7582417582418</desc><desc class="y left top">381.0245897400858</desc><desc class="x_label">2011</desc></g><g class="dots"><desc class="label">187 wickets in 140 innings (1075.3 overs)</desc><circle class="dot reactive tooltip-trigger" cx="717.9230769230769" cy="381.0487342549924" r="2.5"/><desc class="value">29.86</desc><desc class="x left top">717.9230769230769</desc><desc class="y left top">381.0487342549924</desc><desc class="x_label">2012</desc></g></g><g class="series serie-2 color-2"/></g><g class="plot text-overlay" transform="translate(48, 46)"><g class="series serie-0 color-0"/><g class="series serie-1 color-1"/><g class="series serie-2 color-2"/></g><g class="plot tooltip-overlay" transform="translate(48, 46)"><g class="tooltip" style="opacity: 0" transform="translate(0 0)"><rect class="tooltip-box" height="0" rx="10" ry="10" width="0"/><g class="text"/></g></g><g class="legends" transform="translate(58, 545)"><g class="legend reactive activate-serie" id="activate-serie-0"><rect class="color-0 reactive" height="12" width="12" x="0.0" y="1.0"/><text x="17.0" y="11.2">Future Average</text></g><g class="legend reactive activate-serie" id="activate-serie-1"><rect class="color-1 reactive" height="12" width="12" x="366.0" y="1.0"/><text x="383.0" y="11.2">Past Average</text></g><g class="legend reactive activate-serie" id="activate-serie-2"><rect class="color-2 reactive" height="12" width="12" x="0.0" y="22.0"/><text x="17.0" y="32.2">Career Average</text></g></g></g></svg>