<?xml version='1.0' encoding='utf-8'?>
<svg xmlns:xlink="http://www.w3.org/1999/xlink" xmlns="http://www.w3.org/2000/svg" id="chart-a8fead0c-a799-4a0f-85ef-e1d221bb5e30" class="pygal-chart" viewBox="0 0 800 600"><!--Generated with pygal 2.4.0 (lxml) ©Kozea 2012-2016 on 2019-08-04--><!--http://pygal.org--><!--http://github.com/Kozea/pygal--><defs><style type="text/css">#chart-a8fead0c-a799-4a0f-85ef-e1d221bb5e30{-webkit-user-select:none;-webkit-font-smoothing:antialiased;font-family:Consolas,"Liberation Mono",Menlo,Courier,monospace}#chart-a8fead0c-a799-4a0f-85ef-e1d221bb5e30 .title{font-family:Consolas,"Liberation Mono",Menlo,Courier,monospace;font-size:16px}#chart-a8fead0c-a799-4a0f-85ef-e1d221bb5e30 .legends .legend text{font-family:Consolas,"Liberation Mono",Menlo,Courier,monospace;font-size:14px}#chart-a8fead0c-a799-4a0f-85ef-e1d221bb5e30 .axis text{font-family:Consolas,"Liberation Mono",Menlo,Courier,monospace;font-size:10px}#chart-a8fead0c-a799-4a0f-85ef-e1d221bb5e30 .axis text.major{font-family:Consolas,"Liberation Mono",Menlo,Courier,monospace;font-size:10px}#chart-a8fead0c-a799-4a0f-85ef-e1d221bb5e30 .text-overlay text.value{font-family:Consolas,"Liberation Mono",Menlo,Courier,monospace;font-size:16px}#chart-a8fead0c-a799-4a0f-85ef-e1d221bb5e30 .text-overlay text.label{font-family:Consolas,"Liberation Mono",Menlo,Courier,monospace;font-size:10px}#chart-a8fead0c-a799-4a0f-85ef-e1d221bb5e30 .tooltip{font-family:Consolas,"Liberation Mono",Menlo,Courier,monospace;font-size:14px}#chart-a8fead0c-a799-4a0f-85ef-e1d221bb5e30 text.no_data{font-family:Consolas,"Liberation Mono",Menlo,Courier,monospace;font-size:64px}
#chart-a8fead0c-a799-4a0f-85ef-e1d221bb5e30{background-color:rgba(249,249,249,1)}#chart-a8fead0c-a799-4a0f-85ef-e1d221bb5e30 path,#chart-a8fead0c-a799-4a0f-85ef-e1d221bb5e30 line,#chart-a8fead0c-a799-4a0f-85ef-e1d221bb5e30 rect,#chart-a8fead0c-a799-4a0f-85ef-e1d221bb5e30 circle{-webkit-transition:150ms;-moz-transition:150ms;transition:150ms}#chart-a8fead0c-a799-4a0f-85ef-e1d221bb5e30 .graph &gt; .background{fill:rgba(249,249,249,1)}#chart-a8fead0c-a799-4a0f-85ef-e1d221bb5e30 .plot &gt; .background{fill:rgba(255,255,255,1)}#chart-a8fead0c-a799-4a0f-85ef-e1d221bb5e30 .graph{fill:rgba(0,0,0,.87)}#chart-a8fead0c-a799-4a0f-85ef-e1d221bb5e30 text.no_data{fill:rgba(0,0,0,1)}#chart-a8fead0c-a799-4a0f-85ef-e1d221bb5e30 .title{fill:rgba(0,0,0,1)}#chart-a8fead0c-a799-4a0f-85ef-e1d221bb5e30 .legends .legend text{fill:rgba(0,0,0,.87)}#chart-a8fead0c-a799-4a0f-85ef-e1d221bb5e30 .legends .legend:hover text{fill:rgba(0,0,0,1)}#chart-a8fead0c-a799-4a0f-85ef-e1d221bb5e30 .axis .line{stroke:rgba(0,0,0,1)}#chart-a8fead0c-a799-4a0f-85ef-e1d221bb5e30 .axis .guide.line{stroke:rgba(0,0,0,.54)}#chart-a8fead0c-a799-4a0f-85ef-e1d221bb5e30 .axis .major.line{stroke:rgba(0,0,0,.87)}#chart-a8fead0c-a799-4a0f-85ef-e1d221bb5e30 .axis text.major{fill:rgba(0,0,0,1)}#chart-a8fead0c-a799-4a0f-85ef-e1d221bb5e30 .axis.y .guides:hover .guide.line,#chart-a8fead0c-a799-4a0f-85ef-e1d221bb5e30 .line-graph .axis.x .guides:hover .guide.line,#chart-a8fead0c-a799-4a0f-85ef-e1d221bb5e30 .stackedline-graph .axis.x .guides:hover .guide.line,#chart-a8fead0c-a799-4a0f-85ef-e1d221bb5e30 .xy-graph .axis.x .guides:hover .guide.line{stroke:rgba(0,0,0,1)}#chart-a8fead0c-a799-4a0f-85ef-e1d221bb5e30 .axis .guides:hover text{fill:rgba(0,0,0,1)}#chart-a8fead0c-a799-4a0f-85ef-e1d221bb5e30 .reactive{fill-opacity:.7;stroke-opacity:.8}#chart-a8fead0c-a799-4a0f-85ef-e1d221bb5e30 .ci{stroke:rgba(0,0,0,.87)}#chart-a8fead0c-a799-4a0f-85ef-e1d221bb5e30 .reactive.active,#chart-a8fead0c-a799-4a0f-85ef-e1d221bb5e30 .active .reactive{fill-opacity:.8;stroke-opacity:.9;stroke-width:4}#chart-a8fead0c-a799-4a0f-85ef-e1d221bb5e30 .ci .reactive.active{stroke-width:1.5}#chart-a8fead0c-a799-4a0f-85ef-e1d221bb5e30 .series text{fill:rgba(0,0,0,1)}#chart-a8fead0c-a799-4a0f-85ef-e1d221bb5e30 .tooltip rect{fill:rgba(255,255,255,1);stroke:rgba(0,0,0,1);-webkit-transition:opacity 150ms;-moz-transition:opacity 150ms;transition:opacity 150ms}#chart-a8fead0c-a799-4a0f-85ef-e1d221bb5e30 .tooltip .label{fill:rgba(0,0,0,.87)}#chart-a8fead0c-a799-4a0f-85ef-e1d221bb5e30 .tooltip .label{fill:rgba(0,0,0,.87)}#chart-a8fead0c-a799-4a0f-85ef-e1d221bb5e30 .tooltip .legend{font-size:.8em;fill:rgba(0,0,0,.54)}#chart-a8fead0c-a799-4a0f-85ef-e1d221bb5e30 .tooltip .x_label{font-size:.6em;fill:rgba(0,0,0,1)}#chart-a8fead0c-a799-4a0f-85ef-e1d221bb5e30 .tooltip .xlink{font-size:.5em;text-decoration:underline}#chart-a8fead0c-a799-4a0f-85ef-e1d221bb5e30 .tooltip .value{font-size:1.5em}#chart-a8fead0c-a799-4a0f-85ef-e1d221bb5e30 .bound{font-size:.5em}#chart-a8fead0c-a799-4a0f-85ef-e1d221bb5e30 .max-value{font-size:.75em;fill:rgba(0,0,0,.54)}#chart-a8fead0c-a799-4a0f-85ef-e1d221bb5e30 .map-element{fill:rgba(255,255,255,1);stroke:rgba(0,0,0,.54) !important}#chart-a8fead0c-a799-4a0f-85ef-e1d221bb5e30 .map-element .reactive{fill-opacity:inherit;stroke-opacity:inherit}#chart-a8fead0c-a799-4a0f-85ef-e1d221bb5e30 .color-0,#chart-a8fead0c-a799-4a0f-85ef-e1d221bb5e30 .color-0 a:visited{stroke:red;fill:red}#chart-a8fead0c-a799-4a0f-85ef-e1d221bb5e30 .color-1,#chart-a8fead0c-a799-4a0f-85ef-e1d221bb5e30 .color-1 a:visited{stroke:blue;fill:blue}#chart-a8fead0c-a799-4a0f-85ef-e1d221bb5e30 .color-2,#chart-a8fead0c-a799-4a0f-85ef-e1d221bb5e30 .color-2 a:visited{stroke:green;fill:green}#chart-a8fead0c-a799-4a0f-85ef-e1d221bb5e30 .text-overlay .color-0 text{fill:white}#chart-a8fead0c-a799-4a0f-85ef-e1d221bb5e30 .text-overlay .color-1 text{fill:white}#chart-a8fead0c-a799-4a0f-85ef-e1d221bb5e30 .text-overlay .color-2 text{fill:white}
#chart-a8fead0c-a799-4a0f-85ef-e1d221bb5e30 text.no_data{text-anchor:middle}#chart-a8fead0c-a799-4a0f-85ef-e1d221bb5e30 .guide.line{fill:none}#chart-a8fead0c-a799-4a0f-85ef-e1d221bb5e30 .centered{text-anchor:middle}#chart-a8fead0c-a799-4a0f-85ef-e1d221bb5e30 .title{text-anchor:middle}#chart-a8fead0c-a799-4a0f-85ef-e1d221bb5e30 .legends .legend text{fill-opacity:1}#chart-a8fead0c-a799-4a0f-85ef-e1d221bb5e30 .axis.x text{text-anchor:middle}#chart-a8fead0c-a799-4a0f-85ef-e1d221bb5e30 .axis.x:not(.web) text[transform]{text-anchor:start}#chart-a8fead0c-a799-4a0f-85ef-e1d221bb5e30 .axis.x:not(.web) text[transform].backwards{text-anchor:end}#chart-a8fead0c-a799-4a0f-85ef-e1d221bb5e30 .axis.y text{text-anchor:end}#chart-a8fead0c-a799-4a0f-85ef-e1d221bb5e30 .axis.y text[transform].backwards{text-anchor:start}#chart-a8fead0c-a799-4a0f-85ef-e1d221bb5e30 .axis.y2 text{text-anchor:start}#chart-a8fead0c-a799-4a0f-85ef-e1d221bb5e30 .axis.y2 text[transform].backwards{text-anchor:end}#chart-a8fead0c-a799-4a0f-85ef-e1d221bb5e30 .axis .guide.line{stroke-dasharray:4,4}#chart-a8fead0c-a799-4a0f-85ef-e1d221bb5e30 .axis .major.guide.line{stroke-dasharray:6,6}#chart-a8fead0c-a799-4a0f-85ef-e1d221bb5e30 .horizontal .axis.y .guide.line,#chart-a8fead0c-a799-4a0f-85ef-e1d221bb5e30 .horizontal .axis.y2 .guide.line,#chart-a8fead0c-a799-4a0f-85ef-e1d221bb5e30 .vertical .axis.x .guide.line{opacity:0}#chart-a8fead0c-a799-4a0f-85ef-e1d221bb5e30 .horizontal .axis.always_show .guide.line,#chart-a8fead0c-a799-4a0f-85ef-e1d221bb5e30 .vertical .axis.always_show .guide.line{opacity:1 !important}#chart-a8fead0c-a799-4a0f-85ef-e1d221bb5e30 .axis.y .guides:hover .guide.line,#chart-a8fead0c-a799-4a0f-85ef-e1d221bb5e30 .axis.y2 .guides:hover .guide.line,#chart-a8fead0c-a799-4a0f-85ef-e1d221bb5e30 .axis.x .guides:hover .guide.line{opacity:1}#chart-a8fead0c-a799-4a0f-85ef-e1d221bb5e30 .axis .guides:hover text{opacity:1}#chart-a8fead0c-a799-4a0f-85ef-e1d221bb5e30 .nofill{fill:none}#chart-a8fead0c-a799-4a0f-85ef-e1d221bb5e30 .subtle-fill{fill-opacity:.2}#chart-a8fead0c-a799-4a0f-85ef-e1d221bb5e30 .dot{stroke-width:1px;fill-opacity:1}#chart-a8fead0c-a799-4a0f-85ef-e1d221bb5e30 .dot.active{stroke-width:5px}#chart-a8fead0c-a799-4a0f-85ef-e1d221bb5e30 .dot.negative{fill:transparent}#chart-a8fead0c-a799-4a0f-85ef-e1d221bb5e30 text,#chart-a8fead0c-a799-4a0f-85ef-e1d221bb5e30 tspan{stroke:none !important}#chart-a8fead0c-a799-4a0f-85ef-e1d221bb5e30 .series text.active{opacity:1}#chart-a8fead0c-a799-4a0f-85ef-e1d221bb5e30 .tooltip rect{fill-opacity:.95;stroke-width:.5}#chart-a8fead0c-a799-4a0f-85ef-e1d221bb5e30 .tooltip text{fill-opacity:1}#chart-a8fead0c-a799-4a0f-85ef-e1d221bb5e30 .showable{visibility:hidden}#chart-a8fead0c-a799-4a0f-85ef-e1d221bb5e30 .showable.shown{visibility:visible}#chart-a8fead0c-a799-4a0f-85ef-e1d221bb5e30 .gauge-background{fill:rgba(229,229,229,1);stroke:none}#chart-a8fead0c-a799-4a0f-85ef-e1d221bb5e30 .bg-lines{stroke:rgba(249,249,249,1);stroke-width:2px}</style><script type="text/javascript">window.pygal = window.pygal || {};window.pygal.config = window.pygal.config || {};window.pygal.config['a8fead0c-a799-4a0f-85ef-e1d221bb5e30'] = {"allow_interruptions": false, "box_mode": "extremes", "classes": ["pygal-chart"], "css": ["file://style.css", "file://graph.css"], "defs": [], "disable_xml_declaration": false, "dots_size": 2.5, "dynamic_print_values": false, "explicit_size": false, "fill": false, "force_uri_protocol": "https", "formatter": null, "half_pie": false, "height": 600, "include_x_axis": false, "inner_radius": 0, "interpolate": null, "interpolation_parameters": {}, "interpolation_precision": 250, "inverse_y_axis": false, "js": ["//kozea.github.io/pygal.js/2.0.x/pygal-tooltips.min.js"], "legend_at_bottom": true, "legend_at_bottom_columns": null, "legend_box_size": 12, "logarithmic": false, "margin": 20, "margin_bottom": null, "margin_left": null, "margin_right": null, "margin_top": null, "max_scale": 16, "min_scale": 4, "missing_value_fill_truncation": "x", "no_data_text": "No data", "no_prefix": false, "order_min": null, "pretty_print": false, "print_labels": false, "print_values": false, "print_values_position": "center", "print_zeroes": true, "range": null, "rounded_bars": null, "secondary_range": null, "show_dots": true, "show_legend": true, "show_minor_x_labels": false, "show_minor_y_labels": true, "show_only_major_dots": false, "show_x_guides": false, "show_x_labels": true, "show_y_guides": true, "show_y_labels": true, "spacing": 10, "stack_from_top": false, "strict": false, "stroke": true, "stroke_style": null, "style": {"background": "rgba(249, 249, 249, 1)", "ci_colors": [], "colors": ["red", "blue", "green", "#a3a3a3"], "font_family": "Consolas, \"Liberation Mono\", Menlo, Courier, monospace", "foreground": "rgba(0, 0, 0, .87)", "foreground_strong": "rgba(0, 0, 0, 1)", "foreground_subtle": "rgba(0, 0, 0, .54)", "guide_stroke_dasharray": "4,4", "label_font_family": "Consolas, \"Liberation Mono\", Menlo, Courier, monospace", "label_font_size": 10, "legend_font_family": "Consolas, \"Liberation Mono\", Menlo, Courier, monospace", "legend_font_size": 14, "major_guide_stroke_dasharray": "6,6", "major_label_font_family": "Consolas, \"Liberation Mono\", Menlo, Courier, monospace", "major_label_font_size": 10, "no_data_font_family": "Consolas, \"Liberation Mono\", Menlo, Courier, monospace", "no_data_font_size": 64, "opacity": ".7", "opacity_hover": ".8", "plot_background": "rgba(255, 255, 255, 1)", "stroke_opacity": ".8", "stroke_opacity_hover": ".9", "title_font_family": "Consolas, \"Liberation Mono\", Menlo, Courier, monospace", "title_font_size": 16, "tooltip_font_family": "Consolas, \"Liberation Mono\", Menlo, Courier, monospace", "tooltip_font_size": 14, "transition": "150ms", "value_background": "rgba(229, 229, 229, 1)", "value_colors": [], "value_font_family": "Consolas, \"Liberation Mono\", Menlo, Courier, monospace", "value_font_size": 16, "value_label_font_family": "Consolas, \"Liberation Mono\", Menlo, Courier, monospace", "value_label_font_size": 10}, "title": "CZ Harris: Future and Past Averages in ODIs", "tooltip_border_radius": 10, "tooltip_fancy_mode": true, "truncate_label": null, "truncate_legend": null, "width": 800, "x_label_rotation": 45, "x_labels": ["1990", "0", "0", "0", "0", "0", "1991", "0", "0", "0", "0", "0", "1992", "0", "0", "0", "0", "0", "0", "0", "0", "0", "0", "0", "0", "0", "0", "0", "0", "0", "1993", "0", "0", "1994", "0", "0", "0", "0", "0", "0", "0", "0", "0", "0", "0", "0", "0", "0", "0", "0", "0", "0", "0", "1996", "0", "0", "0", "0", "0", "0", "0", "0", "0", "0", "0", "0", "0", "0", "0", "0", "0", "1997", "0", "0", "0", "0", "0", "0", "0", "0", "0", "0", "0", "0", "0", "0", "0", "0", "1998", "0", "0", "0", "0", "0", "0", "0", "0", "0", "0", "0", "0", "0", "0", "0", "0", "0", "0", "0", "0", "0", "1999", "0", "0", "0", "0", "0", "0", "0", "0", "0", "0", "0", "0", "0", "0", "0", "0", "0", "0", "0", "0", "0", "0", "0", "0", "2000", "0", "0", "0", "0", "0", "0", "0", "0", "0", "0", "0", "0", "0", "0", "0", "0", "0", "0", "0", "0", "0", "2001", "0", "0", "0", "0", "0", "0", "0", "0", "0", "0", "0", "0", "0", "0", "0", "0", "0", "0", "0", "0", "0", "2002", "0", "0", "0", "0", "0", "0", "0", "0", "0", "0", "0", "0", "0", "0", "0", "0", "0", "0", "0", "0", "0", "0", "0", "0", "0", "2003", "0", "0", "0", "0", "0", "0", "0", "0", "0", "0", "0", "0", "0", "0", "0", "0", "0", "2004", "0", "0", "0", "0", "0", "0", "0", "0"], "x_labels_major": ["1990", "1991", "1992", "1993", "1994", "1996", "1997", "1998", "1999", "2000", "2001", "2002", "2003", "2004"], "x_labels_major_count": null, "x_labels_major_every": null, "x_title": null, "xrange": null, "y_label_rotation": 0, "y_labels": null, "y_labels_major": null, "y_labels_major_count": null, "y_labels_major_every": null, "y_title": null, "zero": 100.0, "legends": ["Future Average", "Past Average", "Career Average"]}</script><script type="text/javascript" xlink:href="https://kozea.github.io/pygal.js/2.0.x/pygal-tooltips.min.js"/></defs><title>CZ Harris: Future and Past Averages in ODIs</title><g class="graph line-graph vertical"><rect class="background" height="600" width="800" x="0" y="0"/><g class="plot" transform="translate(42, 46)"><rect class="background" height="462.02943725152284" width="738.0" x="0" y="0"/><g class="axis y always_show"><g class="guides"><path class="axis major line" d="M0.000000 453.144256 h738.000000"/><text class="major" x="-5" y="456.6442557659166">0</text><title>0</title></g><g class="guides"><path class="guide line" d="M0.000000 405.882652 h738.000000"/><text class="" x="-5" y="409.3826521190751">10</text><title>10</title></g><g class="guides"><path class="guide line" d="M0.000000 358.621048 h738.000000"/><text class="" x="-5" y="362.12104847223355">20</text><title>20</title></g><g class="guides"><path class="guide line" d="M0.000000 311.359445 h738.000000"/><text class="" x="-5" y="314.859444825392">30</text><title>30</title></g><g class="guides"><path class="guide line" d="M0.000000 264.097841 h738.000000"/><text class="" x="-5" y="267.5978411785504">40</text><title>40</title></g><g class="guides"><path class="major guide line" d="M0.000000 216.836238 h738.000000"/><text class="major" x="-5" y="220.33623753170895">50</text><title>50</title></g><g class="guides"><path class="guide line" d="M0.000000 169.574634 h738.000000"/><text class="" x="-5" y="173.0746338848674">60</text><title>60</title></g><g class="guides"><path class="guide line" d="M0.000000 122.313030 h738.000000"/><text class="" x="-5" y="125.81303023802587">70</text><title>70</title></g><g class="guides"><path class="guide line" d="M0.000000 75.051427 h738.000000"/><text class="" x="-5" y="78.55142659118434">80</text><title>80</title></g><g class="guides"><path class="guide line" d="M0.000000 27.789823 h738.000000"/><text class="" x="-5" y="31.289822944342802">90</text><title>90</title></g></g><g class="axis x"><g class="guides"><path class="major line" d="M14.192308 0.000000 v462.029437"/><text class="major" x="14.192307692307692" y="477.02943725152284" transform="rotate(45 14.192308 477.029437)">1990</text></g><g class="guides"><path class="major guide line" d="M32.623876 0.000000 v462.029437"/><text class="major" x="32.62387612387612" y="477.02943725152284" transform="rotate(45 32.623876 477.029437)">1991</text></g><g class="guides"><path class="major guide line" d="M51.055445 0.000000 v462.029437"/><text class="major" x="51.05544455544456" y="477.02943725152284" transform="rotate(45 51.055445 477.029437)">1992</text></g><g class="guides"><path class="major guide line" d="M106.350150 0.000000 v462.029437"/><text class="major" x="106.35014985014983" y="477.02943725152284" transform="rotate(45 106.350150 477.029437)">1993</text></g><g class="guides"><path class="major guide line" d="M115.565934 0.000000 v462.029437"/><text class="major" x="115.56593406593406" y="477.02943725152284" transform="rotate(45 115.565934 477.029437)">1994</text></g><g class="guides"><path class="major guide line" d="M177.004496 0.000000 v462.029437"/><text class="major" x="177.00449550449548" y="477.02943725152284" transform="rotate(45 177.004496 477.029437)">1996</text></g><g class="guides"><path class="major guide line" d="M232.299201 0.000000 v462.029437"/><text class="major" x="232.29920079920078" y="477.02943725152284" transform="rotate(45 232.299201 477.029437)">1997</text></g><g class="guides"><path class="major guide line" d="M284.521978 0.000000 v462.029437"/><text class="major" x="284.52197802197804" y="477.02943725152284" transform="rotate(45 284.521978 477.029437)">1998</text></g><g class="guides"><path class="major guide line" d="M352.104396 0.000000 v462.029437"/><text class="major" x="352.1043956043956" y="477.02943725152284" transform="rotate(45 352.104396 477.029437)">1999</text></g><g class="guides"><path class="major guide line" d="M428.902597 0.000000 v462.029437"/><text class="major" x="428.9025974025974" y="477.02943725152284" transform="rotate(45 428.902597 477.029437)">2000</text></g><g class="guides"><path class="major guide line" d="M496.485015 0.000000 v462.029437"/><text class="major" x="496.485014985015" y="477.02943725152284" transform="rotate(45 496.485015 477.029437)">2001</text></g><g class="guides"><path class="major guide line" d="M564.067433 0.000000 v462.029437"/><text class="major" x="564.0674325674325" y="477.02943725152284" transform="rotate(45 564.067433 477.029437)">2002</text></g><g class="guides"><path class="major guide line" d="M643.937562 0.000000 v462.029437"/><text class="major" x="643.9375624375624" y="477.02943725152284" transform="rotate(45 643.937562 477.029437)">2003</text></g><g class="guides"><path class="major guide line" d="M699.232268 0.000000 v462.029437"/><text class="major" x="699.2322677322677" y="477.02943725152284" transform="rotate(45 699.232268 477.029437)">2004</text></g></g><g class="series serie-0 color-0"><path class="line reactive nofill" d="M14.192308 275.913242 L17.264236 275.865980 20.336164 277.236567 23.408092 276.952997 26.480020 277.236567 29.551948 277.236567 32.623876 276.433120 35.695804 276.385858 38.767732 275.535149 41.839660 275.346103 44.911588 276.433120 47.983516 274.495394 51.055445 273.502900 54.127373 272.604930 57.199301 273.597424 60.271229 274.448132 63.343157 274.400871 66.415085 272.557668 69.487013 272.415883 72.558941 269.816495 75.630869 268.587694 78.702797 266.886276 81.774725 265.799259 84.846653 266.319137 87.918581 267.169845 90.990509 266.649968 94.062438 266.508183 97.134366 266.744491 100.206294 264.050580 103.278222 264.712242 106.350150 264.192364 109.422078 262.916301 112.494006 262.727255 115.565934 262.632731 118.637862 263.105348 121.709790 262.774516 124.781718 263.814272 127.853646 262.349162 130.925574 261.498453 133.997502 262.443685 137.069431 261.971069 140.141359 262.727255 143.213287 263.719748 146.285215 265.468428 149.357143 264.475934 152.429071 265.421166 155.500999 266.744491 158.572927 267.500677 161.644855 268.871263 164.716783 269.343879 167.788711 271.328867 170.860639 272.604930 173.932567 272.652191 177.004496 271.943267 180.076424 272.746715 183.148352 272.935761 186.220280 270.005542 189.292208 269.580187 192.364136 270.903512 195.436064 268.540432 198.507992 268.776740 201.579920 270.005542 204.651848 269.485664 207.723776 269.769234 210.795704 268.067816 213.867632 268.824002 216.939560 269.674710 220.011489 269.249356 223.083417 267.642461 226.155345 266.224613 229.227273 260.458698 232.299201 260.505959 235.371129 261.451191 238.443057 261.782023 241.514985 257.859309 244.586913 257.292170 247.658841 256.535985 250.730769 254.740044 253.802697 252.566010 256.874625 253.936596 259.946553 255.023613 263.018482 256.205153 266.090410 257.859309 269.162338 257.008601 272.234266 258.662757 275.306194 258.284664 278.378122 258.001094 281.450050 256.016107 284.521978 257.008601 287.593906 255.212660 290.665834 253.369457 293.737762 253.227672 296.809690 253.558504 299.881618 251.857086 302.953546 251.242685 306.025475 253.227672 309.097403 254.645520 312.169331 255.118136 315.241259 254.692782 318.313187 254.929090 321.385115 252.329702 324.457043 252.329702 327.528971 252.424225 330.600899 249.730314 333.672827 250.911854 336.744755 252.329702 339.816683 254.834567 342.888611 254.740044 345.960539 252.660533 349.032468 254.976352 352.104396 256.441461 355.176324 256.110630 358.248252 257.528478 361.320180 260.033343 364.392108 261.640238 367.464036 254.929090 370.535964 256.725031 373.607892 258.001094 376.679820 252.755056 379.751748 253.322196 382.823676 253.038626 385.895604 254.078381 388.967532 252.424225 392.039461 250.344715 395.111389 248.879605 398.183317 251.715301 401.255245 241.317748 404.327173 239.190976 407.399101 242.971904 410.471029 244.011660 413.542957 246.043909 416.614885 246.847356 419.686813 248.596035 422.758741 250.817331 425.830669 249.635790 428.902597 251.668039 431.974525 251.478993 435.046454 251.431731 438.118382 244.247968 441.190310 242.121195 444.262238 238.718360 447.334166 239.947162 450.406094 239.332761 453.478022 236.780634 456.549950 238.103959 459.621878 236.922419 462.693806 239.569069 465.765734 241.412271 468.837662 240.230731 471.909590 244.295229 474.981518 243.680828 478.053447 243.019166 481.125375 245.713077 484.197303 244.673322 487.269231 240.277993 490.341159 245.193200 493.413087 246.469263 496.485015 242.452027 499.556943 246.327478 502.628871 246.469263 505.700799 245.665816 508.772727 248.926866 511.844655 252.660533 514.916583 251.715301 517.988511 251.951609 521.060440 251.857086 524.132368 249.588529 527.204296 246.280217 530.276224 239.899900 533.348152 238.293006 536.420080 236.686111 539.492008 244.484276 542.563936 247.178187 545.635864 245.193200 548.707792 239.332761 551.779720 223.641908 554.851648 230.447579 557.923576 217.875993 560.995504 216.221837 564.067433 214.473157 567.139361 208.990811 570.211289 216.032790 573.283217 195.379469 576.355145 193.583529 579.427073 178.223507 582.499001 189.708077 585.570929 199.963845 588.642857 194.292453 591.714785 203.744773 594.786713 207.383917 597.858641 209.746997 600.930569 189.660815 604.002498 182.996929 607.074426 174.017225 610.146354 183.233237 613.218282 177.656368 616.290210 187.344997 619.362138 144.951338 622.434066 160.122313 625.505994 171.606883 628.577922 182.382528 631.649850 195.568516 634.721778 169.574634 637.793706 176.663874 640.865634 171.276052 643.937562 187.628566 647.009491 163.903241 650.081419 176.191258 653.153347 155.396153 656.225275 144.762292 659.297203 158.940773 662.369131 167.778693 665.441059 173.119254 668.512987 189.046415 671.584915 172.930208 674.656843 158.562680 677.728771 174.300794 680.800699 182.949668 683.872627 201.854309 686.944555 212.110077 690.016484 178.081723 693.088412 143.580752 696.160340 168.393094 699.232268 170.756174 702.304196 194.386976 705.376124 210.928537 708.448052 254.645520 711.519980 259.371681 714.591908 231.014719 717.663836 179.026955 720.735764 278.276322 723.807692 368.073369"/></g><g class="series serie-1 color-1"><path class="line reactive nofill" d="M14.192308 453.144256 L17.264236 283.002483 20.336164 8.885181 23.408092 169.574634 26.480020 141.217672 29.551948 188.479275 32.623876 254.645520 35.695804 259.371681 38.767732 285.365563 41.839660 288.248521 44.911588 264.097841 47.983516 298.362504 51.055445 308.334702 54.127373 314.620495 57.199301 303.088664 60.271229 292.738373 63.343157 292.454803 66.415085 306.396976 69.487013 305.971622 72.558941 321.378905 75.630869 325.726972 78.702797 329.933255 81.774725 331.918242 84.846653 329.177069 87.918581 322.418660 90.990509 321.804259 94.062438 320.953550 97.134366 318.306901 100.206294 325.774234 103.278222 322.891276 106.350150 323.552939 109.422078 325.632449 112.494006 324.970787 115.565934 323.931031 118.637862 322.087829 121.709790 321.946044 124.781718 318.401424 127.853646 320.906289 130.925574 322.371398 133.997502 319.441179 137.069431 319.772010 140.141359 317.361668 143.213287 314.147879 146.285215 308.760057 149.357143 310.886829 152.429071 307.956609 155.500999 303.892111 158.572927 301.623554 161.644855 297.370010 164.716783 295.432284 167.788711 289.477322 170.860639 285.696394 173.932567 285.271040 177.004496 287.114242 180.076424 284.892947 183.148352 284.042238 186.220280 290.942432 189.292208 291.698618 192.364136 288.390305 195.436064 292.974681 198.507992 292.171234 201.579920 289.335538 204.651848 290.186246 207.723776 289.193753 210.795704 292.171234 213.867632 290.611601 216.939560 288.862921 220.011489 289.430061 223.083417 291.982187 226.155345 293.872651 229.227273 301.718078 232.299201 301.103677 235.371129 299.496782 238.443057 299.024166 241.514985 303.608542 244.586913 303.939373 247.658841 304.506512 250.730769 305.924360 253.802697 307.625778 256.874625 305.735314 259.946553 304.317466 263.018482 302.663310 266.090410 300.489276 269.162338 301.103677 272.234266 298.882381 275.306194 298.882381 278.378122 298.835120 281.450050 300.347491 284.521978 299.165951 287.593906 300.394753 290.665834 301.529031 293.737762 301.150938 296.809690 300.300230 299.881618 301.150938 302.953546 301.292723 306.025475 299.260474 309.097403 297.795365 312.169331 296.897394 315.241259 296.897394 318.313187 296.282993 321.385115 297.889888 324.457043 297.511795 327.528971 296.944656 330.600899 298.504289 333.672827 297.464533 336.744755 296.235732 339.816683 294.061698 342.888611 293.778128 345.960539 294.770622 349.032468 292.927419 352.104396 291.698618 355.176324 291.651356 358.248252 290.517078 361.320180 288.532090 364.392108 287.256027 367.464036 291.320525 370.535964 289.997200 373.607892 289.051968 376.679820 291.887664 379.751748 291.509571 382.823676 291.415048 385.895604 290.706124 388.967532 291.509571 392.039461 292.171234 395.111389 292.738373 398.183317 290.989694 401.255245 295.763116 404.327173 296.519301 407.399101 294.392529 410.471029 293.778128 413.542957 292.691111 416.614885 291.887664 419.686813 290.895170 422.758741 289.666369 425.830669 289.997200 428.902597 288.957445 431.974525 288.768398 435.046454 288.484829 438.118382 291.131478 441.190310 291.793141 444.262238 292.643850 447.334166 292.076711 450.406094 291.982187 453.478022 292.313019 456.549950 291.745879 459.621878 291.887664 462.693806 290.800647 465.765734 290.044462 468.837662 290.186246 471.909590 288.532090 474.981518 288.484829 478.053447 288.437567 481.125375 287.397812 484.197303 287.492335 487.269231 288.484829 490.341159 286.736149 493.413087 286.027225 496.485015 286.830673 499.556943 285.554609 502.628871 285.271040 505.700799 285.271040 508.772727 284.231284 511.844655 283.097006 514.916583 283.191529 517.988511 283.144267 521.060440 282.955221 524.132368 283.380575 527.204296 284.089500 530.276224 285.271040 533.348152 285.412824 536.420080 285.507348 539.492008 283.616883 542.563936 282.955221 545.635864 283.191529 548.707792 284.042238 551.779720 286.405318 554.851648 285.034732 557.923576 286.783411 560.995504 286.641626 564.067433 286.547103 567.139361 287.066981 570.211289 285.885440 573.283217 287.728643 576.355145 287.445073 579.427073 288.390305 582.499001 286.925196 585.570929 285.601871 588.642857 285.838179 591.714785 284.656639 594.786713 284.231284 597.858641 283.947715 600.930569 285.318301 604.002498 285.507348 607.074426 285.790917 610.146354 284.940208 613.218282 284.892947 616.290210 283.994976 619.362138 285.601871 622.434066 284.467592 625.505994 283.616883 628.577922 282.813436 631.649850 281.868204 634.721778 282.577128 637.793706 282.151774 640.865634 281.915466 643.937562 280.970234 647.009491 281.726419 650.081419 281.064757 653.153347 281.490111 656.225275 281.301065 659.297203 280.686664 662.369131 280.355833 665.441059 280.119525 668.512987 279.457862 671.584915 279.599647 674.656843 279.457862 677.728771 278.985246 680.800699 278.748938 683.872627 278.134537 686.944555 277.850968 690.016484 278.370845 693.088412 278.559892 696.160340 278.040014 699.232268 277.992753 702.304196 277.520137 705.376124 277.189305 708.448052 276.338597 711.519980 276.149550 714.591908 276.338597 717.663836 276.385858 720.735764 276.763951 723.807692 276.338597"/></g><g class="series serie-2 color-2"><path class="line reactive nofill" d="M14.192308 275.913242 L17.264236 275.913242 20.336164 275.913242 23.408092 275.913242 26.480020 275.913242 29.551948 275.913242 32.623876 275.913242 35.695804 275.913242 38.767732 275.913242 41.839660 275.913242 44.911588 275.913242 47.983516 275.913242 51.055445 275.913242 54.127373 275.913242 57.199301 275.913242 60.271229 275.913242 63.343157 275.913242 66.415085 275.913242 69.487013 275.913242 72.558941 275.913242 75.630869 275.913242 78.702797 275.913242 81.774725 275.913242 84.846653 275.913242 87.918581 275.913242 90.990509 275.913242 94.062438 275.913242 97.134366 275.913242 100.206294 275.913242 103.278222 275.913242 106.350150 275.913242 109.422078 275.913242 112.494006 275.913242 115.565934 275.913242 118.637862 275.913242 121.709790 275.913242 124.781718 275.913242 127.853646 275.913242 130.925574 275.913242 133.997502 275.913242 137.069431 275.913242 140.141359 275.913242 143.213287 275.913242 146.285215 275.913242 149.357143 275.913242 152.429071 275.913242 155.500999 275.913242 158.572927 275.913242 161.644855 275.913242 164.716783 275.913242 167.788711 275.913242 170.860639 275.913242 173.932567 275.913242 177.004496 275.913242 180.076424 275.913242 183.148352 275.913242 186.220280 275.913242 189.292208 275.913242 192.364136 275.913242 195.436064 275.913242 198.507992 275.913242 201.579920 275.913242 204.651848 275.913242 207.723776 275.913242 210.795704 275.913242 213.867632 275.913242 216.939560 275.913242 220.011489 275.913242 223.083417 275.913242 226.155345 275.913242 229.227273 275.913242 232.299201 275.913242 235.371129 275.913242 238.443057 275.913242 241.514985 275.913242 244.586913 275.913242 247.658841 275.913242 250.730769 275.913242 253.802697 275.913242 256.874625 275.913242 259.946553 275.913242 263.018482 275.913242 266.090410 275.913242 269.162338 275.913242 272.234266 275.913242 275.306194 275.913242 278.378122 275.913242 281.450050 275.913242 284.521978 275.913242 287.593906 275.913242 290.665834 275.913242 293.737762 275.913242 296.809690 275.913242 299.881618 275.913242 302.953546 275.913242 306.025475 275.913242 309.097403 275.913242 312.169331 275.913242 315.241259 275.913242 318.313187 275.913242 321.385115 275.913242 324.457043 275.913242 327.528971 275.913242 330.600899 275.913242 333.672827 275.913242 336.744755 275.913242 339.816683 275.913242 342.888611 275.913242 345.960539 275.913242 349.032468 275.913242 352.104396 275.913242 355.176324 275.913242 358.248252 275.913242 361.320180 275.913242 364.392108 275.913242 367.464036 275.913242 370.535964 275.913242 373.607892 275.913242 376.679820 275.913242 379.751748 275.913242 382.823676 275.913242 385.895604 275.913242 388.967532 275.913242 392.039461 275.913242 395.111389 275.913242 398.183317 275.913242 401.255245 275.913242 404.327173 275.913242 407.399101 275.913242 410.471029 275.913242 413.542957 275.913242 416.614885 275.913242 419.686813 275.913242 422.758741 275.913242 425.830669 275.913242 428.902597 275.913242 431.974525 275.913242 435.046454 275.913242 438.118382 275.913242 441.190310 275.913242 444.262238 275.913242 447.334166 275.913242 450.406094 275.913242 453.478022 275.913242 456.549950 275.913242 459.621878 275.913242 462.693806 275.913242 465.765734 275.913242 468.837662 275.913242 471.909590 275.913242 474.981518 275.913242 478.053447 275.913242 481.125375 275.913242 484.197303 275.913242 487.269231 275.913242 490.341159 275.913242 493.413087 275.913242 496.485015 275.913242 499.556943 275.913242 502.628871 275.913242 505.700799 275.913242 508.772727 275.913242 511.844655 275.913242 514.916583 275.913242 517.988511 275.913242 521.060440 275.913242 524.132368 275.913242 527.204296 275.913242 530.276224 275.913242 533.348152 275.913242 536.420080 275.913242 539.492008 275.913242 542.563936 275.913242 545.635864 275.913242 548.707792 275.913242 551.779720 275.913242 554.851648 275.913242 557.923576 275.913242 560.995504 275.913242 564.067433 275.913242 567.139361 275.913242 570.211289 275.913242 573.283217 275.913242 576.355145 275.913242 579.427073 275.913242 582.499001 275.913242 585.570929 275.913242 588.642857 275.913242 591.714785 275.913242 594.786713 275.913242 597.858641 275.913242 600.930569 275.913242 604.002498 275.913242 607.074426 275.913242 610.146354 275.913242 613.218282 275.913242 616.290210 275.913242 619.362138 275.913242 622.434066 275.913242 625.505994 275.913242 628.577922 275.913242 631.649850 275.913242 634.721778 275.913242 637.793706 275.913242 640.865634 275.913242 643.937562 275.913242 647.009491 275.913242 650.081419 275.913242 653.153347 275.913242 656.225275 275.913242 659.297203 275.913242 662.369131 275.913242 665.441059 275.913242 668.512987 275.913242 671.584915 275.913242 674.656843 275.913242 677.728771 275.913242 680.800699 275.913242 683.872627 275.913242 686.944555 275.913242 690.016484 275.913242 693.088412 275.913242 696.160340 275.913242 699.232268 275.913242 702.304196 275.913242 705.376124 275.913242 708.448052 275.913242 711.519980 275.913242 714.591908 275.913242 717.663836 275.913242 720.735764 275.913242 723.807692 275.913242"/></g></g><g class="titles"><text class="title plot_title" x="400.0" y="26">CZ Harris: Future and Past Averages in ODIs</text></g><g class="plot overlay" transform="translate(42, 46)"><g class="series serie-0 color-0"><g class="dots"><desc class="label">203 wickets in 232 innings (1777.5 overs)</desc><circle class="dot reactive tooltip-trigger" cx="14.192307692307692" cy="275.91324209026084" r="2.5"/><desc class="value">37.5</desc><desc class="x top">14.192307692307692</desc><desc class="y top">275.91324209026084</desc><desc class="x_label">1990</desc></g><g class="dots"><desc class="label">198 wickets in 226 innings (1735.0 overs)</desc><circle class="dot reactive tooltip-trigger" cx="32.62387612387612" cy="276.4331197303761" r="2.5"/><desc class="value">37.39</desc><desc class="x top">32.62387612387612</desc><desc class="y top">276.4331197303761</desc><desc class="x_label">1991</desc></g><g class="dots"><desc class="label">189 wickets in 220 innings (1686.0 overs)</desc><circle class="dot reactive tooltip-trigger" cx="51.05544455544456" cy="273.502900304272" r="2.5"/><desc class="value">38.01</desc><desc class="x top">51.05544455544456</desc><desc class="y top">273.502900304272</desc><desc class="x_label">1992</desc></g><g class="dots"><desc class="label">163 wickets in 202 innings (1538.5 overs)</desc><circle class="dot reactive tooltip-trigger" cx="106.35014985014983" cy="264.19236438584414" r="2.5"/><desc class="value">39.98</desc><desc class="x top">106.35014985014983</desc><desc class="y top">264.19236438584414</desc><desc class="x_label">1993</desc></g><g class="dots"><desc class="label">159 wickets in 199 innings (1514.5 overs)</desc><circle class="dot reactive tooltip-trigger" cx="115.56593406593406" cy="262.63273146549835" r="2.5"/><desc class="value">40.31</desc><desc class="x top">115.56593406593406</desc><desc class="y top">262.63273146549835</desc><desc class="x_label">1994</desc></g><g class="dots"><desc class="label">150 wickets in 179 innings (1375.3 overs)</desc><circle class="dot reactive tooltip-trigger" cx="177.00449550449548" cy="271.9432673839261" r="2.5"/><desc class="value">38.34</desc><desc class="x top">177.00449550449548</desc><desc class="y top">271.9432673839261</desc><desc class="x_label">1996</desc></g><g class="dots"><desc class="label">126 wickets in 161 innings (1225.3 overs)</desc><circle class="dot reactive tooltip-trigger" cx="232.29920079920078" cy="260.5059593013905" r="2.5"/><desc class="value">40.76</desc><desc class="x top">232.29920079920078</desc><desc class="y top">260.5059593013905</desc><desc class="x_label">1997</desc></g><g class="dots"><desc class="label">112 wickets in 144 innings (1074.4 overs)</desc><circle class="dot reactive tooltip-trigger" cx="284.52197802197804" cy="257.00860063152425" r="2.5"/><desc class="value">41.5</desc><desc class="x top">284.52197802197804</desc><desc class="y top">257.00860063152425</desc><desc class="x_label">1998</desc></g><g class="dots"><desc class="label">91 wickets in 122 innings (875.1 overs)</desc><circle class="dot reactive tooltip-trigger" cx="352.1043956043956" cy="256.44146138776216" r="2.5"/><desc class="value">41.62</desc><desc class="x top">352.1043956043956</desc><desc class="y top">256.44146138776216</desc><desc class="x_label">1999</desc></g><g class="dots"><desc class="label">71 wickets in 97 innings (712.3 overs)</desc><circle class="dot reactive tooltip-trigger" cx="428.9025974025974" cy="251.6680394194311" r="2.5"/><desc class="value">42.63</desc><desc class="x left top">428.9025974025974</desc><desc class="y left top">251.6680394194311</desc><desc class="x_label">2000</desc></g><g class="dots"><desc class="label">50 wickets in 75 innings (532.3 overs)</desc><circle class="dot reactive tooltip-trigger" cx="496.485014985015" cy="242.45202670829704" r="2.5"/><desc class="value">44.58</desc><desc class="x left top">496.485014985015</desc><desc class="y left top">242.45202670829704</desc><desc class="x_label">2001</desc></g><g class="dots"><desc class="label">30 wickets in 53 innings (355.4 overs)</desc><circle class="dot reactive tooltip-trigger" cx="564.0674325674325" cy="214.47315734936683" r="2.5"/><desc class="value">50.5</desc><desc class="x left">564.0674325674325</desc><desc class="y left">214.47315734936683</desc><desc class="x_label">2002</desc></g><g class="dots"><desc class="label">11 wickets in 27 innings (157.1 overs)</desc><circle class="dot reactive tooltip-trigger" cx="643.9375624375624" cy="187.62856647796087" r="2.5"/><desc class="value">56.18</desc><desc class="x left">643.9375624375624</desc><desc class="y left">187.62856647796087</desc><desc class="x_label">2003</desc></g><g class="dots"><desc class="label">4 wickets in 9 innings (59.0 overs)</desc><circle class="dot reactive tooltip-trigger" cx="699.2322677322677" cy="170.75617397603844" r="2.5"/><desc class="value">59.75</desc><desc class="x left">699.2322677322677</desc><desc class="y left">170.75617397603844</desc><desc class="x_label">2004</desc></g></g><g class="series serie-1 color-1"><g class="dots"><desc class="label">0 wickets over 0 innings</desc><circle class="dot reactive tooltip-trigger" cx="14.192307692307692" cy="453.1442557659166" r="2.5"/><desc class="value">0</desc><desc class="x top">14.192307692307692</desc><desc class="y top">453.1442557659166</desc><desc class="x_label">1990</desc></g><g class="dots"><desc class="label">5 wickets in 6 innings (42.5 overs)</desc><circle class="dot reactive tooltip-trigger" cx="32.62387612387612" cy="254.64552044918216" r="2.5"/><desc class="value">42</desc><desc class="x top">32.62387612387612</desc><desc class="y top">254.64552044918216</desc><desc class="x_label">1991</desc></g><g class="dots"><desc class="label">14 wickets in 12 innings (91.5 overs)</desc><circle class="dot reactive tooltip-trigger" cx="51.05544455544456" cy="308.33470219199415" r="2.5"/><desc class="value">30.64</desc><desc class="x top">51.05544455544456</desc><desc class="y top">308.33470219199415</desc><desc class="x_label">1992</desc></g><g class="dots"><desc class="label">40 wickets in 30 innings (239.0 overs)</desc><circle class="dot reactive tooltip-trigger" cx="106.35014985014983" cy="323.55293856627713" r="2.5"/><desc class="value">27.42</desc><desc class="x top">106.35014985014983</desc><desc class="y top">323.55293856627713</desc><desc class="x_label">1993</desc></g><g class="dots"><desc class="label">44 wickets in 33 innings (263.0 overs)</desc><circle class="dot reactive tooltip-trigger" cx="115.56593406593406" cy="323.9310313954519" r="2.5"/><desc class="value">27.34</desc><desc class="x top">115.56593406593406</desc><desc class="y top">323.9310313954519</desc><desc class="x_label">1994</desc></g><g class="dots"><desc class="label">53 wickets in 53 innings (402.2 overs)</desc><circle class="dot reactive tooltip-trigger" cx="177.00449550449548" cy="287.11424215456225" r="2.5"/><desc class="value">35.13</desc><desc class="x top">177.00449550449548</desc><desc class="y top">287.11424215456225</desc><desc class="x_label">1996</desc></g><g class="dots"><desc class="label">77 wickets in 71 innings (552.2 overs)</desc><circle class="dot reactive tooltip-trigger" cx="232.29920079920078" cy="301.1036768340274" r="2.5"/><desc class="value">32.17</desc><desc class="x top">232.29920079920078</desc><desc class="y top">301.1036768340274</desc><desc class="x_label">1997</desc></g><g class="dots"><desc class="label">91 wickets in 88 innings (703.1 overs)</desc><circle class="dot reactive tooltip-trigger" cx="284.52197802197804" cy="299.1659510845069" r="2.5"/><desc class="value">32.58</desc><desc class="x top">284.52197802197804</desc><desc class="y top">299.1659510845069</desc><desc class="x_label">1998</desc></g><g class="dots"><desc class="label">112 wickets in 110 innings (902.4 overs)</desc><circle class="dot reactive tooltip-trigger" cx="352.1043956043956" cy="291.69861770830596" r="2.5"/><desc class="value">34.16</desc><desc class="x top">352.1043956043956</desc><desc class="y top">291.69861770830596</desc><desc class="x_label">1999</desc></g><g class="dots"><desc class="label">132 wickets in 135 innings (1065.2 overs)</desc><circle class="dot reactive tooltip-trigger" cx="428.9025974025974" cy="288.9574446967891" r="2.5"/><desc class="value">34.74</desc><desc class="x left top">428.9025974025974</desc><desc class="y left top">288.9574446967891</desc><desc class="x_label">2000</desc></g><g class="dots"><desc class="label">153 wickets in 157 innings (1245.2 overs)</desc><circle class="dot reactive tooltip-trigger" cx="496.485014985015" cy="286.8306725326812" r="2.5"/><desc class="value">35.19</desc><desc class="x left top">496.485014985015</desc><desc class="y left top">286.8306725326812</desc><desc class="x_label">2001</desc></g><g class="dots"><desc class="label">173 wickets in 179 innings (1422.1 overs)</desc><circle class="dot reactive tooltip-trigger" cx="564.0674325674325" cy="286.54710291080016" r="2.5"/><desc class="value">35.25</desc><desc class="x left top">564.0674325674325</desc><desc class="y left top">286.54710291080016</desc><desc class="x_label">2002</desc></g><g class="dots"><desc class="label">192 wickets in 205 innings (1620.4 overs)</desc><circle class="dot reactive tooltip-trigger" cx="643.9375624375624" cy="280.9702336804729" r="2.5"/><desc class="value">36.43</desc><desc class="x left top">643.9375624375624</desc><desc class="y left top">280.9702336804729</desc><desc class="x_label">2003</desc></g><g class="dots"><desc class="label">199 wickets in 223 innings (1718.5 overs)</desc><circle class="dot reactive tooltip-trigger" cx="699.2322677322677" cy="277.99275265072185" r="2.5"/><desc class="value">37.06</desc><desc class="x left top">699.2322677322677</desc><desc class="y left top">277.99275265072185</desc><desc class="x_label">2004</desc></g></g><g class="series serie-2 color-2"/></g><g class="plot text-overlay" transform="translate(42, 46)"><g class="series serie-0 color-0"/><g class="series serie-1 color-1"/><g class="series serie-2 color-2"/></g><g class="plot tooltip-overlay" transform="translate(42, 46)"><g class="tooltip" style="opacity: 0" transform="translate(0 0)"><rect class="tooltip-box" height="0" rx="10" ry="10" width="0"/><g class="text"/></g></g><g class="legends" transform="translate(52, 545)"><g class="legend reactive activate-serie" id="activate-serie-0"><rect class="color-0 reactive" height="12" width="12" x="0.0" y="1.0"/><text x="17.0" y="11.2">Future Average</text></g><g class="legend reactive activate-serie" id="activate-serie-1"><rect class="color-1 reactive" height="12" width="12" x="369.0" y="1.0"/><text x="386.0" y="11.2">Past Average</text></g><g class="legend reactive activate-serie" id="activate-serie-2"><rect class="color-2 reactive" height="12" width="12" x="0.0" y="22.0"/><text x="17.0" y="32.2">Career Average</text></g></g></g></svg>