<?xml version='1.0' encoding='utf-8'?>
<svg xmlns:xlink="http://www.w3.org/1999/xlink" xmlns="http://www.w3.org/2000/svg" id="chart-1a8ec7e5-d6ec-4e32-ad74-12430e657469" class="pygal-chart" viewBox="0 0 800 600"><!--Generated with pygal 2.4.0 (lxml) ©Kozea 2012-2016 on 2019-08-04--><!--http://pygal.org--><!--http://github.com/Kozea/pygal--><defs><style type="text/css">#chart-1a8ec7e5-d6ec-4e32-ad74-12430e657469{-webkit-user-select:none;-webkit-font-smoothing:antialiased;font-family:Consolas,"Liberation Mono",Menlo,Courier,monospace}#chart-1a8ec7e5-d6ec-4e32-ad74-12430e657469 .title{font-family:Consolas,"Liberation Mono",Menlo,Courier,monospace;font-size:16px}#chart-1a8ec7e5-d6ec-4e32-ad74-12430e657469 .legends .legend text{font-family:Consolas,"Liberation Mono",Menlo,Courier,monospace;font-size:14px}#chart-1a8ec7e5-d6ec-4e32-ad74-12430e657469 .axis text{font-family:Consolas,"Liberation Mono",Menlo,Courier,monospace;font-size:10px}#chart-1a8ec7e5-d6ec-4e32-ad74-12430e657469 .axis text.major{font-family:Consolas,"Liberation Mono",Menlo,Courier,monospace;font-size:10px}#chart-1a8ec7e5-d6ec-4e32-ad74-12430e657469 .text-overlay text.value{font-family:Consolas,"Liberation Mono",Menlo,Courier,monospace;font-size:16px}#chart-1a8ec7e5-d6ec-4e32-ad74-12430e657469 .text-overlay text.label{font-family:Consolas,"Liberation Mono",Menlo,Courier,monospace;font-size:10px}#chart-1a8ec7e5-d6ec-4e32-ad74-12430e657469 .tooltip{font-family:Consolas,"Liberation Mono",Menlo,Courier,monospace;font-size:14px}#chart-1a8ec7e5-d6ec-4e32-ad74-12430e657469 text.no_data{font-family:Consolas,"Liberation Mono",Menlo,Courier,monospace;font-size:64px}
#chart-1a8ec7e5-d6ec-4e32-ad74-12430e657469{background-color:rgba(249,249,249,1)}#chart-1a8ec7e5-d6ec-4e32-ad74-12430e657469 path,#chart-1a8ec7e5-d6ec-4e32-ad74-12430e657469 line,#chart-1a8ec7e5-d6ec-4e32-ad74-12430e657469 rect,#chart-1a8ec7e5-d6ec-4e32-ad74-12430e657469 circle{-webkit-transition:150ms;-moz-transition:150ms;transition:150ms}#chart-1a8ec7e5-d6ec-4e32-ad74-12430e657469 .graph &gt; .background{fill:rgba(249,249,249,1)}#chart-1a8ec7e5-d6ec-4e32-ad74-12430e657469 .plot &gt; .background{fill:rgba(255,255,255,1)}#chart-1a8ec7e5-d6ec-4e32-ad74-12430e657469 .graph{fill:rgba(0,0,0,.87)}#chart-1a8ec7e5-d6ec-4e32-ad74-12430e657469 text.no_data{fill:rgba(0,0,0,1)}#chart-1a8ec7e5-d6ec-4e32-ad74-12430e657469 .title{fill:rgba(0,0,0,1)}#chart-1a8ec7e5-d6ec-4e32-ad74-12430e657469 .legends .legend text{fill:rgba(0,0,0,.87)}#chart-1a8ec7e5-d6ec-4e32-ad74-12430e657469 .legends .legend:hover text{fill:rgba(0,0,0,1)}#chart-1a8ec7e5-d6ec-4e32-ad74-12430e657469 .axis .line{stroke:rgba(0,0,0,1)}#chart-1a8ec7e5-d6ec-4e32-ad74-12430e657469 .axis .guide.line{stroke:rgba(0,0,0,.54)}#chart-1a8ec7e5-d6ec-4e32-ad74-12430e657469 .axis .major.line{stroke:rgba(0,0,0,.87)}#chart-1a8ec7e5-d6ec-4e32-ad74-12430e657469 .axis text.major{fill:rgba(0,0,0,1)}#chart-1a8ec7e5-d6ec-4e32-ad74-12430e657469 .axis.y .guides:hover .guide.line,#chart-1a8ec7e5-d6ec-4e32-ad74-12430e657469 .line-graph .axis.x .guides:hover .guide.line,#chart-1a8ec7e5-d6ec-4e32-ad74-12430e657469 .stackedline-graph .axis.x .guides:hover .guide.line,#chart-1a8ec7e5-d6ec-4e32-ad74-12430e657469 .xy-graph .axis.x .guides:hover .guide.line{stroke:rgba(0,0,0,1)}#chart-1a8ec7e5-d6ec-4e32-ad74-12430e657469 .axis .guides:hover text{fill:rgba(0,0,0,1)}#chart-1a8ec7e5-d6ec-4e32-ad74-12430e657469 .reactive{fill-opacity:.7;stroke-opacity:.8}#chart-1a8ec7e5-d6ec-4e32-ad74-12430e657469 .ci{stroke:rgba(0,0,0,.87)}#chart-1a8ec7e5-d6ec-4e32-ad74-12430e657469 .reactive.active,#chart-1a8ec7e5-d6ec-4e32-ad74-12430e657469 .active .reactive{fill-opacity:.8;stroke-opacity:.9;stroke-width:4}#chart-1a8ec7e5-d6ec-4e32-ad74-12430e657469 .ci .reactive.active{stroke-width:1.5}#chart-1a8ec7e5-d6ec-4e32-ad74-12430e657469 .series text{fill:rgba(0,0,0,1)}#chart-1a8ec7e5-d6ec-4e32-ad74-12430e657469 .tooltip rect{fill:rgba(255,255,255,1);stroke:rgba(0,0,0,1);-webkit-transition:opacity 150ms;-moz-transition:opacity 150ms;transition:opacity 150ms}#chart-1a8ec7e5-d6ec-4e32-ad74-12430e657469 .tooltip .label{fill:rgba(0,0,0,.87)}#chart-1a8ec7e5-d6ec-4e32-ad74-12430e657469 .tooltip .label{fill:rgba(0,0,0,.87)}#chart-1a8ec7e5-d6ec-4e32-ad74-12430e657469 .tooltip .legend{font-size:.8em;fill:rgba(0,0,0,.54)}#chart-1a8ec7e5-d6ec-4e32-ad74-12430e657469 .tooltip .x_label{font-size:.6em;fill:rgba(0,0,0,1)}#chart-1a8ec7e5-d6ec-4e32-ad74-12430e657469 .tooltip .xlink{font-size:.5em;text-decoration:underline}#chart-1a8ec7e5-d6ec-4e32-ad74-12430e657469 .tooltip .value{font-size:1.5em}#chart-1a8ec7e5-d6ec-4e32-ad74-12430e657469 .bound{font-size:.5em}#chart-1a8ec7e5-d6ec-4e32-ad74-12430e657469 .max-value{font-size:.75em;fill:rgba(0,0,0,.54)}#chart-1a8ec7e5-d6ec-4e32-ad74-12430e657469 .map-element{fill:rgba(255,255,255,1);stroke:rgba(0,0,0,.54) !important}#chart-1a8ec7e5-d6ec-4e32-ad74-12430e657469 .map-element .reactive{fill-opacity:inherit;stroke-opacity:inherit}#chart-1a8ec7e5-d6ec-4e32-ad74-12430e657469 .color-0,#chart-1a8ec7e5-d6ec-4e32-ad74-12430e657469 .color-0 a:visited{stroke:red;fill:red}#chart-1a8ec7e5-d6ec-4e32-ad74-12430e657469 .color-1,#chart-1a8ec7e5-d6ec-4e32-ad74-12430e657469 .color-1 a:visited{stroke:blue;fill:blue}#chart-1a8ec7e5-d6ec-4e32-ad74-12430e657469 .color-2,#chart-1a8ec7e5-d6ec-4e32-ad74-12430e657469 .color-2 a:visited{stroke:green;fill:green}#chart-1a8ec7e5-d6ec-4e32-ad74-12430e657469 .text-overlay .color-0 text{fill:white}#chart-1a8ec7e5-d6ec-4e32-ad74-12430e657469 .text-overlay .color-1 text{fill:white}#chart-1a8ec7e5-d6ec-4e32-ad74-12430e657469 .text-overlay .color-2 text{fill:white}
#chart-1a8ec7e5-d6ec-4e32-ad74-12430e657469 text.no_data{text-anchor:middle}#chart-1a8ec7e5-d6ec-4e32-ad74-12430e657469 .guide.line{fill:none}#chart-1a8ec7e5-d6ec-4e32-ad74-12430e657469 .centered{text-anchor:middle}#chart-1a8ec7e5-d6ec-4e32-ad74-12430e657469 .title{text-anchor:middle}#chart-1a8ec7e5-d6ec-4e32-ad74-12430e657469 .legends .legend text{fill-opacity:1}#chart-1a8ec7e5-d6ec-4e32-ad74-12430e657469 .axis.x text{text-anchor:middle}#chart-1a8ec7e5-d6ec-4e32-ad74-12430e657469 .axis.x:not(.web) text[transform]{text-anchor:start}#chart-1a8ec7e5-d6ec-4e32-ad74-12430e657469 .axis.x:not(.web) text[transform].backwards{text-anchor:end}#chart-1a8ec7e5-d6ec-4e32-ad74-12430e657469 .axis.y text{text-anchor:end}#chart-1a8ec7e5-d6ec-4e32-ad74-12430e657469 .axis.y text[transform].backwards{text-anchor:start}#chart-1a8ec7e5-d6ec-4e32-ad74-12430e657469 .axis.y2 text{text-anchor:start}#chart-1a8ec7e5-d6ec-4e32-ad74-12430e657469 .axis.y2 text[transform].backwards{text-anchor:end}#chart-1a8ec7e5-d6ec-4e32-ad74-12430e657469 .axis .guide.line{stroke-dasharray:4,4}#chart-1a8ec7e5-d6ec-4e32-ad74-12430e657469 .axis .major.guide.line{stroke-dasharray:6,6}#chart-1a8ec7e5-d6ec-4e32-ad74-12430e657469 .horizontal .axis.y .guide.line,#chart-1a8ec7e5-d6ec-4e32-ad74-12430e657469 .horizontal .axis.y2 .guide.line,#chart-1a8ec7e5-d6ec-4e32-ad74-12430e657469 .vertical .axis.x .guide.line{opacity:0}#chart-1a8ec7e5-d6ec-4e32-ad74-12430e657469 .horizontal .axis.always_show .guide.line,#chart-1a8ec7e5-d6ec-4e32-ad74-12430e657469 .vertical .axis.always_show .guide.line{opacity:1 !important}#chart-1a8ec7e5-d6ec-4e32-ad74-12430e657469 .axis.y .guides:hover .guide.line,#chart-1a8ec7e5-d6ec-4e32-ad74-12430e657469 .axis.y2 .guides:hover .guide.line,#chart-1a8ec7e5-d6ec-4e32-ad74-12430e657469 .axis.x .guides:hover .guide.line{opacity:1}#chart-1a8ec7e5-d6ec-4e32-ad74-12430e657469 .axis .guides:hover text{opacity:1}#chart-1a8ec7e5-d6ec-4e32-ad74-12430e657469 .nofill{fill:none}#chart-1a8ec7e5-d6ec-4e32-ad74-12430e657469 .subtle-fill{fill-opacity:.2}#chart-1a8ec7e5-d6ec-4e32-ad74-12430e657469 .dot{stroke-width:1px;fill-opacity:1}#chart-1a8ec7e5-d6ec-4e32-ad74-12430e657469 .dot.active{stroke-width:5px}#chart-1a8ec7e5-d6ec-4e32-ad74-12430e657469 .dot.negative{fill:transparent}#chart-1a8ec7e5-d6ec-4e32-ad74-12430e657469 text,#chart-1a8ec7e5-d6ec-4e32-ad74-12430e657469 tspan{stroke:none !important}#chart-1a8ec7e5-d6ec-4e32-ad74-12430e657469 .series text.active{opacity:1}#chart-1a8ec7e5-d6ec-4e32-ad74-12430e657469 .tooltip rect{fill-opacity:.95;stroke-width:.5}#chart-1a8ec7e5-d6ec-4e32-ad74-12430e657469 .tooltip text{fill-opacity:1}#chart-1a8ec7e5-d6ec-4e32-ad74-12430e657469 .showable{visibility:hidden}#chart-1a8ec7e5-d6ec-4e32-ad74-12430e657469 .showable.shown{visibility:visible}#chart-1a8ec7e5-d6ec-4e32-ad74-12430e657469 .gauge-background{fill:rgba(229,229,229,1);stroke:none}#chart-1a8ec7e5-d6ec-4e32-ad74-12430e657469 .bg-lines{stroke:rgba(249,249,249,1);stroke-width:2px}</style><script type="text/javascript">window.pygal = window.pygal || {};window.pygal.config = window.pygal.config || {};window.pygal.config['1a8ec7e5-d6ec-4e32-ad74-12430e657469'] = {"allow_interruptions": false, "box_mode": "extremes", "classes": ["pygal-chart"], "css": ["file://style.css", "file://graph.css"], "defs": [], "disable_xml_declaration": false, "dots_size": 2.5, "dynamic_print_values": false, "explicit_size": false, "fill": false, "force_uri_protocol": "https", "formatter": null, "half_pie": false, "height": 600, "include_x_axis": false, "inner_radius": 0, "interpolate": null, "interpolation_parameters": {}, "interpolation_precision": 250, "inverse_y_axis": false, "js": ["//kozea.github.io/pygal.js/2.0.x/pygal-tooltips.min.js"], "legend_at_bottom": true, "legend_at_bottom_columns": null, "legend_box_size": 12, "logarithmic": false, "margin": 20, "margin_bottom": null, "margin_left": null, "margin_right": null, "margin_top": null, "max_scale": 16, "min_scale": 4, "missing_value_fill_truncation": "x", "no_data_text": "No data", "no_prefix": false, "order_min": null, "pretty_print": false, "print_labels": false, "print_values": false, "print_values_position": "center", "print_zeroes": true, "range": null, "rounded_bars": null, "secondary_range": null, "show_dots": true, "show_legend": true, "show_minor_x_labels": false, "show_minor_y_labels": true, "show_only_major_dots": false, "show_x_guides": false, "show_x_labels": true, "show_y_guides": true, "show_y_labels": true, "spacing": 10, "stack_from_top": false, "strict": false, "stroke": true, "stroke_style": null, "style": {"background": "rgba(249, 249, 249, 1)", "ci_colors": [], "colors": ["red", "blue", "green", "#a3a3a3"], "font_family": "Consolas, \"Liberation Mono\", Menlo, Courier, monospace", "foreground": "rgba(0, 0, 0, .87)", "foreground_strong": "rgba(0, 0, 0, 1)", "foreground_subtle": "rgba(0, 0, 0, .54)", "guide_stroke_dasharray": "4,4", "label_font_family": "Consolas, \"Liberation Mono\", Menlo, Courier, monospace", "label_font_size": 10, "legend_font_family": "Consolas, \"Liberation Mono\", Menlo, Courier, monospace", "legend_font_size": 14, "major_guide_stroke_dasharray": "6,6", "major_label_font_family": "Consolas, \"Liberation Mono\", Menlo, Courier, monospace", "major_label_font_size": 10, "no_data_font_family": "Consolas, \"Liberation Mono\", Menlo, Courier, monospace", "no_data_font_size": 64, "opacity": ".7", "opacity_hover": ".8", "plot_background": "rgba(255, 255, 255, 1)", "stroke_opacity": ".8", "stroke_opacity_hover": ".9", "title_font_family": "Consolas, \"Liberation Mono\", Menlo, Courier, monospace", "title_font_size": 16, "tooltip_font_family": "Consolas, \"Liberation Mono\", Menlo, Courier, monospace", "tooltip_font_size": 14, "transition": "150ms", "value_background": "rgba(229, 229, 229, 1)", "value_colors": [], "value_font_family": "Consolas, \"Liberation Mono\", Menlo, Courier, monospace", "value_font_size": 16, "value_label_font_family": "Consolas, \"Liberation Mono\", Menlo, Courier, monospace", "value_label_font_size": 10}, "title": "D Gough: Future and Past Averages in ODIs", "tooltip_border_radius": 10, "tooltip_fancy_mode": true, "truncate_label": null, "truncate_legend": null, "width": 800, "x_label_rotation": 45, "x_labels": ["1994", "0", "0", "0", "0", "1995", "0", "0", "0", "1996", "0", "0", "0", "0", "0", "0", "0", "0", "0", "0", "0", "0", "0", "0", "0", "0", "0", "1997", "0", "0", "0", "0", "0", "0", "0", "0", "0", "1998", "0", "0", "0", "0", "0", "1999", "0", "0", "0", "0", "0", "0", "0", "0", "0", "0", "0", "0", "0", "0", "0", "0", "0", "0", "0", "0", "2000", "0", "0", "0", "0", "0", "0", "0", "0", "0", "0", "0", "0", "0", "0", "0", "0", "0", "0", "0", "2001", "0", "0", "0", "0", "0", "0", "0", "0", "2002", "0", "0", "0", "0", "0", "0", "0", "0", "0", "0", "0", "0", "0", "0", "0", "2003", "0", "0", "0", "0", "0", "0", "0", "0", "2004", "0", "0", "0", "0", "0", "0", "0", "0", "0", "0", "0", "0", "0", "0", "0", "0", "0", "0", "0", "2005", "0", "0", "0", "0", "0", "0", "0", "0", "0", "0", "0", "0", "0", "0", "0", "2006", "0"], "x_labels_major": ["1994", "1995", "1996", "1997", "1998", "1999", "2000", "2001", "2002", "2003", "2004", "2005", "2006"], "x_labels_major_count": null, "x_labels_major_every": null, "x_title": null, "xrange": null, "y_label_rotation": 0, "y_labels": null, "y_labels_major": null, "y_labels_major_count": null, "y_labels_major_every": null, "y_title": null, "zero": 110.0, "legends": ["Future Average", "Past Average", "Career Average"]}</script><script type="text/javascript" xlink:href="https://kozea.github.io/pygal.js/2.0.x/pygal-tooltips.min.js"/></defs><title>D Gough: Future and Past Averages in ODIs</title><g class="graph line-graph vertical"><rect class="background" height="600" width="800" x="0" y="0"/><g class="plot" transform="translate(48, 46)"><rect class="background" height="462.02943725152284" width="732.0" x="0" y="0"/><g class="axis y always_show"><g class="guides"><path class="axis major line" d="M0.000000 453.144256 h732.000000"/><text class="major" x="-5" y="456.6442557659166">0</text><title>0</title></g><g class="guides"><path class="guide line" d="M0.000000 412.386543 h732.000000"/><text class="" x="-5" y="415.88654252919093">10</text><title>10</title></g><g class="guides"><path class="guide line" d="M0.000000 371.628829 h732.000000"/><text class="" x="-5" y="375.1288292924652">20</text><title>20</title></g><g class="guides"><path class="guide line" d="M0.000000 330.871116 h732.000000"/><text class="" x="-5" y="334.37111605573944">30</text><title>30</title></g><g class="guides"><path class="guide line" d="M0.000000 290.113403 h732.000000"/><text class="" x="-5" y="293.61340281901374">40</text><title>40</title></g><g class="guides"><path class="major guide line" d="M0.000000 249.355690 h732.000000"/><text class="major" x="-5" y="252.85568958228802">50</text><title>50</title></g><g class="guides"><path class="guide line" d="M0.000000 208.597976 h732.000000"/><text class="" x="-5" y="212.0979763455623">60</text><title>60</title></g><g class="guides"><path class="guide line" d="M0.000000 167.840263 h732.000000"/><text class="" x="-5" y="171.34026310883655">70</text><title>70</title></g><g class="guides"><path class="guide line" d="M0.000000 127.082550 h732.000000"/><text class="" x="-5" y="130.5825498721108">80</text><title>80</title></g><g class="guides"><path class="guide line" d="M0.000000 86.324837 h732.000000"/><text class="" x="-5" y="89.82483663538505">90</text><title>90</title></g><g class="guides"><path class="major guide line" d="M0.000000 45.567123 h732.000000"/><text class="major" x="-5" y="49.06712339865942">100</text><title>100</title></g></g><g class="axis x"><g class="guides"><path class="major line" d="M14.076923 0.000000 v462.029437"/><text class="major" x="14.076923076923077" y="477.02943725152284" transform="rotate(45 14.076923 477.029437)">1994</text></g><g class="guides"><path class="major guide line" d="M36.781638 0.000000 v462.029437"/><text class="major" x="36.78163771712159" y="477.02943725152284" transform="rotate(45 36.781638 477.029437)">1995</text></g><g class="guides"><path class="major guide line" d="M54.945409 0.000000 v462.029437"/><text class="major" x="54.945409429280396" y="477.02943725152284" transform="rotate(45 54.945409 477.029437)">1996</text></g><g class="guides"><path class="major guide line" d="M136.682382 0.000000 v462.029437"/><text class="major" x="136.68238213399505" y="477.02943725152284" transform="rotate(45 136.682382 477.029437)">1997</text></g><g class="guides"><path class="major guide line" d="M182.091811 0.000000 v462.029437"/><text class="major" x="182.09181141439205" y="477.02943725152284" transform="rotate(45 182.091811 477.029437)">1998</text></g><g class="guides"><path class="major guide line" d="M209.337469 0.000000 v462.029437"/><text class="major" x="209.33746898263027" y="477.02943725152284" transform="rotate(45 209.337469 477.029437)">1999</text></g><g class="guides"><path class="major guide line" d="M304.697270 0.000000 v462.029437"/><text class="major" x="304.697270471464" y="477.02943725152284" transform="rotate(45 304.697270 477.029437)">2000</text></g><g class="guides"><path class="major guide line" d="M395.516129 0.000000 v462.029437"/><text class="major" x="395.5161290322581" y="477.02943725152284" transform="rotate(45 395.516129 477.029437)">2001</text></g><g class="guides"><path class="major guide line" d="M436.384615 0.000000 v462.029437"/><text class="major" x="436.38461538461536" y="477.02943725152284" transform="rotate(45 436.384615 477.029437)">2002</text></g><g class="guides"><path class="major guide line" d="M509.039702 0.000000 v462.029437"/><text class="major" x="509.0397022332506" y="477.02943725152284" transform="rotate(45 509.039702 477.029437)">2003</text></g><g class="guides"><path class="major guide line" d="M549.908189 0.000000 v462.029437"/><text class="major" x="549.908188585608" y="477.02943725152284" transform="rotate(45 549.908189 477.029437)">2004</text></g><g class="guides"><path class="major guide line" d="M640.727047 0.000000 v462.029437"/><text class="major" x="640.727047146402" y="477.02943725152284" transform="rotate(45 640.727047 477.029437)">2005</text></g><g class="guides"><path class="major guide line" d="M713.382134 0.000000 v462.029437"/><text class="major" x="713.3821339950372" y="477.02943725152284" transform="rotate(45 713.382134 477.029437)">2006</text></g></g><g class="series serie-0 color-0"><path class="line reactive nofill" d="M14.076923 345.462377 L18.617866 345.177073 23.158809 345.869955 27.699752 345.625408 32.240695 346.073743 36.781638 344.484192 41.322581 343.791311 45.863524 343.383734 50.404467 344.035857 54.945409 343.587523 59.486352 344.321161 64.027295 343.383734 68.568238 343.669038 73.109181 344.280404 77.650124 343.220703 82.191067 341.753425 86.732010 342.976157 91.272953 342.894641 95.813896 343.342976 100.354839 343.220703 104.895782 344.117373 109.436725 344.321161 113.977667 344.280404 118.518610 345.136316 123.059553 345.503135 127.600496 344.647223 132.141439 345.014043 136.682382 344.524950 141.223325 343.179945 145.764268 343.506007 150.305211 344.484192 154.846154 345.299347 159.387097 344.891769 163.928040 344.361919 168.468983 344.810254 173.009926 344.361919 177.550868 345.299347 182.091811 343.302219 186.632754 343.546765 191.173697 341.834941 195.714640 343.179945 200.255583 342.446307 204.796526 341.508879 209.337469 341.386606 213.878412 341.875699 218.419355 342.120245 222.960298 343.342976 227.501241 342.976157 232.042184 340.897514 236.583127 341.223575 241.124069 341.101302 245.665012 340.041602 250.205955 340.245390 254.746898 340.897514 259.287841 340.530694 263.828784 341.305091 268.369727 340.530694 272.910670 340.163875 277.451613 339.960086 281.992556 340.286148 286.533499 340.938271 291.074442 338.615082 295.615385 337.922200 300.156328 336.862500 304.697270 336.699469 309.238213 333.846429 313.779156 332.093847 318.320099 332.501425 322.861042 331.523239 327.401985 332.093847 331.942928 329.526112 336.483871 331.237935 341.024814 332.338394 345.565757 330.545054 350.106700 332.256878 354.647643 332.297636 359.188586 331.523239 363.729529 332.012332 368.270471 331.034147 372.811414 328.221865 377.352357 329.770658 381.893300 330.259750 386.434243 330.708085 390.975186 332.786729 395.516129 333.846429 400.057072 333.601883 404.598015 334.580068 409.138958 335.843557 413.679901 336.862500 418.220844 336.291892 422.761787 335.435980 427.302730 334.213249 431.843672 333.316579 436.384615 335.150676 440.925558 336.006588 445.466501 334.090975 450.007444 335.354465 454.548387 336.088103 459.089330 337.310835 463.630273 338.696597 468.171216 335.069161 472.712159 332.827486 477.253102 330.626570 481.794045 329.037019 486.334988 327.895803 490.875931 324.879732 495.416873 324.146093 499.957816 325.450340 504.498759 326.713829 509.039702 330.952631 513.580645 329.403838 518.121588 327.080649 522.662531 328.099592 527.203474 326.510041 531.744417 331.115662 536.285360 333.968702 540.826303 326.550798 545.367246 326.387768 549.908189 321.782146 554.449132 317.910163 558.990074 319.744260 563.531017 323.820032 568.071960 327.080649 572.612903 328.425653 577.153846 331.523239 581.694789 334.376279 586.235732 333.764914 590.776675 337.392350 595.317618 339.307963 599.858561 339.430236 604.399504 332.460667 608.940447 330.259750 613.481390 325.654129 618.022333 328.058834 622.563275 321.863661 627.104218 330.015204 631.645161 321.170780 636.186104 324.920490 640.727047 307.883766 645.267990 311.674233 649.808933 302.544505 654.349876 305.275272 658.890819 298.509492 663.431762 302.626021 667.972705 282.654741 672.513648 254.246615 677.054591 221.314383 681.595533 215.567545 686.136476 239.451565 690.677419 273.810318 695.218362 210.635862 699.759305 41.491352 704.300248 143.385635 708.841191 8.885181 713.382134 159.688720 717.923077 273.810318"/></g><g class="series serie-1 color-1"><path class="line reactive nofill" d="M14.076923 453.144256 L18.617866 379.780372 23.158809 298.264945 27.699752 335.965830 32.240695 317.828648 36.781638 367.553058 41.322581 376.030662 45.863524 378.313094 50.404467 366.452600 54.945409 369.224124 59.486352 359.890608 64.027295 367.553058 68.568238 363.681075 73.109181 357.445145 77.650124 365.189111 82.191067 372.933076 86.732010 363.762591 91.272953 363.599560 95.813896 360.379700 100.354839 360.053639 104.895782 354.143770 109.436725 352.635735 113.977667 352.717250 118.518610 347.418748 123.059553 345.258589 127.600496 349.701180 132.141439 347.826325 136.682382 349.945726 141.223325 355.325744 145.764268 353.695435 150.305211 349.619664 154.846154 346.114501 159.387097 347.663294 163.928040 349.538149 168.468983 347.744809 173.009926 349.171329 177.550868 345.951470 182.091811 352.105885 186.632754 351.168457 191.173697 355.407259 195.714640 351.698308 200.255583 353.165585 204.796526 354.958925 209.337469 354.877409 213.878412 353.573162 218.419355 352.880281 222.960298 350.190272 227.501241 350.760880 232.042184 354.510590 236.583127 353.532405 241.124069 353.410131 245.665012 355.040440 250.205955 354.510590 254.746898 353.369374 259.287841 353.654678 263.828784 352.268916 268.369727 353.124827 272.910670 353.410131 277.451613 353.410131 281.992556 352.798766 286.533499 351.739065 291.074442 354.347559 295.615385 354.958925 300.156328 355.896352 304.697270 355.774079 309.238213 358.219542 313.779156 359.401515 318.320099 358.749392 322.861042 359.279242 327.401985 358.464088 331.942928 360.216670 336.483871 358.627119 341.024814 357.608176 345.565757 358.790150 350.106700 357.282114 354.647643 357.037568 359.188586 357.322872 363.729529 356.711506 368.270471 357.119083 372.811414 358.667876 377.352357 357.485903 381.893300 356.915295 386.434243 356.181656 390.975186 354.673621 395.516129 353.899224 400.057072 353.939982 404.598015 353.124827 409.138958 352.228158 413.679901 351.413004 418.220844 351.576034 422.761787 351.902096 427.302730 352.431946 431.843672 352.717250 436.384615 351.657550 440.925558 351.005426 445.466501 351.779823 450.007444 350.964669 454.548387 350.475576 459.089330 349.741937 463.630273 348.926783 468.171216 350.434818 472.712159 351.168457 477.253102 351.861338 481.794045 352.268916 486.334988 352.472704 490.875931 353.165585 495.416873 353.084070 499.957816 352.472704 504.498759 352.024369 509.039702 350.557092 513.580645 350.842396 518.121588 351.331488 522.662531 350.883153 527.203474 351.127700 531.744417 349.741937 536.285360 348.886025 540.826303 350.557092 545.367246 350.475576 549.908189 351.372246 554.449132 351.983612 558.990074 351.535277 563.531017 350.597849 568.071960 349.701180 572.612903 349.293602 577.153846 348.559964 581.694789 347.948598 586.235732 347.989356 590.776675 347.214959 595.317618 346.766624 599.858561 346.685109 604.399504 347.826325 608.940447 348.030113 613.481390 348.559964 618.022333 348.193144 622.563275 348.763752 627.104218 347.622536 631.645161 348.478448 636.186104 348.030113 640.727047 349.334360 645.267990 348.763752 649.808933 349.212087 654.349876 348.804510 658.890819 348.886025 663.431762 348.396933 667.972705 348.845268 672.513648 349.497391 677.054591 349.823453 681.595533 349.456633 686.136476 348.722994 690.677419 347.663294 695.218362 347.785567 699.759305 348.070871 704.300248 347.174201 708.841191 346.888897 713.382134 346.725867 717.923077 346.236774"/></g><g class="series serie-2 color-2"><path class="line reactive nofill" d="M14.076923 345.462377 L18.617866 345.462377 23.158809 345.462377 27.699752 345.462377 32.240695 345.462377 36.781638 345.462377 41.322581 345.462377 45.863524 345.462377 50.404467 345.462377 54.945409 345.462377 59.486352 345.462377 64.027295 345.462377 68.568238 345.462377 73.109181 345.462377 77.650124 345.462377 82.191067 345.462377 86.732010 345.462377 91.272953 345.462377 95.813896 345.462377 100.354839 345.462377 104.895782 345.462377 109.436725 345.462377 113.977667 345.462377 118.518610 345.462377 123.059553 345.462377 127.600496 345.462377 132.141439 345.462377 136.682382 345.462377 141.223325 345.462377 145.764268 345.462377 150.305211 345.462377 154.846154 345.462377 159.387097 345.462377 163.928040 345.462377 168.468983 345.462377 173.009926 345.462377 177.550868 345.462377 182.091811 345.462377 186.632754 345.462377 191.173697 345.462377 195.714640 345.462377 200.255583 345.462377 204.796526 345.462377 209.337469 345.462377 213.878412 345.462377 218.419355 345.462377 222.960298 345.462377 227.501241 345.462377 232.042184 345.462377 236.583127 345.462377 241.124069 345.462377 245.665012 345.462377 250.205955 345.462377 254.746898 345.462377 259.287841 345.462377 263.828784 345.462377 268.369727 345.462377 272.910670 345.462377 277.451613 345.462377 281.992556 345.462377 286.533499 345.462377 291.074442 345.462377 295.615385 345.462377 300.156328 345.462377 304.697270 345.462377 309.238213 345.462377 313.779156 345.462377 318.320099 345.462377 322.861042 345.462377 327.401985 345.462377 331.942928 345.462377 336.483871 345.462377 341.024814 345.462377 345.565757 345.462377 350.106700 345.462377 354.647643 345.462377 359.188586 345.462377 363.729529 345.462377 368.270471 345.462377 372.811414 345.462377 377.352357 345.462377 381.893300 345.462377 386.434243 345.462377 390.975186 345.462377 395.516129 345.462377 400.057072 345.462377 404.598015 345.462377 409.138958 345.462377 413.679901 345.462377 418.220844 345.462377 422.761787 345.462377 427.302730 345.462377 431.843672 345.462377 436.384615 345.462377 440.925558 345.462377 445.466501 345.462377 450.007444 345.462377 454.548387 345.462377 459.089330 345.462377 463.630273 345.462377 468.171216 345.462377 472.712159 345.462377 477.253102 345.462377 481.794045 345.462377 486.334988 345.462377 490.875931 345.462377 495.416873 345.462377 499.957816 345.462377 504.498759 345.462377 509.039702 345.462377 513.580645 345.462377 518.121588 345.462377 522.662531 345.462377 527.203474 345.462377 531.744417 345.462377 536.285360 345.462377 540.826303 345.462377 545.367246 345.462377 549.908189 345.462377 554.449132 345.462377 558.990074 345.462377 563.531017 345.462377 568.071960 345.462377 572.612903 345.462377 577.153846 345.462377 581.694789 345.462377 586.235732 345.462377 590.776675 345.462377 595.317618 345.462377 599.858561 345.462377 604.399504 345.462377 608.940447 345.462377 613.481390 345.462377 618.022333 345.462377 622.563275 345.462377 627.104218 345.462377 631.645161 345.462377 636.186104 345.462377 640.727047 345.462377 645.267990 345.462377 649.808933 345.462377 654.349876 345.462377 658.890819 345.462377 663.431762 345.462377 667.972705 345.462377 672.513648 345.462377 677.054591 345.462377 681.595533 345.462377 686.136476 345.462377 690.677419 345.462377 695.218362 345.462377 699.759305 345.462377 704.300248 345.462377 708.841191 345.462377 713.382134 345.462377 717.923077 345.462377"/></g></g><g class="titles"><text class="title plot_title" x="400.0" y="26">D Gough: Future and Past Averages in ODIs</text></g><g class="plot overlay" transform="translate(48, 46)"><g class="series serie-0 color-0"><g class="dots"><desc class="label">235 wickets in 156 innings (1411.4 overs)</desc><circle class="dot reactive tooltip-trigger" cx="14.076923076923077" cy="345.46237739448725" r="2.5"/><desc class="value">26.42</desc><desc class="x top">14.076923076923077</desc><desc class="y top">345.46237739448725</desc><desc class="x_label">1994</desc></g><g class="dots"><desc class="label">225 wickets in 151 innings (1360.1 overs)</desc><circle class="dot reactive tooltip-trigger" cx="36.78163771712159" cy="344.48419227680586" r="2.5"/><desc class="value">26.66</desc><desc class="x top">36.78163771712159</desc><desc class="y top">344.48419227680586</desc><desc class="x_label">1995</desc></g><g class="dots"><desc class="label">218 wickets in 147 innings (1319.0 overs)</desc><circle class="dot reactive tooltip-trigger" cx="54.945409429280396" cy="343.58752258559787" r="2.5"/><desc class="value">26.88</desc><desc class="x top">54.945409429280396</desc><desc class="y top">343.58752258559787</desc><desc class="x_label">1996</desc></g><g class="dots"><desc class="label">195 wickets in 129 innings (1153.0 overs)</desc><circle class="dot reactive tooltip-trigger" cx="136.68238213399505" cy="344.5249499900426" r="2.5"/><desc class="value">26.65</desc><desc class="x top">136.68238213399505</desc><desc class="y top">344.5249499900426</desc><desc class="x_label">1997</desc></g><g class="dots"><desc class="label">177 wickets in 119 innings (1058.2 overs)</desc><circle class="dot reactive tooltip-trigger" cx="182.09181141439205" cy="343.3022185929408" r="2.5"/><desc class="value">26.95</desc><desc class="x top">182.09181141439205</desc><desc class="y top">343.3022185929408</desc><desc class="x_label">1998</desc></g><g class="dots"><desc class="label">164 wickets in 113 innings (998.2 overs)</desc><circle class="dot reactive tooltip-trigger" cx="209.33746898263027" cy="341.3866060708147" r="2.5"/><desc class="value">27.42</desc><desc class="x top">209.33746898263027</desc><desc class="y top">341.3866060708147</desc><desc class="x_label">1999</desc></g><g class="dots"><desc class="label">127 wickets in 92 innings (805.4 overs)</desc><circle class="dot reactive tooltip-trigger" cx="304.697270471464" cy="336.69946904859125" r="2.5"/><desc class="value">28.57</desc><desc class="x top">304.697270471464</desc><desc class="y top">336.69946904859125</desc><desc class="x_label">2000</desc></g><g class="dots"><desc class="label">99 wickets in 72 innings (618.4 overs)</desc><circle class="dot reactive tooltip-trigger" cx="395.5161290322581" cy="333.8464291220205" r="2.5"/><desc class="value">29.27</desc><desc class="x left top">395.5161290322581</desc><desc class="y left top">333.8464291220205</desc><desc class="x_label">2001</desc></g><g class="dots"><desc class="label">88 wickets in 63 innings (537.4 overs)</desc><circle class="dot reactive tooltip-trigger" cx="436.38461538461536" cy="335.15067594559565" r="2.5"/><desc class="value">28.95</desc><desc class="x left top">436.38461538461536</desc><desc class="y left top">335.15067594559565</desc><desc class="x_label">2002</desc></g><g class="dots"><desc class="label">61 wickets in 47 innings (396.3 overs)</desc><circle class="dot reactive tooltip-trigger" cx="509.0397022332506" cy="330.9526314822129" r="2.5"/><desc class="value">29.98</desc><desc class="x left top">509.0397022332506</desc><desc class="y left top">330.9526314822129</desc><desc class="x_label">2003</desc></g><g class="dots"><desc class="label">47 wickets in 38 innings (313.3 overs)</desc><circle class="dot reactive tooltip-trigger" cx="549.908188585608" cy="321.7821460039496" r="2.5"/><desc class="value">32.23</desc><desc class="x left top">549.908188585608</desc><desc class="y left top">321.7821460039496</desc><desc class="x_label">2004</desc></g><g class="dots"><desc class="label">22 wickets in 18 innings (151.4 overs)</desc><circle class="dot reactive tooltip-trigger" cx="640.727047146402" cy="307.88376579022616" r="2.5"/><desc class="value">35.64</desc><desc class="x left top">640.727047146402</desc><desc class="y left top">307.88376579022616</desc><desc class="x_label">2005</desc></g><g class="dots"><desc class="label">0 wickets in 2 innings (12.0 overs)</desc><circle class="dot reactive tooltip-trigger" cx="713.3821339950372" cy="159.6887204614914" r="2.5"/><desc class="value">72</desc><desc class="x left">713.3821339950372</desc><desc class="y left">159.6887204614914</desc><desc class="x_label">2006</desc></g></g><g class="series serie-1 color-1"><g class="dots"><desc class="label">0 wickets over 0 innings</desc><circle class="dot reactive tooltip-trigger" cx="14.076923076923077" cy="453.1442557659166" r="2.5"/><desc class="value">0</desc><desc class="x top">14.076923076923077</desc><desc class="y top">453.1442557659166</desc><desc class="x_label">1994</desc></g><g class="dots"><desc class="label">10 wickets in 5 innings (51.3 overs)</desc><circle class="dot reactive tooltip-trigger" cx="36.78163771712159" cy="367.5530579687926" r="2.5"/><desc class="value">21</desc><desc class="x top">36.78163771712159</desc><desc class="y top">367.5530579687926</desc><desc class="x_label">1995</desc></g><g class="dots"><desc class="label">17 wickets in 9 innings (92.4 overs)</desc><circle class="dot reactive tooltip-trigger" cx="54.945409429280396" cy="369.22412421149835" r="2.5"/><desc class="value">20.59</desc><desc class="x top">54.945409429280396</desc><desc class="y top">369.22412421149835</desc><desc class="x_label">1996</desc></g><g class="dots"><desc class="label">40 wickets in 27 innings (258.4 overs)</desc><circle class="dot reactive tooltip-trigger" cx="136.68238213399505" cy="349.9457258505271" r="2.5"/><desc class="value">25.32</desc><desc class="x top">136.68238213399505</desc><desc class="y top">349.9457258505271</desc><desc class="x_label">1997</desc></g><g class="dots"><desc class="label">58 wickets in 37 innings (353.2 overs)</desc><circle class="dot reactive tooltip-trigger" cx="182.09181141439205" cy="352.10588465207354" r="2.5"/><desc class="value">24.79</desc><desc class="x top">182.09181141439205</desc><desc class="y top">352.10588465207354</desc><desc class="x_label">1998</desc></g><g class="dots"><desc class="label">71 wickets in 43 innings (413.2 overs)</desc><circle class="dot reactive tooltip-trigger" cx="209.33746898263027" cy="354.8774091521709" r="2.5"/><desc class="value">24.11</desc><desc class="x top">209.33746898263027</desc><desc class="y top">354.8774091521709</desc><desc class="x_label">1999</desc></g><g class="dots"><desc class="label">108 wickets in 64 innings (606.0 overs)</desc><circle class="dot reactive tooltip-trigger" cx="304.697270471464" cy="355.7740788433789" r="2.5"/><desc class="value">23.89</desc><desc class="x top">304.697270471464</desc><desc class="y top">355.7740788433789</desc><desc class="x_label">2000</desc></g><g class="dots"><desc class="label">136 wickets in 84 innings (793.0 overs)</desc><circle class="dot reactive tooltip-trigger" cx="395.5161290322581" cy="353.8992240344895" r="2.5"/><desc class="value">24.35</desc><desc class="x left top">395.5161290322581</desc><desc class="y left top">353.8992240344895</desc><desc class="x_label">2001</desc></g><g class="dots"><desc class="label">147 wickets in 93 innings (874.0 overs)</desc><circle class="dot reactive tooltip-trigger" cx="436.38461538461536" cy="351.6575498064696" r="2.5"/><desc class="value">24.9</desc><desc class="x left top">436.38461538461536</desc><desc class="y left top">351.6575498064696</desc><desc class="x_label">2002</desc></g><g class="dots"><desc class="label">174 wickets in 109 innings (1015.1 overs)</desc><circle class="dot reactive tooltip-trigger" cx="509.0397022332506" cy="350.557091549078" r="2.5"/><desc class="value">25.17</desc><desc class="x left top">509.0397022332506</desc><desc class="y left top">350.557091549078</desc><desc class="x_label">2003</desc></g><g class="dots"><desc class="label">188 wickets in 118 innings (1098.1 overs)</desc><circle class="dot reactive tooltip-trigger" cx="549.908188585608" cy="351.37224581381247" r="2.5"/><desc class="value">24.97</desc><desc class="x left top">549.908188585608</desc><desc class="y left top">351.37224581381247</desc><desc class="x_label">2004</desc></g><g class="dots"><desc class="label">213 wickets in 138 innings (1260.0 overs)</desc><circle class="dot reactive tooltip-trigger" cx="640.727047146402" cy="349.3343601519762" r="2.5"/><desc class="value">25.47</desc><desc class="x left top">640.727047146402</desc><desc class="y left top">349.3343601519762</desc><desc class="x_label">2005</desc></g><g class="dots"><desc class="label">235 wickets in 154 innings (1399.4 overs)</desc><circle class="dot reactive tooltip-trigger" cx="713.3821339950372" cy="346.7258665048258" r="2.5"/><desc class="value">26.11</desc><desc class="x left top">713.3821339950372</desc><desc class="y left top">346.7258665048258</desc><desc class="x_label">2006</desc></g></g><g class="series serie-2 color-2"/></g><g class="plot text-overlay" transform="translate(48, 46)"><g class="series serie-0 color-0"/><g class="series serie-1 color-1"/><g class="series serie-2 color-2"/></g><g class="plot tooltip-overlay" transform="translate(48, 46)"><g class="tooltip" style="opacity: 0" transform="translate(0 0)"><rect class="tooltip-box" height="0" rx="10" ry="10" width="0"/><g class="text"/></g></g><g class="legends" transform="translate(58, 545)"><g class="legend reactive activate-serie" id="activate-serie-0"><rect class="color-0 reactive" height="12" width="12" x="0.0" y="1.0"/><text x="17.0" y="11.2">Future Average</text></g><g class="legend reactive activate-serie" id="activate-serie-1"><rect class="color-1 reactive" height="12" width="12" x="366.0" y="1.0"/><text x="383.0" y="11.2">Past Average</text></g><g class="legend reactive activate-serie" id="activate-serie-2"><rect class="color-2 reactive" height="12" width="12" x="0.0" y="22.0"/><text x="17.0" y="32.2">Career Average</text></g></g></g></svg>