<?xml version='1.0' encoding='utf-8'?>
<svg xmlns:xlink="http://www.w3.org/1999/xlink" xmlns="http://www.w3.org/2000/svg" id="chart-ec81d56a-484b-4021-8034-8384197b5937" class="pygal-chart" viewBox="0 0 800 600"><!--Generated with pygal 2.4.0 (lxml) ©Kozea 2012-2016 on 2019-08-04--><!--http://pygal.org--><!--http://github.com/Kozea/pygal--><defs><style type="text/css">#chart-ec81d56a-484b-4021-8034-8384197b5937{-webkit-user-select:none;-webkit-font-smoothing:antialiased;font-family:Consolas,"Liberation Mono",Menlo,Courier,monospace}#chart-ec81d56a-484b-4021-8034-8384197b5937 .title{font-family:Consolas,"Liberation Mono",Menlo,Courier,monospace;font-size:16px}#chart-ec81d56a-484b-4021-8034-8384197b5937 .legends .legend text{font-family:Consolas,"Liberation Mono",Menlo,Courier,monospace;font-size:14px}#chart-ec81d56a-484b-4021-8034-8384197b5937 .axis text{font-family:Consolas,"Liberation Mono",Menlo,Courier,monospace;font-size:10px}#chart-ec81d56a-484b-4021-8034-8384197b5937 .axis text.major{font-family:Consolas,"Liberation Mono",Menlo,Courier,monospace;font-size:10px}#chart-ec81d56a-484b-4021-8034-8384197b5937 .text-overlay text.value{font-family:Consolas,"Liberation Mono",Menlo,Courier,monospace;font-size:16px}#chart-ec81d56a-484b-4021-8034-8384197b5937 .text-overlay text.label{font-family:Consolas,"Liberation Mono",Menlo,Courier,monospace;font-size:10px}#chart-ec81d56a-484b-4021-8034-8384197b5937 .tooltip{font-family:Consolas,"Liberation Mono",Menlo,Courier,monospace;font-size:14px}#chart-ec81d56a-484b-4021-8034-8384197b5937 text.no_data{font-family:Consolas,"Liberation Mono",Menlo,Courier,monospace;font-size:64px}
#chart-ec81d56a-484b-4021-8034-8384197b5937{background-color:rgba(249,249,249,1)}#chart-ec81d56a-484b-4021-8034-8384197b5937 path,#chart-ec81d56a-484b-4021-8034-8384197b5937 line,#chart-ec81d56a-484b-4021-8034-8384197b5937 rect,#chart-ec81d56a-484b-4021-8034-8384197b5937 circle{-webkit-transition:150ms;-moz-transition:150ms;transition:150ms}#chart-ec81d56a-484b-4021-8034-8384197b5937 .graph &gt; .background{fill:rgba(249,249,249,1)}#chart-ec81d56a-484b-4021-8034-8384197b5937 .plot &gt; .background{fill:rgba(255,255,255,1)}#chart-ec81d56a-484b-4021-8034-8384197b5937 .graph{fill:rgba(0,0,0,.87)}#chart-ec81d56a-484b-4021-8034-8384197b5937 text.no_data{fill:rgba(0,0,0,1)}#chart-ec81d56a-484b-4021-8034-8384197b5937 .title{fill:rgba(0,0,0,1)}#chart-ec81d56a-484b-4021-8034-8384197b5937 .legends .legend text{fill:rgba(0,0,0,.87)}#chart-ec81d56a-484b-4021-8034-8384197b5937 .legends .legend:hover text{fill:rgba(0,0,0,1)}#chart-ec81d56a-484b-4021-8034-8384197b5937 .axis .line{stroke:rgba(0,0,0,1)}#chart-ec81d56a-484b-4021-8034-8384197b5937 .axis .guide.line{stroke:rgba(0,0,0,.54)}#chart-ec81d56a-484b-4021-8034-8384197b5937 .axis .major.line{stroke:rgba(0,0,0,.87)}#chart-ec81d56a-484b-4021-8034-8384197b5937 .axis text.major{fill:rgba(0,0,0,1)}#chart-ec81d56a-484b-4021-8034-8384197b5937 .axis.y .guides:hover .guide.line,#chart-ec81d56a-484b-4021-8034-8384197b5937 .line-graph .axis.x .guides:hover .guide.line,#chart-ec81d56a-484b-4021-8034-8384197b5937 .stackedline-graph .axis.x .guides:hover .guide.line,#chart-ec81d56a-484b-4021-8034-8384197b5937 .xy-graph .axis.x .guides:hover .guide.line{stroke:rgba(0,0,0,1)}#chart-ec81d56a-484b-4021-8034-8384197b5937 .axis .guides:hover text{fill:rgba(0,0,0,1)}#chart-ec81d56a-484b-4021-8034-8384197b5937 .reactive{fill-opacity:.7;stroke-opacity:.8}#chart-ec81d56a-484b-4021-8034-8384197b5937 .ci{stroke:rgba(0,0,0,.87)}#chart-ec81d56a-484b-4021-8034-8384197b5937 .reactive.active,#chart-ec81d56a-484b-4021-8034-8384197b5937 .active .reactive{fill-opacity:.8;stroke-opacity:.9;stroke-width:4}#chart-ec81d56a-484b-4021-8034-8384197b5937 .ci .reactive.active{stroke-width:1.5}#chart-ec81d56a-484b-4021-8034-8384197b5937 .series text{fill:rgba(0,0,0,1)}#chart-ec81d56a-484b-4021-8034-8384197b5937 .tooltip rect{fill:rgba(255,255,255,1);stroke:rgba(0,0,0,1);-webkit-transition:opacity 150ms;-moz-transition:opacity 150ms;transition:opacity 150ms}#chart-ec81d56a-484b-4021-8034-8384197b5937 .tooltip .label{fill:rgba(0,0,0,.87)}#chart-ec81d56a-484b-4021-8034-8384197b5937 .tooltip .label{fill:rgba(0,0,0,.87)}#chart-ec81d56a-484b-4021-8034-8384197b5937 .tooltip .legend{font-size:.8em;fill:rgba(0,0,0,.54)}#chart-ec81d56a-484b-4021-8034-8384197b5937 .tooltip .x_label{font-size:.6em;fill:rgba(0,0,0,1)}#chart-ec81d56a-484b-4021-8034-8384197b5937 .tooltip .xlink{font-size:.5em;text-decoration:underline}#chart-ec81d56a-484b-4021-8034-8384197b5937 .tooltip .value{font-size:1.5em}#chart-ec81d56a-484b-4021-8034-8384197b5937 .bound{font-size:.5em}#chart-ec81d56a-484b-4021-8034-8384197b5937 .max-value{font-size:.75em;fill:rgba(0,0,0,.54)}#chart-ec81d56a-484b-4021-8034-8384197b5937 .map-element{fill:rgba(255,255,255,1);stroke:rgba(0,0,0,.54) !important}#chart-ec81d56a-484b-4021-8034-8384197b5937 .map-element .reactive{fill-opacity:inherit;stroke-opacity:inherit}#chart-ec81d56a-484b-4021-8034-8384197b5937 .color-0,#chart-ec81d56a-484b-4021-8034-8384197b5937 .color-0 a:visited{stroke:red;fill:red}#chart-ec81d56a-484b-4021-8034-8384197b5937 .color-1,#chart-ec81d56a-484b-4021-8034-8384197b5937 .color-1 a:visited{stroke:blue;fill:blue}#chart-ec81d56a-484b-4021-8034-8384197b5937 .color-2,#chart-ec81d56a-484b-4021-8034-8384197b5937 .color-2 a:visited{stroke:green;fill:green}#chart-ec81d56a-484b-4021-8034-8384197b5937 .text-overlay .color-0 text{fill:white}#chart-ec81d56a-484b-4021-8034-8384197b5937 .text-overlay .color-1 text{fill:white}#chart-ec81d56a-484b-4021-8034-8384197b5937 .text-overlay .color-2 text{fill:white}
#chart-ec81d56a-484b-4021-8034-8384197b5937 text.no_data{text-anchor:middle}#chart-ec81d56a-484b-4021-8034-8384197b5937 .guide.line{fill:none}#chart-ec81d56a-484b-4021-8034-8384197b5937 .centered{text-anchor:middle}#chart-ec81d56a-484b-4021-8034-8384197b5937 .title{text-anchor:middle}#chart-ec81d56a-484b-4021-8034-8384197b5937 .legends .legend text{fill-opacity:1}#chart-ec81d56a-484b-4021-8034-8384197b5937 .axis.x text{text-anchor:middle}#chart-ec81d56a-484b-4021-8034-8384197b5937 .axis.x:not(.web) text[transform]{text-anchor:start}#chart-ec81d56a-484b-4021-8034-8384197b5937 .axis.x:not(.web) text[transform].backwards{text-anchor:end}#chart-ec81d56a-484b-4021-8034-8384197b5937 .axis.y text{text-anchor:end}#chart-ec81d56a-484b-4021-8034-8384197b5937 .axis.y text[transform].backwards{text-anchor:start}#chart-ec81d56a-484b-4021-8034-8384197b5937 .axis.y2 text{text-anchor:start}#chart-ec81d56a-484b-4021-8034-8384197b5937 .axis.y2 text[transform].backwards{text-anchor:end}#chart-ec81d56a-484b-4021-8034-8384197b5937 .axis .guide.line{stroke-dasharray:4,4}#chart-ec81d56a-484b-4021-8034-8384197b5937 .axis .major.guide.line{stroke-dasharray:6,6}#chart-ec81d56a-484b-4021-8034-8384197b5937 .horizontal .axis.y .guide.line,#chart-ec81d56a-484b-4021-8034-8384197b5937 .horizontal .axis.y2 .guide.line,#chart-ec81d56a-484b-4021-8034-8384197b5937 .vertical .axis.x .guide.line{opacity:0}#chart-ec81d56a-484b-4021-8034-8384197b5937 .horizontal .axis.always_show .guide.line,#chart-ec81d56a-484b-4021-8034-8384197b5937 .vertical .axis.always_show .guide.line{opacity:1 !important}#chart-ec81d56a-484b-4021-8034-8384197b5937 .axis.y .guides:hover .guide.line,#chart-ec81d56a-484b-4021-8034-8384197b5937 .axis.y2 .guides:hover .guide.line,#chart-ec81d56a-484b-4021-8034-8384197b5937 .axis.x .guides:hover .guide.line{opacity:1}#chart-ec81d56a-484b-4021-8034-8384197b5937 .axis .guides:hover text{opacity:1}#chart-ec81d56a-484b-4021-8034-8384197b5937 .nofill{fill:none}#chart-ec81d56a-484b-4021-8034-8384197b5937 .subtle-fill{fill-opacity:.2}#chart-ec81d56a-484b-4021-8034-8384197b5937 .dot{stroke-width:1px;fill-opacity:1}#chart-ec81d56a-484b-4021-8034-8384197b5937 .dot.active{stroke-width:5px}#chart-ec81d56a-484b-4021-8034-8384197b5937 .dot.negative{fill:transparent}#chart-ec81d56a-484b-4021-8034-8384197b5937 text,#chart-ec81d56a-484b-4021-8034-8384197b5937 tspan{stroke:none !important}#chart-ec81d56a-484b-4021-8034-8384197b5937 .series text.active{opacity:1}#chart-ec81d56a-484b-4021-8034-8384197b5937 .tooltip rect{fill-opacity:.95;stroke-width:.5}#chart-ec81d56a-484b-4021-8034-8384197b5937 .tooltip text{fill-opacity:1}#chart-ec81d56a-484b-4021-8034-8384197b5937 .showable{visibility:hidden}#chart-ec81d56a-484b-4021-8034-8384197b5937 .showable.shown{visibility:visible}#chart-ec81d56a-484b-4021-8034-8384197b5937 .gauge-background{fill:rgba(229,229,229,1);stroke:none}#chart-ec81d56a-484b-4021-8034-8384197b5937 .bg-lines{stroke:rgba(249,249,249,1);stroke-width:2px}</style><script type="text/javascript">window.pygal = window.pygal || {};window.pygal.config = window.pygal.config || {};window.pygal.config['ec81d56a-484b-4021-8034-8384197b5937'] = {"allow_interruptions": false, "box_mode": "extremes", "classes": ["pygal-chart"], "css": ["file://style.css", "file://graph.css"], "defs": [], "disable_xml_declaration": false, "dots_size": 2.5, "dynamic_print_values": false, "explicit_size": false, "fill": false, "force_uri_protocol": "https", "formatter": null, "half_pie": false, "height": 600, "include_x_axis": false, "inner_radius": 0, "interpolate": null, "interpolation_parameters": {}, "interpolation_precision": 250, "inverse_y_axis": false, "js": ["//kozea.github.io/pygal.js/2.0.x/pygal-tooltips.min.js"], "legend_at_bottom": true, "legend_at_bottom_columns": null, "legend_box_size": 12, "logarithmic": false, "margin": 20, "margin_bottom": null, "margin_left": null, "margin_right": null, "margin_top": null, "max_scale": 16, "min_scale": 4, "missing_value_fill_truncation": "x", "no_data_text": "No data", "no_prefix": false, "order_min": null, "pretty_print": false, "print_labels": false, "print_values": false, "print_values_position": "center", "print_zeroes": true, "range": null, "rounded_bars": null, "secondary_range": null, "show_dots": true, "show_legend": true, "show_minor_x_labels": false, "show_minor_y_labels": true, "show_only_major_dots": false, "show_x_guides": false, "show_x_labels": true, "show_y_guides": true, "show_y_labels": true, "spacing": 10, "stack_from_top": false, "strict": false, "stroke": true, "stroke_style": null, "style": {"background": "rgba(249, 249, 249, 1)", "ci_colors": [], "colors": ["red", "blue", "green", "#a3a3a3"], "font_family": "Consolas, \"Liberation Mono\", Menlo, Courier, monospace", "foreground": "rgba(0, 0, 0, .87)", "foreground_strong": "rgba(0, 0, 0, 1)", "foreground_subtle": "rgba(0, 0, 0, .54)", "guide_stroke_dasharray": "4,4", "label_font_family": "Consolas, \"Liberation Mono\", Menlo, Courier, monospace", "label_font_size": 10, "legend_font_family": "Consolas, \"Liberation Mono\", Menlo, Courier, monospace", "legend_font_size": 14, "major_guide_stroke_dasharray": "6,6", "major_label_font_family": "Consolas, \"Liberation Mono\", Menlo, Courier, monospace", "major_label_font_size": 10, "no_data_font_family": "Consolas, \"Liberation Mono\", Menlo, Courier, monospace", "no_data_font_size": 64, "opacity": ".7", "opacity_hover": ".8", "plot_background": "rgba(255, 255, 255, 1)", "stroke_opacity": ".8", "stroke_opacity_hover": ".9", "title_font_family": "Consolas, \"Liberation Mono\", Menlo, Courier, monospace", "title_font_size": 16, "tooltip_font_family": "Consolas, \"Liberation Mono\", Menlo, Courier, monospace", "tooltip_font_size": 14, "transition": "150ms", "value_background": "rgba(229, 229, 229, 1)", "value_colors": [], "value_font_family": "Consolas, \"Liberation Mono\", Menlo, Courier, monospace", "value_font_size": 16, "value_label_font_family": "Consolas, \"Liberation Mono\", Menlo, Courier, monospace", "value_label_font_size": 10}, "title": "DK Morrison: Future and Past Averages in ODIs", "tooltip_border_radius": 10, "tooltip_fancy_mode": true, "truncate_label": null, "truncate_legend": null, "width": 800, "x_label_rotation": 45, "x_labels": ["1988", "0", "0", "0", "0", "0", "0", "0", "0", "0", "1989", "0", "0", "0", "1990", "0", "0", "0", "0", "0", "0", "0", "0", "0", "0", "0", "0", "0", "0", "0", "0", "0", "0", "0", "0", "1991", "0", "0", "1992", "0", "0", "0", "0", "0", "0", "0", "0", "0", "1993", "0", "0", "0", "0", "0", "0", "0", "1994", "0", "0", "0", "0", "0", "0", "0", "0", "0", "1995", "0", "0", "0", "0", "0", "0", "0", "0", "0", "0", "0", "0", "0", "0", "0", "1996", "0", "0", "0", "0", "0", "0", "0", "0", "0", "0", "0", "0"], "x_labels_major": ["1988", "1989", "1990", "1991", "1992", "1993", "1994", "1995", "1996"], "x_labels_major_count": null, "x_labels_major_every": null, "x_title": null, "xrange": null, "y_label_rotation": 0, "y_labels": null, "y_labels_major": null, "y_labels_major_count": null, "y_labels_major_every": null, "y_title": null, "zero": 70.0, "legends": ["Future Average", "Past Average", "Career Average"]}</script><script type="text/javascript" xlink:href="https://kozea.github.io/pygal.js/2.0.x/pygal-tooltips.min.js"/></defs><title>DK Morrison: Future and Past Averages in ODIs</title><g class="graph line-graph vertical"><rect class="background" height="600" width="800" x="0" y="0"/><g class="plot" transform="translate(42, 46)"><rect class="background" height="462.02943725152284" width="738.0" x="0" y="0"/><g class="axis y always_show"><g class="guides"><path class="axis major line" d="M0.000000 453.144256 h738.000000"/><text class="major" x="-5" y="456.6442557659166">0</text><title>0</title></g><g class="guides"><path class="guide line" d="M0.000000 388.758883 h738.000000"/><text class="" x="-5" y="392.25888268181365">10</text><title>10</title></g><g class="guides"><path class="guide line" d="M0.000000 324.373510 h738.000000"/><text class="" x="-5" y="327.8735095977107">20</text><title>20</title></g><g class="guides"><path class="guide line" d="M0.000000 259.988137 h738.000000"/><text class="" x="-5" y="263.48813651360774">30</text><title>30</title></g><g class="guides"><path class="guide line" d="M0.000000 195.602763 h738.000000"/><text class="" x="-5" y="199.10276342950476">40</text><title>40</title></g><g class="guides"><path class="major guide line" d="M0.000000 131.217390 h738.000000"/><text class="major" x="-5" y="134.71739034540178">50</text><title>50</title></g><g class="guides"><path class="guide line" d="M0.000000 66.832017 h738.000000"/><text class="" x="-5" y="70.3320172612988">60</text><title>60</title></g></g><g class="axis x"><g class="guides"><path class="major line" d="M14.192308 0.000000 v462.029437"/><text class="major" x="14.192307692307692" y="477.02943725152284" transform="rotate(45 14.192308 477.029437)">1988</text></g><g class="guides"><path class="major guide line" d="M89.683306 0.000000 v462.029437"/><text class="major" x="89.68330605564648" y="477.02943725152284" transform="rotate(45 89.683306 477.029437)">1989</text></g><g class="guides"><path class="major guide line" d="M119.879705 0.000000 v462.029437"/><text class="major" x="119.87970540098199" y="477.02943725152284" transform="rotate(45 119.879705 477.029437)">1990</text></g><g class="guides"><path class="major guide line" d="M278.410802 0.000000 v462.029437"/><text class="major" x="278.4108019639935" y="477.02943725152284" transform="rotate(45 278.410802 477.029437)">1991</text></g><g class="guides"><path class="major guide line" d="M301.058101 0.000000 v462.029437"/><text class="major" x="301.0581014729951" y="477.02943725152284" transform="rotate(45 301.058101 477.029437)">1992</text></g><g class="guides"><path class="major guide line" d="M376.549100 0.000000 v462.029437"/><text class="major" x="376.5490998363338" y="477.02943725152284" transform="rotate(45 376.549100 477.029437)">1993</text></g><g class="guides"><path class="major guide line" d="M436.941899 0.000000 v462.029437"/><text class="major" x="436.94189852700487" y="477.02943725152284" transform="rotate(45 436.941899 477.029437)">1994</text></g><g class="guides"><path class="major guide line" d="M512.432897 0.000000 v462.029437"/><text class="major" x="512.4328968903436" y="477.02943725152284" transform="rotate(45 512.432897 477.029437)">1995</text></g><g class="guides"><path class="major guide line" d="M633.218494 0.000000 v462.029437"/><text class="major" x="633.2184942716858" y="477.02943725152284" transform="rotate(45 633.218494 477.029437)">1996</text></g></g><g class="series serie-0 color-0"><path class="line reactive nofill" d="M14.192308 275.826938 L21.741408 279.368134 29.290507 278.788665 36.839607 278.016041 44.388707 278.466739 51.937807 277.629729 59.486907 279.368134 67.036007 281.814778 74.585106 282.329861 82.134206 282.651788 89.683306 280.977768 97.232406 278.917436 104.781506 279.368134 112.330606 281.492851 119.879705 276.921490 127.428805 274.474845 134.977905 275.955709 142.527005 272.672055 150.076105 273.380294 157.625205 274.603616 165.174304 276.213251 172.723404 277.500958 180.272504 279.690061 187.821604 282.716173 195.370704 285.355974 202.919804 281.750393 210.468903 282.523017 218.018003 283.746339 225.567103 283.488798 233.116203 282.394246 240.665303 284.390193 248.214403 282.394246 255.763502 281.750393 263.312602 283.231256 270.861702 284.454578 278.410802 286.901222 285.959902 286.192983 293.509002 289.541023 301.058101 292.116438 308.607201 295.078165 316.156301 293.146604 323.705401 296.301487 331.254501 295.335706 338.803601 296.108331 346.352700 293.210989 353.901800 298.361819 361.450900 295.528862 369.000000 296.108331 376.549100 293.919228 384.098200 297.524809 391.647300 297.138497 399.196399 296.816570 406.745499 292.631521 414.294599 294.434311 421.843699 297.911121 429.392799 299.842682 436.941899 303.448263 444.490998 302.546868 452.040098 298.876902 459.589198 293.790457 467.138298 286.514910 474.687398 280.462685 482.236498 287.029993 489.785597 287.867003 497.334697 291.086272 504.883797 290.635574 512.432897 295.464477 519.981997 298.490590 527.531097 295.786404 535.080196 300.615307 542.629296 291.794511 550.178396 294.563082 557.727496 290.828730 565.276596 291.987667 572.825696 291.730125 580.374795 296.043945 587.923895 304.414044 595.472995 309.951186 603.022095 312.204674 610.571195 316.260953 618.120295 298.619360 625.669394 315.874640 633.218494 316.067796 640.767594 305.444210 648.316694 310.723811 655.865794 298.168663 663.414894 305.057898 670.963993 310.530654 678.513093 322.248792 686.062193 331.970984 693.611293 341.950716 701.160393 344.397361 708.709493 339.117760 716.258592 367.318553 723.807692 156.971540"/></g><g class="series serie-1 color-1"><path class="line reactive nofill" d="M14.192308 453.144256 L21.741408 8.885181 29.290507 92.586166 36.839607 210.089472 44.388707 212.342960 51.937807 245.243886 59.486907 215.819771 67.036007 174.419976 74.585106 180.279045 82.134206 187.039509 89.683306 226.700899 97.232406 253.098902 104.781506 253.163287 112.330606 241.767076 119.879705 270.547338 127.428805 281.364080 134.977905 275.311855 142.527005 286.386139 150.076105 283.617568 157.625205 279.496905 165.174304 274.668002 172.723404 270.869265 180.272504 264.430727 187.821604 256.446941 195.370704 249.042623 202.919804 261.082688 210.468903 259.086741 218.018003 256.060629 225.567103 258.120961 233.116203 261.790927 240.665303 258.120961 248.214403 263.143020 255.763502 265.138966 263.312602 262.949864 270.861702 261.340229 278.410802 257.863419 285.959902 260.116907 293.509002 254.966077 301.058101 251.102955 308.607201 246.595979 316.156301 251.167340 323.705401 246.724750 331.254501 248.913852 338.803601 248.785082 346.352700 254.772921 353.901800 248.591925 361.450900 253.420828 369.000000 253.549599 376.549100 257.155180 384.098200 253.420828 391.647300 255.159234 399.196399 256.125014 406.745499 261.533385 414.294599 260.438834 421.843699 257.541492 429.392799 255.996243 436.941899 252.970131 444.490998 254.450994 452.040098 258.571658 459.589198 263.593717 467.138298 269.259630 474.687398 273.251523 482.236498 269.581557 489.785597 269.581557 497.334697 268.165079 504.883797 268.680162 512.432897 266.362288 519.981997 264.881425 527.531097 266.877371 535.080196 264.752654 542.629296 269.452786 550.178396 268.615777 557.727496 270.482952 565.276596 270.354182 572.825696 270.869265 580.374795 269.517172 587.923895 267.263684 595.472995 265.654049 603.022095 265.460893 610.571195 264.817039 618.120295 270.998035 625.669394 267.328069 633.218494 267.778767 640.767594 270.869265 648.316694 270.354182 655.865794 273.058367 663.414894 272.478899 670.963993 271.835045 678.513093 270.933650 686.062193 270.482952 693.611293 269.517172 701.160393 270.547338 708.709493 272.092587 716.258592 271.255577 723.807692 276.792719"/></g><g class="series serie-2 color-2"><path class="line reactive nofill" d="M14.192308 275.826938 L21.741408 275.826938 29.290507 275.826938 36.839607 275.826938 44.388707 275.826938 51.937807 275.826938 59.486907 275.826938 67.036007 275.826938 74.585106 275.826938 82.134206 275.826938 89.683306 275.826938 97.232406 275.826938 104.781506 275.826938 112.330606 275.826938 119.879705 275.826938 127.428805 275.826938 134.977905 275.826938 142.527005 275.826938 150.076105 275.826938 157.625205 275.826938 165.174304 275.826938 172.723404 275.826938 180.272504 275.826938 187.821604 275.826938 195.370704 275.826938 202.919804 275.826938 210.468903 275.826938 218.018003 275.826938 225.567103 275.826938 233.116203 275.826938 240.665303 275.826938 248.214403 275.826938 255.763502 275.826938 263.312602 275.826938 270.861702 275.826938 278.410802 275.826938 285.959902 275.826938 293.509002 275.826938 301.058101 275.826938 308.607201 275.826938 316.156301 275.826938 323.705401 275.826938 331.254501 275.826938 338.803601 275.826938 346.352700 275.826938 353.901800 275.826938 361.450900 275.826938 369.000000 275.826938 376.549100 275.826938 384.098200 275.826938 391.647300 275.826938 399.196399 275.826938 406.745499 275.826938 414.294599 275.826938 421.843699 275.826938 429.392799 275.826938 436.941899 275.826938 444.490998 275.826938 452.040098 275.826938 459.589198 275.826938 467.138298 275.826938 474.687398 275.826938 482.236498 275.826938 489.785597 275.826938 497.334697 275.826938 504.883797 275.826938 512.432897 275.826938 519.981997 275.826938 527.531097 275.826938 535.080196 275.826938 542.629296 275.826938 550.178396 275.826938 557.727496 275.826938 565.276596 275.826938 572.825696 275.826938 580.374795 275.826938 587.923895 275.826938 595.472995 275.826938 603.022095 275.826938 610.571195 275.826938 618.120295 275.826938 625.669394 275.826938 633.218494 275.826938 640.767594 275.826938 648.316694 275.826938 655.865794 275.826938 663.414894 275.826938 670.963993 275.826938 678.513093 275.826938 686.062193 275.826938 693.611293 275.826938 701.160393 275.826938 708.709493 275.826938 716.258592 275.826938 723.807692 275.826938"/></g></g><g class="titles"><text class="title plot_title" x="400.0" y="26">DK Morrison: Future and Past Averages in ODIs</text></g><g class="plot overlay" transform="translate(42, 46)"><g class="series serie-0 color-0"><g class="dots"><desc class="label">126 wickets in 95 innings (764.2 overs)</desc><circle class="dot reactive tooltip-trigger" cx="14.192307692307692" cy="275.8269382922971" r="2.5"/><desc class="value">27.54</desc><desc class="x top">14.192307692307692</desc><desc class="y top">275.8269382922971</desc><desc class="x_label">1988</desc></g><g class="dots"><desc class="label">114 wickets in 85 innings (685.0 overs)</desc><circle class="dot reactive tooltip-trigger" cx="89.68330605564648" cy="280.97776813902533" r="2.5"/><desc class="value">26.74</desc><desc class="x top">89.68330605564648</desc><desc class="y top">280.97776813902533</desc><desc class="x_label">1989</desc></g><g class="dots"><desc class="label">104 wickets in 81 innings (645.0 overs)</desc><circle class="dot reactive tooltip-trigger" cx="119.87970540098199" cy="276.9214896347268" r="2.5"/><desc class="value">27.37</desc><desc class="x top">119.87970540098199</desc><desc class="y top">276.9214896347268</desc><desc class="x_label">1990</desc></g><g class="dots"><desc class="label">78 wickets in 60 innings (472.5 overs)</desc><circle class="dot reactive tooltip-trigger" cx="278.4108019639935" cy="286.9012224627628" r="2.5"/><desc class="value">25.82</desc><desc class="x top">278.4108019639935</desc><desc class="y top">286.9012224627628</desc><desc class="x_label">1991</desc></g><g class="dots"><desc class="label">76 wickets in 57 innings (443.5 overs)</desc><circle class="dot reactive tooltip-trigger" cx="301.0581014729951" cy="292.1164376825751" r="2.5"/><desc class="value">25.01</desc><desc class="x top">301.0581014729951</desc><desc class="y top">292.1164376825751</desc><desc class="x_label">1992</desc></g><g class="dots"><desc class="label">64 wickets in 47 innings (366.0 overs)</desc><circle class="dot reactive tooltip-trigger" cx="376.5490998363338" cy="293.91922812893" r="2.5"/><desc class="value">24.73</desc><desc class="x left top">376.5490998363338</desc><desc class="y left top">293.91922812893</desc><desc class="x_label">1993</desc></g><g class="dots"><desc class="label">57 wickets in 39 innings (303.0 overs)</desc><circle class="dot reactive tooltip-trigger" cx="436.94189852700487" cy="303.44826334537726" r="2.5"/><desc class="value">23.25</desc><desc class="x left top">436.94189852700487</desc><desc class="y left top">303.44826334537726</desc><desc class="x_label">1994</desc></g><g class="dots"><desc class="label">41 wickets in 29 innings (224.5 overs)</desc><circle class="dot reactive tooltip-trigger" cx="512.4328968903436" cy="295.46447708294846" r="2.5"/><desc class="value">24.49</desc><desc class="x left top">512.4328968903436</desc><desc class="y left top">295.46447708294846</desc><desc class="x_label">1995</desc></g><g class="dots"><desc class="label">21 wickets in 13 innings (95.0 overs)</desc><circle class="dot reactive tooltip-trigger" cx="633.2184942716858" cy="316.06779646986143" r="2.5"/><desc class="value">21.29</desc><desc class="x left top">633.2184942716858</desc><desc class="y left top">316.06779646986143</desc><desc class="x_label">1996</desc></g></g><g class="series serie-1 color-1"><g class="dots"><desc class="label">0 wickets over 0 innings</desc><circle class="dot reactive tooltip-trigger" cx="14.192307692307692" cy="453.1442557659166" r="2.5"/><desc class="value">0</desc><desc class="x top">14.192307692307692</desc><desc class="y top">453.1442557659166</desc><desc class="x_label">1988</desc></g><g class="dots"><desc class="label">12 wickets in 10 innings (79.2 overs)</desc><circle class="dot reactive tooltip-trigger" cx="89.68330605564648" cy="226.70089862912644" r="2.5"/><desc class="value">35.17</desc><desc class="x ">89.68330605564648</desc><desc class="y ">226.70089862912644</desc><desc class="x_label">1989</desc></g><g class="dots"><desc class="label">22 wickets in 14 innings (119.2 overs)</desc><circle class="dot reactive tooltip-trigger" cx="119.87970540098199" cy="270.5473376994006" r="2.5"/><desc class="value">28.36</desc><desc class="x top">119.87970540098199</desc><desc class="y top">270.5473376994006</desc><desc class="x_label">1990</desc></g><g class="dots"><desc class="label">48 wickets in 35 innings (291.3 overs)</desc><circle class="dot reactive tooltip-trigger" cx="278.4108019639935" cy="257.86341920183236" r="2.5"/><desc class="value">30.33</desc><desc class="x top">278.4108019639935</desc><desc class="y top">257.86341920183236</desc><desc class="x_label">1991</desc></g><g class="dots"><desc class="label">50 wickets in 38 innings (320.3 overs)</desc><circle class="dot reactive tooltip-trigger" cx="301.0581014729951" cy="251.10295502800153" r="2.5"/><desc class="value">31.38</desc><desc class="x top">301.0581014729951</desc><desc class="y top">251.10295502800153</desc><desc class="x_label">1992</desc></g><g class="dots"><desc class="label">62 wickets in 48 innings (398.2 overs)</desc><circle class="dot reactive tooltip-trigger" cx="376.5490998363338" cy="257.1551800979072" r="2.5"/><desc class="value">30.44</desc><desc class="x left top">376.5490998363338</desc><desc class="y left top">257.1551800979072</desc><desc class="x_label">1993</desc></g><g class="dots"><desc class="label">69 wickets in 56 innings (461.2 overs)</desc><circle class="dot reactive tooltip-trigger" cx="436.94189852700487" cy="252.9701308474405" r="2.5"/><desc class="value">31.09</desc><desc class="x left top">436.94189852700487</desc><desc class="y left top">252.9701308474405</desc><desc class="x_label">1994</desc></g><g class="dots"><desc class="label">85 wickets in 66 innings (539.3 overs)</desc><circle class="dot reactive tooltip-trigger" cx="512.4328968903436" cy="266.3622884489339" r="2.5"/><desc class="value">29.01</desc><desc class="x left top">512.4328968903436</desc><desc class="y left top">266.3622884489339</desc><desc class="x_label">1995</desc></g><g class="dots"><desc class="label">105 wickets in 82 innings (669.2 overs)</desc><circle class="dot reactive tooltip-trigger" cx="633.2184942716858" cy="267.7787666567842" r="2.5"/><desc class="value">28.79</desc><desc class="x left top">633.2184942716858</desc><desc class="y left top">267.7787666567842</desc><desc class="x_label">1996</desc></g></g><g class="series serie-2 color-2"/></g><g class="plot text-overlay" transform="translate(42, 46)"><g class="series serie-0 color-0"/><g class="series serie-1 color-1"/><g class="series serie-2 color-2"/></g><g class="plot tooltip-overlay" transform="translate(42, 46)"><g class="tooltip" style="opacity: 0" transform="translate(0 0)"><rect class="tooltip-box" height="0" rx="10" ry="10" width="0"/><g class="text"/></g></g><g class="legends" transform="translate(52, 545)"><g class="legend reactive activate-serie" id="activate-serie-0"><rect class="color-0 reactive" height="12" width="12" x="0.0" y="1.0"/><text x="17.0" y="11.2">Future Average</text></g><g class="legend reactive activate-serie" id="activate-serie-1"><rect class="color-1 reactive" height="12" width="12" x="369.0" y="1.0"/><text x="386.0" y="11.2">Past Average</text></g><g class="legend reactive activate-serie" id="activate-serie-2"><rect class="color-2 reactive" height="12" width="12" x="0.0" y="22.0"/><text x="17.0" y="32.2">Career Average</text></g></g></g></svg>