<?xml version='1.0' encoding='utf-8'?>
<svg xmlns:xlink="http://www.w3.org/1999/xlink" xmlns="http://www.w3.org/2000/svg" id="chart-d93a81d7-39a3-4fe2-a16e-c07330b172d4" class="pygal-chart" viewBox="0 0 800 600"><!--Generated with pygal 2.4.0 (lxml) ©Kozea 2012-2016 on 2019-08-04--><!--http://pygal.org--><!--http://github.com/Kozea/pygal--><defs><style type="text/css">#chart-d93a81d7-39a3-4fe2-a16e-c07330b172d4{-webkit-user-select:none;-webkit-font-smoothing:antialiased;font-family:Consolas,"Liberation Mono",Menlo,Courier,monospace}#chart-d93a81d7-39a3-4fe2-a16e-c07330b172d4 .title{font-family:Consolas,"Liberation Mono",Menlo,Courier,monospace;font-size:16px}#chart-d93a81d7-39a3-4fe2-a16e-c07330b172d4 .legends .legend text{font-family:Consolas,"Liberation Mono",Menlo,Courier,monospace;font-size:14px}#chart-d93a81d7-39a3-4fe2-a16e-c07330b172d4 .axis text{font-family:Consolas,"Liberation Mono",Menlo,Courier,monospace;font-size:10px}#chart-d93a81d7-39a3-4fe2-a16e-c07330b172d4 .axis text.major{font-family:Consolas,"Liberation Mono",Menlo,Courier,monospace;font-size:10px}#chart-d93a81d7-39a3-4fe2-a16e-c07330b172d4 .text-overlay text.value{font-family:Consolas,"Liberation Mono",Menlo,Courier,monospace;font-size:16px}#chart-d93a81d7-39a3-4fe2-a16e-c07330b172d4 .text-overlay text.label{font-family:Consolas,"Liberation Mono",Menlo,Courier,monospace;font-size:10px}#chart-d93a81d7-39a3-4fe2-a16e-c07330b172d4 .tooltip{font-family:Consolas,"Liberation Mono",Menlo,Courier,monospace;font-size:14px}#chart-d93a81d7-39a3-4fe2-a16e-c07330b172d4 text.no_data{font-family:Consolas,"Liberation Mono",Menlo,Courier,monospace;font-size:64px}
#chart-d93a81d7-39a3-4fe2-a16e-c07330b172d4{background-color:rgba(249,249,249,1)}#chart-d93a81d7-39a3-4fe2-a16e-c07330b172d4 path,#chart-d93a81d7-39a3-4fe2-a16e-c07330b172d4 line,#chart-d93a81d7-39a3-4fe2-a16e-c07330b172d4 rect,#chart-d93a81d7-39a3-4fe2-a16e-c07330b172d4 circle{-webkit-transition:150ms;-moz-transition:150ms;transition:150ms}#chart-d93a81d7-39a3-4fe2-a16e-c07330b172d4 .graph &gt; .background{fill:rgba(249,249,249,1)}#chart-d93a81d7-39a3-4fe2-a16e-c07330b172d4 .plot &gt; .background{fill:rgba(255,255,255,1)}#chart-d93a81d7-39a3-4fe2-a16e-c07330b172d4 .graph{fill:rgba(0,0,0,.87)}#chart-d93a81d7-39a3-4fe2-a16e-c07330b172d4 text.no_data{fill:rgba(0,0,0,1)}#chart-d93a81d7-39a3-4fe2-a16e-c07330b172d4 .title{fill:rgba(0,0,0,1)}#chart-d93a81d7-39a3-4fe2-a16e-c07330b172d4 .legends .legend text{fill:rgba(0,0,0,.87)}#chart-d93a81d7-39a3-4fe2-a16e-c07330b172d4 .legends .legend:hover text{fill:rgba(0,0,0,1)}#chart-d93a81d7-39a3-4fe2-a16e-c07330b172d4 .axis .line{stroke:rgba(0,0,0,1)}#chart-d93a81d7-39a3-4fe2-a16e-c07330b172d4 .axis .guide.line{stroke:rgba(0,0,0,.54)}#chart-d93a81d7-39a3-4fe2-a16e-c07330b172d4 .axis .major.line{stroke:rgba(0,0,0,.87)}#chart-d93a81d7-39a3-4fe2-a16e-c07330b172d4 .axis text.major{fill:rgba(0,0,0,1)}#chart-d93a81d7-39a3-4fe2-a16e-c07330b172d4 .axis.y .guides:hover .guide.line,#chart-d93a81d7-39a3-4fe2-a16e-c07330b172d4 .line-graph .axis.x .guides:hover .guide.line,#chart-d93a81d7-39a3-4fe2-a16e-c07330b172d4 .stackedline-graph .axis.x .guides:hover .guide.line,#chart-d93a81d7-39a3-4fe2-a16e-c07330b172d4 .xy-graph .axis.x .guides:hover .guide.line{stroke:rgba(0,0,0,1)}#chart-d93a81d7-39a3-4fe2-a16e-c07330b172d4 .axis .guides:hover text{fill:rgba(0,0,0,1)}#chart-d93a81d7-39a3-4fe2-a16e-c07330b172d4 .reactive{fill-opacity:.7;stroke-opacity:.8}#chart-d93a81d7-39a3-4fe2-a16e-c07330b172d4 .ci{stroke:rgba(0,0,0,.87)}#chart-d93a81d7-39a3-4fe2-a16e-c07330b172d4 .reactive.active,#chart-d93a81d7-39a3-4fe2-a16e-c07330b172d4 .active .reactive{fill-opacity:.8;stroke-opacity:.9;stroke-width:4}#chart-d93a81d7-39a3-4fe2-a16e-c07330b172d4 .ci .reactive.active{stroke-width:1.5}#chart-d93a81d7-39a3-4fe2-a16e-c07330b172d4 .series text{fill:rgba(0,0,0,1)}#chart-d93a81d7-39a3-4fe2-a16e-c07330b172d4 .tooltip rect{fill:rgba(255,255,255,1);stroke:rgba(0,0,0,1);-webkit-transition:opacity 150ms;-moz-transition:opacity 150ms;transition:opacity 150ms}#chart-d93a81d7-39a3-4fe2-a16e-c07330b172d4 .tooltip .label{fill:rgba(0,0,0,.87)}#chart-d93a81d7-39a3-4fe2-a16e-c07330b172d4 .tooltip .label{fill:rgba(0,0,0,.87)}#chart-d93a81d7-39a3-4fe2-a16e-c07330b172d4 .tooltip .legend{font-size:.8em;fill:rgba(0,0,0,.54)}#chart-d93a81d7-39a3-4fe2-a16e-c07330b172d4 .tooltip .x_label{font-size:.6em;fill:rgba(0,0,0,1)}#chart-d93a81d7-39a3-4fe2-a16e-c07330b172d4 .tooltip .xlink{font-size:.5em;text-decoration:underline}#chart-d93a81d7-39a3-4fe2-a16e-c07330b172d4 .tooltip .value{font-size:1.5em}#chart-d93a81d7-39a3-4fe2-a16e-c07330b172d4 .bound{font-size:.5em}#chart-d93a81d7-39a3-4fe2-a16e-c07330b172d4 .max-value{font-size:.75em;fill:rgba(0,0,0,.54)}#chart-d93a81d7-39a3-4fe2-a16e-c07330b172d4 .map-element{fill:rgba(255,255,255,1);stroke:rgba(0,0,0,.54) !important}#chart-d93a81d7-39a3-4fe2-a16e-c07330b172d4 .map-element .reactive{fill-opacity:inherit;stroke-opacity:inherit}#chart-d93a81d7-39a3-4fe2-a16e-c07330b172d4 .color-0,#chart-d93a81d7-39a3-4fe2-a16e-c07330b172d4 .color-0 a:visited{stroke:red;fill:red}#chart-d93a81d7-39a3-4fe2-a16e-c07330b172d4 .color-1,#chart-d93a81d7-39a3-4fe2-a16e-c07330b172d4 .color-1 a:visited{stroke:blue;fill:blue}#chart-d93a81d7-39a3-4fe2-a16e-c07330b172d4 .color-2,#chart-d93a81d7-39a3-4fe2-a16e-c07330b172d4 .color-2 a:visited{stroke:green;fill:green}#chart-d93a81d7-39a3-4fe2-a16e-c07330b172d4 .text-overlay .color-0 text{fill:white}#chart-d93a81d7-39a3-4fe2-a16e-c07330b172d4 .text-overlay .color-1 text{fill:white}#chart-d93a81d7-39a3-4fe2-a16e-c07330b172d4 .text-overlay .color-2 text{fill:white}
#chart-d93a81d7-39a3-4fe2-a16e-c07330b172d4 text.no_data{text-anchor:middle}#chart-d93a81d7-39a3-4fe2-a16e-c07330b172d4 .guide.line{fill:none}#chart-d93a81d7-39a3-4fe2-a16e-c07330b172d4 .centered{text-anchor:middle}#chart-d93a81d7-39a3-4fe2-a16e-c07330b172d4 .title{text-anchor:middle}#chart-d93a81d7-39a3-4fe2-a16e-c07330b172d4 .legends .legend text{fill-opacity:1}#chart-d93a81d7-39a3-4fe2-a16e-c07330b172d4 .axis.x text{text-anchor:middle}#chart-d93a81d7-39a3-4fe2-a16e-c07330b172d4 .axis.x:not(.web) text[transform]{text-anchor:start}#chart-d93a81d7-39a3-4fe2-a16e-c07330b172d4 .axis.x:not(.web) text[transform].backwards{text-anchor:end}#chart-d93a81d7-39a3-4fe2-a16e-c07330b172d4 .axis.y text{text-anchor:end}#chart-d93a81d7-39a3-4fe2-a16e-c07330b172d4 .axis.y text[transform].backwards{text-anchor:start}#chart-d93a81d7-39a3-4fe2-a16e-c07330b172d4 .axis.y2 text{text-anchor:start}#chart-d93a81d7-39a3-4fe2-a16e-c07330b172d4 .axis.y2 text[transform].backwards{text-anchor:end}#chart-d93a81d7-39a3-4fe2-a16e-c07330b172d4 .axis .guide.line{stroke-dasharray:4,4}#chart-d93a81d7-39a3-4fe2-a16e-c07330b172d4 .axis .major.guide.line{stroke-dasharray:6,6}#chart-d93a81d7-39a3-4fe2-a16e-c07330b172d4 .horizontal .axis.y .guide.line,#chart-d93a81d7-39a3-4fe2-a16e-c07330b172d4 .horizontal .axis.y2 .guide.line,#chart-d93a81d7-39a3-4fe2-a16e-c07330b172d4 .vertical .axis.x .guide.line{opacity:0}#chart-d93a81d7-39a3-4fe2-a16e-c07330b172d4 .horizontal .axis.always_show .guide.line,#chart-d93a81d7-39a3-4fe2-a16e-c07330b172d4 .vertical .axis.always_show .guide.line{opacity:1 !important}#chart-d93a81d7-39a3-4fe2-a16e-c07330b172d4 .axis.y .guides:hover .guide.line,#chart-d93a81d7-39a3-4fe2-a16e-c07330b172d4 .axis.y2 .guides:hover .guide.line,#chart-d93a81d7-39a3-4fe2-a16e-c07330b172d4 .axis.x .guides:hover .guide.line{opacity:1}#chart-d93a81d7-39a3-4fe2-a16e-c07330b172d4 .axis .guides:hover text{opacity:1}#chart-d93a81d7-39a3-4fe2-a16e-c07330b172d4 .nofill{fill:none}#chart-d93a81d7-39a3-4fe2-a16e-c07330b172d4 .subtle-fill{fill-opacity:.2}#chart-d93a81d7-39a3-4fe2-a16e-c07330b172d4 .dot{stroke-width:1px;fill-opacity:1}#chart-d93a81d7-39a3-4fe2-a16e-c07330b172d4 .dot.active{stroke-width:5px}#chart-d93a81d7-39a3-4fe2-a16e-c07330b172d4 .dot.negative{fill:transparent}#chart-d93a81d7-39a3-4fe2-a16e-c07330b172d4 text,#chart-d93a81d7-39a3-4fe2-a16e-c07330b172d4 tspan{stroke:none !important}#chart-d93a81d7-39a3-4fe2-a16e-c07330b172d4 .series text.active{opacity:1}#chart-d93a81d7-39a3-4fe2-a16e-c07330b172d4 .tooltip rect{fill-opacity:.95;stroke-width:.5}#chart-d93a81d7-39a3-4fe2-a16e-c07330b172d4 .tooltip text{fill-opacity:1}#chart-d93a81d7-39a3-4fe2-a16e-c07330b172d4 .showable{visibility:hidden}#chart-d93a81d7-39a3-4fe2-a16e-c07330b172d4 .showable.shown{visibility:visible}#chart-d93a81d7-39a3-4fe2-a16e-c07330b172d4 .gauge-background{fill:rgba(229,229,229,1);stroke:none}#chart-d93a81d7-39a3-4fe2-a16e-c07330b172d4 .bg-lines{stroke:rgba(249,249,249,1);stroke-width:2px}</style><script type="text/javascript">window.pygal = window.pygal || {};window.pygal.config = window.pygal.config || {};window.pygal.config['d93a81d7-39a3-4fe2-a16e-c07330b172d4'] = {"allow_interruptions": false, "box_mode": "extremes", "classes": ["pygal-chart"], "css": ["file://style.css", "file://graph.css"], "defs": [], "disable_xml_declaration": false, "dots_size": 2.5, "dynamic_print_values": false, "explicit_size": false, "fill": false, "force_uri_protocol": "https", "formatter": null, "half_pie": false, "height": 600, "include_x_axis": false, "inner_radius": 0, "interpolate": null, "interpolation_parameters": {}, "interpolation_precision": 250, "inverse_y_axis": false, "js": ["//kozea.github.io/pygal.js/2.0.x/pygal-tooltips.min.js"], "legend_at_bottom": true, "legend_at_bottom_columns": null, "legend_box_size": 12, "logarithmic": false, "margin": 20, "margin_bottom": null, "margin_left": null, "margin_right": null, "margin_top": null, "max_scale": 16, "min_scale": 4, "missing_value_fill_truncation": "x", "no_data_text": "No data", "no_prefix": false, "order_min": null, "pretty_print": false, "print_labels": false, "print_values": false, "print_values_position": "center", "print_zeroes": true, "range": null, "rounded_bars": null, "secondary_range": null, "show_dots": true, "show_legend": true, "show_minor_x_labels": false, "show_minor_y_labels": true, "show_only_major_dots": false, "show_x_guides": false, "show_x_labels": true, "show_y_guides": true, "show_y_labels": true, "spacing": 10, "stack_from_top": false, "strict": false, "stroke": true, "stroke_style": null, "style": {"background": "rgba(249, 249, 249, 1)", "ci_colors": [], "colors": ["red", "blue", "green", "#a3a3a3"], "font_family": "Consolas, \"Liberation Mono\", Menlo, Courier, monospace", "foreground": "rgba(0, 0, 0, .87)", "foreground_strong": "rgba(0, 0, 0, 1)", "foreground_subtle": "rgba(0, 0, 0, .54)", "guide_stroke_dasharray": "4,4", "label_font_family": "Consolas, \"Liberation Mono\", Menlo, Courier, monospace", "label_font_size": 10, "legend_font_family": "Consolas, \"Liberation Mono\", Menlo, Courier, monospace", "legend_font_size": 14, "major_guide_stroke_dasharray": "6,6", "major_label_font_family": "Consolas, \"Liberation Mono\", Menlo, Courier, monospace", "major_label_font_size": 10, "no_data_font_family": "Consolas, \"Liberation Mono\", Menlo, Courier, monospace", "no_data_font_size": 64, "opacity": ".7", "opacity_hover": ".8", "plot_background": "rgba(255, 255, 255, 1)", "stroke_opacity": ".8", "stroke_opacity_hover": ".9", "title_font_family": "Consolas, \"Liberation Mono\", Menlo, Courier, monospace", "title_font_size": 16, "tooltip_font_family": "Consolas, \"Liberation Mono\", Menlo, Courier, monospace", "tooltip_font_size": 14, "transition": "150ms", "value_background": "rgba(229, 229, 229, 1)", "value_colors": [], "value_font_family": "Consolas, \"Liberation Mono\", Menlo, Courier, monospace", "value_font_size": 16, "value_label_font_family": "Consolas, \"Liberation Mono\", Menlo, Courier, monospace", "value_label_font_size": 10}, "title": "DNT Zoysa: Future and Past Averages in ODIs", "tooltip_border_radius": 10, "tooltip_fancy_mode": true, "truncate_label": null, "truncate_legend": null, "width": 800, "x_label_rotation": 45, "x_labels": ["1997", "0", "0", "1998", "0", "0", "0", "1999", "0", "0", "0", "0", "0", "0", "0", "0", "0", "0", "2000", "0", "0", "0", "0", "0", "0", "0", "0", "0", "0", "0", "0", "0", "0", "0", "0", "0", "2001", "0", "0", "0", "0", "0", "0", "0", "0", "0", "0", "0", "0", "0", "0", "0", "0", "0", "0", "0", "0", "2002", "0", "0", "0", "0", "0", "0", "0", "0", "0", "2004", "0", "0", "0", "0", "0", "0", "0", "0", "0", "0", "0", "0", "0", "0", "0", "0", "0", "0", "0", "0", "2005", "0", "0", "0", "0"], "x_labels_major": ["1997", "1998", "1999", "2000", "2001", "2002", "2004", "2005"], "x_labels_major_count": null, "x_labels_major_every": null, "x_title": null, "xrange": null, "y_label_rotation": 0, "y_labels": null, "y_labels_major": null, "y_labels_major_count": null, "y_labels_major_every": null, "y_title": null, "zero": 60.0, "legends": ["Future Average", "Past Average", "Career Average"]}</script><script type="text/javascript" xlink:href="https://kozea.github.io/pygal.js/2.0.x/pygal-tooltips.min.js"/></defs><title>DNT Zoysa: Future and Past Averages in ODIs</title><g class="graph line-graph vertical"><rect class="background" height="600" width="800" x="0" y="0"/><g class="plot" transform="translate(42, 46)"><rect class="background" height="462.02943725152284" width="738.0" x="0" y="0"/><g class="axis y always_show"><g class="guides"><path class="axis major line" d="M0.000000 453.144256 h738.000000"/><text class="major" x="-5" y="456.6442557659166">0</text><title>0</title></g><g class="guides"><path class="guide line" d="M0.000000 368.684356 h738.000000"/><text class="" x="-5" y="372.1843557126257">10</text><title>10</title></g><g class="guides"><path class="guide line" d="M0.000000 284.224456 h738.000000"/><text class="" x="-5" y="287.7244556593347">20</text><title>20</title></g><g class="guides"><path class="guide line" d="M0.000000 199.764556 h738.000000"/><text class="" x="-5" y="203.2645556060438">30</text><title>30</title></g><g class="guides"><path class="guide line" d="M0.000000 115.304656 h738.000000"/><text class="" x="-5" y="118.80465555275282">40</text><title>40</title></g><g class="guides"><path class="major guide line" d="M0.000000 30.844755 h738.000000"/><text class="major" x="-5" y="34.34475549946188">50</text><title>50</title></g></g><g class="axis x"><g class="guides"><path class="major line" d="M14.192308 0.000000 v462.029437"/><text class="major" x="14.192307692307692" y="477.02943725152284" transform="rotate(45 14.192308 477.029437)">1997</text></g><g class="guides"><path class="major guide line" d="M37.331940 0.000000 v462.029437"/><text class="major" x="37.331939799331096" y="477.02943725152284" transform="rotate(45 37.331940 477.029437)">1998</text></g><g class="guides"><path class="major guide line" d="M68.184783 0.000000 v462.029437"/><text class="major" x="68.18478260869566" y="477.02943725152284" transform="rotate(45 68.184783 477.029437)">1999</text></g><g class="guides"><path class="major guide line" d="M153.030100 0.000000 v462.029437"/><text class="major" x="153.03010033444815" y="477.02943725152284" transform="rotate(45 153.030100 477.029437)">2000</text></g><g class="guides"><path class="major guide line" d="M291.867893 0.000000 v462.029437"/><text class="major" x="291.8678929765886" y="477.02943725152284" transform="rotate(45 291.867893 477.029437)">2001</text></g><g class="guides"><path class="major guide line" d="M453.845318 0.000000 v462.029437"/><text class="major" x="453.8453177257525" y="477.02943725152284" transform="rotate(45 453.845318 477.029437)">2002</text></g><g class="guides"><path class="major guide line" d="M530.977425 0.000000 v462.029437"/><text class="major" x="530.9774247491639" y="477.02943725152284" transform="rotate(45 530.977425 477.029437)">2004</text></g><g class="guides"><path class="major guide line" d="M692.954849 0.000000 v462.029437"/><text class="major" x="692.9548494983277" y="477.02943725152284" transform="rotate(45 692.954849 477.029437)">2005</text></g></g><g class="series serie-0 color-0"><path class="line reactive nofill" d="M14.192308 201.876053 L21.905518 199.426716 29.618729 198.413197 37.331940 199.680096 45.045151 199.173336 52.758361 196.977379 60.471572 198.244277 68.184783 198.497657 75.897993 201.115914 83.611204 197.821978 91.324415 201.284834 99.037625 203.480791 106.750836 205.254449 114.464047 208.041626 122.177258 210.153123 129.890468 212.264621 137.603679 210.997722 145.316890 211.335562 153.030100 209.139605 160.743311 206.521348 168.456522 209.308524 176.169732 208.295006 183.882943 206.943647 191.596154 198.328737 199.309365 201.115914 207.022575 206.014588 214.735786 205.338909 222.448997 209.561904 230.162207 203.818631 237.875418 208.632845 245.588629 213.953819 253.301839 214.122739 261.015050 206.099048 268.728261 210.406503 276.441472 209.477444 284.154682 206.774727 291.867893 207.957166 299.581104 213.953819 307.294314 213.362600 315.007525 215.727477 322.720736 217.585595 330.433946 206.183508 338.147157 203.903091 345.860368 194.950341 353.573579 201.622673 361.286789 195.963860 369.000000 195.963860 376.713211 192.416544 384.426421 195.203721 392.139632 199.088876 399.852843 201.622673 407.566054 203.649711 415.279264 202.213893 422.992475 205.254449 430.705686 211.166642 438.418896 215.389637 446.132107 221.893049 453.845318 228.312002 461.558528 227.045103 469.271739 224.004547 476.984950 224.511306 484.698161 226.876184 492.411371 223.244408 500.124582 227.298483 507.837793 231.521478 515.551003 243.514784 523.264214 241.741126 530.977425 251.622934 538.690635 260.575684 546.403846 264.883139 554.117057 255.930389 561.830268 241.065447 569.543478 247.399939 577.256689 254.663491 584.969900 243.008024 592.683110 233.548516 600.396321 212.855840 608.109532 221.977509 615.822742 217.585595 623.535953 226.960643 631.249164 156.858926 638.962375 155.423108 646.675585 147.568337 654.388796 52.973249 662.102007 69.442930 669.815217 49.172554 677.528428 8.885181 685.241639 83.209894 692.954849 103.480270 700.668060 182.872576 708.381271 245.372902 716.094482 292.670446 723.807692 254.663491"/></g><g class="series serie-1 color-1"><path class="line reactive nofill" d="M14.192308 453.144256 L21.905518 330.677401 29.618729 292.670446 37.331940 247.062100 45.045151 247.653319 52.758361 263.109481 60.471572 241.994506 68.184783 235.237714 75.897993 209.055145 83.611204 234.224195 91.324415 206.774727 99.037625 189.207068 106.750836 177.044842 114.464047 156.858926 122.177258 141.318305 129.890468 125.693223 137.603679 140.642626 145.316890 143.429802 153.030100 163.024499 160.743311 180.169859 168.456522 166.909654 176.169732 175.271185 183.882943 183.210415 191.596154 212.602460 199.309365 204.156470 207.022575 189.460448 214.735786 191.909785 222.448997 179.832019 230.162207 197.061839 237.875418 185.068533 245.588629 171.977248 253.301839 172.821847 261.015050 193.007764 268.728261 184.055014 276.441472 186.588811 284.154682 192.838844 291.867893 191.487485 299.581104 181.436757 307.294314 183.886094 315.007525 180.085399 322.720736 177.213762 330.433946 196.132780 338.147157 199.257796 345.860368 209.899744 353.573579 202.129433 361.286789 208.210546 369.000000 208.041626 376.713211 210.997722 384.426421 208.041626 392.139632 204.409850 399.852843 202.129433 407.566054 200.355775 415.279264 201.622673 422.992475 199.173336 430.705686 194.443582 438.418896 191.065186 446.132107 185.828672 453.845318 180.761078 461.558528 182.450276 469.271739 186.082052 476.984950 186.335431 484.698161 185.321913 492.411371 189.291528 500.124582 187.517870 507.837793 185.744212 515.551003 179.240800 523.264214 181.943517 530.977425 177.973901 538.690635 173.750906 546.403846 172.906307 554.117057 180.169859 561.830268 188.109089 569.543478 185.913132 577.256689 183.379335 584.969900 188.869228 592.683110 193.345603 600.396321 199.342256 608.109532 197.568598 615.822742 198.751037 623.535953 196.892919 631.249164 208.041626 638.962375 207.703786 646.675585 208.041626 654.388796 213.784899 662.102007 211.082182 669.815217 210.828803 677.528428 211.251102 685.241639 207.619326 692.954849 206.690267 700.668060 202.805112 708.381271 199.764556 716.094482 198.413197 723.807692 200.862534"/></g><g class="series serie-2 color-2"><path class="line reactive nofill" d="M14.192308 201.876053 L21.905518 201.876053 29.618729 201.876053 37.331940 201.876053 45.045151 201.876053 52.758361 201.876053 60.471572 201.876053 68.184783 201.876053 75.897993 201.876053 83.611204 201.876053 91.324415 201.876053 99.037625 201.876053 106.750836 201.876053 114.464047 201.876053 122.177258 201.876053 129.890468 201.876053 137.603679 201.876053 145.316890 201.876053 153.030100 201.876053 160.743311 201.876053 168.456522 201.876053 176.169732 201.876053 183.882943 201.876053 191.596154 201.876053 199.309365 201.876053 207.022575 201.876053 214.735786 201.876053 222.448997 201.876053 230.162207 201.876053 237.875418 201.876053 245.588629 201.876053 253.301839 201.876053 261.015050 201.876053 268.728261 201.876053 276.441472 201.876053 284.154682 201.876053 291.867893 201.876053 299.581104 201.876053 307.294314 201.876053 315.007525 201.876053 322.720736 201.876053 330.433946 201.876053 338.147157 201.876053 345.860368 201.876053 353.573579 201.876053 361.286789 201.876053 369.000000 201.876053 376.713211 201.876053 384.426421 201.876053 392.139632 201.876053 399.852843 201.876053 407.566054 201.876053 415.279264 201.876053 422.992475 201.876053 430.705686 201.876053 438.418896 201.876053 446.132107 201.876053 453.845318 201.876053 461.558528 201.876053 469.271739 201.876053 476.984950 201.876053 484.698161 201.876053 492.411371 201.876053 500.124582 201.876053 507.837793 201.876053 515.551003 201.876053 523.264214 201.876053 530.977425 201.876053 538.690635 201.876053 546.403846 201.876053 554.117057 201.876053 561.830268 201.876053 569.543478 201.876053 577.256689 201.876053 584.969900 201.876053 592.683110 201.876053 600.396321 201.876053 608.109532 201.876053 615.822742 201.876053 623.535953 201.876053 631.249164 201.876053 638.962375 201.876053 646.675585 201.876053 654.388796 201.876053 662.102007 201.876053 669.815217 201.876053 677.528428 201.876053 685.241639 201.876053 692.954849 201.876053 700.668060 201.876053 708.381271 201.876053 716.094482 201.876053 723.807692 201.876053"/></g></g><g class="titles"><text class="title plot_title" x="400.0" y="26">DNT Zoysa: Future and Past Averages in ODIs</text></g><g class="plot overlay" transform="translate(42, 46)"><g class="series serie-0 color-0"><g class="dots"><desc class="label">108 wickets in 93 innings (709.5 overs)</desc><circle class="dot reactive tooltip-trigger" cx="14.192307692307692" cy="201.87605310737604" r="2.5"/><desc class="value">29.75</desc><desc class="x ">14.192307692307692</desc><desc class="y ">201.87605310737604</desc><desc class="x_label">1997</desc></g><g class="dots"><desc class="label">103 wickets in 90 innings (682.5 overs)</desc><circle class="dot reactive tooltip-trigger" cx="37.331939799331096" cy="199.68009570599048" r="2.5"/><desc class="value">30.01</desc><desc class="x ">37.331939799331096</desc><desc class="y ">199.68009570599048</desc><desc class="x_label">1998</desc></g><g class="dots"><desc class="label">98 wickets in 86 innings (652.5 overs)</desc><circle class="dot reactive tooltip-trigger" cx="68.18478260869566" cy="198.4976571052444" r="2.5"/><desc class="value">30.15</desc><desc class="x ">68.18478260869566</desc><desc class="y ">198.4976571052444</desc><desc class="x_label">1999</desc></g><g class="dots"><desc class="label">91 wickets in 75 innings (568.3 overs)</desc><circle class="dot reactive tooltip-trigger" cx="153.03010033444815" cy="209.13960451195908" r="2.5"/><desc class="value">28.89</desc><desc class="x ">153.03010033444815</desc><desc class="y ">209.13960451195908</desc><desc class="x_label">2000</desc></g><g class="dots"><desc class="label">68 wickets in 57 innings (420.3 overs)</desc><circle class="dot reactive tooltip-trigger" cx="291.8678929765886" cy="207.957165911213" r="2.5"/><desc class="value">29.03</desc><desc class="x ">291.8678929765886</desc><desc class="y ">207.957165911213</desc><desc class="x_label">2001</desc></g><g class="dots"><desc class="label">48 wickets in 36 innings (273.3 overs)</desc><circle class="dot reactive tooltip-trigger" cx="453.8453177257525" cy="228.31200182405613" r="2.5"/><desc class="value">26.62</desc><desc class="x left">453.8453177257525</desc><desc class="y left">228.31200182405613</desc><desc class="x_label">2002</desc></g><g class="dots"><desc class="label">35 wickets in 26 innings (195.1 overs)</desc><circle class="dot reactive tooltip-trigger" cx="530.9774247491639" cy="251.62293423876443" r="2.5"/><desc class="value">23.86</desc><desc class="x left top">530.9774247491639</desc><desc class="y left top">251.62293423876443</desc><desc class="x_label">2004</desc></g><g class="dots"><desc class="label">5 wickets in 5 innings (32.0 overs)</desc><circle class="dot reactive tooltip-trigger" cx="692.9548494983277" cy="103.48026954529206" r="2.5"/><desc class="value">41.4</desc><desc class="x left">692.9548494983277</desc><desc class="y left">103.48026954529206</desc><desc class="x_label">2005</desc></g></g><g class="series serie-1 color-1"><g class="dots"><desc class="label">0 wickets over 0 innings</desc><circle class="dot reactive tooltip-trigger" cx="14.192307692307692" cy="453.1442557659166" r="2.5"/><desc class="value">0</desc><desc class="x top">14.192307692307692</desc><desc class="y top">453.1442557659166</desc><desc class="x_label">1997</desc></g><g class="dots"><desc class="label">5 wickets in 3 innings (27.0 overs)</desc><circle class="dot reactive tooltip-trigger" cx="37.331939799331096" cy="247.0620996358867" r="2.5"/><desc class="value">24.4</desc><desc class="x top">37.331939799331096</desc><desc class="y top">247.0620996358867</desc><desc class="x_label">1998</desc></g><g class="dots"><desc class="label">10 wickets in 7 innings (57.0 overs)</desc><circle class="dot reactive tooltip-trigger" cx="68.18478260869566" cy="235.23771362842598" r="2.5"/><desc class="value">25.8</desc><desc class="x top">68.18478260869566</desc><desc class="y top">235.23771362842598</desc><desc class="x_label">1999</desc></g><g class="dots"><desc class="label">17 wickets in 18 innings (141.2 overs)</desc><circle class="dot reactive tooltip-trigger" cx="153.03010033444815" cy="163.02449908286218" r="2.5"/><desc class="value">34.35</desc><desc class="x ">153.03010033444815</desc><desc class="y ">163.02449908286218</desc><desc class="x_label">2000</desc></g><g class="dots"><desc class="label">40 wickets in 36 innings (289.2 overs)</desc><circle class="dot reactive tooltip-trigger" cx="291.8678929765886" cy="191.48748540082119" r="2.5"/><desc class="value">30.98</desc><desc class="x ">291.8678929765886</desc><desc class="y ">191.48748540082119</desc><desc class="x_label">2001</desc></g><g class="dots"><desc class="label">60 wickets in 57 innings (436.2 overs)</desc><circle class="dot reactive tooltip-trigger" cx="453.8453177257525" cy="180.7610780940533" r="2.5"/><desc class="value">32.25</desc><desc class="x left">453.8453177257525</desc><desc class="y left">180.7610780940533</desc><desc class="x_label">2002</desc></g><g class="dots"><desc class="label">73 wickets in 67 innings (514.4 overs)</desc><circle class="dot reactive tooltip-trigger" cx="530.9774247491639" cy="177.9739013922947" r="2.5"/><desc class="value">32.58</desc><desc class="x left">530.9774247491639</desc><desc class="y left">177.9739013922947</desc><desc class="x_label">2004</desc></g><g class="dots"><desc class="label">103 wickets in 88 innings (677.5 overs)</desc><circle class="dot reactive tooltip-trigger" cx="692.9548494983277" cy="206.69026741041364" r="2.5"/><desc class="value">29.18</desc><desc class="x left">692.9548494983277</desc><desc class="y left">206.69026741041364</desc><desc class="x_label">2005</desc></g></g><g class="series serie-2 color-2"/></g><g class="plot text-overlay" transform="translate(42, 46)"><g class="series serie-0 color-0"/><g class="series serie-1 color-1"/><g class="series serie-2 color-2"/></g><g class="plot tooltip-overlay" transform="translate(42, 46)"><g class="tooltip" style="opacity: 0" transform="translate(0 0)"><rect class="tooltip-box" height="0" rx="10" ry="10" width="0"/><g class="text"/></g></g><g class="legends" transform="translate(52, 545)"><g class="legend reactive activate-serie" id="activate-serie-0"><rect class="color-0 reactive" height="12" width="12" x="0.0" y="1.0"/><text x="17.0" y="11.2">Future Average</text></g><g class="legend reactive activate-serie" id="activate-serie-1"><rect class="color-1 reactive" height="12" width="12" x="369.0" y="1.0"/><text x="386.0" y="11.2">Past Average</text></g><g class="legend reactive activate-serie" id="activate-serie-2"><rect class="color-2 reactive" height="12" width="12" x="0.0" y="22.0"/><text x="17.0" y="32.2">Career Average</text></g></g></g></svg>