<?xml version='1.0' encoding='utf-8'?>
<svg xmlns:xlink="http://www.w3.org/1999/xlink" xmlns="http://www.w3.org/2000/svg" id="chart-10e7c0ca-54ca-40ce-91e5-f77427f7ab2a" class="pygal-chart" viewBox="0 0 800 600"><!--Generated with pygal 2.4.0 (lxml) ©Kozea 2012-2016 on 2019-08-04--><!--http://pygal.org--><!--http://github.com/Kozea/pygal--><defs><style type="text/css">#chart-10e7c0ca-54ca-40ce-91e5-f77427f7ab2a{-webkit-user-select:none;-webkit-font-smoothing:antialiased;font-family:Consolas,"Liberation Mono",Menlo,Courier,monospace}#chart-10e7c0ca-54ca-40ce-91e5-f77427f7ab2a .title{font-family:Consolas,"Liberation Mono",Menlo,Courier,monospace;font-size:16px}#chart-10e7c0ca-54ca-40ce-91e5-f77427f7ab2a .legends .legend text{font-family:Consolas,"Liberation Mono",Menlo,Courier,monospace;font-size:14px}#chart-10e7c0ca-54ca-40ce-91e5-f77427f7ab2a .axis text{font-family:Consolas,"Liberation Mono",Menlo,Courier,monospace;font-size:10px}#chart-10e7c0ca-54ca-40ce-91e5-f77427f7ab2a .axis text.major{font-family:Consolas,"Liberation Mono",Menlo,Courier,monospace;font-size:10px}#chart-10e7c0ca-54ca-40ce-91e5-f77427f7ab2a .text-overlay text.value{font-family:Consolas,"Liberation Mono",Menlo,Courier,monospace;font-size:16px}#chart-10e7c0ca-54ca-40ce-91e5-f77427f7ab2a .text-overlay text.label{font-family:Consolas,"Liberation Mono",Menlo,Courier,monospace;font-size:10px}#chart-10e7c0ca-54ca-40ce-91e5-f77427f7ab2a .tooltip{font-family:Consolas,"Liberation Mono",Menlo,Courier,monospace;font-size:14px}#chart-10e7c0ca-54ca-40ce-91e5-f77427f7ab2a text.no_data{font-family:Consolas,"Liberation Mono",Menlo,Courier,monospace;font-size:64px}
#chart-10e7c0ca-54ca-40ce-91e5-f77427f7ab2a{background-color:rgba(249,249,249,1)}#chart-10e7c0ca-54ca-40ce-91e5-f77427f7ab2a path,#chart-10e7c0ca-54ca-40ce-91e5-f77427f7ab2a line,#chart-10e7c0ca-54ca-40ce-91e5-f77427f7ab2a rect,#chart-10e7c0ca-54ca-40ce-91e5-f77427f7ab2a circle{-webkit-transition:150ms;-moz-transition:150ms;transition:150ms}#chart-10e7c0ca-54ca-40ce-91e5-f77427f7ab2a .graph &gt; .background{fill:rgba(249,249,249,1)}#chart-10e7c0ca-54ca-40ce-91e5-f77427f7ab2a .plot &gt; .background{fill:rgba(255,255,255,1)}#chart-10e7c0ca-54ca-40ce-91e5-f77427f7ab2a .graph{fill:rgba(0,0,0,.87)}#chart-10e7c0ca-54ca-40ce-91e5-f77427f7ab2a text.no_data{fill:rgba(0,0,0,1)}#chart-10e7c0ca-54ca-40ce-91e5-f77427f7ab2a .title{fill:rgba(0,0,0,1)}#chart-10e7c0ca-54ca-40ce-91e5-f77427f7ab2a .legends .legend text{fill:rgba(0,0,0,.87)}#chart-10e7c0ca-54ca-40ce-91e5-f77427f7ab2a .legends .legend:hover text{fill:rgba(0,0,0,1)}#chart-10e7c0ca-54ca-40ce-91e5-f77427f7ab2a .axis .line{stroke:rgba(0,0,0,1)}#chart-10e7c0ca-54ca-40ce-91e5-f77427f7ab2a .axis .guide.line{stroke:rgba(0,0,0,.54)}#chart-10e7c0ca-54ca-40ce-91e5-f77427f7ab2a .axis .major.line{stroke:rgba(0,0,0,.87)}#chart-10e7c0ca-54ca-40ce-91e5-f77427f7ab2a .axis text.major{fill:rgba(0,0,0,1)}#chart-10e7c0ca-54ca-40ce-91e5-f77427f7ab2a .axis.y .guides:hover .guide.line,#chart-10e7c0ca-54ca-40ce-91e5-f77427f7ab2a .line-graph .axis.x .guides:hover .guide.line,#chart-10e7c0ca-54ca-40ce-91e5-f77427f7ab2a .stackedline-graph .axis.x .guides:hover .guide.line,#chart-10e7c0ca-54ca-40ce-91e5-f77427f7ab2a .xy-graph .axis.x .guides:hover .guide.line{stroke:rgba(0,0,0,1)}#chart-10e7c0ca-54ca-40ce-91e5-f77427f7ab2a .axis .guides:hover text{fill:rgba(0,0,0,1)}#chart-10e7c0ca-54ca-40ce-91e5-f77427f7ab2a .reactive{fill-opacity:.7;stroke-opacity:.8}#chart-10e7c0ca-54ca-40ce-91e5-f77427f7ab2a .ci{stroke:rgba(0,0,0,.87)}#chart-10e7c0ca-54ca-40ce-91e5-f77427f7ab2a .reactive.active,#chart-10e7c0ca-54ca-40ce-91e5-f77427f7ab2a .active .reactive{fill-opacity:.8;stroke-opacity:.9;stroke-width:4}#chart-10e7c0ca-54ca-40ce-91e5-f77427f7ab2a .ci .reactive.active{stroke-width:1.5}#chart-10e7c0ca-54ca-40ce-91e5-f77427f7ab2a .series text{fill:rgba(0,0,0,1)}#chart-10e7c0ca-54ca-40ce-91e5-f77427f7ab2a .tooltip rect{fill:rgba(255,255,255,1);stroke:rgba(0,0,0,1);-webkit-transition:opacity 150ms;-moz-transition:opacity 150ms;transition:opacity 150ms}#chart-10e7c0ca-54ca-40ce-91e5-f77427f7ab2a .tooltip .label{fill:rgba(0,0,0,.87)}#chart-10e7c0ca-54ca-40ce-91e5-f77427f7ab2a .tooltip .label{fill:rgba(0,0,0,.87)}#chart-10e7c0ca-54ca-40ce-91e5-f77427f7ab2a .tooltip .legend{font-size:.8em;fill:rgba(0,0,0,.54)}#chart-10e7c0ca-54ca-40ce-91e5-f77427f7ab2a .tooltip .x_label{font-size:.6em;fill:rgba(0,0,0,1)}#chart-10e7c0ca-54ca-40ce-91e5-f77427f7ab2a .tooltip .xlink{font-size:.5em;text-decoration:underline}#chart-10e7c0ca-54ca-40ce-91e5-f77427f7ab2a .tooltip .value{font-size:1.5em}#chart-10e7c0ca-54ca-40ce-91e5-f77427f7ab2a .bound{font-size:.5em}#chart-10e7c0ca-54ca-40ce-91e5-f77427f7ab2a .max-value{font-size:.75em;fill:rgba(0,0,0,.54)}#chart-10e7c0ca-54ca-40ce-91e5-f77427f7ab2a .map-element{fill:rgba(255,255,255,1);stroke:rgba(0,0,0,.54) !important}#chart-10e7c0ca-54ca-40ce-91e5-f77427f7ab2a .map-element .reactive{fill-opacity:inherit;stroke-opacity:inherit}#chart-10e7c0ca-54ca-40ce-91e5-f77427f7ab2a .color-0,#chart-10e7c0ca-54ca-40ce-91e5-f77427f7ab2a .color-0 a:visited{stroke:red;fill:red}#chart-10e7c0ca-54ca-40ce-91e5-f77427f7ab2a .color-1,#chart-10e7c0ca-54ca-40ce-91e5-f77427f7ab2a .color-1 a:visited{stroke:blue;fill:blue}#chart-10e7c0ca-54ca-40ce-91e5-f77427f7ab2a .color-2,#chart-10e7c0ca-54ca-40ce-91e5-f77427f7ab2a .color-2 a:visited{stroke:green;fill:green}#chart-10e7c0ca-54ca-40ce-91e5-f77427f7ab2a .text-overlay .color-0 text{fill:white}#chart-10e7c0ca-54ca-40ce-91e5-f77427f7ab2a .text-overlay .color-1 text{fill:white}#chart-10e7c0ca-54ca-40ce-91e5-f77427f7ab2a .text-overlay .color-2 text{fill:white}
#chart-10e7c0ca-54ca-40ce-91e5-f77427f7ab2a text.no_data{text-anchor:middle}#chart-10e7c0ca-54ca-40ce-91e5-f77427f7ab2a .guide.line{fill:none}#chart-10e7c0ca-54ca-40ce-91e5-f77427f7ab2a .centered{text-anchor:middle}#chart-10e7c0ca-54ca-40ce-91e5-f77427f7ab2a .title{text-anchor:middle}#chart-10e7c0ca-54ca-40ce-91e5-f77427f7ab2a .legends .legend text{fill-opacity:1}#chart-10e7c0ca-54ca-40ce-91e5-f77427f7ab2a .axis.x text{text-anchor:middle}#chart-10e7c0ca-54ca-40ce-91e5-f77427f7ab2a .axis.x:not(.web) text[transform]{text-anchor:start}#chart-10e7c0ca-54ca-40ce-91e5-f77427f7ab2a .axis.x:not(.web) text[transform].backwards{text-anchor:end}#chart-10e7c0ca-54ca-40ce-91e5-f77427f7ab2a .axis.y text{text-anchor:end}#chart-10e7c0ca-54ca-40ce-91e5-f77427f7ab2a .axis.y text[transform].backwards{text-anchor:start}#chart-10e7c0ca-54ca-40ce-91e5-f77427f7ab2a .axis.y2 text{text-anchor:start}#chart-10e7c0ca-54ca-40ce-91e5-f77427f7ab2a .axis.y2 text[transform].backwards{text-anchor:end}#chart-10e7c0ca-54ca-40ce-91e5-f77427f7ab2a .axis .guide.line{stroke-dasharray:4,4}#chart-10e7c0ca-54ca-40ce-91e5-f77427f7ab2a .axis .major.guide.line{stroke-dasharray:6,6}#chart-10e7c0ca-54ca-40ce-91e5-f77427f7ab2a .horizontal .axis.y .guide.line,#chart-10e7c0ca-54ca-40ce-91e5-f77427f7ab2a .horizontal .axis.y2 .guide.line,#chart-10e7c0ca-54ca-40ce-91e5-f77427f7ab2a .vertical .axis.x .guide.line{opacity:0}#chart-10e7c0ca-54ca-40ce-91e5-f77427f7ab2a .horizontal .axis.always_show .guide.line,#chart-10e7c0ca-54ca-40ce-91e5-f77427f7ab2a .vertical .axis.always_show .guide.line{opacity:1 !important}#chart-10e7c0ca-54ca-40ce-91e5-f77427f7ab2a .axis.y .guides:hover .guide.line,#chart-10e7c0ca-54ca-40ce-91e5-f77427f7ab2a .axis.y2 .guides:hover .guide.line,#chart-10e7c0ca-54ca-40ce-91e5-f77427f7ab2a .axis.x .guides:hover .guide.line{opacity:1}#chart-10e7c0ca-54ca-40ce-91e5-f77427f7ab2a .axis .guides:hover text{opacity:1}#chart-10e7c0ca-54ca-40ce-91e5-f77427f7ab2a .nofill{fill:none}#chart-10e7c0ca-54ca-40ce-91e5-f77427f7ab2a .subtle-fill{fill-opacity:.2}#chart-10e7c0ca-54ca-40ce-91e5-f77427f7ab2a .dot{stroke-width:1px;fill-opacity:1}#chart-10e7c0ca-54ca-40ce-91e5-f77427f7ab2a .dot.active{stroke-width:5px}#chart-10e7c0ca-54ca-40ce-91e5-f77427f7ab2a .dot.negative{fill:transparent}#chart-10e7c0ca-54ca-40ce-91e5-f77427f7ab2a text,#chart-10e7c0ca-54ca-40ce-91e5-f77427f7ab2a tspan{stroke:none !important}#chart-10e7c0ca-54ca-40ce-91e5-f77427f7ab2a .series text.active{opacity:1}#chart-10e7c0ca-54ca-40ce-91e5-f77427f7ab2a .tooltip rect{fill-opacity:.95;stroke-width:.5}#chart-10e7c0ca-54ca-40ce-91e5-f77427f7ab2a .tooltip text{fill-opacity:1}#chart-10e7c0ca-54ca-40ce-91e5-f77427f7ab2a .showable{visibility:hidden}#chart-10e7c0ca-54ca-40ce-91e5-f77427f7ab2a .showable.shown{visibility:visible}#chart-10e7c0ca-54ca-40ce-91e5-f77427f7ab2a .gauge-background{fill:rgba(229,229,229,1);stroke:none}#chart-10e7c0ca-54ca-40ce-91e5-f77427f7ab2a .bg-lines{stroke:rgba(249,249,249,1);stroke-width:2px}</style><script type="text/javascript">window.pygal = window.pygal || {};window.pygal.config = window.pygal.config || {};window.pygal.config['10e7c0ca-54ca-40ce-91e5-f77427f7ab2a'] = {"allow_interruptions": false, "box_mode": "extremes", "classes": ["pygal-chart"], "css": ["file://style.css", "file://graph.css"], "defs": [], "disable_xml_declaration": false, "dots_size": 2.5, "dynamic_print_values": false, "explicit_size": false, "fill": false, "force_uri_protocol": "https", "formatter": null, "half_pie": false, "height": 600, "include_x_axis": false, "inner_radius": 0, "interpolate": null, "interpolation_parameters": {}, "interpolation_precision": 250, "inverse_y_axis": false, "js": ["//kozea.github.io/pygal.js/2.0.x/pygal-tooltips.min.js"], "legend_at_bottom": true, "legend_at_bottom_columns": null, "legend_box_size": 12, "logarithmic": false, "margin": 20, "margin_bottom": null, "margin_left": null, "margin_right": null, "margin_top": null, "max_scale": 16, "min_scale": 4, "missing_value_fill_truncation": "x", "no_data_text": "No data", "no_prefix": false, "order_min": null, "pretty_print": false, "print_labels": false, "print_values": false, "print_values_position": "center", "print_zeroes": true, "range": null, "rounded_bars": null, "secondary_range": null, "show_dots": true, "show_legend": true, "show_minor_x_labels": false, "show_minor_y_labels": true, "show_only_major_dots": false, "show_x_guides": false, "show_x_labels": true, "show_y_guides": true, "show_y_labels": true, "spacing": 10, "stack_from_top": false, "strict": false, "stroke": true, "stroke_style": null, "style": {"background": "rgba(249, 249, 249, 1)", "ci_colors": [], "colors": ["red", "blue", "green", "#a3a3a3"], "font_family": "Consolas, \"Liberation Mono\", Menlo, Courier, monospace", "foreground": "rgba(0, 0, 0, .87)", "foreground_strong": "rgba(0, 0, 0, 1)", "foreground_subtle": "rgba(0, 0, 0, .54)", "guide_stroke_dasharray": "4,4", "label_font_family": "Consolas, \"Liberation Mono\", Menlo, Courier, monospace", "label_font_size": 10, "legend_font_family": "Consolas, \"Liberation Mono\", Menlo, Courier, monospace", "legend_font_size": 14, "major_guide_stroke_dasharray": "6,6", "major_label_font_family": "Consolas, \"Liberation Mono\", Menlo, Courier, monospace", "major_label_font_size": 10, "no_data_font_family": "Consolas, \"Liberation Mono\", Menlo, Courier, monospace", "no_data_font_size": 64, "opacity": ".7", "opacity_hover": ".8", "plot_background": "rgba(255, 255, 255, 1)", "stroke_opacity": ".8", "stroke_opacity_hover": ".9", "title_font_family": "Consolas, \"Liberation Mono\", Menlo, Courier, monospace", "title_font_size": 16, "tooltip_font_family": "Consolas, \"Liberation Mono\", Menlo, Courier, monospace", "tooltip_font_size": 14, "transition": "150ms", "value_background": "rgba(229, 229, 229, 1)", "value_colors": [], "value_font_family": "Consolas, \"Liberation Mono\", Menlo, Courier, monospace", "value_font_size": 16, "value_label_font_family": "Consolas, \"Liberation Mono\", Menlo, Courier, monospace", "value_label_font_size": 10}, "title": "DR Tuffey: Future and Past Averages in ODIs", "tooltip_border_radius": 10, "tooltip_fancy_mode": true, "truncate_label": null, "truncate_legend": null, "width": 800, "x_label_rotation": 45, "x_labels": ["2000", "0", "0", "2001", "0", "0", "0", "0", "0", "0", "0", "0", "0", "0", "0", "0", "0", "0", "0", "2002", "0", "0", "0", "0", "0", "0", "0", "0", "0", "0", "0", "0", "0", "0", "0", "0", "0", "0", "2003", "0", "0", "0", "0", "0", "0", "0", "0", "0", "0", "0", "0", "0", "0", "0", "0", "0", "0", "0", "0", "2004", "0", "0", "0", "0", "0", "0", "0", "0", "0", "0", "0", "2005", "0", "0", "2007", "0", "0", "0", "2009", "0", "0", "2010", "0", "0", "0", "0", "0", "0", "0", "0", "0", "0"], "x_labels_major": ["2000", "2001", "2002", "2003", "2004", "2005", "2007", "2009", "2010"], "x_labels_major_count": null, "x_labels_major_every": null, "x_title": null, "xrange": null, "y_label_rotation": 0, "y_labels": null, "y_labels_major": null, "y_labels_major_count": null, "y_labels_major_every": null, "y_title": null, "zero": 120.0, "legends": ["Future Average", "Past Average", "Career Average"]}</script><script type="text/javascript" xlink:href="https://kozea.github.io/pygal.js/2.0.x/pygal-tooltips.min.js"/></defs><title>DR Tuffey: Future and Past Averages in ODIs</title><g class="graph line-graph vertical"><rect class="background" height="600" width="800" x="0" y="0"/><g class="plot" transform="translate(48, 46)"><rect class="background" height="462.02943725152284" width="732.0" x="0" y="0"/><g class="axis y always_show"><g class="guides"><path class="axis major line" d="M0.000000 453.144256 h732.000000"/><text class="major" x="-5" y="456.6442557659166">0</text><title>0</title></g><g class="guides"><path class="guide line" d="M0.000000 413.478267 h732.000000"/><text class="" x="-5" y="416.9782669908889">10</text><title>10</title></g><g class="guides"><path class="guide line" d="M0.000000 373.812278 h732.000000"/><text class="" x="-5" y="377.31227821586117">20</text><title>20</title></g><g class="guides"><path class="guide line" d="M0.000000 334.146289 h732.000000"/><text class="" x="-5" y="337.64628944083347">30</text><title>30</title></g><g class="guides"><path class="guide line" d="M0.000000 294.480301 h732.000000"/><text class="" x="-5" y="297.98030066580577">40</text><title>40</title></g><g class="guides"><path class="major guide line" d="M0.000000 254.814312 h732.000000"/><text class="major" x="-5" y="258.314311890778">50</text><title>50</title></g><g class="guides"><path class="guide line" d="M0.000000 215.148323 h732.000000"/><text class="" x="-5" y="218.6483231157503">60</text><title>60</title></g><g class="guides"><path class="guide line" d="M0.000000 175.482334 h732.000000"/><text class="" x="-5" y="178.98233434072262">70</text><title>70</title></g><g class="guides"><path class="guide line" d="M0.000000 135.816346 h732.000000"/><text class="" x="-5" y="139.31634556569492">80</text><title>80</title></g><g class="guides"><path class="guide line" d="M0.000000 96.150357 h732.000000"/><text class="" x="-5" y="99.65035679066716">90</text><title>90</title></g><g class="guides"><path class="major guide line" d="M0.000000 56.484368 h732.000000"/><text class="major" x="-5" y="59.98436801563946">100</text><title>100</title></g><g class="guides"><path class="guide line" d="M0.000000 16.818379 h732.000000"/><text class="" x="-5" y="20.318379240611705">110</text><title>110</title></g></g><g class="axis x"><g class="guides"><path class="major line" d="M14.076923 0.000000 v462.029437"/><text class="major" x="14.076923076923077" y="477.02943725152284" transform="rotate(45 14.076923 477.029437)">2000</text></g><g class="guides"><path class="major guide line" d="M37.280642 0.000000 v462.029437"/><text class="major" x="37.280642434488584" y="477.02943725152284" transform="rotate(45 37.280642 477.029437)">2001</text></g><g class="guides"><path class="major guide line" d="M161.033812 0.000000 v462.029437"/><text class="major" x="161.03381234150464" y="477.02943725152284" transform="rotate(45 161.033812 477.029437)">2002</text></g><g class="guides"><path class="major guide line" d="M307.990702 0.000000 v462.029437"/><text class="major" x="307.99070160608625" y="477.02943725152284" transform="rotate(45 307.990702 477.029437)">2003</text></g><g class="guides"><path class="major guide line" d="M470.416737 0.000000 v462.029437"/><text class="major" x="470.41673710904485" y="477.02943725152284" transform="rotate(45 470.416737 477.029437)">2004</text></g><g class="guides"><path class="major guide line" d="M563.231615 0.000000 v462.029437"/><text class="major" x="563.2316145393069" y="477.02943725152284" transform="rotate(45 563.231615 477.029437)">2005</text></g><g class="guides"><path class="major guide line" d="M586.435334 0.000000 v462.029437"/><text class="major" x="586.4353338968724" y="477.02943725152284" transform="rotate(45 586.435334 477.029437)">2007</text></g><g class="guides"><path class="major guide line" d="M617.373626 0.000000 v462.029437"/><text class="major" x="617.3736263736264" y="477.02943725152284" transform="rotate(45 617.373626 477.029437)">2009</text></g><g class="guides"><path class="major guide line" d="M640.577346 0.000000 v462.029437"/><text class="major" x="640.5773457311918" y="477.02943725152284" transform="rotate(45 640.577346 477.029437)">2010</text></g></g><g class="series serie-0 color-0"><path class="line reactive nofill" d="M14.076923 325.697434 L21.811496 326.570086 29.546069 327.165075 37.280642 328.632717 45.015216 327.641067 52.749789 327.165075 60.484362 326.728750 68.218935 322.643153 75.953508 320.739185 83.688081 317.764236 91.422654 317.883234 99.157227 315.503275 106.891801 316.217263 114.626374 317.327910 122.360947 317.605572 130.095520 316.375926 137.830093 315.661939 145.564666 314.749621 153.299239 315.582607 161.033812 317.288244 168.768385 317.962566 176.502959 317.407242 184.237532 319.271544 191.972105 319.192212 199.706678 316.217263 207.441251 315.899935 215.175824 316.851918 222.910397 317.129580 230.644970 318.438558 238.379544 316.098265 246.114117 317.526240 253.848690 317.248578 261.583263 317.327910 269.317836 319.112880 277.052409 320.739185 284.786982 323.436472 292.521555 324.666118 300.256128 322.246493 307.990702 320.382191 315.725275 316.931250 323.459848 314.828953 331.194421 315.146281 338.928994 315.899935 346.663567 312.964651 354.398140 315.423943 362.132713 315.860269 369.867287 312.885319 377.601860 313.004317 385.336433 312.012668 393.071006 308.958387 400.805579 302.572162 408.540152 304.714126 416.274725 305.864439 424.009298 294.956293 431.743872 286.150443 439.478445 283.611820 447.213018 286.428105 454.947591 288.649400 462.682164 293.607649 470.416737 298.883225 478.151310 304.277800 485.885883 303.206818 493.620456 299.517881 501.355030 288.808064 509.089603 287.776749 516.824176 282.421840 524.558749 288.014744 532.293322 287.300757 540.027895 271.712023 547.762468 273.457327 555.497041 280.160879 563.231615 266.912438 570.966188 275.797620 578.700761 281.390524 586.435334 286.348773 594.169907 292.100341 601.904480 307.966737 609.639053 314.511625 617.373626 322.881149 625.108199 323.357140 632.842773 320.025197 640.577346 312.052334 648.311919 313.083649 656.046492 319.588872 663.781065 300.668195 671.515638 313.321645 679.250211 332.162990 686.984784 352.471976 694.719358 319.073214 702.453931 343.666127 710.188504 366.870730 717.923077 342.079487"/></g><g class="series serie-1 color-1"><path class="line reactive nofill" d="M14.076923 453.144256 L21.811496 357.945883 29.546069 167.549137 37.280642 8.885181 45.015216 257.471933 52.749789 295.273620 60.484362 307.689075 68.218935 356.359243 75.953508 362.824799 83.688081 372.304971 91.422654 365.641085 99.157227 368.893696 106.891801 365.879080 114.626374 361.158828 122.360947 358.144213 130.095520 361.039830 137.830093 361.753818 145.564666 363.023129 153.299239 360.167178 161.033812 354.296612 168.768385 350.766339 176.502959 351.202665 184.237532 345.451096 191.972105 344.776774 199.706678 349.893687 207.441251 349.655691 215.175824 346.403080 222.910397 344.895772 230.644970 341.960489 238.379544 345.490762 246.114117 341.881157 253.848690 341.762159 261.583263 340.968840 269.317836 337.716228 277.052409 334.741279 284.786982 329.862363 292.521555 327.482403 300.256128 331.330004 307.990702 333.709964 315.725275 337.954224 323.459848 339.778860 331.194421 338.826876 338.928994 337.478232 346.663567 339.937524 354.398140 337.200571 362.132713 336.327919 369.867287 338.549214 377.601860 337.954224 385.336433 338.469882 393.071006 340.215186 400.805579 343.626461 408.540152 341.960489 416.274725 340.492848 424.009298 345.451096 431.743872 348.307047 439.478445 347.910388 447.213018 345.609760 454.947591 343.745459 462.682164 341.325833 470.416737 338.747544 478.151310 336.129589 485.885883 336.208921 493.620456 336.922909 501.355030 339.540864 509.089603 339.302868 516.824176 339.778860 524.558749 337.954224 532.293322 337.597230 540.027895 339.977190 547.762468 339.540864 555.497041 337.755894 563.231615 339.580530 570.966188 337.478232 578.700761 335.574265 586.435334 334.463617 594.169907 333.194306 601.904480 329.664033 609.639053 328.037727 617.373626 326.292424 625.108199 326.173426 632.842773 326.689084 640.577346 327.720399 648.311919 327.403071 656.046492 326.451088 663.781065 327.958395 671.515638 326.689084 679.250211 325.221442 686.984784 323.595136 694.719358 326.014762 702.453931 324.864448 710.188504 324.150460 717.923077 325.419772"/></g><g class="series serie-2 color-2"><path class="line reactive nofill" d="M14.076923 325.697434 L21.811496 325.697434 29.546069 325.697434 37.280642 325.697434 45.015216 325.697434 52.749789 325.697434 60.484362 325.697434 68.218935 325.697434 75.953508 325.697434 83.688081 325.697434 91.422654 325.697434 99.157227 325.697434 106.891801 325.697434 114.626374 325.697434 122.360947 325.697434 130.095520 325.697434 137.830093 325.697434 145.564666 325.697434 153.299239 325.697434 161.033812 325.697434 168.768385 325.697434 176.502959 325.697434 184.237532 325.697434 191.972105 325.697434 199.706678 325.697434 207.441251 325.697434 215.175824 325.697434 222.910397 325.697434 230.644970 325.697434 238.379544 325.697434 246.114117 325.697434 253.848690 325.697434 261.583263 325.697434 269.317836 325.697434 277.052409 325.697434 284.786982 325.697434 292.521555 325.697434 300.256128 325.697434 307.990702 325.697434 315.725275 325.697434 323.459848 325.697434 331.194421 325.697434 338.928994 325.697434 346.663567 325.697434 354.398140 325.697434 362.132713 325.697434 369.867287 325.697434 377.601860 325.697434 385.336433 325.697434 393.071006 325.697434 400.805579 325.697434 408.540152 325.697434 416.274725 325.697434 424.009298 325.697434 431.743872 325.697434 439.478445 325.697434 447.213018 325.697434 454.947591 325.697434 462.682164 325.697434 470.416737 325.697434 478.151310 325.697434 485.885883 325.697434 493.620456 325.697434 501.355030 325.697434 509.089603 325.697434 516.824176 325.697434 524.558749 325.697434 532.293322 325.697434 540.027895 325.697434 547.762468 325.697434 555.497041 325.697434 563.231615 325.697434 570.966188 325.697434 578.700761 325.697434 586.435334 325.697434 594.169907 325.697434 601.904480 325.697434 609.639053 325.697434 617.373626 325.697434 625.108199 325.697434 632.842773 325.697434 640.577346 325.697434 648.311919 325.697434 656.046492 325.697434 663.781065 325.697434 671.515638 325.697434 679.250211 325.697434 686.984784 325.697434 694.719358 325.697434 702.453931 325.697434 710.188504 325.697434 717.923077 325.697434"/></g></g><g class="titles"><text class="title plot_title" x="400.0" y="26">DR Tuffey: Future and Past Averages in ODIs</text></g><g class="plot overlay" transform="translate(48, 46)"><g class="series serie-0 color-0"><g class="dots"><desc class="label">110 wickets in 92 innings (722.1 overs)</desc><circle class="dot reactive tooltip-trigger" cx="14.076923076923077" cy="325.6974338317525" r="2.5"/><desc class="value">32.13</desc><desc class="x top">14.076923076923077</desc><desc class="y top">325.6974338317525</desc><desc class="x_label">2000</desc></g><g class="dots"><desc class="label">109 wickets in 89 innings (705.1 overs)</desc><circle class="dot reactive tooltip-trigger" cx="37.280642434488584" cy="328.63271700110465" r="2.5"/><desc class="value">31.39</desc><desc class="x top">37.280642434488584</desc><desc class="y top">328.63271700110465</desc><desc class="x_label">2001</desc></g><g class="dots"><desc class="label">85 wickets in 73 innings (589.1 overs)</desc><circle class="dot reactive tooltip-trigger" cx="161.03381234150464" cy="317.2882442114467" r="2.5"/><desc class="value">34.25</desc><desc class="x top">161.03381234150464</desc><desc class="y top">317.2882442114467</desc><desc class="x_label">2002</desc></g><g class="dots"><desc class="label">66 wickets in 54 innings (446.1 overs)</desc><circle class="dot reactive tooltip-trigger" cx="307.99070160608625" cy="320.3821913358988" r="2.5"/><desc class="value">33.47</desc><desc class="x top">307.99070160608625</desc><desc class="y top">320.3821913358988</desc><desc class="x_label">2003</desc></g><g class="dots"><desc class="label">36 wickets in 33 innings (262.3 overs)</desc><circle class="dot reactive tooltip-trigger" cx="470.41673710904485" cy="298.8832254198338" r="2.5"/><desc class="value">38.89</desc><desc class="x left top">470.41673710904485</desc><desc class="y left top">298.8832254198338</desc><desc class="x_label">2004</desc></g><g class="dots"><desc class="label">21 wickets in 21 innings (161.5 overs)</desc><circle class="dot reactive tooltip-trigger" cx="563.2316145393069" cy="266.91243846716145" r="2.5"/><desc class="value">46.95</desc><desc class="x left top">563.2316145393069</desc><desc class="y left top">266.91243846716145</desc><desc class="x_label">2005</desc></g><g class="dots"><desc class="label">20 wickets in 18 innings (143.5 overs)</desc><circle class="dot reactive tooltip-trigger" cx="586.4353338968724" cy="286.3487729669251" r="2.5"/><desc class="value">42.05</desc><desc class="x left top">586.4353338968724</desc><desc class="y left top">286.3487729669251</desc><desc class="x_label">2007</desc></g><g class="dots"><desc class="label">19 wickets in 14 innings (109.5 overs)</desc><circle class="dot reactive tooltip-trigger" cx="617.3736263736264" cy="322.88114862872555" r="2.5"/><desc class="value">32.84</desc><desc class="x left top">617.3736263736264</desc><desc class="y left top">322.88114862872555</desc><desc class="x_label">2009</desc></g><g class="dots"><desc class="label">14 wickets in 11 innings (83.1 overs)</desc><circle class="dot reactive tooltip-trigger" cx="640.5773457311918" cy="312.052333693143" r="2.5"/><desc class="value">35.57</desc><desc class="x left top">640.5773457311918</desc><desc class="y left top">312.052333693143</desc><desc class="x_label">2010</desc></g></g><g class="series serie-1 color-1"><g class="dots"><desc class="label">0 wickets over 0 innings</desc><circle class="dot reactive tooltip-trigger" cx="14.076923076923077" cy="453.1442557659166" r="2.5"/><desc class="value">0</desc><desc class="x top">14.076923076923077</desc><desc class="y top">453.1442557659166</desc><desc class="x_label">2000</desc></g><g class="dots"><desc class="label">1 wickets in 3 innings (17.0 overs)</desc><circle class="dot reactive tooltip-trigger" cx="37.280642434488584" cy="8.885181485606154" r="2.5"/><desc class="value">112</desc><desc class="x ">37.280642434488584</desc><desc class="y ">8.885181485606154</desc><desc class="x_label">2001</desc></g><g class="dots"><desc class="label">25 wickets in 19 innings (133.0 overs)</desc><circle class="dot reactive tooltip-trigger" cx="161.03381234150464" cy="354.29661173854754" r="2.5"/><desc class="value">24.92</desc><desc class="x top">161.03381234150464</desc><desc class="y top">354.29661173854754</desc><desc class="x_label">2002</desc></g><g class="dots"><desc class="label">44 wickets in 38 innings (276.0 overs)</desc><circle class="dot reactive tooltip-trigger" cx="307.99070160608625" cy="333.70996356430817" r="2.5"/><desc class="value">30.11</desc><desc class="x top">307.99070160608625</desc><desc class="y top">333.70996356430817</desc><desc class="x_label">2003</desc></g><g class="dots"><desc class="label">74 wickets in 59 innings (459.4 overs)</desc><circle class="dot reactive tooltip-trigger" cx="470.41673710904485" cy="338.74754413873666" r="2.5"/><desc class="value">28.84</desc><desc class="x left top">470.41673710904485</desc><desc class="y left top">338.74754413873666</desc><desc class="x_label">2004</desc></g><g class="dots"><desc class="label">89 wickets in 71 innings (560.2 overs)</desc><circle class="dot reactive tooltip-trigger" cx="563.2316145393069" cy="339.5805299030123" r="2.5"/><desc class="value">28.63</desc><desc class="x left top">563.2316145393069</desc><desc class="y left top">339.5805299030123</desc><desc class="x_label">2005</desc></g><g class="dots"><desc class="label">90 wickets in 74 innings (578.2 overs)</desc><circle class="dot reactive tooltip-trigger" cx="586.4353338968724" cy="334.4636173510337" r="2.5"/><desc class="value">29.92</desc><desc class="x left top">586.4353338968724</desc><desc class="y left top">334.4636173510337</desc><desc class="x_label">2007</desc></g><g class="dots"><desc class="label">91 wickets in 78 innings (612.2 overs)</desc><circle class="dot reactive tooltip-trigger" cx="617.3736263736264" cy="326.29242366337803" r="2.5"/><desc class="value">31.98</desc><desc class="x left top">617.3736263736264</desc><desc class="y left top">326.29242366337803</desc><desc class="x_label">2009</desc></g><g class="dots"><desc class="label">96 wickets in 81 innings (639.0 overs)</desc><circle class="dot reactive tooltip-trigger" cx="640.5773457311918" cy="327.720399259279" r="2.5"/><desc class="value">31.62</desc><desc class="x left top">640.5773457311918</desc><desc class="y left top">327.720399259279</desc><desc class="x_label">2010</desc></g></g><g class="series serie-2 color-2"/></g><g class="plot text-overlay" transform="translate(48, 46)"><g class="series serie-0 color-0"/><g class="series serie-1 color-1"/><g class="series serie-2 color-2"/></g><g class="plot tooltip-overlay" transform="translate(48, 46)"><g class="tooltip" style="opacity: 0" transform="translate(0 0)"><rect class="tooltip-box" height="0" rx="10" ry="10" width="0"/><g class="text"/></g></g><g class="legends" transform="translate(58, 545)"><g class="legend reactive activate-serie" id="activate-serie-0"><rect class="color-0 reactive" height="12" width="12" x="0.0" y="1.0"/><text x="17.0" y="11.2">Future Average</text></g><g class="legend reactive activate-serie" id="activate-serie-1"><rect class="color-1 reactive" height="12" width="12" x="366.0" y="1.0"/><text x="383.0" y="11.2">Past Average</text></g><g class="legend reactive activate-serie" id="activate-serie-2"><rect class="color-2 reactive" height="12" width="12" x="0.0" y="22.0"/><text x="17.0" y="32.2">Career Average</text></g></g></g></svg>