<?xml version='1.0' encoding='utf-8'?>
<svg xmlns:xlink="http://www.w3.org/1999/xlink" xmlns="http://www.w3.org/2000/svg" id="chart-ae7ffefc-ae08-4c8a-a461-22fbd34bead2" class="pygal-chart" viewBox="0 0 800 600"><!--Generated with pygal 2.4.0 (lxml) ©Kozea 2012-2016 on 2019-08-04--><!--http://pygal.org--><!--http://github.com/Kozea/pygal--><defs><style type="text/css">#chart-ae7ffefc-ae08-4c8a-a461-22fbd34bead2{-webkit-user-select:none;-webkit-font-smoothing:antialiased;font-family:Consolas,"Liberation Mono",Menlo,Courier,monospace}#chart-ae7ffefc-ae08-4c8a-a461-22fbd34bead2 .title{font-family:Consolas,"Liberation Mono",Menlo,Courier,monospace;font-size:16px}#chart-ae7ffefc-ae08-4c8a-a461-22fbd34bead2 .legends .legend text{font-family:Consolas,"Liberation Mono",Menlo,Courier,monospace;font-size:14px}#chart-ae7ffefc-ae08-4c8a-a461-22fbd34bead2 .axis text{font-family:Consolas,"Liberation Mono",Menlo,Courier,monospace;font-size:10px}#chart-ae7ffefc-ae08-4c8a-a461-22fbd34bead2 .axis text.major{font-family:Consolas,"Liberation Mono",Menlo,Courier,monospace;font-size:10px}#chart-ae7ffefc-ae08-4c8a-a461-22fbd34bead2 .text-overlay text.value{font-family:Consolas,"Liberation Mono",Menlo,Courier,monospace;font-size:16px}#chart-ae7ffefc-ae08-4c8a-a461-22fbd34bead2 .text-overlay text.label{font-family:Consolas,"Liberation Mono",Menlo,Courier,monospace;font-size:10px}#chart-ae7ffefc-ae08-4c8a-a461-22fbd34bead2 .tooltip{font-family:Consolas,"Liberation Mono",Menlo,Courier,monospace;font-size:14px}#chart-ae7ffefc-ae08-4c8a-a461-22fbd34bead2 text.no_data{font-family:Consolas,"Liberation Mono",Menlo,Courier,monospace;font-size:64px}
#chart-ae7ffefc-ae08-4c8a-a461-22fbd34bead2{background-color:rgba(249,249,249,1)}#chart-ae7ffefc-ae08-4c8a-a461-22fbd34bead2 path,#chart-ae7ffefc-ae08-4c8a-a461-22fbd34bead2 line,#chart-ae7ffefc-ae08-4c8a-a461-22fbd34bead2 rect,#chart-ae7ffefc-ae08-4c8a-a461-22fbd34bead2 circle{-webkit-transition:150ms;-moz-transition:150ms;transition:150ms}#chart-ae7ffefc-ae08-4c8a-a461-22fbd34bead2 .graph &gt; .background{fill:rgba(249,249,249,1)}#chart-ae7ffefc-ae08-4c8a-a461-22fbd34bead2 .plot &gt; .background{fill:rgba(255,255,255,1)}#chart-ae7ffefc-ae08-4c8a-a461-22fbd34bead2 .graph{fill:rgba(0,0,0,.87)}#chart-ae7ffefc-ae08-4c8a-a461-22fbd34bead2 text.no_data{fill:rgba(0,0,0,1)}#chart-ae7ffefc-ae08-4c8a-a461-22fbd34bead2 .title{fill:rgba(0,0,0,1)}#chart-ae7ffefc-ae08-4c8a-a461-22fbd34bead2 .legends .legend text{fill:rgba(0,0,0,.87)}#chart-ae7ffefc-ae08-4c8a-a461-22fbd34bead2 .legends .legend:hover text{fill:rgba(0,0,0,1)}#chart-ae7ffefc-ae08-4c8a-a461-22fbd34bead2 .axis .line{stroke:rgba(0,0,0,1)}#chart-ae7ffefc-ae08-4c8a-a461-22fbd34bead2 .axis .guide.line{stroke:rgba(0,0,0,.54)}#chart-ae7ffefc-ae08-4c8a-a461-22fbd34bead2 .axis .major.line{stroke:rgba(0,0,0,.87)}#chart-ae7ffefc-ae08-4c8a-a461-22fbd34bead2 .axis text.major{fill:rgba(0,0,0,1)}#chart-ae7ffefc-ae08-4c8a-a461-22fbd34bead2 .axis.y .guides:hover .guide.line,#chart-ae7ffefc-ae08-4c8a-a461-22fbd34bead2 .line-graph .axis.x .guides:hover .guide.line,#chart-ae7ffefc-ae08-4c8a-a461-22fbd34bead2 .stackedline-graph .axis.x .guides:hover .guide.line,#chart-ae7ffefc-ae08-4c8a-a461-22fbd34bead2 .xy-graph .axis.x .guides:hover .guide.line{stroke:rgba(0,0,0,1)}#chart-ae7ffefc-ae08-4c8a-a461-22fbd34bead2 .axis .guides:hover text{fill:rgba(0,0,0,1)}#chart-ae7ffefc-ae08-4c8a-a461-22fbd34bead2 .reactive{fill-opacity:.7;stroke-opacity:.8}#chart-ae7ffefc-ae08-4c8a-a461-22fbd34bead2 .ci{stroke:rgba(0,0,0,.87)}#chart-ae7ffefc-ae08-4c8a-a461-22fbd34bead2 .reactive.active,#chart-ae7ffefc-ae08-4c8a-a461-22fbd34bead2 .active .reactive{fill-opacity:.8;stroke-opacity:.9;stroke-width:4}#chart-ae7ffefc-ae08-4c8a-a461-22fbd34bead2 .ci .reactive.active{stroke-width:1.5}#chart-ae7ffefc-ae08-4c8a-a461-22fbd34bead2 .series text{fill:rgba(0,0,0,1)}#chart-ae7ffefc-ae08-4c8a-a461-22fbd34bead2 .tooltip rect{fill:rgba(255,255,255,1);stroke:rgba(0,0,0,1);-webkit-transition:opacity 150ms;-moz-transition:opacity 150ms;transition:opacity 150ms}#chart-ae7ffefc-ae08-4c8a-a461-22fbd34bead2 .tooltip .label{fill:rgba(0,0,0,.87)}#chart-ae7ffefc-ae08-4c8a-a461-22fbd34bead2 .tooltip .label{fill:rgba(0,0,0,.87)}#chart-ae7ffefc-ae08-4c8a-a461-22fbd34bead2 .tooltip .legend{font-size:.8em;fill:rgba(0,0,0,.54)}#chart-ae7ffefc-ae08-4c8a-a461-22fbd34bead2 .tooltip .x_label{font-size:.6em;fill:rgba(0,0,0,1)}#chart-ae7ffefc-ae08-4c8a-a461-22fbd34bead2 .tooltip .xlink{font-size:.5em;text-decoration:underline}#chart-ae7ffefc-ae08-4c8a-a461-22fbd34bead2 .tooltip .value{font-size:1.5em}#chart-ae7ffefc-ae08-4c8a-a461-22fbd34bead2 .bound{font-size:.5em}#chart-ae7ffefc-ae08-4c8a-a461-22fbd34bead2 .max-value{font-size:.75em;fill:rgba(0,0,0,.54)}#chart-ae7ffefc-ae08-4c8a-a461-22fbd34bead2 .map-element{fill:rgba(255,255,255,1);stroke:rgba(0,0,0,.54) !important}#chart-ae7ffefc-ae08-4c8a-a461-22fbd34bead2 .map-element .reactive{fill-opacity:inherit;stroke-opacity:inherit}#chart-ae7ffefc-ae08-4c8a-a461-22fbd34bead2 .color-0,#chart-ae7ffefc-ae08-4c8a-a461-22fbd34bead2 .color-0 a:visited{stroke:red;fill:red}#chart-ae7ffefc-ae08-4c8a-a461-22fbd34bead2 .color-1,#chart-ae7ffefc-ae08-4c8a-a461-22fbd34bead2 .color-1 a:visited{stroke:blue;fill:blue}#chart-ae7ffefc-ae08-4c8a-a461-22fbd34bead2 .color-2,#chart-ae7ffefc-ae08-4c8a-a461-22fbd34bead2 .color-2 a:visited{stroke:green;fill:green}#chart-ae7ffefc-ae08-4c8a-a461-22fbd34bead2 .text-overlay .color-0 text{fill:white}#chart-ae7ffefc-ae08-4c8a-a461-22fbd34bead2 .text-overlay .color-1 text{fill:white}#chart-ae7ffefc-ae08-4c8a-a461-22fbd34bead2 .text-overlay .color-2 text{fill:white}
#chart-ae7ffefc-ae08-4c8a-a461-22fbd34bead2 text.no_data{text-anchor:middle}#chart-ae7ffefc-ae08-4c8a-a461-22fbd34bead2 .guide.line{fill:none}#chart-ae7ffefc-ae08-4c8a-a461-22fbd34bead2 .centered{text-anchor:middle}#chart-ae7ffefc-ae08-4c8a-a461-22fbd34bead2 .title{text-anchor:middle}#chart-ae7ffefc-ae08-4c8a-a461-22fbd34bead2 .legends .legend text{fill-opacity:1}#chart-ae7ffefc-ae08-4c8a-a461-22fbd34bead2 .axis.x text{text-anchor:middle}#chart-ae7ffefc-ae08-4c8a-a461-22fbd34bead2 .axis.x:not(.web) text[transform]{text-anchor:start}#chart-ae7ffefc-ae08-4c8a-a461-22fbd34bead2 .axis.x:not(.web) text[transform].backwards{text-anchor:end}#chart-ae7ffefc-ae08-4c8a-a461-22fbd34bead2 .axis.y text{text-anchor:end}#chart-ae7ffefc-ae08-4c8a-a461-22fbd34bead2 .axis.y text[transform].backwards{text-anchor:start}#chart-ae7ffefc-ae08-4c8a-a461-22fbd34bead2 .axis.y2 text{text-anchor:start}#chart-ae7ffefc-ae08-4c8a-a461-22fbd34bead2 .axis.y2 text[transform].backwards{text-anchor:end}#chart-ae7ffefc-ae08-4c8a-a461-22fbd34bead2 .axis .guide.line{stroke-dasharray:4,4}#chart-ae7ffefc-ae08-4c8a-a461-22fbd34bead2 .axis .major.guide.line{stroke-dasharray:6,6}#chart-ae7ffefc-ae08-4c8a-a461-22fbd34bead2 .horizontal .axis.y .guide.line,#chart-ae7ffefc-ae08-4c8a-a461-22fbd34bead2 .horizontal .axis.y2 .guide.line,#chart-ae7ffefc-ae08-4c8a-a461-22fbd34bead2 .vertical .axis.x .guide.line{opacity:0}#chart-ae7ffefc-ae08-4c8a-a461-22fbd34bead2 .horizontal .axis.always_show .guide.line,#chart-ae7ffefc-ae08-4c8a-a461-22fbd34bead2 .vertical .axis.always_show .guide.line{opacity:1 !important}#chart-ae7ffefc-ae08-4c8a-a461-22fbd34bead2 .axis.y .guides:hover .guide.line,#chart-ae7ffefc-ae08-4c8a-a461-22fbd34bead2 .axis.y2 .guides:hover .guide.line,#chart-ae7ffefc-ae08-4c8a-a461-22fbd34bead2 .axis.x .guides:hover .guide.line{opacity:1}#chart-ae7ffefc-ae08-4c8a-a461-22fbd34bead2 .axis .guides:hover text{opacity:1}#chart-ae7ffefc-ae08-4c8a-a461-22fbd34bead2 .nofill{fill:none}#chart-ae7ffefc-ae08-4c8a-a461-22fbd34bead2 .subtle-fill{fill-opacity:.2}#chart-ae7ffefc-ae08-4c8a-a461-22fbd34bead2 .dot{stroke-width:1px;fill-opacity:1}#chart-ae7ffefc-ae08-4c8a-a461-22fbd34bead2 .dot.active{stroke-width:5px}#chart-ae7ffefc-ae08-4c8a-a461-22fbd34bead2 .dot.negative{fill:transparent}#chart-ae7ffefc-ae08-4c8a-a461-22fbd34bead2 text,#chart-ae7ffefc-ae08-4c8a-a461-22fbd34bead2 tspan{stroke:none !important}#chart-ae7ffefc-ae08-4c8a-a461-22fbd34bead2 .series text.active{opacity:1}#chart-ae7ffefc-ae08-4c8a-a461-22fbd34bead2 .tooltip rect{fill-opacity:.95;stroke-width:.5}#chart-ae7ffefc-ae08-4c8a-a461-22fbd34bead2 .tooltip text{fill-opacity:1}#chart-ae7ffefc-ae08-4c8a-a461-22fbd34bead2 .showable{visibility:hidden}#chart-ae7ffefc-ae08-4c8a-a461-22fbd34bead2 .showable.shown{visibility:visible}#chart-ae7ffefc-ae08-4c8a-a461-22fbd34bead2 .gauge-background{fill:rgba(229,229,229,1);stroke:none}#chart-ae7ffefc-ae08-4c8a-a461-22fbd34bead2 .bg-lines{stroke:rgba(249,249,249,1);stroke-width:2px}</style><script type="text/javascript">window.pygal = window.pygal || {};window.pygal.config = window.pygal.config || {};window.pygal.config['ae7ffefc-ae08-4c8a-a461-22fbd34bead2'] = {"allow_interruptions": false, "box_mode": "extremes", "classes": ["pygal-chart"], "css": ["file://style.css", "file://graph.css"], "defs": [], "disable_xml_declaration": false, "dots_size": 2.5, "dynamic_print_values": false, "explicit_size": false, "fill": false, "force_uri_protocol": "https", "formatter": null, "half_pie": false, "height": 600, "include_x_axis": false, "inner_radius": 0, "interpolate": null, "interpolation_parameters": {}, "interpolation_precision": 250, "inverse_y_axis": false, "js": ["//kozea.github.io/pygal.js/2.0.x/pygal-tooltips.min.js"], "legend_at_bottom": true, "legend_at_bottom_columns": null, "legend_box_size": 12, "logarithmic": false, "margin": 20, "margin_bottom": null, "margin_left": null, "margin_right": null, "margin_top": null, "max_scale": 16, "min_scale": 4, "missing_value_fill_truncation": "x", "no_data_text": "No data", "no_prefix": false, "order_min": null, "pretty_print": false, "print_labels": false, "print_values": false, "print_values_position": "center", "print_zeroes": true, "range": null, "rounded_bars": null, "secondary_range": null, "show_dots": true, "show_legend": true, "show_minor_x_labels": false, "show_minor_y_labels": true, "show_only_major_dots": false, "show_x_guides": false, "show_x_labels": true, "show_y_guides": true, "show_y_labels": true, "spacing": 10, "stack_from_top": false, "strict": false, "stroke": true, "stroke_style": null, "style": {"background": "rgba(249, 249, 249, 1)", "ci_colors": [], "colors": ["red", "blue", "green", "#a3a3a3"], "font_family": "Consolas, \"Liberation Mono\", Menlo, Courier, monospace", "foreground": "rgba(0, 0, 0, .87)", "foreground_strong": "rgba(0, 0, 0, 1)", "foreground_subtle": "rgba(0, 0, 0, .54)", "guide_stroke_dasharray": "4,4", "label_font_family": "Consolas, \"Liberation Mono\", Menlo, Courier, monospace", "label_font_size": 10, "legend_font_family": "Consolas, \"Liberation Mono\", Menlo, Courier, monospace", "legend_font_size": 14, "major_guide_stroke_dasharray": "6,6", "major_label_font_family": "Consolas, \"Liberation Mono\", Menlo, Courier, monospace", "major_label_font_size": 10, "no_data_font_family": "Consolas, \"Liberation Mono\", Menlo, Courier, monospace", "no_data_font_size": 64, "opacity": ".7", "opacity_hover": ".8", "plot_background": "rgba(255, 255, 255, 1)", "stroke_opacity": ".8", "stroke_opacity_hover": ".9", "title_font_family": "Consolas, \"Liberation Mono\", Menlo, Courier, monospace", "title_font_size": 16, "tooltip_font_family": "Consolas, \"Liberation Mono\", Menlo, Courier, monospace", "tooltip_font_size": 14, "transition": "150ms", "value_background": "rgba(229, 229, 229, 1)", "value_colors": [], "value_font_family": "Consolas, \"Liberation Mono\", Menlo, Courier, monospace", "value_font_size": 16, "value_label_font_family": "Consolas, \"Liberation Mono\", Menlo, Courier, monospace", "value_label_font_size": 10}, "title": "DW Fleming: Future and Past Averages in ODIs", "tooltip_border_radius": 10, "tooltip_fancy_mode": true, "truncate_label": null, "truncate_legend": null, "width": 800, "x_label_rotation": 45, "x_labels": ["1994", "0", "0", "0", "0", "0", "0", "0", "0", "0", "0", "0", "1995", "0", "1996", "0", "0", "0", "0", "0", "0", "0", "0", "0", "0", "0", "0", "1998", "0", "0", "0", "0", "0", "0", "0", "0", "0", "0", "0", "0", "1999", "0", "0", "0", "0", "0", "0", "0", "0", "0", "0", "0", "0", "0", "0", "0", "0", "0", "0", "0", "0", "0", "0", "0", "0", "0", "2000", "0", "0", "0", "0", "0", "0", "0", "0", "0", "2001", "0", "0", "0", "0", "0", "0", "0", "0", "0", "0", "0"], "x_labels_major": ["1994", "1995", "1996", "1998", "1999", "2000", "2001"], "x_labels_major_count": null, "x_labels_major_every": null, "x_title": null, "xrange": null, "y_label_rotation": 0, "y_labels": null, "y_labels_major": null, "y_labels_major_count": null, "y_labels_major_every": null, "y_title": null, "zero": 130.0, "legends": ["Future Average", "Past Average", "Career Average"]}</script><script type="text/javascript" xlink:href="https://kozea.github.io/pygal.js/2.0.x/pygal-tooltips.min.js"/></defs><title>DW Fleming: Future and Past Averages in ODIs</title><g class="graph line-graph vertical"><rect class="background" height="600" width="800" x="0" y="0"/><g class="plot" transform="translate(48, 46)"><rect class="background" height="462.02943725152284" width="732.0" x="0" y="0"/><g class="axis y always_show"><g class="guides"><path class="axis major line" d="M0.000000 453.144256 h732.000000"/><text class="major" x="-5" y="456.6442557659166">0</text><title>0</title></g><g class="guides"><path class="guide line" d="M0.000000 418.436516 h732.000000"/><text class="" x="-5" y="421.93651558776736">10</text><title>10</title></g><g class="guides"><path class="guide line" d="M0.000000 383.728775 h732.000000"/><text class="" x="-5" y="387.22877540961815">20</text><title>20</title></g><g class="guides"><path class="guide line" d="M0.000000 349.021035 h732.000000"/><text class="" x="-5" y="352.5210352314689">30</text><title>30</title></g><g class="guides"><path class="guide line" d="M0.000000 314.313295 h732.000000"/><text class="" x="-5" y="317.8132950533196">40</text><title>40</title></g><g class="guides"><path class="major guide line" d="M0.000000 279.605555 h732.000000"/><text class="major" x="-5" y="283.10555487517036">50</text><title>50</title></g><g class="guides"><path class="guide line" d="M0.000000 244.897815 h732.000000"/><text class="" x="-5" y="248.39781469702112">60</text><title>60</title></g><g class="guides"><path class="guide line" d="M0.000000 210.190075 h732.000000"/><text class="" x="-5" y="213.69007451887185">70</text><title>70</title></g><g class="guides"><path class="guide line" d="M0.000000 175.482334 h732.000000"/><text class="" x="-5" y="178.98233434072262">80</text><title>80</title></g><g class="guides"><path class="guide line" d="M0.000000 140.774594 h732.000000"/><text class="" x="-5" y="144.27459416257335">90</text><title>90</title></g><g class="guides"><path class="major guide line" d="M0.000000 106.066854 h732.000000"/><text class="major" x="-5" y="109.56685398442409">100</text><title>100</title></g><g class="guides"><path class="guide line" d="M0.000000 71.359114 h732.000000"/><text class="" x="-5" y="74.85911380627488">110</text><title>110</title></g><g class="guides"><path class="guide line" d="M0.000000 36.651374 h732.000000"/><text class="" x="-5" y="40.15137362812561">120</text><title>120</title></g></g><g class="axis x"><g class="guides"><path class="major line" d="M14.076923 0.000000 v462.029437"/><text class="major" x="14.076923076923077" y="477.02943725152284" transform="rotate(45 14.076923 477.029437)">1994</text></g><g class="guides"><path class="major guide line" d="M111.159151 0.000000 v462.029437"/><text class="major" x="111.15915119363395" y="477.02943725152284" transform="rotate(45 111.159151 477.029437)">1995</text></g><g class="guides"><path class="major guide line" d="M127.339523 0.000000 v462.029437"/><text class="major" x="127.33952254641909" y="477.02943725152284" transform="rotate(45 127.339523 477.029437)">1996</text></g><g class="guides"><path class="major guide line" d="M232.511936 0.000000 v462.029437"/><text class="major" x="232.51193633952255" y="477.02943725152284" transform="rotate(45 232.511936 477.029437)">1998</text></g><g class="guides"><path class="major guide line" d="M337.684350 0.000000 v462.029437"/><text class="major" x="337.684350132626" y="477.02943725152284" transform="rotate(45 337.684350 477.029437)">1999</text></g><g class="guides"><path class="major guide line" d="M548.029178 0.000000 v462.029437"/><text class="major" x="548.0291777188328" y="477.02943725152284" transform="rotate(45 548.029178 477.029437)">2000</text></g><g class="guides"><path class="major guide line" d="M628.931034 0.000000 v462.029437"/><text class="major" x="628.9310344827587" y="477.02943725152284" transform="rotate(45 628.931034 477.029437)">2001</text></g></g><g class="series serie-0 color-0"><path class="line reactive nofill" d="M14.076923 365.021303 L22.167109 366.131951 30.257294 365.194842 38.347480 366.062536 46.437666 366.097243 54.527851 364.431272 62.618037 366.062536 70.708223 367.207891 78.798408 366.617860 86.888594 365.160134 94.978780 363.875948 103.068966 364.431272 111.159151 364.188318 119.249337 365.264258 127.339523 365.298965 135.429708 362.418223 143.519894 361.689360 151.610080 362.279392 159.700265 362.071146 167.790451 361.932315 175.880637 362.487638 183.970822 361.515822 192.061008 359.606896 200.151194 360.509297 208.241379 362.418223 216.331565 361.932315 224.421751 362.904131 232.511936 364.257733 240.602122 365.576627 248.692308 363.841240 256.782493 365.437796 264.872679 364.986596 272.962865 363.806533 281.053050 360.578713 289.143236 359.780435 297.233422 359.433357 305.323607 359.120988 313.413793 359.953973 321.503979 358.912741 329.594164 359.572188 337.684350 361.724068 345.774536 360.752251 353.864721 362.487638 361.954907 361.828191 370.045093 360.995206 378.135279 358.808618 386.225464 358.253294 394.315650 356.205537 402.405836 354.539566 410.496021 356.483199 418.586207 356.309661 426.676393 357.975632 434.766578 357.385601 442.856764 356.517907 450.946950 355.164305 459.037135 356.413784 467.127321 355.199013 475.217507 353.290087 483.307692 357.003815 491.397878 354.747812 499.488064 355.789045 507.578249 355.962583 515.668435 354.435443 523.758621 357.420308 531.848806 357.455016 539.938992 352.075316 548.029178 343.259550 556.119363 344.196659 564.209549 346.417955 572.299735 346.695617 580.389920 349.021035 588.480106 354.886643 596.570292 356.101414 604.660477 353.984242 612.750663 349.194574 620.840849 332.083658 628.931034 345.133768 637.021220 328.717007 645.111406 312.751447 653.201592 327.259282 661.291777 343.988413 669.381963 332.812521 677.472149 322.747276 685.562334 313.619140 693.652520 265.722459 701.742706 8.885181 709.832891 192.836204 717.923077 324.725617"/></g><g class="series serie-1 color-1"><path class="line reactive nofill" d="M14.076923 453.144256 L22.167109 307.371747 30.257294 354.227196 38.347480 296.959425 46.437666 317.784069 54.527851 375.780703 62.618037 346.556786 70.708223 325.732142 78.798408 342.843057 86.888594 363.702409 94.978780 373.524700 103.068966 369.012694 111.159151 370.227464 119.249337 363.632994 127.339523 363.424747 135.429708 376.370734 143.519894 378.210245 151.610080 375.433626 159.700265 375.711287 167.790451 375.329502 175.880637 373.108207 183.970822 375.364210 192.061008 379.216769 200.151194 376.891351 208.241379 371.893436 216.331565 372.587591 224.421751 370.019218 232.511936 366.791398 240.602122 363.737117 248.692308 367.485553 256.782493 364.153610 264.872679 365.090719 272.962865 367.138476 281.053050 371.824021 289.143236 372.552883 297.233422 372.587591 305.323607 372.552883 313.413793 371.303404 321.503979 372.136390 329.594164 371.164573 337.684350 368.735032 345.774536 369.568017 353.864721 367.624384 361.954907 368.249123 370.045093 368.700324 378.135279 370.227464 386.225464 370.366295 394.315650 371.372820 402.405836 372.101682 410.496021 370.817496 418.586207 370.574542 426.676393 369.498602 434.766578 369.706848 442.856764 369.915095 450.946950 370.366295 459.037135 369.533310 467.127321 369.984510 475.217507 370.574542 483.307692 368.804447 491.397878 369.394479 499.488064 368.839155 507.578249 368.630908 515.668435 368.908570 523.758621 367.832630 531.848806 367.693799 539.938992 369.082109 548.029178 371.025743 556.119363 370.539834 564.209549 369.949803 572.299735 369.637433 580.389920 368.873863 588.480106 367.450845 596.570292 367.069060 604.660477 367.312014 612.750663 367.797923 620.840849 369.498602 628.931034 367.728507 637.021220 368.943278 645.111406 369.706848 653.201592 368.422662 661.291777 366.895521 669.381963 367.346722 677.472149 367.346722 685.562334 367.034352 693.652520 367.312014 701.742706 367.693799 709.832891 366.305490 717.923077 365.333673"/></g><g class="series serie-2 color-2"><path class="line reactive nofill" d="M14.076923 365.021303 L22.167109 365.021303 30.257294 365.021303 38.347480 365.021303 46.437666 365.021303 54.527851 365.021303 62.618037 365.021303 70.708223 365.021303 78.798408 365.021303 86.888594 365.021303 94.978780 365.021303 103.068966 365.021303 111.159151 365.021303 119.249337 365.021303 127.339523 365.021303 135.429708 365.021303 143.519894 365.021303 151.610080 365.021303 159.700265 365.021303 167.790451 365.021303 175.880637 365.021303 183.970822 365.021303 192.061008 365.021303 200.151194 365.021303 208.241379 365.021303 216.331565 365.021303 224.421751 365.021303 232.511936 365.021303 240.602122 365.021303 248.692308 365.021303 256.782493 365.021303 264.872679 365.021303 272.962865 365.021303 281.053050 365.021303 289.143236 365.021303 297.233422 365.021303 305.323607 365.021303 313.413793 365.021303 321.503979 365.021303 329.594164 365.021303 337.684350 365.021303 345.774536 365.021303 353.864721 365.021303 361.954907 365.021303 370.045093 365.021303 378.135279 365.021303 386.225464 365.021303 394.315650 365.021303 402.405836 365.021303 410.496021 365.021303 418.586207 365.021303 426.676393 365.021303 434.766578 365.021303 442.856764 365.021303 450.946950 365.021303 459.037135 365.021303 467.127321 365.021303 475.217507 365.021303 483.307692 365.021303 491.397878 365.021303 499.488064 365.021303 507.578249 365.021303 515.668435 365.021303 523.758621 365.021303 531.848806 365.021303 539.938992 365.021303 548.029178 365.021303 556.119363 365.021303 564.209549 365.021303 572.299735 365.021303 580.389920 365.021303 588.480106 365.021303 596.570292 365.021303 604.660477 365.021303 612.750663 365.021303 620.840849 365.021303 628.931034 365.021303 637.021220 365.021303 645.111406 365.021303 653.201592 365.021303 661.291777 365.021303 669.381963 365.021303 677.472149 365.021303 685.562334 365.021303 693.652520 365.021303 701.742706 365.021303 709.832891 365.021303 717.923077 365.021303"/></g></g><g class="titles"><text class="title plot_title" x="400.0" y="26">DW Fleming: Future and Past Averages in ODIs</text></g><g class="plot overlay" transform="translate(48, 46)"><g class="series serie-0 color-0"><g class="dots"><desc class="label">134 wickets in 88 innings (769.5 overs)</desc><circle class="dot reactive tooltip-trigger" cx="14.076923076923077" cy="365.0213034535957" r="2.5"/><desc class="value">25.39</desc><desc class="x top">14.076923076923077</desc><desc class="y top">365.0213034535957</desc><desc class="x_label">1994</desc></g><g class="dots"><desc class="label">115 wickets in 76 innings (660.0 overs)</desc><circle class="dot reactive tooltip-trigger" cx="111.15915119363395" cy="364.1883176893201" r="2.5"/><desc class="value">25.63</desc><desc class="x top">111.15915119363395</desc><desc class="y top">364.1883176893201</desc><desc class="x_label">1995</desc></g><g class="dots"><desc class="label">114 wickets in 74 innings (642.3 overs)</desc><circle class="dot reactive tooltip-trigger" cx="127.33952254641909" cy="365.2989653750209" r="2.5"/><desc class="value">25.31</desc><desc class="x top">127.33952254641909</desc><desc class="y top">365.2989653750209</desc><desc class="x_label">1996</desc></g><g class="dots"><desc class="label">94 wickets in 61 innings (543.5 overs)</desc><circle class="dot reactive tooltip-trigger" cx="232.51193633952255" cy="364.2577331696764" r="2.5"/><desc class="value">25.61</desc><desc class="x top">232.51193633952255</desc><desc class="y top">364.2577331696764</desc><desc class="x_label">1998</desc></g><g class="dots"><desc class="label">71 wickets in 48 innings (419.1 overs)</desc><circle class="dot reactive tooltip-trigger" cx="337.684350132626" cy="361.7240681366715" r="2.5"/><desc class="value">26.34</desc><desc class="x top">337.684350132626</desc><desc class="y top">361.7240681366715</desc><desc class="x_label">1999</desc></g><g class="dots"><desc class="label">29 wickets in 22 innings (193.0 overs)</desc><circle class="dot reactive tooltip-trigger" cx="548.0291777188328" cy="343.2595503618961" r="2.5"/><desc class="value">31.66</desc><desc class="x left top">548.0291777188328</desc><desc class="y left top">343.2595503618961</desc><desc class="x_label">2000</desc></g><g class="dots"><desc class="label">16 wickets in 12 innings (108.0 overs)</desc><circle class="dot reactive tooltip-trigger" cx="628.9310344827587" cy="345.1337683315162" r="2.5"/><desc class="value">31.12</desc><desc class="x left top">628.9310344827587</desc><desc class="y left top">345.1337683315162</desc><desc class="x_label">2001</desc></g></g><g class="series serie-1 color-1"><g class="dots"><desc class="label">0 wickets over 0 innings</desc><circle class="dot reactive tooltip-trigger" cx="14.076923076923077" cy="453.1442557659166" r="2.5"/><desc class="value">0</desc><desc class="x top">14.076923076923077</desc><desc class="y top">453.1442557659166</desc><desc class="x_label">1994</desc></g><g class="dots"><desc class="label">19 wickets in 12 innings (109.5 overs)</desc><circle class="dot reactive tooltip-trigger" cx="111.15915119363395" cy="370.2274644803181" r="2.5"/><desc class="value">23.89</desc><desc class="x top">111.15915119363395</desc><desc class="y top">370.2274644803181</desc><desc class="x_label">1995</desc></g><g class="dots"><desc class="label">20 wickets in 14 innings (127.2 overs)</desc><circle class="dot reactive tooltip-trigger" cx="127.33952254641909" cy="363.4247474054008" r="2.5"/><desc class="value">25.85</desc><desc class="x top">127.33952254641909</desc><desc class="y top">363.4247474054008</desc><desc class="x_label">1996</desc></g><g class="dots"><desc class="label">40 wickets in 27 innings (226.0 overs)</desc><circle class="dot reactive tooltip-trigger" cx="232.51193633952255" cy="366.7913982026813" r="2.5"/><desc class="value">24.88</desc><desc class="x top">232.51193633952255</desc><desc class="y top">366.7913982026813</desc><desc class="x_label">1998</desc></g><g class="dots"><desc class="label">63 wickets in 40 innings (350.4 overs)</desc><circle class="dot reactive tooltip-trigger" cx="337.684350132626" cy="368.73503165265765" r="2.5"/><desc class="value">24.32</desc><desc class="x top">337.684350132626</desc><desc class="y top">368.73503165265765</desc><desc class="x_label">1999</desc></g><g class="dots"><desc class="label">105 wickets in 66 innings (576.5 overs)</desc><circle class="dot reactive tooltip-trigger" cx="548.0291777188328" cy="371.0257425044155" r="2.5"/><desc class="value">23.66</desc><desc class="x left top">548.0291777188328</desc><desc class="y left top">371.0257425044155</desc><desc class="x_label">2000</desc></g><g class="dots"><desc class="label">118 wickets in 76 innings (661.5 overs)</desc><circle class="dot reactive tooltip-trigger" cx="628.9310344827587" cy="367.72850718749135" r="2.5"/><desc class="value">24.61</desc><desc class="x left top">628.9310344827587</desc><desc class="y left top">367.72850718749135</desc><desc class="x_label">2001</desc></g></g><g class="series serie-2 color-2"/></g><g class="plot text-overlay" transform="translate(48, 46)"><g class="series serie-0 color-0"/><g class="series serie-1 color-1"/><g class="series serie-2 color-2"/></g><g class="plot tooltip-overlay" transform="translate(48, 46)"><g class="tooltip" style="opacity: 0" transform="translate(0 0)"><rect class="tooltip-box" height="0" rx="10" ry="10" width="0"/><g class="text"/></g></g><g class="legends" transform="translate(58, 545)"><g class="legend reactive activate-serie" id="activate-serie-0"><rect class="color-0 reactive" height="12" width="12" x="0.0" y="1.0"/><text x="17.0" y="11.2">Future Average</text></g><g class="legend reactive activate-serie" id="activate-serie-1"><rect class="color-1 reactive" height="12" width="12" x="366.0" y="1.0"/><text x="383.0" y="11.2">Past Average</text></g><g class="legend reactive activate-serie" id="activate-serie-2"><rect class="color-2 reactive" height="12" width="12" x="0.0" y="22.0"/><text x="17.0" y="32.2">Career Average</text></g></g></g></svg>