<?xml version='1.0' encoding='utf-8'?>
<svg xmlns:xlink="http://www.w3.org/1999/xlink" xmlns="http://www.w3.org/2000/svg" id="chart-4055fe6e-fb4b-4dc2-b33b-32f3379b12da" class="pygal-chart" viewBox="0 0 800 600"><!--Generated with pygal 2.4.0 (lxml) ©Kozea 2012-2016 on 2019-08-04--><!--http://pygal.org--><!--http://github.com/Kozea/pygal--><defs><style type="text/css">#chart-4055fe6e-fb4b-4dc2-b33b-32f3379b12da{-webkit-user-select:none;-webkit-font-smoothing:antialiased;font-family:Consolas,"Liberation Mono",Menlo,Courier,monospace}#chart-4055fe6e-fb4b-4dc2-b33b-32f3379b12da .title{font-family:Consolas,"Liberation Mono",Menlo,Courier,monospace;font-size:16px}#chart-4055fe6e-fb4b-4dc2-b33b-32f3379b12da .legends .legend text{font-family:Consolas,"Liberation Mono",Menlo,Courier,monospace;font-size:14px}#chart-4055fe6e-fb4b-4dc2-b33b-32f3379b12da .axis text{font-family:Consolas,"Liberation Mono",Menlo,Courier,monospace;font-size:10px}#chart-4055fe6e-fb4b-4dc2-b33b-32f3379b12da .axis text.major{font-family:Consolas,"Liberation Mono",Menlo,Courier,monospace;font-size:10px}#chart-4055fe6e-fb4b-4dc2-b33b-32f3379b12da .text-overlay text.value{font-family:Consolas,"Liberation Mono",Menlo,Courier,monospace;font-size:16px}#chart-4055fe6e-fb4b-4dc2-b33b-32f3379b12da .text-overlay text.label{font-family:Consolas,"Liberation Mono",Menlo,Courier,monospace;font-size:10px}#chart-4055fe6e-fb4b-4dc2-b33b-32f3379b12da .tooltip{font-family:Consolas,"Liberation Mono",Menlo,Courier,monospace;font-size:14px}#chart-4055fe6e-fb4b-4dc2-b33b-32f3379b12da text.no_data{font-family:Consolas,"Liberation Mono",Menlo,Courier,monospace;font-size:64px}
#chart-4055fe6e-fb4b-4dc2-b33b-32f3379b12da{background-color:rgba(249,249,249,1)}#chart-4055fe6e-fb4b-4dc2-b33b-32f3379b12da path,#chart-4055fe6e-fb4b-4dc2-b33b-32f3379b12da line,#chart-4055fe6e-fb4b-4dc2-b33b-32f3379b12da rect,#chart-4055fe6e-fb4b-4dc2-b33b-32f3379b12da circle{-webkit-transition:150ms;-moz-transition:150ms;transition:150ms}#chart-4055fe6e-fb4b-4dc2-b33b-32f3379b12da .graph &gt; .background{fill:rgba(249,249,249,1)}#chart-4055fe6e-fb4b-4dc2-b33b-32f3379b12da .plot &gt; .background{fill:rgba(255,255,255,1)}#chart-4055fe6e-fb4b-4dc2-b33b-32f3379b12da .graph{fill:rgba(0,0,0,.87)}#chart-4055fe6e-fb4b-4dc2-b33b-32f3379b12da text.no_data{fill:rgba(0,0,0,1)}#chart-4055fe6e-fb4b-4dc2-b33b-32f3379b12da .title{fill:rgba(0,0,0,1)}#chart-4055fe6e-fb4b-4dc2-b33b-32f3379b12da .legends .legend text{fill:rgba(0,0,0,.87)}#chart-4055fe6e-fb4b-4dc2-b33b-32f3379b12da .legends .legend:hover text{fill:rgba(0,0,0,1)}#chart-4055fe6e-fb4b-4dc2-b33b-32f3379b12da .axis .line{stroke:rgba(0,0,0,1)}#chart-4055fe6e-fb4b-4dc2-b33b-32f3379b12da .axis .guide.line{stroke:rgba(0,0,0,.54)}#chart-4055fe6e-fb4b-4dc2-b33b-32f3379b12da .axis .major.line{stroke:rgba(0,0,0,.87)}#chart-4055fe6e-fb4b-4dc2-b33b-32f3379b12da .axis text.major{fill:rgba(0,0,0,1)}#chart-4055fe6e-fb4b-4dc2-b33b-32f3379b12da .axis.y .guides:hover .guide.line,#chart-4055fe6e-fb4b-4dc2-b33b-32f3379b12da .line-graph .axis.x .guides:hover .guide.line,#chart-4055fe6e-fb4b-4dc2-b33b-32f3379b12da .stackedline-graph .axis.x .guides:hover .guide.line,#chart-4055fe6e-fb4b-4dc2-b33b-32f3379b12da .xy-graph .axis.x .guides:hover .guide.line{stroke:rgba(0,0,0,1)}#chart-4055fe6e-fb4b-4dc2-b33b-32f3379b12da .axis .guides:hover text{fill:rgba(0,0,0,1)}#chart-4055fe6e-fb4b-4dc2-b33b-32f3379b12da .reactive{fill-opacity:.7;stroke-opacity:.8}#chart-4055fe6e-fb4b-4dc2-b33b-32f3379b12da .ci{stroke:rgba(0,0,0,.87)}#chart-4055fe6e-fb4b-4dc2-b33b-32f3379b12da .reactive.active,#chart-4055fe6e-fb4b-4dc2-b33b-32f3379b12da .active .reactive{fill-opacity:.8;stroke-opacity:.9;stroke-width:4}#chart-4055fe6e-fb4b-4dc2-b33b-32f3379b12da .ci .reactive.active{stroke-width:1.5}#chart-4055fe6e-fb4b-4dc2-b33b-32f3379b12da .series text{fill:rgba(0,0,0,1)}#chart-4055fe6e-fb4b-4dc2-b33b-32f3379b12da .tooltip rect{fill:rgba(255,255,255,1);stroke:rgba(0,0,0,1);-webkit-transition:opacity 150ms;-moz-transition:opacity 150ms;transition:opacity 150ms}#chart-4055fe6e-fb4b-4dc2-b33b-32f3379b12da .tooltip .label{fill:rgba(0,0,0,.87)}#chart-4055fe6e-fb4b-4dc2-b33b-32f3379b12da .tooltip .label{fill:rgba(0,0,0,.87)}#chart-4055fe6e-fb4b-4dc2-b33b-32f3379b12da .tooltip .legend{font-size:.8em;fill:rgba(0,0,0,.54)}#chart-4055fe6e-fb4b-4dc2-b33b-32f3379b12da .tooltip .x_label{font-size:.6em;fill:rgba(0,0,0,1)}#chart-4055fe6e-fb4b-4dc2-b33b-32f3379b12da .tooltip .xlink{font-size:.5em;text-decoration:underline}#chart-4055fe6e-fb4b-4dc2-b33b-32f3379b12da .tooltip .value{font-size:1.5em}#chart-4055fe6e-fb4b-4dc2-b33b-32f3379b12da .bound{font-size:.5em}#chart-4055fe6e-fb4b-4dc2-b33b-32f3379b12da .max-value{font-size:.75em;fill:rgba(0,0,0,.54)}#chart-4055fe6e-fb4b-4dc2-b33b-32f3379b12da .map-element{fill:rgba(255,255,255,1);stroke:rgba(0,0,0,.54) !important}#chart-4055fe6e-fb4b-4dc2-b33b-32f3379b12da .map-element .reactive{fill-opacity:inherit;stroke-opacity:inherit}#chart-4055fe6e-fb4b-4dc2-b33b-32f3379b12da .color-0,#chart-4055fe6e-fb4b-4dc2-b33b-32f3379b12da .color-0 a:visited{stroke:red;fill:red}#chart-4055fe6e-fb4b-4dc2-b33b-32f3379b12da .color-1,#chart-4055fe6e-fb4b-4dc2-b33b-32f3379b12da .color-1 a:visited{stroke:blue;fill:blue}#chart-4055fe6e-fb4b-4dc2-b33b-32f3379b12da .color-2,#chart-4055fe6e-fb4b-4dc2-b33b-32f3379b12da .color-2 a:visited{stroke:green;fill:green}#chart-4055fe6e-fb4b-4dc2-b33b-32f3379b12da .text-overlay .color-0 text{fill:white}#chart-4055fe6e-fb4b-4dc2-b33b-32f3379b12da .text-overlay .color-1 text{fill:white}#chart-4055fe6e-fb4b-4dc2-b33b-32f3379b12da .text-overlay .color-2 text{fill:white}
#chart-4055fe6e-fb4b-4dc2-b33b-32f3379b12da text.no_data{text-anchor:middle}#chart-4055fe6e-fb4b-4dc2-b33b-32f3379b12da .guide.line{fill:none}#chart-4055fe6e-fb4b-4dc2-b33b-32f3379b12da .centered{text-anchor:middle}#chart-4055fe6e-fb4b-4dc2-b33b-32f3379b12da .title{text-anchor:middle}#chart-4055fe6e-fb4b-4dc2-b33b-32f3379b12da .legends .legend text{fill-opacity:1}#chart-4055fe6e-fb4b-4dc2-b33b-32f3379b12da .axis.x text{text-anchor:middle}#chart-4055fe6e-fb4b-4dc2-b33b-32f3379b12da .axis.x:not(.web) text[transform]{text-anchor:start}#chart-4055fe6e-fb4b-4dc2-b33b-32f3379b12da .axis.x:not(.web) text[transform].backwards{text-anchor:end}#chart-4055fe6e-fb4b-4dc2-b33b-32f3379b12da .axis.y text{text-anchor:end}#chart-4055fe6e-fb4b-4dc2-b33b-32f3379b12da .axis.y text[transform].backwards{text-anchor:start}#chart-4055fe6e-fb4b-4dc2-b33b-32f3379b12da .axis.y2 text{text-anchor:start}#chart-4055fe6e-fb4b-4dc2-b33b-32f3379b12da .axis.y2 text[transform].backwards{text-anchor:end}#chart-4055fe6e-fb4b-4dc2-b33b-32f3379b12da .axis .guide.line{stroke-dasharray:4,4}#chart-4055fe6e-fb4b-4dc2-b33b-32f3379b12da .axis .major.guide.line{stroke-dasharray:6,6}#chart-4055fe6e-fb4b-4dc2-b33b-32f3379b12da .horizontal .axis.y .guide.line,#chart-4055fe6e-fb4b-4dc2-b33b-32f3379b12da .horizontal .axis.y2 .guide.line,#chart-4055fe6e-fb4b-4dc2-b33b-32f3379b12da .vertical .axis.x .guide.line{opacity:0}#chart-4055fe6e-fb4b-4dc2-b33b-32f3379b12da .horizontal .axis.always_show .guide.line,#chart-4055fe6e-fb4b-4dc2-b33b-32f3379b12da .vertical .axis.always_show .guide.line{opacity:1 !important}#chart-4055fe6e-fb4b-4dc2-b33b-32f3379b12da .axis.y .guides:hover .guide.line,#chart-4055fe6e-fb4b-4dc2-b33b-32f3379b12da .axis.y2 .guides:hover .guide.line,#chart-4055fe6e-fb4b-4dc2-b33b-32f3379b12da .axis.x .guides:hover .guide.line{opacity:1}#chart-4055fe6e-fb4b-4dc2-b33b-32f3379b12da .axis .guides:hover text{opacity:1}#chart-4055fe6e-fb4b-4dc2-b33b-32f3379b12da .nofill{fill:none}#chart-4055fe6e-fb4b-4dc2-b33b-32f3379b12da .subtle-fill{fill-opacity:.2}#chart-4055fe6e-fb4b-4dc2-b33b-32f3379b12da .dot{stroke-width:1px;fill-opacity:1}#chart-4055fe6e-fb4b-4dc2-b33b-32f3379b12da .dot.active{stroke-width:5px}#chart-4055fe6e-fb4b-4dc2-b33b-32f3379b12da .dot.negative{fill:transparent}#chart-4055fe6e-fb4b-4dc2-b33b-32f3379b12da text,#chart-4055fe6e-fb4b-4dc2-b33b-32f3379b12da tspan{stroke:none !important}#chart-4055fe6e-fb4b-4dc2-b33b-32f3379b12da .series text.active{opacity:1}#chart-4055fe6e-fb4b-4dc2-b33b-32f3379b12da .tooltip rect{fill-opacity:.95;stroke-width:.5}#chart-4055fe6e-fb4b-4dc2-b33b-32f3379b12da .tooltip text{fill-opacity:1}#chart-4055fe6e-fb4b-4dc2-b33b-32f3379b12da .showable{visibility:hidden}#chart-4055fe6e-fb4b-4dc2-b33b-32f3379b12da .showable.shown{visibility:visible}#chart-4055fe6e-fb4b-4dc2-b33b-32f3379b12da .gauge-background{fill:rgba(229,229,229,1);stroke:none}#chart-4055fe6e-fb4b-4dc2-b33b-32f3379b12da .bg-lines{stroke:rgba(249,249,249,1);stroke-width:2px}</style><script type="text/javascript">window.pygal = window.pygal || {};window.pygal.config = window.pygal.config || {};window.pygal.config['4055fe6e-fb4b-4dc2-b33b-32f3379b12da'] = {"allow_interruptions": false, "box_mode": "extremes", "classes": ["pygal-chart"], "css": ["file://style.css", "file://graph.css"], "defs": [], "disable_xml_declaration": false, "dots_size": 2.5, "dynamic_print_values": false, "explicit_size": false, "fill": false, "force_uri_protocol": "https", "formatter": null, "half_pie": false, "height": 600, "include_x_axis": false, "inner_radius": 0, "interpolate": null, "interpolation_parameters": {}, "interpolation_precision": 250, "inverse_y_axis": false, "js": ["//kozea.github.io/pygal.js/2.0.x/pygal-tooltips.min.js"], "legend_at_bottom": true, "legend_at_bottom_columns": null, "legend_box_size": 12, "logarithmic": false, "margin": 20, "margin_bottom": null, "margin_left": null, "margin_right": null, "margin_top": null, "max_scale": 16, "min_scale": 4, "missing_value_fill_truncation": "x", "no_data_text": "No data", "no_prefix": false, "order_min": null, "pretty_print": false, "print_labels": false, "print_values": false, "print_values_position": "center", "print_zeroes": true, "range": null, "rounded_bars": null, "secondary_range": null, "show_dots": true, "show_legend": true, "show_minor_x_labels": false, "show_minor_y_labels": true, "show_only_major_dots": false, "show_x_guides": false, "show_x_labels": true, "show_y_guides": true, "show_y_labels": true, "spacing": 10, "stack_from_top": false, "strict": false, "stroke": true, "stroke_style": null, "style": {"background": "rgba(249, 249, 249, 1)", "ci_colors": [], "colors": ["red", "blue", "green", "#a3a3a3"], "font_family": "Consolas, \"Liberation Mono\", Menlo, Courier, monospace", "foreground": "rgba(0, 0, 0, .87)", "foreground_strong": "rgba(0, 0, 0, 1)", "foreground_subtle": "rgba(0, 0, 0, .54)", "guide_stroke_dasharray": "4,4", "label_font_family": "Consolas, \"Liberation Mono\", Menlo, Courier, monospace", "label_font_size": 10, "legend_font_family": "Consolas, \"Liberation Mono\", Menlo, Courier, monospace", "legend_font_size": 14, "major_guide_stroke_dasharray": "6,6", "major_label_font_family": "Consolas, \"Liberation Mono\", Menlo, Courier, monospace", "major_label_font_size": 10, "no_data_font_family": "Consolas, \"Liberation Mono\", Menlo, Courier, monospace", "no_data_font_size": 64, "opacity": ".7", "opacity_hover": ".8", "plot_background": "rgba(255, 255, 255, 1)", "stroke_opacity": ".8", "stroke_opacity_hover": ".9", "title_font_family": "Consolas, \"Liberation Mono\", Menlo, Courier, monospace", "title_font_size": 16, "tooltip_font_family": "Consolas, \"Liberation Mono\", Menlo, Courier, monospace", "tooltip_font_size": 14, "transition": "150ms", "value_background": "rgba(229, 229, 229, 1)", "value_colors": [], "value_font_family": "Consolas, \"Liberation Mono\", Menlo, Courier, monospace", "value_font_size": 16, "value_label_font_family": "Consolas, \"Liberation Mono\", Menlo, Courier, monospace", "value_label_font_size": 10}, "title": "DW Steyn: Future and Past Averages in ODIs", "tooltip_border_radius": 10, "tooltip_fancy_mode": true, "truncate_label": null, "truncate_legend": null, "width": 800, "x_label_rotation": 45, "x_labels": ["2005", "0", "2006", "0", "2007", "0", "0", "0", "2008", "0", "0", "0", "0", "0", "0", "0", "0", "0", "0", "2009", "0", "0", "0", "0", "0", "0", "0", "0", "0", "0", "0", "0", "0", "0", "2010", "0", "0", "0", "0", "0", "0", "0", "2011", "0", "0", "0", "0", "0", "0", "0", "0", "0", "0", "0", "0", "0", "2012", "0", "0", "0", "0", "0", "0", "0", "0", "2013", "0", "0", "0", "0", "0", "0", "0", "0", "0", "0", "0", "0", "2014", "0", "0", "0", "0", "0", "0", "0", "0", "0", "0", "0", "0", "0", "2015", "0", "0", "0", "0", "0", "0", "0", "0", "0", "0", "0", "0", "0", "0", "0", "0", "0", "0", "2016", "0", "0", "0", "2018", "0", "0", "0", "0", "2019", "0", "0", "0"], "x_labels_major": ["2005", "2006", "2007", "2008", "2009", "2010", "2011", "2012", "2013", "2014", "2015", "2016", "2018", "2019"], "x_labels_major_count": null, "x_labels_major_every": null, "x_title": null, "xrange": null, "y_label_rotation": 0, "y_labels": null, "y_labels_major": null, "y_labels_major_count": null, "y_labels_major_every": null, "y_title": null, "zero": 60.0, "legends": ["Future Average", "Past Average", "Career Average"]}</script><script type="text/javascript" xlink:href="https://kozea.github.io/pygal.js/2.0.x/pygal-tooltips.min.js"/></defs><title>DW Steyn: Future and Past Averages in ODIs</title><g class="graph line-graph vertical"><rect class="background" height="600" width="800" x="0" y="0"/><g class="plot" transform="translate(42, 46)"><rect class="background" height="462.02943725152284" width="738.0" x="0" y="0"/><g class="axis y always_show"><g class="guides"><path class="axis major line" d="M0.000000 453.144256 h738.000000"/><text class="major" x="-5" y="456.6442557659166">0</text><title>0</title></g><g class="guides"><path class="guide line" d="M0.000000 371.628829 h738.000000"/><text class="" x="-5" y="375.1288292924652">10</text><title>10</title></g><g class="guides"><path class="guide line" d="M0.000000 290.113403 h738.000000"/><text class="" x="-5" y="293.61340281901374">20</text><title>20</title></g><g class="guides"><path class="guide line" d="M0.000000 208.597976 h738.000000"/><text class="" x="-5" y="212.0979763455623">30</text><title>30</title></g><g class="guides"><path class="guide line" d="M0.000000 127.082550 h738.000000"/><text class="" x="-5" y="130.5825498721108">40</text><title>40</title></g><g class="guides"><path class="major guide line" d="M0.000000 45.567123 h738.000000"/><text class="major" x="-5" y="49.06712339865942">50</text><title>50</title></g></g><g class="axis x"><g class="guides"><path class="major line" d="M14.192308 0.000000 v462.029437"/><text class="major" x="14.192307692307692" y="477.02943725152284" transform="rotate(45 14.192308 477.029437)">2005</text></g><g class="guides"><path class="major guide line" d="M25.730769 0.000000 v462.029437"/><text class="major" x="25.73076923076923" y="477.02943725152284" transform="rotate(45 25.730769 477.029437)">2006</text></g><g class="guides"><path class="major guide line" d="M37.269231 0.000000 v462.029437"/><text class="major" x="37.26923076923077" y="477.02943725152284" transform="rotate(45 37.269231 477.029437)">2007</text></g><g class="guides"><path class="major guide line" d="M60.346154 0.000000 v462.029437"/><text class="major" x="60.34615384615385" y="477.02943725152284" transform="rotate(45 60.346154 477.029437)">2008</text></g><g class="guides"><path class="major guide line" d="M123.807692 0.000000 v462.029437"/><text class="major" x="123.80769230769229" y="477.02943725152284" transform="rotate(45 123.807692 477.029437)">2009</text></g><g class="guides"><path class="major guide line" d="M210.346154 0.000000 v462.029437"/><text class="major" x="210.34615384615387" y="477.02943725152284" transform="rotate(45 210.346154 477.029437)">2010</text></g><g class="guides"><path class="major guide line" d="M256.500000 0.000000 v462.029437"/><text class="major" x="256.50000000000006" y="477.02943725152284" transform="rotate(45 256.500000 477.029437)">2011</text></g><g class="guides"><path class="major guide line" d="M337.269231 0.000000 v462.029437"/><text class="major" x="337.2692307692308" y="477.02943725152284" transform="rotate(45 337.269231 477.029437)">2012</text></g><g class="guides"><path class="major guide line" d="M389.192308 0.000000 v462.029437"/><text class="major" x="389.1923076923077" y="477.02943725152284" transform="rotate(45 389.192308 477.029437)">2013</text></g><g class="guides"><path class="major guide line" d="M464.192308 0.000000 v462.029437"/><text class="major" x="464.1923076923077" y="477.02943725152284" transform="rotate(45 464.192308 477.029437)">2014</text></g><g class="guides"><path class="major guide line" d="M544.961538 0.000000 v462.029437"/><text class="major" x="544.9615384615385" y="477.02943725152284" transform="rotate(45 544.961538 477.029437)">2015</text></g><g class="guides"><path class="major guide line" d="M654.576923 0.000000 v462.029437"/><text class="major" x="654.5769230769231" y="477.02943725152284" transform="rotate(45 654.576923 477.029437)">2016</text></g><g class="guides"><path class="major guide line" d="M677.653846 0.000000 v462.029437"/><text class="major" x="677.6538461538461" y="477.02943725152284" transform="rotate(45 677.653846 477.029437)">2018</text></g><g class="guides"><path class="major guide line" d="M706.500000 0.000000 v462.029437"/><text class="major" x="706.5" y="477.02943725152284" transform="rotate(45 706.500000 477.029437)">2019</text></g></g><g class="series serie-0 color-0"><path class="line reactive nofill" d="M14.192308 241.611724 L19.961538 242.182332 25.730769 241.122632 31.500000 242.508394 37.269231 243.894156 43.038462 242.915971 48.807692 243.323548 54.576923 242.834455 60.346154 242.752940 66.115385 241.530209 71.884615 241.937786 77.653846 244.709310 83.423077 247.073258 89.192308 247.888412 94.961538 249.844782 100.730769 251.475091 106.500000 253.431461 112.269231 253.105399 118.038462 249.192659 123.807692 247.888412 129.576923 249.029628 135.346154 248.377504 141.115385 248.214474 146.884615 246.910227 152.653846 246.584165 158.423077 242.752940 164.192308 245.035372 169.961538 241.937786 175.730769 245.850526 181.500000 244.220218 187.269231 243.160517 193.038462 245.035372 198.807692 245.035372 204.576923 248.622051 210.346154 250.985998 216.115385 253.594492 221.884615 258.566933 227.653846 256.610563 233.423077 255.958439 239.192308 257.996325 244.961538 257.670263 250.730769 260.930880 256.500000 260.930880 262.269231 259.871180 268.038462 259.056025 273.807692 257.996325 279.576923 258.974510 285.346154 257.996325 291.115385 254.817223 296.884615 254.898739 302.653846 255.795408 308.423077 250.822967 314.192308 251.719637 319.961538 251.230544 325.730769 251.067514 331.500000 251.638122 337.269231 253.023884 343.038462 251.719637 348.807692 253.920553 354.576923 256.284501 360.346154 257.262686 366.115385 258.322386 371.884615 260.441788 377.653846 261.093911 383.423077 261.093911 389.192308 259.219056 394.961538 261.909065 400.730769 266.473929 406.500000 266.963022 412.269231 269.082423 418.038462 269.326969 423.807692 270.223639 429.576923 269.245454 435.346154 269.979092 441.115385 261.827550 446.884615 258.240871 452.653846 247.480835 458.423077 242.100817 464.192308 235.253521 469.961538 233.541697 475.730769 235.661098 481.500000 242.019301 487.269231 245.279918 493.038462 240.388993 498.807692 245.035372 504.576923 244.872341 510.346154 235.742613 516.115385 235.905644 521.884615 233.297151 527.653846 234.519882 533.423077 227.509555 539.192308 235.661098 544.961538 234.682913 550.730769 225.553185 556.500000 225.797731 562.269231 219.439528 568.038462 226.042278 573.807692 231.177749 579.576923 230.525626 585.346154 227.346524 591.115385 215.608303 596.884615 218.135281 602.653846 215.608303 608.423077 226.857432 614.192308 225.390154 619.961538 235.090490 625.730769 238.840200 631.500000 246.339619 637.269231 238.188076 643.038462 257.833294 648.807692 254.083584 654.576923 240.388993 660.346154 245.932042 666.115385 251.149029 671.884615 274.788503 677.653846 303.318902 683.423077 293.047958 689.192308 270.875762 694.961538 246.665681 700.730769 223.759846 706.500000 143.385635 712.269231 8.885181 718.038462 114.855236 723.807692 192.294891"/></g><g class="series serie-1 color-1"><path class="line reactive nofill" d="M14.192308 453.144256 L19.961538 127.082550 25.730769 281.961860 31.500000 181.453339 37.269231 94.476379 43.038462 189.034274 48.807692 185.529111 54.576923 215.852849 60.346154 221.966506 66.115385 242.426878 71.884615 237.128376 77.653846 201.017042 83.423077 175.421198 89.192308 165.150254 94.961538 149.010200 100.730769 130.180136 106.500000 116.974637 112.269231 127.979220 118.038462 181.208793 123.807692 198.164002 129.576923 192.620953 135.346154 200.772495 141.115385 204.766751 146.884615 215.282241 152.653846 218.379828 158.423077 236.802314 164.192308 227.591071 169.961538 240.225962 175.730769 226.449855 181.500000 232.889573 187.269231 236.639283 193.038462 231.259265 198.807692 231.748357 204.576923 221.558929 210.346154 214.793149 216.115385 207.456760 221.884615 193.273076 227.653846 202.076742 233.423077 205.663421 239.192308 201.587650 244.961538 203.217958 250.730769 196.615209 256.500000 198.734610 262.269231 203.054927 268.038462 206.315544 273.807692 209.902223 279.576923 208.108884 285.346154 211.451016 291.115385 218.787405 296.884615 219.113466 302.653846 218.216797 308.423077 227.917132 314.192308 226.531370 319.961538 227.917132 325.730769 228.650771 331.500000 228.487740 337.269231 226.857432 343.038462 228.813802 348.807692 226.368339 354.576923 223.922877 360.346154 223.107722 366.115385 222.292568 371.884615 219.765590 377.653846 219.521043 383.423077 220.417713 389.192308 223.189238 394.961538 220.417713 400.730769 215.608303 406.500000 215.689818 412.269231 214.059510 418.038462 214.385572 423.807692 214.059510 429.576923 216.097396 435.346154 215.934365 441.115385 225.064092 446.884615 228.813802 452.653846 237.617468 458.423077 241.285662 464.192308 245.279918 469.961538 246.176588 475.730769 244.953857 481.500000 241.367178 487.269231 239.492323 493.038462 242.182332 498.807692 239.818385 504.576923 239.981416 510.346154 244.220218 516.115385 244.057187 521.884615 245.035372 527.653846 244.383249 533.423077 246.828711 539.192308 243.731125 544.961538 243.975671 550.730769 246.747196 556.500000 246.584165 562.269231 248.132958 568.038462 246.095073 573.807692 244.546279 579.576923 244.627795 585.346154 245.198403 591.115385 247.643866 596.884615 246.828711 602.653846 247.236288 608.423077 244.709310 614.192308 244.709310 619.961538 242.834455 625.730769 242.100817 631.500000 240.715054 637.269231 242.100817 643.038462 239.003230 648.807692 239.818385 654.576923 241.693239 660.346154 241.122632 666.115385 240.633539 671.884615 238.595653 677.653846 236.068675 683.423077 237.617468 689.192308 239.818385 694.961538 241.367178 700.730769 242.263847 706.500000 243.649610 712.269231 243.975671 718.038462 242.915971 723.807692 241.856270"/></g><g class="series serie-2 color-2"><path class="line reactive nofill" d="M14.192308 241.611724 L19.961538 241.611724 25.730769 241.611724 31.500000 241.611724 37.269231 241.611724 43.038462 241.611724 48.807692 241.611724 54.576923 241.611724 60.346154 241.611724 66.115385 241.611724 71.884615 241.611724 77.653846 241.611724 83.423077 241.611724 89.192308 241.611724 94.961538 241.611724 100.730769 241.611724 106.500000 241.611724 112.269231 241.611724 118.038462 241.611724 123.807692 241.611724 129.576923 241.611724 135.346154 241.611724 141.115385 241.611724 146.884615 241.611724 152.653846 241.611724 158.423077 241.611724 164.192308 241.611724 169.961538 241.611724 175.730769 241.611724 181.500000 241.611724 187.269231 241.611724 193.038462 241.611724 198.807692 241.611724 204.576923 241.611724 210.346154 241.611724 216.115385 241.611724 221.884615 241.611724 227.653846 241.611724 233.423077 241.611724 239.192308 241.611724 244.961538 241.611724 250.730769 241.611724 256.500000 241.611724 262.269231 241.611724 268.038462 241.611724 273.807692 241.611724 279.576923 241.611724 285.346154 241.611724 291.115385 241.611724 296.884615 241.611724 302.653846 241.611724 308.423077 241.611724 314.192308 241.611724 319.961538 241.611724 325.730769 241.611724 331.500000 241.611724 337.269231 241.611724 343.038462 241.611724 348.807692 241.611724 354.576923 241.611724 360.346154 241.611724 366.115385 241.611724 371.884615 241.611724 377.653846 241.611724 383.423077 241.611724 389.192308 241.611724 394.961538 241.611724 400.730769 241.611724 406.500000 241.611724 412.269231 241.611724 418.038462 241.611724 423.807692 241.611724 429.576923 241.611724 435.346154 241.611724 441.115385 241.611724 446.884615 241.611724 452.653846 241.611724 458.423077 241.611724 464.192308 241.611724 469.961538 241.611724 475.730769 241.611724 481.500000 241.611724 487.269231 241.611724 493.038462 241.611724 498.807692 241.611724 504.576923 241.611724 510.346154 241.611724 516.115385 241.611724 521.884615 241.611724 527.653846 241.611724 533.423077 241.611724 539.192308 241.611724 544.961538 241.611724 550.730769 241.611724 556.500000 241.611724 562.269231 241.611724 568.038462 241.611724 573.807692 241.611724 579.576923 241.611724 585.346154 241.611724 591.115385 241.611724 596.884615 241.611724 602.653846 241.611724 608.423077 241.611724 614.192308 241.611724 619.961538 241.611724 625.730769 241.611724 631.500000 241.611724 637.269231 241.611724 643.038462 241.611724 648.807692 241.611724 654.576923 241.611724 660.346154 241.611724 666.115385 241.611724 671.884615 241.611724 677.653846 241.611724 683.423077 241.611724 689.192308 241.611724 694.961538 241.611724 700.730769 241.611724 706.500000 241.611724 712.269231 241.611724 718.038462 241.611724 723.807692 241.611724"/></g></g><g class="titles"><text class="title plot_title" x="400.0" y="26">DW Steyn: Future and Past Averages in ODIs</text></g><g class="plot overlay" transform="translate(42, 46)"><g class="series serie-0 color-0"><g class="dots"><desc class="label">196 wickets in 124 innings (1042.4 overs)</desc><circle class="dot reactive tooltip-trigger" cx="14.192307692307692" cy="241.61172406731015" r="2.5"/><desc class="value">25.95</desc><desc class="x top">14.192307692307692</desc><desc class="y top">241.61172406731015</desc><desc class="x_label">2005</desc></g><g class="dots"><desc class="label">194 wickets in 122 innings (1032.3 overs)</desc><circle class="dot reactive tooltip-trigger" cx="25.73076923076923" cy="241.12263150846942" r="2.5"/><desc class="value">26.01</desc><desc class="x top">25.73076923076923</desc><desc class="y top">241.12263150846942</desc><desc class="x_label">2006</desc></g><g class="dots"><desc class="label">193 wickets in 120 innings (1024.3 overs)</desc><circle class="dot reactive tooltip-trigger" cx="37.26923076923077" cy="243.89415600856677" r="2.5"/><desc class="value">25.67</desc><desc class="x top">37.26923076923077</desc><desc class="y top">243.89415600856677</desc><desc class="x_label">2007</desc></g><g class="dots"><desc class="label">185 wickets in 116 innings (992.3 overs)</desc><circle class="dot reactive tooltip-trigger" cx="60.34615384615385" cy="242.7529400379385" r="2.5"/><desc class="value">25.81</desc><desc class="x top">60.34615384615385</desc><desc class="y top">242.7529400379385</desc><desc class="x_label">2008</desc></g><g class="dots"><desc class="label">171 wickets in 105 innings (899.4 overs)</desc><circle class="dot reactive tooltip-trigger" cx="123.80769230769229" cy="247.8884119057659" r="2.5"/><desc class="value">25.18</desc><desc class="x top">123.80769230769229</desc><desc class="y top">247.8884119057659</desc><desc class="x_label">2009</desc></g><g class="dots"><desc class="label">145 wickets in 90 innings (760.2 overs)</desc><circle class="dot reactive tooltip-trigger" cx="210.34615384615387" cy="250.98599811175706" r="2.5"/><desc class="value">24.8</desc><desc class="x top">210.34615384615387</desc><desc class="y top">250.98599811175706</desc><desc class="x_label">2010</desc></g><g class="dots"><desc class="label">135 wickets in 82 innings (689.2 overs)</desc><circle class="dot reactive tooltip-trigger" cx="256.50000000000006" cy="260.9308801415182" r="2.5"/><desc class="value">23.58</desc><desc class="x top">256.50000000000006</desc><desc class="y top">260.9308801415182</desc><desc class="x_label">2011</desc></g><g class="dots"><desc class="label">110 wickets in 68 innings (578.5 overs)</desc><circle class="dot reactive tooltip-trigger" cx="337.2692307692308" cy="253.02388377359333" r="2.5"/><desc class="value">24.55</desc><desc class="x top">337.2692307692308</desc><desc class="y top">253.02388377359333</desc><desc class="x_label">2012</desc></g><g class="dots"><desc class="label">100 wickets in 59 innings (505.1 overs)</desc><circle class="dot reactive tooltip-trigger" cx="389.1923076923077" cy="259.21905618557565" r="2.5"/><desc class="value">23.79</desc><desc class="x left top">389.1923076923077</desc><desc class="y left top">259.21905618557565</desc><desc class="x_label">2013</desc></g><g class="dots"><desc class="label">73 wickets in 46 innings (388.1 overs)</desc><circle class="dot reactive tooltip-trigger" cx="464.1923076923077" cy="235.25352080238093" r="2.5"/><desc class="value">26.73</desc><desc class="x left top">464.1923076923077</desc><desc class="y left top">235.25352080238093</desc><desc class="x_label">2014</desc></g><g class="dots"><desc class="label">51 wickets in 32 innings (273.0 overs)</desc><circle class="dot reactive tooltip-trigger" cx="544.9615384615385" cy="234.68291281706675" r="2.5"/><desc class="value">26.8</desc><desc class="x left top">544.9615384615385</desc><desc class="y left top">234.68291281706675</desc><desc class="x_label">2015</desc></g><g class="dots"><desc class="label">21 wickets in 13 innings (108.5 overs)</desc><circle class="dot reactive tooltip-trigger" cx="654.5769230769231" cy="240.38899267020835" r="2.5"/><desc class="value">26.1</desc><desc class="x left top">654.5769230769231</desc><desc class="y left top">240.38899267020835</desc><desc class="x_label">2016</desc></g><g class="dots"><desc class="label">16 wickets in 9 innings (72.3 overs)</desc><circle class="dot reactive tooltip-trigger" cx="677.6538461538461" cy="303.31890190771287" r="2.5"/><desc class="value">18.38</desc><desc class="x left top">677.6538461538461</desc><desc class="y left top">303.31890190771287</desc><desc class="x_label">2018</desc></g><g class="dots"><desc class="label">4 wickets in 4 innings (30.0 overs)</desc><circle class="dot reactive tooltip-trigger" cx="706.5" cy="143.38563516680114" r="2.5"/><desc class="value">38</desc><desc class="x left">706.5</desc><desc class="y left">143.38563516680114</desc><desc class="x_label">2019</desc></g></g><g class="series serie-1 color-1"><g class="dots"><desc class="label">0 wickets over 0 innings</desc><circle class="dot reactive tooltip-trigger" cx="14.192307692307692" cy="453.1442557659166" r="2.5"/><desc class="value">0</desc><desc class="x top">14.192307692307692</desc><desc class="y top">453.1442557659166</desc><desc class="x_label">2005</desc></g><g class="dots"><desc class="label">2 wickets in 2 innings (10.1 overs)</desc><circle class="dot reactive tooltip-trigger" cx="25.73076923076923" cy="281.9618601716686" r="2.5"/><desc class="value">21</desc><desc class="x top">25.73076923076923</desc><desc class="y top">281.9618601716686</desc><desc class="x_label">2006</desc></g><g class="dots"><desc class="label">3 wickets in 4 innings (18.1 overs)</desc><circle class="dot reactive tooltip-trigger" cx="37.26923076923077" cy="94.47637928273025" r="2.5"/><desc class="value">44</desc><desc class="x ">37.26923076923077</desc><desc class="y ">94.47637928273025</desc><desc class="x_label">2007</desc></g><g class="dots"><desc class="label">11 wickets in 8 innings (50.1 overs)</desc><circle class="dot reactive tooltip-trigger" cx="60.34615384615385" cy="221.96650628720832" r="2.5"/><desc class="value">28.36</desc><desc class="x ">60.34615384615385</desc><desc class="y ">221.96650628720832</desc><desc class="x_label">2008</desc></g><g class="dots"><desc class="label">25 wickets in 19 innings (143.0 overs)</desc><circle class="dot reactive tooltip-trigger" cx="123.80769230769229" cy="198.1640017569605" r="2.5"/><desc class="value">31.28</desc><desc class="x ">123.80769230769229</desc><desc class="y ">198.1640017569605</desc><desc class="x_label">2009</desc></g><g class="dots"><desc class="label">51 wickets in 34 innings (282.2 overs)</desc><circle class="dot reactive tooltip-trigger" cx="210.34615384615387" cy="214.79314875754463" r="2.5"/><desc class="value">29.24</desc><desc class="x ">210.34615384615387</desc><desc class="y ">214.79314875754463</desc><desc class="x_label">2010</desc></g><g class="dots"><desc class="label">61 wickets in 42 innings (353.2 overs)</desc><circle class="dot reactive tooltip-trigger" cx="256.50000000000006" cy="198.73460974227464" r="2.5"/><desc class="value">31.21</desc><desc class="x ">256.50000000000006</desc><desc class="y ">198.73460974227464</desc><desc class="x_label">2011</desc></g><g class="dots"><desc class="label">86 wickets in 56 innings (463.5 overs)</desc><circle class="dot reactive tooltip-trigger" cx="337.2692307692308" cy="226.85743187561542" r="2.5"/><desc class="value">27.76</desc><desc class="x ">337.2692307692308</desc><desc class="y ">226.85743187561542</desc><desc class="x_label">2012</desc></g><g class="dots"><desc class="label">96 wickets in 65 innings (537.3 overs)</desc><circle class="dot reactive tooltip-trigger" cx="389.1923076923077" cy="223.18923768431011" r="2.5"/><desc class="value">28.21</desc><desc class="x left">389.1923076923077</desc><desc class="y left">223.18923768431011</desc><desc class="x_label">2013</desc></g><g class="dots"><desc class="label">123 wickets in 78 innings (654.3 overs)</desc><circle class="dot reactive tooltip-trigger" cx="464.1923076923077" cy="245.27991825861545" r="2.5"/><desc class="value">25.5</desc><desc class="x left top">464.1923076923077</desc><desc class="y left top">245.27991825861545</desc><desc class="x_label">2014</desc></g><g class="dots"><desc class="label">145 wickets in 92 innings (769.4 overs)</desc><circle class="dot reactive tooltip-trigger" cx="544.9615384615385" cy="243.97567143504023" r="2.5"/><desc class="value">25.66</desc><desc class="x left top">544.9615384615385</desc><desc class="y left top">243.97567143504023</desc><desc class="x_label">2015</desc></g><g class="dots"><desc class="label">175 wickets in 111 innings (933.5 overs)</desc><circle class="dot reactive tooltip-trigger" cx="654.5769230769231" cy="241.69323949378358" r="2.5"/><desc class="value">25.94</desc><desc class="x left top">654.5769230769231</desc><desc class="y left top">241.69323949378358</desc><desc class="x_label">2016</desc></g><g class="dots"><desc class="label">180 wickets in 115 innings (970.1 overs)</desc><circle class="dot reactive tooltip-trigger" cx="677.6538461538461" cy="236.06867506711546" r="2.5"/><desc class="value">26.63</desc><desc class="x left top">677.6538461538461</desc><desc class="y left top">236.06867506711546</desc><desc class="x_label">2018</desc></g><g class="dots"><desc class="label">192 wickets in 120 innings (1012.4 overs)</desc><circle class="dot reactive tooltip-trigger" cx="706.5" cy="243.64960972914642" r="2.5"/><desc class="value">25.7</desc><desc class="x left top">706.5</desc><desc class="y left top">243.64960972914642</desc><desc class="x_label">2019</desc></g></g><g class="series serie-2 color-2"/></g><g class="plot text-overlay" transform="translate(42, 46)"><g class="series serie-0 color-0"/><g class="series serie-1 color-1"/><g class="series serie-2 color-2"/></g><g class="plot tooltip-overlay" transform="translate(42, 46)"><g class="tooltip" style="opacity: 0" transform="translate(0 0)"><rect class="tooltip-box" height="0" rx="10" ry="10" width="0"/><g class="text"/></g></g><g class="legends" transform="translate(52, 545)"><g class="legend reactive activate-serie" id="activate-serie-0"><rect class="color-0 reactive" height="12" width="12" x="0.0" y="1.0"/><text x="17.0" y="11.2">Future Average</text></g><g class="legend reactive activate-serie" id="activate-serie-1"><rect class="color-1 reactive" height="12" width="12" x="369.0" y="1.0"/><text x="386.0" y="11.2">Past Average</text></g><g class="legend reactive activate-serie" id="activate-serie-2"><rect class="color-2 reactive" height="12" width="12" x="0.0" y="22.0"/><text x="17.0" y="32.2">Career Average</text></g></g></g></svg>