<?xml version='1.0' encoding='utf-8'?>
<svg xmlns:xlink="http://www.w3.org/1999/xlink" xmlns="http://www.w3.org/2000/svg" id="chart-5fd1174e-8830-406c-8fbe-febb7e46e074" class="pygal-chart" viewBox="0 0 800 600"><!--Generated with pygal 2.4.0 (lxml) ©Kozea 2012-2016 on 2019-08-04--><!--http://pygal.org--><!--http://github.com/Kozea/pygal--><defs><style type="text/css">#chart-5fd1174e-8830-406c-8fbe-febb7e46e074{-webkit-user-select:none;-webkit-font-smoothing:antialiased;font-family:Consolas,"Liberation Mono",Menlo,Courier,monospace}#chart-5fd1174e-8830-406c-8fbe-febb7e46e074 .title{font-family:Consolas,"Liberation Mono",Menlo,Courier,monospace;font-size:16px}#chart-5fd1174e-8830-406c-8fbe-febb7e46e074 .legends .legend text{font-family:Consolas,"Liberation Mono",Menlo,Courier,monospace;font-size:14px}#chart-5fd1174e-8830-406c-8fbe-febb7e46e074 .axis text{font-family:Consolas,"Liberation Mono",Menlo,Courier,monospace;font-size:10px}#chart-5fd1174e-8830-406c-8fbe-febb7e46e074 .axis text.major{font-family:Consolas,"Liberation Mono",Menlo,Courier,monospace;font-size:10px}#chart-5fd1174e-8830-406c-8fbe-febb7e46e074 .text-overlay text.value{font-family:Consolas,"Liberation Mono",Menlo,Courier,monospace;font-size:16px}#chart-5fd1174e-8830-406c-8fbe-febb7e46e074 .text-overlay text.label{font-family:Consolas,"Liberation Mono",Menlo,Courier,monospace;font-size:10px}#chart-5fd1174e-8830-406c-8fbe-febb7e46e074 .tooltip{font-family:Consolas,"Liberation Mono",Menlo,Courier,monospace;font-size:14px}#chart-5fd1174e-8830-406c-8fbe-febb7e46e074 text.no_data{font-family:Consolas,"Liberation Mono",Menlo,Courier,monospace;font-size:64px}
#chart-5fd1174e-8830-406c-8fbe-febb7e46e074{background-color:rgba(249,249,249,1)}#chart-5fd1174e-8830-406c-8fbe-febb7e46e074 path,#chart-5fd1174e-8830-406c-8fbe-febb7e46e074 line,#chart-5fd1174e-8830-406c-8fbe-febb7e46e074 rect,#chart-5fd1174e-8830-406c-8fbe-febb7e46e074 circle{-webkit-transition:150ms;-moz-transition:150ms;transition:150ms}#chart-5fd1174e-8830-406c-8fbe-febb7e46e074 .graph &gt; .background{fill:rgba(249,249,249,1)}#chart-5fd1174e-8830-406c-8fbe-febb7e46e074 .plot &gt; .background{fill:rgba(255,255,255,1)}#chart-5fd1174e-8830-406c-8fbe-febb7e46e074 .graph{fill:rgba(0,0,0,.87)}#chart-5fd1174e-8830-406c-8fbe-febb7e46e074 text.no_data{fill:rgba(0,0,0,1)}#chart-5fd1174e-8830-406c-8fbe-febb7e46e074 .title{fill:rgba(0,0,0,1)}#chart-5fd1174e-8830-406c-8fbe-febb7e46e074 .legends .legend text{fill:rgba(0,0,0,.87)}#chart-5fd1174e-8830-406c-8fbe-febb7e46e074 .legends .legend:hover text{fill:rgba(0,0,0,1)}#chart-5fd1174e-8830-406c-8fbe-febb7e46e074 .axis .line{stroke:rgba(0,0,0,1)}#chart-5fd1174e-8830-406c-8fbe-febb7e46e074 .axis .guide.line{stroke:rgba(0,0,0,.54)}#chart-5fd1174e-8830-406c-8fbe-febb7e46e074 .axis .major.line{stroke:rgba(0,0,0,.87)}#chart-5fd1174e-8830-406c-8fbe-febb7e46e074 .axis text.major{fill:rgba(0,0,0,1)}#chart-5fd1174e-8830-406c-8fbe-febb7e46e074 .axis.y .guides:hover .guide.line,#chart-5fd1174e-8830-406c-8fbe-febb7e46e074 .line-graph .axis.x .guides:hover .guide.line,#chart-5fd1174e-8830-406c-8fbe-febb7e46e074 .stackedline-graph .axis.x .guides:hover .guide.line,#chart-5fd1174e-8830-406c-8fbe-febb7e46e074 .xy-graph .axis.x .guides:hover .guide.line{stroke:rgba(0,0,0,1)}#chart-5fd1174e-8830-406c-8fbe-febb7e46e074 .axis .guides:hover text{fill:rgba(0,0,0,1)}#chart-5fd1174e-8830-406c-8fbe-febb7e46e074 .reactive{fill-opacity:.7;stroke-opacity:.8}#chart-5fd1174e-8830-406c-8fbe-febb7e46e074 .ci{stroke:rgba(0,0,0,.87)}#chart-5fd1174e-8830-406c-8fbe-febb7e46e074 .reactive.active,#chart-5fd1174e-8830-406c-8fbe-febb7e46e074 .active .reactive{fill-opacity:.8;stroke-opacity:.9;stroke-width:4}#chart-5fd1174e-8830-406c-8fbe-febb7e46e074 .ci .reactive.active{stroke-width:1.5}#chart-5fd1174e-8830-406c-8fbe-febb7e46e074 .series text{fill:rgba(0,0,0,1)}#chart-5fd1174e-8830-406c-8fbe-febb7e46e074 .tooltip rect{fill:rgba(255,255,255,1);stroke:rgba(0,0,0,1);-webkit-transition:opacity 150ms;-moz-transition:opacity 150ms;transition:opacity 150ms}#chart-5fd1174e-8830-406c-8fbe-febb7e46e074 .tooltip .label{fill:rgba(0,0,0,.87)}#chart-5fd1174e-8830-406c-8fbe-febb7e46e074 .tooltip .label{fill:rgba(0,0,0,.87)}#chart-5fd1174e-8830-406c-8fbe-febb7e46e074 .tooltip .legend{font-size:.8em;fill:rgba(0,0,0,.54)}#chart-5fd1174e-8830-406c-8fbe-febb7e46e074 .tooltip .x_label{font-size:.6em;fill:rgba(0,0,0,1)}#chart-5fd1174e-8830-406c-8fbe-febb7e46e074 .tooltip .xlink{font-size:.5em;text-decoration:underline}#chart-5fd1174e-8830-406c-8fbe-febb7e46e074 .tooltip .value{font-size:1.5em}#chart-5fd1174e-8830-406c-8fbe-febb7e46e074 .bound{font-size:.5em}#chart-5fd1174e-8830-406c-8fbe-febb7e46e074 .max-value{font-size:.75em;fill:rgba(0,0,0,.54)}#chart-5fd1174e-8830-406c-8fbe-febb7e46e074 .map-element{fill:rgba(255,255,255,1);stroke:rgba(0,0,0,.54) !important}#chart-5fd1174e-8830-406c-8fbe-febb7e46e074 .map-element .reactive{fill-opacity:inherit;stroke-opacity:inherit}#chart-5fd1174e-8830-406c-8fbe-febb7e46e074 .color-0,#chart-5fd1174e-8830-406c-8fbe-febb7e46e074 .color-0 a:visited{stroke:red;fill:red}#chart-5fd1174e-8830-406c-8fbe-febb7e46e074 .color-1,#chart-5fd1174e-8830-406c-8fbe-febb7e46e074 .color-1 a:visited{stroke:blue;fill:blue}#chart-5fd1174e-8830-406c-8fbe-febb7e46e074 .color-2,#chart-5fd1174e-8830-406c-8fbe-febb7e46e074 .color-2 a:visited{stroke:green;fill:green}#chart-5fd1174e-8830-406c-8fbe-febb7e46e074 .text-overlay .color-0 text{fill:white}#chart-5fd1174e-8830-406c-8fbe-febb7e46e074 .text-overlay .color-1 text{fill:white}#chart-5fd1174e-8830-406c-8fbe-febb7e46e074 .text-overlay .color-2 text{fill:white}
#chart-5fd1174e-8830-406c-8fbe-febb7e46e074 text.no_data{text-anchor:middle}#chart-5fd1174e-8830-406c-8fbe-febb7e46e074 .guide.line{fill:none}#chart-5fd1174e-8830-406c-8fbe-febb7e46e074 .centered{text-anchor:middle}#chart-5fd1174e-8830-406c-8fbe-febb7e46e074 .title{text-anchor:middle}#chart-5fd1174e-8830-406c-8fbe-febb7e46e074 .legends .legend text{fill-opacity:1}#chart-5fd1174e-8830-406c-8fbe-febb7e46e074 .axis.x text{text-anchor:middle}#chart-5fd1174e-8830-406c-8fbe-febb7e46e074 .axis.x:not(.web) text[transform]{text-anchor:start}#chart-5fd1174e-8830-406c-8fbe-febb7e46e074 .axis.x:not(.web) text[transform].backwards{text-anchor:end}#chart-5fd1174e-8830-406c-8fbe-febb7e46e074 .axis.y text{text-anchor:end}#chart-5fd1174e-8830-406c-8fbe-febb7e46e074 .axis.y text[transform].backwards{text-anchor:start}#chart-5fd1174e-8830-406c-8fbe-febb7e46e074 .axis.y2 text{text-anchor:start}#chart-5fd1174e-8830-406c-8fbe-febb7e46e074 .axis.y2 text[transform].backwards{text-anchor:end}#chart-5fd1174e-8830-406c-8fbe-febb7e46e074 .axis .guide.line{stroke-dasharray:4,4}#chart-5fd1174e-8830-406c-8fbe-febb7e46e074 .axis .major.guide.line{stroke-dasharray:6,6}#chart-5fd1174e-8830-406c-8fbe-febb7e46e074 .horizontal .axis.y .guide.line,#chart-5fd1174e-8830-406c-8fbe-febb7e46e074 .horizontal .axis.y2 .guide.line,#chart-5fd1174e-8830-406c-8fbe-febb7e46e074 .vertical .axis.x .guide.line{opacity:0}#chart-5fd1174e-8830-406c-8fbe-febb7e46e074 .horizontal .axis.always_show .guide.line,#chart-5fd1174e-8830-406c-8fbe-febb7e46e074 .vertical .axis.always_show .guide.line{opacity:1 !important}#chart-5fd1174e-8830-406c-8fbe-febb7e46e074 .axis.y .guides:hover .guide.line,#chart-5fd1174e-8830-406c-8fbe-febb7e46e074 .axis.y2 .guides:hover .guide.line,#chart-5fd1174e-8830-406c-8fbe-febb7e46e074 .axis.x .guides:hover .guide.line{opacity:1}#chart-5fd1174e-8830-406c-8fbe-febb7e46e074 .axis .guides:hover text{opacity:1}#chart-5fd1174e-8830-406c-8fbe-febb7e46e074 .nofill{fill:none}#chart-5fd1174e-8830-406c-8fbe-febb7e46e074 .subtle-fill{fill-opacity:.2}#chart-5fd1174e-8830-406c-8fbe-febb7e46e074 .dot{stroke-width:1px;fill-opacity:1}#chart-5fd1174e-8830-406c-8fbe-febb7e46e074 .dot.active{stroke-width:5px}#chart-5fd1174e-8830-406c-8fbe-febb7e46e074 .dot.negative{fill:transparent}#chart-5fd1174e-8830-406c-8fbe-febb7e46e074 text,#chart-5fd1174e-8830-406c-8fbe-febb7e46e074 tspan{stroke:none !important}#chart-5fd1174e-8830-406c-8fbe-febb7e46e074 .series text.active{opacity:1}#chart-5fd1174e-8830-406c-8fbe-febb7e46e074 .tooltip rect{fill-opacity:.95;stroke-width:.5}#chart-5fd1174e-8830-406c-8fbe-febb7e46e074 .tooltip text{fill-opacity:1}#chart-5fd1174e-8830-406c-8fbe-febb7e46e074 .showable{visibility:hidden}#chart-5fd1174e-8830-406c-8fbe-febb7e46e074 .showable.shown{visibility:visible}#chart-5fd1174e-8830-406c-8fbe-febb7e46e074 .gauge-background{fill:rgba(229,229,229,1);stroke:none}#chart-5fd1174e-8830-406c-8fbe-febb7e46e074 .bg-lines{stroke:rgba(249,249,249,1);stroke-width:2px}</style><script type="text/javascript">window.pygal = window.pygal || {};window.pygal.config = window.pygal.config || {};window.pygal.config['5fd1174e-8830-406c-8fbe-febb7e46e074'] = {"allow_interruptions": false, "box_mode": "extremes", "classes": ["pygal-chart"], "css": ["file://style.css", "file://graph.css"], "defs": [], "disable_xml_declaration": false, "dots_size": 2.5, "dynamic_print_values": false, "explicit_size": false, "fill": false, "force_uri_protocol": "https", "formatter": null, "half_pie": false, "height": 600, "include_x_axis": false, "inner_radius": 0, "interpolate": null, "interpolation_parameters": {}, "interpolation_precision": 250, "inverse_y_axis": false, "js": ["//kozea.github.io/pygal.js/2.0.x/pygal-tooltips.min.js"], "legend_at_bottom": true, "legend_at_bottom_columns": null, "legend_box_size": 12, "logarithmic": false, "margin": 20, "margin_bottom": null, "margin_left": null, "margin_right": null, "margin_top": null, "max_scale": 16, "min_scale": 4, "missing_value_fill_truncation": "x", "no_data_text": "No data", "no_prefix": false, "order_min": null, "pretty_print": false, "print_labels": false, "print_values": false, "print_values_position": "center", "print_zeroes": true, "range": null, "rounded_bars": null, "secondary_range": null, "show_dots": true, "show_legend": true, "show_minor_x_labels": false, "show_minor_y_labels": true, "show_only_major_dots": false, "show_x_guides": false, "show_x_labels": true, "show_y_guides": true, "show_y_labels": true, "spacing": 10, "stack_from_top": false, "strict": false, "stroke": true, "stroke_style": null, "style": {"background": "rgba(249, 249, 249, 1)", "ci_colors": [], "colors": ["red", "blue", "green", "#a3a3a3"], "font_family": "Consolas, \"Liberation Mono\", Menlo, Courier, monospace", "foreground": "rgba(0, 0, 0, .87)", "foreground_strong": "rgba(0, 0, 0, 1)", "foreground_subtle": "rgba(0, 0, 0, .54)", "guide_stroke_dasharray": "4,4", "label_font_family": "Consolas, \"Liberation Mono\", Menlo, Courier, monospace", "label_font_size": 10, "legend_font_family": "Consolas, \"Liberation Mono\", Menlo, Courier, monospace", "legend_font_size": 14, "major_guide_stroke_dasharray": "6,6", "major_label_font_family": "Consolas, \"Liberation Mono\", Menlo, Courier, monospace", "major_label_font_size": 10, "no_data_font_family": "Consolas, \"Liberation Mono\", Menlo, Courier, monospace", "no_data_font_size": 64, "opacity": ".7", "opacity_hover": ".8", "plot_background": "rgba(255, 255, 255, 1)", "stroke_opacity": ".8", "stroke_opacity_hover": ".9", "title_font_family": "Consolas, \"Liberation Mono\", Menlo, Courier, monospace", "title_font_size": 16, "tooltip_font_family": "Consolas, \"Liberation Mono\", Menlo, Courier, monospace", "tooltip_font_size": 14, "transition": "150ms", "value_background": "rgba(229, 229, 229, 1)", "value_colors": [], "value_font_family": "Consolas, \"Liberation Mono\", Menlo, Courier, monospace", "value_font_size": 16, "value_label_font_family": "Consolas, \"Liberation Mono\", Menlo, Courier, monospace", "value_label_font_size": 10}, "title": "E Chigumbura: Future and Past Averages in ODIs", "tooltip_border_radius": 10, "tooltip_fancy_mode": true, "truncate_label": null, "truncate_legend": null, "width": 800, "x_label_rotation": 45, "x_labels": ["2004", "0", "0", "0", "0", "0", "0", "0", "0", "0", "0", "0", "2005", "0", "0", "0", "2006", "0", "0", "0", "0", "0", "0", "0", "0", "2007", "0", "0", "0", "0", "0", "0", "0", "0", "0", "0", "0", "0", "0", "0", "0", "2008", "0", "0", "0", "0", "0", "0", "0", "0", "0", "0", "0", "2009", "0", "0", "0", "0", "0", "0", "0", "0", "0", "0", "0", "0", "0", "0", "0", "0", "0", "0", "0", "0", "0", "0", "0", "2010", "0", "0", "0", "0", "0", "0", "0", "0", "0", "0", "0", "0", "2011", "0", "0", "0", "0", "0", "0", "0", "0", "0", "0", "0", "0", "2012", "0", "0", "2013", "0", "0", "0", "0", "0", "0", "0", "0", "0", "2014", "0", "0", "0", "0", "0", "0", "2015", "0", "0", "0", "0", "0", "0", "2016", "0"], "x_labels_major": ["2004", "2005", "2006", "2007", "2008", "2009", "2010", "2011", "2012", "2013", "2014", "2015", "2016"], "x_labels_major_count": null, "x_labels_major_every": null, "x_title": null, "xrange": null, "y_label_rotation": 0, "y_labels": null, "y_labels_major": null, "y_labels_major_count": null, "y_labels_major_every": null, "y_title": null, "zero": 120.0, "legends": ["Future Average", "Past Average", "Career Average"]}</script><script type="text/javascript" xlink:href="https://kozea.github.io/pygal.js/2.0.x/pygal-tooltips.min.js"/></defs><title>E Chigumbura: Future and Past Averages in ODIs</title><g class="graph line-graph vertical"><rect class="background" height="600" width="800" x="0" y="0"/><g class="plot" transform="translate(48, 46)"><rect class="background" height="462.02943725152284" width="732.0" x="0" y="0"/><g class="axis y always_show"><g class="guides"><path class="axis major line" d="M0.000000 453.144256 h732.000000"/><text class="major" x="-5" y="456.6442557659166">0</text><title>0</title></g><g class="guides"><path class="guide line" d="M0.000000 413.478267 h732.000000"/><text class="" x="-5" y="416.9782669908889">10</text><title>10</title></g><g class="guides"><path class="guide line" d="M0.000000 373.812278 h732.000000"/><text class="" x="-5" y="377.31227821586117">20</text><title>20</title></g><g class="guides"><path class="guide line" d="M0.000000 334.146289 h732.000000"/><text class="" x="-5" y="337.64628944083347">30</text><title>30</title></g><g class="guides"><path class="guide line" d="M0.000000 294.480301 h732.000000"/><text class="" x="-5" y="297.98030066580577">40</text><title>40</title></g><g class="guides"><path class="major guide line" d="M0.000000 254.814312 h732.000000"/><text class="major" x="-5" y="258.314311890778">50</text><title>50</title></g><g class="guides"><path class="guide line" d="M0.000000 215.148323 h732.000000"/><text class="" x="-5" y="218.6483231157503">60</text><title>60</title></g><g class="guides"><path class="guide line" d="M0.000000 175.482334 h732.000000"/><text class="" x="-5" y="178.98233434072262">70</text><title>70</title></g><g class="guides"><path class="guide line" d="M0.000000 135.816346 h732.000000"/><text class="" x="-5" y="139.31634556569492">80</text><title>80</title></g><g class="guides"><path class="guide line" d="M0.000000 96.150357 h732.000000"/><text class="" x="-5" y="99.65035679066716">90</text><title>90</title></g><g class="guides"><path class="major guide line" d="M0.000000 56.484368 h732.000000"/><text class="major" x="-5" y="59.98436801563946">100</text><title>100</title></g><g class="guides"><path class="guide line" d="M0.000000 16.818379 h732.000000"/><text class="" x="-5" y="20.318379240611705">110</text><title>110</title></g></g><g class="axis x"><g class="guides"><path class="major line" d="M14.076923 0.000000 v462.029437"/><text class="major" x="14.076923076923077" y="477.02943725152284" transform="rotate(45 14.076923 477.029437)">2004</text></g><g class="guides"><path class="major guide line" d="M78.551380 0.000000 v462.029437"/><text class="major" x="78.55137991779213" y="477.02943725152284" transform="rotate(45 78.551380 477.029437)">2005</text></g><g class="guides"><path class="major guide line" d="M100.042866 0.000000 v462.029437"/><text class="major" x="100.04286553141515" y="477.02943725152284" transform="rotate(45 100.042866 477.029437)">2006</text></g><g class="guides"><path class="major guide line" d="M148.398708 0.000000 v462.029437"/><text class="major" x="148.39870816206695" y="477.02943725152284" transform="rotate(45 148.398708 477.029437)">2007</text></g><g class="guides"><path class="major guide line" d="M234.364651 0.000000 v462.029437"/><text class="major" x="234.36465061655903" y="477.02943725152284" transform="rotate(45 234.364651 477.029437)">2008</text></g><g class="guides"><path class="major guide line" d="M298.839107 0.000000 v462.029437"/><text class="major" x="298.8391074574281" y="477.02943725152284" transform="rotate(45 298.839107 477.029437)">2009</text></g><g class="guides"><path class="major guide line" d="M427.788021 0.000000 v462.029437"/><text class="major" x="427.7880211391662" y="477.02943725152284" transform="rotate(45 427.788021 477.029437)">2010</text></g><g class="guides"><path class="major guide line" d="M497.635349 0.000000 v462.029437"/><text class="major" x="497.63534938344105" y="477.02943725152284" transform="rotate(45 497.635349 477.029437)">2011</text></g><g class="guides"><path class="major guide line" d="M567.482678 0.000000 v462.029437"/><text class="major" x="567.4826776277157" y="477.02943725152284" transform="rotate(45 567.482678 477.029437)">2012</text></g><g class="guides"><path class="major guide line" d="M583.601292 0.000000 v462.029437"/><text class="major" x="583.6012918379331" y="477.02943725152284" transform="rotate(45 583.601292 477.029437)">2013</text></g><g class="guides"><path class="major guide line" d="M637.330006 0.000000 v462.029437"/><text class="major" x="637.3300058719907" y="477.02943725152284" transform="rotate(45 637.330006 477.029437)">2014</text></g><g class="guides"><path class="major guide line" d="M674.940106 0.000000 v462.029437"/><text class="major" x="674.9401056958309" y="477.02943725152284" transform="rotate(45 674.940106 477.029437)">2015</text></g><g class="guides"><path class="major guide line" d="M712.550206 0.000000 v462.029437"/><text class="major" x="712.5502055196711" y="477.02943725152284" transform="rotate(45 712.550206 477.029437)">2016</text></g></g><g class="series serie-0 color-0"><path class="line reactive nofill" d="M14.076923 285.277791 L19.449794 284.881131 24.822666 285.555453 30.195537 286.626435 35.568409 288.054410 40.941280 284.444806 46.314151 287.062761 51.687023 288.332072 57.059894 285.634785 62.432766 286.388439 67.805637 287.975079 73.178509 288.649400 78.551380 288.808064 83.924251 291.426020 89.297123 290.355038 94.669994 290.672366 100.042866 290.870696 105.415737 292.100341 110.788608 291.029360 116.161480 292.100341 121.534351 293.012659 126.907223 293.567983 132.280094 293.171323 137.652965 291.545017 143.025837 292.536667 148.398708 294.123307 153.771580 294.916627 159.144451 295.392618 164.517322 294.757963 169.890194 291.981343 175.263065 292.179673 180.635937 288.609734 186.008808 287.261091 191.381679 287.261091 196.754551 286.904097 202.127422 286.824765 207.500294 289.006394 212.873165 287.062761 218.246036 281.192194 223.618908 280.398875 228.991779 278.613905 234.364651 278.296577 239.737522 280.954198 245.110393 281.747518 250.483265 281.311192 255.856136 280.835201 261.229008 280.398875 266.601879 275.678622 271.974750 278.058581 277.347622 276.313278 282.720493 277.979249 288.093365 270.958369 293.466236 262.985506 298.839107 264.373815 304.211979 262.271518 309.584850 261.795526 314.957722 259.931224 320.330593 262.826842 325.703464 264.334149 331.076336 258.106589 336.449207 256.837277 341.822079 260.645212 347.194950 244.540821 352.567821 249.102410 357.940693 247.277774 363.313564 236.924951 368.686436 229.785073 374.059307 236.924951 379.432179 234.386328 384.805050 233.791338 390.177921 236.766287 395.550793 244.223493 400.923664 226.929122 406.296536 217.409284 411.669407 221.375883 417.042278 221.534547 422.415150 225.897806 427.788021 229.745407 433.160893 217.448950 438.533764 218.797594 443.906635 206.382140 449.279507 200.987565 454.652378 194.958335 460.025250 201.463557 465.398121 204.160844 470.770992 209.912413 476.143864 214.949993 481.516735 218.202604 486.889607 225.977138 492.262478 221.375883 497.635349 220.304902 503.008221 223.874841 508.381092 228.039769 513.753964 232.006368 519.126835 227.246450 524.499706 208.841431 529.872578 217.488616 535.245449 213.641016 540.618321 205.906148 545.991192 213.561684 551.364063 187.699459 556.736935 194.085683 562.109806 206.302808 567.482678 215.743313 572.855549 189.167100 578.228420 209.000095 583.601292 221.098221 588.974163 230.618059 594.347035 157.354977 599.719906 158.465625 605.092777 129.192125 610.465649 149.025120 615.838520 162.908216 621.211392 170.841414 626.584263 178.139956 631.957134 185.398832 637.330006 192.023052 642.702877 203.248526 648.075749 210.507402 653.448620 188.175451 658.821491 203.248526 664.194363 232.601358 669.567234 246.881114 674.940106 261.954190 680.312977 243.906165 685.685849 255.805962 691.058720 299.438549 696.431591 306.380097 701.804463 301.104521 707.177334 339.421866 712.550206 238.947916 717.923077 373.812278"/></g><g class="series serie-1 color-1"><path class="line reactive nofill" d="M14.076923 453.144256 L19.449794 326.213092 24.822666 258.780911 30.195537 151.682741 35.568409 8.885181 40.941280 305.388448 46.314151 241.922866 51.687023 211.181724 57.059894 279.922883 62.432766 268.023086 67.805637 242.914515 73.178509 232.323696 78.551380 237.797603 83.924251 202.693203 89.297123 226.572128 94.669994 230.142067 100.042866 234.584658 105.415737 223.478181 110.788608 238.233929 116.161480 229.586743 121.534351 222.010539 126.907223 217.686946 132.280094 226.730792 137.652965 242.914515 143.025837 236.210963 148.398708 225.540812 153.771580 225.342482 159.144451 222.526197 164.517322 231.014719 169.890194 252.236023 175.263065 253.505334 180.635937 272.584675 186.008808 278.613905 191.381679 279.248561 196.754551 280.835201 202.127422 281.311192 207.500294 275.638956 212.873165 281.112862 218.246036 293.766313 223.618908 294.956293 228.991779 297.336252 234.364651 297.375918 239.737522 292.774663 245.110393 291.148358 250.483265 291.624349 255.856136 292.100341 261.229008 292.457335 266.601879 298.248570 271.974750 295.035625 277.347622 296.899926 282.720493 294.757963 288.093365 301.739177 293.466236 308.046069 298.839107 306.618093 304.211979 307.847739 309.584850 307.451079 314.957722 308.244399 320.330593 305.626444 325.703464 304.277800 331.076336 308.046069 336.449207 308.165067 341.822079 305.110786 347.194950 313.123315 352.567821 310.029368 357.940693 310.227698 363.313564 313.242313 368.686436 314.749621 374.059307 310.941686 379.432179 311.100350 384.805050 310.307030 390.177921 308.839389 395.550793 305.229784 400.923664 309.950036 406.296536 311.338346 411.669407 309.791372 417.042278 309.751706 422.415150 308.046069 427.788021 306.578427 433.160893 308.799723 438.533764 308.323731 443.906635 309.870704 449.279507 310.148366 454.652378 310.465694 460.025250 308.641059 465.398121 307.887405 470.770992 306.261099 476.143864 304.872790 481.516735 303.960472 486.889607 301.818509 492.262478 302.056505 497.635349 301.342517 503.008221 300.469865 508.381092 299.438549 513.753964 298.446900 519.126835 298.724561 524.499706 300.747527 529.872578 299.002223 535.245449 298.764227 540.618321 299.121221 545.991192 297.812244 551.364063 299.716211 556.736935 298.764227 562.109806 296.939592 567.482678 295.551282 572.855549 297.018924 578.228420 294.599299 583.601292 292.338337 588.974163 291.307022 594.347035 294.837295 599.719906 294.718297 605.092777 295.154622 610.465649 293.885311 615.838520 293.012659 621.211392 292.536667 626.584263 292.060675 631.957134 291.584683 637.330006 291.188024 642.702877 290.474036 648.075749 289.998044 653.448620 290.355038 658.821491 289.561718 664.194363 288.054410 669.567234 287.300757 674.940106 286.507437 680.312977 286.983429 685.685849 286.507437 691.058720 284.722467 696.431591 284.405140 701.804463 284.801799 707.177334 283.651486 712.550206 287.419755 717.923077 286.071111"/></g><g class="series serie-2 color-2"><path class="line reactive nofill" d="M14.076923 285.277791 L19.449794 285.277791 24.822666 285.277791 30.195537 285.277791 35.568409 285.277791 40.941280 285.277791 46.314151 285.277791 51.687023 285.277791 57.059894 285.277791 62.432766 285.277791 67.805637 285.277791 73.178509 285.277791 78.551380 285.277791 83.924251 285.277791 89.297123 285.277791 94.669994 285.277791 100.042866 285.277791 105.415737 285.277791 110.788608 285.277791 116.161480 285.277791 121.534351 285.277791 126.907223 285.277791 132.280094 285.277791 137.652965 285.277791 143.025837 285.277791 148.398708 285.277791 153.771580 285.277791 159.144451 285.277791 164.517322 285.277791 169.890194 285.277791 175.263065 285.277791 180.635937 285.277791 186.008808 285.277791 191.381679 285.277791 196.754551 285.277791 202.127422 285.277791 207.500294 285.277791 212.873165 285.277791 218.246036 285.277791 223.618908 285.277791 228.991779 285.277791 234.364651 285.277791 239.737522 285.277791 245.110393 285.277791 250.483265 285.277791 255.856136 285.277791 261.229008 285.277791 266.601879 285.277791 271.974750 285.277791 277.347622 285.277791 282.720493 285.277791 288.093365 285.277791 293.466236 285.277791 298.839107 285.277791 304.211979 285.277791 309.584850 285.277791 314.957722 285.277791 320.330593 285.277791 325.703464 285.277791 331.076336 285.277791 336.449207 285.277791 341.822079 285.277791 347.194950 285.277791 352.567821 285.277791 357.940693 285.277791 363.313564 285.277791 368.686436 285.277791 374.059307 285.277791 379.432179 285.277791 384.805050 285.277791 390.177921 285.277791 395.550793 285.277791 400.923664 285.277791 406.296536 285.277791 411.669407 285.277791 417.042278 285.277791 422.415150 285.277791 427.788021 285.277791 433.160893 285.277791 438.533764 285.277791 443.906635 285.277791 449.279507 285.277791 454.652378 285.277791 460.025250 285.277791 465.398121 285.277791 470.770992 285.277791 476.143864 285.277791 481.516735 285.277791 486.889607 285.277791 492.262478 285.277791 497.635349 285.277791 503.008221 285.277791 508.381092 285.277791 513.753964 285.277791 519.126835 285.277791 524.499706 285.277791 529.872578 285.277791 535.245449 285.277791 540.618321 285.277791 545.991192 285.277791 551.364063 285.277791 556.736935 285.277791 562.109806 285.277791 567.482678 285.277791 572.855549 285.277791 578.228420 285.277791 583.601292 285.277791 588.974163 285.277791 594.347035 285.277791 599.719906 285.277791 605.092777 285.277791 610.465649 285.277791 615.838520 285.277791 621.211392 285.277791 626.584263 285.277791 631.957134 285.277791 637.330006 285.277791 642.702877 285.277791 648.075749 285.277791 653.448620 285.277791 658.821491 285.277791 664.194363 285.277791 669.567234 285.277791 674.940106 285.277791 680.312977 285.277791 685.685849 285.277791 691.058720 285.277791 696.431591 285.277791 701.804463 285.277791 707.177334 285.277791 712.550206 285.277791 717.923077 285.277791"/></g></g><g class="titles"><text class="title plot_title" x="400.0" y="26">E Chigumbura: Future and Past Averages in ODIs</text></g><g class="plot overlay" transform="translate(48, 46)"><g class="series serie-0 color-0"><g class="dots"><desc class="label">101 wickets in 132 innings (723.1 overs)</desc><circle class="dot reactive tooltip-trigger" cx="14.076923076923077" cy="285.2777912699993" r="2.5"/><desc class="value">42.32</desc><desc class="x top">14.076923076923077</desc><desc class="y top">285.2777912699993</desc><desc class="x_label">2004</desc></g><g class="dots"><desc class="label">94 wickets in 120 innings (671.4 overs)</desc><circle class="dot reactive tooltip-trigger" cx="78.55137991779213" cy="288.8080642709768" r="2.5"/><desc class="value">41.43</desc><desc class="x top">78.55137991779213</desc><desc class="y top">288.8080642709768</desc><desc class="x_label">2005</desc></g><g class="dots"><desc class="label">91 wickets in 116 innings (646.4 overs)</desc><circle class="dot reactive tooltip-trigger" cx="100.04286553141515" cy="290.87069568727827" r="2.5"/><desc class="value">40.91</desc><desc class="x top">100.04286553141515</desc><desc class="y top">290.87069568727827</desc><desc class="x_label">2006</desc></g><g class="dots"><desc class="label">88 wickets in 107 innings (614.4 overs)</desc><circle class="dot reactive tooltip-trigger" cx="148.39870816206695" cy="294.12330676683047" r="2.5"/><desc class="value">40.09</desc><desc class="x top">148.39870816206695</desc><desc class="y top">294.12330676683047</desc><desc class="x_label">2007</desc></g><g class="dots"><desc class="label">64 wickets in 91 innings (493.0 overs)</desc><circle class="dot reactive tooltip-trigger" cx="234.36465061655903" cy="278.29657724559445" r="2.5"/><desc class="value">44.08</desc><desc class="x top">234.36465061655903</desc><desc class="y top">278.29657724559445</desc><desc class="x_label">2008</desc></g><g class="dots"><desc class="label">51 wickets in 79 innings (417.3 overs)</desc><circle class="dot reactive tooltip-trigger" cx="298.8391074574281" cy="264.3738151855597" r="2.5"/><desc class="value">47.59</desc><desc class="x top">298.8391074574281</desc><desc class="y top">264.3738151855597</desc><desc class="x_label">2009</desc></g><g class="dots"><desc class="label">28 wickets in 55 innings (264.0 overs)</desc><circle class="dot reactive tooltip-trigger" cx="427.7880211391662" cy="229.74540698496048" r="2.5"/><desc class="value">56.32</desc><desc class="x left">427.7880211391662</desc><desc class="y left">229.74540698496048</desc><desc class="x_label">2010</desc></g><g class="dots"><desc class="label">20 wickets in 42 innings (210.0 overs)</desc><circle class="dot reactive tooltip-trigger" cx="497.63534938344105" cy="220.3049016565039" r="2.5"/><desc class="value">58.7</desc><desc class="x left">497.63534938344105</desc><desc class="y left">220.3049016565039</desc><desc class="x_label">2011</desc></g><g class="dots"><desc class="label">13 wickets in 29 innings (130.5 overs)</desc><circle class="dot reactive tooltip-trigger" cx="567.4826776277157" cy="215.7433129473757" r="2.5"/><desc class="value">59.85</desc><desc class="x left">567.4826776277157</desc><desc class="y left">215.7433129473757</desc><desc class="x_label">2012</desc></g><g class="dots"><desc class="label">10 wickets in 26 innings (102.5 overs)</desc><circle class="dot reactive tooltip-trigger" cx="583.6012918379331" cy="221.09822143200444" r="2.5"/><desc class="value">58.5</desc><desc class="x left">583.6012918379331</desc><desc class="y left">221.09822143200444</desc><desc class="x_label">2013</desc></g><g class="dots"><desc class="label">6 wickets in 16 innings (64.0 overs)</desc><circle class="dot reactive tooltip-trigger" cx="637.3300058719907" cy="192.02305165990919" r="2.5"/><desc class="value">65.83</desc><desc class="x left">637.3300058719907</desc><desc class="y left">192.02305165990919</desc><desc class="x_label">2014</desc></g><g class="dots"><desc class="label">5 wickets in 9 innings (37.0 overs)</desc><circle class="dot reactive tooltip-trigger" cx="674.9401056958309" cy="261.954189870283" r="2.5"/><desc class="value">48.2</desc><desc class="x left top">674.9401056958309</desc><desc class="y left top">261.954189870283</desc><desc class="x_label">2015</desc></g><g class="dots"><desc class="label">0 wickets in 2 innings (6.0 overs)</desc><circle class="dot reactive tooltip-trigger" cx="712.5502055196711" cy="238.94791638076694" r="2.5"/><desc class="value">54</desc><desc class="x left top">712.5502055196711</desc><desc class="y left top">238.94791638076694</desc><desc class="x_label">2016</desc></g></g><g class="series serie-1 color-1"><g class="dots"><desc class="label">0 wickets over 0 innings</desc><circle class="dot reactive tooltip-trigger" cx="14.076923076923077" cy="453.1442557659166" r="2.5"/><desc class="value">0</desc><desc class="x top">14.076923076923077</desc><desc class="y top">453.1442557659166</desc><desc class="x_label">2004</desc></g><g class="dots"><desc class="label">7 wickets in 12 innings (51.3 overs)</desc><circle class="dot reactive tooltip-trigger" cx="78.55137991779213" cy="237.79760270629112" r="2.5"/><desc class="value">54.29</desc><desc class="x top">78.55137991779213</desc><desc class="y top">237.79760270629112</desc><desc class="x_label">2005</desc></g><g class="dots"><desc class="label">10 wickets in 16 innings (76.3 overs)</desc><circle class="dot reactive tooltip-trigger" cx="100.04286553141515" cy="234.5846576155139" r="2.5"/><desc class="value">55.1</desc><desc class="x top">100.04286553141515</desc><desc class="y top">234.5846576155139</desc><desc class="x_label">2006</desc></g><g class="dots"><desc class="label">13 wickets in 25 innings (108.3 overs)</desc><circle class="dot reactive tooltip-trigger" cx="148.39870816206695" cy="225.54081217480754" r="2.5"/><desc class="value">57.38</desc><desc class="x ">148.39870816206695</desc><desc class="y ">225.54081217480754</desc><desc class="x_label">2007</desc></g><g class="dots"><desc class="label">37 wickets in 41 innings (230.1 overs)</desc><circle class="dot reactive tooltip-trigger" cx="234.36465061655903" cy="297.3759178463828" r="2.5"/><desc class="value">39.27</desc><desc class="x top">234.36465061655903</desc><desc class="y top">297.3759178463828</desc><desc class="x_label">2008</desc></g><g class="dots"><desc class="label">50 wickets in 53 innings (305.4 overs)</desc><circle class="dot reactive tooltip-trigger" cx="298.8391074574281" cy="306.61809323096423" r="2.5"/><desc class="value">36.94</desc><desc class="x top">298.8391074574281</desc><desc class="y top">306.61809323096423</desc><desc class="x_label">2009</desc></g><g class="dots"><desc class="label">73 wickets in 77 innings (459.1 overs)</desc><circle class="dot reactive tooltip-trigger" cx="427.7880211391662" cy="306.57842724218915" r="2.5"/><desc class="value">36.95</desc><desc class="x left top">427.7880211391662</desc><desc class="y left top">306.57842724218915</desc><desc class="x_label">2010</desc></g><g class="dots"><desc class="label">81 wickets in 90 innings (513.1 overs)</desc><circle class="dot reactive tooltip-trigger" cx="497.63534938344105" cy="301.3425167238855" r="2.5"/><desc class="value">38.27</desc><desc class="x left top">497.63534938344105</desc><desc class="y left top">301.3425167238855</desc><desc class="x_label">2011</desc></g><g class="dots"><desc class="label">88 wickets in 103 innings (592.2 overs)</desc><circle class="dot reactive tooltip-trigger" cx="567.4826776277157" cy="295.5512823627315" r="2.5"/><desc class="value">39.73</desc><desc class="x left top">567.4826776277157</desc><desc class="y left top">295.5512823627315</desc><desc class="x_label">2012</desc></g><g class="dots"><desc class="label">91 wickets in 106 innings (620.2 overs)</desc><circle class="dot reactive tooltip-trigger" cx="583.6012918379331" cy="292.3383372719543" r="2.5"/><desc class="value">40.54</desc><desc class="x left top">583.6012918379331</desc><desc class="y left top">292.3383372719543</desc><desc class="x_label">2013</desc></g><g class="dots"><desc class="label">95 wickets in 116 innings (659.1 overs)</desc><circle class="dot reactive tooltip-trigger" cx="637.3300058719907" cy="291.18802359747843" r="2.5"/><desc class="value">40.83</desc><desc class="x left top">637.3300058719907</desc><desc class="y left top">291.18802359747843</desc><desc class="x_label">2014</desc></g><g class="dots"><desc class="label">96 wickets in 123 innings (686.1 overs)</desc><circle class="dot reactive tooltip-trigger" cx="674.9401056958309" cy="286.50743692202514" r="2.5"/><desc class="value">42.01</desc><desc class="x left top">674.9401056958309</desc><desc class="y left top">286.50743692202514</desc><desc class="x_label">2015</desc></g><g class="dots"><desc class="label">101 wickets in 130 innings (717.1 overs)</desc><circle class="dot reactive tooltip-trigger" cx="712.5502055196711" cy="287.41975466385077" r="2.5"/><desc class="value">41.78</desc><desc class="x left top">712.5502055196711</desc><desc class="y left top">287.41975466385077</desc><desc class="x_label">2016</desc></g></g><g class="series serie-2 color-2"/></g><g class="plot text-overlay" transform="translate(48, 46)"><g class="series serie-0 color-0"/><g class="series serie-1 color-1"/><g class="series serie-2 color-2"/></g><g class="plot tooltip-overlay" transform="translate(48, 46)"><g class="tooltip" style="opacity: 0" transform="translate(0 0)"><rect class="tooltip-box" height="0" rx="10" ry="10" width="0"/><g class="text"/></g></g><g class="legends" transform="translate(58, 545)"><g class="legend reactive activate-serie" id="activate-serie-0"><rect class="color-0 reactive" height="12" width="12" x="0.0" y="1.0"/><text x="17.0" y="11.2">Future Average</text></g><g class="legend reactive activate-serie" id="activate-serie-1"><rect class="color-1 reactive" height="12" width="12" x="366.0" y="1.0"/><text x="383.0" y="11.2">Past Average</text></g><g class="legend reactive activate-serie" id="activate-serie-2"><rect class="color-2 reactive" height="12" width="12" x="0.0" y="22.0"/><text x="17.0" y="32.2">Career Average</text></g></g></g></svg>