<?xml version='1.0' encoding='utf-8'?>
<svg xmlns:xlink="http://www.w3.org/1999/xlink" xmlns="http://www.w3.org/2000/svg" id="chart-962eb4fd-cc67-4791-918c-644f9fabe529" class="pygal-chart" viewBox="0 0 800 600"><!--Generated with pygal 2.4.0 (lxml) ©Kozea 2012-2016 on 2019-08-04--><!--http://pygal.org--><!--http://github.com/Kozea/pygal--><defs><style type="text/css">#chart-962eb4fd-cc67-4791-918c-644f9fabe529{-webkit-user-select:none;-webkit-font-smoothing:antialiased;font-family:Consolas,"Liberation Mono",Menlo,Courier,monospace}#chart-962eb4fd-cc67-4791-918c-644f9fabe529 .title{font-family:Consolas,"Liberation Mono",Menlo,Courier,monospace;font-size:16px}#chart-962eb4fd-cc67-4791-918c-644f9fabe529 .legends .legend text{font-family:Consolas,"Liberation Mono",Menlo,Courier,monospace;font-size:14px}#chart-962eb4fd-cc67-4791-918c-644f9fabe529 .axis text{font-family:Consolas,"Liberation Mono",Menlo,Courier,monospace;font-size:10px}#chart-962eb4fd-cc67-4791-918c-644f9fabe529 .axis text.major{font-family:Consolas,"Liberation Mono",Menlo,Courier,monospace;font-size:10px}#chart-962eb4fd-cc67-4791-918c-644f9fabe529 .text-overlay text.value{font-family:Consolas,"Liberation Mono",Menlo,Courier,monospace;font-size:16px}#chart-962eb4fd-cc67-4791-918c-644f9fabe529 .text-overlay text.label{font-family:Consolas,"Liberation Mono",Menlo,Courier,monospace;font-size:10px}#chart-962eb4fd-cc67-4791-918c-644f9fabe529 .tooltip{font-family:Consolas,"Liberation Mono",Menlo,Courier,monospace;font-size:14px}#chart-962eb4fd-cc67-4791-918c-644f9fabe529 text.no_data{font-family:Consolas,"Liberation Mono",Menlo,Courier,monospace;font-size:64px}
#chart-962eb4fd-cc67-4791-918c-644f9fabe529{background-color:rgba(249,249,249,1)}#chart-962eb4fd-cc67-4791-918c-644f9fabe529 path,#chart-962eb4fd-cc67-4791-918c-644f9fabe529 line,#chart-962eb4fd-cc67-4791-918c-644f9fabe529 rect,#chart-962eb4fd-cc67-4791-918c-644f9fabe529 circle{-webkit-transition:150ms;-moz-transition:150ms;transition:150ms}#chart-962eb4fd-cc67-4791-918c-644f9fabe529 .graph &gt; .background{fill:rgba(249,249,249,1)}#chart-962eb4fd-cc67-4791-918c-644f9fabe529 .plot &gt; .background{fill:rgba(255,255,255,1)}#chart-962eb4fd-cc67-4791-918c-644f9fabe529 .graph{fill:rgba(0,0,0,.87)}#chart-962eb4fd-cc67-4791-918c-644f9fabe529 text.no_data{fill:rgba(0,0,0,1)}#chart-962eb4fd-cc67-4791-918c-644f9fabe529 .title{fill:rgba(0,0,0,1)}#chart-962eb4fd-cc67-4791-918c-644f9fabe529 .legends .legend text{fill:rgba(0,0,0,.87)}#chart-962eb4fd-cc67-4791-918c-644f9fabe529 .legends .legend:hover text{fill:rgba(0,0,0,1)}#chart-962eb4fd-cc67-4791-918c-644f9fabe529 .axis .line{stroke:rgba(0,0,0,1)}#chart-962eb4fd-cc67-4791-918c-644f9fabe529 .axis .guide.line{stroke:rgba(0,0,0,.54)}#chart-962eb4fd-cc67-4791-918c-644f9fabe529 .axis .major.line{stroke:rgba(0,0,0,.87)}#chart-962eb4fd-cc67-4791-918c-644f9fabe529 .axis text.major{fill:rgba(0,0,0,1)}#chart-962eb4fd-cc67-4791-918c-644f9fabe529 .axis.y .guides:hover .guide.line,#chart-962eb4fd-cc67-4791-918c-644f9fabe529 .line-graph .axis.x .guides:hover .guide.line,#chart-962eb4fd-cc67-4791-918c-644f9fabe529 .stackedline-graph .axis.x .guides:hover .guide.line,#chart-962eb4fd-cc67-4791-918c-644f9fabe529 .xy-graph .axis.x .guides:hover .guide.line{stroke:rgba(0,0,0,1)}#chart-962eb4fd-cc67-4791-918c-644f9fabe529 .axis .guides:hover text{fill:rgba(0,0,0,1)}#chart-962eb4fd-cc67-4791-918c-644f9fabe529 .reactive{fill-opacity:.7;stroke-opacity:.8}#chart-962eb4fd-cc67-4791-918c-644f9fabe529 .ci{stroke:rgba(0,0,0,.87)}#chart-962eb4fd-cc67-4791-918c-644f9fabe529 .reactive.active,#chart-962eb4fd-cc67-4791-918c-644f9fabe529 .active .reactive{fill-opacity:.8;stroke-opacity:.9;stroke-width:4}#chart-962eb4fd-cc67-4791-918c-644f9fabe529 .ci .reactive.active{stroke-width:1.5}#chart-962eb4fd-cc67-4791-918c-644f9fabe529 .series text{fill:rgba(0,0,0,1)}#chart-962eb4fd-cc67-4791-918c-644f9fabe529 .tooltip rect{fill:rgba(255,255,255,1);stroke:rgba(0,0,0,1);-webkit-transition:opacity 150ms;-moz-transition:opacity 150ms;transition:opacity 150ms}#chart-962eb4fd-cc67-4791-918c-644f9fabe529 .tooltip .label{fill:rgba(0,0,0,.87)}#chart-962eb4fd-cc67-4791-918c-644f9fabe529 .tooltip .label{fill:rgba(0,0,0,.87)}#chart-962eb4fd-cc67-4791-918c-644f9fabe529 .tooltip .legend{font-size:.8em;fill:rgba(0,0,0,.54)}#chart-962eb4fd-cc67-4791-918c-644f9fabe529 .tooltip .x_label{font-size:.6em;fill:rgba(0,0,0,1)}#chart-962eb4fd-cc67-4791-918c-644f9fabe529 .tooltip .xlink{font-size:.5em;text-decoration:underline}#chart-962eb4fd-cc67-4791-918c-644f9fabe529 .tooltip .value{font-size:1.5em}#chart-962eb4fd-cc67-4791-918c-644f9fabe529 .bound{font-size:.5em}#chart-962eb4fd-cc67-4791-918c-644f9fabe529 .max-value{font-size:.75em;fill:rgba(0,0,0,.54)}#chart-962eb4fd-cc67-4791-918c-644f9fabe529 .map-element{fill:rgba(255,255,255,1);stroke:rgba(0,0,0,.54) !important}#chart-962eb4fd-cc67-4791-918c-644f9fabe529 .map-element .reactive{fill-opacity:inherit;stroke-opacity:inherit}#chart-962eb4fd-cc67-4791-918c-644f9fabe529 .color-0,#chart-962eb4fd-cc67-4791-918c-644f9fabe529 .color-0 a:visited{stroke:red;fill:red}#chart-962eb4fd-cc67-4791-918c-644f9fabe529 .color-1,#chart-962eb4fd-cc67-4791-918c-644f9fabe529 .color-1 a:visited{stroke:blue;fill:blue}#chart-962eb4fd-cc67-4791-918c-644f9fabe529 .color-2,#chart-962eb4fd-cc67-4791-918c-644f9fabe529 .color-2 a:visited{stroke:green;fill:green}#chart-962eb4fd-cc67-4791-918c-644f9fabe529 .text-overlay .color-0 text{fill:white}#chart-962eb4fd-cc67-4791-918c-644f9fabe529 .text-overlay .color-1 text{fill:white}#chart-962eb4fd-cc67-4791-918c-644f9fabe529 .text-overlay .color-2 text{fill:white}
#chart-962eb4fd-cc67-4791-918c-644f9fabe529 text.no_data{text-anchor:middle}#chart-962eb4fd-cc67-4791-918c-644f9fabe529 .guide.line{fill:none}#chart-962eb4fd-cc67-4791-918c-644f9fabe529 .centered{text-anchor:middle}#chart-962eb4fd-cc67-4791-918c-644f9fabe529 .title{text-anchor:middle}#chart-962eb4fd-cc67-4791-918c-644f9fabe529 .legends .legend text{fill-opacity:1}#chart-962eb4fd-cc67-4791-918c-644f9fabe529 .axis.x text{text-anchor:middle}#chart-962eb4fd-cc67-4791-918c-644f9fabe529 .axis.x:not(.web) text[transform]{text-anchor:start}#chart-962eb4fd-cc67-4791-918c-644f9fabe529 .axis.x:not(.web) text[transform].backwards{text-anchor:end}#chart-962eb4fd-cc67-4791-918c-644f9fabe529 .axis.y text{text-anchor:end}#chart-962eb4fd-cc67-4791-918c-644f9fabe529 .axis.y text[transform].backwards{text-anchor:start}#chart-962eb4fd-cc67-4791-918c-644f9fabe529 .axis.y2 text{text-anchor:start}#chart-962eb4fd-cc67-4791-918c-644f9fabe529 .axis.y2 text[transform].backwards{text-anchor:end}#chart-962eb4fd-cc67-4791-918c-644f9fabe529 .axis .guide.line{stroke-dasharray:4,4}#chart-962eb4fd-cc67-4791-918c-644f9fabe529 .axis .major.guide.line{stroke-dasharray:6,6}#chart-962eb4fd-cc67-4791-918c-644f9fabe529 .horizontal .axis.y .guide.line,#chart-962eb4fd-cc67-4791-918c-644f9fabe529 .horizontal .axis.y2 .guide.line,#chart-962eb4fd-cc67-4791-918c-644f9fabe529 .vertical .axis.x .guide.line{opacity:0}#chart-962eb4fd-cc67-4791-918c-644f9fabe529 .horizontal .axis.always_show .guide.line,#chart-962eb4fd-cc67-4791-918c-644f9fabe529 .vertical .axis.always_show .guide.line{opacity:1 !important}#chart-962eb4fd-cc67-4791-918c-644f9fabe529 .axis.y .guides:hover .guide.line,#chart-962eb4fd-cc67-4791-918c-644f9fabe529 .axis.y2 .guides:hover .guide.line,#chart-962eb4fd-cc67-4791-918c-644f9fabe529 .axis.x .guides:hover .guide.line{opacity:1}#chart-962eb4fd-cc67-4791-918c-644f9fabe529 .axis .guides:hover text{opacity:1}#chart-962eb4fd-cc67-4791-918c-644f9fabe529 .nofill{fill:none}#chart-962eb4fd-cc67-4791-918c-644f9fabe529 .subtle-fill{fill-opacity:.2}#chart-962eb4fd-cc67-4791-918c-644f9fabe529 .dot{stroke-width:1px;fill-opacity:1}#chart-962eb4fd-cc67-4791-918c-644f9fabe529 .dot.active{stroke-width:5px}#chart-962eb4fd-cc67-4791-918c-644f9fabe529 .dot.negative{fill:transparent}#chart-962eb4fd-cc67-4791-918c-644f9fabe529 text,#chart-962eb4fd-cc67-4791-918c-644f9fabe529 tspan{stroke:none !important}#chart-962eb4fd-cc67-4791-918c-644f9fabe529 .series text.active{opacity:1}#chart-962eb4fd-cc67-4791-918c-644f9fabe529 .tooltip rect{fill-opacity:.95;stroke-width:.5}#chart-962eb4fd-cc67-4791-918c-644f9fabe529 .tooltip text{fill-opacity:1}#chart-962eb4fd-cc67-4791-918c-644f9fabe529 .showable{visibility:hidden}#chart-962eb4fd-cc67-4791-918c-644f9fabe529 .showable.shown{visibility:visible}#chart-962eb4fd-cc67-4791-918c-644f9fabe529 .gauge-background{fill:rgba(229,229,229,1);stroke:none}#chart-962eb4fd-cc67-4791-918c-644f9fabe529 .bg-lines{stroke:rgba(249,249,249,1);stroke-width:2px}</style><script type="text/javascript">window.pygal = window.pygal || {};window.pygal.config = window.pygal.config || {};window.pygal.config['962eb4fd-cc67-4791-918c-644f9fabe529'] = {"allow_interruptions": false, "box_mode": "extremes", "classes": ["pygal-chart"], "css": ["file://style.css", "file://graph.css"], "defs": [], "disable_xml_declaration": false, "dots_size": 2.5, "dynamic_print_values": false, "explicit_size": false, "fill": false, "force_uri_protocol": "https", "formatter": null, "half_pie": false, "height": 600, "include_x_axis": false, "inner_radius": 0, "interpolate": null, "interpolation_parameters": {}, "interpolation_precision": 250, "inverse_y_axis": false, "js": ["//kozea.github.io/pygal.js/2.0.x/pygal-tooltips.min.js"], "legend_at_bottom": true, "legend_at_bottom_columns": null, "legend_box_size": 12, "logarithmic": false, "margin": 20, "margin_bottom": null, "margin_left": null, "margin_right": null, "margin_top": null, "max_scale": 16, "min_scale": 4, "missing_value_fill_truncation": "x", "no_data_text": "No data", "no_prefix": false, "order_min": null, "pretty_print": false, "print_labels": false, "print_values": false, "print_values_position": "center", "print_zeroes": true, "range": null, "rounded_bars": null, "secondary_range": null, "show_dots": true, "show_legend": true, "show_minor_x_labels": false, "show_minor_y_labels": true, "show_only_major_dots": false, "show_x_guides": false, "show_x_labels": true, "show_y_guides": true, "show_y_labels": true, "spacing": 10, "stack_from_top": false, "strict": false, "stroke": true, "stroke_style": null, "style": {"background": "rgba(249, 249, 249, 1)", "ci_colors": [], "colors": ["red", "blue", "green", "#a3a3a3"], "font_family": "Consolas, \"Liberation Mono\", Menlo, Courier, monospace", "foreground": "rgba(0, 0, 0, .87)", "foreground_strong": "rgba(0, 0, 0, 1)", "foreground_subtle": "rgba(0, 0, 0, .54)", "guide_stroke_dasharray": "4,4", "label_font_family": "Consolas, \"Liberation Mono\", Menlo, Courier, monospace", "label_font_size": 10, "legend_font_family": "Consolas, \"Liberation Mono\", Menlo, Courier, monospace", "legend_font_size": 14, "major_guide_stroke_dasharray": "6,6", "major_label_font_family": "Consolas, \"Liberation Mono\", Menlo, Courier, monospace", "major_label_font_size": 10, "no_data_font_family": "Consolas, \"Liberation Mono\", Menlo, Courier, monospace", "no_data_font_size": 64, "opacity": ".7", "opacity_hover": ".8", "plot_background": "rgba(255, 255, 255, 1)", "stroke_opacity": ".8", "stroke_opacity_hover": ".9", "title_font_family": "Consolas, \"Liberation Mono\", Menlo, Courier, monospace", "title_font_size": 16, "tooltip_font_family": "Consolas, \"Liberation Mono\", Menlo, Courier, monospace", "tooltip_font_size": 14, "transition": "150ms", "value_background": "rgba(229, 229, 229, 1)", "value_colors": [], "value_font_family": "Consolas, \"Liberation Mono\", Menlo, Courier, monospace", "value_font_size": 16, "value_label_font_family": "Consolas, \"Liberation Mono\", Menlo, Courier, monospace", "value_label_font_size": 10}, "title": "EJ Chatfield: Future and Past Averages in ODIs", "tooltip_border_radius": 10, "tooltip_fancy_mode": true, "truncate_label": null, "truncate_legend": null, "width": 800, "x_label_rotation": 45, "x_labels": ["1980", "0", "0", "0", "0", "0", "1981", "0", "0", "0", "0", "0", "0", "0", "0", "1982", "1983", "0", "0", "0", "0", "0", "0", "0", "0", "0", "0", "0", "0", "0", "0", "0", "0", "0", "0", "0", "0", "0", "0", "0", "0", "1984", "0", "0", "0", "0", "0", "0", "0", "0", "0", "1985", "0", "0", "0", "0", "0", "0", "0", "0", "0", "0", "0", "1986", "0", "0", "0", "0", "0", "0", "0", "0", "0", "0", "0", "0", "0", "0", "0", "0", "1987", "0", "0", "0", "0", "0", "0", "0", "0", "1988", "0", "0", "0", "0", "0", "0", "0", "0", "0", "0", "0", "0", "0", "0", "0", "0", "0", "0", "0", "0", "0", "1989"], "x_labels_major": ["1980", "1981", "1982", "1983", "1984", "1985", "1986", "1987", "1988", "1989"], "x_labels_major_count": null, "x_labels_major_every": null, "x_title": null, "xrange": null, "y_label_rotation": 0, "y_labels": null, "y_labels_major": null, "y_labels_major_count": null, "y_labels_major_every": null, "y_title": null, "zero": 190.0, "legends": ["Future Average", "Past Average", "Career Average"]}</script><script type="text/javascript" xlink:href="https://kozea.github.io/pygal.js/2.0.x/pygal-tooltips.min.js"/></defs><title>EJ Chatfield: Future and Past Averages in ODIs</title><g class="graph line-graph vertical"><rect class="background" height="600" width="800" x="0" y="0"/><g class="plot" transform="translate(48, 46)"><rect class="background" height="462.02943725152284" width="732.0" x="0" y="0"/><g class="axis y always_show"><g class="guides"><path class="axis major line" d="M0.000000 453.144256 h732.000000"/><text class="major" x="-5" y="456.6442557659166">0</text><title>0</title></g><g class="guides"><path class="guide line" d="M0.000000 404.054855 h732.000000"/><text class="" x="-5" y="407.55485529295413">20</text><title>20</title></g><g class="guides"><path class="guide line" d="M0.000000 354.965455 h732.000000"/><text class="" x="-5" y="358.4654548199917">40</text><title>40</title></g><g class="guides"><path class="guide line" d="M0.000000 305.876054 h732.000000"/><text class="" x="-5" y="309.3760543470292">60</text><title>60</title></g><g class="guides"><path class="guide line" d="M0.000000 256.786654 h732.000000"/><text class="" x="-5" y="260.2866538740667">80</text><title>80</title></g><g class="guides"><path class="major guide line" d="M0.000000 207.697253 h732.000000"/><text class="major" x="-5" y="211.19725340110426">100</text><title>100</title></g><g class="guides"><path class="guide line" d="M0.000000 158.607853 h732.000000"/><text class="" x="-5" y="162.10785292814177">120</text><title>120</title></g><g class="guides"><path class="guide line" d="M0.000000 109.518452 h732.000000"/><text class="" x="-5" y="113.01845245517927">140</text><title>140</title></g><g class="guides"><path class="guide line" d="M0.000000 60.429052 h732.000000"/><text class="" x="-5" y="63.92905198221683">160</text><title>160</title></g><g class="guides"><path class="guide line" d="M0.000000 11.339652 h732.000000"/><text class="" x="-5" y="14.839651509254338">180</text><title>180</title></g></g><g class="axis x"><g class="guides"><path class="major line" d="M14.076923 0.000000 v462.029437"/><text class="major" x="14.076923076923077" y="477.02943725152284" transform="rotate(45 14.076923 477.029437)">1980</text></g><g class="guides"><path class="major guide line" d="M52.122661 0.000000 v462.029437"/><text class="major" x="52.12266112266113" y="477.02943725152284" transform="rotate(45 52.122661 477.029437)">1981</text></g><g class="guides"><path class="major guide line" d="M109.191268 0.000000 v462.029437"/><text class="major" x="109.1912681912682" y="477.02943725152284" transform="rotate(45 109.191268 477.029437)">1982</text></g><g class="guides"><path class="major guide line" d="M115.532225 0.000000 v462.029437"/><text class="major" x="115.53222453222452" y="477.02943725152284" transform="rotate(45 115.532225 477.029437)">1983</text></g><g class="guides"><path class="major guide line" d="M274.056133 0.000000 v462.029437"/><text class="major" x="274.05613305613304" y="477.02943725152284" transform="rotate(45 274.056133 477.029437)">1984</text></g><g class="guides"><path class="major guide line" d="M337.465696 0.000000 v462.029437"/><text class="major" x="337.4656964656965" y="477.02943725152284" transform="rotate(45 337.465696 477.029437)">1985</text></g><g class="guides"><path class="major guide line" d="M413.557173 0.000000 v462.029437"/><text class="major" x="413.5571725571726" y="477.02943725152284" transform="rotate(45 413.557173 477.029437)">1986</text></g><g class="guides"><path class="major guide line" d="M521.353430 0.000000 v462.029437"/><text class="major" x="521.3534303534303" y="477.02943725152284" transform="rotate(45 521.353430 477.029437)">1987</text></g><g class="guides"><path class="major guide line" d="M578.422037 0.000000 v462.029437"/><text class="major" x="578.4220374220374" y="477.02943725152284" transform="rotate(45 578.422037 477.029437)">1988</text></g><g class="guides"><path class="major guide line" d="M717.923077 0.000000 v462.029437"/><text class="major" x="717.9230769230769" y="477.02943725152284" transform="rotate(45 717.923077 477.029437)">1989</text></g></g><g class="series serie-0 color-0"><path class="line reactive nofill" d="M14.076923 389.720750 L20.417879 390.039831 26.758836 388.321702 33.099792 388.837141 39.440748 388.984409 45.781705 388.640784 52.122661 389.156222 58.463617 388.935320 64.804574 388.910775 71.145530 389.745295 77.486486 389.524393 83.827443 389.254401 90.168399 389.156222 96.509356 389.745295 102.850312 389.426214 109.191268 389.524393 115.532225 389.622572 121.873181 389.990742 128.214137 390.236189 134.555094 391.168888 140.896050 392.126131 147.237006 392.150676 153.577963 392.420667 159.918919 392.739748 166.259875 392.224310 172.600832 392.518846 178.941788 392.101586 185.282744 390.997075 191.623701 391.070709 197.964657 389.917108 204.305613 389.278946 210.646570 388.616239 216.987526 388.174434 223.328482 385.891777 229.669439 385.572696 236.010395 386.849020 242.351351 387.339914 248.692308 387.241736 255.033264 386.382671 261.374220 386.259948 267.715177 386.137224 274.056133 387.830808 280.397089 388.419881 286.738046 387.290825 293.079002 385.670875 299.419958 385.572696 305.760915 384.713632 312.101871 383.265494 318.442827 382.553698 324.783784 382.111893 331.124740 382.430974 337.465696 383.314584 343.806653 381.964625 350.147609 382.332796 356.488565 384.075469 362.829522 381.522820 369.170478 381.351008 375.511435 381.719178 381.852391 381.547365 388.193347 383.118226 394.534304 382.553698 400.875260 382.823690 407.216216 383.437307 413.557173 383.609120 419.898129 384.639997 426.239085 382.995502 432.580042 380.639211 438.920998 381.105561 445.261954 376.245710 451.602911 376.957506 457.943867 373.913963 464.284823 374.846662 470.625780 375.509369 476.966736 374.723939 483.307692 373.054899 489.648649 374.061232 495.989605 372.146745 502.330561 371.066778 508.671518 364.218807 515.012474 364.464254 521.353430 366.378740 527.694387 369.127747 534.035343 371.287680 540.376299 372.784907 546.717256 372.220379 553.058212 372.735818 559.399168 372.244924 565.740125 376.343889 572.081081 375.362101 578.422037 379.043806 584.762994 376.859327 591.103950 365.519676 597.444906 354.523650 603.785863 354.965455 610.126819 359.579858 616.467775 343.061275 622.808732 327.303578 629.149688 306.416038 635.490644 311.594970 641.831601 320.872866 648.172557 288.351138 654.513514 299.568066 660.854470 290.339259 667.195426 152.888938 673.536383 199.523868 679.877339 219.159628 686.218295 161.062323 692.559252 8.885181 698.900208 102.155042 705.241164 158.607853 711.582121 215.060663 717.923077 364.783335"/></g><g class="series serie-1 color-1"><path class="line reactive nofill" d="M14.076923 453.144256 L20.417879 342.693105 26.758836 420.818886 33.099792 406.165700 39.440748 401.600385 45.781705 403.809408 52.122661 396.249641 58.463617 398.115038 64.804574 397.452331 71.145530 389.524393 77.486486 391.438879 83.827443 393.304277 90.168399 393.795171 96.509356 389.475303 102.850312 391.512513 109.191268 390.800717 115.532225 390.260734 121.873181 388.149890 128.214137 386.873565 134.555094 381.964625 140.896050 376.712059 147.237006 377.374766 153.577963 376.638425 159.918919 376.491157 166.259875 379.681968 172.600832 378.454733 178.941788 380.982837 185.282744 385.523607 191.623701 385.621785 197.964657 389.205312 204.305613 390.800717 210.646570 392.248854 216.987526 393.206098 223.328482 397.255973 229.669439 397.403242 236.010395 395.046950 242.351351 393.991528 248.692308 393.917894 255.033264 394.997861 261.374220 394.899682 267.715177 394.924227 274.056133 392.469757 280.397089 391.610692 286.738046 393.034285 293.079002 394.801503 299.419958 394.776959 305.760915 395.488755 312.101871 396.715990 318.442827 397.084160 324.783784 397.329607 331.124740 396.789624 337.465696 395.930560 343.806653 396.814169 350.147609 396.298730 356.488565 394.605146 362.829522 396.225096 369.170478 396.151462 375.511435 395.709657 381.852391 395.660568 388.193347 394.506967 394.534304 394.776959 400.875260 394.433333 407.216216 394.040618 413.557173 393.647902 419.898129 392.887017 426.239085 393.672447 432.580042 394.752414 438.920998 394.335154 445.261954 396.102372 451.602911 395.758747 457.943867 396.715990 464.284823 396.102372 470.625780 395.611478 476.966736 395.709657 483.307692 395.930560 489.648649 395.341487 495.989605 395.562389 502.330561 395.685113 508.671518 396.961437 515.012474 396.887803 521.353430 396.347819 527.694387 395.562389 534.035343 394.948772 540.376299 394.531512 546.717256 394.482422 553.058212 394.138796 559.399168 394.089707 565.740125 393.058830 572.081081 392.985195 578.422037 392.150676 584.762994 392.371578 591.103950 393.746081 597.444906 394.580601 603.785863 394.187886 610.126819 393.598813 616.467775 394.482422 622.808732 395.046950 629.149688 395.439666 635.490644 395.071495 641.831601 394.433333 648.172557 395.046950 654.513514 394.457878 660.854470 394.163341 667.195426 394.899682 673.536383 393.868805 679.877339 393.451545 686.218295 393.034285 692.559252 392.887017 698.900208 392.224310 705.241164 391.807050 711.582121 391.414335 717.923077 390.334368"/></g><g class="series serie-2 color-2"><path class="line reactive nofill" d="M14.076923 389.720750 L20.417879 389.720750 26.758836 389.720750 33.099792 389.720750 39.440748 389.720750 45.781705 389.720750 52.122661 389.720750 58.463617 389.720750 64.804574 389.720750 71.145530 389.720750 77.486486 389.720750 83.827443 389.720750 90.168399 389.720750 96.509356 389.720750 102.850312 389.720750 109.191268 389.720750 115.532225 389.720750 121.873181 389.720750 128.214137 389.720750 134.555094 389.720750 140.896050 389.720750 147.237006 389.720750 153.577963 389.720750 159.918919 389.720750 166.259875 389.720750 172.600832 389.720750 178.941788 389.720750 185.282744 389.720750 191.623701 389.720750 197.964657 389.720750 204.305613 389.720750 210.646570 389.720750 216.987526 389.720750 223.328482 389.720750 229.669439 389.720750 236.010395 389.720750 242.351351 389.720750 248.692308 389.720750 255.033264 389.720750 261.374220 389.720750 267.715177 389.720750 274.056133 389.720750 280.397089 389.720750 286.738046 389.720750 293.079002 389.720750 299.419958 389.720750 305.760915 389.720750 312.101871 389.720750 318.442827 389.720750 324.783784 389.720750 331.124740 389.720750 337.465696 389.720750 343.806653 389.720750 350.147609 389.720750 356.488565 389.720750 362.829522 389.720750 369.170478 389.720750 375.511435 389.720750 381.852391 389.720750 388.193347 389.720750 394.534304 389.720750 400.875260 389.720750 407.216216 389.720750 413.557173 389.720750 419.898129 389.720750 426.239085 389.720750 432.580042 389.720750 438.920998 389.720750 445.261954 389.720750 451.602911 389.720750 457.943867 389.720750 464.284823 389.720750 470.625780 389.720750 476.966736 389.720750 483.307692 389.720750 489.648649 389.720750 495.989605 389.720750 502.330561 389.720750 508.671518 389.720750 515.012474 389.720750 521.353430 389.720750 527.694387 389.720750 534.035343 389.720750 540.376299 389.720750 546.717256 389.720750 553.058212 389.720750 559.399168 389.720750 565.740125 389.720750 572.081081 389.720750 578.422037 389.720750 584.762994 389.720750 591.103950 389.720750 597.444906 389.720750 603.785863 389.720750 610.126819 389.720750 616.467775 389.720750 622.808732 389.720750 629.149688 389.720750 635.490644 389.720750 641.831601 389.720750 648.172557 389.720750 654.513514 389.720750 660.854470 389.720750 667.195426 389.720750 673.536383 389.720750 679.877339 389.720750 686.218295 389.720750 692.559252 389.720750 698.900208 389.720750 705.241164 389.720750 711.582121 389.720750 717.923077 389.720750"/></g></g><g class="titles"><text class="title plot_title" x="400.0" y="26">EJ Chatfield: Future and Past Averages in ODIs</text></g><g class="plot overlay" transform="translate(48, 46)"><g class="series serie-0 color-0"><g class="dots"><desc class="label">140 wickets in 112 innings (1010.5 overs)</desc><circle class="dot reactive tooltip-trigger" cx="14.076923076923077" cy="389.7207503548491" r="2.5"/><desc class="value">25.84</desc><desc class="x top">14.076923076923077</desc><desc class="y top">389.7207503548491</desc><desc class="x_label">1980</desc></g><g class="dots"><desc class="label">129 wickets in 106 innings (951.5 overs)</desc><circle class="dot reactive tooltip-trigger" cx="52.12266112266113" cy="389.15622224941" r="2.5"/><desc class="value">26.07</desc><desc class="x top">52.12266112266113</desc><desc class="y top">389.15622224941</desc><desc class="x_label">1981</desc></g><g class="dots"><desc class="label">120 wickets in 97 innings (869.4 overs)</desc><circle class="dot reactive tooltip-trigger" cx="109.1912681912682" cy="389.5243927529573" r="2.5"/><desc class="value">25.92</desc><desc class="x top">109.1912681912682</desc><desc class="y top">389.5243927529573</desc><desc class="x_label">1982</desc></g><g class="dots"><desc class="label">119 wickets in 96 innings (859.4 overs)</desc><circle class="dot reactive tooltip-trigger" cx="115.53222453222452" cy="389.6225715539032" r="2.5"/><desc class="value">25.88</desc><desc class="x top">115.53222453222452</desc><desc class="y top">389.6225715539032</desc><desc class="x_label">1983</desc></g><g class="dots"><desc class="label">83 wickets in 71 innings (614.2 overs)</desc><circle class="dot reactive tooltip-trigger" cx="274.05613305613304" cy="387.83080843664004" r="2.5"/><desc class="value">26.61</desc><desc class="x top">274.05613305613304</desc><desc class="y top">387.83080843664004</desc><desc class="x_label">1984</desc></g><g class="dots"><desc class="label">69 wickets in 61 innings (536.2 overs)</desc><circle class="dot reactive tooltip-trigger" cx="337.4656964656965" cy="383.3145835931275" r="2.5"/><desc class="value">28.45</desc><desc class="x top">337.4656964656965</desc><desc class="y top">383.3145835931275</desc><desc class="x_label">1985</desc></g><g class="dots"><desc class="label">55 wickets in 49 innings (429.2 overs)</desc><circle class="dot reactive tooltip-trigger" cx="413.5571725571726" cy="383.6091199959653" r="2.5"/><desc class="value">28.33</desc><desc class="x left top">413.5571725571726</desc><desc class="y left top">383.6091199959653</desc><desc class="x_label">1986</desc></g><g class="dots"><desc class="label">31 wickets in 32 innings (280.2 overs)</desc><circle class="dot reactive tooltip-trigger" cx="521.3534303534303" cy="366.3787404299554" r="2.5"/><desc class="value">35.35</desc><desc class="x left top">521.3534303534303</desc><desc class="y left top">366.3787404299554</desc><desc class="x_label">1987</desc></g><g class="dots"><desc class="label">26 wickets in 23 innings (205.1 overs)</desc><circle class="dot reactive tooltip-trigger" cx="578.4220374220374" cy="379.0438057519798" r="2.5"/><desc class="value">30.19</desc><desc class="x left top">578.4220374220374</desc><desc class="y left top">379.0438057519798</desc><desc class="x_label">1988</desc></g><g class="dots"><desc class="label">0 wickets in 1 innings (10.0 overs)</desc><circle class="dot reactive tooltip-trigger" cx="717.9230769230769" cy="364.7833349145842" r="2.5"/><desc class="value">36</desc><desc class="x left top">717.9230769230769</desc><desc class="y left top">364.7833349145842</desc><desc class="x_label">1989</desc></g></g><g class="series serie-1 color-1"><g class="dots"><desc class="label">0 wickets over 0 innings</desc><circle class="dot reactive tooltip-trigger" cx="14.076923076923077" cy="453.1442557659166" r="2.5"/><desc class="value">0</desc><desc class="x top">14.076923076923077</desc><desc class="y top">453.1442557659166</desc><desc class="x_label">1980</desc></g><g class="dots"><desc class="label">11 wickets in 6 innings (59.0 overs)</desc><circle class="dot reactive tooltip-trigger" cx="52.12266112266113" cy="396.24964061775313" r="2.5"/><desc class="value">23.18</desc><desc class="x top">52.12266112266113</desc><desc class="y top">396.24964061775313</desc><desc class="x_label">1981</desc></g><g class="dots"><desc class="label">20 wickets in 15 innings (141.1 overs)</desc><circle class="dot reactive tooltip-trigger" cx="109.1912681912682" cy="390.8007171652543" r="2.5"/><desc class="value">25.4</desc><desc class="x top">109.1912681912682</desc><desc class="y top">390.8007171652543</desc><desc class="x_label">1982</desc></g><g class="dots"><desc class="label">21 wickets in 16 innings (151.1 overs)</desc><circle class="dot reactive tooltip-trigger" cx="115.53222453222452" cy="390.2607337600517" r="2.5"/><desc class="value">25.62</desc><desc class="x top">115.53222453222452</desc><desc class="y top">390.2607337600517</desc><desc class="x_label">1983</desc></g><g class="dots"><desc class="label">57 wickets in 41 innings (396.3 overs)</desc><circle class="dot reactive tooltip-trigger" cx="274.05613305613304" cy="392.46975678133504" r="2.5"/><desc class="value">24.72</desc><desc class="x top">274.05613305613304</desc><desc class="y top">392.46975678133504</desc><desc class="x_label">1984</desc></g><g class="dots"><desc class="label">71 wickets in 51 innings (474.3 overs)</desc><circle class="dot reactive tooltip-trigger" cx="337.4656964656965" cy="395.93055951467886" r="2.5"/><desc class="value">23.31</desc><desc class="x top">337.4656964656965</desc><desc class="y top">395.93055951467886</desc><desc class="x_label">1985</desc></g><g class="dots"><desc class="label">85 wickets in 63 innings (581.3 overs)</desc><circle class="dot reactive tooltip-trigger" cx="413.5571725571726" cy="393.6479023926861" r="2.5"/><desc class="value">24.24</desc><desc class="x left top">413.5571725571726</desc><desc class="y left top">393.6479023926861</desc><desc class="x_label">1986</desc></g><g class="dots"><desc class="label">109 wickets in 80 innings (730.3 overs)</desc><circle class="dot reactive tooltip-trigger" cx="521.3534303534303" cy="396.34781941869903" r="2.5"/><desc class="value">23.14</desc><desc class="x left top">521.3534303534303</desc><desc class="y left top">396.34781941869903</desc><desc class="x_label">1987</desc></g><g class="dots"><desc class="label">114 wickets in 89 innings (805.4 overs)</desc><circle class="dot reactive tooltip-trigger" cx="578.4220374220374" cy="392.15067567826077" r="2.5"/><desc class="value">24.85</desc><desc class="x left top">578.4220374220374</desc><desc class="y left top">392.15067567826077</desc><desc class="x_label">1988</desc></g><g class="dots"><desc class="label">140 wickets in 111 innings (1000.5 overs)</desc><circle class="dot reactive tooltip-trigger" cx="717.9230769230769" cy="390.3343678607611" r="2.5"/><desc class="value">25.59</desc><desc class="x left top">717.9230769230769</desc><desc class="y left top">390.3343678607611</desc><desc class="x_label">1989</desc></g></g><g class="series serie-2 color-2"/></g><g class="plot text-overlay" transform="translate(48, 46)"><g class="series serie-0 color-0"/><g class="series serie-1 color-1"/><g class="series serie-2 color-2"/></g><g class="plot tooltip-overlay" transform="translate(48, 46)"><g class="tooltip" style="opacity: 0" transform="translate(0 0)"><rect class="tooltip-box" height="0" rx="10" ry="10" width="0"/><g class="text"/></g></g><g class="legends" transform="translate(58, 545)"><g class="legend reactive activate-serie" id="activate-serie-0"><rect class="color-0 reactive" height="12" width="12" x="0.0" y="1.0"/><text x="17.0" y="11.2">Future Average</text></g><g class="legend reactive activate-serie" id="activate-serie-1"><rect class="color-1 reactive" height="12" width="12" x="366.0" y="1.0"/><text x="383.0" y="11.2">Past Average</text></g><g class="legend reactive activate-serie" id="activate-serie-2"><rect class="color-2 reactive" height="12" width="12" x="0.0" y="22.0"/><text x="17.0" y="32.2">Career Average</text></g></g></g></svg>