<?xml version='1.0' encoding='utf-8'?>
<svg xmlns:xlink="http://www.w3.org/1999/xlink" xmlns="http://www.w3.org/2000/svg" id="chart-0419f7d4-02d3-43b3-aec2-0a6cbe1266e3" class="pygal-chart" viewBox="0 0 800 600"><!--Generated with pygal 2.4.0 (lxml) ©Kozea 2012-2016 on 2019-08-04--><!--http://pygal.org--><!--http://github.com/Kozea/pygal--><defs><style type="text/css">#chart-0419f7d4-02d3-43b3-aec2-0a6cbe1266e3{-webkit-user-select:none;-webkit-font-smoothing:antialiased;font-family:Consolas,"Liberation Mono",Menlo,Courier,monospace}#chart-0419f7d4-02d3-43b3-aec2-0a6cbe1266e3 .title{font-family:Consolas,"Liberation Mono",Menlo,Courier,monospace;font-size:16px}#chart-0419f7d4-02d3-43b3-aec2-0a6cbe1266e3 .legends .legend text{font-family:Consolas,"Liberation Mono",Menlo,Courier,monospace;font-size:14px}#chart-0419f7d4-02d3-43b3-aec2-0a6cbe1266e3 .axis text{font-family:Consolas,"Liberation Mono",Menlo,Courier,monospace;font-size:10px}#chart-0419f7d4-02d3-43b3-aec2-0a6cbe1266e3 .axis text.major{font-family:Consolas,"Liberation Mono",Menlo,Courier,monospace;font-size:10px}#chart-0419f7d4-02d3-43b3-aec2-0a6cbe1266e3 .text-overlay text.value{font-family:Consolas,"Liberation Mono",Menlo,Courier,monospace;font-size:16px}#chart-0419f7d4-02d3-43b3-aec2-0a6cbe1266e3 .text-overlay text.label{font-family:Consolas,"Liberation Mono",Menlo,Courier,monospace;font-size:10px}#chart-0419f7d4-02d3-43b3-aec2-0a6cbe1266e3 .tooltip{font-family:Consolas,"Liberation Mono",Menlo,Courier,monospace;font-size:14px}#chart-0419f7d4-02d3-43b3-aec2-0a6cbe1266e3 text.no_data{font-family:Consolas,"Liberation Mono",Menlo,Courier,monospace;font-size:64px}
#chart-0419f7d4-02d3-43b3-aec2-0a6cbe1266e3{background-color:rgba(249,249,249,1)}#chart-0419f7d4-02d3-43b3-aec2-0a6cbe1266e3 path,#chart-0419f7d4-02d3-43b3-aec2-0a6cbe1266e3 line,#chart-0419f7d4-02d3-43b3-aec2-0a6cbe1266e3 rect,#chart-0419f7d4-02d3-43b3-aec2-0a6cbe1266e3 circle{-webkit-transition:150ms;-moz-transition:150ms;transition:150ms}#chart-0419f7d4-02d3-43b3-aec2-0a6cbe1266e3 .graph &gt; .background{fill:rgba(249,249,249,1)}#chart-0419f7d4-02d3-43b3-aec2-0a6cbe1266e3 .plot &gt; .background{fill:rgba(255,255,255,1)}#chart-0419f7d4-02d3-43b3-aec2-0a6cbe1266e3 .graph{fill:rgba(0,0,0,.87)}#chart-0419f7d4-02d3-43b3-aec2-0a6cbe1266e3 text.no_data{fill:rgba(0,0,0,1)}#chart-0419f7d4-02d3-43b3-aec2-0a6cbe1266e3 .title{fill:rgba(0,0,0,1)}#chart-0419f7d4-02d3-43b3-aec2-0a6cbe1266e3 .legends .legend text{fill:rgba(0,0,0,.87)}#chart-0419f7d4-02d3-43b3-aec2-0a6cbe1266e3 .legends .legend:hover text{fill:rgba(0,0,0,1)}#chart-0419f7d4-02d3-43b3-aec2-0a6cbe1266e3 .axis .line{stroke:rgba(0,0,0,1)}#chart-0419f7d4-02d3-43b3-aec2-0a6cbe1266e3 .axis .guide.line{stroke:rgba(0,0,0,.54)}#chart-0419f7d4-02d3-43b3-aec2-0a6cbe1266e3 .axis .major.line{stroke:rgba(0,0,0,.87)}#chart-0419f7d4-02d3-43b3-aec2-0a6cbe1266e3 .axis text.major{fill:rgba(0,0,0,1)}#chart-0419f7d4-02d3-43b3-aec2-0a6cbe1266e3 .axis.y .guides:hover .guide.line,#chart-0419f7d4-02d3-43b3-aec2-0a6cbe1266e3 .line-graph .axis.x .guides:hover .guide.line,#chart-0419f7d4-02d3-43b3-aec2-0a6cbe1266e3 .stackedline-graph .axis.x .guides:hover .guide.line,#chart-0419f7d4-02d3-43b3-aec2-0a6cbe1266e3 .xy-graph .axis.x .guides:hover .guide.line{stroke:rgba(0,0,0,1)}#chart-0419f7d4-02d3-43b3-aec2-0a6cbe1266e3 .axis .guides:hover text{fill:rgba(0,0,0,1)}#chart-0419f7d4-02d3-43b3-aec2-0a6cbe1266e3 .reactive{fill-opacity:.7;stroke-opacity:.8}#chart-0419f7d4-02d3-43b3-aec2-0a6cbe1266e3 .ci{stroke:rgba(0,0,0,.87)}#chart-0419f7d4-02d3-43b3-aec2-0a6cbe1266e3 .reactive.active,#chart-0419f7d4-02d3-43b3-aec2-0a6cbe1266e3 .active .reactive{fill-opacity:.8;stroke-opacity:.9;stroke-width:4}#chart-0419f7d4-02d3-43b3-aec2-0a6cbe1266e3 .ci .reactive.active{stroke-width:1.5}#chart-0419f7d4-02d3-43b3-aec2-0a6cbe1266e3 .series text{fill:rgba(0,0,0,1)}#chart-0419f7d4-02d3-43b3-aec2-0a6cbe1266e3 .tooltip rect{fill:rgba(255,255,255,1);stroke:rgba(0,0,0,1);-webkit-transition:opacity 150ms;-moz-transition:opacity 150ms;transition:opacity 150ms}#chart-0419f7d4-02d3-43b3-aec2-0a6cbe1266e3 .tooltip .label{fill:rgba(0,0,0,.87)}#chart-0419f7d4-02d3-43b3-aec2-0a6cbe1266e3 .tooltip .label{fill:rgba(0,0,0,.87)}#chart-0419f7d4-02d3-43b3-aec2-0a6cbe1266e3 .tooltip .legend{font-size:.8em;fill:rgba(0,0,0,.54)}#chart-0419f7d4-02d3-43b3-aec2-0a6cbe1266e3 .tooltip .x_label{font-size:.6em;fill:rgba(0,0,0,1)}#chart-0419f7d4-02d3-43b3-aec2-0a6cbe1266e3 .tooltip .xlink{font-size:.5em;text-decoration:underline}#chart-0419f7d4-02d3-43b3-aec2-0a6cbe1266e3 .tooltip .value{font-size:1.5em}#chart-0419f7d4-02d3-43b3-aec2-0a6cbe1266e3 .bound{font-size:.5em}#chart-0419f7d4-02d3-43b3-aec2-0a6cbe1266e3 .max-value{font-size:.75em;fill:rgba(0,0,0,.54)}#chart-0419f7d4-02d3-43b3-aec2-0a6cbe1266e3 .map-element{fill:rgba(255,255,255,1);stroke:rgba(0,0,0,.54) !important}#chart-0419f7d4-02d3-43b3-aec2-0a6cbe1266e3 .map-element .reactive{fill-opacity:inherit;stroke-opacity:inherit}#chart-0419f7d4-02d3-43b3-aec2-0a6cbe1266e3 .color-0,#chart-0419f7d4-02d3-43b3-aec2-0a6cbe1266e3 .color-0 a:visited{stroke:red;fill:red}#chart-0419f7d4-02d3-43b3-aec2-0a6cbe1266e3 .color-1,#chart-0419f7d4-02d3-43b3-aec2-0a6cbe1266e3 .color-1 a:visited{stroke:blue;fill:blue}#chart-0419f7d4-02d3-43b3-aec2-0a6cbe1266e3 .color-2,#chart-0419f7d4-02d3-43b3-aec2-0a6cbe1266e3 .color-2 a:visited{stroke:green;fill:green}#chart-0419f7d4-02d3-43b3-aec2-0a6cbe1266e3 .text-overlay .color-0 text{fill:white}#chart-0419f7d4-02d3-43b3-aec2-0a6cbe1266e3 .text-overlay .color-1 text{fill:white}#chart-0419f7d4-02d3-43b3-aec2-0a6cbe1266e3 .text-overlay .color-2 text{fill:white}
#chart-0419f7d4-02d3-43b3-aec2-0a6cbe1266e3 text.no_data{text-anchor:middle}#chart-0419f7d4-02d3-43b3-aec2-0a6cbe1266e3 .guide.line{fill:none}#chart-0419f7d4-02d3-43b3-aec2-0a6cbe1266e3 .centered{text-anchor:middle}#chart-0419f7d4-02d3-43b3-aec2-0a6cbe1266e3 .title{text-anchor:middle}#chart-0419f7d4-02d3-43b3-aec2-0a6cbe1266e3 .legends .legend text{fill-opacity:1}#chart-0419f7d4-02d3-43b3-aec2-0a6cbe1266e3 .axis.x text{text-anchor:middle}#chart-0419f7d4-02d3-43b3-aec2-0a6cbe1266e3 .axis.x:not(.web) text[transform]{text-anchor:start}#chart-0419f7d4-02d3-43b3-aec2-0a6cbe1266e3 .axis.x:not(.web) text[transform].backwards{text-anchor:end}#chart-0419f7d4-02d3-43b3-aec2-0a6cbe1266e3 .axis.y text{text-anchor:end}#chart-0419f7d4-02d3-43b3-aec2-0a6cbe1266e3 .axis.y text[transform].backwards{text-anchor:start}#chart-0419f7d4-02d3-43b3-aec2-0a6cbe1266e3 .axis.y2 text{text-anchor:start}#chart-0419f7d4-02d3-43b3-aec2-0a6cbe1266e3 .axis.y2 text[transform].backwards{text-anchor:end}#chart-0419f7d4-02d3-43b3-aec2-0a6cbe1266e3 .axis .guide.line{stroke-dasharray:4,4}#chart-0419f7d4-02d3-43b3-aec2-0a6cbe1266e3 .axis .major.guide.line{stroke-dasharray:6,6}#chart-0419f7d4-02d3-43b3-aec2-0a6cbe1266e3 .horizontal .axis.y .guide.line,#chart-0419f7d4-02d3-43b3-aec2-0a6cbe1266e3 .horizontal .axis.y2 .guide.line,#chart-0419f7d4-02d3-43b3-aec2-0a6cbe1266e3 .vertical .axis.x .guide.line{opacity:0}#chart-0419f7d4-02d3-43b3-aec2-0a6cbe1266e3 .horizontal .axis.always_show .guide.line,#chart-0419f7d4-02d3-43b3-aec2-0a6cbe1266e3 .vertical .axis.always_show .guide.line{opacity:1 !important}#chart-0419f7d4-02d3-43b3-aec2-0a6cbe1266e3 .axis.y .guides:hover .guide.line,#chart-0419f7d4-02d3-43b3-aec2-0a6cbe1266e3 .axis.y2 .guides:hover .guide.line,#chart-0419f7d4-02d3-43b3-aec2-0a6cbe1266e3 .axis.x .guides:hover .guide.line{opacity:1}#chart-0419f7d4-02d3-43b3-aec2-0a6cbe1266e3 .axis .guides:hover text{opacity:1}#chart-0419f7d4-02d3-43b3-aec2-0a6cbe1266e3 .nofill{fill:none}#chart-0419f7d4-02d3-43b3-aec2-0a6cbe1266e3 .subtle-fill{fill-opacity:.2}#chart-0419f7d4-02d3-43b3-aec2-0a6cbe1266e3 .dot{stroke-width:1px;fill-opacity:1}#chart-0419f7d4-02d3-43b3-aec2-0a6cbe1266e3 .dot.active{stroke-width:5px}#chart-0419f7d4-02d3-43b3-aec2-0a6cbe1266e3 .dot.negative{fill:transparent}#chart-0419f7d4-02d3-43b3-aec2-0a6cbe1266e3 text,#chart-0419f7d4-02d3-43b3-aec2-0a6cbe1266e3 tspan{stroke:none !important}#chart-0419f7d4-02d3-43b3-aec2-0a6cbe1266e3 .series text.active{opacity:1}#chart-0419f7d4-02d3-43b3-aec2-0a6cbe1266e3 .tooltip rect{fill-opacity:.95;stroke-width:.5}#chart-0419f7d4-02d3-43b3-aec2-0a6cbe1266e3 .tooltip text{fill-opacity:1}#chart-0419f7d4-02d3-43b3-aec2-0a6cbe1266e3 .showable{visibility:hidden}#chart-0419f7d4-02d3-43b3-aec2-0a6cbe1266e3 .showable.shown{visibility:visible}#chart-0419f7d4-02d3-43b3-aec2-0a6cbe1266e3 .gauge-background{fill:rgba(229,229,229,1);stroke:none}#chart-0419f7d4-02d3-43b3-aec2-0a6cbe1266e3 .bg-lines{stroke:rgba(249,249,249,1);stroke-width:2px}</style><script type="text/javascript">window.pygal = window.pygal || {};window.pygal.config = window.pygal.config || {};window.pygal.config['0419f7d4-02d3-43b3-aec2-0a6cbe1266e3'] = {"allow_interruptions": false, "box_mode": "extremes", "classes": ["pygal-chart"], "css": ["file://style.css", "file://graph.css"], "defs": [], "disable_xml_declaration": false, "dots_size": 2.5, "dynamic_print_values": false, "explicit_size": false, "fill": false, "force_uri_protocol": "https", "formatter": null, "half_pie": false, "height": 600, "include_x_axis": false, "inner_radius": 0, "interpolate": null, "interpolation_parameters": {}, "interpolation_precision": 250, "inverse_y_axis": false, "js": ["//kozea.github.io/pygal.js/2.0.x/pygal-tooltips.min.js"], "legend_at_bottom": true, "legend_at_bottom_columns": null, "legend_box_size": 12, "logarithmic": false, "margin": 20, "margin_bottom": null, "margin_left": null, "margin_right": null, "margin_top": null, "max_scale": 16, "min_scale": 4, "missing_value_fill_truncation": "x", "no_data_text": "No data", "no_prefix": false, "order_min": null, "pretty_print": false, "print_labels": false, "print_values": false, "print_values_position": "center", "print_zeroes": true, "range": null, "rounded_bars": null, "secondary_range": null, "show_dots": true, "show_legend": true, "show_minor_x_labels": false, "show_minor_y_labels": true, "show_only_major_dots": false, "show_x_guides": false, "show_x_labels": true, "show_y_guides": true, "show_y_labels": true, "spacing": 10, "stack_from_top": false, "strict": false, "stroke": true, "stroke_style": null, "style": {"background": "rgba(249, 249, 249, 1)", "ci_colors": [], "colors": ["red", "blue", "green", "#a3a3a3"], "font_family": "Consolas, \"Liberation Mono\", Menlo, Courier, monospace", "foreground": "rgba(0, 0, 0, .87)", "foreground_strong": "rgba(0, 0, 0, 1)", "foreground_subtle": "rgba(0, 0, 0, .54)", "guide_stroke_dasharray": "4,4", "label_font_family": "Consolas, \"Liberation Mono\", Menlo, Courier, monospace", "label_font_size": 10, "legend_font_family": "Consolas, \"Liberation Mono\", Menlo, Courier, monospace", "legend_font_size": 14, "major_guide_stroke_dasharray": "6,6", "major_label_font_family": "Consolas, \"Liberation Mono\", Menlo, Courier, monospace", "major_label_font_size": 10, "no_data_font_family": "Consolas, \"Liberation Mono\", Menlo, Courier, monospace", "no_data_font_size": 64, "opacity": ".7", "opacity_hover": ".8", "plot_background": "rgba(255, 255, 255, 1)", "stroke_opacity": ".8", "stroke_opacity_hover": ".9", "title_font_family": "Consolas, \"Liberation Mono\", Menlo, Courier, monospace", "title_font_size": 16, "tooltip_font_family": "Consolas, \"Liberation Mono\", Menlo, Courier, monospace", "tooltip_font_size": 14, "transition": "150ms", "value_background": "rgba(229, 229, 229, 1)", "value_colors": [], "value_font_family": "Consolas, \"Liberation Mono\", Menlo, Courier, monospace", "value_font_size": 16, "value_label_font_family": "Consolas, \"Liberation Mono\", Menlo, Courier, monospace", "value_label_font_size": 10}, "title": "GB Hogg: Future and Past Averages in ODIs", "tooltip_border_radius": 10, "tooltip_fancy_mode": true, "truncate_label": null, "truncate_legend": null, "width": 800, "x_label_rotation": 45, "x_labels": ["1996", "0", "0", "0", "0", "0", "0", "2002", "2003", "0", "0", "0", "0", "0", "0", "0", "0", "0", "0", "0", "0", "0", "0", "0", "0", "0", "0", "0", "0", "0", "0", "0", "0", "0", "0", "2004", "0", "0", "0", "0", "0", "0", "0", "0", "0", "0", "0", "2005", "0", "0", "0", "0", "0", "0", "0", "0", "0", "0", "0", "0", "0", "0", "0", "2006", "0", "0", "0", "0", "0", "0", "0", "0", "0", "0", "0", "0", "0", "0", "0", "0", "0", "2007", "0", "0", "0", "0", "0", "0", "0", "0", "0", "0", "0", "0", "0", "0", "0", "0", "0", "0", "0", "0", "0", "0", "0", "0", "2008", "0", "0", "0", "0", "0", "0"], "x_labels_major": ["1996", "2002", "2003", "2004", "2005", "2006", "2007", "2008"], "x_labels_major_count": null, "x_labels_major_every": null, "x_title": null, "xrange": null, "y_label_rotation": 0, "y_labels": null, "y_labels_major": null, "y_labels_major_count": null, "y_labels_major_every": null, "y_title": null, "zero": 150.0, "legends": ["Future Average", "Past Average", "Career Average"]}</script><script type="text/javascript" xlink:href="https://kozea.github.io/pygal.js/2.0.x/pygal-tooltips.min.js"/></defs><title>GB Hogg: Future and Past Averages in ODIs</title><g class="graph line-graph vertical"><rect class="background" height="600" width="800" x="0" y="0"/><g class="plot" transform="translate(48, 46)"><rect class="background" height="462.02943725152284" width="732.0" x="0" y="0"/><g class="axis y always_show"><g class="guides"><path class="axis major line" d="M0.000000 453.144256 h732.000000"/><text class="major" x="-5" y="456.6442557659166">0</text><title>0</title></g><g class="guides"><path class="guide line" d="M0.000000 421.636520 h732.000000"/><text class="" x="-5" y="425.1365200013556">10</text><title>10</title></g><g class="guides"><path class="guide line" d="M0.000000 390.128784 h732.000000"/><text class="" x="-5" y="393.62878423679456">20</text><title>20</title></g><g class="guides"><path class="guide line" d="M0.000000 358.621048 h732.000000"/><text class="" x="-5" y="362.12104847223355">30</text><title>30</title></g><g class="guides"><path class="guide line" d="M0.000000 327.113313 h732.000000"/><text class="" x="-5" y="330.61331270767255">40</text><title>40</title></g><g class="guides"><path class="major guide line" d="M0.000000 295.605577 h732.000000"/><text class="major" x="-5" y="299.1055769431115">50</text><title>50</title></g><g class="guides"><path class="guide line" d="M0.000000 264.097841 h732.000000"/><text class="" x="-5" y="267.5978411785505">60</text><title>60</title></g><g class="guides"><path class="guide line" d="M0.000000 232.590105 h732.000000"/><text class="" x="-5" y="236.09010541398948">70</text><title>70</title></g><g class="guides"><path class="guide line" d="M0.000000 201.082370 h732.000000"/><text class="" x="-5" y="204.58236964942841">80</text><title>80</title></g><g class="guides"><path class="guide line" d="M0.000000 169.574634 h732.000000"/><text class="" x="-5" y="173.0746338848674">90</text><title>90</title></g><g class="guides"><path class="major guide line" d="M0.000000 138.066898 h732.000000"/><text class="major" x="-5" y="141.56689812030635">100</text><title>100</title></g><g class="guides"><path class="guide line" d="M0.000000 106.559162 h732.000000"/><text class="" x="-5" y="110.05916235574534">110</text><title>110</title></g><g class="guides"><path class="guide line" d="M0.000000 75.051427 h732.000000"/><text class="" x="-5" y="78.55142659118434">120</text><title>120</title></g><g class="guides"><path class="guide line" d="M0.000000 43.543691 h732.000000"/><text class="" x="-5" y="47.04369082662333">130</text><title>130</title></g><g class="guides"><path class="guide line" d="M0.000000 12.035955 h732.000000"/><text class="" x="-5" y="15.535955062062328">140</text><title>140</title></g></g><g class="axis x"><g class="guides"><path class="major line" d="M14.076923 0.000000 v462.029437"/><text class="major" x="14.076923076923077" y="477.02943725152284" transform="rotate(45 14.076923 477.029437)">1996</text></g><g class="guides"><path class="major guide line" d="M58.067308 0.000000 v462.029437"/><text class="major" x="58.06730769230769" y="477.02943725152284" transform="rotate(45 58.067308 477.029437)">2002</text></g><g class="guides"><path class="major guide line" d="M64.351648 0.000000 v462.029437"/><text class="major" x="64.35164835164835" y="477.02943725152284" transform="rotate(45 64.351648 477.029437)">2003</text></g><g class="guides"><path class="major guide line" d="M234.028846 0.000000 v462.029437"/><text class="major" x="234.02884615384616" y="477.02943725152284" transform="rotate(45 234.028846 477.029437)">2004</text></g><g class="guides"><path class="major guide line" d="M309.440934 0.000000 v462.029437"/><text class="major" x="309.4409340659341" y="477.02943725152284" transform="rotate(45 309.440934 477.029437)">2005</text></g><g class="guides"><path class="major guide line" d="M409.990385 0.000000 v462.029437"/><text class="major" x="409.9903846153846" y="477.02943725152284" transform="rotate(45 409.990385 477.029437)">2006</text></g><g class="guides"><path class="major guide line" d="M523.108516 0.000000 v462.029437"/><text class="major" x="523.1085164835164" y="477.02943725152284" transform="rotate(45 523.108516 477.029437)">2007</text></g><g class="guides"><path class="major guide line" d="M680.217033 0.000000 v462.029437"/><text class="major" x="680.217032967033" y="477.02943725152284" transform="rotate(45 680.217033 477.029437)">2008</text></g></g><g class="series serie-0 color-0"><path class="line reactive nofill" d="M14.076923 368.545985 L20.361264 368.545985 26.645604 369.207648 32.929945 369.963833 39.214286 370.877558 45.498626 370.814542 51.782967 371.129620 58.067308 371.381681 64.351648 371.728267 70.635989 373.303653 76.920330 372.862545 83.204670 372.578975 89.489011 372.295406 95.773352 371.413189 102.057692 371.696759 108.342033 372.043344 114.626374 371.507712 120.910714 371.287158 127.195055 370.530973 133.479396 371.192635 139.763736 371.035096 146.048077 371.287158 152.332418 371.413189 158.616758 370.877558 164.901099 371.728267 171.185440 371.759774 177.469780 373.083099 183.754121 374.091347 190.038462 374.973563 196.322802 376.139350 202.607143 376.801012 208.891484 375.761257 215.175824 375.320148 221.460165 376.517442 227.744505 376.611966 234.028846 376.359904 240.313187 376.674981 246.597527 377.084582 252.881868 374.847532 259.166209 375.824272 265.450549 376.296888 271.734890 375.824272 278.019231 376.391411 284.303571 376.611966 290.587912 375.509195 296.872253 376.076334 303.156593 377.084582 309.440934 376.233873 315.725275 373.209130 322.009615 373.303653 328.293956 373.555715 334.578297 375.131102 340.862637 375.603718 347.146978 376.296888 353.431319 378.061321 359.715659 377.084582 366.000000 379.038061 372.284341 380.109324 378.568681 379.038061 384.853022 377.935290 391.137363 376.170857 397.421703 376.170857 403.706044 376.422919 409.990385 375.761257 416.274725 377.210613 422.559066 375.351656 428.843407 375.635226 435.127747 374.942056 441.412088 377.368151 447.696429 378.943538 453.980769 380.298371 460.265110 381.464157 466.549451 380.928525 472.833791 381.306618 479.118132 381.432649 485.402473 382.094312 491.686813 380.329878 497.971154 378.187352 504.255495 374.689994 510.539835 374.563963 516.824176 375.729749 523.108516 374.784517 529.392857 372.358421 535.677198 376.107842 541.961538 379.447662 548.245879 380.613448 554.530220 384.772469 560.814560 387.608165 567.098901 387.261580 573.383242 382.692959 579.667582 382.157327 585.951923 381.054556 592.236264 382.976528 598.520604 384.331361 604.804945 383.008036 611.089286 381.968281 617.373626 374.248885 623.657967 374.122854 629.942308 373.272146 636.226648 367.600753 642.510989 361.015636 648.795330 369.554233 655.079670 369.837802 661.364011 354.934643 667.648352 365.458227 673.932692 371.507712 680.217033 360.196435 686.501374 354.556551 692.785714 340.976716 699.070055 297.716595 705.354396 313.470463 711.638736 341.291794 717.923077 333.414860"/></g><g class="series serie-1 color-1"><path class="line reactive nofill" d="M14.076923 453.144256 L20.361264 371.224143 26.645604 267.248615 32.929945 150.669992 39.214286 8.885181 45.498626 194.780822 51.782967 236.780634 58.067308 224.177540 64.351648 247.556280 70.635989 188.479275 76.920330 277.142044 83.204670 302.946879 89.489011 319.078840 95.773352 339.495853 102.057692 336.565633 108.342033 335.714925 114.626374 345.828908 120.910714 348.822143 127.195055 356.478522 133.479396 352.477040 139.763736 354.934643 146.048077 353.516795 152.332418 353.579811 158.616758 357.455262 164.901099 354.020919 171.185440 354.493535 177.469780 348.727619 183.754121 344.285029 190.038462 340.472593 196.322802 335.368339 202.607143 332.438120 208.891484 340.693147 215.175824 344.348044 221.460165 339.999977 227.744505 340.693147 234.028846 343.465828 240.313187 343.371304 246.597527 342.961704 252.881868 352.540055 259.166209 350.019437 265.450549 349.452297 271.734890 351.720854 278.019231 350.933161 284.303571 351.500300 290.587912 355.060674 296.872253 354.367504 303.156593 352.445532 309.440934 355.249721 315.725275 361.519760 322.009615 361.582776 328.293956 361.393729 334.578297 359.345726 340.862637 359.188188 347.146978 358.526525 353.431319 356.257968 359.715659 358.368987 366.000000 356.005906 372.284341 355.092182 378.568681 357.234708 384.853022 358.936126 391.137363 361.330714 397.421703 361.488252 403.706044 361.456745 409.990385 362.370469 416.274725 361.330714 422.559066 363.315701 428.843407 363.221178 435.127747 363.977364 441.412088 362.244438 447.696429 361.141667 453.980769 360.416989 460.265110 359.818342 466.549451 360.606036 472.833791 360.574528 479.118132 360.921113 485.402473 360.543020 491.686813 362.149915 497.971154 363.725302 504.255495 365.741797 510.539835 365.962351 516.824176 365.458227 523.108516 365.962351 529.392857 367.065122 535.677198 365.584258 541.961538 364.260933 548.245879 363.819825 554.530220 362.181423 560.814560 361.078652 567.098901 361.425237 573.383242 363.851333 579.667582 364.481487 585.951923 365.206165 592.236264 364.702041 598.520604 364.481487 604.804945 364.985611 611.089286 365.489735 617.373626 367.474722 623.657967 367.537738 629.942308 367.726784 636.226648 368.703524 642.510989 369.491217 648.795330 368.451462 655.079670 368.419954 661.364011 369.680264 667.648352 368.829555 673.932692 368.325431 680.217033 369.018601 686.501374 369.207648 692.785714 369.459710 699.070055 369.932326 705.354396 369.648756 711.638736 368.924078 717.923077 368.798047"/></g><g class="series serie-2 color-2"><path class="line reactive nofill" d="M14.076923 368.545985 L20.361264 368.545985 26.645604 368.545985 32.929945 368.545985 39.214286 368.545985 45.498626 368.545985 51.782967 368.545985 58.067308 368.545985 64.351648 368.545985 70.635989 368.545985 76.920330 368.545985 83.204670 368.545985 89.489011 368.545985 95.773352 368.545985 102.057692 368.545985 108.342033 368.545985 114.626374 368.545985 120.910714 368.545985 127.195055 368.545985 133.479396 368.545985 139.763736 368.545985 146.048077 368.545985 152.332418 368.545985 158.616758 368.545985 164.901099 368.545985 171.185440 368.545985 177.469780 368.545985 183.754121 368.545985 190.038462 368.545985 196.322802 368.545985 202.607143 368.545985 208.891484 368.545985 215.175824 368.545985 221.460165 368.545985 227.744505 368.545985 234.028846 368.545985 240.313187 368.545985 246.597527 368.545985 252.881868 368.545985 259.166209 368.545985 265.450549 368.545985 271.734890 368.545985 278.019231 368.545985 284.303571 368.545985 290.587912 368.545985 296.872253 368.545985 303.156593 368.545985 309.440934 368.545985 315.725275 368.545985 322.009615 368.545985 328.293956 368.545985 334.578297 368.545985 340.862637 368.545985 347.146978 368.545985 353.431319 368.545985 359.715659 368.545985 366.000000 368.545985 372.284341 368.545985 378.568681 368.545985 384.853022 368.545985 391.137363 368.545985 397.421703 368.545985 403.706044 368.545985 409.990385 368.545985 416.274725 368.545985 422.559066 368.545985 428.843407 368.545985 435.127747 368.545985 441.412088 368.545985 447.696429 368.545985 453.980769 368.545985 460.265110 368.545985 466.549451 368.545985 472.833791 368.545985 479.118132 368.545985 485.402473 368.545985 491.686813 368.545985 497.971154 368.545985 504.255495 368.545985 510.539835 368.545985 516.824176 368.545985 523.108516 368.545985 529.392857 368.545985 535.677198 368.545985 541.961538 368.545985 548.245879 368.545985 554.530220 368.545985 560.814560 368.545985 567.098901 368.545985 573.383242 368.545985 579.667582 368.545985 585.951923 368.545985 592.236264 368.545985 598.520604 368.545985 604.804945 368.545985 611.089286 368.545985 617.373626 368.545985 623.657967 368.545985 629.942308 368.545985 636.226648 368.545985 642.510989 368.545985 648.795330 368.545985 655.079670 368.545985 661.364011 368.545985 667.648352 368.545985 673.932692 368.545985 680.217033 368.545985 686.501374 368.545985 692.785714 368.545985 699.070055 368.545985 705.354396 368.545985 711.638736 368.545985 717.923077 368.545985"/></g></g><g class="titles"><text class="title plot_title" x="400.0" y="26">GB Hogg: Future and Past Averages in ODIs</text></g><g class="plot overlay" transform="translate(48, 46)"><g class="series serie-0 color-0"><g class="dots"><desc class="label">156 wickets in 113 innings (927.2 overs)</desc><circle class="dot reactive tooltip-trigger" cx="14.076923076923077" cy="368.5459852380703" r="2.5"/><desc class="value">26.85</desc><desc class="x top">14.076923076923077</desc><desc class="y top">368.5459852380703</desc><desc class="x_label">1996</desc></g><g class="dots"><desc class="label">153 wickets in 106 innings (878.1 overs)</desc><circle class="dot reactive tooltip-trigger" cx="58.06730769230769" cy="371.38168145688076" r="2.5"/><desc class="value">25.95</desc><desc class="x top">58.06730769230769</desc><desc class="y top">371.38168145688076</desc><desc class="x_label">2002</desc></g><g class="dots"><desc class="label">152 wickets in 105 innings (868.1 overs)</desc><circle class="dot reactive tooltip-trigger" cx="64.35164835164835" cy="371.7282665502909" r="2.5"/><desc class="value">25.84</desc><desc class="x top">64.35164835164835</desc><desc class="y top">371.7282665502909</desc><desc class="x_label">2003</desc></g><g class="dots"><desc class="label">119 wickets in 78 innings (626.1 overs)</desc><circle class="dot reactive tooltip-trigger" cx="234.02884615384616" cy="376.3599037076814" r="2.5"/><desc class="value">24.37</desc><desc class="x top">234.02884615384616</desc><desc class="y top">376.3599037076814</desc><desc class="x_label">2004</desc></g><g class="dots"><desc class="label">99 wickets in 66 innings (524.1 overs)</desc><circle class="dot reactive tooltip-trigger" cx="309.4409340659341" cy="376.23387276462313" r="2.5"/><desc class="value">24.41</desc><desc class="x top">309.4409340659341</desc><desc class="y top">376.23387276462313</desc><desc class="x_label">2005</desc></g><g class="dots"><desc class="label">72 wickets in 50 innings (391.2 overs)</desc><circle class="dot reactive tooltip-trigger" cx="409.9903846153846" cy="375.76125672815476" r="2.5"/><desc class="value">24.56</desc><desc class="x left top">409.9903846153846</desc><desc class="y left top">375.76125672815476</desc><desc class="x_label">2006</desc></g><g class="dots"><desc class="label">46 wickets in 32 innings (250.2 overs)</desc><circle class="dot reactive tooltip-trigger" cx="523.1085164835164" cy="374.7845169194534" r="2.5"/><desc class="value">24.87</desc><desc class="x left top">523.1085164835164</desc><desc class="y left top">374.7845169194534</desc><desc class="x_label">2007</desc></g><g class="dots"><desc class="label">8 wickets in 7 innings (54.3 overs)</desc><circle class="dot reactive tooltip-trigger" cx="680.217032967033" cy="360.1964352604616" r="2.5"/><desc class="value">29.5</desc><desc class="x left top">680.217032967033</desc><desc class="y left top">360.1964352604616</desc><desc class="x_label">2008</desc></g></g><g class="series serie-1 color-1"><g class="dots"><desc class="label">0 wickets over 0 innings</desc><circle class="dot reactive tooltip-trigger" cx="14.076923076923077" cy="453.1442557659166" r="2.5"/><desc class="value">0</desc><desc class="x top">14.076923076923077</desc><desc class="y top">453.1442557659166</desc><desc class="x_label">1996</desc></g><g class="dots"><desc class="label">3 wickets in 7 innings (49.1 overs)</desc><circle class="dot reactive tooltip-trigger" cx="58.06730769230769" cy="224.17753996485166" r="2.5"/><desc class="value">72.67</desc><desc class="x ">58.06730769230769</desc><desc class="y ">224.17753996485166</desc><desc class="x_label">2002</desc></g><g class="dots"><desc class="label">4 wickets in 8 innings (59.1 overs)</desc><circle class="dot reactive tooltip-trigger" cx="64.35164835164835" cy="247.55627990215595" r="2.5"/><desc class="value">65.25</desc><desc class="x top">64.35164835164835</desc><desc class="y top">247.55627990215595</desc><desc class="x_label">2003</desc></g><g class="dots"><desc class="label">37 wickets in 35 innings (301.1 overs)</desc><circle class="dot reactive tooltip-trigger" cx="234.02884615384616" cy="343.4658275694797" r="2.5"/><desc class="value">34.81</desc><desc class="x top">234.02884615384616</desc><desc class="y top">343.4658275694797</desc><desc class="x_label">2004</desc></g><g class="dots"><desc class="label">57 wickets in 47 innings (403.1 overs)</desc><circle class="dot reactive tooltip-trigger" cx="309.4409340659341" cy="355.2497207454255" r="2.5"/><desc class="value">31.07</desc><desc class="x top">309.4409340659341</desc><desc class="y top">355.2497207454255</desc><desc class="x_label">2005</desc></g><g class="dots"><desc class="label">84 wickets in 63 innings (536.0 overs)</desc><circle class="dot reactive tooltip-trigger" cx="409.9903846153846" cy="362.37046902821635" r="2.5"/><desc class="value">28.81</desc><desc class="x left top">409.9903846153846</desc><desc class="y left top">362.37046902821635</desc><desc class="x_label">2006</desc></g><g class="dots"><desc class="label">110 wickets in 81 innings (677.0 overs)</desc><circle class="dot reactive tooltip-trigger" cx="523.1085164835164" cy="365.96235090537624" r="2.5"/><desc class="value">27.67</desc><desc class="x left top">523.1085164835164</desc><desc class="y left top">365.96235090537624</desc><desc class="x_label">2007</desc></g><g class="dots"><desc class="label">148 wickets in 106 innings (872.5 overs)</desc><circle class="dot reactive tooltip-trigger" cx="680.217032967033" cy="369.0186012745387" r="2.5"/><desc class="value">26.7</desc><desc class="x left top">680.217032967033</desc><desc class="y left top">369.0186012745387</desc><desc class="x_label">2008</desc></g></g><g class="series serie-2 color-2"/></g><g class="plot text-overlay" transform="translate(48, 46)"><g class="series serie-0 color-0"/><g class="series serie-1 color-1"/><g class="series serie-2 color-2"/></g><g class="plot tooltip-overlay" transform="translate(48, 46)"><g class="tooltip" style="opacity: 0" transform="translate(0 0)"><rect class="tooltip-box" height="0" rx="10" ry="10" width="0"/><g class="text"/></g></g><g class="legends" transform="translate(58, 545)"><g class="legend reactive activate-serie" id="activate-serie-0"><rect class="color-0 reactive" height="12" width="12" x="0.0" y="1.0"/><text x="17.0" y="11.2">Future Average</text></g><g class="legend reactive activate-serie" id="activate-serie-1"><rect class="color-1 reactive" height="12" width="12" x="366.0" y="1.0"/><text x="383.0" y="11.2">Past Average</text></g><g class="legend reactive activate-serie" id="activate-serie-2"><rect class="color-2 reactive" height="12" width="12" x="0.0" y="22.0"/><text x="17.0" y="32.2">Career Average</text></g></g></g></svg>