<?xml version='1.0' encoding='utf-8'?>
<svg xmlns:xlink="http://www.w3.org/1999/xlink" xmlns="http://www.w3.org/2000/svg" id="chart-8b80c095-f5e2-4c22-9227-43b1521a036b" class="pygal-chart" viewBox="0 0 800 600"><!--Generated with pygal 2.4.0 (lxml) ©Kozea 2012-2016 on 2019-08-04--><!--http://pygal.org--><!--http://github.com/Kozea/pygal--><defs><style type="text/css">#chart-8b80c095-f5e2-4c22-9227-43b1521a036b{-webkit-user-select:none;-webkit-font-smoothing:antialiased;font-family:Consolas,"Liberation Mono",Menlo,Courier,monospace}#chart-8b80c095-f5e2-4c22-9227-43b1521a036b .title{font-family:Consolas,"Liberation Mono",Menlo,Courier,monospace;font-size:16px}#chart-8b80c095-f5e2-4c22-9227-43b1521a036b .legends .legend text{font-family:Consolas,"Liberation Mono",Menlo,Courier,monospace;font-size:14px}#chart-8b80c095-f5e2-4c22-9227-43b1521a036b .axis text{font-family:Consolas,"Liberation Mono",Menlo,Courier,monospace;font-size:10px}#chart-8b80c095-f5e2-4c22-9227-43b1521a036b .axis text.major{font-family:Consolas,"Liberation Mono",Menlo,Courier,monospace;font-size:10px}#chart-8b80c095-f5e2-4c22-9227-43b1521a036b .text-overlay text.value{font-family:Consolas,"Liberation Mono",Menlo,Courier,monospace;font-size:16px}#chart-8b80c095-f5e2-4c22-9227-43b1521a036b .text-overlay text.label{font-family:Consolas,"Liberation Mono",Menlo,Courier,monospace;font-size:10px}#chart-8b80c095-f5e2-4c22-9227-43b1521a036b .tooltip{font-family:Consolas,"Liberation Mono",Menlo,Courier,monospace;font-size:14px}#chart-8b80c095-f5e2-4c22-9227-43b1521a036b text.no_data{font-family:Consolas,"Liberation Mono",Menlo,Courier,monospace;font-size:64px}
#chart-8b80c095-f5e2-4c22-9227-43b1521a036b{background-color:rgba(249,249,249,1)}#chart-8b80c095-f5e2-4c22-9227-43b1521a036b path,#chart-8b80c095-f5e2-4c22-9227-43b1521a036b line,#chart-8b80c095-f5e2-4c22-9227-43b1521a036b rect,#chart-8b80c095-f5e2-4c22-9227-43b1521a036b circle{-webkit-transition:150ms;-moz-transition:150ms;transition:150ms}#chart-8b80c095-f5e2-4c22-9227-43b1521a036b .graph &gt; .background{fill:rgba(249,249,249,1)}#chart-8b80c095-f5e2-4c22-9227-43b1521a036b .plot &gt; .background{fill:rgba(255,255,255,1)}#chart-8b80c095-f5e2-4c22-9227-43b1521a036b .graph{fill:rgba(0,0,0,.87)}#chart-8b80c095-f5e2-4c22-9227-43b1521a036b text.no_data{fill:rgba(0,0,0,1)}#chart-8b80c095-f5e2-4c22-9227-43b1521a036b .title{fill:rgba(0,0,0,1)}#chart-8b80c095-f5e2-4c22-9227-43b1521a036b .legends .legend text{fill:rgba(0,0,0,.87)}#chart-8b80c095-f5e2-4c22-9227-43b1521a036b .legends .legend:hover text{fill:rgba(0,0,0,1)}#chart-8b80c095-f5e2-4c22-9227-43b1521a036b .axis .line{stroke:rgba(0,0,0,1)}#chart-8b80c095-f5e2-4c22-9227-43b1521a036b .axis .guide.line{stroke:rgba(0,0,0,.54)}#chart-8b80c095-f5e2-4c22-9227-43b1521a036b .axis .major.line{stroke:rgba(0,0,0,.87)}#chart-8b80c095-f5e2-4c22-9227-43b1521a036b .axis text.major{fill:rgba(0,0,0,1)}#chart-8b80c095-f5e2-4c22-9227-43b1521a036b .axis.y .guides:hover .guide.line,#chart-8b80c095-f5e2-4c22-9227-43b1521a036b .line-graph .axis.x .guides:hover .guide.line,#chart-8b80c095-f5e2-4c22-9227-43b1521a036b .stackedline-graph .axis.x .guides:hover .guide.line,#chart-8b80c095-f5e2-4c22-9227-43b1521a036b .xy-graph .axis.x .guides:hover .guide.line{stroke:rgba(0,0,0,1)}#chart-8b80c095-f5e2-4c22-9227-43b1521a036b .axis .guides:hover text{fill:rgba(0,0,0,1)}#chart-8b80c095-f5e2-4c22-9227-43b1521a036b .reactive{fill-opacity:.7;stroke-opacity:.8}#chart-8b80c095-f5e2-4c22-9227-43b1521a036b .ci{stroke:rgba(0,0,0,.87)}#chart-8b80c095-f5e2-4c22-9227-43b1521a036b .reactive.active,#chart-8b80c095-f5e2-4c22-9227-43b1521a036b .active .reactive{fill-opacity:.8;stroke-opacity:.9;stroke-width:4}#chart-8b80c095-f5e2-4c22-9227-43b1521a036b .ci .reactive.active{stroke-width:1.5}#chart-8b80c095-f5e2-4c22-9227-43b1521a036b .series text{fill:rgba(0,0,0,1)}#chart-8b80c095-f5e2-4c22-9227-43b1521a036b .tooltip rect{fill:rgba(255,255,255,1);stroke:rgba(0,0,0,1);-webkit-transition:opacity 150ms;-moz-transition:opacity 150ms;transition:opacity 150ms}#chart-8b80c095-f5e2-4c22-9227-43b1521a036b .tooltip .label{fill:rgba(0,0,0,.87)}#chart-8b80c095-f5e2-4c22-9227-43b1521a036b .tooltip .label{fill:rgba(0,0,0,.87)}#chart-8b80c095-f5e2-4c22-9227-43b1521a036b .tooltip .legend{font-size:.8em;fill:rgba(0,0,0,.54)}#chart-8b80c095-f5e2-4c22-9227-43b1521a036b .tooltip .x_label{font-size:.6em;fill:rgba(0,0,0,1)}#chart-8b80c095-f5e2-4c22-9227-43b1521a036b .tooltip .xlink{font-size:.5em;text-decoration:underline}#chart-8b80c095-f5e2-4c22-9227-43b1521a036b .tooltip .value{font-size:1.5em}#chart-8b80c095-f5e2-4c22-9227-43b1521a036b .bound{font-size:.5em}#chart-8b80c095-f5e2-4c22-9227-43b1521a036b .max-value{font-size:.75em;fill:rgba(0,0,0,.54)}#chart-8b80c095-f5e2-4c22-9227-43b1521a036b .map-element{fill:rgba(255,255,255,1);stroke:rgba(0,0,0,.54) !important}#chart-8b80c095-f5e2-4c22-9227-43b1521a036b .map-element .reactive{fill-opacity:inherit;stroke-opacity:inherit}#chart-8b80c095-f5e2-4c22-9227-43b1521a036b .color-0,#chart-8b80c095-f5e2-4c22-9227-43b1521a036b .color-0 a:visited{stroke:red;fill:red}#chart-8b80c095-f5e2-4c22-9227-43b1521a036b .color-1,#chart-8b80c095-f5e2-4c22-9227-43b1521a036b .color-1 a:visited{stroke:blue;fill:blue}#chart-8b80c095-f5e2-4c22-9227-43b1521a036b .color-2,#chart-8b80c095-f5e2-4c22-9227-43b1521a036b .color-2 a:visited{stroke:green;fill:green}#chart-8b80c095-f5e2-4c22-9227-43b1521a036b .text-overlay .color-0 text{fill:white}#chart-8b80c095-f5e2-4c22-9227-43b1521a036b .text-overlay .color-1 text{fill:white}#chart-8b80c095-f5e2-4c22-9227-43b1521a036b .text-overlay .color-2 text{fill:white}
#chart-8b80c095-f5e2-4c22-9227-43b1521a036b text.no_data{text-anchor:middle}#chart-8b80c095-f5e2-4c22-9227-43b1521a036b .guide.line{fill:none}#chart-8b80c095-f5e2-4c22-9227-43b1521a036b .centered{text-anchor:middle}#chart-8b80c095-f5e2-4c22-9227-43b1521a036b .title{text-anchor:middle}#chart-8b80c095-f5e2-4c22-9227-43b1521a036b .legends .legend text{fill-opacity:1}#chart-8b80c095-f5e2-4c22-9227-43b1521a036b .axis.x text{text-anchor:middle}#chart-8b80c095-f5e2-4c22-9227-43b1521a036b .axis.x:not(.web) text[transform]{text-anchor:start}#chart-8b80c095-f5e2-4c22-9227-43b1521a036b .axis.x:not(.web) text[transform].backwards{text-anchor:end}#chart-8b80c095-f5e2-4c22-9227-43b1521a036b .axis.y text{text-anchor:end}#chart-8b80c095-f5e2-4c22-9227-43b1521a036b .axis.y text[transform].backwards{text-anchor:start}#chart-8b80c095-f5e2-4c22-9227-43b1521a036b .axis.y2 text{text-anchor:start}#chart-8b80c095-f5e2-4c22-9227-43b1521a036b .axis.y2 text[transform].backwards{text-anchor:end}#chart-8b80c095-f5e2-4c22-9227-43b1521a036b .axis .guide.line{stroke-dasharray:4,4}#chart-8b80c095-f5e2-4c22-9227-43b1521a036b .axis .major.guide.line{stroke-dasharray:6,6}#chart-8b80c095-f5e2-4c22-9227-43b1521a036b .horizontal .axis.y .guide.line,#chart-8b80c095-f5e2-4c22-9227-43b1521a036b .horizontal .axis.y2 .guide.line,#chart-8b80c095-f5e2-4c22-9227-43b1521a036b .vertical .axis.x .guide.line{opacity:0}#chart-8b80c095-f5e2-4c22-9227-43b1521a036b .horizontal .axis.always_show .guide.line,#chart-8b80c095-f5e2-4c22-9227-43b1521a036b .vertical .axis.always_show .guide.line{opacity:1 !important}#chart-8b80c095-f5e2-4c22-9227-43b1521a036b .axis.y .guides:hover .guide.line,#chart-8b80c095-f5e2-4c22-9227-43b1521a036b .axis.y2 .guides:hover .guide.line,#chart-8b80c095-f5e2-4c22-9227-43b1521a036b .axis.x .guides:hover .guide.line{opacity:1}#chart-8b80c095-f5e2-4c22-9227-43b1521a036b .axis .guides:hover text{opacity:1}#chart-8b80c095-f5e2-4c22-9227-43b1521a036b .nofill{fill:none}#chart-8b80c095-f5e2-4c22-9227-43b1521a036b .subtle-fill{fill-opacity:.2}#chart-8b80c095-f5e2-4c22-9227-43b1521a036b .dot{stroke-width:1px;fill-opacity:1}#chart-8b80c095-f5e2-4c22-9227-43b1521a036b .dot.active{stroke-width:5px}#chart-8b80c095-f5e2-4c22-9227-43b1521a036b .dot.negative{fill:transparent}#chart-8b80c095-f5e2-4c22-9227-43b1521a036b text,#chart-8b80c095-f5e2-4c22-9227-43b1521a036b tspan{stroke:none !important}#chart-8b80c095-f5e2-4c22-9227-43b1521a036b .series text.active{opacity:1}#chart-8b80c095-f5e2-4c22-9227-43b1521a036b .tooltip rect{fill-opacity:.95;stroke-width:.5}#chart-8b80c095-f5e2-4c22-9227-43b1521a036b .tooltip text{fill-opacity:1}#chart-8b80c095-f5e2-4c22-9227-43b1521a036b .showable{visibility:hidden}#chart-8b80c095-f5e2-4c22-9227-43b1521a036b .showable.shown{visibility:visible}#chart-8b80c095-f5e2-4c22-9227-43b1521a036b .gauge-background{fill:rgba(229,229,229,1);stroke:none}#chart-8b80c095-f5e2-4c22-9227-43b1521a036b .bg-lines{stroke:rgba(249,249,249,1);stroke-width:2px}</style><script type="text/javascript">window.pygal = window.pygal || {};window.pygal.config = window.pygal.config || {};window.pygal.config['8b80c095-f5e2-4c22-9227-43b1521a036b'] = {"allow_interruptions": false, "box_mode": "extremes", "classes": ["pygal-chart"], "css": ["file://style.css", "file://graph.css"], "defs": [], "disable_xml_declaration": false, "dots_size": 2.5, "dynamic_print_values": false, "explicit_size": false, "fill": false, "force_uri_protocol": "https", "formatter": null, "half_pie": false, "height": 600, "include_x_axis": false, "inner_radius": 0, "interpolate": null, "interpolation_parameters": {}, "interpolation_precision": 250, "inverse_y_axis": false, "js": ["//kozea.github.io/pygal.js/2.0.x/pygal-tooltips.min.js"], "legend_at_bottom": true, "legend_at_bottom_columns": null, "legend_box_size": 12, "logarithmic": false, "margin": 20, "margin_bottom": null, "margin_left": null, "margin_right": null, "margin_top": null, "max_scale": 16, "min_scale": 4, "missing_value_fill_truncation": "x", "no_data_text": "No data", "no_prefix": false, "order_min": null, "pretty_print": false, "print_labels": false, "print_values": false, "print_values_position": "center", "print_zeroes": true, "range": null, "rounded_bars": null, "secondary_range": null, "show_dots": true, "show_legend": true, "show_minor_x_labels": false, "show_minor_y_labels": true, "show_only_major_dots": false, "show_x_guides": false, "show_x_labels": true, "show_y_guides": true, "show_y_labels": true, "spacing": 10, "stack_from_top": false, "strict": false, "stroke": true, "stroke_style": null, "style": {"background": "rgba(249, 249, 249, 1)", "ci_colors": [], "colors": ["red", "blue", "green", "#a3a3a3"], "font_family": "Consolas, \"Liberation Mono\", Menlo, Courier, monospace", "foreground": "rgba(0, 0, 0, .87)", "foreground_strong": "rgba(0, 0, 0, 1)", "foreground_subtle": "rgba(0, 0, 0, .54)", "guide_stroke_dasharray": "4,4", "label_font_family": "Consolas, \"Liberation Mono\", Menlo, Courier, monospace", "label_font_size": 10, "legend_font_family": "Consolas, \"Liberation Mono\", Menlo, Courier, monospace", "legend_font_size": 14, "major_guide_stroke_dasharray": "6,6", "major_label_font_family": "Consolas, \"Liberation Mono\", Menlo, Courier, monospace", "major_label_font_size": 10, "no_data_font_family": "Consolas, \"Liberation Mono\", Menlo, Courier, monospace", "no_data_font_size": 64, "opacity": ".7", "opacity_hover": ".8", "plot_background": "rgba(255, 255, 255, 1)", "stroke_opacity": ".8", "stroke_opacity_hover": ".9", "title_font_family": "Consolas, \"Liberation Mono\", Menlo, Courier, monospace", "title_font_size": 16, "tooltip_font_family": "Consolas, \"Liberation Mono\", Menlo, Courier, monospace", "tooltip_font_size": 14, "transition": "150ms", "value_background": "rgba(229, 229, 229, 1)", "value_colors": [], "value_font_family": "Consolas, \"Liberation Mono\", Menlo, Courier, monospace", "value_font_size": 16, "value_label_font_family": "Consolas, \"Liberation Mono\", Menlo, Courier, monospace", "value_label_font_size": 10}, "title": "GD McGrath: Future and Past Averages in ODIs", "tooltip_border_radius": 10, "tooltip_fancy_mode": true, "truncate_label": null, "truncate_legend": null, "width": 800, "x_label_rotation": 45, "x_labels": ["1993", "0", "0", "1994", "0", "0", "0", "0", "0", "0", "0", "0", "0", "0", "0", "0", "0", "0", "0", "0", "0", "0", "0", "0", "0", "0", "0", "1995", "0", "0", "0", "0", "0", "0", "0", "0", "0", "0", "1996", "0", "0", "0", "0", "0", "0", "0", "0", "0", "0", "0", "0", "0", "0", "0", "0", "0", "0", "0", "0", "0", "0", "0", "1997", "0", "0", "0", "0", "0", "0", "0", "0", "1998", "0", "0", "1999", "0", "0", "0", "0", "0", "0", "0", "0", "0", "0", "0", "0", "0", "0", "0", "0", "0", "0", "0", "0", "0", "0", "0", "0", "0", "0", "2000", "0", "0", "0", "0", "0", "0", "0", "0", "0", "0", "0", "0", "0", "0", "0", "0", "0", "0", "0", "2001", "0", "0", "0", "0", "0", "0", "0", "0", "0", "0", "0", "0", "0", "0", "0", "0", "0", "2002", "0", "0", "0", "0", "0", "0", "0", "0", "0", "0", "0", "0", "0", "0", "0", "0", "0", "0", "0", "0", "0", "0", "0", "0", "0", "2003", "0", "0", "0", "0", "0", "0", "0", "0", "0", "0", "0", "0", "0", "0", "0", "0", "0", "0", "2004", "0", "0", "0", "0", "0", "0", "0", "2005", "0", "0", "0", "0", "0", "0", "0", "0", "0", "0", "0", "0", "0", "0", "0", "0", "0", "0", "0", "0", "0", "2006", "0", "0", "0", "0", "0", "0", "0", "0", "0", "0", "0", "0", "0", "2007", "0", "0", "0", "0", "0", "0", "0", "0", "0", "0", "0", "0", "0", "0", "0", "0", "0", "0", "0"], "x_labels_major": ["1993", "1994", "1995", "1996", "1997", "1998", "1999", "2000", "2001", "2002", "2003", "2004", "2005", "2006", "2007"], "x_labels_major_count": null, "x_labels_major_every": null, "x_title": null, "xrange": null, "y_label_rotation": 0, "y_labels": null, "y_labels_major": null, "y_labels_major_count": null, "y_labels_major_every": null, "y_title": null, "zero": 60, "legends": ["Future Average", "Past Average", "Career Average"]}</script><script type="text/javascript" xlink:href="https://kozea.github.io/pygal.js/2.0.x/pygal-tooltips.min.js"/></defs><title>GD McGrath: Future and Past Averages in ODIs</title><g class="graph line-graph vertical"><rect class="background" height="600" width="800" x="0" y="0"/><g class="plot" transform="translate(42, 46)"><rect class="background" height="462.02943725152284" width="738.0" x="0" y="0"/><g class="axis y always_show"><g class="guides"><path class="axis major line" d="M0.000000 453.144256 h738.000000"/><text class="major" x="-5" y="456.6442557659166">0</text><title>0</title></g><g class="guides"><path class="guide line" d="M0.000000 424.482380 h738.000000"/><text class="" x="-5" y="427.98238000589663">2</text><title>2</title></g><g class="guides"><path class="guide line" d="M0.000000 395.820504 h738.000000"/><text class="" x="-5" y="399.3205042458766">4</text><title>4</title></g><g class="guides"><path class="guide line" d="M0.000000 367.158628 h738.000000"/><text class="" x="-5" y="370.6586284858565">6</text><title>6</title></g><g class="guides"><path class="guide line" d="M0.000000 338.496753 h738.000000"/><text class="" x="-5" y="341.99675272583653">8</text><title>8</title></g><g class="guides"><path class="major guide line" d="M0.000000 309.834877 h738.000000"/><text class="major" x="-5" y="313.33487696581653">10</text><title>10</title></g><g class="guides"><path class="guide line" d="M0.000000 281.173001 h738.000000"/><text class="" x="-5" y="284.6730012057965">12</text><title>12</title></g><g class="guides"><path class="guide line" d="M0.000000 252.511125 h738.000000"/><text class="" x="-5" y="256.01112544577643">14</text><title>14</title></g><g class="guides"><path class="guide line" d="M0.000000 223.849250 h738.000000"/><text class="" x="-5" y="227.3492496857564">16</text><title>16</title></g><g class="guides"><path class="guide line" d="M0.000000 195.187374 h738.000000"/><text class="" x="-5" y="198.68737392573638">18</text><title>18</title></g><g class="guides"><path class="major guide line" d="M0.000000 166.525498 h738.000000"/><text class="major" x="-5" y="170.02549816571639">20</text><title>20</title></g><g class="guides"><path class="guide line" d="M0.000000 137.863622 h738.000000"/><text class="" x="-5" y="141.3636224056964">22</text><title>22</title></g><g class="guides"><path class="guide line" d="M0.000000 109.201747 h738.000000"/><text class="" x="-5" y="112.70174664567628">24</text><title>24</title></g><g class="guides"><path class="guide line" d="M0.000000 80.539871 h738.000000"/><text class="" x="-5" y="84.03987088565628">26</text><title>26</title></g><g class="guides"><path class="guide line" d="M0.000000 51.877995 h738.000000"/><text class="" x="-5" y="55.37799512563623">28</text><title>28</title></g><g class="guides"><path class="major guide line" d="M0.000000 23.216119 h738.000000"/><text class="major" x="-5" y="26.716119365616237">30</text><title>30</title></g></g><g class="axis x"><g class="guides"><path class="major line" d="M14.192308 0.000000 v462.029437"/><text class="major" x="14.192307692307692" y="477.02943725152284" transform="rotate(45 14.192308 477.029437)">1993</text></g><g class="guides"><path class="major guide line" d="M22.811118 0.000000 v462.029437"/><text class="major" x="22.811118031765805" y="477.02943725152284" transform="rotate(45 22.811118 477.029437)">1994</text></g><g class="guides"><path class="major guide line" d="M91.761601 0.000000 v462.029437"/><text class="major" x="91.7616007474307" y="477.02943725152284" transform="rotate(45 91.761601 477.029437)">1995</text></g><g class="guides"><path class="major guide line" d="M123.363905 0.000000 v462.029437"/><text class="major" x="123.36390532544378" y="477.02943725152284" transform="rotate(45 123.363905 477.029437)">1996</text></g><g class="guides"><path class="major guide line" d="M192.314388 0.000000 v462.029437"/><text class="major" x="192.31438804110869" y="477.02943725152284" transform="rotate(45 192.314388 477.029437)">1997</text></g><g class="guides"><path class="major guide line" d="M218.170819 0.000000 v462.029437"/><text class="major" x="218.17081905948302" y="477.02943725152284" transform="rotate(45 218.170819 477.029437)">1998</text></g><g class="guides"><path class="major guide line" d="M226.789629 0.000000 v462.029437"/><text class="major" x="226.78962939894114" y="477.02943725152284" transform="rotate(45 226.789629 477.029437)">1999</text></g><g class="guides"><path class="major guide line" d="M304.358922 0.000000 v462.029437"/><text class="major" x="304.35892245406416" y="477.02943725152284" transform="rotate(45 304.358922 477.029437)">2000</text></g><g class="guides"><path class="major guide line" d="M361.817658 0.000000 v462.029437"/><text class="major" x="361.81765805045154" y="477.02943725152284" transform="rotate(45 361.817658 477.029437)">2001</text></g><g class="guides"><path class="major guide line" d="M413.530520 0.000000 v462.029437"/><text class="major" x="413.5305200872002" y="477.02943725152284" transform="rotate(45 413.530520 477.029437)">2002</text></g><g class="guides"><path class="major guide line" d="M488.226876 0.000000 v462.029437"/><text class="major" x="488.22687636250384" y="477.02943725152284" transform="rotate(45 488.226876 477.029437)">2003</text></g><g class="guides"><path class="major guide line" d="M542.812675 0.000000 v462.029437"/><text class="major" x="542.8126751790719" y="477.02943725152284" transform="rotate(45 542.812675 477.029437)">2004</text></g><g class="guides"><path class="major guide line" d="M565.796169 0.000000 v462.029437"/><text class="major" x="565.796169417627" y="477.02943725152284" transform="rotate(45 565.796169 477.029437)">2005</text></g><g class="guides"><path class="major guide line" d="M629.000779 0.000000 v462.029437"/><text class="major" x="629.000778573653" y="477.02943725152284" transform="rotate(45 629.000779 477.029437)">2006</text></g><g class="guides"><path class="major guide line" d="M669.221893 0.000000 v462.029437"/><text class="major" x="669.2218934911243" y="477.02943725152284" transform="rotate(45 669.221893 477.029437)">2007</text></g></g><g class="series serie-0 color-0"><path class="line reactive nofill" d="M14.192308 137.577004 L17.065244 138.580169 19.938181 136.430529 22.811118 135.713982 25.684055 133.277722 28.556992 131.701319 31.429928 133.277722 34.302865 134.280888 37.175802 134.567507 40.048739 134.854125 42.921675 134.710816 45.794612 135.427363 48.667549 136.143910 51.540486 137.003766 54.413423 138.580169 57.286359 140.013263 60.159296 141.016429 63.032233 141.876285 65.905170 142.306213 68.778107 141.589666 71.651043 143.309379 74.523980 142.736141 77.396917 144.312544 80.269854 143.452688 83.142790 141.159738 86.015727 140.299882 88.888664 140.299882 91.761601 139.153407 94.634538 136.573838 97.507474 135.713982 100.380411 135.570672 103.253348 137.433694 106.126285 138.580169 108.999221 139.153407 111.872158 141.589666 114.745095 142.449523 117.618032 143.595998 120.490969 143.309379 123.363905 143.452688 126.236842 143.452688 129.109779 142.736141 131.982716 142.736141 134.855652 145.029091 137.728589 143.452688 140.601526 144.169235 143.474463 145.172401 146.347400 147.322041 149.220336 146.892113 152.093273 148.898445 154.966210 149.328373 157.839147 148.755135 160.712083 150.044920 163.585020 149.614991 166.457957 150.618157 169.330894 149.328373 172.203831 148.898445 175.076767 148.898445 177.949704 149.185063 180.822641 151.478013 183.695578 153.484345 186.568514 154.917438 189.441451 156.207223 192.314388 156.350532 195.187325 158.356864 198.060262 158.356864 200.933198 160.076576 203.806135 162.082907 206.679072 161.652979 209.552009 162.942764 212.424945 165.092404 215.297882 164.089239 218.170819 165.808951 221.043756 164.519167 223.916693 165.235714 226.789629 166.095570 229.662566 165.235714 232.535503 166.238879 235.408440 164.949095 238.281377 166.668808 241.154313 167.385354 244.027250 164.232548 246.900187 163.229382 249.773124 162.082907 252.646060 162.369526 255.518997 160.363195 258.391934 159.503339 261.264871 159.503339 264.137808 160.219885 267.010744 161.509670 269.883681 163.372692 272.756618 163.516001 275.629555 158.500173 278.502491 156.923770 281.375428 157.640317 284.248365 159.360029 287.121302 161.079742 289.994239 159.503339 292.867175 160.076576 295.740112 160.936432 298.613049 163.802620 301.485986 163.802620 304.358922 162.512836 307.231859 163.372692 310.104796 164.089239 312.977733 159.503339 315.850670 159.933267 318.723606 162.942764 321.596543 162.512836 324.469480 162.656145 327.342417 159.789957 330.215353 156.207223 333.088290 154.200892 335.961227 153.770963 338.834164 155.060748 341.707101 155.633985 344.580037 154.200892 347.452974 152.194560 350.325911 153.341035 353.198848 155.347367 356.071784 157.210389 358.944721 154.630820 361.817658 158.930101 364.690595 158.070245 367.563532 159.646648 370.436468 162.226217 373.309405 162.656145 376.182342 162.942764 379.055279 163.229382 381.928216 162.082907 384.801152 162.656145 387.674089 164.232548 390.547026 164.949095 393.419963 164.232548 396.292899 165.952261 399.165836 167.385354 402.038773 165.808951 404.911710 167.958592 407.784647 166.238879 410.657583 165.092404 413.530520 165.808951 416.403457 166.382189 419.276394 168.245211 422.149330 163.945929 425.022267 161.079742 427.895204 160.649814 430.768141 160.649814 433.641078 160.649814 436.514014 161.223051 439.386951 158.643482 442.259888 156.637151 445.132825 157.926935 448.005761 162.942764 450.878698 163.229382 453.751635 163.372692 456.624572 164.949095 459.497509 169.678304 462.370445 166.812117 465.243382 161.509670 468.116319 156.637151 470.989256 159.216720 473.862192 152.051251 476.735129 151.621323 479.608066 151.478013 482.481003 155.490676 485.353940 159.073410 488.226876 156.923770 491.099813 160.363195 493.972750 161.796289 496.845687 163.945929 499.718623 164.375857 502.591560 165.522333 505.464497 163.516001 508.337434 147.608660 511.210371 150.188229 514.083307 147.895279 516.956244 143.309379 519.829181 147.608660 522.702118 147.322041 525.575055 145.745638 528.447991 147.465351 531.320928 139.583335 534.193865 141.589666 537.066802 141.446357 539.939738 148.181898 542.812675 152.481179 545.685612 154.630820 548.558549 158.213554 551.431486 162.369526 554.304422 161.079742 557.177359 163.086073 560.050296 159.646648 562.923233 166.812117 565.796169 167.958592 568.669106 170.681470 571.542043 172.974420 574.414980 169.534995 577.287917 169.248376 580.160853 167.098736 583.033790 162.369526 585.906727 148.181898 588.779664 134.280888 591.652600 133.707650 594.525537 134.424197 597.398474 139.440026 600.271411 148.755135 603.144348 146.748804 606.017284 144.169235 608.890221 148.468516 611.763158 149.185063 614.636095 139.583335 617.509031 146.032257 620.381968 149.901610 623.254905 159.933267 626.127842 152.767798 629.000779 154.057582 631.873715 161.796289 634.746652 160.219885 637.619589 164.232548 640.492526 165.952261 643.365462 175.983917 646.238399 179.136724 649.111336 182.002911 651.984273 189.311689 654.857210 191.031402 657.730146 198.196871 660.603083 198.340180 663.476020 197.766943 666.348957 186.732121 669.221893 182.002911 672.094830 182.862767 674.967767 169.105067 677.840704 152.624488 680.713641 176.987083 683.586577 183.436005 686.459514 210.521477 689.332451 214.534140 692.205388 227.145365 695.078325 256.380479 697.951261 239.469972 700.824198 241.619613 703.697135 275.440626 706.570072 270.281488 709.443008 247.351988 712.315945 272.001201 715.188882 234.597453 718.061819 276.443792 720.934756 277.590267 723.807692 8.885181"/></g><g class="series serie-1 color-1"><path class="line reactive nofill" d="M14.192308 453.144256 L17.065244 51.877995 19.938181 238.180188 22.811118 250.074866 25.684055 296.937033 28.556992 300.949695 31.429928 259.103357 34.302865 223.849250 37.175802 205.935577 40.048739 196.047230 42.921675 191.461330 45.794612 178.563486 48.667549 163.516001 51.540486 148.468516 54.413423 117.513691 57.286359 88.851815 60.159296 75.524043 63.032233 63.486055 65.905170 58.326917 68.778107 76.383899 71.651043 51.877995 74.523980 65.635695 77.396917 45.285764 80.269854 63.199436 83.142790 99.600018 86.015727 110.491531 88.888664 111.208078 91.761601 122.386209 94.634538 145.315710 97.507474 151.191395 100.380411 151.907942 103.253348 137.863622 106.126285 130.124916 108.999221 125.968944 111.872158 108.628509 114.745095 103.755990 117.618032 96.017284 120.490969 99.456709 123.363905 100.173256 126.236842 100.889803 129.109779 107.625343 131.982716 108.198581 134.855652 95.300737 137.728589 106.335559 140.601526 103.612681 143.474463 99.170090 146.347400 88.278577 149.220336 91.288074 152.093273 80.969799 154.966210 81.399727 157.839147 85.985627 160.712083 80.109943 163.585020 82.832821 166.457957 79.106777 169.330894 87.991959 172.203831 91.001456 175.076767 92.577859 177.949704 92.291240 180.822641 83.119440 183.695578 75.524043 186.568514 70.938143 189.441451 66.208933 192.314388 67.785336 195.187325 60.476558 198.060262 61.623033 200.933198 55.174111 203.806135 48.151951 206.679072 52.021305 209.552009 49.011808 212.424945 41.416410 215.297882 49.011808 218.170819 44.999145 221.043756 52.881161 223.916693 51.877995 226.789629 51.591376 229.662566 56.320586 232.535503 54.600873 235.408440 62.626199 238.281377 58.756845 241.154313 57.896989 244.027250 70.794833 246.900187 75.953971 249.773124 80.109943 252.646060 80.969799 255.518997 87.991959 258.391934 90.858146 261.264871 90.714837 264.137808 89.998290 267.010744 87.991959 269.883681 84.695843 272.756618 85.555699 275.629555 97.880306 278.502491 102.179587 281.375428 101.319731 284.248365 98.740162 287.121302 96.017284 289.994239 99.743328 292.867175 99.456709 295.740112 98.883471 298.613049 94.297571 301.485986 94.727499 304.358922 97.736996 307.231859 96.877140 310.104796 96.160593 312.977733 104.759156 315.850670 104.759156 318.723606 100.889803 321.596543 101.892968 324.469480 102.179587 327.342417 107.195415 330.215353 113.357719 333.088290 116.510525 335.961227 117.513691 338.834164 116.367216 341.707101 115.937287 344.580037 118.086928 347.452974 120.809806 350.325911 119.663331 353.198848 117.513691 356.071784 115.507359 358.944721 119.090094 361.817658 114.360884 364.690595 115.650669 367.563532 114.217575 370.436468 111.351387 373.309405 111.064769 376.182342 111.494697 379.055279 111.638006 381.928216 113.357719 384.801152 113.214409 387.674089 112.354553 390.547026 112.211244 393.419963 113.644337 396.292899 112.641172 399.165836 111.638006 402.038773 113.501028 404.911710 111.924625 407.784647 113.930956 410.657583 115.364050 413.530520 115.077431 416.403457 115.077431 419.276394 113.501028 422.149330 117.800309 425.022267 120.523188 427.895204 121.096425 430.768141 121.526353 433.641078 121.669663 436.514014 121.383044 439.386951 123.532685 442.259888 125.109088 445.132825 124.535850 448.005761 121.383044 450.878698 121.526353 453.751635 121.669663 456.624572 120.666497 459.497509 117.800309 462.370445 119.949950 465.243382 123.532685 468.116319 126.828800 470.989256 125.395706 473.862192 129.838297 476.735129 130.268225 479.608066 130.411535 482.481003 128.405203 485.353940 126.685491 488.226876 127.975275 491.099813 126.255563 493.972750 125.682325 496.845687 124.822469 499.718623 124.822469 502.591560 124.249231 505.464497 125.395706 508.337434 133.134413 511.210371 132.131247 514.083307 133.277722 516.956244 135.284054 519.829181 133.564341 522.702118 133.707650 525.575055 134.424197 528.447991 133.850960 531.320928 136.860457 534.193865 136.143910 537.066802 136.143910 539.939738 133.850960 542.812675 132.417866 545.685612 131.844628 548.558549 130.554844 551.431486 129.121750 554.304422 129.694988 557.177359 128.978441 560.050296 130.411535 562.923233 128.261894 565.796169 127.975275 568.669106 127.258728 571.542043 126.828800 574.414980 128.261894 577.287917 128.405203 580.160853 129.265060 583.033790 130.841463 585.906727 134.854125 588.779664 138.293551 591.652600 138.436860 594.525537 138.150241 597.398474 137.147076 600.271411 135.140744 603.144348 135.713982 606.017284 136.287219 608.890221 135.427363 611.763158 135.284054 614.636095 137.147076 617.509031 136.000600 620.381968 135.284054 623.254905 133.564341 626.127842 134.997435 629.000779 134.854125 631.873715 133.564341 634.746652 133.994269 637.619589 133.421032 640.492526 133.277722 643.365462 131.701319 646.238399 131.414700 649.111336 130.984772 651.984273 129.838297 654.857210 129.551678 657.730146 128.835132 660.603083 129.121750 663.476020 129.694988 666.348957 131.558010 669.221893 132.417866 672.094830 132.704485 674.967767 134.424197 677.840704 136.143910 680.713641 134.137579 683.586577 133.850960 686.459514 131.701319 689.332451 131.844628 692.205388 130.984772 695.078325 128.835132 697.951261 130.984772 700.824198 131.414700 703.697135 129.838297 706.570072 131.271391 709.443008 133.277722 712.315945 133.564341 715.188882 135.427363 718.061819 135.284054 720.934756 136.000600 723.807692 137.863622"/></g><g class="series serie-2 color-2"><path class="line reactive nofill" d="M14.192308 137.577004 L17.065244 137.577004 19.938181 137.577004 22.811118 137.577004 25.684055 137.577004 28.556992 137.577004 31.429928 137.577004 34.302865 137.577004 37.175802 137.577004 40.048739 137.577004 42.921675 137.577004 45.794612 137.577004 48.667549 137.577004 51.540486 137.577004 54.413423 137.577004 57.286359 137.577004 60.159296 137.577004 63.032233 137.577004 65.905170 137.577004 68.778107 137.577004 71.651043 137.577004 74.523980 137.577004 77.396917 137.577004 80.269854 137.577004 83.142790 137.577004 86.015727 137.577004 88.888664 137.577004 91.761601 137.577004 94.634538 137.577004 97.507474 137.577004 100.380411 137.577004 103.253348 137.577004 106.126285 137.577004 108.999221 137.577004 111.872158 137.577004 114.745095 137.577004 117.618032 137.577004 120.490969 137.577004 123.363905 137.577004 126.236842 137.577004 129.109779 137.577004 131.982716 137.577004 134.855652 137.577004 137.728589 137.577004 140.601526 137.577004 143.474463 137.577004 146.347400 137.577004 149.220336 137.577004 152.093273 137.577004 154.966210 137.577004 157.839147 137.577004 160.712083 137.577004 163.585020 137.577004 166.457957 137.577004 169.330894 137.577004 172.203831 137.577004 175.076767 137.577004 177.949704 137.577004 180.822641 137.577004 183.695578 137.577004 186.568514 137.577004 189.441451 137.577004 192.314388 137.577004 195.187325 137.577004 198.060262 137.577004 200.933198 137.577004 203.806135 137.577004 206.679072 137.577004 209.552009 137.577004 212.424945 137.577004 215.297882 137.577004 218.170819 137.577004 221.043756 137.577004 223.916693 137.577004 226.789629 137.577004 229.662566 137.577004 232.535503 137.577004 235.408440 137.577004 238.281377 137.577004 241.154313 137.577004 244.027250 137.577004 246.900187 137.577004 249.773124 137.577004 252.646060 137.577004 255.518997 137.577004 258.391934 137.577004 261.264871 137.577004 264.137808 137.577004 267.010744 137.577004 269.883681 137.577004 272.756618 137.577004 275.629555 137.577004 278.502491 137.577004 281.375428 137.577004 284.248365 137.577004 287.121302 137.577004 289.994239 137.577004 292.867175 137.577004 295.740112 137.577004 298.613049 137.577004 301.485986 137.577004 304.358922 137.577004 307.231859 137.577004 310.104796 137.577004 312.977733 137.577004 315.850670 137.577004 318.723606 137.577004 321.596543 137.577004 324.469480 137.577004 327.342417 137.577004 330.215353 137.577004 333.088290 137.577004 335.961227 137.577004 338.834164 137.577004 341.707101 137.577004 344.580037 137.577004 347.452974 137.577004 350.325911 137.577004 353.198848 137.577004 356.071784 137.577004 358.944721 137.577004 361.817658 137.577004 364.690595 137.577004 367.563532 137.577004 370.436468 137.577004 373.309405 137.577004 376.182342 137.577004 379.055279 137.577004 381.928216 137.577004 384.801152 137.577004 387.674089 137.577004 390.547026 137.577004 393.419963 137.577004 396.292899 137.577004 399.165836 137.577004 402.038773 137.577004 404.911710 137.577004 407.784647 137.577004 410.657583 137.577004 413.530520 137.577004 416.403457 137.577004 419.276394 137.577004 422.149330 137.577004 425.022267 137.577004 427.895204 137.577004 430.768141 137.577004 433.641078 137.577004 436.514014 137.577004 439.386951 137.577004 442.259888 137.577004 445.132825 137.577004 448.005761 137.577004 450.878698 137.577004 453.751635 137.577004 456.624572 137.577004 459.497509 137.577004 462.370445 137.577004 465.243382 137.577004 468.116319 137.577004 470.989256 137.577004 473.862192 137.577004 476.735129 137.577004 479.608066 137.577004 482.481003 137.577004 485.353940 137.577004 488.226876 137.577004 491.099813 137.577004 493.972750 137.577004 496.845687 137.577004 499.718623 137.577004 502.591560 137.577004 505.464497 137.577004 508.337434 137.577004 511.210371 137.577004 514.083307 137.577004 516.956244 137.577004 519.829181 137.577004 522.702118 137.577004 525.575055 137.577004 528.447991 137.577004 531.320928 137.577004 534.193865 137.577004 537.066802 137.577004 539.939738 137.577004 542.812675 137.577004 545.685612 137.577004 548.558549 137.577004 551.431486 137.577004 554.304422 137.577004 557.177359 137.577004 560.050296 137.577004 562.923233 137.577004 565.796169 137.577004 568.669106 137.577004 571.542043 137.577004 574.414980 137.577004 577.287917 137.577004 580.160853 137.577004 583.033790 137.577004 585.906727 137.577004 588.779664 137.577004 591.652600 137.577004 594.525537 137.577004 597.398474 137.577004 600.271411 137.577004 603.144348 137.577004 606.017284 137.577004 608.890221 137.577004 611.763158 137.577004 614.636095 137.577004 617.509031 137.577004 620.381968 137.577004 623.254905 137.577004 626.127842 137.577004 629.000779 137.577004 631.873715 137.577004 634.746652 137.577004 637.619589 137.577004 640.492526 137.577004 643.365462 137.577004 646.238399 137.577004 649.111336 137.577004 651.984273 137.577004 654.857210 137.577004 657.730146 137.577004 660.603083 137.577004 663.476020 137.577004 666.348957 137.577004 669.221893 137.577004 672.094830 137.577004 674.967767 137.577004 677.840704 137.577004 680.713641 137.577004 683.586577 137.577004 686.459514 137.577004 689.332451 137.577004 692.205388 137.577004 695.078325 137.577004 697.951261 137.577004 700.824198 137.577004 703.697135 137.577004 706.570072 137.577004 709.443008 137.577004 712.315945 137.577004 715.188882 137.577004 718.061819 137.577004 720.934756 137.577004 723.807692 137.577004"/></g></g><g class="titles"><text class="title plot_title" x="400.0" y="26">GD McGrath: Future and Past Averages in ODIs</text></g><g class="plot overlay" transform="translate(42, 46)"><g class="series serie-0 color-0"><g class="dots"><desc class="label">381 wickets in 248 innings (2161.4 overs)</desc><circle class="dot reactive tooltip-trigger" cx="14.192307692307692" cy="137.57700364809614" r="2.5"/><desc class="value">22.02</desc><desc class="x ">14.192307692307692</desc><desc class="y ">137.57700364809614</desc><desc class="x_label">1993</desc></g><g class="dots"><desc class="label">375 wickets in 245 innings (2136.4 overs)</desc><circle class="dot reactive tooltip-trigger" cx="22.811118031765805" cy="135.71398172369487" r="2.5"/><desc class="value">22.15</desc><desc class="x ">22.811118031765805</desc><desc class="y ">135.71398172369487</desc><desc class="x_label">1994</desc></g><g class="dots"><desc class="label">343 wickets in 221 innings (1919.5 overs)</desc><circle class="dot reactive tooltip-trigger" cx="91.7616007474307" cy="139.15340681489727" r="2.5"/><desc class="value">21.91</desc><desc class="x ">91.7616007474307</desc><desc class="y ">139.15340681489727</desc><desc class="x_label">1995</desc></g><g class="dots"><desc class="label">329 wickets in 210 innings (1819.3 overs)</desc><circle class="dot reactive tooltip-trigger" cx="123.36390532544378" cy="143.45268817890025" r="2.5"/><desc class="value">21.61</desc><desc class="x ">123.36390532544378</desc><desc class="y ">143.45268817890025</desc><desc class="x_label">1996</desc></g><g class="dots"><desc class="label">300 wickets in 186 innings (1609.1 overs)</desc><circle class="dot reactive tooltip-trigger" cx="192.31438804110869" cy="156.35053227090924" r="2.5"/><desc class="value">20.71</desc><desc class="x ">192.31438804110869</desc><desc class="y ">156.35053227090924</desc><desc class="x_label">1997</desc></g><g class="dots"><desc class="label">292 wickets in 177 innings (1523.1 overs)</desc><circle class="dot reactive tooltip-trigger" cx="218.17081905948302" cy="165.80895127171584" r="2.5"/><desc class="value">20.05</desc><desc class="x ">218.17081905948302</desc><desc class="y ">165.80895127171584</desc><desc class="x_label">1998</desc></g><g class="dots"><desc class="label">286 wickets in 174 innings (1495.1 overs)</desc><circle class="dot reactive tooltip-trigger" cx="226.78962939894114" cy="166.0955700293161" r="2.5"/><desc class="value">20.03</desc><desc class="x ">226.78962939894114</desc><desc class="y ">166.0955700293161</desc><desc class="x_label">1999</desc></g><g class="dots"><desc class="label">234 wickets in 147 innings (1253.3 overs)</desc><circle class="dot reactive tooltip-trigger" cx="304.35892245406416" cy="162.51283555931354" r="2.5"/><desc class="value">20.28</desc><desc class="x ">304.35892245406416</desc><desc class="y ">162.51283555931354</desc><desc class="x_label">2000</desc></g><g class="dots"><desc class="label">198 wickets in 127 innings (1073.5 overs)</desc><circle class="dot reactive tooltip-trigger" cx="361.81765805045154" cy="158.93010108931105" r="2.5"/><desc class="value">20.53</desc><desc class="x ">361.81765805045154</desc><desc class="y ">158.93010108931105</desc><desc class="x_label">2001</desc></g><g class="dots"><desc class="label">169 wickets in 109 innings (909.4 overs)</desc><circle class="dot reactive tooltip-trigger" cx="413.5305200872002" cy="165.80895127171584" r="2.5"/><desc class="value">20.05</desc><desc class="x left">413.5305200872002</desc><desc class="y left">165.80895127171584</desc><desc class="x_label">2002</desc></g><g class="dots"><desc class="label">126 wickets in 83 innings (686.0 overs)</desc><circle class="dot reactive tooltip-trigger" cx="488.22687636250384" cy="156.92376978610963" r="2.5"/><desc class="value">20.67</desc><desc class="x left">488.22687636250384</desc><desc class="y left">156.92376978610963</desc><desc class="x_label">2003</desc></g><g class="dots"><desc class="label">97 wickets in 64 innings (531.0 overs)</desc><circle class="dot reactive tooltip-trigger" cx="542.8126751790719" cy="152.4811790433065" r="2.5"/><desc class="value">20.98</desc><desc class="x left">542.8126751790719</desc><desc class="y left">152.4811790433065</desc><desc class="x_label">2004</desc></g><g class="dots"><desc class="label">91 wickets in 56 innings (466.4 overs)</desc><circle class="dot reactive tooltip-trigger" cx="565.796169417627" cy="167.95859195371742" r="2.5"/><desc class="value">19.9</desc><desc class="x left">565.796169417627</desc><desc class="y left">167.95859195371742</desc><desc class="x_label">2005</desc></g><g class="dots"><desc class="label">54 wickets in 34 innings (279.3 overs)</desc><circle class="dot reactive tooltip-trigger" cx="629.000778573653" cy="154.05758221010763" r="2.5"/><desc class="value">20.87</desc><desc class="x left">629.000778573653</desc><desc class="y left">154.05758221010763</desc><desc class="x_label">2006</desc></g><g class="dots"><desc class="label">39 wickets in 20 innings (164.3 overs)</desc><circle class="dot reactive tooltip-trigger" cx="669.2218934911243" cy="182.00291107612713" r="2.5"/><desc class="value">18.92</desc><desc class="x left">669.2218934911243</desc><desc class="y left">182.00291107612713</desc><desc class="x_label">2007</desc></g></g><g class="series serie-1 color-1"><g class="dots"><desc class="label">0 wickets over 0 innings</desc><circle class="dot reactive tooltip-trigger" cx="14.192307692307692" cy="453.1442557659166" r="2.5"/><desc class="value">0</desc><desc class="x top">14.192307692307692</desc><desc class="y top">453.1442557659166</desc><desc class="x_label">1993</desc></g><g class="dots"><desc class="label">6 wickets in 3 innings (25.0 overs)</desc><circle class="dot reactive tooltip-trigger" cx="22.811118031765805" cy="250.07486600617474" r="2.5"/><desc class="value">14.17</desc><desc class="x top">22.811118031765805</desc><desc class="y top">250.07486600617474</desc><desc class="x_label">1994</desc></g><g class="dots"><desc class="label">38 wickets in 27 innings (241.5 overs)</desc><circle class="dot reactive tooltip-trigger" cx="91.7616007474307" cy="122.38620949528553" r="2.5"/><desc class="value">23.08</desc><desc class="x ">91.7616007474307</desc><desc class="y ">122.38620949528553</desc><desc class="x_label">1995</desc></g><g class="dots"><desc class="label">52 wickets in 38 innings (342.1 overs)</desc><circle class="dot reactive tooltip-trigger" cx="123.36390532544378" cy="100.17325578127003" r="2.5"/><desc class="value">24.63</desc><desc class="x ">123.36390532544378</desc><desc class="y ">100.17325578127003</desc><desc class="x_label">1996</desc></g><g class="dots"><desc class="label">81 wickets in 62 innings (552.3 overs)</desc><circle class="dot reactive tooltip-trigger" cx="192.31438804110869" cy="67.78533617244733" r="2.5"/><desc class="value">26.89</desc><desc class="x ">192.31438804110869</desc><desc class="y ">67.78533617244733</desc><desc class="x_label">1997</desc></g><g class="dots"><desc class="label">89 wickets in 71 innings (638.3 overs)</desc><circle class="dot reactive tooltip-trigger" cx="218.17081905948302" cy="44.99914494323144" r="2.5"/><desc class="value">28.48</desc><desc class="x ">218.17081905948302</desc><desc class="y ">44.99914494323144</desc><desc class="x_label">1998</desc></g><g class="dots"><desc class="label">95 wickets in 74 innings (666.3 overs)</desc><circle class="dot reactive tooltip-trigger" cx="226.78962939894114" cy="51.591376368036094" r="2.5"/><desc class="value">28.02</desc><desc class="x ">226.78962939894114</desc><desc class="y ">51.591376368036094</desc><desc class="x_label">1999</desc></g><g class="dots"><desc class="label">147 wickets in 101 innings (908.1 overs)</desc><circle class="dot reactive tooltip-trigger" cx="304.35892245406416" cy="97.73699634166832" r="2.5"/><desc class="value">24.8</desc><desc class="x ">304.35892245406416</desc><desc class="y ">97.73699634166832</desc><desc class="x_label">2000</desc></g><g class="dots"><desc class="label">183 wickets in 121 innings (1087.5 overs)</desc><circle class="dot reactive tooltip-trigger" cx="361.81765805045154" cy="114.3608842824799" r="2.5"/><desc class="value">23.64</desc><desc class="x ">361.81765805045154</desc><desc class="y ">114.3608842824799</desc><desc class="x_label">2001</desc></g><g class="dots"><desc class="label">212 wickets in 139 innings (1252.0 overs)</desc><circle class="dot reactive tooltip-trigger" cx="413.5305200872002" cy="115.07743117648045" r="2.5"/><desc class="value">23.59</desc><desc class="x left">413.5305200872002</desc><desc class="y left">115.07743117648045</desc><desc class="x_label">2002</desc></g><g class="dots"><desc class="label">255 wickets in 165 innings (1475.4 overs)</desc><circle class="dot reactive tooltip-trigger" cx="488.22687636250384" cy="127.97527526848944" r="2.5"/><desc class="value">22.69</desc><desc class="x left">488.22687636250384</desc><desc class="y left">127.97527526848944</desc><desc class="x_label">2003</desc></g><g class="dots"><desc class="label">284 wickets in 184 innings (1630.4 overs)</desc><circle class="dot reactive tooltip-trigger" cx="542.8126751790719" cy="132.41786601129252" r="2.5"/><desc class="value">22.38</desc><desc class="x left">542.8126751790719</desc><desc class="y left">132.41786601129252</desc><desc class="x_label">2004</desc></g><g class="dots"><desc class="label">290 wickets in 192 innings (1695.0 overs)</desc><circle class="dot reactive tooltip-trigger" cx="565.796169417627" cy="127.97527526848944" r="2.5"/><desc class="value">22.69</desc><desc class="x left">565.796169417627</desc><desc class="y left">127.97527526848944</desc><desc class="x_label">2005</desc></g><g class="dots"><desc class="label">327 wickets in 214 innings (1882.1 overs)</desc><circle class="dot reactive tooltip-trigger" cx="629.000778573653" cy="134.85412545089423" r="2.5"/><desc class="value">22.21</desc><desc class="x left">629.000778573653</desc><desc class="y left">134.85412545089423</desc><desc class="x_label">2006</desc></g><g class="dots"><desc class="label">342 wickets in 228 innings (1997.1 overs)</desc><circle class="dot reactive tooltip-trigger" cx="669.2218934911243" cy="132.41786601129252" r="2.5"/><desc class="value">22.38</desc><desc class="x left">669.2218934911243</desc><desc class="y left">132.41786601129252</desc><desc class="x_label">2007</desc></g></g><g class="series serie-2 color-2"/></g><g class="plot text-overlay" transform="translate(42, 46)"><g class="series serie-0 color-0"/><g class="series serie-1 color-1"/><g class="series serie-2 color-2"/></g><g class="plot tooltip-overlay" transform="translate(42, 46)"><g class="tooltip" style="opacity: 0" transform="translate(0 0)"><rect class="tooltip-box" height="0" rx="10" ry="10" width="0"/><g class="text"/></g></g><g class="legends" transform="translate(52, 545)"><g class="legend reactive activate-serie" id="activate-serie-0"><rect class="color-0 reactive" height="12" width="12" x="0.0" y="1.0"/><text x="17.0" y="11.2">Future Average</text></g><g class="legend reactive activate-serie" id="activate-serie-1"><rect class="color-1 reactive" height="12" width="12" x="369.0" y="1.0"/><text x="386.0" y="11.2">Past Average</text></g><g class="legend reactive activate-serie" id="activate-serie-2"><rect class="color-2 reactive" height="12" width="12" x="0.0" y="22.0"/><text x="17.0" y="32.2">Career Average</text></g></g></g></svg>