<?xml version='1.0' encoding='utf-8'?>
<svg xmlns:xlink="http://www.w3.org/1999/xlink" xmlns="http://www.w3.org/2000/svg" id="chart-d6d5500f-1729-445b-80a5-63020d7a758d" class="pygal-chart" viewBox="0 0 800 600"><!--Generated with pygal 2.4.0 (lxml) ©Kozea 2012-2016 on 2019-08-02--><!--http://pygal.org--><!--http://github.com/Kozea/pygal--><defs><style type="text/css">#chart-d6d5500f-1729-445b-80a5-63020d7a758d{-webkit-user-select:none;-webkit-font-smoothing:antialiased;font-family:Consolas,"Liberation Mono",Menlo,Courier,monospace}#chart-d6d5500f-1729-445b-80a5-63020d7a758d .title{font-family:Consolas,"Liberation Mono",Menlo,Courier,monospace;font-size:16px}#chart-d6d5500f-1729-445b-80a5-63020d7a758d .legends .legend text{font-family:Consolas,"Liberation Mono",Menlo,Courier,monospace;font-size:14px}#chart-d6d5500f-1729-445b-80a5-63020d7a758d .axis text{font-family:Consolas,"Liberation Mono",Menlo,Courier,monospace;font-size:10px}#chart-d6d5500f-1729-445b-80a5-63020d7a758d .axis text.major{font-family:Consolas,"Liberation Mono",Menlo,Courier,monospace;font-size:10px}#chart-d6d5500f-1729-445b-80a5-63020d7a758d .text-overlay text.value{font-family:Consolas,"Liberation Mono",Menlo,Courier,monospace;font-size:16px}#chart-d6d5500f-1729-445b-80a5-63020d7a758d .text-overlay text.label{font-family:Consolas,"Liberation Mono",Menlo,Courier,monospace;font-size:10px}#chart-d6d5500f-1729-445b-80a5-63020d7a758d .tooltip{font-family:Consolas,"Liberation Mono",Menlo,Courier,monospace;font-size:14px}#chart-d6d5500f-1729-445b-80a5-63020d7a758d text.no_data{font-family:Consolas,"Liberation Mono",Menlo,Courier,monospace;font-size:64px}
#chart-d6d5500f-1729-445b-80a5-63020d7a758d{background-color:rgba(249,249,249,1)}#chart-d6d5500f-1729-445b-80a5-63020d7a758d path,#chart-d6d5500f-1729-445b-80a5-63020d7a758d line,#chart-d6d5500f-1729-445b-80a5-63020d7a758d rect,#chart-d6d5500f-1729-445b-80a5-63020d7a758d circle{-webkit-transition:150ms;-moz-transition:150ms;transition:150ms}#chart-d6d5500f-1729-445b-80a5-63020d7a758d .graph &gt; .background{fill:rgba(249,249,249,1)}#chart-d6d5500f-1729-445b-80a5-63020d7a758d .plot &gt; .background{fill:rgba(255,255,255,1)}#chart-d6d5500f-1729-445b-80a5-63020d7a758d .graph{fill:rgba(0,0,0,.87)}#chart-d6d5500f-1729-445b-80a5-63020d7a758d text.no_data{fill:rgba(0,0,0,1)}#chart-d6d5500f-1729-445b-80a5-63020d7a758d .title{fill:rgba(0,0,0,1)}#chart-d6d5500f-1729-445b-80a5-63020d7a758d .legends .legend text{fill:rgba(0,0,0,.87)}#chart-d6d5500f-1729-445b-80a5-63020d7a758d .legends .legend:hover text{fill:rgba(0,0,0,1)}#chart-d6d5500f-1729-445b-80a5-63020d7a758d .axis .line{stroke:rgba(0,0,0,1)}#chart-d6d5500f-1729-445b-80a5-63020d7a758d .axis .guide.line{stroke:rgba(0,0,0,.54)}#chart-d6d5500f-1729-445b-80a5-63020d7a758d .axis .major.line{stroke:rgba(0,0,0,.87)}#chart-d6d5500f-1729-445b-80a5-63020d7a758d .axis text.major{fill:rgba(0,0,0,1)}#chart-d6d5500f-1729-445b-80a5-63020d7a758d .axis.y .guides:hover .guide.line,#chart-d6d5500f-1729-445b-80a5-63020d7a758d .line-graph .axis.x .guides:hover .guide.line,#chart-d6d5500f-1729-445b-80a5-63020d7a758d .stackedline-graph .axis.x .guides:hover .guide.line,#chart-d6d5500f-1729-445b-80a5-63020d7a758d .xy-graph .axis.x .guides:hover .guide.line{stroke:rgba(0,0,0,1)}#chart-d6d5500f-1729-445b-80a5-63020d7a758d .axis .guides:hover text{fill:rgba(0,0,0,1)}#chart-d6d5500f-1729-445b-80a5-63020d7a758d .reactive{fill-opacity:.7;stroke-opacity:.8}#chart-d6d5500f-1729-445b-80a5-63020d7a758d .ci{stroke:rgba(0,0,0,.87)}#chart-d6d5500f-1729-445b-80a5-63020d7a758d .reactive.active,#chart-d6d5500f-1729-445b-80a5-63020d7a758d .active .reactive{fill-opacity:.8;stroke-opacity:.9;stroke-width:4}#chart-d6d5500f-1729-445b-80a5-63020d7a758d .ci .reactive.active{stroke-width:1.5}#chart-d6d5500f-1729-445b-80a5-63020d7a758d .series text{fill:rgba(0,0,0,1)}#chart-d6d5500f-1729-445b-80a5-63020d7a758d .tooltip rect{fill:rgba(255,255,255,1);stroke:rgba(0,0,0,1);-webkit-transition:opacity 150ms;-moz-transition:opacity 150ms;transition:opacity 150ms}#chart-d6d5500f-1729-445b-80a5-63020d7a758d .tooltip .label{fill:rgba(0,0,0,.87)}#chart-d6d5500f-1729-445b-80a5-63020d7a758d .tooltip .label{fill:rgba(0,0,0,.87)}#chart-d6d5500f-1729-445b-80a5-63020d7a758d .tooltip .legend{font-size:.8em;fill:rgba(0,0,0,.54)}#chart-d6d5500f-1729-445b-80a5-63020d7a758d .tooltip .x_label{font-size:.6em;fill:rgba(0,0,0,1)}#chart-d6d5500f-1729-445b-80a5-63020d7a758d .tooltip .xlink{font-size:.5em;text-decoration:underline}#chart-d6d5500f-1729-445b-80a5-63020d7a758d .tooltip .value{font-size:1.5em}#chart-d6d5500f-1729-445b-80a5-63020d7a758d .bound{font-size:.5em}#chart-d6d5500f-1729-445b-80a5-63020d7a758d .max-value{font-size:.75em;fill:rgba(0,0,0,.54)}#chart-d6d5500f-1729-445b-80a5-63020d7a758d .map-element{fill:rgba(255,255,255,1);stroke:rgba(0,0,0,.54) !important}#chart-d6d5500f-1729-445b-80a5-63020d7a758d .map-element .reactive{fill-opacity:inherit;stroke-opacity:inherit}#chart-d6d5500f-1729-445b-80a5-63020d7a758d .color-0,#chart-d6d5500f-1729-445b-80a5-63020d7a758d .color-0 a:visited{stroke:#F44336;fill:#F44336}#chart-d6d5500f-1729-445b-80a5-63020d7a758d .color-1,#chart-d6d5500f-1729-445b-80a5-63020d7a758d .color-1 a:visited{stroke:#3F51B5;fill:#3F51B5}#chart-d6d5500f-1729-445b-80a5-63020d7a758d .color-2,#chart-d6d5500f-1729-445b-80a5-63020d7a758d .color-2 a:visited{stroke:#009688;fill:#009688}#chart-d6d5500f-1729-445b-80a5-63020d7a758d .text-overlay .color-0 text{fill:black}#chart-d6d5500f-1729-445b-80a5-63020d7a758d .text-overlay .color-1 text{fill:black}#chart-d6d5500f-1729-445b-80a5-63020d7a758d .text-overlay .color-2 text{fill:black}
#chart-d6d5500f-1729-445b-80a5-63020d7a758d text.no_data{text-anchor:middle}#chart-d6d5500f-1729-445b-80a5-63020d7a758d .guide.line{fill:none}#chart-d6d5500f-1729-445b-80a5-63020d7a758d .centered{text-anchor:middle}#chart-d6d5500f-1729-445b-80a5-63020d7a758d .title{text-anchor:middle}#chart-d6d5500f-1729-445b-80a5-63020d7a758d .legends .legend text{fill-opacity:1}#chart-d6d5500f-1729-445b-80a5-63020d7a758d .axis.x text{text-anchor:middle}#chart-d6d5500f-1729-445b-80a5-63020d7a758d .axis.x:not(.web) text[transform]{text-anchor:start}#chart-d6d5500f-1729-445b-80a5-63020d7a758d .axis.x:not(.web) text[transform].backwards{text-anchor:end}#chart-d6d5500f-1729-445b-80a5-63020d7a758d .axis.y text{text-anchor:end}#chart-d6d5500f-1729-445b-80a5-63020d7a758d .axis.y text[transform].backwards{text-anchor:start}#chart-d6d5500f-1729-445b-80a5-63020d7a758d .axis.y2 text{text-anchor:start}#chart-d6d5500f-1729-445b-80a5-63020d7a758d .axis.y2 text[transform].backwards{text-anchor:end}#chart-d6d5500f-1729-445b-80a5-63020d7a758d .axis .guide.line{stroke-dasharray:4,4}#chart-d6d5500f-1729-445b-80a5-63020d7a758d .axis .major.guide.line{stroke-dasharray:6,6}#chart-d6d5500f-1729-445b-80a5-63020d7a758d .horizontal .axis.y .guide.line,#chart-d6d5500f-1729-445b-80a5-63020d7a758d .horizontal .axis.y2 .guide.line,#chart-d6d5500f-1729-445b-80a5-63020d7a758d .vertical .axis.x .guide.line{opacity:0}#chart-d6d5500f-1729-445b-80a5-63020d7a758d .horizontal .axis.always_show .guide.line,#chart-d6d5500f-1729-445b-80a5-63020d7a758d .vertical .axis.always_show .guide.line{opacity:1 !important}#chart-d6d5500f-1729-445b-80a5-63020d7a758d .axis.y .guides:hover .guide.line,#chart-d6d5500f-1729-445b-80a5-63020d7a758d .axis.y2 .guides:hover .guide.line,#chart-d6d5500f-1729-445b-80a5-63020d7a758d .axis.x .guides:hover .guide.line{opacity:1}#chart-d6d5500f-1729-445b-80a5-63020d7a758d .axis .guides:hover text{opacity:1}#chart-d6d5500f-1729-445b-80a5-63020d7a758d .nofill{fill:none}#chart-d6d5500f-1729-445b-80a5-63020d7a758d .subtle-fill{fill-opacity:.2}#chart-d6d5500f-1729-445b-80a5-63020d7a758d .dot{stroke-width:1px;fill-opacity:1}#chart-d6d5500f-1729-445b-80a5-63020d7a758d .dot.active{stroke-width:5px}#chart-d6d5500f-1729-445b-80a5-63020d7a758d .dot.negative{fill:transparent}#chart-d6d5500f-1729-445b-80a5-63020d7a758d text,#chart-d6d5500f-1729-445b-80a5-63020d7a758d tspan{stroke:none !important}#chart-d6d5500f-1729-445b-80a5-63020d7a758d .series text.active{opacity:1}#chart-d6d5500f-1729-445b-80a5-63020d7a758d .tooltip rect{fill-opacity:.95;stroke-width:.5}#chart-d6d5500f-1729-445b-80a5-63020d7a758d .tooltip text{fill-opacity:1}#chart-d6d5500f-1729-445b-80a5-63020d7a758d .showable{visibility:hidden}#chart-d6d5500f-1729-445b-80a5-63020d7a758d .showable.shown{visibility:visible}#chart-d6d5500f-1729-445b-80a5-63020d7a758d .gauge-background{fill:rgba(229,229,229,1);stroke:none}#chart-d6d5500f-1729-445b-80a5-63020d7a758d .bg-lines{stroke:rgba(249,249,249,1);stroke-width:2px}</style><script type="text/javascript">window.pygal = window.pygal || {};window.pygal.config = window.pygal.config || {};window.pygal.config['d6d5500f-1729-445b-80a5-63020d7a758d'] = {"allow_interruptions": false, "box_mode": "extremes", "classes": ["pygal-chart"], "css": ["file://style.css", "file://graph.css"], "defs": [], "disable_xml_declaration": false, "dots_size": 2.5, "dynamic_print_values": false, "explicit_size": false, "fill": false, "force_uri_protocol": "https", "formatter": null, "half_pie": false, "height": 600, "include_x_axis": false, "inner_radius": 0, "interpolate": null, "interpolation_parameters": {}, "interpolation_precision": 250, "inverse_y_axis": false, "js": ["//kozea.github.io/pygal.js/2.0.x/pygal-tooltips.min.js"], "legend_at_bottom": true, "legend_at_bottom_columns": null, "legend_box_size": 12, "logarithmic": false, "margin": 20, "margin_bottom": null, "margin_left": null, "margin_right": null, "margin_top": null, "max_scale": 16, "min_scale": 4, "missing_value_fill_truncation": "x", "no_data_text": "No data", "no_prefix": false, "order_min": null, "pretty_print": false, "print_labels": false, "print_values": false, "print_values_position": "center", "print_zeroes": true, "range": null, "rounded_bars": null, "secondary_range": null, "show_dots": true, "show_legend": true, "show_minor_x_labels": false, "show_minor_y_labels": true, "show_only_major_dots": false, "show_x_guides": false, "show_x_labels": true, "show_y_guides": true, "show_y_labels": true, "spacing": 10, "stack_from_top": false, "strict": false, "stroke": true, "stroke_style": null, "style": {"background": "rgba(249, 249, 249, 1)", "ci_colors": [], "colors": ["#F44336", "#3F51B5", "#009688", "#FFC107", "#FF5722", "#9C27B0", "#03A9F4", "#8BC34A", "#FF9800", "#E91E63", "#2196F3", "#4CAF50", "#FFEB3B", "#673AB7", "#00BCD4", "#CDDC39", "#9E9E9E", "#607D8B"], "font_family": "Consolas, \"Liberation Mono\", Menlo, Courier, monospace", "foreground": "rgba(0, 0, 0, .87)", "foreground_strong": "rgba(0, 0, 0, 1)", "foreground_subtle": "rgba(0, 0, 0, .54)", "guide_stroke_dasharray": "4,4", "label_font_family": "Consolas, \"Liberation Mono\", Menlo, Courier, monospace", "label_font_size": 10, "legend_font_family": "Consolas, \"Liberation Mono\", Menlo, Courier, monospace", "legend_font_size": 14, "major_guide_stroke_dasharray": "6,6", "major_label_font_family": "Consolas, \"Liberation Mono\", Menlo, Courier, monospace", "major_label_font_size": 10, "no_data_font_family": "Consolas, \"Liberation Mono\", Menlo, Courier, monospace", "no_data_font_size": 64, "opacity": ".7", "opacity_hover": ".8", "plot_background": "rgba(255, 255, 255, 1)", "stroke_opacity": ".8", "stroke_opacity_hover": ".9", "title_font_family": "Consolas, \"Liberation Mono\", Menlo, Courier, monospace", "title_font_size": 16, "tooltip_font_family": "Consolas, \"Liberation Mono\", Menlo, Courier, monospace", "tooltip_font_size": 14, "transition": "150ms", "value_background": "rgba(229, 229, 229, 1)", "value_colors": [], "value_font_family": "Consolas, \"Liberation Mono\", Menlo, Courier, monospace", "value_font_size": 16, "value_label_font_family": "Consolas, \"Liberation Mono\", Menlo, Courier, monospace", "value_label_font_size": 10}, "title": "GJ Whittall: Future and Past Averages in ODIs", "tooltip_border_radius": 10, "tooltip_fancy_mode": true, "truncate_label": null, "truncate_legend": null, "width": 800, "x_label_rotation": 45, "x_labels": ["1993", "0", "1994", "0", "0", "0", "0", "1995", "0", "0", "0", "0", "0", "1996", "0", "0", "0", "0", "0", "0", "0", "0", "0", "0", "0", "0", "0", "0", "1997", "0", "0", "0", "0", "0", "0", "0", "0", "0", "0", "0", "0", "0", "0", "0", "0", "0", "0", "1998", "0", "0", "0", "0", "0", "0", "0", "1999", "0", "0", "0", "0", "0", "0", "0", "0", "0", "0", "0", "0", "0", "0", "0", "0", "0", "0", "2000", "0", "0", "0", "0", "0", "0", "0", "0", "0", "0", "0", "0", "0", "2001", "0", "0", "0", "0", "0", "0", "0", "0", "0", "0", "0", "0", "0", "0", "0", "0", "2002", "0", "2003", "0", "0", "0", "0"], "x_labels_major": ["1993", "1994", "1995", "1996", "1997", "1998", "1999", "2000", "2001", "2002", "2003"], "x_labels_major_count": null, "x_labels_major_every": null, "x_title": null, "xrange": null, "y_label_rotation": 0, "y_labels": null, "y_labels_major": null, "y_labels_major_count": null, "y_labels_major_every": null, "y_title": null, "zero": 0, "legends": ["Future Average", "Past Average", "Career Average"]}</script><script type="text/javascript" xlink:href="https://kozea.github.io/pygal.js/2.0.x/pygal-tooltips.min.js"/></defs><title>GJ Whittall: Future and Past Averages in ODIs</title><g class="graph line-graph vertical"><rect class="background" height="600" width="800" x="0" y="0"/><g class="plot" transform="translate(42, 46)"><rect class="background" height="462.02943725152284" width="738.0" x="0" y="0"/><g class="axis y always_show"><g class="guides"><path class="axis major line" d="M0.000000 453.144256 h738.000000"/><text class="major" x="-5" y="456.6442557659166">0</text><title>0</title></g><g class="guides"><path class="guide line" d="M0.000000 399.984142 h738.000000"/><text class="" x="-5" y="403.4841415765771">10</text><title>10</title></g><g class="guides"><path class="guide line" d="M0.000000 346.824027 h738.000000"/><text class="" x="-5" y="350.3240273872376">20</text><title>20</title></g><g class="guides"><path class="guide line" d="M0.000000 293.663913 h738.000000"/><text class="" x="-5" y="297.16391319789807">30</text><title>30</title></g><g class="guides"><path class="guide line" d="M0.000000 240.503799 h738.000000"/><text class="" x="-5" y="244.00379900855853">40</text><title>40</title></g><g class="guides"><path class="major guide line" d="M0.000000 187.343685 h738.000000"/><text class="major" x="-5" y="190.843684819219">50</text><title>50</title></g><g class="guides"><path class="guide line" d="M0.000000 134.183571 h738.000000"/><text class="" x="-5" y="137.68357062987945">60</text><title>60</title></g><g class="guides"><path class="guide line" d="M0.000000 81.023456 h738.000000"/><text class="" x="-5" y="84.52345644053992">70</text><title>70</title></g><g class="guides"><path class="guide line" d="M0.000000 27.863342 h738.000000"/><text class="" x="-5" y="31.363342251200436">80</text><title>80</title></g></g><g class="axis x"><g class="guides"><path class="major line" d="M14.192308 0.000000 v462.029437"/><text class="major" x="14.192307692307692" y="477.02943725152284" transform="rotate(45 14.192308 477.029437)">1993</text></g><g class="guides"><path class="major guide line" d="M26.978170 0.000000 v462.029437"/><text class="major" x="26.978170478170476" y="477.02943725152284" transform="rotate(45 26.978170 477.029437)">1994</text></g><g class="guides"><path class="major guide line" d="M58.942827 0.000000 v462.029437"/><text class="major" x="58.942827442827436" y="477.02943725152284" transform="rotate(45 58.942827 477.029437)">1995</text></g><g class="guides"><path class="major guide line" d="M97.300416 0.000000 v462.029437"/><text class="major" x="97.30041580041579" y="477.02943725152284" transform="rotate(45 97.300416 477.029437)">1996</text></g><g class="guides"><path class="major guide line" d="M193.194387 0.000000 v462.029437"/><text class="major" x="193.19438669438668" y="477.02943725152284" transform="rotate(45 193.194387 477.029437)">1997</text></g><g class="guides"><path class="major guide line" d="M314.660083 0.000000 v462.029437"/><text class="major" x="314.66008316008316" y="477.02943725152284" transform="rotate(45 314.660083 477.029437)">1998</text></g><g class="guides"><path class="major guide line" d="M365.803534 0.000000 v462.029437"/><text class="major" x="365.80353430353426" y="477.02943725152284" transform="rotate(45 365.803534 477.029437)">1999</text></g><g class="guides"><path class="major guide line" d="M487.269231 0.000000 v462.029437"/><text class="major" x="487.2692307692307" y="477.02943725152284" transform="rotate(45 487.269231 477.029437)">2000</text></g><g class="guides"><path class="major guide line" d="M576.770270 0.000000 v462.029437"/><text class="major" x="576.7702702702703" y="477.02943725152284" transform="rotate(45 576.770270 477.029437)">2001</text></g><g class="guides"><path class="major guide line" d="M685.450104 0.000000 v462.029437"/><text class="major" x="685.4501039501039" y="477.02943725152284" transform="rotate(45 685.450104 477.029437)">2002</text></g><g class="guides"><path class="major guide line" d="M698.235967 0.000000 v462.029437"/><text class="major" x="698.2359667359667" y="477.02943725152284" transform="rotate(45 698.235967 477.029437)">2003</text></g></g><g class="series serie-0 color-0"><path class="line reactive nofill" d="M14.192308 242.842844 L20.585239 243.214965 26.978170 244.331327 33.371102 240.556959 39.764033 239.068476 46.156965 239.281116 52.549896 238.058434 58.942827 236.782591 65.335759 238.058434 71.728690 232.848743 78.121622 235.134627 84.514553 230.988139 90.907484 234.390386 97.300416 231.838700 103.693347 236.038349 110.086279 234.656186 116.479210 238.271074 122.872141 238.855835 129.265073 240.344319 135.658004 241.885962 142.050936 242.736524 148.443867 244.118687 154.836798 239.121636 161.229730 241.354361 167.622661 243.374445 174.015593 240.875920 180.408524 242.311243 186.801455 244.278167 193.194387 245.660330 199.587318 241.673322 205.980249 235.772549 212.373181 239.387437 218.766112 241.779642 225.159044 241.992282 231.551975 242.630204 237.944906 240.875920 244.337838 240.503799 250.730769 239.493757 257.123701 235.294108 263.516632 235.400428 269.909563 237.154712 276.302495 235.613069 282.695426 239.281116 289.088358 243.108645 295.481289 240.397479 301.874220 232.051341 308.267152 227.160610 314.660083 228.968054 321.053015 226.735329 327.445946 228.595933 333.838877 222.642001 340.231809 216.847548 346.624740 218.336031 353.017672 221.791439 359.410603 230.828658 365.803534 232.210821 372.196466 234.656186 378.589397 237.526833 384.982328 240.237998 391.375260 238.271074 397.768191 225.140526 404.161123 228.649094 410.554054 231.679220 416.946985 226.575849 423.339917 223.598883 429.732848 222.907801 436.125780 204.408081 442.518711 204.248601 448.911642 186.067842 455.304574 192.659696 461.697505 165.813839 468.090437 112.334764 474.483368 124.455270 480.876299 134.502531 487.269231 83.840942 493.662162 90.220156 500.055094 96.280409 506.448025 105.849230 512.840956 109.729918 519.233888 98.087853 525.626819 118.235536 532.019751 101.490100 538.412682 107.603514 544.805613 111.271561 551.198545 113.716927 557.591476 119.883500 563.984407 133.386169 570.377339 120.468261 576.770270 129.292840 583.163202 78.897052 589.556133 106.540311 595.949064 98.141013 602.341996 8.885181 608.734927 21.803089 615.127859 53.699158 621.520790 65.819664 627.913721 84.797825 634.306653 115.949651 640.699584 135.725214 647.092516 156.989260 653.485447 166.823881 659.878378 199.517351 666.271310 150.131605 672.664241 178.838067 679.057173 152.789611 685.450104 182.027673 691.843035 233.858785 698.235967 292.334910 704.628898 184.685679 711.021830 112.919525 717.414761 251.135822 723.807692 352.140039"/></g><g class="series serie-1 color-1"><path class="line reactive nofill" d="M14.192308 453.144256 L20.585239 421.248187 26.978170 325.559982 33.371102 307.857664 39.764033 305.359138 46.156965 291.909629 52.549896 298.235683 58.942827 303.658015 65.335759 291.005907 71.728690 313.014195 78.121622 297.066161 84.514553 311.259911 90.907484 291.643829 97.300416 296.481399 103.693347 275.961595 110.086279 279.735963 116.479210 263.415808 122.872141 260.757803 129.265073 254.112788 135.658004 247.148813 142.050936 243.480765 148.443867 237.207872 154.836798 256.451833 161.229730 248.318336 167.622661 241.088560 174.015593 249.115738 180.408524 244.543968 186.801455 238.590035 193.194387 234.443546 199.587318 246.032451 205.980249 259.747760 212.373181 251.135822 218.766112 245.394530 225.159044 244.809768 231.551975 243.374445 237.944906 246.936173 244.337838 247.414614 250.730769 249.062577 257.123701 255.494951 263.516632 254.750710 269.909563 251.933224 276.302495 253.846988 282.695426 248.265176 289.088358 242.470723 295.481289 246.404572 301.874220 256.451833 308.267152 260.864123 314.660083 258.790878 321.053015 260.492002 327.445946 258.471918 333.838877 263.096848 340.231809 266.605415 346.624740 264.266370 353.017672 260.438842 359.410603 252.890106 365.803534 251.348462 372.196466 249.381538 378.589397 247.095653 384.982328 244.969249 391.375260 246.351412 397.768191 254.538069 404.161123 252.252184 410.554054 250.232100 416.946985 253.102746 423.339917 254.431749 429.732848 254.272269 436.125780 261.767845 442.518711 260.864123 448.911642 265.382732 455.304574 262.777887 461.697505 268.519179 468.090437 276.440036 474.483368 273.303589 480.876299 270.751904 487.269231 275.536314 493.662162 274.207311 500.055094 272.984629 506.448025 271.017705 512.840956 270.220303 519.233888 270.220303 525.626819 266.445935 532.019751 267.349657 538.412682 266.286454 544.805613 265.648533 551.198545 265.223252 557.591476 264.160050 563.984407 261.821005 570.377339 262.193126 576.770270 260.810963 583.163202 263.894249 589.556133 260.332522 595.949064 259.322479 602.341996 263.096848 608.734927 261.980485 615.127859 259.216159 621.520790 258.152957 627.913721 256.504993 634.306653 253.846988 640.699584 252.145864 647.092516 250.285260 653.485447 249.434698 659.878378 246.617212 666.271310 248.424656 672.664241 246.723532 679.057173 247.148813 685.450104 245.766650 691.843035 243.268125 698.235967 240.503799 704.628898 244.225007 711.021830 244.331327 717.414761 242.789684 723.807692 244.012367"/></g><g class="series serie-2 color-2"><path class="line reactive nofill" d="M14.192308 242.842844 L20.585239 242.842844 26.978170 242.842844 33.371102 242.842844 39.764033 242.842844 46.156965 242.842844 52.549896 242.842844 58.942827 242.842844 65.335759 242.842844 71.728690 242.842844 78.121622 242.842844 84.514553 242.842844 90.907484 242.842844 97.300416 242.842844 103.693347 242.842844 110.086279 242.842844 116.479210 242.842844 122.872141 242.842844 129.265073 242.842844 135.658004 242.842844 142.050936 242.842844 148.443867 242.842844 154.836798 242.842844 161.229730 242.842844 167.622661 242.842844 174.015593 242.842844 180.408524 242.842844 186.801455 242.842844 193.194387 242.842844 199.587318 242.842844 205.980249 242.842844 212.373181 242.842844 218.766112 242.842844 225.159044 242.842844 231.551975 242.842844 237.944906 242.842844 244.337838 242.842844 250.730769 242.842844 257.123701 242.842844 263.516632 242.842844 269.909563 242.842844 276.302495 242.842844 282.695426 242.842844 289.088358 242.842844 295.481289 242.842844 301.874220 242.842844 308.267152 242.842844 314.660083 242.842844 321.053015 242.842844 327.445946 242.842844 333.838877 242.842844 340.231809 242.842844 346.624740 242.842844 353.017672 242.842844 359.410603 242.842844 365.803534 242.842844 372.196466 242.842844 378.589397 242.842844 384.982328 242.842844 391.375260 242.842844 397.768191 242.842844 404.161123 242.842844 410.554054 242.842844 416.946985 242.842844 423.339917 242.842844 429.732848 242.842844 436.125780 242.842844 442.518711 242.842844 448.911642 242.842844 455.304574 242.842844 461.697505 242.842844 468.090437 242.842844 474.483368 242.842844 480.876299 242.842844 487.269231 242.842844 493.662162 242.842844 500.055094 242.842844 506.448025 242.842844 512.840956 242.842844 519.233888 242.842844 525.626819 242.842844 532.019751 242.842844 538.412682 242.842844 544.805613 242.842844 551.198545 242.842844 557.591476 242.842844 563.984407 242.842844 570.377339 242.842844 576.770270 242.842844 583.163202 242.842844 589.556133 242.842844 595.949064 242.842844 602.341996 242.842844 608.734927 242.842844 615.127859 242.842844 621.520790 242.842844 627.913721 242.842844 634.306653 242.842844 640.699584 242.842844 647.092516 242.842844 653.485447 242.842844 659.878378 242.842844 666.271310 242.842844 672.664241 242.842844 679.057173 242.842844 685.450104 242.842844 691.843035 242.842844 698.235967 242.842844 704.628898 242.842844 711.021830 242.842844 717.414761 242.842844 723.807692 242.842844"/></g></g><g class="titles"><text class="title plot_title" x="400.0" y="26">GJ Whittall: Future and Past Averages in ODIs</text></g><g class="plot overlay" transform="translate(42, 46)"><g class="series serie-0 color-0"><g class="dots"><desc class="label">88 wickets in 112 innings (676.4 overs)</desc><circle class="dot reactive tooltip-trigger" cx="14.192307692307692" cy="242.84284403288945" r="2.5"/><desc class="value">39.56</desc><desc class="x top">14.192307692307692</desc><desc class="y top">242.84284403288945</desc><desc class="x_label">1993</desc></g><g class="dots"><desc class="label">88 wickets in 110 innings (672.1 overs)</desc><circle class="dot reactive tooltip-trigger" cx="26.978170478170476" cy="244.33132723019096" r="2.5"/><desc class="value">39.28</desc><desc class="x top">26.978170478170476</desc><desc class="y top">244.33132723019096</desc><desc class="x_label">1994</desc></g><g class="dots"><desc class="label">80 wickets in 105 innings (636.1 overs)</desc><circle class="dot reactive tooltip-trigger" cx="58.942827442827436" cy="236.78259101530477" r="2.5"/><desc class="value">40.7</desc><desc class="x top">58.942827442827436</desc><desc class="y top">236.78259101530477</desc><desc class="x_label">1995</desc></g><g class="dots"><desc class="label">73 wickets in 99 innings (591.2 overs)</desc><circle class="dot reactive tooltip-trigger" cx="97.30041580041579" cy="231.83870039569618" r="2.5"/><desc class="value">41.63</desc><desc class="x top">97.30041580041579</desc><desc class="y top">231.83870039569618</desc><desc class="x_label">1996</desc></g><g class="dots"><desc class="label">66 wickets in 84 innings (504.1 overs)</desc><circle class="dot reactive tooltip-trigger" cx="193.19438669438668" cy="245.66033008492445" r="2.5"/><desc class="value">39.03</desc><desc class="x top">193.19438669438668</desc><desc class="y top">245.66033008492445</desc><desc class="x_label">1997</desc></g><g class="dots"><desc class="label">47 wickets in 65 innings (376.1 overs)</desc><circle class="dot reactive tooltip-trigger" cx="314.66008316008316" cy="228.96805422947185" r="2.5"/><desc class="value">42.17</desc><desc class="x ">314.66008316008316</desc><desc class="y ">228.96805422947185</desc><desc class="x_label">1998</desc></g><g class="dots"><desc class="label">39 wickets in 57 innings (317.1 overs)</desc><circle class="dot reactive tooltip-trigger" cx="365.80353430353426" cy="232.21082119502157" r="2.5"/><desc class="value">41.56</desc><desc class="x top">365.80353430353426</desc><desc class="y top">232.21082119502157</desc><desc class="x_label">1999</desc></g><g class="dots"><desc class="label">15 wickets in 38 innings (195.1 overs)</desc><circle class="dot reactive tooltip-trigger" cx="487.2692307692307" cy="83.84094249257492" r="2.5"/><desc class="value">69.47</desc><desc class="x left">487.2692307692307</desc><desc class="y left">83.84094249257492</desc><desc class="x_label">2000</desc></g><g class="dots"><desc class="label">12 wickets in 24 innings (133.1 overs)</desc><circle class="dot reactive tooltip-trigger" cx="576.7702702702703" cy="129.29284012446027" r="2.5"/><desc class="value">60.92</desc><desc class="x left">576.7702702702703</desc><desc class="y left">129.29284012446027</desc><desc class="x_label">2001</desc></g><g class="dots"><desc class="label">4 wickets in 7 innings (37.3 overs)</desc><circle class="dot reactive tooltip-trigger" cx="685.4501039501039" cy="182.0276734002851" r="2.5"/><desc class="value">51</desc><desc class="x left">685.4501039501039</desc><desc class="y left">182.0276734002851</desc><desc class="x_label">2002</desc></g><g class="dots"><desc class="label">4 wickets in 5 innings (22.3 overs)</desc><circle class="dot reactive tooltip-trigger" cx="698.2359667359667" cy="292.33491034316455" r="2.5"/><desc class="value">30.25</desc><desc class="x left top">698.2359667359667</desc><desc class="y left top">292.33491034316455</desc><desc class="x_label">2003</desc></g></g><g class="series serie-1 color-1"><g class="dots"><desc class="label">0 wickets over 0 innings</desc><circle class="dot reactive tooltip-trigger" cx="14.192307692307692" cy="453.1442557659166" r="2.5"/><desc class="value">0</desc><desc class="x top">14.192307692307692</desc><desc class="y top">453.1442557659166</desc><desc class="x_label">1993</desc></g><g class="dots"><desc class="label">0 wickets in 2 innings (4.3 overs)</desc><circle class="dot reactive tooltip-trigger" cx="26.978170478170476" cy="325.5599817115018" r="2.5"/><desc class="value">24</desc><desc class="x top">26.978170478170476</desc><desc class="y top">325.5599817115018</desc><desc class="x_label">1994</desc></g><g class="dots"><desc class="label">8 wickets in 7 innings (40.3 overs)</desc><circle class="dot reactive tooltip-trigger" cx="58.942827442827436" cy="303.6580146654939" r="2.5"/><desc class="value">28.12</desc><desc class="x top">58.942827442827436</desc><desc class="y top">303.6580146654939</desc><desc class="x_label">1995</desc></g><g class="dots"><desc class="label">15 wickets in 13 innings (85.2 overs)</desc><circle class="dot reactive tooltip-trigger" cx="97.30041580041579" cy="296.4813992499331" r="2.5"/><desc class="value">29.47</desc><desc class="x top">97.30041580041579</desc><desc class="y top">296.4813992499331</desc><desc class="x_label">1996</desc></g><g class="dots"><desc class="label">22 wickets in 28 innings (172.3 overs)</desc><circle class="dot reactive tooltip-trigger" cx="193.19438669438668" cy="234.4435459909738" r="2.5"/><desc class="value">41.14</desc><desc class="x top">193.19438669438668</desc><desc class="y top">234.4435459909738</desc><desc class="x_label">1997</desc></g><g class="dots"><desc class="label">41 wickets in 47 innings (300.3 overs)</desc><circle class="dot reactive tooltip-trigger" cx="314.66008316008316" cy="258.79087828969136" r="2.5"/><desc class="value">36.56</desc><desc class="x top">314.66008316008316</desc><desc class="y top">258.79087828969136</desc><desc class="x_label">1998</desc></g><g class="dots"><desc class="label">49 wickets in 55 innings (359.3 overs)</desc><circle class="dot reactive tooltip-trigger" cx="365.80353430353426" cy="251.3484623031838" r="2.5"/><desc class="value">37.96</desc><desc class="x top">365.80353430353426</desc><desc class="y top">251.3484623031838</desc><desc class="x_label">1999</desc></g><g class="dots"><desc class="label">73 wickets in 74 innings (481.3 overs)</desc><circle class="dot reactive tooltip-trigger" cx="487.2692307692307" cy="275.5363142593333" r="2.5"/><desc class="value">33.41</desc><desc class="x left top">487.2692307692307</desc><desc class="y left top">275.5363142593333</desc><desc class="x_label">2000</desc></g><g class="dots"><desc class="label">76 wickets in 88 innings (543.3 overs)</desc><circle class="dot reactive tooltip-trigger" cx="576.7702702702703" cy="260.8109626288863" r="2.5"/><desc class="value">36.18</desc><desc class="x left top">576.7702702702703</desc><desc class="y left top">260.8109626288863</desc><desc class="x_label">2001</desc></g><g class="dots"><desc class="label">84 wickets in 105 innings (639.1 overs)</desc><circle class="dot reactive tooltip-trigger" cx="685.4501039501039" cy="245.76665031330316" r="2.5"/><desc class="value">39.01</desc><desc class="x left top">685.4501039501039</desc><desc class="y left top">245.76665031330316</desc><desc class="x_label">2002</desc></g><g class="dots"><desc class="label">84 wickets in 107 innings (654.1 overs)</desc><circle class="dot reactive tooltip-trigger" cx="698.2359667359667" cy="240.50379900855853" r="2.5"/><desc class="value">40</desc><desc class="x left top">698.2359667359667</desc><desc class="y left top">240.50379900855853</desc><desc class="x_label">2003</desc></g></g><g class="series serie-2 color-2"/></g><g class="plot text-overlay" transform="translate(42, 46)"><g class="series serie-0 color-0"/><g class="series serie-1 color-1"/><g class="series serie-2 color-2"/></g><g class="plot tooltip-overlay" transform="translate(42, 46)"><g class="tooltip" style="opacity: 0" transform="translate(0 0)"><rect class="tooltip-box" height="0" rx="10" ry="10" width="0"/><g class="text"/></g></g><g class="legends" transform="translate(52, 545)"><g class="legend reactive activate-serie" id="activate-serie-0"><rect class="color-0 reactive" height="12" width="12" x="0.0" y="1.0"/><text x="17.0" y="11.2">Future Average</text></g><g class="legend reactive activate-serie" id="activate-serie-1"><rect class="color-1 reactive" height="12" width="12" x="369.0" y="1.0"/><text x="386.0" y="11.2">Past Average</text></g><g class="legend reactive activate-serie" id="activate-serie-2"><rect class="color-2 reactive" height="12" width="12" x="0.0" y="22.0"/><text x="17.0" y="32.2">Career Average</text></g></g></g></svg>