<?xml version='1.0' encoding='utf-8'?>
<svg xmlns:xlink="http://www.w3.org/1999/xlink" xmlns="http://www.w3.org/2000/svg" id="chart-0bc45c4a-e172-4238-88a6-2d94a20fb654" class="pygal-chart" viewBox="0 0 800 600"><!--Generated with pygal 2.4.0 (lxml) ©Kozea 2012-2016 on 2019-08-04--><!--http://pygal.org--><!--http://github.com/Kozea/pygal--><defs><style type="text/css">#chart-0bc45c4a-e172-4238-88a6-2d94a20fb654{-webkit-user-select:none;-webkit-font-smoothing:antialiased;font-family:Consolas,"Liberation Mono",Menlo,Courier,monospace}#chart-0bc45c4a-e172-4238-88a6-2d94a20fb654 .title{font-family:Consolas,"Liberation Mono",Menlo,Courier,monospace;font-size:16px}#chart-0bc45c4a-e172-4238-88a6-2d94a20fb654 .legends .legend text{font-family:Consolas,"Liberation Mono",Menlo,Courier,monospace;font-size:14px}#chart-0bc45c4a-e172-4238-88a6-2d94a20fb654 .axis text{font-family:Consolas,"Liberation Mono",Menlo,Courier,monospace;font-size:10px}#chart-0bc45c4a-e172-4238-88a6-2d94a20fb654 .axis text.major{font-family:Consolas,"Liberation Mono",Menlo,Courier,monospace;font-size:10px}#chart-0bc45c4a-e172-4238-88a6-2d94a20fb654 .text-overlay text.value{font-family:Consolas,"Liberation Mono",Menlo,Courier,monospace;font-size:16px}#chart-0bc45c4a-e172-4238-88a6-2d94a20fb654 .text-overlay text.label{font-family:Consolas,"Liberation Mono",Menlo,Courier,monospace;font-size:10px}#chart-0bc45c4a-e172-4238-88a6-2d94a20fb654 .tooltip{font-family:Consolas,"Liberation Mono",Menlo,Courier,monospace;font-size:14px}#chart-0bc45c4a-e172-4238-88a6-2d94a20fb654 text.no_data{font-family:Consolas,"Liberation Mono",Menlo,Courier,monospace;font-size:64px}
#chart-0bc45c4a-e172-4238-88a6-2d94a20fb654{background-color:rgba(249,249,249,1)}#chart-0bc45c4a-e172-4238-88a6-2d94a20fb654 path,#chart-0bc45c4a-e172-4238-88a6-2d94a20fb654 line,#chart-0bc45c4a-e172-4238-88a6-2d94a20fb654 rect,#chart-0bc45c4a-e172-4238-88a6-2d94a20fb654 circle{-webkit-transition:150ms;-moz-transition:150ms;transition:150ms}#chart-0bc45c4a-e172-4238-88a6-2d94a20fb654 .graph &gt; .background{fill:rgba(249,249,249,1)}#chart-0bc45c4a-e172-4238-88a6-2d94a20fb654 .plot &gt; .background{fill:rgba(255,255,255,1)}#chart-0bc45c4a-e172-4238-88a6-2d94a20fb654 .graph{fill:rgba(0,0,0,.87)}#chart-0bc45c4a-e172-4238-88a6-2d94a20fb654 text.no_data{fill:rgba(0,0,0,1)}#chart-0bc45c4a-e172-4238-88a6-2d94a20fb654 .title{fill:rgba(0,0,0,1)}#chart-0bc45c4a-e172-4238-88a6-2d94a20fb654 .legends .legend text{fill:rgba(0,0,0,.87)}#chart-0bc45c4a-e172-4238-88a6-2d94a20fb654 .legends .legend:hover text{fill:rgba(0,0,0,1)}#chart-0bc45c4a-e172-4238-88a6-2d94a20fb654 .axis .line{stroke:rgba(0,0,0,1)}#chart-0bc45c4a-e172-4238-88a6-2d94a20fb654 .axis .guide.line{stroke:rgba(0,0,0,.54)}#chart-0bc45c4a-e172-4238-88a6-2d94a20fb654 .axis .major.line{stroke:rgba(0,0,0,.87)}#chart-0bc45c4a-e172-4238-88a6-2d94a20fb654 .axis text.major{fill:rgba(0,0,0,1)}#chart-0bc45c4a-e172-4238-88a6-2d94a20fb654 .axis.y .guides:hover .guide.line,#chart-0bc45c4a-e172-4238-88a6-2d94a20fb654 .line-graph .axis.x .guides:hover .guide.line,#chart-0bc45c4a-e172-4238-88a6-2d94a20fb654 .stackedline-graph .axis.x .guides:hover .guide.line,#chart-0bc45c4a-e172-4238-88a6-2d94a20fb654 .xy-graph .axis.x .guides:hover .guide.line{stroke:rgba(0,0,0,1)}#chart-0bc45c4a-e172-4238-88a6-2d94a20fb654 .axis .guides:hover text{fill:rgba(0,0,0,1)}#chart-0bc45c4a-e172-4238-88a6-2d94a20fb654 .reactive{fill-opacity:.7;stroke-opacity:.8}#chart-0bc45c4a-e172-4238-88a6-2d94a20fb654 .ci{stroke:rgba(0,0,0,.87)}#chart-0bc45c4a-e172-4238-88a6-2d94a20fb654 .reactive.active,#chart-0bc45c4a-e172-4238-88a6-2d94a20fb654 .active .reactive{fill-opacity:.8;stroke-opacity:.9;stroke-width:4}#chart-0bc45c4a-e172-4238-88a6-2d94a20fb654 .ci .reactive.active{stroke-width:1.5}#chart-0bc45c4a-e172-4238-88a6-2d94a20fb654 .series text{fill:rgba(0,0,0,1)}#chart-0bc45c4a-e172-4238-88a6-2d94a20fb654 .tooltip rect{fill:rgba(255,255,255,1);stroke:rgba(0,0,0,1);-webkit-transition:opacity 150ms;-moz-transition:opacity 150ms;transition:opacity 150ms}#chart-0bc45c4a-e172-4238-88a6-2d94a20fb654 .tooltip .label{fill:rgba(0,0,0,.87)}#chart-0bc45c4a-e172-4238-88a6-2d94a20fb654 .tooltip .label{fill:rgba(0,0,0,.87)}#chart-0bc45c4a-e172-4238-88a6-2d94a20fb654 .tooltip .legend{font-size:.8em;fill:rgba(0,0,0,.54)}#chart-0bc45c4a-e172-4238-88a6-2d94a20fb654 .tooltip .x_label{font-size:.6em;fill:rgba(0,0,0,1)}#chart-0bc45c4a-e172-4238-88a6-2d94a20fb654 .tooltip .xlink{font-size:.5em;text-decoration:underline}#chart-0bc45c4a-e172-4238-88a6-2d94a20fb654 .tooltip .value{font-size:1.5em}#chart-0bc45c4a-e172-4238-88a6-2d94a20fb654 .bound{font-size:.5em}#chart-0bc45c4a-e172-4238-88a6-2d94a20fb654 .max-value{font-size:.75em;fill:rgba(0,0,0,.54)}#chart-0bc45c4a-e172-4238-88a6-2d94a20fb654 .map-element{fill:rgba(255,255,255,1);stroke:rgba(0,0,0,.54) !important}#chart-0bc45c4a-e172-4238-88a6-2d94a20fb654 .map-element .reactive{fill-opacity:inherit;stroke-opacity:inherit}#chart-0bc45c4a-e172-4238-88a6-2d94a20fb654 .color-0,#chart-0bc45c4a-e172-4238-88a6-2d94a20fb654 .color-0 a:visited{stroke:red;fill:red}#chart-0bc45c4a-e172-4238-88a6-2d94a20fb654 .color-1,#chart-0bc45c4a-e172-4238-88a6-2d94a20fb654 .color-1 a:visited{stroke:blue;fill:blue}#chart-0bc45c4a-e172-4238-88a6-2d94a20fb654 .color-2,#chart-0bc45c4a-e172-4238-88a6-2d94a20fb654 .color-2 a:visited{stroke:green;fill:green}#chart-0bc45c4a-e172-4238-88a6-2d94a20fb654 .text-overlay .color-0 text{fill:white}#chart-0bc45c4a-e172-4238-88a6-2d94a20fb654 .text-overlay .color-1 text{fill:white}#chart-0bc45c4a-e172-4238-88a6-2d94a20fb654 .text-overlay .color-2 text{fill:white}
#chart-0bc45c4a-e172-4238-88a6-2d94a20fb654 text.no_data{text-anchor:middle}#chart-0bc45c4a-e172-4238-88a6-2d94a20fb654 .guide.line{fill:none}#chart-0bc45c4a-e172-4238-88a6-2d94a20fb654 .centered{text-anchor:middle}#chart-0bc45c4a-e172-4238-88a6-2d94a20fb654 .title{text-anchor:middle}#chart-0bc45c4a-e172-4238-88a6-2d94a20fb654 .legends .legend text{fill-opacity:1}#chart-0bc45c4a-e172-4238-88a6-2d94a20fb654 .axis.x text{text-anchor:middle}#chart-0bc45c4a-e172-4238-88a6-2d94a20fb654 .axis.x:not(.web) text[transform]{text-anchor:start}#chart-0bc45c4a-e172-4238-88a6-2d94a20fb654 .axis.x:not(.web) text[transform].backwards{text-anchor:end}#chart-0bc45c4a-e172-4238-88a6-2d94a20fb654 .axis.y text{text-anchor:end}#chart-0bc45c4a-e172-4238-88a6-2d94a20fb654 .axis.y text[transform].backwards{text-anchor:start}#chart-0bc45c4a-e172-4238-88a6-2d94a20fb654 .axis.y2 text{text-anchor:start}#chart-0bc45c4a-e172-4238-88a6-2d94a20fb654 .axis.y2 text[transform].backwards{text-anchor:end}#chart-0bc45c4a-e172-4238-88a6-2d94a20fb654 .axis .guide.line{stroke-dasharray:4,4}#chart-0bc45c4a-e172-4238-88a6-2d94a20fb654 .axis .major.guide.line{stroke-dasharray:6,6}#chart-0bc45c4a-e172-4238-88a6-2d94a20fb654 .horizontal .axis.y .guide.line,#chart-0bc45c4a-e172-4238-88a6-2d94a20fb654 .horizontal .axis.y2 .guide.line,#chart-0bc45c4a-e172-4238-88a6-2d94a20fb654 .vertical .axis.x .guide.line{opacity:0}#chart-0bc45c4a-e172-4238-88a6-2d94a20fb654 .horizontal .axis.always_show .guide.line,#chart-0bc45c4a-e172-4238-88a6-2d94a20fb654 .vertical .axis.always_show .guide.line{opacity:1 !important}#chart-0bc45c4a-e172-4238-88a6-2d94a20fb654 .axis.y .guides:hover .guide.line,#chart-0bc45c4a-e172-4238-88a6-2d94a20fb654 .axis.y2 .guides:hover .guide.line,#chart-0bc45c4a-e172-4238-88a6-2d94a20fb654 .axis.x .guides:hover .guide.line{opacity:1}#chart-0bc45c4a-e172-4238-88a6-2d94a20fb654 .axis .guides:hover text{opacity:1}#chart-0bc45c4a-e172-4238-88a6-2d94a20fb654 .nofill{fill:none}#chart-0bc45c4a-e172-4238-88a6-2d94a20fb654 .subtle-fill{fill-opacity:.2}#chart-0bc45c4a-e172-4238-88a6-2d94a20fb654 .dot{stroke-width:1px;fill-opacity:1}#chart-0bc45c4a-e172-4238-88a6-2d94a20fb654 .dot.active{stroke-width:5px}#chart-0bc45c4a-e172-4238-88a6-2d94a20fb654 .dot.negative{fill:transparent}#chart-0bc45c4a-e172-4238-88a6-2d94a20fb654 text,#chart-0bc45c4a-e172-4238-88a6-2d94a20fb654 tspan{stroke:none !important}#chart-0bc45c4a-e172-4238-88a6-2d94a20fb654 .series text.active{opacity:1}#chart-0bc45c4a-e172-4238-88a6-2d94a20fb654 .tooltip rect{fill-opacity:.95;stroke-width:.5}#chart-0bc45c4a-e172-4238-88a6-2d94a20fb654 .tooltip text{fill-opacity:1}#chart-0bc45c4a-e172-4238-88a6-2d94a20fb654 .showable{visibility:hidden}#chart-0bc45c4a-e172-4238-88a6-2d94a20fb654 .showable.shown{visibility:visible}#chart-0bc45c4a-e172-4238-88a6-2d94a20fb654 .gauge-background{fill:rgba(229,229,229,1);stroke:none}#chart-0bc45c4a-e172-4238-88a6-2d94a20fb654 .bg-lines{stroke:rgba(249,249,249,1);stroke-width:2px}</style><script type="text/javascript">window.pygal = window.pygal || {};window.pygal.config = window.pygal.config || {};window.pygal.config['0bc45c4a-e172-4238-88a6-2d94a20fb654'] = {"allow_interruptions": false, "box_mode": "extremes", "classes": ["pygal-chart"], "css": ["file://style.css", "file://graph.css"], "defs": [], "disable_xml_declaration": false, "dots_size": 2.5, "dynamic_print_values": false, "explicit_size": false, "fill": false, "force_uri_protocol": "https", "formatter": null, "half_pie": false, "height": 600, "include_x_axis": false, "inner_radius": 0, "interpolate": null, "interpolation_parameters": {}, "interpolation_precision": 250, "inverse_y_axis": false, "js": ["//kozea.github.io/pygal.js/2.0.x/pygal-tooltips.min.js"], "legend_at_bottom": true, "legend_at_bottom_columns": null, "legend_box_size": 12, "logarithmic": false, "margin": 20, "margin_bottom": null, "margin_left": null, "margin_right": null, "margin_top": null, "max_scale": 16, "min_scale": 4, "missing_value_fill_truncation": "x", "no_data_text": "No data", "no_prefix": false, "order_min": null, "pretty_print": false, "print_labels": false, "print_values": false, "print_values_position": "center", "print_zeroes": true, "range": null, "rounded_bars": null, "secondary_range": null, "show_dots": true, "show_legend": true, "show_minor_x_labels": false, "show_minor_y_labels": true, "show_only_major_dots": false, "show_x_guides": false, "show_x_labels": true, "show_y_guides": true, "show_y_labels": true, "spacing": 10, "stack_from_top": false, "strict": false, "stroke": true, "stroke_style": null, "style": {"background": "rgba(249, 249, 249, 1)", "ci_colors": [], "colors": ["red", "blue", "green", "#a3a3a3"], "font_family": "Consolas, \"Liberation Mono\", Menlo, Courier, monospace", "foreground": "rgba(0, 0, 0, .87)", "foreground_strong": "rgba(0, 0, 0, 1)", "foreground_subtle": "rgba(0, 0, 0, .54)", "guide_stroke_dasharray": "4,4", "label_font_family": "Consolas, \"Liberation Mono\", Menlo, Courier, monospace", "label_font_size": 10, "legend_font_family": "Consolas, \"Liberation Mono\", Menlo, Courier, monospace", "legend_font_size": 14, "major_guide_stroke_dasharray": "6,6", "major_label_font_family": "Consolas, \"Liberation Mono\", Menlo, Courier, monospace", "major_label_font_size": 10, "no_data_font_family": "Consolas, \"Liberation Mono\", Menlo, Courier, monospace", "no_data_font_size": 64, "opacity": ".7", "opacity_hover": ".8", "plot_background": "rgba(255, 255, 255, 1)", "stroke_opacity": ".8", "stroke_opacity_hover": ".9", "title_font_family": "Consolas, \"Liberation Mono\", Menlo, Courier, monospace", "title_font_size": 16, "tooltip_font_family": "Consolas, \"Liberation Mono\", Menlo, Courier, monospace", "tooltip_font_size": 14, "transition": "150ms", "value_background": "rgba(229, 229, 229, 1)", "value_colors": [], "value_font_family": "Consolas, \"Liberation Mono\", Menlo, Courier, monospace", "value_font_size": 16, "value_label_font_family": "Consolas, \"Liberation Mono\", Menlo, Courier, monospace", "value_label_font_size": 10}, "title": "GP Wickramasinghe: Future and Past Averages in ODIs", "tooltip_border_radius": 10, "tooltip_fancy_mode": true, "truncate_label": null, "truncate_legend": null, "width": 800, "x_label_rotation": 45, "x_labels": ["1992", "0", "0", "0", "0", "0", "0", "0", "0", "0", "0", "0", "0", "0", "0", "0", "0", "1993", "0", "0", "0", "0", "0", "0", "0", "0", "0", "0", "0", "0", "0", "0", "0", "0", "0", "0", "0", "0", "0", "0", "1994", "0", "0", "0", "0", "0", "0", "0", "0", "0", "0", "0", "0", "0", "0", "0", "0", "0", "0", "0", "0", "1995", "0", "0", "0", "0", "0", "0", "0", "0", "1996", "0", "0", "0", "0", "0", "0", "0", "0", "0", "0", "0", "0", "0", "1998", "0", "0", "0", "0", "0", "0", "0", "0", "0", "0", "0", "0", "1999", "0", "0", "0", "0", "0", "0", "0", "0", "0", "0", "0", "0", "0", "0", "0", "0", "0", "0", "0", "0", "0", "0", "0", "2000", "0", "0", "0", "0", "0", "0", "2001", "0", "2002", "0"], "x_labels_major": ["1992", "1993", "1994", "1995", "1996", "1998", "1999", "2000", "2001", "2002"], "x_labels_major_count": null, "x_labels_major_every": null, "x_title": null, "xrange": null, "y_label_rotation": 0, "y_labels": null, "y_labels_major": null, "y_labels_major_count": null, "y_labels_major_every": null, "y_title": null, "zero": 100.0, "legends": ["Future Average", "Past Average", "Career Average"]}</script><script type="text/javascript" xlink:href="https://kozea.github.io/pygal.js/2.0.x/pygal-tooltips.min.js"/></defs><title>GP Wickramasinghe: Future and Past Averages in ODIs</title><g class="graph line-graph vertical"><rect class="background" height="600" width="800" x="0" y="0"/><g class="plot" transform="translate(42, 46)"><rect class="background" height="462.02943725152284" width="738.0" x="0" y="0"/><g class="axis y always_show"><g class="guides"><path class="axis major line" d="M0.000000 453.144256 h738.000000"/><text class="major" x="-5" y="456.6442557659166">0</text><title>0</title></g><g class="guides"><path class="guide line" d="M0.000000 406.380143 h738.000000"/><text class="" x="-5" y="409.8801426837787">10</text><title>10</title></g><g class="guides"><path class="guide line" d="M0.000000 359.616030 h738.000000"/><text class="" x="-5" y="363.1160296016408">20</text><title>20</title></g><g class="guides"><path class="guide line" d="M0.000000 312.851917 h738.000000"/><text class="" x="-5" y="316.3519165195028">30</text><title>30</title></g><g class="guides"><path class="guide line" d="M0.000000 266.087803 h738.000000"/><text class="" x="-5" y="269.5878034373649">40</text><title>40</title></g><g class="guides"><path class="major guide line" d="M0.000000 219.323690 h738.000000"/><text class="major" x="-5" y="222.82369035522697">50</text><title>50</title></g><g class="guides"><path class="guide line" d="M0.000000 172.559577 h738.000000"/><text class="" x="-5" y="176.05957727308902">60</text><title>60</title></g><g class="guides"><path class="guide line" d="M0.000000 125.795464 h738.000000"/><text class="" x="-5" y="129.29546419095107">70</text><title>70</title></g><g class="guides"><path class="guide line" d="M0.000000 79.031351 h738.000000"/><text class="" x="-5" y="82.53135110881311">80</text><title>80</title></g><g class="guides"><path class="guide line" d="M0.000000 32.267238 h738.000000"/><text class="" x="-5" y="35.76723802667516">90</text><title>90</title></g></g><g class="axis x"><g class="guides"><path class="major line" d="M14.192308 0.000000 v462.029437"/><text class="major" x="14.192307692307692" y="477.02943725152284" transform="rotate(45 14.192308 477.029437)">1992</text></g><g class="guides"><path class="major guide line" d="M106.279800 0.000000 v462.029437"/><text class="major" x="106.27980035231943" y="477.02943725152284" transform="rotate(45 106.279800 477.029437)">1993</text></g><g class="guides"><path class="major guide line" d="M230.868761 0.000000 v462.029437"/><text class="major" x="230.8687610099824" y="477.02943725152284" transform="rotate(45 230.868761 477.029437)">1994</text></g><g class="guides"><path class="major guide line" d="M344.623899 0.000000 v462.029437"/><text class="major" x="344.6238990017616" y="477.02943725152284" transform="rotate(45 344.623899 477.029437)">1995</text></g><g class="guides"><path class="major guide line" d="M393.376101 0.000000 v462.029437"/><text class="major" x="393.37610099823837" y="477.02943725152284" transform="rotate(45 393.376101 477.029437)">1996</text></g><g class="guides"><path class="major guide line" d="M469.212860 0.000000 v462.029437"/><text class="major" x="469.2128596594245" y="477.02943725152284" transform="rotate(45 469.212860 477.029437)">1998</text></g><g class="guides"><path class="major guide line" d="M539.632707 0.000000 v462.029437"/><text class="major" x="539.6327069876688" y="477.02943725152284" transform="rotate(45 539.632707 477.029437)">1999</text></g><g class="guides"><path class="major guide line" d="M669.638579 0.000000 v462.029437"/><text class="major" x="669.6385789782736" y="477.02943725152284" transform="rotate(45 669.638579 477.029437)">2000</text></g><g class="guides"><path class="major guide line" d="M707.556958 0.000000 v462.029437"/><text class="major" x="707.5569583088667" y="477.02943725152284" transform="rotate(45 707.556958 477.029437)">2001</text></g><g class="guides"><path class="major guide line" d="M718.390781 0.000000 v462.029437"/><text class="major" x="718.3907809747503" y="477.02943725152284" transform="rotate(45 718.390781 477.029437)">2002</text></g></g><g class="series serie-0 color-0"><path class="line reactive nofill" d="M14.192308 267.771312 L19.609219 267.023086 25.026130 267.631019 30.443042 268.753358 35.859953 270.156281 41.276864 268.893650 46.693776 268.940414 52.110687 268.613066 57.527598 266.321624 62.944510 268.800122 68.361421 270.156281 73.778332 270.249810 79.195244 270.062753 84.612155 270.109517 90.029066 271.605969 95.445978 269.735404 100.862889 271.138328 106.279800 271.793025 111.696712 273.242713 117.113623 271.886553 122.530534 273.757118 127.947446 270.951271 133.364357 270.156281 138.781268 270.249810 144.198180 265.807219 149.615091 262.159618 155.032002 262.533731 160.448914 261.785505 165.865825 260.850223 171.282736 262.346674 176.699648 265.713691 182.116559 265.386342 187.533470 265.199285 192.950382 261.224336 198.367293 262.019326 203.784204 262.767551 209.201116 264.544588 214.618027 261.224336 220.034938 262.580495 225.451850 265.058993 230.868761 266.274860 236.285672 268.800122 241.702584 270.904507 247.119495 273.523297 252.536406 272.681543 257.953318 269.408055 263.370229 271.091564 268.787140 269.127471 274.204052 269.735404 279.620963 263.656070 285.037874 266.134568 290.454786 268.098660 295.871697 263.515777 301.288608 260.709930 306.705520 264.638116 312.122431 262.954608 317.539342 265.012229 322.956254 264.918701 328.373165 265.947511 333.790076 267.116614 339.206988 267.303670 344.623899 267.631019 350.040810 270.764215 355.457722 273.523297 360.874633 274.365051 366.291544 273.476533 371.708456 274.739164 377.125367 273.242713 382.542278 271.605969 387.959190 273.429769 393.376101 275.440626 398.793012 277.451483 404.209924 276.703257 409.626835 281.800545 415.043746 278.246473 420.460658 277.591775 425.877569 280.818499 431.294480 284.699920 436.711392 286.851070 442.128303 290.264850 447.545214 293.070697 452.962126 297.185939 458.379037 297.700344 463.795948 297.419759 469.212860 297.372995 474.629771 300.459427 480.046682 303.124981 485.463594 302.236463 490.880505 297.887400 496.297416 301.581765 501.714328 305.135838 507.131239 307.754628 512.548150 312.150455 517.965062 304.481140 523.381973 300.973832 528.798884 304.294084 534.215796 299.898257 539.632707 290.779255 545.049618 292.836876 550.466530 297.513287 555.883441 302.049406 561.300352 300.412662 566.717264 309.905777 572.134175 311.869870 577.551086 305.463187 582.967998 308.643146 588.384909 295.034789 593.801820 295.455666 599.218732 281.192612 604.635643 272.868600 610.052554 282.455243 615.469466 275.160041 620.886377 248.925374 626.303288 223.205112 631.720200 213.805525 637.137111 201.085686 642.554022 213.244356 647.970934 227.741231 653.387845 227.741231 658.804756 240.367541 664.221668 252.526211 669.638579 245.838942 675.055490 279.602632 680.472402 258.745838 685.889313 241.162531 691.306224 237.094053 696.723136 150.720736 702.140047 219.323690 707.556958 193.603428 712.973870 266.087803 718.390781 186.588811 723.807692 406.380143"/></g><g class="series serie-1 color-1"><path class="line reactive nofill" d="M14.192308 453.144256 L19.609219 345.586796 25.026130 280.117037 30.443042 158.530343 35.859953 8.885181 41.276864 227.133297 46.693776 236.860233 52.110687 250.188005 57.527598 288.815162 62.944510 252.713267 68.361421 232.698227 73.778332 236.252299 79.195244 242.191342 84.612155 244.576311 90.029066 229.611795 95.445978 251.684457 100.862889 240.367541 106.279800 235.317017 111.696712 223.625989 117.113623 239.712844 122.530534 226.993005 127.947446 249.159195 133.364357 254.817652 138.781268 255.191765 144.198180 275.908267 149.615091 287.505767 155.032002 286.336664 160.448914 287.786352 165.865825 289.843973 171.282736 284.980505 176.699648 274.365051 182.116559 274.926221 187.533470 275.113277 192.950382 284.933741 198.367293 282.221422 203.784204 280.257330 209.201116 275.908267 214.618027 282.829356 220.034938 279.696160 225.451850 274.037703 230.868761 271.185092 236.285672 265.386342 241.702584 260.569638 247.119495 254.490303 252.536406 256.875273 257.953318 264.404295 263.370229 261.037279 268.787140 265.058993 274.204052 263.936654 279.620963 274.879457 285.037874 270.530394 290.454786 267.116614 295.871697 274.552108 301.288608 278.199709 306.705520 272.354195 312.122431 274.598872 317.539342 271.699497 322.956254 271.699497 328.373165 270.249810 333.790076 268.613066 339.206988 268.379245 344.623899 267.958368 350.040810 263.936654 355.457722 260.429346 360.874633 259.353771 366.291544 260.756695 371.708456 259.540828 377.125367 261.785505 382.542278 263.702834 387.959190 261.785505 393.376101 259.634356 398.793012 257.529971 404.209924 258.652309 409.626835 253.461493 415.043746 257.810555 420.460658 258.792602 425.877569 255.846463 431.294480 252.292390 436.711392 250.328297 442.128303 247.195102 447.545214 244.669840 452.962126 240.881946 458.379037 241.396352 463.795948 242.612219 469.212860 243.547501 474.629771 241.069003 480.046682 238.871090 485.463594 240.648126 490.880505 245.745414 496.297416 243.079860 501.714328 240.461069 507.131239 238.543741 512.548150 235.363781 517.965062 243.828086 523.381973 247.709507 528.798884 245.745414 534.215796 249.860656 539.632707 256.407632 545.049618 255.378822 550.466530 253.087380 555.883441 250.842703 561.300352 252.292390 566.717264 247.803035 572.134175 247.756271 577.551086 252.760031 582.967998 252.245626 588.384909 259.213479 593.801820 259.540828 599.218732 264.357531 604.635643 266.602209 610.052554 264.451059 615.469466 266.274860 620.886377 270.764215 626.303288 273.289477 631.720200 273.803882 637.137111 274.505344 642.554022 273.289477 647.970934 271.793025 653.387845 271.793025 658.804756 270.530394 664.221668 269.314527 669.638579 269.735404 675.055490 266.695737 680.472402 268.379245 685.889313 269.314527 691.306224 269.220999 696.723136 271.091564 702.140047 269.127471 707.556958 269.127471 712.973870 267.771312 718.390781 268.519537 723.807692 268.192189"/></g><g class="series serie-2 color-2"><path class="line reactive nofill" d="M14.192308 267.771312 L19.609219 267.771312 25.026130 267.771312 30.443042 267.771312 35.859953 267.771312 41.276864 267.771312 46.693776 267.771312 52.110687 267.771312 57.527598 267.771312 62.944510 267.771312 68.361421 267.771312 73.778332 267.771312 79.195244 267.771312 84.612155 267.771312 90.029066 267.771312 95.445978 267.771312 100.862889 267.771312 106.279800 267.771312 111.696712 267.771312 117.113623 267.771312 122.530534 267.771312 127.947446 267.771312 133.364357 267.771312 138.781268 267.771312 144.198180 267.771312 149.615091 267.771312 155.032002 267.771312 160.448914 267.771312 165.865825 267.771312 171.282736 267.771312 176.699648 267.771312 182.116559 267.771312 187.533470 267.771312 192.950382 267.771312 198.367293 267.771312 203.784204 267.771312 209.201116 267.771312 214.618027 267.771312 220.034938 267.771312 225.451850 267.771312 230.868761 267.771312 236.285672 267.771312 241.702584 267.771312 247.119495 267.771312 252.536406 267.771312 257.953318 267.771312 263.370229 267.771312 268.787140 267.771312 274.204052 267.771312 279.620963 267.771312 285.037874 267.771312 290.454786 267.771312 295.871697 267.771312 301.288608 267.771312 306.705520 267.771312 312.122431 267.771312 317.539342 267.771312 322.956254 267.771312 328.373165 267.771312 333.790076 267.771312 339.206988 267.771312 344.623899 267.771312 350.040810 267.771312 355.457722 267.771312 360.874633 267.771312 366.291544 267.771312 371.708456 267.771312 377.125367 267.771312 382.542278 267.771312 387.959190 267.771312 393.376101 267.771312 398.793012 267.771312 404.209924 267.771312 409.626835 267.771312 415.043746 267.771312 420.460658 267.771312 425.877569 267.771312 431.294480 267.771312 436.711392 267.771312 442.128303 267.771312 447.545214 267.771312 452.962126 267.771312 458.379037 267.771312 463.795948 267.771312 469.212860 267.771312 474.629771 267.771312 480.046682 267.771312 485.463594 267.771312 490.880505 267.771312 496.297416 267.771312 501.714328 267.771312 507.131239 267.771312 512.548150 267.771312 517.965062 267.771312 523.381973 267.771312 528.798884 267.771312 534.215796 267.771312 539.632707 267.771312 545.049618 267.771312 550.466530 267.771312 555.883441 267.771312 561.300352 267.771312 566.717264 267.771312 572.134175 267.771312 577.551086 267.771312 582.967998 267.771312 588.384909 267.771312 593.801820 267.771312 599.218732 267.771312 604.635643 267.771312 610.052554 267.771312 615.469466 267.771312 620.886377 267.771312 626.303288 267.771312 631.720200 267.771312 637.137111 267.771312 642.554022 267.771312 647.970934 267.771312 653.387845 267.771312 658.804756 267.771312 664.221668 267.771312 669.638579 267.771312 675.055490 267.771312 680.472402 267.771312 685.889313 267.771312 691.306224 267.771312 696.723136 267.771312 702.140047 267.771312 707.556958 267.771312 712.973870 267.771312 718.390781 267.771312 723.807692 267.771312"/></g></g><g class="titles"><text class="title plot_title" x="400.0" y="26">GP Wickramasinghe: Future and Past Averages in ODIs</text></g><g class="plot overlay" transform="translate(42, 46)"><g class="series serie-0 color-0"><g class="dots"><desc class="label">109 wickets in 132 innings (953.2 overs)</desc><circle class="dot reactive tooltip-trigger" cx="14.192307692307692" cy="267.77131150832184" r="2.5"/><desc class="value">39.64</desc><desc class="x top">14.192307692307692</desc><desc class="y top">267.77131150832184</desc><desc class="x_label">1992</desc></g><g class="dots"><desc class="label">97 wickets in 115 innings (820.1 overs)</desc><circle class="dot reactive tooltip-trigger" cx="106.27980035231943" cy="271.7930252333857" r="2.5"/><desc class="value">38.78</desc><desc class="x top">106.27980035231943</desc><desc class="y top">271.7930252333857</desc><desc class="x_label">1993</desc></g><g class="dots"><desc class="label">76 wickets in 92 innings (654.1 overs)</desc><circle class="dot reactive tooltip-trigger" cx="230.8687610099824" cy="266.27485988969346" r="2.5"/><desc class="value">39.96</desc><desc class="x top">230.8687610099824</desc><desc class="y top">266.27485988969346</desc><desc class="x_label">1994</desc></g><g class="dots"><desc class="label">61 wickets in 71 innings (509.0 overs)</desc><circle class="dot reactive tooltip-trigger" cx="344.6238990017616" cy="267.63101916907544" r="2.5"/><desc class="value">39.67</desc><desc class="x top">344.6238990017616</desc><desc class="y top">267.63101916907544</desc><desc class="x_label">1995</desc></g><g class="dots"><desc class="label">56 wickets in 62 innings (445.0 overs)</desc><circle class="dot reactive tooltip-trigger" cx="393.37610099823837" cy="275.44062605379247" r="2.5"/><desc class="value">38</desc><desc class="x left top">393.37610099823837</desc><desc class="y left top">275.44062605379247</desc><desc class="x_label">1996</desc></g><g class="dots"><desc class="label">49 wickets in 48 innings (347.0 overs)</desc><circle class="dot reactive tooltip-trigger" cx="469.2128596594245" cy="297.37299508931517" r="2.5"/><desc class="value">33.31</desc><desc class="x left top">469.2128596594245</desc><desc class="y left top">297.37299508931517</desc><desc class="x_label">1998</desc></g><g class="dots"><desc class="label">36 wickets in 35 innings (261.1 overs)</desc><circle class="dot reactive tooltip-trigger" cx="539.6327069876688" cy="290.7792551447337" r="2.5"/><desc class="value">34.72</desc><desc class="x left top">539.6327069876688</desc><desc class="y left top">290.7792551447337</desc><desc class="x_label">1999</desc></g><g class="dots"><desc class="label">9 wickets in 11 innings (70.2 overs)</desc><circle class="dot reactive tooltip-trigger" cx="669.6385789782736" cy="245.8389424727992" r="2.5"/><desc class="value">44.33</desc><desc class="x left top">669.6385789782736</desc><desc class="y left top">245.8389424727992</desc><desc class="x_label">2000</desc></g><g class="dots"><desc class="label">2 wickets in 4 innings (18.0 overs)</desc><circle class="dot reactive tooltip-trigger" cx="707.5569583088667" cy="193.60342816005112" r="2.5"/><desc class="value">55.5</desc><desc class="x left">707.5569583088667</desc><desc class="y left">193.60342816005112</desc><desc class="x_label">2001</desc></g><g class="dots"><desc class="label">1 wickets in 2 innings (10.0 overs)</desc><circle class="dot reactive tooltip-trigger" cx="718.3907809747503" cy="186.58881119773042" r="2.5"/><desc class="value">57</desc><desc class="x left">718.3907809747503</desc><desc class="y left">186.58881119773042</desc><desc class="x_label">2002</desc></g></g><g class="series serie-1 color-1"><g class="dots"><desc class="label">0 wickets over 0 innings</desc><circle class="dot reactive tooltip-trigger" cx="14.192307692307692" cy="453.1442557659166" r="2.5"/><desc class="value">0</desc><desc class="x top">14.192307692307692</desc><desc class="y top">453.1442557659166</desc><desc class="x_label">1992</desc></g><g class="dots"><desc class="label">12 wickets in 17 innings (133.1 overs)</desc><circle class="dot reactive tooltip-trigger" cx="106.27980035231943" cy="235.31701702931815" r="2.5"/><desc class="value">46.58</desc><desc class="x top">106.27980035231943</desc><desc class="y top">235.31701702931815</desc><desc class="x_label">1993</desc></g><g class="dots"><desc class="label">33 wickets in 40 innings (299.1 overs)</desc><circle class="dot reactive tooltip-trigger" cx="230.8687610099824" cy="271.1850917633179" r="2.5"/><desc class="value">38.91</desc><desc class="x top">230.8687610099824</desc><desc class="y top">271.1850917633179</desc><desc class="x_label">1994</desc></g><g class="dots"><desc class="label">48 wickets in 61 innings (444.2 overs)</desc><circle class="dot reactive tooltip-trigger" cx="344.6238990017616" cy="267.95836796065043" r="2.5"/><desc class="value">39.6</desc><desc class="x top">344.6238990017616</desc><desc class="y top">267.95836796065043</desc><desc class="x_label">1995</desc></g><g class="dots"><desc class="label">53 wickets in 70 innings (508.2 overs)</desc><circle class="dot reactive tooltip-trigger" cx="393.37610099823837" cy="259.6343558320299" r="2.5"/><desc class="value">41.38</desc><desc class="x left top">393.37610099823837</desc><desc class="y left top">259.6343558320299</desc><desc class="x_label">1996</desc></g><g class="dots"><desc class="label">60 wickets in 84 innings (606.2 overs)</desc><circle class="dot reactive tooltip-trigger" cx="469.2128596594245" cy="243.5475009317744" r="2.5"/><desc class="value">44.82</desc><desc class="x left top">469.2128596594245</desc><desc class="y left top">243.5475009317744</desc><desc class="x_label">1998</desc></g><g class="dots"><desc class="label">73 wickets in 97 innings (692.1 overs)</desc><circle class="dot reactive tooltip-trigger" cx="539.6327069876688" cy="256.40763202936233" r="2.5"/><desc class="value">42.07</desc><desc class="x left top">539.6327069876688</desc><desc class="y left top">256.40763202936233</desc><desc class="x_label">1999</desc></g><g class="dots"><desc class="label">100 wickets in 121 innings (883.0 overs)</desc><circle class="dot reactive tooltip-trigger" cx="669.6385789782736" cy="269.7354042577717" r="2.5"/><desc class="value">39.22</desc><desc class="x left top">669.6385789782736</desc><desc class="y left top">269.7354042577717</desc><desc class="x_label">2000</desc></g><g class="dots"><desc class="label">107 wickets in 128 innings (935.2 overs)</desc><circle class="dot reactive tooltip-trigger" cx="707.5569583088667" cy="269.1274707877038" r="2.5"/><desc class="value">39.35</desc><desc class="x left top">707.5569583088667</desc><desc class="y left top">269.1274707877038</desc><desc class="x_label">2001</desc></g><g class="dots"><desc class="label">108 wickets in 130 innings (943.2 overs)</desc><circle class="dot reactive tooltip-trigger" cx="718.3907809747503" cy="268.5195373176361" r="2.5"/><desc class="value">39.48</desc><desc class="x left top">718.3907809747503</desc><desc class="y left top">268.5195373176361</desc><desc class="x_label">2002</desc></g></g><g class="series serie-2 color-2"/></g><g class="plot text-overlay" transform="translate(42, 46)"><g class="series serie-0 color-0"/><g class="series serie-1 color-1"/><g class="series serie-2 color-2"/></g><g class="plot tooltip-overlay" transform="translate(42, 46)"><g class="tooltip" style="opacity: 0" transform="translate(0 0)"><rect class="tooltip-box" height="0" rx="10" ry="10" width="0"/><g class="text"/></g></g><g class="legends" transform="translate(52, 545)"><g class="legend reactive activate-serie" id="activate-serie-0"><rect class="color-0 reactive" height="12" width="12" x="0.0" y="1.0"/><text x="17.0" y="11.2">Future Average</text></g><g class="legend reactive activate-serie" id="activate-serie-1"><rect class="color-1 reactive" height="12" width="12" x="369.0" y="1.0"/><text x="386.0" y="11.2">Past Average</text></g><g class="legend reactive activate-serie" id="activate-serie-2"><rect class="color-2 reactive" height="12" width="12" x="0.0" y="22.0"/><text x="17.0" y="32.2">Career Average</text></g></g></g></svg>