<?xml version='1.0' encoding='utf-8'?>
<svg xmlns:xlink="http://www.w3.org/1999/xlink" xmlns="http://www.w3.org/2000/svg" id="chart-47a95ab7-7397-4a06-8b0a-ffa6aacbf29f" class="pygal-chart" viewBox="0 0 800 600"><!--Generated with pygal 2.4.0 (lxml) ©Kozea 2012-2016 on 2019-08-04--><!--http://pygal.org--><!--http://github.com/Kozea/pygal--><defs><style type="text/css">#chart-47a95ab7-7397-4a06-8b0a-ffa6aacbf29f{-webkit-user-select:none;-webkit-font-smoothing:antialiased;font-family:Consolas,"Liberation Mono",Menlo,Courier,monospace}#chart-47a95ab7-7397-4a06-8b0a-ffa6aacbf29f .title{font-family:Consolas,"Liberation Mono",Menlo,Courier,monospace;font-size:16px}#chart-47a95ab7-7397-4a06-8b0a-ffa6aacbf29f .legends .legend text{font-family:Consolas,"Liberation Mono",Menlo,Courier,monospace;font-size:14px}#chart-47a95ab7-7397-4a06-8b0a-ffa6aacbf29f .axis text{font-family:Consolas,"Liberation Mono",Menlo,Courier,monospace;font-size:10px}#chart-47a95ab7-7397-4a06-8b0a-ffa6aacbf29f .axis text.major{font-family:Consolas,"Liberation Mono",Menlo,Courier,monospace;font-size:10px}#chart-47a95ab7-7397-4a06-8b0a-ffa6aacbf29f .text-overlay text.value{font-family:Consolas,"Liberation Mono",Menlo,Courier,monospace;font-size:16px}#chart-47a95ab7-7397-4a06-8b0a-ffa6aacbf29f .text-overlay text.label{font-family:Consolas,"Liberation Mono",Menlo,Courier,monospace;font-size:10px}#chart-47a95ab7-7397-4a06-8b0a-ffa6aacbf29f .tooltip{font-family:Consolas,"Liberation Mono",Menlo,Courier,monospace;font-size:14px}#chart-47a95ab7-7397-4a06-8b0a-ffa6aacbf29f text.no_data{font-family:Consolas,"Liberation Mono",Menlo,Courier,monospace;font-size:64px}
#chart-47a95ab7-7397-4a06-8b0a-ffa6aacbf29f{background-color:rgba(249,249,249,1)}#chart-47a95ab7-7397-4a06-8b0a-ffa6aacbf29f path,#chart-47a95ab7-7397-4a06-8b0a-ffa6aacbf29f line,#chart-47a95ab7-7397-4a06-8b0a-ffa6aacbf29f rect,#chart-47a95ab7-7397-4a06-8b0a-ffa6aacbf29f circle{-webkit-transition:150ms;-moz-transition:150ms;transition:150ms}#chart-47a95ab7-7397-4a06-8b0a-ffa6aacbf29f .graph &gt; .background{fill:rgba(249,249,249,1)}#chart-47a95ab7-7397-4a06-8b0a-ffa6aacbf29f .plot &gt; .background{fill:rgba(255,255,255,1)}#chart-47a95ab7-7397-4a06-8b0a-ffa6aacbf29f .graph{fill:rgba(0,0,0,.87)}#chart-47a95ab7-7397-4a06-8b0a-ffa6aacbf29f text.no_data{fill:rgba(0,0,0,1)}#chart-47a95ab7-7397-4a06-8b0a-ffa6aacbf29f .title{fill:rgba(0,0,0,1)}#chart-47a95ab7-7397-4a06-8b0a-ffa6aacbf29f .legends .legend text{fill:rgba(0,0,0,.87)}#chart-47a95ab7-7397-4a06-8b0a-ffa6aacbf29f .legends .legend:hover text{fill:rgba(0,0,0,1)}#chart-47a95ab7-7397-4a06-8b0a-ffa6aacbf29f .axis .line{stroke:rgba(0,0,0,1)}#chart-47a95ab7-7397-4a06-8b0a-ffa6aacbf29f .axis .guide.line{stroke:rgba(0,0,0,.54)}#chart-47a95ab7-7397-4a06-8b0a-ffa6aacbf29f .axis .major.line{stroke:rgba(0,0,0,.87)}#chart-47a95ab7-7397-4a06-8b0a-ffa6aacbf29f .axis text.major{fill:rgba(0,0,0,1)}#chart-47a95ab7-7397-4a06-8b0a-ffa6aacbf29f .axis.y .guides:hover .guide.line,#chart-47a95ab7-7397-4a06-8b0a-ffa6aacbf29f .line-graph .axis.x .guides:hover .guide.line,#chart-47a95ab7-7397-4a06-8b0a-ffa6aacbf29f .stackedline-graph .axis.x .guides:hover .guide.line,#chart-47a95ab7-7397-4a06-8b0a-ffa6aacbf29f .xy-graph .axis.x .guides:hover .guide.line{stroke:rgba(0,0,0,1)}#chart-47a95ab7-7397-4a06-8b0a-ffa6aacbf29f .axis .guides:hover text{fill:rgba(0,0,0,1)}#chart-47a95ab7-7397-4a06-8b0a-ffa6aacbf29f .reactive{fill-opacity:.7;stroke-opacity:.8}#chart-47a95ab7-7397-4a06-8b0a-ffa6aacbf29f .ci{stroke:rgba(0,0,0,.87)}#chart-47a95ab7-7397-4a06-8b0a-ffa6aacbf29f .reactive.active,#chart-47a95ab7-7397-4a06-8b0a-ffa6aacbf29f .active .reactive{fill-opacity:.8;stroke-opacity:.9;stroke-width:4}#chart-47a95ab7-7397-4a06-8b0a-ffa6aacbf29f .ci .reactive.active{stroke-width:1.5}#chart-47a95ab7-7397-4a06-8b0a-ffa6aacbf29f .series text{fill:rgba(0,0,0,1)}#chart-47a95ab7-7397-4a06-8b0a-ffa6aacbf29f .tooltip rect{fill:rgba(255,255,255,1);stroke:rgba(0,0,0,1);-webkit-transition:opacity 150ms;-moz-transition:opacity 150ms;transition:opacity 150ms}#chart-47a95ab7-7397-4a06-8b0a-ffa6aacbf29f .tooltip .label{fill:rgba(0,0,0,.87)}#chart-47a95ab7-7397-4a06-8b0a-ffa6aacbf29f .tooltip .label{fill:rgba(0,0,0,.87)}#chart-47a95ab7-7397-4a06-8b0a-ffa6aacbf29f .tooltip .legend{font-size:.8em;fill:rgba(0,0,0,.54)}#chart-47a95ab7-7397-4a06-8b0a-ffa6aacbf29f .tooltip .x_label{font-size:.6em;fill:rgba(0,0,0,1)}#chart-47a95ab7-7397-4a06-8b0a-ffa6aacbf29f .tooltip .xlink{font-size:.5em;text-decoration:underline}#chart-47a95ab7-7397-4a06-8b0a-ffa6aacbf29f .tooltip .value{font-size:1.5em}#chart-47a95ab7-7397-4a06-8b0a-ffa6aacbf29f .bound{font-size:.5em}#chart-47a95ab7-7397-4a06-8b0a-ffa6aacbf29f .max-value{font-size:.75em;fill:rgba(0,0,0,.54)}#chart-47a95ab7-7397-4a06-8b0a-ffa6aacbf29f .map-element{fill:rgba(255,255,255,1);stroke:rgba(0,0,0,.54) !important}#chart-47a95ab7-7397-4a06-8b0a-ffa6aacbf29f .map-element .reactive{fill-opacity:inherit;stroke-opacity:inherit}#chart-47a95ab7-7397-4a06-8b0a-ffa6aacbf29f .color-0,#chart-47a95ab7-7397-4a06-8b0a-ffa6aacbf29f .color-0 a:visited{stroke:red;fill:red}#chart-47a95ab7-7397-4a06-8b0a-ffa6aacbf29f .color-1,#chart-47a95ab7-7397-4a06-8b0a-ffa6aacbf29f .color-1 a:visited{stroke:blue;fill:blue}#chart-47a95ab7-7397-4a06-8b0a-ffa6aacbf29f .color-2,#chart-47a95ab7-7397-4a06-8b0a-ffa6aacbf29f .color-2 a:visited{stroke:green;fill:green}#chart-47a95ab7-7397-4a06-8b0a-ffa6aacbf29f .text-overlay .color-0 text{fill:white}#chart-47a95ab7-7397-4a06-8b0a-ffa6aacbf29f .text-overlay .color-1 text{fill:white}#chart-47a95ab7-7397-4a06-8b0a-ffa6aacbf29f .text-overlay .color-2 text{fill:white}
#chart-47a95ab7-7397-4a06-8b0a-ffa6aacbf29f text.no_data{text-anchor:middle}#chart-47a95ab7-7397-4a06-8b0a-ffa6aacbf29f .guide.line{fill:none}#chart-47a95ab7-7397-4a06-8b0a-ffa6aacbf29f .centered{text-anchor:middle}#chart-47a95ab7-7397-4a06-8b0a-ffa6aacbf29f .title{text-anchor:middle}#chart-47a95ab7-7397-4a06-8b0a-ffa6aacbf29f .legends .legend text{fill-opacity:1}#chart-47a95ab7-7397-4a06-8b0a-ffa6aacbf29f .axis.x text{text-anchor:middle}#chart-47a95ab7-7397-4a06-8b0a-ffa6aacbf29f .axis.x:not(.web) text[transform]{text-anchor:start}#chart-47a95ab7-7397-4a06-8b0a-ffa6aacbf29f .axis.x:not(.web) text[transform].backwards{text-anchor:end}#chart-47a95ab7-7397-4a06-8b0a-ffa6aacbf29f .axis.y text{text-anchor:end}#chart-47a95ab7-7397-4a06-8b0a-ffa6aacbf29f .axis.y text[transform].backwards{text-anchor:start}#chart-47a95ab7-7397-4a06-8b0a-ffa6aacbf29f .axis.y2 text{text-anchor:start}#chart-47a95ab7-7397-4a06-8b0a-ffa6aacbf29f .axis.y2 text[transform].backwards{text-anchor:end}#chart-47a95ab7-7397-4a06-8b0a-ffa6aacbf29f .axis .guide.line{stroke-dasharray:4,4}#chart-47a95ab7-7397-4a06-8b0a-ffa6aacbf29f .axis .major.guide.line{stroke-dasharray:6,6}#chart-47a95ab7-7397-4a06-8b0a-ffa6aacbf29f .horizontal .axis.y .guide.line,#chart-47a95ab7-7397-4a06-8b0a-ffa6aacbf29f .horizontal .axis.y2 .guide.line,#chart-47a95ab7-7397-4a06-8b0a-ffa6aacbf29f .vertical .axis.x .guide.line{opacity:0}#chart-47a95ab7-7397-4a06-8b0a-ffa6aacbf29f .horizontal .axis.always_show .guide.line,#chart-47a95ab7-7397-4a06-8b0a-ffa6aacbf29f .vertical .axis.always_show .guide.line{opacity:1 !important}#chart-47a95ab7-7397-4a06-8b0a-ffa6aacbf29f .axis.y .guides:hover .guide.line,#chart-47a95ab7-7397-4a06-8b0a-ffa6aacbf29f .axis.y2 .guides:hover .guide.line,#chart-47a95ab7-7397-4a06-8b0a-ffa6aacbf29f .axis.x .guides:hover .guide.line{opacity:1}#chart-47a95ab7-7397-4a06-8b0a-ffa6aacbf29f .axis .guides:hover text{opacity:1}#chart-47a95ab7-7397-4a06-8b0a-ffa6aacbf29f .nofill{fill:none}#chart-47a95ab7-7397-4a06-8b0a-ffa6aacbf29f .subtle-fill{fill-opacity:.2}#chart-47a95ab7-7397-4a06-8b0a-ffa6aacbf29f .dot{stroke-width:1px;fill-opacity:1}#chart-47a95ab7-7397-4a06-8b0a-ffa6aacbf29f .dot.active{stroke-width:5px}#chart-47a95ab7-7397-4a06-8b0a-ffa6aacbf29f .dot.negative{fill:transparent}#chart-47a95ab7-7397-4a06-8b0a-ffa6aacbf29f text,#chart-47a95ab7-7397-4a06-8b0a-ffa6aacbf29f tspan{stroke:none !important}#chart-47a95ab7-7397-4a06-8b0a-ffa6aacbf29f .series text.active{opacity:1}#chart-47a95ab7-7397-4a06-8b0a-ffa6aacbf29f .tooltip rect{fill-opacity:.95;stroke-width:.5}#chart-47a95ab7-7397-4a06-8b0a-ffa6aacbf29f .tooltip text{fill-opacity:1}#chart-47a95ab7-7397-4a06-8b0a-ffa6aacbf29f .showable{visibility:hidden}#chart-47a95ab7-7397-4a06-8b0a-ffa6aacbf29f .showable.shown{visibility:visible}#chart-47a95ab7-7397-4a06-8b0a-ffa6aacbf29f .gauge-background{fill:rgba(229,229,229,1);stroke:none}#chart-47a95ab7-7397-4a06-8b0a-ffa6aacbf29f .bg-lines{stroke:rgba(249,249,249,1);stroke-width:2px}</style><script type="text/javascript">window.pygal = window.pygal || {};window.pygal.config = window.pygal.config || {};window.pygal.config['47a95ab7-7397-4a06-8b0a-ffa6aacbf29f'] = {"allow_interruptions": false, "box_mode": "extremes", "classes": ["pygal-chart"], "css": ["file://style.css", "file://graph.css"], "defs": [], "disable_xml_declaration": false, "dots_size": 2.5, "dynamic_print_values": false, "explicit_size": false, "fill": false, "force_uri_protocol": "https", "formatter": null, "half_pie": false, "height": 600, "include_x_axis": false, "inner_radius": 0, "interpolate": null, "interpolation_parameters": {}, "interpolation_precision": 250, "inverse_y_axis": false, "js": ["//kozea.github.io/pygal.js/2.0.x/pygal-tooltips.min.js"], "legend_at_bottom": true, "legend_at_bottom_columns": null, "legend_box_size": 12, "logarithmic": false, "margin": 20, "margin_bottom": null, "margin_left": null, "margin_right": null, "margin_top": null, "max_scale": 16, "min_scale": 4, "missing_value_fill_truncation": "x", "no_data_text": "No data", "no_prefix": false, "order_min": null, "pretty_print": false, "print_labels": false, "print_values": false, "print_values_position": "center", "print_zeroes": true, "range": null, "rounded_bars": null, "secondary_range": null, "show_dots": true, "show_legend": true, "show_minor_x_labels": false, "show_minor_y_labels": true, "show_only_major_dots": false, "show_x_guides": false, "show_x_labels": true, "show_y_guides": true, "show_y_labels": true, "spacing": 10, "stack_from_top": false, "strict": false, "stroke": true, "stroke_style": null, "style": {"background": "rgba(249, 249, 249, 1)", "ci_colors": [], "colors": ["red", "blue", "green", "#a3a3a3"], "font_family": "Consolas, \"Liberation Mono\", Menlo, Courier, monospace", "foreground": "rgba(0, 0, 0, .87)", "foreground_strong": "rgba(0, 0, 0, 1)", "foreground_subtle": "rgba(0, 0, 0, .54)", "guide_stroke_dasharray": "4,4", "label_font_family": "Consolas, \"Liberation Mono\", Menlo, Courier, monospace", "label_font_size": 10, "legend_font_family": "Consolas, \"Liberation Mono\", Menlo, Courier, monospace", "legend_font_size": 14, "major_guide_stroke_dasharray": "6,6", "major_label_font_family": "Consolas, \"Liberation Mono\", Menlo, Courier, monospace", "major_label_font_size": 10, "no_data_font_family": "Consolas, \"Liberation Mono\", Menlo, Courier, monospace", "no_data_font_size": 64, "opacity": ".7", "opacity_hover": ".8", "plot_background": "rgba(255, 255, 255, 1)", "stroke_opacity": ".8", "stroke_opacity_hover": ".9", "title_font_family": "Consolas, \"Liberation Mono\", Menlo, Courier, monospace", "title_font_size": 16, "tooltip_font_family": "Consolas, \"Liberation Mono\", Menlo, Courier, monospace", "tooltip_font_size": 14, "transition": "150ms", "value_background": "rgba(229, 229, 229, 1)", "value_colors": [], "value_font_family": "Consolas, \"Liberation Mono\", Menlo, Courier, monospace", "value_font_size": 16, "value_label_font_family": "Consolas, \"Liberation Mono\", Menlo, Courier, monospace", "value_label_font_size": 10}, "title": "GR Larsen: Future and Past Averages in ODIs", "tooltip_border_radius": 10, "tooltip_fancy_mode": true, "truncate_label": null, "truncate_legend": null, "width": 800, "x_label_rotation": 45, "x_labels": ["1990", "0", "0", "0", "0", "1991", "0", "0", "0", "0", "0", "0", "0", "1992", "0", "0", "0", "0", "0", "0", "0", "0", "0", "0", "0", "0", "0", "0", "0", "0", "1993", "0", "0", "0", "0", "0", "0", "0", "1994", "0", "0", "0", "0", "0", "0", "0", "0", "0", "0", "0", "0", "0", "0", "0", "0", "1995", "0", "0", "0", "0", "0", "0", "0", "0", "0", "0", "0", "0", "0", "0", "0", "0", "0", "0", "1996", "0", "0", "0", "0", "0", "0", "0", "0", "0", "1997", "0", "0", "0", "0", "0", "0", "0", "0", "0", "0", "0", "0", "0", "0", "0", "1999", "0", "0", "0", "0", "0", "0", "0", "0", "0", "0", "0", "0", "0", "0", "0", "0", "0", "0"], "x_labels_major": ["1990", "1991", "1992", "1993", "1994", "1995", "1996", "1997", "1999"], "x_labels_major_count": null, "x_labels_major_every": null, "x_title": null, "xrange": null, "y_label_rotation": 0, "y_labels": null, "y_labels_major": null, "y_labels_major_count": null, "y_labels_major_every": null, "y_title": null, "zero": 120.0, "legends": ["Future Average", "Past Average", "Career Average"]}</script><script type="text/javascript" xlink:href="https://kozea.github.io/pygal.js/2.0.x/pygal-tooltips.min.js"/></defs><title>GR Larsen: Future and Past Averages in ODIs</title><g class="graph line-graph vertical"><rect class="background" height="600" width="800" x="0" y="0"/><g class="plot" transform="translate(48, 46)"><rect class="background" height="462.02943725152284" width="732.0" x="0" y="0"/><g class="axis y always_show"><g class="guides"><path class="axis major line" d="M0.000000 453.144256 h732.000000"/><text class="major" x="-5" y="456.6442557659166">0</text><title>0</title></g><g class="guides"><path class="guide line" d="M0.000000 415.654039 h732.000000"/><text class="" x="-5" y="419.15403852707186">10</text><title>10</title></g><g class="guides"><path class="guide line" d="M0.000000 378.163821 h732.000000"/><text class="" x="-5" y="381.6638212882271">20</text><title>20</title></g><g class="guides"><path class="guide line" d="M0.000000 340.673604 h732.000000"/><text class="" x="-5" y="344.17360404938233">30</text><title>30</title></g><g class="guides"><path class="guide line" d="M0.000000 303.183387 h732.000000"/><text class="" x="-5" y="306.6833868105376">40</text><title>40</title></g><g class="guides"><path class="major guide line" d="M0.000000 265.693170 h732.000000"/><text class="major" x="-5" y="269.1931695716928">50</text><title>50</title></g><g class="guides"><path class="guide line" d="M0.000000 228.202952 h732.000000"/><text class="" x="-5" y="231.70295233284807">60</text><title>60</title></g><g class="guides"><path class="guide line" d="M0.000000 190.712735 h732.000000"/><text class="" x="-5" y="194.21273509400328">70</text><title>70</title></g><g class="guides"><path class="guide line" d="M0.000000 153.222518 h732.000000"/><text class="" x="-5" y="156.72251785515851">80</text><title>80</title></g><g class="guides"><path class="guide line" d="M0.000000 115.732301 h732.000000"/><text class="" x="-5" y="119.23230061631375">90</text><title>90</title></g><g class="guides"><path class="major guide line" d="M0.000000 78.242083 h732.000000"/><text class="major" x="-5" y="81.74208337746904">100</text><title>100</title></g><g class="guides"><path class="guide line" d="M0.000000 40.751866 h732.000000"/><text class="" x="-5" y="44.25186613862428">110</text><title>110</title></g></g><g class="axis x"><g class="guides"><path class="major line" d="M14.076923 0.000000 v462.029437"/><text class="major" x="14.076923076923077" y="477.02943725152284" transform="rotate(45 14.076923 477.029437)">1990</text></g><g class="guides"><path class="major guide line" d="M43.900913 0.000000 v462.029437"/><text class="major" x="43.90091264667536" y="477.02943725152284" transform="rotate(45 43.900913 477.029437)">1991</text></g><g class="guides"><path class="major guide line" d="M91.619296 0.000000 v462.029437"/><text class="major" x="91.61929595827901" y="477.02943725152284" transform="rotate(45 91.619296 477.029437)">1992</text></g><g class="guides"><path class="major guide line" d="M193.020860 0.000000 v462.029437"/><text class="major" x="193.02086049543678" y="477.02943725152284" transform="rotate(45 193.020860 477.029437)">1993</text></g><g class="guides"><path class="major guide line" d="M240.739244 0.000000 v462.029437"/><text class="major" x="240.73924380704042" y="477.02943725152284" transform="rotate(45 240.739244 477.029437)">1994</text></g><g class="guides"><path class="major guide line" d="M342.140808 0.000000 v462.029437"/><text class="major" x="342.14080834419815" y="477.02943725152284" transform="rotate(45 342.140808 477.029437)">1995</text></g><g class="guides"><path class="major guide line" d="M455.471969 0.000000 v462.029437"/><text class="major" x="455.4719687092568" y="477.02943725152284" transform="rotate(45 455.471969 477.029437)">1996</text></g><g class="guides"><path class="major guide line" d="M515.119948 0.000000 v462.029437"/><text class="major" x="515.1199478487614" y="477.02943725152284" transform="rotate(45 515.119948 477.029437)">1997</text></g><g class="guides"><path class="major guide line" d="M610.556714 0.000000 v462.029437"/><text class="major" x="610.5567144719687" y="477.02943725152284" transform="rotate(45 610.556714 477.029437)">1999</text></g></g><g class="series serie-0 color-0"><path class="line reactive nofill" d="M14.076923 320.428887 L20.041721 319.716573 26.006519 319.604102 31.971317 321.328652 37.936115 322.828261 43.900913 323.765516 49.865711 324.965203 55.830508 326.052419 61.795306 324.590301 67.760104 324.665281 73.724902 324.740262 79.689700 326.389831 85.654498 327.364577 91.619296 327.402067 97.584094 328.676735 103.548892 327.139636 109.513690 327.177126 115.478488 324.515320 121.443286 325.602537 127.408083 326.689753 133.372881 323.390614 139.337679 322.265907 145.302477 323.990457 151.267275 324.927713 157.232073 325.565047 163.196871 325.565047 169.161669 326.877204 175.126467 328.676735 181.091265 329.876421 187.056063 327.814460 193.020860 327.252106 198.985658 327.664499 204.950456 328.826695 210.915254 325.302615 216.880052 327.102145 222.844850 328.489283 228.809648 330.063873 234.774446 332.538227 240.739244 330.213833 246.704042 332.088344 252.668840 333.962855 258.633638 335.574935 264.598435 336.587170 270.563233 337.224504 276.528031 335.649915 282.492829 336.137288 288.457627 331.301050 294.422425 330.738696 300.387223 331.113599 306.352021 332.275795 312.316819 332.313286 318.281617 332.575717 324.246415 334.712660 330.211213 334.825130 336.176010 338.461681 342.140808 340.673604 348.105606 340.936036 354.070404 342.510625 360.035202 342.997998 366.000000 342.923017 371.964798 345.547332 377.929596 342.923017 383.894394 343.597841 389.859192 345.697293 395.823990 343.560351 401.788787 346.372117 407.753585 345.359881 413.718383 346.747019 419.683181 349.258864 425.647979 349.408825 431.612777 351.058394 437.577575 351.170865 443.542373 352.558003 449.507171 353.195337 455.471969 352.445532 461.436767 349.746237 467.401565 348.734001 473.366362 347.046941 479.331160 348.021687 485.295958 345.847254 491.260756 344.572587 497.225554 339.173995 503.190352 335.125052 509.155150 338.049289 515.119948 337.224504 521.084746 339.436427 527.049544 339.473917 533.014342 341.498389 538.979140 333.850385 544.943937 330.026382 550.908735 328.826695 556.873533 329.913912 562.838331 327.364577 568.803129 326.352341 574.767927 317.579630 580.732725 312.630922 586.697523 311.693666 592.662321 312.480961 598.627119 303.783230 604.591917 288.899614 610.556714 294.260715 616.521512 295.197971 622.486310 295.685343 628.451108 286.950123 634.415906 294.110754 640.380704 275.065724 646.345502 248.822572 652.310300 236.788212 658.275098 254.970967 664.239896 271.579134 670.204694 297.297423 676.169492 288.824634 682.134289 148.236319 688.099087 180.702847 694.063885 216.955887 700.028683 260.706971 705.993481 215.081376 711.958279 153.222518 717.923077 303.183387"/></g><g class="series serie-1 color-1"><path class="line reactive nofill" d="M14.076923 453.144256 L20.041721 400.657952 26.006519 366.916756 31.971317 271.316702 37.936115 186.963713 43.900913 136.351920 49.865711 68.869529 55.830508 8.885181 61.795306 207.583333 67.760104 228.952757 73.724902 243.836373 79.689700 214.444043 85.654498 196.973601 91.619296 214.818945 97.584094 195.548973 103.548892 242.786647 109.513690 251.071985 115.478488 289.049575 121.443286 280.689256 127.408083 272.328938 133.372881 302.471073 139.337679 310.681430 145.302477 301.721268 151.267275 296.735069 157.232073 293.398440 163.196871 295.085500 169.161669 288.599692 175.126467 279.714511 181.091265 273.791056 187.056063 288.187300 193.020860 292.273734 198.985658 292.086283 204.950456 287.549966 210.915254 304.195623 216.880052 298.122207 222.844850 293.510911 228.809648 288.187300 234.774446 279.976942 240.739244 290.736635 246.704042 285.113102 252.668840 279.339609 258.633638 274.540861 264.598435 271.466663 270.563233 269.442191 276.528031 278.327373 282.492829 278.889726 288.457627 296.210206 294.422425 298.384639 300.387223 298.534600 306.352021 296.097736 312.316819 296.960011 318.281617 297.409893 324.246415 293.360950 330.211213 294.185735 336.176010 287.512476 342.140808 283.501023 348.105606 284.438278 354.070404 281.701492 360.035202 282.301336 366.000000 283.838435 371.964798 279.564550 377.929596 287.699927 383.894394 286.725181 389.859192 283.613493 395.823990 289.124555 401.788787 285.300553 407.753585 289.012085 413.718383 287.287535 419.683181 284.138356 425.647979 286.462750 431.612777 284.513259 437.577575 285.637965 443.542373 285.338043 449.507171 285.862906 455.471969 288.974594 461.436767 294.560637 467.401565 296.285187 473.366362 299.321894 479.331160 299.321894 485.295958 302.321112 491.260756 304.458054 497.225554 309.369273 503.190352 312.368490 509.155150 310.793901 515.119948 311.581195 521.084746 310.418999 527.049544 310.793901 533.014342 310.194057 538.979140 314.655393 544.943937 316.642375 550.908735 317.279708 556.873533 316.867316 562.838331 318.029513 568.803129 318.479395 574.767927 321.253672 580.732725 322.415868 586.697523 322.528339 592.662321 322.265907 598.627119 323.803006 604.591917 325.640027 610.556714 324.740262 616.521512 324.290379 622.486310 323.952967 628.451108 324.402850 634.415906 323.578065 640.380704 324.852732 646.345502 325.902458 652.310300 325.977439 658.275098 324.740262 664.239896 323.653045 670.204694 321.965986 676.169492 322.190927 682.134289 325.115164 688.099087 324.252889 694.063885 323.240653 700.028683 322.078456 705.993481 322.340888 711.958279 321.928495 717.923077 321.778535"/></g><g class="series serie-2 color-2"><path class="line reactive nofill" d="M14.076923 320.428887 L20.041721 320.428887 26.006519 320.428887 31.971317 320.428887 37.936115 320.428887 43.900913 320.428887 49.865711 320.428887 55.830508 320.428887 61.795306 320.428887 67.760104 320.428887 73.724902 320.428887 79.689700 320.428887 85.654498 320.428887 91.619296 320.428887 97.584094 320.428887 103.548892 320.428887 109.513690 320.428887 115.478488 320.428887 121.443286 320.428887 127.408083 320.428887 133.372881 320.428887 139.337679 320.428887 145.302477 320.428887 151.267275 320.428887 157.232073 320.428887 163.196871 320.428887 169.161669 320.428887 175.126467 320.428887 181.091265 320.428887 187.056063 320.428887 193.020860 320.428887 198.985658 320.428887 204.950456 320.428887 210.915254 320.428887 216.880052 320.428887 222.844850 320.428887 228.809648 320.428887 234.774446 320.428887 240.739244 320.428887 246.704042 320.428887 252.668840 320.428887 258.633638 320.428887 264.598435 320.428887 270.563233 320.428887 276.528031 320.428887 282.492829 320.428887 288.457627 320.428887 294.422425 320.428887 300.387223 320.428887 306.352021 320.428887 312.316819 320.428887 318.281617 320.428887 324.246415 320.428887 330.211213 320.428887 336.176010 320.428887 342.140808 320.428887 348.105606 320.428887 354.070404 320.428887 360.035202 320.428887 366.000000 320.428887 371.964798 320.428887 377.929596 320.428887 383.894394 320.428887 389.859192 320.428887 395.823990 320.428887 401.788787 320.428887 407.753585 320.428887 413.718383 320.428887 419.683181 320.428887 425.647979 320.428887 431.612777 320.428887 437.577575 320.428887 443.542373 320.428887 449.507171 320.428887 455.471969 320.428887 461.436767 320.428887 467.401565 320.428887 473.366362 320.428887 479.331160 320.428887 485.295958 320.428887 491.260756 320.428887 497.225554 320.428887 503.190352 320.428887 509.155150 320.428887 515.119948 320.428887 521.084746 320.428887 527.049544 320.428887 533.014342 320.428887 538.979140 320.428887 544.943937 320.428887 550.908735 320.428887 556.873533 320.428887 562.838331 320.428887 568.803129 320.428887 574.767927 320.428887 580.732725 320.428887 586.697523 320.428887 592.662321 320.428887 598.627119 320.428887 604.591917 320.428887 610.556714 320.428887 616.521512 320.428887 622.486310 320.428887 628.451108 320.428887 634.415906 320.428887 640.380704 320.428887 646.345502 320.428887 652.310300 320.428887 658.275098 320.428887 664.239896 320.428887 670.204694 320.428887 676.169492 320.428887 682.134289 320.428887 688.099087 320.428887 694.063885 320.428887 700.028683 320.428887 705.993481 320.428887 711.958279 320.428887 717.923077 320.428887"/></g></g><g class="titles"><text class="title plot_title" x="400.0" y="26">GR Larsen: Future and Past Averages in ODIs</text></g><g class="plot overlay" transform="translate(48, 46)"><g class="series serie-0 color-0"><g class="dots"><desc class="label">113 wickets in 119 innings (1061.2 overs)</desc><circle class="dot reactive tooltip-trigger" cx="14.076923076923077" cy="320.4288867404062" r="2.5"/><desc class="value">35.4</desc><desc class="x top">14.076923076923077</desc><desc class="y top">320.4288867404062</desc><desc class="x_label">1990</desc></g><g class="dots"><desc class="label">111 wickets in 114 innings (1018.1 overs)</desc><circle class="dot reactive tooltip-trigger" cx="43.90091264667536" cy="323.76551607466337" r="2.5"/><desc class="value">34.51</desc><desc class="x top">43.90091264667536</desc><desc class="y top">323.76551607466337</desc><desc class="x_label">1991</desc></g><g class="dots"><desc class="label">106 wickets in 106 innings (941.1 overs)</desc><circle class="dot reactive tooltip-trigger" cx="91.61929595827901" cy="327.4020671468313" r="2.5"/><desc class="value">33.54</desc><desc class="x top">91.61929595827901</desc><desc class="y top">327.4020671468313</desc><desc class="x_label">1992</desc></g><g class="dots"><desc class="label">91 wickets in 89 innings (795.1 overs)</desc><circle class="dot reactive tooltip-trigger" cx="193.02086049543678" cy="327.25210627787595" r="2.5"/><desc class="value">33.58</desc><desc class="x top">193.02086049543678</desc><desc class="y top">327.25210627787595</desc><desc class="x_label">1993</desc></g><g class="dots"><desc class="label">85 wickets in 81 innings (717.1 overs)</desc><circle class="dot reactive tooltip-trigger" cx="240.73924380704042" cy="330.2138334397447" r="2.5"/><desc class="value">32.79</desc><desc class="x top">240.73924380704042</desc><desc class="y top">330.2138334397447</desc><desc class="x_label">1994</desc></g><g class="dots"><desc class="label">73 wickets in 64 innings (568.1 overs)</desc><circle class="dot reactive tooltip-trigger" cx="342.14080834419815" cy="340.67360404938233" r="2.5"/><desc class="value">30</desc><desc class="x top">342.14080834419815</desc><desc class="y top">340.67360404938233</desc><desc class="x_label">1995</desc></g><g class="dots"><desc class="label">56 wickets in 45 innings (397.2 overs)</desc><circle class="dot reactive tooltip-trigger" cx="455.4719687092568" cy="352.44553226237963" r="2.5"/><desc class="value">26.86</desc><desc class="x left top">455.4719687092568</desc><desc class="y left top">352.44553226237963</desc><desc class="x_label">1996</desc></g><g class="dots"><desc class="label">39 wickets in 35 innings (305.4 overs)</desc><circle class="dot reactive tooltip-trigger" cx="515.1199478487614" cy="337.22450406340863" r="2.5"/><desc class="value">30.92</desc><desc class="x left top">515.1199478487614</desc><desc class="y left top">337.22450406340863</desc><desc class="x_label">1997</desc></g><g class="dots"><desc class="label">16 wickets in 19 innings (170.0 overs)</desc><circle class="dot reactive tooltip-trigger" cx="610.5567144719687" cy="294.26071510769253" r="2.5"/><desc class="value">42.38</desc><desc class="x left top">610.5567144719687</desc><desc class="y left top">294.26071510769253</desc><desc class="x_label">1999</desc></g></g><g class="series serie-1 color-1"><g class="dots"><desc class="label">0 wickets over 0 innings</desc><circle class="dot reactive tooltip-trigger" cx="14.076923076923077" cy="453.1442557659166" r="2.5"/><desc class="value">0</desc><desc class="x top">14.076923076923077</desc><desc class="y top">453.1442557659166</desc><desc class="x_label">1990</desc></g><g class="dots"><desc class="label">2 wickets in 5 innings (43.1 overs)</desc><circle class="dot reactive tooltip-trigger" cx="43.90091264667536" cy="136.35192009767843" r="2.5"/><desc class="value">84.5</desc><desc class="x ">43.90091264667536</desc><desc class="y ">136.35192009767843</desc><desc class="x_label">1991</desc></g><g class="dots"><desc class="label">7 wickets in 13 innings (120.1 overs)</desc><circle class="dot reactive tooltip-trigger" cx="91.61929595827901" cy="214.8189447785805" r="2.5"/><desc class="value">63.57</desc><desc class="x ">91.61929595827901</desc><desc class="y ">214.8189447785805</desc><desc class="x_label">1992</desc></g><g class="dots"><desc class="label">22 wickets in 30 innings (266.1 overs)</desc><circle class="dot reactive tooltip-trigger" cx="193.02086049543678" cy="292.2737335940338" r="2.5"/><desc class="value">42.91</desc><desc class="x top">193.02086049543678</desc><desc class="y top">292.2737335940338</desc><desc class="x_label">1993</desc></g><g class="dots"><desc class="label">28 wickets in 38 innings (344.1 overs)</desc><circle class="dot reactive tooltip-trigger" cx="240.73924380704042" cy="290.7366346872411" r="2.5"/><desc class="value">43.32</desc><desc class="x top">240.73924380704042</desc><desc class="y top">290.7366346872411</desc><desc class="x_label">1994</desc></g><g class="dots"><desc class="label">40 wickets in 55 innings (493.1 overs)</desc><circle class="dot reactive tooltip-trigger" cx="342.14080834419815" cy="283.5010227601441" r="2.5"/><desc class="value">45.25</desc><desc class="x top">342.14080834419815</desc><desc class="y top">283.5010227601441</desc><desc class="x_label">1995</desc></g><g class="dots"><desc class="label">57 wickets in 74 innings (664.0 overs)</desc><circle class="dot reactive tooltip-trigger" cx="455.4719687092568" cy="288.97459447701544" r="2.5"/><desc class="value">43.79</desc><desc class="x left top">455.4719687092568</desc><desc class="y left top">288.97459447701544</desc><desc class="x_label">1996</desc></g><g class="dots"><desc class="label">74 wickets in 84 innings (755.4 overs)</desc><circle class="dot reactive tooltip-trigger" cx="515.1199478487614" cy="311.58119547203887" r="2.5"/><desc class="value">37.76</desc><desc class="x left top">515.1199478487614</desc><desc class="y left top">311.58119547203887</desc><desc class="x_label">1997</desc></g><g class="dots"><desc class="label">97 wickets in 100 innings (891.2 overs)</desc><circle class="dot reactive tooltip-trigger" cx="610.5567144719687" cy="324.74026172287336" r="2.5"/><desc class="value">34.25</desc><desc class="x left top">610.5567144719687</desc><desc class="y left top">324.74026172287336</desc><desc class="x_label">1999</desc></g></g><g class="series serie-2 color-2"/></g><g class="plot text-overlay" transform="translate(48, 46)"><g class="series serie-0 color-0"/><g class="series serie-1 color-1"/><g class="series serie-2 color-2"/></g><g class="plot tooltip-overlay" transform="translate(48, 46)"><g class="tooltip" style="opacity: 0" transform="translate(0 0)"><rect class="tooltip-box" height="0" rx="10" ry="10" width="0"/><g class="text"/></g></g><g class="legends" transform="translate(58, 545)"><g class="legend reactive activate-serie" id="activate-serie-0"><rect class="color-0 reactive" height="12" width="12" x="0.0" y="1.0"/><text x="17.0" y="11.2">Future Average</text></g><g class="legend reactive activate-serie" id="activate-serie-1"><rect class="color-1 reactive" height="12" width="12" x="366.0" y="1.0"/><text x="383.0" y="11.2">Past Average</text></g><g class="legend reactive activate-serie" id="activate-serie-2"><rect class="color-2 reactive" height="12" width="12" x="0.0" y="22.0"/><text x="17.0" y="32.2">Career Average</text></g></g></g></svg>