<?xml version='1.0' encoding='utf-8'?>
<svg xmlns:xlink="http://www.w3.org/1999/xlink" xmlns="http://www.w3.org/2000/svg" id="chart-1e7e228d-e55d-46d1-b2b2-07b5171edb36" class="pygal-chart" viewBox="0 0 800 600"><!--Generated with pygal 2.4.0 (lxml) ©Kozea 2012-2016 on 2019-08-04--><!--http://pygal.org--><!--http://github.com/Kozea/pygal--><defs><style type="text/css">#chart-1e7e228d-e55d-46d1-b2b2-07b5171edb36{-webkit-user-select:none;-webkit-font-smoothing:antialiased;font-family:Consolas,"Liberation Mono",Menlo,Courier,monospace}#chart-1e7e228d-e55d-46d1-b2b2-07b5171edb36 .title{font-family:Consolas,"Liberation Mono",Menlo,Courier,monospace;font-size:16px}#chart-1e7e228d-e55d-46d1-b2b2-07b5171edb36 .legends .legend text{font-family:Consolas,"Liberation Mono",Menlo,Courier,monospace;font-size:14px}#chart-1e7e228d-e55d-46d1-b2b2-07b5171edb36 .axis text{font-family:Consolas,"Liberation Mono",Menlo,Courier,monospace;font-size:10px}#chart-1e7e228d-e55d-46d1-b2b2-07b5171edb36 .axis text.major{font-family:Consolas,"Liberation Mono",Menlo,Courier,monospace;font-size:10px}#chart-1e7e228d-e55d-46d1-b2b2-07b5171edb36 .text-overlay text.value{font-family:Consolas,"Liberation Mono",Menlo,Courier,monospace;font-size:16px}#chart-1e7e228d-e55d-46d1-b2b2-07b5171edb36 .text-overlay text.label{font-family:Consolas,"Liberation Mono",Menlo,Courier,monospace;font-size:10px}#chart-1e7e228d-e55d-46d1-b2b2-07b5171edb36 .tooltip{font-family:Consolas,"Liberation Mono",Menlo,Courier,monospace;font-size:14px}#chart-1e7e228d-e55d-46d1-b2b2-07b5171edb36 text.no_data{font-family:Consolas,"Liberation Mono",Menlo,Courier,monospace;font-size:64px}
#chart-1e7e228d-e55d-46d1-b2b2-07b5171edb36{background-color:rgba(249,249,249,1)}#chart-1e7e228d-e55d-46d1-b2b2-07b5171edb36 path,#chart-1e7e228d-e55d-46d1-b2b2-07b5171edb36 line,#chart-1e7e228d-e55d-46d1-b2b2-07b5171edb36 rect,#chart-1e7e228d-e55d-46d1-b2b2-07b5171edb36 circle{-webkit-transition:150ms;-moz-transition:150ms;transition:150ms}#chart-1e7e228d-e55d-46d1-b2b2-07b5171edb36 .graph &gt; .background{fill:rgba(249,249,249,1)}#chart-1e7e228d-e55d-46d1-b2b2-07b5171edb36 .plot &gt; .background{fill:rgba(255,255,255,1)}#chart-1e7e228d-e55d-46d1-b2b2-07b5171edb36 .graph{fill:rgba(0,0,0,.87)}#chart-1e7e228d-e55d-46d1-b2b2-07b5171edb36 text.no_data{fill:rgba(0,0,0,1)}#chart-1e7e228d-e55d-46d1-b2b2-07b5171edb36 .title{fill:rgba(0,0,0,1)}#chart-1e7e228d-e55d-46d1-b2b2-07b5171edb36 .legends .legend text{fill:rgba(0,0,0,.87)}#chart-1e7e228d-e55d-46d1-b2b2-07b5171edb36 .legends .legend:hover text{fill:rgba(0,0,0,1)}#chart-1e7e228d-e55d-46d1-b2b2-07b5171edb36 .axis .line{stroke:rgba(0,0,0,1)}#chart-1e7e228d-e55d-46d1-b2b2-07b5171edb36 .axis .guide.line{stroke:rgba(0,0,0,.54)}#chart-1e7e228d-e55d-46d1-b2b2-07b5171edb36 .axis .major.line{stroke:rgba(0,0,0,.87)}#chart-1e7e228d-e55d-46d1-b2b2-07b5171edb36 .axis text.major{fill:rgba(0,0,0,1)}#chart-1e7e228d-e55d-46d1-b2b2-07b5171edb36 .axis.y .guides:hover .guide.line,#chart-1e7e228d-e55d-46d1-b2b2-07b5171edb36 .line-graph .axis.x .guides:hover .guide.line,#chart-1e7e228d-e55d-46d1-b2b2-07b5171edb36 .stackedline-graph .axis.x .guides:hover .guide.line,#chart-1e7e228d-e55d-46d1-b2b2-07b5171edb36 .xy-graph .axis.x .guides:hover .guide.line{stroke:rgba(0,0,0,1)}#chart-1e7e228d-e55d-46d1-b2b2-07b5171edb36 .axis .guides:hover text{fill:rgba(0,0,0,1)}#chart-1e7e228d-e55d-46d1-b2b2-07b5171edb36 .reactive{fill-opacity:.7;stroke-opacity:.8}#chart-1e7e228d-e55d-46d1-b2b2-07b5171edb36 .ci{stroke:rgba(0,0,0,.87)}#chart-1e7e228d-e55d-46d1-b2b2-07b5171edb36 .reactive.active,#chart-1e7e228d-e55d-46d1-b2b2-07b5171edb36 .active .reactive{fill-opacity:.8;stroke-opacity:.9;stroke-width:4}#chart-1e7e228d-e55d-46d1-b2b2-07b5171edb36 .ci .reactive.active{stroke-width:1.5}#chart-1e7e228d-e55d-46d1-b2b2-07b5171edb36 .series text{fill:rgba(0,0,0,1)}#chart-1e7e228d-e55d-46d1-b2b2-07b5171edb36 .tooltip rect{fill:rgba(255,255,255,1);stroke:rgba(0,0,0,1);-webkit-transition:opacity 150ms;-moz-transition:opacity 150ms;transition:opacity 150ms}#chart-1e7e228d-e55d-46d1-b2b2-07b5171edb36 .tooltip .label{fill:rgba(0,0,0,.87)}#chart-1e7e228d-e55d-46d1-b2b2-07b5171edb36 .tooltip .label{fill:rgba(0,0,0,.87)}#chart-1e7e228d-e55d-46d1-b2b2-07b5171edb36 .tooltip .legend{font-size:.8em;fill:rgba(0,0,0,.54)}#chart-1e7e228d-e55d-46d1-b2b2-07b5171edb36 .tooltip .x_label{font-size:.6em;fill:rgba(0,0,0,1)}#chart-1e7e228d-e55d-46d1-b2b2-07b5171edb36 .tooltip .xlink{font-size:.5em;text-decoration:underline}#chart-1e7e228d-e55d-46d1-b2b2-07b5171edb36 .tooltip .value{font-size:1.5em}#chart-1e7e228d-e55d-46d1-b2b2-07b5171edb36 .bound{font-size:.5em}#chart-1e7e228d-e55d-46d1-b2b2-07b5171edb36 .max-value{font-size:.75em;fill:rgba(0,0,0,.54)}#chart-1e7e228d-e55d-46d1-b2b2-07b5171edb36 .map-element{fill:rgba(255,255,255,1);stroke:rgba(0,0,0,.54) !important}#chart-1e7e228d-e55d-46d1-b2b2-07b5171edb36 .map-element .reactive{fill-opacity:inherit;stroke-opacity:inherit}#chart-1e7e228d-e55d-46d1-b2b2-07b5171edb36 .color-0,#chart-1e7e228d-e55d-46d1-b2b2-07b5171edb36 .color-0 a:visited{stroke:red;fill:red}#chart-1e7e228d-e55d-46d1-b2b2-07b5171edb36 .color-1,#chart-1e7e228d-e55d-46d1-b2b2-07b5171edb36 .color-1 a:visited{stroke:blue;fill:blue}#chart-1e7e228d-e55d-46d1-b2b2-07b5171edb36 .color-2,#chart-1e7e228d-e55d-46d1-b2b2-07b5171edb36 .color-2 a:visited{stroke:green;fill:green}#chart-1e7e228d-e55d-46d1-b2b2-07b5171edb36 .text-overlay .color-0 text{fill:white}#chart-1e7e228d-e55d-46d1-b2b2-07b5171edb36 .text-overlay .color-1 text{fill:white}#chart-1e7e228d-e55d-46d1-b2b2-07b5171edb36 .text-overlay .color-2 text{fill:white}
#chart-1e7e228d-e55d-46d1-b2b2-07b5171edb36 text.no_data{text-anchor:middle}#chart-1e7e228d-e55d-46d1-b2b2-07b5171edb36 .guide.line{fill:none}#chart-1e7e228d-e55d-46d1-b2b2-07b5171edb36 .centered{text-anchor:middle}#chart-1e7e228d-e55d-46d1-b2b2-07b5171edb36 .title{text-anchor:middle}#chart-1e7e228d-e55d-46d1-b2b2-07b5171edb36 .legends .legend text{fill-opacity:1}#chart-1e7e228d-e55d-46d1-b2b2-07b5171edb36 .axis.x text{text-anchor:middle}#chart-1e7e228d-e55d-46d1-b2b2-07b5171edb36 .axis.x:not(.web) text[transform]{text-anchor:start}#chart-1e7e228d-e55d-46d1-b2b2-07b5171edb36 .axis.x:not(.web) text[transform].backwards{text-anchor:end}#chart-1e7e228d-e55d-46d1-b2b2-07b5171edb36 .axis.y text{text-anchor:end}#chart-1e7e228d-e55d-46d1-b2b2-07b5171edb36 .axis.y text[transform].backwards{text-anchor:start}#chart-1e7e228d-e55d-46d1-b2b2-07b5171edb36 .axis.y2 text{text-anchor:start}#chart-1e7e228d-e55d-46d1-b2b2-07b5171edb36 .axis.y2 text[transform].backwards{text-anchor:end}#chart-1e7e228d-e55d-46d1-b2b2-07b5171edb36 .axis .guide.line{stroke-dasharray:4,4}#chart-1e7e228d-e55d-46d1-b2b2-07b5171edb36 .axis .major.guide.line{stroke-dasharray:6,6}#chart-1e7e228d-e55d-46d1-b2b2-07b5171edb36 .horizontal .axis.y .guide.line,#chart-1e7e228d-e55d-46d1-b2b2-07b5171edb36 .horizontal .axis.y2 .guide.line,#chart-1e7e228d-e55d-46d1-b2b2-07b5171edb36 .vertical .axis.x .guide.line{opacity:0}#chart-1e7e228d-e55d-46d1-b2b2-07b5171edb36 .horizontal .axis.always_show .guide.line,#chart-1e7e228d-e55d-46d1-b2b2-07b5171edb36 .vertical .axis.always_show .guide.line{opacity:1 !important}#chart-1e7e228d-e55d-46d1-b2b2-07b5171edb36 .axis.y .guides:hover .guide.line,#chart-1e7e228d-e55d-46d1-b2b2-07b5171edb36 .axis.y2 .guides:hover .guide.line,#chart-1e7e228d-e55d-46d1-b2b2-07b5171edb36 .axis.x .guides:hover .guide.line{opacity:1}#chart-1e7e228d-e55d-46d1-b2b2-07b5171edb36 .axis .guides:hover text{opacity:1}#chart-1e7e228d-e55d-46d1-b2b2-07b5171edb36 .nofill{fill:none}#chart-1e7e228d-e55d-46d1-b2b2-07b5171edb36 .subtle-fill{fill-opacity:.2}#chart-1e7e228d-e55d-46d1-b2b2-07b5171edb36 .dot{stroke-width:1px;fill-opacity:1}#chart-1e7e228d-e55d-46d1-b2b2-07b5171edb36 .dot.active{stroke-width:5px}#chart-1e7e228d-e55d-46d1-b2b2-07b5171edb36 .dot.negative{fill:transparent}#chart-1e7e228d-e55d-46d1-b2b2-07b5171edb36 text,#chart-1e7e228d-e55d-46d1-b2b2-07b5171edb36 tspan{stroke:none !important}#chart-1e7e228d-e55d-46d1-b2b2-07b5171edb36 .series text.active{opacity:1}#chart-1e7e228d-e55d-46d1-b2b2-07b5171edb36 .tooltip rect{fill-opacity:.95;stroke-width:.5}#chart-1e7e228d-e55d-46d1-b2b2-07b5171edb36 .tooltip text{fill-opacity:1}#chart-1e7e228d-e55d-46d1-b2b2-07b5171edb36 .showable{visibility:hidden}#chart-1e7e228d-e55d-46d1-b2b2-07b5171edb36 .showable.shown{visibility:visible}#chart-1e7e228d-e55d-46d1-b2b2-07b5171edb36 .gauge-background{fill:rgba(229,229,229,1);stroke:none}#chart-1e7e228d-e55d-46d1-b2b2-07b5171edb36 .bg-lines{stroke:rgba(249,249,249,1);stroke-width:2px}</style><script type="text/javascript">window.pygal = window.pygal || {};window.pygal.config = window.pygal.config || {};window.pygal.config['1e7e228d-e55d-46d1-b2b2-07b5171edb36'] = {"allow_interruptions": false, "box_mode": "extremes", "classes": ["pygal-chart"], "css": ["file://style.css", "file://graph.css"], "defs": [], "disable_xml_declaration": false, "dots_size": 2.5, "dynamic_print_values": false, "explicit_size": false, "fill": false, "force_uri_protocol": "https", "formatter": null, "half_pie": false, "height": 600, "include_x_axis": false, "inner_radius": 0, "interpolate": null, "interpolation_parameters": {}, "interpolation_precision": 250, "inverse_y_axis": false, "js": ["//kozea.github.io/pygal.js/2.0.x/pygal-tooltips.min.js"], "legend_at_bottom": true, "legend_at_bottom_columns": null, "legend_box_size": 12, "logarithmic": false, "margin": 20, "margin_bottom": null, "margin_left": null, "margin_right": null, "margin_top": null, "max_scale": 16, "min_scale": 4, "missing_value_fill_truncation": "x", "no_data_text": "No data", "no_prefix": false, "order_min": null, "pretty_print": false, "print_labels": false, "print_values": false, "print_values_position": "center", "print_zeroes": true, "range": null, "rounded_bars": null, "secondary_range": null, "show_dots": true, "show_legend": true, "show_minor_x_labels": false, "show_minor_y_labels": true, "show_only_major_dots": false, "show_x_guides": false, "show_x_labels": true, "show_y_guides": true, "show_y_labels": true, "spacing": 10, "stack_from_top": false, "strict": false, "stroke": true, "stroke_style": null, "style": {"background": "rgba(249, 249, 249, 1)", "ci_colors": [], "colors": ["red", "blue", "green", "#a3a3a3"], "font_family": "Consolas, \"Liberation Mono\", Menlo, Courier, monospace", "foreground": "rgba(0, 0, 0, .87)", "foreground_strong": "rgba(0, 0, 0, 1)", "foreground_subtle": "rgba(0, 0, 0, .54)", "guide_stroke_dasharray": "4,4", "label_font_family": "Consolas, \"Liberation Mono\", Menlo, Courier, monospace", "label_font_size": 10, "legend_font_family": "Consolas, \"Liberation Mono\", Menlo, Courier, monospace", "legend_font_size": 14, "major_guide_stroke_dasharray": "6,6", "major_label_font_family": "Consolas, \"Liberation Mono\", Menlo, Courier, monospace", "major_label_font_size": 10, "no_data_font_family": "Consolas, \"Liberation Mono\", Menlo, Courier, monospace", "no_data_font_size": 64, "opacity": ".7", "opacity_hover": ".8", "plot_background": "rgba(255, 255, 255, 1)", "stroke_opacity": ".8", "stroke_opacity_hover": ".9", "title_font_family": "Consolas, \"Liberation Mono\", Menlo, Courier, monospace", "title_font_size": 16, "tooltip_font_family": "Consolas, \"Liberation Mono\", Menlo, Courier, monospace", "tooltip_font_size": 14, "transition": "150ms", "value_background": "rgba(229, 229, 229, 1)", "value_colors": [], "value_font_family": "Consolas, \"Liberation Mono\", Menlo, Courier, monospace", "value_font_size": 16, "value_label_font_family": "Consolas, \"Liberation Mono\", Menlo, Courier, monospace", "value_label_font_size": 10}, "title": "Harbhajan Singh: Future and Past Averages in ODIs", "tooltip_border_radius": 10, "tooltip_fancy_mode": true, "truncate_label": null, "truncate_legend": null, "width": 800, "x_label_rotation": 45, "x_labels": ["1998", "0", "0", "0", "0", "0", "0", "0", "0", "0", "0", "0", "0", "2001", "0", "0", "0", "0", "0", "0", "0", "0", "0", "0", "0", "0", "0", "0", "0", "0", "0", "0", "0", "0", "0", "2002", "0", "0", "0", "0", "0", "0", "0", "0", "0", "0", "0", "0", "0", "0", "0", "0", "0", "0", "0", "0", "0", "0", "0", "0", "0", "0", "2003", "0", "0", "0", "0", "0", "0", "0", "0", "0", "0", "0", "0", "0", "0", "0", "2004", "0", "0", "0", "0", "0", "0", "0", "0", "0", "0", "2005", "0", "0", "0", "0", "0", "0", "0", "0", "0", "0", "0", "0", "0", "0", "0", "0", "0", "0", "0", "0", "0", "0", "0", "2006", "0", "0", "0", "0", "0", "0", "0", "0", "0", "0", "0", "0", "0", "0", "0", "0", "0", "0", "0", "0", "0", "2007", "0", "0", "0", "0", "0", "0", "0", "0", "0", "0", "0", "0", "0", "0", "0", "0", "0", "0", "0", "0", "2008", "0", "0", "0", "0", "0", "0", "0", "0", "0", "0", "0", "0", "0", "0", "0", "0", "2009", "0", "0", "0", "0", "0", "0", "0", "0", "0", "0", "0", "0", "0", "0", "0", "0", "0", "0", "0", "0", "0", "0", "0", "2010", "0", "0", "0", "0", "0", "2011", "0", "0", "0", "0", "0", "0", "0", "0", "0", "0", "0", "0", "0", "0", "0", "0", "2015", "0", "0", "0", "0", "0", "0"], "x_labels_major": ["1998", "2001", "2002", "2003", "2004", "2005", "2006", "2007", "2008", "2009", "2010", "2011", "2015"], "x_labels_major_count": null, "x_labels_major_every": null, "x_title": null, "xrange": null, "y_label_rotation": 0, "y_labels": null, "y_labels_major": null, "y_labels_major_count": null, "y_labels_major_every": null, "y_title": null, "zero": 80.0, "legends": ["Future Average", "Past Average", "Career Average"]}</script><script type="text/javascript" xlink:href="https://kozea.github.io/pygal.js/2.0.x/pygal-tooltips.min.js"/></defs><title>Harbhajan Singh: Future and Past Averages in ODIs</title><g class="graph line-graph vertical"><rect class="background" height="600" width="800" x="0" y="0"/><g class="plot" transform="translate(42, 46)"><rect class="background" height="462.02943725152284" width="738.0" x="0" y="0"/><g class="axis y always_show"><g class="guides"><path class="axis major line" d="M0.000000 453.144256 h738.000000"/><text class="major" x="-5" y="456.6442557659166">0</text><title>0</title></g><g class="guides"><path class="guide line" d="M0.000000 389.678674 h738.000000"/><text class="" x="-5" y="393.1786737258723">10</text><title>10</title></g><g class="guides"><path class="guide line" d="M0.000000 326.213092 h738.000000"/><text class="" x="-5" y="329.713091685828">20</text><title>20</title></g><g class="guides"><path class="guide line" d="M0.000000 262.747510 h738.000000"/><text class="" x="-5" y="266.2475096457837">30</text><title>30</title></g><g class="guides"><path class="guide line" d="M0.000000 199.281928 h738.000000"/><text class="" x="-5" y="202.78192760573927">40</text><title>40</title></g><g class="guides"><path class="major guide line" d="M0.000000 135.816346 h738.000000"/><text class="major" x="-5" y="139.31634556569497">50</text><title>50</title></g><g class="guides"><path class="guide line" d="M0.000000 72.350764 h738.000000"/><text class="" x="-5" y="75.85076352565062">60</text><title>60</title></g><g class="guides"><path class="guide line" d="M0.000000 8.885181 h738.000000"/><text class="" x="-5" y="12.38518148560621">70</text><title>70</title></g></g><g class="axis x"><g class="guides"><path class="major line" d="M14.192308 0.000000 v462.029437"/><text class="major" x="14.192307692307692" y="477.02943725152284" transform="rotate(45 14.192308 477.029437)">1998</text></g><g class="guides"><path class="major guide line" d="M55.010892 0.000000 v462.029437"/><text class="major" x="55.01089176310415" y="477.02943725152284" transform="rotate(45 55.010892 477.029437)">2001</text></g><g class="guides"><path class="major guide line" d="M124.088496 0.000000 v462.029437"/><text class="major" x="124.0884955752212" y="477.02943725152284" transform="rotate(45 124.088496 477.029437)">2002</text></g><g class="guides"><path class="major guide line" d="M208.865555 0.000000 v462.029437"/><text class="major" x="208.86555479918312" y="477.02943725152284" transform="rotate(45 208.865555 477.029437)">2003</text></g><g class="guides"><path class="major guide line" d="M259.103812 0.000000 v462.029437"/><text class="major" x="259.1038121170864" y="477.02943725152284" transform="rotate(45 259.103812 477.029437)">2004</text></g><g class="guides"><path class="major guide line" d="M293.642614 0.000000 v462.029437"/><text class="major" x="293.64261402314503" y="477.02943725152284" transform="rotate(45 293.642614 477.029437)">2005</text></g><g class="guides"><path class="major guide line" d="M369.000000 0.000000 v462.029437"/><text class="major" x="369.0" y="477.02943725152284" transform="rotate(45 369.000000 477.029437)">2006</text></g><g class="guides"><path class="major guide line" d="M438.077604 0.000000 v462.029437"/><text class="major" x="438.07760381211716" y="477.02943725152284" transform="rotate(45 438.077604 477.029437)">2007</text></g><g class="guides"><path class="major guide line" d="M504.015317 0.000000 v462.029437"/><text class="major" x="504.01531654186516" y="477.02943725152284" transform="rotate(45 504.015317 477.029437)">2008</text></g><g class="guides"><path class="major guide line" d="M557.393465 0.000000 v462.029437"/><text class="major" x="557.3934649421375" y="477.02943725152284" transform="rotate(45 557.393465 477.029437)">2009</text></g><g class="guides"><path class="major guide line" d="M632.750851 0.000000 v462.029437"/><text class="major" x="632.7508509189926" y="477.02943725152284" transform="rotate(45 632.750851 477.029437)">2010</text></g><g class="guides"><path class="major guide line" d="M651.590197 0.000000 v462.029437"/><text class="major" x="651.5901974132062" y="477.02943725152284" transform="rotate(45 651.590197 477.029437)">2011</text></g><g class="guides"><path class="major guide line" d="M704.968346 0.000000 v462.029437"/><text class="major" x="704.9683458134785" y="477.02943725152284" transform="rotate(45 704.968346 477.029437)">2015</text></g></g><g class="series serie-0 color-0"><path class="line reactive nofill" d="M14.192308 241.423074 L17.332199 241.423074 20.472090 240.026831 23.611981 240.724953 26.751872 241.423074 29.891763 241.867333 33.031654 242.121195 36.171545 241.232677 39.311436 240.471090 42.451327 239.455641 45.591219 240.026831 48.731110 238.440192 51.871001 238.694054 55.010892 238.630588 58.150783 239.709503 61.290674 240.851884 64.430565 239.201779 67.570456 239.836435 70.710347 241.296143 73.850238 241.994264 76.990129 243.073179 80.130020 243.073179 83.269912 243.136645 86.409803 242.057730 89.549694 240.153762 92.689585 240.407625 95.829476 239.455641 98.969367 239.328710 102.109258 240.598022 105.249149 239.582572 108.389040 237.551674 111.528931 237.107415 114.668822 236.218896 117.808713 237.361277 120.948604 236.790087 124.088496 236.218896 127.228387 236.599690 130.368278 236.663155 133.508169 236.663155 136.648060 235.838103 139.787951 232.030168 142.927842 231.395512 146.067733 229.428079 149.207624 230.316597 152.347515 230.570460 155.487406 227.270249 158.627297 226.825990 161.767189 227.524112 164.907080 227.016387 168.046971 228.603027 171.186862 225.556679 174.326753 227.206784 177.466644 228.666492 180.606535 229.999269 183.746426 228.920354 186.886317 226.318266 190.026208 226.254800 193.166099 228.476095 196.305990 229.681941 199.445882 229.301148 202.585773 229.110751 205.725664 228.476095 208.865555 229.237682 212.005446 228.666492 215.145337 230.380063 218.285228 229.364613 221.425119 228.095302 224.565010 229.491545 227.704901 228.476095 230.844792 226.952921 233.984683 228.095302 237.124575 227.270249 240.264466 226.699059 243.404357 224.858557 246.544248 222.383399 249.684139 222.637262 252.824030 222.954590 255.963921 223.144986 259.103812 223.081521 262.243703 222.446865 265.383594 222.954590 268.523485 223.144986 271.663376 223.589246 274.803268 221.304485 277.943159 217.940809 281.083050 214.704064 284.222941 216.227238 287.362832 218.385068 290.502723 220.289035 293.642614 220.733294 296.782505 222.066072 299.922396 222.637262 303.062287 223.525780 306.202178 223.843108 309.342069 225.493213 312.481961 224.287367 315.621852 222.193003 318.761743 222.700727 321.901634 224.477764 325.041525 226.889456 328.181416 225.747075 331.321307 227.777974 334.461198 227.904905 337.601089 230.126200 340.740980 226.889456 343.880871 224.477764 347.020762 225.874006 350.160654 225.810541 353.300545 227.587577 356.440436 229.681941 359.580327 229.681941 362.720218 227.904905 365.860109 229.681941 369.000000 227.841440 372.139891 220.415966 375.279782 220.733294 378.419673 219.400517 381.559564 219.337052 384.699455 215.084858 387.839346 217.496550 390.979238 218.575465 394.119129 218.385068 397.259020 218.131205 400.398911 217.877343 403.538802 220.225570 406.678693 223.081521 409.818584 224.731626 412.958475 222.129537 416.098366 217.877343 419.238257 217.115756 422.378148 216.481100 425.518039 215.909910 428.657931 218.765861 431.797822 222.319934 434.937713 226.000938 438.077604 226.254800 441.217495 225.493213 444.357386 225.112419 447.497277 224.731626 450.637168 225.175885 453.777059 225.493213 456.916950 223.271918 460.056841 226.318266 463.196732 228.285699 466.336624 231.649374 469.476515 232.855221 472.616406 229.047286 475.756297 232.855221 478.896188 235.393844 482.036079 233.680273 485.175970 236.155431 488.315861 237.615139 491.455752 239.772969 494.595643 239.455641 497.735534 239.265244 500.875425 239.138313 504.015317 242.946248 507.155208 241.867333 510.295099 240.534556 513.434990 241.042281 516.574881 242.565455 519.714772 246.373389 522.854663 245.167543 525.994554 243.009714 529.134445 243.834766 532.274336 245.294475 535.414227 242.057730 538.554118 241.740402 541.694010 236.599690 544.833901 237.678605 547.973792 238.694054 551.113683 232.220565 554.253574 232.855221 557.393465 234.061067 560.533356 226.445197 563.673247 224.858557 566.813138 229.999269 569.953029 231.522443 573.092920 233.743739 576.232811 238.376726 579.372703 234.886119 582.512594 239.074848 585.652485 239.455641 588.792376 226.000938 591.932267 230.253132 595.072158 236.853552 598.212049 229.999269 601.351940 232.855221 604.491831 236.409293 607.631722 236.790087 610.771613 233.997601 613.911504 235.330378 617.051396 228.476095 620.191287 226.445197 623.331178 230.062735 626.471069 228.983820 629.610960 232.030168 632.750851 228.031836 635.890742 216.608032 639.030633 220.289035 642.170524 213.434752 645.310415 212.165441 648.450306 205.374623 651.590197 212.419303 654.730088 216.861894 657.869980 215.529117 661.009871 201.185895 664.149762 218.067740 667.289653 227.143318 670.429544 228.729958 673.569435 235.520775 676.709326 244.342491 679.849217 253.671931 682.989108 239.138313 686.128999 239.582572 689.268890 258.241453 692.408781 250.498652 695.548673 258.685712 698.688564 224.096970 701.828455 253.545000 704.968346 248.785082 708.108237 258.495316 711.248128 257.162538 714.388019 228.920354 717.527910 197.695288 720.667801 199.281928 723.807692 8.885181"/></g><g class="series serie-1 color-1"><path class="line reactive nofill" d="M14.192308 453.144256 L17.332199 250.054393 20.472090 337.319569 23.611981 289.720382 26.751872 242.438523 29.891763 219.590914 33.031654 210.896129 36.171545 247.642701 39.311436 266.555445 42.451327 283.881548 45.591219 269.094068 48.731110 289.339589 51.871001 282.167978 55.010892 280.390941 58.150783 265.920789 61.290674 249.673600 64.430565 267.570894 67.570456 259.256903 70.710347 243.390507 73.850238 235.330378 76.990129 223.208452 80.130020 224.096970 83.269912 224.414298 86.409803 235.901568 89.549694 252.021826 92.689585 249.863996 95.829476 256.210555 98.969367 256.400951 102.109258 247.579236 105.249149 254.052725 108.389040 265.222667 111.528931 267.126635 114.668822 270.363379 117.808713 264.270684 120.948604 266.682376 124.088496 268.205550 127.228387 265.413064 130.368278 264.651477 133.508169 264.080287 136.648060 266.618910 139.787951 278.867767 142.927842 279.629354 146.067733 284.135411 149.207624 281.025597 152.347515 279.248561 155.487406 286.864431 158.627297 287.245224 161.767189 285.087395 164.907080 284.896998 168.046971 280.200545 171.186862 285.785516 174.326753 281.089063 177.466644 277.154197 180.606535 273.409727 183.746426 275.123298 186.886317 279.883217 190.026208 279.312027 193.166099 273.727055 196.305990 270.807639 199.445882 270.680707 202.585773 270.617242 205.725664 270.934570 208.865555 268.840206 212.005446 269.538327 215.145337 265.857323 218.285228 267.126635 221.425119 268.903671 224.565010 265.984254 227.704901 267.253566 230.844792 269.347930 233.984683 267.190100 237.124575 267.824756 240.264466 268.522878 243.404357 270.871104 246.544248 273.600124 249.684139 272.648140 252.824030 271.696157 255.963921 270.934570 259.103812 270.617242 262.243703 271.124966 265.383594 269.855655 268.523485 269.157533 271.663376 268.015153 274.803268 270.617242 277.943159 273.853987 281.083050 276.709938 284.222941 274.679039 287.362832 271.886553 290.502723 269.347930 293.642614 268.332481 296.782505 266.618910 299.922396 265.476530 303.062287 264.016821 306.202178 263.318700 309.342069 261.287801 312.481961 262.112854 315.621852 263.953356 318.761743 263.001372 321.901634 260.970473 325.041525 258.177988 328.181416 259.256903 331.321307 256.972142 334.461198 256.527883 337.601089 254.116190 340.740980 256.972142 343.880871 259.066506 347.020762 257.606798 350.160654 257.416401 353.300545 255.575899 356.440436 253.418069 359.580327 253.291138 362.720218 254.687381 365.860109 252.973810 369.000000 254.370053 372.139891 259.955024 375.279782 259.383834 378.419673 260.018490 381.559564 259.764627 384.699455 262.366716 387.839346 260.399283 390.979238 259.320368 394.119129 259.193437 397.259020 259.129971 400.398911 259.066506 403.538802 257.289470 406.678693 255.195105 409.818584 253.925794 412.958475 255.448968 416.098366 257.733729 419.238257 258.051057 422.378148 258.177988 425.518039 258.304919 428.657931 256.400951 431.797822 254.116190 434.937713 251.641033 438.077604 251.323705 441.217495 251.450636 444.357386 251.577567 447.497277 251.641033 450.637168 251.387170 453.777059 251.006377 456.916950 252.021826 460.056841 250.244790 463.196732 249.102410 466.336624 247.134976 469.476515 246.373389 472.616406 248.213891 475.756297 246.119527 478.896188 244.723284 482.036079 245.548337 485.175970 244.279025 488.315861 243.390507 491.455752 242.311592 494.595643 242.438523 497.735534 242.501989 500.875425 242.565455 504.015317 240.724953 507.155208 241.232677 510.295099 241.867333 513.434990 241.613471 516.574881 240.915349 519.714772 239.201779 522.854663 239.772969 525.994554 240.788418 529.134445 240.407625 532.274336 239.836435 535.414227 241.169212 538.554118 241.296143 541.694010 243.263576 544.833901 242.819317 547.973792 242.438523 551.113683 244.659819 554.253574 244.342491 557.393465 243.898232 560.533356 246.119527 563.673247 246.436855 566.813138 244.850216 569.953029 244.405956 573.092920 243.707835 576.232811 242.311592 579.372703 243.263576 582.512594 242.121195 585.652485 241.994264 588.792376 245.231009 591.932267 244.088629 595.072158 242.565455 598.212049 244.025163 601.351940 243.390507 604.491831 242.501989 607.631722 242.438523 610.771613 242.946248 613.911504 242.628920 617.051396 243.834766 620.191287 244.088629 623.331178 243.390507 626.471069 243.517438 629.610960 242.946248 632.750851 243.517438 635.890742 244.913681 639.030633 244.279025 642.170524 244.977147 645.310415 244.977147 648.450306 245.484871 651.590197 244.659819 654.730088 244.088629 657.869980 244.088629 661.009871 245.231009 664.149762 243.644369 667.289653 242.755851 670.429544 242.565455 673.569435 241.930799 676.709326 241.169212 679.849217 240.407625 682.989108 241.613471 686.128999 241.550005 689.268890 240.280694 692.408781 240.915349 695.548673 240.471090 698.688564 242.184661 701.828455 240.915349 704.968346 241.169212 708.108237 240.851884 711.248128 240.978815 714.388019 241.740402 717.527910 242.121195 720.667801 241.930799 723.807692 242.311592"/></g><g class="series serie-2 color-2"><path class="line reactive nofill" d="M14.192308 241.423074 L17.332199 241.423074 20.472090 241.423074 23.611981 241.423074 26.751872 241.423074 29.891763 241.423074 33.031654 241.423074 36.171545 241.423074 39.311436 241.423074 42.451327 241.423074 45.591219 241.423074 48.731110 241.423074 51.871001 241.423074 55.010892 241.423074 58.150783 241.423074 61.290674 241.423074 64.430565 241.423074 67.570456 241.423074 70.710347 241.423074 73.850238 241.423074 76.990129 241.423074 80.130020 241.423074 83.269912 241.423074 86.409803 241.423074 89.549694 241.423074 92.689585 241.423074 95.829476 241.423074 98.969367 241.423074 102.109258 241.423074 105.249149 241.423074 108.389040 241.423074 111.528931 241.423074 114.668822 241.423074 117.808713 241.423074 120.948604 241.423074 124.088496 241.423074 127.228387 241.423074 130.368278 241.423074 133.508169 241.423074 136.648060 241.423074 139.787951 241.423074 142.927842 241.423074 146.067733 241.423074 149.207624 241.423074 152.347515 241.423074 155.487406 241.423074 158.627297 241.423074 161.767189 241.423074 164.907080 241.423074 168.046971 241.423074 171.186862 241.423074 174.326753 241.423074 177.466644 241.423074 180.606535 241.423074 183.746426 241.423074 186.886317 241.423074 190.026208 241.423074 193.166099 241.423074 196.305990 241.423074 199.445882 241.423074 202.585773 241.423074 205.725664 241.423074 208.865555 241.423074 212.005446 241.423074 215.145337 241.423074 218.285228 241.423074 221.425119 241.423074 224.565010 241.423074 227.704901 241.423074 230.844792 241.423074 233.984683 241.423074 237.124575 241.423074 240.264466 241.423074 243.404357 241.423074 246.544248 241.423074 249.684139 241.423074 252.824030 241.423074 255.963921 241.423074 259.103812 241.423074 262.243703 241.423074 265.383594 241.423074 268.523485 241.423074 271.663376 241.423074 274.803268 241.423074 277.943159 241.423074 281.083050 241.423074 284.222941 241.423074 287.362832 241.423074 290.502723 241.423074 293.642614 241.423074 296.782505 241.423074 299.922396 241.423074 303.062287 241.423074 306.202178 241.423074 309.342069 241.423074 312.481961 241.423074 315.621852 241.423074 318.761743 241.423074 321.901634 241.423074 325.041525 241.423074 328.181416 241.423074 331.321307 241.423074 334.461198 241.423074 337.601089 241.423074 340.740980 241.423074 343.880871 241.423074 347.020762 241.423074 350.160654 241.423074 353.300545 241.423074 356.440436 241.423074 359.580327 241.423074 362.720218 241.423074 365.860109 241.423074 369.000000 241.423074 372.139891 241.423074 375.279782 241.423074 378.419673 241.423074 381.559564 241.423074 384.699455 241.423074 387.839346 241.423074 390.979238 241.423074 394.119129 241.423074 397.259020 241.423074 400.398911 241.423074 403.538802 241.423074 406.678693 241.423074 409.818584 241.423074 412.958475 241.423074 416.098366 241.423074 419.238257 241.423074 422.378148 241.423074 425.518039 241.423074 428.657931 241.423074 431.797822 241.423074 434.937713 241.423074 438.077604 241.423074 441.217495 241.423074 444.357386 241.423074 447.497277 241.423074 450.637168 241.423074 453.777059 241.423074 456.916950 241.423074 460.056841 241.423074 463.196732 241.423074 466.336624 241.423074 469.476515 241.423074 472.616406 241.423074 475.756297 241.423074 478.896188 241.423074 482.036079 241.423074 485.175970 241.423074 488.315861 241.423074 491.455752 241.423074 494.595643 241.423074 497.735534 241.423074 500.875425 241.423074 504.015317 241.423074 507.155208 241.423074 510.295099 241.423074 513.434990 241.423074 516.574881 241.423074 519.714772 241.423074 522.854663 241.423074 525.994554 241.423074 529.134445 241.423074 532.274336 241.423074 535.414227 241.423074 538.554118 241.423074 541.694010 241.423074 544.833901 241.423074 547.973792 241.423074 551.113683 241.423074 554.253574 241.423074 557.393465 241.423074 560.533356 241.423074 563.673247 241.423074 566.813138 241.423074 569.953029 241.423074 573.092920 241.423074 576.232811 241.423074 579.372703 241.423074 582.512594 241.423074 585.652485 241.423074 588.792376 241.423074 591.932267 241.423074 595.072158 241.423074 598.212049 241.423074 601.351940 241.423074 604.491831 241.423074 607.631722 241.423074 610.771613 241.423074 613.911504 241.423074 617.051396 241.423074 620.191287 241.423074 623.331178 241.423074 626.471069 241.423074 629.610960 241.423074 632.750851 241.423074 635.890742 241.423074 639.030633 241.423074 642.170524 241.423074 645.310415 241.423074 648.450306 241.423074 651.590197 241.423074 654.730088 241.423074 657.869980 241.423074 661.009871 241.423074 664.149762 241.423074 667.289653 241.423074 670.429544 241.423074 673.569435 241.423074 676.709326 241.423074 679.849217 241.423074 682.989108 241.423074 686.128999 241.423074 689.268890 241.423074 692.408781 241.423074 695.548673 241.423074 698.688564 241.423074 701.828455 241.423074 704.968346 241.423074 708.108237 241.423074 711.248128 241.423074 714.388019 241.423074 717.527910 241.423074 720.667801 241.423074 723.807692 241.423074"/></g></g><g class="titles"><text class="title plot_title" x="400.0" y="26">Harbhajan Singh: Future and Past Averages in ODIs</text></g><g class="plot overlay" transform="translate(42, 46)"><g class="series serie-0 color-0"><g class="dots"><desc class="label">269 wickets in 227 innings (2079.5 overs)</desc><circle class="dot reactive tooltip-trigger" cx="14.192307692307692" cy="241.42307408032875" r="2.5"/><desc class="value">33.36</desc><desc class="x top">14.192307692307692</desc><desc class="y top">241.42307408032875</desc><desc class="x_label">1998</desc></g><g class="dots"><desc class="label">251 wickets in 214 innings (1964.5 overs)</desc><circle class="dot reactive tooltip-trigger" cx="55.01089176310415" cy="238.6305884705668" r="2.5"/><desc class="value">33.8</desc><desc class="x top">55.01089176310415</desc><desc class="y top">238.6305884705668</desc><desc class="x_label">2001</desc></g><g class="dots"><desc class="label">225 wickets in 192 innings (1759.5 overs)</desc><circle class="dot reactive tooltip-trigger" cx="124.0884955752212" cy="236.21889635304507" r="2.5"/><desc class="value">34.18</desc><desc class="x top">124.0884955752212</desc><desc class="y top">236.21889635304507</desc><desc class="x_label">2002</desc></g><g class="dots"><desc class="label">186 wickets in 165 innings (1509.1 overs)</desc><circle class="dot reactive tooltip-trigger" cx="208.86555479918312" cy="229.2376823286402" r="2.5"/><desc class="value">35.28</desc><desc class="x ">208.86555479918312</desc><desc class="y ">229.2376823286402</desc><desc class="x_label">2003</desc></g><g class="dots"><desc class="label">165 wickets in 149 innings (1360.5 overs)</desc><circle class="dot reactive tooltip-trigger" cx="259.1038121170864" cy="223.08152087075592" r="2.5"/><desc class="value">36.25</desc><desc class="x ">259.1038121170864</desc><desc class="y ">223.08152087075592</desc><desc class="x_label">2004</desc></g><g class="dots"><desc class="label">152 wickets in 138 innings (1252.5 overs)</desc><circle class="dot reactive tooltip-trigger" cx="293.64261402314503" cy="220.7332943352743" r="2.5"/><desc class="value">36.62</desc><desc class="x ">293.64261402314503</desc><desc class="y ">220.7332943352743</desc><desc class="x_label">2005</desc></g><g class="dots"><desc class="label">131 wickets in 114 innings (1030.4 overs)</desc><circle class="dot reactive tooltip-trigger" cx="369.0" cy="227.84143952375928" r="2.5"/><desc class="value">35.5</desc><desc class="x ">369.0</desc><desc class="y ">227.84143952375928</desc><desc class="x_label">2006</desc></g><g class="dots"><desc class="label">106 wickets in 92 innings (823.4 overs)</desc><circle class="dot reactive tooltip-trigger" cx="438.07760381211716" cy="226.25479997275812" r="2.5"/><desc class="value">35.75</desc><desc class="x left">438.07760381211716</desc><desc class="y left">226.25479997275812</desc><desc class="x_label">2007</desc></g><g class="dots"><desc class="label">88 wickets in 71 innings (630.4 overs)</desc><circle class="dot reactive tooltip-trigger" cx="504.01531654186516" cy="242.94624804928984" r="2.5"/><desc class="value">33.12</desc><desc class="x left top">504.01531654186516</desc><desc class="y left top">242.94624804928984</desc><desc class="x_label">2008</desc></g><g class="dots"><desc class="label">67 wickets in 54 innings (493.5 overs)</desc><circle class="dot reactive tooltip-trigger" cx="557.3934649421375" cy="234.0610665636836" r="2.5"/><desc class="value">34.52</desc><desc class="x left top">557.3934649421375</desc><desc class="y left top">234.0610665636836</desc><desc class="x_label">2009</desc></g><g class="dots"><desc class="label">36 wickets in 30 innings (287.0 overs)</desc><circle class="dot reactive tooltip-trigger" cx="632.7508509189926" cy="228.0318362698794" r="2.5"/><desc class="value">35.47</desc><desc class="x left">632.7508509189926</desc><desc class="y left">228.0318362698794</desc><desc class="x_label">2010</desc></g><g class="dots"><desc class="label">27 wickets in 24 innings (234.0 overs)</desc><circle class="dot reactive tooltip-trigger" cx="651.5901974132062" cy="212.4193030880285" r="2.5"/><desc class="value">37.93</desc><desc class="x left">651.5901974132062</desc><desc class="y left">212.4193030880285</desc><desc class="x_label">2011</desc></g><g class="dots"><desc class="label">10 wickets in 7 innings (70.0 overs)</desc><circle class="dot reactive tooltip-trigger" cx="704.9683458134785" cy="248.78508159697387" r="2.5"/><desc class="value">32.2</desc><desc class="x left top">704.9683458134785</desc><desc class="y left top">248.78508159697387</desc><desc class="x_label">2015</desc></g></g><g class="series serie-1 color-1"><g class="dots"><desc class="label">0 wickets over 0 innings</desc><circle class="dot reactive tooltip-trigger" cx="14.192307692307692" cy="453.1442557659166" r="2.5"/><desc class="value">0</desc><desc class="x top">14.192307692307692</desc><desc class="y top">453.1442557659166</desc><desc class="x_label">1998</desc></g><g class="dots"><desc class="label">18 wickets in 13 innings (115.0 overs)</desc><circle class="dot reactive tooltip-trigger" cx="55.01089176310415" cy="280.39094145291597" r="2.5"/><desc class="value">27.22</desc><desc class="x top">55.01089176310415</desc><desc class="y top">280.39094145291597</desc><desc class="x_label">2001</desc></g><g class="dots"><desc class="label">44 wickets in 35 innings (320.0 overs)</desc><circle class="dot reactive tooltip-trigger" cx="124.0884955752212" cy="268.2055497012275" r="2.5"/><desc class="value">29.14</desc><desc class="x top">124.0884955752212</desc><desc class="y top">268.2055497012275</desc><desc class="x_label">2002</desc></g><g class="dots"><desc class="label">83 wickets in 62 innings (570.4 overs)</desc><circle class="dot reactive tooltip-trigger" cx="208.86555479918312" cy="268.8402055216279" r="2.5"/><desc class="value">29.04</desc><desc class="x top">208.86555479918312</desc><desc class="y top">268.8402055216279</desc><desc class="x_label">2003</desc></g><g class="dots"><desc class="label">104 wickets in 78 innings (719.0 overs)</desc><circle class="dot reactive tooltip-trigger" cx="259.1038121170864" cy="270.6172418187491" r="2.5"/><desc class="value">28.76</desc><desc class="x top">259.1038121170864</desc><desc class="y top">270.6172418187491</desc><desc class="x_label">2004</desc></g><g class="dots"><desc class="label">117 wickets in 89 innings (827.0 overs)</desc><circle class="dot reactive tooltip-trigger" cx="293.64261402314503" cy="268.3324808653075" r="2.5"/><desc class="value">29.12</desc><desc class="x top">293.64261402314503</desc><desc class="y top">268.3324808653075</desc><desc class="x_label">2005</desc></g><g class="dots"><desc class="label">138 wickets in 113 innings (1049.1 overs)</desc><circle class="dot reactive tooltip-trigger" cx="369.0" cy="254.37005281649778" r="2.5"/><desc class="value">31.32</desc><desc class="x top">369.0</desc><desc class="y top">254.37005281649778</desc><desc class="x_label">2006</desc></g><g class="dots"><desc class="label">163 wickets in 135 innings (1256.1 overs)</desc><circle class="dot reactive tooltip-trigger" cx="438.07760381211716" cy="251.32370487857563" r="2.5"/><desc class="value">31.8</desc><desc class="x left top">438.07760381211716</desc><desc class="y left top">251.32370487857563</desc><desc class="x_label">2007</desc></g><g class="dots"><desc class="label">181 wickets in 156 innings (1449.1 overs)</desc><circle class="dot reactive tooltip-trigger" cx="504.01531654186516" cy="240.72495267788824" r="2.5"/><desc class="value">33.47</desc><desc class="x left top">504.01531654186516</desc><desc class="y left top">240.72495267788824</desc><desc class="x_label">2008</desc></g><g class="dots"><desc class="label">202 wickets in 173 innings (1586.0 overs)</desc><circle class="dot reactive tooltip-trigger" cx="557.3934649421375" cy="243.89823177989047" r="2.5"/><desc class="value">32.97</desc><desc class="x left top">557.3934649421375</desc><desc class="y left top">243.89823177989047</desc><desc class="x_label">2009</desc></g><g class="dots"><desc class="label">233 wickets in 197 innings (1792.5 overs)</desc><circle class="dot reactive tooltip-trigger" cx="632.7508509189926" cy="243.51743828765018" r="2.5"/><desc class="value">33.03</desc><desc class="x left top">632.7508509189926</desc><desc class="y left top">243.51743828765018</desc><desc class="x_label">2010</desc></g><g class="dots"><desc class="label">242 wickets in 203 innings (1845.5 overs)</desc><circle class="dot reactive tooltip-trigger" cx="651.5901974132062" cy="244.65981876437098" r="2.5"/><desc class="value">32.85</desc><desc class="x left top">651.5901974132062</desc><desc class="y left top">244.65981876437098</desc><desc class="x_label">2011</desc></g><g class="dots"><desc class="label">259 wickets in 220 innings (2009.5 overs)</desc><circle class="dot reactive tooltip-trigger" cx="704.9683458134785" cy="241.16921175216856" r="2.5"/><desc class="value">33.4</desc><desc class="x left top">704.9683458134785</desc><desc class="y left top">241.16921175216856</desc><desc class="x_label">2015</desc></g></g><g class="series serie-2 color-2"/></g><g class="plot text-overlay" transform="translate(42, 46)"><g class="series serie-0 color-0"/><g class="series serie-1 color-1"/><g class="series serie-2 color-2"/></g><g class="plot tooltip-overlay" transform="translate(42, 46)"><g class="tooltip" style="opacity: 0" transform="translate(0 0)"><rect class="tooltip-box" height="0" rx="10" ry="10" width="0"/><g class="text"/></g></g><g class="legends" transform="translate(52, 545)"><g class="legend reactive activate-serie" id="activate-serie-0"><rect class="color-0 reactive" height="12" width="12" x="0.0" y="1.0"/><text x="17.0" y="11.2">Future Average</text></g><g class="legend reactive activate-serie" id="activate-serie-1"><rect class="color-1 reactive" height="12" width="12" x="369.0" y="1.0"/><text x="386.0" y="11.2">Past Average</text></g><g class="legend reactive activate-serie" id="activate-serie-2"><rect class="color-2 reactive" height="12" width="12" x="0.0" y="22.0"/><text x="17.0" y="32.2">Career Average</text></g></g></g></svg>