<?xml version='1.0' encoding='utf-8'?>
<svg xmlns:xlink="http://www.w3.org/1999/xlink" xmlns="http://www.w3.org/2000/svg" id="chart-b8e24780-7e9d-49b2-b7d5-d9ba6011c41a" class="pygal-chart" viewBox="0 0 800 600"><!--Generated with pygal 2.4.0 (lxml) ©Kozea 2012-2016 on 2019-08-04--><!--http://pygal.org--><!--http://github.com/Kozea/pygal--><defs><style type="text/css">#chart-b8e24780-7e9d-49b2-b7d5-d9ba6011c41a{-webkit-user-select:none;-webkit-font-smoothing:antialiased;font-family:Consolas,"Liberation Mono",Menlo,Courier,monospace}#chart-b8e24780-7e9d-49b2-b7d5-d9ba6011c41a .title{font-family:Consolas,"Liberation Mono",Menlo,Courier,monospace;font-size:16px}#chart-b8e24780-7e9d-49b2-b7d5-d9ba6011c41a .legends .legend text{font-family:Consolas,"Liberation Mono",Menlo,Courier,monospace;font-size:14px}#chart-b8e24780-7e9d-49b2-b7d5-d9ba6011c41a .axis text{font-family:Consolas,"Liberation Mono",Menlo,Courier,monospace;font-size:10px}#chart-b8e24780-7e9d-49b2-b7d5-d9ba6011c41a .axis text.major{font-family:Consolas,"Liberation Mono",Menlo,Courier,monospace;font-size:10px}#chart-b8e24780-7e9d-49b2-b7d5-d9ba6011c41a .text-overlay text.value{font-family:Consolas,"Liberation Mono",Menlo,Courier,monospace;font-size:16px}#chart-b8e24780-7e9d-49b2-b7d5-d9ba6011c41a .text-overlay text.label{font-family:Consolas,"Liberation Mono",Menlo,Courier,monospace;font-size:10px}#chart-b8e24780-7e9d-49b2-b7d5-d9ba6011c41a .tooltip{font-family:Consolas,"Liberation Mono",Menlo,Courier,monospace;font-size:14px}#chart-b8e24780-7e9d-49b2-b7d5-d9ba6011c41a text.no_data{font-family:Consolas,"Liberation Mono",Menlo,Courier,monospace;font-size:64px}
#chart-b8e24780-7e9d-49b2-b7d5-d9ba6011c41a{background-color:rgba(249,249,249,1)}#chart-b8e24780-7e9d-49b2-b7d5-d9ba6011c41a path,#chart-b8e24780-7e9d-49b2-b7d5-d9ba6011c41a line,#chart-b8e24780-7e9d-49b2-b7d5-d9ba6011c41a rect,#chart-b8e24780-7e9d-49b2-b7d5-d9ba6011c41a circle{-webkit-transition:150ms;-moz-transition:150ms;transition:150ms}#chart-b8e24780-7e9d-49b2-b7d5-d9ba6011c41a .graph &gt; .background{fill:rgba(249,249,249,1)}#chart-b8e24780-7e9d-49b2-b7d5-d9ba6011c41a .plot &gt; .background{fill:rgba(255,255,255,1)}#chart-b8e24780-7e9d-49b2-b7d5-d9ba6011c41a .graph{fill:rgba(0,0,0,.87)}#chart-b8e24780-7e9d-49b2-b7d5-d9ba6011c41a text.no_data{fill:rgba(0,0,0,1)}#chart-b8e24780-7e9d-49b2-b7d5-d9ba6011c41a .title{fill:rgba(0,0,0,1)}#chart-b8e24780-7e9d-49b2-b7d5-d9ba6011c41a .legends .legend text{fill:rgba(0,0,0,.87)}#chart-b8e24780-7e9d-49b2-b7d5-d9ba6011c41a .legends .legend:hover text{fill:rgba(0,0,0,1)}#chart-b8e24780-7e9d-49b2-b7d5-d9ba6011c41a .axis .line{stroke:rgba(0,0,0,1)}#chart-b8e24780-7e9d-49b2-b7d5-d9ba6011c41a .axis .guide.line{stroke:rgba(0,0,0,.54)}#chart-b8e24780-7e9d-49b2-b7d5-d9ba6011c41a .axis .major.line{stroke:rgba(0,0,0,.87)}#chart-b8e24780-7e9d-49b2-b7d5-d9ba6011c41a .axis text.major{fill:rgba(0,0,0,1)}#chart-b8e24780-7e9d-49b2-b7d5-d9ba6011c41a .axis.y .guides:hover .guide.line,#chart-b8e24780-7e9d-49b2-b7d5-d9ba6011c41a .line-graph .axis.x .guides:hover .guide.line,#chart-b8e24780-7e9d-49b2-b7d5-d9ba6011c41a .stackedline-graph .axis.x .guides:hover .guide.line,#chart-b8e24780-7e9d-49b2-b7d5-d9ba6011c41a .xy-graph .axis.x .guides:hover .guide.line{stroke:rgba(0,0,0,1)}#chart-b8e24780-7e9d-49b2-b7d5-d9ba6011c41a .axis .guides:hover text{fill:rgba(0,0,0,1)}#chart-b8e24780-7e9d-49b2-b7d5-d9ba6011c41a .reactive{fill-opacity:.7;stroke-opacity:.8}#chart-b8e24780-7e9d-49b2-b7d5-d9ba6011c41a .ci{stroke:rgba(0,0,0,.87)}#chart-b8e24780-7e9d-49b2-b7d5-d9ba6011c41a .reactive.active,#chart-b8e24780-7e9d-49b2-b7d5-d9ba6011c41a .active .reactive{fill-opacity:.8;stroke-opacity:.9;stroke-width:4}#chart-b8e24780-7e9d-49b2-b7d5-d9ba6011c41a .ci .reactive.active{stroke-width:1.5}#chart-b8e24780-7e9d-49b2-b7d5-d9ba6011c41a .series text{fill:rgba(0,0,0,1)}#chart-b8e24780-7e9d-49b2-b7d5-d9ba6011c41a .tooltip rect{fill:rgba(255,255,255,1);stroke:rgba(0,0,0,1);-webkit-transition:opacity 150ms;-moz-transition:opacity 150ms;transition:opacity 150ms}#chart-b8e24780-7e9d-49b2-b7d5-d9ba6011c41a .tooltip .label{fill:rgba(0,0,0,.87)}#chart-b8e24780-7e9d-49b2-b7d5-d9ba6011c41a .tooltip .label{fill:rgba(0,0,0,.87)}#chart-b8e24780-7e9d-49b2-b7d5-d9ba6011c41a .tooltip .legend{font-size:.8em;fill:rgba(0,0,0,.54)}#chart-b8e24780-7e9d-49b2-b7d5-d9ba6011c41a .tooltip .x_label{font-size:.6em;fill:rgba(0,0,0,1)}#chart-b8e24780-7e9d-49b2-b7d5-d9ba6011c41a .tooltip .xlink{font-size:.5em;text-decoration:underline}#chart-b8e24780-7e9d-49b2-b7d5-d9ba6011c41a .tooltip .value{font-size:1.5em}#chart-b8e24780-7e9d-49b2-b7d5-d9ba6011c41a .bound{font-size:.5em}#chart-b8e24780-7e9d-49b2-b7d5-d9ba6011c41a .max-value{font-size:.75em;fill:rgba(0,0,0,.54)}#chart-b8e24780-7e9d-49b2-b7d5-d9ba6011c41a .map-element{fill:rgba(255,255,255,1);stroke:rgba(0,0,0,.54) !important}#chart-b8e24780-7e9d-49b2-b7d5-d9ba6011c41a .map-element .reactive{fill-opacity:inherit;stroke-opacity:inherit}#chart-b8e24780-7e9d-49b2-b7d5-d9ba6011c41a .color-0,#chart-b8e24780-7e9d-49b2-b7d5-d9ba6011c41a .color-0 a:visited{stroke:red;fill:red}#chart-b8e24780-7e9d-49b2-b7d5-d9ba6011c41a .color-1,#chart-b8e24780-7e9d-49b2-b7d5-d9ba6011c41a .color-1 a:visited{stroke:blue;fill:blue}#chart-b8e24780-7e9d-49b2-b7d5-d9ba6011c41a .color-2,#chart-b8e24780-7e9d-49b2-b7d5-d9ba6011c41a .color-2 a:visited{stroke:green;fill:green}#chart-b8e24780-7e9d-49b2-b7d5-d9ba6011c41a .text-overlay .color-0 text{fill:white}#chart-b8e24780-7e9d-49b2-b7d5-d9ba6011c41a .text-overlay .color-1 text{fill:white}#chart-b8e24780-7e9d-49b2-b7d5-d9ba6011c41a .text-overlay .color-2 text{fill:white}
#chart-b8e24780-7e9d-49b2-b7d5-d9ba6011c41a text.no_data{text-anchor:middle}#chart-b8e24780-7e9d-49b2-b7d5-d9ba6011c41a .guide.line{fill:none}#chart-b8e24780-7e9d-49b2-b7d5-d9ba6011c41a .centered{text-anchor:middle}#chart-b8e24780-7e9d-49b2-b7d5-d9ba6011c41a .title{text-anchor:middle}#chart-b8e24780-7e9d-49b2-b7d5-d9ba6011c41a .legends .legend text{fill-opacity:1}#chart-b8e24780-7e9d-49b2-b7d5-d9ba6011c41a .axis.x text{text-anchor:middle}#chart-b8e24780-7e9d-49b2-b7d5-d9ba6011c41a .axis.x:not(.web) text[transform]{text-anchor:start}#chart-b8e24780-7e9d-49b2-b7d5-d9ba6011c41a .axis.x:not(.web) text[transform].backwards{text-anchor:end}#chart-b8e24780-7e9d-49b2-b7d5-d9ba6011c41a .axis.y text{text-anchor:end}#chart-b8e24780-7e9d-49b2-b7d5-d9ba6011c41a .axis.y text[transform].backwards{text-anchor:start}#chart-b8e24780-7e9d-49b2-b7d5-d9ba6011c41a .axis.y2 text{text-anchor:start}#chart-b8e24780-7e9d-49b2-b7d5-d9ba6011c41a .axis.y2 text[transform].backwards{text-anchor:end}#chart-b8e24780-7e9d-49b2-b7d5-d9ba6011c41a .axis .guide.line{stroke-dasharray:4,4}#chart-b8e24780-7e9d-49b2-b7d5-d9ba6011c41a .axis .major.guide.line{stroke-dasharray:6,6}#chart-b8e24780-7e9d-49b2-b7d5-d9ba6011c41a .horizontal .axis.y .guide.line,#chart-b8e24780-7e9d-49b2-b7d5-d9ba6011c41a .horizontal .axis.y2 .guide.line,#chart-b8e24780-7e9d-49b2-b7d5-d9ba6011c41a .vertical .axis.x .guide.line{opacity:0}#chart-b8e24780-7e9d-49b2-b7d5-d9ba6011c41a .horizontal .axis.always_show .guide.line,#chart-b8e24780-7e9d-49b2-b7d5-d9ba6011c41a .vertical .axis.always_show .guide.line{opacity:1 !important}#chart-b8e24780-7e9d-49b2-b7d5-d9ba6011c41a .axis.y .guides:hover .guide.line,#chart-b8e24780-7e9d-49b2-b7d5-d9ba6011c41a .axis.y2 .guides:hover .guide.line,#chart-b8e24780-7e9d-49b2-b7d5-d9ba6011c41a .axis.x .guides:hover .guide.line{opacity:1}#chart-b8e24780-7e9d-49b2-b7d5-d9ba6011c41a .axis .guides:hover text{opacity:1}#chart-b8e24780-7e9d-49b2-b7d5-d9ba6011c41a .nofill{fill:none}#chart-b8e24780-7e9d-49b2-b7d5-d9ba6011c41a .subtle-fill{fill-opacity:.2}#chart-b8e24780-7e9d-49b2-b7d5-d9ba6011c41a .dot{stroke-width:1px;fill-opacity:1}#chart-b8e24780-7e9d-49b2-b7d5-d9ba6011c41a .dot.active{stroke-width:5px}#chart-b8e24780-7e9d-49b2-b7d5-d9ba6011c41a .dot.negative{fill:transparent}#chart-b8e24780-7e9d-49b2-b7d5-d9ba6011c41a text,#chart-b8e24780-7e9d-49b2-b7d5-d9ba6011c41a tspan{stroke:none !important}#chart-b8e24780-7e9d-49b2-b7d5-d9ba6011c41a .series text.active{opacity:1}#chart-b8e24780-7e9d-49b2-b7d5-d9ba6011c41a .tooltip rect{fill-opacity:.95;stroke-width:.5}#chart-b8e24780-7e9d-49b2-b7d5-d9ba6011c41a .tooltip text{fill-opacity:1}#chart-b8e24780-7e9d-49b2-b7d5-d9ba6011c41a .showable{visibility:hidden}#chart-b8e24780-7e9d-49b2-b7d5-d9ba6011c41a .showable.shown{visibility:visible}#chart-b8e24780-7e9d-49b2-b7d5-d9ba6011c41a .gauge-background{fill:rgba(229,229,229,1);stroke:none}#chart-b8e24780-7e9d-49b2-b7d5-d9ba6011c41a .bg-lines{stroke:rgba(249,249,249,1);stroke-width:2px}</style><script type="text/javascript">window.pygal = window.pygal || {};window.pygal.config = window.pygal.config || {};window.pygal.config['b8e24780-7e9d-49b2-b7d5-d9ba6011c41a'] = {"allow_interruptions": false, "box_mode": "extremes", "classes": ["pygal-chart"], "css": ["file://style.css", "file://graph.css"], "defs": [], "disable_xml_declaration": false, "dots_size": 2.5, "dynamic_print_values": false, "explicit_size": false, "fill": false, "force_uri_protocol": "https", "formatter": null, "half_pie": false, "height": 600, "include_x_axis": false, "inner_radius": 0, "interpolate": null, "interpolation_parameters": {}, "interpolation_precision": 250, "inverse_y_axis": false, "js": ["//kozea.github.io/pygal.js/2.0.x/pygal-tooltips.min.js"], "legend_at_bottom": true, "legend_at_bottom_columns": null, "legend_box_size": 12, "logarithmic": false, "margin": 20, "margin_bottom": null, "margin_left": null, "margin_right": null, "margin_top": null, "max_scale": 16, "min_scale": 4, "missing_value_fill_truncation": "x", "no_data_text": "No data", "no_prefix": false, "order_min": null, "pretty_print": false, "print_labels": false, "print_values": false, "print_values_position": "center", "print_zeroes": true, "range": null, "rounded_bars": null, "secondary_range": null, "show_dots": true, "show_legend": true, "show_minor_x_labels": false, "show_minor_y_labels": true, "show_only_major_dots": false, "show_x_guides": false, "show_x_labels": true, "show_y_guides": true, "show_y_labels": true, "spacing": 10, "stack_from_top": false, "strict": false, "stroke": true, "stroke_style": null, "style": {"background": "rgba(249, 249, 249, 1)", "ci_colors": [], "colors": ["red", "blue", "green", "#a3a3a3"], "font_family": "Consolas, \"Liberation Mono\", Menlo, Courier, monospace", "foreground": "rgba(0, 0, 0, .87)", "foreground_strong": "rgba(0, 0, 0, 1)", "foreground_subtle": "rgba(0, 0, 0, .54)", "guide_stroke_dasharray": "4,4", "label_font_family": "Consolas, \"Liberation Mono\", Menlo, Courier, monospace", "label_font_size": 10, "legend_font_family": "Consolas, \"Liberation Mono\", Menlo, Courier, monospace", "legend_font_size": 14, "major_guide_stroke_dasharray": "6,6", "major_label_font_family": "Consolas, \"Liberation Mono\", Menlo, Courier, monospace", "major_label_font_size": 10, "no_data_font_family": "Consolas, \"Liberation Mono\", Menlo, Courier, monospace", "no_data_font_size": 64, "opacity": ".7", "opacity_hover": ".8", "plot_background": "rgba(255, 255, 255, 1)", "stroke_opacity": ".8", "stroke_opacity_hover": ".9", "title_font_family": "Consolas, \"Liberation Mono\", Menlo, Courier, monospace", "title_font_size": 16, "tooltip_font_family": "Consolas, \"Liberation Mono\", Menlo, Courier, monospace", "tooltip_font_size": 14, "transition": "150ms", "value_background": "rgba(229, 229, 229, 1)", "value_colors": [], "value_font_family": "Consolas, \"Liberation Mono\", Menlo, Courier, monospace", "value_font_size": 16, "value_label_font_family": "Consolas, \"Liberation Mono\", Menlo, Courier, monospace", "value_label_font_size": 10}, "title": "Imran Khan: Future and Past Averages in ODIs", "tooltip_border_radius": 10, "tooltip_fancy_mode": true, "truncate_label": null, "truncate_legend": null, "width": 800, "x_label_rotation": 45, "x_labels": ["1974", "0", "1975", "0", "1976", "1977", "1978", "0", "1979", "0", "0", "0", "1980", "0", "1981", "0", "0", "0", "0", "0", "1982", "0", "0", "0", "0", "0", "0", "0", "0", "0", "0", "0", "1983", "1985", "0", "0", "0", "0", "0", "0", "0", "0", "0", "0", "0", "0", "0", "0", "0", "0", "1986", "0", "0", "0", "0", "0", "0", "0", "0", "0", "0", "0", "0", "0", "1987", "0", "0", "0", "0", "0", "0", "0", "0", "0", "0", "0", "0", "0", "0", "0", "0", "0", "0", "0", "1988", "0", "0", "0", "0", "0", "0", "0", "1989", "0", "0", "0", "0", "0", "0", "0", "0", "0", "0", "0", "0", "0", "0", "0", "0", "0", "0", "0", "0", "0", "0", "0", "1990", "0", "0", "0", "0", "0", "0", "0", "0", "0", "0", "0", "0", "0", "0", "0", "0", "1991", "0", "0", "0", "0", "0", "0", "0", "1992", "0", "0", "0", "0", "0", "0", "0", "0", "0", "0", "0"], "x_labels_major": ["1974", "1975", "1976", "1977", "1978", "1979", "1980", "1981", "1982", "1983", "1985", "1986", "1987", "1988", "1989", "1990", "1991", "1992"], "x_labels_major_count": null, "x_labels_major_every": null, "x_title": null, "xrange": null, "y_label_rotation": 0, "y_labels": null, "y_labels_major": null, "y_labels_major_count": null, "y_labels_major_every": null, "y_title": null, "zero": 110.0, "legends": ["Future Average", "Past Average", "Career Average"]}</script><script type="text/javascript" xlink:href="https://kozea.github.io/pygal.js/2.0.x/pygal-tooltips.min.js"/></defs><title>Imran Khan: Future and Past Averages in ODIs</title><g class="graph line-graph vertical"><rect class="background" height="600" width="800" x="0" y="0"/><g class="plot" transform="translate(48, 46)"><rect class="background" height="462.02943725152284" width="732.0" x="0" y="0"/><g class="axis y always_show"><g class="guides"><path class="axis major line" d="M0.000000 453.144256 h732.000000"/><text class="major" x="-5" y="456.6442557659166">0</text><title>0</title></g><g class="guides"><path class="guide line" d="M0.000000 409.589445 h732.000000"/><text class="" x="-5" y="413.0894445619646">10</text><title>10</title></g><g class="guides"><path class="guide line" d="M0.000000 366.034633 h732.000000"/><text class="" x="-5" y="369.5346333580126">20</text><title>20</title></g><g class="guides"><path class="guide line" d="M0.000000 322.479822 h732.000000"/><text class="" x="-5" y="325.9798221540606">30</text><title>30</title></g><g class="guides"><path class="guide line" d="M0.000000 278.925011 h732.000000"/><text class="" x="-5" y="282.4250109501087">40</text><title>40</title></g><g class="guides"><path class="major guide line" d="M0.000000 235.370200 h732.000000"/><text class="major" x="-5" y="238.87019974615666">50</text><title>50</title></g><g class="guides"><path class="guide line" d="M0.000000 191.815389 h732.000000"/><text class="" x="-5" y="195.31538854220463">60</text><title>60</title></g><g class="guides"><path class="guide line" d="M0.000000 148.260577 h732.000000"/><text class="" x="-5" y="151.76057733825263">70</text><title>70</title></g><g class="guides"><path class="guide line" d="M0.000000 104.705766 h732.000000"/><text class="" x="-5" y="108.20576613430063">80</text><title>80</title></g><g class="guides"><path class="guide line" d="M0.000000 61.150955 h732.000000"/><text class="" x="-5" y="64.65095493034858">90</text><title>90</title></g><g class="guides"><path class="major guide line" d="M0.000000 17.596144 h732.000000"/><text class="major" x="-5" y="21.09614372639669">100</text><title>100</title></g></g><g class="axis x"><g class="guides"><path class="major line" d="M14.076923 0.000000 v462.029437"/><text class="major" x="14.076923076923077" y="477.02943725152284" transform="rotate(45 14.076923 477.029437)">1974</text></g><g class="guides"><path class="major guide line" d="M23.338057 0.000000 v462.029437"/><text class="major" x="23.338056680161944" y="477.02943725152284" transform="rotate(45 23.338057 477.029437)">1975</text></g><g class="guides"><path class="major guide line" d="M32.599190 0.000000 v462.029437"/><text class="major" x="32.59919028340081" y="477.02943725152284" transform="rotate(45 32.599190 477.029437)">1976</text></g><g class="guides"><path class="major guide line" d="M37.229757 0.000000 v462.029437"/><text class="major" x="37.22975708502024" y="477.02943725152284" transform="rotate(45 37.229757 477.029437)">1977</text></g><g class="guides"><path class="major guide line" d="M41.860324 0.000000 v462.029437"/><text class="major" x="41.86032388663968" y="477.02943725152284" transform="rotate(45 41.860324 477.029437)">1978</text></g><g class="guides"><path class="major guide line" d="M51.121457 0.000000 v462.029437"/><text class="major" x="51.121457489878544" y="477.02943725152284" transform="rotate(45 51.121457 477.029437)">1979</text></g><g class="guides"><path class="major guide line" d="M69.643725 0.000000 v462.029437"/><text class="major" x="69.64372469635627" y="477.02943725152284" transform="rotate(45 69.643725 477.029437)">1980</text></g><g class="guides"><path class="major guide line" d="M78.904858 0.000000 v462.029437"/><text class="major" x="78.90485829959513" y="477.02943725152284" transform="rotate(45 78.904858 477.029437)">1981</text></g><g class="guides"><path class="major guide line" d="M106.688259 0.000000 v462.029437"/><text class="major" x="106.68825910931172" y="477.02943725152284" transform="rotate(45 106.688259 477.029437)">1982</text></g><g class="guides"><path class="major guide line" d="M162.255061 0.000000 v462.029437"/><text class="major" x="162.25506072874492" y="477.02943725152284" transform="rotate(45 162.255061 477.029437)">1983</text></g><g class="guides"><path class="major guide line" d="M166.885628 0.000000 v462.029437"/><text class="major" x="166.88562753036436" y="477.02943725152284" transform="rotate(45 166.885628 477.029437)">1985</text></g><g class="guides"><path class="major guide line" d="M245.605263 0.000000 v462.029437"/><text class="major" x="245.60526315789477" y="477.02943725152284" transform="rotate(45 245.605263 477.029437)">1986</text></g><g class="guides"><path class="major guide line" d="M310.433198 0.000000 v462.029437"/><text class="major" x="310.4331983805668" y="477.02943725152284" transform="rotate(45 310.433198 477.029437)">1987</text></g><g class="guides"><path class="major guide line" d="M403.044534 0.000000 v462.029437"/><text class="major" x="403.0445344129555" y="477.02943725152284" transform="rotate(45 403.044534 477.029437)">1988</text></g><g class="guides"><path class="major guide line" d="M440.089069 0.000000 v462.029437"/><text class="major" x="440.08906882591094" y="477.02943725152284" transform="rotate(45 440.089069 477.029437)">1989</text></g><g class="guides"><path class="major guide line" d="M551.222672 0.000000 v462.029437"/><text class="major" x="551.2226720647773" y="477.02943725152284" transform="rotate(45 551.222672 477.029437)">1990</text></g><g class="guides"><path class="major guide line" d="M629.942308 0.000000 v462.029437"/><text class="major" x="629.9423076923076" y="477.02943725152284" transform="rotate(45 629.942308 477.029437)">1991</text></g><g class="guides"><path class="major guide line" d="M666.986842 0.000000 v462.029437"/><text class="major" x="666.9868421052632" y="477.02943725152284" transform="rotate(45 666.986842 477.029437)">1992</text></g></g><g class="series serie-0 color-0"><path class="line reactive nofill" d="M14.076923 337.201348 L18.707490 338.072445 23.338057 337.201348 27.968623 336.983574 32.599190 335.328491 37.229757 335.589820 41.860324 335.938259 46.490891 336.896465 51.121457 337.419122 55.752024 337.462677 60.382591 336.809355 65.013158 336.765800 69.643725 337.201348 74.274291 336.852910 78.904858 336.940019 83.535425 335.415601 88.165992 335.807594 92.796559 334.718724 97.427126 332.976532 102.057692 334.283176 106.688259 334.588060 111.318826 334.413840 115.949393 334.021847 120.579960 334.326731 125.210526 334.196066 129.841093 334.762279 134.471660 333.455635 139.102227 332.889422 143.732794 332.671648 148.363360 332.976532 152.993927 332.453874 157.624494 332.889422 162.255061 333.586299 166.885628 332.323209 171.516194 330.537462 176.146761 330.406798 180.777328 329.666366 185.407895 330.929456 190.038462 330.929456 194.669028 325.615769 199.299595 325.528659 203.930162 324.222015 208.560729 324.831782 213.191296 324.962446 217.821862 325.397995 222.452429 325.485104 227.082996 326.748194 231.713563 327.619290 236.344130 325.877097 240.974696 327.096632 245.605263 327.793509 250.235830 327.270851 254.866397 328.098393 259.496964 327.488625 264.127530 325.702878 268.758097 325.006001 273.388664 324.265569 278.019231 323.960686 282.649798 323.742912 287.280364 324.396234 291.910931 323.525138 296.541498 324.875337 301.172065 325.049556 305.802632 322.436267 310.433198 323.220254 315.063765 322.479822 319.694332 322.958925 324.324899 321.608726 328.955466 320.737630 333.586032 320.650520 338.216599 320.476301 342.847166 321.434507 347.477733 322.305603 352.108300 324.918892 356.738866 324.657563 361.369433 320.040753 366.000000 321.565171 370.630567 320.040753 375.261134 319.082547 379.891700 318.037231 384.522267 313.028428 389.152834 307.496967 393.783401 306.233878 398.413968 303.402815 403.044534 298.873114 407.675101 293.951421 412.305668 291.425242 416.936235 292.209228 421.566802 297.827799 426.197368 296.869593 430.827935 294.909627 435.458502 297.522915 440.089069 295.693613 444.719636 297.566470 449.350202 300.049094 453.980769 297.610025 458.611336 300.441088 463.241903 300.528197 467.872470 301.137965 472.503036 299.526437 477.133603 302.531719 481.764170 303.097931 486.394737 298.786005 491.025304 294.735407 495.655870 288.158631 500.286437 285.327568 504.917004 291.991454 509.547571 290.118597 514.178138 291.512351 518.808704 278.925011 523.439271 281.756074 528.069838 285.458233 532.700405 288.768398 537.330972 279.491223 541.961538 263.680827 546.592105 250.788603 551.222672 241.162990 555.853239 246.433122 560.483806 251.877473 565.114372 261.677306 569.744939 250.222390 574.375506 246.346012 579.006073 258.802688 583.636640 244.778039 588.267206 252.095247 592.897773 251.354815 597.528340 243.819833 602.158907 245.605580 606.789474 252.792124 611.420040 254.708536 616.050607 258.236476 620.681174 252.792124 625.311741 262.374183 629.942308 268.471856 634.572874 252.792124 639.203441 267.513650 643.834008 271.869132 648.464575 277.574812 653.095142 285.632452 657.725709 295.693613 662.356275 289.465275 666.986842 302.531719 671.617409 302.662383 676.247976 306.800090 680.878543 253.401892 685.509109 278.315244 690.139676 296.956703 694.770243 312.505770 699.400810 285.893781 704.031377 220.866448 708.661943 183.104426 713.292510 8.885181 717.923077 265.858568"/></g><g class="series serie-1 color-1"><path class="line reactive nofill" d="M14.076923 453.144256 L18.707490 296.346935 23.338057 339.901747 27.968623 348.612709 32.599190 384.066325 37.229757 373.090513 41.860324 362.158255 46.490891 343.778125 51.121457 333.107196 55.752024 333.368525 60.382591 342.819919 65.013158 343.255467 69.643725 337.724006 74.274291 341.339055 78.904858 340.163076 83.535425 352.750416 88.165992 348.612709 92.796559 355.537924 97.427126 363.944002 102.057692 355.755698 106.688259 353.142409 111.318826 353.447293 115.949393 354.013505 120.579960 351.966429 125.210526 351.966429 129.841093 349.178921 134.471660 354.144170 139.102227 355.450814 143.732794 355.102376 148.363360 353.316628 152.993927 354.187725 157.624494 352.619752 162.255061 350.137127 166.885628 353.490848 171.516194 357.497890 176.146761 357.323671 180.777328 358.325432 185.407895 354.797492 190.038462 354.318389 194.669028 363.987557 199.299595 363.552009 203.930162 364.989318 208.560729 363.029351 213.191296 362.114700 217.821862 360.677392 222.452429 360.459618 227.082996 358.020548 231.713563 356.234801 236.344130 358.151213 240.974696 355.886362 245.605263 354.623273 250.235830 355.102376 254.866397 353.621512 259.496964 354.361944 264.127530 356.539685 268.758097 357.280116 273.388664 357.497890 278.019231 357.497890 282.649798 357.323671 287.280364 355.929917 291.910931 356.365465 296.541498 354.449054 301.172065 353.795731 305.802632 356.060582 310.433198 355.102376 315.063765 355.189485 319.694332 354.231280 324.324899 355.015266 328.955466 355.233040 333.586032 354.536163 338.216599 354.318389 342.847166 353.360183 347.477733 352.140649 352.108300 349.527360 356.738866 349.527360 361.369433 352.619752 366.000000 351.225998 370.630567 351.966429 375.261134 352.097094 379.891700 352.271313 384.522267 354.579718 389.152834 356.670349 393.783401 357.062342 398.413968 357.410781 403.044534 358.499651 407.675101 359.588521 412.305668 359.762741 416.936235 358.804535 421.566802 356.104136 426.197368 355.625033 430.827935 355.537924 435.458502 354.405499 440.089069 354.274834 444.719636 353.490848 449.350202 352.489087 453.980769 352.619752 458.611336 351.530881 463.241903 351.138888 467.872470 350.529121 472.503036 350.746895 477.133603 349.658024 481.764170 349.091812 486.394737 349.832244 491.025304 350.354901 495.655870 351.051778 500.286437 350.921114 504.917004 349.135367 509.547571 349.222476 514.178138 348.874038 518.808704 350.616230 523.439271 349.962908 528.069838 349.091812 532.700405 348.351380 537.330972 349.091812 541.961538 350.572675 546.592105 351.617991 551.222672 351.792210 555.853239 351.008223 560.483806 350.180682 565.114372 348.699818 569.744939 349.178921 574.375506 349.091812 579.006073 347.436729 583.636640 348.002942 588.267206 347.131845 592.897773 346.652742 597.528340 346.826962 602.158907 346.652742 606.789474 345.912311 611.420040 345.171879 616.050607 344.823440 620.681174 344.823440 625.311741 343.952344 629.942308 343.386132 634.572874 343.734570 639.203441 342.602145 643.834008 342.253706 648.464575 341.818158 653.095142 341.208391 657.725709 340.424404 662.356275 340.598624 666.986842 339.683973 671.617409 339.422644 676.247976 338.987096 680.878543 340.555069 685.509109 339.596863 690.139676 338.812876 694.770243 338.203109 699.400810 338.682212 704.031377 339.161315 708.661943 338.943541 713.292510 339.030650 717.923077 337.636896"/></g><g class="series serie-2 color-2"><path class="line reactive nofill" d="M14.076923 337.201348 L18.707490 337.201348 23.338057 337.201348 27.968623 337.201348 32.599190 337.201348 37.229757 337.201348 41.860324 337.201348 46.490891 337.201348 51.121457 337.201348 55.752024 337.201348 60.382591 337.201348 65.013158 337.201348 69.643725 337.201348 74.274291 337.201348 78.904858 337.201348 83.535425 337.201348 88.165992 337.201348 92.796559 337.201348 97.427126 337.201348 102.057692 337.201348 106.688259 337.201348 111.318826 337.201348 115.949393 337.201348 120.579960 337.201348 125.210526 337.201348 129.841093 337.201348 134.471660 337.201348 139.102227 337.201348 143.732794 337.201348 148.363360 337.201348 152.993927 337.201348 157.624494 337.201348 162.255061 337.201348 166.885628 337.201348 171.516194 337.201348 176.146761 337.201348 180.777328 337.201348 185.407895 337.201348 190.038462 337.201348 194.669028 337.201348 199.299595 337.201348 203.930162 337.201348 208.560729 337.201348 213.191296 337.201348 217.821862 337.201348 222.452429 337.201348 227.082996 337.201348 231.713563 337.201348 236.344130 337.201348 240.974696 337.201348 245.605263 337.201348 250.235830 337.201348 254.866397 337.201348 259.496964 337.201348 264.127530 337.201348 268.758097 337.201348 273.388664 337.201348 278.019231 337.201348 282.649798 337.201348 287.280364 337.201348 291.910931 337.201348 296.541498 337.201348 301.172065 337.201348 305.802632 337.201348 310.433198 337.201348 315.063765 337.201348 319.694332 337.201348 324.324899 337.201348 328.955466 337.201348 333.586032 337.201348 338.216599 337.201348 342.847166 337.201348 347.477733 337.201348 352.108300 337.201348 356.738866 337.201348 361.369433 337.201348 366.000000 337.201348 370.630567 337.201348 375.261134 337.201348 379.891700 337.201348 384.522267 337.201348 389.152834 337.201348 393.783401 337.201348 398.413968 337.201348 403.044534 337.201348 407.675101 337.201348 412.305668 337.201348 416.936235 337.201348 421.566802 337.201348 426.197368 337.201348 430.827935 337.201348 435.458502 337.201348 440.089069 337.201348 444.719636 337.201348 449.350202 337.201348 453.980769 337.201348 458.611336 337.201348 463.241903 337.201348 467.872470 337.201348 472.503036 337.201348 477.133603 337.201348 481.764170 337.201348 486.394737 337.201348 491.025304 337.201348 495.655870 337.201348 500.286437 337.201348 504.917004 337.201348 509.547571 337.201348 514.178138 337.201348 518.808704 337.201348 523.439271 337.201348 528.069838 337.201348 532.700405 337.201348 537.330972 337.201348 541.961538 337.201348 546.592105 337.201348 551.222672 337.201348 555.853239 337.201348 560.483806 337.201348 565.114372 337.201348 569.744939 337.201348 574.375506 337.201348 579.006073 337.201348 583.636640 337.201348 588.267206 337.201348 592.897773 337.201348 597.528340 337.201348 602.158907 337.201348 606.789474 337.201348 611.420040 337.201348 616.050607 337.201348 620.681174 337.201348 625.311741 337.201348 629.942308 337.201348 634.572874 337.201348 639.203441 337.201348 643.834008 337.201348 648.464575 337.201348 653.095142 337.201348 657.725709 337.201348 662.356275 337.201348 666.986842 337.201348 671.617409 337.201348 676.247976 337.201348 680.878543 337.201348 685.509109 337.201348 690.139676 337.201348 694.770243 337.201348 699.400810 337.201348 704.031377 337.201348 708.661943 337.201348 713.292510 337.201348 717.923077 337.201348"/></g></g><g class="titles"><text class="title plot_title" x="400.0" y="26">Imran Khan: Future and Past Averages in ODIs</text></g><g class="plot overlay" transform="translate(48, 46)"><g class="series serie-0 color-0"><g class="dots"><desc class="label">182 wickets in 153 innings (1241.1 overs)</desc><circle class="dot reactive tooltip-trigger" cx="14.076923076923077" cy="337.2013483409964" r="2.5"/><desc class="value">26.62</desc><desc class="x top">14.076923076923077</desc><desc class="y top">337.2013483409964</desc><desc class="x_label">1974</desc></g><g class="dots"><desc class="label">180 wickets in 151 innings (1224.1 overs)</desc><circle class="dot reactive tooltip-trigger" cx="23.338056680161944" cy="337.2013483409964" r="2.5"/><desc class="value">26.62</desc><desc class="x top">23.338056680161944</desc><desc class="y top">337.2013483409964</desc><desc class="x_label">1975</desc></g><g class="dots"><desc class="label">175 wickets in 149 innings (1207.0 overs)</desc><circle class="dot reactive tooltip-trigger" cx="32.59919028340081" cy="335.3284914592265" r="2.5"/><desc class="value">27.05</desc><desc class="x top">32.59919028340081</desc><desc class="y top">335.3284914592265</desc><desc class="x_label">1976</desc></g><g class="dots"><desc class="label">174 wickets in 148 innings (1200.0 overs)</desc><circle class="dot reactive tooltip-trigger" cx="37.22975708502024" cy="335.5898203264502" r="2.5"/><desc class="value">26.99</desc><desc class="x top">37.22975708502024</desc><desc class="y top">335.5898203264502</desc><desc class="x_label">1977</desc></g><g class="dots"><desc class="label">173 wickets in 147 innings (1191.0 overs)</desc><circle class="dot reactive tooltip-trigger" cx="41.86032388663968" cy="335.9382588160818" r="2.5"/><desc class="value">26.91</desc><desc class="x top">41.86032388663968</desc><desc class="y top">335.9382588160818</desc><desc class="x_label">1978</desc></g><g class="dots"><desc class="label">173 wickets in 145 innings (1176.0 overs)</desc><circle class="dot reactive tooltip-trigger" cx="51.121457489878544" cy="337.41912239701617" r="2.5"/><desc class="value">26.57</desc><desc class="x top">51.121457489878544</desc><desc class="y top">337.41912239701617</desc><desc class="x_label">1979</desc></g><g class="dots"><desc class="label">168 wickets in 141 innings (1133.5 overs)</desc><circle class="dot reactive tooltip-trigger" cx="69.64372469635627" cy="337.2013483409964" r="2.5"/><desc class="value">26.62</desc><desc class="x top">69.64372469635627</desc><desc class="y top">337.2013483409964</desc><desc class="x_label">1980</desc></g><g class="dots"><desc class="label">166 wickets in 139 innings (1118.5 overs)</desc><circle class="dot reactive tooltip-trigger" cx="78.90485829959513" cy="336.94001947377274" r="2.5"/><desc class="value">26.68</desc><desc class="x top">78.90485829959513</desc><desc class="y top">336.94001947377274</desc><desc class="x_label">1981</desc></g><g class="dots"><desc class="label">156 wickets in 133 innings (1061.1 overs)</desc><circle class="dot reactive tooltip-trigger" cx="106.68825910931172" cy="334.58805966875934" r="2.5"/><desc class="value">27.22</desc><desc class="x top">106.68825910931172</desc><desc class="y top">334.58805966875934</desc><desc class="x_label">1982</desc></g><g class="dots"><desc class="label">142 wickets in 121 innings (959.1 overs)</desc><circle class="dot reactive tooltip-trigger" cx="162.25506072874492" cy="333.5862990110684" r="2.5"/><desc class="value">27.45</desc><desc class="x top">162.25506072874492</desc><desc class="y top">333.5862990110684</desc><desc class="x_label">1983</desc></g><g class="dots"><desc class="label">140 wickets in 120 innings (951.1 overs)</desc><circle class="dot reactive tooltip-trigger" cx="166.88562753036436" cy="332.3232094861538" r="2.5"/><desc class="value">27.74</desc><desc class="x top">166.88562753036436</desc><desc class="y top">332.3232094861538</desc><desc class="x_label">1985</desc></g><g class="dots"><desc class="label">118 wickets in 103 innings (822.3 overs)</desc><circle class="dot reactive tooltip-trigger" cx="245.60526315789477" cy="327.79350912094276" r="2.5"/><desc class="value">28.78</desc><desc class="x top">245.60526315789477</desc><desc class="y top">327.79350912094276</desc><desc class="x_label">1986</desc></g><g class="dots"><desc class="label">102 wickets in 89 innings (717.0 overs)</desc><circle class="dot reactive tooltip-trigger" cx="310.4331983805668" cy="323.2202539445278" r="2.5"/><desc class="value">29.83</desc><desc class="x top">310.4331983805668</desc><desc class="y top">323.2202539445278</desc><desc class="x_label">1987</desc></g><g class="dots"><desc class="label">65 wickets in 69 innings (537.1 overs)</desc><circle class="dot reactive tooltip-trigger" cx="403.0445344129555" cy="298.87311448151866" r="2.5"/><desc class="value">35.42</desc><desc class="x left top">403.0445344129555</desc><desc class="y left top">298.87311448151866</desc><desc class="x_label">1988</desc></g><g class="dots"><desc class="label">53 wickets in 61 innings (469.1 overs)</desc><circle class="dot reactive tooltip-trigger" cx="440.08906882591094" cy="295.69361326363014" r="2.5"/><desc class="value">36.15</desc><desc class="x left top">440.08906882591094</desc><desc class="y left top">295.69361326363014</desc><desc class="x_label">1989</desc></g><g class="dots"><desc class="label">24 wickets in 37 innings (283.2 overs)</desc><circle class="dot reactive tooltip-trigger" cx="551.2226720647773" cy="241.16298963628228" r="2.5"/><desc class="value">48.67</desc><desc class="x left top">551.2226720647773</desc><desc class="y left top">241.16298963628228</desc><desc class="x_label">1990</desc></g><g class="dots"><desc class="label">15 wickets in 20 innings (151.2 overs)</desc><circle class="dot reactive tooltip-trigger" cx="629.9423076923076" cy="268.47185626116016" r="2.5"/><desc class="value">42.4</desc><desc class="x left top">629.9423076923076</desc><desc class="y left top">268.47185626116016</desc><desc class="x_label">1991</desc></g><g class="dots"><desc class="label">12 wickets in 12 innings (98.2 overs)</desc><circle class="dot reactive tooltip-trigger" cx="666.9868421052632" cy="302.5317186226506" r="2.5"/><desc class="value">34.58</desc><desc class="x left top">666.9868421052632</desc><desc class="y left top">302.5317186226506</desc><desc class="x_label">1992</desc></g></g><g class="series serie-1 color-1"><g class="dots"><desc class="label">0 wickets over 0 innings</desc><circle class="dot reactive tooltip-trigger" cx="14.076923076923077" cy="453.1442557659166" r="2.5"/><desc class="value">0</desc><desc class="x top">14.076923076923077</desc><desc class="y top">453.1442557659166</desc><desc class="x_label">1974</desc></g><g class="dots"><desc class="label">2 wickets in 2 innings (17.0 overs)</desc><circle class="dot reactive tooltip-trigger" cx="23.338056680161944" cy="339.9017466356414" r="2.5"/><desc class="value">26</desc><desc class="x top">23.338056680161944</desc><desc class="y top">339.9017466356414</desc><desc class="x_label">1975</desc></g><g class="dots"><desc class="label">7 wickets in 4 innings (34.1 overs)</desc><circle class="dot reactive tooltip-trigger" cx="32.59919028340081" cy="384.06632519644876" r="2.5"/><desc class="value">15.86</desc><desc class="x top">32.59919028340081</desc><desc class="y top">384.06632519644876</desc><desc class="x_label">1976</desc></g><g class="dots"><desc class="label">8 wickets in 5 innings (41.1 overs)</desc><circle class="dot reactive tooltip-trigger" cx="37.22975708502024" cy="373.09051277305286" r="2.5"/><desc class="value">18.38</desc><desc class="x top">37.22975708502024</desc><desc class="y top">373.09051277305286</desc><desc class="x_label">1977</desc></g><g class="dots"><desc class="label">9 wickets in 6 innings (50.1 overs)</desc><circle class="dot reactive tooltip-trigger" cx="41.86032388663968" cy="362.1582551608609" r="2.5"/><desc class="value">20.89</desc><desc class="x top">41.86032388663968</desc><desc class="y top">362.1582551608609</desc><desc class="x_label">1978</desc></g><g class="dots"><desc class="label">9 wickets in 8 innings (65.1 overs)</desc><circle class="dot reactive tooltip-trigger" cx="51.121457489878544" cy="333.10719608782495" r="2.5"/><desc class="value">27.56</desc><desc class="x top">51.121457489878544</desc><desc class="y top">333.10719608782495</desc><desc class="x_label">1979</desc></g><g class="dots"><desc class="label">14 wickets in 12 innings (107.2 overs)</desc><circle class="dot reactive tooltip-trigger" cx="69.64372469635627" cy="337.72400607544387" r="2.5"/><desc class="value">26.5</desc><desc class="x top">69.64372469635627</desc><desc class="y top">337.72400607544387</desc><desc class="x_label">1980</desc></g><g class="dots"><desc class="label">16 wickets in 14 innings (122.2 overs)</desc><circle class="dot reactive tooltip-trigger" cx="78.90485829959513" cy="340.1630755028651" r="2.5"/><desc class="value">25.94</desc><desc class="x top">78.90485829959513</desc><desc class="y top">340.1630755028651</desc><desc class="x_label">1981</desc></g><g class="dots"><desc class="label">26 wickets in 20 innings (180.0 overs)</desc><circle class="dot reactive tooltip-trigger" cx="106.68825910931172" cy="353.14240924164284" r="2.5"/><desc class="value">22.96</desc><desc class="x top">106.68825910931172</desc><desc class="y top">353.14240924164284</desc><desc class="x_label">1982</desc></g><g class="dots"><desc class="label">40 wickets in 32 innings (282.0 overs)</desc><circle class="dot reactive tooltip-trigger" cx="162.25506072874492" cy="350.13712726857017" r="2.5"/><desc class="value">23.65</desc><desc class="x top">162.25506072874492</desc><desc class="y top">350.13712726857017</desc><desc class="x_label">1983</desc></g><g class="dots"><desc class="label">42 wickets in 33 innings (290.0 overs)</desc><circle class="dot reactive tooltip-trigger" cx="166.88562753036436" cy="353.49084773127447" r="2.5"/><desc class="value">22.88</desc><desc class="x top">166.88562753036436</desc><desc class="y top">353.49084773127447</desc><desc class="x_label">1985</desc></g><g class="dots"><desc class="label">64 wickets in 50 innings (418.4 overs)</desc><circle class="dot reactive tooltip-trigger" cx="245.60526315789477" cy="354.62327282257723" r="2.5"/><desc class="value">22.62</desc><desc class="x top">245.60526315789477</desc><desc class="y top">354.62327282257723</desc><desc class="x_label">1986</desc></g><g class="dots"><desc class="label">80 wickets in 64 innings (524.1 overs)</desc><circle class="dot reactive tooltip-trigger" cx="310.4331983805668" cy="355.10237574582067" r="2.5"/><desc class="value">22.51</desc><desc class="x top">310.4331983805668</desc><desc class="y top">355.10237574582067</desc><desc class="x_label">1987</desc></g><g class="dots"><desc class="label">117 wickets in 84 innings (704.0 overs)</desc><circle class="dot reactive tooltip-trigger" cx="403.0445344129555" cy="358.49965101972896" r="2.5"/><desc class="value">21.73</desc><desc class="x left top">403.0445344129555</desc><desc class="y left top">358.49965101972896</desc><desc class="x_label">1988</desc></g><g class="dots"><desc class="label">129 wickets in 92 innings (772.0 overs)</desc><circle class="dot reactive tooltip-trigger" cx="440.08906882591094" cy="354.2748343329456" r="2.5"/><desc class="value">22.7</desc><desc class="x left top">440.08906882591094</desc><desc class="y left top">354.2748343329456</desc><desc class="x_label">1989</desc></g><g class="dots"><desc class="label">158 wickets in 116 innings (957.5 overs)</desc><circle class="dot reactive tooltip-trigger" cx="551.2226720647773" cy="351.79221009432035" r="2.5"/><desc class="value">23.27</desc><desc class="x left top">551.2226720647773</desc><desc class="y left top">351.79221009432035</desc><desc class="x_label">1990</desc></g><g class="dots"><desc class="label">167 wickets in 133 innings (1089.5 overs)</desc><circle class="dot reactive tooltip-trigger" cx="629.9423076923076" cy="343.38613153195763" r="2.5"/><desc class="value">25.2</desc><desc class="x left top">629.9423076923076</desc><desc class="y left top">343.38613153195763</desc><desc class="x_label">1991</desc></g><g class="dots"><desc class="label">170 wickets in 141 innings (1142.5 overs)</desc><circle class="dot reactive tooltip-trigger" cx="666.9868421052632" cy="339.6839725796217" r="2.5"/><desc class="value">26.05</desc><desc class="x left top">666.9868421052632</desc><desc class="y left top">339.6839725796217</desc><desc class="x_label">1992</desc></g></g><g class="series serie-2 color-2"/></g><g class="plot text-overlay" transform="translate(48, 46)"><g class="series serie-0 color-0"/><g class="series serie-1 color-1"/><g class="series serie-2 color-2"/></g><g class="plot tooltip-overlay" transform="translate(48, 46)"><g class="tooltip" style="opacity: 0" transform="translate(0 0)"><rect class="tooltip-box" height="0" rx="10" ry="10" width="0"/><g class="text"/></g></g><g class="legends" transform="translate(58, 545)"><g class="legend reactive activate-serie" id="activate-serie-0"><rect class="color-0 reactive" height="12" width="12" x="0.0" y="1.0"/><text x="17.0" y="11.2">Future Average</text></g><g class="legend reactive activate-serie" id="activate-serie-1"><rect class="color-1 reactive" height="12" width="12" x="366.0" y="1.0"/><text x="383.0" y="11.2">Past Average</text></g><g class="legend reactive activate-serie" id="activate-serie-2"><rect class="color-2 reactive" height="12" width="12" x="0.0" y="22.0"/><text x="17.0" y="32.2">Career Average</text></g></g></g></svg>