<?xml version='1.0' encoding='utf-8'?>
<svg xmlns:xlink="http://www.w3.org/1999/xlink" xmlns="http://www.w3.org/2000/svg" id="chart-d978465f-19d7-4a72-9672-6b191ef88967" class="pygal-chart" viewBox="0 0 800 600"><!--Generated with pygal 2.4.0 (lxml) ©Kozea 2012-2016 on 2019-08-04--><!--http://pygal.org--><!--http://github.com/Kozea/pygal--><defs><style type="text/css">#chart-d978465f-19d7-4a72-9672-6b191ef88967{-webkit-user-select:none;-webkit-font-smoothing:antialiased;font-family:Consolas,"Liberation Mono",Menlo,Courier,monospace}#chart-d978465f-19d7-4a72-9672-6b191ef88967 .title{font-family:Consolas,"Liberation Mono",Menlo,Courier,monospace;font-size:16px}#chart-d978465f-19d7-4a72-9672-6b191ef88967 .legends .legend text{font-family:Consolas,"Liberation Mono",Menlo,Courier,monospace;font-size:14px}#chart-d978465f-19d7-4a72-9672-6b191ef88967 .axis text{font-family:Consolas,"Liberation Mono",Menlo,Courier,monospace;font-size:10px}#chart-d978465f-19d7-4a72-9672-6b191ef88967 .axis text.major{font-family:Consolas,"Liberation Mono",Menlo,Courier,monospace;font-size:10px}#chart-d978465f-19d7-4a72-9672-6b191ef88967 .text-overlay text.value{font-family:Consolas,"Liberation Mono",Menlo,Courier,monospace;font-size:16px}#chart-d978465f-19d7-4a72-9672-6b191ef88967 .text-overlay text.label{font-family:Consolas,"Liberation Mono",Menlo,Courier,monospace;font-size:10px}#chart-d978465f-19d7-4a72-9672-6b191ef88967 .tooltip{font-family:Consolas,"Liberation Mono",Menlo,Courier,monospace;font-size:14px}#chart-d978465f-19d7-4a72-9672-6b191ef88967 text.no_data{font-family:Consolas,"Liberation Mono",Menlo,Courier,monospace;font-size:64px}
#chart-d978465f-19d7-4a72-9672-6b191ef88967{background-color:rgba(249,249,249,1)}#chart-d978465f-19d7-4a72-9672-6b191ef88967 path,#chart-d978465f-19d7-4a72-9672-6b191ef88967 line,#chart-d978465f-19d7-4a72-9672-6b191ef88967 rect,#chart-d978465f-19d7-4a72-9672-6b191ef88967 circle{-webkit-transition:150ms;-moz-transition:150ms;transition:150ms}#chart-d978465f-19d7-4a72-9672-6b191ef88967 .graph &gt; .background{fill:rgba(249,249,249,1)}#chart-d978465f-19d7-4a72-9672-6b191ef88967 .plot &gt; .background{fill:rgba(255,255,255,1)}#chart-d978465f-19d7-4a72-9672-6b191ef88967 .graph{fill:rgba(0,0,0,.87)}#chart-d978465f-19d7-4a72-9672-6b191ef88967 text.no_data{fill:rgba(0,0,0,1)}#chart-d978465f-19d7-4a72-9672-6b191ef88967 .title{fill:rgba(0,0,0,1)}#chart-d978465f-19d7-4a72-9672-6b191ef88967 .legends .legend text{fill:rgba(0,0,0,.87)}#chart-d978465f-19d7-4a72-9672-6b191ef88967 .legends .legend:hover text{fill:rgba(0,0,0,1)}#chart-d978465f-19d7-4a72-9672-6b191ef88967 .axis .line{stroke:rgba(0,0,0,1)}#chart-d978465f-19d7-4a72-9672-6b191ef88967 .axis .guide.line{stroke:rgba(0,0,0,.54)}#chart-d978465f-19d7-4a72-9672-6b191ef88967 .axis .major.line{stroke:rgba(0,0,0,.87)}#chart-d978465f-19d7-4a72-9672-6b191ef88967 .axis text.major{fill:rgba(0,0,0,1)}#chart-d978465f-19d7-4a72-9672-6b191ef88967 .axis.y .guides:hover .guide.line,#chart-d978465f-19d7-4a72-9672-6b191ef88967 .line-graph .axis.x .guides:hover .guide.line,#chart-d978465f-19d7-4a72-9672-6b191ef88967 .stackedline-graph .axis.x .guides:hover .guide.line,#chart-d978465f-19d7-4a72-9672-6b191ef88967 .xy-graph .axis.x .guides:hover .guide.line{stroke:rgba(0,0,0,1)}#chart-d978465f-19d7-4a72-9672-6b191ef88967 .axis .guides:hover text{fill:rgba(0,0,0,1)}#chart-d978465f-19d7-4a72-9672-6b191ef88967 .reactive{fill-opacity:.7;stroke-opacity:.8}#chart-d978465f-19d7-4a72-9672-6b191ef88967 .ci{stroke:rgba(0,0,0,.87)}#chart-d978465f-19d7-4a72-9672-6b191ef88967 .reactive.active,#chart-d978465f-19d7-4a72-9672-6b191ef88967 .active .reactive{fill-opacity:.8;stroke-opacity:.9;stroke-width:4}#chart-d978465f-19d7-4a72-9672-6b191ef88967 .ci .reactive.active{stroke-width:1.5}#chart-d978465f-19d7-4a72-9672-6b191ef88967 .series text{fill:rgba(0,0,0,1)}#chart-d978465f-19d7-4a72-9672-6b191ef88967 .tooltip rect{fill:rgba(255,255,255,1);stroke:rgba(0,0,0,1);-webkit-transition:opacity 150ms;-moz-transition:opacity 150ms;transition:opacity 150ms}#chart-d978465f-19d7-4a72-9672-6b191ef88967 .tooltip .label{fill:rgba(0,0,0,.87)}#chart-d978465f-19d7-4a72-9672-6b191ef88967 .tooltip .label{fill:rgba(0,0,0,.87)}#chart-d978465f-19d7-4a72-9672-6b191ef88967 .tooltip .legend{font-size:.8em;fill:rgba(0,0,0,.54)}#chart-d978465f-19d7-4a72-9672-6b191ef88967 .tooltip .x_label{font-size:.6em;fill:rgba(0,0,0,1)}#chart-d978465f-19d7-4a72-9672-6b191ef88967 .tooltip .xlink{font-size:.5em;text-decoration:underline}#chart-d978465f-19d7-4a72-9672-6b191ef88967 .tooltip .value{font-size:1.5em}#chart-d978465f-19d7-4a72-9672-6b191ef88967 .bound{font-size:.5em}#chart-d978465f-19d7-4a72-9672-6b191ef88967 .max-value{font-size:.75em;fill:rgba(0,0,0,.54)}#chart-d978465f-19d7-4a72-9672-6b191ef88967 .map-element{fill:rgba(255,255,255,1);stroke:rgba(0,0,0,.54) !important}#chart-d978465f-19d7-4a72-9672-6b191ef88967 .map-element .reactive{fill-opacity:inherit;stroke-opacity:inherit}#chart-d978465f-19d7-4a72-9672-6b191ef88967 .color-0,#chart-d978465f-19d7-4a72-9672-6b191ef88967 .color-0 a:visited{stroke:red;fill:red}#chart-d978465f-19d7-4a72-9672-6b191ef88967 .color-1,#chart-d978465f-19d7-4a72-9672-6b191ef88967 .color-1 a:visited{stroke:blue;fill:blue}#chart-d978465f-19d7-4a72-9672-6b191ef88967 .color-2,#chart-d978465f-19d7-4a72-9672-6b191ef88967 .color-2 a:visited{stroke:green;fill:green}#chart-d978465f-19d7-4a72-9672-6b191ef88967 .text-overlay .color-0 text{fill:white}#chart-d978465f-19d7-4a72-9672-6b191ef88967 .text-overlay .color-1 text{fill:white}#chart-d978465f-19d7-4a72-9672-6b191ef88967 .text-overlay .color-2 text{fill:white}
#chart-d978465f-19d7-4a72-9672-6b191ef88967 text.no_data{text-anchor:middle}#chart-d978465f-19d7-4a72-9672-6b191ef88967 .guide.line{fill:none}#chart-d978465f-19d7-4a72-9672-6b191ef88967 .centered{text-anchor:middle}#chart-d978465f-19d7-4a72-9672-6b191ef88967 .title{text-anchor:middle}#chart-d978465f-19d7-4a72-9672-6b191ef88967 .legends .legend text{fill-opacity:1}#chart-d978465f-19d7-4a72-9672-6b191ef88967 .axis.x text{text-anchor:middle}#chart-d978465f-19d7-4a72-9672-6b191ef88967 .axis.x:not(.web) text[transform]{text-anchor:start}#chart-d978465f-19d7-4a72-9672-6b191ef88967 .axis.x:not(.web) text[transform].backwards{text-anchor:end}#chart-d978465f-19d7-4a72-9672-6b191ef88967 .axis.y text{text-anchor:end}#chart-d978465f-19d7-4a72-9672-6b191ef88967 .axis.y text[transform].backwards{text-anchor:start}#chart-d978465f-19d7-4a72-9672-6b191ef88967 .axis.y2 text{text-anchor:start}#chart-d978465f-19d7-4a72-9672-6b191ef88967 .axis.y2 text[transform].backwards{text-anchor:end}#chart-d978465f-19d7-4a72-9672-6b191ef88967 .axis .guide.line{stroke-dasharray:4,4}#chart-d978465f-19d7-4a72-9672-6b191ef88967 .axis .major.guide.line{stroke-dasharray:6,6}#chart-d978465f-19d7-4a72-9672-6b191ef88967 .horizontal .axis.y .guide.line,#chart-d978465f-19d7-4a72-9672-6b191ef88967 .horizontal .axis.y2 .guide.line,#chart-d978465f-19d7-4a72-9672-6b191ef88967 .vertical .axis.x .guide.line{opacity:0}#chart-d978465f-19d7-4a72-9672-6b191ef88967 .horizontal .axis.always_show .guide.line,#chart-d978465f-19d7-4a72-9672-6b191ef88967 .vertical .axis.always_show .guide.line{opacity:1 !important}#chart-d978465f-19d7-4a72-9672-6b191ef88967 .axis.y .guides:hover .guide.line,#chart-d978465f-19d7-4a72-9672-6b191ef88967 .axis.y2 .guides:hover .guide.line,#chart-d978465f-19d7-4a72-9672-6b191ef88967 .axis.x .guides:hover .guide.line{opacity:1}#chart-d978465f-19d7-4a72-9672-6b191ef88967 .axis .guides:hover text{opacity:1}#chart-d978465f-19d7-4a72-9672-6b191ef88967 .nofill{fill:none}#chart-d978465f-19d7-4a72-9672-6b191ef88967 .subtle-fill{fill-opacity:.2}#chart-d978465f-19d7-4a72-9672-6b191ef88967 .dot{stroke-width:1px;fill-opacity:1}#chart-d978465f-19d7-4a72-9672-6b191ef88967 .dot.active{stroke-width:5px}#chart-d978465f-19d7-4a72-9672-6b191ef88967 .dot.negative{fill:transparent}#chart-d978465f-19d7-4a72-9672-6b191ef88967 text,#chart-d978465f-19d7-4a72-9672-6b191ef88967 tspan{stroke:none !important}#chart-d978465f-19d7-4a72-9672-6b191ef88967 .series text.active{opacity:1}#chart-d978465f-19d7-4a72-9672-6b191ef88967 .tooltip rect{fill-opacity:.95;stroke-width:.5}#chart-d978465f-19d7-4a72-9672-6b191ef88967 .tooltip text{fill-opacity:1}#chart-d978465f-19d7-4a72-9672-6b191ef88967 .showable{visibility:hidden}#chart-d978465f-19d7-4a72-9672-6b191ef88967 .showable.shown{visibility:visible}#chart-d978465f-19d7-4a72-9672-6b191ef88967 .gauge-background{fill:rgba(229,229,229,1);stroke:none}#chart-d978465f-19d7-4a72-9672-6b191ef88967 .bg-lines{stroke:rgba(249,249,249,1);stroke-width:2px}</style><script type="text/javascript">window.pygal = window.pygal || {};window.pygal.config = window.pygal.config || {};window.pygal.config['d978465f-19d7-4a72-9672-6b191ef88967'] = {"allow_interruptions": false, "box_mode": "extremes", "classes": ["pygal-chart"], "css": ["file://style.css", "file://graph.css"], "defs": [], "disable_xml_declaration": false, "dots_size": 2.5, "dynamic_print_values": false, "explicit_size": false, "fill": false, "force_uri_protocol": "https", "formatter": null, "half_pie": false, "height": 600, "include_x_axis": false, "inner_radius": 0, "interpolate": null, "interpolation_parameters": {}, "interpolation_precision": 250, "inverse_y_axis": false, "js": ["//kozea.github.io/pygal.js/2.0.x/pygal-tooltips.min.js"], "legend_at_bottom": true, "legend_at_bottom_columns": null, "legend_box_size": 12, "logarithmic": false, "margin": 20, "margin_bottom": null, "margin_left": null, "margin_right": null, "margin_top": null, "max_scale": 16, "min_scale": 4, "missing_value_fill_truncation": "x", "no_data_text": "No data", "no_prefix": false, "order_min": null, "pretty_print": false, "print_labels": false, "print_values": false, "print_values_position": "center", "print_zeroes": true, "range": null, "rounded_bars": null, "secondary_range": null, "show_dots": true, "show_legend": true, "show_minor_x_labels": false, "show_minor_y_labels": true, "show_only_major_dots": false, "show_x_guides": false, "show_x_labels": true, "show_y_guides": true, "show_y_labels": true, "spacing": 10, "stack_from_top": false, "strict": false, "stroke": true, "stroke_style": null, "style": {"background": "rgba(249, 249, 249, 1)", "ci_colors": [], "colors": ["red", "blue", "green", "#a3a3a3"], "font_family": "Consolas, \"Liberation Mono\", Menlo, Courier, monospace", "foreground": "rgba(0, 0, 0, .87)", "foreground_strong": "rgba(0, 0, 0, 1)", "foreground_subtle": "rgba(0, 0, 0, .54)", "guide_stroke_dasharray": "4,4", "label_font_family": "Consolas, \"Liberation Mono\", Menlo, Courier, monospace", "label_font_size": 10, "legend_font_family": "Consolas, \"Liberation Mono\", Menlo, Courier, monospace", "legend_font_size": 14, "major_guide_stroke_dasharray": "6,6", "major_label_font_family": "Consolas, \"Liberation Mono\", Menlo, Courier, monospace", "major_label_font_size": 10, "no_data_font_family": "Consolas, \"Liberation Mono\", Menlo, Courier, monospace", "no_data_font_size": 64, "opacity": ".7", "opacity_hover": ".8", "plot_background": "rgba(255, 255, 255, 1)", "stroke_opacity": ".8", "stroke_opacity_hover": ".9", "title_font_family": "Consolas, \"Liberation Mono\", Menlo, Courier, monospace", "title_font_size": 16, "tooltip_font_family": "Consolas, \"Liberation Mono\", Menlo, Courier, monospace", "tooltip_font_size": 14, "transition": "150ms", "value_background": "rgba(229, 229, 229, 1)", "value_colors": [], "value_font_family": "Consolas, \"Liberation Mono\", Menlo, Courier, monospace", "value_font_size": 16, "value_label_font_family": "Consolas, \"Liberation Mono\", Menlo, Courier, monospace", "value_label_font_size": 10}, "title": "IT Botham: Future and Past Averages in ODIs", "tooltip_border_radius": 10, "tooltip_fancy_mode": true, "truncate_label": null, "truncate_legend": null, "width": 800, "x_label_rotation": 45, "x_labels": ["1976", "0", "1977", "0", "1978", "0", "0", "0", "0", "1979", "0", "0", "0", "0", "0", "0", "0", "0", "0", "0", "0", "0", "1980", "0", "0", "0", "0", "0", "0", "0", "1981", "0", "0", "0", "0", "0", "0", "1982", "0", "0", "0", "0", "0", "0", "1983", "0", "0", "0", "0", "0", "0", "0", "0", "0", "0", "0", "0", "0", "0", "0", "0", "0", "0", "0", "1984", "0", "0", "0", "0", "0", "0", "1985", "0", "0", "1986", "0", "0", "1987", "0", "0", "0", "0", "0", "0", "0", "0", "0", "0", "0", "0", "0", "0", "0", "0", "1989", "0", "0", "1991", "1992", "0", "0", "0", "0", "0", "0", "0", "0", "0", "0", "0", "0", "0", "0", "0", "0"], "x_labels_major": ["1976", "1977", "1978", "1979", "1980", "1981", "1982", "1983", "1984", "1985", "1986", "1987", "1989", "1991", "1992"], "x_labels_major_count": null, "x_labels_major_every": null, "x_title": null, "xrange": null, "y_label_rotation": 0, "y_labels": null, "y_labels_major": null, "y_labels_major_count": null, "y_labels_major_every": null, "y_title": null, "zero": 80.0, "legends": ["Future Average", "Past Average", "Career Average"]}</script><script type="text/javascript" xlink:href="https://kozea.github.io/pygal.js/2.0.x/pygal-tooltips.min.js"/></defs><title>IT Botham: Future and Past Averages in ODIs</title><g class="graph line-graph vertical"><rect class="background" height="600" width="800" x="0" y="0"/><g class="plot" transform="translate(42, 46)"><rect class="background" height="462.02943725152284" width="738.0" x="0" y="0"/><g class="axis y always_show"><g class="guides"><path class="axis major line" d="M0.000000 453.144256 h738.000000"/><text class="major" x="-5" y="456.6442557659166">0</text><title>0</title></g><g class="guides"><path class="guide line" d="M0.000000 394.689114 h738.000000"/><text class="" x="-5" y="398.18911441324417">10</text><title>10</title></g><g class="guides"><path class="guide line" d="M0.000000 336.233973 h738.000000"/><text class="" x="-5" y="339.73397306057177">20</text><title>20</title></g><g class="guides"><path class="guide line" d="M0.000000 277.778832 h738.000000"/><text class="" x="-5" y="281.27883170789937">30</text><title>30</title></g><g class="guides"><path class="guide line" d="M0.000000 219.323690 h738.000000"/><text class="" x="-5" y="222.8236903552269">40</text><title>40</title></g><g class="guides"><path class="major guide line" d="M0.000000 160.868549 h738.000000"/><text class="major" x="-5" y="164.36854900255446">50</text><title>50</title></g><g class="guides"><path class="guide line" d="M0.000000 102.413408 h738.000000"/><text class="" x="-5" y="105.913407649882">60</text><title>60</title></g><g class="guides"><path class="guide line" d="M0.000000 43.958266 h738.000000"/><text class="" x="-5" y="47.458266297209605">70</text><title>70</title></g></g><g class="axis x"><g class="guides"><path class="major line" d="M14.192308 0.000000 v462.029437"/><text class="major" x="14.192307692307692" y="477.02943725152284" transform="rotate(45 14.192308 477.029437)">1976</text></g><g class="guides"><path class="major guide line" d="M26.641700 0.000000 v462.029437"/><text class="major" x="26.6417004048583" y="477.02943725152284" transform="rotate(45 26.641700 477.029437)">1977</text></g><g class="guides"><path class="major guide line" d="M39.091093 0.000000 v462.029437"/><text class="major" x="39.09109311740891" y="477.02943725152284" transform="rotate(45 39.091093 477.029437)">1978</text></g><g class="guides"><path class="major guide line" d="M70.214575 0.000000 v462.029437"/><text class="major" x="70.21457489878541" y="477.02943725152284" transform="rotate(45 70.214575 477.029437)">1979</text></g><g class="guides"><path class="major guide line" d="M151.135628 0.000000 v462.029437"/><text class="major" x="151.13562753036433" y="477.02943725152284" transform="rotate(45 151.135628 477.029437)">1980</text></g><g class="guides"><path class="major guide line" d="M200.933198 0.000000 v462.029437"/><text class="major" x="200.93319838056678" y="477.02943725152284" transform="rotate(45 200.933198 477.029437)">1981</text></g><g class="guides"><path class="major guide line" d="M244.506073 0.000000 v462.029437"/><text class="major" x="244.50607287449395" y="477.02943725152284" transform="rotate(45 244.506073 477.029437)">1982</text></g><g class="guides"><path class="major guide line" d="M288.078947 0.000000 v462.029437"/><text class="major" x="288.07894736842104" y="477.02943725152284" transform="rotate(45 288.078947 477.029437)">1983</text></g><g class="guides"><path class="major guide line" d="M412.572874 0.000000 v462.029437"/><text class="major" x="412.5728744939271" y="477.02943725152284" transform="rotate(45 412.572874 477.029437)">1984</text></g><g class="guides"><path class="major guide line" d="M456.145749 0.000000 v462.029437"/><text class="major" x="456.1457489878543" y="477.02943725152284" transform="rotate(45 456.145749 477.029437)">1985</text></g><g class="guides"><path class="major guide line" d="M474.819838 0.000000 v462.029437"/><text class="major" x="474.81983805668017" y="477.02943725152284" transform="rotate(45 474.819838 477.029437)">1986</text></g><g class="guides"><path class="major guide line" d="M493.493927 0.000000 v462.029437"/><text class="major" x="493.4939271255061" y="477.02943725152284" transform="rotate(45 493.493927 477.029437)">1987</text></g><g class="guides"><path class="major guide line" d="M599.313765 0.000000 v462.029437"/><text class="major" x="599.3137651821863" y="477.02943725152284" transform="rotate(45 599.313765 477.029437)">1989</text></g><g class="guides"><path class="major guide line" d="M617.987854 0.000000 v462.029437"/><text class="major" x="617.9878542510121" y="477.02943725152284" transform="rotate(45 617.987854 477.029437)">1991</text></g><g class="guides"><path class="major guide line" d="M624.212551 0.000000 v462.029437"/><text class="major" x="624.2125506072874" y="477.02943725152284" transform="rotate(45 624.212551 477.029437)">1992</text></g></g><g class="series serie-0 color-0"><path class="line reactive nofill" d="M14.192308 286.313282 L20.417004 286.196372 26.641700 286.254827 32.866397 284.325808 39.091093 283.975077 45.315789 285.728731 51.540486 284.033532 57.765182 284.325808 63.989879 284.910359 70.214575 284.734994 76.439271 281.578416 82.663968 284.150442 88.888664 284.208897 95.113360 285.670276 101.338057 284.910359 107.562753 283.975077 113.787449 284.618083 120.012146 283.975077 126.236842 283.799711 132.461538 283.741256 138.686235 282.630608 144.910931 284.559628 151.135628 283.332070 157.360324 284.968814 163.585020 283.799711 169.809717 281.052320 176.034413 280.935409 182.259109 280.233948 188.483806 282.455243 194.708502 283.975077 200.933198 286.137917 207.157895 286.313282 213.382591 287.657751 219.607287 286.664013 225.831984 285.904096 232.056680 286.664013 238.281377 284.559628 244.506073 284.793449 250.730769 285.904096 256.955466 285.202635 263.180162 283.448980 269.404858 279.590941 275.629555 279.064845 281.854251 276.902005 288.078947 277.603466 294.303644 278.304928 300.528340 274.797619 306.753036 271.465676 312.977733 266.555445 319.202429 263.866508 325.427126 267.432272 331.651822 265.912438 337.876518 265.678617 344.101215 264.392604 350.325911 265.152521 356.550607 263.048136 362.775304 264.217239 369.000000 262.872771 375.224696 260.709930 381.449393 266.263169 387.674089 263.574232 393.898785 265.035611 400.123482 270.004298 406.348178 264.860245 412.572874 265.678617 418.797571 259.599283 425.022267 255.039782 431.246964 253.695313 437.471660 258.547090 443.696356 258.605545 449.921053 258.547090 456.145749 261.528302 462.370445 262.580495 468.595142 259.073186 474.819838 258.313270 481.044534 261.703668 487.269231 258.020994 493.493927 261.352937 499.718623 264.100329 505.943320 263.632688 512.168016 264.275694 518.392713 253.286127 524.617409 260.709930 530.842105 269.478202 537.066802 277.778832 543.291498 280.467768 549.516194 287.482385 555.740891 292.158796 561.965587 298.004311 568.190283 289.469860 574.414980 294.204726 580.639676 283.039794 586.864372 290.697418 593.089069 297.536669 599.313765 303.791370 605.538462 304.317466 611.763158 307.883230 617.987854 317.177597 624.212551 304.960472 630.437247 305.428114 636.661943 308.409326 642.886640 301.453164 649.111336 302.797632 655.336032 288.359212 661.560729 248.551261 667.785425 247.499068 674.010121 267.139996 680.234818 259.657738 686.459514 195.941634 692.684211 203.716168 698.908907 202.956251 705.133603 123.866445 711.358300 111.181679 717.582996 8.885181 723.807692 201.787148"/></g><g class="series serie-1 color-1"><path class="line reactive nofill" d="M14.192308 453.144256 L20.417004 301.160888 26.641700 286.547103 32.866397 340.910384 39.091093 339.156730 45.315789 299.231869 51.540486 325.244406 57.765182 316.125404 63.989879 304.668197 70.214575 305.428114 76.439271 330.388459 82.663968 306.188030 88.888664 304.259011 95.113360 291.808066 101.338057 297.536669 107.562753 302.446901 113.787449 297.478214 120.012146 300.050241 126.236842 300.108696 132.461538 299.874875 138.686235 303.732914 144.910931 294.613912 151.135628 299.231869 157.360324 292.041886 163.585020 296.133746 169.809717 304.785107 176.034413 304.375921 182.259109 305.311203 188.483806 297.887400 194.708502 293.386354 200.933198 286.722468 207.157895 286.137917 213.382591 282.338333 219.607287 285.261090 225.831984 287.190109 232.056680 285.319545 238.281377 290.288232 244.506073 289.586770 250.730769 287.073199 256.955466 288.476123 263.180162 291.691155 269.404858 297.595125 275.629555 298.062766 281.854251 300.342516 288.078947 298.998048 294.303644 297.536669 300.528340 301.277799 306.753036 303.966735 312.977733 308.000140 319.202429 309.636884 325.427126 305.954210 331.651822 306.947947 337.876518 306.071120 344.101215 306.188030 350.325911 305.486569 356.550607 306.246486 362.775304 304.726652 369.000000 305.311203 375.224696 305.954210 381.449393 301.686985 387.674089 302.739177 393.898785 301.277799 400.123482 297.770490 406.348178 300.576337 412.572874 299.641055 418.797571 302.563812 425.022267 304.259011 431.246964 304.492831 437.471660 301.803895 443.696356 300.868613 449.921053 300.459427 456.145749 298.881138 462.370445 298.004311 468.595142 298.939593 474.819838 298.881138 481.044534 297.010573 487.269231 297.828945 493.493927 296.426022 499.718623 295.023098 505.943320 294.906188 512.168016 294.380092 518.392713 297.185939 524.617409 294.730823 530.842105 291.808066 537.066802 289.119129 543.291498 288.125392 549.516194 285.904096 555.740891 284.442718 561.965587 282.572153 568.190283 285.378000 574.414980 284.033532 580.639676 287.073199 586.864372 285.202635 593.089069 283.448980 599.313765 281.929147 605.538462 281.987602 611.763158 281.344595 617.987854 279.240210 624.212551 282.747519 630.437247 282.864429 636.661943 282.513698 642.886640 283.975077 649.111336 283.975077 655.336032 286.021007 661.560729 289.703681 667.785425 289.469860 674.010121 287.833116 680.234818 288.242302 686.459514 290.872783 692.684211 289.820591 698.908907 289.236039 705.133603 289.703681 711.358300 288.709943 717.582996 288.183847 723.807692 288.008481"/></g><g class="series serie-2 color-2"><path class="line reactive nofill" d="M14.192308 286.313282 L20.417004 286.313282 26.641700 286.313282 32.866397 286.313282 39.091093 286.313282 45.315789 286.313282 51.540486 286.313282 57.765182 286.313282 63.989879 286.313282 70.214575 286.313282 76.439271 286.313282 82.663968 286.313282 88.888664 286.313282 95.113360 286.313282 101.338057 286.313282 107.562753 286.313282 113.787449 286.313282 120.012146 286.313282 126.236842 286.313282 132.461538 286.313282 138.686235 286.313282 144.910931 286.313282 151.135628 286.313282 157.360324 286.313282 163.585020 286.313282 169.809717 286.313282 176.034413 286.313282 182.259109 286.313282 188.483806 286.313282 194.708502 286.313282 200.933198 286.313282 207.157895 286.313282 213.382591 286.313282 219.607287 286.313282 225.831984 286.313282 232.056680 286.313282 238.281377 286.313282 244.506073 286.313282 250.730769 286.313282 256.955466 286.313282 263.180162 286.313282 269.404858 286.313282 275.629555 286.313282 281.854251 286.313282 288.078947 286.313282 294.303644 286.313282 300.528340 286.313282 306.753036 286.313282 312.977733 286.313282 319.202429 286.313282 325.427126 286.313282 331.651822 286.313282 337.876518 286.313282 344.101215 286.313282 350.325911 286.313282 356.550607 286.313282 362.775304 286.313282 369.000000 286.313282 375.224696 286.313282 381.449393 286.313282 387.674089 286.313282 393.898785 286.313282 400.123482 286.313282 406.348178 286.313282 412.572874 286.313282 418.797571 286.313282 425.022267 286.313282 431.246964 286.313282 437.471660 286.313282 443.696356 286.313282 449.921053 286.313282 456.145749 286.313282 462.370445 286.313282 468.595142 286.313282 474.819838 286.313282 481.044534 286.313282 487.269231 286.313282 493.493927 286.313282 499.718623 286.313282 505.943320 286.313282 512.168016 286.313282 518.392713 286.313282 524.617409 286.313282 530.842105 286.313282 537.066802 286.313282 543.291498 286.313282 549.516194 286.313282 555.740891 286.313282 561.965587 286.313282 568.190283 286.313282 574.414980 286.313282 580.639676 286.313282 586.864372 286.313282 593.089069 286.313282 599.313765 286.313282 605.538462 286.313282 611.763158 286.313282 617.987854 286.313282 624.212551 286.313282 630.437247 286.313282 636.661943 286.313282 642.886640 286.313282 649.111336 286.313282 655.336032 286.313282 661.560729 286.313282 667.785425 286.313282 674.010121 286.313282 680.234818 286.313282 686.459514 286.313282 692.684211 286.313282 698.908907 286.313282 705.133603 286.313282 711.358300 286.313282 717.582996 286.313282 723.807692 286.313282"/></g></g><g class="titles"><text class="title plot_title" x="400.0" y="26">IT Botham: Future and Past Averages in ODIs</text></g><g class="plot overlay" transform="translate(42, 46)"><g class="series serie-0 color-0"><g class="dots"><desc class="label">145 wickets in 115 innings (1033.1 overs)</desc><circle class="dot reactive tooltip-trigger" cx="14.192307692307692" cy="286.31328234538955" r="2.5"/><desc class="value">28.54</desc><desc class="x top">14.192307692307692</desc><desc class="y top">286.31328234538955</desc><desc class="x_label">1976</desc></g><g class="dots"><desc class="label">143 wickets in 113 innings (1027.1 overs)</desc><circle class="dot reactive tooltip-trigger" cx="26.6417004048583" cy="286.2548272040368" r="2.5"/><desc class="value">28.55</desc><desc class="x top">26.6417004048583</desc><desc class="y top">286.2548272040368</desc><desc class="x_label">1977</desc></g><g class="dots"><desc class="label">139 wickets in 111 innings (1013.0 overs)</desc><circle class="dot reactive tooltip-trigger" cx="39.09109311740891" cy="283.9750766912826" r="2.5"/><desc class="value">28.94</desc><desc class="x top">39.09109311740891</desc><desc class="y top">283.9750766912826</desc><desc class="x_label">1978</desc></g><g class="dots"><desc class="label">134 wickets in 106 innings (969.0 overs)</desc><circle class="dot reactive tooltip-trigger" cx="70.21457489878541" cy="284.73499352886734" r="2.5"/><desc class="value">28.81</desc><desc class="x top">70.21457489878541</desc><desc class="y top">284.73499352886734</desc><desc class="x_label">1979</desc></g><g class="dots"><desc class="label">118 wickets in 93 innings (852.2 overs)</desc><circle class="dot reactive tooltip-trigger" cx="151.13562753036433" cy="283.3320701364032" r="2.5"/><desc class="value">29.05</desc><desc class="x top">151.13562753036433</desc><desc class="y top">283.3320701364032</desc><desc class="x_label">1980</desc></g><g class="dots"><desc class="label">109 wickets in 85 innings (773.2 overs)</desc><circle class="dot reactive tooltip-trigger" cx="200.93319838056678" cy="286.1379169213315" r="2.5"/><desc class="value">28.57</desc><desc class="x top">200.93319838056678</desc><desc class="y top">286.1379169213315</desc><desc class="x_label">1981</desc></g><g class="dots"><desc class="label">100 wickets in 78 innings (708.2 overs)</desc><circle class="dot reactive tooltip-trigger" cx="244.50607287449395" cy="284.7934486702201" r="2.5"/><desc class="value">28.8</desc><desc class="x top">244.50607287449395</desc><desc class="y top">284.7934486702201</desc><desc class="x_label">1982</desc></g><g class="dots"><desc class="label">86 wickets in 71 innings (642.4 overs)</desc><circle class="dot reactive tooltip-trigger" cx="288.07894736842104" cy="277.60346628384127" r="2.5"/><desc class="value">30.03</desc><desc class="x top">288.07894736842104</desc><desc class="y top">277.60346628384127</desc><desc class="x_label">1983</desc></g><g class="dots"><desc class="label">57 wickets in 51 innings (474.2 overs)</desc><circle class="dot reactive tooltip-trigger" cx="412.5728744939271" cy="265.6786174478961" r="2.5"/><desc class="value">32.07</desc><desc class="x left top">412.5728744939271</desc><desc class="y left top">265.6786174478961</desc><desc class="x_label">1984</desc></g><g class="dots"><desc class="label">49 wickets in 44 innings (418.1 overs)</desc><circle class="dot reactive tooltip-trigger" cx="456.1457489878543" cy="261.5283024118564" r="2.5"/><desc class="value">32.78</desc><desc class="x left top">456.1457489878543</desc><desc class="y left top">261.5283024118564</desc><desc class="x_label">1985</desc></g><g class="dots"><desc class="label">45 wickets in 41 innings (389.1 overs)</desc><circle class="dot reactive tooltip-trigger" cx="474.81983805668017" cy="258.3132696374594" r="2.5"/><desc class="value">33.33</desc><desc class="x left top">474.81983805668017</desc><desc class="y left top">258.3132696374594</desc><desc class="x_label">1986</desc></g><g class="dots"><desc class="label">42 wickets in 38 innings (367.1 overs)</desc><circle class="dot reactive tooltip-trigger" cx="493.4939271255061" cy="261.35293698779833" r="2.5"/><desc class="value">32.81</desc><desc class="x left top">493.4939271255061</desc><desc class="y left top">261.35293698779833</desc><desc class="x_label">1987</desc></g><g class="dots"><desc class="label">29 wickets in 21 innings (199.1 overs)</desc><circle class="dot reactive tooltip-trigger" cx="599.3137651821863" cy="303.79136960983857" r="2.5"/><desc class="value">25.55</desc><desc class="x left top">599.3137651821863</desc><desc class="y left top">303.79136960983857</desc><desc class="x_label">1989</desc></g><g class="dots"><desc class="label">27 wickets in 18 innings (167.0 overs)</desc><circle class="dot reactive tooltip-trigger" cx="617.9878542510121" cy="317.17759697960054" r="2.5"/><desc class="value">23.26</desc><desc class="x left top">617.9878542510121</desc><desc class="y left top">317.17759697960054</desc><desc class="x_label">1991</desc></g><g class="dots"><desc class="label">23 wickets in 17 innings (156.0 overs)</desc><circle class="dot reactive tooltip-trigger" cx="624.2125506072874" cy="304.960472436892" r="2.5"/><desc class="value">25.35</desc><desc class="x left top">624.2125506072874</desc><desc class="y left top">304.960472436892</desc><desc class="x_label">1992</desc></g></g><g class="series serie-1 color-1"><g class="dots"><desc class="label">0 wickets over 0 innings</desc><circle class="dot reactive tooltip-trigger" cx="14.192307692307692" cy="453.1442557659166" r="2.5"/><desc class="value">0</desc><desc class="x top">14.192307692307692</desc><desc class="y top">453.1442557659166</desc><desc class="x_label">1976</desc></g><g class="dots"><desc class="label">2 wickets in 2 innings (6.0 overs)</desc><circle class="dot reactive tooltip-trigger" cx="26.6417004048583" cy="286.5471029108002" r="2.5"/><desc class="value">28.5</desc><desc class="x top">26.6417004048583</desc><desc class="y top">286.5471029108002</desc><desc class="x_label">1977</desc></g><g class="dots"><desc class="label">6 wickets in 4 innings (20.1 overs)</desc><circle class="dot reactive tooltip-trigger" cx="39.09109311740891" cy="339.15673012820537" r="2.5"/><desc class="value">19.5</desc><desc class="x top">39.09109311740891</desc><desc class="y top">339.15673012820537</desc><desc class="x_label">1978</desc></g><g class="dots"><desc class="label">11 wickets in 9 innings (64.1 overs)</desc><circle class="dot reactive tooltip-trigger" cx="70.21457489878541" cy="305.42811356771335" r="2.5"/><desc class="value">25.27</desc><desc class="x top">70.21457489878541</desc><desc class="y top">305.42811356771335</desc><desc class="x_label">1979</desc></g><g class="dots"><desc class="label">27 wickets in 22 innings (180.5 overs)</desc><circle class="dot reactive tooltip-trigger" cx="151.13562753036433" cy="299.23186858433013" r="2.5"/><desc class="value">26.33</desc><desc class="x top">151.13562753036433</desc><desc class="y top">299.23186858433013</desc><desc class="x_label">1980</desc></g><g class="dots"><desc class="label">36 wickets in 30 innings (259.5 overs)</desc><circle class="dot reactive tooltip-trigger" cx="200.93319838056678" cy="286.72246833485826" r="2.5"/><desc class="value">28.47</desc><desc class="x top">200.93319838056678</desc><desc class="y top">286.72246833485826</desc><desc class="x_label">1981</desc></g><g class="dots"><desc class="label">45 wickets in 37 innings (324.5 overs)</desc><circle class="dot reactive tooltip-trigger" cx="244.50607287449395" cy="289.5867702611392" r="2.5"/><desc class="value">27.98</desc><desc class="x top">244.50607287449395</desc><desc class="y top">289.5867702611392</desc><desc class="x_label">1982</desc></g><g class="dots"><desc class="label">59 wickets in 44 innings (390.3 overs)</desc><circle class="dot reactive tooltip-trigger" cx="288.07894736842104" cy="298.99804801891946" r="2.5"/><desc class="value">26.37</desc><desc class="x top">288.07894736842104</desc><desc class="y top">298.99804801891946</desc><desc class="x_label">1983</desc></g><g class="dots"><desc class="label">88 wickets in 64 innings (558.5 overs)</desc><circle class="dot reactive tooltip-trigger" cx="412.5728744939271" cy="299.64105457379884" r="2.5"/><desc class="value">26.26</desc><desc class="x left top">412.5728744939271</desc><desc class="y left top">299.64105457379884</desc><desc class="x_label">1984</desc></g><g class="dots"><desc class="label">96 wickets in 71 innings (615.0 overs)</desc><circle class="dot reactive tooltip-trigger" cx="456.1457489878543" cy="298.8811377362141" r="2.5"/><desc class="value">26.39</desc><desc class="x left top">456.1457489878543</desc><desc class="y left top">298.8811377362141</desc><desc class="x_label">1985</desc></g><g class="dots"><desc class="label">100 wickets in 74 innings (644.0 overs)</desc><circle class="dot reactive tooltip-trigger" cx="474.81983805668017" cy="298.8811377362141" r="2.5"/><desc class="value">26.39</desc><desc class="x left top">474.81983805668017</desc><desc class="y left top">298.8811377362141</desc><desc class="x_label">1986</desc></g><g class="dots"><desc class="label">103 wickets in 77 innings (666.0 overs)</desc><circle class="dot reactive tooltip-trigger" cx="493.4939271255061" cy="296.42602179940184" r="2.5"/><desc class="value">26.81</desc><desc class="x left top">493.4939271255061</desc><desc class="y left top">296.42602179940184</desc><desc class="x_label">1987</desc></g><g class="dots"><desc class="label">116 wickets in 94 innings (834.0 overs)</desc><circle class="dot reactive tooltip-trigger" cx="599.3137651821863" cy="281.9291467439391" r="2.5"/><desc class="value">29.29</desc><desc class="x left top">599.3137651821863</desc><desc class="y left top">281.9291467439391</desc><desc class="x_label">1989</desc></g><g class="dots"><desc class="label">118 wickets in 97 innings (866.1 overs)</desc><circle class="dot reactive tooltip-trigger" cx="617.9878542510121" cy="279.24021024171617" r="2.5"/><desc class="value">29.75</desc><desc class="x left top">617.9878542510121</desc><desc class="y left top">279.24021024171617</desc><desc class="x_label">1991</desc></g><g class="dots"><desc class="label">122 wickets in 98 innings (877.1 overs)</desc><circle class="dot reactive tooltip-trigger" cx="624.2125506072874" cy="282.7475187228765" r="2.5"/><desc class="value">29.15</desc><desc class="x left top">624.2125506072874</desc><desc class="y left top">282.7475187228765</desc><desc class="x_label">1992</desc></g></g><g class="series serie-2 color-2"/></g><g class="plot text-overlay" transform="translate(42, 46)"><g class="series serie-0 color-0"/><g class="series serie-1 color-1"/><g class="series serie-2 color-2"/></g><g class="plot tooltip-overlay" transform="translate(42, 46)"><g class="tooltip" style="opacity: 0" transform="translate(0 0)"><rect class="tooltip-box" height="0" rx="10" ry="10" width="0"/><g class="text"/></g></g><g class="legends" transform="translate(52, 545)"><g class="legend reactive activate-serie" id="activate-serie-0"><rect class="color-0 reactive" height="12" width="12" x="0.0" y="1.0"/><text x="17.0" y="11.2">Future Average</text></g><g class="legend reactive activate-serie" id="activate-serie-1"><rect class="color-1 reactive" height="12" width="12" x="369.0" y="1.0"/><text x="386.0" y="11.2">Past Average</text></g><g class="legend reactive activate-serie" id="activate-serie-2"><rect class="color-2 reactive" height="12" width="12" x="0.0" y="22.0"/><text x="17.0" y="32.2">Career Average</text></g></g></g></svg>