<?xml version='1.0' encoding='utf-8'?>
<svg xmlns:xlink="http://www.w3.org/1999/xlink" xmlns="http://www.w3.org/2000/svg" id="chart-77653386-84df-45f3-b2c4-4958731f4efb" class="pygal-chart" viewBox="0 0 800 600"><!--Generated with pygal 2.4.0 (lxml) ©Kozea 2012-2016 on 2019-08-04--><!--http://pygal.org--><!--http://github.com/Kozea/pygal--><defs><style type="text/css">#chart-77653386-84df-45f3-b2c4-4958731f4efb{-webkit-user-select:none;-webkit-font-smoothing:antialiased;font-family:Consolas,"Liberation Mono",Menlo,Courier,monospace}#chart-77653386-84df-45f3-b2c4-4958731f4efb .title{font-family:Consolas,"Liberation Mono",Menlo,Courier,monospace;font-size:16px}#chart-77653386-84df-45f3-b2c4-4958731f4efb .legends .legend text{font-family:Consolas,"Liberation Mono",Menlo,Courier,monospace;font-size:14px}#chart-77653386-84df-45f3-b2c4-4958731f4efb .axis text{font-family:Consolas,"Liberation Mono",Menlo,Courier,monospace;font-size:10px}#chart-77653386-84df-45f3-b2c4-4958731f4efb .axis text.major{font-family:Consolas,"Liberation Mono",Menlo,Courier,monospace;font-size:10px}#chart-77653386-84df-45f3-b2c4-4958731f4efb .text-overlay text.value{font-family:Consolas,"Liberation Mono",Menlo,Courier,monospace;font-size:16px}#chart-77653386-84df-45f3-b2c4-4958731f4efb .text-overlay text.label{font-family:Consolas,"Liberation Mono",Menlo,Courier,monospace;font-size:10px}#chart-77653386-84df-45f3-b2c4-4958731f4efb .tooltip{font-family:Consolas,"Liberation Mono",Menlo,Courier,monospace;font-size:14px}#chart-77653386-84df-45f3-b2c4-4958731f4efb text.no_data{font-family:Consolas,"Liberation Mono",Menlo,Courier,monospace;font-size:64px}
#chart-77653386-84df-45f3-b2c4-4958731f4efb{background-color:rgba(249,249,249,1)}#chart-77653386-84df-45f3-b2c4-4958731f4efb path,#chart-77653386-84df-45f3-b2c4-4958731f4efb line,#chart-77653386-84df-45f3-b2c4-4958731f4efb rect,#chart-77653386-84df-45f3-b2c4-4958731f4efb circle{-webkit-transition:150ms;-moz-transition:150ms;transition:150ms}#chart-77653386-84df-45f3-b2c4-4958731f4efb .graph &gt; .background{fill:rgba(249,249,249,1)}#chart-77653386-84df-45f3-b2c4-4958731f4efb .plot &gt; .background{fill:rgba(255,255,255,1)}#chart-77653386-84df-45f3-b2c4-4958731f4efb .graph{fill:rgba(0,0,0,.87)}#chart-77653386-84df-45f3-b2c4-4958731f4efb text.no_data{fill:rgba(0,0,0,1)}#chart-77653386-84df-45f3-b2c4-4958731f4efb .title{fill:rgba(0,0,0,1)}#chart-77653386-84df-45f3-b2c4-4958731f4efb .legends .legend text{fill:rgba(0,0,0,.87)}#chart-77653386-84df-45f3-b2c4-4958731f4efb .legends .legend:hover text{fill:rgba(0,0,0,1)}#chart-77653386-84df-45f3-b2c4-4958731f4efb .axis .line{stroke:rgba(0,0,0,1)}#chart-77653386-84df-45f3-b2c4-4958731f4efb .axis .guide.line{stroke:rgba(0,0,0,.54)}#chart-77653386-84df-45f3-b2c4-4958731f4efb .axis .major.line{stroke:rgba(0,0,0,.87)}#chart-77653386-84df-45f3-b2c4-4958731f4efb .axis text.major{fill:rgba(0,0,0,1)}#chart-77653386-84df-45f3-b2c4-4958731f4efb .axis.y .guides:hover .guide.line,#chart-77653386-84df-45f3-b2c4-4958731f4efb .line-graph .axis.x .guides:hover .guide.line,#chart-77653386-84df-45f3-b2c4-4958731f4efb .stackedline-graph .axis.x .guides:hover .guide.line,#chart-77653386-84df-45f3-b2c4-4958731f4efb .xy-graph .axis.x .guides:hover .guide.line{stroke:rgba(0,0,0,1)}#chart-77653386-84df-45f3-b2c4-4958731f4efb .axis .guides:hover text{fill:rgba(0,0,0,1)}#chart-77653386-84df-45f3-b2c4-4958731f4efb .reactive{fill-opacity:.7;stroke-opacity:.8}#chart-77653386-84df-45f3-b2c4-4958731f4efb .ci{stroke:rgba(0,0,0,.87)}#chart-77653386-84df-45f3-b2c4-4958731f4efb .reactive.active,#chart-77653386-84df-45f3-b2c4-4958731f4efb .active .reactive{fill-opacity:.8;stroke-opacity:.9;stroke-width:4}#chart-77653386-84df-45f3-b2c4-4958731f4efb .ci .reactive.active{stroke-width:1.5}#chart-77653386-84df-45f3-b2c4-4958731f4efb .series text{fill:rgba(0,0,0,1)}#chart-77653386-84df-45f3-b2c4-4958731f4efb .tooltip rect{fill:rgba(255,255,255,1);stroke:rgba(0,0,0,1);-webkit-transition:opacity 150ms;-moz-transition:opacity 150ms;transition:opacity 150ms}#chart-77653386-84df-45f3-b2c4-4958731f4efb .tooltip .label{fill:rgba(0,0,0,.87)}#chart-77653386-84df-45f3-b2c4-4958731f4efb .tooltip .label{fill:rgba(0,0,0,.87)}#chart-77653386-84df-45f3-b2c4-4958731f4efb .tooltip .legend{font-size:.8em;fill:rgba(0,0,0,.54)}#chart-77653386-84df-45f3-b2c4-4958731f4efb .tooltip .x_label{font-size:.6em;fill:rgba(0,0,0,1)}#chart-77653386-84df-45f3-b2c4-4958731f4efb .tooltip .xlink{font-size:.5em;text-decoration:underline}#chart-77653386-84df-45f3-b2c4-4958731f4efb .tooltip .value{font-size:1.5em}#chart-77653386-84df-45f3-b2c4-4958731f4efb .bound{font-size:.5em}#chart-77653386-84df-45f3-b2c4-4958731f4efb .max-value{font-size:.75em;fill:rgba(0,0,0,.54)}#chart-77653386-84df-45f3-b2c4-4958731f4efb .map-element{fill:rgba(255,255,255,1);stroke:rgba(0,0,0,.54) !important}#chart-77653386-84df-45f3-b2c4-4958731f4efb .map-element .reactive{fill-opacity:inherit;stroke-opacity:inherit}#chart-77653386-84df-45f3-b2c4-4958731f4efb .color-0,#chart-77653386-84df-45f3-b2c4-4958731f4efb .color-0 a:visited{stroke:red;fill:red}#chart-77653386-84df-45f3-b2c4-4958731f4efb .color-1,#chart-77653386-84df-45f3-b2c4-4958731f4efb .color-1 a:visited{stroke:blue;fill:blue}#chart-77653386-84df-45f3-b2c4-4958731f4efb .color-2,#chart-77653386-84df-45f3-b2c4-4958731f4efb .color-2 a:visited{stroke:green;fill:green}#chart-77653386-84df-45f3-b2c4-4958731f4efb .text-overlay .color-0 text{fill:white}#chart-77653386-84df-45f3-b2c4-4958731f4efb .text-overlay .color-1 text{fill:white}#chart-77653386-84df-45f3-b2c4-4958731f4efb .text-overlay .color-2 text{fill:white}
#chart-77653386-84df-45f3-b2c4-4958731f4efb text.no_data{text-anchor:middle}#chart-77653386-84df-45f3-b2c4-4958731f4efb .guide.line{fill:none}#chart-77653386-84df-45f3-b2c4-4958731f4efb .centered{text-anchor:middle}#chart-77653386-84df-45f3-b2c4-4958731f4efb .title{text-anchor:middle}#chart-77653386-84df-45f3-b2c4-4958731f4efb .legends .legend text{fill-opacity:1}#chart-77653386-84df-45f3-b2c4-4958731f4efb .axis.x text{text-anchor:middle}#chart-77653386-84df-45f3-b2c4-4958731f4efb .axis.x:not(.web) text[transform]{text-anchor:start}#chart-77653386-84df-45f3-b2c4-4958731f4efb .axis.x:not(.web) text[transform].backwards{text-anchor:end}#chart-77653386-84df-45f3-b2c4-4958731f4efb .axis.y text{text-anchor:end}#chart-77653386-84df-45f3-b2c4-4958731f4efb .axis.y text[transform].backwards{text-anchor:start}#chart-77653386-84df-45f3-b2c4-4958731f4efb .axis.y2 text{text-anchor:start}#chart-77653386-84df-45f3-b2c4-4958731f4efb .axis.y2 text[transform].backwards{text-anchor:end}#chart-77653386-84df-45f3-b2c4-4958731f4efb .axis .guide.line{stroke-dasharray:4,4}#chart-77653386-84df-45f3-b2c4-4958731f4efb .axis .major.guide.line{stroke-dasharray:6,6}#chart-77653386-84df-45f3-b2c4-4958731f4efb .horizontal .axis.y .guide.line,#chart-77653386-84df-45f3-b2c4-4958731f4efb .horizontal .axis.y2 .guide.line,#chart-77653386-84df-45f3-b2c4-4958731f4efb .vertical .axis.x .guide.line{opacity:0}#chart-77653386-84df-45f3-b2c4-4958731f4efb .horizontal .axis.always_show .guide.line,#chart-77653386-84df-45f3-b2c4-4958731f4efb .vertical .axis.always_show .guide.line{opacity:1 !important}#chart-77653386-84df-45f3-b2c4-4958731f4efb .axis.y .guides:hover .guide.line,#chart-77653386-84df-45f3-b2c4-4958731f4efb .axis.y2 .guides:hover .guide.line,#chart-77653386-84df-45f3-b2c4-4958731f4efb .axis.x .guides:hover .guide.line{opacity:1}#chart-77653386-84df-45f3-b2c4-4958731f4efb .axis .guides:hover text{opacity:1}#chart-77653386-84df-45f3-b2c4-4958731f4efb .nofill{fill:none}#chart-77653386-84df-45f3-b2c4-4958731f4efb .subtle-fill{fill-opacity:.2}#chart-77653386-84df-45f3-b2c4-4958731f4efb .dot{stroke-width:1px;fill-opacity:1}#chart-77653386-84df-45f3-b2c4-4958731f4efb .dot.active{stroke-width:5px}#chart-77653386-84df-45f3-b2c4-4958731f4efb .dot.negative{fill:transparent}#chart-77653386-84df-45f3-b2c4-4958731f4efb text,#chart-77653386-84df-45f3-b2c4-4958731f4efb tspan{stroke:none !important}#chart-77653386-84df-45f3-b2c4-4958731f4efb .series text.active{opacity:1}#chart-77653386-84df-45f3-b2c4-4958731f4efb .tooltip rect{fill-opacity:.95;stroke-width:.5}#chart-77653386-84df-45f3-b2c4-4958731f4efb .tooltip text{fill-opacity:1}#chart-77653386-84df-45f3-b2c4-4958731f4efb .showable{visibility:hidden}#chart-77653386-84df-45f3-b2c4-4958731f4efb .showable.shown{visibility:visible}#chart-77653386-84df-45f3-b2c4-4958731f4efb .gauge-background{fill:rgba(229,229,229,1);stroke:none}#chart-77653386-84df-45f3-b2c4-4958731f4efb .bg-lines{stroke:rgba(249,249,249,1);stroke-width:2px}</style><script type="text/javascript">window.pygal = window.pygal || {};window.pygal.config = window.pygal.config || {};window.pygal.config['77653386-84df-45f3-b2c4-4958731f4efb'] = {"allow_interruptions": false, "box_mode": "extremes", "classes": ["pygal-chart"], "css": ["file://style.css", "file://graph.css"], "defs": [], "disable_xml_declaration": false, "dots_size": 2.5, "dynamic_print_values": false, "explicit_size": false, "fill": false, "force_uri_protocol": "https", "formatter": null, "half_pie": false, "height": 600, "include_x_axis": false, "inner_radius": 0, "interpolate": null, "interpolation_parameters": {}, "interpolation_precision": 250, "inverse_y_axis": false, "js": ["//kozea.github.io/pygal.js/2.0.x/pygal-tooltips.min.js"], "legend_at_bottom": true, "legend_at_bottom_columns": null, "legend_box_size": 12, "logarithmic": false, "margin": 20, "margin_bottom": null, "margin_left": null, "margin_right": null, "margin_top": null, "max_scale": 16, "min_scale": 4, "missing_value_fill_truncation": "x", "no_data_text": "No data", "no_prefix": false, "order_min": null, "pretty_print": false, "print_labels": false, "print_values": false, "print_values_position": "center", "print_zeroes": true, "range": null, "rounded_bars": null, "secondary_range": null, "show_dots": true, "show_legend": true, "show_minor_x_labels": false, "show_minor_y_labels": true, "show_only_major_dots": false, "show_x_guides": false, "show_x_labels": true, "show_y_guides": true, "show_y_labels": true, "spacing": 10, "stack_from_top": false, "strict": false, "stroke": true, "stroke_style": null, "style": {"background": "rgba(249, 249, 249, 1)", "ci_colors": [], "colors": ["red", "blue", "green", "#a3a3a3"], "font_family": "Consolas, \"Liberation Mono\", Menlo, Courier, monospace", "foreground": "rgba(0, 0, 0, .87)", "foreground_strong": "rgba(0, 0, 0, 1)", "foreground_subtle": "rgba(0, 0, 0, .54)", "guide_stroke_dasharray": "4,4", "label_font_family": "Consolas, \"Liberation Mono\", Menlo, Courier, monospace", "label_font_size": 10, "legend_font_family": "Consolas, \"Liberation Mono\", Menlo, Courier, monospace", "legend_font_size": 14, "major_guide_stroke_dasharray": "6,6", "major_label_font_family": "Consolas, \"Liberation Mono\", Menlo, Courier, monospace", "major_label_font_size": 10, "no_data_font_family": "Consolas, \"Liberation Mono\", Menlo, Courier, monospace", "no_data_font_size": 64, "opacity": ".7", "opacity_hover": ".8", "plot_background": "rgba(255, 255, 255, 1)", "stroke_opacity": ".8", "stroke_opacity_hover": ".9", "title_font_family": "Consolas, \"Liberation Mono\", Menlo, Courier, monospace", "title_font_size": 16, "tooltip_font_family": "Consolas, \"Liberation Mono\", Menlo, Courier, monospace", "tooltip_font_size": 14, "transition": "150ms", "value_background": "rgba(229, 229, 229, 1)", "value_colors": [], "value_font_family": "Consolas, \"Liberation Mono\", Menlo, Courier, monospace", "value_font_size": 16, "value_label_font_family": "Consolas, \"Liberation Mono\", Menlo, Courier, monospace", "value_label_font_size": 10}, "title": "IVA Richards: Future and Past Averages in ODIs", "tooltip_border_radius": 10, "tooltip_fancy_mode": true, "truncate_label": null, "truncate_legend": null, "width": 800, "x_label_rotation": 45, "x_labels": ["1975", "0", "0", "1976", "1978", "1979", "0", "0", "0", "0", "1980", "0", "0", "0", "0", "0", "0", "0", "1981", "0", "0", "0", "0", "1982", "0", "0", "0", "0", "0", "1983", "0", "0", "0", "0", "0", "0", "0", "1984", "0", "0", "0", "0", "0", "0", "0", "0", "0", "0", "0", "0", "0", "0", "0", "1985", "0", "0", "0", "0", "0", "0", "0", "0", "0", "0", "0", "0", "0", "0", "0", "0", "0", "0", "0", "0", "1986", "0", "1987", "0", "0", "0", "0", "0", "0", "0", "0", "0", "0", "0", "0", "0", "0", "0", "1988", "0", "0", "0", "0", "0", "0", "0", "0", "0", "0", "0", "0", "1989", "0", "0", "0", "0", "0", "0", "0", "0", "0", "0", "0", "0", "0", "0", "0", "0", "0", "0", "0", "0", "1990", "1991", "0", "0", "0"], "x_labels_major": ["1975", "1976", "1978", "1979", "1980", "1981", "1982", "1983", "1984", "1985", "1986", "1987", "1988", "1989", "1990", "1991"], "x_labels_major_count": null, "x_labels_major_every": null, "x_title": null, "xrange": null, "y_label_rotation": 0, "y_labels": null, "y_labels_major": null, "y_labels_major_count": null, "y_labels_major_every": null, "y_title": null, "zero": 270.0, "legends": ["Future Average", "Past Average", "Career Average"]}</script><script type="text/javascript" xlink:href="https://kozea.github.io/pygal.js/2.0.x/pygal-tooltips.min.js"/></defs><title>IVA Richards: Future and Past Averages in ODIs</title><g class="graph line-graph vertical"><rect class="background" height="600" width="800" x="0" y="0"/><g class="plot" transform="translate(48, 46)"><rect class="background" height="462.02943725152284" width="732.0" x="0" y="0"/><g class="axis y always_show"><g class="guides"><path class="axis major line" d="M0.000000 453.144256 h732.000000"/><text class="major" x="-5" y="456.6442557659166">0</text><title>0</title></g><g class="guides"><path class="guide line" d="M0.000000 419.101415 h732.000000"/><text class="" x="-5" y="422.60141482489666">20</text><title>20</title></g><g class="guides"><path class="guide line" d="M0.000000 385.058574 h732.000000"/><text class="" x="-5" y="388.55857388387676">40</text><title>40</title></g><g class="guides"><path class="guide line" d="M0.000000 351.015733 h732.000000"/><text class="" x="-5" y="354.5157329428568">60</text><title>60</title></g><g class="guides"><path class="guide line" d="M0.000000 316.972892 h732.000000"/><text class="" x="-5" y="320.47289200183684">80</text><title>80</title></g><g class="guides"><path class="major guide line" d="M0.000000 282.930051 h732.000000"/><text class="major" x="-5" y="286.43005106081694">100</text><title>100</title></g><g class="guides"><path class="guide line" d="M0.000000 248.887210 h732.000000"/><text class="" x="-5" y="252.38721011979695">120</text><title>120</title></g><g class="guides"><path class="guide line" d="M0.000000 214.844369 h732.000000"/><text class="" x="-5" y="218.344369178777">140</text><title>140</title></g><g class="guides"><path class="guide line" d="M0.000000 180.801528 h732.000000"/><text class="" x="-5" y="184.30152823775705">160</text><title>160</title></g><g class="guides"><path class="guide line" d="M0.000000 146.758687 h732.000000"/><text class="" x="-5" y="150.2586872967371">180</text><title>180</title></g><g class="guides"><path class="major guide line" d="M0.000000 112.715846 h732.000000"/><text class="major" x="-5" y="116.21584635571713">200</text><title>200</title></g><g class="guides"><path class="guide line" d="M0.000000 78.673005 h732.000000"/><text class="" x="-5" y="82.17300541469717">220</text><title>220</title></g><g class="guides"><path class="guide line" d="M0.000000 44.630164 h732.000000"/><text class="" x="-5" y="48.13016447367721">240</text><title>240</title></g><g class="guides"><path class="guide line" d="M0.000000 10.587324 h732.000000"/><text class="" x="-5" y="14.087323532657251">260</text><title>260</title></g></g><g class="axis x"><g class="guides"><path class="major line" d="M14.076923 0.000000 v462.029437"/><text class="major" x="14.076923076923077" y="477.02943725152284" transform="rotate(45 14.076923 477.029437)">1975</text></g><g class="guides"><path class="major guide line" d="M30.319527 0.000000 v462.029437"/><text class="major" x="30.319526627218938" y="477.02943725152284" transform="rotate(45 30.319527 477.029437)">1976</text></g><g class="guides"><path class="major guide line" d="M35.733728 0.000000 v462.029437"/><text class="major" x="35.73372781065089" y="477.02943725152284" transform="rotate(45 35.733728 477.029437)">1978</text></g><g class="guides"><path class="major guide line" d="M41.147929 0.000000 v462.029437"/><text class="major" x="41.14792899408285" y="477.02943725152284" transform="rotate(45 41.147929 477.029437)">1979</text></g><g class="guides"><path class="major guide line" d="M68.218935 0.000000 v462.029437"/><text class="major" x="68.2189349112426" y="477.02943725152284" transform="rotate(45 68.218935 477.029437)">1980</text></g><g class="guides"><path class="major guide line" d="M111.532544 0.000000 v462.029437"/><text class="major" x="111.53254437869822" y="477.02943725152284" transform="rotate(45 111.532544 477.029437)">1981</text></g><g class="guides"><path class="major guide line" d="M138.603550 0.000000 v462.029437"/><text class="major" x="138.60355029585799" y="477.02943725152284" transform="rotate(45 138.603550 477.029437)">1982</text></g><g class="guides"><path class="major guide line" d="M171.088757 0.000000 v462.029437"/><text class="major" x="171.0887573964497" y="477.02943725152284" transform="rotate(45 171.088757 477.029437)">1983</text></g><g class="guides"><path class="major guide line" d="M214.402367 0.000000 v462.029437"/><text class="major" x="214.4023668639053" y="477.02943725152284" transform="rotate(45 214.402367 477.029437)">1984</text></g><g class="guides"><path class="major guide line" d="M301.029586 0.000000 v462.029437"/><text class="major" x="301.0295857988166" y="477.02943725152284" transform="rotate(45 301.029586 477.029437)">1985</text></g><g class="guides"><path class="major guide line" d="M414.727811 0.000000 v462.029437"/><text class="major" x="414.72781065088753" y="477.02943725152284" transform="rotate(45 414.727811 477.029437)">1986</text></g><g class="guides"><path class="major guide line" d="M425.556213 0.000000 v462.029437"/><text class="major" x="425.5562130177515" y="477.02943725152284" transform="rotate(45 425.556213 477.029437)">1987</text></g><g class="guides"><path class="major guide line" d="M512.183432 0.000000 v462.029437"/><text class="major" x="512.1834319526627" y="477.02943725152284" transform="rotate(45 512.183432 477.029437)">1988</text></g><g class="guides"><path class="major guide line" d="M582.568047 0.000000 v462.029437"/><text class="major" x="582.5680473372781" y="477.02943725152284" transform="rotate(45 582.568047 477.029437)">1989</text></g><g class="guides"><path class="major guide line" d="M696.266272 0.000000 v462.029437"/><text class="major" x="696.266272189349" y="477.02943725152284" transform="rotate(45 696.266272 477.029437)">1990</text></g><g class="guides"><path class="major guide line" d="M701.680473 0.000000 v462.029437"/><text class="major" x="701.6804733727811" y="477.02943725152284" transform="rotate(45 701.680473 477.029437)">1991</text></g></g><g class="series serie-0 color-0"><path class="line reactive nofill" d="M14.076923 392.156506 L19.491124 391.935228 24.905325 391.135221 30.319527 391.288414 35.733728 390.811814 41.147929 390.982028 46.562130 390.096914 51.976331 390.641600 57.390533 390.233086 62.804734 390.199043 68.218935 390.896921 73.633136 391.611821 79.047337 392.156506 84.461538 392.445870 89.875740 392.684170 95.289941 393.126727 100.704142 392.377785 106.118343 392.071399 111.532544 392.360763 116.946746 392.207570 122.360947 393.075663 127.775148 393.058642 133.189349 392.122463 138.603550 392.258635 144.017751 392.803320 149.431953 393.518220 154.846154 393.824605 160.260355 393.211834 165.674556 393.092684 171.088757 392.667149 176.502959 392.837363 181.917160 393.075663 187.331361 393.330984 192.745562 392.054378 198.159763 392.411828 203.573964 392.565020 208.988166 392.735235 214.402367 391.969271 219.816568 391.730971 225.230769 392.258635 230.644970 391.526714 236.059172 391.628842 241.473373 392.139485 246.887574 391.696928 252.301775 392.343742 257.715976 391.373521 263.130178 391.918206 268.544379 392.156506 273.958580 392.803320 279.372781 393.382048 284.786982 393.450134 290.201183 394.028862 295.615385 393.450134 301.029586 393.994820 306.443787 394.845891 311.857988 394.335248 317.272189 393.739498 322.686391 392.020335 328.100592 392.156506 333.514793 391.373521 338.928994 392.599063 344.343195 393.654391 349.757396 393.007577 355.171598 394.624612 360.585799 396.054412 366.000000 396.582076 371.414201 394.403334 376.828402 394.828869 382.242604 395.509726 387.656805 395.084191 393.071006 396.037390 398.485207 396.786333 403.899408 397.279954 409.313609 396.445904 414.727811 396.718247 420.142012 396.820375 425.556213 396.531011 430.970414 396.684204 436.384615 396.496968 441.798817 396.718247 447.213018 396.326754 452.627219 396.837397 458.041420 394.403334 463.455621 389.313929 468.869822 386.062838 474.284024 387.594766 479.698225 388.496901 485.112426 388.922436 490.526627 389.620315 495.940828 389.399036 501.355030 391.305435 506.769231 391.424585 512.183432 391.458628 517.597633 390.301171 523.011834 386.760716 528.426036 386.964973 533.840237 388.616051 539.254438 386.250073 544.668639 383.901117 550.082840 385.722409 555.497041 387.492637 560.911243 389.501165 566.325444 392.105442 571.739645 394.913976 577.153846 396.224626 582.568047 394.930998 587.982249 396.360797 593.396450 396.054412 598.810651 397.535275 604.224852 397.960811 609.639053 401.365095 615.053254 400.003381 620.467456 396.037390 625.881657 386.233052 631.295858 382.386211 636.710059 383.220260 642.124260 369.228653 647.538462 357.620044 652.952663 355.628538 658.366864 365.364790 663.781065 357.262594 669.195266 367.475447 674.609467 8.885181 680.023669 73.566579 685.437870 148.460829 690.852071 184.205812 696.266272 255.695778 701.680473 310.164324 707.094675 373.143580 712.508876 379.952148 717.923077 429.314267"/></g><g class="series serie-1 color-1"><path class="line reactive nofill" d="M14.076923 453.144256 L19.491124 417.399273 24.905325 431.016409 30.319527 425.348276 35.733728 430.590874 41.147929 425.484448 46.562130 424.701462 51.976331 416.190752 57.390533 415.509895 62.804734 413.314132 68.218935 405.824707 73.633136 397.994853 79.047337 392.207570 84.461538 388.973501 89.875740 387.067101 95.289941 382.743661 100.704142 390.420321 106.118343 392.769277 111.532544 390.726707 116.946746 391.867142 122.360947 386.335180 127.775148 386.760716 133.189349 392.292678 138.603550 391.696928 144.017751 389.194779 149.431953 385.875602 154.846154 384.905381 160.260355 388.037322 165.674556 388.667115 171.088757 390.420321 176.502959 389.977764 181.917160 389.194779 187.331361 388.394772 192.745562 392.411828 198.159763 391.424585 203.573964 390.982028 208.988166 390.556493 214.402367 392.633106 219.816568 393.211834 225.230769 391.918206 230.644970 393.569284 236.059172 393.296941 241.473373 392.190549 246.887574 393.092684 252.301775 391.782035 257.715976 393.603327 263.130178 392.616085 268.544379 392.156506 273.958580 390.982028 279.372781 389.926700 284.786982 389.892657 290.201183 388.905415 295.615385 390.045850 301.029586 389.177758 306.443787 387.782001 311.857988 388.854351 317.272189 389.926700 322.686391 392.326720 328.100592 392.156506 333.514793 393.041620 338.928994 391.645864 344.343195 390.437343 349.757396 391.237350 355.171598 389.501165 360.585799 387.986258 366.000000 387.577744 371.414201 390.045850 376.828402 389.654357 382.242604 389.024565 387.656805 389.501165 393.071006 388.650094 398.485207 387.969237 403.899408 387.526680 409.313609 388.411794 414.727811 388.173494 420.142012 388.088387 425.556213 388.462858 430.970414 388.326687 436.384615 388.616051 441.798817 388.428815 447.213018 388.871372 452.627219 388.462858 458.041420 390.556493 463.455621 393.841627 468.869822 395.407598 474.284024 394.590569 479.698225 394.096948 485.112426 393.875670 490.526627 393.501198 495.940828 393.569284 501.355030 392.582042 506.769231 392.513956 512.183432 392.479913 517.597633 392.973534 523.011834 394.250141 528.426036 394.079927 533.840237 393.467156 539.254438 394.165034 544.668639 394.726741 550.082840 394.148012 555.497041 393.603327 560.911243 392.990556 566.325444 392.173528 571.739645 391.305435 577.153846 390.947985 582.568047 391.407564 587.982249 391.033092 593.396450 391.169264 598.810651 390.777771 604.224852 390.675643 609.639053 389.807550 615.053254 390.250107 620.467456 391.356499 625.881657 393.092684 631.295858 393.467156 636.710059 393.262899 642.124260 394.284184 647.538462 394.675676 652.952663 394.454398 658.366864 393.841627 663.781065 394.028862 669.195266 393.484177 674.609467 395.918240 680.023669 395.373555 685.437870 394.743762 690.852071 394.437377 696.266272 393.824605 701.680473 393.365027 707.094675 392.837363 712.508876 392.769277 717.923077 392.360763"/></g><g class="series serie-2 color-2"><path class="line reactive nofill" d="M14.076923 392.156506 L19.491124 392.156506 24.905325 392.156506 30.319527 392.156506 35.733728 392.156506 41.147929 392.156506 46.562130 392.156506 51.976331 392.156506 57.390533 392.156506 62.804734 392.156506 68.218935 392.156506 73.633136 392.156506 79.047337 392.156506 84.461538 392.156506 89.875740 392.156506 95.289941 392.156506 100.704142 392.156506 106.118343 392.156506 111.532544 392.156506 116.946746 392.156506 122.360947 392.156506 127.775148 392.156506 133.189349 392.156506 138.603550 392.156506 144.017751 392.156506 149.431953 392.156506 154.846154 392.156506 160.260355 392.156506 165.674556 392.156506 171.088757 392.156506 176.502959 392.156506 181.917160 392.156506 187.331361 392.156506 192.745562 392.156506 198.159763 392.156506 203.573964 392.156506 208.988166 392.156506 214.402367 392.156506 219.816568 392.156506 225.230769 392.156506 230.644970 392.156506 236.059172 392.156506 241.473373 392.156506 246.887574 392.156506 252.301775 392.156506 257.715976 392.156506 263.130178 392.156506 268.544379 392.156506 273.958580 392.156506 279.372781 392.156506 284.786982 392.156506 290.201183 392.156506 295.615385 392.156506 301.029586 392.156506 306.443787 392.156506 311.857988 392.156506 317.272189 392.156506 322.686391 392.156506 328.100592 392.156506 333.514793 392.156506 338.928994 392.156506 344.343195 392.156506 349.757396 392.156506 355.171598 392.156506 360.585799 392.156506 366.000000 392.156506 371.414201 392.156506 376.828402 392.156506 382.242604 392.156506 387.656805 392.156506 393.071006 392.156506 398.485207 392.156506 403.899408 392.156506 409.313609 392.156506 414.727811 392.156506 420.142012 392.156506 425.556213 392.156506 430.970414 392.156506 436.384615 392.156506 441.798817 392.156506 447.213018 392.156506 452.627219 392.156506 458.041420 392.156506 463.455621 392.156506 468.869822 392.156506 474.284024 392.156506 479.698225 392.156506 485.112426 392.156506 490.526627 392.156506 495.940828 392.156506 501.355030 392.156506 506.769231 392.156506 512.183432 392.156506 517.597633 392.156506 523.011834 392.156506 528.426036 392.156506 533.840237 392.156506 539.254438 392.156506 544.668639 392.156506 550.082840 392.156506 555.497041 392.156506 560.911243 392.156506 566.325444 392.156506 571.739645 392.156506 577.153846 392.156506 582.568047 392.156506 587.982249 392.156506 593.396450 392.156506 598.810651 392.156506 604.224852 392.156506 609.639053 392.156506 615.053254 392.156506 620.467456 392.156506 625.881657 392.156506 631.295858 392.156506 636.710059 392.156506 642.124260 392.156506 647.538462 392.156506 652.952663 392.156506 658.366864 392.156506 663.781065 392.156506 669.195266 392.156506 674.609467 392.156506 680.023669 392.156506 685.437870 392.156506 690.852071 392.156506 696.266272 392.156506 701.680473 392.156506 707.094675 392.156506 712.508876 392.156506 717.923077 392.156506"/></g></g><g class="titles"><text class="title plot_title" x="400.0" y="26">IVA Richards: Future and Past Averages in ODIs</text></g><g class="plot overlay" transform="translate(48, 46)"><g class="series serie-0 color-0"><g class="dots"><desc class="label">118 wickets in 131 innings (940.0 overs)</desc><circle class="dot reactive tooltip-trigger" cx="14.076923076923077" cy="392.1565062200794" r="2.5"/><desc class="value">35.83</desc><desc class="x top">14.076923076923077</desc><desc class="y top">392.1565062200794</desc><desc class="x_label">1975</desc></g><g class="dots"><desc class="label">115 wickets in 128 innings (928.0 overs)</desc><circle class="dot reactive tooltip-trigger" cx="30.319526627218938" cy="391.2884137760834" r="2.5"/><desc class="value">36.34</desc><desc class="x top">30.319526627218938</desc><desc class="y top">391.2884137760834</desc><desc class="x_label">1976</desc></g><g class="dots"><desc class="label">114 wickets in 127 innings (927.0 overs)</desc><circle class="dot reactive tooltip-trigger" cx="35.73372781065089" cy="390.8118140029091" r="2.5"/><desc class="value">36.62</desc><desc class="x top">35.73372781065089</desc><desc class="y top">390.8118140029091</desc><desc class="x_label">1978</desc></g><g class="dots"><desc class="label">114 wickets in 126 innings (926.0 overs)</desc><circle class="dot reactive tooltip-trigger" cx="41.14792899408285" cy="390.9820282076142" r="2.5"/><desc class="value">36.52</desc><desc class="x top">41.14792899408285</desc><desc class="y top">390.9820282076142</desc><desc class="x_label">1979</desc></g><g class="dots"><desc class="label">108 wickets in 121 innings (880.0 overs)</desc><circle class="dot reactive tooltip-trigger" cx="68.2189349112426" cy="390.89692110526164" r="2.5"/><desc class="value">36.57</desc><desc class="x top">68.2189349112426</desc><desc class="y top">390.89692110526164</desc><desc class="x_label">1980</desc></g><g class="dots"><desc class="label">103 wickets in 113 innings (833.0 overs)</desc><circle class="dot reactive tooltip-trigger" cx="111.53254437869822" cy="392.3607632657255" r="2.5"/><desc class="value">35.71</desc><desc class="x top">111.53254437869822</desc><desc class="y top">392.3607632657255</desc><desc class="x_label">1981</desc></g><g class="dots"><desc class="label">97 wickets in 108 innings (783.0 overs)</desc><circle class="dot reactive tooltip-trigger" cx="138.60355029585799" cy="392.2586347429025" r="2.5"/><desc class="value">35.77</desc><desc class="x top">138.60355029585799</desc><desc class="y top">392.2586347429025</desc><desc class="x_label">1982</desc></g><g class="dots"><desc class="label">91 wickets in 102 innings (731.0 overs)</desc><circle class="dot reactive tooltip-trigger" cx="171.0887573964497" cy="392.6671488341947" r="2.5"/><desc class="value">35.53</desc><desc class="x top">171.0887573964497</desc><desc class="y top">392.6671488341947</desc><desc class="x_label">1983</desc></g><g class="dots"><desc class="label">85 wickets in 94 innings (692.0 overs)</desc><circle class="dot reactive tooltip-trigger" cx="214.4023668639053" cy="391.9692705949038" r="2.5"/><desc class="value">35.94</desc><desc class="x top">214.4023668639053</desc><desc class="y top">391.9692705949038</desc><desc class="x_label">1984</desc></g><g class="dots"><desc class="label">73 wickets in 78 innings (573.0 overs)</desc><circle class="dot reactive tooltip-trigger" cx="301.0295857988166" cy="393.9948196308945" r="2.5"/><desc class="value">34.75</desc><desc class="x top">301.0295857988166</desc><desc class="y top">393.9948196308945</desc><desc class="x_label">1985</desc></g><g class="dots"><desc class="label">55 wickets in 57 innings (402.0 overs)</desc><circle class="dot reactive tooltip-trigger" cx="414.72781065088753" cy="396.7182469061761" r="2.5"/><desc class="value">33.15</desc><desc class="x left top">414.72781065088753</desc><desc class="y left top">396.7182469061761</desc><desc class="x_label">1986</desc></g><g class="dots"><desc class="label">54 wickets in 55 innings (392.0 overs)</desc><circle class="dot reactive tooltip-trigger" cx="425.5562130177515" cy="396.5310112810005" r="2.5"/><desc class="value">33.26</desc><desc class="x left top">425.5562130177515</desc><desc class="y left top">396.5310112810005</desc><desc class="x_label">1987</desc></g><g class="dots"><desc class="label">38 wickets in 39 innings (286.3 overs)</desc><circle class="dot reactive tooltip-trigger" cx="512.1834319526627" cy="391.4586279807885" r="2.5"/><desc class="value">36.24</desc><desc class="x left top">512.1834319526627</desc><desc class="y left top">391.4586279807885</desc><desc class="x_label">1988</desc></g><g class="dots"><desc class="label">25 wickets in 26 innings (179.3 overs)</desc><circle class="dot reactive tooltip-trigger" cx="582.5680473372781" cy="394.9309977567725" r="2.5"/><desc class="value">34.2</desc><desc class="x left top">582.5680473372781</desc><desc class="y left top">394.9309977567725</desc><desc class="x_label">1989</desc></g><g class="dots"><desc class="label">0 wickets in 5 innings (26.0 overs)</desc><circle class="dot reactive tooltip-trigger" cx="696.266272189349" cy="255.6957783080009" r="2.5"/><desc class="value">116</desc><desc class="x left top">696.266272189349</desc><desc class="y left top">255.6957783080009</desc><desc class="x_label">1990</desc></g><g class="dots"><desc class="label">0 wickets in 4 innings (17.0 overs)</desc><circle class="dot reactive tooltip-trigger" cx="701.6804733727811" cy="310.16432381363285" r="2.5"/><desc class="value">84</desc><desc class="x left top">701.6804733727811</desc><desc class="y left top">310.16432381363285</desc><desc class="x_label">1991</desc></g></g><g class="series serie-1 color-1"><g class="dots"><desc class="label">0 wickets over 0 innings</desc><circle class="dot reactive tooltip-trigger" cx="14.076923076923077" cy="453.1442557659166" r="2.5"/><desc class="value">0</desc><desc class="x top">14.076923076923077</desc><desc class="y top">453.1442557659166</desc><desc class="x_label">1975</desc></g><g class="dots"><desc class="label">3 wickets in 3 innings (12.0 overs)</desc><circle class="dot reactive tooltip-trigger" cx="30.319526627218938" cy="425.34827613757386" r="2.5"/><desc class="value">16.33</desc><desc class="x top">30.319526627218938</desc><desc class="y top">425.34827613757386</desc><desc class="x_label">1976</desc></g><g class="dots"><desc class="label">4 wickets in 4 innings (13.0 overs)</desc><circle class="dot reactive tooltip-trigger" cx="35.73372781065089" cy="430.5908736424909" r="2.5"/><desc class="value">13.25</desc><desc class="x top">35.73372781065089</desc><desc class="y top">430.5908736424909</desc><desc class="x_label">1978</desc></g><g class="dots"><desc class="label">4 wickets in 5 innings (14.0 overs)</desc><circle class="dot reactive tooltip-trigger" cx="41.14792899408285" cy="425.4844475013379" r="2.5"/><desc class="value">16.25</desc><desc class="x top">41.14792899408285</desc><desc class="y top">425.4844475013379</desc><desc class="x_label">1979</desc></g><g class="dots"><desc class="label">10 wickets in 10 innings (60.0 overs)</desc><circle class="dot reactive tooltip-trigger" cx="68.2189349112426" cy="405.8247068578989" r="2.5"/><desc class="value">27.8</desc><desc class="x top">68.2189349112426</desc><desc class="y top">405.8247068578989</desc><desc class="x_label">1980</desc></g><g class="dots"><desc class="label">15 wickets in 18 innings (107.0 overs)</desc><circle class="dot reactive tooltip-trigger" cx="111.53254437869822" cy="390.72670690055656" r="2.5"/><desc class="value">36.67</desc><desc class="x top">111.53254437869822</desc><desc class="y top">390.72670690055656</desc><desc class="x_label">1981</desc></g><g class="dots"><desc class="label">21 wickets in 23 innings (157.0 overs)</desc><circle class="dot reactive tooltip-trigger" cx="138.60355029585799" cy="391.6969278673756" r="2.5"/><desc class="value">36.1</desc><desc class="x top">138.60355029585799</desc><desc class="y top">391.6969278673756</desc><desc class="x_label">1982</desc></g><g class="dots"><desc class="label">27 wickets in 29 innings (209.0 overs)</desc><circle class="dot reactive tooltip-trigger" cx="171.0887573964497" cy="390.4203213320874" r="2.5"/><desc class="value">36.85</desc><desc class="x top">171.0887573964497</desc><desc class="y top">390.4203213320874</desc><desc class="x_label">1983</desc></g><g class="dots"><desc class="label">33 wickets in 37 innings (248.0 overs)</desc><circle class="dot reactive tooltip-trigger" cx="214.4023668639053" cy="392.6331059932537" r="2.5"/><desc class="value">35.55</desc><desc class="x top">214.4023668639053</desc><desc class="y top">392.6331059932537</desc><desc class="x_label">1984</desc></g><g class="dots"><desc class="label">45 wickets in 53 innings (367.0 overs)</desc><circle class="dot reactive tooltip-trigger" cx="301.0295857988166" cy="389.1777576377401" r="2.5"/><desc class="value">37.58</desc><desc class="x top">301.0295857988166</desc><desc class="y top">389.1777576377401</desc><desc class="x_label">1985</desc></g><g class="dots"><desc class="label">63 wickets in 74 innings (538.0 overs)</desc><circle class="dot reactive tooltip-trigger" cx="414.72781065088753" cy="388.17349382998003" r="2.5"/><desc class="value">38.17</desc><desc class="x left top">414.72781065088753</desc><desc class="y left top">388.17349382998003</desc><desc class="x_label">1986</desc></g><g class="dots"><desc class="label">64 wickets in 76 innings (548.0 overs)</desc><circle class="dot reactive tooltip-trigger" cx="425.5562130177515" cy="388.46285797797873" r="2.5"/><desc class="value">38</desc><desc class="x left top">425.5562130177515</desc><desc class="y left top">388.46285797797873</desc><desc class="x_label">1987</desc></g><g class="dots"><desc class="label">80 wickets in 92 innings (653.3 overs)</desc><circle class="dot reactive tooltip-trigger" cx="512.1834319526627" cy="392.47991320901906" r="2.5"/><desc class="value">35.64</desc><desc class="x left top">512.1834319526627</desc><desc class="y left top">392.47991320901906</desc><desc class="x_label">1988</desc></g><g class="dots"><desc class="label">93 wickets in 105 innings (760.3 overs)</desc><circle class="dot reactive tooltip-trigger" cx="582.5680473372781" cy="391.4075637193769" r="2.5"/><desc class="value">36.27</desc><desc class="x left top">582.5680473372781</desc><desc class="y left top">391.4075637193769</desc><desc class="x_label">1989</desc></g><g class="dots"><desc class="label">118 wickets in 126 innings (914.0 overs)</desc><circle class="dot reactive tooltip-trigger" cx="696.266272189349" cy="393.82460542618935" r="2.5"/><desc class="value">34.85</desc><desc class="x left top">696.266272189349</desc><desc class="y left top">393.82460542618935</desc><desc class="x_label">1990</desc></g><g class="dots"><desc class="label">118 wickets in 127 innings (923.0 overs)</desc><circle class="dot reactive tooltip-trigger" cx="701.6804733727811" cy="393.36502707348563" r="2.5"/><desc class="value">35.12</desc><desc class="x left top">701.6804733727811</desc><desc class="y left top">393.36502707348563</desc><desc class="x_label">1991</desc></g></g><g class="series serie-2 color-2"/></g><g class="plot text-overlay" transform="translate(48, 46)"><g class="series serie-0 color-0"/><g class="series serie-1 color-1"/><g class="series serie-2 color-2"/></g><g class="plot tooltip-overlay" transform="translate(48, 46)"><g class="tooltip" style="opacity: 0" transform="translate(0 0)"><rect class="tooltip-box" height="0" rx="10" ry="10" width="0"/><g class="text"/></g></g><g class="legends" transform="translate(58, 545)"><g class="legend reactive activate-serie" id="activate-serie-0"><rect class="color-0 reactive" height="12" width="12" x="0.0" y="1.0"/><text x="17.0" y="11.2">Future Average</text></g><g class="legend reactive activate-serie" id="activate-serie-1"><rect class="color-1 reactive" height="12" width="12" x="366.0" y="1.0"/><text x="383.0" y="11.2">Past Average</text></g><g class="legend reactive activate-serie" id="activate-serie-2"><rect class="color-2 reactive" height="12" width="12" x="0.0" y="22.0"/><text x="17.0" y="32.2">Career Average</text></g></g></g></svg>