<?xml version='1.0' encoding='utf-8'?>
<svg xmlns:xlink="http://www.w3.org/1999/xlink" xmlns="http://www.w3.org/2000/svg" id="chart-82e5b2c5-78f5-4053-a9a4-6817f7ae8156" class="pygal-chart" viewBox="0 0 800 600"><!--Generated with pygal 2.4.0 (lxml) ©Kozea 2012-2016 on 2019-08-02--><!--http://pygal.org--><!--http://github.com/Kozea/pygal--><defs><style type="text/css">#chart-82e5b2c5-78f5-4053-a9a4-6817f7ae8156{-webkit-user-select:none;-webkit-font-smoothing:antialiased;font-family:Consolas,"Liberation Mono",Menlo,Courier,monospace}#chart-82e5b2c5-78f5-4053-a9a4-6817f7ae8156 .title{font-family:Consolas,"Liberation Mono",Menlo,Courier,monospace;font-size:16px}#chart-82e5b2c5-78f5-4053-a9a4-6817f7ae8156 .legends .legend text{font-family:Consolas,"Liberation Mono",Menlo,Courier,monospace;font-size:14px}#chart-82e5b2c5-78f5-4053-a9a4-6817f7ae8156 .axis text{font-family:Consolas,"Liberation Mono",Menlo,Courier,monospace;font-size:10px}#chart-82e5b2c5-78f5-4053-a9a4-6817f7ae8156 .axis text.major{font-family:Consolas,"Liberation Mono",Menlo,Courier,monospace;font-size:10px}#chart-82e5b2c5-78f5-4053-a9a4-6817f7ae8156 .text-overlay text.value{font-family:Consolas,"Liberation Mono",Menlo,Courier,monospace;font-size:16px}#chart-82e5b2c5-78f5-4053-a9a4-6817f7ae8156 .text-overlay text.label{font-family:Consolas,"Liberation Mono",Menlo,Courier,monospace;font-size:10px}#chart-82e5b2c5-78f5-4053-a9a4-6817f7ae8156 .tooltip{font-family:Consolas,"Liberation Mono",Menlo,Courier,monospace;font-size:14px}#chart-82e5b2c5-78f5-4053-a9a4-6817f7ae8156 text.no_data{font-family:Consolas,"Liberation Mono",Menlo,Courier,monospace;font-size:64px}
#chart-82e5b2c5-78f5-4053-a9a4-6817f7ae8156{background-color:rgba(249,249,249,1)}#chart-82e5b2c5-78f5-4053-a9a4-6817f7ae8156 path,#chart-82e5b2c5-78f5-4053-a9a4-6817f7ae8156 line,#chart-82e5b2c5-78f5-4053-a9a4-6817f7ae8156 rect,#chart-82e5b2c5-78f5-4053-a9a4-6817f7ae8156 circle{-webkit-transition:150ms;-moz-transition:150ms;transition:150ms}#chart-82e5b2c5-78f5-4053-a9a4-6817f7ae8156 .graph &gt; .background{fill:rgba(249,249,249,1)}#chart-82e5b2c5-78f5-4053-a9a4-6817f7ae8156 .plot &gt; .background{fill:rgba(255,255,255,1)}#chart-82e5b2c5-78f5-4053-a9a4-6817f7ae8156 .graph{fill:rgba(0,0,0,.87)}#chart-82e5b2c5-78f5-4053-a9a4-6817f7ae8156 text.no_data{fill:rgba(0,0,0,1)}#chart-82e5b2c5-78f5-4053-a9a4-6817f7ae8156 .title{fill:rgba(0,0,0,1)}#chart-82e5b2c5-78f5-4053-a9a4-6817f7ae8156 .legends .legend text{fill:rgba(0,0,0,.87)}#chart-82e5b2c5-78f5-4053-a9a4-6817f7ae8156 .legends .legend:hover text{fill:rgba(0,0,0,1)}#chart-82e5b2c5-78f5-4053-a9a4-6817f7ae8156 .axis .line{stroke:rgba(0,0,0,1)}#chart-82e5b2c5-78f5-4053-a9a4-6817f7ae8156 .axis .guide.line{stroke:rgba(0,0,0,.54)}#chart-82e5b2c5-78f5-4053-a9a4-6817f7ae8156 .axis .major.line{stroke:rgba(0,0,0,.87)}#chart-82e5b2c5-78f5-4053-a9a4-6817f7ae8156 .axis text.major{fill:rgba(0,0,0,1)}#chart-82e5b2c5-78f5-4053-a9a4-6817f7ae8156 .axis.y .guides:hover .guide.line,#chart-82e5b2c5-78f5-4053-a9a4-6817f7ae8156 .line-graph .axis.x .guides:hover .guide.line,#chart-82e5b2c5-78f5-4053-a9a4-6817f7ae8156 .stackedline-graph .axis.x .guides:hover .guide.line,#chart-82e5b2c5-78f5-4053-a9a4-6817f7ae8156 .xy-graph .axis.x .guides:hover .guide.line{stroke:rgba(0,0,0,1)}#chart-82e5b2c5-78f5-4053-a9a4-6817f7ae8156 .axis .guides:hover text{fill:rgba(0,0,0,1)}#chart-82e5b2c5-78f5-4053-a9a4-6817f7ae8156 .reactive{fill-opacity:.7;stroke-opacity:.8}#chart-82e5b2c5-78f5-4053-a9a4-6817f7ae8156 .ci{stroke:rgba(0,0,0,.87)}#chart-82e5b2c5-78f5-4053-a9a4-6817f7ae8156 .reactive.active,#chart-82e5b2c5-78f5-4053-a9a4-6817f7ae8156 .active .reactive{fill-opacity:.8;stroke-opacity:.9;stroke-width:4}#chart-82e5b2c5-78f5-4053-a9a4-6817f7ae8156 .ci .reactive.active{stroke-width:1.5}#chart-82e5b2c5-78f5-4053-a9a4-6817f7ae8156 .series text{fill:rgba(0,0,0,1)}#chart-82e5b2c5-78f5-4053-a9a4-6817f7ae8156 .tooltip rect{fill:rgba(255,255,255,1);stroke:rgba(0,0,0,1);-webkit-transition:opacity 150ms;-moz-transition:opacity 150ms;transition:opacity 150ms}#chart-82e5b2c5-78f5-4053-a9a4-6817f7ae8156 .tooltip .label{fill:rgba(0,0,0,.87)}#chart-82e5b2c5-78f5-4053-a9a4-6817f7ae8156 .tooltip .label{fill:rgba(0,0,0,.87)}#chart-82e5b2c5-78f5-4053-a9a4-6817f7ae8156 .tooltip .legend{font-size:.8em;fill:rgba(0,0,0,.54)}#chart-82e5b2c5-78f5-4053-a9a4-6817f7ae8156 .tooltip .x_label{font-size:.6em;fill:rgba(0,0,0,1)}#chart-82e5b2c5-78f5-4053-a9a4-6817f7ae8156 .tooltip .xlink{font-size:.5em;text-decoration:underline}#chart-82e5b2c5-78f5-4053-a9a4-6817f7ae8156 .tooltip .value{font-size:1.5em}#chart-82e5b2c5-78f5-4053-a9a4-6817f7ae8156 .bound{font-size:.5em}#chart-82e5b2c5-78f5-4053-a9a4-6817f7ae8156 .max-value{font-size:.75em;fill:rgba(0,0,0,.54)}#chart-82e5b2c5-78f5-4053-a9a4-6817f7ae8156 .map-element{fill:rgba(255,255,255,1);stroke:rgba(0,0,0,.54) !important}#chart-82e5b2c5-78f5-4053-a9a4-6817f7ae8156 .map-element .reactive{fill-opacity:inherit;stroke-opacity:inherit}#chart-82e5b2c5-78f5-4053-a9a4-6817f7ae8156 .color-0,#chart-82e5b2c5-78f5-4053-a9a4-6817f7ae8156 .color-0 a:visited{stroke:#F44336;fill:#F44336}#chart-82e5b2c5-78f5-4053-a9a4-6817f7ae8156 .color-1,#chart-82e5b2c5-78f5-4053-a9a4-6817f7ae8156 .color-1 a:visited{stroke:#3F51B5;fill:#3F51B5}#chart-82e5b2c5-78f5-4053-a9a4-6817f7ae8156 .color-2,#chart-82e5b2c5-78f5-4053-a9a4-6817f7ae8156 .color-2 a:visited{stroke:#009688;fill:#009688}#chart-82e5b2c5-78f5-4053-a9a4-6817f7ae8156 .text-overlay .color-0 text{fill:black}#chart-82e5b2c5-78f5-4053-a9a4-6817f7ae8156 .text-overlay .color-1 text{fill:black}#chart-82e5b2c5-78f5-4053-a9a4-6817f7ae8156 .text-overlay .color-2 text{fill:black}
#chart-82e5b2c5-78f5-4053-a9a4-6817f7ae8156 text.no_data{text-anchor:middle}#chart-82e5b2c5-78f5-4053-a9a4-6817f7ae8156 .guide.line{fill:none}#chart-82e5b2c5-78f5-4053-a9a4-6817f7ae8156 .centered{text-anchor:middle}#chart-82e5b2c5-78f5-4053-a9a4-6817f7ae8156 .title{text-anchor:middle}#chart-82e5b2c5-78f5-4053-a9a4-6817f7ae8156 .legends .legend text{fill-opacity:1}#chart-82e5b2c5-78f5-4053-a9a4-6817f7ae8156 .axis.x text{text-anchor:middle}#chart-82e5b2c5-78f5-4053-a9a4-6817f7ae8156 .axis.x:not(.web) text[transform]{text-anchor:start}#chart-82e5b2c5-78f5-4053-a9a4-6817f7ae8156 .axis.x:not(.web) text[transform].backwards{text-anchor:end}#chart-82e5b2c5-78f5-4053-a9a4-6817f7ae8156 .axis.y text{text-anchor:end}#chart-82e5b2c5-78f5-4053-a9a4-6817f7ae8156 .axis.y text[transform].backwards{text-anchor:start}#chart-82e5b2c5-78f5-4053-a9a4-6817f7ae8156 .axis.y2 text{text-anchor:start}#chart-82e5b2c5-78f5-4053-a9a4-6817f7ae8156 .axis.y2 text[transform].backwards{text-anchor:end}#chart-82e5b2c5-78f5-4053-a9a4-6817f7ae8156 .axis .guide.line{stroke-dasharray:4,4}#chart-82e5b2c5-78f5-4053-a9a4-6817f7ae8156 .axis .major.guide.line{stroke-dasharray:6,6}#chart-82e5b2c5-78f5-4053-a9a4-6817f7ae8156 .horizontal .axis.y .guide.line,#chart-82e5b2c5-78f5-4053-a9a4-6817f7ae8156 .horizontal .axis.y2 .guide.line,#chart-82e5b2c5-78f5-4053-a9a4-6817f7ae8156 .vertical .axis.x .guide.line{opacity:0}#chart-82e5b2c5-78f5-4053-a9a4-6817f7ae8156 .horizontal .axis.always_show .guide.line,#chart-82e5b2c5-78f5-4053-a9a4-6817f7ae8156 .vertical .axis.always_show .guide.line{opacity:1 !important}#chart-82e5b2c5-78f5-4053-a9a4-6817f7ae8156 .axis.y .guides:hover .guide.line,#chart-82e5b2c5-78f5-4053-a9a4-6817f7ae8156 .axis.y2 .guides:hover .guide.line,#chart-82e5b2c5-78f5-4053-a9a4-6817f7ae8156 .axis.x .guides:hover .guide.line{opacity:1}#chart-82e5b2c5-78f5-4053-a9a4-6817f7ae8156 .axis .guides:hover text{opacity:1}#chart-82e5b2c5-78f5-4053-a9a4-6817f7ae8156 .nofill{fill:none}#chart-82e5b2c5-78f5-4053-a9a4-6817f7ae8156 .subtle-fill{fill-opacity:.2}#chart-82e5b2c5-78f5-4053-a9a4-6817f7ae8156 .dot{stroke-width:1px;fill-opacity:1}#chart-82e5b2c5-78f5-4053-a9a4-6817f7ae8156 .dot.active{stroke-width:5px}#chart-82e5b2c5-78f5-4053-a9a4-6817f7ae8156 .dot.negative{fill:transparent}#chart-82e5b2c5-78f5-4053-a9a4-6817f7ae8156 text,#chart-82e5b2c5-78f5-4053-a9a4-6817f7ae8156 tspan{stroke:none !important}#chart-82e5b2c5-78f5-4053-a9a4-6817f7ae8156 .series text.active{opacity:1}#chart-82e5b2c5-78f5-4053-a9a4-6817f7ae8156 .tooltip rect{fill-opacity:.95;stroke-width:.5}#chart-82e5b2c5-78f5-4053-a9a4-6817f7ae8156 .tooltip text{fill-opacity:1}#chart-82e5b2c5-78f5-4053-a9a4-6817f7ae8156 .showable{visibility:hidden}#chart-82e5b2c5-78f5-4053-a9a4-6817f7ae8156 .showable.shown{visibility:visible}#chart-82e5b2c5-78f5-4053-a9a4-6817f7ae8156 .gauge-background{fill:rgba(229,229,229,1);stroke:none}#chart-82e5b2c5-78f5-4053-a9a4-6817f7ae8156 .bg-lines{stroke:rgba(249,249,249,1);stroke-width:2px}</style><script type="text/javascript">window.pygal = window.pygal || {};window.pygal.config = window.pygal.config || {};window.pygal.config['82e5b2c5-78f5-4053-a9a4-6817f7ae8156'] = {"allow_interruptions": false, "box_mode": "extremes", "classes": ["pygal-chart"], "css": ["file://style.css", "file://graph.css"], "defs": [], "disable_xml_declaration": false, "dots_size": 2.5, "dynamic_print_values": false, "explicit_size": false, "fill": false, "force_uri_protocol": "https", "formatter": null, "half_pie": false, "height": 600, "include_x_axis": false, "inner_radius": 0, "interpolate": null, "interpolation_parameters": {}, "interpolation_precision": 250, "inverse_y_axis": false, "js": ["//kozea.github.io/pygal.js/2.0.x/pygal-tooltips.min.js"], "legend_at_bottom": true, "legend_at_bottom_columns": null, "legend_box_size": 12, "logarithmic": false, "margin": 20, "margin_bottom": null, "margin_left": null, "margin_right": null, "margin_top": null, "max_scale": 16, "min_scale": 4, "missing_value_fill_truncation": "x", "no_data_text": "No data", "no_prefix": false, "order_min": null, "pretty_print": false, "print_labels": false, "print_values": false, "print_values_position": "center", "print_zeroes": true, "range": null, "rounded_bars": null, "secondary_range": null, "show_dots": true, "show_legend": true, "show_minor_x_labels": false, "show_minor_y_labels": true, "show_only_major_dots": false, "show_x_guides": false, "show_x_labels": true, "show_y_guides": true, "show_y_labels": true, "spacing": 10, "stack_from_top": false, "strict": false, "stroke": true, "stroke_style": null, "style": {"background": "rgba(249, 249, 249, 1)", "ci_colors": [], "colors": ["#F44336", "#3F51B5", "#009688", "#FFC107", "#FF5722", "#9C27B0", "#03A9F4", "#8BC34A", "#FF9800", "#E91E63", "#2196F3", "#4CAF50", "#FFEB3B", "#673AB7", "#00BCD4", "#CDDC39", "#9E9E9E", "#607D8B"], "font_family": "Consolas, \"Liberation Mono\", Menlo, Courier, monospace", "foreground": "rgba(0, 0, 0, .87)", "foreground_strong": "rgba(0, 0, 0, 1)", "foreground_subtle": "rgba(0, 0, 0, .54)", "guide_stroke_dasharray": "4,4", "label_font_family": "Consolas, \"Liberation Mono\", Menlo, Courier, monospace", "label_font_size": 10, "legend_font_family": "Consolas, \"Liberation Mono\", Menlo, Courier, monospace", "legend_font_size": 14, "major_guide_stroke_dasharray": "6,6", "major_label_font_family": "Consolas, \"Liberation Mono\", Menlo, Courier, monospace", "major_label_font_size": 10, "no_data_font_family": "Consolas, \"Liberation Mono\", Menlo, Courier, monospace", "no_data_font_size": 64, "opacity": ".7", "opacity_hover": ".8", "plot_background": "rgba(255, 255, 255, 1)", "stroke_opacity": ".8", "stroke_opacity_hover": ".9", "title_font_family": "Consolas, \"Liberation Mono\", Menlo, Courier, monospace", "title_font_size": 16, "tooltip_font_family": "Consolas, \"Liberation Mono\", Menlo, Courier, monospace", "tooltip_font_size": 14, "transition": "150ms", "value_background": "rgba(229, 229, 229, 1)", "value_colors": [], "value_font_family": "Consolas, \"Liberation Mono\", Menlo, Courier, monospace", "value_font_size": 16, "value_label_font_family": "Consolas, \"Liberation Mono\", Menlo, Courier, monospace", "value_label_font_size": 10}, "title": "JEC Franklin: Future and Past Averages in ODIs", "tooltip_border_radius": 10, "tooltip_fancy_mode": true, "truncate_label": null, "truncate_legend": null, "width": 800, "x_label_rotation": 45, "x_labels": ["2001", "0", "0", "0", "0", "0", "0", "0", "0", "0", "0", "0", "0", "0", "2002", "0", "0", "0", "0", "0", "0", "0", "0", "0", "2004", "0", "0", "0", "0", "0", "2005", "0", "0", "0", "2006", "0", "0", "0", "0", "0", "0", "0", "0", "0", "0", "2007", "0", "0", "0", "0", "0", "0", "0", "0", "0", "0", "0", "0", "0", "0", "0", "0", "0", "2009", "0", "0", "0", "2010", "0", "0", "0", "0", "0", "2011", "0", "0", "0", "0", "0", "0", "0", "0", "0", "0", "2012", "0", "0", "2013", "0", "0", "0", "0", "0", "0", "0", "0", "0"], "x_labels_major": ["2001", "2002", "2004", "2005", "2006", "2007", "2009", "2010", "2011", "2012", "2013"], "x_labels_major_count": null, "x_labels_major_every": null, "x_title": null, "xrange": null, "y_label_rotation": 0, "y_labels": null, "y_labels_major": null, "y_labels_major_count": null, "y_labels_major_every": null, "y_title": null, "zero": 0, "legends": ["Future Average", "Past Average", "Career Average"]}</script><script type="text/javascript" xlink:href="https://kozea.github.io/pygal.js/2.0.x/pygal-tooltips.min.js"/></defs><title>JEC Franklin: Future and Past Averages in ODIs</title><g class="graph line-graph vertical"><rect class="background" height="600" width="800" x="0" y="0"/><g class="plot" transform="translate(48, 46)"><rect class="background" height="462.02943725152284" width="732.0" x="0" y="0"/><g class="axis y always_show"><g class="guides"><path class="axis major line" d="M0.000000 453.144256 h732.000000"/><text class="major" x="-5" y="456.6442557659166">0</text><title>0</title></g><g class="guides"><path class="guide line" d="M0.000000 399.294671 h732.000000"/><text class="" x="-5" y="402.7946710046669">20</text><title>20</title></g><g class="guides"><path class="guide line" d="M0.000000 345.445086 h732.000000"/><text class="" x="-5" y="348.94508624341717">40</text><title>40</title></g><g class="guides"><path class="guide line" d="M0.000000 291.595501 h732.000000"/><text class="" x="-5" y="295.0955014821674">60</text><title>60</title></g><g class="guides"><path class="guide line" d="M0.000000 237.745917 h732.000000"/><text class="" x="-5" y="241.24591672091768">80</text><title>80</title></g><g class="guides"><path class="major guide line" d="M0.000000 183.896332 h732.000000"/><text class="major" x="-5" y="187.39633195966792">100</text><title>100</title></g><g class="guides"><path class="guide line" d="M0.000000 130.046747 h732.000000"/><text class="" x="-5" y="133.5467471984182">120</text><title>120</title></g><g class="guides"><path class="guide line" d="M0.000000 76.197162 h732.000000"/><text class="" x="-5" y="79.69716243716846">140</text><title>140</title></g><g class="guides"><path class="guide line" d="M0.000000 22.347578 h732.000000"/><text class="" x="-5" y="25.84757767591867">160</text><title>160</title></g></g><g class="axis x"><g class="guides"><path class="major line" d="M14.076923 0.000000 v462.029437"/><text class="major" x="14.076923076923077" y="477.02943725152284" transform="rotate(45 14.076923 477.029437)">2001</text></g><g class="guides"><path class="major guide line" d="M116.721154 0.000000 v462.029437"/><text class="major" x="116.72115384615384" y="477.02943725152284" transform="rotate(45 116.721154 477.029437)">2002</text></g><g class="guides"><path class="major guide line" d="M190.038462 0.000000 v462.029437"/><text class="major" x="190.03846153846155" y="477.02943725152284" transform="rotate(45 190.038462 477.029437)">2004</text></g><g class="guides"><path class="major guide line" d="M234.028846 0.000000 v462.029437"/><text class="major" x="234.02884615384616" y="477.02943725152284" transform="rotate(45 234.028846 477.029437)">2005</text></g><g class="guides"><path class="major guide line" d="M263.355769 0.000000 v462.029437"/><text class="major" x="263.3557692307693" y="477.02943725152284" transform="rotate(45 263.355769 477.029437)">2006</text></g><g class="guides"><path class="major guide line" d="M344.004808 0.000000 v462.029437"/><text class="major" x="344.0048076923077" y="477.02943725152284" transform="rotate(45 344.004808 477.029437)">2007</text></g><g class="guides"><path class="major guide line" d="M475.975962 0.000000 v462.029437"/><text class="major" x="475.9759615384615" y="477.02943725152284" transform="rotate(45 475.975962 477.029437)">2009</text></g><g class="guides"><path class="major guide line" d="M505.302885 0.000000 v462.029437"/><text class="major" x="505.3028846153846" y="477.02943725152284" transform="rotate(45 505.302885 477.029437)">2010</text></g><g class="guides"><path class="major guide line" d="M549.293269 0.000000 v462.029437"/><text class="major" x="549.2932692307692" y="477.02943725152284" transform="rotate(45 549.293269 477.029437)">2011</text></g><g class="guides"><path class="major guide line" d="M629.942308 0.000000 v462.029437"/><text class="major" x="629.9423076923076" y="477.02943725152284" transform="rotate(45 629.942308 477.029437)">2012</text></g><g class="guides"><path class="major guide line" d="M651.937500 0.000000 v462.029437"/><text class="major" x="651.9375" y="477.02943725152284" transform="rotate(45 651.937500 477.029437)">2013</text></g></g><g class="series serie-0 color-0"><path class="line reactive nofill" d="M14.076923 341.648691 L21.408654 339.790880 28.740385 338.444640 36.072115 338.794663 43.403846 338.660039 50.735577 339.952429 58.067308 341.325593 65.399038 338.310016 72.730769 339.656256 80.062500 340.652473 87.394231 338.148468 94.725962 337.286874 102.057692 337.717671 109.389423 338.525415 116.721154 339.467782 124.052885 340.544774 131.384615 340.544774 138.716346 340.733248 146.048077 338.902362 153.379808 338.767738 160.711538 339.763955 168.043269 341.029420 175.375000 341.729465 182.706731 342.968005 190.038462 345.148914 197.370192 346.252830 204.701923 338.713888 212.033654 338.444640 219.365385 341.029420 226.697115 338.525415 234.028846 337.825370 241.360577 336.532980 248.692308 335.213665 256.024038 334.405921 263.355769 336.371431 270.687500 333.598178 278.019231 336.802228 285.350962 336.129108 292.682692 335.213665 300.014423 338.013844 307.346154 337.744596 314.677885 339.763955 322.009615 340.060128 329.341346 340.437075 336.673077 339.467782 344.004808 339.710105 351.336538 339.010061 358.668269 341.190969 366.000000 337.529197 373.331731 337.825370 380.663462 328.455542 387.995192 328.347843 395.326923 324.928394 402.658654 324.686071 409.990385 328.805565 417.322115 323.689854 424.653846 315.154695 431.985577 318.412595 439.317308 321.428171 446.649038 324.470673 453.980769 324.605297 461.312500 320.728127 468.644231 310.308232 475.975962 300.776856 483.307692 287.637557 490.639423 293.210989 497.971154 299.134443 505.302885 306.673385 512.634615 309.554338 519.966346 312.785313 527.298077 311.223675 534.629808 307.534979 541.961538 301.234577 549.293269 308.881218 556.625000 311.789096 563.956731 315.370093 571.288462 321.885893 578.620192 326.597732 585.951923 299.376766 593.283654 302.661591 600.615385 310.442856 607.947115 319.704985 615.278846 323.016734 622.610577 300.049886 629.942308 312.354516 637.274038 314.293101 644.605769 320.431954 651.937500 323.528305 659.269231 321.670495 666.600962 323.366756 673.932692 270.944186 681.264423 8.885181 688.596154 95.044517 695.927885 148.894102 703.259615 226.976000 710.591346 334.675169 717.923077 399.294671"/></g><g class="series serie-1 color-1"><path class="line reactive nofill" d="M14.076923 453.144256 L21.408654 415.449546 28.740385 403.333390 36.072115 385.293779 43.403846 379.101077 50.735577 362.946201 58.067308 345.902808 65.399038 368.492709 72.730769 357.722792 80.062500 349.645354 87.394231 361.815360 94.725962 364.507839 102.057692 360.442196 109.389423 356.591950 116.721154 352.176284 124.052885 346.979799 131.384615 346.522078 138.716346 345.445086 146.048077 351.287766 153.379808 351.126217 160.711538 347.464446 168.043269 343.560351 175.375000 341.406367 182.706731 337.636896 190.038462 331.040322 197.370192 327.674723 204.701923 348.245265 212.033654 348.460663 219.365385 342.968005 226.697115 347.572145 234.028846 348.514513 241.360577 350.372323 248.692308 352.041660 256.024038 352.768630 263.355769 349.726128 270.687500 352.822479 278.019231 348.379889 285.350962 348.918384 292.682692 349.699203 300.014423 346.198980 307.346154 346.306680 314.677885 343.910373 322.009615 343.452652 329.341346 342.968005 336.673077 343.802674 344.004808 343.452652 351.336538 344.018072 358.668269 342.052562 366.000000 344.960440 373.331731 344.556568 380.663462 350.291549 387.995192 349.914602 395.326923 350.991593 402.658654 350.614646 409.990385 348.433738 417.322115 350.156925 424.653846 352.822479 431.985577 351.449315 439.317308 350.156925 446.649038 348.891460 453.980769 348.406813 461.312500 349.456880 468.644231 351.260841 475.975962 352.499382 483.307692 353.926396 490.639423 352.660931 497.971154 351.314691 505.302885 349.618429 512.634615 348.945309 519.966346 348.218340 527.298077 348.029866 534.629808 348.164490 541.961538 348.676061 549.293269 347.356747 556.625000 346.845175 563.956731 346.225905 571.288462 345.095064 578.620192 344.287320 585.951923 346.952875 593.283654 346.522078 600.615385 345.552785 607.947115 344.395019 615.278846 343.991147 622.610577 345.579710 629.942308 344.421944 637.274038 344.233471 644.605769 343.668050 651.937500 343.371877 659.269231 343.264178 666.600962 342.860306 673.932692 344.368095 681.264423 347.141348 688.596154 346.064356 695.927885 345.418161 703.259615 344.448869 710.591346 343.129554 717.923077 342.321810"/></g><g class="series serie-2 color-2"><path class="line reactive nofill" d="M14.076923 341.648691 L21.408654 341.648691 28.740385 341.648691 36.072115 341.648691 43.403846 341.648691 50.735577 341.648691 58.067308 341.648691 65.399038 341.648691 72.730769 341.648691 80.062500 341.648691 87.394231 341.648691 94.725962 341.648691 102.057692 341.648691 109.389423 341.648691 116.721154 341.648691 124.052885 341.648691 131.384615 341.648691 138.716346 341.648691 146.048077 341.648691 153.379808 341.648691 160.711538 341.648691 168.043269 341.648691 175.375000 341.648691 182.706731 341.648691 190.038462 341.648691 197.370192 341.648691 204.701923 341.648691 212.033654 341.648691 219.365385 341.648691 226.697115 341.648691 234.028846 341.648691 241.360577 341.648691 248.692308 341.648691 256.024038 341.648691 263.355769 341.648691 270.687500 341.648691 278.019231 341.648691 285.350962 341.648691 292.682692 341.648691 300.014423 341.648691 307.346154 341.648691 314.677885 341.648691 322.009615 341.648691 329.341346 341.648691 336.673077 341.648691 344.004808 341.648691 351.336538 341.648691 358.668269 341.648691 366.000000 341.648691 373.331731 341.648691 380.663462 341.648691 387.995192 341.648691 395.326923 341.648691 402.658654 341.648691 409.990385 341.648691 417.322115 341.648691 424.653846 341.648691 431.985577 341.648691 439.317308 341.648691 446.649038 341.648691 453.980769 341.648691 461.312500 341.648691 468.644231 341.648691 475.975962 341.648691 483.307692 341.648691 490.639423 341.648691 497.971154 341.648691 505.302885 341.648691 512.634615 341.648691 519.966346 341.648691 527.298077 341.648691 534.629808 341.648691 541.961538 341.648691 549.293269 341.648691 556.625000 341.648691 563.956731 341.648691 571.288462 341.648691 578.620192 341.648691 585.951923 341.648691 593.283654 341.648691 600.615385 341.648691 607.947115 341.648691 615.278846 341.648691 622.610577 341.648691 629.942308 341.648691 637.274038 341.648691 644.605769 341.648691 651.937500 341.648691 659.269231 341.648691 666.600962 341.648691 673.932692 341.648691 681.264423 341.648691 688.596154 341.648691 695.927885 341.648691 703.259615 341.648691 710.591346 341.648691 717.923077 341.648691"/></g></g><g class="titles"><text class="title plot_title" x="400.0" y="26">JEC Franklin: Future and Past Averages in ODIs</text></g><g class="plot overlay" transform="translate(48, 46)"><g class="series serie-0 color-0"><g class="dots"><desc class="label">81 wickets in 97 innings (641.2 overs)</desc><circle class="dot reactive tooltip-trigger" cx="14.076923076923077" cy="341.64869051774906" r="2.5"/><desc class="value">41.41</desc><desc class="x top">14.076923076923077</desc><desc class="y top">341.64869051774906</desc><desc class="x_label">2001</desc></g><g class="dots"><desc class="label">67 wickets in 83 innings (534.2 overs)</desc><circle class="dot reactive tooltip-trigger" cx="116.72115384615384" cy="339.4677823349184" r="2.5"/><desc class="value">42.22</desc><desc class="x top">116.72115384615384</desc><desc class="y top">339.4677823349184</desc><desc class="x_label">2002</desc></g><g class="dots"><desc class="label">61 wickets in 73 innings (466.2 overs)</desc><circle class="dot reactive tooltip-trigger" cx="190.03846153846155" cy="345.1489135272303" r="2.5"/><desc class="value">40.11</desc><desc class="x top">190.03846153846155</desc><desc class="y top">345.1489135272303</desc><desc class="x_label">2004</desc></g><g class="dots"><desc class="label">52 wickets in 67 innings (424.2 overs)</desc><circle class="dot reactive tooltip-trigger" cx="234.02884615384616" cy="337.82536999970034" r="2.5"/><desc class="value">42.83</desc><desc class="x top">234.02884615384616</desc><desc class="y top">337.82536999970034</desc><desc class="x_label">2005</desc></g><g class="dots"><desc class="label">49 wickets in 63 innings (407.2 overs)</desc><circle class="dot reactive tooltip-trigger" cx="263.3557692307693" cy="336.37143121114656" r="2.5"/><desc class="value">43.37</desc><desc class="x top">263.3557692307693</desc><desc class="y top">336.37143121114656</desc><desc class="x_label">2006</desc></g><g class="dots"><desc class="label">39 wickets in 52 innings (312.2 overs)</desc><circle class="dot reactive tooltip-trigger" cx="344.0048076923077" cy="339.71010546634403" r="2.5"/><desc class="value">42.13</desc><desc class="x top">344.0048076923077</desc><desc class="y top">339.71010546634403</desc><desc class="x_label">2007</desc></g><g class="dots"><desc class="label">17 wickets in 34 innings (174.0 overs)</desc><circle class="dot reactive tooltip-trigger" cx="475.9759615384615" cy="300.77685568396043" r="2.5"/><desc class="value">56.59</desc><desc class="x left top">475.9759615384615</desc><desc class="y left top">300.77685568396043</desc><desc class="x_label">2009</desc></g><g class="dots"><desc class="label">15 wickets in 30 innings (142.0 overs)</desc><circle class="dot reactive tooltip-trigger" cx="505.3028846153846" cy="306.67338521531735" r="2.5"/><desc class="value">54.4</desc><desc class="x left top">505.3028846153846</desc><desc class="y left top">306.67338521531735</desc><desc class="x_label">2010</desc></g><g class="dots"><desc class="label">12 wickets in 24 innings (112.3 overs)</desc><circle class="dot reactive tooltip-trigger" cx="549.2932692307692" cy="308.88121819052856" r="2.5"/><desc class="value">53.58</desc><desc class="x left top">549.2932692307692</desc><desc class="y left top">308.88121819052856</desc><desc class="x_label">2011</desc></g><g class="dots"><desc class="label">7 wickets in 13 innings (61.3 overs)</desc><circle class="dot reactive tooltip-trigger" cx="629.9423076923076" cy="312.3545164076292" r="2.5"/><desc class="value">52.29</desc><desc class="x left top">629.9423076923076</desc><desc class="y left top">312.3545164076292</desc><desc class="x_label">2012</desc></g><g class="dots"><desc class="label">7 wickets in 10 innings (56.3 overs)</desc><circle class="dot reactive tooltip-trigger" cx="651.9375" cy="323.5283052455885" r="2.5"/><desc class="value">48.14</desc><desc class="x left top">651.9375</desc><desc class="y left top">323.5283052455885</desc><desc class="x_label">2013</desc></g></g><g class="series serie-1 color-1"><g class="dots"><desc class="label">0 wickets over 0 innings</desc><circle class="dot reactive tooltip-trigger" cx="14.076923076923077" cy="453.1442557659166" r="2.5"/><desc class="value">0</desc><desc class="x top">14.076923076923077</desc><desc class="y top">453.1442557659166</desc><desc class="x_label">2001</desc></g><g class="dots"><desc class="label">14 wickets in 14 innings (107.0 overs)</desc><circle class="dot reactive tooltip-trigger" cx="116.72115384615384" cy="352.1762843385734" r="2.5"/><desc class="value">37.5</desc><desc class="x top">116.72115384615384</desc><desc class="y top">352.1762843385734</desc><desc class="x_label">2002</desc></g><g class="dots"><desc class="label">20 wickets in 24 innings (175.0 overs)</desc><circle class="dot reactive tooltip-trigger" cx="190.03846153846155" cy="331.04032231978283" r="2.5"/><desc class="value">45.35</desc><desc class="x top">190.03846153846155</desc><desc class="y top">331.04032231978283</desc><desc class="x_label">2004</desc></g><g class="dots"><desc class="label">29 wickets in 30 innings (217.0 overs)</desc><circle class="dot reactive tooltip-trigger" cx="234.02884615384616" cy="348.5145125748084" r="2.5"/><desc class="value">38.86</desc><desc class="x top">234.02884615384616</desc><desc class="y top">348.5145125748084</desc><desc class="x_label">2005</desc></g><g class="dots"><desc class="label">32 wickets in 34 innings (234.0 overs)</desc><circle class="dot reactive tooltip-trigger" cx="263.3557692307693" cy="349.7261282319365" r="2.5"/><desc class="value">38.41</desc><desc class="x top">263.3557692307693</desc><desc class="y top">349.7261282319365</desc><desc class="x_label">2006</desc></g><g class="dots"><desc class="label">42 wickets in 45 innings (329.0 overs)</desc><circle class="dot reactive tooltip-trigger" cx="344.0048076923077" cy="343.4526516072509" r="2.5"/><desc class="value">40.74</desc><desc class="x top">344.0048076923077</desc><desc class="y top">343.4526516072509</desc><desc class="x_label">2007</desc></g><g class="dots"><desc class="label">64 wickets in 63 innings (467.2 overs)</desc><circle class="dot reactive tooltip-trigger" cx="475.9759615384615" cy="352.49938184714085" r="2.5"/><desc class="value">37.38</desc><desc class="x left top">475.9759615384615</desc><desc class="y left top">352.49938184714085</desc><desc class="x_label">2009</desc></g><g class="dots"><desc class="label">66 wickets in 67 innings (499.2 overs)</desc><circle class="dot reactive tooltip-trigger" cx="505.3028846153846" cy="349.618429062414" r="2.5"/><desc class="value">38.45</desc><desc class="x left top">505.3028846153846</desc><desc class="y left top">349.618429062414</desc><desc class="x_label">2010</desc></g><g class="dots"><desc class="label">69 wickets in 73 innings (528.5 overs)</desc><circle class="dot reactive tooltip-trigger" cx="549.2932692307692" cy="347.3567465024415" r="2.5"/><desc class="value">39.29</desc><desc class="x left top">549.2932692307692</desc><desc class="y left top">347.3567465024415</desc><desc class="x_label">2011</desc></g><g class="dots"><desc class="label">74 wickets in 84 innings (579.5 overs)</desc><circle class="dot reactive tooltip-trigger" cx="629.9423076923076" cy="344.4219441329534" r="2.5"/><desc class="value">40.38</desc><desc class="x left top">629.9423076923076</desc><desc class="y left top">344.4219441329534</desc><desc class="x_label">2012</desc></g><g class="dots"><desc class="label">74 wickets in 87 innings (584.5 overs)</desc><circle class="dot reactive tooltip-trigger" cx="651.9375" cy="343.371877230109" r="2.5"/><desc class="value">40.77</desc><desc class="x left top">651.9375</desc><desc class="y left top">343.371877230109</desc><desc class="x_label">2013</desc></g></g><g class="series serie-2 color-2"/></g><g class="plot text-overlay" transform="translate(48, 46)"><g class="series serie-0 color-0"/><g class="series serie-1 color-1"/><g class="series serie-2 color-2"/></g><g class="plot tooltip-overlay" transform="translate(48, 46)"><g class="tooltip" style="opacity: 0" transform="translate(0 0)"><rect class="tooltip-box" height="0" rx="10" ry="10" width="0"/><g class="text"/></g></g><g class="legends" transform="translate(58, 545)"><g class="legend reactive activate-serie" id="activate-serie-0"><rect class="color-0 reactive" height="12" width="12" x="0.0" y="1.0"/><text x="17.0" y="11.2">Future Average</text></g><g class="legend reactive activate-serie" id="activate-serie-1"><rect class="color-1 reactive" height="12" width="12" x="366.0" y="1.0"/><text x="383.0" y="11.2">Past Average</text></g><g class="legend reactive activate-serie" id="activate-serie-2"><rect class="color-2 reactive" height="12" width="12" x="0.0" y="22.0"/><text x="17.0" y="32.2">Career Average</text></g></g></g></svg>