<?xml version='1.0' encoding='utf-8'?>
<svg xmlns:xlink="http://www.w3.org/1999/xlink" xmlns="http://www.w3.org/2000/svg" id="chart-bcd0e5bc-90da-4f5f-b797-018469c2bcbe" class="pygal-chart" viewBox="0 0 800 600"><!--Generated with pygal 2.4.0 (lxml) ©Kozea 2012-2016 on 2019-08-04--><!--http://pygal.org--><!--http://github.com/Kozea/pygal--><defs><style type="text/css">#chart-bcd0e5bc-90da-4f5f-b797-018469c2bcbe{-webkit-user-select:none;-webkit-font-smoothing:antialiased;font-family:Consolas,"Liberation Mono",Menlo,Courier,monospace}#chart-bcd0e5bc-90da-4f5f-b797-018469c2bcbe .title{font-family:Consolas,"Liberation Mono",Menlo,Courier,monospace;font-size:16px}#chart-bcd0e5bc-90da-4f5f-b797-018469c2bcbe .legends .legend text{font-family:Consolas,"Liberation Mono",Menlo,Courier,monospace;font-size:14px}#chart-bcd0e5bc-90da-4f5f-b797-018469c2bcbe .axis text{font-family:Consolas,"Liberation Mono",Menlo,Courier,monospace;font-size:10px}#chart-bcd0e5bc-90da-4f5f-b797-018469c2bcbe .axis text.major{font-family:Consolas,"Liberation Mono",Menlo,Courier,monospace;font-size:10px}#chart-bcd0e5bc-90da-4f5f-b797-018469c2bcbe .text-overlay text.value{font-family:Consolas,"Liberation Mono",Menlo,Courier,monospace;font-size:16px}#chart-bcd0e5bc-90da-4f5f-b797-018469c2bcbe .text-overlay text.label{font-family:Consolas,"Liberation Mono",Menlo,Courier,monospace;font-size:10px}#chart-bcd0e5bc-90da-4f5f-b797-018469c2bcbe .tooltip{font-family:Consolas,"Liberation Mono",Menlo,Courier,monospace;font-size:14px}#chart-bcd0e5bc-90da-4f5f-b797-018469c2bcbe text.no_data{font-family:Consolas,"Liberation Mono",Menlo,Courier,monospace;font-size:64px}
#chart-bcd0e5bc-90da-4f5f-b797-018469c2bcbe{background-color:rgba(249,249,249,1)}#chart-bcd0e5bc-90da-4f5f-b797-018469c2bcbe path,#chart-bcd0e5bc-90da-4f5f-b797-018469c2bcbe line,#chart-bcd0e5bc-90da-4f5f-b797-018469c2bcbe rect,#chart-bcd0e5bc-90da-4f5f-b797-018469c2bcbe circle{-webkit-transition:150ms;-moz-transition:150ms;transition:150ms}#chart-bcd0e5bc-90da-4f5f-b797-018469c2bcbe .graph &gt; .background{fill:rgba(249,249,249,1)}#chart-bcd0e5bc-90da-4f5f-b797-018469c2bcbe .plot &gt; .background{fill:rgba(255,255,255,1)}#chart-bcd0e5bc-90da-4f5f-b797-018469c2bcbe .graph{fill:rgba(0,0,0,.87)}#chart-bcd0e5bc-90da-4f5f-b797-018469c2bcbe text.no_data{fill:rgba(0,0,0,1)}#chart-bcd0e5bc-90da-4f5f-b797-018469c2bcbe .title{fill:rgba(0,0,0,1)}#chart-bcd0e5bc-90da-4f5f-b797-018469c2bcbe .legends .legend text{fill:rgba(0,0,0,.87)}#chart-bcd0e5bc-90da-4f5f-b797-018469c2bcbe .legends .legend:hover text{fill:rgba(0,0,0,1)}#chart-bcd0e5bc-90da-4f5f-b797-018469c2bcbe .axis .line{stroke:rgba(0,0,0,1)}#chart-bcd0e5bc-90da-4f5f-b797-018469c2bcbe .axis .guide.line{stroke:rgba(0,0,0,.54)}#chart-bcd0e5bc-90da-4f5f-b797-018469c2bcbe .axis .major.line{stroke:rgba(0,0,0,.87)}#chart-bcd0e5bc-90da-4f5f-b797-018469c2bcbe .axis text.major{fill:rgba(0,0,0,1)}#chart-bcd0e5bc-90da-4f5f-b797-018469c2bcbe .axis.y .guides:hover .guide.line,#chart-bcd0e5bc-90da-4f5f-b797-018469c2bcbe .line-graph .axis.x .guides:hover .guide.line,#chart-bcd0e5bc-90da-4f5f-b797-018469c2bcbe .stackedline-graph .axis.x .guides:hover .guide.line,#chart-bcd0e5bc-90da-4f5f-b797-018469c2bcbe .xy-graph .axis.x .guides:hover .guide.line{stroke:rgba(0,0,0,1)}#chart-bcd0e5bc-90da-4f5f-b797-018469c2bcbe .axis .guides:hover text{fill:rgba(0,0,0,1)}#chart-bcd0e5bc-90da-4f5f-b797-018469c2bcbe .reactive{fill-opacity:.7;stroke-opacity:.8}#chart-bcd0e5bc-90da-4f5f-b797-018469c2bcbe .ci{stroke:rgba(0,0,0,.87)}#chart-bcd0e5bc-90da-4f5f-b797-018469c2bcbe .reactive.active,#chart-bcd0e5bc-90da-4f5f-b797-018469c2bcbe .active .reactive{fill-opacity:.8;stroke-opacity:.9;stroke-width:4}#chart-bcd0e5bc-90da-4f5f-b797-018469c2bcbe .ci .reactive.active{stroke-width:1.5}#chart-bcd0e5bc-90da-4f5f-b797-018469c2bcbe .series text{fill:rgba(0,0,0,1)}#chart-bcd0e5bc-90da-4f5f-b797-018469c2bcbe .tooltip rect{fill:rgba(255,255,255,1);stroke:rgba(0,0,0,1);-webkit-transition:opacity 150ms;-moz-transition:opacity 150ms;transition:opacity 150ms}#chart-bcd0e5bc-90da-4f5f-b797-018469c2bcbe .tooltip .label{fill:rgba(0,0,0,.87)}#chart-bcd0e5bc-90da-4f5f-b797-018469c2bcbe .tooltip .label{fill:rgba(0,0,0,.87)}#chart-bcd0e5bc-90da-4f5f-b797-018469c2bcbe .tooltip .legend{font-size:.8em;fill:rgba(0,0,0,.54)}#chart-bcd0e5bc-90da-4f5f-b797-018469c2bcbe .tooltip .x_label{font-size:.6em;fill:rgba(0,0,0,1)}#chart-bcd0e5bc-90da-4f5f-b797-018469c2bcbe .tooltip .xlink{font-size:.5em;text-decoration:underline}#chart-bcd0e5bc-90da-4f5f-b797-018469c2bcbe .tooltip .value{font-size:1.5em}#chart-bcd0e5bc-90da-4f5f-b797-018469c2bcbe .bound{font-size:.5em}#chart-bcd0e5bc-90da-4f5f-b797-018469c2bcbe .max-value{font-size:.75em;fill:rgba(0,0,0,.54)}#chart-bcd0e5bc-90da-4f5f-b797-018469c2bcbe .map-element{fill:rgba(255,255,255,1);stroke:rgba(0,0,0,.54) !important}#chart-bcd0e5bc-90da-4f5f-b797-018469c2bcbe .map-element .reactive{fill-opacity:inherit;stroke-opacity:inherit}#chart-bcd0e5bc-90da-4f5f-b797-018469c2bcbe .color-0,#chart-bcd0e5bc-90da-4f5f-b797-018469c2bcbe .color-0 a:visited{stroke:red;fill:red}#chart-bcd0e5bc-90da-4f5f-b797-018469c2bcbe .color-1,#chart-bcd0e5bc-90da-4f5f-b797-018469c2bcbe .color-1 a:visited{stroke:blue;fill:blue}#chart-bcd0e5bc-90da-4f5f-b797-018469c2bcbe .color-2,#chart-bcd0e5bc-90da-4f5f-b797-018469c2bcbe .color-2 a:visited{stroke:green;fill:green}#chart-bcd0e5bc-90da-4f5f-b797-018469c2bcbe .text-overlay .color-0 text{fill:white}#chart-bcd0e5bc-90da-4f5f-b797-018469c2bcbe .text-overlay .color-1 text{fill:white}#chart-bcd0e5bc-90da-4f5f-b797-018469c2bcbe .text-overlay .color-2 text{fill:white}
#chart-bcd0e5bc-90da-4f5f-b797-018469c2bcbe text.no_data{text-anchor:middle}#chart-bcd0e5bc-90da-4f5f-b797-018469c2bcbe .guide.line{fill:none}#chart-bcd0e5bc-90da-4f5f-b797-018469c2bcbe .centered{text-anchor:middle}#chart-bcd0e5bc-90da-4f5f-b797-018469c2bcbe .title{text-anchor:middle}#chart-bcd0e5bc-90da-4f5f-b797-018469c2bcbe .legends .legend text{fill-opacity:1}#chart-bcd0e5bc-90da-4f5f-b797-018469c2bcbe .axis.x text{text-anchor:middle}#chart-bcd0e5bc-90da-4f5f-b797-018469c2bcbe .axis.x:not(.web) text[transform]{text-anchor:start}#chart-bcd0e5bc-90da-4f5f-b797-018469c2bcbe .axis.x:not(.web) text[transform].backwards{text-anchor:end}#chart-bcd0e5bc-90da-4f5f-b797-018469c2bcbe .axis.y text{text-anchor:end}#chart-bcd0e5bc-90da-4f5f-b797-018469c2bcbe .axis.y text[transform].backwards{text-anchor:start}#chart-bcd0e5bc-90da-4f5f-b797-018469c2bcbe .axis.y2 text{text-anchor:start}#chart-bcd0e5bc-90da-4f5f-b797-018469c2bcbe .axis.y2 text[transform].backwards{text-anchor:end}#chart-bcd0e5bc-90da-4f5f-b797-018469c2bcbe .axis .guide.line{stroke-dasharray:4,4}#chart-bcd0e5bc-90da-4f5f-b797-018469c2bcbe .axis .major.guide.line{stroke-dasharray:6,6}#chart-bcd0e5bc-90da-4f5f-b797-018469c2bcbe .horizontal .axis.y .guide.line,#chart-bcd0e5bc-90da-4f5f-b797-018469c2bcbe .horizontal .axis.y2 .guide.line,#chart-bcd0e5bc-90da-4f5f-b797-018469c2bcbe .vertical .axis.x .guide.line{opacity:0}#chart-bcd0e5bc-90da-4f5f-b797-018469c2bcbe .horizontal .axis.always_show .guide.line,#chart-bcd0e5bc-90da-4f5f-b797-018469c2bcbe .vertical .axis.always_show .guide.line{opacity:1 !important}#chart-bcd0e5bc-90da-4f5f-b797-018469c2bcbe .axis.y .guides:hover .guide.line,#chart-bcd0e5bc-90da-4f5f-b797-018469c2bcbe .axis.y2 .guides:hover .guide.line,#chart-bcd0e5bc-90da-4f5f-b797-018469c2bcbe .axis.x .guides:hover .guide.line{opacity:1}#chart-bcd0e5bc-90da-4f5f-b797-018469c2bcbe .axis .guides:hover text{opacity:1}#chart-bcd0e5bc-90da-4f5f-b797-018469c2bcbe .nofill{fill:none}#chart-bcd0e5bc-90da-4f5f-b797-018469c2bcbe .subtle-fill{fill-opacity:.2}#chart-bcd0e5bc-90da-4f5f-b797-018469c2bcbe .dot{stroke-width:1px;fill-opacity:1}#chart-bcd0e5bc-90da-4f5f-b797-018469c2bcbe .dot.active{stroke-width:5px}#chart-bcd0e5bc-90da-4f5f-b797-018469c2bcbe .dot.negative{fill:transparent}#chart-bcd0e5bc-90da-4f5f-b797-018469c2bcbe text,#chart-bcd0e5bc-90da-4f5f-b797-018469c2bcbe tspan{stroke:none !important}#chart-bcd0e5bc-90da-4f5f-b797-018469c2bcbe .series text.active{opacity:1}#chart-bcd0e5bc-90da-4f5f-b797-018469c2bcbe .tooltip rect{fill-opacity:.95;stroke-width:.5}#chart-bcd0e5bc-90da-4f5f-b797-018469c2bcbe .tooltip text{fill-opacity:1}#chart-bcd0e5bc-90da-4f5f-b797-018469c2bcbe .showable{visibility:hidden}#chart-bcd0e5bc-90da-4f5f-b797-018469c2bcbe .showable.shown{visibility:visible}#chart-bcd0e5bc-90da-4f5f-b797-018469c2bcbe .gauge-background{fill:rgba(229,229,229,1);stroke:none}#chart-bcd0e5bc-90da-4f5f-b797-018469c2bcbe .bg-lines{stroke:rgba(249,249,249,1);stroke-width:2px}</style><script type="text/javascript">window.pygal = window.pygal || {};window.pygal.config = window.pygal.config || {};window.pygal.config['bcd0e5bc-90da-4f5f-b797-018469c2bcbe'] = {"allow_interruptions": false, "box_mode": "extremes", "classes": ["pygal-chart"], "css": ["file://style.css", "file://graph.css"], "defs": [], "disable_xml_declaration": false, "dots_size": 2.5, "dynamic_print_values": false, "explicit_size": false, "fill": false, "force_uri_protocol": "https", "formatter": null, "half_pie": false, "height": 600, "include_x_axis": false, "inner_radius": 0, "interpolate": null, "interpolation_parameters": {}, "interpolation_precision": 250, "inverse_y_axis": false, "js": ["//kozea.github.io/pygal.js/2.0.x/pygal-tooltips.min.js"], "legend_at_bottom": true, "legend_at_bottom_columns": null, "legend_box_size": 12, "logarithmic": false, "margin": 20, "margin_bottom": null, "margin_left": null, "margin_right": null, "margin_top": null, "max_scale": 16, "min_scale": 4, "missing_value_fill_truncation": "x", "no_data_text": "No data", "no_prefix": false, "order_min": null, "pretty_print": false, "print_labels": false, "print_values": false, "print_values_position": "center", "print_zeroes": true, "range": null, "rounded_bars": null, "secondary_range": null, "show_dots": true, "show_legend": true, "show_minor_x_labels": false, "show_minor_y_labels": true, "show_only_major_dots": false, "show_x_guides": false, "show_x_labels": true, "show_y_guides": true, "show_y_labels": true, "spacing": 10, "stack_from_top": false, "strict": false, "stroke": true, "stroke_style": null, "style": {"background": "rgba(249, 249, 249, 1)", "ci_colors": [], "colors": ["red", "blue", "green", "#a3a3a3"], "font_family": "Consolas, \"Liberation Mono\", Menlo, Courier, monospace", "foreground": "rgba(0, 0, 0, .87)", "foreground_strong": "rgba(0, 0, 0, 1)", "foreground_subtle": "rgba(0, 0, 0, .54)", "guide_stroke_dasharray": "4,4", "label_font_family": "Consolas, \"Liberation Mono\", Menlo, Courier, monospace", "label_font_size": 10, "legend_font_family": "Consolas, \"Liberation Mono\", Menlo, Courier, monospace", "legend_font_size": 14, "major_guide_stroke_dasharray": "6,6", "major_label_font_family": "Consolas, \"Liberation Mono\", Menlo, Courier, monospace", "major_label_font_size": 10, "no_data_font_family": "Consolas, \"Liberation Mono\", Menlo, Courier, monospace", "no_data_font_size": 64, "opacity": ".7", "opacity_hover": ".8", "plot_background": "rgba(255, 255, 255, 1)", "stroke_opacity": ".8", "stroke_opacity_hover": ".9", "title_font_family": "Consolas, \"Liberation Mono\", Menlo, Courier, monospace", "title_font_size": 16, "tooltip_font_family": "Consolas, \"Liberation Mono\", Menlo, Courier, monospace", "tooltip_font_size": 14, "transition": "150ms", "value_background": "rgba(229, 229, 229, 1)", "value_colors": [], "value_font_family": "Consolas, \"Liberation Mono\", Menlo, Courier, monospace", "value_font_size": 16, "value_label_font_family": "Consolas, \"Liberation Mono\", Menlo, Courier, monospace", "value_label_font_size": 10}, "title": "JH Kallis: Future and Past Averages in ODIs", "tooltip_border_radius": 10, "tooltip_fancy_mode": true, "truncate_label": null, "truncate_legend": null, "width": 800, "x_label_rotation": 45, "x_labels": ["1996", "0", "0", "0", "0", "0", "0", "1997", "0", "0", "0", "0", "0", "0", "0", "0", "0", "0", "1998", "0", "0", "0", "0", "0", "0", "0", "0", "0", "0", "0", "0", "0", "0", "0", "0", "1999", "0", "0", "0", "0", "0", "0", "0", "0", "0", "0", "0", "0", "0", "0", "0", "0", "0", "0", "0", "0", "0", "0", "0", "0", "2000", "0", "0", "0", "0", "0", "0", "0", "0", "0", "0", "0", "0", "0", "0", "0", "0", "0", "0", "0", "0", "0", "0", "0", "0", "0", "0", "0", "0", "0", "0", "0", "0", "0", "0", "0", "0", "2001", "0", "0", "0", "0", "0", "0", "0", "0", "0", "0", "0", "0", "0", "0", "0", "0", "0", "0", "2002", "0", "0", "0", "0", "0", "0", "0", "0", "0", "0", "0", "0", "0", "0", "0", "0", "0", "0", "0", "0", "0", "0", "0", "0", "0", "0", "0", "0", "0", "0", "0", "2003", "0", "0", "0", "0", "0", "0", "0", "0", "0", "0", "0", "0", "0", "0", "0", "0", "2004", "0", "0", "0", "0", "0", "0", "0", "0", "0", "0", "0", "0", "0", "0", "0", "2005", "0", "0", "0", "0", "0", "0", "0", "0", "0", "0", "0", "0", "0", "0", "0", "0", "0", "0", "2006", "0", "0", "0", "0", "0", "0", "0", "0", "0", "0", "0", "2007", "0", "0", "0", "0", "0", "0", "0", "0", "0", "0", "0", "0", "0", "0", "0", "0", "0", "0", "0", "0", "0", "0", "0", "0", "2008", "0", "0", "0", "0", "0", "0", "0", "0", "0", "0", "2009", "0", "0", "0", "0", "0", "0", "0", "0", "0", "2010", "0", "0", "0", "0", "0", "0", "0", "0", "0", "0", "2011", "0", "0", "0", "0", "0", "0", "0", "0", "2012", "0", "2013", "0", "0"], "x_labels_major": ["1996", "1997", "1998", "1999", "2000", "2001", "2002", "2003", "2004", "2005", "2006", "2007", "2008", "2009", "2010", "2011", "2012", "2013"], "x_labels_major_count": null, "x_labels_major_every": null, "x_title": null, "xrange": null, "y_label_rotation": 0, "y_labels": null, "y_labels_major": null, "y_labels_major_count": null, "y_labels_major_every": null, "y_title": null, "zero": 110.0, "legends": ["Future Average", "Past Average", "Career Average"]}</script><script type="text/javascript" xlink:href="https://kozea.github.io/pygal.js/2.0.x/pygal-tooltips.min.js"/></defs><title>JH Kallis: Future and Past Averages in ODIs</title><g class="graph line-graph vertical"><rect class="background" height="600" width="800" x="0" y="0"/><g class="plot" transform="translate(48, 46)"><rect class="background" height="462.02943725152284" width="732.0" x="0" y="0"/><g class="axis y always_show"><g class="guides"><path class="axis major line" d="M0.000000 453.144256 h732.000000"/><text class="major" x="-5" y="456.6442557659166">0</text><title>0</title></g><g class="guides"><path class="guide line" d="M0.000000 411.624716 h732.000000"/><text class="" x="-5" y="415.1247161135512">10</text><title>10</title></g><g class="guides"><path class="guide line" d="M0.000000 370.105176 h732.000000"/><text class="" x="-5" y="373.6051764611857">20</text><title>20</title></g><g class="guides"><path class="guide line" d="M0.000000 328.585637 h732.000000"/><text class="" x="-5" y="332.08563680882025">30</text><title>30</title></g><g class="guides"><path class="guide line" d="M0.000000 287.066097 h732.000000"/><text class="" x="-5" y="290.5660971564548">40</text><title>40</title></g><g class="guides"><path class="major guide line" d="M0.000000 245.546558 h732.000000"/><text class="major" x="-5" y="249.04655750408935">50</text><title>50</title></g><g class="guides"><path class="guide line" d="M0.000000 204.027018 h732.000000"/><text class="" x="-5" y="207.52701785172388">60</text><title>60</title></g><g class="guides"><path class="guide line" d="M0.000000 162.507478 h732.000000"/><text class="" x="-5" y="166.0074781993584">70</text><title>70</title></g><g class="guides"><path class="guide line" d="M0.000000 120.987939 h732.000000"/><text class="" x="-5" y="124.48793854699295">80</text><title>80</title></g><g class="guides"><path class="guide line" d="M0.000000 79.468399 h732.000000"/><text class="" x="-5" y="82.96839889462746">90</text><title>90</title></g><g class="guides"><path class="major guide line" d="M0.000000 37.948859 h732.000000"/><text class="major" x="-5" y="41.44885924226202">100</text><title>100</title></g></g><g class="axis x"><g class="guides"><path class="major line" d="M14.076923 0.000000 v462.029437"/><text class="major" x="14.076923076923077" y="477.02943725152284" transform="rotate(45 14.076923 477.029437)">1996</text></g><g class="guides"><path class="major guide line" d="M31.548282 0.000000 v462.029437"/><text class="major" x="31.548281505728312" y="477.02943725152284" transform="rotate(45 31.548282 477.029437)">1997</text></g><g class="guides"><path class="major guide line" d="M59.003273 0.000000 v462.029437"/><text class="major" x="59.00327332242225" y="477.02943725152284" transform="rotate(45 59.003273 477.029437)">1998</text></g><g class="guides"><path class="major guide line" d="M101.433715 0.000000 v462.029437"/><text class="major" x="101.43371522094927" y="477.02943725152284" transform="rotate(45 101.433715 477.029437)">1999</text></g><g class="guides"><path class="major guide line" d="M163.831424 0.000000 v462.029437"/><text class="major" x="163.83142389525366" y="477.02943725152284" transform="rotate(45 163.831424 477.029437)">2000</text></g><g class="guides"><path class="major guide line" d="M256.180033 0.000000 v462.029437"/><text class="major" x="256.1800327332242" y="477.02943725152284" transform="rotate(45 256.180033 477.029437)">2001</text></g><g class="guides"><path class="major guide line" d="M303.602291 0.000000 v462.029437"/><text class="major" x="303.6022913256956" y="477.02943725152284" transform="rotate(45 303.602291 477.029437)">2002</text></g><g class="guides"><path class="major guide line" d="M383.471358 0.000000 v462.029437"/><text class="major" x="383.4713584288052" y="477.02943725152284" transform="rotate(45 383.471358 477.029437)">2003</text></g><g class="guides"><path class="major guide line" d="M425.901800 0.000000 v462.029437"/><text class="major" x="425.90180032733224" y="477.02943725152284" transform="rotate(45 425.901800 477.029437)">2004</text></g><g class="guides"><path class="major guide line" d="M465.836334 0.000000 v462.029437"/><text class="major" x="465.83633387888705" y="477.02943725152284" transform="rotate(45 465.836334 477.029437)">2005</text></g><g class="guides"><path class="major guide line" d="M513.258592 0.000000 v462.029437"/><text class="major" x="513.2585924713584" y="477.02943725152284" transform="rotate(45 513.258592 477.029437)">2006</text></g><g class="guides"><path class="major guide line" d="M543.209493 0.000000 v462.029437"/><text class="major" x="543.2094926350245" y="477.02943725152284" transform="rotate(45 543.209493 477.029437)">2007</text></g><g class="guides"><path class="major guide line" d="M605.607201 0.000000 v462.029437"/><text class="major" x="605.6072013093291" y="477.02943725152284" transform="rotate(45 605.607201 477.029437)">2008</text></g><g class="guides"><path class="major guide line" d="M633.062193 0.000000 v462.029437"/><text class="major" x="633.062193126023" y="477.02943725152284" transform="rotate(45 633.062193 477.029437)">2009</text></g><g class="guides"><path class="major guide line" d="M658.021277 0.000000 v462.029437"/><text class="major" x="658.0212765957447" y="477.02943725152284" transform="rotate(45 658.021277 477.029437)">2010</text></g><g class="guides"><path class="major guide line" d="M685.476268 0.000000 v462.029437"/><text class="major" x="685.4762684124387" y="477.02943725152284" transform="rotate(45 685.476268 477.029437)">2011</text></g><g class="guides"><path class="major guide line" d="M707.939444 0.000000 v462.029437"/><text class="major" x="707.9394435351882" y="477.02943725152284" transform="rotate(45 707.939444 477.029437)">2012</text></g><g class="guides"><path class="major guide line" d="M712.931260 0.000000 v462.029437"/><text class="major" x="712.9312602291325" y="477.02943725152284" transform="rotate(45 712.931260 477.029437)">2013</text></g></g><g class="series serie-0 color-0"><path class="line reactive nofill" d="M14.076923 321.153639 L16.572831 321.361237 19.068740 321.776432 21.564648 321.900991 24.060556 322.316186 26.556465 322.772901 29.052373 321.651874 31.548282 321.651874 34.044190 321.029081 36.540098 321.568835 39.036007 321.984030 41.531915 322.274667 44.027823 322.440745 46.523732 322.772901 49.019640 323.229616 51.515548 323.769370 54.011457 323.935448 56.507365 324.516722 59.003273 324.350644 61.499182 324.143046 63.995090 323.644812 66.490998 323.063538 68.986907 323.188097 71.482815 323.561773 73.978723 323.935448 76.474632 324.724320 78.970540 325.014956 81.466448 324.973437 83.962357 324.226085 86.458265 324.143046 88.954173 324.267605 91.450082 324.143046 93.945990 324.516722 96.441899 323.769370 98.937807 324.350644 101.433715 322.233147 103.929624 322.606823 106.425532 323.478733 108.921440 322.274667 111.417349 322.150108 113.913257 322.067069 116.409165 321.236678 118.905074 320.240209 121.400982 320.281729 123.896890 320.240209 126.392799 320.613885 128.888707 321.029081 131.384615 320.074131 133.880524 320.032612 136.376432 320.821483 138.872340 319.534377 141.368249 318.911584 143.864157 319.575897 146.360065 320.240209 148.855974 321.112120 151.351882 320.198690 153.847791 320.115651 156.343699 320.323248 158.839607 320.406287 161.335516 319.700455 163.831424 319.700455 166.327332 319.119182 168.823241 319.783494 171.319149 319.326779 173.815057 319.492858 176.310966 319.866533 178.806874 320.364768 181.302782 319.617416 183.798691 319.783494 186.294599 320.198690 188.790507 319.617416 191.286416 319.326779 193.782324 318.911584 196.278232 318.953104 198.774141 319.575897 201.270049 319.451338 203.765957 319.866533 206.261866 318.662467 208.757774 318.081193 211.253682 316.877127 213.749591 317.915115 216.245499 317.582959 218.741408 318.288791 221.237316 319.202221 223.733224 318.953104 226.229133 319.036143 228.725041 318.039674 231.220949 316.877127 233.716858 317.084724 236.212766 316.171294 238.708674 316.295853 241.204583 315.548501 243.700491 316.461931 246.196399 316.005216 248.692308 315.548501 251.188216 316.794088 253.684124 316.005216 256.180033 316.752568 258.675941 316.918646 261.171849 316.046736 263.667758 315.216345 266.163666 316.544970 268.659574 315.756099 271.155483 315.008747 273.651391 315.922177 276.147300 313.015809 278.643208 312.808212 281.139116 312.683653 283.635025 313.264927 286.130933 313.015809 288.626841 313.472524 291.122750 313.804681 293.618658 313.555563 296.114566 314.676591 298.610475 314.967228 301.106383 314.718111 303.602291 315.839138 306.098200 313.929239 308.594108 313.638603 311.090016 314.718111 313.585925 314.261396 316.081833 314.552032 318.577741 316.088255 321.073650 316.794088 323.569558 314.552032 326.065466 314.012278 328.561375 315.133306 331.057283 315.714580 333.553191 316.752568 336.049100 317.998154 338.545008 317.790556 341.040917 318.039674 343.536825 316.544970 346.032733 315.922177 348.528642 317.707517 351.024550 317.541439 353.520458 316.752568 356.016367 317.292322 358.512275 317.873596 361.008183 314.552032 363.504092 315.299384 366.000000 314.676591 368.495908 315.839138 370.991817 314.427474 373.487725 313.804681 375.983633 314.759630 378.479542 314.302915 380.975450 313.140368 383.471358 308.282582 385.967267 310.275520 388.463175 311.147430 390.959083 312.932770 393.454992 313.638603 395.950900 314.053798 398.446809 311.728704 400.942717 312.517575 403.438625 312.393016 405.934534 311.728704 408.430442 309.445129 410.926350 309.777285 413.422259 311.188950 415.918167 310.524637 418.414075 311.479586 420.909984 313.140368 423.405892 312.559095 425.901800 313.514044 428.397709 311.438067 430.893617 307.078515 433.389525 307.161554 435.885434 308.988414 438.381342 310.109442 440.877250 309.445129 443.373159 309.943364 445.869067 311.438067 448.364975 311.853262 450.860884 312.559095 453.356792 314.219876 455.852700 310.234000 458.348609 311.230469 460.844517 313.638603 463.340426 315.174826 465.836334 316.752568 468.332242 317.126244 470.828151 318.288791 473.324059 320.530846 475.819967 320.738444 478.315876 320.655405 480.811784 321.195159 483.307692 322.523784 485.803601 321.610354 488.299509 321.734913 490.795417 321.734913 493.291326 322.191628 495.787234 319.285260 498.283142 318.953104 500.779051 320.779963 503.274959 321.402756 505.770867 320.323248 508.266776 321.693393 510.762684 323.769370 513.258592 323.105058 515.754501 324.433683 518.250409 323.478733 520.746318 327.630687 523.242226 324.931917 525.738134 322.440745 528.234043 318.039674 530.729951 318.122713 533.225859 320.364768 535.721768 313.804681 538.217676 311.022872 540.713584 311.521106 543.209493 313.181888 545.705401 307.825867 548.201309 311.271989 550.697218 311.728704 553.193126 310.317039 555.689034 305.999007 558.184943 307.576750 560.680851 309.403609 563.176759 312.143899 565.672668 314.261396 568.168576 316.046736 570.664484 315.506982 573.160393 312.642134 575.656301 314.261396 578.152209 313.140368 580.648118 315.050267 583.144026 313.846200 585.639935 308.988414 588.135843 309.818805 590.631751 313.555563 593.127660 311.313508 595.623568 311.645665 598.119476 315.008747 600.615385 312.891251 603.111293 314.635071 605.607201 316.129775 608.103110 318.662467 610.599018 316.129775 613.094926 316.254334 615.590835 313.431005 618.086743 307.950426 620.582651 308.490180 623.078560 304.628862 625.574468 307.410672 628.070376 308.365621 630.566285 304.836460 633.062193 309.237531 635.558101 314.261396 638.054010 312.766692 640.549918 318.579428 643.045827 315.174826 645.541735 318.205752 648.037643 322.191628 650.533552 325.554710 653.029460 332.405434 655.525368 336.266752 658.021277 333.900138 660.517185 323.105058 663.013093 331.408966 665.509002 334.813568 668.004910 330.578575 670.500818 327.962844 672.996727 333.567982 675.492635 335.560919 677.988543 340.377186 680.484452 341.041499 682.980360 344.196984 685.476268 329.789703 687.972177 336.017634 690.468085 323.063538 692.963993 327.879805 695.459902 332.737591 697.955810 315.216345 700.451718 317.956635 702.947627 319.243740 705.443535 341.041499 707.939444 315.423943 710.435352 293.294028 712.931260 284.284288 715.427169 166.659432 717.923077 370.105176"/></g><g class="series serie-1 color-1"><path class="line reactive nofill" d="M14.076923 453.144256 L16.572831 395.016900 19.068740 282.914143 21.564648 245.546558 24.060556 133.443800 26.556465 8.885181 29.052373 275.980380 31.548282 284.990120 34.044190 325.139515 36.540098 301.597936 39.036007 282.914143 41.531915 270.458281 44.027823 271.662348 46.523732 259.206486 49.019640 241.394604 51.515548 221.216107 54.011457 215.278813 56.507365 193.356496 59.003273 214.905137 61.499182 242.224994 63.995090 266.306327 66.490998 285.280757 68.986907 282.914143 71.482815 276.104939 73.978723 269.254215 76.474632 254.431739 78.970540 249.698511 81.466448 254.971493 83.962357 274.361118 86.458265 278.762189 88.954173 276.437095 91.450082 280.962725 93.945990 275.689743 96.441899 290.844375 98.937807 284.408847 101.433715 311.064391 103.929624 307.659789 106.425532 299.812596 108.921440 311.853262 111.417349 313.057329 113.913257 314.178357 116.409165 320.406287 118.905074 326.883336 121.400982 326.302062 123.896890 326.551179 126.392799 324.226085 128.888707 321.610354 131.384615 326.841816 133.880524 326.800297 136.376432 322.731382 138.872340 328.751715 141.368249 331.367446 143.864157 328.253480 146.360065 325.181035 148.855974 321.195159 151.351882 325.181035 153.847791 325.471671 156.343699 324.516722 158.839607 324.184566 161.335516 326.841816 163.831424 326.675738 166.327332 328.585637 168.823241 326.135984 171.319149 327.547648 173.815057 326.800297 176.310966 325.430152 178.806874 323.686331 181.302782 326.135984 183.798691 325.388632 186.294599 324.184566 188.790507 325.720789 191.286416 326.426621 193.782324 327.464609 196.278232 327.298531 198.774141 325.554710 201.270049 325.803828 203.765957 324.558241 206.261866 327.381570 208.757774 328.585637 211.253682 331.035290 213.749591 328.627156 216.245499 329.249949 218.741408 327.547648 221.237316 325.430152 223.733224 325.886867 226.229133 325.596230 228.725041 327.547648 231.220949 329.623625 233.716858 329.208430 236.212766 330.744653 238.708674 330.204899 241.204583 331.284407 243.700491 329.623625 246.196399 330.163379 248.692308 330.827692 251.188216 328.668676 253.684124 329.706664 256.180033 328.502598 258.675941 328.087402 261.171849 329.249949 263.667758 330.287938 266.163666 328.253480 268.659574 329.249949 271.155483 330.038821 273.651391 328.751715 276.147300 332.280876 278.643208 332.405434 281.139116 332.405434 283.635025 331.658083 286.130933 331.824161 288.626841 331.201368 291.122750 330.661614 293.618658 330.786172 296.114566 329.332989 298.610475 328.876274 301.106383 329.042352 303.602291 327.672207 306.098200 329.665145 308.594108 329.748184 311.090016 328.502598 313.585925 328.917793 316.081833 328.461078 318.577741 326.800297 321.073650 325.969906 323.569558 328.128922 326.065466 328.544117 328.561375 327.340051 331.057283 326.675738 333.553191 325.554710 336.049100 324.309124 338.545008 324.392163 341.040917 324.143046 343.536825 325.430152 346.032733 325.845347 348.528642 324.226085 351.024550 324.350644 353.520458 324.931917 356.016367 324.475202 358.512275 323.935448 361.008183 326.426621 363.504092 325.845347 366.000000 326.260543 368.495908 325.347113 370.991817 326.302062 373.487725 326.717258 375.983633 325.928386 378.479542 326.177504 380.975450 326.841816 383.471358 329.665145 385.967267 328.378039 388.463175 327.755246 390.959083 326.592699 393.454992 326.094464 395.950900 325.845347 398.446809 327.090933 400.942717 326.509660 403.438625 326.509660 405.934534 326.841816 408.430442 327.879805 410.926350 327.589168 413.422259 326.800297 415.918167 326.966375 418.414075 326.385101 420.909984 325.471671 423.405892 325.720789 425.901800 325.222554 428.397709 326.135984 430.893617 328.045883 433.389525 327.879805 435.885434 327.007894 438.381342 326.468140 440.877250 326.717258 443.373159 326.385101 445.869067 325.679269 448.364975 325.471671 450.860884 325.139515 453.356792 324.350644 455.852700 325.969906 458.348609 325.513191 460.844517 324.475202 463.340426 323.769370 465.836334 323.063538 468.332242 322.897460 470.828151 322.399225 473.324059 321.402756 475.819967 321.319717 478.315876 321.361237 480.811784 321.112120 483.307692 320.530846 485.803601 320.946042 488.299509 320.904522 490.795417 320.863002 493.291326 320.696924 495.787234 321.859471 498.283142 321.942510 500.779051 321.278198 503.274959 321.029081 505.770867 321.444276 508.266776 320.946042 510.762684 320.198690 513.258592 320.406287 515.754501 319.949573 518.250409 320.323248 520.746318 318.911584 523.242226 319.866533 525.738134 320.738444 528.234043 322.067069 530.729951 322.025550 533.225859 321.361237 535.721768 323.146577 538.217676 323.810890 540.713584 323.603292 543.209493 323.146577 545.705401 324.267605 548.201309 323.437214 550.697218 323.312655 553.193126 323.561773 555.689034 324.350644 558.184943 324.018487 560.680851 323.644812 563.176759 322.980499 565.672668 322.565304 568.168576 322.191628 570.664484 322.274667 573.160393 322.772901 575.656301 322.440745 578.152209 322.648343 580.648118 322.274667 583.144026 322.440745 585.639935 323.229616 588.135843 323.063538 590.631751 322.440745 593.127660 322.731382 595.623568 322.606823 598.119476 322.108589 600.615385 322.399225 603.111293 322.108589 605.607201 321.900991 608.103110 321.527315 610.599018 321.859471 613.094926 321.859471 615.590835 322.233147 618.086743 322.897460 620.582651 322.814421 623.078560 323.188097 625.574468 322.814421 628.070376 322.689862 630.566285 323.063538 633.062193 322.565304 635.558101 321.942510 638.054010 322.067069 640.549918 321.402756 643.045827 321.776432 645.541735 321.444276 648.037643 321.029081 650.533552 320.655405 653.029460 319.949573 655.525368 319.534377 658.021277 319.866533 660.517185 320.946042 663.013093 320.240209 665.509002 319.949573 668.004910 320.364768 670.500818 320.613885 672.996727 320.157170 675.492635 320.032612 677.988543 319.700455 680.484452 319.741975 682.980360 319.617416 685.476268 320.655405 687.972177 320.323248 690.468085 321.029081 692.963993 320.821483 695.459902 320.655405 697.955810 321.319717 700.451718 321.236678 702.947627 321.195159 705.443535 320.530846 707.939444 321.278198 710.435352 321.527315 712.931260 321.527315 715.427169 321.693393 717.923077 320.946042"/></g><g class="series serie-2 color-2"><path class="line reactive nofill" d="M14.076923 321.153639 L16.572831 321.153639 19.068740 321.153639 21.564648 321.153639 24.060556 321.153639 26.556465 321.153639 29.052373 321.153639 31.548282 321.153639 34.044190 321.153639 36.540098 321.153639 39.036007 321.153639 41.531915 321.153639 44.027823 321.153639 46.523732 321.153639 49.019640 321.153639 51.515548 321.153639 54.011457 321.153639 56.507365 321.153639 59.003273 321.153639 61.499182 321.153639 63.995090 321.153639 66.490998 321.153639 68.986907 321.153639 71.482815 321.153639 73.978723 321.153639 76.474632 321.153639 78.970540 321.153639 81.466448 321.153639 83.962357 321.153639 86.458265 321.153639 88.954173 321.153639 91.450082 321.153639 93.945990 321.153639 96.441899 321.153639 98.937807 321.153639 101.433715 321.153639 103.929624 321.153639 106.425532 321.153639 108.921440 321.153639 111.417349 321.153639 113.913257 321.153639 116.409165 321.153639 118.905074 321.153639 121.400982 321.153639 123.896890 321.153639 126.392799 321.153639 128.888707 321.153639 131.384615 321.153639 133.880524 321.153639 136.376432 321.153639 138.872340 321.153639 141.368249 321.153639 143.864157 321.153639 146.360065 321.153639 148.855974 321.153639 151.351882 321.153639 153.847791 321.153639 156.343699 321.153639 158.839607 321.153639 161.335516 321.153639 163.831424 321.153639 166.327332 321.153639 168.823241 321.153639 171.319149 321.153639 173.815057 321.153639 176.310966 321.153639 178.806874 321.153639 181.302782 321.153639 183.798691 321.153639 186.294599 321.153639 188.790507 321.153639 191.286416 321.153639 193.782324 321.153639 196.278232 321.153639 198.774141 321.153639 201.270049 321.153639 203.765957 321.153639 206.261866 321.153639 208.757774 321.153639 211.253682 321.153639 213.749591 321.153639 216.245499 321.153639 218.741408 321.153639 221.237316 321.153639 223.733224 321.153639 226.229133 321.153639 228.725041 321.153639 231.220949 321.153639 233.716858 321.153639 236.212766 321.153639 238.708674 321.153639 241.204583 321.153639 243.700491 321.153639 246.196399 321.153639 248.692308 321.153639 251.188216 321.153639 253.684124 321.153639 256.180033 321.153639 258.675941 321.153639 261.171849 321.153639 263.667758 321.153639 266.163666 321.153639 268.659574 321.153639 271.155483 321.153639 273.651391 321.153639 276.147300 321.153639 278.643208 321.153639 281.139116 321.153639 283.635025 321.153639 286.130933 321.153639 288.626841 321.153639 291.122750 321.153639 293.618658 321.153639 296.114566 321.153639 298.610475 321.153639 301.106383 321.153639 303.602291 321.153639 306.098200 321.153639 308.594108 321.153639 311.090016 321.153639 313.585925 321.153639 316.081833 321.153639 318.577741 321.153639 321.073650 321.153639 323.569558 321.153639 326.065466 321.153639 328.561375 321.153639 331.057283 321.153639 333.553191 321.153639 336.049100 321.153639 338.545008 321.153639 341.040917 321.153639 343.536825 321.153639 346.032733 321.153639 348.528642 321.153639 351.024550 321.153639 353.520458 321.153639 356.016367 321.153639 358.512275 321.153639 361.008183 321.153639 363.504092 321.153639 366.000000 321.153639 368.495908 321.153639 370.991817 321.153639 373.487725 321.153639 375.983633 321.153639 378.479542 321.153639 380.975450 321.153639 383.471358 321.153639 385.967267 321.153639 388.463175 321.153639 390.959083 321.153639 393.454992 321.153639 395.950900 321.153639 398.446809 321.153639 400.942717 321.153639 403.438625 321.153639 405.934534 321.153639 408.430442 321.153639 410.926350 321.153639 413.422259 321.153639 415.918167 321.153639 418.414075 321.153639 420.909984 321.153639 423.405892 321.153639 425.901800 321.153639 428.397709 321.153639 430.893617 321.153639 433.389525 321.153639 435.885434 321.153639 438.381342 321.153639 440.877250 321.153639 443.373159 321.153639 445.869067 321.153639 448.364975 321.153639 450.860884 321.153639 453.356792 321.153639 455.852700 321.153639 458.348609 321.153639 460.844517 321.153639 463.340426 321.153639 465.836334 321.153639 468.332242 321.153639 470.828151 321.153639 473.324059 321.153639 475.819967 321.153639 478.315876 321.153639 480.811784 321.153639 483.307692 321.153639 485.803601 321.153639 488.299509 321.153639 490.795417 321.153639 493.291326 321.153639 495.787234 321.153639 498.283142 321.153639 500.779051 321.153639 503.274959 321.153639 505.770867 321.153639 508.266776 321.153639 510.762684 321.153639 513.258592 321.153639 515.754501 321.153639 518.250409 321.153639 520.746318 321.153639 523.242226 321.153639 525.738134 321.153639 528.234043 321.153639 530.729951 321.153639 533.225859 321.153639 535.721768 321.153639 538.217676 321.153639 540.713584 321.153639 543.209493 321.153639 545.705401 321.153639 548.201309 321.153639 550.697218 321.153639 553.193126 321.153639 555.689034 321.153639 558.184943 321.153639 560.680851 321.153639 563.176759 321.153639 565.672668 321.153639 568.168576 321.153639 570.664484 321.153639 573.160393 321.153639 575.656301 321.153639 578.152209 321.153639 580.648118 321.153639 583.144026 321.153639 585.639935 321.153639 588.135843 321.153639 590.631751 321.153639 593.127660 321.153639 595.623568 321.153639 598.119476 321.153639 600.615385 321.153639 603.111293 321.153639 605.607201 321.153639 608.103110 321.153639 610.599018 321.153639 613.094926 321.153639 615.590835 321.153639 618.086743 321.153639 620.582651 321.153639 623.078560 321.153639 625.574468 321.153639 628.070376 321.153639 630.566285 321.153639 633.062193 321.153639 635.558101 321.153639 638.054010 321.153639 640.549918 321.153639 643.045827 321.153639 645.541735 321.153639 648.037643 321.153639 650.533552 321.153639 653.029460 321.153639 655.525368 321.153639 658.021277 321.153639 660.517185 321.153639 663.013093 321.153639 665.509002 321.153639 668.004910 321.153639 670.500818 321.153639 672.996727 321.153639 675.492635 321.153639 677.988543 321.153639 680.484452 321.153639 682.980360 321.153639 685.476268 321.153639 687.972177 321.153639 690.468085 321.153639 692.963993 321.153639 695.459902 321.153639 697.955810 321.153639 700.451718 321.153639 702.947627 321.153639 705.443535 321.153639 707.939444 321.153639 710.435352 321.153639 712.931260 321.153639 715.427169 321.153639 717.923077 321.153639"/></g></g><g class="titles"><text class="title plot_title" x="400.0" y="26">JH Kallis: Future and Past Averages in ODIs</text></g><g class="plot overlay" transform="translate(48, 46)"><g class="series serie-0 color-0"><g class="dots"><desc class="label">273 wickets in 283 innings (1791.4 overs)</desc><circle class="dot reactive tooltip-trigger" cx="14.076923076923077" cy="321.1536392110469" r="2.5"/><desc class="value">31.79</desc><desc class="x top">14.076923076923077</desc><desc class="y top">321.1536392110469</desc><desc class="x_label">1996</desc></g><g class="dots"><desc class="label">269 wickets in 276 innings (1754.4 overs)</desc><circle class="dot reactive tooltip-trigger" cx="31.548281505728312" cy="321.6518736868752" r="2.5"/><desc class="value">31.67</desc><desc class="x top">31.548281505728312</desc><desc class="y top">321.6518736868752</desc><desc class="x_label">1997</desc></g><g class="dots"><desc class="label">265 wickets in 265 innings (1696.4 overs)</desc><circle class="dot reactive tooltip-trigger" cx="59.00327332242225" cy="324.35064376427897" r="2.5"/><desc class="value">31.02</desc><desc class="x top">59.00327332242225</desc><desc class="y top">324.35064376427897</desc><desc class="x_label">1998</desc></g><g class="dots"><desc class="label">246 wickets in 248 innings (1605.0 overs)</desc><circle class="dot reactive tooltip-trigger" cx="101.43371522094927" cy="322.23314724200833" r="2.5"/><desc class="value">31.53</desc><desc class="x top">101.43371522094927</desc><desc class="y top">322.23314724200833</desc><desc class="x_label">1999</desc></g><g class="dots"><desc class="label">217 wickets in 223 innings (1418.5 overs)</desc><circle class="dot reactive tooltip-trigger" cx="163.83142389525366" cy="319.70045532321404" r="2.5"/><desc class="value">32.14</desc><desc class="x top">163.83142389525366</desc><desc class="y top">319.70045532321404</desc><desc class="x_label">2000</desc></g><g class="dots"><desc class="label">171 wickets in 186 innings (1135.0 overs)</desc><circle class="dot reactive tooltip-trigger" cx="256.1800327332242" cy="316.7525680078961" r="2.5"/><desc class="value">32.85</desc><desc class="x top">256.1800327332242</desc><desc class="y top">316.7525680078961</desc><desc class="x_label">2001</desc></g><g class="dots"><desc class="label">151 wickets in 167 innings (995.4 overs)</desc><circle class="dot reactive tooltip-trigger" cx="303.6022913256956" cy="315.8391381355441" r="2.5"/><desc class="value">33.07</desc><desc class="x top">303.6022913256956</desc><desc class="y top">315.8391381355441</desc><desc class="x_label">2002</desc></g><g class="dots"><desc class="label">109 wickets in 135 innings (744.2 overs)</desc><circle class="dot reactive tooltip-trigger" cx="383.4713584288052" cy="308.28258191881355" r="2.5"/><desc class="value">34.89</desc><desc class="x left top">383.4713584288052</desc><desc class="y left top">308.28258191881355</desc><desc class="x_label">2003</desc></g><g class="dots"><desc class="label">95 wickets in 118 innings (626.2 overs)</desc><circle class="dot reactive tooltip-trigger" cx="425.90180032733224" cy="313.5140439150116" r="2.5"/><desc class="value">33.63</desc><desc class="x left top">425.90180032733224</desc><desc class="y left top">313.5140439150116</desc><desc class="x_label">2004</desc></g><g class="dots"><desc class="label">84 wickets in 102 innings (546.2 overs)</desc><circle class="dot reactive tooltip-trigger" cx="465.83633387888705" cy="316.7525680078961" r="2.5"/><desc class="value">32.85</desc><desc class="x left top">465.83633387888705</desc><desc class="y left top">316.7525680078961</desc><desc class="x_label">2005</desc></g><g class="dots"><desc class="label">72 wickets in 83 innings (453.2 overs)</desc><circle class="dot reactive tooltip-trigger" cx="513.2585924713584" cy="323.105057574708" r="2.5"/><desc class="value">31.32</desc><desc class="x left top">513.2585924713584</desc><desc class="y left top">323.105057574708</desc><desc class="x_label">2006</desc></g><g class="dots"><desc class="label">55 wickets in 71 innings (370.1 overs)</desc><circle class="dot reactive tooltip-trigger" cx="543.2094926350245" cy="313.18188759779264" r="2.5"/><desc class="value">33.71</desc><desc class="x left top">543.2094926350245</desc><desc class="y left top">313.18188759779264</desc><desc class="x_label">2007</desc></g><g class="dots"><desc class="label">36 wickets in 46 innings (239.0 overs)</desc><circle class="dot reactive tooltip-trigger" cx="605.6072013093291" cy="316.1297749131106" r="2.5"/><desc class="value">33</desc><desc class="x left top">605.6072013093291</desc><desc class="y left top">316.1297749131106</desc><desc class="x_label">2008</desc></g><g class="dots"><desc class="label">29 wickets in 35 innings (199.0 overs)</desc><circle class="dot reactive tooltip-trigger" cx="633.062193126023" cy="309.23753133081794" r="2.5"/><desc class="value">34.66</desc><desc class="x left top">633.062193126023</desc><desc class="y left top">309.23753133081794</desc><desc class="x_label">2009</desc></g><g class="dots"><desc class="label">25 wickets in 25 innings (142.0 overs)</desc><circle class="dot reactive tooltip-trigger" cx="658.0212765957447" cy="333.90013788432304" r="2.5"/><desc class="value">28.72</desc><desc class="x left top">658.0212765957447</desc><desc class="y left top">333.90013788432304</desc><desc class="x_label">2010</desc></g><g class="dots"><desc class="label">14 wickets in 14 innings (80.0 overs)</desc><circle class="dot reactive tooltip-trigger" cx="685.4762684124387" cy="329.7897034587388" r="2.5"/><desc class="value">29.71</desc><desc class="x left top">685.4762684124387</desc><desc class="y left top">329.7897034587388</desc><desc class="x_label">2011</desc></g><g class="dots"><desc class="label">6 wickets in 5 innings (32.0 overs)</desc><circle class="dot reactive tooltip-trigger" cx="707.9394435351882" cy="315.4239427390204" r="2.5"/><desc class="value">33.17</desc><desc class="x left top">707.9394435351882</desc><desc class="y left top">315.4239427390204</desc><desc class="x_label">2012</desc></g><g class="dots"><desc class="label">3 wickets in 3 innings (19.0 overs)</desc><circle class="dot reactive tooltip-trigger" cx="712.9312602291325" cy="284.2842879997463" r="2.5"/><desc class="value">40.67</desc><desc class="x left top">712.9312602291325</desc><desc class="y left top">284.2842879997463</desc><desc class="x_label">2013</desc></g></g><g class="series serie-1 color-1"><g class="dots"><desc class="label">0 wickets over 0 innings</desc><circle class="dot reactive tooltip-trigger" cx="14.076923076923077" cy="453.1442557659166" r="2.5"/><desc class="value">0</desc><desc class="x top">14.076923076923077</desc><desc class="y top">453.1442557659166</desc><desc class="x_label">1996</desc></g><g class="dots"><desc class="label">4 wickets in 7 innings (37.0 overs)</desc><circle class="dot reactive tooltip-trigger" cx="31.548281505728312" cy="284.99012017383654" r="2.5"/><desc class="value">40.5</desc><desc class="x top">31.548281505728312</desc><desc class="y top">284.99012017383654</desc><desc class="x_label">1997</desc></g><g class="dots"><desc class="label">8 wickets in 18 innings (95.0 overs)</desc><circle class="dot reactive tooltip-trigger" cx="59.00327332242225" cy="214.90513724064363" r="2.5"/><desc class="value">57.38</desc><desc class="x ">59.00327332242225</desc><desc class="y ">214.90513724064363</desc><desc class="x_label">1998</desc></g><g class="dots"><desc class="label">27 wickets in 35 innings (186.4 overs)</desc><circle class="dot reactive tooltip-trigger" cx="101.43371522094927" cy="311.06439107552205" r="2.5"/><desc class="value">34.22</desc><desc class="x top">101.43371522094927</desc><desc class="y top">311.06439107552205</desc><desc class="x_label">1999</desc></g><g class="dots"><desc class="label">56 wickets in 60 innings (372.5 overs)</desc><circle class="dot reactive tooltip-trigger" cx="163.83142389525366" cy="326.67573798481146" r="2.5"/><desc class="value">30.46</desc><desc class="x top">163.83142389525366</desc><desc class="y top">326.67573798481146</desc><desc class="x_label">2000</desc></g><g class="dots"><desc class="label">102 wickets in 97 innings (656.4 overs)</desc><circle class="dot reactive tooltip-trigger" cx="256.1800327332242" cy="328.5025977295155" r="2.5"/><desc class="value">30.02</desc><desc class="x top">256.1800327332242</desc><desc class="y top">328.5025977295155</desc><desc class="x_label">2001</desc></g><g class="dots"><desc class="label">122 wickets in 116 innings (796.0 overs)</desc><circle class="dot reactive tooltip-trigger" cx="303.6022913256956" cy="327.6722069364682" r="2.5"/><desc class="value">30.22</desc><desc class="x top">303.6022913256956</desc><desc class="y top">327.6722069364682</desc><desc class="x_label">2002</desc></g><g class="dots"><desc class="label">164 wickets in 148 innings (1047.2 overs)</desc><circle class="dot reactive tooltip-trigger" cx="383.4713584288052" cy="329.66514483978176" r="2.5"/><desc class="value">29.74</desc><desc class="x left top">383.4713584288052</desc><desc class="y left top">329.66514483978176</desc><desc class="x_label">2003</desc></g><g class="dots"><desc class="label">178 wickets in 165 innings (1165.2 overs)</desc><circle class="dot reactive tooltip-trigger" cx="425.90180032733224" cy="325.2225540969787" r="2.5"/><desc class="value">30.81</desc><desc class="x left top">425.90180032733224</desc><desc class="y left top">325.2225540969787</desc><desc class="x_label">2004</desc></g><g class="dots"><desc class="label">189 wickets in 181 innings (1245.2 overs)</desc><circle class="dot reactive tooltip-trigger" cx="465.83633387888705" cy="323.06353803505567" r="2.5"/><desc class="value">31.33</desc><desc class="x left top">465.83633387888705</desc><desc class="y left top">323.06353803505567</desc><desc class="x_label">2005</desc></g><g class="dots"><desc class="label">201 wickets in 200 innings (1338.2 overs)</desc><circle class="dot reactive tooltip-trigger" cx="513.2585924713584" cy="320.4062874973042" r="2.5"/><desc class="value">31.97</desc><desc class="x left top">513.2585924713584</desc><desc class="y left top">320.4062874973042</desc><desc class="x_label">2006</desc></g><g class="dots"><desc class="label">218 wickets in 212 innings (1421.3 overs)</desc><circle class="dot reactive tooltip-trigger" cx="543.2094926350245" cy="323.1465771143604" r="2.5"/><desc class="value">31.31</desc><desc class="x left top">543.2094926350245</desc><desc class="y left top">323.1465771143604</desc><desc class="x_label">2007</desc></g><g class="dots"><desc class="label">237 wickets in 237 innings (1552.4 overs)</desc><circle class="dot reactive tooltip-trigger" cx="605.6072013093291" cy="321.9009909247894" r="2.5"/><desc class="value">31.61</desc><desc class="x left top">605.6072013093291</desc><desc class="y left top">321.9009909247894</desc><desc class="x_label">2008</desc></g><g class="dots"><desc class="label">244 wickets in 248 innings (1592.4 overs)</desc><circle class="dot reactive tooltip-trigger" cx="633.062193126023" cy="322.56530355922723" r="2.5"/><desc class="value">31.45</desc><desc class="x left top">633.062193126023</desc><desc class="y left top">322.56530355922723</desc><desc class="x_label">2009</desc></g><g class="dots"><desc class="label">248 wickets in 258 innings (1649.4 overs)</desc><circle class="dot reactive tooltip-trigger" cx="658.0212765957447" cy="319.86653348182347" r="2.5"/><desc class="value">32.1</desc><desc class="x left top">658.0212765957447</desc><desc class="y left top">319.86653348182347</desc><desc class="x_label">2010</desc></g><g class="dots"><desc class="label">259 wickets in 269 innings (1711.4 overs)</desc><circle class="dot reactive tooltip-trigger" cx="685.4762684124387" cy="320.65540473521844" r="2.5"/><desc class="value">31.91</desc><desc class="x left top">685.4762684124387</desc><desc class="y left top">320.65540473521844</desc><desc class="x_label">2011</desc></g><g class="dots"><desc class="label">267 wickets in 278 innings (1759.4 overs)</desc><circle class="dot reactive tooltip-trigger" cx="707.9394435351882" cy="321.27819783000393" r="2.5"/><desc class="value">31.76</desc><desc class="x left top">707.9394435351882</desc><desc class="y left top">321.27819783000393</desc><desc class="x_label">2012</desc></g><g class="dots"><desc class="label">270 wickets in 280 innings (1772.4 overs)</desc><circle class="dot reactive tooltip-trigger" cx="712.9312602291325" cy="321.52731506791815" r="2.5"/><desc class="value">31.7</desc><desc class="x left top">712.9312602291325</desc><desc class="y left top">321.52731506791815</desc><desc class="x_label">2013</desc></g></g><g class="series serie-2 color-2"/></g><g class="plot text-overlay" transform="translate(48, 46)"><g class="series serie-0 color-0"/><g class="series serie-1 color-1"/><g class="series serie-2 color-2"/></g><g class="plot tooltip-overlay" transform="translate(48, 46)"><g class="tooltip" style="opacity: 0" transform="translate(0 0)"><rect class="tooltip-box" height="0" rx="10" ry="10" width="0"/><g class="text"/></g></g><g class="legends" transform="translate(58, 545)"><g class="legend reactive activate-serie" id="activate-serie-0"><rect class="color-0 reactive" height="12" width="12" x="0.0" y="1.0"/><text x="17.0" y="11.2">Future Average</text></g><g class="legend reactive activate-serie" id="activate-serie-1"><rect class="color-1 reactive" height="12" width="12" x="366.0" y="1.0"/><text x="383.0" y="11.2">Past Average</text></g><g class="legend reactive activate-serie" id="activate-serie-2"><rect class="color-2 reactive" height="12" width="12" x="0.0" y="22.0"/><text x="17.0" y="32.2">Career Average</text></g></g></g></svg>