<?xml version='1.0' encoding='utf-8'?>
<svg xmlns:xlink="http://www.w3.org/1999/xlink" xmlns="http://www.w3.org/2000/svg" id="chart-07bdd7dd-56e1-44f7-b413-ad2818bf460f" class="pygal-chart" viewBox="0 0 800 600"><!--Generated with pygal 2.4.0 (lxml) ©Kozea 2012-2016 on 2019-08-04--><!--http://pygal.org--><!--http://github.com/Kozea/pygal--><defs><style type="text/css">#chart-07bdd7dd-56e1-44f7-b413-ad2818bf460f{-webkit-user-select:none;-webkit-font-smoothing:antialiased;font-family:Consolas,"Liberation Mono",Menlo,Courier,monospace}#chart-07bdd7dd-56e1-44f7-b413-ad2818bf460f .title{font-family:Consolas,"Liberation Mono",Menlo,Courier,monospace;font-size:16px}#chart-07bdd7dd-56e1-44f7-b413-ad2818bf460f .legends .legend text{font-family:Consolas,"Liberation Mono",Menlo,Courier,monospace;font-size:14px}#chart-07bdd7dd-56e1-44f7-b413-ad2818bf460f .axis text{font-family:Consolas,"Liberation Mono",Menlo,Courier,monospace;font-size:10px}#chart-07bdd7dd-56e1-44f7-b413-ad2818bf460f .axis text.major{font-family:Consolas,"Liberation Mono",Menlo,Courier,monospace;font-size:10px}#chart-07bdd7dd-56e1-44f7-b413-ad2818bf460f .text-overlay text.value{font-family:Consolas,"Liberation Mono",Menlo,Courier,monospace;font-size:16px}#chart-07bdd7dd-56e1-44f7-b413-ad2818bf460f .text-overlay text.label{font-family:Consolas,"Liberation Mono",Menlo,Courier,monospace;font-size:10px}#chart-07bdd7dd-56e1-44f7-b413-ad2818bf460f .tooltip{font-family:Consolas,"Liberation Mono",Menlo,Courier,monospace;font-size:14px}#chart-07bdd7dd-56e1-44f7-b413-ad2818bf460f text.no_data{font-family:Consolas,"Liberation Mono",Menlo,Courier,monospace;font-size:64px}
#chart-07bdd7dd-56e1-44f7-b413-ad2818bf460f{background-color:rgba(249,249,249,1)}#chart-07bdd7dd-56e1-44f7-b413-ad2818bf460f path,#chart-07bdd7dd-56e1-44f7-b413-ad2818bf460f line,#chart-07bdd7dd-56e1-44f7-b413-ad2818bf460f rect,#chart-07bdd7dd-56e1-44f7-b413-ad2818bf460f circle{-webkit-transition:150ms;-moz-transition:150ms;transition:150ms}#chart-07bdd7dd-56e1-44f7-b413-ad2818bf460f .graph &gt; .background{fill:rgba(249,249,249,1)}#chart-07bdd7dd-56e1-44f7-b413-ad2818bf460f .plot &gt; .background{fill:rgba(255,255,255,1)}#chart-07bdd7dd-56e1-44f7-b413-ad2818bf460f .graph{fill:rgba(0,0,0,.87)}#chart-07bdd7dd-56e1-44f7-b413-ad2818bf460f text.no_data{fill:rgba(0,0,0,1)}#chart-07bdd7dd-56e1-44f7-b413-ad2818bf460f .title{fill:rgba(0,0,0,1)}#chart-07bdd7dd-56e1-44f7-b413-ad2818bf460f .legends .legend text{fill:rgba(0,0,0,.87)}#chart-07bdd7dd-56e1-44f7-b413-ad2818bf460f .legends .legend:hover text{fill:rgba(0,0,0,1)}#chart-07bdd7dd-56e1-44f7-b413-ad2818bf460f .axis .line{stroke:rgba(0,0,0,1)}#chart-07bdd7dd-56e1-44f7-b413-ad2818bf460f .axis .guide.line{stroke:rgba(0,0,0,.54)}#chart-07bdd7dd-56e1-44f7-b413-ad2818bf460f .axis .major.line{stroke:rgba(0,0,0,.87)}#chart-07bdd7dd-56e1-44f7-b413-ad2818bf460f .axis text.major{fill:rgba(0,0,0,1)}#chart-07bdd7dd-56e1-44f7-b413-ad2818bf460f .axis.y .guides:hover .guide.line,#chart-07bdd7dd-56e1-44f7-b413-ad2818bf460f .line-graph .axis.x .guides:hover .guide.line,#chart-07bdd7dd-56e1-44f7-b413-ad2818bf460f .stackedline-graph .axis.x .guides:hover .guide.line,#chart-07bdd7dd-56e1-44f7-b413-ad2818bf460f .xy-graph .axis.x .guides:hover .guide.line{stroke:rgba(0,0,0,1)}#chart-07bdd7dd-56e1-44f7-b413-ad2818bf460f .axis .guides:hover text{fill:rgba(0,0,0,1)}#chart-07bdd7dd-56e1-44f7-b413-ad2818bf460f .reactive{fill-opacity:.7;stroke-opacity:.8}#chart-07bdd7dd-56e1-44f7-b413-ad2818bf460f .ci{stroke:rgba(0,0,0,.87)}#chart-07bdd7dd-56e1-44f7-b413-ad2818bf460f .reactive.active,#chart-07bdd7dd-56e1-44f7-b413-ad2818bf460f .active .reactive{fill-opacity:.8;stroke-opacity:.9;stroke-width:4}#chart-07bdd7dd-56e1-44f7-b413-ad2818bf460f .ci .reactive.active{stroke-width:1.5}#chart-07bdd7dd-56e1-44f7-b413-ad2818bf460f .series text{fill:rgba(0,0,0,1)}#chart-07bdd7dd-56e1-44f7-b413-ad2818bf460f .tooltip rect{fill:rgba(255,255,255,1);stroke:rgba(0,0,0,1);-webkit-transition:opacity 150ms;-moz-transition:opacity 150ms;transition:opacity 150ms}#chart-07bdd7dd-56e1-44f7-b413-ad2818bf460f .tooltip .label{fill:rgba(0,0,0,.87)}#chart-07bdd7dd-56e1-44f7-b413-ad2818bf460f .tooltip .label{fill:rgba(0,0,0,.87)}#chart-07bdd7dd-56e1-44f7-b413-ad2818bf460f .tooltip .legend{font-size:.8em;fill:rgba(0,0,0,.54)}#chart-07bdd7dd-56e1-44f7-b413-ad2818bf460f .tooltip .x_label{font-size:.6em;fill:rgba(0,0,0,1)}#chart-07bdd7dd-56e1-44f7-b413-ad2818bf460f .tooltip .xlink{font-size:.5em;text-decoration:underline}#chart-07bdd7dd-56e1-44f7-b413-ad2818bf460f .tooltip .value{font-size:1.5em}#chart-07bdd7dd-56e1-44f7-b413-ad2818bf460f .bound{font-size:.5em}#chart-07bdd7dd-56e1-44f7-b413-ad2818bf460f .max-value{font-size:.75em;fill:rgba(0,0,0,.54)}#chart-07bdd7dd-56e1-44f7-b413-ad2818bf460f .map-element{fill:rgba(255,255,255,1);stroke:rgba(0,0,0,.54) !important}#chart-07bdd7dd-56e1-44f7-b413-ad2818bf460f .map-element .reactive{fill-opacity:inherit;stroke-opacity:inherit}#chart-07bdd7dd-56e1-44f7-b413-ad2818bf460f .color-0,#chart-07bdd7dd-56e1-44f7-b413-ad2818bf460f .color-0 a:visited{stroke:red;fill:red}#chart-07bdd7dd-56e1-44f7-b413-ad2818bf460f .color-1,#chart-07bdd7dd-56e1-44f7-b413-ad2818bf460f .color-1 a:visited{stroke:blue;fill:blue}#chart-07bdd7dd-56e1-44f7-b413-ad2818bf460f .color-2,#chart-07bdd7dd-56e1-44f7-b413-ad2818bf460f .color-2 a:visited{stroke:green;fill:green}#chart-07bdd7dd-56e1-44f7-b413-ad2818bf460f .text-overlay .color-0 text{fill:white}#chart-07bdd7dd-56e1-44f7-b413-ad2818bf460f .text-overlay .color-1 text{fill:white}#chart-07bdd7dd-56e1-44f7-b413-ad2818bf460f .text-overlay .color-2 text{fill:white}
#chart-07bdd7dd-56e1-44f7-b413-ad2818bf460f text.no_data{text-anchor:middle}#chart-07bdd7dd-56e1-44f7-b413-ad2818bf460f .guide.line{fill:none}#chart-07bdd7dd-56e1-44f7-b413-ad2818bf460f .centered{text-anchor:middle}#chart-07bdd7dd-56e1-44f7-b413-ad2818bf460f .title{text-anchor:middle}#chart-07bdd7dd-56e1-44f7-b413-ad2818bf460f .legends .legend text{fill-opacity:1}#chart-07bdd7dd-56e1-44f7-b413-ad2818bf460f .axis.x text{text-anchor:middle}#chart-07bdd7dd-56e1-44f7-b413-ad2818bf460f .axis.x:not(.web) text[transform]{text-anchor:start}#chart-07bdd7dd-56e1-44f7-b413-ad2818bf460f .axis.x:not(.web) text[transform].backwards{text-anchor:end}#chart-07bdd7dd-56e1-44f7-b413-ad2818bf460f .axis.y text{text-anchor:end}#chart-07bdd7dd-56e1-44f7-b413-ad2818bf460f .axis.y text[transform].backwards{text-anchor:start}#chart-07bdd7dd-56e1-44f7-b413-ad2818bf460f .axis.y2 text{text-anchor:start}#chart-07bdd7dd-56e1-44f7-b413-ad2818bf460f .axis.y2 text[transform].backwards{text-anchor:end}#chart-07bdd7dd-56e1-44f7-b413-ad2818bf460f .axis .guide.line{stroke-dasharray:4,4}#chart-07bdd7dd-56e1-44f7-b413-ad2818bf460f .axis .major.guide.line{stroke-dasharray:6,6}#chart-07bdd7dd-56e1-44f7-b413-ad2818bf460f .horizontal .axis.y .guide.line,#chart-07bdd7dd-56e1-44f7-b413-ad2818bf460f .horizontal .axis.y2 .guide.line,#chart-07bdd7dd-56e1-44f7-b413-ad2818bf460f .vertical .axis.x .guide.line{opacity:0}#chart-07bdd7dd-56e1-44f7-b413-ad2818bf460f .horizontal .axis.always_show .guide.line,#chart-07bdd7dd-56e1-44f7-b413-ad2818bf460f .vertical .axis.always_show .guide.line{opacity:1 !important}#chart-07bdd7dd-56e1-44f7-b413-ad2818bf460f .axis.y .guides:hover .guide.line,#chart-07bdd7dd-56e1-44f7-b413-ad2818bf460f .axis.y2 .guides:hover .guide.line,#chart-07bdd7dd-56e1-44f7-b413-ad2818bf460f .axis.x .guides:hover .guide.line{opacity:1}#chart-07bdd7dd-56e1-44f7-b413-ad2818bf460f .axis .guides:hover text{opacity:1}#chart-07bdd7dd-56e1-44f7-b413-ad2818bf460f .nofill{fill:none}#chart-07bdd7dd-56e1-44f7-b413-ad2818bf460f .subtle-fill{fill-opacity:.2}#chart-07bdd7dd-56e1-44f7-b413-ad2818bf460f .dot{stroke-width:1px;fill-opacity:1}#chart-07bdd7dd-56e1-44f7-b413-ad2818bf460f .dot.active{stroke-width:5px}#chart-07bdd7dd-56e1-44f7-b413-ad2818bf460f .dot.negative{fill:transparent}#chart-07bdd7dd-56e1-44f7-b413-ad2818bf460f text,#chart-07bdd7dd-56e1-44f7-b413-ad2818bf460f tspan{stroke:none !important}#chart-07bdd7dd-56e1-44f7-b413-ad2818bf460f .series text.active{opacity:1}#chart-07bdd7dd-56e1-44f7-b413-ad2818bf460f .tooltip rect{fill-opacity:.95;stroke-width:.5}#chart-07bdd7dd-56e1-44f7-b413-ad2818bf460f .tooltip text{fill-opacity:1}#chart-07bdd7dd-56e1-44f7-b413-ad2818bf460f .showable{visibility:hidden}#chart-07bdd7dd-56e1-44f7-b413-ad2818bf460f .showable.shown{visibility:visible}#chart-07bdd7dd-56e1-44f7-b413-ad2818bf460f .gauge-background{fill:rgba(229,229,229,1);stroke:none}#chart-07bdd7dd-56e1-44f7-b413-ad2818bf460f .bg-lines{stroke:rgba(249,249,249,1);stroke-width:2px}</style><script type="text/javascript">window.pygal = window.pygal || {};window.pygal.config = window.pygal.config || {};window.pygal.config['07bdd7dd-56e1-44f7-b413-ad2818bf460f'] = {"allow_interruptions": false, "box_mode": "extremes", "classes": ["pygal-chart"], "css": ["file://style.css", "file://graph.css"], "defs": [], "disable_xml_declaration": false, "dots_size": 2.5, "dynamic_print_values": false, "explicit_size": false, "fill": false, "force_uri_protocol": "https", "formatter": null, "half_pie": false, "height": 600, "include_x_axis": false, "inner_radius": 0, "interpolate": null, "interpolation_parameters": {}, "interpolation_precision": 250, "inverse_y_axis": false, "js": ["//kozea.github.io/pygal.js/2.0.x/pygal-tooltips.min.js"], "legend_at_bottom": true, "legend_at_bottom_columns": null, "legend_box_size": 12, "logarithmic": false, "margin": 20, "margin_bottom": null, "margin_left": null, "margin_right": null, "margin_top": null, "max_scale": 16, "min_scale": 4, "missing_value_fill_truncation": "x", "no_data_text": "No data", "no_prefix": false, "order_min": null, "pretty_print": false, "print_labels": false, "print_values": false, "print_values_position": "center", "print_zeroes": true, "range": null, "rounded_bars": null, "secondary_range": null, "show_dots": true, "show_legend": true, "show_minor_x_labels": false, "show_minor_y_labels": true, "show_only_major_dots": false, "show_x_guides": false, "show_x_labels": true, "show_y_guides": true, "show_y_labels": true, "spacing": 10, "stack_from_top": false, "strict": false, "stroke": true, "stroke_style": null, "style": {"background": "rgba(249, 249, 249, 1)", "ci_colors": [], "colors": ["red", "blue", "green", "#a3a3a3"], "font_family": "Consolas, \"Liberation Mono\", Menlo, Courier, monospace", "foreground": "rgba(0, 0, 0, .87)", "foreground_strong": "rgba(0, 0, 0, 1)", "foreground_subtle": "rgba(0, 0, 0, .54)", "guide_stroke_dasharray": "4,4", "label_font_family": "Consolas, \"Liberation Mono\", Menlo, Courier, monospace", "label_font_size": 10, "legend_font_family": "Consolas, \"Liberation Mono\", Menlo, Courier, monospace", "legend_font_size": 14, "major_guide_stroke_dasharray": "6,6", "major_label_font_family": "Consolas, \"Liberation Mono\", Menlo, Courier, monospace", "major_label_font_size": 10, "no_data_font_family": "Consolas, \"Liberation Mono\", Menlo, Courier, monospace", "no_data_font_size": 64, "opacity": ".7", "opacity_hover": ".8", "plot_background": "rgba(255, 255, 255, 1)", "stroke_opacity": ".8", "stroke_opacity_hover": ".9", "title_font_family": "Consolas, \"Liberation Mono\", Menlo, Courier, monospace", "title_font_size": 16, "tooltip_font_family": "Consolas, \"Liberation Mono\", Menlo, Courier, monospace", "tooltip_font_size": 14, "transition": "150ms", "value_background": "rgba(229, 229, 229, 1)", "value_colors": [], "value_font_family": "Consolas, \"Liberation Mono\", Menlo, Courier, monospace", "value_font_size": 16, "value_label_font_family": "Consolas, \"Liberation Mono\", Menlo, Courier, monospace", "value_label_font_size": 10}, "title": "JM Anderson: Future and Past Averages in ODIs", "tooltip_border_radius": 10, "tooltip_fancy_mode": true, "truncate_label": null, "truncate_legend": null, "width": 800, "x_label_rotation": 45, "x_labels": ["2002", "0", "0", "2003", "0", "0", "0", "0", "0", "0", "0", "0", "0", "0", "0", "0", "0", "0", "0", "0", "0", "0", "0", "0", "0", "0", "2004", "0", "0", "0", "0", "0", "0", "0", "0", "0", "0", "0", "2005", "0", "0", "0", "2006", "0", "0", "0", "0", "0", "0", "0", "0", "2007", "0", "0", "0", "0", "0", "0", "0", "0", "0", "0", "0", "0", "0", "0", "0", "0", "0", "0", "0", "0", "0", "0", "0", "0", "0", "0", "0", "2008", "0", "0", "0", "0", "0", "0", "0", "0", "0", "0", "0", "0", "0", "0", "0", "0", "0", "0", "0", "2009", "0", "0", "0", "0", "0", "0", "0", "0", "0", "0", "0", "0", "0", "0", "0", "0", "0", "0", "2010", "0", "0", "0", "0", "0", "0", "0", "0", "0", "0", "0", "0", "2011", "0", "0", "0", "0", "0", "0", "0", "0", "0", "0", "0", "0", "0", "0", "0", "0", "0", "2012", "0", "0", "0", "0", "0", "0", "0", "0", "0", "0", "0", "2013", "0", "0", "0", "0", "0", "0", "0", "0", "0", "2014", "0", "0", "0", "0", "0", "0", "0", "0", "0", "2015", "0", "0", "0", "0", "0", "0", "0", "0", "0"], "x_labels_major": ["2002", "2003", "2004", "2005", "2006", "2007", "2008", "2009", "2010", "2011", "2012", "2013", "2014", "2015"], "x_labels_major_count": null, "x_labels_major_every": null, "x_title": null, "xrange": null, "y_label_rotation": 0, "y_labels": null, "y_labels_major": null, "y_labels_major_count": null, "y_labels_major_every": null, "y_title": null, "zero": 60, "legends": ["Future Average", "Past Average", "Career Average"]}</script><script type="text/javascript" xlink:href="https://kozea.github.io/pygal.js/2.0.x/pygal-tooltips.min.js"/></defs><title>JM Anderson: Future and Past Averages in ODIs</title><g class="graph line-graph vertical"><rect class="background" height="600" width="800" x="0" y="0"/><g class="plot" transform="translate(42, 46)"><rect class="background" height="462.02943725152284" width="738.0" x="0" y="0"/><g class="axis y always_show"><g class="guides"><path class="axis major line" d="M0.000000 453.144256 h738.000000"/><text class="major" x="-5" y="456.6442557659166">0</text><title>0</title></g><g class="guides"><path class="guide line" d="M0.000000 362.479139 h738.000000"/><text class="" x="-5" y="365.97913856585325">10</text><title>10</title></g><g class="guides"><path class="guide line" d="M0.000000 271.814021 h738.000000"/><text class="" x="-5" y="275.3140213657899">20</text><title>20</title></g><g class="guides"><path class="guide line" d="M0.000000 181.148904 h738.000000"/><text class="" x="-5" y="184.64890416572655">30</text><title>30</title></g><g class="guides"><path class="guide line" d="M0.000000 90.483787 h738.000000"/><text class="" x="-5" y="93.98378696566323">40</text><title>40</title></g></g><g class="axis x"><g class="guides"><path class="major line" d="M14.192308 0.000000 v462.029437"/><text class="major" x="14.192307692307692" y="477.02943725152284" transform="rotate(45 14.192308 477.029437)">2002</text></g><g class="guides"><path class="major guide line" d="M25.396761 0.000000 v462.029437"/><text class="major" x="25.396761133603235" y="477.02943725152284" transform="rotate(45 25.396761 477.029437)">2003</text></g><g class="guides"><path class="major guide line" d="M111.297571 0.000000 v462.029437"/><text class="major" x="111.29757085020243" y="477.02943725152284" transform="rotate(45 111.297571 477.029437)">2004</text></g><g class="guides"><path class="major guide line" d="M156.115385 0.000000 v462.029437"/><text class="major" x="156.1153846153846" y="477.02943725152284" transform="rotate(45 156.115385 477.029437)">2005</text></g><g class="guides"><path class="major guide line" d="M171.054656 0.000000 v462.029437"/><text class="major" x="171.05465587044532" y="477.02943725152284" transform="rotate(45 171.054656 477.029437)">2006</text></g><g class="guides"><path class="major guide line" d="M204.668016 0.000000 v462.029437"/><text class="major" x="204.66801619433198" y="477.02943725152284" transform="rotate(45 204.668016 477.029437)">2007</text></g><g class="guides"><path class="major guide line" d="M309.242915 0.000000 v462.029437"/><text class="major" x="309.24291497975713" y="477.02943725152284" transform="rotate(45 309.242915 477.029437)">2008</text></g><g class="guides"><path class="major guide line" d="M383.939271 0.000000 v462.029437"/><text class="major" x="383.9392712550607" y="477.02943725152284" transform="rotate(45 383.939271 477.029437)">2009</text></g><g class="guides"><path class="major guide line" d="M454.900810 0.000000 v462.029437"/><text class="major" x="454.9008097165992" y="477.02943725152284" transform="rotate(45 454.900810 477.029437)">2010</text></g><g class="guides"><path class="major guide line" d="M503.453441 0.000000 v462.029437"/><text class="major" x="503.4534412955466" y="477.02943725152284" transform="rotate(45 503.453441 477.029437)">2011</text></g><g class="guides"><path class="major guide line" d="M570.680162 0.000000 v462.029437"/><text class="major" x="570.6801619433198" y="477.02943725152284" transform="rotate(45 570.680162 477.029437)">2012</text></g><g class="guides"><path class="major guide line" d="M615.497976 0.000000 v462.029437"/><text class="major" x="615.497975708502" y="477.02943725152284" transform="rotate(45 615.497976 477.029437)">2013</text></g><g class="guides"><path class="major guide line" d="M652.846154 0.000000 v462.029437"/><text class="major" x="652.8461538461538" y="477.02943725152284" transform="rotate(45 652.846154 477.029437)">2014</text></g><g class="guides"><path class="major guide line" d="M690.194332 0.000000 v462.029437"/><text class="major" x="690.1943319838056" y="477.02943725152284" transform="rotate(45 690.194332 477.029437)">2015</text></g></g><g class="series serie-0 color-0"><path class="line reactive nofill" d="M14.192308 188.220783 L17.927126 188.764774 21.661943 188.402114 25.396761 187.223467 29.131579 186.588811 32.866397 186.498146 36.601215 186.316816 40.336032 185.772825 44.070850 186.951472 47.805668 187.948788 51.540486 184.594179 55.275304 185.138169 59.010121 181.874225 62.744939 183.052872 66.479757 185.500830 70.214575 184.322183 73.949393 180.876909 77.684211 181.692895 81.419028 181.511565 85.153846 181.783560 88.888664 181.148904 92.623482 177.975625 96.358300 176.343653 100.093117 176.434318 103.827935 174.621016 107.562753 174.802346 111.297571 175.890327 115.032389 175.165006 118.767206 175.346337 122.502024 176.434318 126.236842 176.887644 129.971660 175.980992 133.706478 177.159639 137.441296 174.893011 141.176113 176.071658 144.910931 176.434318 148.645749 176.796979 152.380567 176.524983 156.115385 178.700946 159.850202 178.791611 163.585020 181.964890 167.319838 180.423583 171.054656 177.250304 174.789474 176.343653 178.524291 177.703630 182.259109 178.066290 185.993927 177.703630 189.728745 174.802346 193.463563 177.884960 197.198381 176.978309 200.933198 176.978309 204.668016 180.423583 208.402834 182.599546 212.137652 178.882276 215.872470 177.340969 219.607287 176.615648 223.342105 175.527667 227.076923 175.980992 230.811741 174.258355 234.546559 174.530351 238.281377 176.434318 242.016194 178.972941 245.751012 177.340969 249.485830 179.063606 253.220648 181.058239 256.955466 179.063606 260.690283 181.602230 264.425101 181.148904 268.159919 175.890327 271.894737 177.250304 275.629555 173.895695 279.364372 170.813081 283.099190 172.445053 286.834008 176.978309 290.568826 175.074341 294.303644 177.794295 298.038462 179.607597 301.773279 181.602230 305.508097 178.247620 309.242915 179.335602 312.977733 181.420900 316.712551 183.959523 320.447368 182.871541 324.182186 186.226151 327.917004 188.402114 331.651822 191.212732 335.386640 192.210048 339.121457 190.578076 342.856275 191.212732 346.591093 192.300714 350.325911 193.660690 354.060729 194.839337 357.795547 196.471309 361.530364 195.745988 365.265182 197.196630 369.000000 197.649955 372.734818 200.913900 376.469636 202.636537 380.204453 205.628486 383.939271 207.713784 387.674089 206.716467 391.408907 203.815183 395.143725 204.540504 398.878543 205.447156 402.613360 204.087179 406.348178 205.356490 410.082996 203.633853 413.817814 206.081811 417.552632 208.167109 421.287449 209.980411 425.022267 206.172477 428.757085 206.807132 432.491903 202.183211 436.226721 199.009932 439.961538 200.913900 443.696356 204.631170 447.431174 202.908532 451.165992 207.260458 454.900810 197.831286 458.635628 196.743304 462.370445 195.564658 466.105263 198.556607 469.840081 192.935369 473.574899 196.380644 477.309717 203.180528 481.044534 202.364542 484.779352 206.716467 488.514170 204.903165 492.248988 205.719151 495.983806 200.097914 499.718623 205.537821 503.453441 208.167109 507.188259 208.439104 510.923077 209.980411 514.657895 216.780295 518.392713 213.516351 522.127530 221.313551 525.862348 228.566760 529.597166 231.286714 533.331984 227.478779 537.066802 233.734672 540.801619 224.214835 544.536437 229.473412 548.271255 236.182630 552.006073 230.108067 555.740891 230.924054 559.475709 233.009351 563.210526 231.286714 566.945344 227.750774 570.680162 235.729305 574.414980 238.993249 578.149798 237.451942 581.884615 238.086598 585.619433 238.177263 589.354251 236.635956 593.089069 237.814602 596.823887 235.547974 600.558704 239.355909 604.293522 248.422421 608.028340 239.809235 611.763158 245.702468 615.497976 244.795816 619.232794 247.334440 622.967611 229.836072 626.702429 231.921370 630.437247 221.585546 634.172065 225.212151 637.906883 212.337704 641.641700 211.703049 645.376518 195.564658 649.111336 180.060923 652.846154 177.703630 656.580972 161.746569 660.315789 157.394643 664.050607 144.429532 667.785425 113.422062 671.520243 104.355550 675.255061 100.819610 678.989879 137.720313 682.724696 156.578657 686.459514 181.148904 690.194332 165.282509 693.929150 41.705954 697.663968 105.171536 701.398785 86.585187 705.133603 8.885181 708.868421 130.376439 712.603239 197.468625 716.338057 117.683322 720.072874 262.747510 723.807692 289.947045"/></g><g class="series serie-1 color-1"><path class="line reactive nofill" d="M14.192308 453.144256 L17.927126 36.084717 21.661943 169.090444 25.396761 240.987882 29.131579 249.782398 32.866397 236.545291 36.601215 231.468044 40.336032 240.806551 44.070850 214.423002 47.805668 193.026035 51.540486 240.897216 55.275304 230.470728 59.010121 259.030240 62.744939 243.435840 66.479757 217.414951 70.214575 224.033505 73.949393 246.427789 77.684211 237.905268 81.419028 236.091965 85.153846 232.646691 88.888664 235.003984 92.623482 248.603751 96.358300 252.411686 100.093117 250.054393 103.827935 255.675631 107.562753 252.865012 111.297571 247.969096 115.032389 249.782398 118.767206 245.883798 122.502024 240.897216 126.236842 237.542607 129.971660 238.993249 133.706478 234.187998 137.441296 239.990565 141.176113 235.185314 144.910931 231.921370 148.645749 229.745407 152.380567 229.836072 156.115385 222.038872 159.850202 220.860225 163.585020 209.980411 167.319838 214.060342 171.054656 221.948207 174.789474 223.308184 178.524291 218.684263 182.259109 216.870960 185.993927 216.780295 189.728745 222.854858 193.463563 214.785663 197.198381 216.236305 200.933198 215.692314 204.668016 207.260458 208.402834 201.820551 212.137652 209.436421 215.872470 212.156374 219.607287 212.791030 223.342105 214.241672 227.076923 212.791030 230.811741 215.420318 234.546559 214.513667 238.281377 210.796397 242.016194 205.991146 245.751012 208.348439 249.485830 205.265825 253.220648 201.457890 256.955466 204.540504 260.690283 199.825918 264.425101 200.279244 268.159919 208.076444 271.894737 205.537821 275.629555 209.799081 279.364372 213.335021 283.099190 210.524402 286.834008 204.087179 290.568826 206.263142 294.303644 202.455207 298.038462 200.097914 301.773279 197.287295 305.508097 201.276560 309.242915 199.735253 312.977733 197.015300 316.712551 193.660690 320.447368 194.930002 324.182186 190.578076 327.917004 187.858123 331.651822 184.503514 335.386640 183.324867 339.121457 185.410165 342.856275 184.684844 346.591093 183.506197 350.325911 181.964890 354.060729 180.604913 357.795547 178.791611 361.530364 179.698262 365.265182 178.066290 369.000000 177.612965 372.734818 173.895695 376.469636 172.082392 380.204453 168.727783 383.939271 166.370490 387.674089 168.093127 391.408907 171.991727 395.143725 171.447737 398.878543 170.813081 402.613360 172.717048 406.348178 171.447737 410.082996 173.714365 413.817814 171.447737 417.552632 169.725099 421.287449 168.455788 425.022267 172.807713 428.757085 172.535718 432.491903 176.978309 436.226721 179.879593 439.961538 178.519616 443.696356 175.708997 447.431174 177.522299 451.165992 174.349020 454.900810 181.692895 458.635628 182.690211 462.370445 183.596862 466.105263 181.783560 469.840081 185.410165 473.574899 183.415532 477.309717 179.426267 481.044534 180.332918 484.779352 177.884960 488.514170 179.244937 492.248988 178.972941 495.983806 182.236886 499.718623 179.516932 503.453441 178.156955 507.188259 178.338286 510.923077 177.794295 514.657895 174.802346 518.392713 176.887644 522.127530 173.442369 525.862348 170.450420 529.597166 169.634434 533.331984 171.810397 537.066802 169.271774 540.801619 174.258355 544.536437 172.263723 548.271255 169.634434 552.006073 172.898379 555.740891 173.170374 559.475709 172.717048 563.210526 173.623699 566.945344 175.618332 570.680162 173.079709 574.414980 171.991727 578.149798 173.170374 581.884615 173.533034 585.619433 174.167690 589.354251 175.165006 593.089069 175.437002 596.823887 176.615648 600.558704 175.618332 604.293522 173.442369 608.028340 176.706313 611.763158 175.346337 615.497976 176.162323 619.232794 175.980992 622.967611 180.695579 626.702429 180.514248 630.437247 182.871541 634.172065 182.690211 637.906883 184.956839 641.641700 185.228834 645.376518 187.404797 649.111336 189.036769 652.846154 189.218100 656.580972 190.578076 660.315789 190.759407 664.050607 191.484728 667.785425 193.207365 671.520243 193.116700 675.255061 193.026035 678.989879 190.940737 682.724696 189.943421 686.459514 188.583444 690.194332 189.218100 693.929150 192.663374 697.663968 190.759407 701.398785 190.940737 705.133603 191.575393 708.868421 189.308765 712.603239 188.039453 716.338057 188.946104 720.072874 187.314132 723.807692 187.858123"/></g><g class="series serie-2 color-2"><path class="line reactive nofill" d="M14.192308 188.220783 L17.927126 188.220783 21.661943 188.220783 25.396761 188.220783 29.131579 188.220783 32.866397 188.220783 36.601215 188.220783 40.336032 188.220783 44.070850 188.220783 47.805668 188.220783 51.540486 188.220783 55.275304 188.220783 59.010121 188.220783 62.744939 188.220783 66.479757 188.220783 70.214575 188.220783 73.949393 188.220783 77.684211 188.220783 81.419028 188.220783 85.153846 188.220783 88.888664 188.220783 92.623482 188.220783 96.358300 188.220783 100.093117 188.220783 103.827935 188.220783 107.562753 188.220783 111.297571 188.220783 115.032389 188.220783 118.767206 188.220783 122.502024 188.220783 126.236842 188.220783 129.971660 188.220783 133.706478 188.220783 137.441296 188.220783 141.176113 188.220783 144.910931 188.220783 148.645749 188.220783 152.380567 188.220783 156.115385 188.220783 159.850202 188.220783 163.585020 188.220783 167.319838 188.220783 171.054656 188.220783 174.789474 188.220783 178.524291 188.220783 182.259109 188.220783 185.993927 188.220783 189.728745 188.220783 193.463563 188.220783 197.198381 188.220783 200.933198 188.220783 204.668016 188.220783 208.402834 188.220783 212.137652 188.220783 215.872470 188.220783 219.607287 188.220783 223.342105 188.220783 227.076923 188.220783 230.811741 188.220783 234.546559 188.220783 238.281377 188.220783 242.016194 188.220783 245.751012 188.220783 249.485830 188.220783 253.220648 188.220783 256.955466 188.220783 260.690283 188.220783 264.425101 188.220783 268.159919 188.220783 271.894737 188.220783 275.629555 188.220783 279.364372 188.220783 283.099190 188.220783 286.834008 188.220783 290.568826 188.220783 294.303644 188.220783 298.038462 188.220783 301.773279 188.220783 305.508097 188.220783 309.242915 188.220783 312.977733 188.220783 316.712551 188.220783 320.447368 188.220783 324.182186 188.220783 327.917004 188.220783 331.651822 188.220783 335.386640 188.220783 339.121457 188.220783 342.856275 188.220783 346.591093 188.220783 350.325911 188.220783 354.060729 188.220783 357.795547 188.220783 361.530364 188.220783 365.265182 188.220783 369.000000 188.220783 372.734818 188.220783 376.469636 188.220783 380.204453 188.220783 383.939271 188.220783 387.674089 188.220783 391.408907 188.220783 395.143725 188.220783 398.878543 188.220783 402.613360 188.220783 406.348178 188.220783 410.082996 188.220783 413.817814 188.220783 417.552632 188.220783 421.287449 188.220783 425.022267 188.220783 428.757085 188.220783 432.491903 188.220783 436.226721 188.220783 439.961538 188.220783 443.696356 188.220783 447.431174 188.220783 451.165992 188.220783 454.900810 188.220783 458.635628 188.220783 462.370445 188.220783 466.105263 188.220783 469.840081 188.220783 473.574899 188.220783 477.309717 188.220783 481.044534 188.220783 484.779352 188.220783 488.514170 188.220783 492.248988 188.220783 495.983806 188.220783 499.718623 188.220783 503.453441 188.220783 507.188259 188.220783 510.923077 188.220783 514.657895 188.220783 518.392713 188.220783 522.127530 188.220783 525.862348 188.220783 529.597166 188.220783 533.331984 188.220783 537.066802 188.220783 540.801619 188.220783 544.536437 188.220783 548.271255 188.220783 552.006073 188.220783 555.740891 188.220783 559.475709 188.220783 563.210526 188.220783 566.945344 188.220783 570.680162 188.220783 574.414980 188.220783 578.149798 188.220783 581.884615 188.220783 585.619433 188.220783 589.354251 188.220783 593.089069 188.220783 596.823887 188.220783 600.558704 188.220783 604.293522 188.220783 608.028340 188.220783 611.763158 188.220783 615.497976 188.220783 619.232794 188.220783 622.967611 188.220783 626.702429 188.220783 630.437247 188.220783 634.172065 188.220783 637.906883 188.220783 641.641700 188.220783 645.376518 188.220783 649.111336 188.220783 652.846154 188.220783 656.580972 188.220783 660.315789 188.220783 664.050607 188.220783 667.785425 188.220783 671.520243 188.220783 675.255061 188.220783 678.989879 188.220783 682.724696 188.220783 686.459514 188.220783 690.194332 188.220783 693.929150 188.220783 697.663968 188.220783 701.398785 188.220783 705.133603 188.220783 708.868421 188.220783 712.603239 188.220783 716.338057 188.220783 720.072874 188.220783 723.807692 188.220783"/></g></g><g class="titles"><text class="title plot_title" x="400.0" y="26">JM Anderson: Future and Past Averages in ODIs</text></g><g class="plot overlay" transform="translate(42, 46)"><g class="series serie-0 color-0"><g class="dots"><desc class="label">269 wickets in 191 innings (1597.2 overs)</desc><circle class="dot reactive tooltip-trigger" cx="14.192307692307692" cy="188.2207833073315" r="2.5"/><desc class="value">29.22</desc><desc class="x ">14.192307692307692</desc><desc class="y ">188.2207833073315</desc><desc class="x_label">2002</desc></g><g class="dots"><desc class="label">264 wickets in 188 innings (1573.2 overs)</desc><circle class="dot reactive tooltip-trigger" cx="25.396761133603235" cy="187.2234670181308" r="2.5"/><desc class="value">29.33</desc><desc class="x ">25.396761133603235</desc><desc class="y ">187.2234670181308</desc><desc class="x_label">2003</desc></g><g class="dots"><desc class="label">223 wickets in 165 innings (1371.0 overs)</desc><circle class="dot reactive tooltip-trigger" cx="111.29757085020243" cy="175.89032736812288" r="2.5"/><desc class="value">30.58</desc><desc class="x ">111.29757085020243</desc><desc class="y ">175.89032736812288</desc><desc class="x_label">2004</desc></g><g class="dots"><desc class="label">210 wickets in 153 innings (1280.1 overs)</desc><circle class="dot reactive tooltip-trigger" cx="156.1153846153846" cy="178.70094600132484" r="2.5"/><desc class="value">30.27</desc><desc class="x ">156.1153846153846</desc><desc class="y ">178.70094600132484</desc><desc class="x_label">2005</desc></g><g class="dots"><desc class="label">203 wickets in 149 innings (1244.5 overs)</desc><circle class="dot reactive tooltip-trigger" cx="171.05465587044532" cy="177.2503041261238" r="2.5"/><desc class="value">30.43</desc><desc class="x ">171.05465587044532</desc><desc class="y ">177.2503041261238</desc><desc class="x_label">2006</desc></g><g class="dots"><desc class="label">191 wickets in 140 innings (1162.4 overs)</desc><circle class="dot reactive tooltip-trigger" cx="204.66801619433198" cy="180.423583228126" r="2.5"/><desc class="value">30.08</desc><desc class="x ">204.66801619433198</desc><desc class="y ">180.423583228126</desc><desc class="x_label">2007</desc></g><g class="dots"><desc class="label">152 wickets in 112 innings (916.5 overs)</desc><circle class="dot reactive tooltip-trigger" cx="309.24291497975713" cy="179.33560182172528" r="2.5"/><desc class="value">30.2</desc><desc class="x ">309.24291497975713</desc><desc class="y ">179.33560182172528</desc><desc class="x_label">2008</desc></g><g class="dots"><desc class="label">142 wickets in 92 innings (784.5 overs)</desc><circle class="dot reactive tooltip-trigger" cx="383.9392712550607" cy="207.7137835053451" r="2.5"/><desc class="value">27.07</desc><desc class="x left">383.9392712550607</desc><desc class="y left">207.7137835053451</desc><desc class="x_label">2009</desc></g><g class="dots"><desc class="label">108 wickets in 73 innings (623.2 overs)</desc><circle class="dot reactive tooltip-trigger" cx="454.9008097165992" cy="197.83128573053818" r="2.5"/><desc class="value">28.16</desc><desc class="x left">454.9008097165992</desc><desc class="y left">197.83128573053818</desc><desc class="x_label">2010</desc></g><g class="dots"><desc class="label">90 wickets in 60 innings (503.2 overs)</desc><circle class="dot reactive tooltip-trigger" cx="503.4534412955466" cy="208.16710909134542" r="2.5"/><desc class="value">27.02</desc><desc class="x left">503.4534412955466</desc><desc class="y left">208.16710909134542</desc><desc class="x_label">2011</desc></g><g class="dots"><desc class="label">65 wickets in 42 innings (347.0 overs)</desc><circle class="dot reactive tooltip-trigger" cx="570.6801619433198" cy="235.7293047201647" r="2.5"/><desc class="value">23.98</desc><desc class="x left top">570.6801619433198</desc><desc class="y left top">235.7293047201647</desc><desc class="x_label">2012</desc></g><g class="dots"><desc class="label">47 wickets in 30 innings (245.2 overs)</desc><circle class="dot reactive tooltip-trigger" cx="615.497975708502" cy="244.795816440171" r="2.5"/><desc class="value">22.98</desc><desc class="x left top">615.497975708502</desc><desc class="y left top">244.795816440171</desc><desc class="x_label">2013</desc></g><g class="dots"><desc class="label">24 wickets in 20 innings (162.3 overs)</desc><circle class="dot reactive tooltip-trigger" cx="652.8461538461538" cy="177.70362971212415" r="2.5"/><desc class="value">30.38</desc><desc class="x left">652.8461538461538</desc><desc class="y left">177.70362971212415</desc><desc class="x_label">2014</desc></g><g class="dots"><desc class="label">12 wickets in 10 innings (83.3 overs)</desc><circle class="dot reactive tooltip-trigger" cx="690.1943319838056" cy="165.2825086557155" r="2.5"/><desc class="value">31.75</desc><desc class="x left">690.1943319838056</desc><desc class="y left">165.2825086557155</desc><desc class="x_label">2015</desc></g></g><g class="series serie-1 color-1"><g class="dots"><desc class="label">0 wickets over 0 innings</desc><circle class="dot reactive tooltip-trigger" cx="14.192307692307692" cy="453.1442557659166" r="2.5"/><desc class="value">0</desc><desc class="x top">14.192307692307692</desc><desc class="y top">453.1442557659166</desc><desc class="x_label">2002</desc></g><g class="dots"><desc class="label">5 wickets in 3 innings (24.0 overs)</desc><circle class="dot reactive tooltip-trigger" cx="25.396761133603235" cy="240.98788151776836" r="2.5"/><desc class="value">23.4</desc><desc class="x top">25.396761133603235</desc><desc class="y top">240.98788151776836</desc><desc class="x_label">2003</desc></g><g class="dots"><desc class="label">46 wickets in 26 innings (226.2 overs)</desc><circle class="dot reactive tooltip-trigger" cx="111.29757085020243" cy="247.96909554217325" r="2.5"/><desc class="value">22.63</desc><desc class="x top">111.29757085020243</desc><desc class="y top">247.96909554217325</desc><desc class="x_label">2004</desc></g><g class="dots"><desc class="label">59 wickets in 38 innings (317.1 overs)</desc><circle class="dot reactive tooltip-trigger" cx="156.1153846153846" cy="222.03887202295513" r="2.5"/><desc class="value">25.49</desc><desc class="x ">156.1153846153846</desc><desc class="y ">222.03887202295513</desc><desc class="x_label">2005</desc></g><g class="dots"><desc class="label">66 wickets in 42 innings (352.3 overs)</desc><circle class="dot reactive tooltip-trigger" cx="171.05465587044532" cy="221.94820690575506" r="2.5"/><desc class="value">25.5</desc><desc class="x ">171.05465587044532</desc><desc class="y ">221.94820690575506</desc><desc class="x_label">2006</desc></g><g class="dots"><desc class="label">78 wickets in 51 innings (434.4 overs)</desc><circle class="dot reactive tooltip-trigger" cx="204.66801619433198" cy="207.26045791934476" r="2.5"/><desc class="value">27.12</desc><desc class="x ">204.66801619433198</desc><desc class="y ">207.26045791934476</desc><desc class="x_label">2007</desc></g><g class="dots"><desc class="label">117 wickets in 79 innings (680.3 overs)</desc><circle class="dot reactive tooltip-trigger" cx="309.24291497975713" cy="199.73525319173956" r="2.5"/><desc class="value">27.95</desc><desc class="x ">309.24291497975713</desc><desc class="y ">199.73525319173956</desc><desc class="x_label">2008</desc></g><g class="dots"><desc class="label">127 wickets in 99 innings (812.3 overs)</desc><circle class="dot reactive tooltip-trigger" cx="383.9392712550607" cy="166.37049006211623" r="2.5"/><desc class="value">31.63</desc><desc class="x left">383.9392712550607</desc><desc class="y left">166.37049006211623</desc><desc class="x_label">2009</desc></g><g class="dots"><desc class="label">161 wickets in 118 innings (974.0 overs)</desc><circle class="dot reactive tooltip-trigger" cx="454.9008097165992" cy="181.69289486892689" r="2.5"/><desc class="value">29.94</desc><desc class="x left">454.9008097165992</desc><desc class="y left">181.69289486892689</desc><desc class="x_label">2010</desc></g><g class="dots"><desc class="label">179 wickets in 131 innings (1094.0 overs)</desc><circle class="dot reactive tooltip-trigger" cx="503.4534412955466" cy="178.15695529812444" r="2.5"/><desc class="value">30.33</desc><desc class="x left">503.4534412955466</desc><desc class="y left">178.15695529812444</desc><desc class="x_label">2011</desc></g><g class="dots"><desc class="label">204 wickets in 149 innings (1250.2 overs)</desc><circle class="dot reactive tooltip-trigger" cx="570.6801619433198" cy="173.07970873492087" r="2.5"/><desc class="value">30.89</desc><desc class="x left">570.6801619433198</desc><desc class="y left">173.07970873492087</desc><desc class="x_label">2012</desc></g><g class="dots"><desc class="label">222 wickets in 161 innings (1352.0 overs)</desc><circle class="dot reactive tooltip-trigger" cx="615.497975708502" cy="176.16232271972308" r="2.5"/><desc class="value">30.55</desc><desc class="x left">615.497975708502</desc><desc class="y left">176.16232271972308</desc><desc class="x_label">2013</desc></g><g class="dots"><desc class="label">245 wickets in 171 innings (1434.5 overs)</desc><circle class="dot reactive tooltip-trigger" cx="652.8461538461538" cy="189.21809959653217" r="2.5"/><desc class="value">29.11</desc><desc class="x left">652.8461538461538</desc><desc class="y left">189.21809959653217</desc><desc class="x_label">2014</desc></g><g class="dots"><desc class="label">257 wickets in 181 innings (1513.5 overs)</desc><circle class="dot reactive tooltip-trigger" cx="690.1943319838056" cy="189.21809959653217" r="2.5"/><desc class="value">29.11</desc><desc class="x left">690.1943319838056</desc><desc class="y left">189.21809959653217</desc><desc class="x_label">2015</desc></g></g><g class="series serie-2 color-2"/></g><g class="plot text-overlay" transform="translate(42, 46)"><g class="series serie-0 color-0"/><g class="series serie-1 color-1"/><g class="series serie-2 color-2"/></g><g class="plot tooltip-overlay" transform="translate(42, 46)"><g class="tooltip" style="opacity: 0" transform="translate(0 0)"><rect class="tooltip-box" height="0" rx="10" ry="10" width="0"/><g class="text"/></g></g><g class="legends" transform="translate(52, 545)"><g class="legend reactive activate-serie" id="activate-serie-0"><rect class="color-0 reactive" height="12" width="12" x="0.0" y="1.0"/><text x="17.0" y="11.2">Future Average</text></g><g class="legend reactive activate-serie" id="activate-serie-1"><rect class="color-1 reactive" height="12" width="12" x="369.0" y="1.0"/><text x="386.0" y="11.2">Past Average</text></g><g class="legend reactive activate-serie" id="activate-serie-2"><rect class="color-2 reactive" height="12" width="12" x="0.0" y="22.0"/><text x="17.0" y="32.2">Career Average</text></g></g></g></svg>