<?xml version='1.0' encoding='utf-8'?>
<svg xmlns:xlink="http://www.w3.org/1999/xlink" xmlns="http://www.w3.org/2000/svg" id="chart-e914ae86-b1d0-4bb4-8bd2-92a408b003a5" class="pygal-chart" viewBox="0 0 800 600"><!--Generated with pygal 2.4.0 (lxml) ©Kozea 2012-2016 on 2019-08-04--><!--http://pygal.org--><!--http://github.com/Kozea/pygal--><defs><style type="text/css">#chart-e914ae86-b1d0-4bb4-8bd2-92a408b003a5{-webkit-user-select:none;-webkit-font-smoothing:antialiased;font-family:Consolas,"Liberation Mono",Menlo,Courier,monospace}#chart-e914ae86-b1d0-4bb4-8bd2-92a408b003a5 .title{font-family:Consolas,"Liberation Mono",Menlo,Courier,monospace;font-size:16px}#chart-e914ae86-b1d0-4bb4-8bd2-92a408b003a5 .legends .legend text{font-family:Consolas,"Liberation Mono",Menlo,Courier,monospace;font-size:14px}#chart-e914ae86-b1d0-4bb4-8bd2-92a408b003a5 .axis text{font-family:Consolas,"Liberation Mono",Menlo,Courier,monospace;font-size:10px}#chart-e914ae86-b1d0-4bb4-8bd2-92a408b003a5 .axis text.major{font-family:Consolas,"Liberation Mono",Menlo,Courier,monospace;font-size:10px}#chart-e914ae86-b1d0-4bb4-8bd2-92a408b003a5 .text-overlay text.value{font-family:Consolas,"Liberation Mono",Menlo,Courier,monospace;font-size:16px}#chart-e914ae86-b1d0-4bb4-8bd2-92a408b003a5 .text-overlay text.label{font-family:Consolas,"Liberation Mono",Menlo,Courier,monospace;font-size:10px}#chart-e914ae86-b1d0-4bb4-8bd2-92a408b003a5 .tooltip{font-family:Consolas,"Liberation Mono",Menlo,Courier,monospace;font-size:14px}#chart-e914ae86-b1d0-4bb4-8bd2-92a408b003a5 text.no_data{font-family:Consolas,"Liberation Mono",Menlo,Courier,monospace;font-size:64px}
#chart-e914ae86-b1d0-4bb4-8bd2-92a408b003a5{background-color:rgba(249,249,249,1)}#chart-e914ae86-b1d0-4bb4-8bd2-92a408b003a5 path,#chart-e914ae86-b1d0-4bb4-8bd2-92a408b003a5 line,#chart-e914ae86-b1d0-4bb4-8bd2-92a408b003a5 rect,#chart-e914ae86-b1d0-4bb4-8bd2-92a408b003a5 circle{-webkit-transition:150ms;-moz-transition:150ms;transition:150ms}#chart-e914ae86-b1d0-4bb4-8bd2-92a408b003a5 .graph &gt; .background{fill:rgba(249,249,249,1)}#chart-e914ae86-b1d0-4bb4-8bd2-92a408b003a5 .plot &gt; .background{fill:rgba(255,255,255,1)}#chart-e914ae86-b1d0-4bb4-8bd2-92a408b003a5 .graph{fill:rgba(0,0,0,.87)}#chart-e914ae86-b1d0-4bb4-8bd2-92a408b003a5 text.no_data{fill:rgba(0,0,0,1)}#chart-e914ae86-b1d0-4bb4-8bd2-92a408b003a5 .title{fill:rgba(0,0,0,1)}#chart-e914ae86-b1d0-4bb4-8bd2-92a408b003a5 .legends .legend text{fill:rgba(0,0,0,.87)}#chart-e914ae86-b1d0-4bb4-8bd2-92a408b003a5 .legends .legend:hover text{fill:rgba(0,0,0,1)}#chart-e914ae86-b1d0-4bb4-8bd2-92a408b003a5 .axis .line{stroke:rgba(0,0,0,1)}#chart-e914ae86-b1d0-4bb4-8bd2-92a408b003a5 .axis .guide.line{stroke:rgba(0,0,0,.54)}#chart-e914ae86-b1d0-4bb4-8bd2-92a408b003a5 .axis .major.line{stroke:rgba(0,0,0,.87)}#chart-e914ae86-b1d0-4bb4-8bd2-92a408b003a5 .axis text.major{fill:rgba(0,0,0,1)}#chart-e914ae86-b1d0-4bb4-8bd2-92a408b003a5 .axis.y .guides:hover .guide.line,#chart-e914ae86-b1d0-4bb4-8bd2-92a408b003a5 .line-graph .axis.x .guides:hover .guide.line,#chart-e914ae86-b1d0-4bb4-8bd2-92a408b003a5 .stackedline-graph .axis.x .guides:hover .guide.line,#chart-e914ae86-b1d0-4bb4-8bd2-92a408b003a5 .xy-graph .axis.x .guides:hover .guide.line{stroke:rgba(0,0,0,1)}#chart-e914ae86-b1d0-4bb4-8bd2-92a408b003a5 .axis .guides:hover text{fill:rgba(0,0,0,1)}#chart-e914ae86-b1d0-4bb4-8bd2-92a408b003a5 .reactive{fill-opacity:.7;stroke-opacity:.8}#chart-e914ae86-b1d0-4bb4-8bd2-92a408b003a5 .ci{stroke:rgba(0,0,0,.87)}#chart-e914ae86-b1d0-4bb4-8bd2-92a408b003a5 .reactive.active,#chart-e914ae86-b1d0-4bb4-8bd2-92a408b003a5 .active .reactive{fill-opacity:.8;stroke-opacity:.9;stroke-width:4}#chart-e914ae86-b1d0-4bb4-8bd2-92a408b003a5 .ci .reactive.active{stroke-width:1.5}#chart-e914ae86-b1d0-4bb4-8bd2-92a408b003a5 .series text{fill:rgba(0,0,0,1)}#chart-e914ae86-b1d0-4bb4-8bd2-92a408b003a5 .tooltip rect{fill:rgba(255,255,255,1);stroke:rgba(0,0,0,1);-webkit-transition:opacity 150ms;-moz-transition:opacity 150ms;transition:opacity 150ms}#chart-e914ae86-b1d0-4bb4-8bd2-92a408b003a5 .tooltip .label{fill:rgba(0,0,0,.87)}#chart-e914ae86-b1d0-4bb4-8bd2-92a408b003a5 .tooltip .label{fill:rgba(0,0,0,.87)}#chart-e914ae86-b1d0-4bb4-8bd2-92a408b003a5 .tooltip .legend{font-size:.8em;fill:rgba(0,0,0,.54)}#chart-e914ae86-b1d0-4bb4-8bd2-92a408b003a5 .tooltip .x_label{font-size:.6em;fill:rgba(0,0,0,1)}#chart-e914ae86-b1d0-4bb4-8bd2-92a408b003a5 .tooltip .xlink{font-size:.5em;text-decoration:underline}#chart-e914ae86-b1d0-4bb4-8bd2-92a408b003a5 .tooltip .value{font-size:1.5em}#chart-e914ae86-b1d0-4bb4-8bd2-92a408b003a5 .bound{font-size:.5em}#chart-e914ae86-b1d0-4bb4-8bd2-92a408b003a5 .max-value{font-size:.75em;fill:rgba(0,0,0,.54)}#chart-e914ae86-b1d0-4bb4-8bd2-92a408b003a5 .map-element{fill:rgba(255,255,255,1);stroke:rgba(0,0,0,.54) !important}#chart-e914ae86-b1d0-4bb4-8bd2-92a408b003a5 .map-element .reactive{fill-opacity:inherit;stroke-opacity:inherit}#chart-e914ae86-b1d0-4bb4-8bd2-92a408b003a5 .color-0,#chart-e914ae86-b1d0-4bb4-8bd2-92a408b003a5 .color-0 a:visited{stroke:red;fill:red}#chart-e914ae86-b1d0-4bb4-8bd2-92a408b003a5 .color-1,#chart-e914ae86-b1d0-4bb4-8bd2-92a408b003a5 .color-1 a:visited{stroke:blue;fill:blue}#chart-e914ae86-b1d0-4bb4-8bd2-92a408b003a5 .color-2,#chart-e914ae86-b1d0-4bb4-8bd2-92a408b003a5 .color-2 a:visited{stroke:green;fill:green}#chart-e914ae86-b1d0-4bb4-8bd2-92a408b003a5 .text-overlay .color-0 text{fill:white}#chart-e914ae86-b1d0-4bb4-8bd2-92a408b003a5 .text-overlay .color-1 text{fill:white}#chart-e914ae86-b1d0-4bb4-8bd2-92a408b003a5 .text-overlay .color-2 text{fill:white}
#chart-e914ae86-b1d0-4bb4-8bd2-92a408b003a5 text.no_data{text-anchor:middle}#chart-e914ae86-b1d0-4bb4-8bd2-92a408b003a5 .guide.line{fill:none}#chart-e914ae86-b1d0-4bb4-8bd2-92a408b003a5 .centered{text-anchor:middle}#chart-e914ae86-b1d0-4bb4-8bd2-92a408b003a5 .title{text-anchor:middle}#chart-e914ae86-b1d0-4bb4-8bd2-92a408b003a5 .legends .legend text{fill-opacity:1}#chart-e914ae86-b1d0-4bb4-8bd2-92a408b003a5 .axis.x text{text-anchor:middle}#chart-e914ae86-b1d0-4bb4-8bd2-92a408b003a5 .axis.x:not(.web) text[transform]{text-anchor:start}#chart-e914ae86-b1d0-4bb4-8bd2-92a408b003a5 .axis.x:not(.web) text[transform].backwards{text-anchor:end}#chart-e914ae86-b1d0-4bb4-8bd2-92a408b003a5 .axis.y text{text-anchor:end}#chart-e914ae86-b1d0-4bb4-8bd2-92a408b003a5 .axis.y text[transform].backwards{text-anchor:start}#chart-e914ae86-b1d0-4bb4-8bd2-92a408b003a5 .axis.y2 text{text-anchor:start}#chart-e914ae86-b1d0-4bb4-8bd2-92a408b003a5 .axis.y2 text[transform].backwards{text-anchor:end}#chart-e914ae86-b1d0-4bb4-8bd2-92a408b003a5 .axis .guide.line{stroke-dasharray:4,4}#chart-e914ae86-b1d0-4bb4-8bd2-92a408b003a5 .axis .major.guide.line{stroke-dasharray:6,6}#chart-e914ae86-b1d0-4bb4-8bd2-92a408b003a5 .horizontal .axis.y .guide.line,#chart-e914ae86-b1d0-4bb4-8bd2-92a408b003a5 .horizontal .axis.y2 .guide.line,#chart-e914ae86-b1d0-4bb4-8bd2-92a408b003a5 .vertical .axis.x .guide.line{opacity:0}#chart-e914ae86-b1d0-4bb4-8bd2-92a408b003a5 .horizontal .axis.always_show .guide.line,#chart-e914ae86-b1d0-4bb4-8bd2-92a408b003a5 .vertical .axis.always_show .guide.line{opacity:1 !important}#chart-e914ae86-b1d0-4bb4-8bd2-92a408b003a5 .axis.y .guides:hover .guide.line,#chart-e914ae86-b1d0-4bb4-8bd2-92a408b003a5 .axis.y2 .guides:hover .guide.line,#chart-e914ae86-b1d0-4bb4-8bd2-92a408b003a5 .axis.x .guides:hover .guide.line{opacity:1}#chart-e914ae86-b1d0-4bb4-8bd2-92a408b003a5 .axis .guides:hover text{opacity:1}#chart-e914ae86-b1d0-4bb4-8bd2-92a408b003a5 .nofill{fill:none}#chart-e914ae86-b1d0-4bb4-8bd2-92a408b003a5 .subtle-fill{fill-opacity:.2}#chart-e914ae86-b1d0-4bb4-8bd2-92a408b003a5 .dot{stroke-width:1px;fill-opacity:1}#chart-e914ae86-b1d0-4bb4-8bd2-92a408b003a5 .dot.active{stroke-width:5px}#chart-e914ae86-b1d0-4bb4-8bd2-92a408b003a5 .dot.negative{fill:transparent}#chart-e914ae86-b1d0-4bb4-8bd2-92a408b003a5 text,#chart-e914ae86-b1d0-4bb4-8bd2-92a408b003a5 tspan{stroke:none !important}#chart-e914ae86-b1d0-4bb4-8bd2-92a408b003a5 .series text.active{opacity:1}#chart-e914ae86-b1d0-4bb4-8bd2-92a408b003a5 .tooltip rect{fill-opacity:.95;stroke-width:.5}#chart-e914ae86-b1d0-4bb4-8bd2-92a408b003a5 .tooltip text{fill-opacity:1}#chart-e914ae86-b1d0-4bb4-8bd2-92a408b003a5 .showable{visibility:hidden}#chart-e914ae86-b1d0-4bb4-8bd2-92a408b003a5 .showable.shown{visibility:visible}#chart-e914ae86-b1d0-4bb4-8bd2-92a408b003a5 .gauge-background{fill:rgba(229,229,229,1);stroke:none}#chart-e914ae86-b1d0-4bb4-8bd2-92a408b003a5 .bg-lines{stroke:rgba(249,249,249,1);stroke-width:2px}</style><script type="text/javascript">window.pygal = window.pygal || {};window.pygal.config = window.pygal.config || {};window.pygal.config['e914ae86-b1d0-4bb4-8bd2-92a408b003a5'] = {"allow_interruptions": false, "box_mode": "extremes", "classes": ["pygal-chart"], "css": ["file://style.css", "file://graph.css"], "defs": [], "disable_xml_declaration": false, "dots_size": 2.5, "dynamic_print_values": false, "explicit_size": false, "fill": false, "force_uri_protocol": "https", "formatter": null, "half_pie": false, "height": 600, "include_x_axis": false, "inner_radius": 0, "interpolate": null, "interpolation_parameters": {}, "interpolation_precision": 250, "inverse_y_axis": false, "js": ["//kozea.github.io/pygal.js/2.0.x/pygal-tooltips.min.js"], "legend_at_bottom": true, "legend_at_bottom_columns": null, "legend_box_size": 12, "logarithmic": false, "margin": 20, "margin_bottom": null, "margin_left": null, "margin_right": null, "margin_top": null, "max_scale": 16, "min_scale": 4, "missing_value_fill_truncation": "x", "no_data_text": "No data", "no_prefix": false, "order_min": null, "pretty_print": false, "print_labels": false, "print_values": false, "print_values_position": "center", "print_zeroes": true, "range": null, "rounded_bars": null, "secondary_range": null, "show_dots": true, "show_legend": true, "show_minor_x_labels": false, "show_minor_y_labels": true, "show_only_major_dots": false, "show_x_guides": false, "show_x_labels": true, "show_y_guides": true, "show_y_labels": true, "spacing": 10, "stack_from_top": false, "strict": false, "stroke": true, "stroke_style": null, "style": {"background": "rgba(249, 249, 249, 1)", "ci_colors": [], "colors": ["red", "blue", "green", "#a3a3a3"], "font_family": "Consolas, \"Liberation Mono\", Menlo, Courier, monospace", "foreground": "rgba(0, 0, 0, .87)", "foreground_strong": "rgba(0, 0, 0, 1)", "foreground_subtle": "rgba(0, 0, 0, .54)", "guide_stroke_dasharray": "4,4", "label_font_family": "Consolas, \"Liberation Mono\", Menlo, Courier, monospace", "label_font_size": 10, "legend_font_family": "Consolas, \"Liberation Mono\", Menlo, Courier, monospace", "legend_font_size": 14, "major_guide_stroke_dasharray": "6,6", "major_label_font_family": "Consolas, \"Liberation Mono\", Menlo, Courier, monospace", "major_label_font_size": 10, "no_data_font_family": "Consolas, \"Liberation Mono\", Menlo, Courier, monospace", "no_data_font_size": 64, "opacity": ".7", "opacity_hover": ".8", "plot_background": "rgba(255, 255, 255, 1)", "stroke_opacity": ".8", "stroke_opacity_hover": ".9", "title_font_family": "Consolas, \"Liberation Mono\", Menlo, Courier, monospace", "title_font_size": 16, "tooltip_font_family": "Consolas, \"Liberation Mono\", Menlo, Courier, monospace", "tooltip_font_size": 14, "transition": "150ms", "value_background": "rgba(229, 229, 229, 1)", "value_colors": [], "value_font_family": "Consolas, \"Liberation Mono\", Menlo, Courier, monospace", "value_font_size": 16, "value_label_font_family": "Consolas, \"Liberation Mono\", Menlo, Courier, monospace", "value_label_font_size": 10}, "title": "JN Gillespie: Future and Past Averages in ODIs", "tooltip_border_radius": 10, "tooltip_fancy_mode": true, "truncate_label": null, "truncate_legend": null, "width": 800, "x_label_rotation": 45, "x_labels": ["1996", "0", "0", "0", "0", "1997", "0", "0", "0", "0", "0", "0", "0", "0", "1999", "0", "0", "0", "2000", "0", "0", "2001", "0", "0", "2002", "0", "0", "0", "0", "0", "0", "0", "0", "0", "0", "0", "0", "0", "0", "0", "0", "0", "0", "0", "0", "0", "2003", "0", "0", "0", "0", "0", "0", "0", "0", "0", "0", "2004", "0", "0", "0", "0", "0", "0", "0", "0", "0", "0", "0", "0", "0", "0", "0", "0", "0", "0", "0", "0", "2005", "0", "0", "0", "0", "0", "0", "0", "0", "0", "0", "0", "0", "0", "0", "0", "0", "0"], "x_labels_major": ["1996", "1997", "1999", "2000", "2001", "2002", "2003", "2004", "2005"], "x_labels_major_count": null, "x_labels_major_every": null, "x_title": null, "xrange": null, "y_label_rotation": 0, "y_labels": null, "y_labels_major": null, "y_labels_major_count": null, "y_labels_major_every": null, "y_title": null, "zero": 100.0, "legends": ["Future Average", "Past Average", "Career Average"]}</script><script type="text/javascript" xlink:href="https://kozea.github.io/pygal.js/2.0.x/pygal-tooltips.min.js"/></defs><title>JN Gillespie: Future and Past Averages in ODIs</title><g class="graph line-graph vertical"><rect class="background" height="600" width="800" x="0" y="0"/><g class="plot" transform="translate(42, 46)"><rect class="background" height="462.02943725152284" width="738.0" x="0" y="0"/><g class="axis y always_show"><g class="guides"><path class="axis major line" d="M0.000000 453.144256 h738.000000"/><text class="major" x="-5" y="456.6442557659166">0</text><title>0</title></g><g class="guides"><path class="guide line" d="M0.000000 405.116248 h738.000000"/><text class="" x="-5" y="408.6162477356128">10</text><title>10</title></g><g class="guides"><path class="guide line" d="M0.000000 357.088240 h738.000000"/><text class="" x="-5" y="360.588239705309">20</text><title>20</title></g><g class="guides"><path class="guide line" d="M0.000000 309.060232 h738.000000"/><text class="" x="-5" y="312.56023167500507">30</text><title>30</title></g><g class="guides"><path class="guide line" d="M0.000000 261.032224 h738.000000"/><text class="" x="-5" y="264.5322236447013">40</text><title>40</title></g><g class="guides"><path class="major guide line" d="M0.000000 213.004216 h738.000000"/><text class="major" x="-5" y="216.50421561439745">50</text><title>50</title></g><g class="guides"><path class="guide line" d="M0.000000 164.976208 h738.000000"/><text class="" x="-5" y="168.47620758409357">60</text><title>60</title></g><g class="guides"><path class="guide line" d="M0.000000 116.948200 h738.000000"/><text class="" x="-5" y="120.44819955378978">70</text><title>70</title></g><g class="guides"><path class="guide line" d="M0.000000 68.920192 h738.000000"/><text class="" x="-5" y="72.42019152348593">80</text><title>80</title></g><g class="guides"><path class="guide line" d="M0.000000 20.892183 h738.000000"/><text class="" x="-5" y="24.39218349318213">90</text><title>90</title></g></g><g class="axis x"><g class="guides"><path class="major line" d="M14.192308 0.000000 v462.029437"/><text class="major" x="14.192307692307692" y="477.02943725152284" transform="rotate(45 14.192308 477.029437)">1996</text></g><g class="guides"><path class="major guide line" d="M51.540486 0.000000 v462.029437"/><text class="major" x="51.540485829959515" y="477.02943725152284" transform="rotate(45 51.540486 477.029437)">1997</text></g><g class="guides"><path class="major guide line" d="M118.767206 0.000000 v462.029437"/><text class="major" x="118.76720647773277" y="477.02943725152284" transform="rotate(45 118.767206 477.029437)">1999</text></g><g class="guides"><path class="major guide line" d="M148.645749 0.000000 v462.029437"/><text class="major" x="148.64574898785423" y="477.02943725152284" transform="rotate(45 148.645749 477.029437)">2000</text></g><g class="guides"><path class="major guide line" d="M171.054656 0.000000 v462.029437"/><text class="major" x="171.05465587044532" y="477.02943725152284" transform="rotate(45 171.054656 477.029437)">2001</text></g><g class="guides"><path class="major guide line" d="M193.463563 0.000000 v462.029437"/><text class="major" x="193.46356275303643" y="477.02943725152284" transform="rotate(45 193.463563 477.029437)">2002</text></g><g class="guides"><path class="major guide line" d="M357.795547 0.000000 v462.029437"/><text class="major" x="357.7955465587044" y="477.02943725152284" transform="rotate(45 357.795547 477.029437)">2003</text></g><g class="guides"><path class="major guide line" d="M439.961538 0.000000 v462.029437"/><text class="major" x="439.96153846153845" y="477.02943725152284" transform="rotate(45 439.961538 477.029437)">2004</text></g><g class="guides"><path class="major guide line" d="M596.823887 0.000000 v462.029437"/><text class="major" x="596.8238866396761" y="477.02943725152284" transform="rotate(45 596.823887 477.029437)">2005</text></g></g><g class="series serie-0 color-0"><path class="line reactive nofill" d="M14.192308 331.009031 L21.661943 331.921563 29.131579 332.786068 36.601215 333.458460 44.070850 335.619720 51.540486 335.283524 59.010121 336.532252 66.479757 336.628308 73.949393 336.244084 81.419028 336.484224 88.888664 336.388168 96.358300 337.156616 103.827935 338.597457 111.297571 340.134353 118.767206 341.287025 126.236842 339.654073 133.706478 338.981681 141.176113 336.196056 148.645749 336.724364 156.115385 335.331552 163.585020 336.964504 171.054656 336.580280 178.524291 334.274936 185.993927 336.772392 193.463563 336.820420 200.933198 335.907888 208.402834 336.100000 215.872470 336.580280 223.342105 336.724364 230.811741 338.549429 238.281377 337.012532 245.751012 334.370992 253.220648 334.178880 260.690283 333.986768 268.159919 335.475636 275.629555 338.597457 283.099190 340.374493 290.568826 341.431109 298.038462 336.148028 305.508097 334.226908 312.977733 333.266348 320.447368 329.808331 327.917004 330.000443 335.386640 326.206231 342.856275 328.079323 350.325911 330.816919 357.795547 332.786068 365.265182 333.026208 372.734818 328.559603 380.204453 325.245670 387.674089 325.005530 395.143725 325.101586 402.613360 324.669334 410.082996 322.700186 417.552632 323.228494 425.022267 326.686511 432.491903 321.691598 439.961538 320.683010 447.431174 322.748214 454.900810 319.530337 462.370445 323.372578 469.840081 325.629894 477.309717 326.974679 484.779352 329.520163 492.248988 328.175379 499.718623 328.175379 507.188259 326.782567 514.657895 330.912975 522.127530 325.918062 529.597166 325.101586 537.066802 320.779066 544.536437 325.725950 552.006073 310.164876 559.475709 308.916148 566.945344 303.056731 574.414980 281.059903 581.884615 283.173135 589.354251 282.404687 596.823887 275.200486 604.293522 282.164547 611.763158 269.485153 619.232794 253.011546 626.702429 264.250100 634.172065 252.531266 641.641700 249.841698 649.111336 230.774579 656.580972 237.498500 664.050607 211.179151 671.520243 163.391283 678.989879 216.222092 686.459514 203.398614 693.929150 219.728137 701.398785 142.547128 708.868421 209.786339 716.338057 315.447957 723.807692 382.687168"/></g><g class="series serie-1 color-1"><path class="line reactive nofill" d="M14.192308 453.144256 L21.661943 323.468634 29.131579 78.525793 36.601215 160.173407 44.070850 8.885181 51.540486 184.187411 59.010121 140.962204 66.479757 204.215090 73.949393 243.021721 81.419028 250.370006 88.888664 267.131781 96.358300 264.634324 103.827935 249.025222 111.297571 232.215419 118.767206 228.901486 126.236842 263.145456 133.706478 276.257102 141.176113 302.720535 148.645749 301.519834 156.115385 311.653744 163.585020 304.449543 171.054656 308.387840 178.524291 319.290197 185.993927 310.308960 193.463563 311.029380 200.933198 315.399929 208.402834 315.495985 215.872470 315.159789 223.342105 315.399929 230.811741 310.308960 238.281377 316.216405 245.751012 323.804830 253.220648 324.573278 260.690283 325.341726 268.159919 322.796242 275.629555 317.032881 283.099190 313.766976 290.568826 312.470220 298.038462 323.132438 305.508097 326.494399 312.977733 328.031295 320.447368 332.401844 327.917004 332.161704 335.386640 335.955916 342.856275 334.034796 350.325911 331.201143 357.795547 329.231995 365.265182 329.087911 372.734818 333.218320 380.204453 335.859860 387.674089 335.811832 395.143725 335.571692 402.613360 335.667748 410.082996 336.724364 417.552632 336.244084 425.022267 333.938740 432.491903 336.724364 439.961538 337.156616 447.431174 335.811832 454.900810 337.252672 462.370445 335.139440 469.840081 333.842684 477.309717 333.074236 484.779352 331.777479 492.248988 332.353816 499.718623 332.257760 507.188259 332.786068 514.657895 331.057059 522.127530 332.930152 529.597166 333.170292 537.066802 334.467048 544.536437 332.786068 552.006073 336.820420 559.475709 336.916476 566.945344 337.877036 574.414980 341.190969 581.884615 340.278437 589.354251 339.894213 596.823887 340.182381 604.293522 339.029709 611.763158 339.365905 619.232794 340.230409 626.702429 338.885625 634.172065 338.933653 641.641700 338.501401 649.111336 338.597457 656.580972 338.117177 664.050607 338.165205 671.520243 338.405345 678.989879 336.051972 686.459514 335.667748 693.929150 335.091412 701.398785 335.091412 708.868421 333.650572 716.338057 331.345227 723.807692 329.904387"/></g><g class="series serie-2 color-2"><path class="line reactive nofill" d="M14.192308 331.009031 L21.661943 331.009031 29.131579 331.009031 36.601215 331.009031 44.070850 331.009031 51.540486 331.009031 59.010121 331.009031 66.479757 331.009031 73.949393 331.009031 81.419028 331.009031 88.888664 331.009031 96.358300 331.009031 103.827935 331.009031 111.297571 331.009031 118.767206 331.009031 126.236842 331.009031 133.706478 331.009031 141.176113 331.009031 148.645749 331.009031 156.115385 331.009031 163.585020 331.009031 171.054656 331.009031 178.524291 331.009031 185.993927 331.009031 193.463563 331.009031 200.933198 331.009031 208.402834 331.009031 215.872470 331.009031 223.342105 331.009031 230.811741 331.009031 238.281377 331.009031 245.751012 331.009031 253.220648 331.009031 260.690283 331.009031 268.159919 331.009031 275.629555 331.009031 283.099190 331.009031 290.568826 331.009031 298.038462 331.009031 305.508097 331.009031 312.977733 331.009031 320.447368 331.009031 327.917004 331.009031 335.386640 331.009031 342.856275 331.009031 350.325911 331.009031 357.795547 331.009031 365.265182 331.009031 372.734818 331.009031 380.204453 331.009031 387.674089 331.009031 395.143725 331.009031 402.613360 331.009031 410.082996 331.009031 417.552632 331.009031 425.022267 331.009031 432.491903 331.009031 439.961538 331.009031 447.431174 331.009031 454.900810 331.009031 462.370445 331.009031 469.840081 331.009031 477.309717 331.009031 484.779352 331.009031 492.248988 331.009031 499.718623 331.009031 507.188259 331.009031 514.657895 331.009031 522.127530 331.009031 529.597166 331.009031 537.066802 331.009031 544.536437 331.009031 552.006073 331.009031 559.475709 331.009031 566.945344 331.009031 574.414980 331.009031 581.884615 331.009031 589.354251 331.009031 596.823887 331.009031 604.293522 331.009031 611.763158 331.009031 619.232794 331.009031 626.702429 331.009031 634.172065 331.009031 641.641700 331.009031 649.111336 331.009031 656.580972 331.009031 664.050607 331.009031 671.520243 331.009031 678.989879 331.009031 686.459514 331.009031 693.929150 331.009031 701.398785 331.009031 708.868421 331.009031 716.338057 331.009031 723.807692 331.009031"/></g></g><g class="titles"><text class="title plot_title" x="400.0" y="26">JN Gillespie: Future and Past Averages in ODIs</text></g><g class="plot overlay" transform="translate(42, 46)"><g class="series serie-0 color-0"><g class="dots"><desc class="label">142 wickets in 96 innings (857.2 overs)</desc><circle class="dot reactive tooltip-trigger" cx="14.192307692307692" cy="331.00903134485395" r="2.5"/><desc class="value">25.43</desc><desc class="x top">14.192307692307692</desc><desc class="y top">331.00903134485395</desc><desc class="x_label">1996</desc></g><g class="dots"><desc class="label">138 wickets in 91 innings (812.2 overs)</desc><circle class="dot reactive tooltip-trigger" cx="51.540485829959515" cy="335.28352405955104" r="2.5"/><desc class="value">24.54</desc><desc class="x top">51.540485829959515</desc><desc class="y top">335.28352405955104</desc><desc class="x_label">1997</desc></g><g class="dots"><desc class="label">129 wickets in 82 innings (731.1 overs)</desc><circle class="dot reactive tooltip-trigger" cx="118.76720647773277" cy="341.287025063339" r="2.5"/><desc class="value">23.29</desc><desc class="x top">118.76720647773277</desc><desc class="y top">341.287025063339</desc><desc class="x_label">1999</desc></g><g class="dots"><desc class="label">119 wickets in 78 innings (699.1 overs)</desc><circle class="dot reactive tooltip-trigger" cx="148.64574898785423" cy="336.72436430046014" r="2.5"/><desc class="value">24.24</desc><desc class="x top">148.64574898785423</desc><desc class="y top">336.72436430046014</desc><desc class="x_label">2000</desc></g><g class="dots"><desc class="label">114 wickets in 75 innings (671.1 overs)</desc><circle class="dot reactive tooltip-trigger" cx="171.05465587044532" cy="336.5802802763692" r="2.5"/><desc class="value">24.27</desc><desc class="x top">171.05465587044532</desc><desc class="y top">336.5802802763692</desc><desc class="x_label">2001</desc></g><g class="dots"><desc class="label">110 wickets in 72 innings (645.1 overs)</desc><circle class="dot reactive tooltip-trigger" cx="193.46356275303643" cy="336.82042031652077" r="2.5"/><desc class="value">24.22</desc><desc class="x top">193.46356275303643</desc><desc class="y top">336.82042031652077</desc><desc class="x_label">2002</desc></g><g class="dots"><desc class="label">71 wickets in 50 innings (438.5 overs)</desc><circle class="dot reactive tooltip-trigger" cx="357.7955465587044" cy="332.78606764197525" r="2.5"/><desc class="value">25.06</desc><desc class="x top">357.7955465587044</desc><desc class="y top">332.78606764197525</desc><desc class="x_label">2003</desc></g><g class="dots"><desc class="label">53 wickets in 39 innings (342.5 overs)</desc><circle class="dot reactive tooltip-trigger" cx="439.96153846153845" cy="320.68300961833864" r="2.5"/><desc class="value">27.58</desc><desc class="x left top">439.96153846153845</desc><desc class="y left top">320.68300961833864</desc><desc class="x_label">2004</desc></g><g class="dots"><desc class="label">20 wickets in 18 innings (156.5 overs)</desc><circle class="dot reactive tooltip-trigger" cx="596.8238866396761" cy="275.2004860136409" r="2.5"/><desc class="value">37.05</desc><desc class="x left top">596.8238866396761</desc><desc class="y left top">275.2004860136409</desc><desc class="x_label">2005</desc></g></g><g class="series serie-1 color-1"><g class="dots"><desc class="label">0 wickets over 0 innings</desc><circle class="dot reactive tooltip-trigger" cx="14.192307692307692" cy="453.1442557659166" r="2.5"/><desc class="value">0</desc><desc class="x top">14.192307692307692</desc><desc class="y top">453.1442557659166</desc><desc class="x_label">1996</desc></g><g class="dots"><desc class="label">4 wickets in 5 innings (45.0 overs)</desc><circle class="dot reactive tooltip-trigger" cx="51.540485829959515" cy="184.18741079621515" r="2.5"/><desc class="value">56</desc><desc class="x ">51.540485829959515</desc><desc class="y ">184.18741079621515</desc><desc class="x_label">1997</desc></g><g class="dots"><desc class="label">13 wickets in 14 innings (126.1 overs)</desc><circle class="dot reactive tooltip-trigger" cx="118.76720647773277" cy="228.90148627242803" r="2.5"/><desc class="value">46.69</desc><desc class="x ">118.76720647773277</desc><desc class="y ">228.90148627242803</desc><desc class="x_label">1999</desc></g><g class="dots"><desc class="label">23 wickets in 18 innings (158.1 overs)</desc><circle class="dot reactive tooltip-trigger" cx="148.64574898785423" cy="301.5198344142474" r="2.5"/><desc class="value">31.57</desc><desc class="x top">148.64574898785423</desc><desc class="y top">301.5198344142474</desc><desc class="x_label">2000</desc></g><g class="dots"><desc class="label">28 wickets in 21 innings (186.1 overs)</desc><circle class="dot reactive tooltip-trigger" cx="171.05465587044532" cy="308.3878395625809" r="2.5"/><desc class="value">30.14</desc><desc class="x top">171.05465587044532</desc><desc class="y top">308.3878395625809</desc><desc class="x_label">2001</desc></g><g class="dots"><desc class="label">32 wickets in 24 innings (212.1 overs)</desc><circle class="dot reactive tooltip-trigger" cx="193.46356275303643" cy="311.02938000424757" r="2.5"/><desc class="value">29.59</desc><desc class="x top">193.46356275303643</desc><desc class="y top">311.02938000424757</desc><desc class="x_label">2002</desc></g><g class="dots"><desc class="label">71 wickets in 46 innings (418.3 overs)</desc><circle class="dot reactive tooltip-trigger" cx="357.7955465587044" cy="329.23199504773277" r="2.5"/><desc class="value">25.8</desc><desc class="x top">357.7955465587044</desc><desc class="y top">329.23199504773277</desc><desc class="x_label">2003</desc></g><g class="dots"><desc class="label">89 wickets in 57 innings (514.3 overs)</desc><circle class="dot reactive tooltip-trigger" cx="439.96153846153845" cy="337.15661637273286" r="2.5"/><desc class="value">24.15</desc><desc class="x left top">439.96153846153845</desc><desc class="y left top">337.15661637273286</desc><desc class="x_label">2004</desc></g><g class="dots"><desc class="label">122 wickets in 78 innings (700.3 overs)</desc><circle class="dot reactive tooltip-trigger" cx="596.8238866396761" cy="340.182380878642" r="2.5"/><desc class="value">23.52</desc><desc class="x left top">596.8238866396761</desc><desc class="y left top">340.182380878642</desc><desc class="x_label">2005</desc></g></g><g class="series serie-2 color-2"/></g><g class="plot text-overlay" transform="translate(42, 46)"><g class="series serie-0 color-0"/><g class="series serie-1 color-1"/><g class="series serie-2 color-2"/></g><g class="plot tooltip-overlay" transform="translate(42, 46)"><g class="tooltip" style="opacity: 0" transform="translate(0 0)"><rect class="tooltip-box" height="0" rx="10" ry="10" width="0"/><g class="text"/></g></g><g class="legends" transform="translate(52, 545)"><g class="legend reactive activate-serie" id="activate-serie-0"><rect class="color-0 reactive" height="12" width="12" x="0.0" y="1.0"/><text x="17.0" y="11.2">Future Average</text></g><g class="legend reactive activate-serie" id="activate-serie-1"><rect class="color-1 reactive" height="12" width="12" x="369.0" y="1.0"/><text x="386.0" y="11.2">Past Average</text></g><g class="legend reactive activate-serie" id="activate-serie-2"><rect class="color-2 reactive" height="12" width="12" x="0.0" y="22.0"/><text x="17.0" y="32.2">Career Average</text></g></g></g></svg>