<?xml version='1.0' encoding='utf-8'?>
<svg xmlns:xlink="http://www.w3.org/1999/xlink" xmlns="http://www.w3.org/2000/svg" id="chart-c3a17341-58a8-4712-8469-047a963f33f3" class="pygal-chart" viewBox="0 0 800 600"><!--Generated with pygal 2.4.0 (lxml) ©Kozea 2012-2016 on 2019-08-04--><!--http://pygal.org--><!--http://github.com/Kozea/pygal--><defs><style type="text/css">#chart-c3a17341-58a8-4712-8469-047a963f33f3{-webkit-user-select:none;-webkit-font-smoothing:antialiased;font-family:Consolas,"Liberation Mono",Menlo,Courier,monospace}#chart-c3a17341-58a8-4712-8469-047a963f33f3 .title{font-family:Consolas,"Liberation Mono",Menlo,Courier,monospace;font-size:16px}#chart-c3a17341-58a8-4712-8469-047a963f33f3 .legends .legend text{font-family:Consolas,"Liberation Mono",Menlo,Courier,monospace;font-size:14px}#chart-c3a17341-58a8-4712-8469-047a963f33f3 .axis text{font-family:Consolas,"Liberation Mono",Menlo,Courier,monospace;font-size:10px}#chart-c3a17341-58a8-4712-8469-047a963f33f3 .axis text.major{font-family:Consolas,"Liberation Mono",Menlo,Courier,monospace;font-size:10px}#chart-c3a17341-58a8-4712-8469-047a963f33f3 .text-overlay text.value{font-family:Consolas,"Liberation Mono",Menlo,Courier,monospace;font-size:16px}#chart-c3a17341-58a8-4712-8469-047a963f33f3 .text-overlay text.label{font-family:Consolas,"Liberation Mono",Menlo,Courier,monospace;font-size:10px}#chart-c3a17341-58a8-4712-8469-047a963f33f3 .tooltip{font-family:Consolas,"Liberation Mono",Menlo,Courier,monospace;font-size:14px}#chart-c3a17341-58a8-4712-8469-047a963f33f3 text.no_data{font-family:Consolas,"Liberation Mono",Menlo,Courier,monospace;font-size:64px}
#chart-c3a17341-58a8-4712-8469-047a963f33f3{background-color:rgba(249,249,249,1)}#chart-c3a17341-58a8-4712-8469-047a963f33f3 path,#chart-c3a17341-58a8-4712-8469-047a963f33f3 line,#chart-c3a17341-58a8-4712-8469-047a963f33f3 rect,#chart-c3a17341-58a8-4712-8469-047a963f33f3 circle{-webkit-transition:150ms;-moz-transition:150ms;transition:150ms}#chart-c3a17341-58a8-4712-8469-047a963f33f3 .graph &gt; .background{fill:rgba(249,249,249,1)}#chart-c3a17341-58a8-4712-8469-047a963f33f3 .plot &gt; .background{fill:rgba(255,255,255,1)}#chart-c3a17341-58a8-4712-8469-047a963f33f3 .graph{fill:rgba(0,0,0,.87)}#chart-c3a17341-58a8-4712-8469-047a963f33f3 text.no_data{fill:rgba(0,0,0,1)}#chart-c3a17341-58a8-4712-8469-047a963f33f3 .title{fill:rgba(0,0,0,1)}#chart-c3a17341-58a8-4712-8469-047a963f33f3 .legends .legend text{fill:rgba(0,0,0,.87)}#chart-c3a17341-58a8-4712-8469-047a963f33f3 .legends .legend:hover text{fill:rgba(0,0,0,1)}#chart-c3a17341-58a8-4712-8469-047a963f33f3 .axis .line{stroke:rgba(0,0,0,1)}#chart-c3a17341-58a8-4712-8469-047a963f33f3 .axis .guide.line{stroke:rgba(0,0,0,.54)}#chart-c3a17341-58a8-4712-8469-047a963f33f3 .axis .major.line{stroke:rgba(0,0,0,.87)}#chart-c3a17341-58a8-4712-8469-047a963f33f3 .axis text.major{fill:rgba(0,0,0,1)}#chart-c3a17341-58a8-4712-8469-047a963f33f3 .axis.y .guides:hover .guide.line,#chart-c3a17341-58a8-4712-8469-047a963f33f3 .line-graph .axis.x .guides:hover .guide.line,#chart-c3a17341-58a8-4712-8469-047a963f33f3 .stackedline-graph .axis.x .guides:hover .guide.line,#chart-c3a17341-58a8-4712-8469-047a963f33f3 .xy-graph .axis.x .guides:hover .guide.line{stroke:rgba(0,0,0,1)}#chart-c3a17341-58a8-4712-8469-047a963f33f3 .axis .guides:hover text{fill:rgba(0,0,0,1)}#chart-c3a17341-58a8-4712-8469-047a963f33f3 .reactive{fill-opacity:.7;stroke-opacity:.8}#chart-c3a17341-58a8-4712-8469-047a963f33f3 .ci{stroke:rgba(0,0,0,.87)}#chart-c3a17341-58a8-4712-8469-047a963f33f3 .reactive.active,#chart-c3a17341-58a8-4712-8469-047a963f33f3 .active .reactive{fill-opacity:.8;stroke-opacity:.9;stroke-width:4}#chart-c3a17341-58a8-4712-8469-047a963f33f3 .ci .reactive.active{stroke-width:1.5}#chart-c3a17341-58a8-4712-8469-047a963f33f3 .series text{fill:rgba(0,0,0,1)}#chart-c3a17341-58a8-4712-8469-047a963f33f3 .tooltip rect{fill:rgba(255,255,255,1);stroke:rgba(0,0,0,1);-webkit-transition:opacity 150ms;-moz-transition:opacity 150ms;transition:opacity 150ms}#chart-c3a17341-58a8-4712-8469-047a963f33f3 .tooltip .label{fill:rgba(0,0,0,.87)}#chart-c3a17341-58a8-4712-8469-047a963f33f3 .tooltip .label{fill:rgba(0,0,0,.87)}#chart-c3a17341-58a8-4712-8469-047a963f33f3 .tooltip .legend{font-size:.8em;fill:rgba(0,0,0,.54)}#chart-c3a17341-58a8-4712-8469-047a963f33f3 .tooltip .x_label{font-size:.6em;fill:rgba(0,0,0,1)}#chart-c3a17341-58a8-4712-8469-047a963f33f3 .tooltip .xlink{font-size:.5em;text-decoration:underline}#chart-c3a17341-58a8-4712-8469-047a963f33f3 .tooltip .value{font-size:1.5em}#chart-c3a17341-58a8-4712-8469-047a963f33f3 .bound{font-size:.5em}#chart-c3a17341-58a8-4712-8469-047a963f33f3 .max-value{font-size:.75em;fill:rgba(0,0,0,.54)}#chart-c3a17341-58a8-4712-8469-047a963f33f3 .map-element{fill:rgba(255,255,255,1);stroke:rgba(0,0,0,.54) !important}#chart-c3a17341-58a8-4712-8469-047a963f33f3 .map-element .reactive{fill-opacity:inherit;stroke-opacity:inherit}#chart-c3a17341-58a8-4712-8469-047a963f33f3 .color-0,#chart-c3a17341-58a8-4712-8469-047a963f33f3 .color-0 a:visited{stroke:red;fill:red}#chart-c3a17341-58a8-4712-8469-047a963f33f3 .color-1,#chart-c3a17341-58a8-4712-8469-047a963f33f3 .color-1 a:visited{stroke:blue;fill:blue}#chart-c3a17341-58a8-4712-8469-047a963f33f3 .color-2,#chart-c3a17341-58a8-4712-8469-047a963f33f3 .color-2 a:visited{stroke:green;fill:green}#chart-c3a17341-58a8-4712-8469-047a963f33f3 .text-overlay .color-0 text{fill:white}#chart-c3a17341-58a8-4712-8469-047a963f33f3 .text-overlay .color-1 text{fill:white}#chart-c3a17341-58a8-4712-8469-047a963f33f3 .text-overlay .color-2 text{fill:white}
#chart-c3a17341-58a8-4712-8469-047a963f33f3 text.no_data{text-anchor:middle}#chart-c3a17341-58a8-4712-8469-047a963f33f3 .guide.line{fill:none}#chart-c3a17341-58a8-4712-8469-047a963f33f3 .centered{text-anchor:middle}#chart-c3a17341-58a8-4712-8469-047a963f33f3 .title{text-anchor:middle}#chart-c3a17341-58a8-4712-8469-047a963f33f3 .legends .legend text{fill-opacity:1}#chart-c3a17341-58a8-4712-8469-047a963f33f3 .axis.x text{text-anchor:middle}#chart-c3a17341-58a8-4712-8469-047a963f33f3 .axis.x:not(.web) text[transform]{text-anchor:start}#chart-c3a17341-58a8-4712-8469-047a963f33f3 .axis.x:not(.web) text[transform].backwards{text-anchor:end}#chart-c3a17341-58a8-4712-8469-047a963f33f3 .axis.y text{text-anchor:end}#chart-c3a17341-58a8-4712-8469-047a963f33f3 .axis.y text[transform].backwards{text-anchor:start}#chart-c3a17341-58a8-4712-8469-047a963f33f3 .axis.y2 text{text-anchor:start}#chart-c3a17341-58a8-4712-8469-047a963f33f3 .axis.y2 text[transform].backwards{text-anchor:end}#chart-c3a17341-58a8-4712-8469-047a963f33f3 .axis .guide.line{stroke-dasharray:4,4}#chart-c3a17341-58a8-4712-8469-047a963f33f3 .axis .major.guide.line{stroke-dasharray:6,6}#chart-c3a17341-58a8-4712-8469-047a963f33f3 .horizontal .axis.y .guide.line,#chart-c3a17341-58a8-4712-8469-047a963f33f3 .horizontal .axis.y2 .guide.line,#chart-c3a17341-58a8-4712-8469-047a963f33f3 .vertical .axis.x .guide.line{opacity:0}#chart-c3a17341-58a8-4712-8469-047a963f33f3 .horizontal .axis.always_show .guide.line,#chart-c3a17341-58a8-4712-8469-047a963f33f3 .vertical .axis.always_show .guide.line{opacity:1 !important}#chart-c3a17341-58a8-4712-8469-047a963f33f3 .axis.y .guides:hover .guide.line,#chart-c3a17341-58a8-4712-8469-047a963f33f3 .axis.y2 .guides:hover .guide.line,#chart-c3a17341-58a8-4712-8469-047a963f33f3 .axis.x .guides:hover .guide.line{opacity:1}#chart-c3a17341-58a8-4712-8469-047a963f33f3 .axis .guides:hover text{opacity:1}#chart-c3a17341-58a8-4712-8469-047a963f33f3 .nofill{fill:none}#chart-c3a17341-58a8-4712-8469-047a963f33f3 .subtle-fill{fill-opacity:.2}#chart-c3a17341-58a8-4712-8469-047a963f33f3 .dot{stroke-width:1px;fill-opacity:1}#chart-c3a17341-58a8-4712-8469-047a963f33f3 .dot.active{stroke-width:5px}#chart-c3a17341-58a8-4712-8469-047a963f33f3 .dot.negative{fill:transparent}#chart-c3a17341-58a8-4712-8469-047a963f33f3 text,#chart-c3a17341-58a8-4712-8469-047a963f33f3 tspan{stroke:none !important}#chart-c3a17341-58a8-4712-8469-047a963f33f3 .series text.active{opacity:1}#chart-c3a17341-58a8-4712-8469-047a963f33f3 .tooltip rect{fill-opacity:.95;stroke-width:.5}#chart-c3a17341-58a8-4712-8469-047a963f33f3 .tooltip text{fill-opacity:1}#chart-c3a17341-58a8-4712-8469-047a963f33f3 .showable{visibility:hidden}#chart-c3a17341-58a8-4712-8469-047a963f33f3 .showable.shown{visibility:visible}#chart-c3a17341-58a8-4712-8469-047a963f33f3 .gauge-background{fill:rgba(229,229,229,1);stroke:none}#chart-c3a17341-58a8-4712-8469-047a963f33f3 .bg-lines{stroke:rgba(249,249,249,1);stroke-width:2px}</style><script type="text/javascript">window.pygal = window.pygal || {};window.pygal.config = window.pygal.config || {};window.pygal.config['c3a17341-58a8-4712-8469-047a963f33f3'] = {"allow_interruptions": false, "box_mode": "extremes", "classes": ["pygal-chart"], "css": ["file://style.css", "file://graph.css"], "defs": [], "disable_xml_declaration": false, "dots_size": 2.5, "dynamic_print_values": false, "explicit_size": false, "fill": false, "force_uri_protocol": "https", "formatter": null, "half_pie": false, "height": 600, "include_x_axis": false, "inner_radius": 0, "interpolate": null, "interpolation_parameters": {}, "interpolation_precision": 250, "inverse_y_axis": false, "js": ["//kozea.github.io/pygal.js/2.0.x/pygal-tooltips.min.js"], "legend_at_bottom": true, "legend_at_bottom_columns": null, "legend_box_size": 12, "logarithmic": false, "margin": 20, "margin_bottom": null, "margin_left": null, "margin_right": null, "margin_top": null, "max_scale": 16, "min_scale": 4, "missing_value_fill_truncation": "x", "no_data_text": "No data", "no_prefix": false, "order_min": null, "pretty_print": false, "print_labels": false, "print_values": false, "print_values_position": "center", "print_zeroes": true, "range": null, "rounded_bars": null, "secondary_range": null, "show_dots": true, "show_legend": true, "show_minor_x_labels": false, "show_minor_y_labels": true, "show_only_major_dots": false, "show_x_guides": false, "show_x_labels": true, "show_y_guides": true, "show_y_labels": true, "spacing": 10, "stack_from_top": false, "strict": false, "stroke": true, "stroke_style": null, "style": {"background": "rgba(249, 249, 249, 1)", "ci_colors": [], "colors": ["red", "blue", "green", "#a3a3a3"], "font_family": "Consolas, \"Liberation Mono\", Menlo, Courier, monospace", "foreground": "rgba(0, 0, 0, .87)", "foreground_strong": "rgba(0, 0, 0, 1)", "foreground_subtle": "rgba(0, 0, 0, .54)", "guide_stroke_dasharray": "4,4", "label_font_family": "Consolas, \"Liberation Mono\", Menlo, Courier, monospace", "label_font_size": 10, "legend_font_family": "Consolas, \"Liberation Mono\", Menlo, Courier, monospace", "legend_font_size": 14, "major_guide_stroke_dasharray": "6,6", "major_label_font_family": "Consolas, \"Liberation Mono\", Menlo, Courier, monospace", "major_label_font_size": 10, "no_data_font_family": "Consolas, \"Liberation Mono\", Menlo, Courier, monospace", "no_data_font_size": 64, "opacity": ".7", "opacity_hover": ".8", "plot_background": "rgba(255, 255, 255, 1)", "stroke_opacity": ".8", "stroke_opacity_hover": ".9", "title_font_family": "Consolas, \"Liberation Mono\", Menlo, Courier, monospace", "title_font_size": 16, "tooltip_font_family": "Consolas, \"Liberation Mono\", Menlo, Courier, monospace", "tooltip_font_size": 14, "transition": "150ms", "value_background": "rgba(229, 229, 229, 1)", "value_colors": [], "value_font_family": "Consolas, \"Liberation Mono\", Menlo, Courier, monospace", "value_font_size": 16, "value_label_font_family": "Consolas, \"Liberation Mono\", Menlo, Courier, monospace", "value_label_font_size": 10}, "title": "JO Holder: Future and Past Averages in ODIs", "tooltip_border_radius": 10, "tooltip_fancy_mode": true, "truncate_label": null, "truncate_legend": null, "width": 800, "x_label_rotation": 45, "x_labels": ["2013", "0", "0", "0", "0", "0", "0", "0", "0", "0", "0", "0", "2014", "0", "0", "0", "0", "0", "0", "0", "0", "2015", "0", "0", "0", "0", "0", "0", "0", "0", "0", "0", "0", "0", "0", "2016", "0", "0", "0", "0", "0", "0", "0", "0", "0", "0", "0", "0", "0", "2017", "0", "0", "0", "0", "0", "0", "0", "0", "0", "0", "0", "0", "0", "0", "0", "0", "0", "0", "0", "2018", "0", "0", "0", "0", "0", "0", "0", "0", "0", "0", "0", "0", "0", "0", "2019", "0", "0", "0", "0", "0", "0", "0", "0", "0", "0", "0", "0", "0", "0", "0", "0"], "x_labels_major": ["2013", "2014", "2015", "2016", "2017", "2018", "2019"], "x_labels_major_count": null, "x_labels_major_every": null, "x_title": null, "xrange": null, "y_label_rotation": 0, "y_labels": null, "y_labels_major": null, "y_labels_major_count": null, "y_labels_major_every": null, "y_title": null, "zero": 70.0, "legends": ["Future Average", "Past Average", "Career Average"]}</script><script type="text/javascript" xlink:href="https://kozea.github.io/pygal.js/2.0.x/pygal-tooltips.min.js"/></defs><title>JO Holder: Future and Past Averages in ODIs</title><g class="graph line-graph vertical"><rect class="background" height="600" width="800" x="0" y="0"/><g class="plot" transform="translate(42, 46)"><rect class="background" height="462.02943725152284" width="738.0" x="0" y="0"/><g class="axis y always_show"><g class="guides"><path class="axis major line" d="M0.000000 453.144256 h738.000000"/><text class="major" x="-5" y="456.6442557659166">0</text><title>0</title></g><g class="guides"><path class="guide line" d="M0.000000 388.051351 h738.000000"/><text class="" x="-5" y="391.5513511094609">10</text><title>10</title></g><g class="guides"><path class="guide line" d="M0.000000 322.958446 h738.000000"/><text class="" x="-5" y="326.45844645300514">20</text><title>20</title></g><g class="guides"><path class="guide line" d="M0.000000 257.865542 h738.000000"/><text class="" x="-5" y="261.3655417965494">30</text><title>30</title></g><g class="guides"><path class="guide line" d="M0.000000 192.772637 h738.000000"/><text class="" x="-5" y="196.2726371400936">40</text><title>40</title></g><g class="guides"><path class="major guide line" d="M0.000000 127.679732 h738.000000"/><text class="major" x="-5" y="131.17973248363785">50</text><title>50</title></g><g class="guides"><path class="guide line" d="M0.000000 62.586828 h738.000000"/><text class="" x="-5" y="66.0868278271821">60</text><title>60</title></g></g><g class="axis x"><g class="guides"><path class="major line" d="M14.192308 0.000000 v462.029437"/><text class="major" x="14.192307692307692" y="477.02943725152284" transform="rotate(45 14.192308 477.029437)">2013</text></g><g class="guides"><path class="major guide line" d="M99.346154 0.000000 v462.029437"/><text class="major" x="99.34615384615384" y="477.02943725152284" transform="rotate(45 99.346154 477.029437)">2014</text></g><g class="guides"><path class="major guide line" d="M163.211538 0.000000 v462.029437"/><text class="major" x="163.21153846153842" y="477.02943725152284" transform="rotate(45 163.211538 477.029437)">2015</text></g><g class="guides"><path class="major guide line" d="M262.557692 0.000000 v462.029437"/><text class="major" x="262.5576923076923" y="477.02943725152284" transform="rotate(45 262.557692 477.029437)">2016</text></g><g class="guides"><path class="major guide line" d="M361.903846 0.000000 v462.029437"/><text class="major" x="361.90384615384613" y="477.02943725152284" transform="rotate(45 361.903846 477.029437)">2017</text></g><g class="guides"><path class="major guide line" d="M503.826923 0.000000 v462.029437"/><text class="major" x="503.8269230769231" y="477.02943725152284" transform="rotate(45 503.826923 477.029437)">2018</text></g><g class="guides"><path class="major guide line" d="M610.269231 0.000000 v462.029437"/><text class="major" x="610.2692307692307" y="477.02943725152284" transform="rotate(45 610.269231 477.029437)">2019</text></g></g><g class="series serie-0 color-0"><path class="line reactive nofill" d="M14.192308 228.118084 L21.288462 227.271877 28.384615 228.378456 35.480769 227.402062 42.576923 220.632400 49.673077 222.259723 56.769231 220.567307 63.865385 220.827679 70.961538 221.478608 78.057692 220.176750 85.153846 221.738980 92.250000 224.407789 99.346154 221.543701 106.442308 220.176750 113.538462 221.478608 120.634615 219.265449 127.730769 214.708946 134.826923 216.336269 141.923077 216.531547 149.019231 215.294782 156.115385 215.945711 163.211538 216.987198 170.307692 218.028684 177.403846 224.017231 184.500000 222.585187 191.596154 216.466454 198.692308 216.726826 205.788462 219.851285 212.884615 218.939985 219.980769 214.513667 227.076923 219.525821 234.173077 221.738980 241.269231 212.691066 248.365385 218.679613 255.461538 220.957865 262.557692 218.744706 269.653846 218.809799 276.750000 217.573034 283.846154 215.164596 290.942308 219.460728 298.038462 221.153144 305.134615 220.957865 312.230769 219.135264 319.326923 219.070171 326.423077 217.182476 333.519231 219.656007 340.615385 214.318389 347.711538 211.714672 354.807692 206.116683 361.903846 204.163895 369.000000 209.110956 376.096154 213.992924 383.192308 206.246868 390.288462 208.525120 397.384615 213.992924 404.480769 214.058017 411.576923 217.377755 418.673077 213.146716 425.769231 212.821252 432.865385 217.768313 439.961538 219.981471 447.057692 197.980070 454.153846 203.057316 461.250000 205.661032 468.346154 207.223262 475.442308 208.069470 482.538462 215.945711 489.634615 212.625973 496.730769 208.980770 503.826923 206.116683 510.923077 179.168220 518.019231 188.411413 525.115385 181.641750 532.211538 161.593136 539.307692 122.537393 546.403846 116.939403 553.500000 129.632520 560.596154 128.851405 567.692308 133.863558 574.788462 119.087469 581.884615 134.514487 588.980769 151.633921 596.076923 133.798466 603.173077 157.557376 610.269231 163.285551 617.365385 151.959386 624.461538 105.417959 631.557692 153.196151 638.653846 111.406506 645.750000 128.330662 652.846154 145.905746 659.942308 151.568828 667.038462 148.834926 674.134615 174.025881 681.230769 61.284970 688.326923 8.885181 695.423077 59.332183 702.519231 160.226185 709.615385 228.573735 716.711538 111.406506 723.807692 153.716894"/></g><g class="series serie-1 color-1"><path class="line reactive nofill" d="M14.192308 453.144256 L21.288462 335.977027 28.384615 212.300509 35.480769 251.356251 42.576923 341.705203 49.673077 317.230271 56.769231 318.401943 63.865385 306.359756 70.961538 293.145896 78.057692 293.666639 85.153846 276.937763 92.250000 256.563684 99.346154 271.665238 106.442308 274.334047 113.538462 264.374832 120.634615 271.209587 127.730769 284.163075 134.826923 277.133042 141.923077 274.138768 149.019231 276.677391 156.115385 272.055795 163.211538 266.587991 170.307692 261.575837 177.403846 241.787594 184.500000 245.693169 191.596154 259.557957 198.692308 256.433498 205.788462 248.687442 212.884615 250.184579 219.980769 257.409891 227.076923 245.953540 234.173077 241.462130 241.269231 256.042940 248.365385 245.302611 255.461538 241.136665 262.557692 244.065846 269.653846 243.414917 276.750000 244.846961 283.846154 247.320491 290.942308 240.941387 298.038462 238.467856 305.134615 238.467856 312.230769 240.225365 319.326923 239.964993 326.423077 241.592316 333.519231 238.207485 340.615385 243.545103 347.711538 245.367704 354.807692 249.208185 361.903846 249.663836 369.000000 245.237518 376.096154 240.811201 383.192308 246.018633 390.288462 243.675289 397.384615 239.314064 404.480769 238.988599 411.576923 236.124512 418.673077 238.598042 425.769231 238.532949 432.865385 234.887746 439.961538 233.325517 447.057692 244.326218 454.153846 241.592316 461.250000 240.225365 468.346154 239.314064 475.442308 238.207485 482.538462 234.236817 489.634615 235.408490 496.730769 236.449976 503.826923 237.361277 510.923077 244.977147 518.019231 241.787594 525.115385 242.829081 532.211538 246.604469 539.307692 252.267552 546.403846 252.267552 553.500000 249.533650 560.596154 248.557256 567.692308 246.474283 574.788462 246.995027 581.884615 244.326218 588.980769 241.331944 596.076923 242.438523 603.173077 238.858414 610.269231 238.012206 617.365385 238.142392 624.461538 240.746108 631.557692 235.864140 638.653846 237.947113 645.750000 236.515069 652.846154 235.083025 659.942308 233.911353 667.038462 233.390610 674.134615 231.698194 681.230769 234.887746 688.326923 235.148118 695.423077 233.520795 702.519231 230.331243 709.615385 228.118084 716.711538 230.005779 723.807692 230.461429"/></g><g class="series serie-2 color-2"><path class="line reactive nofill" d="M14.192308 228.118084 L21.288462 228.118084 28.384615 228.118084 35.480769 228.118084 42.576923 228.118084 49.673077 228.118084 56.769231 228.118084 63.865385 228.118084 70.961538 228.118084 78.057692 228.118084 85.153846 228.118084 92.250000 228.118084 99.346154 228.118084 106.442308 228.118084 113.538462 228.118084 120.634615 228.118084 127.730769 228.118084 134.826923 228.118084 141.923077 228.118084 149.019231 228.118084 156.115385 228.118084 163.211538 228.118084 170.307692 228.118084 177.403846 228.118084 184.500000 228.118084 191.596154 228.118084 198.692308 228.118084 205.788462 228.118084 212.884615 228.118084 219.980769 228.118084 227.076923 228.118084 234.173077 228.118084 241.269231 228.118084 248.365385 228.118084 255.461538 228.118084 262.557692 228.118084 269.653846 228.118084 276.750000 228.118084 283.846154 228.118084 290.942308 228.118084 298.038462 228.118084 305.134615 228.118084 312.230769 228.118084 319.326923 228.118084 326.423077 228.118084 333.519231 228.118084 340.615385 228.118084 347.711538 228.118084 354.807692 228.118084 361.903846 228.118084 369.000000 228.118084 376.096154 228.118084 383.192308 228.118084 390.288462 228.118084 397.384615 228.118084 404.480769 228.118084 411.576923 228.118084 418.673077 228.118084 425.769231 228.118084 432.865385 228.118084 439.961538 228.118084 447.057692 228.118084 454.153846 228.118084 461.250000 228.118084 468.346154 228.118084 475.442308 228.118084 482.538462 228.118084 489.634615 228.118084 496.730769 228.118084 503.826923 228.118084 510.923077 228.118084 518.019231 228.118084 525.115385 228.118084 532.211538 228.118084 539.307692 228.118084 546.403846 228.118084 553.500000 228.118084 560.596154 228.118084 567.692308 228.118084 574.788462 228.118084 581.884615 228.118084 588.980769 228.118084 596.076923 228.118084 603.173077 228.118084 610.269231 228.118084 617.365385 228.118084 624.461538 228.118084 631.557692 228.118084 638.653846 228.118084 645.750000 228.118084 652.846154 228.118084 659.942308 228.118084 667.038462 228.118084 674.134615 228.118084 681.230769 228.118084 688.326923 228.118084 695.423077 228.118084 702.519231 228.118084 709.615385 228.118084 716.711538 228.118084 723.807692 228.118084"/></g></g><g class="titles"><text class="title plot_title" x="400.0" y="26">JO Holder: Future and Past Averages in ODIs</text></g><g class="plot overlay" transform="translate(42, 46)"><g class="series serie-0 color-0"><g class="dots"><desc class="label">129 wickets in 101 innings (803.1 overs)</desc><circle class="dot reactive tooltip-trigger" cx="14.192307692307692" cy="228.11808436854906" r="2.5"/><desc class="value">34.57</desc><desc class="x ">14.192307692307692</desc><desc class="y ">228.11808436854906</desc><desc class="x_label">2013</desc></g><g class="dots"><desc class="label">112 wickets in 89 innings (707.5 overs)</desc><circle class="dot reactive tooltip-trigger" cx="99.34615384615384" cy="221.5437009982471" r="2.5"/><desc class="value">35.58</desc><desc class="x ">99.34615384615384</desc><desc class="y ">221.5437009982471</desc><desc class="x_label">2014</desc></g><g class="dots"><desc class="label">100 wickets in 80 innings (643.5 overs)</desc><circle class="dot reactive tooltip-trigger" cx="163.21153846153842" cy="216.98719767229514" r="2.5"/><desc class="value">36.28</desc><desc class="x ">163.21153846153842</desc><desc class="y ">216.98719767229514</desc><desc class="x_label">2015</desc></g><g class="dots"><desc class="label">81 wickets in 66 innings (531.5 overs)</desc><circle class="dot reactive tooltip-trigger" cx="262.5576923076923" cy="218.74470609801946" r="2.5"/><desc class="value">36.01</desc><desc class="x ">262.5576923076923</desc><desc class="y ">218.74470609801946</desc><desc class="x_label">2016</desc></g><g class="dots"><desc class="label">61 wickets in 52 innings (417.5 overs)</desc><circle class="dot reactive tooltip-trigger" cx="361.90384615384613" cy="204.16389545497333" r="2.5"/><desc class="value">38.25</desc><desc class="x ">361.90384615384613</desc><desc class="y ">204.16389545497333</desc><desc class="x_label">2017</desc></g><g class="dots"><desc class="label">38 wickets in 32 innings (249.5 overs)</desc><circle class="dot reactive tooltip-trigger" cx="503.8269230769231" cy="206.11668259466703" r="2.5"/><desc class="value">37.95</desc><desc class="x left">503.8269230769231</desc><desc class="y left">206.11668259466703</desc><desc class="x_label">2018</desc></g><g class="dots"><desc class="label">17 wickets in 17 innings (126.5 overs)</desc><circle class="dot reactive tooltip-trigger" cx="610.2692307692307" cy="163.28555133071916" r="2.5"/><desc class="value">44.53</desc><desc class="x left">610.2692307692307</desc><desc class="y left">163.28555133071916</desc><desc class="x_label">2019</desc></g></g><g class="series serie-1 color-1"><g class="dots"><desc class="label">0 wickets over 0 innings</desc><circle class="dot reactive tooltip-trigger" cx="14.192307692307692" cy="453.1442557659166" r="2.5"/><desc class="value">0</desc><desc class="x top">14.192307692307692</desc><desc class="y top">453.1442557659166</desc><desc class="x_label">2013</desc></g><g class="dots"><desc class="label">17 wickets in 12 innings (95.2 overs)</desc><circle class="dot reactive tooltip-trigger" cx="99.34615384615384" cy="271.665237583718" r="2.5"/><desc class="value">27.88</desc><desc class="x top">99.34615384615384</desc><desc class="y top">271.665237583718</desc><desc class="x_label">2014</desc></g><g class="dots"><desc class="label">29 wickets in 21 innings (159.2 overs)</desc><circle class="dot reactive tooltip-trigger" cx="163.21153846153842" cy="266.58799102051444" r="2.5"/><desc class="value">28.66</desc><desc class="x top">163.21153846153842</desc><desc class="y top">266.58799102051444</desc><desc class="x_label">2015</desc></g><g class="dots"><desc class="label">48 wickets in 35 innings (271.2 overs)</desc><circle class="dot reactive tooltip-trigger" cx="262.5576923076923" cy="244.06584600938075" r="2.5"/><desc class="value">32.12</desc><desc class="x top">262.5576923076923</desc><desc class="y top">244.06584600938075</desc><desc class="x_label">2016</desc></g><g class="dots"><desc class="label">68 wickets in 49 innings (385.2 overs)</desc><circle class="dot reactive tooltip-trigger" cx="361.90384615384613" cy="249.66383580983594" r="2.5"/><desc class="value">31.26</desc><desc class="x top">361.90384615384613</desc><desc class="y top">249.66383580983594</desc><desc class="x_label">2017</desc></g><g class="dots"><desc class="label">91 wickets in 69 innings (553.2 overs)</desc><circle class="dot reactive tooltip-trigger" cx="503.8269230769231" cy="237.3612768297658" r="2.5"/><desc class="value">33.15</desc><desc class="x left top">503.8269230769231</desc><desc class="y left top">237.3612768297658</desc><desc class="x_label">2018</desc></g><g class="dots"><desc class="label">112 wickets in 84 innings (676.2 overs)</desc><circle class="dot reactive tooltip-trigger" cx="610.2692307692307" cy="238.01220587633037" r="2.5"/><desc class="value">33.05</desc><desc class="x left top">610.2692307692307</desc><desc class="y left top">238.01220587633037</desc><desc class="x_label">2019</desc></g></g><g class="series serie-2 color-2"/></g><g class="plot text-overlay" transform="translate(42, 46)"><g class="series serie-0 color-0"/><g class="series serie-1 color-1"/><g class="series serie-2 color-2"/></g><g class="plot tooltip-overlay" transform="translate(42, 46)"><g class="tooltip" style="opacity: 0" transform="translate(0 0)"><rect class="tooltip-box" height="0" rx="10" ry="10" width="0"/><g class="text"/></g></g><g class="legends" transform="translate(52, 545)"><g class="legend reactive activate-serie" id="activate-serie-0"><rect class="color-0 reactive" height="12" width="12" x="0.0" y="1.0"/><text x="17.0" y="11.2">Future Average</text></g><g class="legend reactive activate-serie" id="activate-serie-1"><rect class="color-1 reactive" height="12" width="12" x="369.0" y="1.0"/><text x="386.0" y="11.2">Past Average</text></g><g class="legend reactive activate-serie" id="activate-serie-2"><rect class="color-2 reactive" height="12" width="12" x="0.0" y="22.0"/><text x="17.0" y="32.2">Career Average</text></g></g></g></svg>