<?xml version='1.0' encoding='utf-8'?>
<svg xmlns:xlink="http://www.w3.org/1999/xlink" xmlns="http://www.w3.org/2000/svg" id="chart-313c19ab-0476-4f75-ab70-2cadfebd1796" class="pygal-chart" viewBox="0 0 800 600"><!--Generated with pygal 2.4.0 (lxml) ©Kozea 2012-2016 on 2019-08-04--><!--http://pygal.org--><!--http://github.com/Kozea/pygal--><defs><style type="text/css">#chart-313c19ab-0476-4f75-ab70-2cadfebd1796{-webkit-user-select:none;-webkit-font-smoothing:antialiased;font-family:Consolas,"Liberation Mono",Menlo,Courier,monospace}#chart-313c19ab-0476-4f75-ab70-2cadfebd1796 .title{font-family:Consolas,"Liberation Mono",Menlo,Courier,monospace;font-size:16px}#chart-313c19ab-0476-4f75-ab70-2cadfebd1796 .legends .legend text{font-family:Consolas,"Liberation Mono",Menlo,Courier,monospace;font-size:14px}#chart-313c19ab-0476-4f75-ab70-2cadfebd1796 .axis text{font-family:Consolas,"Liberation Mono",Menlo,Courier,monospace;font-size:10px}#chart-313c19ab-0476-4f75-ab70-2cadfebd1796 .axis text.major{font-family:Consolas,"Liberation Mono",Menlo,Courier,monospace;font-size:10px}#chart-313c19ab-0476-4f75-ab70-2cadfebd1796 .text-overlay text.value{font-family:Consolas,"Liberation Mono",Menlo,Courier,monospace;font-size:16px}#chart-313c19ab-0476-4f75-ab70-2cadfebd1796 .text-overlay text.label{font-family:Consolas,"Liberation Mono",Menlo,Courier,monospace;font-size:10px}#chart-313c19ab-0476-4f75-ab70-2cadfebd1796 .tooltip{font-family:Consolas,"Liberation Mono",Menlo,Courier,monospace;font-size:14px}#chart-313c19ab-0476-4f75-ab70-2cadfebd1796 text.no_data{font-family:Consolas,"Liberation Mono",Menlo,Courier,monospace;font-size:64px}
#chart-313c19ab-0476-4f75-ab70-2cadfebd1796{background-color:rgba(249,249,249,1)}#chart-313c19ab-0476-4f75-ab70-2cadfebd1796 path,#chart-313c19ab-0476-4f75-ab70-2cadfebd1796 line,#chart-313c19ab-0476-4f75-ab70-2cadfebd1796 rect,#chart-313c19ab-0476-4f75-ab70-2cadfebd1796 circle{-webkit-transition:150ms;-moz-transition:150ms;transition:150ms}#chart-313c19ab-0476-4f75-ab70-2cadfebd1796 .graph &gt; .background{fill:rgba(249,249,249,1)}#chart-313c19ab-0476-4f75-ab70-2cadfebd1796 .plot &gt; .background{fill:rgba(255,255,255,1)}#chart-313c19ab-0476-4f75-ab70-2cadfebd1796 .graph{fill:rgba(0,0,0,.87)}#chart-313c19ab-0476-4f75-ab70-2cadfebd1796 text.no_data{fill:rgba(0,0,0,1)}#chart-313c19ab-0476-4f75-ab70-2cadfebd1796 .title{fill:rgba(0,0,0,1)}#chart-313c19ab-0476-4f75-ab70-2cadfebd1796 .legends .legend text{fill:rgba(0,0,0,.87)}#chart-313c19ab-0476-4f75-ab70-2cadfebd1796 .legends .legend:hover text{fill:rgba(0,0,0,1)}#chart-313c19ab-0476-4f75-ab70-2cadfebd1796 .axis .line{stroke:rgba(0,0,0,1)}#chart-313c19ab-0476-4f75-ab70-2cadfebd1796 .axis .guide.line{stroke:rgba(0,0,0,.54)}#chart-313c19ab-0476-4f75-ab70-2cadfebd1796 .axis .major.line{stroke:rgba(0,0,0,.87)}#chart-313c19ab-0476-4f75-ab70-2cadfebd1796 .axis text.major{fill:rgba(0,0,0,1)}#chart-313c19ab-0476-4f75-ab70-2cadfebd1796 .axis.y .guides:hover .guide.line,#chart-313c19ab-0476-4f75-ab70-2cadfebd1796 .line-graph .axis.x .guides:hover .guide.line,#chart-313c19ab-0476-4f75-ab70-2cadfebd1796 .stackedline-graph .axis.x .guides:hover .guide.line,#chart-313c19ab-0476-4f75-ab70-2cadfebd1796 .xy-graph .axis.x .guides:hover .guide.line{stroke:rgba(0,0,0,1)}#chart-313c19ab-0476-4f75-ab70-2cadfebd1796 .axis .guides:hover text{fill:rgba(0,0,0,1)}#chart-313c19ab-0476-4f75-ab70-2cadfebd1796 .reactive{fill-opacity:.7;stroke-opacity:.8}#chart-313c19ab-0476-4f75-ab70-2cadfebd1796 .ci{stroke:rgba(0,0,0,.87)}#chart-313c19ab-0476-4f75-ab70-2cadfebd1796 .reactive.active,#chart-313c19ab-0476-4f75-ab70-2cadfebd1796 .active .reactive{fill-opacity:.8;stroke-opacity:.9;stroke-width:4}#chart-313c19ab-0476-4f75-ab70-2cadfebd1796 .ci .reactive.active{stroke-width:1.5}#chart-313c19ab-0476-4f75-ab70-2cadfebd1796 .series text{fill:rgba(0,0,0,1)}#chart-313c19ab-0476-4f75-ab70-2cadfebd1796 .tooltip rect{fill:rgba(255,255,255,1);stroke:rgba(0,0,0,1);-webkit-transition:opacity 150ms;-moz-transition:opacity 150ms;transition:opacity 150ms}#chart-313c19ab-0476-4f75-ab70-2cadfebd1796 .tooltip .label{fill:rgba(0,0,0,.87)}#chart-313c19ab-0476-4f75-ab70-2cadfebd1796 .tooltip .label{fill:rgba(0,0,0,.87)}#chart-313c19ab-0476-4f75-ab70-2cadfebd1796 .tooltip .legend{font-size:.8em;fill:rgba(0,0,0,.54)}#chart-313c19ab-0476-4f75-ab70-2cadfebd1796 .tooltip .x_label{font-size:.6em;fill:rgba(0,0,0,1)}#chart-313c19ab-0476-4f75-ab70-2cadfebd1796 .tooltip .xlink{font-size:.5em;text-decoration:underline}#chart-313c19ab-0476-4f75-ab70-2cadfebd1796 .tooltip .value{font-size:1.5em}#chart-313c19ab-0476-4f75-ab70-2cadfebd1796 .bound{font-size:.5em}#chart-313c19ab-0476-4f75-ab70-2cadfebd1796 .max-value{font-size:.75em;fill:rgba(0,0,0,.54)}#chart-313c19ab-0476-4f75-ab70-2cadfebd1796 .map-element{fill:rgba(255,255,255,1);stroke:rgba(0,0,0,.54) !important}#chart-313c19ab-0476-4f75-ab70-2cadfebd1796 .map-element .reactive{fill-opacity:inherit;stroke-opacity:inherit}#chart-313c19ab-0476-4f75-ab70-2cadfebd1796 .color-0,#chart-313c19ab-0476-4f75-ab70-2cadfebd1796 .color-0 a:visited{stroke:red;fill:red}#chart-313c19ab-0476-4f75-ab70-2cadfebd1796 .color-1,#chart-313c19ab-0476-4f75-ab70-2cadfebd1796 .color-1 a:visited{stroke:blue;fill:blue}#chart-313c19ab-0476-4f75-ab70-2cadfebd1796 .color-2,#chart-313c19ab-0476-4f75-ab70-2cadfebd1796 .color-2 a:visited{stroke:green;fill:green}#chart-313c19ab-0476-4f75-ab70-2cadfebd1796 .text-overlay .color-0 text{fill:white}#chart-313c19ab-0476-4f75-ab70-2cadfebd1796 .text-overlay .color-1 text{fill:white}#chart-313c19ab-0476-4f75-ab70-2cadfebd1796 .text-overlay .color-2 text{fill:white}
#chart-313c19ab-0476-4f75-ab70-2cadfebd1796 text.no_data{text-anchor:middle}#chart-313c19ab-0476-4f75-ab70-2cadfebd1796 .guide.line{fill:none}#chart-313c19ab-0476-4f75-ab70-2cadfebd1796 .centered{text-anchor:middle}#chart-313c19ab-0476-4f75-ab70-2cadfebd1796 .title{text-anchor:middle}#chart-313c19ab-0476-4f75-ab70-2cadfebd1796 .legends .legend text{fill-opacity:1}#chart-313c19ab-0476-4f75-ab70-2cadfebd1796 .axis.x text{text-anchor:middle}#chart-313c19ab-0476-4f75-ab70-2cadfebd1796 .axis.x:not(.web) text[transform]{text-anchor:start}#chart-313c19ab-0476-4f75-ab70-2cadfebd1796 .axis.x:not(.web) text[transform].backwards{text-anchor:end}#chart-313c19ab-0476-4f75-ab70-2cadfebd1796 .axis.y text{text-anchor:end}#chart-313c19ab-0476-4f75-ab70-2cadfebd1796 .axis.y text[transform].backwards{text-anchor:start}#chart-313c19ab-0476-4f75-ab70-2cadfebd1796 .axis.y2 text{text-anchor:start}#chart-313c19ab-0476-4f75-ab70-2cadfebd1796 .axis.y2 text[transform].backwards{text-anchor:end}#chart-313c19ab-0476-4f75-ab70-2cadfebd1796 .axis .guide.line{stroke-dasharray:4,4}#chart-313c19ab-0476-4f75-ab70-2cadfebd1796 .axis .major.guide.line{stroke-dasharray:6,6}#chart-313c19ab-0476-4f75-ab70-2cadfebd1796 .horizontal .axis.y .guide.line,#chart-313c19ab-0476-4f75-ab70-2cadfebd1796 .horizontal .axis.y2 .guide.line,#chart-313c19ab-0476-4f75-ab70-2cadfebd1796 .vertical .axis.x .guide.line{opacity:0}#chart-313c19ab-0476-4f75-ab70-2cadfebd1796 .horizontal .axis.always_show .guide.line,#chart-313c19ab-0476-4f75-ab70-2cadfebd1796 .vertical .axis.always_show .guide.line{opacity:1 !important}#chart-313c19ab-0476-4f75-ab70-2cadfebd1796 .axis.y .guides:hover .guide.line,#chart-313c19ab-0476-4f75-ab70-2cadfebd1796 .axis.y2 .guides:hover .guide.line,#chart-313c19ab-0476-4f75-ab70-2cadfebd1796 .axis.x .guides:hover .guide.line{opacity:1}#chart-313c19ab-0476-4f75-ab70-2cadfebd1796 .axis .guides:hover text{opacity:1}#chart-313c19ab-0476-4f75-ab70-2cadfebd1796 .nofill{fill:none}#chart-313c19ab-0476-4f75-ab70-2cadfebd1796 .subtle-fill{fill-opacity:.2}#chart-313c19ab-0476-4f75-ab70-2cadfebd1796 .dot{stroke-width:1px;fill-opacity:1}#chart-313c19ab-0476-4f75-ab70-2cadfebd1796 .dot.active{stroke-width:5px}#chart-313c19ab-0476-4f75-ab70-2cadfebd1796 .dot.negative{fill:transparent}#chart-313c19ab-0476-4f75-ab70-2cadfebd1796 text,#chart-313c19ab-0476-4f75-ab70-2cadfebd1796 tspan{stroke:none !important}#chart-313c19ab-0476-4f75-ab70-2cadfebd1796 .series text.active{opacity:1}#chart-313c19ab-0476-4f75-ab70-2cadfebd1796 .tooltip rect{fill-opacity:.95;stroke-width:.5}#chart-313c19ab-0476-4f75-ab70-2cadfebd1796 .tooltip text{fill-opacity:1}#chart-313c19ab-0476-4f75-ab70-2cadfebd1796 .showable{visibility:hidden}#chart-313c19ab-0476-4f75-ab70-2cadfebd1796 .showable.shown{visibility:visible}#chart-313c19ab-0476-4f75-ab70-2cadfebd1796 .gauge-background{fill:rgba(229,229,229,1);stroke:none}#chart-313c19ab-0476-4f75-ab70-2cadfebd1796 .bg-lines{stroke:rgba(249,249,249,1);stroke-width:2px}</style><script type="text/javascript">window.pygal = window.pygal || {};window.pygal.config = window.pygal.config || {};window.pygal.config['313c19ab-0476-4f75-ab70-2cadfebd1796'] = {"allow_interruptions": false, "box_mode": "extremes", "classes": ["pygal-chart"], "css": ["file://style.css", "file://graph.css"], "defs": [], "disable_xml_declaration": false, "dots_size": 2.5, "dynamic_print_values": false, "explicit_size": false, "fill": false, "force_uri_protocol": "https", "formatter": null, "half_pie": false, "height": 600, "include_x_axis": false, "inner_radius": 0, "interpolate": null, "interpolation_parameters": {}, "interpolation_precision": 250, "inverse_y_axis": false, "js": ["//kozea.github.io/pygal.js/2.0.x/pygal-tooltips.min.js"], "legend_at_bottom": true, "legend_at_bottom_columns": null, "legend_box_size": 12, "logarithmic": false, "margin": 20, "margin_bottom": null, "margin_left": null, "margin_right": null, "margin_top": null, "max_scale": 16, "min_scale": 4, "missing_value_fill_truncation": "x", "no_data_text": "No data", "no_prefix": false, "order_min": null, "pretty_print": false, "print_labels": false, "print_values": false, "print_values_position": "center", "print_zeroes": true, "range": null, "rounded_bars": null, "secondary_range": null, "show_dots": true, "show_legend": true, "show_minor_x_labels": false, "show_minor_y_labels": true, "show_only_major_dots": false, "show_x_guides": false, "show_x_labels": true, "show_y_guides": true, "show_y_labels": true, "spacing": 10, "stack_from_top": false, "strict": false, "stroke": true, "stroke_style": null, "style": {"background": "rgba(249, 249, 249, 1)", "ci_colors": [], "colors": ["red", "blue", "green", "#a3a3a3"], "font_family": "Consolas, \"Liberation Mono\", Menlo, Courier, monospace", "foreground": "rgba(0, 0, 0, .87)", "foreground_strong": "rgba(0, 0, 0, 1)", "foreground_subtle": "rgba(0, 0, 0, .54)", "guide_stroke_dasharray": "4,4", "label_font_family": "Consolas, \"Liberation Mono\", Menlo, Courier, monospace", "label_font_size": 10, "legend_font_family": "Consolas, \"Liberation Mono\", Menlo, Courier, monospace", "legend_font_size": 14, "major_guide_stroke_dasharray": "6,6", "major_label_font_family": "Consolas, \"Liberation Mono\", Menlo, Courier, monospace", "major_label_font_size": 10, "no_data_font_family": "Consolas, \"Liberation Mono\", Menlo, Courier, monospace", "no_data_font_size": 64, "opacity": ".7", "opacity_hover": ".8", "plot_background": "rgba(255, 255, 255, 1)", "stroke_opacity": ".8", "stroke_opacity_hover": ".9", "title_font_family": "Consolas, \"Liberation Mono\", Menlo, Courier, monospace", "title_font_size": 16, "tooltip_font_family": "Consolas, \"Liberation Mono\", Menlo, Courier, monospace", "tooltip_font_size": 14, "transition": "150ms", "value_background": "rgba(229, 229, 229, 1)", "value_colors": [], "value_font_family": "Consolas, \"Liberation Mono\", Menlo, Courier, monospace", "value_font_size": 16, "value_label_font_family": "Consolas, \"Liberation Mono\", Menlo, Courier, monospace", "value_label_font_size": 10}, "title": "KD Mills: Future and Past Averages in ODIs", "tooltip_border_radius": 10, "tooltip_fancy_mode": true, "truncate_label": null, "truncate_legend": null, "width": 800, "x_label_rotation": 45, "x_labels": ["2001", "0", "0", "0", "0", "0", "0", "0", "2002", "0", "0", "0", "2003", "0", "0", "0", "0", "0", "0", "0", "0", "0", "0", "0", "2004", "0", "0", "0", "0", "0", "0", "0", "0", "0", "0", "0", "0", "0", "0", "2005", "0", "0", "0", "0", "0", "0", "0", "0", "0", "0", "0", "0", "0", "0", "0", "0", "0", "2006", "0", "0", "0", "0", "0", "0", "2007", "0", "0", "0", "0", "0", "0", "0", "0", "2008", "0", "0", "0", "0", "0", "0", "0", "0", "0", "0", "0", "0", "0", "2009", "0", "0", "0", "0", "0", "0", "0", "0", "0", "0", "0", "0", "0", "0", "0", "0", "0", "0", "0", "0", "0", "2010", "0", "0", "0", "0", "0", "0", "0", "0", "0", "0", "0", "0", "2011", "0", "0", "0", "0", "0", "0", "2012", "0", "0", "0", "0", "0", "0", "0", "0", "0", "0", "2013", "0", "0", "0", "0", "0", "0", "0", "0", "0", "0", "0", "0", "0", "0", "0", "0", "0", "2014", "0", "0", "0", "0", "0", "0", "0", "2015", "0", "0"], "x_labels_major": ["2001", "2002", "2003", "2004", "2005", "2006", "2007", "2008", "2009", "2010", "2011", "2012", "2013", "2014", "2015"], "x_labels_major_count": null, "x_labels_major_every": null, "x_title": null, "xrange": null, "y_label_rotation": 0, "y_labels": null, "y_labels_major": null, "y_labels_major_count": null, "y_labels_major_every": null, "y_title": null, "zero": 60, "legends": ["Future Average", "Past Average", "Career Average"]}</script><script type="text/javascript" xlink:href="https://kozea.github.io/pygal.js/2.0.x/pygal-tooltips.min.js"/></defs><title>KD Mills: Future and Past Averages in ODIs</title><g class="graph line-graph vertical"><rect class="background" height="600" width="800" x="0" y="0"/><g class="plot" transform="translate(42, 46)"><rect class="background" height="462.02943725152284" width="738.0" x="0" y="0"/><g class="axis y always_show"><g class="guides"><path class="axis major line" d="M0.000000 453.144256 h738.000000"/><text class="major" x="-5" y="456.6442557659166">0</text><title>0</title></g><g class="guides"><path class="guide line" d="M0.000000 352.678613 h738.000000"/><text class="" x="-5" y="356.1786125546298">10</text><title>10</title></g><g class="guides"><path class="guide line" d="M0.000000 252.212969 h738.000000"/><text class="" x="-5" y="255.71296934334293">20</text><title>20</title></g><g class="guides"><path class="guide line" d="M0.000000 151.747326 h738.000000"/><text class="" x="-5" y="155.24732613205612">30</text><title>30</title></g><g class="guides"><path class="guide line" d="M0.000000 51.281683 h738.000000"/><text class="" x="-5" y="54.781682920769185">40</text><title>40</title></g></g><g class="axis x"><g class="guides"><path class="major line" d="M14.192308 0.000000 v462.029437"/><text class="major" x="14.192307692307692" y="477.02943725152284" transform="rotate(45 14.192308 477.029437)">2001</text></g><g class="guides"><path class="major guide line" d="M47.983516 0.000000 v462.029437"/><text class="major" x="47.98351648351648" y="477.02943725152284" transform="rotate(45 47.983516 477.029437)">2002</text></g><g class="guides"><path class="major guide line" d="M64.879121 0.000000 v462.029437"/><text class="major" x="64.87912087912088" y="477.02943725152284" transform="rotate(45 64.879121 477.029437)">2003</text></g><g class="guides"><path class="major guide line" d="M115.565934 0.000000 v462.029437"/><text class="major" x="115.56593406593406" y="477.02943725152284" transform="rotate(45 115.565934 477.029437)">2004</text></g><g class="guides"><path class="major guide line" d="M178.924451 0.000000 v462.029437"/><text class="major" x="178.92445054945057" y="477.02943725152284" transform="rotate(45 178.924451 477.029437)">2005</text></g><g class="guides"><path class="major guide line" d="M254.954670 0.000000 v462.029437"/><text class="major" x="254.95467032967034" y="477.02943725152284" transform="rotate(45 254.954670 477.029437)">2006</text></g><g class="guides"><path class="major guide line" d="M284.521978 0.000000 v462.029437"/><text class="major" x="284.52197802197804" y="477.02943725152284" transform="rotate(45 284.521978 477.029437)">2007</text></g><g class="guides"><path class="major guide line" d="M322.537088 0.000000 v462.029437"/><text class="major" x="322.5370879120879" y="477.02943725152284" transform="rotate(45 322.537088 477.029437)">2008</text></g><g class="guides"><path class="major guide line" d="M381.671703 0.000000 v462.029437"/><text class="major" x="381.67170329670336" y="477.02943725152284" transform="rotate(45 381.671703 477.029437)">2009</text></g><g class="guides"><path class="major guide line" d="M474.597527 0.000000 v462.029437"/><text class="major" x="474.5975274725275" y="477.02943725152284" transform="rotate(45 474.597527 477.029437)">2010</text></g><g class="guides"><path class="major guide line" d="M529.508242 0.000000 v462.029437"/><text class="major" x="529.5082417582418" y="477.02943725152284" transform="rotate(45 529.508242 477.029437)">2011</text></g><g class="guides"><path class="major guide line" d="M559.075549 0.000000 v462.029437"/><text class="major" x="559.0755494505495" y="477.02943725152284" transform="rotate(45 559.075549 477.029437)">2012</text></g><g class="guides"><path class="major guide line" d="M605.538462 0.000000 v462.029437"/><text class="major" x="605.5384615384615" y="477.02943725152284" transform="rotate(45 605.538462 477.029437)">2013</text></g><g class="guides"><path class="major guide line" d="M681.568681 0.000000 v462.029437"/><text class="major" x="681.5686813186812" y="477.02943725152284" transform="rotate(45 681.568681 477.029437)">2014</text></g><g class="guides"><path class="major guide line" d="M715.359890 0.000000 v462.029437"/><text class="major" x="715.3598901098901" y="477.02943725152284" transform="rotate(45 715.359890 477.029437)">2015</text></g></g><g class="series serie-0 color-0"><path class="line reactive nofill" d="M14.192308 181.686088 L18.416209 181.887019 22.640110 179.777241 26.864011 180.380034 31.087912 180.179103 35.311813 179.274912 39.535714 178.973515 43.759615 178.672119 47.983516 179.877706 52.207418 180.781897 56.431319 178.973515 60.655220 178.672119 64.879121 176.964203 69.103022 176.863737 73.326923 176.964203 77.550824 177.667462 81.774725 176.461874 85.998626 177.968859 90.222527 179.375378 94.446429 179.475844 98.670330 179.978172 102.894231 180.380034 107.118132 181.485157 111.342033 180.580966 115.565934 181.887019 119.789835 183.394004 124.013736 181.585622 128.237637 182.087950 132.461538 184.197729 136.685440 183.293538 140.909341 186.106576 145.133242 187.412629 149.357143 190.527064 153.581044 192.134515 157.804945 187.613561 162.028846 186.207042 166.252747 186.809836 170.476648 188.316820 174.700549 188.115889 178.924451 188.015423 183.148352 189.120545 187.372253 189.622874 191.596154 191.230324 195.820055 193.239637 200.043956 195.449881 204.267857 195.248950 208.491758 194.344759 212.715659 194.847087 216.939560 194.445224 221.163462 195.148484 225.387363 191.833118 229.611264 192.938240 233.835165 194.847087 238.059066 195.952209 242.282967 196.454537 246.506868 197.057331 250.730769 199.267575 254.954670 196.555003 259.178571 196.153140 263.402473 194.244293 267.626374 194.947553 271.850275 191.129858 276.074176 191.029393 280.298077 190.125202 284.521978 185.704714 288.745879 188.718683 292.969780 181.384691 297.193681 178.772584 301.417582 179.174447 305.641484 180.179103 309.865385 182.489813 314.089286 179.877706 318.313187 174.653493 322.537088 172.443249 326.760989 174.553027 330.984890 175.859081 335.208791 180.078638 339.432692 184.097263 343.656593 178.471187 347.880495 183.193072 352.104396 180.781897 356.328297 179.777241 360.552198 178.873050 364.776099 178.873050 369.000000 178.973515 373.223901 172.845111 377.447802 169.931608 381.671703 169.429279 385.895604 169.328814 390.119505 166.917638 394.343407 169.730676 398.567308 167.118570 402.791209 159.181784 407.015110 159.985509 411.239011 159.985509 415.462912 163.099944 419.686813 159.382715 423.910714 166.616241 428.134615 168.525089 432.358516 168.625554 436.582418 171.840455 440.806319 171.739989 445.030220 171.438592 449.254121 173.347439 453.478022 171.639523 457.701923 170.534401 461.925824 172.644180 466.149725 165.611585 470.373626 165.611585 474.597527 169.931608 478.821429 165.912982 483.045330 155.665486 487.269231 159.885043 491.493132 157.473868 495.717033 150.843135 499.940934 156.569677 504.164835 153.254311 508.388736 144.614265 512.612637 136.074686 516.836538 144.413334 521.060440 151.044067 525.284341 162.095287 529.508242 164.707394 533.732143 165.310188 537.956044 162.497150 542.179945 162.698081 546.403846 157.172471 550.627747 153.957570 554.851648 141.901693 559.075549 147.929632 563.299451 133.462579 567.523352 124.922999 571.747253 123.516480 575.971154 125.525793 580.195055 127.635572 584.418956 121.105305 588.642857 126.932312 592.866758 136.677480 597.090659 121.004839 601.314560 121.004839 605.538462 121.607633 609.762363 128.539763 613.986264 116.282954 618.210165 106.537787 622.434066 92.271665 626.657967 108.848496 630.881868 122.009496 635.105769 123.215083 639.329670 132.457923 643.553571 155.565021 647.777473 134.869098 652.001374 143.509143 656.225275 91.467940 660.449176 97.998207 664.673077 130.448610 668.896978 96.491222 673.120879 81.421376 677.344780 79.713460 681.568681 42.239775 685.792582 8.885181 690.016484 20.036868 694.240385 87.047452 698.464286 104.026146 702.688187 114.474573 706.912088 49.272370 711.135989 66.351529 715.359890 118.292267 719.583791 215.342078 723.807692 307.469073"/></g><g class="series serie-1 color-1"><path class="line reactive nofill" d="M14.192308 453.144256 L18.416209 121.607633 22.640110 294.910868 26.864011 244.175718 31.087912 238.851039 35.311813 252.212969 39.535714 252.212969 43.759615 250.203656 47.983516 224.082589 52.207418 200.171766 56.431319 229.005406 60.655220 230.713322 64.879121 243.371993 69.103022 240.458489 73.326923 236.841726 77.550824 226.091902 81.774725 233.526360 85.998626 218.858376 90.222527 204.290858 94.446429 201.980148 98.670330 197.358728 102.894231 193.139171 107.118132 183.394004 111.342033 189.823805 115.565934 180.179103 119.789835 169.831142 124.013736 182.188416 128.237637 178.973515 132.461538 166.515776 136.685440 172.443249 140.909341 156.770608 145.133242 150.340807 149.357143 133.261648 153.581044 124.018809 157.804945 152.751983 162.028846 160.889700 166.252747 158.578990 170.476648 152.249654 174.700549 154.560364 178.924451 155.765952 183.148352 151.948257 187.372253 151.546395 191.596154 146.221716 195.820055 138.988189 200.043956 132.056060 204.267857 133.763976 208.491758 139.189121 212.715659 138.485861 216.939560 141.499831 221.163462 140.294243 225.387363 153.153845 229.611264 150.843135 233.835165 145.518456 238.059066 143.207746 242.282967 142.604953 246.506868 142.906350 250.730769 138.083999 254.954670 146.824510 259.178571 149.135219 263.402473 155.163158 267.626374 154.158502 271.850275 162.999478 276.074176 163.602272 280.298077 166.013447 284.521978 174.653493 288.745879 169.730676 292.969780 182.087950 297.193681 186.006110 301.417582 185.302851 305.641484 183.795866 309.865385 180.580966 314.089286 183.996798 318.313187 190.225667 322.537088 192.536377 326.760989 190.125202 330.984890 188.417286 335.208791 183.494469 339.432692 178.772584 343.656593 185.202385 347.880495 180.078638 352.104396 182.690744 356.328297 183.695401 360.552198 184.499126 364.776099 184.298195 369.000000 184.197729 373.223901 189.522408 377.447802 191.732652 381.671703 192.034049 385.895604 191.933583 390.119505 193.541034 394.343407 191.230324 398.567308 192.837774 402.791209 197.760591 407.015110 196.956866 411.239011 196.354072 415.462912 194.244293 419.686813 196.253606 423.910714 191.531721 428.134615 190.125202 432.358516 189.723339 436.582418 187.814492 440.806319 187.714026 445.030220 187.814492 449.254121 186.608904 453.478022 187.312164 457.701923 187.814492 461.925824 186.508439 466.149725 189.823805 470.373626 189.522408 474.597527 187.312164 478.821429 189.020080 483.045330 192.837774 487.269231 191.029393 491.493132 191.632186 495.717033 193.641499 499.940934 191.431255 504.164835 192.234980 508.388736 194.545690 512.612637 196.555003 516.836538 193.842431 521.060440 191.632186 525.284341 188.015423 529.508242 187.211698 533.732143 186.809836 537.956044 187.412629 542.179945 187.211698 546.403846 188.417286 550.627747 189.020080 554.851648 191.632186 559.075549 190.125202 563.299451 192.837774 567.523352 194.043362 571.747253 194.043362 575.971154 193.239637 580.195055 192.536377 584.418956 193.440568 588.642857 191.933583 592.866758 190.125202 597.090659 192.034049 601.314560 191.732652 605.538462 191.230324 609.762363 189.823805 613.986264 191.029393 618.210165 191.632186 622.434066 192.536377 626.657967 190.527064 630.881868 188.919614 635.105769 188.517752 639.329670 187.111233 643.553571 184.599591 647.777473 186.407973 652.001374 185.503782 656.225275 189.020080 660.449176 188.015423 664.673077 185.604248 668.896978 186.910301 673.120879 187.412629 677.344780 187.010767 681.568681 187.714026 685.792582 188.417286 690.016484 188.015423 694.240385 185.403317 698.464286 184.398660 702.688187 183.695401 706.912088 184.499126 711.135989 183.594935 715.359890 182.489813 719.583791 181.284225 723.807692 180.580966"/></g><g class="series serie-2 color-2"><path class="line reactive nofill" d="M14.192308 181.686088 L18.416209 181.686088 22.640110 181.686088 26.864011 181.686088 31.087912 181.686088 35.311813 181.686088 39.535714 181.686088 43.759615 181.686088 47.983516 181.686088 52.207418 181.686088 56.431319 181.686088 60.655220 181.686088 64.879121 181.686088 69.103022 181.686088 73.326923 181.686088 77.550824 181.686088 81.774725 181.686088 85.998626 181.686088 90.222527 181.686088 94.446429 181.686088 98.670330 181.686088 102.894231 181.686088 107.118132 181.686088 111.342033 181.686088 115.565934 181.686088 119.789835 181.686088 124.013736 181.686088 128.237637 181.686088 132.461538 181.686088 136.685440 181.686088 140.909341 181.686088 145.133242 181.686088 149.357143 181.686088 153.581044 181.686088 157.804945 181.686088 162.028846 181.686088 166.252747 181.686088 170.476648 181.686088 174.700549 181.686088 178.924451 181.686088 183.148352 181.686088 187.372253 181.686088 191.596154 181.686088 195.820055 181.686088 200.043956 181.686088 204.267857 181.686088 208.491758 181.686088 212.715659 181.686088 216.939560 181.686088 221.163462 181.686088 225.387363 181.686088 229.611264 181.686088 233.835165 181.686088 238.059066 181.686088 242.282967 181.686088 246.506868 181.686088 250.730769 181.686088 254.954670 181.686088 259.178571 181.686088 263.402473 181.686088 267.626374 181.686088 271.850275 181.686088 276.074176 181.686088 280.298077 181.686088 284.521978 181.686088 288.745879 181.686088 292.969780 181.686088 297.193681 181.686088 301.417582 181.686088 305.641484 181.686088 309.865385 181.686088 314.089286 181.686088 318.313187 181.686088 322.537088 181.686088 326.760989 181.686088 330.984890 181.686088 335.208791 181.686088 339.432692 181.686088 343.656593 181.686088 347.880495 181.686088 352.104396 181.686088 356.328297 181.686088 360.552198 181.686088 364.776099 181.686088 369.000000 181.686088 373.223901 181.686088 377.447802 181.686088 381.671703 181.686088 385.895604 181.686088 390.119505 181.686088 394.343407 181.686088 398.567308 181.686088 402.791209 181.686088 407.015110 181.686088 411.239011 181.686088 415.462912 181.686088 419.686813 181.686088 423.910714 181.686088 428.134615 181.686088 432.358516 181.686088 436.582418 181.686088 440.806319 181.686088 445.030220 181.686088 449.254121 181.686088 453.478022 181.686088 457.701923 181.686088 461.925824 181.686088 466.149725 181.686088 470.373626 181.686088 474.597527 181.686088 478.821429 181.686088 483.045330 181.686088 487.269231 181.686088 491.493132 181.686088 495.717033 181.686088 499.940934 181.686088 504.164835 181.686088 508.388736 181.686088 512.612637 181.686088 516.836538 181.686088 521.060440 181.686088 525.284341 181.686088 529.508242 181.686088 533.732143 181.686088 537.956044 181.686088 542.179945 181.686088 546.403846 181.686088 550.627747 181.686088 554.851648 181.686088 559.075549 181.686088 563.299451 181.686088 567.523352 181.686088 571.747253 181.686088 575.971154 181.686088 580.195055 181.686088 584.418956 181.686088 588.642857 181.686088 592.866758 181.686088 597.090659 181.686088 601.314560 181.686088 605.538462 181.686088 609.762363 181.686088 613.986264 181.686088 618.210165 181.686088 622.434066 181.686088 626.657967 181.686088 630.881868 181.686088 635.105769 181.686088 639.329670 181.686088 643.553571 181.686088 647.777473 181.686088 652.001374 181.686088 656.225275 181.686088 660.449176 181.686088 664.673077 181.686088 668.896978 181.686088 673.120879 181.686088 677.344780 181.686088 681.568681 181.686088 685.792582 181.686088 690.016484 181.686088 694.240385 181.686088 698.464286 181.686088 702.688187 181.686088 706.912088 181.686088 711.135989 181.686088 715.359890 181.686088 719.583791 181.686088 723.807692 181.686088"/></g></g><g class="titles"><text class="title plot_title" x="400.0" y="26">KD Mills: Future and Past Averages in ODIs</text></g><g class="plot overlay" transform="translate(42, 46)"><g class="series serie-0 color-0"><g class="dots"><desc class="label">240 wickets in 169 innings (1371.4 overs)</desc><circle class="dot reactive tooltip-trigger" cx="14.192307692307692" cy="181.68608780901957" r="2.5"/><desc class="value">27.02</desc><desc class="x ">14.192307692307692</desc><desc class="y ">181.68608780901957</desc><desc class="x_label">2001</desc></g><g class="dots"><desc class="label">230 wickets in 161 innings (1318.2 overs)</desc><circle class="dot reactive tooltip-trigger" cx="47.98351648351648" cy="179.8777062312164" r="2.5"/><desc class="value">27.2</desc><desc class="x ">47.98351648351648</desc><desc class="y ">179.8777062312164</desc><desc class="x_label">2002</desc></g><g class="dots"><desc class="label">223 wickets in 157 innings (1286.4 overs)</desc><circle class="dot reactive tooltip-trigger" cx="64.87912087912088" cy="176.9642025780891" r="2.5"/><desc class="value">27.49</desc><desc class="x ">64.87912087912088</desc><desc class="y ">176.9642025780891</desc><desc class="x_label">2003</desc></g><g class="dots"><desc class="label">211 wickets in 145 innings (1183.4 overs)</desc><circle class="dot reactive tooltip-trigger" cx="115.56593406593406" cy="181.88701909544216" r="2.5"/><desc class="value">27</desc><desc class="x ">115.56593406593406</desc><desc class="y ">181.88701909544216</desc><desc class="x_label">2004</desc></g><g class="dots"><desc class="label">193 wickets in 130 innings (1065.5 overs)</desc><circle class="dot reactive tooltip-trigger" cx="178.92445054945057" cy="188.01542333133062" r="2.5"/><desc class="value">26.39</desc><desc class="x ">178.92445054945057</desc><desc class="y ">188.01542333133062</desc><desc class="x_label">2005</desc></g><g class="dots"><desc class="label">168 wickets in 112 innings (901.2 overs)</desc><circle class="dot reactive tooltip-trigger" cx="254.95467032967034" cy="196.55500300429003" r="2.5"/><desc class="value">25.54</desc><desc class="x ">254.95467032967034</desc><desc class="y ">196.55500300429003</desc><desc class="x_label">2006</desc></g><g class="dots"><desc class="label">152 wickets in 105 innings (843.5 overs)</desc><circle class="dot reactive tooltip-trigger" cx="284.52197802197804" cy="185.70471353747104" r="2.5"/><desc class="value">26.62</desc><desc class="x ">284.52197802197804</desc><desc class="y ">185.70471353747104</desc><desc class="x_label">2007</desc></g><g class="dots"><desc class="label">130 wickets in 96 innings (757.0 overs)</desc><circle class="dot reactive tooltip-trigger" cx="322.5370879120879" cy="172.44324863358116" r="2.5"/><desc class="value">27.94</desc><desc class="x ">322.5370879120879</desc><desc class="y ">172.44324863358116</desc><desc class="x_label">2008</desc></g><g class="dots"><desc class="label">110 wickets in 82 innings (640.2 overs)</desc><circle class="dot reactive tooltip-trigger" cx="381.67170329670336" cy="169.42927933724258" r="2.5"/><desc class="value">28.24</desc><desc class="x left">381.67170329670336</desc><desc class="y left">169.42927933724258</desc><desc class="x_label">2009</desc></g><g class="dots"><desc class="label">78 wickets in 60 innings (457.4 overs)</desc><circle class="dot reactive tooltip-trigger" cx="474.5975274725275" cy="169.931607553299" r="2.5"/><desc class="value">28.19</desc><desc class="x left">474.5975274725275</desc><desc class="y left">169.931607553299</desc><desc class="x_label">2010</desc></g><g class="dots"><desc class="label">59 wickets in 47 innings (364.0 overs)</desc><circle class="dot reactive tooltip-trigger" cx="529.5082417582418" cy="164.70739410631205" r="2.5"/><desc class="value">28.71</desc><desc class="x left">529.5082417582418</desc><desc class="y left">164.70739410631205</desc><desc class="x_label">2011</desc></g><g class="dots"><desc class="label">48 wickets in 40 innings (305.2 overs)</desc><circle class="dot reactive tooltip-trigger" cx="559.0755494505495" cy="147.92963169002718" r="2.5"/><desc class="value">30.38</desc><desc class="x left">559.0755494505495</desc><desc class="y left">147.92963169002718</desc><desc class="x_label">2012</desc></g><g class="dots"><desc class="label">33 wickets in 29 innings (224.5 overs)</desc><circle class="dot reactive tooltip-trigger" cx="605.5384615384615" cy="121.60763316867002" r="2.5"/><desc class="value">33</desc><desc class="x left">605.5384615384615</desc><desc class="y left">121.60763316867002</desc><desc class="x_label">2013</desc></g><g class="dots"><desc class="label">10 wickets in 11 innings (83.1 overs)</desc><circle class="dot reactive tooltip-trigger" cx="681.5686813186812" cy="42.239775031753425" r="2.5"/><desc class="value">40.9</desc><desc class="x left">681.5686813186812</desc><desc class="y left">42.239775031753425</desc><desc class="x_label">2014</desc></g><g class="dots"><desc class="label">3 wickets in 3 innings (24.0 overs)</desc><circle class="dot reactive tooltip-trigger" cx="715.3598901098901" cy="118.29226694269761" r="2.5"/><desc class="value">33.33</desc><desc class="x left">715.3598901098901</desc><desc class="y left">118.29226694269761</desc><desc class="x_label">2015</desc></g></g><g class="series serie-1 color-1"><g class="dots"><desc class="label">0 wickets over 0 innings</desc><circle class="dot reactive tooltip-trigger" cx="14.192307692307692" cy="453.1442557659166" r="2.5"/><desc class="value">0</desc><desc class="x top">14.192307692307692</desc><desc class="y top">453.1442557659166</desc><desc class="x_label">2001</desc></g><g class="dots"><desc class="label">10 wickets in 8 innings (53.2 overs)</desc><circle class="dot reactive tooltip-trigger" cx="47.98351648351648" cy="224.0825892441826" r="2.5"/><desc class="value">22.8</desc><desc class="x ">47.98351648351648</desc><desc class="y ">224.0825892441826</desc><desc class="x_label">2002</desc></g><g class="dots"><desc class="label">17 wickets in 12 innings (85.0 overs)</desc><circle class="dot reactive tooltip-trigger" cx="64.87912087912088" cy="243.3719927407497" r="2.5"/><desc class="value">20.88</desc><desc class="x top">64.87912087912088</desc><desc class="y top">243.3719927407497</desc><desc class="x_label">2003</desc></g><g class="dots"><desc class="label">29 wickets in 24 innings (188.0 overs)</desc><circle class="dot reactive tooltip-trigger" cx="115.56593406593406" cy="180.17910316085022" r="2.5"/><desc class="value">27.17</desc><desc class="x ">115.56593406593406</desc><desc class="y ">180.17910316085022</desc><desc class="x_label">2004</desc></g><g class="dots"><desc class="label">47 wickets in 39 innings (305.5 overs)</desc><circle class="dot reactive tooltip-trigger" cx="178.92445054945057" cy="155.76595186050753" r="2.5"/><desc class="value">29.6</desc><desc class="x ">178.92445054945057</desc><desc class="y ">155.76595186050753</desc><desc class="x_label">2005</desc></g><g class="dots"><desc class="label">72 wickets in 57 innings (470.2 overs)</desc><circle class="dot reactive tooltip-trigger" cx="254.95467032967034" cy="146.82450961470306" r="2.5"/><desc class="value">30.49</desc><desc class="x ">254.95467032967034</desc><desc class="y ">146.82450961470306</desc><desc class="x_label">2006</desc></g><g class="dots"><desc class="label">88 wickets in 64 innings (527.5 overs)</desc><circle class="dot reactive tooltip-trigger" cx="284.52197802197804" cy="174.6534927842295" r="2.5"/><desc class="value">27.72</desc><desc class="x ">284.52197802197804</desc><desc class="y ">174.6534927842295</desc><desc class="x_label">2007</desc></g><g class="dots"><desc class="label">110 wickets in 73 innings (614.4 overs)</desc><circle class="dot reactive tooltip-trigger" cx="322.5370879120879" cy="192.53637727583856" r="2.5"/><desc class="value">25.94</desc><desc class="x ">322.5370879120879</desc><desc class="y ">192.53637727583856</desc><desc class="x_label">2008</desc></g><g class="dots"><desc class="label">130 wickets in 87 innings (731.2 overs)</desc><circle class="dot reactive tooltip-trigger" cx="381.67170329670336" cy="192.0340490597821" r="2.5"/><desc class="value">25.99</desc><desc class="x left">381.67170329670336</desc><desc class="y left">192.0340490597821</desc><desc class="x_label">2009</desc></g><g class="dots"><desc class="label">162 wickets in 109 innings (914.0 overs)</desc><circle class="dot reactive tooltip-trigger" cx="474.5975274725275" cy="187.31216382885162" r="2.5"/><desc class="value">26.46</desc><desc class="x left">474.5975274725275</desc><desc class="y left">187.31216382885162</desc><desc class="x_label">2010</desc></g><g class="dots"><desc class="label">181 wickets in 122 innings (1007.4 overs)</desc><circle class="dot reactive tooltip-trigger" cx="529.5082417582418" cy="187.21169818564033" r="2.5"/><desc class="value">26.47</desc><desc class="x left">529.5082417582418</desc><desc class="y left">187.21169818564033</desc><desc class="x_label">2011</desc></g><g class="dots"><desc class="label">192 wickets in 129 innings (1066.2 overs)</desc><circle class="dot reactive tooltip-trigger" cx="559.0755494505495" cy="190.12520183876768" r="2.5"/><desc class="value">26.18</desc><desc class="x left">559.0755494505495</desc><desc class="y left">190.12520183876768</desc><desc class="x_label">2012</desc></g><g class="dots"><desc class="label">207 wickets in 140 innings (1146.5 overs)</desc><circle class="dot reactive tooltip-trigger" cx="605.5384615384615" cy="191.2303239140918" r="2.5"/><desc class="value">26.07</desc><desc class="x left">605.5384615384615</desc><desc class="y left">191.2303239140918</desc><desc class="x_label">2013</desc></g><g class="dots"><desc class="label">230 wickets in 158 innings (1288.3 overs)</desc><circle class="dot reactive tooltip-trigger" cx="681.5686813186812" cy="187.7140264016968" r="2.5"/><desc class="value">26.42</desc><desc class="x left">681.5686813186812</desc><desc class="y left">187.7140264016968</desc><desc class="x_label">2014</desc></g><g class="dots"><desc class="label">237 wickets in 166 innings (1347.4 overs)</desc><circle class="dot reactive tooltip-trigger" cx="715.3598901098901" cy="182.48981295470986" r="2.5"/><desc class="value">26.94</desc><desc class="x left">715.3598901098901</desc><desc class="y left">182.48981295470986</desc><desc class="x_label">2015</desc></g></g><g class="series serie-2 color-2"/></g><g class="plot text-overlay" transform="translate(42, 46)"><g class="series serie-0 color-0"/><g class="series serie-1 color-1"/><g class="series serie-2 color-2"/></g><g class="plot tooltip-overlay" transform="translate(42, 46)"><g class="tooltip" style="opacity: 0" transform="translate(0 0)"><rect class="tooltip-box" height="0" rx="10" ry="10" width="0"/><g class="text"/></g></g><g class="legends" transform="translate(52, 545)"><g class="legend reactive activate-serie" id="activate-serie-0"><rect class="color-0 reactive" height="12" width="12" x="0.0" y="1.0"/><text x="17.0" y="11.2">Future Average</text></g><g class="legend reactive activate-serie" id="activate-serie-1"><rect class="color-1 reactive" height="12" width="12" x="369.0" y="1.0"/><text x="386.0" y="11.2">Past Average</text></g><g class="legend reactive activate-serie" id="activate-serie-2"><rect class="color-2 reactive" height="12" width="12" x="0.0" y="22.0"/><text x="17.0" y="32.2">Career Average</text></g></g></g></svg>