<?xml version='1.0' encoding='utf-8'?>
<svg xmlns:xlink="http://www.w3.org/1999/xlink" xmlns="http://www.w3.org/2000/svg" id="chart-1597ce5d-9940-4fc8-8ebe-d9d9945417e5" class="pygal-chart" viewBox="0 0 800 600"><!--Generated with pygal 2.4.0 (lxml) ©Kozea 2012-2016 on 2019-08-04--><!--http://pygal.org--><!--http://github.com/Kozea/pygal--><defs><style type="text/css">#chart-1597ce5d-9940-4fc8-8ebe-d9d9945417e5{-webkit-user-select:none;-webkit-font-smoothing:antialiased;font-family:Consolas,"Liberation Mono",Menlo,Courier,monospace}#chart-1597ce5d-9940-4fc8-8ebe-d9d9945417e5 .title{font-family:Consolas,"Liberation Mono",Menlo,Courier,monospace;font-size:16px}#chart-1597ce5d-9940-4fc8-8ebe-d9d9945417e5 .legends .legend text{font-family:Consolas,"Liberation Mono",Menlo,Courier,monospace;font-size:14px}#chart-1597ce5d-9940-4fc8-8ebe-d9d9945417e5 .axis text{font-family:Consolas,"Liberation Mono",Menlo,Courier,monospace;font-size:10px}#chart-1597ce5d-9940-4fc8-8ebe-d9d9945417e5 .axis text.major{font-family:Consolas,"Liberation Mono",Menlo,Courier,monospace;font-size:10px}#chart-1597ce5d-9940-4fc8-8ebe-d9d9945417e5 .text-overlay text.value{font-family:Consolas,"Liberation Mono",Menlo,Courier,monospace;font-size:16px}#chart-1597ce5d-9940-4fc8-8ebe-d9d9945417e5 .text-overlay text.label{font-family:Consolas,"Liberation Mono",Menlo,Courier,monospace;font-size:10px}#chart-1597ce5d-9940-4fc8-8ebe-d9d9945417e5 .tooltip{font-family:Consolas,"Liberation Mono",Menlo,Courier,monospace;font-size:14px}#chart-1597ce5d-9940-4fc8-8ebe-d9d9945417e5 text.no_data{font-family:Consolas,"Liberation Mono",Menlo,Courier,monospace;font-size:64px}
#chart-1597ce5d-9940-4fc8-8ebe-d9d9945417e5{background-color:rgba(249,249,249,1)}#chart-1597ce5d-9940-4fc8-8ebe-d9d9945417e5 path,#chart-1597ce5d-9940-4fc8-8ebe-d9d9945417e5 line,#chart-1597ce5d-9940-4fc8-8ebe-d9d9945417e5 rect,#chart-1597ce5d-9940-4fc8-8ebe-d9d9945417e5 circle{-webkit-transition:150ms;-moz-transition:150ms;transition:150ms}#chart-1597ce5d-9940-4fc8-8ebe-d9d9945417e5 .graph &gt; .background{fill:rgba(249,249,249,1)}#chart-1597ce5d-9940-4fc8-8ebe-d9d9945417e5 .plot &gt; .background{fill:rgba(255,255,255,1)}#chart-1597ce5d-9940-4fc8-8ebe-d9d9945417e5 .graph{fill:rgba(0,0,0,.87)}#chart-1597ce5d-9940-4fc8-8ebe-d9d9945417e5 text.no_data{fill:rgba(0,0,0,1)}#chart-1597ce5d-9940-4fc8-8ebe-d9d9945417e5 .title{fill:rgba(0,0,0,1)}#chart-1597ce5d-9940-4fc8-8ebe-d9d9945417e5 .legends .legend text{fill:rgba(0,0,0,.87)}#chart-1597ce5d-9940-4fc8-8ebe-d9d9945417e5 .legends .legend:hover text{fill:rgba(0,0,0,1)}#chart-1597ce5d-9940-4fc8-8ebe-d9d9945417e5 .axis .line{stroke:rgba(0,0,0,1)}#chart-1597ce5d-9940-4fc8-8ebe-d9d9945417e5 .axis .guide.line{stroke:rgba(0,0,0,.54)}#chart-1597ce5d-9940-4fc8-8ebe-d9d9945417e5 .axis .major.line{stroke:rgba(0,0,0,.87)}#chart-1597ce5d-9940-4fc8-8ebe-d9d9945417e5 .axis text.major{fill:rgba(0,0,0,1)}#chart-1597ce5d-9940-4fc8-8ebe-d9d9945417e5 .axis.y .guides:hover .guide.line,#chart-1597ce5d-9940-4fc8-8ebe-d9d9945417e5 .line-graph .axis.x .guides:hover .guide.line,#chart-1597ce5d-9940-4fc8-8ebe-d9d9945417e5 .stackedline-graph .axis.x .guides:hover .guide.line,#chart-1597ce5d-9940-4fc8-8ebe-d9d9945417e5 .xy-graph .axis.x .guides:hover .guide.line{stroke:rgba(0,0,0,1)}#chart-1597ce5d-9940-4fc8-8ebe-d9d9945417e5 .axis .guides:hover text{fill:rgba(0,0,0,1)}#chart-1597ce5d-9940-4fc8-8ebe-d9d9945417e5 .reactive{fill-opacity:.7;stroke-opacity:.8}#chart-1597ce5d-9940-4fc8-8ebe-d9d9945417e5 .ci{stroke:rgba(0,0,0,.87)}#chart-1597ce5d-9940-4fc8-8ebe-d9d9945417e5 .reactive.active,#chart-1597ce5d-9940-4fc8-8ebe-d9d9945417e5 .active .reactive{fill-opacity:.8;stroke-opacity:.9;stroke-width:4}#chart-1597ce5d-9940-4fc8-8ebe-d9d9945417e5 .ci .reactive.active{stroke-width:1.5}#chart-1597ce5d-9940-4fc8-8ebe-d9d9945417e5 .series text{fill:rgba(0,0,0,1)}#chart-1597ce5d-9940-4fc8-8ebe-d9d9945417e5 .tooltip rect{fill:rgba(255,255,255,1);stroke:rgba(0,0,0,1);-webkit-transition:opacity 150ms;-moz-transition:opacity 150ms;transition:opacity 150ms}#chart-1597ce5d-9940-4fc8-8ebe-d9d9945417e5 .tooltip .label{fill:rgba(0,0,0,.87)}#chart-1597ce5d-9940-4fc8-8ebe-d9d9945417e5 .tooltip .label{fill:rgba(0,0,0,.87)}#chart-1597ce5d-9940-4fc8-8ebe-d9d9945417e5 .tooltip .legend{font-size:.8em;fill:rgba(0,0,0,.54)}#chart-1597ce5d-9940-4fc8-8ebe-d9d9945417e5 .tooltip .x_label{font-size:.6em;fill:rgba(0,0,0,1)}#chart-1597ce5d-9940-4fc8-8ebe-d9d9945417e5 .tooltip .xlink{font-size:.5em;text-decoration:underline}#chart-1597ce5d-9940-4fc8-8ebe-d9d9945417e5 .tooltip .value{font-size:1.5em}#chart-1597ce5d-9940-4fc8-8ebe-d9d9945417e5 .bound{font-size:.5em}#chart-1597ce5d-9940-4fc8-8ebe-d9d9945417e5 .max-value{font-size:.75em;fill:rgba(0,0,0,.54)}#chart-1597ce5d-9940-4fc8-8ebe-d9d9945417e5 .map-element{fill:rgba(255,255,255,1);stroke:rgba(0,0,0,.54) !important}#chart-1597ce5d-9940-4fc8-8ebe-d9d9945417e5 .map-element .reactive{fill-opacity:inherit;stroke-opacity:inherit}#chart-1597ce5d-9940-4fc8-8ebe-d9d9945417e5 .color-0,#chart-1597ce5d-9940-4fc8-8ebe-d9d9945417e5 .color-0 a:visited{stroke:red;fill:red}#chart-1597ce5d-9940-4fc8-8ebe-d9d9945417e5 .color-1,#chart-1597ce5d-9940-4fc8-8ebe-d9d9945417e5 .color-1 a:visited{stroke:blue;fill:blue}#chart-1597ce5d-9940-4fc8-8ebe-d9d9945417e5 .color-2,#chart-1597ce5d-9940-4fc8-8ebe-d9d9945417e5 .color-2 a:visited{stroke:green;fill:green}#chart-1597ce5d-9940-4fc8-8ebe-d9d9945417e5 .text-overlay .color-0 text{fill:white}#chart-1597ce5d-9940-4fc8-8ebe-d9d9945417e5 .text-overlay .color-1 text{fill:white}#chart-1597ce5d-9940-4fc8-8ebe-d9d9945417e5 .text-overlay .color-2 text{fill:white}
#chart-1597ce5d-9940-4fc8-8ebe-d9d9945417e5 text.no_data{text-anchor:middle}#chart-1597ce5d-9940-4fc8-8ebe-d9d9945417e5 .guide.line{fill:none}#chart-1597ce5d-9940-4fc8-8ebe-d9d9945417e5 .centered{text-anchor:middle}#chart-1597ce5d-9940-4fc8-8ebe-d9d9945417e5 .title{text-anchor:middle}#chart-1597ce5d-9940-4fc8-8ebe-d9d9945417e5 .legends .legend text{fill-opacity:1}#chart-1597ce5d-9940-4fc8-8ebe-d9d9945417e5 .axis.x text{text-anchor:middle}#chart-1597ce5d-9940-4fc8-8ebe-d9d9945417e5 .axis.x:not(.web) text[transform]{text-anchor:start}#chart-1597ce5d-9940-4fc8-8ebe-d9d9945417e5 .axis.x:not(.web) text[transform].backwards{text-anchor:end}#chart-1597ce5d-9940-4fc8-8ebe-d9d9945417e5 .axis.y text{text-anchor:end}#chart-1597ce5d-9940-4fc8-8ebe-d9d9945417e5 .axis.y text[transform].backwards{text-anchor:start}#chart-1597ce5d-9940-4fc8-8ebe-d9d9945417e5 .axis.y2 text{text-anchor:start}#chart-1597ce5d-9940-4fc8-8ebe-d9d9945417e5 .axis.y2 text[transform].backwards{text-anchor:end}#chart-1597ce5d-9940-4fc8-8ebe-d9d9945417e5 .axis .guide.line{stroke-dasharray:4,4}#chart-1597ce5d-9940-4fc8-8ebe-d9d9945417e5 .axis .major.guide.line{stroke-dasharray:6,6}#chart-1597ce5d-9940-4fc8-8ebe-d9d9945417e5 .horizontal .axis.y .guide.line,#chart-1597ce5d-9940-4fc8-8ebe-d9d9945417e5 .horizontal .axis.y2 .guide.line,#chart-1597ce5d-9940-4fc8-8ebe-d9d9945417e5 .vertical .axis.x .guide.line{opacity:0}#chart-1597ce5d-9940-4fc8-8ebe-d9d9945417e5 .horizontal .axis.always_show .guide.line,#chart-1597ce5d-9940-4fc8-8ebe-d9d9945417e5 .vertical .axis.always_show .guide.line{opacity:1 !important}#chart-1597ce5d-9940-4fc8-8ebe-d9d9945417e5 .axis.y .guides:hover .guide.line,#chart-1597ce5d-9940-4fc8-8ebe-d9d9945417e5 .axis.y2 .guides:hover .guide.line,#chart-1597ce5d-9940-4fc8-8ebe-d9d9945417e5 .axis.x .guides:hover .guide.line{opacity:1}#chart-1597ce5d-9940-4fc8-8ebe-d9d9945417e5 .axis .guides:hover text{opacity:1}#chart-1597ce5d-9940-4fc8-8ebe-d9d9945417e5 .nofill{fill:none}#chart-1597ce5d-9940-4fc8-8ebe-d9d9945417e5 .subtle-fill{fill-opacity:.2}#chart-1597ce5d-9940-4fc8-8ebe-d9d9945417e5 .dot{stroke-width:1px;fill-opacity:1}#chart-1597ce5d-9940-4fc8-8ebe-d9d9945417e5 .dot.active{stroke-width:5px}#chart-1597ce5d-9940-4fc8-8ebe-d9d9945417e5 .dot.negative{fill:transparent}#chart-1597ce5d-9940-4fc8-8ebe-d9d9945417e5 text,#chart-1597ce5d-9940-4fc8-8ebe-d9d9945417e5 tspan{stroke:none !important}#chart-1597ce5d-9940-4fc8-8ebe-d9d9945417e5 .series text.active{opacity:1}#chart-1597ce5d-9940-4fc8-8ebe-d9d9945417e5 .tooltip rect{fill-opacity:.95;stroke-width:.5}#chart-1597ce5d-9940-4fc8-8ebe-d9d9945417e5 .tooltip text{fill-opacity:1}#chart-1597ce5d-9940-4fc8-8ebe-d9d9945417e5 .showable{visibility:hidden}#chart-1597ce5d-9940-4fc8-8ebe-d9d9945417e5 .showable.shown{visibility:visible}#chart-1597ce5d-9940-4fc8-8ebe-d9d9945417e5 .gauge-background{fill:rgba(229,229,229,1);stroke:none}#chart-1597ce5d-9940-4fc8-8ebe-d9d9945417e5 .bg-lines{stroke:rgba(249,249,249,1);stroke-width:2px}</style><script type="text/javascript">window.pygal = window.pygal || {};window.pygal.config = window.pygal.config || {};window.pygal.config['1597ce5d-9940-4fc8-8ebe-d9d9945417e5'] = {"allow_interruptions": false, "box_mode": "extremes", "classes": ["pygal-chart"], "css": ["file://style.css", "file://graph.css"], "defs": [], "disable_xml_declaration": false, "dots_size": 2.5, "dynamic_print_values": false, "explicit_size": false, "fill": false, "force_uri_protocol": "https", "formatter": null, "half_pie": false, "height": 600, "include_x_axis": false, "inner_radius": 0, "interpolate": null, "interpolation_parameters": {}, "interpolation_precision": 250, "inverse_y_axis": false, "js": ["//kozea.github.io/pygal.js/2.0.x/pygal-tooltips.min.js"], "legend_at_bottom": true, "legend_at_bottom_columns": null, "legend_box_size": 12, "logarithmic": false, "margin": 20, "margin_bottom": null, "margin_left": null, "margin_right": null, "margin_top": null, "max_scale": 16, "min_scale": 4, "missing_value_fill_truncation": "x", "no_data_text": "No data", "no_prefix": false, "order_min": null, "pretty_print": false, "print_labels": false, "print_values": false, "print_values_position": "center", "print_zeroes": true, "range": null, "rounded_bars": null, "secondary_range": null, "show_dots": true, "show_legend": true, "show_minor_x_labels": false, "show_minor_y_labels": true, "show_only_major_dots": false, "show_x_guides": false, "show_x_labels": true, "show_y_guides": true, "show_y_labels": true, "spacing": 10, "stack_from_top": false, "strict": false, "stroke": true, "stroke_style": null, "style": {"background": "rgba(249, 249, 249, 1)", "ci_colors": [], "colors": ["red", "blue", "green", "#a3a3a3"], "font_family": "Consolas, \"Liberation Mono\", Menlo, Courier, monospace", "foreground": "rgba(0, 0, 0, .87)", "foreground_strong": "rgba(0, 0, 0, 1)", "foreground_subtle": "rgba(0, 0, 0, .54)", "guide_stroke_dasharray": "4,4", "label_font_family": "Consolas, \"Liberation Mono\", Menlo, Courier, monospace", "label_font_size": 10, "legend_font_family": "Consolas, \"Liberation Mono\", Menlo, Courier, monospace", "legend_font_size": 14, "major_guide_stroke_dasharray": "6,6", "major_label_font_family": "Consolas, \"Liberation Mono\", Menlo, Courier, monospace", "major_label_font_size": 10, "no_data_font_family": "Consolas, \"Liberation Mono\", Menlo, Courier, monospace", "no_data_font_size": 64, "opacity": ".7", "opacity_hover": ".8", "plot_background": "rgba(255, 255, 255, 1)", "stroke_opacity": ".8", "stroke_opacity_hover": ".9", "title_font_family": "Consolas, \"Liberation Mono\", Menlo, Courier, monospace", "title_font_size": 16, "tooltip_font_family": "Consolas, \"Liberation Mono\", Menlo, Courier, monospace", "tooltip_font_size": 14, "transition": "150ms", "value_background": "rgba(229, 229, 229, 1)", "value_colors": [], "value_font_family": "Consolas, \"Liberation Mono\", Menlo, Courier, monospace", "value_font_size": 16, "value_label_font_family": "Consolas, \"Liberation Mono\", Menlo, Courier, monospace", "value_label_font_size": 10}, "title": "KJ O'Brien: Future and Past Averages in ODIs", "tooltip_border_radius": 10, "tooltip_fancy_mode": true, "truncate_label": null, "truncate_legend": null, "width": 800, "x_label_rotation": 45, "x_labels": ["2007", "0", "0", "0", "0", "0", "0", "0", "0", "0", "0", "0", "0", "0", "0", "0", "2008", "0", "0", "0", "0", "2009", "0", "0", "0", "0", "0", "0", "2010", "0", "0", "0", "0", "0", "0", "0", "0", "0", "0", "0", "0", "0", "0", "0", "0", "2011", "0", "0", "0", "0", "0", "0", "0", "0", "2012", "2013", "0", "0", "0", "0", "0", "0", "2014", "0", "0", "0", "0", "2015", "0", "0", "0", "0", "0", "0", "0", "0", "0", "0", "0", "2016", "0", "0", "0", "0", "0", "0", "0", "0", "2017", "0", "0", "0", "0", "0", "0", "0", "0", "0", "2018", "0", "0", "0", "0", "0", "0", "0", "0", "2019", "0", "0", "0", "0", "0"], "x_labels_major": ["2007", "2008", "2009", "2010", "2011", "2012", "2013", "2014", "2015", "2016", "2017", "2018", "2019"], "x_labels_major_count": null, "x_labels_major_every": null, "x_title": null, "xrange": null, "y_label_rotation": 0, "y_labels": null, "y_labels_major": null, "y_labels_major_count": null, "y_labels_major_every": null, "y_title": null, "zero": 100.0, "legends": ["Future Average", "Past Average", "Career Average"]}</script><script type="text/javascript" xlink:href="https://kozea.github.io/pygal.js/2.0.x/pygal-tooltips.min.js"/></defs><title>KJ O'Brien: Future and Past Averages in ODIs</title><g class="graph line-graph vertical"><rect class="background" height="600" width="800" x="0" y="0"/><g class="plot" transform="translate(42, 46)"><rect class="background" height="462.02943725152284" width="738.0" x="0" y="0"/><g class="axis y always_show"><g class="guides"><path class="axis major line" d="M0.000000 453.144256 h738.000000"/><text class="major" x="-5" y="456.6442557659166">0</text><title>0</title></g><g class="guides"><path class="guide line" d="M0.000000 408.269602 h738.000000"/><text class="" x="-5" y="411.7696017982085">10</text><title>10</title></g><g class="guides"><path class="guide line" d="M0.000000 363.394948 h738.000000"/><text class="" x="-5" y="366.89494783050037">20</text><title>20</title></g><g class="guides"><path class="guide line" d="M0.000000 318.520294 h738.000000"/><text class="" x="-5" y="322.0202938627923">30</text><title>30</title></g><g class="guides"><path class="guide line" d="M0.000000 273.645640 h738.000000"/><text class="" x="-5" y="277.1456398950842">40</text><title>40</title></g><g class="guides"><path class="major guide line" d="M0.000000 228.770986 h738.000000"/><text class="major" x="-5" y="232.27098592737605">50</text><title>50</title></g><g class="guides"><path class="guide line" d="M0.000000 183.896332 h738.000000"/><text class="" x="-5" y="187.39633195966792">60</text><title>60</title></g><g class="guides"><path class="guide line" d="M0.000000 139.021678 h738.000000"/><text class="" x="-5" y="142.5216779919598">70</text><title>70</title></g><g class="guides"><path class="guide line" d="M0.000000 94.147024 h738.000000"/><text class="" x="-5" y="97.64702402425166">80</text><title>80</title></g><g class="guides"><path class="guide line" d="M0.000000 49.272370 h738.000000"/><text class="" x="-5" y="52.77237005654354">90</text><title>90</title></g></g><g class="axis x"><g class="guides"><path class="major line" d="M14.192308 0.000000 v462.029437"/><text class="major" x="14.192307692307692" y="477.02943725152284" transform="rotate(45 14.192308 477.029437)">2007</text></g><g class="guides"><path class="major guide line" d="M115.565934 0.000000 v462.029437"/><text class="major" x="115.56593406593406" y="477.02943725152284" transform="rotate(45 115.565934 477.029437)">2008</text></g><g class="guides"><path class="major guide line" d="M147.245192 0.000000 v462.029437"/><text class="major" x="147.2451923076923" y="477.02943725152284" transform="rotate(45 147.245192 477.029437)">2009</text></g><g class="guides"><path class="major guide line" d="M191.596154 0.000000 v462.029437"/><text class="major" x="191.59615384615387" y="477.02943725152284" transform="rotate(45 191.596154 477.029437)">2010</text></g><g class="guides"><path class="major guide line" d="M299.305632 0.000000 v462.029437"/><text class="major" x="299.30563186813185" y="477.02943725152284" transform="rotate(45 299.305632 477.029437)">2011</text></g><g class="guides"><path class="major guide line" d="M356.328297 0.000000 v462.029437"/><text class="major" x="356.32829670329664" y="477.02943725152284" transform="rotate(45 356.328297 477.029437)">2012</text></g><g class="guides"><path class="major guide line" d="M362.664148 0.000000 v462.029437"/><text class="major" x="362.66414835164835" y="477.02943725152284" transform="rotate(45 362.664148 477.029437)">2013</text></g><g class="guides"><path class="major guide line" d="M407.015110 0.000000 v462.029437"/><text class="major" x="407.0151098901099" y="477.02943725152284" transform="rotate(45 407.015110 477.029437)">2014</text></g><g class="guides"><path class="major guide line" d="M438.694368 0.000000 v462.029437"/><text class="major" x="438.69436813186815" y="477.02943725152284" transform="rotate(45 438.694368 477.029437)">2015</text></g><g class="guides"><path class="major guide line" d="M514.724588 0.000000 v462.029437"/><text class="major" x="514.7245879120879" y="477.02943725152284" transform="rotate(45 514.724588 477.029437)">2016</text></g><g class="guides"><path class="major guide line" d="M571.747253 0.000000 v462.029437"/><text class="major" x="571.7472527472528" y="477.02943725152284" transform="rotate(45 571.747253 477.029437)">2017</text></g><g class="guides"><path class="major guide line" d="M635.105769 0.000000 v462.029437"/><text class="major" x="635.1057692307692" y="477.02943725152284" transform="rotate(45 635.105769 477.029437)">2018</text></g><g class="guides"><path class="major guide line" d="M692.128434 0.000000 v462.029437"/><text class="major" x="692.128434065934" y="477.02943725152284" transform="rotate(45 692.128434 477.029437)">2019</text></g></g><g class="series serie-0 color-0"><path class="line reactive nofill" d="M14.192308 307.301630 L20.528159 307.885001 26.864011 309.994110 33.199863 308.917118 39.535714 309.949235 45.871566 310.038984 52.207418 309.814611 58.543269 308.782494 64.879121 308.647870 71.214973 309.186366 77.550824 308.961993 83.886676 309.814611 90.222527 309.994110 96.558379 311.071101 102.894231 311.699346 109.230082 311.160851 115.565934 311.654472 121.901786 312.955837 128.237637 313.449458 134.573489 313.269959 140.909341 310.353107 147.245192 312.327592 153.581044 312.731464 159.916896 313.898205 166.252747 314.571324 172.588599 313.763581 178.924451 313.808455 185.260302 314.391826 191.596154 315.468817 197.932005 316.231687 204.267857 313.898205 210.603709 313.628957 216.939560 313.853330 223.275412 313.494333 229.611264 311.340349 235.947115 311.250600 242.282967 310.353107 248.618819 311.026227 254.954670 311.295475 261.290522 306.942633 267.626374 307.840126 273.962225 306.404137 280.298077 305.865641 286.633929 307.570878 292.969780 305.596394 299.305632 301.019179 305.641484 301.512800 311.977335 301.737173 318.313187 297.384332 324.649038 299.628065 330.984890 300.435808 337.320742 300.301184 343.656593 301.692299 349.992445 299.672939 356.328297 300.211435 362.664148 300.929430 369.000000 299.134443 375.335852 299.448566 381.671703 289.710766 388.007555 284.954053 394.343407 288.364526 400.679258 289.845390 407.015110 282.979568 413.350962 284.550181 419.686813 282.082075 426.022665 282.800069 432.358516 282.261573 438.694368 283.607813 445.030220 282.620571 451.366071 285.223301 457.701923 278.940849 464.037775 282.216699 470.373626 280.601211 476.709478 286.793914 483.045330 288.588900 489.381181 293.435362 495.717033 299.089569 502.052885 301.826923 508.388736 299.224193 514.724588 296.711212 521.060440 298.147201 527.396291 308.513246 533.732143 296.352215 540.067995 284.056560 546.403846 290.473635 552.739698 281.184582 559.075549 291.416003 565.411401 290.249262 571.747253 296.082967 578.083104 297.070209 584.418956 284.191184 590.754808 249.233828 597.090659 269.158174 603.426511 272.523774 609.762363 274.229010 616.098214 268.529929 622.434066 271.581406 628.769918 278.492103 635.105769 286.434916 641.441621 272.030152 647.777473 194.800873 654.113324 191.390399 660.449176 188.383797 666.785027 91.140422 673.120879 189.864661 679.456731 107.609420 685.792582 134.534213 692.128434 17.860112 698.464286 49.272370 704.800137 94.147024 711.135989 188.383797 717.471841 237.745917 723.807692 340.957621"/></g><g class="series serie-1 color-1"><path class="line reactive nofill" d="M14.192308 453.144256 L20.528159 242.233382 26.864011 8.885181 33.199863 248.201711 39.535714 210.821124 45.871566 233.258451 52.207418 263.189846 58.543269 285.178426 64.879121 289.890265 71.214973 282.620571 77.550824 288.588900 83.886676 278.626726 90.222527 276.652242 96.558379 264.177088 102.894231 256.683021 109.230082 267.811935 115.565934 262.875723 121.901786 249.413327 128.237637 244.028368 134.573489 257.176642 140.909341 287.422159 147.245192 274.543133 153.581044 274.498258 159.916896 267.452938 166.252747 263.279595 172.588599 270.998035 178.924451 273.152019 185.260302 269.921044 191.596154 264.401461 197.932005 260.183244 204.267857 278.581852 210.603709 281.184582 216.939560 281.857702 223.275412 284.505306 229.611264 293.839234 235.947115 294.736727 242.282967 298.551073 248.618819 297.115084 254.954670 296.800961 261.290522 308.243998 267.626374 306.134889 273.962225 309.276115 280.298077 310.263358 286.633929 306.808009 292.969780 310.442856 299.305632 317.577926 305.641484 316.725308 311.977335 316.411185 318.313187 321.302522 324.649038 318.116422 330.984890 316.994556 337.320742 316.815057 343.656593 314.975196 349.992445 317.308678 356.328297 316.590684 362.664148 315.693191 369.000000 317.308678 375.335852 316.545809 381.671703 325.251492 388.007555 327.809347 394.343407 324.668121 400.679258 323.321882 407.015110 327.360601 413.350962 326.059236 419.686813 327.360601 426.022665 326.777230 432.358516 326.507982 438.694368 325.475865 445.030220 325.565615 451.366071 323.636004 457.701923 326.104110 464.037775 323.321882 470.373626 323.142383 476.709478 319.013915 483.045330 317.174054 489.381181 314.661074 495.717033 311.654472 502.052885 310.218483 508.388736 311.250600 514.724588 312.282717 521.060440 311.430099 527.396291 306.763135 533.732143 311.474973 540.067995 314.975196 546.403846 312.866087 552.739698 314.750823 559.075549 311.833970 565.411401 311.699346 571.747253 310.173608 578.083104 309.949235 584.418956 312.282717 590.754808 316.904806 597.090659 313.628957 603.426511 313.045586 609.762363 312.372466 616.098214 312.821213 622.434066 311.968594 628.769918 311.071101 635.105769 310.038984 641.441621 311.115976 647.777473 314.750823 654.113324 313.808455 660.449176 312.821213 666.785027 313.225085 673.120879 310.532605 679.456731 310.936477 685.792582 310.442856 692.128434 309.904360 698.464286 309.635112 704.800137 309.231240 711.135989 309.679987 717.471841 309.231240 723.807692 308.333747"/></g><g class="series serie-2 color-2"><path class="line reactive nofill" d="M14.192308 307.301630 L20.528159 307.301630 26.864011 307.301630 33.199863 307.301630 39.535714 307.301630 45.871566 307.301630 52.207418 307.301630 58.543269 307.301630 64.879121 307.301630 71.214973 307.301630 77.550824 307.301630 83.886676 307.301630 90.222527 307.301630 96.558379 307.301630 102.894231 307.301630 109.230082 307.301630 115.565934 307.301630 121.901786 307.301630 128.237637 307.301630 134.573489 307.301630 140.909341 307.301630 147.245192 307.301630 153.581044 307.301630 159.916896 307.301630 166.252747 307.301630 172.588599 307.301630 178.924451 307.301630 185.260302 307.301630 191.596154 307.301630 197.932005 307.301630 204.267857 307.301630 210.603709 307.301630 216.939560 307.301630 223.275412 307.301630 229.611264 307.301630 235.947115 307.301630 242.282967 307.301630 248.618819 307.301630 254.954670 307.301630 261.290522 307.301630 267.626374 307.301630 273.962225 307.301630 280.298077 307.301630 286.633929 307.301630 292.969780 307.301630 299.305632 307.301630 305.641484 307.301630 311.977335 307.301630 318.313187 307.301630 324.649038 307.301630 330.984890 307.301630 337.320742 307.301630 343.656593 307.301630 349.992445 307.301630 356.328297 307.301630 362.664148 307.301630 369.000000 307.301630 375.335852 307.301630 381.671703 307.301630 388.007555 307.301630 394.343407 307.301630 400.679258 307.301630 407.015110 307.301630 413.350962 307.301630 419.686813 307.301630 426.022665 307.301630 432.358516 307.301630 438.694368 307.301630 445.030220 307.301630 451.366071 307.301630 457.701923 307.301630 464.037775 307.301630 470.373626 307.301630 476.709478 307.301630 483.045330 307.301630 489.381181 307.301630 495.717033 307.301630 502.052885 307.301630 508.388736 307.301630 514.724588 307.301630 521.060440 307.301630 527.396291 307.301630 533.732143 307.301630 540.067995 307.301630 546.403846 307.301630 552.739698 307.301630 559.075549 307.301630 565.411401 307.301630 571.747253 307.301630 578.083104 307.301630 584.418956 307.301630 590.754808 307.301630 597.090659 307.301630 603.426511 307.301630 609.762363 307.301630 616.098214 307.301630 622.434066 307.301630 628.769918 307.301630 635.105769 307.301630 641.441621 307.301630 647.777473 307.301630 654.113324 307.301630 660.449176 307.301630 666.785027 307.301630 673.120879 307.301630 679.456731 307.301630 685.792582 307.301630 692.128434 307.301630 698.464286 307.301630 704.800137 307.301630 711.135989 307.301630 717.471841 307.301630 723.807692 307.301630"/></g></g><g class="titles"><text class="title plot_title" x="400.0" y="26">KJ O'Brien: Future and Past Averages in ODIs</text></g><g class="plot overlay" transform="translate(42, 46)"><g class="series serie-0 color-0"><g class="dots"><desc class="label">113 wickets in 113 innings (704.0 overs)</desc><circle class="dot reactive tooltip-trigger" cx="14.192307692307692" cy="307.30163037086527" r="2.5"/><desc class="value">32.5</desc><desc class="x top">14.192307692307692</desc><desc class="y top">307.30163037086527</desc><desc class="x_label">2007</desc></g><g class="dots"><desc class="label">103 wickets in 97 innings (625.0 overs)</desc><circle class="dot reactive tooltip-trigger" cx="115.56593406593406" cy="311.6544718057329" r="2.5"/><desc class="value">31.53</desc><desc class="x top">115.56593406593406</desc><desc class="y top">311.6544718057329</desc><desc class="x_label">2008</desc></g><g class="dots"><desc class="label">98 wickets in 92 innings (591.0 overs)</desc><circle class="dot reactive tooltip-trigger" cx="147.2451923076923" cy="312.32759161524854" r="2.5"/><desc class="value">31.38</desc><desc class="x top">147.2451923076923</desc><desc class="y top">312.32759161524854</desc><desc class="x_label">2009</desc></g><g class="dots"><desc class="label">95 wickets in 85 innings (561.0 overs)</desc><circle class="dot reactive tooltip-trigger" cx="191.59615384615387" cy="315.46881739298817" r="2.5"/><desc class="value">30.68</desc><desc class="x top">191.59615384615387</desc><desc class="y top">315.46881739298817</desc><desc class="x_label">2010</desc></g><g class="dots"><desc class="label">70 wickets in 68 innings (434.2 overs)</desc><circle class="dot reactive tooltip-trigger" cx="299.30563186813185" cy="301.0191788153861" r="2.5"/><desc class="value">33.9</desc><desc class="x top">299.30563186813185</desc><desc class="y top">301.0191788153861</desc><desc class="x_label">2011</desc></g><g class="dots"><desc class="label">64 wickets in 59 innings (399.2 overs)</desc><circle class="dot reactive tooltip-trigger" cx="356.32829670329664" cy="300.2114350439674" r="2.5"/><desc class="value">34.08</desc><desc class="x top">356.32829670329664</desc><desc class="y top">300.2114350439674</desc><desc class="x_label">2012</desc></g><g class="dots"><desc class="label">64 wickets in 58 innings (398.2 overs)</desc><circle class="dot reactive tooltip-trigger" cx="362.66414835164835" cy="300.92942950745066" r="2.5"/><desc class="value">33.92</desc><desc class="x top">362.66414835164835</desc><desc class="y top">300.92942950745066</desc><desc class="x_label">2013</desc></g><g class="dots"><desc class="label">51 wickets in 51 innings (350.2 overs)</desc><circle class="dot reactive tooltip-trigger" cx="407.0151098901099" cy="282.97956792036746" r="2.5"/><desc class="value">37.92</desc><desc class="x left top">407.0151098901099</desc><desc class="y left top">282.97956792036746</desc><desc class="x_label">2014</desc></g><g class="dots"><desc class="label">49 wickets in 46 innings (329.2 overs)</desc><circle class="dot reactive tooltip-trigger" cx="438.69436813186815" cy="283.6078130759154" r="2.5"/><desc class="value">37.78</desc><desc class="x left top">438.69436813186815</desc><desc class="y left top">283.6078130759154</desc><desc class="x_label">2015</desc></g><g class="dots"><desc class="label">36 wickets in 34 innings (240.1 overs)</desc><circle class="dot reactive tooltip-trigger" cx="514.7245879120879" cy="296.71121203448615" r="2.5"/><desc class="value">34.86</desc><desc class="x left top">514.7245879120879</desc><desc class="y left top">296.71121203448615</desc><desc class="x_label">2016</desc></g><g class="dots"><desc class="label">23 wickets in 25 innings (160.0 overs)</desc><circle class="dot reactive tooltip-trigger" cx="571.7472527472528" cy="296.08296687893824" r="2.5"/><desc class="value">35</desc><desc class="x left top">571.7472527472528</desc><desc class="y left top">296.08296687893824</desc><desc class="x_label">2017</desc></g><g class="dots"><desc class="label">13 wickets in 15 innings (95.5 overs)</desc><circle class="dot reactive tooltip-trigger" cx="635.1057692307692" cy="286.43491627588094" r="2.5"/><desc class="value">37.15</desc><desc class="x left top">635.1057692307692</desc><desc class="y left top">286.43491627588094</desc><desc class="x_label">2018</desc></g><g class="dots"><desc class="label">1 wickets in 6 innings (22.3 overs)</desc><circle class="dot reactive tooltip-trigger" cx="692.128434065934" cy="17.860112279147813" r="2.5"/><desc class="value">97</desc><desc class="x left">692.128434065934</desc><desc class="y left">17.860112279147813</desc><desc class="x_label">2019</desc></g></g><g class="series serie-1 color-1"><g class="dots"><desc class="label">0 wickets over 0 innings</desc><circle class="dot reactive tooltip-trigger" cx="14.192307692307692" cy="453.1442557659166" r="2.5"/><desc class="value">0</desc><desc class="x top">14.192307692307692</desc><desc class="y top">453.1442557659166</desc><desc class="x_label">2007</desc></g><g class="dots"><desc class="label">10 wickets in 16 innings (79.0 overs)</desc><circle class="dot reactive tooltip-trigger" cx="115.56593406593406" cy="262.8757229428342" r="2.5"/><desc class="value">42.4</desc><desc class="x top">115.56593406593406</desc><desc class="y top">262.8757229428342</desc><desc class="x_label">2008</desc></g><g class="dots"><desc class="label">15 wickets in 21 innings (113.0 overs)</desc><circle class="dot reactive tooltip-trigger" cx="147.2451923076923" cy="274.5431329744383" r="2.5"/><desc class="value">39.8</desc><desc class="x top">147.2451923076923</desc><desc class="y top">274.5431329744383</desc><desc class="x_label">2009</desc></g><g class="dots"><desc class="label">18 wickets in 28 innings (143.0 overs)</desc><circle class="dot reactive tooltip-trigger" cx="191.59615384615387" cy="264.4014611777363" r="2.5"/><desc class="value">42.06</desc><desc class="x top">191.59615384615387</desc><desc class="y top">264.4014611777363</desc><desc class="x_label">2010</desc></g><g class="dots"><desc class="label">43 wickets in 45 innings (269.4 overs)</desc><circle class="dot reactive tooltip-trigger" cx="299.30563186813185" cy="317.5779261294704" r="2.5"/><desc class="value">30.21</desc><desc class="x top">299.30563186813185</desc><desc class="y top">317.5779261294704</desc><desc class="x_label">2011</desc></g><g class="dots"><desc class="label">49 wickets in 54 innings (304.4 overs)</desc><circle class="dot reactive tooltip-trigger" cx="356.32829670329664" cy="316.59068374218083" r="2.5"/><desc class="value">30.43</desc><desc class="x top">356.32829670329664</desc><desc class="y top">316.59068374218083</desc><desc class="x_label">2012</desc></g><g class="dots"><desc class="label">49 wickets in 55 innings (305.4 overs)</desc><circle class="dot reactive tooltip-trigger" cx="362.66414835164835" cy="315.6931906628267" r="2.5"/><desc class="value">30.63</desc><desc class="x top">362.66414835164835</desc><desc class="y top">315.6931906628267</desc><desc class="x_label">2013</desc></g><g class="dots"><desc class="label">62 wickets in 62 innings (353.4 overs)</desc><circle class="dot reactive tooltip-trigger" cx="407.0151098901099" cy="327.3606006944308" r="2.5"/><desc class="value">28.03</desc><desc class="x left top">407.0151098901099</desc><desc class="y left top">327.3606006944308</desc><desc class="x_label">2014</desc></g><g class="dots"><desc class="label">64 wickets in 67 innings (374.4 overs)</desc><circle class="dot reactive tooltip-trigger" cx="438.69436813186815" cy="325.47586522778704" r="2.5"/><desc class="value">28.45</desc><desc class="x left top">438.69436813186815</desc><desc class="y left top">325.47586522778704</desc><desc class="x_label">2015</desc></g><g class="dots"><desc class="label">77 wickets in 79 innings (463.5 overs)</desc><circle class="dot reactive tooltip-trigger" cx="514.7245879120879" cy="312.28271696128087" r="2.5"/><desc class="value">31.39</desc><desc class="x left top">514.7245879120879</desc><desc class="y left top">312.28271696128087</desc><desc class="x_label">2016</desc></g><g class="dots"><desc class="label">90 wickets in 88 innings (544.0 overs)</desc><circle class="dot reactive tooltip-trigger" cx="571.7472527472528" cy="310.1736082247986" r="2.5"/><desc class="value">31.86</desc><desc class="x left top">571.7472527472528</desc><desc class="y left top">310.1736082247986</desc><desc class="x_label">2017</desc></g><g class="dots"><desc class="label">100 wickets in 98 innings (608.1 overs)</desc><circle class="dot reactive tooltip-trigger" cx="635.1057692307692" cy="310.03898426289544" r="2.5"/><desc class="value">31.89</desc><desc class="x left top">635.1057692307692</desc><desc class="y left top">310.03898426289544</desc><desc class="x_label">2018</desc></g><g class="dots"><desc class="label">112 wickets in 107 innings (681.3 overs)</desc><circle class="dot reactive tooltip-trigger" cx="692.128434065934" cy="309.9043603009923" r="2.5"/><desc class="value">31.92</desc><desc class="x left top">692.128434065934</desc><desc class="y left top">309.9043603009923</desc><desc class="x_label">2019</desc></g></g><g class="series serie-2 color-2"/></g><g class="plot text-overlay" transform="translate(42, 46)"><g class="series serie-0 color-0"/><g class="series serie-1 color-1"/><g class="series serie-2 color-2"/></g><g class="plot tooltip-overlay" transform="translate(42, 46)"><g class="tooltip" style="opacity: 0" transform="translate(0 0)"><rect class="tooltip-box" height="0" rx="10" ry="10" width="0"/><g class="text"/></g></g><g class="legends" transform="translate(52, 545)"><g class="legend reactive activate-serie" id="activate-serie-0"><rect class="color-0 reactive" height="12" width="12" x="0.0" y="1.0"/><text x="17.0" y="11.2">Future Average</text></g><g class="legend reactive activate-serie" id="activate-serie-1"><rect class="color-1 reactive" height="12" width="12" x="369.0" y="1.0"/><text x="386.0" y="11.2">Past Average</text></g><g class="legend reactive activate-serie" id="activate-serie-2"><rect class="color-2 reactive" height="12" width="12" x="0.0" y="22.0"/><text x="17.0" y="32.2">Career Average</text></g></g></g></svg>