<?xml version='1.0' encoding='utf-8'?>
<svg xmlns:xlink="http://www.w3.org/1999/xlink" xmlns="http://www.w3.org/2000/svg" id="chart-55d48a0b-f60b-472f-8120-f8859f6e7337" class="pygal-chart" viewBox="0 0 800 600"><!--Generated with pygal 2.4.0 (lxml) ©Kozea 2012-2016 on 2019-08-04--><!--http://pygal.org--><!--http://github.com/Kozea/pygal--><defs><style type="text/css">#chart-55d48a0b-f60b-472f-8120-f8859f6e7337{-webkit-user-select:none;-webkit-font-smoothing:antialiased;font-family:Consolas,"Liberation Mono",Menlo,Courier,monospace}#chart-55d48a0b-f60b-472f-8120-f8859f6e7337 .title{font-family:Consolas,"Liberation Mono",Menlo,Courier,monospace;font-size:16px}#chart-55d48a0b-f60b-472f-8120-f8859f6e7337 .legends .legend text{font-family:Consolas,"Liberation Mono",Menlo,Courier,monospace;font-size:14px}#chart-55d48a0b-f60b-472f-8120-f8859f6e7337 .axis text{font-family:Consolas,"Liberation Mono",Menlo,Courier,monospace;font-size:10px}#chart-55d48a0b-f60b-472f-8120-f8859f6e7337 .axis text.major{font-family:Consolas,"Liberation Mono",Menlo,Courier,monospace;font-size:10px}#chart-55d48a0b-f60b-472f-8120-f8859f6e7337 .text-overlay text.value{font-family:Consolas,"Liberation Mono",Menlo,Courier,monospace;font-size:16px}#chart-55d48a0b-f60b-472f-8120-f8859f6e7337 .text-overlay text.label{font-family:Consolas,"Liberation Mono",Menlo,Courier,monospace;font-size:10px}#chart-55d48a0b-f60b-472f-8120-f8859f6e7337 .tooltip{font-family:Consolas,"Liberation Mono",Menlo,Courier,monospace;font-size:14px}#chart-55d48a0b-f60b-472f-8120-f8859f6e7337 text.no_data{font-family:Consolas,"Liberation Mono",Menlo,Courier,monospace;font-size:64px}
#chart-55d48a0b-f60b-472f-8120-f8859f6e7337{background-color:rgba(249,249,249,1)}#chart-55d48a0b-f60b-472f-8120-f8859f6e7337 path,#chart-55d48a0b-f60b-472f-8120-f8859f6e7337 line,#chart-55d48a0b-f60b-472f-8120-f8859f6e7337 rect,#chart-55d48a0b-f60b-472f-8120-f8859f6e7337 circle{-webkit-transition:150ms;-moz-transition:150ms;transition:150ms}#chart-55d48a0b-f60b-472f-8120-f8859f6e7337 .graph &gt; .background{fill:rgba(249,249,249,1)}#chart-55d48a0b-f60b-472f-8120-f8859f6e7337 .plot &gt; .background{fill:rgba(255,255,255,1)}#chart-55d48a0b-f60b-472f-8120-f8859f6e7337 .graph{fill:rgba(0,0,0,.87)}#chart-55d48a0b-f60b-472f-8120-f8859f6e7337 text.no_data{fill:rgba(0,0,0,1)}#chart-55d48a0b-f60b-472f-8120-f8859f6e7337 .title{fill:rgba(0,0,0,1)}#chart-55d48a0b-f60b-472f-8120-f8859f6e7337 .legends .legend text{fill:rgba(0,0,0,.87)}#chart-55d48a0b-f60b-472f-8120-f8859f6e7337 .legends .legend:hover text{fill:rgba(0,0,0,1)}#chart-55d48a0b-f60b-472f-8120-f8859f6e7337 .axis .line{stroke:rgba(0,0,0,1)}#chart-55d48a0b-f60b-472f-8120-f8859f6e7337 .axis .guide.line{stroke:rgba(0,0,0,.54)}#chart-55d48a0b-f60b-472f-8120-f8859f6e7337 .axis .major.line{stroke:rgba(0,0,0,.87)}#chart-55d48a0b-f60b-472f-8120-f8859f6e7337 .axis text.major{fill:rgba(0,0,0,1)}#chart-55d48a0b-f60b-472f-8120-f8859f6e7337 .axis.y .guides:hover .guide.line,#chart-55d48a0b-f60b-472f-8120-f8859f6e7337 .line-graph .axis.x .guides:hover .guide.line,#chart-55d48a0b-f60b-472f-8120-f8859f6e7337 .stackedline-graph .axis.x .guides:hover .guide.line,#chart-55d48a0b-f60b-472f-8120-f8859f6e7337 .xy-graph .axis.x .guides:hover .guide.line{stroke:rgba(0,0,0,1)}#chart-55d48a0b-f60b-472f-8120-f8859f6e7337 .axis .guides:hover text{fill:rgba(0,0,0,1)}#chart-55d48a0b-f60b-472f-8120-f8859f6e7337 .reactive{fill-opacity:.7;stroke-opacity:.8}#chart-55d48a0b-f60b-472f-8120-f8859f6e7337 .ci{stroke:rgba(0,0,0,.87)}#chart-55d48a0b-f60b-472f-8120-f8859f6e7337 .reactive.active,#chart-55d48a0b-f60b-472f-8120-f8859f6e7337 .active .reactive{fill-opacity:.8;stroke-opacity:.9;stroke-width:4}#chart-55d48a0b-f60b-472f-8120-f8859f6e7337 .ci .reactive.active{stroke-width:1.5}#chart-55d48a0b-f60b-472f-8120-f8859f6e7337 .series text{fill:rgba(0,0,0,1)}#chart-55d48a0b-f60b-472f-8120-f8859f6e7337 .tooltip rect{fill:rgba(255,255,255,1);stroke:rgba(0,0,0,1);-webkit-transition:opacity 150ms;-moz-transition:opacity 150ms;transition:opacity 150ms}#chart-55d48a0b-f60b-472f-8120-f8859f6e7337 .tooltip .label{fill:rgba(0,0,0,.87)}#chart-55d48a0b-f60b-472f-8120-f8859f6e7337 .tooltip .label{fill:rgba(0,0,0,.87)}#chart-55d48a0b-f60b-472f-8120-f8859f6e7337 .tooltip .legend{font-size:.8em;fill:rgba(0,0,0,.54)}#chart-55d48a0b-f60b-472f-8120-f8859f6e7337 .tooltip .x_label{font-size:.6em;fill:rgba(0,0,0,1)}#chart-55d48a0b-f60b-472f-8120-f8859f6e7337 .tooltip .xlink{font-size:.5em;text-decoration:underline}#chart-55d48a0b-f60b-472f-8120-f8859f6e7337 .tooltip .value{font-size:1.5em}#chart-55d48a0b-f60b-472f-8120-f8859f6e7337 .bound{font-size:.5em}#chart-55d48a0b-f60b-472f-8120-f8859f6e7337 .max-value{font-size:.75em;fill:rgba(0,0,0,.54)}#chart-55d48a0b-f60b-472f-8120-f8859f6e7337 .map-element{fill:rgba(255,255,255,1);stroke:rgba(0,0,0,.54) !important}#chart-55d48a0b-f60b-472f-8120-f8859f6e7337 .map-element .reactive{fill-opacity:inherit;stroke-opacity:inherit}#chart-55d48a0b-f60b-472f-8120-f8859f6e7337 .color-0,#chart-55d48a0b-f60b-472f-8120-f8859f6e7337 .color-0 a:visited{stroke:red;fill:red}#chart-55d48a0b-f60b-472f-8120-f8859f6e7337 .color-1,#chart-55d48a0b-f60b-472f-8120-f8859f6e7337 .color-1 a:visited{stroke:blue;fill:blue}#chart-55d48a0b-f60b-472f-8120-f8859f6e7337 .color-2,#chart-55d48a0b-f60b-472f-8120-f8859f6e7337 .color-2 a:visited{stroke:green;fill:green}#chart-55d48a0b-f60b-472f-8120-f8859f6e7337 .text-overlay .color-0 text{fill:white}#chart-55d48a0b-f60b-472f-8120-f8859f6e7337 .text-overlay .color-1 text{fill:white}#chart-55d48a0b-f60b-472f-8120-f8859f6e7337 .text-overlay .color-2 text{fill:white}
#chart-55d48a0b-f60b-472f-8120-f8859f6e7337 text.no_data{text-anchor:middle}#chart-55d48a0b-f60b-472f-8120-f8859f6e7337 .guide.line{fill:none}#chart-55d48a0b-f60b-472f-8120-f8859f6e7337 .centered{text-anchor:middle}#chart-55d48a0b-f60b-472f-8120-f8859f6e7337 .title{text-anchor:middle}#chart-55d48a0b-f60b-472f-8120-f8859f6e7337 .legends .legend text{fill-opacity:1}#chart-55d48a0b-f60b-472f-8120-f8859f6e7337 .axis.x text{text-anchor:middle}#chart-55d48a0b-f60b-472f-8120-f8859f6e7337 .axis.x:not(.web) text[transform]{text-anchor:start}#chart-55d48a0b-f60b-472f-8120-f8859f6e7337 .axis.x:not(.web) text[transform].backwards{text-anchor:end}#chart-55d48a0b-f60b-472f-8120-f8859f6e7337 .axis.y text{text-anchor:end}#chart-55d48a0b-f60b-472f-8120-f8859f6e7337 .axis.y text[transform].backwards{text-anchor:start}#chart-55d48a0b-f60b-472f-8120-f8859f6e7337 .axis.y2 text{text-anchor:start}#chart-55d48a0b-f60b-472f-8120-f8859f6e7337 .axis.y2 text[transform].backwards{text-anchor:end}#chart-55d48a0b-f60b-472f-8120-f8859f6e7337 .axis .guide.line{stroke-dasharray:4,4}#chart-55d48a0b-f60b-472f-8120-f8859f6e7337 .axis .major.guide.line{stroke-dasharray:6,6}#chart-55d48a0b-f60b-472f-8120-f8859f6e7337 .horizontal .axis.y .guide.line,#chart-55d48a0b-f60b-472f-8120-f8859f6e7337 .horizontal .axis.y2 .guide.line,#chart-55d48a0b-f60b-472f-8120-f8859f6e7337 .vertical .axis.x .guide.line{opacity:0}#chart-55d48a0b-f60b-472f-8120-f8859f6e7337 .horizontal .axis.always_show .guide.line,#chart-55d48a0b-f60b-472f-8120-f8859f6e7337 .vertical .axis.always_show .guide.line{opacity:1 !important}#chart-55d48a0b-f60b-472f-8120-f8859f6e7337 .axis.y .guides:hover .guide.line,#chart-55d48a0b-f60b-472f-8120-f8859f6e7337 .axis.y2 .guides:hover .guide.line,#chart-55d48a0b-f60b-472f-8120-f8859f6e7337 .axis.x .guides:hover .guide.line{opacity:1}#chart-55d48a0b-f60b-472f-8120-f8859f6e7337 .axis .guides:hover text{opacity:1}#chart-55d48a0b-f60b-472f-8120-f8859f6e7337 .nofill{fill:none}#chart-55d48a0b-f60b-472f-8120-f8859f6e7337 .subtle-fill{fill-opacity:.2}#chart-55d48a0b-f60b-472f-8120-f8859f6e7337 .dot{stroke-width:1px;fill-opacity:1}#chart-55d48a0b-f60b-472f-8120-f8859f6e7337 .dot.active{stroke-width:5px}#chart-55d48a0b-f60b-472f-8120-f8859f6e7337 .dot.negative{fill:transparent}#chart-55d48a0b-f60b-472f-8120-f8859f6e7337 text,#chart-55d48a0b-f60b-472f-8120-f8859f6e7337 tspan{stroke:none !important}#chart-55d48a0b-f60b-472f-8120-f8859f6e7337 .series text.active{opacity:1}#chart-55d48a0b-f60b-472f-8120-f8859f6e7337 .tooltip rect{fill-opacity:.95;stroke-width:.5}#chart-55d48a0b-f60b-472f-8120-f8859f6e7337 .tooltip text{fill-opacity:1}#chart-55d48a0b-f60b-472f-8120-f8859f6e7337 .showable{visibility:hidden}#chart-55d48a0b-f60b-472f-8120-f8859f6e7337 .showable.shown{visibility:visible}#chart-55d48a0b-f60b-472f-8120-f8859f6e7337 .gauge-background{fill:rgba(229,229,229,1);stroke:none}#chart-55d48a0b-f60b-472f-8120-f8859f6e7337 .bg-lines{stroke:rgba(249,249,249,1);stroke-width:2px}</style><script type="text/javascript">window.pygal = window.pygal || {};window.pygal.config = window.pygal.config || {};window.pygal.config['55d48a0b-f60b-472f-8120-f8859f6e7337'] = {"allow_interruptions": false, "box_mode": "extremes", "classes": ["pygal-chart"], "css": ["file://style.css", "file://graph.css"], "defs": [], "disable_xml_declaration": false, "dots_size": 2.5, "dynamic_print_values": false, "explicit_size": false, "fill": false, "force_uri_protocol": "https", "formatter": null, "half_pie": false, "height": 600, "include_x_axis": false, "inner_radius": 0, "interpolate": null, "interpolation_parameters": {}, "interpolation_precision": 250, "inverse_y_axis": false, "js": ["//kozea.github.io/pygal.js/2.0.x/pygal-tooltips.min.js"], "legend_at_bottom": true, "legend_at_bottom_columns": null, "legend_box_size": 12, "logarithmic": false, "margin": 20, "margin_bottom": null, "margin_left": null, "margin_right": null, "margin_top": null, "max_scale": 16, "min_scale": 4, "missing_value_fill_truncation": "x", "no_data_text": "No data", "no_prefix": false, "order_min": null, "pretty_print": false, "print_labels": false, "print_values": false, "print_values_position": "center", "print_zeroes": true, "range": null, "rounded_bars": null, "secondary_range": null, "show_dots": true, "show_legend": true, "show_minor_x_labels": false, "show_minor_y_labels": true, "show_only_major_dots": false, "show_x_guides": false, "show_x_labels": true, "show_y_guides": true, "show_y_labels": true, "spacing": 10, "stack_from_top": false, "strict": false, "stroke": true, "stroke_style": null, "style": {"background": "rgba(249, 249, 249, 1)", "ci_colors": [], "colors": ["red", "blue", "green", "#a3a3a3"], "font_family": "Consolas, \"Liberation Mono\", Menlo, Courier, monospace", "foreground": "rgba(0, 0, 0, .87)", "foreground_strong": "rgba(0, 0, 0, 1)", "foreground_subtle": "rgba(0, 0, 0, .54)", "guide_stroke_dasharray": "4,4", "label_font_family": "Consolas, \"Liberation Mono\", Menlo, Courier, monospace", "label_font_size": 10, "legend_font_family": "Consolas, \"Liberation Mono\", Menlo, Courier, monospace", "legend_font_size": 14, "major_guide_stroke_dasharray": "6,6", "major_label_font_family": "Consolas, \"Liberation Mono\", Menlo, Courier, monospace", "major_label_font_size": 10, "no_data_font_family": "Consolas, \"Liberation Mono\", Menlo, Courier, monospace", "no_data_font_size": 64, "opacity": ".7", "opacity_hover": ".8", "plot_background": "rgba(255, 255, 255, 1)", "stroke_opacity": ".8", "stroke_opacity_hover": ".9", "title_font_family": "Consolas, \"Liberation Mono\", Menlo, Courier, monospace", "title_font_size": 16, "tooltip_font_family": "Consolas, \"Liberation Mono\", Menlo, Courier, monospace", "tooltip_font_size": 14, "transition": "150ms", "value_background": "rgba(229, 229, 229, 1)", "value_colors": [], "value_font_family": "Consolas, \"Liberation Mono\", Menlo, Courier, monospace", "value_font_size": 16, "value_label_font_family": "Consolas, \"Liberation Mono\", Menlo, Courier, monospace", "value_label_font_size": 10}, "title": "KMDN Kulasekara: Future and Past Averages in ODIs", "tooltip_border_radius": 10, "tooltip_fancy_mode": true, "truncate_label": null, "truncate_legend": null, "width": 800, "x_label_rotation": 45, "x_labels": ["2004", "0", "0", "0", "0", "0", "2006", "0", "0", "0", "0", "0", "0", "0", "0", "2007", "0", "0", "0", "0", "2008", "0", "0", "0", "0", "0", "0", "0", "0", "0", "0", "0", "0", "0", "0", "0", "0", "0", "0", "0", "0", "2009", "0", "0", "0", "0", "0", "0", "0", "0", "0", "0", "0", "0", "0", "0", "0", "0", "0", "0", "0", "0", "0", "0", "2010", "0", "0", "0", "0", "0", "0", "0", "0", "0", "0", "0", "0", "0", "0", "0", "2011", "0", "0", "0", "0", "0", "0", "0", "0", "0", "0", "0", "0", "0", "0", "0", "0", "2012", "0", "0", "0", "0", "0", "0", "0", "0", "0", "0", "0", "0", "0", "0", "0", "0", "0", "0", "0", "0", "0", "0", "0", "0", "0", "0", "0", "2013", "0", "0", "0", "0", "0", "0", "0", "0", "0", "0", "0", "0", "0", "0", "0", "0", "0", "0", "2014", "0", "0", "0", "0", "0", "0", "0", "0", "0", "0", "0", "0", "2015", "0", "0", "0", "0", "0", "0", "0", "0", "0", "0", "0", "2016", "0", "0", "0", "0", "0", "0", "2017", "0", "0", "0", "0"], "x_labels_major": ["2004", "2006", "2007", "2008", "2009", "2010", "2011", "2012", "2013", "2014", "2015", "2016", "2017"], "x_labels_major_count": null, "x_labels_major_every": null, "x_title": null, "xrange": null, "y_label_rotation": 0, "y_labels": null, "y_labels_major": null, "y_labels_major_count": null, "y_labels_major_every": null, "y_title": null, "zero": 60.0, "legends": ["Future Average", "Past Average", "Career Average"]}</script><script type="text/javascript" xlink:href="https://kozea.github.io/pygal.js/2.0.x/pygal-tooltips.min.js"/></defs><title>KMDN Kulasekara: Future and Past Averages in ODIs</title><g class="graph line-graph vertical"><rect class="background" height="600" width="800" x="0" y="0"/><g class="plot" transform="translate(42, 46)"><rect class="background" height="462.02943725152284" width="738.0" x="0" y="0"/><g class="axis y always_show"><g class="guides"><path class="axis major line" d="M0.000000 453.144256 h738.000000"/><text class="major" x="-5" y="456.6442557659166">0</text><title>0</title></g><g class="guides"><path class="guide line" d="M0.000000 376.942013 h738.000000"/><text class="" x="-5" y="380.44201317924245">10</text><title>10</title></g><g class="guides"><path class="guide line" d="M0.000000 300.739771 h738.000000"/><text class="" x="-5" y="304.2397705925682">20</text><title>20</title></g><g class="guides"><path class="guide line" d="M0.000000 224.537528 h738.000000"/><text class="" x="-5" y="228.03752800589407">30</text><title>30</title></g><g class="guides"><path class="guide line" d="M0.000000 148.335285 h738.000000"/><text class="" x="-5" y="151.83528541921993">40</text><title>40</title></g><g class="guides"><path class="major guide line" d="M0.000000 72.133043 h738.000000"/><text class="major" x="-5" y="75.6330428325457">50</text><title>50</title></g></g><g class="axis x"><g class="guides"><path class="major line" d="M14.192308 0.000000 v462.029437"/><text class="major" x="14.192307692307692" y="477.02943725152284" transform="rotate(45 14.192308 477.029437)">2004</text></g><g class="guides"><path class="major guide line" d="M37.846154 0.000000 v462.029437"/><text class="major" x="37.84615384615385" y="477.02943725152284" transform="rotate(45 37.846154 477.029437)">2006</text></g><g class="guides"><path class="major guide line" d="M73.326923 0.000000 v462.029437"/><text class="major" x="73.32692307692308" y="477.02943725152284" transform="rotate(45 73.326923 477.029437)">2007</text></g><g class="guides"><path class="major guide line" d="M93.038462 0.000000 v462.029437"/><text class="major" x="93.03846153846153" y="477.02943725152284" transform="rotate(45 93.038462 477.029437)">2008</text></g><g class="guides"><path class="major guide line" d="M175.826923 0.000000 v462.029437"/><text class="major" x="175.82692307692307" y="477.02943725152284" transform="rotate(45 175.826923 477.029437)">2009</text></g><g class="guides"><path class="major guide line" d="M266.500000 0.000000 v462.029437"/><text class="major" x="266.5" y="477.02943725152284" transform="rotate(45 266.500000 477.029437)">2010</text></g><g class="guides"><path class="major guide line" d="M329.576923 0.000000 v462.029437"/><text class="major" x="329.57692307692304" y="477.02943725152284" transform="rotate(45 329.576923 477.029437)">2011</text></g><g class="guides"><path class="major guide line" d="M396.596154 0.000000 v462.029437"/><text class="major" x="396.5961538461538" y="477.02943725152284" transform="rotate(45 396.596154 477.029437)">2012</text></g><g class="guides"><path class="major guide line" d="M506.980769 0.000000 v462.029437"/><text class="major" x="506.9807692307692" y="477.02943725152284" transform="rotate(45 506.980769 477.029437)">2013</text></g><g class="guides"><path class="major guide line" d="M581.884615 0.000000 v462.029437"/><text class="major" x="581.8846153846155" y="477.02943725152284" transform="rotate(45 581.884615 477.029437)">2014</text></g><g class="guides"><path class="major guide line" d="M633.134615 0.000000 v462.029437"/><text class="major" x="633.1346153846154" y="477.02943725152284" transform="rotate(45 633.134615 477.029437)">2015</text></g><g class="guides"><path class="major guide line" d="M680.442308 0.000000 v462.029437"/><text class="major" x="680.4423076923076" y="477.02943725152284" transform="rotate(45 680.442308 477.029437)">2016</text></g><g class="guides"><path class="major guide line" d="M708.038462 0.000000 v462.029437"/><text class="major" x="708.0384615384615" y="477.02943725152284" transform="rotate(45 708.038462 477.029437)">2017</text></g></g><g class="series serie-0 color-0"><path class="line reactive nofill" d="M14.192308 194.666249 L18.134615 192.761193 22.076923 193.447013 26.019231 195.352069 29.961538 196.342698 33.903846 196.266496 37.846154 196.723709 41.788462 196.342698 45.730769 197.257125 49.673077 197.257125 53.615385 195.885485 57.557692 197.333327 61.500000 198.247754 65.442308 198.781170 69.384615 200.381417 73.326923 200.762428 77.269231 202.743687 81.211538 203.277102 85.153846 204.039125 89.096154 204.496338 93.038462 202.515080 96.980769 202.819889 100.923077 202.286473 104.865385 200.991035 108.807692 198.628766 112.750000 195.504474 116.692308 196.952316 120.634615 196.876114 124.576923 197.942945 128.519231 196.571305 132.461538 197.714339 136.403846 199.390788 140.346154 199.009777 144.288462 197.104721 148.230769 195.199665 152.173077 193.523215 156.115385 193.751822 160.057692 189.179687 164.000000 188.722474 167.942308 187.350834 171.884615 187.350834 175.826923 182.854901 179.769231 178.130362 183.711538 178.587576 187.653846 174.015441 191.596154 175.844295 195.538462 173.634430 199.480769 168.605082 203.423077 170.357734 207.365385 169.595711 211.307692 173.329621 215.250000 170.662542 219.192308 168.909891 223.134615 166.319015 227.076923 165.099779 231.019231 167.233442 234.961538 163.270925 238.903846 159.765622 242.846154 159.537015 246.788462 161.899285 250.730769 164.566363 254.673077 162.432700 258.615385 163.347127 262.557692 162.661307 266.500000 165.633194 270.442308 166.166610 274.384615 164.337756 278.326923 157.403352 282.269231 157.022341 286.211538 157.860566 290.153846 158.393981 294.096154 156.946139 298.038462 158.622588 301.980769 158.698790 305.923077 159.079802 309.865385 158.774993 313.807692 160.451442 317.750000 157.098543 321.692308 160.527644 325.634615 162.127891 329.576923 159.994229 333.519231 159.765622 337.461538 157.022341 341.403846 149.021106 345.346154 154.126656 349.288462 152.450207 353.230769 155.041083 357.173077 153.440836 361.115385 158.622588 365.057692 161.137262 369.000000 161.213464 372.942308 164.490161 376.884615 167.462048 380.826923 171.576969 384.769231 173.329621 388.711538 173.405823 392.653846 174.548857 396.596154 175.615688 400.538462 176.758722 404.480769 180.797441 408.423077 183.388317 412.365385 183.769328 416.307692 187.731845 420.250000 191.008541 424.192308 188.341463 428.134615 188.722474 432.076923 191.313350 436.019231 185.521980 439.961538 187.731845 443.903846 194.361440 447.846154 191.465755 451.788462 193.980429 455.730769 199.466990 459.673077 196.799912 463.615385 203.429507 467.557692 205.639372 471.500000 202.057866 475.442308 201.676855 479.384615 198.171552 483.326923 194.894856 487.269231 195.123462 491.211538 193.523215 495.153846 191.922968 499.096154 193.675620 503.038462 194.971058 506.980769 188.874878 510.923077 191.084744 514.865385 189.789305 518.807692 169.290902 522.750000 157.555757 526.692308 160.222835 530.634615 164.490161 534.576923 168.833689 538.519231 169.519509 542.461538 158.241577 546.403846 165.556992 550.346154 165.709397 554.288462 165.633194 558.230769 166.928633 562.173077 167.462048 566.115385 145.896814 570.057692 142.010499 574.000000 144.982387 577.942308 150.316544 581.884615 155.955510 585.826923 163.575734 589.769231 153.821847 593.711538 149.706926 597.653846 124.026770 601.596154 127.455871 605.538462 147.344656 609.480769 152.755015 613.423077 159.156004 617.365385 168.757486 621.307692 182.473890 625.250000 188.189058 629.192308 188.722474 633.134615 202.972293 637.076923 196.571305 641.019231 198.476361 644.961538 208.687462 648.903846 214.478832 652.846154 217.222113 656.788462 214.707439 660.730769 232.538763 664.673077 202.591282 668.615385 208.382653 672.557692 220.498809 676.500000 229.033460 680.442308 242.902268 684.384615 231.700539 688.326923 211.659349 692.269231 183.693126 696.211538 155.117285 700.153846 134.009264 704.096154 120.369062 708.038462 99.565850 711.980769 130.046747 715.923077 194.056631 719.865385 335.030780 723.807692 262.638649"/></g><g class="series serie-1 color-1"><path class="line reactive nofill" d="M14.192308 453.144256 L18.134615 380.752125 22.076923 312.170107 26.019231 121.664501 29.961538 22.601585 33.903846 89.888165 37.846154 56.892594 41.788462 110.234164 45.730769 68.322931 49.673077 91.945626 53.615385 160.299038 57.557692 120.064253 61.500000 96.060547 65.442308 95.908143 69.384615 56.892594 73.326923 64.512819 77.269231 23.897023 81.211538 31.745854 85.153846 16.505406 89.096154 8.885181 93.038462 72.133043 96.980769 77.390998 100.923077 101.089895 104.865385 126.389040 108.807692 159.003599 112.750000 188.112856 116.692308 177.139733 120.634615 178.206565 124.576923 170.281531 128.519231 181.711868 132.461538 174.091643 136.403846 164.413959 140.346154 167.690655 144.288462 180.873643 148.230769 191.694361 152.173077 199.848001 156.115385 198.857372 160.057692 217.145910 164.000000 218.288944 167.942308 222.708674 171.884615 221.794247 175.826923 234.901033 179.769231 246.483774 183.711538 243.664291 187.653846 252.960964 191.596154 247.855414 195.538462 251.055908 199.480769 259.438155 203.423077 255.170830 207.365385 253.951594 211.307692 245.188336 215.250000 247.550605 219.192308 248.922246 223.134615 251.665526 227.076923 252.732358 231.019231 247.398201 234.961538 251.132111 238.903846 254.789818 242.846154 253.875391 246.788462 249.989077 250.730769 245.416942 254.673077 246.712381 258.615385 244.197707 262.557692 243.283280 266.500000 238.711145 270.442308 237.034696 274.384615 237.796718 278.326923 243.588089 282.269231 243.054673 286.211538 241.987842 290.153846 240.311392 294.096154 241.225819 298.038462 239.092156 301.980769 238.177729 305.923077 236.882291 309.865385 236.272673 313.807692 234.367617 317.750000 236.501280 321.692308 232.691168 325.634615 230.252696 329.576923 231.090921 333.519231 230.633707 337.461538 231.852943 341.403846 237.110898 345.346154 232.386359 349.288462 233.148381 353.230769 230.786112 357.173077 231.471932 361.115385 226.823595 365.057692 224.613730 369.000000 223.927910 372.942308 221.108427 376.884615 218.517551 380.826923 214.859843 384.769231 213.335798 388.711538 212.878585 392.653846 211.583147 396.596154 210.668720 400.538462 209.373282 404.480769 206.096585 408.423077 203.886720 412.365385 203.429507 416.307692 200.229013 420.250000 197.561934 424.192308 199.466990 428.134615 199.085979 432.076923 197.180923 436.019231 201.143440 439.961538 199.466990 443.903846 194.818653 447.846154 196.723709 451.788462 195.047260 455.730769 191.465755 459.673077 193.218406 463.615385 189.027283 467.557692 187.655643 471.500000 190.094114 475.442308 190.475126 479.384615 192.608788 483.326923 194.437642 487.269231 194.361440 491.211538 195.199665 495.153846 196.037889 499.096154 195.123462 503.038462 194.437642 506.980769 197.333327 510.923077 196.190294 514.865385 196.799912 518.807692 204.572540 522.750000 208.077844 526.692308 206.782405 530.634615 205.029754 534.576923 203.505709 538.519231 203.048496 542.461538 205.867979 546.403846 203.658114 550.346154 203.353305 554.288462 203.124698 558.230769 202.743687 562.173077 202.591282 566.115385 207.239619 570.057692 207.849237 574.000000 206.706203 577.942308 205.105956 581.884615 203.734316 585.826923 201.981664 589.769231 203.658114 593.711538 203.886720 597.653846 207.696832 601.596154 207.011012 605.538462 203.353305 609.480769 202.362675 613.423077 201.143440 617.365385 199.390788 621.307692 196.876114 625.250000 195.809283 629.192308 195.656878 633.134615 193.218406 637.076923 194.285238 641.019231 194.056631 644.961538 192.532586 648.903846 191.770564 652.846154 191.694361 656.788462 192.227777 660.730769 190.398923 664.673077 193.904226 668.615385 193.370811 672.557692 192.227777 676.500000 191.389552 680.442308 190.094114 684.384615 191.389552 688.326923 193.447013 692.269231 195.275867 696.211538 196.495103 700.153846 197.180923 704.096154 196.952316 708.038462 197.104721 711.980769 196.266496 715.923077 194.666249 719.865385 191.770564 723.807692 195.580676"/></g><g class="series serie-2 color-2"><path class="line reactive nofill" d="M14.192308 194.666249 L18.134615 194.666249 22.076923 194.666249 26.019231 194.666249 29.961538 194.666249 33.903846 194.666249 37.846154 194.666249 41.788462 194.666249 45.730769 194.666249 49.673077 194.666249 53.615385 194.666249 57.557692 194.666249 61.500000 194.666249 65.442308 194.666249 69.384615 194.666249 73.326923 194.666249 77.269231 194.666249 81.211538 194.666249 85.153846 194.666249 89.096154 194.666249 93.038462 194.666249 96.980769 194.666249 100.923077 194.666249 104.865385 194.666249 108.807692 194.666249 112.750000 194.666249 116.692308 194.666249 120.634615 194.666249 124.576923 194.666249 128.519231 194.666249 132.461538 194.666249 136.403846 194.666249 140.346154 194.666249 144.288462 194.666249 148.230769 194.666249 152.173077 194.666249 156.115385 194.666249 160.057692 194.666249 164.000000 194.666249 167.942308 194.666249 171.884615 194.666249 175.826923 194.666249 179.769231 194.666249 183.711538 194.666249 187.653846 194.666249 191.596154 194.666249 195.538462 194.666249 199.480769 194.666249 203.423077 194.666249 207.365385 194.666249 211.307692 194.666249 215.250000 194.666249 219.192308 194.666249 223.134615 194.666249 227.076923 194.666249 231.019231 194.666249 234.961538 194.666249 238.903846 194.666249 242.846154 194.666249 246.788462 194.666249 250.730769 194.666249 254.673077 194.666249 258.615385 194.666249 262.557692 194.666249 266.500000 194.666249 270.442308 194.666249 274.384615 194.666249 278.326923 194.666249 282.269231 194.666249 286.211538 194.666249 290.153846 194.666249 294.096154 194.666249 298.038462 194.666249 301.980769 194.666249 305.923077 194.666249 309.865385 194.666249 313.807692 194.666249 317.750000 194.666249 321.692308 194.666249 325.634615 194.666249 329.576923 194.666249 333.519231 194.666249 337.461538 194.666249 341.403846 194.666249 345.346154 194.666249 349.288462 194.666249 353.230769 194.666249 357.173077 194.666249 361.115385 194.666249 365.057692 194.666249 369.000000 194.666249 372.942308 194.666249 376.884615 194.666249 380.826923 194.666249 384.769231 194.666249 388.711538 194.666249 392.653846 194.666249 396.596154 194.666249 400.538462 194.666249 404.480769 194.666249 408.423077 194.666249 412.365385 194.666249 416.307692 194.666249 420.250000 194.666249 424.192308 194.666249 428.134615 194.666249 432.076923 194.666249 436.019231 194.666249 439.961538 194.666249 443.903846 194.666249 447.846154 194.666249 451.788462 194.666249 455.730769 194.666249 459.673077 194.666249 463.615385 194.666249 467.557692 194.666249 471.500000 194.666249 475.442308 194.666249 479.384615 194.666249 483.326923 194.666249 487.269231 194.666249 491.211538 194.666249 495.153846 194.666249 499.096154 194.666249 503.038462 194.666249 506.980769 194.666249 510.923077 194.666249 514.865385 194.666249 518.807692 194.666249 522.750000 194.666249 526.692308 194.666249 530.634615 194.666249 534.576923 194.666249 538.519231 194.666249 542.461538 194.666249 546.403846 194.666249 550.346154 194.666249 554.288462 194.666249 558.230769 194.666249 562.173077 194.666249 566.115385 194.666249 570.057692 194.666249 574.000000 194.666249 577.942308 194.666249 581.884615 194.666249 585.826923 194.666249 589.769231 194.666249 593.711538 194.666249 597.653846 194.666249 601.596154 194.666249 605.538462 194.666249 609.480769 194.666249 613.423077 194.666249 617.365385 194.666249 621.307692 194.666249 625.250000 194.666249 629.192308 194.666249 633.134615 194.666249 637.076923 194.666249 641.019231 194.666249 644.961538 194.666249 648.903846 194.666249 652.846154 194.666249 656.788462 194.666249 660.730769 194.666249 664.673077 194.666249 668.615385 194.666249 672.557692 194.666249 676.500000 194.666249 680.442308 194.666249 684.384615 194.666249 688.326923 194.666249 692.269231 194.666249 696.211538 194.666249 700.153846 194.666249 704.096154 194.666249 708.038462 194.666249 711.980769 194.666249 715.923077 194.666249 719.865385 194.666249 723.807692 194.666249"/></g></g><g class="titles"><text class="title plot_title" x="400.0" y="26">KMDN Kulasekara: Future and Past Averages in ODIs</text></g><g class="plot overlay" transform="translate(42, 46)"><g class="series serie-0 color-0"><g class="dots"><desc class="label">199 wickets in 181 innings (1377.1 overs)</desc><circle class="dot reactive tooltip-trigger" cx="14.192307692307692" cy="194.66624891191782" r="2.5"/><desc class="value">33.92</desc><desc class="x ">14.192307692307692</desc><desc class="y ">194.66624891191782</desc><desc class="x_label">2004</desc></g><g class="dots"><desc class="label">196 wickets in 175 innings (1337.1 overs)</desc><circle class="dot reactive tooltip-trigger" cx="37.84615384615385" cy="196.72370946175806" r="2.5"/><desc class="value">33.65</desc><desc class="x ">37.84615384615385</desc><desc class="y ">196.72370946175806</desc><desc class="x_label">2006</desc></g><g class="dots"><desc class="label">190 wickets in 166 innings (1272.2 overs)</desc><circle class="dot reactive tooltip-trigger" cx="73.32692307692308" cy="200.7624283188518" r="2.5"/><desc class="value">33.12</desc><desc class="x ">73.32692307692308</desc><desc class="y ">200.7624283188518</desc><desc class="x_label">2007</desc></g><g class="dots"><desc class="label">187 wickets in 161 innings (1235.5 overs)</desc><circle class="dot reactive tooltip-trigger" cx="93.03846153846153" cy="202.51507989834528" r="2.5"/><desc class="value">32.89</desc><desc class="x ">93.03846153846153</desc><desc class="y ">202.51507989834528</desc><desc class="x_label">2008</desc></g><g class="dots"><desc class="label">154 wickets in 140 innings (1076.3 overs)</desc><circle class="dot reactive tooltip-trigger" cx="175.82692307692307" cy="182.85490131098334" r="2.5"/><desc class="value">35.47</desc><desc class="x ">175.82692307692307</desc><desc class="y ">182.85490131098334</desc><desc class="x_label">2009</desc></g><g class="dots"><desc class="label">120 wickets in 117 innings (890.3 overs)</desc><circle class="dot reactive tooltip-trigger" cx="266.5" cy="165.63319448639493" r="2.5"/><desc class="value">37.73</desc><desc class="x ">266.5</desc><desc class="y ">165.63319448639493</desc><desc class="x_label">2010</desc></g><g class="dots"><desc class="label">102 wickets in 101 innings (758.2 overs)</desc><circle class="dot reactive tooltip-trigger" cx="329.57692307692304" cy="159.99422853498112" r="2.5"/><desc class="value">38.47</desc><desc class="x ">329.57692307692304</desc><desc class="y ">159.99422853498112</desc><desc class="x_label">2011</desc></g><g class="dots"><desc class="label">91 wickets in 84 innings (629.1 overs)</desc><circle class="dot reactive tooltip-trigger" cx="396.5961538461538" cy="175.61568826524928" r="2.5"/><desc class="value">36.42</desc><desc class="x left">396.5961538461538</desc><desc class="y left">175.61568826524928</desc><desc class="x_label">2012</desc></g><g class="dots"><desc class="label">63 wickets in 56 innings (396.1 overs)</desc><circle class="dot reactive tooltip-trigger" cx="506.9807692307692" cy="188.8748784753306" r="2.5"/><desc class="value">34.68</desc><desc class="x left">506.9807692307692</desc><desc class="y left">188.8748784753306</desc><desc class="x_label">2013</desc></g><g class="dots"><desc class="label">38 wickets in 37 innings (251.2 overs)</desc><circle class="dot reactive tooltip-trigger" cx="581.8846153846155" cy="155.95550967788733" r="2.5"/><desc class="value">39</desc><desc class="x left">581.8846153846155</desc><desc class="y left">155.95550967788733</desc><desc class="x_label">2014</desc></g><g class="dots"><desc class="label">29 wickets in 24 innings (164.3 overs)</desc><circle class="dot reactive tooltip-trigger" cx="633.1346153846154" cy="202.97229335386533" r="2.5"/><desc class="value">32.83</desc><desc class="x left">633.1346153846154</desc><desc class="y left">202.97229335386533</desc><desc class="x_label">2015</desc></g><g class="dots"><desc class="label">17 wickets in 12 innings (86.3 overs)</desc><circle class="dot reactive tooltip-trigger" cx="680.4423076923076" cy="242.90226846928255" r="2.5"/><desc class="value">27.59</desc><desc class="x left top">680.4423076923076</desc><desc class="y left top">242.90226846928255</desc><desc class="x_label">2016</desc></g><g class="dots"><desc class="label">5 wickets in 5 innings (35.3 overs)</desc><circle class="dot reactive tooltip-trigger" cx="708.0384615384615" cy="99.56585016374845" r="2.5"/><desc class="value">46.4</desc><desc class="x left">708.0384615384615</desc><desc class="y left">99.56585016374845</desc><desc class="x_label">2017</desc></g></g><g class="series serie-1 color-1"><g class="dots"><desc class="label">0 wickets over 0 innings</desc><circle class="dot reactive tooltip-trigger" cx="14.192307692307692" cy="453.1442557659166" r="2.5"/><desc class="value">0</desc><desc class="x top">14.192307692307692</desc><desc class="y top">453.1442557659166</desc><desc class="x_label">2004</desc></g><g class="dots"><desc class="label">3 wickets in 6 innings (40.0 overs)</desc><circle class="dot reactive tooltip-trigger" cx="37.84615384615385" cy="56.89259431521094" r="2.5"/><desc class="value">52</desc><desc class="x ">37.84615384615385</desc><desc class="y ">56.89259431521094</desc><desc class="x_label">2006</desc></g><g class="dots"><desc class="label">9 wickets in 15 innings (104.5 overs)</desc><circle class="dot reactive tooltip-trigger" cx="73.32692307692308" cy="64.51281857387829" r="2.5"/><desc class="value">51</desc><desc class="x ">73.32692307692308</desc><desc class="y ">64.51281857387829</desc><desc class="x_label">2007</desc></g><g class="dots"><desc class="label">12 wickets in 20 innings (141.2 overs)</desc><circle class="dot reactive tooltip-trigger" cx="93.03846153846153" cy="72.1330428325457" r="2.5"/><desc class="value">50</desc><desc class="x ">93.03846153846153</desc><desc class="y ">72.1330428325457</desc><desc class="x_label">2008</desc></g><g class="dots"><desc class="label">45 wickets in 41 innings (300.4 overs)</desc><circle class="dot reactive tooltip-trigger" cx="175.82692307692307" cy="234.90103299768174" r="2.5"/><desc class="value">28.64</desc><desc class="x top">175.82692307692307</desc><desc class="y top">234.90103299768174</desc><desc class="x_label">2009</desc></g><g class="dots"><desc class="label">79 wickets in 64 innings (486.4 overs)</desc><circle class="dot reactive tooltip-trigger" cx="266.5" cy="238.71114512701547" r="2.5"/><desc class="value">28.14</desc><desc class="x top">266.5</desc><desc class="y top">238.71114512701547</desc><desc class="x_label">2010</desc></g><g class="dots"><desc class="label">97 wickets in 80 innings (618.5 overs)</desc><circle class="dot reactive tooltip-trigger" cx="329.57692307692304" cy="231.09092086834806" r="2.5"/><desc class="value">29.14</desc><desc class="x top">329.57692307692304</desc><desc class="y top">231.09092086834806</desc><desc class="x_label">2011</desc></g><g class="dots"><desc class="label">108 wickets in 97 innings (748.0 overs)</desc><circle class="dot reactive tooltip-trigger" cx="396.5961538461538" cy="210.6687198551194" r="2.5"/><desc class="value">31.82</desc><desc class="x left">396.5961538461538</desc><desc class="y left">210.6687198551194</desc><desc class="x_label">2012</desc></g><g class="dots"><desc class="label">136 wickets in 125 innings (981.0 overs)</desc><circle class="dot reactive tooltip-trigger" cx="506.9807692307692" cy="197.3333274024514" r="2.5"/><desc class="value">33.57</desc><desc class="x left">506.9807692307692</desc><desc class="y left">197.3333274024514</desc><desc class="x_label">2013</desc></g><g class="dots"><desc class="label">161 wickets in 144 innings (1125.5 overs)</desc><circle class="dot reactive tooltip-trigger" cx="581.8846153846155" cy="203.73431577973207" r="2.5"/><desc class="value">32.73</desc><desc class="x left">581.8846153846155</desc><desc class="y left">203.73431577973207</desc><desc class="x_label">2014</desc></g><g class="dots"><desc class="label">170 wickets in 157 innings (1212.4 overs)</desc><circle class="dot reactive tooltip-trigger" cx="633.1346153846154" cy="193.21840630277103" r="2.5"/><desc class="value">34.11</desc><desc class="x left">633.1346153846154</desc><desc class="y left">193.21840630277103</desc><desc class="x_label">2015</desc></g><g class="dots"><desc class="label">182 wickets in 169 innings (1290.4 overs)</desc><circle class="dot reactive tooltip-trigger" cx="680.4423076923076" cy="190.09411435671734" r="2.5"/><desc class="value">34.52</desc><desc class="x left">680.4423076923076</desc><desc class="y left">190.09411435671734</desc><desc class="x_label">2016</desc></g><g class="dots"><desc class="label">194 wickets in 176 innings (1341.4 overs)</desc><circle class="dot reactive tooltip-trigger" cx="708.0384615384615" cy="197.10472067469135" r="2.5"/><desc class="value">33.6</desc><desc class="x left">708.0384615384615</desc><desc class="y left">197.10472067469135</desc><desc class="x_label">2017</desc></g></g><g class="series serie-2 color-2"/></g><g class="plot text-overlay" transform="translate(42, 46)"><g class="series serie-0 color-0"/><g class="series serie-1 color-1"/><g class="series serie-2 color-2"/></g><g class="plot tooltip-overlay" transform="translate(42, 46)"><g class="tooltip" style="opacity: 0" transform="translate(0 0)"><rect class="tooltip-box" height="0" rx="10" ry="10" width="0"/><g class="text"/></g></g><g class="legends" transform="translate(52, 545)"><g class="legend reactive activate-serie" id="activate-serie-0"><rect class="color-0 reactive" height="12" width="12" x="0.0" y="1.0"/><text x="17.0" y="11.2">Future Average</text></g><g class="legend reactive activate-serie" id="activate-serie-1"><rect class="color-1 reactive" height="12" width="12" x="369.0" y="1.0"/><text x="386.0" y="11.2">Past Average</text></g><g class="legend reactive activate-serie" id="activate-serie-2"><rect class="color-2 reactive" height="12" width="12" x="0.0" y="22.0"/><text x="17.0" y="32.2">Career Average</text></g></g></g></svg>