<?xml version='1.0' encoding='utf-8'?>
<svg xmlns:xlink="http://www.w3.org/1999/xlink" xmlns="http://www.w3.org/2000/svg" id="chart-805cd153-27f1-42c1-8ef6-a985e42298b5" class="pygal-chart" viewBox="0 0 800 600"><!--Generated with pygal 2.4.0 (lxml) ©Kozea 2012-2016 on 2019-08-04--><!--http://pygal.org--><!--http://github.com/Kozea/pygal--><defs><style type="text/css">#chart-805cd153-27f1-42c1-8ef6-a985e42298b5{-webkit-user-select:none;-webkit-font-smoothing:antialiased;font-family:Consolas,"Liberation Mono",Menlo,Courier,monospace}#chart-805cd153-27f1-42c1-8ef6-a985e42298b5 .title{font-family:Consolas,"Liberation Mono",Menlo,Courier,monospace;font-size:16px}#chart-805cd153-27f1-42c1-8ef6-a985e42298b5 .legends .legend text{font-family:Consolas,"Liberation Mono",Menlo,Courier,monospace;font-size:14px}#chart-805cd153-27f1-42c1-8ef6-a985e42298b5 .axis text{font-family:Consolas,"Liberation Mono",Menlo,Courier,monospace;font-size:10px}#chart-805cd153-27f1-42c1-8ef6-a985e42298b5 .axis text.major{font-family:Consolas,"Liberation Mono",Menlo,Courier,monospace;font-size:10px}#chart-805cd153-27f1-42c1-8ef6-a985e42298b5 .text-overlay text.value{font-family:Consolas,"Liberation Mono",Menlo,Courier,monospace;font-size:16px}#chart-805cd153-27f1-42c1-8ef6-a985e42298b5 .text-overlay text.label{font-family:Consolas,"Liberation Mono",Menlo,Courier,monospace;font-size:10px}#chart-805cd153-27f1-42c1-8ef6-a985e42298b5 .tooltip{font-family:Consolas,"Liberation Mono",Menlo,Courier,monospace;font-size:14px}#chart-805cd153-27f1-42c1-8ef6-a985e42298b5 text.no_data{font-family:Consolas,"Liberation Mono",Menlo,Courier,monospace;font-size:64px}
#chart-805cd153-27f1-42c1-8ef6-a985e42298b5{background-color:rgba(249,249,249,1)}#chart-805cd153-27f1-42c1-8ef6-a985e42298b5 path,#chart-805cd153-27f1-42c1-8ef6-a985e42298b5 line,#chart-805cd153-27f1-42c1-8ef6-a985e42298b5 rect,#chart-805cd153-27f1-42c1-8ef6-a985e42298b5 circle{-webkit-transition:150ms;-moz-transition:150ms;transition:150ms}#chart-805cd153-27f1-42c1-8ef6-a985e42298b5 .graph &gt; .background{fill:rgba(249,249,249,1)}#chart-805cd153-27f1-42c1-8ef6-a985e42298b5 .plot &gt; .background{fill:rgba(255,255,255,1)}#chart-805cd153-27f1-42c1-8ef6-a985e42298b5 .graph{fill:rgba(0,0,0,.87)}#chart-805cd153-27f1-42c1-8ef6-a985e42298b5 text.no_data{fill:rgba(0,0,0,1)}#chart-805cd153-27f1-42c1-8ef6-a985e42298b5 .title{fill:rgba(0,0,0,1)}#chart-805cd153-27f1-42c1-8ef6-a985e42298b5 .legends .legend text{fill:rgba(0,0,0,.87)}#chart-805cd153-27f1-42c1-8ef6-a985e42298b5 .legends .legend:hover text{fill:rgba(0,0,0,1)}#chart-805cd153-27f1-42c1-8ef6-a985e42298b5 .axis .line{stroke:rgba(0,0,0,1)}#chart-805cd153-27f1-42c1-8ef6-a985e42298b5 .axis .guide.line{stroke:rgba(0,0,0,.54)}#chart-805cd153-27f1-42c1-8ef6-a985e42298b5 .axis .major.line{stroke:rgba(0,0,0,.87)}#chart-805cd153-27f1-42c1-8ef6-a985e42298b5 .axis text.major{fill:rgba(0,0,0,1)}#chart-805cd153-27f1-42c1-8ef6-a985e42298b5 .axis.y .guides:hover .guide.line,#chart-805cd153-27f1-42c1-8ef6-a985e42298b5 .line-graph .axis.x .guides:hover .guide.line,#chart-805cd153-27f1-42c1-8ef6-a985e42298b5 .stackedline-graph .axis.x .guides:hover .guide.line,#chart-805cd153-27f1-42c1-8ef6-a985e42298b5 .xy-graph .axis.x .guides:hover .guide.line{stroke:rgba(0,0,0,1)}#chart-805cd153-27f1-42c1-8ef6-a985e42298b5 .axis .guides:hover text{fill:rgba(0,0,0,1)}#chart-805cd153-27f1-42c1-8ef6-a985e42298b5 .reactive{fill-opacity:.7;stroke-opacity:.8}#chart-805cd153-27f1-42c1-8ef6-a985e42298b5 .ci{stroke:rgba(0,0,0,.87)}#chart-805cd153-27f1-42c1-8ef6-a985e42298b5 .reactive.active,#chart-805cd153-27f1-42c1-8ef6-a985e42298b5 .active .reactive{fill-opacity:.8;stroke-opacity:.9;stroke-width:4}#chart-805cd153-27f1-42c1-8ef6-a985e42298b5 .ci .reactive.active{stroke-width:1.5}#chart-805cd153-27f1-42c1-8ef6-a985e42298b5 .series text{fill:rgba(0,0,0,1)}#chart-805cd153-27f1-42c1-8ef6-a985e42298b5 .tooltip rect{fill:rgba(255,255,255,1);stroke:rgba(0,0,0,1);-webkit-transition:opacity 150ms;-moz-transition:opacity 150ms;transition:opacity 150ms}#chart-805cd153-27f1-42c1-8ef6-a985e42298b5 .tooltip .label{fill:rgba(0,0,0,.87)}#chart-805cd153-27f1-42c1-8ef6-a985e42298b5 .tooltip .label{fill:rgba(0,0,0,.87)}#chart-805cd153-27f1-42c1-8ef6-a985e42298b5 .tooltip .legend{font-size:.8em;fill:rgba(0,0,0,.54)}#chart-805cd153-27f1-42c1-8ef6-a985e42298b5 .tooltip .x_label{font-size:.6em;fill:rgba(0,0,0,1)}#chart-805cd153-27f1-42c1-8ef6-a985e42298b5 .tooltip .xlink{font-size:.5em;text-decoration:underline}#chart-805cd153-27f1-42c1-8ef6-a985e42298b5 .tooltip .value{font-size:1.5em}#chart-805cd153-27f1-42c1-8ef6-a985e42298b5 .bound{font-size:.5em}#chart-805cd153-27f1-42c1-8ef6-a985e42298b5 .max-value{font-size:.75em;fill:rgba(0,0,0,.54)}#chart-805cd153-27f1-42c1-8ef6-a985e42298b5 .map-element{fill:rgba(255,255,255,1);stroke:rgba(0,0,0,.54) !important}#chart-805cd153-27f1-42c1-8ef6-a985e42298b5 .map-element .reactive{fill-opacity:inherit;stroke-opacity:inherit}#chart-805cd153-27f1-42c1-8ef6-a985e42298b5 .color-0,#chart-805cd153-27f1-42c1-8ef6-a985e42298b5 .color-0 a:visited{stroke:red;fill:red}#chart-805cd153-27f1-42c1-8ef6-a985e42298b5 .color-1,#chart-805cd153-27f1-42c1-8ef6-a985e42298b5 .color-1 a:visited{stroke:blue;fill:blue}#chart-805cd153-27f1-42c1-8ef6-a985e42298b5 .color-2,#chart-805cd153-27f1-42c1-8ef6-a985e42298b5 .color-2 a:visited{stroke:green;fill:green}#chart-805cd153-27f1-42c1-8ef6-a985e42298b5 .text-overlay .color-0 text{fill:white}#chart-805cd153-27f1-42c1-8ef6-a985e42298b5 .text-overlay .color-1 text{fill:white}#chart-805cd153-27f1-42c1-8ef6-a985e42298b5 .text-overlay .color-2 text{fill:white}
#chart-805cd153-27f1-42c1-8ef6-a985e42298b5 text.no_data{text-anchor:middle}#chart-805cd153-27f1-42c1-8ef6-a985e42298b5 .guide.line{fill:none}#chart-805cd153-27f1-42c1-8ef6-a985e42298b5 .centered{text-anchor:middle}#chart-805cd153-27f1-42c1-8ef6-a985e42298b5 .title{text-anchor:middle}#chart-805cd153-27f1-42c1-8ef6-a985e42298b5 .legends .legend text{fill-opacity:1}#chart-805cd153-27f1-42c1-8ef6-a985e42298b5 .axis.x text{text-anchor:middle}#chart-805cd153-27f1-42c1-8ef6-a985e42298b5 .axis.x:not(.web) text[transform]{text-anchor:start}#chart-805cd153-27f1-42c1-8ef6-a985e42298b5 .axis.x:not(.web) text[transform].backwards{text-anchor:end}#chart-805cd153-27f1-42c1-8ef6-a985e42298b5 .axis.y text{text-anchor:end}#chart-805cd153-27f1-42c1-8ef6-a985e42298b5 .axis.y text[transform].backwards{text-anchor:start}#chart-805cd153-27f1-42c1-8ef6-a985e42298b5 .axis.y2 text{text-anchor:start}#chart-805cd153-27f1-42c1-8ef6-a985e42298b5 .axis.y2 text[transform].backwards{text-anchor:end}#chart-805cd153-27f1-42c1-8ef6-a985e42298b5 .axis .guide.line{stroke-dasharray:4,4}#chart-805cd153-27f1-42c1-8ef6-a985e42298b5 .axis .major.guide.line{stroke-dasharray:6,6}#chart-805cd153-27f1-42c1-8ef6-a985e42298b5 .horizontal .axis.y .guide.line,#chart-805cd153-27f1-42c1-8ef6-a985e42298b5 .horizontal .axis.y2 .guide.line,#chart-805cd153-27f1-42c1-8ef6-a985e42298b5 .vertical .axis.x .guide.line{opacity:0}#chart-805cd153-27f1-42c1-8ef6-a985e42298b5 .horizontal .axis.always_show .guide.line,#chart-805cd153-27f1-42c1-8ef6-a985e42298b5 .vertical .axis.always_show .guide.line{opacity:1 !important}#chart-805cd153-27f1-42c1-8ef6-a985e42298b5 .axis.y .guides:hover .guide.line,#chart-805cd153-27f1-42c1-8ef6-a985e42298b5 .axis.y2 .guides:hover .guide.line,#chart-805cd153-27f1-42c1-8ef6-a985e42298b5 .axis.x .guides:hover .guide.line{opacity:1}#chart-805cd153-27f1-42c1-8ef6-a985e42298b5 .axis .guides:hover text{opacity:1}#chart-805cd153-27f1-42c1-8ef6-a985e42298b5 .nofill{fill:none}#chart-805cd153-27f1-42c1-8ef6-a985e42298b5 .subtle-fill{fill-opacity:.2}#chart-805cd153-27f1-42c1-8ef6-a985e42298b5 .dot{stroke-width:1px;fill-opacity:1}#chart-805cd153-27f1-42c1-8ef6-a985e42298b5 .dot.active{stroke-width:5px}#chart-805cd153-27f1-42c1-8ef6-a985e42298b5 .dot.negative{fill:transparent}#chart-805cd153-27f1-42c1-8ef6-a985e42298b5 text,#chart-805cd153-27f1-42c1-8ef6-a985e42298b5 tspan{stroke:none !important}#chart-805cd153-27f1-42c1-8ef6-a985e42298b5 .series text.active{opacity:1}#chart-805cd153-27f1-42c1-8ef6-a985e42298b5 .tooltip rect{fill-opacity:.95;stroke-width:.5}#chart-805cd153-27f1-42c1-8ef6-a985e42298b5 .tooltip text{fill-opacity:1}#chart-805cd153-27f1-42c1-8ef6-a985e42298b5 .showable{visibility:hidden}#chart-805cd153-27f1-42c1-8ef6-a985e42298b5 .showable.shown{visibility:visible}#chart-805cd153-27f1-42c1-8ef6-a985e42298b5 .gauge-background{fill:rgba(229,229,229,1);stroke:none}#chart-805cd153-27f1-42c1-8ef6-a985e42298b5 .bg-lines{stroke:rgba(249,249,249,1);stroke-width:2px}</style><script type="text/javascript">window.pygal = window.pygal || {};window.pygal.config = window.pygal.config || {};window.pygal.config['805cd153-27f1-42c1-8ef6-a985e42298b5'] = {"allow_interruptions": false, "box_mode": "extremes", "classes": ["pygal-chart"], "css": ["file://style.css", "file://graph.css"], "defs": [], "disable_xml_declaration": false, "dots_size": 2.5, "dynamic_print_values": false, "explicit_size": false, "fill": false, "force_uri_protocol": "https", "formatter": null, "half_pie": false, "height": 600, "include_x_axis": false, "inner_radius": 0, "interpolate": null, "interpolation_parameters": {}, "interpolation_precision": 250, "inverse_y_axis": false, "js": ["//kozea.github.io/pygal.js/2.0.x/pygal-tooltips.min.js"], "legend_at_bottom": true, "legend_at_bottom_columns": null, "legend_box_size": 12, "logarithmic": false, "margin": 20, "margin_bottom": null, "margin_left": null, "margin_right": null, "margin_top": null, "max_scale": 16, "min_scale": 4, "missing_value_fill_truncation": "x", "no_data_text": "No data", "no_prefix": false, "order_min": null, "pretty_print": false, "print_labels": false, "print_values": false, "print_values_position": "center", "print_zeroes": true, "range": null, "rounded_bars": null, "secondary_range": null, "show_dots": true, "show_legend": true, "show_minor_x_labels": false, "show_minor_y_labels": true, "show_only_major_dots": false, "show_x_guides": false, "show_x_labels": true, "show_y_guides": true, "show_y_labels": true, "spacing": 10, "stack_from_top": false, "strict": false, "stroke": true, "stroke_style": null, "style": {"background": "rgba(249, 249, 249, 1)", "ci_colors": [], "colors": ["red", "blue", "green", "#a3a3a3"], "font_family": "Consolas, \"Liberation Mono\", Menlo, Courier, monospace", "foreground": "rgba(0, 0, 0, .87)", "foreground_strong": "rgba(0, 0, 0, 1)", "foreground_subtle": "rgba(0, 0, 0, .54)", "guide_stroke_dasharray": "4,4", "label_font_family": "Consolas, \"Liberation Mono\", Menlo, Courier, monospace", "label_font_size": 10, "legend_font_family": "Consolas, \"Liberation Mono\", Menlo, Courier, monospace", "legend_font_size": 14, "major_guide_stroke_dasharray": "6,6", "major_label_font_family": "Consolas, \"Liberation Mono\", Menlo, Courier, monospace", "major_label_font_size": 10, "no_data_font_family": "Consolas, \"Liberation Mono\", Menlo, Courier, monospace", "no_data_font_size": 64, "opacity": ".7", "opacity_hover": ".8", "plot_background": "rgba(255, 255, 255, 1)", "stroke_opacity": ".8", "stroke_opacity_hover": ".9", "title_font_family": "Consolas, \"Liberation Mono\", Menlo, Courier, monospace", "title_font_size": 16, "tooltip_font_family": "Consolas, \"Liberation Mono\", Menlo, Courier, monospace", "tooltip_font_size": 14, "transition": "150ms", "value_background": "rgba(229, 229, 229, 1)", "value_colors": [], "value_font_family": "Consolas, \"Liberation Mono\", Menlo, Courier, monospace", "value_font_size": 16, "value_label_font_family": "Consolas, \"Liberation Mono\", Menlo, Courier, monospace", "value_label_font_size": 10}, "title": "L Klusener: Future and Past Averages in ODIs", "tooltip_border_radius": 10, "tooltip_fancy_mode": true, "truncate_label": null, "truncate_legend": null, "width": 800, "x_label_rotation": 45, "x_labels": ["1996", "0", "0", "0", "1997", "0", "0", "0", "0", "0", "0", "0", "0", "0", "0", "0", "0", "0", "0", "0", "0", "0", "0", "1998", "0", "0", "0", "0", "0", "0", "0", "0", "0", "0", "0", "0", "0", "0", "0", "1999", "0", "0", "0", "0", "0", "0", "0", "0", "0", "0", "0", "0", "0", "0", "0", "0", "0", "0", "0", "0", "0", "0", "0", "0", "0", "2000", "0", "0", "0", "0", "0", "0", "0", "0", "0", "0", "0", "0", "0", "0", "0", "0", "0", "0", "0", "0", "0", "0", "0", "0", "0", "0", "0", "0", "0", "0", "0", "0", "0", "0", "0", "2001", "0", "0", "0", "0", "0", "0", "0", "0", "0", "0", "0", "0", "0", "0", "2002", "0", "0", "0", "0", "0", "0", "0", "0", "0", "0", "0", "0", "0", "0", "0", "0", "0", "0", "0", "0", "0", "0", "0", "0", "0", "0", "2003", "0", "0", "0", "2004", "0", "0", "0", "0", "0", "0", "0", "0", "0", "0", "0", "0", "0", "0", "0", "0"], "x_labels_major": ["1996", "1997", "1998", "1999", "2000", "2001", "2002", "2003", "2004"], "x_labels_major_count": null, "x_labels_major_every": null, "x_title": null, "xrange": null, "y_label_rotation": 0, "y_labels": null, "y_labels_major": null, "y_labels_major_count": null, "y_labels_major_every": null, "y_title": null, "zero": 130.0, "legends": ["Future Average", "Past Average", "Career Average"]}</script><script type="text/javascript" xlink:href="https://kozea.github.io/pygal.js/2.0.x/pygal-tooltips.min.js"/></defs><title>L Klusener: Future and Past Averages in ODIs</title><g class="graph line-graph vertical"><rect class="background" height="600" width="800" x="0" y="0"/><g class="plot" transform="translate(48, 46)"><rect class="background" height="462.02943725152284" width="732.0" x="0" y="0"/><g class="axis y always_show"><g class="guides"><path class="axis major line" d="M0.000000 453.144256 h732.000000"/><text class="major" x="-5" y="456.6442557659166">0</text><title>0</title></g><g class="guides"><path class="guide line" d="M0.000000 417.316911 h732.000000"/><text class="" x="-5" y="420.8169110658916">10</text><title>10</title></g><g class="guides"><path class="guide line" d="M0.000000 381.489566 h732.000000"/><text class="" x="-5" y="384.98956636586655">20</text><title>20</title></g><g class="guides"><path class="guide line" d="M0.000000 345.662222 h732.000000"/><text class="" x="-5" y="349.16222166584157">30</text><title>30</title></g><g class="guides"><path class="guide line" d="M0.000000 309.834877 h732.000000"/><text class="" x="-5" y="313.33487696581653">40</text><title>40</title></g><g class="guides"><path class="major guide line" d="M0.000000 274.007532 h732.000000"/><text class="major" x="-5" y="277.5075322657915">50</text><title>50</title></g><g class="guides"><path class="guide line" d="M0.000000 238.180188 h732.000000"/><text class="" x="-5" y="241.68018756576646">60</text><title>60</title></g><g class="guides"><path class="guide line" d="M0.000000 202.352843 h732.000000"/><text class="" x="-5" y="205.85284286574142">70</text><title>70</title></g><g class="guides"><path class="guide line" d="M0.000000 166.525498 h732.000000"/><text class="" x="-5" y="170.02549816571639">80</text><title>80</title></g><g class="guides"><path class="guide line" d="M0.000000 130.698153 h732.000000"/><text class="" x="-5" y="134.19815346569135">90</text><title>90</title></g><g class="guides"><path class="major guide line" d="M0.000000 94.870809 h732.000000"/><text class="major" x="-5" y="98.37080876566631">100</text><title>100</title></g><g class="guides"><path class="guide line" d="M0.000000 59.043464 h732.000000"/><text class="" x="-5" y="62.543464065641274">110</text><title>110</title></g><g class="guides"><path class="guide line" d="M0.000000 23.216119 h732.000000"/><text class="" x="-5" y="26.716119365616237">120</text><title>120</title></g></g><g class="axis x"><g class="guides"><path class="major line" d="M14.076923 0.000000 v462.029437"/><text class="major" x="14.076923076923077" y="477.02943725152284" transform="rotate(45 14.076923 477.029437)">1996</text></g><g class="guides"><path class="major guide line" d="M31.349221 0.000000 v462.029437"/><text class="major" x="31.349221330816427" y="477.02943725152284" transform="rotate(45 31.349221 477.029437)">1997</text></g><g class="guides"><path class="major guide line" d="M113.392638 0.000000 v462.029437"/><text class="major" x="113.3926380368098" y="477.02943725152284" transform="rotate(45 113.392638 477.029437)">1998</text></g><g class="guides"><path class="major guide line" d="M182.481831 0.000000 v462.029437"/><text class="major" x="182.48183105238323" y="477.02943725152284" transform="rotate(45 182.481831 477.029437)">1999</text></g><g class="guides"><path class="major guide line" d="M294.751770 0.000000 v462.029437"/><text class="major" x="294.75176970268996" y="477.02943725152284" transform="rotate(45 294.751770 477.029437)">2000</text></g><g class="guides"><path class="major guide line" d="M450.202454 0.000000 v462.029437"/><text class="major" x="450.20245398773" y="477.02943725152284" transform="rotate(45 450.202454 477.029437)">2001</text></g><g class="guides"><path class="major guide line" d="M514.973572 0.000000 v462.029437"/><text class="major" x="514.97357243983" y="477.02943725152284" transform="rotate(45 514.973572 477.029437)">2002</text></g><g class="guides"><path class="major guide line" d="M631.561586 0.000000 v462.029437"/><text class="major" x="631.5615856536102" y="477.02943725152284" transform="rotate(45 631.561586 477.029437)">2003</text></g><g class="guides"><path class="major guide line" d="M648.833884 0.000000 v462.029437"/><text class="major" x="648.8338839075035" y="477.02943725152284" transform="rotate(45 648.833884 477.029437)">2004</text></g></g><g class="series serie-0 color-0"><path class="line reactive nofill" d="M14.076923 345.841358 L18.394998 346.199632 22.713072 346.092150 27.031147 346.557905 31.349221 347.059488 35.667296 344.981502 39.985370 345.124811 44.303445 345.877186 48.621520 346.629560 52.939594 347.202797 57.257669 347.166970 61.575743 346.665387 65.893818 346.342941 70.211892 345.698049 74.529967 346.701215 78.848042 345.698049 83.166116 346.092150 87.484191 346.987833 91.802265 344.193301 96.120340 344.157473 100.438414 344.229128 104.756489 345.447258 109.074563 342.616897 113.392638 341.542077 117.710713 342.796034 122.028787 344.300783 126.346862 345.232294 130.664936 345.160639 134.983011 346.020495 139.301085 345.948840 143.619160 346.629560 147.937235 345.232294 152.255309 346.342941 156.573384 346.844524 160.891458 347.990999 165.209533 347.202797 169.527607 344.049991 173.845682 344.121646 178.163756 344.838193 182.481831 345.984668 186.799906 345.411430 191.117980 345.698049 195.436055 345.733876 199.754129 346.665387 204.072204 345.518912 208.390278 344.372437 212.708353 342.688552 217.026428 342.796034 221.344502 342.616897 225.662577 342.581070 229.980651 341.936178 234.298726 342.007833 238.616800 340.753875 242.934875 339.894019 247.252950 337.529414 251.571024 337.027832 255.889099 332.298622 260.207173 332.370277 264.525248 332.621068 268.843322 331.904521 273.161397 332.549414 277.479471 334.304953 281.797546 334.985673 286.115621 334.878191 290.433695 333.552579 294.751770 332.298622 299.069844 331.510421 303.387919 332.477759 307.705993 331.187974 312.024068 331.617903 316.342143 333.588407 320.660217 332.406104 324.978292 330.793874 329.296366 331.259629 333.614441 329.432435 337.932515 330.328118 342.250590 324.739052 346.568664 323.055167 350.886739 320.905526 355.204814 318.648404 359.522888 319.938188 363.840963 318.505094 368.159037 320.726390 372.477112 316.892864 376.795186 317.824375 381.113261 319.185814 385.431336 319.472433 389.749410 321.729555 394.067485 319.974016 398.385559 319.436605 402.703634 321.837037 407.021708 321.084663 411.339783 318.863368 415.657857 320.762217 419.975932 320.296462 424.294007 319.974016 428.612081 321.729555 432.930156 324.631570 437.248230 326.207973 441.566305 327.820204 445.884379 327.246966 450.202454 327.067830 454.520529 329.038334 458.838603 329.038334 463.156678 330.901356 467.474752 328.321787 471.792827 327.999341 476.110901 330.077327 480.428976 331.510421 484.747050 330.256463 489.065125 330.328118 493.383200 331.689557 497.701274 331.116320 502.019349 328.321787 506.337423 331.259629 510.655498 329.432435 514.973572 328.214305 519.291647 328.070995 523.609722 326.924520 527.927796 327.999341 532.245871 327.390276 536.563945 328.787542 540.882020 324.918189 545.200094 320.869699 549.518169 323.485095 553.836244 325.993009 558.154318 327.856031 562.472393 321.335455 566.790467 322.052002 571.108542 315.818044 575.426616 314.277468 579.744691 308.652575 584.062765 312.486100 588.380840 315.531425 592.698915 315.746389 597.016989 319.472433 601.335064 311.769554 605.653138 317.430274 609.971213 316.068835 614.289287 319.794879 618.607362 323.377613 622.925437 323.843369 627.243511 326.458765 631.561586 331.331284 635.879660 334.555745 640.197735 310.049841 644.515809 317.860202 648.833884 324.380779 653.151958 299.086674 657.470033 296.865378 661.788108 283.465951 666.106182 300.054012 670.424257 299.803220 674.742331 278.951706 679.060406 282.211994 683.378480 302.167825 687.696555 263.259329 692.014630 282.606095 696.332704 286.547103 700.650779 262.077026 704.968853 8.885181 709.286928 145.029091 713.605002 295.503939 717.923077 338.496753"/></g><g class="series serie-1 color-1"><path class="line reactive nofill" d="M14.076923 453.144256 L18.394998 385.072301 22.713072 322.374448 27.031147 300.268976 31.349221 269.242495 35.667296 365.367261 39.985370 359.993160 44.303445 344.874020 48.621520 329.324952 52.939594 318.182648 57.257669 323.843369 61.575743 334.089989 65.893818 339.929847 70.211892 347.131143 74.529967 337.027832 78.848042 347.095315 83.166116 343.620063 87.484191 336.454594 91.802265 355.873015 96.120340 355.658051 100.438414 354.798195 104.756489 347.883517 109.074563 360.853016 113.392638 363.862513 117.710713 358.524238 122.028787 352.254453 126.346862 348.277618 130.664936 348.492582 134.983011 345.088984 139.301085 345.375603 143.619160 342.867689 147.937235 347.847690 152.255309 344.121646 156.573384 342.545243 160.891458 338.819199 165.209533 341.613732 169.527607 350.606395 173.845682 350.319776 178.163756 348.385100 182.481831 345.411430 186.799906 346.808697 191.117980 346.092150 195.436055 346.020495 199.754129 343.870854 204.072204 346.486251 208.390278 348.886683 212.708353 352.003662 217.026428 351.645388 221.344502 351.824525 225.662577 351.788698 229.980651 352.612727 234.298726 352.361935 238.616800 354.117475 242.934875 354.905677 247.252950 357.664382 251.571024 358.165965 255.889099 362.859347 260.207173 362.393592 264.525248 361.748699 268.843322 361.963664 273.161397 360.853016 277.479471 358.882512 281.797546 358.130138 286.115621 357.986828 290.433695 358.918339 294.751770 359.670713 299.069844 359.849850 303.387919 358.918339 307.705993 359.599059 312.024068 358.918339 316.342143 357.091145 320.660217 357.664382 324.978292 358.560066 329.296366 358.165965 333.614441 358.846685 337.932515 358.165965 342.250590 360.888843 346.568664 361.390426 350.886739 362.142800 355.204814 362.895174 359.522888 362.071146 363.840963 362.214455 368.159037 360.888843 372.477112 362.071146 376.795186 361.533735 381.113261 360.781361 385.431336 360.279778 389.749410 359.025821 394.067485 359.384095 398.385559 359.348267 402.703634 358.094310 407.021708 358.201792 411.339783 358.703375 415.657857 357.771864 419.975932 357.736037 424.294007 357.592727 428.612081 356.804526 432.930156 355.443087 437.248230 354.762367 441.566305 354.009993 445.884379 354.081648 450.202454 353.938338 454.520529 353.078482 458.838603 353.078482 463.156678 352.290280 467.474752 353.042655 471.792827 352.971000 476.110901 352.146971 480.428976 351.573734 484.747050 351.932007 489.065125 351.752870 493.383200 351.072151 497.701274 351.143805 502.019349 351.824525 506.337423 350.821359 510.655498 351.143805 514.973572 351.394597 519.291647 351.251287 523.609722 351.287115 527.927796 350.821359 532.245871 350.821359 536.563945 350.463086 540.882020 351.179633 545.200094 351.788698 549.518169 351.179633 553.836244 350.570568 558.154318 349.997330 562.472393 350.928841 566.790467 350.606395 571.108542 351.394597 575.426616 351.430424 579.744691 351.932007 584.062765 351.287115 588.380840 350.785532 592.698915 350.534741 597.016989 349.961503 601.335064 350.678050 605.653138 349.889848 609.971213 349.889848 614.289287 349.388266 618.607362 348.886683 622.925437 348.671719 627.243511 348.349273 631.561586 347.704380 635.879660 347.202797 640.197735 349.316611 644.515809 348.564237 648.833884 347.919344 653.151958 349.495748 657.470033 349.388266 661.788108 349.603230 666.106182 348.600064 670.424257 348.349273 674.742331 348.743373 679.060406 348.241790 683.378480 347.489416 687.696555 348.026826 692.014630 347.525244 696.332704 347.095315 700.650779 347.166970 704.968853 347.596898 709.286928 346.880351 713.605002 346.665387 717.923077 346.414596"/></g><g class="series serie-2 color-2"><path class="line reactive nofill" d="M14.076923 345.841358 L18.394998 345.841358 22.713072 345.841358 27.031147 345.841358 31.349221 345.841358 35.667296 345.841358 39.985370 345.841358 44.303445 345.841358 48.621520 345.841358 52.939594 345.841358 57.257669 345.841358 61.575743 345.841358 65.893818 345.841358 70.211892 345.841358 74.529967 345.841358 78.848042 345.841358 83.166116 345.841358 87.484191 345.841358 91.802265 345.841358 96.120340 345.841358 100.438414 345.841358 104.756489 345.841358 109.074563 345.841358 113.392638 345.841358 117.710713 345.841358 122.028787 345.841358 126.346862 345.841358 130.664936 345.841358 134.983011 345.841358 139.301085 345.841358 143.619160 345.841358 147.937235 345.841358 152.255309 345.841358 156.573384 345.841358 160.891458 345.841358 165.209533 345.841358 169.527607 345.841358 173.845682 345.841358 178.163756 345.841358 182.481831 345.841358 186.799906 345.841358 191.117980 345.841358 195.436055 345.841358 199.754129 345.841358 204.072204 345.841358 208.390278 345.841358 212.708353 345.841358 217.026428 345.841358 221.344502 345.841358 225.662577 345.841358 229.980651 345.841358 234.298726 345.841358 238.616800 345.841358 242.934875 345.841358 247.252950 345.841358 251.571024 345.841358 255.889099 345.841358 260.207173 345.841358 264.525248 345.841358 268.843322 345.841358 273.161397 345.841358 277.479471 345.841358 281.797546 345.841358 286.115621 345.841358 290.433695 345.841358 294.751770 345.841358 299.069844 345.841358 303.387919 345.841358 307.705993 345.841358 312.024068 345.841358 316.342143 345.841358 320.660217 345.841358 324.978292 345.841358 329.296366 345.841358 333.614441 345.841358 337.932515 345.841358 342.250590 345.841358 346.568664 345.841358 350.886739 345.841358 355.204814 345.841358 359.522888 345.841358 363.840963 345.841358 368.159037 345.841358 372.477112 345.841358 376.795186 345.841358 381.113261 345.841358 385.431336 345.841358 389.749410 345.841358 394.067485 345.841358 398.385559 345.841358 402.703634 345.841358 407.021708 345.841358 411.339783 345.841358 415.657857 345.841358 419.975932 345.841358 424.294007 345.841358 428.612081 345.841358 432.930156 345.841358 437.248230 345.841358 441.566305 345.841358 445.884379 345.841358 450.202454 345.841358 454.520529 345.841358 458.838603 345.841358 463.156678 345.841358 467.474752 345.841358 471.792827 345.841358 476.110901 345.841358 480.428976 345.841358 484.747050 345.841358 489.065125 345.841358 493.383200 345.841358 497.701274 345.841358 502.019349 345.841358 506.337423 345.841358 510.655498 345.841358 514.973572 345.841358 519.291647 345.841358 523.609722 345.841358 527.927796 345.841358 532.245871 345.841358 536.563945 345.841358 540.882020 345.841358 545.200094 345.841358 549.518169 345.841358 553.836244 345.841358 558.154318 345.841358 562.472393 345.841358 566.790467 345.841358 571.108542 345.841358 575.426616 345.841358 579.744691 345.841358 584.062765 345.841358 588.380840 345.841358 592.698915 345.841358 597.016989 345.841358 601.335064 345.841358 605.653138 345.841358 609.971213 345.841358 614.289287 345.841358 618.607362 345.841358 622.925437 345.841358 627.243511 345.841358 631.561586 345.841358 635.879660 345.841358 640.197735 345.841358 644.515809 345.841358 648.833884 345.841358 653.151958 345.841358 657.470033 345.841358 661.788108 345.841358 666.106182 345.841358 670.424257 345.841358 674.742331 345.841358 679.060406 345.841358 683.378480 345.841358 687.696555 345.841358 692.014630 345.841358 696.332704 345.841358 700.650779 345.841358 704.968853 345.841358 709.286928 345.841358 713.605002 345.841358 717.923077 345.841358"/></g></g><g class="titles"><text class="title plot_title" x="400.0" y="26">L Klusener: Future and Past Averages in ODIs</text></g><g class="plot overlay" transform="translate(48, 46)"><g class="series serie-0 color-0"><g class="dots"><desc class="label">192 wickets in 164 innings (1222.4 overs)</desc><circle class="dot reactive tooltip-trigger" cx="14.076923076923077" cy="345.8413583893417" r="2.5"/><desc class="value">29.95</desc><desc class="x top">14.076923076923077</desc><desc class="y top">345.8413583893417</desc><desc class="x_label">1996</desc></g><g class="dots"><desc class="label">189 wickets in 160 innings (1198.4 overs)</desc><circle class="dot reactive tooltip-trigger" cx="31.349221330816427" cy="347.05948810914253" r="2.5"/><desc class="value">29.61</desc><desc class="x top">31.349221330816427</desc><desc class="y top">347.05948810914253</desc><desc class="x_label">1997</desc></g><g class="dots"><desc class="label">155 wickets in 141 innings (1041.5 overs)</desc><circle class="dot reactive tooltip-trigger" cx="113.3926380368098" cy="341.5420770253387" r="2.5"/><desc class="value">31.15</desc><desc class="x top">113.3926380368098</desc><desc class="y top">341.5420770253387</desc><desc class="x_label">1998</desc></g><g class="dots"><desc class="label">138 wickets in 125 innings (903.5 overs)</desc><circle class="dot reactive tooltip-trigger" cx="182.48183105238323" cy="345.9846677681418" r="2.5"/><desc class="value">29.91</desc><desc class="x top">182.48183105238323</desc><desc class="y top">345.9846677681418</desc><desc class="x_label">1999</desc></g><g class="dots"><desc class="label">97 wickets in 99 innings (710.0 overs)</desc><circle class="dot reactive tooltip-trigger" cx="294.75176970268996" cy="332.2986220927322" r="2.5"/><desc class="value">33.73</desc><desc class="x top">294.75176970268996</desc><desc class="y top">332.2986220927322</desc><desc class="x_label">2000</desc></g><g class="dots"><desc class="label">58 wickets in 63 innings (433.0 overs)</desc><circle class="dot reactive tooltip-trigger" cx="450.20245398773" cy="327.0678297665286" r="2.5"/><desc class="value">35.19</desc><desc class="x left top">450.20245398773</desc><desc class="y left top">327.0678297665286</desc><desc class="x_label">2001</desc></g><g class="dots"><desc class="label">46 wickets in 48 innings (336.2 overs)</desc><circle class="dot reactive tooltip-trigger" cx="514.97357243983" cy="328.21430479692935" r="2.5"/><desc class="value">34.87</desc><desc class="x left top">514.97357243983</desc><desc class="y left top">328.21430479692935</desc><desc class="x_label">2002</desc></g><g class="dots"><desc class="label">22 wickets in 21 innings (152.0 overs)</desc><circle class="dot reactive tooltip-trigger" cx="631.5615856536102" cy="331.3312837858315" r="2.5"/><desc class="value">34</desc><desc class="x left top">631.5615856536102</desc><desc class="y left top">331.3312837858315</desc><desc class="x_label">2003</desc></g><g class="dots"><desc class="label">17 wickets in 17 innings (127.0 overs)</desc><circle class="dot reactive tooltip-trigger" cx="648.8338839075035" cy="324.3807789140267" r="2.5"/><desc class="value">35.94</desc><desc class="x left top">648.8338839075035</desc><desc class="y left top">324.3807789140267</desc><desc class="x_label">2004</desc></g></g><g class="series serie-1 color-1"><g class="dots"><desc class="label">0 wickets over 0 innings</desc><circle class="dot reactive tooltip-trigger" cx="14.076923076923077" cy="453.1442557659166" r="2.5"/><desc class="value">0</desc><desc class="x top">14.076923076923077</desc><desc class="y top">453.1442557659166</desc><desc class="x_label">1996</desc></g><g class="dots"><desc class="label">3 wickets in 4 innings (24.0 overs)</desc><circle class="dot reactive tooltip-trigger" cx="31.349221330816427" cy="269.24249542068816" r="2.5"/><desc class="value">51.33</desc><desc class="x top">31.349221330816427</desc><desc class="y top">269.24249542068816</desc><desc class="x_label">1997</desc></g><g class="dots"><desc class="label">37 wickets in 23 innings (180.5 overs)</desc><circle class="dot reactive tooltip-trigger" cx="113.3926380368098" cy="363.8625127734542" r="2.5"/><desc class="value">24.92</desc><desc class="x top">113.3926380368098</desc><desc class="y top">363.8625127734542</desc><desc class="x_label">1998</desc></g><g class="dots"><desc class="label">54 wickets in 39 innings (318.5 overs)</desc><circle class="dot reactive tooltip-trigger" cx="182.48183105238323" cy="345.4114302529414" r="2.5"/><desc class="value">30.07</desc><desc class="x top">182.48183105238323</desc><desc class="y top">345.4114302529414</desc><desc class="x_label">1999</desc></g><g class="dots"><desc class="label">95 wickets in 65 innings (512.4 overs)</desc><circle class="dot reactive tooltip-trigger" cx="294.75176970268996" cy="359.67071344355134" r="2.5"/><desc class="value">26.09</desc><desc class="x top">294.75176970268996</desc><desc class="y top">359.67071344355134</desc><desc class="x_label">2000</desc></g><g class="dots"><desc class="label">134 wickets in 101 innings (789.4 overs)</desc><circle class="dot reactive tooltip-trigger" cx="450.20245398773" cy="353.9383382915473" r="2.5"/><desc class="value">27.69</desc><desc class="x left top">450.20245398773</desc><desc class="y left top">353.9383382915473</desc><desc class="x_label">2001</desc></g><g class="dots"><desc class="label">146 wickets in 116 innings (886.2 overs)</desc><circle class="dot reactive tooltip-trigger" cx="514.97357243983" cy="351.3945968178455" r="2.5"/><desc class="value">28.4</desc><desc class="x left top">514.97357243983</desc><desc class="y left top">351.3945968178455</desc><desc class="x_label">2002</desc></g><g class="dots"><desc class="label">170 wickets in 143 innings (1070.4 overs)</desc><circle class="dot reactive tooltip-trigger" cx="631.5615856536102" cy="347.70438031374294" r="2.5"/><desc class="value">29.43</desc><desc class="x left top">631.5615856536102</desc><desc class="y left top">347.70438031374294</desc><desc class="x_label">2003</desc></g><g class="dots"><desc class="label">175 wickets in 147 innings (1095.4 overs)</desc><circle class="dot reactive tooltip-trigger" cx="648.8338839075035" cy="347.9193443819431" r="2.5"/><desc class="value">29.37</desc><desc class="x left top">648.8338839075035</desc><desc class="y left top">347.9193443819431</desc><desc class="x_label">2004</desc></g></g><g class="series serie-2 color-2"/></g><g class="plot text-overlay" transform="translate(48, 46)"><g class="series serie-0 color-0"/><g class="series serie-1 color-1"/><g class="series serie-2 color-2"/></g><g class="plot tooltip-overlay" transform="translate(48, 46)"><g class="tooltip" style="opacity: 0" transform="translate(0 0)"><rect class="tooltip-box" height="0" rx="10" ry="10" width="0"/><g class="text"/></g></g><g class="legends" transform="translate(58, 545)"><g class="legend reactive activate-serie" id="activate-serie-0"><rect class="color-0 reactive" height="12" width="12" x="0.0" y="1.0"/><text x="17.0" y="11.2">Future Average</text></g><g class="legend reactive activate-serie" id="activate-serie-1"><rect class="color-1 reactive" height="12" width="12" x="366.0" y="1.0"/><text x="383.0" y="11.2">Past Average</text></g><g class="legend reactive activate-serie" id="activate-serie-2"><rect class="color-2 reactive" height="12" width="12" x="0.0" y="22.0"/><text x="17.0" y="32.2">Career Average</text></g></g></g></svg>