<?xml version='1.0' encoding='utf-8'?>
<svg xmlns:xlink="http://www.w3.org/1999/xlink" xmlns="http://www.w3.org/2000/svg" id="chart-68beee08-adc2-4210-a035-a8a3b2c8ec83" class="pygal-chart" viewBox="0 0 800 600"><!--Generated with pygal 2.4.0 (lxml) ©Kozea 2012-2016 on 2019-08-04--><!--http://pygal.org--><!--http://github.com/Kozea/pygal--><defs><style type="text/css">#chart-68beee08-adc2-4210-a035-a8a3b2c8ec83{-webkit-user-select:none;-webkit-font-smoothing:antialiased;font-family:Consolas,"Liberation Mono",Menlo,Courier,monospace}#chart-68beee08-adc2-4210-a035-a8a3b2c8ec83 .title{font-family:Consolas,"Liberation Mono",Menlo,Courier,monospace;font-size:16px}#chart-68beee08-adc2-4210-a035-a8a3b2c8ec83 .legends .legend text{font-family:Consolas,"Liberation Mono",Menlo,Courier,monospace;font-size:14px}#chart-68beee08-adc2-4210-a035-a8a3b2c8ec83 .axis text{font-family:Consolas,"Liberation Mono",Menlo,Courier,monospace;font-size:10px}#chart-68beee08-adc2-4210-a035-a8a3b2c8ec83 .axis text.major{font-family:Consolas,"Liberation Mono",Menlo,Courier,monospace;font-size:10px}#chart-68beee08-adc2-4210-a035-a8a3b2c8ec83 .text-overlay text.value{font-family:Consolas,"Liberation Mono",Menlo,Courier,monospace;font-size:16px}#chart-68beee08-adc2-4210-a035-a8a3b2c8ec83 .text-overlay text.label{font-family:Consolas,"Liberation Mono",Menlo,Courier,monospace;font-size:10px}#chart-68beee08-adc2-4210-a035-a8a3b2c8ec83 .tooltip{font-family:Consolas,"Liberation Mono",Menlo,Courier,monospace;font-size:14px}#chart-68beee08-adc2-4210-a035-a8a3b2c8ec83 text.no_data{font-family:Consolas,"Liberation Mono",Menlo,Courier,monospace;font-size:64px}
#chart-68beee08-adc2-4210-a035-a8a3b2c8ec83{background-color:rgba(249,249,249,1)}#chart-68beee08-adc2-4210-a035-a8a3b2c8ec83 path,#chart-68beee08-adc2-4210-a035-a8a3b2c8ec83 line,#chart-68beee08-adc2-4210-a035-a8a3b2c8ec83 rect,#chart-68beee08-adc2-4210-a035-a8a3b2c8ec83 circle{-webkit-transition:150ms;-moz-transition:150ms;transition:150ms}#chart-68beee08-adc2-4210-a035-a8a3b2c8ec83 .graph &gt; .background{fill:rgba(249,249,249,1)}#chart-68beee08-adc2-4210-a035-a8a3b2c8ec83 .plot &gt; .background{fill:rgba(255,255,255,1)}#chart-68beee08-adc2-4210-a035-a8a3b2c8ec83 .graph{fill:rgba(0,0,0,.87)}#chart-68beee08-adc2-4210-a035-a8a3b2c8ec83 text.no_data{fill:rgba(0,0,0,1)}#chart-68beee08-adc2-4210-a035-a8a3b2c8ec83 .title{fill:rgba(0,0,0,1)}#chart-68beee08-adc2-4210-a035-a8a3b2c8ec83 .legends .legend text{fill:rgba(0,0,0,.87)}#chart-68beee08-adc2-4210-a035-a8a3b2c8ec83 .legends .legend:hover text{fill:rgba(0,0,0,1)}#chart-68beee08-adc2-4210-a035-a8a3b2c8ec83 .axis .line{stroke:rgba(0,0,0,1)}#chart-68beee08-adc2-4210-a035-a8a3b2c8ec83 .axis .guide.line{stroke:rgba(0,0,0,.54)}#chart-68beee08-adc2-4210-a035-a8a3b2c8ec83 .axis .major.line{stroke:rgba(0,0,0,.87)}#chart-68beee08-adc2-4210-a035-a8a3b2c8ec83 .axis text.major{fill:rgba(0,0,0,1)}#chart-68beee08-adc2-4210-a035-a8a3b2c8ec83 .axis.y .guides:hover .guide.line,#chart-68beee08-adc2-4210-a035-a8a3b2c8ec83 .line-graph .axis.x .guides:hover .guide.line,#chart-68beee08-adc2-4210-a035-a8a3b2c8ec83 .stackedline-graph .axis.x .guides:hover .guide.line,#chart-68beee08-adc2-4210-a035-a8a3b2c8ec83 .xy-graph .axis.x .guides:hover .guide.line{stroke:rgba(0,0,0,1)}#chart-68beee08-adc2-4210-a035-a8a3b2c8ec83 .axis .guides:hover text{fill:rgba(0,0,0,1)}#chart-68beee08-adc2-4210-a035-a8a3b2c8ec83 .reactive{fill-opacity:.7;stroke-opacity:.8}#chart-68beee08-adc2-4210-a035-a8a3b2c8ec83 .ci{stroke:rgba(0,0,0,.87)}#chart-68beee08-adc2-4210-a035-a8a3b2c8ec83 .reactive.active,#chart-68beee08-adc2-4210-a035-a8a3b2c8ec83 .active .reactive{fill-opacity:.8;stroke-opacity:.9;stroke-width:4}#chart-68beee08-adc2-4210-a035-a8a3b2c8ec83 .ci .reactive.active{stroke-width:1.5}#chart-68beee08-adc2-4210-a035-a8a3b2c8ec83 .series text{fill:rgba(0,0,0,1)}#chart-68beee08-adc2-4210-a035-a8a3b2c8ec83 .tooltip rect{fill:rgba(255,255,255,1);stroke:rgba(0,0,0,1);-webkit-transition:opacity 150ms;-moz-transition:opacity 150ms;transition:opacity 150ms}#chart-68beee08-adc2-4210-a035-a8a3b2c8ec83 .tooltip .label{fill:rgba(0,0,0,.87)}#chart-68beee08-adc2-4210-a035-a8a3b2c8ec83 .tooltip .label{fill:rgba(0,0,0,.87)}#chart-68beee08-adc2-4210-a035-a8a3b2c8ec83 .tooltip .legend{font-size:.8em;fill:rgba(0,0,0,.54)}#chart-68beee08-adc2-4210-a035-a8a3b2c8ec83 .tooltip .x_label{font-size:.6em;fill:rgba(0,0,0,1)}#chart-68beee08-adc2-4210-a035-a8a3b2c8ec83 .tooltip .xlink{font-size:.5em;text-decoration:underline}#chart-68beee08-adc2-4210-a035-a8a3b2c8ec83 .tooltip .value{font-size:1.5em}#chart-68beee08-adc2-4210-a035-a8a3b2c8ec83 .bound{font-size:.5em}#chart-68beee08-adc2-4210-a035-a8a3b2c8ec83 .max-value{font-size:.75em;fill:rgba(0,0,0,.54)}#chart-68beee08-adc2-4210-a035-a8a3b2c8ec83 .map-element{fill:rgba(255,255,255,1);stroke:rgba(0,0,0,.54) !important}#chart-68beee08-adc2-4210-a035-a8a3b2c8ec83 .map-element .reactive{fill-opacity:inherit;stroke-opacity:inherit}#chart-68beee08-adc2-4210-a035-a8a3b2c8ec83 .color-0,#chart-68beee08-adc2-4210-a035-a8a3b2c8ec83 .color-0 a:visited{stroke:red;fill:red}#chart-68beee08-adc2-4210-a035-a8a3b2c8ec83 .color-1,#chart-68beee08-adc2-4210-a035-a8a3b2c8ec83 .color-1 a:visited{stroke:blue;fill:blue}#chart-68beee08-adc2-4210-a035-a8a3b2c8ec83 .color-2,#chart-68beee08-adc2-4210-a035-a8a3b2c8ec83 .color-2 a:visited{stroke:green;fill:green}#chart-68beee08-adc2-4210-a035-a8a3b2c8ec83 .text-overlay .color-0 text{fill:white}#chart-68beee08-adc2-4210-a035-a8a3b2c8ec83 .text-overlay .color-1 text{fill:white}#chart-68beee08-adc2-4210-a035-a8a3b2c8ec83 .text-overlay .color-2 text{fill:white}
#chart-68beee08-adc2-4210-a035-a8a3b2c8ec83 text.no_data{text-anchor:middle}#chart-68beee08-adc2-4210-a035-a8a3b2c8ec83 .guide.line{fill:none}#chart-68beee08-adc2-4210-a035-a8a3b2c8ec83 .centered{text-anchor:middle}#chart-68beee08-adc2-4210-a035-a8a3b2c8ec83 .title{text-anchor:middle}#chart-68beee08-adc2-4210-a035-a8a3b2c8ec83 .legends .legend text{fill-opacity:1}#chart-68beee08-adc2-4210-a035-a8a3b2c8ec83 .axis.x text{text-anchor:middle}#chart-68beee08-adc2-4210-a035-a8a3b2c8ec83 .axis.x:not(.web) text[transform]{text-anchor:start}#chart-68beee08-adc2-4210-a035-a8a3b2c8ec83 .axis.x:not(.web) text[transform].backwards{text-anchor:end}#chart-68beee08-adc2-4210-a035-a8a3b2c8ec83 .axis.y text{text-anchor:end}#chart-68beee08-adc2-4210-a035-a8a3b2c8ec83 .axis.y text[transform].backwards{text-anchor:start}#chart-68beee08-adc2-4210-a035-a8a3b2c8ec83 .axis.y2 text{text-anchor:start}#chart-68beee08-adc2-4210-a035-a8a3b2c8ec83 .axis.y2 text[transform].backwards{text-anchor:end}#chart-68beee08-adc2-4210-a035-a8a3b2c8ec83 .axis .guide.line{stroke-dasharray:4,4}#chart-68beee08-adc2-4210-a035-a8a3b2c8ec83 .axis .major.guide.line{stroke-dasharray:6,6}#chart-68beee08-adc2-4210-a035-a8a3b2c8ec83 .horizontal .axis.y .guide.line,#chart-68beee08-adc2-4210-a035-a8a3b2c8ec83 .horizontal .axis.y2 .guide.line,#chart-68beee08-adc2-4210-a035-a8a3b2c8ec83 .vertical .axis.x .guide.line{opacity:0}#chart-68beee08-adc2-4210-a035-a8a3b2c8ec83 .horizontal .axis.always_show .guide.line,#chart-68beee08-adc2-4210-a035-a8a3b2c8ec83 .vertical .axis.always_show .guide.line{opacity:1 !important}#chart-68beee08-adc2-4210-a035-a8a3b2c8ec83 .axis.y .guides:hover .guide.line,#chart-68beee08-adc2-4210-a035-a8a3b2c8ec83 .axis.y2 .guides:hover .guide.line,#chart-68beee08-adc2-4210-a035-a8a3b2c8ec83 .axis.x .guides:hover .guide.line{opacity:1}#chart-68beee08-adc2-4210-a035-a8a3b2c8ec83 .axis .guides:hover text{opacity:1}#chart-68beee08-adc2-4210-a035-a8a3b2c8ec83 .nofill{fill:none}#chart-68beee08-adc2-4210-a035-a8a3b2c8ec83 .subtle-fill{fill-opacity:.2}#chart-68beee08-adc2-4210-a035-a8a3b2c8ec83 .dot{stroke-width:1px;fill-opacity:1}#chart-68beee08-adc2-4210-a035-a8a3b2c8ec83 .dot.active{stroke-width:5px}#chart-68beee08-adc2-4210-a035-a8a3b2c8ec83 .dot.negative{fill:transparent}#chart-68beee08-adc2-4210-a035-a8a3b2c8ec83 text,#chart-68beee08-adc2-4210-a035-a8a3b2c8ec83 tspan{stroke:none !important}#chart-68beee08-adc2-4210-a035-a8a3b2c8ec83 .series text.active{opacity:1}#chart-68beee08-adc2-4210-a035-a8a3b2c8ec83 .tooltip rect{fill-opacity:.95;stroke-width:.5}#chart-68beee08-adc2-4210-a035-a8a3b2c8ec83 .tooltip text{fill-opacity:1}#chart-68beee08-adc2-4210-a035-a8a3b2c8ec83 .showable{visibility:hidden}#chart-68beee08-adc2-4210-a035-a8a3b2c8ec83 .showable.shown{visibility:visible}#chart-68beee08-adc2-4210-a035-a8a3b2c8ec83 .gauge-background{fill:rgba(229,229,229,1);stroke:none}#chart-68beee08-adc2-4210-a035-a8a3b2c8ec83 .bg-lines{stroke:rgba(249,249,249,1);stroke-width:2px}</style><script type="text/javascript">window.pygal = window.pygal || {};window.pygal.config = window.pygal.config || {};window.pygal.config['68beee08-adc2-4210-a035-a8a3b2c8ec83'] = {"allow_interruptions": false, "box_mode": "extremes", "classes": ["pygal-chart"], "css": ["file://style.css", "file://graph.css"], "defs": [], "disable_xml_declaration": false, "dots_size": 2.5, "dynamic_print_values": false, "explicit_size": false, "fill": false, "force_uri_protocol": "https", "formatter": null, "half_pie": false, "height": 600, "include_x_axis": false, "inner_radius": 0, "interpolate": null, "interpolation_parameters": {}, "interpolation_precision": 250, "inverse_y_axis": false, "js": ["//kozea.github.io/pygal.js/2.0.x/pygal-tooltips.min.js"], "legend_at_bottom": true, "legend_at_bottom_columns": null, "legend_box_size": 12, "logarithmic": false, "margin": 20, "margin_bottom": null, "margin_left": null, "margin_right": null, "margin_top": null, "max_scale": 16, "min_scale": 4, "missing_value_fill_truncation": "x", "no_data_text": "No data", "no_prefix": false, "order_min": null, "pretty_print": false, "print_labels": false, "print_values": false, "print_values_position": "center", "print_zeroes": true, "range": null, "rounded_bars": null, "secondary_range": null, "show_dots": true, "show_legend": true, "show_minor_x_labels": false, "show_minor_y_labels": true, "show_only_major_dots": false, "show_x_guides": false, "show_x_labels": true, "show_y_guides": true, "show_y_labels": true, "spacing": 10, "stack_from_top": false, "strict": false, "stroke": true, "stroke_style": null, "style": {"background": "rgba(249, 249, 249, 1)", "ci_colors": [], "colors": ["red", "blue", "green", "#a3a3a3"], "font_family": "Consolas, \"Liberation Mono\", Menlo, Courier, monospace", "foreground": "rgba(0, 0, 0, .87)", "foreground_strong": "rgba(0, 0, 0, 1)", "foreground_subtle": "rgba(0, 0, 0, .54)", "guide_stroke_dasharray": "4,4", "label_font_family": "Consolas, \"Liberation Mono\", Menlo, Courier, monospace", "label_font_size": 10, "legend_font_family": "Consolas, \"Liberation Mono\", Menlo, Courier, monospace", "legend_font_size": 14, "major_guide_stroke_dasharray": "6,6", "major_label_font_family": "Consolas, \"Liberation Mono\", Menlo, Courier, monospace", "major_label_font_size": 10, "no_data_font_family": "Consolas, \"Liberation Mono\", Menlo, Courier, monospace", "no_data_font_size": 64, "opacity": ".7", "opacity_hover": ".8", "plot_background": "rgba(255, 255, 255, 1)", "stroke_opacity": ".8", "stroke_opacity_hover": ".9", "title_font_family": "Consolas, \"Liberation Mono\", Menlo, Courier, monospace", "title_font_size": 16, "tooltip_font_family": "Consolas, \"Liberation Mono\", Menlo, Courier, monospace", "tooltip_font_size": 14, "transition": "150ms", "value_background": "rgba(229, 229, 229, 1)", "value_colors": [], "value_font_family": "Consolas, \"Liberation Mono\", Menlo, Courier, monospace", "value_font_size": 16, "value_label_font_family": "Consolas, \"Liberation Mono\", Menlo, Courier, monospace", "value_label_font_size": 10}, "title": "M Dillon: Future and Past Averages in ODIs", "tooltip_border_radius": 10, "tooltip_fancy_mode": true, "truncate_label": null, "truncate_legend": null, "width": 800, "x_label_rotation": 45, "x_labels": ["1997", "0", "0", "0", "0", "0", "1998", "0", "0", "0", "0", "1999", "0", "0", "0", "0", "0", "0", "0", "0", "0", "0", "0", "0", "0", "0", "0", "0", "0", "0", "0", "0", "0", "0", "0", "2000", "0", "0", "0", "0", "0", "0", "0", "0", "0", "0", "0", "0", "0", "2001", "0", "0", "0", "0", "0", "0", "0", "0", "2002", "0", "0", "0", "0", "0", "0", "0", "0", "0", "0", "0", "0", "0", "0", "0", "2003", "0", "0", "0", "0", "0", "0", "0", "0", "0", "0", "0", "0", "0", "0", "0", "0", "0", "0", "2004", "0", "0", "0", "0", "0", "0", "0", "0", "0", "2005", "0", "0", "0"], "x_labels_major": ["1997", "1998", "1999", "2000", "2001", "2002", "2003", "2004", "2005"], "x_labels_major_count": null, "x_labels_major_every": null, "x_title": null, "xrange": null, "y_label_rotation": 0, "y_labels": null, "y_labels_major": null, "y_labels_major_count": null, "y_labels_major_every": null, "y_title": null, "zero": 160.0, "legends": ["Future Average", "Past Average", "Career Average"]}</script><script type="text/javascript" xlink:href="https://kozea.github.io/pygal.js/2.0.x/pygal-tooltips.min.js"/></defs><title>M Dillon: Future and Past Averages in ODIs</title><g class="graph line-graph vertical"><rect class="background" height="600" width="800" x="0" y="0"/><g class="plot" transform="translate(48, 46)"><rect class="background" height="462.02943725152284" width="732.0" x="0" y="0"/><g class="axis y always_show"><g class="guides"><path class="axis major line" d="M0.000000 453.144256 h732.000000"/><text class="major" x="-5" y="456.6442557659166">0</text><title>0</title></g><g class="guides"><path class="guide line" d="M0.000000 423.526984 h732.000000"/><text class="" x="-5" y="427.02698414722926">10</text><title>10</title></g><g class="guides"><path class="guide line" d="M0.000000 393.909713 h732.000000"/><text class="" x="-5" y="397.4097125285419">20</text><title>20</title></g><g class="guides"><path class="guide line" d="M0.000000 364.292441 h732.000000"/><text class="" x="-5" y="367.7924409098545">30</text><title>30</title></g><g class="guides"><path class="guide line" d="M0.000000 334.675169 h732.000000"/><text class="" x="-5" y="338.1751692911672">40</text><title>40</title></g><g class="guides"><path class="major guide line" d="M0.000000 305.057898 h732.000000"/><text class="major" x="-5" y="308.55789767247984">50</text><title>50</title></g><g class="guides"><path class="guide line" d="M0.000000 275.440626 h732.000000"/><text class="" x="-5" y="278.94062605379247">60</text><title>60</title></g><g class="guides"><path class="guide line" d="M0.000000 245.823354 h732.000000"/><text class="" x="-5" y="249.32335443510507">70</text><title>70</title></g><g class="guides"><path class="guide line" d="M0.000000 216.206083 h732.000000"/><text class="" x="-5" y="219.70608281641776">80</text><title>80</title></g><g class="guides"><path class="guide line" d="M0.000000 186.588811 h732.000000"/><text class="" x="-5" y="190.08881119773037">90</text><title>90</title></g><g class="guides"><path class="major guide line" d="M0.000000 156.971540 h732.000000"/><text class="major" x="-5" y="160.47153957904305">100</text><title>100</title></g><g class="guides"><path class="guide line" d="M0.000000 127.354268 h732.000000"/><text class="" x="-5" y="130.85426796035568">110</text><title>110</title></g><g class="guides"><path class="guide line" d="M0.000000 97.736996 h732.000000"/><text class="" x="-5" y="101.23699634166832">120</text><title>120</title></g><g class="guides"><path class="guide line" d="M0.000000 68.119725 h732.000000"/><text class="" x="-5" y="71.61972472298095">130</text><title>130</title></g><g class="guides"><path class="guide line" d="M0.000000 38.502453 h732.000000"/><text class="" x="-5" y="42.00245310429358">140</text><title>140</title></g><g class="guides"><path class="major guide line" d="M0.000000 8.885181 h732.000000"/><text class="major" x="-5" y="12.38518148560621">150</text><title>150</title></g></g><g class="axis x"><g class="guides"><path class="major line" d="M14.076923 0.000000 v462.029437"/><text class="major" x="14.076923076923077" y="477.02943725152284" transform="rotate(45 14.076923 477.029437)">1997</text></g><g class="guides"><path class="major guide line" d="M53.917271 0.000000 v462.029437"/><text class="major" x="53.91727140783745" y="477.02943725152284" transform="rotate(45 53.917271 477.029437)">1998</text></g><g class="guides"><path class="major guide line" d="M87.117562 0.000000 v462.029437"/><text class="major" x="87.11756168359942" y="477.02943725152284" transform="rotate(45 87.117562 477.029437)">1999</text></g><g class="guides"><path class="major guide line" d="M246.478955 0.000000 v462.029437"/><text class="major" x="246.47895500725687" y="477.02943725152284" transform="rotate(45 246.478955 477.029437)">2000</text></g><g class="guides"><path class="major guide line" d="M339.439768 0.000000 v462.029437"/><text class="major" x="339.4397677793904" y="477.02943725152284" transform="rotate(45 339.439768 477.029437)">2001</text></g><g class="guides"><path class="major guide line" d="M399.200290 0.000000 v462.029437"/><text class="major" x="399.200290275762" y="477.02943725152284" transform="rotate(45 399.200290 477.029437)">2002</text></g><g class="guides"><path class="major guide line" d="M505.441219 0.000000 v462.029437"/><text class="major" x="505.4412191582003" y="477.02943725152284" transform="rotate(45 505.441219 477.029437)">2003</text></g><g class="guides"><path class="major guide line" d="M631.602322 0.000000 v462.029437"/><text class="major" x="631.6023222060958" y="477.02943725152284" transform="rotate(45 631.602322 477.029437)">2004</text></g><g class="guides"><path class="major guide line" d="M698.002903 0.000000 v462.029437"/><text class="major" x="698.0029027576197" y="477.02943725152284" transform="rotate(45 698.002903 477.029437)">2005</text></g></g><g class="series serie-0 color-0"><path class="line reactive nofill" d="M14.076923 357.036209 L20.716981 358.605925 27.357039 359.435208 33.997097 359.760998 40.637155 359.168653 47.277213 359.849850 53.917271 360.708751 60.557329 359.227887 67.197388 360.205257 73.837446 359.790616 80.477504 358.398604 87.117562 358.931715 93.757620 358.457838 100.397678 355.584963 107.037736 353.600606 113.677794 354.133717 120.317852 353.274816 126.957910 351.201607 133.597968 351.468162 140.238026 348.684139 146.878084 349.365336 153.518142 348.239880 160.158200 347.973324 166.798258 348.062176 173.438316 349.513422 180.078374 347.529065 186.718433 343.175326 193.358491 342.849536 199.998549 341.694463 206.638607 342.819919 213.278665 342.138722 219.918723 341.842549 226.558781 341.309438 233.198839 342.434894 239.838897 343.915758 246.478955 344.893128 253.119013 346.403609 259.759071 346.433226 266.399129 346.788633 273.039187 347.410596 279.679245 349.009929 286.319303 347.588300 292.959361 349.868830 299.599419 349.898447 306.239478 350.401941 312.879536 352.178977 319.519594 353.126730 326.159652 352.475150 332.799710 354.637210 339.439768 353.748692 346.079826 353.719075 352.719884 355.407259 359.359942 357.243530 366.000000 358.013579 372.640058 355.851518 379.280116 355.644198 385.920174 354.755679 392.560232 354.222569 399.200290 354.104099 405.840348 354.015248 412.480406 353.511754 419.120464 351.320076 425.760522 351.112755 432.400581 350.520410 439.040639 343.204944 445.680697 340.657858 452.320755 339.621254 458.960813 337.074168 465.600871 333.312775 472.240929 325.138408 478.880987 321.643570 485.521045 323.361372 492.161103 324.723766 498.801161 328.307456 505.441219 326.471185 512.081277 322.532088 518.721335 321.021607 525.361393 317.556386 532.001451 322.058212 538.641509 325.345729 545.281567 323.953717 551.921626 319.748064 558.561684 325.286494 565.201742 324.368359 571.841800 330.291813 578.481858 317.793324 585.121916 325.493815 591.761974 325.938074 598.402032 309.322785 605.042090 321.525101 611.682148 331.150714 618.322206 329.344060 624.962264 332.898133 631.602322 331.713442 638.242380 340.183982 644.882438 337.399958 651.522496 328.751715 658.162554 333.046219 664.802612 344.360017 671.442671 343.856523 678.082729 347.173658 684.722787 355.762667 691.362845 380.581940 698.002903 288.264905 704.642961 356.384629 711.283019 299.134443 717.923077 343.560351"/></g><g class="series serie-1 color-1"><path class="line reactive nofill" d="M14.076923 453.144256 L20.716981 251.746809 27.357039 142.162904 33.997097 8.885181 40.637155 267.532815 47.277213 237.915543 53.917271 202.374817 60.557329 311.958722 67.197388 291.730125 73.837446 315.068535 80.477504 342.494129 87.117562 338.614266 93.757620 345.455856 100.397678 366.099094 107.037736 375.013893 113.677794 371.282117 120.317852 373.681116 126.957910 379.308398 133.597968 377.412892 140.238026 382.625532 146.878084 380.581940 153.518142 381.885100 160.158200 381.648162 166.798258 380.493088 173.438316 376.702078 180.078374 380.108064 186.718433 385.083766 193.358491 383.839840 199.998549 384.136013 206.638607 382.181273 213.278665 382.507063 219.918723 382.181273 226.558781 382.240508 233.198839 380.404237 239.838897 378.034855 246.478955 376.494757 253.119013 374.066141 259.759071 373.473795 266.399129 372.437191 273.039187 371.045179 279.679245 368.705414 286.319303 369.949340 292.959361 366.809909 299.599419 366.513736 306.239478 365.832539 312.879536 363.492775 319.519594 362.219232 326.159652 362.722726 332.799710 360.057171 339.439768 360.886455 346.079826 360.797603 352.719884 358.902097 359.359942 356.828888 366.000000 355.940370 372.640058 358.280135 379.280116 358.457838 385.920174 359.198270 392.560232 359.642529 399.200290 359.642529 405.840348 359.642529 412.480406 359.879467 419.120464 361.360331 425.760522 361.419566 432.400581 361.686121 439.040639 365.417897 445.680697 366.336033 452.320755 366.276798 458.960813 366.928378 465.600871 367.994600 472.240929 369.742019 478.880987 370.097426 485.521045 368.971970 492.161103 368.053834 498.801161 366.839526 505.441219 366.632205 512.081277 366.957995 518.721335 366.928378 525.361393 367.402254 532.001451 366.217564 538.641509 365.358663 545.281567 365.329045 551.921626 365.506749 558.561684 364.233206 565.201742 364.085120 571.841800 362.811577 578.481858 364.173972 585.121916 362.781960 591.761974 362.367318 598.402032 363.759330 605.042090 362.041528 611.682148 360.679134 618.322206 360.649517 624.962264 360.205257 631.602322 360.116406 638.242380 359.079801 644.882438 359.227887 651.522496 359.938702 658.162554 359.257505 664.802612 358.220900 671.442671 358.132048 678.082729 357.776641 684.722787 357.125061 691.362845 355.496111 698.002903 358.665159 704.642961 357.065827 711.283019 357.510086 717.923077 357.895110"/></g><g class="series serie-2 color-2"><path class="line reactive nofill" d="M14.076923 357.036209 L20.716981 357.036209 27.357039 357.036209 33.997097 357.036209 40.637155 357.036209 47.277213 357.036209 53.917271 357.036209 60.557329 357.036209 67.197388 357.036209 73.837446 357.036209 80.477504 357.036209 87.117562 357.036209 93.757620 357.036209 100.397678 357.036209 107.037736 357.036209 113.677794 357.036209 120.317852 357.036209 126.957910 357.036209 133.597968 357.036209 140.238026 357.036209 146.878084 357.036209 153.518142 357.036209 160.158200 357.036209 166.798258 357.036209 173.438316 357.036209 180.078374 357.036209 186.718433 357.036209 193.358491 357.036209 199.998549 357.036209 206.638607 357.036209 213.278665 357.036209 219.918723 357.036209 226.558781 357.036209 233.198839 357.036209 239.838897 357.036209 246.478955 357.036209 253.119013 357.036209 259.759071 357.036209 266.399129 357.036209 273.039187 357.036209 279.679245 357.036209 286.319303 357.036209 292.959361 357.036209 299.599419 357.036209 306.239478 357.036209 312.879536 357.036209 319.519594 357.036209 326.159652 357.036209 332.799710 357.036209 339.439768 357.036209 346.079826 357.036209 352.719884 357.036209 359.359942 357.036209 366.000000 357.036209 372.640058 357.036209 379.280116 357.036209 385.920174 357.036209 392.560232 357.036209 399.200290 357.036209 405.840348 357.036209 412.480406 357.036209 419.120464 357.036209 425.760522 357.036209 432.400581 357.036209 439.040639 357.036209 445.680697 357.036209 452.320755 357.036209 458.960813 357.036209 465.600871 357.036209 472.240929 357.036209 478.880987 357.036209 485.521045 357.036209 492.161103 357.036209 498.801161 357.036209 505.441219 357.036209 512.081277 357.036209 518.721335 357.036209 525.361393 357.036209 532.001451 357.036209 538.641509 357.036209 545.281567 357.036209 551.921626 357.036209 558.561684 357.036209 565.201742 357.036209 571.841800 357.036209 578.481858 357.036209 585.121916 357.036209 591.761974 357.036209 598.402032 357.036209 605.042090 357.036209 611.682148 357.036209 618.322206 357.036209 624.962264 357.036209 631.602322 357.036209 638.242380 357.036209 644.882438 357.036209 651.522496 357.036209 658.162554 357.036209 664.802612 357.036209 671.442671 357.036209 678.082729 357.036209 684.722787 357.036209 691.362845 357.036209 698.002903 357.036209 704.642961 357.036209 711.283019 357.036209 717.923077 357.036209"/></g></g><g class="titles"><text class="title plot_title" x="400.0" y="26">M Dillon: Future and Past Averages in ODIs</text></g><g class="plot overlay" transform="translate(48, 46)"><g class="series serie-0 color-0"><g class="dots"><desc class="label">130 wickets in 107 innings (913.2 overs)</desc><circle class="dot reactive tooltip-trigger" cx="14.076923076923077" cy="357.03620936327616" r="2.5"/><desc class="value">32.45</desc><desc class="x top">14.076923076923077</desc><desc class="y top">357.03620936327616</desc><desc class="x_label">1997</desc></g><g class="dots"><desc class="label">127 wickets in 101 innings (866.2 overs)</desc><circle class="dot reactive tooltip-trigger" cx="53.91727140783745" cy="360.7087510439934" r="2.5"/><desc class="value">31.21</desc><desc class="x top">53.91727140783745</desc><desc class="y top">360.7087510439934</desc><desc class="x_label">1998</desc></g><g class="dots"><desc class="label">118 wickets in 96 innings (822.3 overs)</desc><circle class="dot reactive tooltip-trigger" cx="87.11756168359942" cy="358.9317147468721" r="2.5"/><desc class="value">31.81</desc><desc class="x top">87.11756168359942</desc><desc class="y top">358.9317147468721</desc><desc class="x_label">1999</desc></g><g class="dots"><desc class="label">80 wickets in 72 innings (616.1 overs)</desc><circle class="dot reactive tooltip-trigger" cx="246.47895500725687" cy="344.8931279996143" r="2.5"/><desc class="value">36.55</desc><desc class="x top">246.47895500725687</desc><desc class="y top">344.8931279996143</desc><desc class="x_label">2000</desc></g><g class="dots"><desc class="label">70 wickets in 58 innings (490.2 overs)</desc><circle class="dot reactive tooltip-trigger" cx="339.4397677793904" cy="353.7486922136018" r="2.5"/><desc class="value">33.56</desc><desc class="x top">339.4397677793904</desc><desc class="y top">353.7486922136018</desc><desc class="x_label">2001</desc></g><g class="dots"><desc class="label">61 wickets in 49 innings (419.5 overs)</desc><circle class="dot reactive tooltip-trigger" cx="399.200290275762" cy="354.1040994730261" r="2.5"/><desc class="value">33.44</desc><desc class="x left top">399.200290275762</desc><desc class="y left top">354.1040994730261</desc><desc class="x_label">2002</desc></g><g class="dots"><desc class="label">31 wickets in 33 innings (277.4 overs)</desc><circle class="dot reactive tooltip-trigger" cx="505.4412191582003" cy="326.4711850527908" r="2.5"/><desc class="value">42.77</desc><desc class="x left top">505.4412191582003</desc><desc class="y left top">326.4711850527908</desc><desc class="x_label">2003</desc></g><g class="dots"><desc class="label">14 wickets in 14 innings (112.0 overs)</desc><circle class="dot reactive tooltip-trigger" cx="631.6023222060958" cy="331.7134421292984" r="2.5"/><desc class="value">41</desc><desc class="x left top">631.6023222060958</desc><desc class="y left top">331.7134421292984</desc><desc class="x_label">2004</desc></g><g class="dots"><desc class="label">3 wickets in 4 innings (27.0 overs)</desc><circle class="dot reactive tooltip-trigger" cx="698.0029027576197" cy="288.2649046646841" r="2.5"/><desc class="value">55.67</desc><desc class="x left top">698.0029027576197</desc><desc class="y left top">288.2649046646841</desc><desc class="x_label">2005</desc></g></g><g class="series serie-1 color-1"><g class="dots"><desc class="label">0 wickets over 0 innings</desc><circle class="dot reactive tooltip-trigger" cx="14.076923076923077" cy="453.1442557659166" r="2.5"/><desc class="value">0</desc><desc class="x top">14.076923076923077</desc><desc class="y top">453.1442557659166</desc><desc class="x_label">1997</desc></g><g class="dots"><desc class="label">3 wickets in 6 innings (47.0 overs)</desc><circle class="dot reactive tooltip-trigger" cx="53.91727140783745" cy="202.37481697049077" r="2.5"/><desc class="value">84.67</desc><desc class="x ">53.91727140783745</desc><desc class="y ">202.37481697049077</desc><desc class="x_label">1998</desc></g><g class="dots"><desc class="label">12 wickets in 11 innings (90.5 overs)</desc><circle class="dot reactive tooltip-trigger" cx="87.11756168359942" cy="338.6142664164526" r="2.5"/><desc class="value">38.67</desc><desc class="x top">87.11756168359942</desc><desc class="y top">338.6142664164526</desc><desc class="x_label">1999</desc></g><g class="dots"><desc class="label">50 wickets in 35 innings (297.1 overs)</desc><circle class="dot reactive tooltip-trigger" cx="246.47895500725687" cy="376.49475681675375" r="2.5"/><desc class="value">25.88</desc><desc class="x top">246.47895500725687</desc><desc class="y top">376.49475681675375</desc><desc class="x_label">2000</desc></g><g class="dots"><desc class="label">60 wickets in 49 innings (423.0 overs)</desc><circle class="dot reactive tooltip-trigger" cx="339.4397677793904" cy="360.8864546737055" r="2.5"/><desc class="value">31.15</desc><desc class="x top">339.4397677793904</desc><desc class="y top">360.8864546737055</desc><desc class="x_label">2001</desc></g><g class="dots"><desc class="label">69 wickets in 58 innings (493.3 overs)</desc><circle class="dot reactive tooltip-trigger" cx="399.200290275762" cy="359.6425292657206" r="2.5"/><desc class="value">31.57</desc><desc class="x left top">399.200290275762</desc><desc class="y left top">359.6425292657206</desc><desc class="x_label">2002</desc></g><g class="dots"><desc class="label">99 wickets in 74 innings (635.4 overs)</desc><circle class="dot reactive tooltip-trigger" cx="505.4412191582003" cy="366.6322053677308" r="2.5"/><desc class="value">29.21</desc><desc class="x left top">505.4412191582003</desc><desc class="y left top">366.6322053677308</desc><desc class="x_label">2003</desc></g><g class="dots"><desc class="label">116 wickets in 93 innings (801.2 overs)</desc><circle class="dot reactive tooltip-trigger" cx="631.6023222060958" cy="360.1164056116196" r="2.5"/><desc class="value">31.41</desc><desc class="x left top">631.6023222060958</desc><desc class="y left top">360.1164056116196</desc><desc class="x_label">2004</desc></g><g class="dots"><desc class="label">127 wickets in 103 innings (886.2 overs)</desc><circle class="dot reactive tooltip-trigger" cx="698.0029027576197" cy="358.66515930230395" r="2.5"/><desc class="value">31.9</desc><desc class="x left top">698.0029027576197</desc><desc class="y left top">358.66515930230395</desc><desc class="x_label">2005</desc></g></g><g class="series serie-2 color-2"/></g><g class="plot text-overlay" transform="translate(48, 46)"><g class="series serie-0 color-0"/><g class="series serie-1 color-1"/><g class="series serie-2 color-2"/></g><g class="plot tooltip-overlay" transform="translate(48, 46)"><g class="tooltip" style="opacity: 0" transform="translate(0 0)"><rect class="tooltip-box" height="0" rx="10" ry="10" width="0"/><g class="text"/></g></g><g class="legends" transform="translate(58, 545)"><g class="legend reactive activate-serie" id="activate-serie-0"><rect class="color-0 reactive" height="12" width="12" x="0.0" y="1.0"/><text x="17.0" y="11.2">Future Average</text></g><g class="legend reactive activate-serie" id="activate-serie-1"><rect class="color-1 reactive" height="12" width="12" x="366.0" y="1.0"/><text x="383.0" y="11.2">Past Average</text></g><g class="legend reactive activate-serie" id="activate-serie-2"><rect class="color-2 reactive" height="12" width="12" x="0.0" y="22.0"/><text x="17.0" y="32.2">Career Average</text></g></g></g></svg>