<?xml version='1.0' encoding='utf-8'?>
<svg xmlns:xlink="http://www.w3.org/1999/xlink" xmlns="http://www.w3.org/2000/svg" id="chart-7f9364e1-739c-41c8-8801-b4a54b868c4e" class="pygal-chart" viewBox="0 0 800 600"><!--Generated with pygal 2.4.0 (lxml) ©Kozea 2012-2016 on 2019-08-04--><!--http://pygal.org--><!--http://github.com/Kozea/pygal--><defs><style type="text/css">#chart-7f9364e1-739c-41c8-8801-b4a54b868c4e{-webkit-user-select:none;-webkit-font-smoothing:antialiased;font-family:Consolas,"Liberation Mono",Menlo,Courier,monospace}#chart-7f9364e1-739c-41c8-8801-b4a54b868c4e .title{font-family:Consolas,"Liberation Mono",Menlo,Courier,monospace;font-size:16px}#chart-7f9364e1-739c-41c8-8801-b4a54b868c4e .legends .legend text{font-family:Consolas,"Liberation Mono",Menlo,Courier,monospace;font-size:14px}#chart-7f9364e1-739c-41c8-8801-b4a54b868c4e .axis text{font-family:Consolas,"Liberation Mono",Menlo,Courier,monospace;font-size:10px}#chart-7f9364e1-739c-41c8-8801-b4a54b868c4e .axis text.major{font-family:Consolas,"Liberation Mono",Menlo,Courier,monospace;font-size:10px}#chart-7f9364e1-739c-41c8-8801-b4a54b868c4e .text-overlay text.value{font-family:Consolas,"Liberation Mono",Menlo,Courier,monospace;font-size:16px}#chart-7f9364e1-739c-41c8-8801-b4a54b868c4e .text-overlay text.label{font-family:Consolas,"Liberation Mono",Menlo,Courier,monospace;font-size:10px}#chart-7f9364e1-739c-41c8-8801-b4a54b868c4e .tooltip{font-family:Consolas,"Liberation Mono",Menlo,Courier,monospace;font-size:14px}#chart-7f9364e1-739c-41c8-8801-b4a54b868c4e text.no_data{font-family:Consolas,"Liberation Mono",Menlo,Courier,monospace;font-size:64px}
#chart-7f9364e1-739c-41c8-8801-b4a54b868c4e{background-color:rgba(249,249,249,1)}#chart-7f9364e1-739c-41c8-8801-b4a54b868c4e path,#chart-7f9364e1-739c-41c8-8801-b4a54b868c4e line,#chart-7f9364e1-739c-41c8-8801-b4a54b868c4e rect,#chart-7f9364e1-739c-41c8-8801-b4a54b868c4e circle{-webkit-transition:150ms;-moz-transition:150ms;transition:150ms}#chart-7f9364e1-739c-41c8-8801-b4a54b868c4e .graph &gt; .background{fill:rgba(249,249,249,1)}#chart-7f9364e1-739c-41c8-8801-b4a54b868c4e .plot &gt; .background{fill:rgba(255,255,255,1)}#chart-7f9364e1-739c-41c8-8801-b4a54b868c4e .graph{fill:rgba(0,0,0,.87)}#chart-7f9364e1-739c-41c8-8801-b4a54b868c4e text.no_data{fill:rgba(0,0,0,1)}#chart-7f9364e1-739c-41c8-8801-b4a54b868c4e .title{fill:rgba(0,0,0,1)}#chart-7f9364e1-739c-41c8-8801-b4a54b868c4e .legends .legend text{fill:rgba(0,0,0,.87)}#chart-7f9364e1-739c-41c8-8801-b4a54b868c4e .legends .legend:hover text{fill:rgba(0,0,0,1)}#chart-7f9364e1-739c-41c8-8801-b4a54b868c4e .axis .line{stroke:rgba(0,0,0,1)}#chart-7f9364e1-739c-41c8-8801-b4a54b868c4e .axis .guide.line{stroke:rgba(0,0,0,.54)}#chart-7f9364e1-739c-41c8-8801-b4a54b868c4e .axis .major.line{stroke:rgba(0,0,0,.87)}#chart-7f9364e1-739c-41c8-8801-b4a54b868c4e .axis text.major{fill:rgba(0,0,0,1)}#chart-7f9364e1-739c-41c8-8801-b4a54b868c4e .axis.y .guides:hover .guide.line,#chart-7f9364e1-739c-41c8-8801-b4a54b868c4e .line-graph .axis.x .guides:hover .guide.line,#chart-7f9364e1-739c-41c8-8801-b4a54b868c4e .stackedline-graph .axis.x .guides:hover .guide.line,#chart-7f9364e1-739c-41c8-8801-b4a54b868c4e .xy-graph .axis.x .guides:hover .guide.line{stroke:rgba(0,0,0,1)}#chart-7f9364e1-739c-41c8-8801-b4a54b868c4e .axis .guides:hover text{fill:rgba(0,0,0,1)}#chart-7f9364e1-739c-41c8-8801-b4a54b868c4e .reactive{fill-opacity:.7;stroke-opacity:.8}#chart-7f9364e1-739c-41c8-8801-b4a54b868c4e .ci{stroke:rgba(0,0,0,.87)}#chart-7f9364e1-739c-41c8-8801-b4a54b868c4e .reactive.active,#chart-7f9364e1-739c-41c8-8801-b4a54b868c4e .active .reactive{fill-opacity:.8;stroke-opacity:.9;stroke-width:4}#chart-7f9364e1-739c-41c8-8801-b4a54b868c4e .ci .reactive.active{stroke-width:1.5}#chart-7f9364e1-739c-41c8-8801-b4a54b868c4e .series text{fill:rgba(0,0,0,1)}#chart-7f9364e1-739c-41c8-8801-b4a54b868c4e .tooltip rect{fill:rgba(255,255,255,1);stroke:rgba(0,0,0,1);-webkit-transition:opacity 150ms;-moz-transition:opacity 150ms;transition:opacity 150ms}#chart-7f9364e1-739c-41c8-8801-b4a54b868c4e .tooltip .label{fill:rgba(0,0,0,.87)}#chart-7f9364e1-739c-41c8-8801-b4a54b868c4e .tooltip .label{fill:rgba(0,0,0,.87)}#chart-7f9364e1-739c-41c8-8801-b4a54b868c4e .tooltip .legend{font-size:.8em;fill:rgba(0,0,0,.54)}#chart-7f9364e1-739c-41c8-8801-b4a54b868c4e .tooltip .x_label{font-size:.6em;fill:rgba(0,0,0,1)}#chart-7f9364e1-739c-41c8-8801-b4a54b868c4e .tooltip .xlink{font-size:.5em;text-decoration:underline}#chart-7f9364e1-739c-41c8-8801-b4a54b868c4e .tooltip .value{font-size:1.5em}#chart-7f9364e1-739c-41c8-8801-b4a54b868c4e .bound{font-size:.5em}#chart-7f9364e1-739c-41c8-8801-b4a54b868c4e .max-value{font-size:.75em;fill:rgba(0,0,0,.54)}#chart-7f9364e1-739c-41c8-8801-b4a54b868c4e .map-element{fill:rgba(255,255,255,1);stroke:rgba(0,0,0,.54) !important}#chart-7f9364e1-739c-41c8-8801-b4a54b868c4e .map-element .reactive{fill-opacity:inherit;stroke-opacity:inherit}#chart-7f9364e1-739c-41c8-8801-b4a54b868c4e .color-0,#chart-7f9364e1-739c-41c8-8801-b4a54b868c4e .color-0 a:visited{stroke:red;fill:red}#chart-7f9364e1-739c-41c8-8801-b4a54b868c4e .color-1,#chart-7f9364e1-739c-41c8-8801-b4a54b868c4e .color-1 a:visited{stroke:blue;fill:blue}#chart-7f9364e1-739c-41c8-8801-b4a54b868c4e .color-2,#chart-7f9364e1-739c-41c8-8801-b4a54b868c4e .color-2 a:visited{stroke:green;fill:green}#chart-7f9364e1-739c-41c8-8801-b4a54b868c4e .text-overlay .color-0 text{fill:white}#chart-7f9364e1-739c-41c8-8801-b4a54b868c4e .text-overlay .color-1 text{fill:white}#chart-7f9364e1-739c-41c8-8801-b4a54b868c4e .text-overlay .color-2 text{fill:white}
#chart-7f9364e1-739c-41c8-8801-b4a54b868c4e text.no_data{text-anchor:middle}#chart-7f9364e1-739c-41c8-8801-b4a54b868c4e .guide.line{fill:none}#chart-7f9364e1-739c-41c8-8801-b4a54b868c4e .centered{text-anchor:middle}#chart-7f9364e1-739c-41c8-8801-b4a54b868c4e .title{text-anchor:middle}#chart-7f9364e1-739c-41c8-8801-b4a54b868c4e .legends .legend text{fill-opacity:1}#chart-7f9364e1-739c-41c8-8801-b4a54b868c4e .axis.x text{text-anchor:middle}#chart-7f9364e1-739c-41c8-8801-b4a54b868c4e .axis.x:not(.web) text[transform]{text-anchor:start}#chart-7f9364e1-739c-41c8-8801-b4a54b868c4e .axis.x:not(.web) text[transform].backwards{text-anchor:end}#chart-7f9364e1-739c-41c8-8801-b4a54b868c4e .axis.y text{text-anchor:end}#chart-7f9364e1-739c-41c8-8801-b4a54b868c4e .axis.y text[transform].backwards{text-anchor:start}#chart-7f9364e1-739c-41c8-8801-b4a54b868c4e .axis.y2 text{text-anchor:start}#chart-7f9364e1-739c-41c8-8801-b4a54b868c4e .axis.y2 text[transform].backwards{text-anchor:end}#chart-7f9364e1-739c-41c8-8801-b4a54b868c4e .axis .guide.line{stroke-dasharray:4,4}#chart-7f9364e1-739c-41c8-8801-b4a54b868c4e .axis .major.guide.line{stroke-dasharray:6,6}#chart-7f9364e1-739c-41c8-8801-b4a54b868c4e .horizontal .axis.y .guide.line,#chart-7f9364e1-739c-41c8-8801-b4a54b868c4e .horizontal .axis.y2 .guide.line,#chart-7f9364e1-739c-41c8-8801-b4a54b868c4e .vertical .axis.x .guide.line{opacity:0}#chart-7f9364e1-739c-41c8-8801-b4a54b868c4e .horizontal .axis.always_show .guide.line,#chart-7f9364e1-739c-41c8-8801-b4a54b868c4e .vertical .axis.always_show .guide.line{opacity:1 !important}#chart-7f9364e1-739c-41c8-8801-b4a54b868c4e .axis.y .guides:hover .guide.line,#chart-7f9364e1-739c-41c8-8801-b4a54b868c4e .axis.y2 .guides:hover .guide.line,#chart-7f9364e1-739c-41c8-8801-b4a54b868c4e .axis.x .guides:hover .guide.line{opacity:1}#chart-7f9364e1-739c-41c8-8801-b4a54b868c4e .axis .guides:hover text{opacity:1}#chart-7f9364e1-739c-41c8-8801-b4a54b868c4e .nofill{fill:none}#chart-7f9364e1-739c-41c8-8801-b4a54b868c4e .subtle-fill{fill-opacity:.2}#chart-7f9364e1-739c-41c8-8801-b4a54b868c4e .dot{stroke-width:1px;fill-opacity:1}#chart-7f9364e1-739c-41c8-8801-b4a54b868c4e .dot.active{stroke-width:5px}#chart-7f9364e1-739c-41c8-8801-b4a54b868c4e .dot.negative{fill:transparent}#chart-7f9364e1-739c-41c8-8801-b4a54b868c4e text,#chart-7f9364e1-739c-41c8-8801-b4a54b868c4e tspan{stroke:none !important}#chart-7f9364e1-739c-41c8-8801-b4a54b868c4e .series text.active{opacity:1}#chart-7f9364e1-739c-41c8-8801-b4a54b868c4e .tooltip rect{fill-opacity:.95;stroke-width:.5}#chart-7f9364e1-739c-41c8-8801-b4a54b868c4e .tooltip text{fill-opacity:1}#chart-7f9364e1-739c-41c8-8801-b4a54b868c4e .showable{visibility:hidden}#chart-7f9364e1-739c-41c8-8801-b4a54b868c4e .showable.shown{visibility:visible}#chart-7f9364e1-739c-41c8-8801-b4a54b868c4e .gauge-background{fill:rgba(229,229,229,1);stroke:none}#chart-7f9364e1-739c-41c8-8801-b4a54b868c4e .bg-lines{stroke:rgba(249,249,249,1);stroke-width:2px}</style><script type="text/javascript">window.pygal = window.pygal || {};window.pygal.config = window.pygal.config || {};window.pygal.config['7f9364e1-739c-41c8-8801-b4a54b868c4e'] = {"allow_interruptions": false, "box_mode": "extremes", "classes": ["pygal-chart"], "css": ["file://style.css", "file://graph.css"], "defs": [], "disable_xml_declaration": false, "dots_size": 2.5, "dynamic_print_values": false, "explicit_size": false, "fill": false, "force_uri_protocol": "https", "formatter": null, "half_pie": false, "height": 600, "include_x_axis": false, "inner_radius": 0, "interpolate": null, "interpolation_parameters": {}, "interpolation_precision": 250, "inverse_y_axis": false, "js": ["//kozea.github.io/pygal.js/2.0.x/pygal-tooltips.min.js"], "legend_at_bottom": true, "legend_at_bottom_columns": null, "legend_box_size": 12, "logarithmic": false, "margin": 20, "margin_bottom": null, "margin_left": null, "margin_right": null, "margin_top": null, "max_scale": 16, "min_scale": 4, "missing_value_fill_truncation": "x", "no_data_text": "No data", "no_prefix": false, "order_min": null, "pretty_print": false, "print_labels": false, "print_values": false, "print_values_position": "center", "print_zeroes": true, "range": null, "rounded_bars": null, "secondary_range": null, "show_dots": true, "show_legend": true, "show_minor_x_labels": false, "show_minor_y_labels": true, "show_only_major_dots": false, "show_x_guides": false, "show_x_labels": true, "show_y_guides": true, "show_y_labels": true, "spacing": 10, "stack_from_top": false, "strict": false, "stroke": true, "stroke_style": null, "style": {"background": "rgba(249, 249, 249, 1)", "ci_colors": [], "colors": ["red", "blue", "green", "#a3a3a3"], "font_family": "Consolas, \"Liberation Mono\", Menlo, Courier, monospace", "foreground": "rgba(0, 0, 0, .87)", "foreground_strong": "rgba(0, 0, 0, 1)", "foreground_subtle": "rgba(0, 0, 0, .54)", "guide_stroke_dasharray": "4,4", "label_font_family": "Consolas, \"Liberation Mono\", Menlo, Courier, monospace", "label_font_size": 10, "legend_font_family": "Consolas, \"Liberation Mono\", Menlo, Courier, monospace", "legend_font_size": 14, "major_guide_stroke_dasharray": "6,6", "major_label_font_family": "Consolas, \"Liberation Mono\", Menlo, Courier, monospace", "major_label_font_size": 10, "no_data_font_family": "Consolas, \"Liberation Mono\", Menlo, Courier, monospace", "no_data_font_size": 64, "opacity": ".7", "opacity_hover": ".8", "plot_background": "rgba(255, 255, 255, 1)", "stroke_opacity": ".8", "stroke_opacity_hover": ".9", "title_font_family": "Consolas, \"Liberation Mono\", Menlo, Courier, monospace", "title_font_size": 16, "tooltip_font_family": "Consolas, \"Liberation Mono\", Menlo, Courier, monospace", "tooltip_font_size": 14, "transition": "150ms", "value_background": "rgba(229, 229, 229, 1)", "value_colors": [], "value_font_family": "Consolas, \"Liberation Mono\", Menlo, Courier, monospace", "value_font_size": 16, "value_label_font_family": "Consolas, \"Liberation Mono\", Menlo, Courier, monospace", "value_label_font_size": 10}, "title": "M Morkel: Future and Past Averages in ODIs", "tooltip_border_radius": 10, "tooltip_fancy_mode": true, "truncate_label": null, "truncate_legend": null, "width": 800, "x_label_rotation": 45, "x_labels": ["2007", "0", "0", "0", "0", "0", "2008", "0", "0", "0", "0", "0", "0", "0", "0", "2009", "0", "0", "0", "0", "0", "0", "2010", "0", "0", "0", "0", "0", "0", "0", "0", "0", "2011", "0", "0", "0", "0", "0", "0", "0", "0", "0", "0", "0", "0", "0", "2012", "0", "0", "0", "0", "0", "0", "0", "0", "0", "0", "2013", "0", "0", "0", "0", "0", "0", "0", "0", "0", "0", "0", "0", "0", "0", "2014", "0", "0", "0", "0", "0", "0", "0", "0", "0", "0", "0", "0", "2015", "0", "0", "0", "0", "0", "0", "0", "0", "0", "0", "0", "0", "0", "0", "0", "2016", "0", "0", "0", "2017", "0", "0", "0", "2018", "0", "0", "0", "0"], "x_labels_major": ["2007", "2008", "2009", "2010", "2011", "2012", "2013", "2014", "2015", "2016", "2017", "2018"], "x_labels_major_count": null, "x_labels_major_every": null, "x_title": null, "xrange": null, "y_label_rotation": 0, "y_labels": null, "y_labels_major": null, "y_labels_major_count": null, "y_labels_major_every": null, "y_title": null, "zero": 180.0, "legends": ["Future Average", "Past Average", "Career Average"]}</script><script type="text/javascript" xlink:href="https://kozea.github.io/pygal.js/2.0.x/pygal-tooltips.min.js"/></defs><title>M Morkel: Future and Past Averages in ODIs</title><g class="graph line-graph vertical"><rect class="background" height="600" width="800" x="0" y="0"/><g class="plot" transform="translate(48, 46)"><rect class="background" height="462.02943725152284" width="732.0" x="0" y="0"/><g class="axis y always_show"><g class="guides"><path class="axis major line" d="M0.000000 453.144256 h732.000000"/><text class="major" x="-5" y="456.6442557659166">0</text><title>0</title></g><g class="guides"><path class="guide line" d="M0.000000 401.184130 h732.000000"/><text class="" x="-5" y="404.68413011909666">20</text><title>20</title></g><g class="guides"><path class="guide line" d="M0.000000 349.224004 h732.000000"/><text class="" x="-5" y="352.72400447227676">40</text><title>40</title></g><g class="guides"><path class="guide line" d="M0.000000 297.263879 h732.000000"/><text class="" x="-5" y="300.7638788254568">60</text><title>60</title></g><g class="guides"><path class="guide line" d="M0.000000 245.303753 h732.000000"/><text class="" x="-5" y="248.80375317863687">80</text><title>80</title></g><g class="guides"><path class="major guide line" d="M0.000000 193.343628 h732.000000"/><text class="major" x="-5" y="196.84362753181694">100</text><title>100</title></g><g class="guides"><path class="guide line" d="M0.000000 141.383502 h732.000000"/><text class="" x="-5" y="144.88350188499697">120</text><title>120</title></g><g class="guides"><path class="guide line" d="M0.000000 89.423376 h732.000000"/><text class="" x="-5" y="92.92337623817707">140</text><title>140</title></g><g class="guides"><path class="guide line" d="M0.000000 37.463251 h732.000000"/><text class="" x="-5" y="40.96325059135711">160</text><title>160</title></g></g><g class="axis x"><g class="guides"><path class="major line" d="M14.076923 0.000000 v462.029437"/><text class="major" x="14.076923076923077" y="477.02943725152284" transform="rotate(45 14.076923 477.029437)">2007</text></g><g class="guides"><path class="major guide line" d="M51.449285 0.000000 v462.029437"/><text class="major" x="51.449285228046286" y="477.02943725152284" transform="rotate(45 51.449285 477.029437)">2008</text></g><g class="guides"><path class="major guide line" d="M107.507828 0.000000 v462.029437"/><text class="major" x="107.5078284547311" y="477.02943725152284" transform="rotate(45 107.507828 477.029437)">2009</text></g><g class="guides"><path class="major guide line" d="M151.108918 0.000000 v462.029437"/><text class="major" x="151.10891763104152" y="477.02943725152284" transform="rotate(45 151.108918 477.029437)">2010</text></g><g class="guides"><path class="major guide line" d="M213.396188 0.000000 v462.029437"/><text class="major" x="213.39618788291352" y="477.02943725152284" transform="rotate(45 213.396188 477.029437)">2011</text></g><g class="guides"><path class="major guide line" d="M300.598366 0.000000 v462.029437"/><text class="major" x="300.5983662355344" y="477.02943725152284" transform="rotate(45 300.598366 477.029437)">2012</text></g><g class="guides"><path class="major guide line" d="M369.114364 0.000000 v462.029437"/><text class="major" x="369.1143635125936" y="477.02943725152284" transform="rotate(45 369.114364 477.029437)">2013</text></g><g class="guides"><path class="major guide line" d="M462.545269 0.000000 v462.029437"/><text class="major" x="462.54526889040164" y="477.02943725152284" transform="rotate(45 462.545269 477.029437)">2014</text></g><g class="guides"><path class="major guide line" d="M543.518720 0.000000 v462.029437"/><text class="major" x="543.5187202178353" y="477.02943725152284" transform="rotate(45 543.518720 477.029437)">2015</text></g><g class="guides"><path class="major guide line" d="M643.178353 0.000000 v462.029437"/><text class="major" x="643.1783526208304" y="477.02943725152284" transform="rotate(45 643.178353 477.029437)">2016</text></g><g class="guides"><path class="major guide line" d="M668.093261 0.000000 v462.029437"/><text class="major" x="668.0932607215793" y="477.02943725152284" transform="rotate(45 668.093261 477.029437)">2017</text></g><g class="guides"><path class="major guide line" d="M693.008169 0.000000 v462.029437"/><text class="major" x="693.0081688223281" y="477.02943725152284" transform="rotate(45 693.008169 477.029437)">2018</text></g></g><g class="series serie-0 color-0"><path class="line reactive nofill" d="M14.076923 387.362737 L20.305650 387.232836 26.534377 387.206856 32.763104 386.817155 38.991831 386.921076 45.220558 386.765195 51.449285 387.024996 57.678012 386.037753 63.906739 386.375494 70.135466 386.531375 76.364193 386.609315 82.592920 387.414697 88.821647 387.518617 95.050374 388.012238 101.279101 387.908318 107.507828 388.479879 113.736555 388.765660 119.965283 389.025461 126.194010 388.973501 132.422737 389.155361 138.651464 389.830843 144.880191 389.259281 151.108918 389.571042 157.337645 390.376424 163.566372 389.830843 169.795099 389.571042 176.023826 388.168119 182.252553 388.739680 188.481280 388.869580 194.710007 389.597022 200.938734 388.635760 207.167461 388.116159 213.396188 388.973501 219.624915 388.246059 225.853642 387.908318 232.082369 386.947056 238.311096 386.687255 244.539823 385.622072 250.768550 386.349514 256.997277 386.739215 263.226004 385.985793 269.454731 386.687255 275.683458 385.725993 281.912185 384.998551 288.140912 385.725993 294.369639 383.803468 300.598366 384.608850 306.827093 382.244664 313.055820 381.854963 319.284547 382.114764 325.513274 383.231907 331.742001 384.478950 337.970728 384.401010 344.199455 381.777023 350.428182 382.296624 356.656909 381.595163 362.885636 381.958884 369.114364 381.569183 375.343091 381.205462 381.571818 380.529980 387.800545 381.361342 394.029272 380.685861 400.257999 379.049117 406.486726 380.010379 412.715453 381.127522 418.944180 382.842206 425.172907 381.751043 431.401634 380.140279 437.630361 379.360877 443.859088 380.997621 450.087815 379.282937 456.316542 379.308917 462.545269 378.373635 468.773996 377.594233 475.002723 378.815296 481.231450 378.451575 487.460177 378.711376 493.688904 379.750578 499.917631 380.348120 506.146358 380.452040 512.375085 379.594698 518.603812 380.400080 524.832539 381.880943 531.061266 375.022207 537.289993 376.503070 543.518720 377.152572 549.747447 379.490778 555.976174 378.555495 562.204901 378.373635 568.433628 380.478020 574.662355 379.932439 580.891082 380.166259 587.119809 377.282472 593.348536 372.112440 599.577263 368.241410 605.805990 363.461079 612.034717 362.577757 618.263445 356.342542 624.492172 361.252774 630.720899 363.513039 636.949626 359.122408 643.178353 336.233973 649.407080 342.131447 655.635807 326.413509 661.864534 331.037960 668.093261 338.831979 674.321988 344.391713 680.550715 339.689321 686.779442 241.848405 693.008169 185.549609 699.236896 8.885181 705.465623 86.825370 711.694350 229.715715 717.923077 344.027992"/></g><g class="series serie-1 color-1"><path class="line reactive nofill" d="M14.076923 453.144256 L20.305650 394.247453 26.534377 392.870510 32.763104 399.235625 38.991831 395.702337 45.220558 396.923400 51.449285 392.091108 57.678012 401.495891 63.906739 397.053300 70.135466 394.767055 76.364193 393.520012 82.592920 386.895096 88.821647 386.089714 95.050374 382.140744 101.279101 383.335827 107.507828 379.646658 113.736555 378.503535 119.965283 377.308452 126.194010 378.529515 132.422737 378.217755 138.651464 374.788386 144.880191 378.711376 151.108918 377.256492 157.337645 373.593303 163.566372 377.230512 169.795099 379.153037 176.023826 384.660810 182.252553 382.946126 188.481280 382.660345 194.710007 380.452040 200.938734 383.829448 207.167461 385.388252 213.396188 383.205927 219.624915 385.180411 225.853642 386.089714 232.082369 388.246059 238.311096 388.739680 244.539823 390.636225 250.768550 389.233301 256.997277 388.505859 263.226004 389.830843 269.454731 388.505859 275.683458 390.012703 281.912185 390.973965 288.140912 389.856823 294.369639 392.350909 300.598366 391.129846 306.827093 393.805792 313.055820 394.013633 319.284547 393.416091 325.513274 392.143068 331.742001 390.662205 337.970728 390.636225 344.199455 392.922470 350.428182 392.402869 356.656909 392.870510 362.885636 392.402869 369.114364 392.558749 375.343091 392.532769 381.571818 392.870510 387.800545 392.195028 394.029272 392.506789 400.257999 393.364131 406.486726 392.662670 412.715453 391.753367 418.944180 390.480344 425.172907 391.077886 431.401634 391.831308 437.630361 392.091108 443.859088 391.129846 450.087815 391.831308 456.316542 391.701407 462.545269 391.987188 468.773996 392.143068 475.002723 391.441607 481.231450 391.415626 487.460177 391.103866 493.688904 390.584264 499.917631 390.246524 506.146358 390.064663 512.375085 390.246524 518.603812 389.856823 524.832539 389.285261 531.061266 391.103866 537.289993 390.480344 543.518720 390.116623 549.747447 389.467122 555.976174 389.571042 562.204901 389.545062 568.433628 388.973501 574.662355 388.999481 580.891082 388.817620 587.119809 389.259281 593.348536 389.908783 599.577263 390.272504 605.805990 390.688185 612.034717 390.636225 618.263445 390.844065 624.492172 390.272504 630.720899 389.882803 636.949626 389.986723 643.178353 390.844065 649.407080 390.168583 655.635807 390.402404 661.864534 389.856823 668.093261 389.233301 674.321988 388.999481 680.550715 388.921540 686.779442 389.700942 693.008169 389.519082 699.236896 389.363202 705.465623 388.947521 711.694350 388.531840 717.923077 387.934298"/></g><g class="series serie-2 color-2"><path class="line reactive nofill" d="M14.076923 387.362737 L20.305650 387.362737 26.534377 387.362737 32.763104 387.362737 38.991831 387.362737 45.220558 387.362737 51.449285 387.362737 57.678012 387.362737 63.906739 387.362737 70.135466 387.362737 76.364193 387.362737 82.592920 387.362737 88.821647 387.362737 95.050374 387.362737 101.279101 387.362737 107.507828 387.362737 113.736555 387.362737 119.965283 387.362737 126.194010 387.362737 132.422737 387.362737 138.651464 387.362737 144.880191 387.362737 151.108918 387.362737 157.337645 387.362737 163.566372 387.362737 169.795099 387.362737 176.023826 387.362737 182.252553 387.362737 188.481280 387.362737 194.710007 387.362737 200.938734 387.362737 207.167461 387.362737 213.396188 387.362737 219.624915 387.362737 225.853642 387.362737 232.082369 387.362737 238.311096 387.362737 244.539823 387.362737 250.768550 387.362737 256.997277 387.362737 263.226004 387.362737 269.454731 387.362737 275.683458 387.362737 281.912185 387.362737 288.140912 387.362737 294.369639 387.362737 300.598366 387.362737 306.827093 387.362737 313.055820 387.362737 319.284547 387.362737 325.513274 387.362737 331.742001 387.362737 337.970728 387.362737 344.199455 387.362737 350.428182 387.362737 356.656909 387.362737 362.885636 387.362737 369.114364 387.362737 375.343091 387.362737 381.571818 387.362737 387.800545 387.362737 394.029272 387.362737 400.257999 387.362737 406.486726 387.362737 412.715453 387.362737 418.944180 387.362737 425.172907 387.362737 431.401634 387.362737 437.630361 387.362737 443.859088 387.362737 450.087815 387.362737 456.316542 387.362737 462.545269 387.362737 468.773996 387.362737 475.002723 387.362737 481.231450 387.362737 487.460177 387.362737 493.688904 387.362737 499.917631 387.362737 506.146358 387.362737 512.375085 387.362737 518.603812 387.362737 524.832539 387.362737 531.061266 387.362737 537.289993 387.362737 543.518720 387.362737 549.747447 387.362737 555.976174 387.362737 562.204901 387.362737 568.433628 387.362737 574.662355 387.362737 580.891082 387.362737 587.119809 387.362737 593.348536 387.362737 599.577263 387.362737 605.805990 387.362737 612.034717 387.362737 618.263445 387.362737 624.492172 387.362737 630.720899 387.362737 636.949626 387.362737 643.178353 387.362737 649.407080 387.362737 655.635807 387.362737 661.864534 387.362737 668.093261 387.362737 674.321988 387.362737 680.550715 387.362737 686.779442 387.362737 693.008169 387.362737 699.236896 387.362737 705.465623 387.362737 711.694350 387.362737 717.923077 387.362737"/></g></g><g class="titles"><text class="title plot_title" x="400.0" y="26">M Morkel: Future and Past Averages in ODIs</text></g><g class="plot overlay" transform="translate(48, 46)"><g class="series serie-0 color-0"><g class="dots"><desc class="label">188 wickets in 114 innings (960.0 overs)</desc><circle class="dot reactive tooltip-trigger" cx="14.076923076923077" cy="387.3627366970426" r="2.5"/><desc class="value">25.32</desc><desc class="x top">14.076923076923077</desc><desc class="y top">387.3627366970426</desc><desc class="x_label">2007</desc></g><g class="dots"><desc class="label">176 wickets in 108 innings (900.0 overs)</desc><circle class="dot reactive tooltip-trigger" cx="51.449285228046286" cy="387.0249958803383" r="2.5"/><desc class="value">25.45</desc><desc class="x top">51.449285228046286</desc><desc class="y top">387.0249958803383</desc><desc class="x_label">2008</desc></g><g class="dots"><desc class="label">164 wickets in 99 innings (821.4 overs)</desc><circle class="dot reactive tooltip-trigger" cx="107.5078284547311" cy="388.4798793984492" r="2.5"/><desc class="value">24.89</desc><desc class="x top">107.5078284547311</desc><desc class="y top">388.4798793984492</desc><desc class="x_label">2009</desc></g><g class="dots"><desc class="label">154 wickets in 92 innings (759.2 overs)</desc><circle class="dot reactive tooltip-trigger" cx="151.10891763104152" cy="389.57104203703244" r="2.5"/><desc class="value">24.47</desc><desc class="x top">151.10891763104152</desc><desc class="y top">389.57104203703244</desc><desc class="x_label">2010</desc></g><g class="dots"><desc class="label">135 wickets in 82 innings (675.1 overs)</desc><circle class="dot reactive tooltip-trigger" cx="213.39618788291352" cy="388.973500592094" r="2.5"/><desc class="value">24.7</desc><desc class="x top">213.39618788291352</desc><desc class="y top">388.973500592094</desc><desc class="x_label">2011</desc></g><g class="dots"><desc class="label">109 wickets in 68 innings (572.2 overs)</desc><circle class="dot reactive tooltip-trigger" cx="300.5983662355344" cy="384.60885003776116" r="2.5"/><desc class="value">26.38</desc><desc class="x top">300.5983662355344</desc><desc class="y top">384.60885003776116</desc><desc class="x_label">2012</desc></g><g class="dots"><desc class="label">89 wickets in 57 innings (486.0 overs)</desc><circle class="dot reactive tooltip-trigger" cx="369.1143635125936" cy="381.5691826874222" r="2.5"/><desc class="value">27.55</desc><desc class="x left top">369.1143635125936</desc><desc class="y left top">381.5691826874222</desc><desc class="x_label">2013</desc></g><g class="dots"><desc class="label">64 wickets in 42 innings (349.3 overs)</desc><circle class="dot reactive tooltip-trigger" cx="462.54526889040164" cy="378.37363496014274" r="2.5"/><desc class="value">28.78</desc><desc class="x left top">462.54526889040164</desc><desc class="y left top">378.37363496014274</desc><desc class="x_label">2014</desc></g><g class="dots"><desc class="label">40 wickets in 29 innings (233.3 overs)</desc><circle class="dot reactive tooltip-trigger" cx="543.5187202178353" cy="377.1525720074425" r="2.5"/><desc class="value">29.25</desc><desc class="x left top">543.5187202178353</desc><desc class="y left top">377.1525720074425</desc><desc class="x_label">2015</desc></g><g class="dots"><desc class="label">12 wickets in 13 innings (99.2 overs)</desc><circle class="dot reactive tooltip-trigger" cx="643.1783526208304" cy="336.23397306057177" r="2.5"/><desc class="value">45</desc><desc class="x left top">643.1783526208304</desc><desc class="y left top">336.23397306057177</desc><desc class="x_label">2016</desc></g><g class="dots"><desc class="label">7 wickets in 9 innings (62.0 overs)</desc><circle class="dot reactive tooltip-trigger" cx="668.0932607215793" cy="338.83197934291275" r="2.5"/><desc class="value">44</desc><desc class="x left top">668.0932607215793</desc><desc class="y left top">338.83197934291275</desc><desc class="x_label">2017</desc></g><g class="dots"><desc class="label">2 wickets in 5 innings (38.0 overs)</desc><circle class="dot reactive tooltip-trigger" cx="693.0081688223281" cy="185.54960868479395" r="2.5"/><desc class="value">103</desc><desc class="x left">693.0081688223281</desc><desc class="y left">185.54960868479395</desc><desc class="x_label">2018</desc></g></g><g class="series serie-1 color-1"><g class="dots"><desc class="label">0 wickets over 0 innings</desc><circle class="dot reactive tooltip-trigger" cx="14.076923076923077" cy="453.1442557659166" r="2.5"/><desc class="value">0</desc><desc class="x top">14.076923076923077</desc><desc class="y top">453.1442557659166</desc><desc class="x_label">2007</desc></g><g class="dots"><desc class="label">12 wickets in 6 innings (60.0 overs)</desc><circle class="dot reactive tooltip-trigger" cx="51.449285228046286" cy="392.0911081309032" r="2.5"/><desc class="value">23.5</desc><desc class="x top">51.449285228046286</desc><desc class="y top">392.0911081309032</desc><desc class="x_label">2008</desc></g><g class="dots"><desc class="label">24 wickets in 15 innings (138.2 overs)</desc><circle class="dot reactive tooltip-trigger" cx="107.5078284547311" cy="379.6466580384898" r="2.5"/><desc class="value">28.29</desc><desc class="x top">107.5078284547311</desc><desc class="y top">379.6466580384898</desc><desc class="x_label">2009</desc></g><g class="dots"><desc class="label">34 wickets in 22 innings (200.4 overs)</desc><circle class="dot reactive tooltip-trigger" cx="151.10891763104152" cy="377.2564922587361" r="2.5"/><desc class="value">29.21</desc><desc class="x top">151.10891763104152</desc><desc class="y top">377.2564922587361</desc><desc class="x_label">2010</desc></g><g class="dots"><desc class="label">53 wickets in 32 innings (284.5 overs)</desc><circle class="dot reactive tooltip-trigger" cx="213.39618788291352" cy="383.205926645297" r="2.5"/><desc class="value">26.92</desc><desc class="x top">213.39618788291352</desc><desc class="y top">383.205926645297</desc><desc class="x_label">2011</desc></g><g class="dots"><desc class="label">79 wickets in 46 innings (387.4 overs)</desc><circle class="dot reactive tooltip-trigger" cx="300.5983662355344" cy="391.12984580643706" r="2.5"/><desc class="value">23.87</desc><desc class="x top">300.5983662355344</desc><desc class="y top">391.12984580643706</desc><desc class="x_label">2012</desc></g><g class="dots"><desc class="label">99 wickets in 57 innings (474.0 overs)</desc><circle class="dot reactive tooltip-trigger" cx="369.1143635125936" cy="392.5587492617246" r="2.5"/><desc class="value">23.32</desc><desc class="x left top">369.1143635125936</desc><desc class="y left top">392.5587492617246</desc><desc class="x_label">2013</desc></g><g class="dots"><desc class="label">124 wickets in 72 innings (610.3 overs)</desc><circle class="dot reactive tooltip-trigger" cx="462.54526889040164" cy="391.98718787960956" r="2.5"/><desc class="value">23.54</desc><desc class="x left top">462.54526889040164</desc><desc class="y left top">391.98718787960956</desc><desc class="x_label">2014</desc></g><g class="dots"><desc class="label">148 wickets in 85 innings (726.3 overs)</desc><circle class="dot reactive tooltip-trigger" cx="543.5187202178353" cy="390.11662335632406" r="2.5"/><desc class="value">24.26</desc><desc class="x left top">543.5187202178353</desc><desc class="y left top">390.11662335632406</desc><desc class="x_label">2015</desc></g><g class="dots"><desc class="label">176 wickets in 101 innings (860.4 overs)</desc><circle class="dot reactive tooltip-trigger" cx="643.1783526208304" cy="390.8440651153795" r="2.5"/><desc class="value">23.98</desc><desc class="x left top">643.1783526208304</desc><desc class="y left top">390.8440651153795</desc><desc class="x_label">2016</desc></g><g class="dots"><desc class="label">181 wickets in 105 innings (898.0 overs)</desc><circle class="dot reactive tooltip-trigger" cx="668.0932607215793" cy="389.2333012203281" r="2.5"/><desc class="value">24.6</desc><desc class="x left top">668.0932607215793</desc><desc class="y left top">389.2333012203281</desc><desc class="x_label">2017</desc></g><g class="dots"><desc class="label">186 wickets in 109 innings (922.0 overs)</desc><circle class="dot reactive tooltip-trigger" cx="693.0081688223281" cy="389.5190819113856" r="2.5"/><desc class="value">24.49</desc><desc class="x left top">693.0081688223281</desc><desc class="y left top">389.5190819113856</desc><desc class="x_label">2018</desc></g></g><g class="series serie-2 color-2"/></g><g class="plot text-overlay" transform="translate(48, 46)"><g class="series serie-0 color-0"/><g class="series serie-1 color-1"/><g class="series serie-2 color-2"/></g><g class="plot tooltip-overlay" transform="translate(48, 46)"><g class="tooltip" style="opacity: 0" transform="translate(0 0)"><rect class="tooltip-box" height="0" rx="10" ry="10" width="0"/><g class="text"/></g></g><g class="legends" transform="translate(58, 545)"><g class="legend reactive activate-serie" id="activate-serie-0"><rect class="color-0 reactive" height="12" width="12" x="0.0" y="1.0"/><text x="17.0" y="11.2">Future Average</text></g><g class="legend reactive activate-serie" id="activate-serie-1"><rect class="color-1 reactive" height="12" width="12" x="366.0" y="1.0"/><text x="383.0" y="11.2">Past Average</text></g><g class="legend reactive activate-serie" id="activate-serie-2"><rect class="color-2 reactive" height="12" width="12" x="0.0" y="22.0"/><text x="17.0" y="32.2">Career Average</text></g></g></g></svg>