<?xml version='1.0' encoding='utf-8'?>
<svg xmlns:xlink="http://www.w3.org/1999/xlink" xmlns="http://www.w3.org/2000/svg" id="chart-d466c97b-0dec-4a57-b804-c3b94e530082" class="pygal-chart" viewBox="0 0 800 600"><!--Generated with pygal 2.4.0 (lxml) ©Kozea 2012-2016 on 2019-08-04--><!--http://pygal.org--><!--http://github.com/Kozea/pygal--><defs><style type="text/css">#chart-d466c97b-0dec-4a57-b804-c3b94e530082{-webkit-user-select:none;-webkit-font-smoothing:antialiased;font-family:Consolas,"Liberation Mono",Menlo,Courier,monospace}#chart-d466c97b-0dec-4a57-b804-c3b94e530082 .title{font-family:Consolas,"Liberation Mono",Menlo,Courier,monospace;font-size:16px}#chart-d466c97b-0dec-4a57-b804-c3b94e530082 .legends .legend text{font-family:Consolas,"Liberation Mono",Menlo,Courier,monospace;font-size:14px}#chart-d466c97b-0dec-4a57-b804-c3b94e530082 .axis text{font-family:Consolas,"Liberation Mono",Menlo,Courier,monospace;font-size:10px}#chart-d466c97b-0dec-4a57-b804-c3b94e530082 .axis text.major{font-family:Consolas,"Liberation Mono",Menlo,Courier,monospace;font-size:10px}#chart-d466c97b-0dec-4a57-b804-c3b94e530082 .text-overlay text.value{font-family:Consolas,"Liberation Mono",Menlo,Courier,monospace;font-size:16px}#chart-d466c97b-0dec-4a57-b804-c3b94e530082 .text-overlay text.label{font-family:Consolas,"Liberation Mono",Menlo,Courier,monospace;font-size:10px}#chart-d466c97b-0dec-4a57-b804-c3b94e530082 .tooltip{font-family:Consolas,"Liberation Mono",Menlo,Courier,monospace;font-size:14px}#chart-d466c97b-0dec-4a57-b804-c3b94e530082 text.no_data{font-family:Consolas,"Liberation Mono",Menlo,Courier,monospace;font-size:64px}
#chart-d466c97b-0dec-4a57-b804-c3b94e530082{background-color:rgba(249,249,249,1)}#chart-d466c97b-0dec-4a57-b804-c3b94e530082 path,#chart-d466c97b-0dec-4a57-b804-c3b94e530082 line,#chart-d466c97b-0dec-4a57-b804-c3b94e530082 rect,#chart-d466c97b-0dec-4a57-b804-c3b94e530082 circle{-webkit-transition:150ms;-moz-transition:150ms;transition:150ms}#chart-d466c97b-0dec-4a57-b804-c3b94e530082 .graph &gt; .background{fill:rgba(249,249,249,1)}#chart-d466c97b-0dec-4a57-b804-c3b94e530082 .plot &gt; .background{fill:rgba(255,255,255,1)}#chart-d466c97b-0dec-4a57-b804-c3b94e530082 .graph{fill:rgba(0,0,0,.87)}#chart-d466c97b-0dec-4a57-b804-c3b94e530082 text.no_data{fill:rgba(0,0,0,1)}#chart-d466c97b-0dec-4a57-b804-c3b94e530082 .title{fill:rgba(0,0,0,1)}#chart-d466c97b-0dec-4a57-b804-c3b94e530082 .legends .legend text{fill:rgba(0,0,0,.87)}#chart-d466c97b-0dec-4a57-b804-c3b94e530082 .legends .legend:hover text{fill:rgba(0,0,0,1)}#chart-d466c97b-0dec-4a57-b804-c3b94e530082 .axis .line{stroke:rgba(0,0,0,1)}#chart-d466c97b-0dec-4a57-b804-c3b94e530082 .axis .guide.line{stroke:rgba(0,0,0,.54)}#chart-d466c97b-0dec-4a57-b804-c3b94e530082 .axis .major.line{stroke:rgba(0,0,0,.87)}#chart-d466c97b-0dec-4a57-b804-c3b94e530082 .axis text.major{fill:rgba(0,0,0,1)}#chart-d466c97b-0dec-4a57-b804-c3b94e530082 .axis.y .guides:hover .guide.line,#chart-d466c97b-0dec-4a57-b804-c3b94e530082 .line-graph .axis.x .guides:hover .guide.line,#chart-d466c97b-0dec-4a57-b804-c3b94e530082 .stackedline-graph .axis.x .guides:hover .guide.line,#chart-d466c97b-0dec-4a57-b804-c3b94e530082 .xy-graph .axis.x .guides:hover .guide.line{stroke:rgba(0,0,0,1)}#chart-d466c97b-0dec-4a57-b804-c3b94e530082 .axis .guides:hover text{fill:rgba(0,0,0,1)}#chart-d466c97b-0dec-4a57-b804-c3b94e530082 .reactive{fill-opacity:.7;stroke-opacity:.8}#chart-d466c97b-0dec-4a57-b804-c3b94e530082 .ci{stroke:rgba(0,0,0,.87)}#chart-d466c97b-0dec-4a57-b804-c3b94e530082 .reactive.active,#chart-d466c97b-0dec-4a57-b804-c3b94e530082 .active .reactive{fill-opacity:.8;stroke-opacity:.9;stroke-width:4}#chart-d466c97b-0dec-4a57-b804-c3b94e530082 .ci .reactive.active{stroke-width:1.5}#chart-d466c97b-0dec-4a57-b804-c3b94e530082 .series text{fill:rgba(0,0,0,1)}#chart-d466c97b-0dec-4a57-b804-c3b94e530082 .tooltip rect{fill:rgba(255,255,255,1);stroke:rgba(0,0,0,1);-webkit-transition:opacity 150ms;-moz-transition:opacity 150ms;transition:opacity 150ms}#chart-d466c97b-0dec-4a57-b804-c3b94e530082 .tooltip .label{fill:rgba(0,0,0,.87)}#chart-d466c97b-0dec-4a57-b804-c3b94e530082 .tooltip .label{fill:rgba(0,0,0,.87)}#chart-d466c97b-0dec-4a57-b804-c3b94e530082 .tooltip .legend{font-size:.8em;fill:rgba(0,0,0,.54)}#chart-d466c97b-0dec-4a57-b804-c3b94e530082 .tooltip .x_label{font-size:.6em;fill:rgba(0,0,0,1)}#chart-d466c97b-0dec-4a57-b804-c3b94e530082 .tooltip .xlink{font-size:.5em;text-decoration:underline}#chart-d466c97b-0dec-4a57-b804-c3b94e530082 .tooltip .value{font-size:1.5em}#chart-d466c97b-0dec-4a57-b804-c3b94e530082 .bound{font-size:.5em}#chart-d466c97b-0dec-4a57-b804-c3b94e530082 .max-value{font-size:.75em;fill:rgba(0,0,0,.54)}#chart-d466c97b-0dec-4a57-b804-c3b94e530082 .map-element{fill:rgba(255,255,255,1);stroke:rgba(0,0,0,.54) !important}#chart-d466c97b-0dec-4a57-b804-c3b94e530082 .map-element .reactive{fill-opacity:inherit;stroke-opacity:inherit}#chart-d466c97b-0dec-4a57-b804-c3b94e530082 .color-0,#chart-d466c97b-0dec-4a57-b804-c3b94e530082 .color-0 a:visited{stroke:red;fill:red}#chart-d466c97b-0dec-4a57-b804-c3b94e530082 .color-1,#chart-d466c97b-0dec-4a57-b804-c3b94e530082 .color-1 a:visited{stroke:blue;fill:blue}#chart-d466c97b-0dec-4a57-b804-c3b94e530082 .color-2,#chart-d466c97b-0dec-4a57-b804-c3b94e530082 .color-2 a:visited{stroke:green;fill:green}#chart-d466c97b-0dec-4a57-b804-c3b94e530082 .text-overlay .color-0 text{fill:white}#chart-d466c97b-0dec-4a57-b804-c3b94e530082 .text-overlay .color-1 text{fill:white}#chart-d466c97b-0dec-4a57-b804-c3b94e530082 .text-overlay .color-2 text{fill:white}
#chart-d466c97b-0dec-4a57-b804-c3b94e530082 text.no_data{text-anchor:middle}#chart-d466c97b-0dec-4a57-b804-c3b94e530082 .guide.line{fill:none}#chart-d466c97b-0dec-4a57-b804-c3b94e530082 .centered{text-anchor:middle}#chart-d466c97b-0dec-4a57-b804-c3b94e530082 .title{text-anchor:middle}#chart-d466c97b-0dec-4a57-b804-c3b94e530082 .legends .legend text{fill-opacity:1}#chart-d466c97b-0dec-4a57-b804-c3b94e530082 .axis.x text{text-anchor:middle}#chart-d466c97b-0dec-4a57-b804-c3b94e530082 .axis.x:not(.web) text[transform]{text-anchor:start}#chart-d466c97b-0dec-4a57-b804-c3b94e530082 .axis.x:not(.web) text[transform].backwards{text-anchor:end}#chart-d466c97b-0dec-4a57-b804-c3b94e530082 .axis.y text{text-anchor:end}#chart-d466c97b-0dec-4a57-b804-c3b94e530082 .axis.y text[transform].backwards{text-anchor:start}#chart-d466c97b-0dec-4a57-b804-c3b94e530082 .axis.y2 text{text-anchor:start}#chart-d466c97b-0dec-4a57-b804-c3b94e530082 .axis.y2 text[transform].backwards{text-anchor:end}#chart-d466c97b-0dec-4a57-b804-c3b94e530082 .axis .guide.line{stroke-dasharray:4,4}#chart-d466c97b-0dec-4a57-b804-c3b94e530082 .axis .major.guide.line{stroke-dasharray:6,6}#chart-d466c97b-0dec-4a57-b804-c3b94e530082 .horizontal .axis.y .guide.line,#chart-d466c97b-0dec-4a57-b804-c3b94e530082 .horizontal .axis.y2 .guide.line,#chart-d466c97b-0dec-4a57-b804-c3b94e530082 .vertical .axis.x .guide.line{opacity:0}#chart-d466c97b-0dec-4a57-b804-c3b94e530082 .horizontal .axis.always_show .guide.line,#chart-d466c97b-0dec-4a57-b804-c3b94e530082 .vertical .axis.always_show .guide.line{opacity:1 !important}#chart-d466c97b-0dec-4a57-b804-c3b94e530082 .axis.y .guides:hover .guide.line,#chart-d466c97b-0dec-4a57-b804-c3b94e530082 .axis.y2 .guides:hover .guide.line,#chart-d466c97b-0dec-4a57-b804-c3b94e530082 .axis.x .guides:hover .guide.line{opacity:1}#chart-d466c97b-0dec-4a57-b804-c3b94e530082 .axis .guides:hover text{opacity:1}#chart-d466c97b-0dec-4a57-b804-c3b94e530082 .nofill{fill:none}#chart-d466c97b-0dec-4a57-b804-c3b94e530082 .subtle-fill{fill-opacity:.2}#chart-d466c97b-0dec-4a57-b804-c3b94e530082 .dot{stroke-width:1px;fill-opacity:1}#chart-d466c97b-0dec-4a57-b804-c3b94e530082 .dot.active{stroke-width:5px}#chart-d466c97b-0dec-4a57-b804-c3b94e530082 .dot.negative{fill:transparent}#chart-d466c97b-0dec-4a57-b804-c3b94e530082 text,#chart-d466c97b-0dec-4a57-b804-c3b94e530082 tspan{stroke:none !important}#chart-d466c97b-0dec-4a57-b804-c3b94e530082 .series text.active{opacity:1}#chart-d466c97b-0dec-4a57-b804-c3b94e530082 .tooltip rect{fill-opacity:.95;stroke-width:.5}#chart-d466c97b-0dec-4a57-b804-c3b94e530082 .tooltip text{fill-opacity:1}#chart-d466c97b-0dec-4a57-b804-c3b94e530082 .showable{visibility:hidden}#chart-d466c97b-0dec-4a57-b804-c3b94e530082 .showable.shown{visibility:visible}#chart-d466c97b-0dec-4a57-b804-c3b94e530082 .gauge-background{fill:rgba(229,229,229,1);stroke:none}#chart-d466c97b-0dec-4a57-b804-c3b94e530082 .bg-lines{stroke:rgba(249,249,249,1);stroke-width:2px}</style><script type="text/javascript">window.pygal = window.pygal || {};window.pygal.config = window.pygal.config || {};window.pygal.config['d466c97b-0dec-4a57-b804-c3b94e530082'] = {"allow_interruptions": false, "box_mode": "extremes", "classes": ["pygal-chart"], "css": ["file://style.css", "file://graph.css"], "defs": [], "disable_xml_declaration": false, "dots_size": 2.5, "dynamic_print_values": false, "explicit_size": false, "fill": false, "force_uri_protocol": "https", "formatter": null, "half_pie": false, "height": 600, "include_x_axis": false, "inner_radius": 0, "interpolate": null, "interpolation_parameters": {}, "interpolation_precision": 250, "inverse_y_axis": false, "js": ["//kozea.github.io/pygal.js/2.0.x/pygal-tooltips.min.js"], "legend_at_bottom": true, "legend_at_bottom_columns": null, "legend_box_size": 12, "logarithmic": false, "margin": 20, "margin_bottom": null, "margin_left": null, "margin_right": null, "margin_top": null, "max_scale": 16, "min_scale": 4, "missing_value_fill_truncation": "x", "no_data_text": "No data", "no_prefix": false, "order_min": null, "pretty_print": false, "print_labels": false, "print_values": false, "print_values_position": "center", "print_zeroes": true, "range": null, "rounded_bars": null, "secondary_range": null, "show_dots": true, "show_legend": true, "show_minor_x_labels": false, "show_minor_y_labels": true, "show_only_major_dots": false, "show_x_guides": false, "show_x_labels": true, "show_y_guides": true, "show_y_labels": true, "spacing": 10, "stack_from_top": false, "strict": false, "stroke": true, "stroke_style": null, "style": {"background": "rgba(249, 249, 249, 1)", "ci_colors": [], "colors": ["red", "blue", "green", "#a3a3a3"], "font_family": "Consolas, \"Liberation Mono\", Menlo, Courier, monospace", "foreground": "rgba(0, 0, 0, .87)", "foreground_strong": "rgba(0, 0, 0, 1)", "foreground_subtle": "rgba(0, 0, 0, .54)", "guide_stroke_dasharray": "4,4", "label_font_family": "Consolas, \"Liberation Mono\", Menlo, Courier, monospace", "label_font_size": 10, "legend_font_family": "Consolas, \"Liberation Mono\", Menlo, Courier, monospace", "legend_font_size": 14, "major_guide_stroke_dasharray": "6,6", "major_label_font_family": "Consolas, \"Liberation Mono\", Menlo, Courier, monospace", "major_label_font_size": 10, "no_data_font_family": "Consolas, \"Liberation Mono\", Menlo, Courier, monospace", "no_data_font_size": 64, "opacity": ".7", "opacity_hover": ".8", "plot_background": "rgba(255, 255, 255, 1)", "stroke_opacity": ".8", "stroke_opacity_hover": ".9", "title_font_family": "Consolas, \"Liberation Mono\", Menlo, Courier, monospace", "title_font_size": 16, "tooltip_font_family": "Consolas, \"Liberation Mono\", Menlo, Courier, monospace", "tooltip_font_size": 14, "transition": "150ms", "value_background": "rgba(229, 229, 229, 1)", "value_colors": [], "value_font_family": "Consolas, \"Liberation Mono\", Menlo, Courier, monospace", "value_font_size": 16, "value_label_font_family": "Consolas, \"Liberation Mono\", Menlo, Courier, monospace", "value_label_font_size": 10}, "title": "M Muralitharan: Future and Past Averages in ODIs", "tooltip_border_radius": 10, "tooltip_fancy_mode": true, "truncate_label": null, "truncate_legend": null, "width": 800, "x_label_rotation": 45, "x_labels": ["1993", "0", "0", "0", "0", "0", "0", "0", "0", "1994", "0", "0", "0", "0", "0", "0", "0", "0", "0", "1995", "0", "0", "0", "0", "0", "0", "0", "0", "0", "0", "0", "0", "0", "1996", "0", "0", "0", "0", "0", "0", "0", "0", "0", "0", "0", "0", "0", "0", "0", "0", "0", "0", "0", "0", "0", "0", "1997", "0", "0", "0", "0", "0", "0", "0", "0", "0", "0", "0", "0", "0", "0", "0", "0", "0", "0", "0", "0", "0", "0", "0", "0", "1998", "0", "0", "0", "0", "0", "0", "0", "0", "0", "0", "0", "0", "0", "0", "0", "0", "0", "1999", "0", "0", "0", "0", "0", "0", "0", "0", "0", "0", "0", "0", "0", "0", "0", "0", "0", "0", "0", "0", "0", "0", "0", "0", "0", "0", "2000", "0", "0", "0", "0", "0", "0", "0", "0", "0", "0", "0", "0", "0", "0", "0", "0", "0", "0", "0", "0", "2001", "0", "0", "0", "0", "0", "0", "0", "0", "0", "0", "0", "0", "0", "0", "0", "0", "0", "0", "0", "0", "0", "0", "0", "0", "0", "0", "0", "0", "0", "0", "0", "0", "2002", "0", "0", "0", "0", "0", "0", "0", "0", "0", "0", "0", "0", "0", "2003", "0", "0", "0", "0", "0", "0", "0", "0", "0", "0", "0", "0", "0", "0", "0", "0", "0", "0", "0", "0", "0", "0", "0", "2004", "0", "0", "0", "0", "0", "0", "0", "0", "0", "0", "0", "0", "2005", "0", "0", "0", "0", "0", "0", "0", "0", "0", "0", "0", "0", "0", "0", "0", "0", "0", "0", "2006", "0", "0", "0", "0", "0", "0", "0", "0", "0", "0", "0", "0", "0", "0", "0", "0", "0", "0", "0", "0", "0", "0", "0", "0", "0", "0", "2007", "0", "0", "0", "0", "0", "0", "0", "0", "0", "0", "0", "2008", "0", "0", "0", "0", "0", "0", "0", "0", "0", "0", "0", "0", "0", "0", "0", "0", "0", "0", "0", "0", "2009", "0", "0", "0", "0", "0", "0", "0", "0", "0", "0", "0", "0", "0", "0", "0", "2010", "0", "0", "0", "0", "2011", "0", "0", "0", "0", "0", "0", "0", "0", "0"], "x_labels_major": ["1993", "1994", "1995", "1996", "1997", "1998", "1999", "2000", "2001", "2002", "2003", "2004", "2005", "2006", "2007", "2008", "2009", "2010", "2011"], "x_labels_major_count": null, "x_labels_major_every": null, "x_title": null, "xrange": null, "y_label_rotation": 0, "y_labels": null, "y_labels_major": null, "y_labels_major_count": null, "y_labels_major_every": null, "y_title": null, "zero": 60, "legends": ["Future Average", "Past Average", "Career Average"]}</script><script type="text/javascript" xlink:href="https://kozea.github.io/pygal.js/2.0.x/pygal-tooltips.min.js"/></defs><title>M Muralitharan: Future and Past Averages in ODIs</title><g class="graph line-graph vertical"><rect class="background" height="600" width="800" x="0" y="0"/><g class="plot" transform="translate(42, 46)"><rect class="background" height="462.02943725152284" width="738.0" x="0" y="0"/><g class="axis y always_show"><g class="guides"><path class="axis major line" d="M0.000000 453.144256 h738.000000"/><text class="major" x="-5" y="456.6442557659166">0</text><title>0</title></g><g class="guides"><path class="guide line" d="M0.000000 351.715243 h738.000000"/><text class="" x="-5" y="355.2152433731517">10</text><title>10</title></g><g class="guides"><path class="guide line" d="M0.000000 250.286231 h738.000000"/><text class="" x="-5" y="253.78623098038673">20</text><title>20</title></g><g class="guides"><path class="guide line" d="M0.000000 148.857219 h738.000000"/><text class="" x="-5" y="152.35721858762173">30</text><title>30</title></g><g class="guides"><path class="guide line" d="M0.000000 47.428206 h738.000000"/><text class="" x="-5" y="50.92820619485684">40</text><title>40</title></g></g><g class="axis x"><g class="guides"><path class="major line" d="M14.192308 0.000000 v462.029437"/><text class="major" x="14.192307692307692" y="477.02943725152284" transform="rotate(45 14.192308 477.029437)">1993</text></g><g class="guides"><path class="major guide line" d="M32.976244 0.000000 v462.029437"/><text class="major" x="32.9762443438914" y="477.02943725152284" transform="rotate(45 32.976244 477.029437)">1994</text></g><g class="guides"><path class="major guide line" d="M53.847285 0.000000 v462.029437"/><text class="major" x="53.8472850678733" y="477.02943725152284" transform="rotate(45 53.847285 477.029437)">1995</text></g><g class="guides"><path class="major guide line" d="M83.066742 0.000000 v462.029437"/><text class="major" x="83.06674208144796" y="477.02943725152284" transform="rotate(45 83.066742 477.029437)">1996</text></g><g class="guides"><path class="major guide line" d="M131.070136 0.000000 v462.029437"/><text class="major" x="131.07013574660633" y="477.02943725152284" transform="rotate(45 131.070136 477.029437)">1997</text></g><g class="guides"><path class="major guide line" d="M183.247738 0.000000 v462.029437"/><text class="major" x="183.2477375565611" y="477.02943725152284" transform="rotate(45 183.247738 477.029437)">1998</text></g><g class="guides"><path class="major guide line" d="M220.815611 0.000000 v462.029437"/><text class="major" x="220.81561085972854" y="477.02943725152284" transform="rotate(45 220.815611 477.029437)">1999</text></g><g class="guides"><path class="major guide line" d="M277.167421 0.000000 v462.029437"/><text class="major" x="277.1674208144796" y="477.02943725152284" transform="rotate(45 277.167421 477.029437)">2000</text></g><g class="guides"><path class="major guide line" d="M320.996606 0.000000 v462.029437"/><text class="major" x="320.99660633484166" y="477.02943725152284" transform="rotate(45 320.996606 477.029437)">2001</text></g><g class="guides"><path class="major guide line" d="M389.871041 0.000000 v462.029437"/><text class="major" x="389.87104072398193" y="477.02943725152284" transform="rotate(45 389.871041 477.029437)">2002</text></g><g class="guides"><path class="major guide line" d="M419.090498 0.000000 v462.029437"/><text class="major" x="419.0904977375566" y="477.02943725152284" transform="rotate(45 419.090498 477.029437)">2003</text></g><g class="guides"><path class="major guide line" d="M469.180995 0.000000 v462.029437"/><text class="major" x="469.18099547511315" y="477.02943725152284" transform="rotate(45 469.180995 477.029437)">2004</text></g><g class="guides"><path class="major guide line" d="M496.313348 0.000000 v462.029437"/><text class="major" x="496.31334841628967" y="477.02943725152284" transform="rotate(45 496.313348 477.029437)">2005</text></g><g class="guides"><path class="major guide line" d="M535.968326 0.000000 v462.029437"/><text class="major" x="535.9683257918552" y="477.02943725152284" transform="rotate(45 535.968326 477.029437)">2006</text></g><g class="guides"><path class="major guide line" d="M592.320136 0.000000 v462.029437"/><text class="major" x="592.3201357466063" y="477.02943725152284" transform="rotate(45 592.320136 477.029437)">2007</text></g><g class="guides"><path class="major guide line" d="M617.365385 0.000000 v462.029437"/><text class="major" x="617.3653846153845" y="477.02943725152284" transform="rotate(45 617.365385 477.029437)">2008</text></g><g class="guides"><path class="major guide line" d="M661.194570 0.000000 v462.029437"/><text class="major" x="661.1945701357465" y="477.02943725152284" transform="rotate(45 661.194570 477.029437)">2009</text></g><g class="guides"><path class="major guide line" d="M694.588235 0.000000 v462.029437"/><text class="major" x="694.5882352941177" y="477.02943725152284" transform="rotate(45 694.588235 477.029437)">2010</text></g><g class="guides"><path class="major guide line" d="M705.023756 0.000000 v462.029437"/><text class="major" x="705.0237556561086" y="477.02943725152284" transform="rotate(45 705.023756 477.029437)">2011</text></g></g><g class="series serie-0 color-0"><path class="line reactive nofill" d="M14.192308 219.046095 L16.279412 219.350382 18.366516 219.248953 20.453620 218.538950 22.540724 219.046095 24.627828 219.857527 26.714932 220.161814 28.802036 220.973246 30.889140 220.770388 32.976244 221.074675 35.063348 221.378962 37.150452 221.277533 39.237557 221.277533 41.324661 221.480391 43.411765 222.494682 45.498869 222.494682 47.585973 223.001827 49.673077 222.596111 51.760181 223.610401 53.847285 224.218975 55.934389 224.624691 58.021493 225.334694 60.108597 225.537552 62.195701 224.218975 64.282805 224.624691 66.369910 225.537552 68.457014 225.841839 70.544118 226.044697 72.631222 226.146126 74.718326 226.754700 76.805430 227.667561 78.892534 226.957558 80.979638 226.754700 83.066742 227.768990 85.153846 227.768990 87.240950 228.174706 89.328054 228.478993 91.415158 229.290425 93.502262 229.188996 95.589367 229.087567 97.676471 229.188996 99.763575 229.391854 101.850679 229.696141 103.937783 229.290425 106.024887 229.290425 108.111991 229.087567 110.199095 230.000429 112.286199 229.898999 114.373303 230.203287 116.460407 230.406145 118.547511 228.884709 120.634615 227.667561 122.721719 228.377564 124.808824 228.681851 126.895928 228.377564 128.983032 228.377564 131.070136 229.188996 133.157240 229.087567 135.244344 228.884709 137.331448 228.783280 139.418552 228.073277 141.505656 227.667561 143.592760 227.566132 145.679864 226.957558 147.766968 227.363274 149.854072 227.667561 151.941176 227.768990 154.028281 228.884709 156.115385 228.276135 158.202489 229.594712 160.289593 230.609003 162.376697 231.319006 164.463801 231.014719 166.550905 231.420435 168.638009 232.536154 170.725113 232.434725 172.812217 232.941870 174.899321 233.956160 176.986425 233.854731 179.073529 234.666163 181.160633 235.274737 183.247738 234.970450 185.334842 235.781882 187.421946 236.289027 189.509050 236.796172 191.596154 237.709033 193.683258 236.897601 195.770362 236.491885 197.857466 234.361876 199.944570 234.666163 202.031674 234.767592 204.118778 234.869021 206.205882 235.579024 208.292986 235.781882 210.380090 236.491885 212.467195 236.999030 214.554299 238.114749 216.641403 236.289027 218.728507 235.376166 220.815611 236.086169 222.902715 235.274737 224.989819 235.984740 227.076923 236.491885 229.164027 236.491885 231.251131 237.709033 233.338235 238.419037 235.425339 238.621895 237.512443 239.230469 239.599548 238.520466 241.686652 238.824753 243.773756 237.810462 245.860860 237.404746 247.947964 239.027611 250.035068 239.331898 252.122172 240.346188 254.209276 240.650475 256.296380 240.346188 258.383484 241.461907 260.470588 241.259049 262.557692 240.853333 264.644796 240.244759 266.731900 239.129040 268.819005 240.143330 270.906109 241.157620 272.993213 241.360478 275.080317 239.433327 277.167421 240.954762 279.254525 240.041901 281.341629 240.143330 283.428733 240.346188 285.515837 240.751904 287.602941 241.259049 289.690045 241.766194 291.777149 242.983342 293.864253 243.186200 295.951357 242.983342 298.038462 243.389058 300.125566 244.301919 302.212670 242.577626 304.299774 242.780484 306.386878 243.997632 308.473982 243.794774 310.561086 244.606206 312.648190 243.896203 314.735294 240.346188 316.822398 238.621895 318.909502 239.129040 320.996606 239.940472 323.083710 241.157620 325.170814 242.171910 327.257919 242.476197 329.345023 241.969052 331.432127 239.636185 333.519231 240.853333 335.606335 240.853333 337.693439 240.244759 339.780543 240.954762 341.867647 239.129040 343.954751 237.404746 346.041855 238.419037 348.128959 238.723324 350.216063 236.999030 352.303167 238.216179 354.390271 238.723324 356.477376 238.317608 358.564480 238.114749 360.651584 237.810462 362.738688 238.216179 364.825792 239.129040 366.912896 239.940472 369.000000 239.433327 371.087104 239.027611 373.174208 238.114749 375.261312 238.114749 377.348416 238.114749 379.435520 236.593314 381.522624 235.071879 383.609729 235.579024 385.696833 233.550444 387.783937 233.144728 389.871041 233.956160 391.958145 232.536154 394.045249 228.580422 396.132353 229.696141 398.219457 229.898999 400.306561 229.898999 402.393665 229.797570 404.480769 228.073277 406.567873 228.580422 408.654977 228.174706 410.742081 228.478993 412.829186 228.073277 414.916290 226.551842 417.003394 223.407543 419.090498 221.581820 421.177602 221.581820 423.264706 222.088966 425.351810 219.248953 427.438914 219.147524 429.526018 217.118944 431.613122 216.206083 433.700226 213.163212 435.787330 213.264641 437.874434 214.583219 439.961538 215.698938 442.048643 214.481790 444.135747 214.380361 446.222851 215.800367 448.309955 217.423231 450.397059 214.786077 452.484163 214.988935 454.571267 213.366070 456.658371 210.627487 458.745475 205.657466 460.832579 205.251749 462.919683 202.310308 465.006787 205.048891 467.093891 205.150320 469.180995 204.643175 471.268100 203.628885 473.355204 206.266040 475.442308 208.598907 477.529412 207.077472 479.616516 206.266040 481.703620 207.584617 483.790724 203.831743 485.877828 198.050290 487.964932 194.804561 490.052036 196.021709 492.139140 195.413135 494.226244 195.413135 496.313348 198.151719 498.400452 197.137428 500.487557 194.500274 502.574661 194.195987 504.661765 194.500274 506.748869 193.485984 508.835973 193.485984 510.923077 194.804561 513.010181 193.688842 515.097285 195.108848 517.184389 196.630283 519.271493 195.920280 521.358597 197.137428 523.445701 196.325996 525.532805 199.673154 527.619910 200.078870 529.707014 199.876012 531.794118 197.035999 533.881222 199.673154 535.968326 199.977441 538.055430 200.991731 540.142534 202.310308 542.229638 204.947462 544.316742 209.816055 546.403846 208.801765 548.490950 211.033203 550.578054 210.830345 552.665158 209.917484 554.752262 212.148922 556.839367 209.917484 558.926471 210.323200 561.013575 207.686046 563.100679 215.800367 565.187783 217.930376 567.274887 220.668959 569.361991 222.494682 571.449095 221.683249 573.536199 223.711830 575.623303 226.146126 577.710407 228.073277 579.797511 225.943268 581.884615 227.160416 583.971719 228.478993 586.058824 222.393253 588.145928 224.218975 590.233032 226.653271 592.320136 223.103256 594.407240 222.697540 596.494344 218.843237 598.581448 217.017515 600.668552 216.206083 602.755656 213.061783 604.842760 209.106052 606.929864 210.221771 609.016968 212.960354 611.104072 208.396049 613.191176 198.963151 615.278281 190.037398 617.365385 195.717422 619.452489 195.717422 621.539593 201.296018 623.626697 206.063182 625.713801 209.004623 627.800905 211.743206 629.888009 210.221771 631.975113 214.481790 634.062217 213.771787 636.149321 212.250351 638.236425 215.597509 640.323529 201.498876 642.410633 200.586015 644.497738 200.788873 646.584842 193.993129 648.671946 199.571725 650.759050 208.294620 652.846154 214.177503 654.933258 198.151719 657.020362 198.354577 659.107466 192.167407 661.194570 169.143021 663.281674 156.565824 665.368778 166.201580 667.455882 160.217268 669.542986 163.665854 671.630090 144.901487 673.717195 127.354268 675.804299 133.440009 677.891403 143.278623 679.978507 152.711521 682.065611 164.578716 684.152715 159.000120 686.239819 154.537243 688.326923 147.234354 690.414027 148.857219 692.501131 169.143021 694.588235 183.850228 696.675339 205.353178 698.762443 199.571725 700.849548 217.727518 702.936652 236.897601 705.023756 229.391854 707.110860 254.444820 709.197964 256.371972 711.285068 255.763398 713.372172 268.847740 715.459276 274.223478 717.546380 250.286231 719.633484 110.821339 721.720588 42.356756 723.807692 57.571107"/></g><g class="series serie-1 color-1"><path class="line reactive nofill" d="M14.192308 453.144256 L16.279412 67.714009 18.366516 153.928669 20.453620 288.322111 22.540724 217.321802 24.627828 110.821339 26.714932 96.114132 28.802036 8.885181 30.889140 83.638364 32.976244 82.928361 35.063348 80.088348 37.150452 111.024197 39.237557 121.775672 41.324661 119.239947 43.411765 77.856910 45.498869 89.419817 47.585973 80.595493 49.673077 110.719910 51.760181 80.798351 53.847285 61.729697 55.934389 59.802546 58.021493 47.428206 60.108597 51.485367 62.195701 108.691330 64.282805 105.445601 66.369910 86.782663 68.457014 86.478376 70.544118 86.884092 72.631222 94.288410 74.718326 88.709814 76.805430 74.104036 78.892534 99.055574 80.979638 109.198475 83.066742 94.085552 85.153846 100.881296 87.240950 96.519848 89.328054 96.012703 91.415158 84.754083 93.502262 93.071262 95.589367 101.287012 97.676471 102.605589 99.763575 103.417021 101.850679 105.648459 103.937783 114.878499 106.024887 119.848521 108.111991 125.427117 110.199095 117.211367 112.286199 121.978530 114.373303 121.369956 116.460407 122.282817 118.547511 141.250043 120.634615 155.145817 122.721719 153.015808 124.808824 151.900089 126.895928 155.754391 128.983032 156.870111 131.070136 152.812950 133.157240 155.247246 135.244344 158.898691 137.331448 161.332987 139.418552 167.520157 141.505656 172.084462 143.592760 174.011614 145.679864 178.677348 147.766968 177.358771 149.854072 176.243052 151.941176 176.851626 154.028281 171.577317 156.115385 176.141623 158.202489 169.954453 160.289593 165.288719 162.376697 162.144419 164.463801 165.085861 166.550905 164.071570 168.638009 158.797262 170.725113 160.724413 172.812217 159.507265 174.899321 154.841530 176.986425 157.072969 179.073529 153.725811 181.160633 151.798660 183.247738 155.247246 185.334842 152.812950 187.421946 151.595802 189.509050 150.682941 191.596154 147.842928 193.683258 153.320095 195.770362 156.870111 197.857466 167.114441 199.944570 166.708725 202.031674 167.317299 204.118778 167.723015 206.205882 165.390148 208.292986 165.897293 210.380090 164.071570 212.467195 163.057280 214.554299 159.811552 216.641403 168.128731 218.728507 171.983033 220.815611 170.563027 222.902715 174.113043 224.989819 172.591607 227.076923 171.678746 229.164027 172.591607 231.251131 169.447308 233.338235 167.824444 235.425339 168.027302 237.512443 166.810154 239.599548 169.548737 241.686652 169.244450 243.773756 173.098753 245.860860 174.721617 247.947964 170.867314 250.035068 170.157311 252.122172 167.723015 254.209276 167.520157 256.296380 169.751595 258.383484 167.114441 260.470588 168.331589 262.557692 170.360169 264.644796 172.388749 266.731900 176.040194 268.819005 174.214472 270.906109 171.881604 272.993213 172.388749 275.080317 177.764487 277.167421 174.823046 279.254525 177.663058 281.341629 178.271632 283.428733 178.170203 285.515837 177.663058 287.602941 177.054484 289.690045 176.141623 291.777149 173.808756 293.864253 173.808756 295.951357 174.924475 298.038462 174.518759 300.125566 172.895895 302.212670 177.764487 304.299774 177.257342 306.386878 175.228762 308.473982 176.243052 310.561086 175.330191 312.648190 177.155913 314.735294 185.067376 316.822398 188.617391 318.909502 188.008817 320.996606 186.994527 323.083710 185.067376 325.170814 183.850228 327.257919 183.647370 329.345023 184.965947 331.432127 189.631682 333.519231 187.805959 335.606335 188.313104 337.693439 189.631682 339.780543 188.820249 341.867647 192.167407 343.954751 195.108848 346.041855 193.790271 348.128959 193.790271 350.216063 196.528854 352.303167 195.210277 354.390271 194.601703 356.477376 195.615993 358.564480 196.224567 360.651584 196.833141 362.738688 196.630283 364.825792 195.413135 366.912896 194.601703 369.000000 195.514564 371.087104 196.224567 373.174208 197.644574 375.261312 197.847432 377.348416 197.948861 379.435520 200.078870 381.522624 202.006021 383.609729 201.600305 385.696833 204.136030 387.783937 204.846033 389.871041 204.136030 391.958145 205.860324 394.045249 210.018913 396.132353 208.903194 398.219457 208.903194 400.306561 209.004623 402.393665 209.207481 404.480769 210.931774 406.567873 210.526058 408.654977 210.931774 410.742081 210.728916 412.829186 211.236061 414.916290 212.656067 417.003394 215.394651 419.090498 216.916086 421.177602 217.017515 423.264706 216.611799 425.351810 218.843237 427.438914 218.944666 429.526018 220.466101 431.613122 221.074675 433.700226 223.103256 435.787330 223.001827 437.874434 222.088966 439.961538 221.378962 442.048643 222.088966 444.135747 222.088966 446.222851 221.176104 448.309955 220.060385 450.397059 221.784678 452.484163 221.683249 454.571267 222.596111 456.658371 224.218975 458.745475 226.856129 460.832579 226.957558 462.919683 228.478993 465.006787 226.957558 467.093891 226.754700 469.180995 227.058987 471.268100 227.464703 473.355204 226.044697 475.442308 224.726120 477.529412 225.436123 479.616516 225.740410 481.703620 225.030407 483.790724 226.653271 485.877828 229.188996 487.964932 230.406145 490.052036 229.797570 492.139140 230.000429 494.226244 229.898999 496.313348 228.580422 498.400452 228.783280 500.487557 229.696141 502.574661 229.696141 504.661765 229.391854 506.748869 229.696141 508.835973 229.594712 510.923077 228.884709 513.010181 229.290425 515.097285 228.681851 517.184389 228.073277 519.271493 228.073277 521.358597 227.566132 523.445701 227.768990 525.532805 226.450413 527.619910 226.247555 529.707014 226.146126 531.794118 226.957558 533.881222 226.044697 535.968326 225.841839 538.055430 225.436123 540.142534 224.928978 542.229638 224.016117 544.316742 222.291824 546.403846 222.494682 548.490950 221.784678 550.578054 221.784678 552.665158 221.987537 554.752262 221.277533 556.839367 221.886108 558.926471 221.784678 561.013575 222.494682 563.100679 219.958956 565.187783 219.350382 567.274887 218.538950 569.361991 218.031805 571.449095 218.234663 573.536199 217.727518 575.623303 217.017515 577.710407 216.510370 579.797511 217.118944 581.884615 216.814657 583.971719 216.408941 586.058824 218.133234 588.145928 217.727518 590.233032 217.118944 592.320136 218.031805 594.407240 218.133234 596.494344 219.046095 598.581448 219.451811 600.668552 219.654669 602.755656 220.364672 604.842760 221.074675 606.929864 220.770388 609.016968 220.263243 611.104072 221.074675 613.191176 222.697540 615.278281 224.016117 617.365385 223.103256 619.452489 222.900398 621.539593 221.987537 623.626697 221.176104 625.713801 220.668959 627.800905 220.161814 629.888009 220.364672 631.975113 219.756098 634.062217 219.857527 636.149321 220.060385 638.236425 219.553240 640.323529 221.277533 642.410633 221.378962 644.497738 221.277533 646.584842 221.987537 648.671946 221.277533 650.759050 220.263243 652.846154 219.553240 654.933258 221.176104 657.020362 221.176104 659.107466 221.784678 661.194570 223.508972 663.281674 224.320404 665.368778 223.508972 667.455882 223.813259 669.542986 223.407543 671.630090 224.421833 673.717195 225.233265 675.804299 224.624691 677.891403 224.016117 679.978507 223.204685 682.065611 222.393253 684.152715 222.494682 686.239819 222.494682 688.326923 222.596111 690.414027 222.190395 692.501131 221.277533 694.588235 220.567530 696.675339 219.553240 698.762443 219.756098 700.849548 219.046095 702.936652 218.336092 705.023756 218.640379 707.110860 217.828947 709.197964 217.930376 711.285068 218.133234 713.372172 217.828947 715.459276 217.828947 717.546380 218.538950 719.633484 219.857527 721.720588 219.654669 723.807692 219.756098"/></g><g class="series serie-2 color-2"><path class="line reactive nofill" d="M14.192308 219.046095 L16.279412 219.046095 18.366516 219.046095 20.453620 219.046095 22.540724 219.046095 24.627828 219.046095 26.714932 219.046095 28.802036 219.046095 30.889140 219.046095 32.976244 219.046095 35.063348 219.046095 37.150452 219.046095 39.237557 219.046095 41.324661 219.046095 43.411765 219.046095 45.498869 219.046095 47.585973 219.046095 49.673077 219.046095 51.760181 219.046095 53.847285 219.046095 55.934389 219.046095 58.021493 219.046095 60.108597 219.046095 62.195701 219.046095 64.282805 219.046095 66.369910 219.046095 68.457014 219.046095 70.544118 219.046095 72.631222 219.046095 74.718326 219.046095 76.805430 219.046095 78.892534 219.046095 80.979638 219.046095 83.066742 219.046095 85.153846 219.046095 87.240950 219.046095 89.328054 219.046095 91.415158 219.046095 93.502262 219.046095 95.589367 219.046095 97.676471 219.046095 99.763575 219.046095 101.850679 219.046095 103.937783 219.046095 106.024887 219.046095 108.111991 219.046095 110.199095 219.046095 112.286199 219.046095 114.373303 219.046095 116.460407 219.046095 118.547511 219.046095 120.634615 219.046095 122.721719 219.046095 124.808824 219.046095 126.895928 219.046095 128.983032 219.046095 131.070136 219.046095 133.157240 219.046095 135.244344 219.046095 137.331448 219.046095 139.418552 219.046095 141.505656 219.046095 143.592760 219.046095 145.679864 219.046095 147.766968 219.046095 149.854072 219.046095 151.941176 219.046095 154.028281 219.046095 156.115385 219.046095 158.202489 219.046095 160.289593 219.046095 162.376697 219.046095 164.463801 219.046095 166.550905 219.046095 168.638009 219.046095 170.725113 219.046095 172.812217 219.046095 174.899321 219.046095 176.986425 219.046095 179.073529 219.046095 181.160633 219.046095 183.247738 219.046095 185.334842 219.046095 187.421946 219.046095 189.509050 219.046095 191.596154 219.046095 193.683258 219.046095 195.770362 219.046095 197.857466 219.046095 199.944570 219.046095 202.031674 219.046095 204.118778 219.046095 206.205882 219.046095 208.292986 219.046095 210.380090 219.046095 212.467195 219.046095 214.554299 219.046095 216.641403 219.046095 218.728507 219.046095 220.815611 219.046095 222.902715 219.046095 224.989819 219.046095 227.076923 219.046095 229.164027 219.046095 231.251131 219.046095 233.338235 219.046095 235.425339 219.046095 237.512443 219.046095 239.599548 219.046095 241.686652 219.046095 243.773756 219.046095 245.860860 219.046095 247.947964 219.046095 250.035068 219.046095 252.122172 219.046095 254.209276 219.046095 256.296380 219.046095 258.383484 219.046095 260.470588 219.046095 262.557692 219.046095 264.644796 219.046095 266.731900 219.046095 268.819005 219.046095 270.906109 219.046095 272.993213 219.046095 275.080317 219.046095 277.167421 219.046095 279.254525 219.046095 281.341629 219.046095 283.428733 219.046095 285.515837 219.046095 287.602941 219.046095 289.690045 219.046095 291.777149 219.046095 293.864253 219.046095 295.951357 219.046095 298.038462 219.046095 300.125566 219.046095 302.212670 219.046095 304.299774 219.046095 306.386878 219.046095 308.473982 219.046095 310.561086 219.046095 312.648190 219.046095 314.735294 219.046095 316.822398 219.046095 318.909502 219.046095 320.996606 219.046095 323.083710 219.046095 325.170814 219.046095 327.257919 219.046095 329.345023 219.046095 331.432127 219.046095 333.519231 219.046095 335.606335 219.046095 337.693439 219.046095 339.780543 219.046095 341.867647 219.046095 343.954751 219.046095 346.041855 219.046095 348.128959 219.046095 350.216063 219.046095 352.303167 219.046095 354.390271 219.046095 356.477376 219.046095 358.564480 219.046095 360.651584 219.046095 362.738688 219.046095 364.825792 219.046095 366.912896 219.046095 369.000000 219.046095 371.087104 219.046095 373.174208 219.046095 375.261312 219.046095 377.348416 219.046095 379.435520 219.046095 381.522624 219.046095 383.609729 219.046095 385.696833 219.046095 387.783937 219.046095 389.871041 219.046095 391.958145 219.046095 394.045249 219.046095 396.132353 219.046095 398.219457 219.046095 400.306561 219.046095 402.393665 219.046095 404.480769 219.046095 406.567873 219.046095 408.654977 219.046095 410.742081 219.046095 412.829186 219.046095 414.916290 219.046095 417.003394 219.046095 419.090498 219.046095 421.177602 219.046095 423.264706 219.046095 425.351810 219.046095 427.438914 219.046095 429.526018 219.046095 431.613122 219.046095 433.700226 219.046095 435.787330 219.046095 437.874434 219.046095 439.961538 219.046095 442.048643 219.046095 444.135747 219.046095 446.222851 219.046095 448.309955 219.046095 450.397059 219.046095 452.484163 219.046095 454.571267 219.046095 456.658371 219.046095 458.745475 219.046095 460.832579 219.046095 462.919683 219.046095 465.006787 219.046095 467.093891 219.046095 469.180995 219.046095 471.268100 219.046095 473.355204 219.046095 475.442308 219.046095 477.529412 219.046095 479.616516 219.046095 481.703620 219.046095 483.790724 219.046095 485.877828 219.046095 487.964932 219.046095 490.052036 219.046095 492.139140 219.046095 494.226244 219.046095 496.313348 219.046095 498.400452 219.046095 500.487557 219.046095 502.574661 219.046095 504.661765 219.046095 506.748869 219.046095 508.835973 219.046095 510.923077 219.046095 513.010181 219.046095 515.097285 219.046095 517.184389 219.046095 519.271493 219.046095 521.358597 219.046095 523.445701 219.046095 525.532805 219.046095 527.619910 219.046095 529.707014 219.046095 531.794118 219.046095 533.881222 219.046095 535.968326 219.046095 538.055430 219.046095 540.142534 219.046095 542.229638 219.046095 544.316742 219.046095 546.403846 219.046095 548.490950 219.046095 550.578054 219.046095 552.665158 219.046095 554.752262 219.046095 556.839367 219.046095 558.926471 219.046095 561.013575 219.046095 563.100679 219.046095 565.187783 219.046095 567.274887 219.046095 569.361991 219.046095 571.449095 219.046095 573.536199 219.046095 575.623303 219.046095 577.710407 219.046095 579.797511 219.046095 581.884615 219.046095 583.971719 219.046095 586.058824 219.046095 588.145928 219.046095 590.233032 219.046095 592.320136 219.046095 594.407240 219.046095 596.494344 219.046095 598.581448 219.046095 600.668552 219.046095 602.755656 219.046095 604.842760 219.046095 606.929864 219.046095 609.016968 219.046095 611.104072 219.046095 613.191176 219.046095 615.278281 219.046095 617.365385 219.046095 619.452489 219.046095 621.539593 219.046095 623.626697 219.046095 625.713801 219.046095 627.800905 219.046095 629.888009 219.046095 631.975113 219.046095 634.062217 219.046095 636.149321 219.046095 638.236425 219.046095 640.323529 219.046095 642.410633 219.046095 644.497738 219.046095 646.584842 219.046095 648.671946 219.046095 650.759050 219.046095 652.846154 219.046095 654.933258 219.046095 657.020362 219.046095 659.107466 219.046095 661.194570 219.046095 663.281674 219.046095 665.368778 219.046095 667.455882 219.046095 669.542986 219.046095 671.630090 219.046095 673.717195 219.046095 675.804299 219.046095 677.891403 219.046095 679.978507 219.046095 682.065611 219.046095 684.152715 219.046095 686.239819 219.046095 688.326923 219.046095 690.414027 219.046095 692.501131 219.046095 694.588235 219.046095 696.675339 219.046095 698.762443 219.046095 700.849548 219.046095 702.936652 219.046095 705.023756 219.046095 707.110860 219.046095 709.197964 219.046095 711.285068 219.046095 713.372172 219.046095 715.459276 219.046095 717.546380 219.046095 719.633484 219.046095 721.720588 219.046095 723.807692 219.046095"/></g></g><g class="titles"><text class="title plot_title" x="400.0" y="26">M Muralitharan: Future and Past Averages in ODIs</text></g><g class="plot overlay" transform="translate(42, 46)"><g class="series serie-0 color-0"><g class="dots"><desc class="label">534 wickets in 341 innings (3135.1 overs)</desc><circle class="dot reactive tooltip-trigger" cx="14.192307692307692" cy="219.04609516341512" r="2.5"/><desc class="value">23.08</desc><desc class="x ">14.192307692307692</desc><desc class="y ">219.04609516341512</desc><desc class="x_label">1993</desc></g><g class="dots"><desc class="label">526 wickets in 332 innings (3065.1 overs)</desc><circle class="dot reactive tooltip-trigger" cx="32.9762443438914" cy="221.0746754112704" r="2.5"/><desc class="value">22.88</desc><desc class="x ">32.9762443438914</desc><desc class="y ">221.0746754112704</desc><desc class="x_label">1994</desc></g><g class="dots"><desc class="label">517 wickets in 322 innings (2976.1 overs)</desc><circle class="dot reactive tooltip-trigger" cx="53.8472850678733" cy="224.21897479544612" r="2.5"/><desc class="value">22.57</desc><desc class="x ">53.8472850678733</desc><desc class="y ">224.21897479544612</desc><desc class="x_label">1995</desc></g><g class="dots"><desc class="label">499 wickets in 308 innings (2838.5 overs)</desc><circle class="dot reactive tooltip-trigger" cx="83.06674208144796" cy="227.7689902291929" r="2.5"/><desc class="value">22.22</desc><desc class="x ">83.06674208144796</desc><desc class="y ">227.7689902291929</desc><desc class="x_label">1996</desc></g><g class="dots"><desc class="label">463 wickets in 285 innings (2628.0 overs)</desc><circle class="dot reactive tooltip-trigger" cx="131.07013574660633" cy="229.18899640269163" r="2.5"/><desc class="value">22.08</desc><desc class="x ">131.07013574660633</desc><desc class="y ">229.18899640269163</desc><desc class="x_label">1997</desc></g><g class="dots"><desc class="label">427 wickets in 260 innings (2390.1 overs)</desc><circle class="dot reactive tooltip-trigger" cx="183.2477375565611" cy="234.9704501090792" r="2.5"/><desc class="value">21.51</desc><desc class="x top">183.2477375565611</desc><desc class="y top">234.9704501090792</desc><desc class="x_label">1998</desc></g><g class="dots"><desc class="label">395 wickets in 242 innings (2220.2 overs)</desc><circle class="dot reactive tooltip-trigger" cx="220.81561085972854" cy="236.08616924539962" r="2.5"/><desc class="value">21.4</desc><desc class="x top">220.81561085972854</desc><desc class="y top">236.08616924539962</desc><desc class="x_label">1999</desc></g><g class="dots"><desc class="label">357 wickets in 215 innings (1971.1 overs)</desc><circle class="dot reactive tooltip-trigger" cx="277.1674208144796" cy="240.95476184025233" r="2.5"/><desc class="value">20.92</desc><desc class="x top">277.1674208144796</desc><desc class="y top">240.95476184025233</desc><desc class="x_label">2000</desc></g><g class="dots"><desc class="label">323 wickets in 194 innings (1771.0 overs)</desc><circle class="dot reactive tooltip-trigger" cx="320.99660633484166" cy="239.9404717163247" r="2.5"/><desc class="value">21.02</desc><desc class="x top">320.99660633484166</desc><desc class="y top">239.9404717163247</desc><desc class="x_label">2001</desc></g><g class="dots"><desc class="label">267 wickets in 161 innings (1462.3 overs)</desc><circle class="dot reactive tooltip-trigger" cx="389.87104072398193" cy="233.95615998515157" r="2.5"/><desc class="value">21.61</desc><desc class="x left top">389.87104072398193</desc><desc class="y left top">233.95615998515157</desc><desc class="x_label">2002</desc></g><g class="dots"><desc class="label">237 wickets in 147 innings (1333.0 overs)</desc><circle class="dot reactive tooltip-trigger" cx="419.0904977375566" cy="221.58182047323425" r="2.5"/><desc class="value">22.83</desc><desc class="x left">419.0904977375566</desc><desc class="y left">221.58182047323425</desc><desc class="x_label">2003</desc></g><g class="dots"><desc class="label">191 wickets in 123 innings (1114.4 overs)</desc><circle class="dot reactive tooltip-trigger" cx="469.18099547511315" cy="204.6431754036425" r="2.5"/><desc class="value">24.5</desc><desc class="x left">469.18099547511315</desc><desc class="y left">204.6431754036425</desc><desc class="x_label">2004</desc></g><g class="dots"><desc class="label">168 wickets in 110 innings (990.0 overs)</desc><circle class="dot reactive tooltip-trigger" cx="496.31334841628967" cy="198.1517186105055" r="2.5"/><desc class="value">25.14</desc><desc class="x left">496.31334841628967</desc><desc class="y left">198.1517186105055</desc><desc class="x_label">2005</desc></g><g class="dots"><desc class="label">141 wickets in 91 innings (810.4 overs)</desc><circle class="dot reactive tooltip-trigger" cx="535.9683257918552" cy="199.97744083357532" r="2.5"/><desc class="value">24.96</desc><desc class="x left">535.9683257918552</desc><desc class="y left">199.97744083357532</desc><desc class="x_label">2006</desc></g><g class="dots"><desc class="label">105 wickets in 64 innings (549.0 overs)</desc><circle class="dot reactive tooltip-trigger" cx="592.3201357466063" cy="223.1032556591257" r="2.5"/><desc class="value">22.68</desc><desc class="x left">592.3201357466063</desc><desc class="y left">223.1032556591257</desc><desc class="x_label">2007</desc></g><g class="dots"><desc class="label">79 wickets in 52 innings (452.5 overs)</desc><circle class="dot reactive tooltip-trigger" cx="617.3653846153845" cy="195.71742231307917" r="2.5"/><desc class="value">25.38</desc><desc class="x left">617.3653846153845</desc><desc class="y left">195.71742231307917</desc><desc class="x_label">2008</desc></g><g class="dots"><desc class="label">44 wickets in 31 innings (270.5 overs)</desc><circle class="dot reactive tooltip-trigger" cx="661.1945701357465" cy="169.14302106617475" r="2.5"/><desc class="value">28</desc><desc class="x left">661.1945701357465</desc><desc class="y left">169.14302106617475</desc><desc class="x_label">2009</desc></g><g class="dots"><desc class="label">22 wickets in 15 innings (135.0 overs)</desc><circle class="dot reactive tooltip-trigger" cx="694.5882352941177" cy="183.85022786312567" r="2.5"/><desc class="value">26.55</desc><desc class="x left">694.5882352941177</desc><desc class="y left">183.85022786312567</desc><desc class="x_label">2010</desc></g><g class="dots"><desc class="label">17 wickets in 10 innings (91.0 overs)</desc><circle class="dot reactive tooltip-trigger" cx="705.0237556561086" cy="229.39185442747714" r="2.5"/><desc class="value">22.06</desc><desc class="x left">705.0237556561086</desc><desc class="y left">229.39185442747714</desc><desc class="x_label">2011</desc></g></g><g class="series serie-1 color-1"><g class="dots"><desc class="label">0 wickets over 0 innings</desc><circle class="dot reactive tooltip-trigger" cx="14.192307692307692" cy="453.1442557659166" r="2.5"/><desc class="value">0</desc><desc class="x top">14.192307692307692</desc><desc class="y top">453.1442557659166</desc><desc class="x_label">1993</desc></g><g class="dots"><desc class="label">8 wickets in 9 innings (70.0 overs)</desc><circle class="dot reactive tooltip-trigger" cx="32.9762443438914" cy="82.92836053232452" r="2.5"/><desc class="value">36.5</desc><desc class="x ">32.9762443438914</desc><desc class="y ">82.92836053232452</desc><desc class="x_label">1994</desc></g><g class="dots"><desc class="label">17 wickets in 19 innings (159.0 overs)</desc><circle class="dot reactive tooltip-trigger" cx="53.8472850678733" cy="61.72969694223667" r="2.5"/><desc class="value">38.59</desc><desc class="x ">53.8472850678733</desc><desc class="y ">61.72969694223667</desc><desc class="x_label">1995</desc></g><g class="dots"><desc class="label">35 wickets in 33 innings (296.2 overs)</desc><circle class="dot reactive tooltip-trigger" cx="83.06674208144796" cy="94.08555189552874" r="2.5"/><desc class="value">35.4</desc><desc class="x ">83.06674208144796</desc><desc class="y ">94.08555189552874</desc><desc class="x_label">1996</desc></g><g class="dots"><desc class="label">71 wickets in 56 innings (507.1 overs)</desc><circle class="dot reactive tooltip-trigger" cx="131.07013574660633" cy="152.81295007093956" r="2.5"/><desc class="value">29.61</desc><desc class="x ">131.07013574660633</desc><desc class="y ">152.81295007093956</desc><desc class="x_label">1997</desc></g><g class="dots"><desc class="label">107 wickets in 81 innings (745.0 overs)</desc><circle class="dot reactive tooltip-trigger" cx="183.2477375565611" cy="155.24724636836595" r="2.5"/><desc class="value">29.37</desc><desc class="x ">183.2477375565611</desc><desc class="y ">155.24724636836595</desc><desc class="x_label">1998</desc></g><g class="dots"><desc class="label">139 wickets in 99 innings (914.5 overs)</desc><circle class="dot reactive tooltip-trigger" cx="220.81561085972854" cy="170.5630272396735" r="2.5"/><desc class="value">27.86</desc><desc class="x ">220.81561085972854</desc><desc class="y ">170.5630272396735</desc><desc class="x_label">1999</desc></g><g class="dots"><desc class="label">177 wickets in 126 innings (1164.0 overs)</desc><circle class="dot reactive tooltip-trigger" cx="277.1674208144796" cy="174.82304576016958" r="2.5"/><desc class="value">27.44</desc><desc class="x ">277.1674208144796</desc><desc class="y ">174.82304576016958</desc><desc class="x_label">2000</desc></g><g class="dots"><desc class="label">211 wickets in 147 innings (1364.1 overs)</desc><circle class="dot reactive tooltip-trigger" cx="320.99660633484166" cy="186.9945272473014" r="2.5"/><desc class="value">26.24</desc><desc class="x ">320.99660633484166</desc><desc class="y ">186.9945272473014</desc><desc class="x_label">2001</desc></g><g class="dots"><desc class="label">267 wickets in 180 innings (1672.4 overs)</desc><circle class="dot reactive tooltip-trigger" cx="389.87104072398193" cy="204.13603034167863" r="2.5"/><desc class="value">24.55</desc><desc class="x left">389.87104072398193</desc><desc class="y left">204.13603034167863</desc><desc class="x_label">2002</desc></g><g class="dots"><desc class="label">297 wickets in 194 innings (1802.1 overs)</desc><circle class="dot reactive tooltip-trigger" cx="419.0904977375566" cy="216.91608590316704" r="2.5"/><desc class="value">23.29</desc><desc class="x left">419.0904977375566</desc><desc class="y left">216.91608590316704</desc><desc class="x_label">2003</desc></g><g class="dots"><desc class="label">343 wickets in 218 innings (2020.3 overs)</desc><circle class="dot reactive tooltip-trigger" cx="469.18099547511315" cy="227.05898714244353" r="2.5"/><desc class="value">22.29</desc><desc class="x left">469.18099547511315</desc><desc class="y left">227.05898714244353</desc><desc class="x_label">2004</desc></g><g class="dots"><desc class="label">366 wickets in 231 innings (2145.1 overs)</desc><circle class="dot reactive tooltip-trigger" cx="496.31334841628967" cy="228.580422328335" r="2.5"/><desc class="value">22.14</desc><desc class="x left">496.31334841628967</desc><desc class="y left">228.580422328335</desc><desc class="x_label">2005</desc></g><g class="dots"><desc class="label">393 wickets in 250 innings (2324.3 overs)</desc><circle class="dot reactive tooltip-trigger" cx="535.9683257918552" cy="225.84183899373036" r="2.5"/><desc class="value">22.41</desc><desc class="x left">535.9683257918552</desc><desc class="y left">225.84183899373036</desc><desc class="x_label">2006</desc></g><g class="dots"><desc class="label">429 wickets in 277 innings (2586.1 overs)</desc><circle class="dot reactive tooltip-trigger" cx="592.3201357466063" cy="218.03180503948744" r="2.5"/><desc class="value">23.18</desc><desc class="x left">592.3201357466063</desc><desc class="y left">218.03180503948744</desc><desc class="x_label">2007</desc></g><g class="dots"><desc class="label">455 wickets in 289 innings (2682.2 overs)</desc><circle class="dot reactive tooltip-trigger" cx="617.3653846153845" cy="223.1032556591257" r="2.5"/><desc class="value">22.68</desc><desc class="x left">617.3653846153845</desc><desc class="y left">223.1032556591257</desc><desc class="x_label">2008</desc></g><g class="dots"><desc class="label">490 wickets in 310 innings (2864.2 overs)</desc><circle class="dot reactive tooltip-trigger" cx="661.1945701357465" cy="223.50897170869675" r="2.5"/><desc class="value">22.64</desc><desc class="x left">661.1945701357465</desc><desc class="y left">223.50897170869675</desc><desc class="x_label">2009</desc></g><g class="dots"><desc class="label">512 wickets in 326 innings (3000.1 overs)</desc><circle class="dot reactive tooltip-trigger" cx="694.5882352941177" cy="220.5675303493066" r="2.5"/><desc class="value">22.93</desc><desc class="x left">694.5882352941177</desc><desc class="y left">220.5675303493066</desc><desc class="x_label">2010</desc></g><g class="dots"><desc class="label">517 wickets in 331 innings (3044.1 overs)</desc><circle class="dot reactive tooltip-trigger" cx="705.0237556561086" cy="218.64037911384403" r="2.5"/><desc class="value">23.12</desc><desc class="x left">705.0237556561086</desc><desc class="y left">218.64037911384403</desc><desc class="x_label">2011</desc></g></g><g class="series serie-2 color-2"/></g><g class="plot text-overlay" transform="translate(42, 46)"><g class="series serie-0 color-0"/><g class="series serie-1 color-1"/><g class="series serie-2 color-2"/></g><g class="plot tooltip-overlay" transform="translate(42, 46)"><g class="tooltip" style="opacity: 0" transform="translate(0 0)"><rect class="tooltip-box" height="0" rx="10" ry="10" width="0"/><g class="text"/></g></g><g class="legends" transform="translate(52, 545)"><g class="legend reactive activate-serie" id="activate-serie-0"><rect class="color-0 reactive" height="12" width="12" x="0.0" y="1.0"/><text x="17.0" y="11.2">Future Average</text></g><g class="legend reactive activate-serie" id="activate-serie-1"><rect class="color-1 reactive" height="12" width="12" x="369.0" y="1.0"/><text x="386.0" y="11.2">Past Average</text></g><g class="legend reactive activate-serie" id="activate-serie-2"><rect class="color-2 reactive" height="12" width="12" x="0.0" y="22.0"/><text x="17.0" y="32.2">Career Average</text></g></g></g></svg>