<?xml version='1.0' encoding='utf-8'?>
<svg xmlns:xlink="http://www.w3.org/1999/xlink" xmlns="http://www.w3.org/2000/svg" id="chart-c89dd4e3-2e00-4a92-89f3-8a003ccf618c" class="pygal-chart" viewBox="0 0 800 600"><!--Generated with pygal 2.4.0 (lxml) ©Kozea 2012-2016 on 2019-08-04--><!--http://pygal.org--><!--http://github.com/Kozea/pygal--><defs><style type="text/css">#chart-c89dd4e3-2e00-4a92-89f3-8a003ccf618c{-webkit-user-select:none;-webkit-font-smoothing:antialiased;font-family:Consolas,"Liberation Mono",Menlo,Courier,monospace}#chart-c89dd4e3-2e00-4a92-89f3-8a003ccf618c .title{font-family:Consolas,"Liberation Mono",Menlo,Courier,monospace;font-size:16px}#chart-c89dd4e3-2e00-4a92-89f3-8a003ccf618c .legends .legend text{font-family:Consolas,"Liberation Mono",Menlo,Courier,monospace;font-size:14px}#chart-c89dd4e3-2e00-4a92-89f3-8a003ccf618c .axis text{font-family:Consolas,"Liberation Mono",Menlo,Courier,monospace;font-size:10px}#chart-c89dd4e3-2e00-4a92-89f3-8a003ccf618c .axis text.major{font-family:Consolas,"Liberation Mono",Menlo,Courier,monospace;font-size:10px}#chart-c89dd4e3-2e00-4a92-89f3-8a003ccf618c .text-overlay text.value{font-family:Consolas,"Liberation Mono",Menlo,Courier,monospace;font-size:16px}#chart-c89dd4e3-2e00-4a92-89f3-8a003ccf618c .text-overlay text.label{font-family:Consolas,"Liberation Mono",Menlo,Courier,monospace;font-size:10px}#chart-c89dd4e3-2e00-4a92-89f3-8a003ccf618c .tooltip{font-family:Consolas,"Liberation Mono",Menlo,Courier,monospace;font-size:14px}#chart-c89dd4e3-2e00-4a92-89f3-8a003ccf618c text.no_data{font-family:Consolas,"Liberation Mono",Menlo,Courier,monospace;font-size:64px}
#chart-c89dd4e3-2e00-4a92-89f3-8a003ccf618c{background-color:rgba(249,249,249,1)}#chart-c89dd4e3-2e00-4a92-89f3-8a003ccf618c path,#chart-c89dd4e3-2e00-4a92-89f3-8a003ccf618c line,#chart-c89dd4e3-2e00-4a92-89f3-8a003ccf618c rect,#chart-c89dd4e3-2e00-4a92-89f3-8a003ccf618c circle{-webkit-transition:150ms;-moz-transition:150ms;transition:150ms}#chart-c89dd4e3-2e00-4a92-89f3-8a003ccf618c .graph &gt; .background{fill:rgba(249,249,249,1)}#chart-c89dd4e3-2e00-4a92-89f3-8a003ccf618c .plot &gt; .background{fill:rgba(255,255,255,1)}#chart-c89dd4e3-2e00-4a92-89f3-8a003ccf618c .graph{fill:rgba(0,0,0,.87)}#chart-c89dd4e3-2e00-4a92-89f3-8a003ccf618c text.no_data{fill:rgba(0,0,0,1)}#chart-c89dd4e3-2e00-4a92-89f3-8a003ccf618c .title{fill:rgba(0,0,0,1)}#chart-c89dd4e3-2e00-4a92-89f3-8a003ccf618c .legends .legend text{fill:rgba(0,0,0,.87)}#chart-c89dd4e3-2e00-4a92-89f3-8a003ccf618c .legends .legend:hover text{fill:rgba(0,0,0,1)}#chart-c89dd4e3-2e00-4a92-89f3-8a003ccf618c .axis .line{stroke:rgba(0,0,0,1)}#chart-c89dd4e3-2e00-4a92-89f3-8a003ccf618c .axis .guide.line{stroke:rgba(0,0,0,.54)}#chart-c89dd4e3-2e00-4a92-89f3-8a003ccf618c .axis .major.line{stroke:rgba(0,0,0,.87)}#chart-c89dd4e3-2e00-4a92-89f3-8a003ccf618c .axis text.major{fill:rgba(0,0,0,1)}#chart-c89dd4e3-2e00-4a92-89f3-8a003ccf618c .axis.y .guides:hover .guide.line,#chart-c89dd4e3-2e00-4a92-89f3-8a003ccf618c .line-graph .axis.x .guides:hover .guide.line,#chart-c89dd4e3-2e00-4a92-89f3-8a003ccf618c .stackedline-graph .axis.x .guides:hover .guide.line,#chart-c89dd4e3-2e00-4a92-89f3-8a003ccf618c .xy-graph .axis.x .guides:hover .guide.line{stroke:rgba(0,0,0,1)}#chart-c89dd4e3-2e00-4a92-89f3-8a003ccf618c .axis .guides:hover text{fill:rgba(0,0,0,1)}#chart-c89dd4e3-2e00-4a92-89f3-8a003ccf618c .reactive{fill-opacity:.7;stroke-opacity:.8}#chart-c89dd4e3-2e00-4a92-89f3-8a003ccf618c .ci{stroke:rgba(0,0,0,.87)}#chart-c89dd4e3-2e00-4a92-89f3-8a003ccf618c .reactive.active,#chart-c89dd4e3-2e00-4a92-89f3-8a003ccf618c .active .reactive{fill-opacity:.8;stroke-opacity:.9;stroke-width:4}#chart-c89dd4e3-2e00-4a92-89f3-8a003ccf618c .ci .reactive.active{stroke-width:1.5}#chart-c89dd4e3-2e00-4a92-89f3-8a003ccf618c .series text{fill:rgba(0,0,0,1)}#chart-c89dd4e3-2e00-4a92-89f3-8a003ccf618c .tooltip rect{fill:rgba(255,255,255,1);stroke:rgba(0,0,0,1);-webkit-transition:opacity 150ms;-moz-transition:opacity 150ms;transition:opacity 150ms}#chart-c89dd4e3-2e00-4a92-89f3-8a003ccf618c .tooltip .label{fill:rgba(0,0,0,.87)}#chart-c89dd4e3-2e00-4a92-89f3-8a003ccf618c .tooltip .label{fill:rgba(0,0,0,.87)}#chart-c89dd4e3-2e00-4a92-89f3-8a003ccf618c .tooltip .legend{font-size:.8em;fill:rgba(0,0,0,.54)}#chart-c89dd4e3-2e00-4a92-89f3-8a003ccf618c .tooltip .x_label{font-size:.6em;fill:rgba(0,0,0,1)}#chart-c89dd4e3-2e00-4a92-89f3-8a003ccf618c .tooltip .xlink{font-size:.5em;text-decoration:underline}#chart-c89dd4e3-2e00-4a92-89f3-8a003ccf618c .tooltip .value{font-size:1.5em}#chart-c89dd4e3-2e00-4a92-89f3-8a003ccf618c .bound{font-size:.5em}#chart-c89dd4e3-2e00-4a92-89f3-8a003ccf618c .max-value{font-size:.75em;fill:rgba(0,0,0,.54)}#chart-c89dd4e3-2e00-4a92-89f3-8a003ccf618c .map-element{fill:rgba(255,255,255,1);stroke:rgba(0,0,0,.54) !important}#chart-c89dd4e3-2e00-4a92-89f3-8a003ccf618c .map-element .reactive{fill-opacity:inherit;stroke-opacity:inherit}#chart-c89dd4e3-2e00-4a92-89f3-8a003ccf618c .color-0,#chart-c89dd4e3-2e00-4a92-89f3-8a003ccf618c .color-0 a:visited{stroke:red;fill:red}#chart-c89dd4e3-2e00-4a92-89f3-8a003ccf618c .color-1,#chart-c89dd4e3-2e00-4a92-89f3-8a003ccf618c .color-1 a:visited{stroke:blue;fill:blue}#chart-c89dd4e3-2e00-4a92-89f3-8a003ccf618c .color-2,#chart-c89dd4e3-2e00-4a92-89f3-8a003ccf618c .color-2 a:visited{stroke:green;fill:green}#chart-c89dd4e3-2e00-4a92-89f3-8a003ccf618c .text-overlay .color-0 text{fill:white}#chart-c89dd4e3-2e00-4a92-89f3-8a003ccf618c .text-overlay .color-1 text{fill:white}#chart-c89dd4e3-2e00-4a92-89f3-8a003ccf618c .text-overlay .color-2 text{fill:white}
#chart-c89dd4e3-2e00-4a92-89f3-8a003ccf618c text.no_data{text-anchor:middle}#chart-c89dd4e3-2e00-4a92-89f3-8a003ccf618c .guide.line{fill:none}#chart-c89dd4e3-2e00-4a92-89f3-8a003ccf618c .centered{text-anchor:middle}#chart-c89dd4e3-2e00-4a92-89f3-8a003ccf618c .title{text-anchor:middle}#chart-c89dd4e3-2e00-4a92-89f3-8a003ccf618c .legends .legend text{fill-opacity:1}#chart-c89dd4e3-2e00-4a92-89f3-8a003ccf618c .axis.x text{text-anchor:middle}#chart-c89dd4e3-2e00-4a92-89f3-8a003ccf618c .axis.x:not(.web) text[transform]{text-anchor:start}#chart-c89dd4e3-2e00-4a92-89f3-8a003ccf618c .axis.x:not(.web) text[transform].backwards{text-anchor:end}#chart-c89dd4e3-2e00-4a92-89f3-8a003ccf618c .axis.y text{text-anchor:end}#chart-c89dd4e3-2e00-4a92-89f3-8a003ccf618c .axis.y text[transform].backwards{text-anchor:start}#chart-c89dd4e3-2e00-4a92-89f3-8a003ccf618c .axis.y2 text{text-anchor:start}#chart-c89dd4e3-2e00-4a92-89f3-8a003ccf618c .axis.y2 text[transform].backwards{text-anchor:end}#chart-c89dd4e3-2e00-4a92-89f3-8a003ccf618c .axis .guide.line{stroke-dasharray:4,4}#chart-c89dd4e3-2e00-4a92-89f3-8a003ccf618c .axis .major.guide.line{stroke-dasharray:6,6}#chart-c89dd4e3-2e00-4a92-89f3-8a003ccf618c .horizontal .axis.y .guide.line,#chart-c89dd4e3-2e00-4a92-89f3-8a003ccf618c .horizontal .axis.y2 .guide.line,#chart-c89dd4e3-2e00-4a92-89f3-8a003ccf618c .vertical .axis.x .guide.line{opacity:0}#chart-c89dd4e3-2e00-4a92-89f3-8a003ccf618c .horizontal .axis.always_show .guide.line,#chart-c89dd4e3-2e00-4a92-89f3-8a003ccf618c .vertical .axis.always_show .guide.line{opacity:1 !important}#chart-c89dd4e3-2e00-4a92-89f3-8a003ccf618c .axis.y .guides:hover .guide.line,#chart-c89dd4e3-2e00-4a92-89f3-8a003ccf618c .axis.y2 .guides:hover .guide.line,#chart-c89dd4e3-2e00-4a92-89f3-8a003ccf618c .axis.x .guides:hover .guide.line{opacity:1}#chart-c89dd4e3-2e00-4a92-89f3-8a003ccf618c .axis .guides:hover text{opacity:1}#chart-c89dd4e3-2e00-4a92-89f3-8a003ccf618c .nofill{fill:none}#chart-c89dd4e3-2e00-4a92-89f3-8a003ccf618c .subtle-fill{fill-opacity:.2}#chart-c89dd4e3-2e00-4a92-89f3-8a003ccf618c .dot{stroke-width:1px;fill-opacity:1}#chart-c89dd4e3-2e00-4a92-89f3-8a003ccf618c .dot.active{stroke-width:5px}#chart-c89dd4e3-2e00-4a92-89f3-8a003ccf618c .dot.negative{fill:transparent}#chart-c89dd4e3-2e00-4a92-89f3-8a003ccf618c text,#chart-c89dd4e3-2e00-4a92-89f3-8a003ccf618c tspan{stroke:none !important}#chart-c89dd4e3-2e00-4a92-89f3-8a003ccf618c .series text.active{opacity:1}#chart-c89dd4e3-2e00-4a92-89f3-8a003ccf618c .tooltip rect{fill-opacity:.95;stroke-width:.5}#chart-c89dd4e3-2e00-4a92-89f3-8a003ccf618c .tooltip text{fill-opacity:1}#chart-c89dd4e3-2e00-4a92-89f3-8a003ccf618c .showable{visibility:hidden}#chart-c89dd4e3-2e00-4a92-89f3-8a003ccf618c .showable.shown{visibility:visible}#chart-c89dd4e3-2e00-4a92-89f3-8a003ccf618c .gauge-background{fill:rgba(229,229,229,1);stroke:none}#chart-c89dd4e3-2e00-4a92-89f3-8a003ccf618c .bg-lines{stroke:rgba(249,249,249,1);stroke-width:2px}</style><script type="text/javascript">window.pygal = window.pygal || {};window.pygal.config = window.pygal.config || {};window.pygal.config['c89dd4e3-2e00-4a92-89f3-8a003ccf618c'] = {"allow_interruptions": false, "box_mode": "extremes", "classes": ["pygal-chart"], "css": ["file://style.css", "file://graph.css"], "defs": [], "disable_xml_declaration": false, "dots_size": 2.5, "dynamic_print_values": false, "explicit_size": false, "fill": false, "force_uri_protocol": "https", "formatter": null, "half_pie": false, "height": 600, "include_x_axis": false, "inner_radius": 0, "interpolate": null, "interpolation_parameters": {}, "interpolation_precision": 250, "inverse_y_axis": false, "js": ["//kozea.github.io/pygal.js/2.0.x/pygal-tooltips.min.js"], "legend_at_bottom": true, "legend_at_bottom_columns": null, "legend_box_size": 12, "logarithmic": false, "margin": 20, "margin_bottom": null, "margin_left": null, "margin_right": null, "margin_top": null, "max_scale": 16, "min_scale": 4, "missing_value_fill_truncation": "x", "no_data_text": "No data", "no_prefix": false, "order_min": null, "pretty_print": false, "print_labels": false, "print_values": false, "print_values_position": "center", "print_zeroes": true, "range": null, "rounded_bars": null, "secondary_range": null, "show_dots": true, "show_legend": true, "show_minor_x_labels": false, "show_minor_y_labels": true, "show_only_major_dots": false, "show_x_guides": false, "show_x_labels": true, "show_y_guides": true, "show_y_labels": true, "spacing": 10, "stack_from_top": false, "strict": false, "stroke": true, "stroke_style": null, "style": {"background": "rgba(249, 249, 249, 1)", "ci_colors": [], "colors": ["red", "blue", "green", "#a3a3a3"], "font_family": "Consolas, \"Liberation Mono\", Menlo, Courier, monospace", "foreground": "rgba(0, 0, 0, .87)", "foreground_strong": "rgba(0, 0, 0, 1)", "foreground_subtle": "rgba(0, 0, 0, .54)", "guide_stroke_dasharray": "4,4", "label_font_family": "Consolas, \"Liberation Mono\", Menlo, Courier, monospace", "label_font_size": 10, "legend_font_family": "Consolas, \"Liberation Mono\", Menlo, Courier, monospace", "legend_font_size": 14, "major_guide_stroke_dasharray": "6,6", "major_label_font_family": "Consolas, \"Liberation Mono\", Menlo, Courier, monospace", "major_label_font_size": 10, "no_data_font_family": "Consolas, \"Liberation Mono\", Menlo, Courier, monospace", "no_data_font_size": 64, "opacity": ".7", "opacity_hover": ".8", "plot_background": "rgba(255, 255, 255, 1)", "stroke_opacity": ".8", "stroke_opacity_hover": ".9", "title_font_family": "Consolas, \"Liberation Mono\", Menlo, Courier, monospace", "title_font_size": 16, "tooltip_font_family": "Consolas, \"Liberation Mono\", Menlo, Courier, monospace", "tooltip_font_size": 14, "transition": "150ms", "value_background": "rgba(229, 229, 229, 1)", "value_colors": [], "value_font_family": "Consolas, \"Liberation Mono\", Menlo, Courier, monospace", "value_font_size": 16, "value_label_font_family": "Consolas, \"Liberation Mono\", Menlo, Courier, monospace", "value_label_font_size": 10}, "title": "M Ntini: Future and Past Averages in ODIs", "tooltip_border_radius": 10, "tooltip_fancy_mode": true, "truncate_label": null, "truncate_legend": null, "width": 800, "x_label_rotation": 45, "x_labels": ["2000", "0", "0", "0", "0", "0", "0", "0", "0", "0", "0", "0", "0", "0", "0", "2001", "0", "0", "0", "0", "0", "0", "0", "0", "0", "0", "0", "0", "0", "0", "2002", "0", "0", "0", "0", "0", "0", "0", "0", "0", "0", "0", "0", "0", "0", "0", "0", "0", "0", "0", "0", "0", "0", "0", "0", "0", "0", "0", "0", "0", "0", "2003", "0", "0", "0", "0", "0", "0", "0", "0", "0", "0", "0", "0", "0", "0", "0", "0", "0", "0", "0", "0", "0", "0", "2004", "0", "0", "0", "0", "0", "0", "0", "0", "0", "0", "0", "0", "0", "0", "0", "0", "0", "2005", "0", "0", "0", "0", "0", "0", "0", "0", "0", "0", "0", "0", "0", "0", "0", "0", "0", "0", "0", "2006", "0", "0", "0", "0", "0", "0", "0", "0", "0", "0", "0", "0", "0", "0", "2007", "0", "0", "0", "0", "0", "0", "0", "0", "0", "0", "0", "0", "0", "0", "0", "0", "0", "0", "0", "0", "0", "0", "0", "0", "2008", "0", "0", "0", "2009", "0", "0", "0", "0"], "x_labels_major": ["2000", "2001", "2002", "2003", "2004", "2005", "2006", "2007", "2008", "2009"], "x_labels_major_count": null, "x_labels_major_every": null, "x_title": null, "xrange": null, "y_label_rotation": 0, "y_labels": null, "y_labels_major": null, "y_labels_major_count": null, "y_labels_major_every": null, "y_title": null, "zero": 120.0, "legends": ["Future Average", "Past Average", "Career Average"]}</script><script type="text/javascript" xlink:href="https://kozea.github.io/pygal.js/2.0.x/pygal-tooltips.min.js"/></defs><title>M Ntini: Future and Past Averages in ODIs</title><g class="graph line-graph vertical"><rect class="background" height="600" width="800" x="0" y="0"/><g class="plot" transform="translate(48, 46)"><rect class="background" height="462.02943725152284" width="732.0" x="0" y="0"/><g class="axis y always_show"><g class="guides"><path class="axis major line" d="M0.000000 453.144256 h732.000000"/><text class="major" x="-5" y="456.6442557659166">0</text><title>0</title></g><g class="guides"><path class="guide line" d="M0.000000 414.513032 h732.000000"/><text class="" x="-5" y="418.01303191545486">10</text><title>10</title></g><g class="guides"><path class="guide line" d="M0.000000 375.881808 h732.000000"/><text class="" x="-5" y="379.38180806499304">20</text><title>20</title></g><g class="guides"><path class="guide line" d="M0.000000 337.250584 h732.000000"/><text class="" x="-5" y="340.7505842145313">30</text><title>30</title></g><g class="guides"><path class="guide line" d="M0.000000 298.619360 h732.000000"/><text class="" x="-5" y="302.1193603640695">40</text><title>40</title></g><g class="guides"><path class="major guide line" d="M0.000000 259.988137 h732.000000"/><text class="major" x="-5" y="263.48813651360774">50</text><title>50</title></g><g class="guides"><path class="guide line" d="M0.000000 221.356913 h732.000000"/><text class="" x="-5" y="224.85691266314598">60</text><title>60</title></g><g class="guides"><path class="guide line" d="M0.000000 182.725689 h732.000000"/><text class="" x="-5" y="186.2256888126842">70</text><title>70</title></g><g class="guides"><path class="guide line" d="M0.000000 144.094465 h732.000000"/><text class="" x="-5" y="147.5944649622224">80</text><title>80</title></g><g class="guides"><path class="guide line" d="M0.000000 105.463241 h732.000000"/><text class="" x="-5" y="108.96324111176062">90</text><title>90</title></g><g class="guides"><path class="major guide line" d="M0.000000 66.832017 h732.000000"/><text class="major" x="-5" y="70.33201726129886">100</text><title>100</title></g><g class="guides"><path class="guide line" d="M0.000000 28.200793 h732.000000"/><text class="" x="-5" y="31.700793410837093">110</text><title>110</title></g></g><g class="axis x"><g class="guides"><path class="major line" d="M14.076923 0.000000 v462.029437"/><text class="major" x="14.076923076923077" y="477.02943725152284" transform="rotate(45 14.076923 477.029437)">2000</text></g><g class="guides"><path class="major guide line" d="M76.180995 0.000000 v462.029437"/><text class="major" x="76.18099547511312" y="477.02943725152284" transform="rotate(45 76.180995 477.029437)">2001</text></g><g class="guides"><path class="major guide line" d="M138.285068 0.000000 v462.029437"/><text class="major" x="138.28506787330315" y="477.02943725152284" transform="rotate(45 138.285068 477.029437)">2002</text></g><g class="guides"><path class="major guide line" d="M266.633484 0.000000 v462.029437"/><text class="major" x="266.6334841628959" y="477.02943725152284" transform="rotate(45 266.633484 477.029437)">2003</text></g><g class="guides"><path class="major guide line" d="M361.859729 0.000000 v462.029437"/><text class="major" x="361.85972850678735" y="477.02943725152284" transform="rotate(45 361.859729 477.029437)">2004</text></g><g class="guides"><path class="major guide line" d="M436.384615 0.000000 v462.029437"/><text class="major" x="436.38461538461536" y="477.02943725152284" transform="rotate(45 436.384615 477.029437)">2005</text></g><g class="guides"><path class="major guide line" d="M519.190045 0.000000 v462.029437"/><text class="major" x="519.1900452488688" y="477.02943725152284" transform="rotate(45 519.190045 477.029437)">2006</text></g><g class="guides"><path class="major guide line" d="M581.294118 0.000000 v462.029437"/><text class="major" x="581.2941176470589" y="477.02943725152284" transform="rotate(45 581.294118 477.029437)">2007</text></g><g class="guides"><path class="major guide line" d="M684.800905 0.000000 v462.029437"/><text class="major" x="684.8009049773755" y="477.02943725152284" transform="rotate(45 684.800905 477.029437)">2008</text></g><g class="guides"><path class="major guide line" d="M701.361991 0.000000 v462.029437"/><text class="major" x="701.3619909502262" y="477.02943725152284" transform="rotate(45 701.361991 477.029437)">2009</text></g></g><g class="series serie-0 color-0"><path class="line reactive nofill" d="M14.076923 357.879658 L18.217195 357.609239 22.357466 357.068402 26.497738 357.261558 30.638009 357.261558 34.778281 356.604827 38.918552 356.643459 43.058824 357.068402 47.199095 357.338821 51.339367 357.416083 55.479638 357.956920 59.619910 357.879658 63.760181 358.304601 67.900452 357.841027 72.040724 358.150076 76.180995 357.995551 80.321267 358.613651 84.461538 357.222927 88.601810 357.454714 92.742081 357.068402 96.882353 356.682090 101.022624 356.643459 105.162896 357.145664 109.303167 357.956920 113.443439 357.879658 117.583710 358.420495 121.723982 358.034183 125.864253 357.879658 130.004525 357.802395 134.144796 358.497757 138.285068 358.845438 142.425339 359.347644 146.565611 359.154488 150.705882 359.502169 154.846154 360.120269 158.986425 360.274794 163.126697 359.849850 167.266968 360.004375 171.407240 358.381864 175.547511 358.768176 179.687783 357.841027 183.828054 358.652282 187.968326 357.416083 192.108597 358.227339 196.248869 358.729545 200.389140 359.811219 204.529412 360.699737 208.669683 361.433730 212.809955 361.240574 216.950226 361.472362 221.090498 360.467950 225.230769 359.579432 229.371041 359.579432 233.511312 358.575020 237.651584 357.841027 241.791855 358.497757 245.932127 359.193119 250.072398 358.922701 254.212670 359.270382 258.352941 358.497757 262.493213 358.381864 266.633484 358.304601 270.773756 358.034183 274.914027 357.802395 279.054299 358.536389 283.194570 356.836615 287.334842 356.141253 291.475113 356.682090 295.615385 357.300189 299.755656 357.338821 303.895928 357.261558 308.036199 356.334409 312.176471 355.754940 316.316742 355.909465 320.457014 356.373040 324.597285 355.407259 328.737557 355.677678 332.877828 355.175472 337.018100 353.668854 341.158371 353.630223 345.298643 354.325585 349.438914 352.741705 353.579186 351.814556 357.719457 350.269307 361.859729 349.844363 366.000000 347.874171 370.140271 348.646795 374.280543 348.492270 378.420814 350.037519 382.561086 351.273718 386.701357 350.926037 390.841629 349.844363 394.981900 351.350981 399.122172 351.698662 403.262443 350.655619 407.402715 351.235087 411.542986 351.003300 415.683258 350.887406 419.823529 351.428243 423.963801 351.891818 428.104072 353.128017 432.244344 351.041931 436.384615 350.076151 440.524887 350.153413 444.665158 351.041931 448.805430 350.230675 452.945701 348.260483 457.085973 350.616988 461.226244 349.728470 465.366516 349.496682 469.506787 347.874171 473.647059 345.131354 477.787330 345.363141 481.927602 344.899567 486.067873 342.543062 490.208145 343.933786 494.348416 343.508842 498.488688 340.727394 502.628959 338.139102 506.769231 339.143514 510.909502 339.298039 515.049774 340.997813 519.190045 342.311275 523.330317 341.461388 527.470588 332.151263 531.610860 333.696512 535.751131 334.894080 539.891403 338.100471 544.031674 338.023209 548.171946 336.246172 552.312217 338.602677 556.452489 336.130279 560.592760 326.047529 564.733032 327.322360 568.873303 329.833389 573.013575 328.326772 577.153846 325.738480 581.294118 319.750640 585.434389 314.651318 589.574661 321.489045 593.714932 316.351092 597.855204 314.728581 601.995475 314.187744 606.135747 316.930560 610.276018 320.677789 614.416290 315.539836 618.556561 317.200979 622.696833 320.446002 626.837104 323.343344 630.977376 324.463649 635.117647 323.034294 639.257919 327.592778 643.398190 328.249509 647.538462 326.124792 651.678733 330.876432 655.819005 330.142439 659.959276 332.923887 664.099548 322.184407 668.239819 317.085085 672.380090 314.303637 676.520362 311.908501 680.660633 284.441701 684.800905 290.893116 688.941176 305.572981 693.081448 320.252846 697.221719 329.524339 701.361991 344.976829 705.502262 316.003411 709.642534 291.858896 713.782805 8.885181 717.923077 267.714381"/></g><g class="series serie-1 color-1"><path class="line reactive nofill" d="M14.076923 453.144256 L18.217195 393.265859 22.357466 401.378416 26.497738 385.539614 30.638009 381.406073 34.778281 387.818856 38.918552 384.573833 43.058824 374.916027 47.199095 368.464613 51.339367 366.224002 55.479638 356.566196 59.619910 358.111445 63.760181 351.157825 67.900452 358.381864 72.040724 354.209691 76.180995 356.759352 80.321267 349.033107 84.461538 364.137916 88.601810 361.897305 92.742081 364.717384 96.882353 367.267045 101.022624 366.957995 105.162896 363.442554 109.303167 357.300189 113.443439 357.956920 117.583710 354.093798 121.723982 356.991140 125.864253 357.802395 130.004525 358.304601 134.144796 354.325585 138.285068 352.394024 142.425339 349.342157 146.565611 351.003300 150.705882 349.226264 154.846154 345.903978 158.986425 345.517666 163.126697 348.337745 167.266968 348.028696 171.407240 355.832203 175.547511 354.364216 179.687783 358.034183 183.828054 355.059578 187.968326 359.463538 192.108597 356.759352 196.248869 355.098210 200.389140 351.505506 204.529412 348.646795 208.669683 346.213028 212.809955 347.333334 216.950226 346.753865 221.090498 350.423832 225.230769 353.243911 229.371041 353.282542 233.511312 356.141253 237.651584 357.995551 241.791855 356.450302 245.932127 354.750529 250.072398 355.523153 254.212670 354.827791 258.352941 356.604827 262.493213 356.875246 266.633484 357.068402 270.773756 357.609239 274.914027 358.072814 279.054299 356.682090 283.194570 359.733956 287.334842 360.892893 291.475113 359.927113 295.615385 358.884070 299.755656 358.806807 303.895928 358.884070 308.036199 360.197531 312.176471 361.008787 316.316742 360.699737 320.457014 360.004375 324.597285 361.163312 328.737557 360.777000 332.877828 361.356468 337.018100 362.940348 341.158371 362.940348 345.298643 362.090461 349.438914 363.597079 353.579186 364.331072 357.719457 365.605903 361.859729 365.837690 366.000000 367.305676 370.140271 366.610314 374.280543 366.571683 378.420814 365.142328 382.561086 364.022022 386.701357 364.137916 390.841629 364.794647 394.981900 363.519816 399.122172 363.056242 403.262443 363.674341 407.402715 363.133504 411.542986 363.133504 415.683258 363.056242 419.823529 362.669930 423.963801 362.244986 428.104072 361.356468 432.244344 362.631298 436.384615 363.133504 440.524887 363.017611 444.665158 362.360880 448.805430 362.631298 452.945701 363.597079 457.085973 362.206355 461.226244 362.631298 465.366516 362.631298 469.506787 363.249398 473.647059 364.292441 477.787330 364.060654 481.927602 364.099285 486.067873 364.833278 490.208145 364.099285 494.348416 364.176547 498.488688 365.026434 502.628959 365.644534 506.769231 365.103697 510.909502 364.794647 515.049774 364.137916 519.190045 363.558448 523.330317 363.635710 527.470588 365.876321 531.610860 365.258222 535.751131 364.717384 539.891403 363.635710 544.031674 363.558448 548.171946 363.790235 552.312217 363.133504 556.452489 363.558448 560.592760 365.258222 564.733032 364.794647 568.873303 364.215178 573.013575 364.408335 577.153846 364.601491 581.294118 365.258222 585.434389 365.528640 589.574661 364.331072 593.714932 364.601491 597.855204 364.640122 601.995475 364.524228 606.135747 364.099285 610.276018 363.326660 614.416290 363.674341 618.556561 363.442554 622.696833 362.824454 626.837104 362.283617 630.977376 361.974567 635.117647 361.974567 639.257919 361.433730 643.398190 361.240574 647.538462 361.317837 651.678733 360.815631 655.819005 360.777000 659.959276 360.352056 664.099548 360.777000 668.239819 360.854262 672.380090 360.854262 676.520362 360.815631 680.660633 361.356468 684.800905 360.777000 688.941176 359.927113 693.081448 359.347644 697.221719 358.999963 701.361991 358.343232 705.502262 358.845438 709.642534 358.884070 713.782805 359.193119 717.923077 358.575020"/></g><g class="series serie-2 color-2"><path class="line reactive nofill" d="M14.076923 357.879658 L18.217195 357.879658 22.357466 357.879658 26.497738 357.879658 30.638009 357.879658 34.778281 357.879658 38.918552 357.879658 43.058824 357.879658 47.199095 357.879658 51.339367 357.879658 55.479638 357.879658 59.619910 357.879658 63.760181 357.879658 67.900452 357.879658 72.040724 357.879658 76.180995 357.879658 80.321267 357.879658 84.461538 357.879658 88.601810 357.879658 92.742081 357.879658 96.882353 357.879658 101.022624 357.879658 105.162896 357.879658 109.303167 357.879658 113.443439 357.879658 117.583710 357.879658 121.723982 357.879658 125.864253 357.879658 130.004525 357.879658 134.144796 357.879658 138.285068 357.879658 142.425339 357.879658 146.565611 357.879658 150.705882 357.879658 154.846154 357.879658 158.986425 357.879658 163.126697 357.879658 167.266968 357.879658 171.407240 357.879658 175.547511 357.879658 179.687783 357.879658 183.828054 357.879658 187.968326 357.879658 192.108597 357.879658 196.248869 357.879658 200.389140 357.879658 204.529412 357.879658 208.669683 357.879658 212.809955 357.879658 216.950226 357.879658 221.090498 357.879658 225.230769 357.879658 229.371041 357.879658 233.511312 357.879658 237.651584 357.879658 241.791855 357.879658 245.932127 357.879658 250.072398 357.879658 254.212670 357.879658 258.352941 357.879658 262.493213 357.879658 266.633484 357.879658 270.773756 357.879658 274.914027 357.879658 279.054299 357.879658 283.194570 357.879658 287.334842 357.879658 291.475113 357.879658 295.615385 357.879658 299.755656 357.879658 303.895928 357.879658 308.036199 357.879658 312.176471 357.879658 316.316742 357.879658 320.457014 357.879658 324.597285 357.879658 328.737557 357.879658 332.877828 357.879658 337.018100 357.879658 341.158371 357.879658 345.298643 357.879658 349.438914 357.879658 353.579186 357.879658 357.719457 357.879658 361.859729 357.879658 366.000000 357.879658 370.140271 357.879658 374.280543 357.879658 378.420814 357.879658 382.561086 357.879658 386.701357 357.879658 390.841629 357.879658 394.981900 357.879658 399.122172 357.879658 403.262443 357.879658 407.402715 357.879658 411.542986 357.879658 415.683258 357.879658 419.823529 357.879658 423.963801 357.879658 428.104072 357.879658 432.244344 357.879658 436.384615 357.879658 440.524887 357.879658 444.665158 357.879658 448.805430 357.879658 452.945701 357.879658 457.085973 357.879658 461.226244 357.879658 465.366516 357.879658 469.506787 357.879658 473.647059 357.879658 477.787330 357.879658 481.927602 357.879658 486.067873 357.879658 490.208145 357.879658 494.348416 357.879658 498.488688 357.879658 502.628959 357.879658 506.769231 357.879658 510.909502 357.879658 515.049774 357.879658 519.190045 357.879658 523.330317 357.879658 527.470588 357.879658 531.610860 357.879658 535.751131 357.879658 539.891403 357.879658 544.031674 357.879658 548.171946 357.879658 552.312217 357.879658 556.452489 357.879658 560.592760 357.879658 564.733032 357.879658 568.873303 357.879658 573.013575 357.879658 577.153846 357.879658 581.294118 357.879658 585.434389 357.879658 589.574661 357.879658 593.714932 357.879658 597.855204 357.879658 601.995475 357.879658 606.135747 357.879658 610.276018 357.879658 614.416290 357.879658 618.556561 357.879658 622.696833 357.879658 626.837104 357.879658 630.977376 357.879658 635.117647 357.879658 639.257919 357.879658 643.398190 357.879658 647.538462 357.879658 651.678733 357.879658 655.819005 357.879658 659.959276 357.879658 664.099548 357.879658 668.239819 357.879658 672.380090 357.879658 676.520362 357.879658 680.660633 357.879658 684.800905 357.879658 688.941176 357.879658 693.081448 357.879658 697.221719 357.879658 701.361991 357.879658 705.502262 357.879658 709.642534 357.879658 713.782805 357.879658 717.923077 357.879658"/></g></g><g class="titles"><text class="title plot_title" x="400.0" y="26">M Ntini: Future and Past Averages in ODIs</text></g><g class="plot overlay" transform="translate(48, 46)"><g class="series serie-0 color-0"><g class="dots"><desc class="label">266 wickets in 171 innings (1447.5 overs)</desc><circle class="dot reactive tooltip-trigger" cx="14.076923076923077" cy="357.8796577506779" r="2.5"/><desc class="value">24.66</desc><desc class="x top">14.076923076923077</desc><desc class="y top">357.8796577506779</desc><desc class="x_label">2000</desc></g><g class="dots"><desc class="label">246 wickets in 156 innings (1330.0 overs)</desc><circle class="dot reactive tooltip-trigger" cx="76.18099547511312" cy="357.99555142222925" r="2.5"/><desc class="value">24.63</desc><desc class="x top">76.18099547511312</desc><desc class="y top">357.99555142222925</desc><desc class="x_label">2001</desc></g><g class="dots"><desc class="label">227 wickets in 141 innings (1203.4 overs)</desc><circle class="dot reactive tooltip-trigger" cx="138.28506787330315" cy="358.84543834693943" r="2.5"/><desc class="value">24.41</desc><desc class="x top">138.28506787330315</desc><desc class="y top">358.84543834693943</desc><desc class="x_label">2002</desc></g><g class="dots"><desc class="label">177 wickets in 110 innings (924.2 overs)</desc><circle class="dot reactive tooltip-trigger" cx="266.6334841628959" cy="358.3046012130329" r="2.5"/><desc class="value">24.55</desc><desc class="x top">266.6334841628959</desc><desc class="y top">358.3046012130329</desc><desc class="x_label">2003</desc></g><g class="dots"><desc class="label">132 wickets in 87 innings (729.3 overs)</desc><circle class="dot reactive tooltip-trigger" cx="361.85972850678735" cy="349.84436318978186" r="2.5"/><desc class="value">26.74</desc><desc class="x top">361.85972850678735</desc><desc class="y top">349.84436318978186</desc><desc class="x_label">2004</desc></g><g class="dots"><desc class="label">107 wickets in 69 innings (589.3 overs)</desc><circle class="dot reactive tooltip-trigger" cx="436.38461538461536" cy="350.0761505328846" r="2.5"/><desc class="value">26.68</desc><desc class="x left top">436.38461538461536</desc><desc class="y left top">350.0761505328846</desc><desc class="x_label">2005</desc></g><g class="dots"><desc class="label">71 wickets in 49 innings (417.2 overs)</desc><circle class="dot reactive tooltip-trigger" cx="519.1900452488688" cy="342.3112745389418" r="2.5"/><desc class="value">28.69</desc><desc class="x left top">519.1900452488688</desc><desc class="y left top">342.3112745389418</desc><desc class="x_label">2006</desc></g><g class="dots"><desc class="label">43 wickets in 34 innings (290.5 overs)</desc><circle class="dot reactive tooltip-trigger" cx="581.2941176470589" cy="319.7506398102721" r="2.5"/><desc class="value">34.53</desc><desc class="x left top">581.2941176470589</desc><desc class="y left top">319.7506398102721</desc><desc class="x_label">2007</desc></g><g class="dots"><desc class="label">11 wickets in 9 innings (75.0 overs)</desc><circle class="dot reactive tooltip-trigger" cx="684.8009049773755" cy="290.8931155939772" r="2.5"/><desc class="value">42</desc><desc class="x left top">684.8009049773755</desc><desc class="y left top">290.8931155939772</desc><desc class="x_label">2008</desc></g><g class="dots"><desc class="label">9 wickets in 5 innings (43.0 overs)</desc><circle class="dot reactive tooltip-trigger" cx="701.3619909502262" cy="344.97682898462364" r="2.5"/><desc class="value">28</desc><desc class="x left top">701.3619909502262</desc><desc class="y left top">344.97682898462364</desc><desc class="x_label">2009</desc></g></g><g class="series serie-1 color-1"><g class="dots"><desc class="label">0 wickets over 0 innings</desc><circle class="dot reactive tooltip-trigger" cx="14.076923076923077" cy="453.1442557659166" r="2.5"/><desc class="value">0</desc><desc class="x top">14.076923076923077</desc><desc class="y top">453.1442557659166</desc><desc class="x_label">2000</desc></g><g class="dots"><desc class="label">20 wickets in 15 innings (117.5 overs)</desc><circle class="dot reactive tooltip-trigger" cx="76.18099547511312" cy="356.75935225901446" r="2.5"/><desc class="value">24.95</desc><desc class="x top">76.18099547511312</desc><desc class="y top">356.75935225901446</desc><desc class="x_label">2001</desc></g><g class="dots"><desc class="label">39 wickets in 30 innings (244.1 overs)</desc><circle class="dot reactive tooltip-trigger" cx="138.28506787330315" cy="352.39402396391233" r="2.5"/><desc class="value">26.08</desc><desc class="x top">138.28506787330315</desc><desc class="y top">352.39402396391233</desc><desc class="x_label">2002</desc></g><g class="dots"><desc class="label">89 wickets in 61 innings (523.3 overs)</desc><circle class="dot reactive tooltip-trigger" cx="266.6334841628959" cy="357.0684020498182" r="2.5"/><desc class="value">24.87</desc><desc class="x top">266.6334841628959</desc><desc class="y top">357.0684020498182</desc><desc class="x_label">2003</desc></g><g class="dots"><desc class="label">134 wickets in 84 innings (718.2 overs)</desc><circle class="dot reactive tooltip-trigger" cx="361.85972850678735" cy="365.83768986387304" r="2.5"/><desc class="value">22.6</desc><desc class="x top">361.85972850678735</desc><desc class="y top">365.83768986387304</desc><desc class="x_label">2004</desc></g><g class="dots"><desc class="label">159 wickets in 102 innings (858.2 overs)</desc><circle class="dot reactive tooltip-trigger" cx="436.38461538461536" cy="363.1335041943407" r="2.5"/><desc class="value">23.3</desc><desc class="x left top">436.38461538461536</desc><desc class="y left top">363.1335041943407</desc><desc class="x_label">2005</desc></g><g class="dots"><desc class="label">195 wickets in 122 innings (1030.3 overs)</desc><circle class="dot reactive tooltip-trigger" cx="519.1900452488688" cy="363.55844765669576" r="2.5"/><desc class="value">23.19</desc><desc class="x left top">519.1900452488688</desc><desc class="y left top">363.55844765669576</desc><desc class="x_label">2006</desc></g><g class="dots"><desc class="label">223 wickets in 137 innings (1157.0 overs)</desc><circle class="dot reactive tooltip-trigger" cx="581.2941176470589" cy="365.25822150611606" r="2.5"/><desc class="value">22.75</desc><desc class="x left top">581.2941176470589</desc><desc class="y left top">365.25822150611606</desc><desc class="x_label">2007</desc></g><g class="dots"><desc class="label">255 wickets in 162 innings (1372.5 overs)</desc><circle class="dot reactive tooltip-trigger" cx="684.8009049773755" cy="360.7769995394625" r="2.5"/><desc class="value">23.91</desc><desc class="x left top">684.8009049773755</desc><desc class="y left top">360.7769995394625</desc><desc class="x_label">2008</desc></g><g class="dots"><desc class="label">257 wickets in 166 innings (1404.5 overs)</desc><circle class="dot reactive tooltip-trigger" cx="701.3619909502262" cy="358.34323243688345" r="2.5"/><desc class="value">24.54</desc><desc class="x left top">701.3619909502262</desc><desc class="y left top">358.34323243688345</desc><desc class="x_label">2009</desc></g></g><g class="series serie-2 color-2"/></g><g class="plot text-overlay" transform="translate(48, 46)"><g class="series serie-0 color-0"/><g class="series serie-1 color-1"/><g class="series serie-2 color-2"/></g><g class="plot tooltip-overlay" transform="translate(48, 46)"><g class="tooltip" style="opacity: 0" transform="translate(0 0)"><rect class="tooltip-box" height="0" rx="10" ry="10" width="0"/><g class="text"/></g></g><g class="legends" transform="translate(58, 545)"><g class="legend reactive activate-serie" id="activate-serie-0"><rect class="color-0 reactive" height="12" width="12" x="0.0" y="1.0"/><text x="17.0" y="11.2">Future Average</text></g><g class="legend reactive activate-serie" id="activate-serie-1"><rect class="color-1 reactive" height="12" width="12" x="366.0" y="1.0"/><text x="383.0" y="11.2">Past Average</text></g><g class="legend reactive activate-serie" id="activate-serie-2"><rect class="color-2 reactive" height="12" width="12" x="0.0" y="22.0"/><text x="17.0" y="32.2">Career Average</text></g></g></g></svg>