<?xml version='1.0' encoding='utf-8'?>
<svg xmlns:xlink="http://www.w3.org/1999/xlink" xmlns="http://www.w3.org/2000/svg" id="chart-2d9c797b-53e2-43be-9bad-d41dd1684853" class="pygal-chart" viewBox="0 0 800 600"><!--Generated with pygal 2.4.0 (lxml) ©Kozea 2012-2016 on 2019-08-04--><!--http://pygal.org--><!--http://github.com/Kozea/pygal--><defs><style type="text/css">#chart-2d9c797b-53e2-43be-9bad-d41dd1684853{-webkit-user-select:none;-webkit-font-smoothing:antialiased;font-family:Consolas,"Liberation Mono",Menlo,Courier,monospace}#chart-2d9c797b-53e2-43be-9bad-d41dd1684853 .title{font-family:Consolas,"Liberation Mono",Menlo,Courier,monospace;font-size:16px}#chart-2d9c797b-53e2-43be-9bad-d41dd1684853 .legends .legend text{font-family:Consolas,"Liberation Mono",Menlo,Courier,monospace;font-size:14px}#chart-2d9c797b-53e2-43be-9bad-d41dd1684853 .axis text{font-family:Consolas,"Liberation Mono",Menlo,Courier,monospace;font-size:10px}#chart-2d9c797b-53e2-43be-9bad-d41dd1684853 .axis text.major{font-family:Consolas,"Liberation Mono",Menlo,Courier,monospace;font-size:10px}#chart-2d9c797b-53e2-43be-9bad-d41dd1684853 .text-overlay text.value{font-family:Consolas,"Liberation Mono",Menlo,Courier,monospace;font-size:16px}#chart-2d9c797b-53e2-43be-9bad-d41dd1684853 .text-overlay text.label{font-family:Consolas,"Liberation Mono",Menlo,Courier,monospace;font-size:10px}#chart-2d9c797b-53e2-43be-9bad-d41dd1684853 .tooltip{font-family:Consolas,"Liberation Mono",Menlo,Courier,monospace;font-size:14px}#chart-2d9c797b-53e2-43be-9bad-d41dd1684853 text.no_data{font-family:Consolas,"Liberation Mono",Menlo,Courier,monospace;font-size:64px}
#chart-2d9c797b-53e2-43be-9bad-d41dd1684853{background-color:rgba(249,249,249,1)}#chart-2d9c797b-53e2-43be-9bad-d41dd1684853 path,#chart-2d9c797b-53e2-43be-9bad-d41dd1684853 line,#chart-2d9c797b-53e2-43be-9bad-d41dd1684853 rect,#chart-2d9c797b-53e2-43be-9bad-d41dd1684853 circle{-webkit-transition:150ms;-moz-transition:150ms;transition:150ms}#chart-2d9c797b-53e2-43be-9bad-d41dd1684853 .graph &gt; .background{fill:rgba(249,249,249,1)}#chart-2d9c797b-53e2-43be-9bad-d41dd1684853 .plot &gt; .background{fill:rgba(255,255,255,1)}#chart-2d9c797b-53e2-43be-9bad-d41dd1684853 .graph{fill:rgba(0,0,0,.87)}#chart-2d9c797b-53e2-43be-9bad-d41dd1684853 text.no_data{fill:rgba(0,0,0,1)}#chart-2d9c797b-53e2-43be-9bad-d41dd1684853 .title{fill:rgba(0,0,0,1)}#chart-2d9c797b-53e2-43be-9bad-d41dd1684853 .legends .legend text{fill:rgba(0,0,0,.87)}#chart-2d9c797b-53e2-43be-9bad-d41dd1684853 .legends .legend:hover text{fill:rgba(0,0,0,1)}#chart-2d9c797b-53e2-43be-9bad-d41dd1684853 .axis .line{stroke:rgba(0,0,0,1)}#chart-2d9c797b-53e2-43be-9bad-d41dd1684853 .axis .guide.line{stroke:rgba(0,0,0,.54)}#chart-2d9c797b-53e2-43be-9bad-d41dd1684853 .axis .major.line{stroke:rgba(0,0,0,.87)}#chart-2d9c797b-53e2-43be-9bad-d41dd1684853 .axis text.major{fill:rgba(0,0,0,1)}#chart-2d9c797b-53e2-43be-9bad-d41dd1684853 .axis.y .guides:hover .guide.line,#chart-2d9c797b-53e2-43be-9bad-d41dd1684853 .line-graph .axis.x .guides:hover .guide.line,#chart-2d9c797b-53e2-43be-9bad-d41dd1684853 .stackedline-graph .axis.x .guides:hover .guide.line,#chart-2d9c797b-53e2-43be-9bad-d41dd1684853 .xy-graph .axis.x .guides:hover .guide.line{stroke:rgba(0,0,0,1)}#chart-2d9c797b-53e2-43be-9bad-d41dd1684853 .axis .guides:hover text{fill:rgba(0,0,0,1)}#chart-2d9c797b-53e2-43be-9bad-d41dd1684853 .reactive{fill-opacity:.7;stroke-opacity:.8}#chart-2d9c797b-53e2-43be-9bad-d41dd1684853 .ci{stroke:rgba(0,0,0,.87)}#chart-2d9c797b-53e2-43be-9bad-d41dd1684853 .reactive.active,#chart-2d9c797b-53e2-43be-9bad-d41dd1684853 .active .reactive{fill-opacity:.8;stroke-opacity:.9;stroke-width:4}#chart-2d9c797b-53e2-43be-9bad-d41dd1684853 .ci .reactive.active{stroke-width:1.5}#chart-2d9c797b-53e2-43be-9bad-d41dd1684853 .series text{fill:rgba(0,0,0,1)}#chart-2d9c797b-53e2-43be-9bad-d41dd1684853 .tooltip rect{fill:rgba(255,255,255,1);stroke:rgba(0,0,0,1);-webkit-transition:opacity 150ms;-moz-transition:opacity 150ms;transition:opacity 150ms}#chart-2d9c797b-53e2-43be-9bad-d41dd1684853 .tooltip .label{fill:rgba(0,0,0,.87)}#chart-2d9c797b-53e2-43be-9bad-d41dd1684853 .tooltip .label{fill:rgba(0,0,0,.87)}#chart-2d9c797b-53e2-43be-9bad-d41dd1684853 .tooltip .legend{font-size:.8em;fill:rgba(0,0,0,.54)}#chart-2d9c797b-53e2-43be-9bad-d41dd1684853 .tooltip .x_label{font-size:.6em;fill:rgba(0,0,0,1)}#chart-2d9c797b-53e2-43be-9bad-d41dd1684853 .tooltip .xlink{font-size:.5em;text-decoration:underline}#chart-2d9c797b-53e2-43be-9bad-d41dd1684853 .tooltip .value{font-size:1.5em}#chart-2d9c797b-53e2-43be-9bad-d41dd1684853 .bound{font-size:.5em}#chart-2d9c797b-53e2-43be-9bad-d41dd1684853 .max-value{font-size:.75em;fill:rgba(0,0,0,.54)}#chart-2d9c797b-53e2-43be-9bad-d41dd1684853 .map-element{fill:rgba(255,255,255,1);stroke:rgba(0,0,0,.54) !important}#chart-2d9c797b-53e2-43be-9bad-d41dd1684853 .map-element .reactive{fill-opacity:inherit;stroke-opacity:inherit}#chart-2d9c797b-53e2-43be-9bad-d41dd1684853 .color-0,#chart-2d9c797b-53e2-43be-9bad-d41dd1684853 .color-0 a:visited{stroke:red;fill:red}#chart-2d9c797b-53e2-43be-9bad-d41dd1684853 .color-1,#chart-2d9c797b-53e2-43be-9bad-d41dd1684853 .color-1 a:visited{stroke:blue;fill:blue}#chart-2d9c797b-53e2-43be-9bad-d41dd1684853 .color-2,#chart-2d9c797b-53e2-43be-9bad-d41dd1684853 .color-2 a:visited{stroke:green;fill:green}#chart-2d9c797b-53e2-43be-9bad-d41dd1684853 .text-overlay .color-0 text{fill:white}#chart-2d9c797b-53e2-43be-9bad-d41dd1684853 .text-overlay .color-1 text{fill:white}#chart-2d9c797b-53e2-43be-9bad-d41dd1684853 .text-overlay .color-2 text{fill:white}
#chart-2d9c797b-53e2-43be-9bad-d41dd1684853 text.no_data{text-anchor:middle}#chart-2d9c797b-53e2-43be-9bad-d41dd1684853 .guide.line{fill:none}#chart-2d9c797b-53e2-43be-9bad-d41dd1684853 .centered{text-anchor:middle}#chart-2d9c797b-53e2-43be-9bad-d41dd1684853 .title{text-anchor:middle}#chart-2d9c797b-53e2-43be-9bad-d41dd1684853 .legends .legend text{fill-opacity:1}#chart-2d9c797b-53e2-43be-9bad-d41dd1684853 .axis.x text{text-anchor:middle}#chart-2d9c797b-53e2-43be-9bad-d41dd1684853 .axis.x:not(.web) text[transform]{text-anchor:start}#chart-2d9c797b-53e2-43be-9bad-d41dd1684853 .axis.x:not(.web) text[transform].backwards{text-anchor:end}#chart-2d9c797b-53e2-43be-9bad-d41dd1684853 .axis.y text{text-anchor:end}#chart-2d9c797b-53e2-43be-9bad-d41dd1684853 .axis.y text[transform].backwards{text-anchor:start}#chart-2d9c797b-53e2-43be-9bad-d41dd1684853 .axis.y2 text{text-anchor:start}#chart-2d9c797b-53e2-43be-9bad-d41dd1684853 .axis.y2 text[transform].backwards{text-anchor:end}#chart-2d9c797b-53e2-43be-9bad-d41dd1684853 .axis .guide.line{stroke-dasharray:4,4}#chart-2d9c797b-53e2-43be-9bad-d41dd1684853 .axis .major.guide.line{stroke-dasharray:6,6}#chart-2d9c797b-53e2-43be-9bad-d41dd1684853 .horizontal .axis.y .guide.line,#chart-2d9c797b-53e2-43be-9bad-d41dd1684853 .horizontal .axis.y2 .guide.line,#chart-2d9c797b-53e2-43be-9bad-d41dd1684853 .vertical .axis.x .guide.line{opacity:0}#chart-2d9c797b-53e2-43be-9bad-d41dd1684853 .horizontal .axis.always_show .guide.line,#chart-2d9c797b-53e2-43be-9bad-d41dd1684853 .vertical .axis.always_show .guide.line{opacity:1 !important}#chart-2d9c797b-53e2-43be-9bad-d41dd1684853 .axis.y .guides:hover .guide.line,#chart-2d9c797b-53e2-43be-9bad-d41dd1684853 .axis.y2 .guides:hover .guide.line,#chart-2d9c797b-53e2-43be-9bad-d41dd1684853 .axis.x .guides:hover .guide.line{opacity:1}#chart-2d9c797b-53e2-43be-9bad-d41dd1684853 .axis .guides:hover text{opacity:1}#chart-2d9c797b-53e2-43be-9bad-d41dd1684853 .nofill{fill:none}#chart-2d9c797b-53e2-43be-9bad-d41dd1684853 .subtle-fill{fill-opacity:.2}#chart-2d9c797b-53e2-43be-9bad-d41dd1684853 .dot{stroke-width:1px;fill-opacity:1}#chart-2d9c797b-53e2-43be-9bad-d41dd1684853 .dot.active{stroke-width:5px}#chart-2d9c797b-53e2-43be-9bad-d41dd1684853 .dot.negative{fill:transparent}#chart-2d9c797b-53e2-43be-9bad-d41dd1684853 text,#chart-2d9c797b-53e2-43be-9bad-d41dd1684853 tspan{stroke:none !important}#chart-2d9c797b-53e2-43be-9bad-d41dd1684853 .series text.active{opacity:1}#chart-2d9c797b-53e2-43be-9bad-d41dd1684853 .tooltip rect{fill-opacity:.95;stroke-width:.5}#chart-2d9c797b-53e2-43be-9bad-d41dd1684853 .tooltip text{fill-opacity:1}#chart-2d9c797b-53e2-43be-9bad-d41dd1684853 .showable{visibility:hidden}#chart-2d9c797b-53e2-43be-9bad-d41dd1684853 .showable.shown{visibility:visible}#chart-2d9c797b-53e2-43be-9bad-d41dd1684853 .gauge-background{fill:rgba(229,229,229,1);stroke:none}#chart-2d9c797b-53e2-43be-9bad-d41dd1684853 .bg-lines{stroke:rgba(249,249,249,1);stroke-width:2px}</style><script type="text/javascript">window.pygal = window.pygal || {};window.pygal.config = window.pygal.config || {};window.pygal.config['2d9c797b-53e2-43be-9bad-d41dd1684853'] = {"allow_interruptions": false, "box_mode": "extremes", "classes": ["pygal-chart"], "css": ["file://style.css", "file://graph.css"], "defs": [], "disable_xml_declaration": false, "dots_size": 2.5, "dynamic_print_values": false, "explicit_size": false, "fill": false, "force_uri_protocol": "https", "formatter": null, "half_pie": false, "height": 600, "include_x_axis": false, "inner_radius": 0, "interpolate": null, "interpolation_parameters": {}, "interpolation_precision": 250, "inverse_y_axis": false, "js": ["//kozea.github.io/pygal.js/2.0.x/pygal-tooltips.min.js"], "legend_at_bottom": true, "legend_at_bottom_columns": null, "legend_box_size": 12, "logarithmic": false, "margin": 20, "margin_bottom": null, "margin_left": null, "margin_right": null, "margin_top": null, "max_scale": 16, "min_scale": 4, "missing_value_fill_truncation": "x", "no_data_text": "No data", "no_prefix": false, "order_min": null, "pretty_print": false, "print_labels": false, "print_values": false, "print_values_position": "center", "print_zeroes": true, "range": null, "rounded_bars": null, "secondary_range": null, "show_dots": true, "show_legend": true, "show_minor_x_labels": false, "show_minor_y_labels": true, "show_only_major_dots": false, "show_x_guides": false, "show_x_labels": true, "show_y_guides": true, "show_y_labels": true, "spacing": 10, "stack_from_top": false, "strict": false, "stroke": true, "stroke_style": null, "style": {"background": "rgba(249, 249, 249, 1)", "ci_colors": [], "colors": ["red", "blue", "green", "#a3a3a3"], "font_family": "Consolas, \"Liberation Mono\", Menlo, Courier, monospace", "foreground": "rgba(0, 0, 0, .87)", "foreground_strong": "rgba(0, 0, 0, 1)", "foreground_subtle": "rgba(0, 0, 0, .54)", "guide_stroke_dasharray": "4,4", "label_font_family": "Consolas, \"Liberation Mono\", Menlo, Courier, monospace", "label_font_size": 10, "legend_font_family": "Consolas, \"Liberation Mono\", Menlo, Courier, monospace", "legend_font_size": 14, "major_guide_stroke_dasharray": "6,6", "major_label_font_family": "Consolas, \"Liberation Mono\", Menlo, Courier, monospace", "major_label_font_size": 10, "no_data_font_family": "Consolas, \"Liberation Mono\", Menlo, Courier, monospace", "no_data_font_size": 64, "opacity": ".7", "opacity_hover": ".8", "plot_background": "rgba(255, 255, 255, 1)", "stroke_opacity": ".8", "stroke_opacity_hover": ".9", "title_font_family": "Consolas, \"Liberation Mono\", Menlo, Courier, monospace", "title_font_size": 16, "tooltip_font_family": "Consolas, \"Liberation Mono\", Menlo, Courier, monospace", "tooltip_font_size": 14, "transition": "150ms", "value_background": "rgba(229, 229, 229, 1)", "value_colors": [], "value_font_family": "Consolas, \"Liberation Mono\", Menlo, Courier, monospace", "value_font_size": 16, "value_label_font_family": "Consolas, \"Liberation Mono\", Menlo, Courier, monospace", "value_label_font_size": 10}, "title": "M Prabhakar: Future and Past Averages in ODIs", "tooltip_border_radius": 10, "tooltip_fancy_mode": true, "truncate_label": null, "truncate_legend": null, "width": 800, "x_label_rotation": 45, "x_labels": ["1984", "0", "0", "0", "0", "1985", "0", "1987", "0", "0", "0", "0", "0", "0", "0", "0", "0", "0", "0", "0", "0", "1989", "0", "0", "0", "0", "0", "0", "0", "0", "0", "0", "0", "0", "1990", "0", "0", "0", "0", "0", "0", "0", "0", "0", "0", "0", "0", "1991", "0", "0", "0", "0", "0", "0", "0", "0", "0", "0", "0", "0", "0", "1992", "0", "0", "0", "0", "0", "0", "0", "0", "0", "0", "0", "0", "0", "0", "0", "0", "0", "0", "0", "1993", "0", "0", "0", "0", "0", "0", "0", "0", "0", "0", "0", "0", "0", "0", "0", "0", "1994", "0", "0", "0", "0", "0", "0", "0", "0", "0", "0", "0", "0", "1995", "0", "0", "0", "0", "0", "0", "0", "0", "0", "0", "0", "1996", "0", "0", "0"], "x_labels_major": ["1984", "1985", "1987", "1989", "1990", "1991", "1992", "1993", "1994", "1995", "1996"], "x_labels_major_count": null, "x_labels_major_every": null, "x_title": null, "xrange": null, "y_label_rotation": 0, "y_labels": null, "y_labels_major": null, "y_labels_major_count": null, "y_labels_major_every": null, "y_title": null, "zero": 110.0, "legends": ["Future Average", "Past Average", "Career Average"]}</script><script type="text/javascript" xlink:href="https://kozea.github.io/pygal.js/2.0.x/pygal-tooltips.min.js"/></defs><title>M Prabhakar: Future and Past Averages in ODIs</title><g class="graph line-graph vertical"><rect class="background" height="600" width="800" x="0" y="0"/><g class="plot" transform="translate(48, 46)"><rect class="background" height="462.02943725152284" width="732.0" x="0" y="0"/><g class="axis y always_show"><g class="guides"><path class="axis major line" d="M0.000000 453.144256 h732.000000"/><text class="major" x="-5" y="456.6442557659166">0</text><title>0</title></g><g class="guides"><path class="guide line" d="M0.000000 409.589445 h732.000000"/><text class="" x="-5" y="413.0894445619646">10</text><title>10</title></g><g class="guides"><path class="guide line" d="M0.000000 366.034633 h732.000000"/><text class="" x="-5" y="369.5346333580126">20</text><title>20</title></g><g class="guides"><path class="guide line" d="M0.000000 322.479822 h732.000000"/><text class="" x="-5" y="325.9798221540606">30</text><title>30</title></g><g class="guides"><path class="guide line" d="M0.000000 278.925011 h732.000000"/><text class="" x="-5" y="282.4250109501087">40</text><title>40</title></g><g class="guides"><path class="major guide line" d="M0.000000 235.370200 h732.000000"/><text class="major" x="-5" y="238.87019974615666">50</text><title>50</title></g><g class="guides"><path class="guide line" d="M0.000000 191.815389 h732.000000"/><text class="" x="-5" y="195.31538854220463">60</text><title>60</title></g><g class="guides"><path class="guide line" d="M0.000000 148.260577 h732.000000"/><text class="" x="-5" y="151.76057733825263">70</text><title>70</title></g><g class="guides"><path class="guide line" d="M0.000000 104.705766 h732.000000"/><text class="" x="-5" y="108.20576613430063">80</text><title>80</title></g><g class="guides"><path class="guide line" d="M0.000000 61.150955 h732.000000"/><text class="" x="-5" y="64.65095493034858">90</text><title>90</title></g><g class="guides"><path class="major guide line" d="M0.000000 17.596144 h732.000000"/><text class="major" x="-5" y="21.09614372639669">100</text><title>100</title></g></g><g class="axis x"><g class="guides"><path class="major line" d="M14.076923 0.000000 v462.029437"/><text class="major" x="14.076923076923077" y="477.02943725152284" transform="rotate(45 14.076923 477.029437)">1984</text></g><g class="guides"><path class="major guide line" d="M42.007326 0.000000 v462.029437"/><text class="major" x="42.00732600732601" y="477.02943725152284" transform="rotate(45 42.007326 477.029437)">1985</text></g><g class="guides"><path class="major guide line" d="M53.179487 0.000000 v462.029437"/><text class="major" x="53.179487179487175" y="477.02943725152284" transform="rotate(45 53.179487 477.029437)">1987</text></g><g class="guides"><path class="major guide line" d="M131.384615 0.000000 v462.029437"/><text class="major" x="131.38461538461536" y="477.02943725152284" transform="rotate(45 131.384615 477.029437)">1989</text></g><g class="guides"><path class="major guide line" d="M204.003663 0.000000 v462.029437"/><text class="major" x="204.003663003663" y="477.02943725152284" transform="rotate(45 204.003663 477.029437)">1990</text></g><g class="guides"><path class="major guide line" d="M276.622711 0.000000 v462.029437"/><text class="major" x="276.62271062271066" y="477.02943725152284" transform="rotate(45 276.622711 477.029437)">1991</text></g><g class="guides"><path class="major guide line" d="M354.827839 0.000000 v462.029437"/><text class="major" x="354.8278388278388" y="477.02943725152284" transform="rotate(45 354.827839 477.029437)">1992</text></g><g class="guides"><path class="major guide line" d="M466.549451 0.000000 v462.029437"/><text class="major" x="466.54945054945057" y="477.02943725152284" transform="rotate(45 466.549451 477.029437)">1993</text></g><g class="guides"><path class="major guide line" d="M561.512821 0.000000 v462.029437"/><text class="major" x="561.5128205128206" y="477.02943725152284" transform="rotate(45 561.512821 477.029437)">1994</text></g><g class="guides"><path class="major guide line" d="M634.131868 0.000000 v462.029437"/><text class="major" x="634.1318681318681" y="477.02943725152284" transform="rotate(45 634.131868 477.029437)">1995</text></g><g class="guides"><path class="major guide line" d="M701.164835 0.000000 v462.029437"/><text class="major" x="701.1648351648352" y="477.02943725152284" transform="rotate(45 701.164835 477.029437)">1996</text></g></g><g class="series serie-0 color-0"><path class="line reactive nofill" d="M14.076923 327.357961 L19.663004 326.181981 25.249084 326.661084 30.835165 327.096632 36.421245 327.053077 42.007326 327.183742 47.593407 328.185502 53.179487 328.925934 58.765568 329.840585 64.351648 330.537462 69.937729 331.539223 75.523810 332.061881 81.109890 331.756997 86.695971 332.628093 92.282051 332.366764 97.868132 332.671648 103.454212 329.927695 109.040293 330.755236 114.626374 331.147230 120.212454 330.973010 125.798535 332.192545 131.384615 332.845867 136.970696 332.540984 142.556777 333.978292 148.142857 333.673409 153.728938 333.368525 159.315018 331.800552 164.901099 331.756997 170.487179 332.453874 176.073260 332.715203 181.659341 333.150751 187.245421 333.847628 192.831502 334.108957 198.417582 331.495668 204.003663 330.406798 209.589744 330.145469 215.175824 330.363243 220.761905 328.664605 226.347985 329.709921 231.934066 330.537462 237.520147 330.493907 243.106227 328.795270 248.692308 327.706399 254.278388 326.094871 259.864469 326.748194 265.450549 327.401516 271.036630 327.357961 276.622711 327.793509 282.208791 329.274373 287.794872 325.441549 293.380952 321.521616 298.967033 320.214972 304.553114 321.695836 310.139194 319.953643 315.725275 318.211451 321.311355 317.645238 326.897436 320.781185 332.483516 320.781185 338.069597 320.214972 343.655678 321.826500 349.241758 322.436267 354.827839 321.913610 360.413919 320.781185 366.000000 320.694075 371.586081 320.127862 377.172161 321.390952 382.758242 317.950122 388.344322 316.295039 393.930403 313.028428 399.516484 310.371585 405.102564 311.242681 410.688645 312.679990 416.274725 309.282714 421.860806 309.282714 427.446886 307.671186 433.032967 307.845406 438.619048 307.584077 444.205128 309.848927 449.791209 311.591119 455.377289 314.117298 460.963370 315.772381 466.549451 311.765339 472.135531 309.979591 477.721612 312.418661 483.307692 311.155571 488.893773 311.286236 494.479853 304.230356 500.065934 309.021385 505.652015 309.021385 511.238095 308.847166 516.824176 307.192083 522.410256 303.577034 527.996337 296.129161 533.582418 295.040291 539.168498 300.920191 544.754579 297.348696 550.340659 297.392251 555.926740 301.225074 561.512821 299.395772 567.098901 306.364542 572.684982 285.632452 578.271062 288.245741 583.857143 274.395311 589.443223 262.461292 595.029304 270.954480 600.615385 269.430062 606.201465 268.341192 611.787546 260.109333 617.373626 271.607803 622.959707 265.858568 628.545788 275.092188 634.131868 273.480660 639.717949 269.647836 645.304029 276.616606 650.890110 282.975608 656.476190 270.214049 662.062271 293.428763 667.648352 299.134443 673.234432 303.315705 678.820513 304.099692 684.406593 153.704929 689.992674 187.459907 695.578755 247.347773 701.164835 220.866448 706.750916 248.436643 712.336996 8.885181 717.923077 248.436643"/></g><g class="series serie-1 color-1"><path class="line reactive nofill" d="M14.076923 453.144256 L19.663004 418.300407 25.249084 381.278817 30.835165 348.612709 36.421245 344.257228 42.007326 334.457395 47.593407 295.258065 53.179487 266.947438 58.765568 232.103589 64.351648 205.970702 69.937729 166.771372 75.523810 148.260577 81.109890 193.557581 86.695971 167.424694 92.282051 219.821132 97.868132 228.314320 103.454212 296.346935 109.040293 289.639495 114.626374 285.632452 120.212454 290.423481 125.798535 278.010360 131.384615 271.128700 136.970696 281.625409 142.556777 269.125178 148.142857 275.353516 153.728938 283.759595 159.315018 300.092649 164.901099 301.834842 170.487179 299.047334 176.073260 299.134443 181.659341 298.176238 187.245421 294.691853 192.831502 293.341653 198.417582 309.108495 204.003663 315.031949 209.589744 316.948361 215.175824 316.469258 220.761905 323.176699 226.347985 319.779424 231.934066 317.427464 237.520147 318.211451 243.106227 323.612247 248.692308 326.530420 254.278388 330.145469 259.864469 328.664605 265.450549 327.270851 271.036630 327.357961 276.622711 326.486865 282.208791 323.481583 287.794872 330.798791 293.380952 336.765800 298.967033 338.290219 304.553114 335.807594 310.139194 337.593342 315.725275 339.335534 321.311355 339.771082 326.897436 335.720485 332.483516 335.546266 338.069597 336.025368 343.655678 334.065402 349.241758 333.194306 354.827839 333.629854 360.413919 334.544505 366.000000 334.457395 371.586081 334.849389 377.172161 333.412080 382.758242 336.199588 388.344322 337.244903 393.930403 339.204870 399.516484 340.685733 405.102564 339.988856 410.688645 338.595102 416.274725 340.119521 421.860806 339.814637 427.446886 340.206630 433.032967 339.771082 438.619048 339.596863 444.205128 338.203109 449.791209 337.114239 455.377289 335.546266 460.963370 334.326731 466.549451 336.025368 472.135531 336.460917 477.721612 335.197827 483.307692 335.372046 488.893773 335.110717 494.479853 337.244903 500.065934 335.197827 505.652015 334.936498 511.238095 334.805834 516.824176 334.980053 522.410256 335.764040 527.996337 337.332013 533.582418 337.332013 539.168498 335.502711 544.754579 335.981814 550.340659 335.633375 555.926740 334.588060 561.512821 334.805834 567.098901 332.932977 572.684982 336.417362 578.271062 335.851149 583.857143 337.375568 589.443223 338.507993 595.029304 337.027129 600.615385 336.809355 606.201465 336.460917 611.787546 336.635136 617.373626 335.023608 622.959707 334.849389 628.545788 333.716963 634.131868 333.455635 639.717949 333.455635 645.304029 332.715203 650.890110 331.713442 656.476190 332.105435 662.062271 330.189024 667.648352 329.492147 673.234432 329.013044 678.820513 328.795270 684.406593 331.887661 689.992674 331.016565 695.578755 329.448592 701.164835 329.448592 706.750916 328.882379 712.336996 330.189024 717.923077 328.664605"/></g><g class="series serie-2 color-2"><path class="line reactive nofill" d="M14.076923 327.357961 L19.663004 327.357961 25.249084 327.357961 30.835165 327.357961 36.421245 327.357961 42.007326 327.357961 47.593407 327.357961 53.179487 327.357961 58.765568 327.357961 64.351648 327.357961 69.937729 327.357961 75.523810 327.357961 81.109890 327.357961 86.695971 327.357961 92.282051 327.357961 97.868132 327.357961 103.454212 327.357961 109.040293 327.357961 114.626374 327.357961 120.212454 327.357961 125.798535 327.357961 131.384615 327.357961 136.970696 327.357961 142.556777 327.357961 148.142857 327.357961 153.728938 327.357961 159.315018 327.357961 164.901099 327.357961 170.487179 327.357961 176.073260 327.357961 181.659341 327.357961 187.245421 327.357961 192.831502 327.357961 198.417582 327.357961 204.003663 327.357961 209.589744 327.357961 215.175824 327.357961 220.761905 327.357961 226.347985 327.357961 231.934066 327.357961 237.520147 327.357961 243.106227 327.357961 248.692308 327.357961 254.278388 327.357961 259.864469 327.357961 265.450549 327.357961 271.036630 327.357961 276.622711 327.357961 282.208791 327.357961 287.794872 327.357961 293.380952 327.357961 298.967033 327.357961 304.553114 327.357961 310.139194 327.357961 315.725275 327.357961 321.311355 327.357961 326.897436 327.357961 332.483516 327.357961 338.069597 327.357961 343.655678 327.357961 349.241758 327.357961 354.827839 327.357961 360.413919 327.357961 366.000000 327.357961 371.586081 327.357961 377.172161 327.357961 382.758242 327.357961 388.344322 327.357961 393.930403 327.357961 399.516484 327.357961 405.102564 327.357961 410.688645 327.357961 416.274725 327.357961 421.860806 327.357961 427.446886 327.357961 433.032967 327.357961 438.619048 327.357961 444.205128 327.357961 449.791209 327.357961 455.377289 327.357961 460.963370 327.357961 466.549451 327.357961 472.135531 327.357961 477.721612 327.357961 483.307692 327.357961 488.893773 327.357961 494.479853 327.357961 500.065934 327.357961 505.652015 327.357961 511.238095 327.357961 516.824176 327.357961 522.410256 327.357961 527.996337 327.357961 533.582418 327.357961 539.168498 327.357961 544.754579 327.357961 550.340659 327.357961 555.926740 327.357961 561.512821 327.357961 567.098901 327.357961 572.684982 327.357961 578.271062 327.357961 583.857143 327.357961 589.443223 327.357961 595.029304 327.357961 600.615385 327.357961 606.201465 327.357961 611.787546 327.357961 617.373626 327.357961 622.959707 327.357961 628.545788 327.357961 634.131868 327.357961 639.717949 327.357961 645.304029 327.357961 650.890110 327.357961 656.476190 327.357961 662.062271 327.357961 667.648352 327.357961 673.234432 327.357961 678.820513 327.357961 684.406593 327.357961 689.992674 327.357961 695.578755 327.357961 701.164835 327.357961 706.750916 327.357961 712.336996 327.357961 717.923077 327.357961"/></g></g><g class="titles"><text class="title plot_title" x="400.0" y="26">M Prabhakar: Future and Past Averages in ODIs</text></g><g class="plot overlay" transform="translate(48, 46)"><g class="series serie-0 color-0"><g class="dots"><desc class="label">157 wickets in 127 innings (1060.0 overs)</desc><circle class="dot reactive tooltip-trigger" cx="14.076923076923077" cy="327.35796100890326" r="2.5"/><desc class="value">28.88</desc><desc class="x top">14.076923076923077</desc><desc class="y top">327.35796100890326</desc><desc class="x_label">1984</desc></g><g class="dots"><desc class="label">153 wickets in 122 innings (1021.0 overs)</desc><circle class="dot reactive tooltip-trigger" cx="42.00732600732601" cy="327.1837417640875" r="2.5"/><desc class="value">28.92</desc><desc class="x top">42.00732600732601</desc><desc class="y top">327.1837417640875</desc><desc class="x_label">1985</desc></g><g class="dots"><desc class="label">153 wickets in 120 innings (1008.0 overs)</desc><circle class="dot reactive tooltip-trigger" cx="53.179487179487175" cy="328.9259342122456" r="2.5"/><desc class="value">28.52</desc><desc class="x top">53.179487179487175</desc><desc class="y top">328.9259342122456</desc><desc class="x_label">1987</desc></g><g class="dots"><desc class="label">143 wickets in 106 innings (905.0 overs)</desc><circle class="dot reactive tooltip-trigger" cx="131.38461538461536" cy="332.84586722060124" r="2.5"/><desc class="value">27.62</desc><desc class="x top">131.38461538461536</desc><desc class="y top">332.84586722060124</desc><desc class="x_label">1989</desc></g><g class="dots"><desc class="label">126 wickets in 93 innings (804.0 overs)</desc><circle class="dot reactive tooltip-trigger" cx="204.003663003663" cy="330.4067977931799" r="2.5"/><desc class="value">28.18</desc><desc class="x top">204.003663003663</desc><desc class="y top">330.4067977931799</desc><desc class="x_label">1990</desc></g><g class="dots"><desc class="label">105 wickets in 80 innings (680.3 overs)</desc><circle class="dot reactive tooltip-trigger" cx="276.62271062271066" cy="327.79350912094276" r="2.5"/><desc class="value">28.78</desc><desc class="x top">276.62271062271066</desc><desc class="y top">327.79350912094276</desc><desc class="x_label">1991</desc></g><g class="dots"><desc class="label">84 wickets in 66 innings (558.0 overs)</desc><circle class="dot reactive tooltip-trigger" cx="354.8278388278388" cy="321.9136096084093" r="2.5"/><desc class="value">30.13</desc><desc class="x top">354.8278388278388</desc><desc class="y top">321.9136096084093</desc><desc class="x_label">1992</desc></g><g class="dots"><desc class="label">56 wickets in 46 innings (381.2 overs)</desc><circle class="dot reactive tooltip-trigger" cx="466.54945054945057" cy="311.76533859788844" r="2.5"/><desc class="value">32.46</desc><desc class="x left top">466.54945054945057</desc><desc class="y left top">311.76533859788844</desc><desc class="x_label">1993</desc></g><g class="dots"><desc class="label">33 wickets in 29 innings (237.2 overs)</desc><circle class="dot reactive tooltip-trigger" cx="561.5128205128206" cy="299.3957722159661" r="2.5"/><desc class="value">35.3</desc><desc class="x left top">561.5128205128206</desc><desc class="y left top">299.3957722159661</desc><desc class="x_label">1994</desc></g><g class="dots"><desc class="label">16 wickets in 16 innings (130.0 overs)</desc><circle class="dot reactive tooltip-trigger" cx="634.1318681318681" cy="273.48065954961464" r="2.5"/><desc class="value">41.25</desc><desc class="x left top">634.1318681318681</desc><desc class="y left top">273.48065954961464</desc><desc class="x_label">1995</desc></g><g class="dots"><desc class="label">3 wickets in 4 innings (29.0 overs)</desc><circle class="dot reactive tooltip-trigger" cx="701.1648351648352" cy="220.86644761524065" r="2.5"/><desc class="value">53.33</desc><desc class="x left">701.1648351648352</desc><desc class="y left">220.86644761524065</desc><desc class="x_label">1996</desc></g></g><g class="series serie-1 color-1"><g class="dots"><desc class="label">0 wickets over 0 innings</desc><circle class="dot reactive tooltip-trigger" cx="14.076923076923077" cy="453.1442557659166" r="2.5"/><desc class="value">0</desc><desc class="x top">14.076923076923077</desc><desc class="y top">453.1442557659166</desc><desc class="x_label">1984</desc></g><g class="dots"><desc class="label">4 wickets in 5 innings (39.0 overs)</desc><circle class="dot reactive tooltip-trigger" cx="42.00732600732601" cy="334.45739523514743" r="2.5"/><desc class="value">27.25</desc><desc class="x top">42.00732600732601</desc><desc class="y top">334.45739523514743</desc><desc class="x_label">1985</desc></g><g class="dots"><desc class="label">4 wickets in 7 innings (52.0 overs)</desc><circle class="dot reactive tooltip-trigger" cx="53.179487179487175" cy="266.9474378690219" r="2.5"/><desc class="value">42.75</desc><desc class="x top">53.179487179487175</desc><desc class="y top">266.9474378690219</desc><desc class="x_label">1987</desc></g><g class="dots"><desc class="label">14 wickets in 21 innings (155.0 overs)</desc><circle class="dot reactive tooltip-trigger" cx="131.38461538461536" cy="271.12869974460125" r="2.5"/><desc class="value">41.79</desc><desc class="x top">131.38461538461536</desc><desc class="y top">271.12869974460125</desc><desc class="x_label">1989</desc></g><g class="dots"><desc class="label">31 wickets in 34 innings (256.0 overs)</desc><circle class="dot reactive tooltip-trigger" cx="204.003663003663" cy="315.0319494381848" r="2.5"/><desc class="value">31.71</desc><desc class="x top">204.003663003663</desc><desc class="y top">315.0319494381848</desc><desc class="x_label">1990</desc></g><g class="dots"><desc class="label">52 wickets in 47 innings (379.3 overs)</desc><circle class="dot reactive tooltip-trigger" cx="276.62271062271066" cy="326.4868647848242" r="2.5"/><desc class="value">29.08</desc><desc class="x top">276.62271062271066</desc><desc class="y top">326.4868647848242</desc><desc class="x_label">1991</desc></g><g class="dots"><desc class="label">73 wickets in 61 innings (502.0 overs)</desc><circle class="dot reactive tooltip-trigger" cx="354.8278388278388" cy="333.62985382227237" r="2.5"/><desc class="value">27.44</desc><desc class="x top">354.8278388278388</desc><desc class="y top">333.62985382227237</desc><desc class="x_label">1992</desc></g><g class="dots"><desc class="label">101 wickets in 81 innings (678.4 overs)</desc><circle class="dot reactive tooltip-trigger" cx="466.54945054945057" cy="336.02536843848975" r="2.5"/><desc class="value">26.89</desc><desc class="x left top">466.54945054945057</desc><desc class="y left top">336.02536843848975</desc><desc class="x_label">1993</desc></g><g class="dots"><desc class="label">124 wickets in 98 innings (822.4 overs)</desc><circle class="dot reactive tooltip-trigger" cx="561.5128205128206" cy="334.80583372477906" r="2.5"/><desc class="value">27.17</desc><desc class="x left top">561.5128205128206</desc><desc class="y left top">334.80583372477906</desc><desc class="x_label">1994</desc></g><g class="dots"><desc class="label">141 wickets in 111 innings (930.0 overs)</desc><circle class="dot reactive tooltip-trigger" cx="634.1318681318681" cy="333.4556345774565" r="2.5"/><desc class="value">27.48</desc><desc class="x left top">634.1318681318681</desc><desc class="y left top">333.4556345774565</desc><desc class="x_label">1995</desc></g><g class="dots"><desc class="label">154 wickets in 123 innings (1031.0 overs)</desc><circle class="dot reactive tooltip-trigger" cx="701.1648351648352" cy="329.448591946693" r="2.5"/><desc class="value">28.4</desc><desc class="x left top">701.1648351648352</desc><desc class="y left top">329.448591946693</desc><desc class="x_label">1996</desc></g></g><g class="series serie-2 color-2"/></g><g class="plot text-overlay" transform="translate(48, 46)"><g class="series serie-0 color-0"/><g class="series serie-1 color-1"/><g class="series serie-2 color-2"/></g><g class="plot tooltip-overlay" transform="translate(48, 46)"><g class="tooltip" style="opacity: 0" transform="translate(0 0)"><rect class="tooltip-box" height="0" rx="10" ry="10" width="0"/><g class="text"/></g></g><g class="legends" transform="translate(58, 545)"><g class="legend reactive activate-serie" id="activate-serie-0"><rect class="color-0 reactive" height="12" width="12" x="0.0" y="1.0"/><text x="17.0" y="11.2">Future Average</text></g><g class="legend reactive activate-serie" id="activate-serie-1"><rect class="color-1 reactive" height="12" width="12" x="366.0" y="1.0"/><text x="383.0" y="11.2">Past Average</text></g><g class="legend reactive activate-serie" id="activate-serie-2"><rect class="color-2 reactive" height="12" width="12" x="0.0" y="22.0"/><text x="17.0" y="32.2">Career Average</text></g></g></g></svg>