<?xml version='1.0' encoding='utf-8'?>
<svg xmlns:xlink="http://www.w3.org/1999/xlink" xmlns="http://www.w3.org/2000/svg" id="chart-02414a9f-e6f7-4d08-ad4c-52695b94a081" class="pygal-chart" viewBox="0 0 800 600"><!--Generated with pygal 2.4.0 (lxml) ©Kozea 2012-2016 on 2019-08-04--><!--http://pygal.org--><!--http://github.com/Kozea/pygal--><defs><style type="text/css">#chart-02414a9f-e6f7-4d08-ad4c-52695b94a081{-webkit-user-select:none;-webkit-font-smoothing:antialiased;font-family:Consolas,"Liberation Mono",Menlo,Courier,monospace}#chart-02414a9f-e6f7-4d08-ad4c-52695b94a081 .title{font-family:Consolas,"Liberation Mono",Menlo,Courier,monospace;font-size:16px}#chart-02414a9f-e6f7-4d08-ad4c-52695b94a081 .legends .legend text{font-family:Consolas,"Liberation Mono",Menlo,Courier,monospace;font-size:14px}#chart-02414a9f-e6f7-4d08-ad4c-52695b94a081 .axis text{font-family:Consolas,"Liberation Mono",Menlo,Courier,monospace;font-size:10px}#chart-02414a9f-e6f7-4d08-ad4c-52695b94a081 .axis text.major{font-family:Consolas,"Liberation Mono",Menlo,Courier,monospace;font-size:10px}#chart-02414a9f-e6f7-4d08-ad4c-52695b94a081 .text-overlay text.value{font-family:Consolas,"Liberation Mono",Menlo,Courier,monospace;font-size:16px}#chart-02414a9f-e6f7-4d08-ad4c-52695b94a081 .text-overlay text.label{font-family:Consolas,"Liberation Mono",Menlo,Courier,monospace;font-size:10px}#chart-02414a9f-e6f7-4d08-ad4c-52695b94a081 .tooltip{font-family:Consolas,"Liberation Mono",Menlo,Courier,monospace;font-size:14px}#chart-02414a9f-e6f7-4d08-ad4c-52695b94a081 text.no_data{font-family:Consolas,"Liberation Mono",Menlo,Courier,monospace;font-size:64px}
#chart-02414a9f-e6f7-4d08-ad4c-52695b94a081{background-color:rgba(249,249,249,1)}#chart-02414a9f-e6f7-4d08-ad4c-52695b94a081 path,#chart-02414a9f-e6f7-4d08-ad4c-52695b94a081 line,#chart-02414a9f-e6f7-4d08-ad4c-52695b94a081 rect,#chart-02414a9f-e6f7-4d08-ad4c-52695b94a081 circle{-webkit-transition:150ms;-moz-transition:150ms;transition:150ms}#chart-02414a9f-e6f7-4d08-ad4c-52695b94a081 .graph &gt; .background{fill:rgba(249,249,249,1)}#chart-02414a9f-e6f7-4d08-ad4c-52695b94a081 .plot &gt; .background{fill:rgba(255,255,255,1)}#chart-02414a9f-e6f7-4d08-ad4c-52695b94a081 .graph{fill:rgba(0,0,0,.87)}#chart-02414a9f-e6f7-4d08-ad4c-52695b94a081 text.no_data{fill:rgba(0,0,0,1)}#chart-02414a9f-e6f7-4d08-ad4c-52695b94a081 .title{fill:rgba(0,0,0,1)}#chart-02414a9f-e6f7-4d08-ad4c-52695b94a081 .legends .legend text{fill:rgba(0,0,0,.87)}#chart-02414a9f-e6f7-4d08-ad4c-52695b94a081 .legends .legend:hover text{fill:rgba(0,0,0,1)}#chart-02414a9f-e6f7-4d08-ad4c-52695b94a081 .axis .line{stroke:rgba(0,0,0,1)}#chart-02414a9f-e6f7-4d08-ad4c-52695b94a081 .axis .guide.line{stroke:rgba(0,0,0,.54)}#chart-02414a9f-e6f7-4d08-ad4c-52695b94a081 .axis .major.line{stroke:rgba(0,0,0,.87)}#chart-02414a9f-e6f7-4d08-ad4c-52695b94a081 .axis text.major{fill:rgba(0,0,0,1)}#chart-02414a9f-e6f7-4d08-ad4c-52695b94a081 .axis.y .guides:hover .guide.line,#chart-02414a9f-e6f7-4d08-ad4c-52695b94a081 .line-graph .axis.x .guides:hover .guide.line,#chart-02414a9f-e6f7-4d08-ad4c-52695b94a081 .stackedline-graph .axis.x .guides:hover .guide.line,#chart-02414a9f-e6f7-4d08-ad4c-52695b94a081 .xy-graph .axis.x .guides:hover .guide.line{stroke:rgba(0,0,0,1)}#chart-02414a9f-e6f7-4d08-ad4c-52695b94a081 .axis .guides:hover text{fill:rgba(0,0,0,1)}#chart-02414a9f-e6f7-4d08-ad4c-52695b94a081 .reactive{fill-opacity:.7;stroke-opacity:.8}#chart-02414a9f-e6f7-4d08-ad4c-52695b94a081 .ci{stroke:rgba(0,0,0,.87)}#chart-02414a9f-e6f7-4d08-ad4c-52695b94a081 .reactive.active,#chart-02414a9f-e6f7-4d08-ad4c-52695b94a081 .active .reactive{fill-opacity:.8;stroke-opacity:.9;stroke-width:4}#chart-02414a9f-e6f7-4d08-ad4c-52695b94a081 .ci .reactive.active{stroke-width:1.5}#chart-02414a9f-e6f7-4d08-ad4c-52695b94a081 .series text{fill:rgba(0,0,0,1)}#chart-02414a9f-e6f7-4d08-ad4c-52695b94a081 .tooltip rect{fill:rgba(255,255,255,1);stroke:rgba(0,0,0,1);-webkit-transition:opacity 150ms;-moz-transition:opacity 150ms;transition:opacity 150ms}#chart-02414a9f-e6f7-4d08-ad4c-52695b94a081 .tooltip .label{fill:rgba(0,0,0,.87)}#chart-02414a9f-e6f7-4d08-ad4c-52695b94a081 .tooltip .label{fill:rgba(0,0,0,.87)}#chart-02414a9f-e6f7-4d08-ad4c-52695b94a081 .tooltip .legend{font-size:.8em;fill:rgba(0,0,0,.54)}#chart-02414a9f-e6f7-4d08-ad4c-52695b94a081 .tooltip .x_label{font-size:.6em;fill:rgba(0,0,0,1)}#chart-02414a9f-e6f7-4d08-ad4c-52695b94a081 .tooltip .xlink{font-size:.5em;text-decoration:underline}#chart-02414a9f-e6f7-4d08-ad4c-52695b94a081 .tooltip .value{font-size:1.5em}#chart-02414a9f-e6f7-4d08-ad4c-52695b94a081 .bound{font-size:.5em}#chart-02414a9f-e6f7-4d08-ad4c-52695b94a081 .max-value{font-size:.75em;fill:rgba(0,0,0,.54)}#chart-02414a9f-e6f7-4d08-ad4c-52695b94a081 .map-element{fill:rgba(255,255,255,1);stroke:rgba(0,0,0,.54) !important}#chart-02414a9f-e6f7-4d08-ad4c-52695b94a081 .map-element .reactive{fill-opacity:inherit;stroke-opacity:inherit}#chart-02414a9f-e6f7-4d08-ad4c-52695b94a081 .color-0,#chart-02414a9f-e6f7-4d08-ad4c-52695b94a081 .color-0 a:visited{stroke:red;fill:red}#chart-02414a9f-e6f7-4d08-ad4c-52695b94a081 .color-1,#chart-02414a9f-e6f7-4d08-ad4c-52695b94a081 .color-1 a:visited{stroke:blue;fill:blue}#chart-02414a9f-e6f7-4d08-ad4c-52695b94a081 .color-2,#chart-02414a9f-e6f7-4d08-ad4c-52695b94a081 .color-2 a:visited{stroke:green;fill:green}#chart-02414a9f-e6f7-4d08-ad4c-52695b94a081 .text-overlay .color-0 text{fill:white}#chart-02414a9f-e6f7-4d08-ad4c-52695b94a081 .text-overlay .color-1 text{fill:white}#chart-02414a9f-e6f7-4d08-ad4c-52695b94a081 .text-overlay .color-2 text{fill:white}
#chart-02414a9f-e6f7-4d08-ad4c-52695b94a081 text.no_data{text-anchor:middle}#chart-02414a9f-e6f7-4d08-ad4c-52695b94a081 .guide.line{fill:none}#chart-02414a9f-e6f7-4d08-ad4c-52695b94a081 .centered{text-anchor:middle}#chart-02414a9f-e6f7-4d08-ad4c-52695b94a081 .title{text-anchor:middle}#chart-02414a9f-e6f7-4d08-ad4c-52695b94a081 .legends .legend text{fill-opacity:1}#chart-02414a9f-e6f7-4d08-ad4c-52695b94a081 .axis.x text{text-anchor:middle}#chart-02414a9f-e6f7-4d08-ad4c-52695b94a081 .axis.x:not(.web) text[transform]{text-anchor:start}#chart-02414a9f-e6f7-4d08-ad4c-52695b94a081 .axis.x:not(.web) text[transform].backwards{text-anchor:end}#chart-02414a9f-e6f7-4d08-ad4c-52695b94a081 .axis.y text{text-anchor:end}#chart-02414a9f-e6f7-4d08-ad4c-52695b94a081 .axis.y text[transform].backwards{text-anchor:start}#chart-02414a9f-e6f7-4d08-ad4c-52695b94a081 .axis.y2 text{text-anchor:start}#chart-02414a9f-e6f7-4d08-ad4c-52695b94a081 .axis.y2 text[transform].backwards{text-anchor:end}#chart-02414a9f-e6f7-4d08-ad4c-52695b94a081 .axis .guide.line{stroke-dasharray:4,4}#chart-02414a9f-e6f7-4d08-ad4c-52695b94a081 .axis .major.guide.line{stroke-dasharray:6,6}#chart-02414a9f-e6f7-4d08-ad4c-52695b94a081 .horizontal .axis.y .guide.line,#chart-02414a9f-e6f7-4d08-ad4c-52695b94a081 .horizontal .axis.y2 .guide.line,#chart-02414a9f-e6f7-4d08-ad4c-52695b94a081 .vertical .axis.x .guide.line{opacity:0}#chart-02414a9f-e6f7-4d08-ad4c-52695b94a081 .horizontal .axis.always_show .guide.line,#chart-02414a9f-e6f7-4d08-ad4c-52695b94a081 .vertical .axis.always_show .guide.line{opacity:1 !important}#chart-02414a9f-e6f7-4d08-ad4c-52695b94a081 .axis.y .guides:hover .guide.line,#chart-02414a9f-e6f7-4d08-ad4c-52695b94a081 .axis.y2 .guides:hover .guide.line,#chart-02414a9f-e6f7-4d08-ad4c-52695b94a081 .axis.x .guides:hover .guide.line{opacity:1}#chart-02414a9f-e6f7-4d08-ad4c-52695b94a081 .axis .guides:hover text{opacity:1}#chart-02414a9f-e6f7-4d08-ad4c-52695b94a081 .nofill{fill:none}#chart-02414a9f-e6f7-4d08-ad4c-52695b94a081 .subtle-fill{fill-opacity:.2}#chart-02414a9f-e6f7-4d08-ad4c-52695b94a081 .dot{stroke-width:1px;fill-opacity:1}#chart-02414a9f-e6f7-4d08-ad4c-52695b94a081 .dot.active{stroke-width:5px}#chart-02414a9f-e6f7-4d08-ad4c-52695b94a081 .dot.negative{fill:transparent}#chart-02414a9f-e6f7-4d08-ad4c-52695b94a081 text,#chart-02414a9f-e6f7-4d08-ad4c-52695b94a081 tspan{stroke:none !important}#chart-02414a9f-e6f7-4d08-ad4c-52695b94a081 .series text.active{opacity:1}#chart-02414a9f-e6f7-4d08-ad4c-52695b94a081 .tooltip rect{fill-opacity:.95;stroke-width:.5}#chart-02414a9f-e6f7-4d08-ad4c-52695b94a081 .tooltip text{fill-opacity:1}#chart-02414a9f-e6f7-4d08-ad4c-52695b94a081 .showable{visibility:hidden}#chart-02414a9f-e6f7-4d08-ad4c-52695b94a081 .showable.shown{visibility:visible}#chart-02414a9f-e6f7-4d08-ad4c-52695b94a081 .gauge-background{fill:rgba(229,229,229,1);stroke:none}#chart-02414a9f-e6f7-4d08-ad4c-52695b94a081 .bg-lines{stroke:rgba(249,249,249,1);stroke-width:2px}</style><script type="text/javascript">window.pygal = window.pygal || {};window.pygal.config = window.pygal.config || {};window.pygal.config['02414a9f-e6f7-4d08-ad4c-52695b94a081'] = {"allow_interruptions": false, "box_mode": "extremes", "classes": ["pygal-chart"], "css": ["file://style.css", "file://graph.css"], "defs": [], "disable_xml_declaration": false, "dots_size": 2.5, "dynamic_print_values": false, "explicit_size": false, "fill": false, "force_uri_protocol": "https", "formatter": null, "half_pie": false, "height": 600, "include_x_axis": false, "inner_radius": 0, "interpolate": null, "interpolation_parameters": {}, "interpolation_precision": 250, "inverse_y_axis": false, "js": ["//kozea.github.io/pygal.js/2.0.x/pygal-tooltips.min.js"], "legend_at_bottom": true, "legend_at_bottom_columns": null, "legend_box_size": 12, "logarithmic": false, "margin": 20, "margin_bottom": null, "margin_left": null, "margin_right": null, "margin_top": null, "max_scale": 16, "min_scale": 4, "missing_value_fill_truncation": "x", "no_data_text": "No data", "no_prefix": false, "order_min": null, "pretty_print": false, "print_labels": false, "print_values": false, "print_values_position": "center", "print_zeroes": true, "range": null, "rounded_bars": null, "secondary_range": null, "show_dots": true, "show_legend": true, "show_minor_x_labels": false, "show_minor_y_labels": true, "show_only_major_dots": false, "show_x_guides": false, "show_x_labels": true, "show_y_guides": true, "show_y_labels": true, "spacing": 10, "stack_from_top": false, "strict": false, "stroke": true, "stroke_style": null, "style": {"background": "rgba(249, 249, 249, 1)", "ci_colors": [], "colors": ["red", "blue", "green", "#a3a3a3"], "font_family": "Consolas, \"Liberation Mono\", Menlo, Courier, monospace", "foreground": "rgba(0, 0, 0, .87)", "foreground_strong": "rgba(0, 0, 0, 1)", "foreground_subtle": "rgba(0, 0, 0, .54)", "guide_stroke_dasharray": "4,4", "label_font_family": "Consolas, \"Liberation Mono\", Menlo, Courier, monospace", "label_font_size": 10, "legend_font_family": "Consolas, \"Liberation Mono\", Menlo, Courier, monospace", "legend_font_size": 14, "major_guide_stroke_dasharray": "6,6", "major_label_font_family": "Consolas, \"Liberation Mono\", Menlo, Courier, monospace", "major_label_font_size": 10, "no_data_font_family": "Consolas, \"Liberation Mono\", Menlo, Courier, monospace", "no_data_font_size": 64, "opacity": ".7", "opacity_hover": ".8", "plot_background": "rgba(255, 255, 255, 1)", "stroke_opacity": ".8", "stroke_opacity_hover": ".9", "title_font_family": "Consolas, \"Liberation Mono\", Menlo, Courier, monospace", "title_font_size": 16, "tooltip_font_family": "Consolas, \"Liberation Mono\", Menlo, Courier, monospace", "tooltip_font_size": 14, "transition": "150ms", "value_background": "rgba(229, 229, 229, 1)", "value_colors": [], "value_font_family": "Consolas, \"Liberation Mono\", Menlo, Courier, monospace", "value_font_size": 16, "value_label_font_family": "Consolas, \"Liberation Mono\", Menlo, Courier, monospace", "value_label_font_size": 10}, "title": "MA Holding: Future and Past Averages in ODIs", "tooltip_border_radius": 10, "tooltip_fancy_mode": true, "truncate_label": null, "truncate_legend": null, "width": 800, "x_label_rotation": 45, "x_labels": ["1976", "0", "0", "1979", "0", "0", "0", "0", "0", "0", "0", "0", "1980", "0", "0", "0", "0", "0", "0", "0", "1981", "0", "0", "0", "0", "0", "1982", "0", "0", "0", "0", "0", "0", "0", "0", "1983", "0", "0", "0", "0", "0", "0", "0", "0", "0", "0", "0", "0", "0", "1984", "0", "0", "0", "0", "0", "0", "0", "0", "0", "0", "0", "0", "0", "0", "0", "0", "1985", "0", "0", "0", "0", "0", "0", "0", "0", "0", "0", "0", "0", "0", "0", "0", "0", "0", "0", "0", "0", "0", "0", "0", "0", "0", "0", "0", "1986", "0", "0", "1987", "0", "0", "0", "0"], "x_labels_major": ["1976", "1979", "1980", "1981", "1982", "1983", "1984", "1985", "1986", "1987"], "x_labels_major_count": null, "x_labels_major_every": null, "x_title": null, "xrange": null, "y_label_rotation": 0, "y_labels": null, "y_labels_major": null, "y_labels_major_count": null, "y_labels_major_every": null, "y_title": null, "zero": 60, "legends": ["Future Average", "Past Average", "Career Average"]}</script><script type="text/javascript" xlink:href="https://kozea.github.io/pygal.js/2.0.x/pygal-tooltips.min.js"/></defs><title>MA Holding: Future and Past Averages in ODIs</title><g class="graph line-graph vertical"><rect class="background" height="600" width="800" x="0" y="0"/><g class="plot" transform="translate(42, 46)"><rect class="background" height="462.02943725152284" width="738.0" x="0" y="0"/><g class="axis y always_show"><g class="guides"><path class="axis major line" d="M0.000000 453.144256 h738.000000"/><text class="major" x="-5" y="456.6442557659166">0</text><title>0</title></g><g class="guides"><path class="guide line" d="M0.000000 362.479139 h738.000000"/><text class="" x="-5" y="365.97913856585325">10</text><title>10</title></g><g class="guides"><path class="guide line" d="M0.000000 271.814021 h738.000000"/><text class="" x="-5" y="275.3140213657899">20</text><title>20</title></g><g class="guides"><path class="guide line" d="M0.000000 181.148904 h738.000000"/><text class="" x="-5" y="184.64890416572655">30</text><title>30</title></g><g class="guides"><path class="guide line" d="M0.000000 90.483787 h738.000000"/><text class="" x="-5" y="93.98378696566323">40</text><title>40</title></g></g><g class="axis x"><g class="guides"><path class="major line" d="M14.192308 0.000000 v462.029437"/><text class="major" x="14.192307692307692" y="477.02943725152284" transform="rotate(45 14.192308 477.029437)">1976</text></g><g class="guides"><path class="major guide line" d="M35.269992 0.000000 v462.029437"/><text class="major" x="35.269992383853776" y="477.02943725152284" transform="rotate(45 35.269992 477.029437)">1979</text></g><g class="guides"><path class="major guide line" d="M98.503046 0.000000 v462.029437"/><text class="major" x="98.503046458492" y="477.02943725152284" transform="rotate(45 98.503046 477.029437)">1980</text></g><g class="guides"><path class="major guide line" d="M154.710206 0.000000 v462.029437"/><text class="major" x="154.7102056359482" y="477.02943725152284" transform="rotate(45 154.710206 477.029437)">1981</text></g><g class="guides"><path class="major guide line" d="M196.865575 0.000000 v462.029437"/><text class="major" x="196.86557501904036" y="477.02943725152284" transform="rotate(45 196.865575 477.029437)">1982</text></g><g class="guides"><path class="major guide line" d="M260.098629 0.000000 v462.029437"/><text class="major" x="260.0986290936786" y="477.02943725152284" transform="rotate(45 260.098629 477.029437)">1983</text></g><g class="guides"><path class="major guide line" d="M358.461158 0.000000 v462.029437"/><text class="major" x="358.46115765422695" y="477.02943725152284" transform="rotate(45 358.461158 477.029437)">1984</text></g><g class="guides"><path class="major guide line" d="M477.901371 0.000000 v462.029437"/><text class="major" x="477.9013709063214" y="477.02943725152284" transform="rotate(45 477.901371 477.029437)">1985</text></g><g class="guides"><path class="major guide line" d="M674.626428 0.000000 v462.029437"/><text class="major" x="674.6264280274182" y="477.02943725152284" transform="rotate(45 674.626428 477.029437)">1986</text></g><g class="guides"><path class="major guide line" d="M695.704113 0.000000 v462.029437"/><text class="major" x="695.7041127189641" y="477.02943725152284" transform="rotate(45 695.704113 477.029437)">1987</text></g></g><g class="series serie-0 color-0"><path class="line reactive nofill" d="M14.192308 259.392900 L21.218203 259.120905 28.244097 260.843542 35.269992 263.019505 42.295887 259.574231 49.321782 260.118221 56.347677 260.571547 63.373572 258.758244 70.399467 259.211570 77.425362 262.475514 84.451257 261.568863 91.477152 262.384849 98.503046 262.566179 105.528941 263.654161 112.554836 258.758244 119.580731 260.390217 126.606626 261.296868 133.632521 261.478198 140.658416 259.392900 147.684311 256.582282 154.710206 255.222305 161.736101 254.134324 168.761995 253.318337 175.787890 254.315654 182.813785 253.046342 189.839680 254.315654 196.865575 253.680998 203.891470 248.694416 210.917365 251.958361 217.943260 250.054393 224.969155 249.419737 231.995050 248.331756 239.020944 247.969096 246.046839 250.417054 253.072734 249.147742 260.098629 250.507719 267.124524 251.323705 274.150419 256.128956 281.176314 253.318337 288.202209 252.049026 295.228104 252.139691 302.253998 250.870379 309.279893 247.878430 316.305788 251.686365 323.331683 251.958361 330.357578 249.782398 337.383473 250.961044 344.409368 250.507719 351.435263 249.601068 358.461158 253.046342 365.487053 255.584965 372.512947 257.126272 379.538842 254.587649 386.564737 253.409003 393.590632 244.342491 400.616527 239.083914 407.642422 242.347858 414.668317 245.339807 421.694212 242.982514 428.720107 239.809235 435.746002 234.369328 442.771896 235.910635 449.797791 241.894533 456.823686 249.873063 463.849581 245.702468 470.875476 242.438523 477.901371 239.627905 484.927266 248.150426 491.953161 248.603751 498.979056 241.894533 506.004950 248.966412 513.030845 257.126272 520.056740 254.406319 527.082635 257.851593 534.108530 258.576914 541.134425 271.814021 548.160320 277.163263 555.186215 283.056496 562.212110 261.115538 569.238005 264.016821 576.263899 265.739459 583.289794 272.176682 590.315689 266.011454 597.341584 254.134324 604.367479 260.662212 611.393374 256.672947 618.419269 257.760928 625.445164 262.294184 632.471059 260.390217 639.496954 263.744826 646.522848 262.203519 653.548743 269.366063 660.574638 216.598965 667.600533 240.534556 674.626428 228.476095 681.652323 201.911216 688.678218 243.345175 695.704113 282.149845 702.730008 324.943780 709.755903 301.280184 716.781797 350.420678 723.807692 367.012394"/></g><g class="series serie-1 color-1"><path class="line reactive nofill" d="M14.192308 453.144256 L21.218203 280.880533 28.244097 163.015881 35.269992 8.885181 42.295887 255.222305 49.321782 245.883798 56.347677 240.081230 63.373572 268.187417 70.399467 261.931524 77.425362 223.217519 84.451257 238.358593 91.477152 232.284030 98.503046 235.003984 105.528941 225.937472 112.554836 263.654161 119.580731 254.134324 126.606626 249.147742 133.632521 248.966412 140.658416 259.483565 147.684311 271.179366 154.710206 275.893952 161.736101 278.523240 168.761995 280.336542 175.787890 276.165947 182.813785 279.067231 189.839680 275.168631 196.865575 275.712621 203.891470 285.957780 210.917365 277.797919 217.943260 281.061863 224.969155 281.061863 231.995050 281.877849 239.020944 281.787184 246.046839 277.072598 253.072734 278.341910 260.098629 275.349961 267.124524 273.989984 274.150419 265.195468 281.176314 269.728724 288.202209 271.179366 295.228104 270.726040 302.253998 271.814021 309.279893 274.805970 316.305788 269.456728 323.331683 268.822072 330.357578 270.816705 337.383473 269.184733 344.409368 269.366063 351.435263 270.091384 358.461158 266.374114 365.487053 263.563496 372.512947 261.750193 379.538842 263.835491 386.564737 264.651477 393.590632 271.088700 400.616527 273.899319 407.642422 271.632691 414.668317 269.366063 421.694212 270.454045 428.720107 271.814021 435.746002 273.899319 442.771896 272.630007 449.797791 268.912738 456.823686 264.651477 463.849581 266.374114 470.875476 267.552761 477.901371 268.278082 484.927266 264.470147 491.953161 264.107486 498.979056 266.283449 506.004950 263.563496 513.030845 260.390217 520.056740 261.296868 527.082635 260.027556 534.108530 259.664896 541.134425 255.403635 548.160320 253.862328 555.186215 252.230356 562.212110 259.030240 569.238005 258.304919 576.263899 257.942258 583.289794 256.400951 590.315689 258.032924 597.341584 260.390217 604.367479 259.211570 611.393374 259.936891 618.419269 259.664896 625.445164 258.939575 632.471059 259.302235 639.496954 258.758244 646.522848 259.120905 653.548743 258.214254 660.574638 263.019505 667.600533 261.024872 674.626428 261.478198 681.652323 262.384849 688.678218 260.299551 695.704113 258.214254 702.730008 256.038291 709.755903 258.214254 716.781797 257.488933 723.807692 257.851593"/></g><g class="series serie-2 color-2"><path class="line reactive nofill" d="M14.192308 259.392900 L21.218203 259.392900 28.244097 259.392900 35.269992 259.392900 42.295887 259.392900 49.321782 259.392900 56.347677 259.392900 63.373572 259.392900 70.399467 259.392900 77.425362 259.392900 84.451257 259.392900 91.477152 259.392900 98.503046 259.392900 105.528941 259.392900 112.554836 259.392900 119.580731 259.392900 126.606626 259.392900 133.632521 259.392900 140.658416 259.392900 147.684311 259.392900 154.710206 259.392900 161.736101 259.392900 168.761995 259.392900 175.787890 259.392900 182.813785 259.392900 189.839680 259.392900 196.865575 259.392900 203.891470 259.392900 210.917365 259.392900 217.943260 259.392900 224.969155 259.392900 231.995050 259.392900 239.020944 259.392900 246.046839 259.392900 253.072734 259.392900 260.098629 259.392900 267.124524 259.392900 274.150419 259.392900 281.176314 259.392900 288.202209 259.392900 295.228104 259.392900 302.253998 259.392900 309.279893 259.392900 316.305788 259.392900 323.331683 259.392900 330.357578 259.392900 337.383473 259.392900 344.409368 259.392900 351.435263 259.392900 358.461158 259.392900 365.487053 259.392900 372.512947 259.392900 379.538842 259.392900 386.564737 259.392900 393.590632 259.392900 400.616527 259.392900 407.642422 259.392900 414.668317 259.392900 421.694212 259.392900 428.720107 259.392900 435.746002 259.392900 442.771896 259.392900 449.797791 259.392900 456.823686 259.392900 463.849581 259.392900 470.875476 259.392900 477.901371 259.392900 484.927266 259.392900 491.953161 259.392900 498.979056 259.392900 506.004950 259.392900 513.030845 259.392900 520.056740 259.392900 527.082635 259.392900 534.108530 259.392900 541.134425 259.392900 548.160320 259.392900 555.186215 259.392900 562.212110 259.392900 569.238005 259.392900 576.263899 259.392900 583.289794 259.392900 590.315689 259.392900 597.341584 259.392900 604.367479 259.392900 611.393374 259.392900 618.419269 259.392900 625.445164 259.392900 632.471059 259.392900 639.496954 259.392900 646.522848 259.392900 653.548743 259.392900 660.574638 259.392900 667.600533 259.392900 674.626428 259.392900 681.652323 259.392900 688.678218 259.392900 695.704113 259.392900 702.730008 259.392900 709.755903 259.392900 716.781797 259.392900 723.807692 259.392900"/></g></g><g class="titles"><text class="title plot_title" x="400.0" y="26">MA Holding: Future and Past Averages in ODIs</text></g><g class="plot overlay" transform="translate(42, 46)"><g class="series serie-0 color-0"><g class="dots"><desc class="label">142 wickets in 102 innings (912.1 overs)</desc><circle class="dot reactive tooltip-trigger" cx="14.192307692307692" cy="259.39290030938116" r="2.5"/><desc class="value">21.37</desc><desc class="x top">14.192307692307692</desc><desc class="y top">259.39290030938116</desc><desc class="x_label">1976</desc></g><g class="dots"><desc class="label">140 wickets in 99 innings (886.1 overs)</desc><circle class="dot reactive tooltip-trigger" cx="35.269992383853776" cy="263.01950499738376" r="2.5"/><desc class="value">20.97</desc><desc class="x top">35.269992383853776</desc><desc class="y top">263.01950499738376</desc><desc class="x_label">1979</desc></g><g class="dots"><desc class="label">126 wickets in 90 innings (798.0 overs)</desc><circle class="dot reactive tooltip-trigger" cx="98.503046458492" cy="262.5661794113835" r="2.5"/><desc class="value">21.02</desc><desc class="x top">98.503046458492</desc><desc class="y top">262.5661794113835</desc><desc class="x_label">1980</desc></g><g class="dots"><desc class="label">113 wickets in 82 innings (726.2 overs)</desc><circle class="dot reactive tooltip-trigger" cx="154.7102056359482" cy="255.2223049181783" r="2.5"/><desc class="value">21.83</desc><desc class="x top">154.7102056359482</desc><desc class="y top">255.2223049181783</desc><desc class="x_label">1981</desc></g><g class="dots"><desc class="label">105 wickets in 76 innings (672.0 overs)</desc><circle class="dot reactive tooltip-trigger" cx="196.86557501904036" cy="253.6809979257772" r="2.5"/><desc class="value">22</desc><desc class="x top">196.86557501904036</desc><desc class="y top">253.6809979257772</desc><desc class="x_label">1982</desc></g><g class="dots"><desc class="label">91 wickets in 67 innings (592.0 overs)</desc><circle class="dot reactive tooltip-trigger" cx="260.0986290936786" cy="250.50771882377498" r="2.5"/><desc class="value">22.35</desc><desc class="x top">260.0986290936786</desc><desc class="y top">250.50771882377498</desc><desc class="x_label">1983</desc></g><g class="dots"><desc class="label">74 wickets in 53 innings (469.3 overs)</desc><circle class="dot reactive tooltip-trigger" cx="358.46115765422695" cy="253.0463421053768" r="2.5"/><desc class="value">22.07</desc><desc class="x top">358.46115765422695</desc><desc class="y top">253.0463421053768</desc><desc class="x_label">1984</desc></g><g class="dots"><desc class="label">44 wickets in 36 innings (307.1 overs)</desc><circle class="dot reactive tooltip-trigger" cx="477.9013709063214" cy="239.6279047597674" r="2.5"/><desc class="value">23.55</desc><desc class="x left top">477.9013709063214</desc><desc class="y left top">239.6279047597674</desc><desc class="x_label">1985</desc></g><g class="dots"><desc class="label">9 wickets in 8 innings (73.3 overs)</desc><circle class="dot reactive tooltip-trigger" cx="674.6264280274182" cy="228.4760953441596" r="2.5"/><desc class="value">24.78</desc><desc class="x left">674.6264280274182</desc><desc class="y left">228.4760953441596</desc><desc class="x_label">1986</desc></g><g class="dots"><desc class="label">7 wickets in 5 innings (44.3 overs)</desc><circle class="dot reactive tooltip-trigger" cx="695.7041127189641" cy="282.14984472659717" r="2.5"/><desc class="value">18.86</desc><desc class="x left top">695.7041127189641</desc><desc class="y left top">282.14984472659717</desc><desc class="x_label">1987</desc></g></g><g class="series serie-1 color-1"><g class="dots"><desc class="label">0 wickets over 0 innings</desc><circle class="dot reactive tooltip-trigger" cx="14.192307692307692" cy="453.1442557659166" r="2.5"/><desc class="value">0</desc><desc class="x top">14.192307692307692</desc><desc class="y top">453.1442557659166</desc><desc class="x_label">1976</desc></g><g class="dots"><desc class="label">2 wickets in 3 innings (26.0 overs)</desc><circle class="dot reactive tooltip-trigger" cx="35.269992383853776" cy="8.88518148560621" r="2.5"/><desc class="value">49</desc><desc class="x ">35.269992383853776</desc><desc class="y ">8.88518148560621</desc><desc class="x_label">1979</desc></g><g class="dots"><desc class="label">16 wickets in 12 innings (114.1 overs)</desc><circle class="dot reactive tooltip-trigger" cx="98.503046458492" cy="235.00398378256418" r="2.5"/><desc class="value">24.06</desc><desc class="x top">98.503046458492</desc><desc class="y top">235.00398378256418</desc><desc class="x_label">1980</desc></g><g class="dots"><desc class="label">29 wickets in 20 innings (185.5 overs)</desc><circle class="dot reactive tooltip-trigger" cx="154.7102056359482" cy="275.89395163979276" r="2.5"/><desc class="value">19.55</desc><desc class="x top">154.7102056359482</desc><desc class="y top">275.89395163979276</desc><desc class="x_label">1981</desc></g><g class="dots"><desc class="label">37 wickets in 26 innings (240.1 overs)</desc><circle class="dot reactive tooltip-trigger" cx="196.86557501904036" cy="275.7126214053926" r="2.5"/><desc class="value">19.57</desc><desc class="x top">196.86557501904036</desc><desc class="y top">275.7126214053926</desc><desc class="x_label">1982</desc></g><g class="dots"><desc class="label">51 wickets in 35 innings (320.1 overs)</desc><circle class="dot reactive tooltip-trigger" cx="260.0986290936786" cy="275.3499609365924" r="2.5"/><desc class="value">19.61</desc><desc class="x top">260.0986290936786</desc><desc class="y top">275.3499609365924</desc><desc class="x_label">1983</desc></g><g class="dots"><desc class="label">68 wickets in 49 innings (442.4 overs)</desc><circle class="dot reactive tooltip-trigger" cx="358.46115765422695" cy="266.3741143337861" r="2.5"/><desc class="value">20.6</desc><desc class="x top">358.46115765422695</desc><desc class="y top">266.3741143337861</desc><desc class="x_label">1984</desc></g><g class="dots"><desc class="label">98 wickets in 66 innings (605.0 overs)</desc><circle class="dot reactive tooltip-trigger" cx="477.9013709063214" cy="268.27808179498743" r="2.5"/><desc class="value">20.39</desc><desc class="x left top">477.9013709063214</desc><desc class="y left top">268.27808179498743</desc><desc class="x_label">1985</desc></g><g class="dots"><desc class="label">133 wickets in 94 innings (838.4 overs)</desc><circle class="dot reactive tooltip-trigger" cx="674.6264280274182" cy="261.4781980049827" r="2.5"/><desc class="value">21.14</desc><desc class="x left top">674.6264280274182</desc><desc class="y left top">261.4781980049827</desc><desc class="x_label">1986</desc></g><g class="dots"><desc class="label">135 wickets in 97 innings (867.4 overs)</desc><circle class="dot reactive tooltip-trigger" cx="695.7041127189641" cy="258.2142537857804" r="2.5"/><desc class="value">21.5</desc><desc class="x left top">695.7041127189641</desc><desc class="y left top">258.2142537857804</desc><desc class="x_label">1987</desc></g></g><g class="series serie-2 color-2"/></g><g class="plot text-overlay" transform="translate(42, 46)"><g class="series serie-0 color-0"/><g class="series serie-1 color-1"/><g class="series serie-2 color-2"/></g><g class="plot tooltip-overlay" transform="translate(42, 46)"><g class="tooltip" style="opacity: 0" transform="translate(0 0)"><rect class="tooltip-box" height="0" rx="10" ry="10" width="0"/><g class="text"/></g></g><g class="legends" transform="translate(52, 545)"><g class="legend reactive activate-serie" id="activate-serie-0"><rect class="color-0 reactive" height="12" width="12" x="0.0" y="1.0"/><text x="17.0" y="11.2">Future Average</text></g><g class="legend reactive activate-serie" id="activate-serie-1"><rect class="color-1 reactive" height="12" width="12" x="369.0" y="1.0"/><text x="386.0" y="11.2">Past Average</text></g><g class="legend reactive activate-serie" id="activate-serie-2"><rect class="color-2 reactive" height="12" width="12" x="0.0" y="22.0"/><text x="17.0" y="32.2">Career Average</text></g></g></g></svg>