<?xml version='1.0' encoding='utf-8'?>
<svg xmlns:xlink="http://www.w3.org/1999/xlink" xmlns="http://www.w3.org/2000/svg" id="chart-abd1e9b0-c4ca-455b-a0c8-5bf73e03be81" class="pygal-chart" viewBox="0 0 800 600"><!--Generated with pygal 2.4.0 (lxml) ©Kozea 2012-2016 on 2019-08-02--><!--http://pygal.org--><!--http://github.com/Kozea/pygal--><defs><style type="text/css">#chart-abd1e9b0-c4ca-455b-a0c8-5bf73e03be81{-webkit-user-select:none;-webkit-font-smoothing:antialiased;font-family:Consolas,"Liberation Mono",Menlo,Courier,monospace}#chart-abd1e9b0-c4ca-455b-a0c8-5bf73e03be81 .title{font-family:Consolas,"Liberation Mono",Menlo,Courier,monospace;font-size:16px}#chart-abd1e9b0-c4ca-455b-a0c8-5bf73e03be81 .legends .legend text{font-family:Consolas,"Liberation Mono",Menlo,Courier,monospace;font-size:14px}#chart-abd1e9b0-c4ca-455b-a0c8-5bf73e03be81 .axis text{font-family:Consolas,"Liberation Mono",Menlo,Courier,monospace;font-size:10px}#chart-abd1e9b0-c4ca-455b-a0c8-5bf73e03be81 .axis text.major{font-family:Consolas,"Liberation Mono",Menlo,Courier,monospace;font-size:10px}#chart-abd1e9b0-c4ca-455b-a0c8-5bf73e03be81 .text-overlay text.value{font-family:Consolas,"Liberation Mono",Menlo,Courier,monospace;font-size:16px}#chart-abd1e9b0-c4ca-455b-a0c8-5bf73e03be81 .text-overlay text.label{font-family:Consolas,"Liberation Mono",Menlo,Courier,monospace;font-size:10px}#chart-abd1e9b0-c4ca-455b-a0c8-5bf73e03be81 .tooltip{font-family:Consolas,"Liberation Mono",Menlo,Courier,monospace;font-size:14px}#chart-abd1e9b0-c4ca-455b-a0c8-5bf73e03be81 text.no_data{font-family:Consolas,"Liberation Mono",Menlo,Courier,monospace;font-size:64px}
#chart-abd1e9b0-c4ca-455b-a0c8-5bf73e03be81{background-color:rgba(249,249,249,1)}#chart-abd1e9b0-c4ca-455b-a0c8-5bf73e03be81 path,#chart-abd1e9b0-c4ca-455b-a0c8-5bf73e03be81 line,#chart-abd1e9b0-c4ca-455b-a0c8-5bf73e03be81 rect,#chart-abd1e9b0-c4ca-455b-a0c8-5bf73e03be81 circle{-webkit-transition:150ms;-moz-transition:150ms;transition:150ms}#chart-abd1e9b0-c4ca-455b-a0c8-5bf73e03be81 .graph &gt; .background{fill:rgba(249,249,249,1)}#chart-abd1e9b0-c4ca-455b-a0c8-5bf73e03be81 .plot &gt; .background{fill:rgba(255,255,255,1)}#chart-abd1e9b0-c4ca-455b-a0c8-5bf73e03be81 .graph{fill:rgba(0,0,0,.87)}#chart-abd1e9b0-c4ca-455b-a0c8-5bf73e03be81 text.no_data{fill:rgba(0,0,0,1)}#chart-abd1e9b0-c4ca-455b-a0c8-5bf73e03be81 .title{fill:rgba(0,0,0,1)}#chart-abd1e9b0-c4ca-455b-a0c8-5bf73e03be81 .legends .legend text{fill:rgba(0,0,0,.87)}#chart-abd1e9b0-c4ca-455b-a0c8-5bf73e03be81 .legends .legend:hover text{fill:rgba(0,0,0,1)}#chart-abd1e9b0-c4ca-455b-a0c8-5bf73e03be81 .axis .line{stroke:rgba(0,0,0,1)}#chart-abd1e9b0-c4ca-455b-a0c8-5bf73e03be81 .axis .guide.line{stroke:rgba(0,0,0,.54)}#chart-abd1e9b0-c4ca-455b-a0c8-5bf73e03be81 .axis .major.line{stroke:rgba(0,0,0,.87)}#chart-abd1e9b0-c4ca-455b-a0c8-5bf73e03be81 .axis text.major{fill:rgba(0,0,0,1)}#chart-abd1e9b0-c4ca-455b-a0c8-5bf73e03be81 .axis.y .guides:hover .guide.line,#chart-abd1e9b0-c4ca-455b-a0c8-5bf73e03be81 .line-graph .axis.x .guides:hover .guide.line,#chart-abd1e9b0-c4ca-455b-a0c8-5bf73e03be81 .stackedline-graph .axis.x .guides:hover .guide.line,#chart-abd1e9b0-c4ca-455b-a0c8-5bf73e03be81 .xy-graph .axis.x .guides:hover .guide.line{stroke:rgba(0,0,0,1)}#chart-abd1e9b0-c4ca-455b-a0c8-5bf73e03be81 .axis .guides:hover text{fill:rgba(0,0,0,1)}#chart-abd1e9b0-c4ca-455b-a0c8-5bf73e03be81 .reactive{fill-opacity:.7;stroke-opacity:.8}#chart-abd1e9b0-c4ca-455b-a0c8-5bf73e03be81 .ci{stroke:rgba(0,0,0,.87)}#chart-abd1e9b0-c4ca-455b-a0c8-5bf73e03be81 .reactive.active,#chart-abd1e9b0-c4ca-455b-a0c8-5bf73e03be81 .active .reactive{fill-opacity:.8;stroke-opacity:.9;stroke-width:4}#chart-abd1e9b0-c4ca-455b-a0c8-5bf73e03be81 .ci .reactive.active{stroke-width:1.5}#chart-abd1e9b0-c4ca-455b-a0c8-5bf73e03be81 .series text{fill:rgba(0,0,0,1)}#chart-abd1e9b0-c4ca-455b-a0c8-5bf73e03be81 .tooltip rect{fill:rgba(255,255,255,1);stroke:rgba(0,0,0,1);-webkit-transition:opacity 150ms;-moz-transition:opacity 150ms;transition:opacity 150ms}#chart-abd1e9b0-c4ca-455b-a0c8-5bf73e03be81 .tooltip .label{fill:rgba(0,0,0,.87)}#chart-abd1e9b0-c4ca-455b-a0c8-5bf73e03be81 .tooltip .label{fill:rgba(0,0,0,.87)}#chart-abd1e9b0-c4ca-455b-a0c8-5bf73e03be81 .tooltip .legend{font-size:.8em;fill:rgba(0,0,0,.54)}#chart-abd1e9b0-c4ca-455b-a0c8-5bf73e03be81 .tooltip .x_label{font-size:.6em;fill:rgba(0,0,0,1)}#chart-abd1e9b0-c4ca-455b-a0c8-5bf73e03be81 .tooltip .xlink{font-size:.5em;text-decoration:underline}#chart-abd1e9b0-c4ca-455b-a0c8-5bf73e03be81 .tooltip .value{font-size:1.5em}#chart-abd1e9b0-c4ca-455b-a0c8-5bf73e03be81 .bound{font-size:.5em}#chart-abd1e9b0-c4ca-455b-a0c8-5bf73e03be81 .max-value{font-size:.75em;fill:rgba(0,0,0,.54)}#chart-abd1e9b0-c4ca-455b-a0c8-5bf73e03be81 .map-element{fill:rgba(255,255,255,1);stroke:rgba(0,0,0,.54) !important}#chart-abd1e9b0-c4ca-455b-a0c8-5bf73e03be81 .map-element .reactive{fill-opacity:inherit;stroke-opacity:inherit}#chart-abd1e9b0-c4ca-455b-a0c8-5bf73e03be81 .color-0,#chart-abd1e9b0-c4ca-455b-a0c8-5bf73e03be81 .color-0 a:visited{stroke:#F44336;fill:#F44336}#chart-abd1e9b0-c4ca-455b-a0c8-5bf73e03be81 .color-1,#chart-abd1e9b0-c4ca-455b-a0c8-5bf73e03be81 .color-1 a:visited{stroke:#3F51B5;fill:#3F51B5}#chart-abd1e9b0-c4ca-455b-a0c8-5bf73e03be81 .color-2,#chart-abd1e9b0-c4ca-455b-a0c8-5bf73e03be81 .color-2 a:visited{stroke:#009688;fill:#009688}#chart-abd1e9b0-c4ca-455b-a0c8-5bf73e03be81 .text-overlay .color-0 text{fill:black}#chart-abd1e9b0-c4ca-455b-a0c8-5bf73e03be81 .text-overlay .color-1 text{fill:black}#chart-abd1e9b0-c4ca-455b-a0c8-5bf73e03be81 .text-overlay .color-2 text{fill:black}
#chart-abd1e9b0-c4ca-455b-a0c8-5bf73e03be81 text.no_data{text-anchor:middle}#chart-abd1e9b0-c4ca-455b-a0c8-5bf73e03be81 .guide.line{fill:none}#chart-abd1e9b0-c4ca-455b-a0c8-5bf73e03be81 .centered{text-anchor:middle}#chart-abd1e9b0-c4ca-455b-a0c8-5bf73e03be81 .title{text-anchor:middle}#chart-abd1e9b0-c4ca-455b-a0c8-5bf73e03be81 .legends .legend text{fill-opacity:1}#chart-abd1e9b0-c4ca-455b-a0c8-5bf73e03be81 .axis.x text{text-anchor:middle}#chart-abd1e9b0-c4ca-455b-a0c8-5bf73e03be81 .axis.x:not(.web) text[transform]{text-anchor:start}#chart-abd1e9b0-c4ca-455b-a0c8-5bf73e03be81 .axis.x:not(.web) text[transform].backwards{text-anchor:end}#chart-abd1e9b0-c4ca-455b-a0c8-5bf73e03be81 .axis.y text{text-anchor:end}#chart-abd1e9b0-c4ca-455b-a0c8-5bf73e03be81 .axis.y text[transform].backwards{text-anchor:start}#chart-abd1e9b0-c4ca-455b-a0c8-5bf73e03be81 .axis.y2 text{text-anchor:start}#chart-abd1e9b0-c4ca-455b-a0c8-5bf73e03be81 .axis.y2 text[transform].backwards{text-anchor:end}#chart-abd1e9b0-c4ca-455b-a0c8-5bf73e03be81 .axis .guide.line{stroke-dasharray:4,4}#chart-abd1e9b0-c4ca-455b-a0c8-5bf73e03be81 .axis .major.guide.line{stroke-dasharray:6,6}#chart-abd1e9b0-c4ca-455b-a0c8-5bf73e03be81 .horizontal .axis.y .guide.line,#chart-abd1e9b0-c4ca-455b-a0c8-5bf73e03be81 .horizontal .axis.y2 .guide.line,#chart-abd1e9b0-c4ca-455b-a0c8-5bf73e03be81 .vertical .axis.x .guide.line{opacity:0}#chart-abd1e9b0-c4ca-455b-a0c8-5bf73e03be81 .horizontal .axis.always_show .guide.line,#chart-abd1e9b0-c4ca-455b-a0c8-5bf73e03be81 .vertical .axis.always_show .guide.line{opacity:1 !important}#chart-abd1e9b0-c4ca-455b-a0c8-5bf73e03be81 .axis.y .guides:hover .guide.line,#chart-abd1e9b0-c4ca-455b-a0c8-5bf73e03be81 .axis.y2 .guides:hover .guide.line,#chart-abd1e9b0-c4ca-455b-a0c8-5bf73e03be81 .axis.x .guides:hover .guide.line{opacity:1}#chart-abd1e9b0-c4ca-455b-a0c8-5bf73e03be81 .axis .guides:hover text{opacity:1}#chart-abd1e9b0-c4ca-455b-a0c8-5bf73e03be81 .nofill{fill:none}#chart-abd1e9b0-c4ca-455b-a0c8-5bf73e03be81 .subtle-fill{fill-opacity:.2}#chart-abd1e9b0-c4ca-455b-a0c8-5bf73e03be81 .dot{stroke-width:1px;fill-opacity:1}#chart-abd1e9b0-c4ca-455b-a0c8-5bf73e03be81 .dot.active{stroke-width:5px}#chart-abd1e9b0-c4ca-455b-a0c8-5bf73e03be81 .dot.negative{fill:transparent}#chart-abd1e9b0-c4ca-455b-a0c8-5bf73e03be81 text,#chart-abd1e9b0-c4ca-455b-a0c8-5bf73e03be81 tspan{stroke:none !important}#chart-abd1e9b0-c4ca-455b-a0c8-5bf73e03be81 .series text.active{opacity:1}#chart-abd1e9b0-c4ca-455b-a0c8-5bf73e03be81 .tooltip rect{fill-opacity:.95;stroke-width:.5}#chart-abd1e9b0-c4ca-455b-a0c8-5bf73e03be81 .tooltip text{fill-opacity:1}#chart-abd1e9b0-c4ca-455b-a0c8-5bf73e03be81 .showable{visibility:hidden}#chart-abd1e9b0-c4ca-455b-a0c8-5bf73e03be81 .showable.shown{visibility:visible}#chart-abd1e9b0-c4ca-455b-a0c8-5bf73e03be81 .gauge-background{fill:rgba(229,229,229,1);stroke:none}#chart-abd1e9b0-c4ca-455b-a0c8-5bf73e03be81 .bg-lines{stroke:rgba(249,249,249,1);stroke-width:2px}</style><script type="text/javascript">window.pygal = window.pygal || {};window.pygal.config = window.pygal.config || {};window.pygal.config['abd1e9b0-c4ca-455b-a0c8-5bf73e03be81'] = {"allow_interruptions": false, "box_mode": "extremes", "classes": ["pygal-chart"], "css": ["file://style.css", "file://graph.css"], "defs": [], "disable_xml_declaration": false, "dots_size": 2.5, "dynamic_print_values": false, "explicit_size": false, "fill": false, "force_uri_protocol": "https", "formatter": null, "half_pie": false, "height": 600, "include_x_axis": false, "inner_radius": 0, "interpolate": null, "interpolation_parameters": {}, "interpolation_precision": 250, "inverse_y_axis": false, "js": ["//kozea.github.io/pygal.js/2.0.x/pygal-tooltips.min.js"], "legend_at_bottom": true, "legend_at_bottom_columns": null, "legend_box_size": 12, "logarithmic": false, "margin": 20, "margin_bottom": null, "margin_left": null, "margin_right": null, "margin_top": null, "max_scale": 16, "min_scale": 4, "missing_value_fill_truncation": "x", "no_data_text": "No data", "no_prefix": false, "order_min": null, "pretty_print": false, "print_labels": false, "print_values": false, "print_values_position": "center", "print_zeroes": true, "range": null, "rounded_bars": null, "secondary_range": null, "show_dots": true, "show_legend": true, "show_minor_x_labels": false, "show_minor_y_labels": true, "show_only_major_dots": false, "show_x_guides": false, "show_x_labels": true, "show_y_guides": true, "show_y_labels": true, "spacing": 10, "stack_from_top": false, "strict": false, "stroke": true, "stroke_style": null, "style": {"background": "rgba(249, 249, 249, 1)", "ci_colors": [], "colors": ["#F44336", "#3F51B5", "#009688", "#FFC107", "#FF5722", "#9C27B0", "#03A9F4", "#8BC34A", "#FF9800", "#E91E63", "#2196F3", "#4CAF50", "#FFEB3B", "#673AB7", "#00BCD4", "#CDDC39", "#9E9E9E", "#607D8B"], "font_family": "Consolas, \"Liberation Mono\", Menlo, Courier, monospace", "foreground": "rgba(0, 0, 0, .87)", "foreground_strong": "rgba(0, 0, 0, 1)", "foreground_subtle": "rgba(0, 0, 0, .54)", "guide_stroke_dasharray": "4,4", "label_font_family": "Consolas, \"Liberation Mono\", Menlo, Courier, monospace", "label_font_size": 10, "legend_font_family": "Consolas, \"Liberation Mono\", Menlo, Courier, monospace", "legend_font_size": 14, "major_guide_stroke_dasharray": "6,6", "major_label_font_family": "Consolas, \"Liberation Mono\", Menlo, Courier, monospace", "major_label_font_size": 10, "no_data_font_family": "Consolas, \"Liberation Mono\", Menlo, Courier, monospace", "no_data_font_size": 64, "opacity": ".7", "opacity_hover": ".8", "plot_background": "rgba(255, 255, 255, 1)", "stroke_opacity": ".8", "stroke_opacity_hover": ".9", "title_font_family": "Consolas, \"Liberation Mono\", Menlo, Courier, monospace", "title_font_size": 16, "tooltip_font_family": "Consolas, \"Liberation Mono\", Menlo, Courier, monospace", "tooltip_font_size": 14, "transition": "150ms", "value_background": "rgba(229, 229, 229, 1)", "value_colors": [], "value_font_family": "Consolas, \"Liberation Mono\", Menlo, Courier, monospace", "value_font_size": 16, "value_label_font_family": "Consolas, \"Liberation Mono\", Menlo, Courier, monospace", "value_label_font_size": 10}, "title": "Mahmudullah: Future and Past Averages in ODIs", "tooltip_border_radius": 10, "tooltip_fancy_mode": true, "truncate_label": null, "truncate_legend": null, "width": 800, "x_label_rotation": 45, "x_labels": ["2008", "0", "0", "0", "0", "0", "0", "0", "0", "0", "0", "0", "0", "0", "0", "0", "0", "0", "2009", "0", "0", "0", "0", "0", "0", "0", "0", "0", "0", "0", "0", "0", "0", "0", "2010", "0", "0", "0", "0", "0", "0", "0", "0", "0", "0", "0", "0", "0", "0", "0", "0", "0", "0", "0", "2011", "0", "0", "0", "0", "0", "0", "0", "0", "0", "0", "0", "2012", "0", "0", "0", "0", "0", "0", "0", "0", "2013", "0", "0", "0", "0", "0", "0", "0", "2014", "0", "0", "0", "0", "0", "0", "0", "0", "0", "0", "0", "0", "0", "2015", "0", "0", "0", "0", "0", "0", "0", "0", "0", "0", "2016", "0", "0", "2017", "0", "0", "0", "0", "0", "0", "2018", "0", "0", "0", "0", "0", "0", "0", "0", "0", "0", "2019", "0", "0", "0", "0"], "x_labels_major": ["2008", "2009", "2010", "2011", "2012", "2013", "2014", "2015", "2016", "2017", "2018", "2019"], "x_labels_major_count": null, "x_labels_major_every": null, "x_title": null, "xrange": null, "y_label_rotation": 0, "y_labels": null, "y_labels_major": null, "y_labels_major_count": null, "y_labels_major_every": null, "y_title": null, "zero": 0, "legends": ["Future Average", "Past Average", "Career Average"]}</script><script type="text/javascript" xlink:href="https://kozea.github.io/pygal.js/2.0.x/pygal-tooltips.min.js"/></defs><title>Mahmudullah: Future and Past Averages in ODIs</title><g class="graph line-graph vertical"><rect class="background" height="600" width="800" x="0" y="0"/><g class="plot" transform="translate(48, 46)"><rect class="background" height="462.02943725152284" width="732.0" x="0" y="0"/><g class="axis y always_show"><g class="guides"><path class="axis major line" d="M0.000000 453.144256 h732.000000"/><text class="major" x="-5" y="456.6442557659166">0</text><title>0</title></g><g class="guides"><path class="guide line" d="M0.000000 401.486224 h732.000000"/><text class="" x="-5" y="404.9862238728573">20</text><title>20</title></g><g class="guides"><path class="guide line" d="M0.000000 349.828192 h732.000000"/><text class="" x="-5" y="353.3281919797979">40</text><title>40</title></g><g class="guides"><path class="guide line" d="M0.000000 298.170160 h732.000000"/><text class="" x="-5" y="301.6701600867386">60</text><title>60</title></g><g class="guides"><path class="guide line" d="M0.000000 246.512128 h732.000000"/><text class="" x="-5" y="250.01212819367922">80</text><title>80</title></g><g class="guides"><path class="major guide line" d="M0.000000 194.854096 h732.000000"/><text class="major" x="-5" y="198.35409630061986">100</text><title>100</title></g><g class="guides"><path class="guide line" d="M0.000000 143.196064 h732.000000"/><text class="" x="-5" y="146.69606440756053">120</text><title>120</title></g><g class="guides"><path class="guide line" d="M0.000000 91.538033 h732.000000"/><text class="" x="-5" y="95.0380325145012">140</text><title>140</title></g><g class="guides"><path class="guide line" d="M0.000000 39.880001 h732.000000"/><text class="" x="-5" y="43.38000062144181">160</text><title>160</title></g></g><g class="axis x"><g class="guides"><path class="major line" d="M14.076923 0.000000 v462.029437"/><text class="major" x="14.076923076923077" y="477.02943725152284" transform="rotate(45 14.076923 477.029437)">2008</text></g><g class="guides"><path class="major guide line" d="M109.334297 0.000000 v462.029437"/><text class="major" x="109.33429728166568" y="477.02943725152284" transform="rotate(45 109.334297 477.029437)">2009</text></g><g class="guides"><path class="major guide line" d="M194.007519 0.000000 v462.029437"/><text class="major" x="194.00751879699249" y="477.02943725152284" transform="rotate(45 194.007519 477.029437)">2010</text></g><g class="guides"><path class="major guide line" d="M299.849046 0.000000 v462.029437"/><text class="major" x="299.84904569115093" y="477.02943725152284" transform="rotate(45 299.849046 477.029437)">2011</text></g><g class="guides"><path class="major guide line" d="M363.353962 0.000000 v462.029437"/><text class="major" x="363.35396182764606" y="477.02943725152284" transform="rotate(45 363.353962 477.029437)">2012</text></g><g class="guides"><path class="major guide line" d="M410.982649 0.000000 v462.029437"/><text class="major" x="410.9826489300174" y="477.02943725152284" transform="rotate(45 410.982649 477.029437)">2013</text></g><g class="guides"><path class="major guide line" d="M453.319260 0.000000 v462.029437"/><text class="major" x="453.31925968768076" y="477.02943725152284" transform="rotate(45 453.319260 477.029437)">2014</text></g><g class="guides"><path class="major guide line" d="M527.408329 0.000000 v462.029437"/><text class="major" x="527.4083285135916" y="477.02943725152284" transform="rotate(45 527.408329 477.029437)">2015</text></g><g class="guides"><path class="major guide line" d="M585.621168 0.000000 v462.029437"/><text class="major" x="585.6211683053788" y="477.02943725152284" transform="rotate(45 585.621168 477.029437)">2016</text></g><g class="guides"><path class="major guide line" d="M601.497397 0.000000 v462.029437"/><text class="major" x="601.4973973395026" y="477.02943725152284" transform="rotate(45 601.497397 477.029437)">2017</text></g><g class="guides"><path class="major guide line" d="M638.541932 0.000000 v462.029437"/><text class="major" x="638.541931752458" y="477.02943725152284" transform="rotate(45 638.541932 477.029437)">2018</text></g><g class="guides"><path class="major guide line" d="M696.754772 0.000000 v462.029437"/><text class="major" x="696.7547715442452" y="477.02943725152284" transform="rotate(45 696.754772 477.029437)">2019</text></g></g><g class="series serie-0 color-0"><path class="line reactive nofill" d="M14.076923 333.271793 L19.368999 331.024668 24.661076 330.430601 29.953152 331.567078 35.245228 331.360446 40.537305 333.478425 45.829381 334.124150 51.121457 334.046663 56.413534 335.415601 61.705610 337.017000 66.997687 338.437596 72.289763 339.961508 77.581839 338.101819 82.873916 338.773373 88.165992 340.116482 93.458068 341.743710 98.750145 342.311948 104.042221 342.880187 109.334297 343.190135 114.626374 343.680886 119.918450 342.311948 125.210526 342.776871 130.502603 340.142311 135.794679 339.909850 141.086755 341.769539 146.378832 339.754876 151.670908 337.636896 156.962984 337.481922 162.255061 338.101819 167.547137 339.496586 172.839213 339.315782 178.131290 339.574073 183.423366 340.348943 188.715442 339.961508 194.007519 336.138814 199.299595 335.493088 204.591671 337.352777 209.883748 338.127648 215.175824 338.618399 220.467901 339.496586 225.759977 338.954176 231.052053 341.123814 236.344130 340.452259 241.636206 341.382104 246.928282 340.581404 252.220359 343.267622 257.512435 345.385601 262.804511 346.160472 268.096588 346.832026 273.388664 347.865187 278.680740 350.034824 283.972817 346.057156 289.264893 344.068321 294.556969 345.049824 299.849046 342.415264 305.141122 342.776871 310.433198 342.027829 315.725275 342.208632 321.017351 343.112648 326.309427 343.680886 331.601504 347.296948 336.893580 348.485083 342.185656 347.632726 347.477733 348.149306 352.769809 347.839358 358.061885 339.987337 363.353962 330.017337 368.646038 331.515420 373.938115 333.400938 379.230191 334.640731 384.522267 332.057829 389.814344 330.585575 395.106420 328.829202 400.398496 328.364280 405.690573 318.523425 410.982649 311.394616 416.274725 312.272803 421.566802 311.756222 426.858878 313.099331 432.150954 315.139824 437.443031 312.246974 442.735107 308.863373 448.027183 311.833710 453.319260 301.837880 458.611336 305.376456 463.903412 306.874538 469.195489 295.432284 474.487565 293.159331 479.779641 287.657751 485.071718 292.151999 490.363794 293.004357 495.655870 285.255652 500.947947 281.691248 506.240023 277.713579 511.532099 252.969382 516.824176 256.068864 522.116252 242.482802 527.408329 251.393812 532.700405 236.180522 537.992481 251.987880 543.284558 261.363812 548.576634 268.466792 553.868710 269.758243 559.160787 272.031196 564.452863 273.942543 569.744939 276.861222 575.037016 282.362802 580.329092 262.758579 585.621168 239.615781 590.913245 249.095030 596.205321 259.426636 601.497397 262.009538 606.789474 264.153346 612.081550 267.614434 617.373626 273.193502 622.665703 277.506947 627.957779 282.233657 633.249855 289.130005 638.541932 303.335963 643.834008 311.084668 649.126084 319.685730 654.418161 321.855368 659.710237 304.369124 665.002313 291.712906 670.294390 266.322983 675.586466 203.894252 680.878543 8.885181 686.170619 112.201245 691.462695 143.196064 696.754772 179.356687 702.046848 249.095030 707.338924 313.667570 712.631001 385.988814 717.923077 396.320421"/></g><g class="series serie-1 color-1"><path class="line reactive nofill" d="M14.076923 453.144256 L19.368999 416.983633 24.661076 402.338581 29.953152 374.804850 35.245228 367.908503 40.537305 329.810705 45.829381 318.187647 51.121457 322.449435 56.413534 302.819383 61.705610 280.089849 66.997687 259.943216 72.289763 238.246843 77.581839 285.617258 82.873916 286.547103 88.165992 275.233994 93.458068 261.363812 98.750145 256.533786 104.042221 251.677931 109.334297 249.095030 114.626374 244.910729 119.918450 266.038864 125.210526 262.577776 130.502603 292.771896 135.794679 297.963528 141.086755 288.045186 146.378832 304.627414 151.670908 316.896197 156.962984 318.678399 162.255061 316.560419 167.547137 311.704564 172.839213 313.822544 178.131290 312.944357 183.423366 310.516430 188.715442 313.254305 194.007519 326.220471 199.299595 328.157648 204.591671 323.895860 209.883748 322.087829 215.175824 320.977181 220.467901 318.936689 225.759977 320.977181 231.052053 316.250471 236.344130 318.626741 241.636206 316.767052 246.928282 319.220808 252.220359 314.055005 257.512435 309.999849 262.804511 308.501766 268.096588 307.210316 273.388664 305.221481 278.680740 301.063010 283.972817 311.368787 289.264893 315.811378 294.556969 314.209979 299.849046 319.995679 305.141122 320.202311 310.433198 321.881197 315.725275 322.242803 321.017351 321.106326 326.309427 320.434772 331.601504 315.940523 336.893580 314.494098 342.185656 316.482932 347.477733 316.741223 352.769809 317.929357 358.061885 327.227803 363.353962 335.777207 368.646038 334.640731 373.938115 333.194306 379.230191 332.238632 384.522267 334.149979 389.814344 335.131482 395.106420 336.190472 400.398496 336.319617 405.690573 340.943010 410.982649 343.370938 416.274725 342.983503 421.566802 342.621897 426.858878 342.027829 432.150954 341.149643 437.443031 341.847026 442.735107 342.596068 448.027183 341.459591 453.319260 343.758373 458.611336 342.570238 463.903412 342.079487 469.195489 344.171637 474.487565 343.965005 479.779641 344.481586 485.071718 343.396767 490.363794 343.190135 495.655870 344.119979 500.947947 343.913347 506.240023 343.680886 511.532099 345.437259 516.824176 344.972337 522.116252 345.463088 527.408329 344.274954 532.700405 344.688218 537.992481 342.828529 543.284558 341.743710 548.576634 340.891352 553.868710 340.762207 559.160787 340.478088 564.452863 340.245627 569.744939 339.909850 575.037016 339.264124 580.329092 340.426430 585.621168 341.304617 590.913245 340.503917 596.205321 339.599902 601.497397 339.393270 606.789474 339.212466 612.081550 338.902518 617.373626 338.437596 622.665703 338.050161 627.957779 337.662725 633.249855 337.068658 638.541932 335.854694 643.834008 335.183140 649.126084 334.434098 654.418161 334.253295 659.710237 335.312285 665.002313 335.596404 670.294390 336.035497 675.586466 336.784539 680.878543 337.611067 686.170619 336.216301 691.462695 335.803036 696.754772 335.338114 702.046848 335.958010 707.338924 335.105653 712.631001 334.149979 717.923077 334.020834"/></g><g class="series serie-2 color-2"><path class="line reactive nofill" d="M14.076923 333.271793 L19.368999 333.271793 24.661076 333.271793 29.953152 333.271793 35.245228 333.271793 40.537305 333.271793 45.829381 333.271793 51.121457 333.271793 56.413534 333.271793 61.705610 333.271793 66.997687 333.271793 72.289763 333.271793 77.581839 333.271793 82.873916 333.271793 88.165992 333.271793 93.458068 333.271793 98.750145 333.271793 104.042221 333.271793 109.334297 333.271793 114.626374 333.271793 119.918450 333.271793 125.210526 333.271793 130.502603 333.271793 135.794679 333.271793 141.086755 333.271793 146.378832 333.271793 151.670908 333.271793 156.962984 333.271793 162.255061 333.271793 167.547137 333.271793 172.839213 333.271793 178.131290 333.271793 183.423366 333.271793 188.715442 333.271793 194.007519 333.271793 199.299595 333.271793 204.591671 333.271793 209.883748 333.271793 215.175824 333.271793 220.467901 333.271793 225.759977 333.271793 231.052053 333.271793 236.344130 333.271793 241.636206 333.271793 246.928282 333.271793 252.220359 333.271793 257.512435 333.271793 262.804511 333.271793 268.096588 333.271793 273.388664 333.271793 278.680740 333.271793 283.972817 333.271793 289.264893 333.271793 294.556969 333.271793 299.849046 333.271793 305.141122 333.271793 310.433198 333.271793 315.725275 333.271793 321.017351 333.271793 326.309427 333.271793 331.601504 333.271793 336.893580 333.271793 342.185656 333.271793 347.477733 333.271793 352.769809 333.271793 358.061885 333.271793 363.353962 333.271793 368.646038 333.271793 373.938115 333.271793 379.230191 333.271793 384.522267 333.271793 389.814344 333.271793 395.106420 333.271793 400.398496 333.271793 405.690573 333.271793 410.982649 333.271793 416.274725 333.271793 421.566802 333.271793 426.858878 333.271793 432.150954 333.271793 437.443031 333.271793 442.735107 333.271793 448.027183 333.271793 453.319260 333.271793 458.611336 333.271793 463.903412 333.271793 469.195489 333.271793 474.487565 333.271793 479.779641 333.271793 485.071718 333.271793 490.363794 333.271793 495.655870 333.271793 500.947947 333.271793 506.240023 333.271793 511.532099 333.271793 516.824176 333.271793 522.116252 333.271793 527.408329 333.271793 532.700405 333.271793 537.992481 333.271793 543.284558 333.271793 548.576634 333.271793 553.868710 333.271793 559.160787 333.271793 564.452863 333.271793 569.744939 333.271793 575.037016 333.271793 580.329092 333.271793 585.621168 333.271793 590.913245 333.271793 596.205321 333.271793 601.497397 333.271793 606.789474 333.271793 612.081550 333.271793 617.373626 333.271793 622.665703 333.271793 627.957779 333.271793 633.249855 333.271793 638.541932 333.271793 643.834008 333.271793 649.126084 333.271793 654.418161 333.271793 659.710237 333.271793 665.002313 333.271793 670.294390 333.271793 675.586466 333.271793 680.878543 333.271793 686.170619 333.271793 691.462695 333.271793 696.754772 333.271793 702.046848 333.271793 707.338924 333.271793 712.631001 333.271793 717.923077 333.271793"/></g></g><g class="titles"><text class="title plot_title" x="400.0" y="26">Mahmudullah: Future and Past Averages in ODIs</text></g><g class="plot overlay" transform="translate(48, 46)"><g class="series serie-0 color-0"><g class="dots"><desc class="label">76 wickets in 134 innings (681.4 overs)</desc><circle class="dot reactive tooltip-trigger" cx="14.076923076923077" cy="333.2717927580724" r="2.5"/><desc class="value">46.41</desc><desc class="x top">14.076923076923077</desc><desc class="y top">333.2717927580724</desc><desc class="x_label">2008</desc></g><g class="dots"><desc class="label">68 wickets in 116 innings (564.4 overs)</desc><circle class="dot reactive tooltip-trigger" cx="109.33429728166568" cy="343.1901348815398" r="2.5"/><desc class="value">42.57</desc><desc class="x top">109.33429728166568</desc><desc class="y top">343.1901348815398</desc><desc class="x_label">2009</desc></g><g class="dots"><desc class="label">54 wickets in 100 innings (470.3 overs)</desc><circle class="dot reactive tooltip-trigger" cx="194.00751879699249" cy="336.13881352813723" r="2.5"/><desc class="value">45.3</desc><desc class="x top">194.00751879699249</desc><desc class="y top">336.13881352813723</desc><desc class="x_label">2010</desc></g><g class="dots"><desc class="label">45 wickets in 80 innings (374.4 overs)</desc><circle class="dot reactive tooltip-trigger" cx="299.84904569115093" cy="342.4152644031439" r="2.5"/><desc class="value">42.87</desc><desc class="x top">299.84904569115093</desc><desc class="y top">342.4152644031439</desc><desc class="x_label">2011</desc></g><g class="dots"><desc class="label">33 wickets in 68 innings (302.3 overs)</desc><circle class="dot reactive tooltip-trigger" cx="363.35396182764606" cy="330.01733674880967" r="2.5"/><desc class="value">47.67</desc><desc class="x top">363.35396182764606</desc><desc class="y top">330.01733674880967</desc><desc class="x_label">2012</desc></g><g class="dots"><desc class="label">24 wickets in 59 innings (244.3 overs)</desc><circle class="dot reactive tooltip-trigger" cx="410.9826489300174" cy="311.39461625136175" r="2.5"/><desc class="value">54.88</desc><desc class="x left top">410.9826489300174</desc><desc class="y left top">311.39461625136175</desc><desc class="x_label">2013</desc></g><g class="dots"><desc class="label">19 wickets in 51 innings (204.3 overs)</desc><circle class="dot reactive tooltip-trigger" cx="453.31925968768076" cy="301.8378803511458" r="2.5"/><desc class="value">58.58</desc><desc class="x left top">453.31925968768076</desc><desc class="y left top">301.8378803511458</desc><desc class="x_label">2014</desc></g><g class="dots"><desc class="label">9 wickets in 37 innings (125.4 overs)</desc><circle class="dot reactive tooltip-trigger" cx="527.4083285135916" cy="251.39381220757332" r="2.5"/><desc class="value">78.11</desc><desc class="x left top">527.4083285135916</desc><desc class="y left top">251.39381220757332</desc><desc class="x_label">2015</desc></g><g class="dots"><desc class="label">6 wickets in 26 innings (84.4 overs)</desc><circle class="dot reactive tooltip-trigger" cx="585.6211683053788" cy="239.6157809359558" r="2.5"/><desc class="value">82.67</desc><desc class="x left top">585.6211683053788</desc><desc class="y left top">239.6157809359558</desc><desc class="x_label">2016</desc></g><g class="dots"><desc class="label">6 wickets in 23 innings (77.4 overs)</desc><circle class="dot reactive tooltip-trigger" cx="601.4973973395026" cy="262.009537761597" r="2.5"/><desc class="value">74</desc><desc class="x left top">601.4973973395026</desc><desc class="y left top">262.009537761597</desc><desc class="x_label">2017</desc></g><g class="dots"><desc class="label">6 wickets in 16 innings (64.4 overs)</desc><circle class="dot reactive tooltip-trigger" cx="638.541931752458" cy="303.3359632760445" r="2.5"/><desc class="value">58</desc><desc class="x left top">638.541931752458</desc><desc class="y left top">303.3359632760445</desc><desc class="x_label">2018</desc></g><g class="dots"><desc class="label">1 wickets in 5 innings (14.0 overs)</desc><circle class="dot reactive tooltip-trigger" cx="696.7547715442452" cy="179.3566867327021" r="2.5"/><desc class="value">106</desc><desc class="x left">696.7547715442452</desc><desc class="y left">179.3566867327021</desc><desc class="x_label">2019</desc></g></g><g class="series serie-1 color-1"><g class="dots"><desc class="label">0 wickets over 0 innings</desc><circle class="dot reactive tooltip-trigger" cx="14.076923076923077" cy="453.1442557659166" r="2.5"/><desc class="value">0</desc><desc class="x top">14.076923076923077</desc><desc class="y top">453.1442557659166</desc><desc class="x_label">2008</desc></g><g class="dots"><desc class="label">8 wickets in 18 innings (117.0 overs)</desc><circle class="dot reactive tooltip-trigger" cx="109.33429728166568" cy="249.09502978833217" r="2.5"/><desc class="value">79</desc><desc class="x top">109.33429728166568</desc><desc class="y top">249.09502978833217</desc><desc class="x_label">2009</desc></g><g class="dots"><desc class="label">22 wickets in 34 innings (211.1 overs)</desc><circle class="dot reactive tooltip-trigger" cx="194.00751879699249" cy="326.2204714046698" r="2.5"/><desc class="value">49.14</desc><desc class="x top">194.00751879699249</desc><desc class="y top">326.2204714046698</desc><desc class="x_label">2010</desc></g><g class="dots"><desc class="label">31 wickets in 54 innings (307.0 overs)</desc><circle class="dot reactive tooltip-trigger" cx="299.84904569115093" cy="319.99567856155613" r="2.5"/><desc class="value">51.55</desc><desc class="x top">299.84904569115093</desc><desc class="y top">319.99567856155613</desc><desc class="x_label">2011</desc></g><g class="dots"><desc class="label">43 wickets in 66 innings (379.1 overs)</desc><circle class="dot reactive tooltip-trigger" cx="363.35396182764606" cy="335.7772073048858" r="2.5"/><desc class="value">45.44</desc><desc class="x top">363.35396182764606</desc><desc class="y top">335.7772073048858</desc><desc class="x_label">2012</desc></g><g class="dots"><desc class="label">52 wickets in 75 innings (437.1 overs)</desc><circle class="dot reactive tooltip-trigger" cx="410.9826489300174" cy="343.3709379931655" r="2.5"/><desc class="value">42.5</desc><desc class="x left top">410.9826489300174</desc><desc class="y left top">343.3709379931655</desc><desc class="x_label">2013</desc></g><g class="dots"><desc class="label">57 wickets in 83 innings (477.1 overs)</desc><circle class="dot reactive tooltip-trigger" cx="453.31925968768076" cy="343.75837323236345" r="2.5"/><desc class="value">42.35</desc><desc class="x left top">453.31925968768076</desc><desc class="y left top">343.75837323236345</desc><desc class="x_label">2014</desc></g><g class="dots"><desc class="label">67 wickets in 97 innings (556.0 overs)</desc><circle class="dot reactive tooltip-trigger" cx="527.4083285135916" cy="344.27495355129406" r="2.5"/><desc class="value">42.15</desc><desc class="x left top">527.4083285135916</desc><desc class="y left top">344.27495355129406</desc><desc class="x_label">2015</desc></g><g class="dots"><desc class="label">70 wickets in 108 innings (597.0 overs)</desc><circle class="dot reactive tooltip-trigger" cx="585.6211683053788" cy="341.30461671744314" r="2.5"/><desc class="value">43.3</desc><desc class="x left top">585.6211683053788</desc><desc class="y left top">341.30461671744314</desc><desc class="x_label">2016</desc></g><g class="dots"><desc class="label">70 wickets in 111 innings (604.0 overs)</desc><circle class="dot reactive tooltip-trigger" cx="601.4973973395026" cy="339.39326953739993" r="2.5"/><desc class="value">44.04</desc><desc class="x left top">601.4973973395026</desc><desc class="y left top">339.39326953739993</desc><desc class="x_label">2017</desc></g><g class="dots"><desc class="label">70 wickets in 118 innings (617.0 overs)</desc><circle class="dot reactive tooltip-trigger" cx="638.541931752458" cy="335.85469435272535" r="2.5"/><desc class="value">45.41</desc><desc class="x left top">638.541931752458</desc><desc class="y left top">335.85469435272535</desc><desc class="x_label">2018</desc></g><g class="dots"><desc class="label">75 wickets in 129 innings (667.4 overs)</desc><circle class="dot reactive tooltip-trigger" cx="696.7547715442452" cy="335.3381140337948" r="2.5"/><desc class="value">45.61</desc><desc class="x left top">696.7547715442452</desc><desc class="y left top">335.3381140337948</desc><desc class="x_label">2019</desc></g></g><g class="series serie-2 color-2"/></g><g class="plot text-overlay" transform="translate(48, 46)"><g class="series serie-0 color-0"/><g class="series serie-1 color-1"/><g class="series serie-2 color-2"/></g><g class="plot tooltip-overlay" transform="translate(48, 46)"><g class="tooltip" style="opacity: 0" transform="translate(0 0)"><rect class="tooltip-box" height="0" rx="10" ry="10" width="0"/><g class="text"/></g></g><g class="legends" transform="translate(58, 545)"><g class="legend reactive activate-serie" id="activate-serie-0"><rect class="color-0 reactive" height="12" width="12" x="0.0" y="1.0"/><text x="17.0" y="11.2">Future Average</text></g><g class="legend reactive activate-serie" id="activate-serie-1"><rect class="color-1 reactive" height="12" width="12" x="366.0" y="1.0"/><text x="383.0" y="11.2">Past Average</text></g><g class="legend reactive activate-serie" id="activate-serie-2"><rect class="color-2 reactive" height="12" width="12" x="0.0" y="22.0"/><text x="17.0" y="32.2">Career Average</text></g></g></g></svg>