<?xml version='1.0' encoding='utf-8'?>
<svg xmlns:xlink="http://www.w3.org/1999/xlink" xmlns="http://www.w3.org/2000/svg" id="chart-713c9fb0-0b30-4e03-a729-d6ce92323582" class="pygal-chart" viewBox="0 0 800 600"><!--Generated with pygal 2.4.0 (lxml) ©Kozea 2012-2016 on 2019-08-04--><!--http://pygal.org--><!--http://github.com/Kozea/pygal--><defs><style type="text/css">#chart-713c9fb0-0b30-4e03-a729-d6ce92323582{-webkit-user-select:none;-webkit-font-smoothing:antialiased;font-family:Consolas,"Liberation Mono",Menlo,Courier,monospace}#chart-713c9fb0-0b30-4e03-a729-d6ce92323582 .title{font-family:Consolas,"Liberation Mono",Menlo,Courier,monospace;font-size:16px}#chart-713c9fb0-0b30-4e03-a729-d6ce92323582 .legends .legend text{font-family:Consolas,"Liberation Mono",Menlo,Courier,monospace;font-size:14px}#chart-713c9fb0-0b30-4e03-a729-d6ce92323582 .axis text{font-family:Consolas,"Liberation Mono",Menlo,Courier,monospace;font-size:10px}#chart-713c9fb0-0b30-4e03-a729-d6ce92323582 .axis text.major{font-family:Consolas,"Liberation Mono",Menlo,Courier,monospace;font-size:10px}#chart-713c9fb0-0b30-4e03-a729-d6ce92323582 .text-overlay text.value{font-family:Consolas,"Liberation Mono",Menlo,Courier,monospace;font-size:16px}#chart-713c9fb0-0b30-4e03-a729-d6ce92323582 .text-overlay text.label{font-family:Consolas,"Liberation Mono",Menlo,Courier,monospace;font-size:10px}#chart-713c9fb0-0b30-4e03-a729-d6ce92323582 .tooltip{font-family:Consolas,"Liberation Mono",Menlo,Courier,monospace;font-size:14px}#chart-713c9fb0-0b30-4e03-a729-d6ce92323582 text.no_data{font-family:Consolas,"Liberation Mono",Menlo,Courier,monospace;font-size:64px}
#chart-713c9fb0-0b30-4e03-a729-d6ce92323582{background-color:rgba(249,249,249,1)}#chart-713c9fb0-0b30-4e03-a729-d6ce92323582 path,#chart-713c9fb0-0b30-4e03-a729-d6ce92323582 line,#chart-713c9fb0-0b30-4e03-a729-d6ce92323582 rect,#chart-713c9fb0-0b30-4e03-a729-d6ce92323582 circle{-webkit-transition:150ms;-moz-transition:150ms;transition:150ms}#chart-713c9fb0-0b30-4e03-a729-d6ce92323582 .graph &gt; .background{fill:rgba(249,249,249,1)}#chart-713c9fb0-0b30-4e03-a729-d6ce92323582 .plot &gt; .background{fill:rgba(255,255,255,1)}#chart-713c9fb0-0b30-4e03-a729-d6ce92323582 .graph{fill:rgba(0,0,0,.87)}#chart-713c9fb0-0b30-4e03-a729-d6ce92323582 text.no_data{fill:rgba(0,0,0,1)}#chart-713c9fb0-0b30-4e03-a729-d6ce92323582 .title{fill:rgba(0,0,0,1)}#chart-713c9fb0-0b30-4e03-a729-d6ce92323582 .legends .legend text{fill:rgba(0,0,0,.87)}#chart-713c9fb0-0b30-4e03-a729-d6ce92323582 .legends .legend:hover text{fill:rgba(0,0,0,1)}#chart-713c9fb0-0b30-4e03-a729-d6ce92323582 .axis .line{stroke:rgba(0,0,0,1)}#chart-713c9fb0-0b30-4e03-a729-d6ce92323582 .axis .guide.line{stroke:rgba(0,0,0,.54)}#chart-713c9fb0-0b30-4e03-a729-d6ce92323582 .axis .major.line{stroke:rgba(0,0,0,.87)}#chart-713c9fb0-0b30-4e03-a729-d6ce92323582 .axis text.major{fill:rgba(0,0,0,1)}#chart-713c9fb0-0b30-4e03-a729-d6ce92323582 .axis.y .guides:hover .guide.line,#chart-713c9fb0-0b30-4e03-a729-d6ce92323582 .line-graph .axis.x .guides:hover .guide.line,#chart-713c9fb0-0b30-4e03-a729-d6ce92323582 .stackedline-graph .axis.x .guides:hover .guide.line,#chart-713c9fb0-0b30-4e03-a729-d6ce92323582 .xy-graph .axis.x .guides:hover .guide.line{stroke:rgba(0,0,0,1)}#chart-713c9fb0-0b30-4e03-a729-d6ce92323582 .axis .guides:hover text{fill:rgba(0,0,0,1)}#chart-713c9fb0-0b30-4e03-a729-d6ce92323582 .reactive{fill-opacity:.7;stroke-opacity:.8}#chart-713c9fb0-0b30-4e03-a729-d6ce92323582 .ci{stroke:rgba(0,0,0,.87)}#chart-713c9fb0-0b30-4e03-a729-d6ce92323582 .reactive.active,#chart-713c9fb0-0b30-4e03-a729-d6ce92323582 .active .reactive{fill-opacity:.8;stroke-opacity:.9;stroke-width:4}#chart-713c9fb0-0b30-4e03-a729-d6ce92323582 .ci .reactive.active{stroke-width:1.5}#chart-713c9fb0-0b30-4e03-a729-d6ce92323582 .series text{fill:rgba(0,0,0,1)}#chart-713c9fb0-0b30-4e03-a729-d6ce92323582 .tooltip rect{fill:rgba(255,255,255,1);stroke:rgba(0,0,0,1);-webkit-transition:opacity 150ms;-moz-transition:opacity 150ms;transition:opacity 150ms}#chart-713c9fb0-0b30-4e03-a729-d6ce92323582 .tooltip .label{fill:rgba(0,0,0,.87)}#chart-713c9fb0-0b30-4e03-a729-d6ce92323582 .tooltip .label{fill:rgba(0,0,0,.87)}#chart-713c9fb0-0b30-4e03-a729-d6ce92323582 .tooltip .legend{font-size:.8em;fill:rgba(0,0,0,.54)}#chart-713c9fb0-0b30-4e03-a729-d6ce92323582 .tooltip .x_label{font-size:.6em;fill:rgba(0,0,0,1)}#chart-713c9fb0-0b30-4e03-a729-d6ce92323582 .tooltip .xlink{font-size:.5em;text-decoration:underline}#chart-713c9fb0-0b30-4e03-a729-d6ce92323582 .tooltip .value{font-size:1.5em}#chart-713c9fb0-0b30-4e03-a729-d6ce92323582 .bound{font-size:.5em}#chart-713c9fb0-0b30-4e03-a729-d6ce92323582 .max-value{font-size:.75em;fill:rgba(0,0,0,.54)}#chart-713c9fb0-0b30-4e03-a729-d6ce92323582 .map-element{fill:rgba(255,255,255,1);stroke:rgba(0,0,0,.54) !important}#chart-713c9fb0-0b30-4e03-a729-d6ce92323582 .map-element .reactive{fill-opacity:inherit;stroke-opacity:inherit}#chart-713c9fb0-0b30-4e03-a729-d6ce92323582 .color-0,#chart-713c9fb0-0b30-4e03-a729-d6ce92323582 .color-0 a:visited{stroke:red;fill:red}#chart-713c9fb0-0b30-4e03-a729-d6ce92323582 .color-1,#chart-713c9fb0-0b30-4e03-a729-d6ce92323582 .color-1 a:visited{stroke:blue;fill:blue}#chart-713c9fb0-0b30-4e03-a729-d6ce92323582 .color-2,#chart-713c9fb0-0b30-4e03-a729-d6ce92323582 .color-2 a:visited{stroke:green;fill:green}#chart-713c9fb0-0b30-4e03-a729-d6ce92323582 .text-overlay .color-0 text{fill:white}#chart-713c9fb0-0b30-4e03-a729-d6ce92323582 .text-overlay .color-1 text{fill:white}#chart-713c9fb0-0b30-4e03-a729-d6ce92323582 .text-overlay .color-2 text{fill:white}
#chart-713c9fb0-0b30-4e03-a729-d6ce92323582 text.no_data{text-anchor:middle}#chart-713c9fb0-0b30-4e03-a729-d6ce92323582 .guide.line{fill:none}#chart-713c9fb0-0b30-4e03-a729-d6ce92323582 .centered{text-anchor:middle}#chart-713c9fb0-0b30-4e03-a729-d6ce92323582 .title{text-anchor:middle}#chart-713c9fb0-0b30-4e03-a729-d6ce92323582 .legends .legend text{fill-opacity:1}#chart-713c9fb0-0b30-4e03-a729-d6ce92323582 .axis.x text{text-anchor:middle}#chart-713c9fb0-0b30-4e03-a729-d6ce92323582 .axis.x:not(.web) text[transform]{text-anchor:start}#chart-713c9fb0-0b30-4e03-a729-d6ce92323582 .axis.x:not(.web) text[transform].backwards{text-anchor:end}#chart-713c9fb0-0b30-4e03-a729-d6ce92323582 .axis.y text{text-anchor:end}#chart-713c9fb0-0b30-4e03-a729-d6ce92323582 .axis.y text[transform].backwards{text-anchor:start}#chart-713c9fb0-0b30-4e03-a729-d6ce92323582 .axis.y2 text{text-anchor:start}#chart-713c9fb0-0b30-4e03-a729-d6ce92323582 .axis.y2 text[transform].backwards{text-anchor:end}#chart-713c9fb0-0b30-4e03-a729-d6ce92323582 .axis .guide.line{stroke-dasharray:4,4}#chart-713c9fb0-0b30-4e03-a729-d6ce92323582 .axis .major.guide.line{stroke-dasharray:6,6}#chart-713c9fb0-0b30-4e03-a729-d6ce92323582 .horizontal .axis.y .guide.line,#chart-713c9fb0-0b30-4e03-a729-d6ce92323582 .horizontal .axis.y2 .guide.line,#chart-713c9fb0-0b30-4e03-a729-d6ce92323582 .vertical .axis.x .guide.line{opacity:0}#chart-713c9fb0-0b30-4e03-a729-d6ce92323582 .horizontal .axis.always_show .guide.line,#chart-713c9fb0-0b30-4e03-a729-d6ce92323582 .vertical .axis.always_show .guide.line{opacity:1 !important}#chart-713c9fb0-0b30-4e03-a729-d6ce92323582 .axis.y .guides:hover .guide.line,#chart-713c9fb0-0b30-4e03-a729-d6ce92323582 .axis.y2 .guides:hover .guide.line,#chart-713c9fb0-0b30-4e03-a729-d6ce92323582 .axis.x .guides:hover .guide.line{opacity:1}#chart-713c9fb0-0b30-4e03-a729-d6ce92323582 .axis .guides:hover text{opacity:1}#chart-713c9fb0-0b30-4e03-a729-d6ce92323582 .nofill{fill:none}#chart-713c9fb0-0b30-4e03-a729-d6ce92323582 .subtle-fill{fill-opacity:.2}#chart-713c9fb0-0b30-4e03-a729-d6ce92323582 .dot{stroke-width:1px;fill-opacity:1}#chart-713c9fb0-0b30-4e03-a729-d6ce92323582 .dot.active{stroke-width:5px}#chart-713c9fb0-0b30-4e03-a729-d6ce92323582 .dot.negative{fill:transparent}#chart-713c9fb0-0b30-4e03-a729-d6ce92323582 text,#chart-713c9fb0-0b30-4e03-a729-d6ce92323582 tspan{stroke:none !important}#chart-713c9fb0-0b30-4e03-a729-d6ce92323582 .series text.active{opacity:1}#chart-713c9fb0-0b30-4e03-a729-d6ce92323582 .tooltip rect{fill-opacity:.95;stroke-width:.5}#chart-713c9fb0-0b30-4e03-a729-d6ce92323582 .tooltip text{fill-opacity:1}#chart-713c9fb0-0b30-4e03-a729-d6ce92323582 .showable{visibility:hidden}#chart-713c9fb0-0b30-4e03-a729-d6ce92323582 .showable.shown{visibility:visible}#chart-713c9fb0-0b30-4e03-a729-d6ce92323582 .gauge-background{fill:rgba(229,229,229,1);stroke:none}#chart-713c9fb0-0b30-4e03-a729-d6ce92323582 .bg-lines{stroke:rgba(249,249,249,1);stroke-width:2px}</style><script type="text/javascript">window.pygal = window.pygal || {};window.pygal.config = window.pygal.config || {};window.pygal.config['713c9fb0-0b30-4e03-a729-d6ce92323582'] = {"allow_interruptions": false, "box_mode": "extremes", "classes": ["pygal-chart"], "css": ["file://style.css", "file://graph.css"], "defs": [], "disable_xml_declaration": false, "dots_size": 2.5, "dynamic_print_values": false, "explicit_size": false, "fill": false, "force_uri_protocol": "https", "formatter": null, "half_pie": false, "height": 600, "include_x_axis": false, "inner_radius": 0, "interpolate": null, "interpolation_parameters": {}, "interpolation_precision": 250, "inverse_y_axis": false, "js": ["//kozea.github.io/pygal.js/2.0.x/pygal-tooltips.min.js"], "legend_at_bottom": true, "legend_at_bottom_columns": null, "legend_box_size": 12, "logarithmic": false, "margin": 20, "margin_bottom": null, "margin_left": null, "margin_right": null, "margin_top": null, "max_scale": 16, "min_scale": 4, "missing_value_fill_truncation": "x", "no_data_text": "No data", "no_prefix": false, "order_min": null, "pretty_print": false, "print_labels": false, "print_values": false, "print_values_position": "center", "print_zeroes": true, "range": null, "rounded_bars": null, "secondary_range": null, "show_dots": true, "show_legend": true, "show_minor_x_labels": false, "show_minor_y_labels": true, "show_only_major_dots": false, "show_x_guides": false, "show_x_labels": true, "show_y_guides": true, "show_y_labels": true, "spacing": 10, "stack_from_top": false, "strict": false, "stroke": true, "stroke_style": null, "style": {"background": "rgba(249, 249, 249, 1)", "ci_colors": [], "colors": ["red", "blue", "green", "#a3a3a3"], "font_family": "Consolas, \"Liberation Mono\", Menlo, Courier, monospace", "foreground": "rgba(0, 0, 0, .87)", "foreground_strong": "rgba(0, 0, 0, 1)", "foreground_subtle": "rgba(0, 0, 0, .54)", "guide_stroke_dasharray": "4,4", "label_font_family": "Consolas, \"Liberation Mono\", Menlo, Courier, monospace", "label_font_size": 10, "legend_font_family": "Consolas, \"Liberation Mono\", Menlo, Courier, monospace", "legend_font_size": 14, "major_guide_stroke_dasharray": "6,6", "major_label_font_family": "Consolas, \"Liberation Mono\", Menlo, Courier, monospace", "major_label_font_size": 10, "no_data_font_family": "Consolas, \"Liberation Mono\", Menlo, Courier, monospace", "no_data_font_size": 64, "opacity": ".7", "opacity_hover": ".8", "plot_background": "rgba(255, 255, 255, 1)", "stroke_opacity": ".8", "stroke_opacity_hover": ".9", "title_font_family": "Consolas, \"Liberation Mono\", Menlo, Courier, monospace", "title_font_size": 16, "tooltip_font_family": "Consolas, \"Liberation Mono\", Menlo, Courier, monospace", "tooltip_font_size": 14, "transition": "150ms", "value_background": "rgba(229, 229, 229, 1)", "value_colors": [], "value_font_family": "Consolas, \"Liberation Mono\", Menlo, Courier, monospace", "value_font_size": 16, "value_label_font_family": "Consolas, \"Liberation Mono\", Menlo, Courier, monospace", "value_label_font_size": 10}, "title": "Mashrafe Mortaza: Future and Past Averages in ODIs", "tooltip_border_radius": 10, "tooltip_fancy_mode": true, "truncate_label": null, "truncate_legend": null, "width": 800, "x_label_rotation": 45, "x_labels": ["2001", "0", "0", "2003", "0", "0", "0", "0", "0", "0", "0", "0", "2004", "0", "2005", "0", "0", "0", "0", "0", "0", "0", "0", "0", "2006", "0", "0", "0", "0", "0", "0", "0", "0", "0", "0", "0", "0", "0", "0", "0", "0", "0", "0", "0", "0", "0", "0", "0", "0", "0", "0", "2007", "0", "0", "0", "0", "0", "0", "0", "0", "0", "0", "0", "0", "0", "0", "0", "0", "0", "0", "0", "0", "2008", "0", "0", "0", "0", "0", "0", "0", "0", "0", "0", "0", "0", "0", "0", "0", "0", "0", "0", "0", "0", "0", "0", "0", "0", "2009", "0", "0", "0", "0", "0", "2010", "0", "0", "0", "0", "0", "0", "0", "0", "0", "0", "0", "0", "0", "0", "2011", "0", "2012", "0", "0", "0", "0", "0", "0", "0", "2013", "0", "0", "2014", "0", "0", "0", "0", "0", "0", "0", "0", "0", "0", "0", "0", "2015", "0", "0", "0", "0", "0", "0", "0", "0", "0", "0", "0", "0", "0", "0", "0", "2016", "0", "0", "0", "0", "0", "0", "0", "0", "2017", "0", "0", "0", "0", "0", "0", "0", "0", "0", "0", "0", "0", "2018", "0", "0", "0", "0", "0", "0", "0", "0", "0", "0", "0", "0", "0", "0", "0", "0", "0", "0", "0", "2019", "0", "0", "0", "0", "0", "0", "0", "0", "0", "0", "0", "0", "0", "0"], "x_labels_major": ["2001", "2003", "2004", "2005", "2006", "2007", "2008", "2009", "2010", "2011", "2012", "2013", "2014", "2015", "2016", "2017", "2018", "2019"], "x_labels_major_count": null, "x_labels_major_every": null, "x_title": null, "xrange": null, "y_label_rotation": 0, "y_labels": null, "y_labels_major": null, "y_labels_major_count": null, "y_labels_major_every": null, "y_title": null, "zero": 440.0, "legends": ["Future Average", "Past Average", "Career Average"]}</script><script type="text/javascript" xlink:href="https://kozea.github.io/pygal.js/2.0.x/pygal-tooltips.min.js"/></defs><title>Mashrafe Mortaza: Future and Past Averages in ODIs</title><g class="graph line-graph vertical"><rect class="background" height="600" width="800" x="0" y="0"/><g class="plot" transform="translate(48, 46)"><rect class="background" height="462.02943725152284" width="732.0" x="0" y="0"/><g class="axis y always_show"><g class="guides"><path class="axis major line" d="M0.000000 453.144256 h732.000000"/><text class="major" x="-5" y="456.6442557659166">0</text><title>0</title></g><g class="guides"><path class="guide line" d="M0.000000 351.249973 h732.000000"/><text class="" x="-5" y="354.7499726741023">100</text><title>100</title></g><g class="guides"><path class="guide line" d="M0.000000 249.355690 h732.000000"/><text class="" x="-5" y="252.85568958228802">200</text><title>200</title></g><g class="guides"><path class="guide line" d="M0.000000 147.461406 h732.000000"/><text class="" x="-5" y="150.96140649047368">300</text><title>300</title></g><g class="guides"><path class="guide line" d="M0.000000 45.567123 h732.000000"/><text class="" x="-5" y="49.06712339865942">400</text><title>400</title></g></g><g class="axis x"><g class="guides"><path class="major line" d="M14.076923 0.000000 v462.029437"/><text class="major" x="14.076923076923077" y="477.02943725152284" transform="rotate(45 14.076923 477.029437)">2001</text></g><g class="guides"><path class="major guide line" d="M23.852564 0.000000 v462.029437"/><text class="major" x="23.8525641025641" y="477.02943725152284" transform="rotate(45 23.852564 477.029437)">2003</text></g><g class="guides"><path class="major guide line" d="M53.179487 0.000000 v462.029437"/><text class="major" x="53.179487179487175" y="477.02943725152284" transform="rotate(45 53.179487 477.029437)">2004</text></g><g class="guides"><path class="major guide line" d="M59.696581 0.000000 v462.029437"/><text class="major" x="59.69658119658119" y="477.02943725152284" transform="rotate(45 59.696581 477.029437)">2005</text></g><g class="guides"><path class="major guide line" d="M92.282051 0.000000 v462.029437"/><text class="major" x="92.28205128205126" y="477.02943725152284" transform="rotate(45 92.282051 477.029437)">2006</text></g><g class="guides"><path class="major guide line" d="M180.262821 0.000000 v462.029437"/><text class="major" x="180.2628205128205" y="477.02943725152284" transform="rotate(45 180.262821 477.029437)">2007</text></g><g class="guides"><path class="major guide line" d="M248.692308 0.000000 v462.029437"/><text class="major" x="248.69230769230768" y="477.02943725152284" transform="rotate(45 248.692308 477.029437)">2008</text></g><g class="guides"><path class="major guide line" d="M330.155983 0.000000 v462.029437"/><text class="major" x="330.1559829059829" y="477.02943725152284" transform="rotate(45 330.155983 477.029437)">2009</text></g><g class="guides"><path class="major guide line" d="M349.707265 0.000000 v462.029437"/><text class="major" x="349.70726495726495" y="477.02943725152284" transform="rotate(45 349.707265 477.029437)">2010</text></g><g class="guides"><path class="major guide line" d="M398.585470 0.000000 v462.029437"/><text class="major" x="398.5854700854701" y="477.02943725152284" transform="rotate(45 398.585470 477.029437)">2011</text></g><g class="guides"><path class="major guide line" d="M405.102564 0.000000 v462.029437"/><text class="major" x="405.1025641025641" y="477.02943725152284" transform="rotate(45 405.102564 477.029437)">2012</text></g><g class="guides"><path class="major guide line" d="M431.170940 0.000000 v462.029437"/><text class="major" x="431.1709401709401" y="477.02943725152284" transform="rotate(45 431.170940 477.029437)">2013</text></g><g class="guides"><path class="major guide line" d="M440.946581 0.000000 v462.029437"/><text class="major" x="440.94658119658123" y="477.02943725152284" transform="rotate(45 440.946581 477.029437)">2014</text></g><g class="guides"><path class="major guide line" d="M483.307692 0.000000 v462.029437"/><text class="major" x="483.30769230769226" y="477.02943725152284" transform="rotate(45 483.307692 477.029437)">2015</text></g><g class="guides"><path class="major guide line" d="M535.444444 0.000000 v462.029437"/><text class="major" x="535.4444444444443" y="477.02943725152284" transform="rotate(45 535.444444 477.029437)">2016</text></g><g class="guides"><path class="major guide line" d="M564.771368 0.000000 v462.029437"/><text class="major" x="564.7713675213676" y="477.02943725152284" transform="rotate(45 564.771368 477.029437)">2017</text></g><g class="guides"><path class="major guide line" d="M607.132479 0.000000 v462.029437"/><text class="major" x="607.1324786324786" y="477.02943725152284" transform="rotate(45 607.132479 477.029437)">2018</text></g><g class="guides"><path class="major guide line" d="M672.303419 0.000000 v462.029437"/><text class="major" x="672.3034188034188" y="477.02943725152284" transform="rotate(45 672.303419 477.029437)">2019</text></g></g><g class="series serie-0 color-0"><path class="line reactive nofill" d="M14.076923 419.590468 L17.335470 419.437627 20.594017 419.366301 23.852564 419.529332 27.111111 419.417248 30.369658 419.570089 33.628205 419.600658 36.886752 419.498763 40.145299 419.753499 43.403846 419.784067 46.662393 419.896151 49.920940 419.967477 53.179487 419.957288 56.438034 419.845204 59.696581 420.089750 62.955128 420.252781 66.213675 420.140697 69.472222 420.171266 72.730769 420.212023 75.989316 420.344486 79.247863 420.354675 82.506410 420.650169 85.764957 420.782631 89.023504 420.976231 92.282051 420.894715 95.540598 420.894715 98.799145 420.884526 102.057692 420.925283 105.316239 421.067935 108.574786 420.904905 111.833333 420.660358 115.091880 420.548275 118.350427 420.660358 121.608974 420.476949 124.867521 420.548275 128.126068 420.161076 131.384615 420.150887 134.643162 420.375054 137.901709 420.487138 141.160256 420.161076 144.418803 419.957288 147.677350 419.142133 150.935897 419.264407 154.194444 419.386680 157.452991 419.305164 160.711538 419.508953 163.970085 419.386680 167.228632 419.060618 170.487179 418.622473 173.745726 418.286222 177.004274 418.194517 180.262821 418.031486 183.521368 417.460878 186.779915 417.552583 190.038462 417.542393 193.297009 417.257089 196.555556 417.481257 199.814103 416.910649 203.072650 417.277468 206.331197 416.931028 209.589744 417.043111 212.848291 417.277468 216.106838 417.522014 219.365385 417.685045 222.623932 417.501636 225.882479 417.522014 229.141026 417.654477 232.399573 417.786940 235.658120 418.082433 238.916667 417.858266 242.175214 418.072244 245.433761 418.255653 248.692308 418.377926 251.950855 418.337169 255.209402 418.439063 258.467949 417.960160 261.726496 418.184327 264.985043 418.163948 268.243590 418.062054 271.502137 418.255653 274.760684 418.123191 278.019231 418.306600 281.277778 417.848076 284.536325 417.634098 287.794872 417.848076 291.053419 417.919402 294.311966 417.817508 297.570513 418.174138 300.829060 418.469631 304.087607 418.530768 307.346154 418.734556 310.604701 418.928156 313.863248 419.294975 317.121795 418.693799 320.380342 418.653041 323.638889 418.530768 326.897436 418.663230 330.155983 418.805882 333.414530 418.612283 336.673077 418.051865 339.931624 417.939781 343.190171 417.318226 346.448718 416.951406 349.707265 416.319662 352.965812 416.615155 356.224359 416.340041 359.482906 416.890270 362.741453 417.257089 366.000000 417.501636 369.258547 417.277468 372.517094 416.655913 375.775641 416.818944 379.034188 416.757807 382.292735 417.114437 385.551282 417.175574 388.809829 417.471067 392.068376 417.613719 395.326923 417.491446 398.585470 417.104248 401.844017 417.053301 405.102564 416.829133 408.361111 417.002354 411.619658 416.757807 414.878205 416.696671 418.136752 416.482693 421.395299 416.513261 424.653846 416.411367 427.912393 416.044547 431.170940 416.217768 434.429487 416.411367 437.688034 415.759243 440.946581 416.492882 444.205128 417.012543 447.463675 417.460878 450.722222 417.358984 453.980769 416.992164 457.239316 416.880080 460.497863 416.737428 463.756410 415.993600 467.014957 416.350230 470.273504 415.912085 473.532051 415.025604 476.790598 414.414239 480.049145 414.363292 483.307692 414.179882 486.566239 412.977529 489.824786 413.650032 493.083333 413.925146 496.341880 413.537948 499.600427 413.945525 502.858974 414.128935 506.117521 413.670410 509.376068 413.874199 512.634615 414.363292 515.893162 413.802873 519.151709 413.762115 522.410256 413.436054 525.668803 413.283212 528.927350 412.243891 532.185897 412.355974 535.444444 412.355974 538.702991 411.703851 541.961538 411.540820 545.220085 411.082296 548.478632 410.532067 551.737179 407.821679 554.995726 407.047282 558.254274 408.290392 561.512821 406.486864 564.771368 407.271450 568.029915 406.028339 571.288462 406.221938 574.547009 404.408220 577.805556 404.662956 581.064103 402.594502 584.322650 401.259687 587.581197 401.412528 590.839744 402.288819 594.098291 403.593066 597.356838 403.002079 600.615385 404.499925 603.873932 406.965767 607.132479 409.034221 610.391026 408.463613 613.649573 406.568379 616.908120 404.377652 620.166667 404.907502 623.425214 404.448978 626.683761 397.907365 629.942308 397.459030 633.200855 395.207166 636.459402 390.448703 639.717949 394.045572 642.976496 392.456021 646.235043 388.828584 649.493590 390.927607 652.752137 389.154646 656.010684 392.894166 659.269231 392.150338 662.527778 396.226109 665.786325 383.489324 669.044872 381.818258 672.303419 368.317265 675.561966 372.525499 678.820513 377.233015 682.079060 373.809367 685.337607 326.795345 688.596154 8.885181 691.854701 56.775495 695.113248 85.305894 698.371795 135.234093 701.630342 167.840263 704.888889 237.128376 708.147436 274.829260 711.405983 331.890059 714.664530 369.590944 717.923077 406.272886"/></g><g class="series serie-1 color-1"><path class="line reactive nofill" d="M14.076923 453.144256 L17.335470 439.897999 20.594017 434.293813 23.852564 423.594914 27.111111 426.987993 30.369658 420.538085 33.628205 419.376490 36.886752 422.239720 40.145299 415.107120 43.403846 414.730111 46.662393 411.775177 49.920940 410.807181 53.179487 412.386543 56.438034 415.372045 59.696581 411.296274 62.955128 408.514560 66.213675 411.489873 69.472222 411.591767 72.730769 411.530631 75.989316 409.757670 79.247863 410.246763 82.506410 406.629516 85.764957 404.999207 89.023504 402.553744 92.282051 405.111291 95.540598 405.875498 98.799145 406.527621 102.057692 407.332586 105.316239 405.997771 108.574786 408.422855 111.833333 411.500062 115.091880 412.845067 118.350427 412.294838 121.608974 414.118745 124.867521 413.650032 128.126068 416.482693 131.384615 416.604966 134.643162 415.392424 137.901709 414.811626 141.160256 416.798565 144.418803 417.949970 147.677350 421.363429 150.935897 420.833579 154.194444 420.375054 157.452991 420.660358 160.711538 419.906341 163.970085 420.324107 167.228632 421.373618 170.487179 422.637107 173.745726 423.462451 177.004274 423.594914 180.262821 423.870028 183.521368 425.011244 186.779915 424.776887 190.038462 424.725940 193.297009 425.133517 196.555556 424.583288 199.814103 425.500337 203.072650 424.685182 206.331197 425.265980 209.589744 425.021434 212.848291 424.532341 216.106838 423.992301 219.365385 423.656050 222.623932 423.890407 225.882479 423.768134 229.141026 423.442072 232.399573 423.126200 235.658120 422.555592 238.916667 422.871464 242.175214 422.463887 245.433761 422.076689 248.692308 421.852521 251.950855 421.893279 255.209402 421.699680 258.467949 422.443508 261.726496 422.046121 264.985043 422.035931 268.243590 422.127636 271.502137 421.811764 274.760684 421.954416 278.019231 421.658922 281.277778 422.219341 284.536325 422.453698 287.794872 422.137825 291.053419 421.995173 294.311966 422.066499 297.570513 421.567217 300.829060 421.139261 304.087607 421.057746 307.346154 420.772442 310.604701 420.497327 313.863248 419.998045 317.121795 420.762253 320.380342 420.782631 323.638889 420.894715 326.897436 420.721495 330.155983 420.538085 333.414530 420.731684 336.673077 421.302292 339.931624 421.404187 343.190171 421.974795 346.448718 422.270288 349.707265 422.769570 352.965812 422.484266 356.224359 422.657486 359.482906 422.137825 362.741453 421.791385 366.000000 421.567217 369.258547 421.709869 372.517094 422.148015 375.775641 422.005363 379.034188 422.025742 382.292735 421.720059 385.551282 421.669112 388.809829 421.414376 392.068376 421.292103 395.326923 421.373618 398.585470 421.638543 401.844017 421.607975 405.102564 421.699680 408.361111 421.536649 411.619658 421.658922 414.878205 421.658922 418.136752 421.750627 421.395299 421.699680 424.653846 421.730248 427.912393 421.903469 431.170940 421.760817 434.429487 421.628354 437.688034 421.944226 440.946581 421.485702 444.205128 421.169830 447.463675 420.894715 450.722222 420.935473 453.980769 421.108693 457.239316 421.149451 460.497863 421.200398 463.756410 421.526460 467.014957 421.302292 470.273504 421.475513 473.532051 421.811764 476.790598 422.025742 480.049145 422.005363 483.307692 422.046121 486.566239 422.443508 489.824786 422.148015 493.083333 421.984984 496.341880 422.056310 499.600427 421.852521 502.858974 421.740438 506.117521 421.832143 509.376068 421.709869 512.634615 421.526460 515.893162 421.618165 519.151709 421.597786 522.410256 421.669112 525.668803 421.679301 528.927350 421.923847 532.185897 421.842332 535.444444 421.791385 538.702991 421.893279 541.961538 421.883090 545.220085 421.964605 548.478632 422.005363 551.737179 422.453698 554.995726 422.494455 558.254274 422.209151 561.512821 422.402751 564.771368 422.239720 568.029915 422.351803 571.288462 422.239720 574.547009 422.361993 577.805556 422.229530 581.064103 422.423129 584.322650 422.463887 587.581197 422.341614 590.839744 422.219341 594.098291 422.015552 597.356838 422.025742 600.615385 421.801574 603.873932 421.444944 607.132479 421.139261 610.391026 421.169830 613.649573 421.312482 616.908120 421.455134 620.166667 421.393997 623.425214 421.373618 626.683761 421.740438 629.942308 421.689491 633.200855 421.679301 636.459402 421.832143 639.717949 421.557028 642.976496 421.557028 646.235043 421.557028 649.493590 421.424565 652.752137 421.414376 656.010684 421.190209 659.269231 421.118883 662.527778 420.894715 665.786325 421.149451 669.044872 421.067935 672.303419 421.180019 675.561966 421.047557 678.820513 420.904905 682.079060 420.833579 685.337607 421.006799 688.596154 421.139261 691.854701 420.966041 695.113248 420.853957 698.371795 420.660358 701.630342 420.538085 704.888889 420.405623 708.147436 420.262971 711.405983 420.048993 714.664530 419.906341 717.923077 419.763689"/></g><g class="series serie-2 color-2"><path class="line reactive nofill" d="M14.076923 419.590468 L17.335470 419.590468 20.594017 419.590468 23.852564 419.590468 27.111111 419.590468 30.369658 419.590468 33.628205 419.590468 36.886752 419.590468 40.145299 419.590468 43.403846 419.590468 46.662393 419.590468 49.920940 419.590468 53.179487 419.590468 56.438034 419.590468 59.696581 419.590468 62.955128 419.590468 66.213675 419.590468 69.472222 419.590468 72.730769 419.590468 75.989316 419.590468 79.247863 419.590468 82.506410 419.590468 85.764957 419.590468 89.023504 419.590468 92.282051 419.590468 95.540598 419.590468 98.799145 419.590468 102.057692 419.590468 105.316239 419.590468 108.574786 419.590468 111.833333 419.590468 115.091880 419.590468 118.350427 419.590468 121.608974 419.590468 124.867521 419.590468 128.126068 419.590468 131.384615 419.590468 134.643162 419.590468 137.901709 419.590468 141.160256 419.590468 144.418803 419.590468 147.677350 419.590468 150.935897 419.590468 154.194444 419.590468 157.452991 419.590468 160.711538 419.590468 163.970085 419.590468 167.228632 419.590468 170.487179 419.590468 173.745726 419.590468 177.004274 419.590468 180.262821 419.590468 183.521368 419.590468 186.779915 419.590468 190.038462 419.590468 193.297009 419.590468 196.555556 419.590468 199.814103 419.590468 203.072650 419.590468 206.331197 419.590468 209.589744 419.590468 212.848291 419.590468 216.106838 419.590468 219.365385 419.590468 222.623932 419.590468 225.882479 419.590468 229.141026 419.590468 232.399573 419.590468 235.658120 419.590468 238.916667 419.590468 242.175214 419.590468 245.433761 419.590468 248.692308 419.590468 251.950855 419.590468 255.209402 419.590468 258.467949 419.590468 261.726496 419.590468 264.985043 419.590468 268.243590 419.590468 271.502137 419.590468 274.760684 419.590468 278.019231 419.590468 281.277778 419.590468 284.536325 419.590468 287.794872 419.590468 291.053419 419.590468 294.311966 419.590468 297.570513 419.590468 300.829060 419.590468 304.087607 419.590468 307.346154 419.590468 310.604701 419.590468 313.863248 419.590468 317.121795 419.590468 320.380342 419.590468 323.638889 419.590468 326.897436 419.590468 330.155983 419.590468 333.414530 419.590468 336.673077 419.590468 339.931624 419.590468 343.190171 419.590468 346.448718 419.590468 349.707265 419.590468 352.965812 419.590468 356.224359 419.590468 359.482906 419.590468 362.741453 419.590468 366.000000 419.590468 369.258547 419.590468 372.517094 419.590468 375.775641 419.590468 379.034188 419.590468 382.292735 419.590468 385.551282 419.590468 388.809829 419.590468 392.068376 419.590468 395.326923 419.590468 398.585470 419.590468 401.844017 419.590468 405.102564 419.590468 408.361111 419.590468 411.619658 419.590468 414.878205 419.590468 418.136752 419.590468 421.395299 419.590468 424.653846 419.590468 427.912393 419.590468 431.170940 419.590468 434.429487 419.590468 437.688034 419.590468 440.946581 419.590468 444.205128 419.590468 447.463675 419.590468 450.722222 419.590468 453.980769 419.590468 457.239316 419.590468 460.497863 419.590468 463.756410 419.590468 467.014957 419.590468 470.273504 419.590468 473.532051 419.590468 476.790598 419.590468 480.049145 419.590468 483.307692 419.590468 486.566239 419.590468 489.824786 419.590468 493.083333 419.590468 496.341880 419.590468 499.600427 419.590468 502.858974 419.590468 506.117521 419.590468 509.376068 419.590468 512.634615 419.590468 515.893162 419.590468 519.151709 419.590468 522.410256 419.590468 525.668803 419.590468 528.927350 419.590468 532.185897 419.590468 535.444444 419.590468 538.702991 419.590468 541.961538 419.590468 545.220085 419.590468 548.478632 419.590468 551.737179 419.590468 554.995726 419.590468 558.254274 419.590468 561.512821 419.590468 564.771368 419.590468 568.029915 419.590468 571.288462 419.590468 574.547009 419.590468 577.805556 419.590468 581.064103 419.590468 584.322650 419.590468 587.581197 419.590468 590.839744 419.590468 594.098291 419.590468 597.356838 419.590468 600.615385 419.590468 603.873932 419.590468 607.132479 419.590468 610.391026 419.590468 613.649573 419.590468 616.908120 419.590468 620.166667 419.590468 623.425214 419.590468 626.683761 419.590468 629.942308 419.590468 633.200855 419.590468 636.459402 419.590468 639.717949 419.590468 642.976496 419.590468 646.235043 419.590468 649.493590 419.590468 652.752137 419.590468 656.010684 419.590468 659.269231 419.590468 662.527778 419.590468 665.786325 419.590468 669.044872 419.590468 672.303419 419.590468 675.561966 419.590468 678.820513 419.590468 682.079060 419.590468 685.337607 419.590468 688.596154 419.590468 691.854701 419.590468 695.113248 419.590468 698.371795 419.590468 701.630342 419.590468 704.888889 419.590468 708.147436 419.590468 711.405983 419.590468 714.664530 419.590468 717.923077 419.590468"/></g></g><g class="titles"><text class="title plot_title" x="400.0" y="26">Mashrafe Mortaza: Future and Past Averages in ODIs</text></g><g class="plot overlay" transform="translate(48, 46)"><g class="series serie-0 color-0"><g class="dots"><desc class="label">266 wickets in 217 innings (1798.1 overs)</desc><circle class="dot reactive tooltip-trigger" cx="14.076923076923077" cy="419.59046834378216" r="2.5"/><desc class="value">32.93</desc><desc class="x top">14.076923076923077</desc><desc class="y top">419.59046834378216</desc><desc class="x_label">2001</desc></g><g class="dots"><desc class="label">262 wickets in 214 innings (1770.5 overs)</desc><circle class="dot reactive tooltip-trigger" cx="23.8525641025641" cy="419.5293317739271" r="2.5"/><desc class="value">32.99</desc><desc class="x top">23.8525641025641</desc><desc class="y top">419.5293317739271</desc><desc class="x_label">2003</desc></g><g class="dots"><desc class="label">253 wickets in 205 innings (1699.5 overs)</desc><circle class="dot reactive tooltip-trigger" cx="53.179487179487175" cy="419.9572877629127" r="2.5"/><desc class="value">32.57</desc><desc class="x top">53.179487179487175</desc><desc class="y top">419.9572877629127</desc><desc class="x_label">2004</desc></g><g class="dots"><desc class="label">251 wickets in 203 innings (1680.5 overs)</desc><circle class="dot reactive tooltip-trigger" cx="59.69658119658119" cy="420.0897503309321" r="2.5"/><desc class="value">32.44</desc><desc class="x top">59.69658119658119</desc><desc class="y top">420.0897503309321</desc><desc class="x_label">2005</desc></g><g class="dots"><desc class="label">244 wickets in 193 innings (1595.0 overs)</desc><circle class="dot reactive tooltip-trigger" cx="92.28205128205126" cy="420.8947151673574" r="2.5"/><desc class="value">31.65</desc><desc class="x top">92.28205128205126</desc><desc class="y top">420.8947151673574</desc><desc class="x_label">2006</desc></g><g class="dots"><desc class="label">195 wickets in 166 innings (1357.2 overs)</desc><circle class="dot reactive tooltip-trigger" cx="180.2628205128205" cy="418.0314858124774" r="2.5"/><desc class="value">34.46</desc><desc class="x top">180.2628205128205</desc><desc class="y top">418.0314858124774</desc><desc class="x_label">2007</desc></g><g class="dots"><desc class="label">173 wickets in 145 innings (1185.1 overs)</desc><circle class="dot reactive tooltip-trigger" cx="248.69230769230768" cy="418.3779263749896" r="2.5"/><desc class="value">34.12</desc><desc class="x top">248.69230769230768</desc><desc class="y top">418.3779263749896</desc><desc class="x_label">2008</desc></g><g class="dots"><desc class="label">145 wickets in 120 innings (973.1 overs)</desc><circle class="dot reactive tooltip-trigger" cx="330.1559829059829" cy="418.80588236397523" r="2.5"/><desc class="value">33.7</desc><desc class="x top">330.1559829059829</desc><desc class="y top">418.80588236397523</desc><desc class="x_label">2009</desc></g><g class="dots"><desc class="label">131 wickets in 114 innings (918.1 overs)</desc><circle class="dot reactive tooltip-trigger" cx="349.70726495726495" cy="416.31966185653494" r="2.5"/><desc class="value">36.14</desc><desc class="x top">349.70726495726495</desc><desc class="y top">416.31966185653494</desc><desc class="x_label">2010</desc></g><g class="dots"><desc class="label">120 wickets in 99 innings (818.3 overs)</desc><circle class="dot reactive tooltip-trigger" cx="398.5854700854701" cy="417.1042478363419" r="2.5"/><desc class="value">35.37</desc><desc class="x left top">398.5854700854701</desc><desc class="y left top">417.1042478363419</desc><desc class="x_label">2011</desc></g><g class="dots"><desc class="label">115 wickets in 97 innings (800.3 overs)</desc><circle class="dot reactive tooltip-trigger" cx="405.1025641025641" cy="416.829133271994" r="2.5"/><desc class="value">35.64</desc><desc class="x left top">405.1025641025641</desc><desc class="y left top">416.829133271994</desc><desc class="x_label">2012</desc></g><g class="dots"><desc class="label">104 wickets in 89 innings (729.4 overs)</desc><circle class="dot reactive tooltip-trigger" cx="431.1709401709401" cy="416.2177675734431" r="2.5"/><desc class="value">36.24</desc><desc class="x left top">431.1709401709401</desc><desc class="y left top">416.2177675734431</desc><desc class="x_label">2013</desc></g><g class="dots"><desc class="label">101 wickets in 86 innings (707.0 overs)</desc><circle class="dot reactive tooltip-trigger" cx="440.94658119658123" cy="416.492882137791" r="2.5"/><desc class="value">35.97</desc><desc class="x left top">440.94658119658123</desc><desc class="y left top">416.492882137791</desc><desc class="x_label">2014</desc></g><g class="dots"><desc class="label">83 wickets in 73 innings (604.0 overs)</desc><circle class="dot reactive tooltip-trigger" cx="483.30769230769226" cy="414.17988191160686" r="2.5"/><desc class="value">38.24</desc><desc class="x left top">483.30769230769226</desc><desc class="y left top">414.17988191160686</desc><desc class="x_label">2015</desc></g><g class="dots"><desc class="label">62 wickets in 57 innings (472.0 overs)</desc><circle class="dot reactive tooltip-trigger" cx="535.4444444444443" cy="412.3559742442634" r="2.5"/><desc class="value">40.03</desc><desc class="x left top">535.4444444444443</desc><desc class="y left top">412.3559742442634</desc><desc class="x_label">2016</desc></g><g class="dots"><desc class="label">47 wickets in 48 innings (390.2 overs)</desc><circle class="dot reactive tooltip-trigger" cx="564.7713675213676" cy="407.2714495179818" r="2.5"/><desc class="value">45.02</desc><desc class="x left top">564.7713675213676</desc><desc class="y left top">407.2714495179818</desc><desc class="x_label">2017</desc></g><g class="dots"><desc class="label">34 wickets in 35 innings (278.3 overs)</desc><circle class="dot reactive tooltip-trigger" cx="607.1324786324786" cy="409.0342206154702" r="2.5"/><desc class="value">43.29</desc><desc class="x left top">607.1324786324786</desc><desc class="y left top">409.0342206154702</desc><desc class="x_label">2018</desc></g><g class="dots"><desc class="label">8 wickets in 15 innings (114.3 overs)</desc><circle class="dot reactive tooltip-trigger" cx="672.3034188034188" cy="368.3172650919812" r="2.5"/><desc class="value">83.25</desc><desc class="x left top">672.3034188034188</desc><desc class="y left top">368.3172650919812</desc><desc class="x_label">2019</desc></g></g><g class="series serie-1 color-1"><g class="dots"><desc class="label">0 wickets over 0 innings</desc><circle class="dot reactive tooltip-trigger" cx="14.076923076923077" cy="453.1442557659166" r="2.5"/><desc class="value">0</desc><desc class="x top">14.076923076923077</desc><desc class="y top">453.1442557659166</desc><desc class="x_label">2001</desc></g><g class="dots"><desc class="label">4 wickets in 3 innings (27.2 overs)</desc><circle class="dot reactive tooltip-trigger" cx="23.8525641025641" cy="423.59491366929046" r="2.5"/><desc class="value">29</desc><desc class="x top">23.8525641025641</desc><desc class="y top">423.59491366929046</desc><desc class="x_label">2003</desc></g><g class="dots"><desc class="label">13 wickets in 12 innings (98.2 overs)</desc><circle class="dot reactive tooltip-trigger" cx="53.179487179487175" cy="412.38654252919093" r="2.5"/><desc class="value">40</desc><desc class="x top">53.179487179487175</desc><desc class="y top">412.38654252919093</desc><desc class="x_label">2004</desc></g><g class="dots"><desc class="label">15 wickets in 14 innings (117.2 overs)</desc><circle class="dot reactive tooltip-trigger" cx="59.69658119658119" cy="411.2962737001085" r="2.5"/><desc class="value">41.07</desc><desc class="x top">59.69658119658119</desc><desc class="y top">411.2962737001085</desc><desc class="x_label">2005</desc></g><g class="dots"><desc class="label">22 wickets in 24 innings (203.1 overs)</desc><circle class="dot reactive tooltip-trigger" cx="92.28205128205126" cy="405.11129071643535" r="2.5"/><desc class="value">47.14</desc><desc class="x top">92.28205128205126</desc><desc class="y top">405.11129071643535</desc><desc class="x_label">2006</desc></g><g class="dots"><desc class="label">71 wickets in 51 innings (440.5 overs)</desc><circle class="dot reactive tooltip-trigger" cx="180.2628205128205" cy="423.8700282336384" r="2.5"/><desc class="value">28.73</desc><desc class="x top">180.2628205128205</desc><desc class="y top">423.8700282336384</desc><desc class="x_label">2007</desc></g><g class="dots"><desc class="label">93 wickets in 72 innings (613.0 overs)</desc><circle class="dot reactive tooltip-trigger" cx="248.69230769230768" cy="421.85252142842046" r="2.5"/><desc class="value">30.71</desc><desc class="x top">248.69230769230768</desc><desc class="y top">421.85252142842046</desc><desc class="x_label">2008</desc></g><g class="dots"><desc class="label">121 wickets in 97 innings (825.0 overs)</desc><circle class="dot reactive tooltip-trigger" cx="330.1559829059829" cy="420.5380851765361" r="2.5"/><desc class="value">32</desc><desc class="x top">330.1559829059829</desc><desc class="y top">420.5380851765361</desc><desc class="x_label">2009</desc></g><g class="dots"><desc class="label">135 wickets in 103 innings (880.0 overs)</desc><circle class="dot reactive tooltip-trigger" cx="349.70726495726495" cy="422.76956997624677" r="2.5"/><desc class="value">29.81</desc><desc class="x top">349.70726495726495</desc><desc class="y top">422.76956997624677</desc><desc class="x_label">2010</desc></g><g class="dots"><desc class="label">146 wickets in 118 innings (979.4 overs)</desc><circle class="dot reactive tooltip-trigger" cx="398.5854700854701" cy="421.6385434339276" r="2.5"/><desc class="value">30.92</desc><desc class="x left top">398.5854700854701</desc><desc class="y left top">421.6385434339276</desc><desc class="x_label">2011</desc></g><g class="dots"><desc class="label">151 wickets in 120 innings (997.4 overs)</desc><circle class="dot reactive tooltip-trigger" cx="405.1025641025641" cy="421.69968000378276" r="2.5"/><desc class="value">30.86</desc><desc class="x left top">405.1025641025641</desc><desc class="y left top">421.69968000378276</desc><desc class="x_label">2012</desc></g><g class="dots"><desc class="label">162 wickets in 128 innings (1068.3 overs)</desc><circle class="dot reactive tooltip-trigger" cx="431.1709401709401" cy="421.76081657363784" r="2.5"/><desc class="value">30.8</desc><desc class="x left top">431.1709401709401</desc><desc class="y left top">421.76081657363784</desc><desc class="x_label">2013</desc></g><g class="dots"><desc class="label">165 wickets in 131 innings (1091.1 overs)</desc><circle class="dot reactive tooltip-trigger" cx="440.94658119658123" cy="421.4857020092899" r="2.5"/><desc class="value">31.07</desc><desc class="x left top">440.94658119658123</desc><desc class="y left top">421.4857020092899</desc><desc class="x_label">2014</desc></g><g class="dots"><desc class="label">183 wickets in 144 innings (1194.1 overs)</desc><circle class="dot reactive tooltip-trigger" cx="483.30769230769226" cy="422.0461205662949" r="2.5"/><desc class="value">30.52</desc><desc class="x left top">483.30769230769226</desc><desc class="y left top">422.0461205662949</desc><desc class="x_label">2015</desc></g><g class="dots"><desc class="label">204 wickets in 160 innings (1326.1 overs)</desc><circle class="dot reactive tooltip-trigger" cx="535.4444444444443" cy="421.7913848585654" r="2.5"/><desc class="value">30.77</desc><desc class="x left top">535.4444444444443</desc><desc class="y left top">421.7913848585654</desc><desc class="x_label">2016</desc></g><g class="dots"><desc class="label">219 wickets in 169 innings (1407.5 overs)</desc><circle class="dot reactive tooltip-trigger" cx="564.7713675213676" cy="422.2397197041694" r="2.5"/><desc class="value">30.33</desc><desc class="x left top">564.7713675213676</desc><desc class="y left top">422.2397197041694</desc><desc class="x_label">2017</desc></g><g class="dots"><desc class="label">232 wickets in 182 innings (1519.4 overs)</desc><circle class="dot reactive tooltip-trigger" cx="607.1324786324786" cy="421.13926144677777" r="2.5"/><desc class="value">31.41</desc><desc class="x left top">607.1324786324786</desc><desc class="y left top">421.13926144677777</desc><desc class="x_label">2018</desc></g><g class="dots"><desc class="label">258 wickets in 202 innings (1683.4 overs)</desc><circle class="dot reactive tooltip-trigger" cx="672.3034188034188" cy="421.18001916001447" r="2.5"/><desc class="value">31.37</desc><desc class="x left top">672.3034188034188</desc><desc class="y left top">421.18001916001447</desc><desc class="x_label">2019</desc></g></g><g class="series serie-2 color-2"/></g><g class="plot text-overlay" transform="translate(48, 46)"><g class="series serie-0 color-0"/><g class="series serie-1 color-1"/><g class="series serie-2 color-2"/></g><g class="plot tooltip-overlay" transform="translate(48, 46)"><g class="tooltip" style="opacity: 0" transform="translate(0 0)"><rect class="tooltip-box" height="0" rx="10" ry="10" width="0"/><g class="text"/></g></g><g class="legends" transform="translate(58, 545)"><g class="legend reactive activate-serie" id="activate-serie-0"><rect class="color-0 reactive" height="12" width="12" x="0.0" y="1.0"/><text x="17.0" y="11.2">Future Average</text></g><g class="legend reactive activate-serie" id="activate-serie-1"><rect class="color-1 reactive" height="12" width="12" x="366.0" y="1.0"/><text x="383.0" y="11.2">Past Average</text></g><g class="legend reactive activate-serie" id="activate-serie-2"><rect class="color-2 reactive" height="12" width="12" x="0.0" y="22.0"/><text x="17.0" y="32.2">Career Average</text></g></g></g></svg>