<?xml version='1.0' encoding='utf-8'?>
<svg xmlns:xlink="http://www.w3.org/1999/xlink" xmlns="http://www.w3.org/2000/svg" id="chart-f4e0d231-07b4-4839-9b98-2127db32f434" class="pygal-chart" viewBox="0 0 800 600"><!--Generated with pygal 2.4.0 (lxml) ©Kozea 2012-2016 on 2019-08-04--><!--http://pygal.org--><!--http://github.com/Kozea/pygal--><defs><style type="text/css">#chart-f4e0d231-07b4-4839-9b98-2127db32f434{-webkit-user-select:none;-webkit-font-smoothing:antialiased;font-family:Consolas,"Liberation Mono",Menlo,Courier,monospace}#chart-f4e0d231-07b4-4839-9b98-2127db32f434 .title{font-family:Consolas,"Liberation Mono",Menlo,Courier,monospace;font-size:16px}#chart-f4e0d231-07b4-4839-9b98-2127db32f434 .legends .legend text{font-family:Consolas,"Liberation Mono",Menlo,Courier,monospace;font-size:14px}#chart-f4e0d231-07b4-4839-9b98-2127db32f434 .axis text{font-family:Consolas,"Liberation Mono",Menlo,Courier,monospace;font-size:10px}#chart-f4e0d231-07b4-4839-9b98-2127db32f434 .axis text.major{font-family:Consolas,"Liberation Mono",Menlo,Courier,monospace;font-size:10px}#chart-f4e0d231-07b4-4839-9b98-2127db32f434 .text-overlay text.value{font-family:Consolas,"Liberation Mono",Menlo,Courier,monospace;font-size:16px}#chart-f4e0d231-07b4-4839-9b98-2127db32f434 .text-overlay text.label{font-family:Consolas,"Liberation Mono",Menlo,Courier,monospace;font-size:10px}#chart-f4e0d231-07b4-4839-9b98-2127db32f434 .tooltip{font-family:Consolas,"Liberation Mono",Menlo,Courier,monospace;font-size:14px}#chart-f4e0d231-07b4-4839-9b98-2127db32f434 text.no_data{font-family:Consolas,"Liberation Mono",Menlo,Courier,monospace;font-size:64px}
#chart-f4e0d231-07b4-4839-9b98-2127db32f434{background-color:rgba(249,249,249,1)}#chart-f4e0d231-07b4-4839-9b98-2127db32f434 path,#chart-f4e0d231-07b4-4839-9b98-2127db32f434 line,#chart-f4e0d231-07b4-4839-9b98-2127db32f434 rect,#chart-f4e0d231-07b4-4839-9b98-2127db32f434 circle{-webkit-transition:150ms;-moz-transition:150ms;transition:150ms}#chart-f4e0d231-07b4-4839-9b98-2127db32f434 .graph &gt; .background{fill:rgba(249,249,249,1)}#chart-f4e0d231-07b4-4839-9b98-2127db32f434 .plot &gt; .background{fill:rgba(255,255,255,1)}#chart-f4e0d231-07b4-4839-9b98-2127db32f434 .graph{fill:rgba(0,0,0,.87)}#chart-f4e0d231-07b4-4839-9b98-2127db32f434 text.no_data{fill:rgba(0,0,0,1)}#chart-f4e0d231-07b4-4839-9b98-2127db32f434 .title{fill:rgba(0,0,0,1)}#chart-f4e0d231-07b4-4839-9b98-2127db32f434 .legends .legend text{fill:rgba(0,0,0,.87)}#chart-f4e0d231-07b4-4839-9b98-2127db32f434 .legends .legend:hover text{fill:rgba(0,0,0,1)}#chart-f4e0d231-07b4-4839-9b98-2127db32f434 .axis .line{stroke:rgba(0,0,0,1)}#chart-f4e0d231-07b4-4839-9b98-2127db32f434 .axis .guide.line{stroke:rgba(0,0,0,.54)}#chart-f4e0d231-07b4-4839-9b98-2127db32f434 .axis .major.line{stroke:rgba(0,0,0,.87)}#chart-f4e0d231-07b4-4839-9b98-2127db32f434 .axis text.major{fill:rgba(0,0,0,1)}#chart-f4e0d231-07b4-4839-9b98-2127db32f434 .axis.y .guides:hover .guide.line,#chart-f4e0d231-07b4-4839-9b98-2127db32f434 .line-graph .axis.x .guides:hover .guide.line,#chart-f4e0d231-07b4-4839-9b98-2127db32f434 .stackedline-graph .axis.x .guides:hover .guide.line,#chart-f4e0d231-07b4-4839-9b98-2127db32f434 .xy-graph .axis.x .guides:hover .guide.line{stroke:rgba(0,0,0,1)}#chart-f4e0d231-07b4-4839-9b98-2127db32f434 .axis .guides:hover text{fill:rgba(0,0,0,1)}#chart-f4e0d231-07b4-4839-9b98-2127db32f434 .reactive{fill-opacity:.7;stroke-opacity:.8}#chart-f4e0d231-07b4-4839-9b98-2127db32f434 .ci{stroke:rgba(0,0,0,.87)}#chart-f4e0d231-07b4-4839-9b98-2127db32f434 .reactive.active,#chart-f4e0d231-07b4-4839-9b98-2127db32f434 .active .reactive{fill-opacity:.8;stroke-opacity:.9;stroke-width:4}#chart-f4e0d231-07b4-4839-9b98-2127db32f434 .ci .reactive.active{stroke-width:1.5}#chart-f4e0d231-07b4-4839-9b98-2127db32f434 .series text{fill:rgba(0,0,0,1)}#chart-f4e0d231-07b4-4839-9b98-2127db32f434 .tooltip rect{fill:rgba(255,255,255,1);stroke:rgba(0,0,0,1);-webkit-transition:opacity 150ms;-moz-transition:opacity 150ms;transition:opacity 150ms}#chart-f4e0d231-07b4-4839-9b98-2127db32f434 .tooltip .label{fill:rgba(0,0,0,.87)}#chart-f4e0d231-07b4-4839-9b98-2127db32f434 .tooltip .label{fill:rgba(0,0,0,.87)}#chart-f4e0d231-07b4-4839-9b98-2127db32f434 .tooltip .legend{font-size:.8em;fill:rgba(0,0,0,.54)}#chart-f4e0d231-07b4-4839-9b98-2127db32f434 .tooltip .x_label{font-size:.6em;fill:rgba(0,0,0,1)}#chart-f4e0d231-07b4-4839-9b98-2127db32f434 .tooltip .xlink{font-size:.5em;text-decoration:underline}#chart-f4e0d231-07b4-4839-9b98-2127db32f434 .tooltip .value{font-size:1.5em}#chart-f4e0d231-07b4-4839-9b98-2127db32f434 .bound{font-size:.5em}#chart-f4e0d231-07b4-4839-9b98-2127db32f434 .max-value{font-size:.75em;fill:rgba(0,0,0,.54)}#chart-f4e0d231-07b4-4839-9b98-2127db32f434 .map-element{fill:rgba(255,255,255,1);stroke:rgba(0,0,0,.54) !important}#chart-f4e0d231-07b4-4839-9b98-2127db32f434 .map-element .reactive{fill-opacity:inherit;stroke-opacity:inherit}#chart-f4e0d231-07b4-4839-9b98-2127db32f434 .color-0,#chart-f4e0d231-07b4-4839-9b98-2127db32f434 .color-0 a:visited{stroke:red;fill:red}#chart-f4e0d231-07b4-4839-9b98-2127db32f434 .color-1,#chart-f4e0d231-07b4-4839-9b98-2127db32f434 .color-1 a:visited{stroke:blue;fill:blue}#chart-f4e0d231-07b4-4839-9b98-2127db32f434 .color-2,#chart-f4e0d231-07b4-4839-9b98-2127db32f434 .color-2 a:visited{stroke:green;fill:green}#chart-f4e0d231-07b4-4839-9b98-2127db32f434 .text-overlay .color-0 text{fill:white}#chart-f4e0d231-07b4-4839-9b98-2127db32f434 .text-overlay .color-1 text{fill:white}#chart-f4e0d231-07b4-4839-9b98-2127db32f434 .text-overlay .color-2 text{fill:white}
#chart-f4e0d231-07b4-4839-9b98-2127db32f434 text.no_data{text-anchor:middle}#chart-f4e0d231-07b4-4839-9b98-2127db32f434 .guide.line{fill:none}#chart-f4e0d231-07b4-4839-9b98-2127db32f434 .centered{text-anchor:middle}#chart-f4e0d231-07b4-4839-9b98-2127db32f434 .title{text-anchor:middle}#chart-f4e0d231-07b4-4839-9b98-2127db32f434 .legends .legend text{fill-opacity:1}#chart-f4e0d231-07b4-4839-9b98-2127db32f434 .axis.x text{text-anchor:middle}#chart-f4e0d231-07b4-4839-9b98-2127db32f434 .axis.x:not(.web) text[transform]{text-anchor:start}#chart-f4e0d231-07b4-4839-9b98-2127db32f434 .axis.x:not(.web) text[transform].backwards{text-anchor:end}#chart-f4e0d231-07b4-4839-9b98-2127db32f434 .axis.y text{text-anchor:end}#chart-f4e0d231-07b4-4839-9b98-2127db32f434 .axis.y text[transform].backwards{text-anchor:start}#chart-f4e0d231-07b4-4839-9b98-2127db32f434 .axis.y2 text{text-anchor:start}#chart-f4e0d231-07b4-4839-9b98-2127db32f434 .axis.y2 text[transform].backwards{text-anchor:end}#chart-f4e0d231-07b4-4839-9b98-2127db32f434 .axis .guide.line{stroke-dasharray:4,4}#chart-f4e0d231-07b4-4839-9b98-2127db32f434 .axis .major.guide.line{stroke-dasharray:6,6}#chart-f4e0d231-07b4-4839-9b98-2127db32f434 .horizontal .axis.y .guide.line,#chart-f4e0d231-07b4-4839-9b98-2127db32f434 .horizontal .axis.y2 .guide.line,#chart-f4e0d231-07b4-4839-9b98-2127db32f434 .vertical .axis.x .guide.line{opacity:0}#chart-f4e0d231-07b4-4839-9b98-2127db32f434 .horizontal .axis.always_show .guide.line,#chart-f4e0d231-07b4-4839-9b98-2127db32f434 .vertical .axis.always_show .guide.line{opacity:1 !important}#chart-f4e0d231-07b4-4839-9b98-2127db32f434 .axis.y .guides:hover .guide.line,#chart-f4e0d231-07b4-4839-9b98-2127db32f434 .axis.y2 .guides:hover .guide.line,#chart-f4e0d231-07b4-4839-9b98-2127db32f434 .axis.x .guides:hover .guide.line{opacity:1}#chart-f4e0d231-07b4-4839-9b98-2127db32f434 .axis .guides:hover text{opacity:1}#chart-f4e0d231-07b4-4839-9b98-2127db32f434 .nofill{fill:none}#chart-f4e0d231-07b4-4839-9b98-2127db32f434 .subtle-fill{fill-opacity:.2}#chart-f4e0d231-07b4-4839-9b98-2127db32f434 .dot{stroke-width:1px;fill-opacity:1}#chart-f4e0d231-07b4-4839-9b98-2127db32f434 .dot.active{stroke-width:5px}#chart-f4e0d231-07b4-4839-9b98-2127db32f434 .dot.negative{fill:transparent}#chart-f4e0d231-07b4-4839-9b98-2127db32f434 text,#chart-f4e0d231-07b4-4839-9b98-2127db32f434 tspan{stroke:none !important}#chart-f4e0d231-07b4-4839-9b98-2127db32f434 .series text.active{opacity:1}#chart-f4e0d231-07b4-4839-9b98-2127db32f434 .tooltip rect{fill-opacity:.95;stroke-width:.5}#chart-f4e0d231-07b4-4839-9b98-2127db32f434 .tooltip text{fill-opacity:1}#chart-f4e0d231-07b4-4839-9b98-2127db32f434 .showable{visibility:hidden}#chart-f4e0d231-07b4-4839-9b98-2127db32f434 .showable.shown{visibility:visible}#chart-f4e0d231-07b4-4839-9b98-2127db32f434 .gauge-background{fill:rgba(229,229,229,1);stroke:none}#chart-f4e0d231-07b4-4839-9b98-2127db32f434 .bg-lines{stroke:rgba(249,249,249,1);stroke-width:2px}</style><script type="text/javascript">window.pygal = window.pygal || {};window.pygal.config = window.pygal.config || {};window.pygal.config['f4e0d231-07b4-4839-9b98-2127db32f434'] = {"allow_interruptions": false, "box_mode": "extremes", "classes": ["pygal-chart"], "css": ["file://style.css", "file://graph.css"], "defs": [], "disable_xml_declaration": false, "dots_size": 2.5, "dynamic_print_values": false, "explicit_size": false, "fill": false, "force_uri_protocol": "https", "formatter": null, "half_pie": false, "height": 600, "include_x_axis": false, "inner_radius": 0, "interpolate": null, "interpolation_parameters": {}, "interpolation_precision": 250, "inverse_y_axis": false, "js": ["//kozea.github.io/pygal.js/2.0.x/pygal-tooltips.min.js"], "legend_at_bottom": true, "legend_at_bottom_columns": null, "legend_box_size": 12, "logarithmic": false, "margin": 20, "margin_bottom": null, "margin_left": null, "margin_right": null, "margin_top": null, "max_scale": 16, "min_scale": 4, "missing_value_fill_truncation": "x", "no_data_text": "No data", "no_prefix": false, "order_min": null, "pretty_print": false, "print_labels": false, "print_values": false, "print_values_position": "center", "print_zeroes": true, "range": null, "rounded_bars": null, "secondary_range": null, "show_dots": true, "show_legend": true, "show_minor_x_labels": false, "show_minor_y_labels": true, "show_only_major_dots": false, "show_x_guides": false, "show_x_labels": true, "show_y_guides": true, "show_y_labels": true, "spacing": 10, "stack_from_top": false, "strict": false, "stroke": true, "stroke_style": null, "style": {"background": "rgba(249, 249, 249, 1)", "ci_colors": [], "colors": ["red", "blue", "green", "#a3a3a3"], "font_family": "Consolas, \"Liberation Mono\", Menlo, Courier, monospace", "foreground": "rgba(0, 0, 0, .87)", "foreground_strong": "rgba(0, 0, 0, 1)", "foreground_subtle": "rgba(0, 0, 0, .54)", "guide_stroke_dasharray": "4,4", "label_font_family": "Consolas, \"Liberation Mono\", Menlo, Courier, monospace", "label_font_size": 10, "legend_font_family": "Consolas, \"Liberation Mono\", Menlo, Courier, monospace", "legend_font_size": 14, "major_guide_stroke_dasharray": "6,6", "major_label_font_family": "Consolas, \"Liberation Mono\", Menlo, Courier, monospace", "major_label_font_size": 10, "no_data_font_family": "Consolas, \"Liberation Mono\", Menlo, Courier, monospace", "no_data_font_size": 64, "opacity": ".7", "opacity_hover": ".8", "plot_background": "rgba(255, 255, 255, 1)", "stroke_opacity": ".8", "stroke_opacity_hover": ".9", "title_font_family": "Consolas, \"Liberation Mono\", Menlo, Courier, monospace", "title_font_size": 16, "tooltip_font_family": "Consolas, \"Liberation Mono\", Menlo, Courier, monospace", "tooltip_font_size": 14, "transition": "150ms", "value_background": "rgba(229, 229, 229, 1)", "value_colors": [], "value_font_family": "Consolas, \"Liberation Mono\", Menlo, Courier, monospace", "value_font_size": 16, "value_label_font_family": "Consolas, \"Liberation Mono\", Menlo, Courier, monospace", "value_label_font_size": 10}, "title": "MD Marshall: Future and Past Averages in ODIs", "tooltip_border_radius": 10, "tooltip_fancy_mode": true, "truncate_label": null, "truncate_legend": null, "width": 800, "x_label_rotation": 45, "x_labels": ["1980", "0", "0", "0", "0", "1981", "0", "0", "0", "0", "1982", "0", "0", "1983", "0", "0", "0", "0", "0", "0", "0", "0", "0", "0", "0", "0", "0", "1984", "0", "0", "0", "0", "0", "0", "0", "0", "0", "0", "0", "0", "0", "0", "0", "0", "1985", "0", "0", "0", "0", "0", "0", "0", "0", "0", "0", "0", "0", "0", "0", "0", "0", "0", "0", "0", "0", "0", "0", "1986", "0", "0", "0", "0", "0", "0", "0", "0", "0", "0", "1987", "0", "0", "0", "0", "0", "0", "0", "1988", "0", "0", "0", "0", "0", "0", "0", "1989", "0", "0", "0", "0", "0", "0", "0", "0", "0", "0", "0", "0", "0", "0", "1990", "0", "0", "0", "0", "1991", "0", "0", "0", "0", "0", "0", "0", "0", "0", "0", "0", "1992", "0", "0", "0", "0", "0", "0", "0"], "x_labels_major": ["1980", "1981", "1982", "1983", "1984", "1985", "1986", "1987", "1988", "1989", "1990", "1991", "1992"], "x_labels_major_count": null, "x_labels_major_every": null, "x_title": null, "xrange": null, "y_label_rotation": 0, "y_labels": null, "y_labels_major": null, "y_labels_major_count": null, "y_labels_major_every": null, "y_title": null, "zero": 130.0, "legends": ["Future Average", "Past Average", "Career Average"]}</script><script type="text/javascript" xlink:href="https://kozea.github.io/pygal.js/2.0.x/pygal-tooltips.min.js"/></defs><title>MD Marshall: Future and Past Averages in ODIs</title><g class="graph line-graph vertical"><rect class="background" height="600" width="800" x="0" y="0"/><g class="plot" transform="translate(48, 46)"><rect class="background" height="462.02943725152284" width="732.0" x="0" y="0"/><g class="axis y always_show"><g class="guides"><path class="axis major line" d="M0.000000 453.144256 h732.000000"/><text class="major" x="-5" y="456.6442557659166">0</text><title>0</title></g><g class="guides"><path class="guide line" d="M0.000000 417.025632 h732.000000"/><text class="" x="-5" y="420.5256318406881">10</text><title>10</title></g><g class="guides"><path class="guide line" d="M0.000000 380.907008 h732.000000"/><text class="" x="-5" y="384.40700791545964">20</text><title>20</title></g><g class="guides"><path class="guide line" d="M0.000000 344.788384 h732.000000"/><text class="" x="-5" y="348.2883839902311">30</text><title>30</title></g><g class="guides"><path class="guide line" d="M0.000000 308.669760 h732.000000"/><text class="" x="-5" y="312.1697600650026">40</text><title>40</title></g><g class="guides"><path class="major guide line" d="M0.000000 272.551136 h732.000000"/><text class="major" x="-5" y="276.05113613977414">50</text><title>50</title></g><g class="guides"><path class="guide line" d="M0.000000 236.432512 h732.000000"/><text class="" x="-5" y="239.93251221454568">60</text><title>60</title></g><g class="guides"><path class="guide line" d="M0.000000 200.313888 h732.000000"/><text class="" x="-5" y="203.81388828931716">70</text><title>70</title></g><g class="guides"><path class="guide line" d="M0.000000 164.195264 h732.000000"/><text class="" x="-5" y="167.6952643640887">80</text><title>80</title></g><g class="guides"><path class="guide line" d="M0.000000 128.076640 h732.000000"/><text class="" x="-5" y="131.57664043886024">90</text><title>90</title></g><g class="guides"><path class="major guide line" d="M0.000000 91.958017 h732.000000"/><text class="major" x="-5" y="95.45801651363172">100</text><title>100</title></g><g class="guides"><path class="guide line" d="M0.000000 55.839393 h732.000000"/><text class="" x="-5" y="59.33939258840326">110</text><title>110</title></g><g class="guides"><path class="guide line" d="M0.000000 19.720769 h732.000000"/><text class="" x="-5" y="23.220768663174738">120</text><title>120</title></g></g><g class="axis x"><g class="guides"><path class="major line" d="M14.076923 0.000000 v462.029437"/><text class="major" x="14.076923076923077" y="477.02943725152284" transform="rotate(45 14.076923 477.029437)">1980</text></g><g class="guides"><path class="major guide line" d="M40.537305 0.000000 v462.029437"/><text class="major" x="40.5373048004627" y="477.02943725152284" transform="rotate(45 40.537305 477.029437)">1981</text></g><g class="guides"><path class="major guide line" d="M66.997687 0.000000 v462.029437"/><text class="major" x="66.9976865240023" y="477.02943725152284" transform="rotate(45 66.997687 477.029437)">1982</text></g><g class="guides"><path class="major guide line" d="M82.873916 0.000000 v462.029437"/><text class="major" x="82.87391555812609" y="477.02943725152284" transform="rotate(45 82.873916 477.029437)">1983</text></g><g class="guides"><path class="major guide line" d="M156.962984 0.000000 v462.029437"/><text class="major" x="156.962984384037" y="477.02943725152284" transform="rotate(45 156.962984 477.029437)">1984</text></g><g class="guides"><path class="major guide line" d="M246.928282 0.000000 v462.029437"/><text class="major" x="246.92828224407174" y="477.02943725152284" transform="rotate(45 246.928282 477.029437)">1985</text></g><g class="guides"><path class="major guide line" d="M368.646038 0.000000 v462.029437"/><text class="major" x="368.64603817235394" y="477.02943725152284" transform="rotate(45 368.646038 477.029437)">1986</text></g><g class="guides"><path class="major guide line" d="M426.858878 0.000000 v462.029437"/><text class="major" x="426.8588779641411" y="477.02943725152284" transform="rotate(45 426.858878 477.029437)">1987</text></g><g class="guides"><path class="major guide line" d="M469.195489 0.000000 v462.029437"/><text class="major" x="469.1954887218045" y="477.02943725152284" transform="rotate(45 469.195489 477.029437)">1988</text></g><g class="guides"><path class="major guide line" d="M511.532099 0.000000 v462.029437"/><text class="major" x="511.53209947946783" y="477.02943725152284" transform="rotate(45 511.532099 477.029437)">1989</text></g><g class="guides"><path class="major guide line" d="M590.913245 0.000000 v462.029437"/><text class="major" x="590.9132446500868" y="477.02943725152284" transform="rotate(45 590.913245 477.029437)">1990</text></g><g class="guides"><path class="major guide line" d="M617.373626 0.000000 v462.029437"/><text class="major" x="617.3736263736264" y="477.02943725152284" transform="rotate(45 617.373626 477.029437)">1991</text></g><g class="guides"><path class="major guide line" d="M680.878543 0.000000 v462.029437"/><text class="major" x="680.8785425101214" y="477.02943725152284" transform="rotate(45 680.878543 477.029437)">1992</text></g></g><g class="series serie-0 color-0"><path class="line reactive nofill" d="M14.076923 355.768446 L19.368999 354.504294 24.661076 354.937717 29.953152 355.732327 35.245228 356.635293 40.537305 357.285428 45.829381 356.635293 51.121457 357.718851 56.413534 356.888123 61.705610 356.382462 66.997687 355.154429 72.289763 354.757124 77.581839 354.901599 82.873916 355.298904 88.165992 355.949039 93.458068 355.840683 98.750145 355.804564 104.042221 355.660090 109.334297 355.479497 114.626374 354.973836 119.918450 353.998633 125.210526 352.481651 130.502603 351.578685 135.794679 350.350652 141.086755 350.495127 146.378832 351.289736 151.670908 351.795397 156.962984 352.048227 162.255061 351.109143 167.547137 351.073025 172.839213 350.386771 178.131290 351.000787 183.423366 349.230975 188.715442 349.014263 194.007519 349.628280 199.299595 348.653077 204.591671 347.569518 209.883748 347.497281 215.175824 348.942026 220.467901 350.639601 225.759977 347.930704 231.052053 346.811027 236.344130 346.485959 241.636206 346.485959 246.928282 344.643909 252.220359 344.716147 257.512435 346.088654 262.804511 346.413722 268.096588 346.883264 273.388664 347.208332 278.680740 347.352806 283.972817 346.197010 289.264893 345.221807 294.556969 345.908061 299.849046 346.919383 305.141122 348.328009 310.433198 349.808873 315.725275 350.350652 321.017351 351.398092 326.309427 351.289736 331.601504 351.434211 336.893580 351.506448 342.185656 352.987312 347.477733 354.937717 352.769809 356.563055 358.061885 354.612650 363.353962 355.804564 368.646038 354.504294 373.938115 350.459008 379.230191 353.240142 384.522267 349.881110 389.814344 345.871943 395.106420 345.402401 400.398496 343.163046 405.690573 341.393233 410.982649 340.056844 416.274725 340.959810 421.566802 338.792692 426.858878 337.853608 432.150954 335.794847 437.443031 336.444982 442.735107 334.891881 448.027183 335.325305 453.319260 333.230424 458.611336 330.629883 463.903412 325.320446 469.195489 319.433110 474.487565 319.830415 479.779641 319.433110 485.071718 315.532299 490.363794 317.338230 495.655870 306.285931 500.947947 306.213694 506.240023 310.042268 511.532099 309.175421 516.824176 306.827710 522.116252 306.105338 527.408329 299.748460 532.700405 293.247108 537.992481 296.858970 543.284558 302.276764 548.576634 305.057898 553.868710 310.006149 559.160787 311.270301 564.452863 315.134994 569.744939 315.387824 575.037016 317.085399 580.329092 298.628783 585.621168 294.727971 590.913245 301.771103 596.205321 296.642258 601.497397 295.847649 606.789474 304.877305 612.081550 310.295098 617.373626 309.608844 622.665703 314.737689 627.957779 321.780821 633.249855 327.920987 638.541932 319.505347 643.834008 329.654681 649.126084 333.230424 654.418161 314.990519 659.710237 303.251966 665.002313 276.162999 670.294390 115.435122 675.586466 168.710092 680.878543 203.925751 686.170619 8.885181 691.462695 79.316498 696.754772 138.912228 702.046848 234.626581 707.338924 301.446035 712.631001 342.982453 717.923077 326.729072"/></g><g class="series serie-1 color-1"><path class="line reactive nofill" d="M14.076923 453.144256 L19.368999 419.445580 24.661076 387.227767 29.953152 356.526937 35.245228 322.214244 40.537305 297.834173 45.829381 333.338780 51.121457 306.249812 56.413534 334.855762 61.705610 346.594315 66.997687 362.558747 72.289763 365.953898 77.581839 363.822899 82.873916 359.669257 88.165992 354.034752 93.458068 354.973836 98.750145 355.407259 104.042221 356.526937 109.334297 357.682733 114.626374 360.319392 119.918450 365.014813 125.210526 370.829912 130.502603 373.430453 135.794679 376.970078 141.086755 375.561452 146.378832 372.599724 151.670908 370.613200 156.962984 369.746353 162.255061 371.913471 167.547137 371.480047 172.839213 373.177622 178.131290 370.649319 183.423366 374.225062 188.715442 374.297300 194.007519 372.563606 199.299595 374.008351 204.591671 375.561452 209.883748 375.128028 215.175824 371.768996 220.467901 367.759829 225.759977 372.057945 231.052053 373.358216 236.344130 373.466571 241.636206 372.960911 246.928282 374.730723 252.220359 374.116707 257.512435 371.841233 262.804511 371.299454 268.096588 370.143658 273.388664 369.240692 278.680740 368.662794 283.972817 369.674116 289.264893 370.288132 294.556969 369.349048 299.849046 367.651473 305.141122 365.520474 310.433198 363.533950 315.725275 362.847696 321.017351 361.475188 326.309427 361.475188 331.601504 361.150121 336.893580 360.897290 342.185656 359.127478 347.477733 356.743649 352.769809 354.793243 358.061885 357.032598 363.353962 355.732327 368.646038 357.104835 373.938115 360.861172 379.230191 358.188393 384.522267 361.005646 389.814344 363.714543 395.106420 363.859017 400.398496 365.123169 405.690573 365.917779 410.982649 366.567914 416.274725 365.953898 421.566802 366.856863 426.858878 367.145812 432.150954 367.795947 437.443031 367.398643 442.735107 367.651473 448.027183 367.109694 453.319260 367.579236 458.611336 368.229371 463.903412 369.565760 469.195489 370.829912 474.487565 370.215895 479.779641 369.926946 485.071718 370.432607 490.363794 369.782472 495.655870 371.552284 500.947947 371.046624 506.240023 369.854709 511.532099 369.637997 516.824176 369.818590 522.116252 369.493523 527.408329 370.107539 532.700405 370.540963 537.992481 369.674116 543.284558 368.409964 548.576634 367.723710 553.868710 366.567914 559.160787 365.845542 564.452863 364.978695 569.744939 364.545271 575.037016 363.786780 580.329092 365.556593 585.621168 365.701067 590.913245 364.545271 596.205321 364.906458 601.497397 364.509153 606.789474 363.172764 612.081550 362.414272 617.373626 362.125323 622.665703 361.402951 627.957779 360.427748 633.249855 359.380308 638.541932 359.885969 643.834008 358.730173 649.126084 358.152275 654.418161 359.127478 659.710237 359.344189 665.002313 360.030443 670.294390 362.053086 675.586466 360.644460 680.878543 359.741494 686.170619 360.247155 691.462695 359.344189 696.754772 358.549580 702.046848 357.321546 707.338924 356.454700 712.631001 355.912920 717.923077 356.563055"/></g><g class="series serie-2 color-2"><path class="line reactive nofill" d="M14.076923 355.768446 L19.368999 355.768446 24.661076 355.768446 29.953152 355.768446 35.245228 355.768446 40.537305 355.768446 45.829381 355.768446 51.121457 355.768446 56.413534 355.768446 61.705610 355.768446 66.997687 355.768446 72.289763 355.768446 77.581839 355.768446 82.873916 355.768446 88.165992 355.768446 93.458068 355.768446 98.750145 355.768446 104.042221 355.768446 109.334297 355.768446 114.626374 355.768446 119.918450 355.768446 125.210526 355.768446 130.502603 355.768446 135.794679 355.768446 141.086755 355.768446 146.378832 355.768446 151.670908 355.768446 156.962984 355.768446 162.255061 355.768446 167.547137 355.768446 172.839213 355.768446 178.131290 355.768446 183.423366 355.768446 188.715442 355.768446 194.007519 355.768446 199.299595 355.768446 204.591671 355.768446 209.883748 355.768446 215.175824 355.768446 220.467901 355.768446 225.759977 355.768446 231.052053 355.768446 236.344130 355.768446 241.636206 355.768446 246.928282 355.768446 252.220359 355.768446 257.512435 355.768446 262.804511 355.768446 268.096588 355.768446 273.388664 355.768446 278.680740 355.768446 283.972817 355.768446 289.264893 355.768446 294.556969 355.768446 299.849046 355.768446 305.141122 355.768446 310.433198 355.768446 315.725275 355.768446 321.017351 355.768446 326.309427 355.768446 331.601504 355.768446 336.893580 355.768446 342.185656 355.768446 347.477733 355.768446 352.769809 355.768446 358.061885 355.768446 363.353962 355.768446 368.646038 355.768446 373.938115 355.768446 379.230191 355.768446 384.522267 355.768446 389.814344 355.768446 395.106420 355.768446 400.398496 355.768446 405.690573 355.768446 410.982649 355.768446 416.274725 355.768446 421.566802 355.768446 426.858878 355.768446 432.150954 355.768446 437.443031 355.768446 442.735107 355.768446 448.027183 355.768446 453.319260 355.768446 458.611336 355.768446 463.903412 355.768446 469.195489 355.768446 474.487565 355.768446 479.779641 355.768446 485.071718 355.768446 490.363794 355.768446 495.655870 355.768446 500.947947 355.768446 506.240023 355.768446 511.532099 355.768446 516.824176 355.768446 522.116252 355.768446 527.408329 355.768446 532.700405 355.768446 537.992481 355.768446 543.284558 355.768446 548.576634 355.768446 553.868710 355.768446 559.160787 355.768446 564.452863 355.768446 569.744939 355.768446 575.037016 355.768446 580.329092 355.768446 585.621168 355.768446 590.913245 355.768446 596.205321 355.768446 601.497397 355.768446 606.789474 355.768446 612.081550 355.768446 617.373626 355.768446 622.665703 355.768446 627.957779 355.768446 633.249855 355.768446 638.541932 355.768446 643.834008 355.768446 649.126084 355.768446 654.418161 355.768446 659.710237 355.768446 665.002313 355.768446 670.294390 355.768446 675.586466 355.768446 680.878543 355.768446 686.170619 355.768446 691.462695 355.768446 696.754772 355.768446 702.046848 355.768446 707.338924 355.768446 712.631001 355.768446 717.923077 355.768446"/></g></g><g class="titles"><text class="title plot_title" x="400.0" y="26">MD Marshall: Future and Past Averages in ODIs</text></g><g class="plot overlay" transform="translate(48, 46)"><g class="series serie-0 color-0"><g class="dots"><desc class="label">157 wickets in 134 innings (1195.5 overs)</desc><circle class="dot reactive tooltip-trigger" cx="14.076923076923077" cy="355.76844566350064" r="2.5"/><desc class="value">26.96</desc><desc class="x top">14.076923076923077</desc><desc class="y top">355.76844566350064</desc><desc class="x_label">1980</desc></g><g class="dots"><desc class="label">153 wickets in 129 innings (1151.5 overs)</desc><circle class="dot reactive tooltip-trigger" cx="40.5373048004627" cy="357.2854278683602" r="2.5"/><desc class="value">26.54</desc><desc class="x top">40.5373048004627</desc><desc class="y top">357.2854278683602</desc><desc class="x_label">1981</desc></g><g class="dots"><desc class="label">144 wickets in 124 innings (1103.1 overs)</desc><circle class="dot reactive tooltip-trigger" cx="66.9976865240023" cy="355.15442905677173" r="2.5"/><desc class="value">27.13</desc><desc class="x top">66.9976865240023</desc><desc class="y top">355.15442905677173</desc><desc class="x_label">1982</desc></g><g class="dots"><desc class="label">141 wickets in 121 innings (1078.1 overs)</desc><circle class="dot reactive tooltip-trigger" cx="82.87391555812609" cy="355.29890355247267" r="2.5"/><desc class="value">27.09</desc><desc class="x top">82.87391555812609</desc><desc class="y top">355.29890355247267</desc><desc class="x_label">1983</desc></g><g class="dots"><desc class="label">124 wickets in 107 innings (949.5 overs)</desc><circle class="dot reactive tooltip-trigger" cx="156.962984384037" cy="352.04822739920206" r="2.5"/><desc class="value">27.99</desc><desc class="x top">156.962984384037</desc><desc class="y top">352.04822739920206</desc><desc class="x_label">1984</desc></g><g class="dots"><desc class="label">99 wickets in 90 innings (798.5 overs)</desc><circle class="dot reactive tooltip-trigger" cx="246.92828224407174" cy="344.64390949453025" r="2.5"/><desc class="value">30.04</desc><desc class="x top">246.92828224407174</desc><desc class="y top">344.64390949453025</desc><desc class="x_label">1985</desc></g><g class="dots"><desc class="label">81 wickets in 67 innings (597.2 overs)</desc><circle class="dot reactive tooltip-trigger" cx="368.64603817235394" cy="354.50429382611765" r="2.5"/><desc class="value">27.31</desc><desc class="x left top">368.64603817235394</desc><desc class="y left top">354.50429382611765</desc><desc class="x_label">1986</desc></g><g class="dots"><desc class="label">61 wickets in 56 innings (509.2 overs)</desc><circle class="dot reactive tooltip-trigger" cx="426.8588779641411" cy="337.8536081965873" r="2.5"/><desc class="value">31.92</desc><desc class="x left top">426.8588779641411</desc><desc class="y left top">337.8536081965873</desc><desc class="x_label">1987</desc></g><g class="dots"><desc class="label">46 wickets in 48 innings (437.0 overs)</desc><circle class="dot reactive tooltip-trigger" cx="469.1954887218045" cy="319.4331099947207" r="2.5"/><desc class="value">37.02</desc><desc class="x left top">469.1954887218045</desc><desc class="y left top">319.4331099947207</desc><desc class="x_label">1988</desc></g><g class="dots"><desc class="label">36 wickets in 40 innings (359.0 overs)</desc><circle class="dot reactive tooltip-trigger" cx="511.53209947946783" cy="309.1754207999559" r="2.5"/><desc class="value">39.86</desc><desc class="x left top">511.53209947946783</desc><desc class="y left top">309.1754207999559</desc><desc class="x_label">1989</desc></g><g class="dots"><desc class="label">22 wickets in 25 innings (221.0 overs)</desc><circle class="dot reactive tooltip-trigger" cx="590.9132446500868" cy="301.771102895284" r="2.5"/><desc class="value">41.91</desc><desc class="x left top">590.9132446500868</desc><desc class="y left top">301.771102895284</desc><desc class="x_label">1990</desc></g><g class="dots"><desc class="label">19 wickets in 20 innings (181.0 overs)</desc><circle class="dot reactive tooltip-trigger" cx="617.3736263736264" cy="309.60884428705856" r="2.5"/><desc class="value">39.74</desc><desc class="x left top">617.3736263736264</desc><desc class="y left top">309.60884428705856</desc><desc class="x_label">1991</desc></g><g class="dots"><desc class="label">4 wickets in 8 innings (72.0 overs)</desc><circle class="dot reactive tooltip-trigger" cx="680.8785425101214" cy="203.92575068184004" r="2.5"/><desc class="value">69</desc><desc class="x left">680.8785425101214</desc><desc class="y left">203.92575068184004</desc><desc class="x_label">1992</desc></g></g><g class="series serie-1 color-1"><g class="dots"><desc class="label">0 wickets over 0 innings</desc><circle class="dot reactive tooltip-trigger" cx="14.076923076923077" cy="453.1442557659166" r="2.5"/><desc class="value">0</desc><desc class="x top">14.076923076923077</desc><desc class="y top">453.1442557659166</desc><desc class="x_label">1980</desc></g><g class="dots"><desc class="label">4 wickets in 5 innings (44.0 overs)</desc><circle class="dot reactive tooltip-trigger" cx="40.5373048004627" cy="297.8341728874341" r="2.5"/><desc class="value">43</desc><desc class="x top">40.5373048004627</desc><desc class="y top">297.8341728874341</desc><desc class="x_label">1981</desc></g><g class="dots"><desc class="label">13 wickets in 10 innings (92.4 overs)</desc><circle class="dot reactive tooltip-trigger" cx="66.9976865240023" cy="362.55874696144355" r="2.5"/><desc class="value">25.08</desc><desc class="x top">66.9976865240023</desc><desc class="y top">362.55874696144355</desc><desc class="x_label">1982</desc></g><g class="dots"><desc class="label">16 wickets in 13 innings (117.4 overs)</desc><circle class="dot reactive tooltip-trigger" cx="82.87391555812609" cy="359.6692570474253" r="2.5"/><desc class="value">25.88</desc><desc class="x top">82.87391555812609</desc><desc class="y top">359.6692570474253</desc><desc class="x_label">1983</desc></g><g class="dots"><desc class="label">33 wickets in 27 innings (246.0 overs)</desc><circle class="dot reactive tooltip-trigger" cx="156.962984384037" cy="369.7463531225641" r="2.5"/><desc class="value">23.09</desc><desc class="x top">156.962984384037</desc><desc class="y top">369.7463531225641</desc><desc class="x_label">1984</desc></g><g class="dots"><desc class="label">58 wickets in 44 innings (397.0 overs)</desc><circle class="dot reactive tooltip-trigger" cx="246.92828224407174" cy="374.7307232242456" r="2.5"/><desc class="value">21.71</desc><desc class="x top">246.92828224407174</desc><desc class="y top">374.7307232242456</desc><desc class="x_label">1985</desc></g><g class="dots"><desc class="label">76 wickets in 67 innings (598.3 overs)</desc><circle class="dot reactive tooltip-trigger" cx="368.64603817235394" cy="357.10483474873405" r="2.5"/><desc class="value">26.59</desc><desc class="x left top">368.64603817235394</desc><desc class="y left top">357.10483474873405</desc><desc class="x_label">1986</desc></g><g class="dots"><desc class="label">96 wickets in 78 innings (686.3 overs)</desc><circle class="dot reactive tooltip-trigger" cx="426.8588779641411" cy="367.1458121999476" r="2.5"/><desc class="value">23.81</desc><desc class="x left top">426.8588779641411</desc><desc class="y left top">367.1458121999476</desc><desc class="x_label">1987</desc></g><g class="dots"><desc class="label">111 wickets in 86 innings (758.5 overs)</desc><circle class="dot reactive tooltip-trigger" cx="469.1954887218045" cy="370.8299118403209" r="2.5"/><desc class="value">22.79</desc><desc class="x left top">469.1954887218045</desc><desc class="y left top">370.8299118403209</desc><desc class="x_label">1988</desc></g><g class="dots"><desc class="label">121 wickets in 94 innings (836.5 overs)</desc><circle class="dot reactive tooltip-trigger" cx="511.53209947946783" cy="369.6379972507883" r="2.5"/><desc class="value">23.12</desc><desc class="x left top">511.53209947946783</desc><desc class="y left top">369.6379972507883</desc><desc class="x_label">1989</desc></g><g class="dots"><desc class="label">135 wickets in 109 innings (974.5 overs)</desc><circle class="dot reactive tooltip-trigger" cx="590.9132446500868" cy="364.54527127733115" r="2.5"/><desc class="value">24.53</desc><desc class="x left top">590.9132446500868</desc><desc class="y left top">364.54527127733115</desc><desc class="x_label">1990</desc></g><g class="dots"><desc class="label">138 wickets in 114 innings (1014.5 overs)</desc><circle class="dot reactive tooltip-trigger" cx="617.3736263736264" cy="362.1253234743408" r="2.5"/><desc class="value">25.2</desc><desc class="x left top">617.3736263736264</desc><desc class="y left top">362.1253234743408</desc><desc class="x_label">1991</desc></g><g class="dots"><desc class="label">153 wickets in 126 innings (1123.5 overs)</desc><circle class="dot reactive tooltip-trigger" cx="680.8785425101214" cy="359.74149429527574" r="2.5"/><desc class="value">25.86</desc><desc class="x left top">680.8785425101214</desc><desc class="y left top">359.74149429527574</desc><desc class="x_label">1992</desc></g></g><g class="series serie-2 color-2"/></g><g class="plot text-overlay" transform="translate(48, 46)"><g class="series serie-0 color-0"/><g class="series serie-1 color-1"/><g class="series serie-2 color-2"/></g><g class="plot tooltip-overlay" transform="translate(48, 46)"><g class="tooltip" style="opacity: 0" transform="translate(0 0)"><rect class="tooltip-box" height="0" rx="10" ry="10" width="0"/><g class="text"/></g></g><g class="legends" transform="translate(58, 545)"><g class="legend reactive activate-serie" id="activate-serie-0"><rect class="color-0 reactive" height="12" width="12" x="0.0" y="1.0"/><text x="17.0" y="11.2">Future Average</text></g><g class="legend reactive activate-serie" id="activate-serie-1"><rect class="color-1 reactive" height="12" width="12" x="366.0" y="1.0"/><text x="383.0" y="11.2">Past Average</text></g><g class="legend reactive activate-serie" id="activate-serie-2"><rect class="color-2 reactive" height="12" width="12" x="0.0" y="22.0"/><text x="17.0" y="32.2">Career Average</text></g></g></g></svg>