<?xml version='1.0' encoding='utf-8'?>
<svg xmlns:xlink="http://www.w3.org/1999/xlink" xmlns="http://www.w3.org/2000/svg" id="chart-ebc56ae7-41e1-4ed3-83d5-8a67fd54ae09" class="pygal-chart" viewBox="0 0 800 600"><!--Generated with pygal 2.4.0 (lxml) ©Kozea 2012-2016 on 2019-08-02--><!--http://pygal.org--><!--http://github.com/Kozea/pygal--><defs><style type="text/css">#chart-ebc56ae7-41e1-4ed3-83d5-8a67fd54ae09{-webkit-user-select:none;-webkit-font-smoothing:antialiased;font-family:Consolas,"Liberation Mono",Menlo,Courier,monospace}#chart-ebc56ae7-41e1-4ed3-83d5-8a67fd54ae09 .title{font-family:Consolas,"Liberation Mono",Menlo,Courier,monospace;font-size:16px}#chart-ebc56ae7-41e1-4ed3-83d5-8a67fd54ae09 .legends .legend text{font-family:Consolas,"Liberation Mono",Menlo,Courier,monospace;font-size:14px}#chart-ebc56ae7-41e1-4ed3-83d5-8a67fd54ae09 .axis text{font-family:Consolas,"Liberation Mono",Menlo,Courier,monospace;font-size:10px}#chart-ebc56ae7-41e1-4ed3-83d5-8a67fd54ae09 .axis text.major{font-family:Consolas,"Liberation Mono",Menlo,Courier,monospace;font-size:10px}#chart-ebc56ae7-41e1-4ed3-83d5-8a67fd54ae09 .text-overlay text.value{font-family:Consolas,"Liberation Mono",Menlo,Courier,monospace;font-size:16px}#chart-ebc56ae7-41e1-4ed3-83d5-8a67fd54ae09 .text-overlay text.label{font-family:Consolas,"Liberation Mono",Menlo,Courier,monospace;font-size:10px}#chart-ebc56ae7-41e1-4ed3-83d5-8a67fd54ae09 .tooltip{font-family:Consolas,"Liberation Mono",Menlo,Courier,monospace;font-size:14px}#chart-ebc56ae7-41e1-4ed3-83d5-8a67fd54ae09 text.no_data{font-family:Consolas,"Liberation Mono",Menlo,Courier,monospace;font-size:64px}
#chart-ebc56ae7-41e1-4ed3-83d5-8a67fd54ae09{background-color:rgba(249,249,249,1)}#chart-ebc56ae7-41e1-4ed3-83d5-8a67fd54ae09 path,#chart-ebc56ae7-41e1-4ed3-83d5-8a67fd54ae09 line,#chart-ebc56ae7-41e1-4ed3-83d5-8a67fd54ae09 rect,#chart-ebc56ae7-41e1-4ed3-83d5-8a67fd54ae09 circle{-webkit-transition:150ms;-moz-transition:150ms;transition:150ms}#chart-ebc56ae7-41e1-4ed3-83d5-8a67fd54ae09 .graph &gt; .background{fill:rgba(249,249,249,1)}#chart-ebc56ae7-41e1-4ed3-83d5-8a67fd54ae09 .plot &gt; .background{fill:rgba(255,255,255,1)}#chart-ebc56ae7-41e1-4ed3-83d5-8a67fd54ae09 .graph{fill:rgba(0,0,0,.87)}#chart-ebc56ae7-41e1-4ed3-83d5-8a67fd54ae09 text.no_data{fill:rgba(0,0,0,1)}#chart-ebc56ae7-41e1-4ed3-83d5-8a67fd54ae09 .title{fill:rgba(0,0,0,1)}#chart-ebc56ae7-41e1-4ed3-83d5-8a67fd54ae09 .legends .legend text{fill:rgba(0,0,0,.87)}#chart-ebc56ae7-41e1-4ed3-83d5-8a67fd54ae09 .legends .legend:hover text{fill:rgba(0,0,0,1)}#chart-ebc56ae7-41e1-4ed3-83d5-8a67fd54ae09 .axis .line{stroke:rgba(0,0,0,1)}#chart-ebc56ae7-41e1-4ed3-83d5-8a67fd54ae09 .axis .guide.line{stroke:rgba(0,0,0,.54)}#chart-ebc56ae7-41e1-4ed3-83d5-8a67fd54ae09 .axis .major.line{stroke:rgba(0,0,0,.87)}#chart-ebc56ae7-41e1-4ed3-83d5-8a67fd54ae09 .axis text.major{fill:rgba(0,0,0,1)}#chart-ebc56ae7-41e1-4ed3-83d5-8a67fd54ae09 .axis.y .guides:hover .guide.line,#chart-ebc56ae7-41e1-4ed3-83d5-8a67fd54ae09 .line-graph .axis.x .guides:hover .guide.line,#chart-ebc56ae7-41e1-4ed3-83d5-8a67fd54ae09 .stackedline-graph .axis.x .guides:hover .guide.line,#chart-ebc56ae7-41e1-4ed3-83d5-8a67fd54ae09 .xy-graph .axis.x .guides:hover .guide.line{stroke:rgba(0,0,0,1)}#chart-ebc56ae7-41e1-4ed3-83d5-8a67fd54ae09 .axis .guides:hover text{fill:rgba(0,0,0,1)}#chart-ebc56ae7-41e1-4ed3-83d5-8a67fd54ae09 .reactive{fill-opacity:.7;stroke-opacity:.8}#chart-ebc56ae7-41e1-4ed3-83d5-8a67fd54ae09 .ci{stroke:rgba(0,0,0,.87)}#chart-ebc56ae7-41e1-4ed3-83d5-8a67fd54ae09 .reactive.active,#chart-ebc56ae7-41e1-4ed3-83d5-8a67fd54ae09 .active .reactive{fill-opacity:.8;stroke-opacity:.9;stroke-width:4}#chart-ebc56ae7-41e1-4ed3-83d5-8a67fd54ae09 .ci .reactive.active{stroke-width:1.5}#chart-ebc56ae7-41e1-4ed3-83d5-8a67fd54ae09 .series text{fill:rgba(0,0,0,1)}#chart-ebc56ae7-41e1-4ed3-83d5-8a67fd54ae09 .tooltip rect{fill:rgba(255,255,255,1);stroke:rgba(0,0,0,1);-webkit-transition:opacity 150ms;-moz-transition:opacity 150ms;transition:opacity 150ms}#chart-ebc56ae7-41e1-4ed3-83d5-8a67fd54ae09 .tooltip .label{fill:rgba(0,0,0,.87)}#chart-ebc56ae7-41e1-4ed3-83d5-8a67fd54ae09 .tooltip .label{fill:rgba(0,0,0,.87)}#chart-ebc56ae7-41e1-4ed3-83d5-8a67fd54ae09 .tooltip .legend{font-size:.8em;fill:rgba(0,0,0,.54)}#chart-ebc56ae7-41e1-4ed3-83d5-8a67fd54ae09 .tooltip .x_label{font-size:.6em;fill:rgba(0,0,0,1)}#chart-ebc56ae7-41e1-4ed3-83d5-8a67fd54ae09 .tooltip .xlink{font-size:.5em;text-decoration:underline}#chart-ebc56ae7-41e1-4ed3-83d5-8a67fd54ae09 .tooltip .value{font-size:1.5em}#chart-ebc56ae7-41e1-4ed3-83d5-8a67fd54ae09 .bound{font-size:.5em}#chart-ebc56ae7-41e1-4ed3-83d5-8a67fd54ae09 .max-value{font-size:.75em;fill:rgba(0,0,0,.54)}#chart-ebc56ae7-41e1-4ed3-83d5-8a67fd54ae09 .map-element{fill:rgba(255,255,255,1);stroke:rgba(0,0,0,.54) !important}#chart-ebc56ae7-41e1-4ed3-83d5-8a67fd54ae09 .map-element .reactive{fill-opacity:inherit;stroke-opacity:inherit}#chart-ebc56ae7-41e1-4ed3-83d5-8a67fd54ae09 .color-0,#chart-ebc56ae7-41e1-4ed3-83d5-8a67fd54ae09 .color-0 a:visited{stroke:#F44336;fill:#F44336}#chart-ebc56ae7-41e1-4ed3-83d5-8a67fd54ae09 .color-1,#chart-ebc56ae7-41e1-4ed3-83d5-8a67fd54ae09 .color-1 a:visited{stroke:#3F51B5;fill:#3F51B5}#chart-ebc56ae7-41e1-4ed3-83d5-8a67fd54ae09 .color-2,#chart-ebc56ae7-41e1-4ed3-83d5-8a67fd54ae09 .color-2 a:visited{stroke:#009688;fill:#009688}#chart-ebc56ae7-41e1-4ed3-83d5-8a67fd54ae09 .text-overlay .color-0 text{fill:black}#chart-ebc56ae7-41e1-4ed3-83d5-8a67fd54ae09 .text-overlay .color-1 text{fill:black}#chart-ebc56ae7-41e1-4ed3-83d5-8a67fd54ae09 .text-overlay .color-2 text{fill:black}
#chart-ebc56ae7-41e1-4ed3-83d5-8a67fd54ae09 text.no_data{text-anchor:middle}#chart-ebc56ae7-41e1-4ed3-83d5-8a67fd54ae09 .guide.line{fill:none}#chart-ebc56ae7-41e1-4ed3-83d5-8a67fd54ae09 .centered{text-anchor:middle}#chart-ebc56ae7-41e1-4ed3-83d5-8a67fd54ae09 .title{text-anchor:middle}#chart-ebc56ae7-41e1-4ed3-83d5-8a67fd54ae09 .legends .legend text{fill-opacity:1}#chart-ebc56ae7-41e1-4ed3-83d5-8a67fd54ae09 .axis.x text{text-anchor:middle}#chart-ebc56ae7-41e1-4ed3-83d5-8a67fd54ae09 .axis.x:not(.web) text[transform]{text-anchor:start}#chart-ebc56ae7-41e1-4ed3-83d5-8a67fd54ae09 .axis.x:not(.web) text[transform].backwards{text-anchor:end}#chart-ebc56ae7-41e1-4ed3-83d5-8a67fd54ae09 .axis.y text{text-anchor:end}#chart-ebc56ae7-41e1-4ed3-83d5-8a67fd54ae09 .axis.y text[transform].backwards{text-anchor:start}#chart-ebc56ae7-41e1-4ed3-83d5-8a67fd54ae09 .axis.y2 text{text-anchor:start}#chart-ebc56ae7-41e1-4ed3-83d5-8a67fd54ae09 .axis.y2 text[transform].backwards{text-anchor:end}#chart-ebc56ae7-41e1-4ed3-83d5-8a67fd54ae09 .axis .guide.line{stroke-dasharray:4,4}#chart-ebc56ae7-41e1-4ed3-83d5-8a67fd54ae09 .axis .major.guide.line{stroke-dasharray:6,6}#chart-ebc56ae7-41e1-4ed3-83d5-8a67fd54ae09 .horizontal .axis.y .guide.line,#chart-ebc56ae7-41e1-4ed3-83d5-8a67fd54ae09 .horizontal .axis.y2 .guide.line,#chart-ebc56ae7-41e1-4ed3-83d5-8a67fd54ae09 .vertical .axis.x .guide.line{opacity:0}#chart-ebc56ae7-41e1-4ed3-83d5-8a67fd54ae09 .horizontal .axis.always_show .guide.line,#chart-ebc56ae7-41e1-4ed3-83d5-8a67fd54ae09 .vertical .axis.always_show .guide.line{opacity:1 !important}#chart-ebc56ae7-41e1-4ed3-83d5-8a67fd54ae09 .axis.y .guides:hover .guide.line,#chart-ebc56ae7-41e1-4ed3-83d5-8a67fd54ae09 .axis.y2 .guides:hover .guide.line,#chart-ebc56ae7-41e1-4ed3-83d5-8a67fd54ae09 .axis.x .guides:hover .guide.line{opacity:1}#chart-ebc56ae7-41e1-4ed3-83d5-8a67fd54ae09 .axis .guides:hover text{opacity:1}#chart-ebc56ae7-41e1-4ed3-83d5-8a67fd54ae09 .nofill{fill:none}#chart-ebc56ae7-41e1-4ed3-83d5-8a67fd54ae09 .subtle-fill{fill-opacity:.2}#chart-ebc56ae7-41e1-4ed3-83d5-8a67fd54ae09 .dot{stroke-width:1px;fill-opacity:1}#chart-ebc56ae7-41e1-4ed3-83d5-8a67fd54ae09 .dot.active{stroke-width:5px}#chart-ebc56ae7-41e1-4ed3-83d5-8a67fd54ae09 .dot.negative{fill:transparent}#chart-ebc56ae7-41e1-4ed3-83d5-8a67fd54ae09 text,#chart-ebc56ae7-41e1-4ed3-83d5-8a67fd54ae09 tspan{stroke:none !important}#chart-ebc56ae7-41e1-4ed3-83d5-8a67fd54ae09 .series text.active{opacity:1}#chart-ebc56ae7-41e1-4ed3-83d5-8a67fd54ae09 .tooltip rect{fill-opacity:.95;stroke-width:.5}#chart-ebc56ae7-41e1-4ed3-83d5-8a67fd54ae09 .tooltip text{fill-opacity:1}#chart-ebc56ae7-41e1-4ed3-83d5-8a67fd54ae09 .showable{visibility:hidden}#chart-ebc56ae7-41e1-4ed3-83d5-8a67fd54ae09 .showable.shown{visibility:visible}#chart-ebc56ae7-41e1-4ed3-83d5-8a67fd54ae09 .gauge-background{fill:rgba(229,229,229,1);stroke:none}#chart-ebc56ae7-41e1-4ed3-83d5-8a67fd54ae09 .bg-lines{stroke:rgba(249,249,249,1);stroke-width:2px}</style><script type="text/javascript">window.pygal = window.pygal || {};window.pygal.config = window.pygal.config || {};window.pygal.config['ebc56ae7-41e1-4ed3-83d5-8a67fd54ae09'] = {"allow_interruptions": false, "box_mode": "extremes", "classes": ["pygal-chart"], "css": ["file://style.css", "file://graph.css"], "defs": [], "disable_xml_declaration": false, "dots_size": 2.5, "dynamic_print_values": false, "explicit_size": false, "fill": false, "force_uri_protocol": "https", "formatter": null, "half_pie": false, "height": 600, "include_x_axis": false, "inner_radius": 0, "interpolate": null, "interpolation_parameters": {}, "interpolation_precision": 250, "inverse_y_axis": false, "js": ["//kozea.github.io/pygal.js/2.0.x/pygal-tooltips.min.js"], "legend_at_bottom": true, "legend_at_bottom_columns": null, "legend_box_size": 12, "logarithmic": false, "margin": 20, "margin_bottom": null, "margin_left": null, "margin_right": null, "margin_top": null, "max_scale": 16, "min_scale": 4, "missing_value_fill_truncation": "x", "no_data_text": "No data", "no_prefix": false, "order_min": null, "pretty_print": false, "print_labels": false, "print_values": false, "print_values_position": "center", "print_zeroes": true, "range": null, "rounded_bars": null, "secondary_range": null, "show_dots": true, "show_legend": true, "show_minor_x_labels": false, "show_minor_y_labels": true, "show_only_major_dots": false, "show_x_guides": false, "show_x_labels": true, "show_y_guides": true, "show_y_labels": true, "spacing": 10, "stack_from_top": false, "strict": false, "stroke": true, "stroke_style": null, "style": {"background": "rgba(249, 249, 249, 1)", "ci_colors": [], "colors": ["#F44336", "#3F51B5", "#009688", "#FFC107", "#FF5722", "#9C27B0", "#03A9F4", "#8BC34A", "#FF9800", "#E91E63", "#2196F3", "#4CAF50", "#FFEB3B", "#673AB7", "#00BCD4", "#CDDC39", "#9E9E9E", "#607D8B"], "font_family": "Consolas, \"Liberation Mono\", Menlo, Courier, monospace", "foreground": "rgba(0, 0, 0, .87)", "foreground_strong": "rgba(0, 0, 0, 1)", "foreground_subtle": "rgba(0, 0, 0, .54)", "guide_stroke_dasharray": "4,4", "label_font_family": "Consolas, \"Liberation Mono\", Menlo, Courier, monospace", "label_font_size": 10, "legend_font_family": "Consolas, \"Liberation Mono\", Menlo, Courier, monospace", "legend_font_size": 14, "major_guide_stroke_dasharray": "6,6", "major_label_font_family": "Consolas, \"Liberation Mono\", Menlo, Courier, monospace", "major_label_font_size": 10, "no_data_font_family": "Consolas, \"Liberation Mono\", Menlo, Courier, monospace", "no_data_font_size": 64, "opacity": ".7", "opacity_hover": ".8", "plot_background": "rgba(255, 255, 255, 1)", "stroke_opacity": ".8", "stroke_opacity_hover": ".9", "title_font_family": "Consolas, \"Liberation Mono\", Menlo, Courier, monospace", "title_font_size": 16, "tooltip_font_family": "Consolas, \"Liberation Mono\", Menlo, Courier, monospace", "tooltip_font_size": 14, "transition": "150ms", "value_background": "rgba(229, 229, 229, 1)", "value_colors": [], "value_font_family": "Consolas, \"Liberation Mono\", Menlo, Courier, monospace", "value_font_size": 16, "value_label_font_family": "Consolas, \"Liberation Mono\", Menlo, Courier, monospace", "value_label_font_size": 10}, "title": "ME Waugh: Future and Past Averages in ODIs", "tooltip_border_radius": 10, "tooltip_fancy_mode": true, "truncate_label": null, "truncate_legend": null, "width": 800, "x_label_rotation": 45, "x_labels": ["1990", "0", "0", "0", "0", "1991", "0", "0", "0", "0", "0", "0", "0", "1992", "0", "0", "0", "0", "0", "0", "0", "0", "1993", "0", "0", "0", "0", "0", "0", "0", "0", "0", "0", "1994", "0", "0", "0", "0", "0", "0", "0", "0", "0", "0", "0", "0", "0", "0", "0", "0", "0", "1995", "0", "0", "0", "0", "0", "0", "0", "1996", "0", "0", "0", "0", "0", "0", "0", "0", "0", "0", "0", "0", "0", "0", "0", "0", "0", "0", "0", "1997", "0", "0", "0", "0", "0", "0", "1998", "0", "0", "0", "0", "0", "0", "0", "0", "0", "0", "0", "1999", "0", "0", "0", "0", "0", "0", "0", "0", "0", "2000", "0", "0", "0", "0", "0", "0", "2001", "0", "0", "2002", "0"], "x_labels_major": ["1990", "1991", "1992", "1993", "1994", "1995", "1996", "1997", "1998", "1999", "2000", "2001", "2002"], "x_labels_major_count": null, "x_labels_major_every": null, "x_title": null, "xrange": null, "y_label_rotation": 0, "y_labels": null, "y_labels_major": null, "y_labels_major_count": null, "y_labels_major_every": null, "y_title": null, "zero": 0, "legends": ["Future Average", "Past Average", "Career Average"]}</script><script type="text/javascript" xlink:href="https://kozea.github.io/pygal.js/2.0.x/pygal-tooltips.min.js"/></defs><title>ME Waugh: Future and Past Averages in ODIs</title><g class="graph line-graph vertical"><rect class="background" height="600" width="800" x="0" y="0"/><g class="plot" transform="translate(42, 46)"><rect class="background" height="462.02943725152284" width="738.0" x="0" y="0"/><g class="axis y always_show"><g class="guides"><path class="axis major line" d="M0.000000 453.144256 h738.000000"/><text class="major" x="-5" y="456.6442557659166">0</text><title>0</title></g><g class="guides"><path class="guide line" d="M0.000000 404.959974 h738.000000"/><text class="" x="-5" y="408.4599743906118">10</text><title>10</title></g><g class="guides"><path class="guide line" d="M0.000000 356.775693 h738.000000"/><text class="" x="-5" y="360.27569301530696">20</text><title>20</title></g><g class="guides"><path class="guide line" d="M0.000000 308.591412 h738.000000"/><text class="" x="-5" y="312.09141164000215">30</text><title>30</title></g><g class="guides"><path class="guide line" d="M0.000000 260.407130 h738.000000"/><text class="" x="-5" y="263.90713026469734">40</text><title>40</title></g><g class="guides"><path class="major guide line" d="M0.000000 212.222849 h738.000000"/><text class="major" x="-5" y="215.72284888939248">50</text><title>50</title></g><g class="guides"><path class="guide line" d="M0.000000 164.038568 h738.000000"/><text class="" x="-5" y="167.53856751408773">60</text><title>60</title></g><g class="guides"><path class="guide line" d="M0.000000 115.854286 h738.000000"/><text class="" x="-5" y="119.35428613878292">70</text><title>70</title></g><g class="guides"><path class="guide line" d="M0.000000 67.670005 h738.000000"/><text class="" x="-5" y="71.17000476347806">80</text><title>80</title></g><g class="guides"><path class="guide line" d="M0.000000 19.485723 h738.000000"/><text class="" x="-5" y="22.985723388173255">90</text><title>90</title></g></g><g class="axis x"><g class="guides"><path class="major line" d="M14.192308 0.000000 v462.029437"/><text class="major" x="14.192307692307692" y="477.02943725152284" transform="rotate(45 14.192308 477.029437)">1990</text></g><g class="guides"><path class="major guide line" d="M44.008080 0.000000 v462.029437"/><text class="major" x="44.008080155138984" y="477.02943725152284" transform="rotate(45 44.008080 477.029437)">1991</text></g><g class="guides"><path class="major guide line" d="M91.713316 0.000000 v462.029437"/><text class="major" x="91.71331609566903" y="477.02943725152284" transform="rotate(45 91.713316 477.029437)">1992</text></g><g class="guides"><path class="major guide line" d="M145.381707 0.000000 v462.029437"/><text class="major" x="145.38170652876536" y="477.02943725152284" transform="rotate(45 145.381707 477.029437)">1993</text></g><g class="guides"><path class="major guide line" d="M210.976406 0.000000 v462.029437"/><text class="major" x="210.9764059469942" y="477.02943725152284" transform="rotate(45 210.976406 477.029437)">1994</text></g><g class="guides"><path class="major guide line" d="M318.313187 0.000000 v462.029437"/><text class="major" x="318.3131868131868" y="477.02943725152284" transform="rotate(45 318.313187 477.029437)">1995</text></g><g class="guides"><path class="major guide line" d="M366.018423 0.000000 v462.029437"/><text class="major" x="366.0184227537169" y="477.02943725152284" transform="rotate(45 366.018423 477.029437)">1996</text></g><g class="guides"><path class="major guide line" d="M485.281513 0.000000 v462.029437"/><text class="major" x="485.281512605042" y="477.02943725152284" transform="rotate(45 485.281513 477.029437)">1997</text></g><g class="guides"><path class="major guide line" d="M527.023594 0.000000 v462.029437"/><text class="major" x="527.0235940530058" y="477.02943725152284" transform="rotate(45 527.023594 477.029437)">1998</text></g><g class="guides"><path class="major guide line" d="M598.581448 0.000000 v462.029437"/><text class="major" x="598.5814479638009" y="477.02943725152284" transform="rotate(45 598.581448 477.029437)">1999</text></g><g class="guides"><path class="major guide line" d="M658.212993 0.000000 v462.029437"/><text class="major" x="658.2129928894635" y="477.02943725152284" transform="rotate(45 658.212993 477.029437)">2000</text></g><g class="guides"><path class="major guide line" d="M699.955074 0.000000 v462.029437"/><text class="major" x="699.9550743374273" y="477.02943725152284" transform="rotate(45 699.955074 477.029437)">2001</text></g><g class="guides"><path class="major guide line" d="M717.844538 0.000000 v462.029437"/><text class="major" x="717.844537815126" y="477.02943725152284" transform="rotate(45 717.844538 477.029437)">2002</text></g></g><g class="series serie-0 color-0"><path class="line reactive nofill" d="M14.192308 286.619379 L20.155462 287.727618 26.118617 285.173851 32.081771 280.114501 38.044926 281.511846 44.008080 282.282794 49.971235 275.633363 55.934389 270.236724 61.897544 271.826805 67.860698 271.874989 73.823853 267.104745 79.787007 266.622903 85.750162 260.648052 91.713316 260.310762 97.676471 261.659922 103.639625 263.731846 109.602780 265.755585 115.565934 266.719271 121.529089 267.152930 127.492243 268.694827 133.455398 266.815640 139.418552 266.671087 145.381707 252.601277 151.344861 251.011195 157.308016 249.469298 163.271170 250.963011 169.234324 247.686480 175.197479 249.469298 181.160633 250.240247 187.123788 251.300301 193.086942 253.131304 199.050097 254.432279 205.013251 256.118729 210.976406 252.504908 216.939560 251.348485 222.902715 250.963011 228.865869 245.277266 234.829024 246.722794 240.792178 247.638296 246.755333 245.951846 252.718487 247.397374 258.681642 245.614556 264.644796 246.385504 270.607951 248.312876 276.571105 250.770274 282.534260 252.794014 288.497414 249.806588 294.460569 251.974881 300.423723 253.613147 306.386878 253.324041 312.350032 248.650166 318.313187 248.987456 324.276341 243.831737 330.239496 240.747943 336.202650 239.976995 342.165805 227.111792 348.128959 223.594339 354.092114 220.365992 360.055268 217.812226 366.018423 222.630654 371.981577 211.741006 377.944732 216.896724 383.907886 218.679543 389.871041 214.294773 395.834195 210.970058 401.797350 215.065721 407.760504 214.053852 413.723659 219.643228 419.686813 197.141169 425.649968 194.924692 431.613122 198.442144 437.576277 206.103445 443.539431 173.145397 449.502586 180.517592 455.465740 175.024584 461.428895 186.010600 467.392049 189.720789 473.355204 198.827619 479.318358 178.493852 485.281513 163.701278 491.244667 172.374448 497.207822 177.530166 503.170976 182.685884 509.134131 173.000844 515.097285 155.895424 521.060440 164.424042 527.023594 129.008595 532.986749 133.827023 538.949903 86.943717 544.913058 51.383718 550.876212 15.341875 556.839367 28.448000 562.802521 36.012932 568.765676 50.468216 574.728830 66.995425 580.691984 23.485019 586.655139 39.578569 592.618293 61.261495 598.581448 74.078514 604.544602 8.885181 610.507757 31.049951 616.470911 43.577864 622.434066 72.488433 628.397220 87.907403 634.360375 38.759436 640.323529 62.851577 646.286684 71.283826 652.249838 115.854286 658.212993 132.718785 664.176147 142.355641 670.139302 83.715370 676.102456 94.990492 682.065611 17.076509 688.028765 74.897647 693.991920 108.626644 699.955074 123.081928 705.918229 224.268919 711.881383 277.271629 717.844538 342.320409 723.807692 361.594121"/></g><g class="series serie-1 color-1"><path class="line reactive nofill" d="M14.192308 453.144256 L20.155462 356.775693 26.118617 344.729623 32.081771 390.504690 38.044926 368.339921 44.008080 355.812007 49.971235 379.277752 55.934389 386.071736 61.897544 376.434880 67.860698 368.243552 73.823853 377.639487 79.787007 372.724690 85.750162 376.820354 91.713316 371.953742 97.676471 367.617156 103.639625 360.871357 109.602780 354.366479 115.565934 351.234501 121.529089 349.788972 127.492243 344.729623 133.455398 346.897915 139.418552 343.621384 145.381707 359.618566 151.344861 358.992170 157.308016 358.269406 163.271170 355.426533 169.234324 357.883931 175.197479 354.703769 181.160633 353.258240 187.123788 351.330869 193.086942 347.957970 199.050097 345.548755 205.013251 342.464961 210.976406 343.091357 216.939560 342.175856 222.902715 340.055747 228.865869 342.850436 234.829024 340.826696 240.792178 337.116506 246.755333 336.875585 252.718487 335.092766 258.681642 334.900029 264.644796 331.816235 270.607951 329.696127 276.571105 326.901439 282.534260 324.588593 288.497414 326.082306 294.460569 323.769460 300.423723 321.986642 306.386878 320.637482 312.350032 321.938458 318.313187 321.601168 324.276341 322.853959 330.239496 323.673092 336.202650 322.564853 342.165805 326.275043 348.128959 326.564149 354.092114 326.612333 360.055268 326.082306 366.018423 323.335802 371.981577 325.359542 377.944732 322.709406 383.907886 321.745720 389.871041 322.131195 395.834195 321.793905 401.797350 319.866533 407.760504 318.565558 413.723659 316.108160 419.686813 319.770165 425.649968 318.613742 431.613122 317.409135 437.576277 314.710815 443.539431 319.240138 449.502586 317.120029 455.465740 316.590002 461.428895 313.602577 467.392049 312.638891 473.355204 310.181493 479.318358 311.675206 485.281513 312.927997 491.244667 311.048810 497.207822 309.988756 503.170976 308.880517 509.134131 308.976886 515.097285 310.181493 521.060440 308.639596 527.023594 310.036940 532.986749 309.314176 538.949903 310.229677 544.913058 311.048810 550.876212 310.952441 556.839367 309.747834 562.802521 309.073254 568.765676 307.772279 574.728830 306.326750 580.691984 306.567672 586.655139 305.363065 592.618293 303.724799 598.581448 302.712929 604.544602 303.965721 610.507757 302.568376 616.470911 301.797428 622.434066 299.966425 628.397220 299.002740 634.360375 298.858187 640.323529 297.653580 646.286684 297.219921 652.249838 295.051629 658.212993 294.184312 664.176147 293.702469 670.139302 294.039759 676.102456 293.606100 682.065611 293.076073 688.028765 291.678729 693.991920 290.907780 699.955074 290.522306 705.918229 288.113092 711.881383 286.812116 717.844538 285.270219 723.807692 284.788377"/></g><g class="series serie-2 color-2"><path class="line reactive nofill" d="M14.192308 286.619379 L20.155462 286.619379 26.118617 286.619379 32.081771 286.619379 38.044926 286.619379 44.008080 286.619379 49.971235 286.619379 55.934389 286.619379 61.897544 286.619379 67.860698 286.619379 73.823853 286.619379 79.787007 286.619379 85.750162 286.619379 91.713316 286.619379 97.676471 286.619379 103.639625 286.619379 109.602780 286.619379 115.565934 286.619379 121.529089 286.619379 127.492243 286.619379 133.455398 286.619379 139.418552 286.619379 145.381707 286.619379 151.344861 286.619379 157.308016 286.619379 163.271170 286.619379 169.234324 286.619379 175.197479 286.619379 181.160633 286.619379 187.123788 286.619379 193.086942 286.619379 199.050097 286.619379 205.013251 286.619379 210.976406 286.619379 216.939560 286.619379 222.902715 286.619379 228.865869 286.619379 234.829024 286.619379 240.792178 286.619379 246.755333 286.619379 252.718487 286.619379 258.681642 286.619379 264.644796 286.619379 270.607951 286.619379 276.571105 286.619379 282.534260 286.619379 288.497414 286.619379 294.460569 286.619379 300.423723 286.619379 306.386878 286.619379 312.350032 286.619379 318.313187 286.619379 324.276341 286.619379 330.239496 286.619379 336.202650 286.619379 342.165805 286.619379 348.128959 286.619379 354.092114 286.619379 360.055268 286.619379 366.018423 286.619379 371.981577 286.619379 377.944732 286.619379 383.907886 286.619379 389.871041 286.619379 395.834195 286.619379 401.797350 286.619379 407.760504 286.619379 413.723659 286.619379 419.686813 286.619379 425.649968 286.619379 431.613122 286.619379 437.576277 286.619379 443.539431 286.619379 449.502586 286.619379 455.465740 286.619379 461.428895 286.619379 467.392049 286.619379 473.355204 286.619379 479.318358 286.619379 485.281513 286.619379 491.244667 286.619379 497.207822 286.619379 503.170976 286.619379 509.134131 286.619379 515.097285 286.619379 521.060440 286.619379 527.023594 286.619379 532.986749 286.619379 538.949903 286.619379 544.913058 286.619379 550.876212 286.619379 556.839367 286.619379 562.802521 286.619379 568.765676 286.619379 574.728830 286.619379 580.691984 286.619379 586.655139 286.619379 592.618293 286.619379 598.581448 286.619379 604.544602 286.619379 610.507757 286.619379 616.470911 286.619379 622.434066 286.619379 628.397220 286.619379 634.360375 286.619379 640.323529 286.619379 646.286684 286.619379 652.249838 286.619379 658.212993 286.619379 664.176147 286.619379 670.139302 286.619379 676.102456 286.619379 682.065611 286.619379 688.028765 286.619379 693.991920 286.619379 699.955074 286.619379 705.918229 286.619379 711.881383 286.619379 717.844538 286.619379 723.807692 286.619379"/></g></g><g class="titles"><text class="title plot_title" x="400.0" y="26">ME Waugh: Future and Past Averages in ODIs</text></g><g class="plot overlay" transform="translate(42, 46)"><g class="series serie-0 color-0"><g class="dots"><desc class="label">85 wickets in 120 innings (614.3 overs)</desc><circle class="dot reactive tooltip-trigger" cx="14.192307692307692" cy="286.6193793328631" r="2.5"/><desc class="value">34.56</desc><desc class="x top">14.192307692307692</desc><desc class="y top">286.6193793328631</desc><desc class="x_label">1990</desc></g><g class="dots"><desc class="label">80 wickets in 115 innings (591.3 overs)</desc><circle class="dot reactive tooltip-trigger" cx="44.008080155138984" cy="282.2827940090857" r="2.5"/><desc class="value">35.46</desc><desc class="x top">44.008080155138984</desc><desc class="y top">282.2827940090857</desc><desc class="x_label">1991</desc></g><g class="dots"><desc class="label">65 wickets in 107 innings (538.0 overs)</desc><circle class="dot reactive tooltip-trigger" cx="91.71331609566903" cy="260.3107617019467" r="2.5"/><desc class="value">40.02</desc><desc class="x top">91.71331609566903</desc><desc class="y top">260.3107617019467</desc><desc class="x_label">1992</desc></g><g class="dots"><desc class="label">58 wickets in 98 innings (500.3 overs)</desc><circle class="dot reactive tooltip-trigger" cx="145.38170652876536" cy="252.60127668189796" r="2.5"/><desc class="value">41.62</desc><desc class="x top">145.38170652876536</desc><desc class="y top">252.60127668189796</desc><desc class="x_label">1993</desc></g><g class="dots"><desc class="label">53 wickets in 87 innings (460.3 overs)</desc><circle class="dot reactive tooltip-trigger" cx="210.9764059469942" cy="252.50490811914733" r="2.5"/><desc class="value">41.64</desc><desc class="x top">210.9764059469942</desc><desc class="y top">252.50490811914733</desc><desc class="x_label">1994</desc></g><g class="dots"><desc class="label">41 wickets in 69 innings (368.4 overs)</desc><circle class="dot reactive tooltip-trigger" cx="318.3131868131868" cy="248.9874555787501" r="2.5"/><desc class="value">42.37</desc><desc class="x top">318.3131868131868</desc><desc class="y top">248.9874555787501</desc><desc class="x_label">1995</desc></g><g class="dots"><desc class="label">31 wickets in 61 innings (313.0 overs)</desc><circle class="dot reactive tooltip-trigger" cx="366.0184227537169" cy="222.63065366645836" r="2.5"/><desc class="value">47.84</desc><desc class="x ">366.0184227537169</desc><desc class="y ">222.63065366645836</desc><desc class="x_label">1996</desc></g><g class="dots"><desc class="label">15 wickets in 41 innings (191.0 overs)</desc><circle class="dot reactive tooltip-trigger" cx="485.281512605042" cy="163.70127754446054" r="2.5"/><desc class="value">60.07</desc><desc class="x left">485.281512605042</desc><desc class="y left">163.70127754446054</desc><desc class="x_label">1997</desc></g><g class="dots"><desc class="label">11 wickets in 34 innings (157.0 overs)</desc><circle class="dot reactive tooltip-trigger" cx="527.0235940530058" cy="129.00859495424112" r="2.5"/><desc class="value">67.27</desc><desc class="x left">527.0235940530058</desc><desc class="y left">129.00859495424112</desc><desc class="x_label">1998</desc></g><g class="dots"><desc class="label">6 wickets in 22 innings (101.0 overs)</desc><circle class="dot reactive tooltip-trigger" cx="598.5814479638009" cy="74.07851418639359" r="2.5"/><desc class="value">78.67</desc><desc class="x left">598.5814479638009</desc><desc class="y left">74.07851418639359</desc><desc class="x_label">1999</desc></g><g class="dots"><desc class="label">4 wickets in 12 innings (53.0 overs)</desc><circle class="dot reactive tooltip-trigger" cx="658.2129928894635" cy="132.71878462013956" r="2.5"/><desc class="value">66.5</desc><desc class="x left">658.2129928894635</desc><desc class="y left">132.71878462013956</desc><desc class="x_label">2000</desc></g><g class="dots"><desc class="label">2 wickets in 5 innings (28.0 overs)</desc><circle class="dot reactive tooltip-trigger" cx="699.9550743374273" cy="123.08192834507861" r="2.5"/><desc class="value">68.5</desc><desc class="x left">699.9550743374273</desc><desc class="y left">123.08192834507861</desc><desc class="x_label">2001</desc></g><g class="dots"><desc class="label">2 wickets in 2 innings (11.0 overs)</desc><circle class="dot reactive tooltip-trigger" cx="717.844537815126" cy="342.32040860271553" r="2.5"/><desc class="value">23</desc><desc class="x left top">717.844537815126</desc><desc class="y left top">342.32040860271553</desc><desc class="x_label">2002</desc></g></g><g class="series serie-1 color-1"><g class="dots"><desc class="label">0 wickets over 0 innings</desc><circle class="dot reactive tooltip-trigger" cx="14.192307692307692" cy="453.1442557659166" r="2.5"/><desc class="value">0</desc><desc class="x top">14.192307692307692</desc><desc class="y top">453.1442557659166</desc><desc class="x_label">1990</desc></g><g class="dots"><desc class="label">5 wickets in 5 innings (23.0 overs)</desc><circle class="dot reactive tooltip-trigger" cx="44.008080155138984" cy="355.8120073878009" r="2.5"/><desc class="value">20.2</desc><desc class="x top">44.008080155138984</desc><desc class="y top">355.8120073878009</desc><desc class="x_label">1991</desc></g><g class="dots"><desc class="label">20 wickets in 13 innings (76.3 overs)</desc><circle class="dot reactive tooltip-trigger" cx="91.71331609566903" cy="371.95374164852797" r="2.5"/><desc class="value">16.85</desc><desc class="x top">91.71331609566903</desc><desc class="y top">371.95374164852797</desc><desc class="x_label">1992</desc></g><g class="dots"><desc class="label">27 wickets in 22 innings (114.0 overs)</desc><circle class="dot reactive tooltip-trigger" cx="145.38170652876536" cy="359.61856561645" r="2.5"/><desc class="value">19.41</desc><desc class="x top">145.38170652876536</desc><desc class="y top">359.61856561645</desc><desc class="x_label">1993</desc></g><g class="dots"><desc class="label">32 wickets in 33 innings (154.0 overs)</desc><circle class="dot reactive tooltip-trigger" cx="210.9764059469942" cy="343.0913571047204" r="2.5"/><desc class="value">22.84</desc><desc class="x top">210.9764059469942</desc><desc class="y top">343.0913571047204</desc><desc class="x_label">1994</desc></g><g class="dots"><desc class="label">44 wickets in 51 innings (245.5 overs)</desc><circle class="dot reactive tooltip-trigger" cx="318.3131868131868" cy="321.60116761133446" r="2.5"/><desc class="value">27.3</desc><desc class="x top">318.3131868131868</desc><desc class="y top">321.60116761133446</desc><desc class="x_label">1995</desc></g><g class="dots"><desc class="label">54 wickets in 59 innings (301.3 overs)</desc><circle class="dot reactive tooltip-trigger" cx="366.0184227537169" cy="323.33580174084545" r="2.5"/><desc class="value">26.94</desc><desc class="x top">366.0184227537169</desc><desc class="y top">323.33580174084545</desc><desc class="x_label">1996</desc></g><g class="dots"><desc class="label">70 wickets in 79 innings (423.3 overs)</desc><circle class="dot reactive tooltip-trigger" cx="485.281512605042" cy="312.9279969637796" r="2.5"/><desc class="value">29.1</desc><desc class="x left top">485.281512605042</desc><desc class="y left top">312.9279969637796</desc><desc class="x_label">1997</desc></g><g class="dots"><desc class="label">74 wickets in 86 innings (457.3 overs)</desc><circle class="dot reactive tooltip-trigger" cx="527.0235940530058" cy="310.03694008126126" r="2.5"/><desc class="value">29.7</desc><desc class="x left top">527.0235940530058</desc><desc class="y left top">310.03694008126126</desc><desc class="x_label">1998</desc></g><g class="dots"><desc class="label">79 wickets in 98 innings (513.3 overs)</desc><circle class="dot reactive tooltip-trigger" cx="598.5814479638009" cy="302.712929312215" r="2.5"/><desc class="value">31.22</desc><desc class="x left top">598.5814479638009</desc><desc class="y left top">302.712929312215</desc><desc class="x_label">1999</desc></g><g class="dots"><desc class="label">81 wickets in 108 innings (561.3 overs)</desc><circle class="dot reactive tooltip-trigger" cx="658.2129928894635" cy="294.184311508786" r="2.5"/><desc class="value">32.99</desc><desc class="x left top">658.2129928894635</desc><desc class="y left top">294.184311508786</desc><desc class="x_label">2000</desc></g><g class="dots"><desc class="label">83 wickets in 115 innings (586.3 overs)</desc><circle class="dot reactive tooltip-trigger" cx="699.9550743374273" cy="290.52230612426285" r="2.5"/><desc class="value">33.75</desc><desc class="x left top">699.9550743374273</desc><desc class="y left top">290.52230612426285</desc><desc class="x_label">2001</desc></g><g class="dots"><desc class="label">83 wickets in 118 innings (603.3 overs)</desc><circle class="dot reactive tooltip-trigger" cx="717.844537815126" cy="285.2702194543546" r="2.5"/><desc class="value">34.84</desc><desc class="x left top">717.844537815126</desc><desc class="y left top">285.2702194543546</desc><desc class="x_label">2002</desc></g></g><g class="series serie-2 color-2"/></g><g class="plot text-overlay" transform="translate(42, 46)"><g class="series serie-0 color-0"/><g class="series serie-1 color-1"/><g class="series serie-2 color-2"/></g><g class="plot tooltip-overlay" transform="translate(42, 46)"><g class="tooltip" style="opacity: 0" transform="translate(0 0)"><rect class="tooltip-box" height="0" rx="10" ry="10" width="0"/><g class="text"/></g></g><g class="legends" transform="translate(52, 545)"><g class="legend reactive activate-serie" id="activate-serie-0"><rect class="color-0 reactive" height="12" width="12" x="0.0" y="1.0"/><text x="17.0" y="11.2">Future Average</text></g><g class="legend reactive activate-serie" id="activate-serie-1"><rect class="color-1 reactive" height="12" width="12" x="369.0" y="1.0"/><text x="386.0" y="11.2">Past Average</text></g><g class="legend reactive activate-serie" id="activate-serie-2"><rect class="color-2 reactive" height="12" width="12" x="0.0" y="22.0"/><text x="17.0" y="32.2">Career Average</text></g></g></g></svg>