<?xml version='1.0' encoding='utf-8'?>
<svg xmlns:xlink="http://www.w3.org/1999/xlink" xmlns="http://www.w3.org/2000/svg" id="chart-406b6201-4b78-4359-b69e-70ac0f3c6424" class="pygal-chart" viewBox="0 0 800 600"><!--Generated with pygal 2.4.0 (lxml) ©Kozea 2012-2016 on 2019-08-04--><!--http://pygal.org--><!--http://github.com/Kozea/pygal--><defs><style type="text/css">#chart-406b6201-4b78-4359-b69e-70ac0f3c6424{-webkit-user-select:none;-webkit-font-smoothing:antialiased;font-family:Consolas,"Liberation Mono",Menlo,Courier,monospace}#chart-406b6201-4b78-4359-b69e-70ac0f3c6424 .title{font-family:Consolas,"Liberation Mono",Menlo,Courier,monospace;font-size:16px}#chart-406b6201-4b78-4359-b69e-70ac0f3c6424 .legends .legend text{font-family:Consolas,"Liberation Mono",Menlo,Courier,monospace;font-size:14px}#chart-406b6201-4b78-4359-b69e-70ac0f3c6424 .axis text{font-family:Consolas,"Liberation Mono",Menlo,Courier,monospace;font-size:10px}#chart-406b6201-4b78-4359-b69e-70ac0f3c6424 .axis text.major{font-family:Consolas,"Liberation Mono",Menlo,Courier,monospace;font-size:10px}#chart-406b6201-4b78-4359-b69e-70ac0f3c6424 .text-overlay text.value{font-family:Consolas,"Liberation Mono",Menlo,Courier,monospace;font-size:16px}#chart-406b6201-4b78-4359-b69e-70ac0f3c6424 .text-overlay text.label{font-family:Consolas,"Liberation Mono",Menlo,Courier,monospace;font-size:10px}#chart-406b6201-4b78-4359-b69e-70ac0f3c6424 .tooltip{font-family:Consolas,"Liberation Mono",Menlo,Courier,monospace;font-size:14px}#chart-406b6201-4b78-4359-b69e-70ac0f3c6424 text.no_data{font-family:Consolas,"Liberation Mono",Menlo,Courier,monospace;font-size:64px}
#chart-406b6201-4b78-4359-b69e-70ac0f3c6424{background-color:rgba(249,249,249,1)}#chart-406b6201-4b78-4359-b69e-70ac0f3c6424 path,#chart-406b6201-4b78-4359-b69e-70ac0f3c6424 line,#chart-406b6201-4b78-4359-b69e-70ac0f3c6424 rect,#chart-406b6201-4b78-4359-b69e-70ac0f3c6424 circle{-webkit-transition:150ms;-moz-transition:150ms;transition:150ms}#chart-406b6201-4b78-4359-b69e-70ac0f3c6424 .graph &gt; .background{fill:rgba(249,249,249,1)}#chart-406b6201-4b78-4359-b69e-70ac0f3c6424 .plot &gt; .background{fill:rgba(255,255,255,1)}#chart-406b6201-4b78-4359-b69e-70ac0f3c6424 .graph{fill:rgba(0,0,0,.87)}#chart-406b6201-4b78-4359-b69e-70ac0f3c6424 text.no_data{fill:rgba(0,0,0,1)}#chart-406b6201-4b78-4359-b69e-70ac0f3c6424 .title{fill:rgba(0,0,0,1)}#chart-406b6201-4b78-4359-b69e-70ac0f3c6424 .legends .legend text{fill:rgba(0,0,0,.87)}#chart-406b6201-4b78-4359-b69e-70ac0f3c6424 .legends .legend:hover text{fill:rgba(0,0,0,1)}#chart-406b6201-4b78-4359-b69e-70ac0f3c6424 .axis .line{stroke:rgba(0,0,0,1)}#chart-406b6201-4b78-4359-b69e-70ac0f3c6424 .axis .guide.line{stroke:rgba(0,0,0,.54)}#chart-406b6201-4b78-4359-b69e-70ac0f3c6424 .axis .major.line{stroke:rgba(0,0,0,.87)}#chart-406b6201-4b78-4359-b69e-70ac0f3c6424 .axis text.major{fill:rgba(0,0,0,1)}#chart-406b6201-4b78-4359-b69e-70ac0f3c6424 .axis.y .guides:hover .guide.line,#chart-406b6201-4b78-4359-b69e-70ac0f3c6424 .line-graph .axis.x .guides:hover .guide.line,#chart-406b6201-4b78-4359-b69e-70ac0f3c6424 .stackedline-graph .axis.x .guides:hover .guide.line,#chart-406b6201-4b78-4359-b69e-70ac0f3c6424 .xy-graph .axis.x .guides:hover .guide.line{stroke:rgba(0,0,0,1)}#chart-406b6201-4b78-4359-b69e-70ac0f3c6424 .axis .guides:hover text{fill:rgba(0,0,0,1)}#chart-406b6201-4b78-4359-b69e-70ac0f3c6424 .reactive{fill-opacity:.7;stroke-opacity:.8}#chart-406b6201-4b78-4359-b69e-70ac0f3c6424 .ci{stroke:rgba(0,0,0,.87)}#chart-406b6201-4b78-4359-b69e-70ac0f3c6424 .reactive.active,#chart-406b6201-4b78-4359-b69e-70ac0f3c6424 .active .reactive{fill-opacity:.8;stroke-opacity:.9;stroke-width:4}#chart-406b6201-4b78-4359-b69e-70ac0f3c6424 .ci .reactive.active{stroke-width:1.5}#chart-406b6201-4b78-4359-b69e-70ac0f3c6424 .series text{fill:rgba(0,0,0,1)}#chart-406b6201-4b78-4359-b69e-70ac0f3c6424 .tooltip rect{fill:rgba(255,255,255,1);stroke:rgba(0,0,0,1);-webkit-transition:opacity 150ms;-moz-transition:opacity 150ms;transition:opacity 150ms}#chart-406b6201-4b78-4359-b69e-70ac0f3c6424 .tooltip .label{fill:rgba(0,0,0,.87)}#chart-406b6201-4b78-4359-b69e-70ac0f3c6424 .tooltip .label{fill:rgba(0,0,0,.87)}#chart-406b6201-4b78-4359-b69e-70ac0f3c6424 .tooltip .legend{font-size:.8em;fill:rgba(0,0,0,.54)}#chart-406b6201-4b78-4359-b69e-70ac0f3c6424 .tooltip .x_label{font-size:.6em;fill:rgba(0,0,0,1)}#chart-406b6201-4b78-4359-b69e-70ac0f3c6424 .tooltip .xlink{font-size:.5em;text-decoration:underline}#chart-406b6201-4b78-4359-b69e-70ac0f3c6424 .tooltip .value{font-size:1.5em}#chart-406b6201-4b78-4359-b69e-70ac0f3c6424 .bound{font-size:.5em}#chart-406b6201-4b78-4359-b69e-70ac0f3c6424 .max-value{font-size:.75em;fill:rgba(0,0,0,.54)}#chart-406b6201-4b78-4359-b69e-70ac0f3c6424 .map-element{fill:rgba(255,255,255,1);stroke:rgba(0,0,0,.54) !important}#chart-406b6201-4b78-4359-b69e-70ac0f3c6424 .map-element .reactive{fill-opacity:inherit;stroke-opacity:inherit}#chart-406b6201-4b78-4359-b69e-70ac0f3c6424 .color-0,#chart-406b6201-4b78-4359-b69e-70ac0f3c6424 .color-0 a:visited{stroke:red;fill:red}#chart-406b6201-4b78-4359-b69e-70ac0f3c6424 .color-1,#chart-406b6201-4b78-4359-b69e-70ac0f3c6424 .color-1 a:visited{stroke:blue;fill:blue}#chart-406b6201-4b78-4359-b69e-70ac0f3c6424 .color-2,#chart-406b6201-4b78-4359-b69e-70ac0f3c6424 .color-2 a:visited{stroke:green;fill:green}#chart-406b6201-4b78-4359-b69e-70ac0f3c6424 .text-overlay .color-0 text{fill:white}#chart-406b6201-4b78-4359-b69e-70ac0f3c6424 .text-overlay .color-1 text{fill:white}#chart-406b6201-4b78-4359-b69e-70ac0f3c6424 .text-overlay .color-2 text{fill:white}
#chart-406b6201-4b78-4359-b69e-70ac0f3c6424 text.no_data{text-anchor:middle}#chart-406b6201-4b78-4359-b69e-70ac0f3c6424 .guide.line{fill:none}#chart-406b6201-4b78-4359-b69e-70ac0f3c6424 .centered{text-anchor:middle}#chart-406b6201-4b78-4359-b69e-70ac0f3c6424 .title{text-anchor:middle}#chart-406b6201-4b78-4359-b69e-70ac0f3c6424 .legends .legend text{fill-opacity:1}#chart-406b6201-4b78-4359-b69e-70ac0f3c6424 .axis.x text{text-anchor:middle}#chart-406b6201-4b78-4359-b69e-70ac0f3c6424 .axis.x:not(.web) text[transform]{text-anchor:start}#chart-406b6201-4b78-4359-b69e-70ac0f3c6424 .axis.x:not(.web) text[transform].backwards{text-anchor:end}#chart-406b6201-4b78-4359-b69e-70ac0f3c6424 .axis.y text{text-anchor:end}#chart-406b6201-4b78-4359-b69e-70ac0f3c6424 .axis.y text[transform].backwards{text-anchor:start}#chart-406b6201-4b78-4359-b69e-70ac0f3c6424 .axis.y2 text{text-anchor:start}#chart-406b6201-4b78-4359-b69e-70ac0f3c6424 .axis.y2 text[transform].backwards{text-anchor:end}#chart-406b6201-4b78-4359-b69e-70ac0f3c6424 .axis .guide.line{stroke-dasharray:4,4}#chart-406b6201-4b78-4359-b69e-70ac0f3c6424 .axis .major.guide.line{stroke-dasharray:6,6}#chart-406b6201-4b78-4359-b69e-70ac0f3c6424 .horizontal .axis.y .guide.line,#chart-406b6201-4b78-4359-b69e-70ac0f3c6424 .horizontal .axis.y2 .guide.line,#chart-406b6201-4b78-4359-b69e-70ac0f3c6424 .vertical .axis.x .guide.line{opacity:0}#chart-406b6201-4b78-4359-b69e-70ac0f3c6424 .horizontal .axis.always_show .guide.line,#chart-406b6201-4b78-4359-b69e-70ac0f3c6424 .vertical .axis.always_show .guide.line{opacity:1 !important}#chart-406b6201-4b78-4359-b69e-70ac0f3c6424 .axis.y .guides:hover .guide.line,#chart-406b6201-4b78-4359-b69e-70ac0f3c6424 .axis.y2 .guides:hover .guide.line,#chart-406b6201-4b78-4359-b69e-70ac0f3c6424 .axis.x .guides:hover .guide.line{opacity:1}#chart-406b6201-4b78-4359-b69e-70ac0f3c6424 .axis .guides:hover text{opacity:1}#chart-406b6201-4b78-4359-b69e-70ac0f3c6424 .nofill{fill:none}#chart-406b6201-4b78-4359-b69e-70ac0f3c6424 .subtle-fill{fill-opacity:.2}#chart-406b6201-4b78-4359-b69e-70ac0f3c6424 .dot{stroke-width:1px;fill-opacity:1}#chart-406b6201-4b78-4359-b69e-70ac0f3c6424 .dot.active{stroke-width:5px}#chart-406b6201-4b78-4359-b69e-70ac0f3c6424 .dot.negative{fill:transparent}#chart-406b6201-4b78-4359-b69e-70ac0f3c6424 text,#chart-406b6201-4b78-4359-b69e-70ac0f3c6424 tspan{stroke:none !important}#chart-406b6201-4b78-4359-b69e-70ac0f3c6424 .series text.active{opacity:1}#chart-406b6201-4b78-4359-b69e-70ac0f3c6424 .tooltip rect{fill-opacity:.95;stroke-width:.5}#chart-406b6201-4b78-4359-b69e-70ac0f3c6424 .tooltip text{fill-opacity:1}#chart-406b6201-4b78-4359-b69e-70ac0f3c6424 .showable{visibility:hidden}#chart-406b6201-4b78-4359-b69e-70ac0f3c6424 .showable.shown{visibility:visible}#chart-406b6201-4b78-4359-b69e-70ac0f3c6424 .gauge-background{fill:rgba(229,229,229,1);stroke:none}#chart-406b6201-4b78-4359-b69e-70ac0f3c6424 .bg-lines{stroke:rgba(249,249,249,1);stroke-width:2px}</style><script type="text/javascript">window.pygal = window.pygal || {};window.pygal.config = window.pygal.config || {};window.pygal.config['406b6201-4b78-4359-b69e-70ac0f3c6424'] = {"allow_interruptions": false, "box_mode": "extremes", "classes": ["pygal-chart"], "css": ["file://style.css", "file://graph.css"], "defs": [], "disable_xml_declaration": false, "dots_size": 2.5, "dynamic_print_values": false, "explicit_size": false, "fill": false, "force_uri_protocol": "https", "formatter": null, "half_pie": false, "height": 600, "include_x_axis": false, "inner_radius": 0, "interpolate": null, "interpolation_parameters": {}, "interpolation_precision": 250, "inverse_y_axis": false, "js": ["//kozea.github.io/pygal.js/2.0.x/pygal-tooltips.min.js"], "legend_at_bottom": true, "legend_at_bottom_columns": null, "legend_box_size": 12, "logarithmic": false, "margin": 20, "margin_bottom": null, "margin_left": null, "margin_right": null, "margin_top": null, "max_scale": 16, "min_scale": 4, "missing_value_fill_truncation": "x", "no_data_text": "No data", "no_prefix": false, "order_min": null, "pretty_print": false, "print_labels": false, "print_values": false, "print_values_position": "center", "print_zeroes": true, "range": null, "rounded_bars": null, "secondary_range": null, "show_dots": true, "show_legend": true, "show_minor_x_labels": false, "show_minor_y_labels": true, "show_only_major_dots": false, "show_x_guides": false, "show_x_labels": true, "show_y_guides": true, "show_y_labels": true, "spacing": 10, "stack_from_top": false, "strict": false, "stroke": true, "stroke_style": null, "style": {"background": "rgba(249, 249, 249, 1)", "ci_colors": [], "colors": ["red", "blue", "green", "#a3a3a3"], "font_family": "Consolas, \"Liberation Mono\", Menlo, Courier, monospace", "foreground": "rgba(0, 0, 0, .87)", "foreground_strong": "rgba(0, 0, 0, 1)", "foreground_subtle": "rgba(0, 0, 0, .54)", "guide_stroke_dasharray": "4,4", "label_font_family": "Consolas, \"Liberation Mono\", Menlo, Courier, monospace", "label_font_size": 10, "legend_font_family": "Consolas, \"Liberation Mono\", Menlo, Courier, monospace", "legend_font_size": 14, "major_guide_stroke_dasharray": "6,6", "major_label_font_family": "Consolas, \"Liberation Mono\", Menlo, Courier, monospace", "major_label_font_size": 10, "no_data_font_family": "Consolas, \"Liberation Mono\", Menlo, Courier, monospace", "no_data_font_size": 64, "opacity": ".7", "opacity_hover": ".8", "plot_background": "rgba(255, 255, 255, 1)", "stroke_opacity": ".8", "stroke_opacity_hover": ".9", "title_font_family": "Consolas, \"Liberation Mono\", Menlo, Courier, monospace", "title_font_size": 16, "tooltip_font_family": "Consolas, \"Liberation Mono\", Menlo, Courier, monospace", "tooltip_font_size": 14, "transition": "150ms", "value_background": "rgba(229, 229, 229, 1)", "value_colors": [], "value_font_family": "Consolas, \"Liberation Mono\", Menlo, Courier, monospace", "value_font_size": 16, "value_label_font_family": "Consolas, \"Liberation Mono\", Menlo, Courier, monospace", "value_label_font_size": 10}, "title": "MF Maharoof: Future and Past Averages in ODIs", "tooltip_border_radius": 10, "tooltip_fancy_mode": true, "truncate_label": null, "truncate_legend": null, "width": 800, "x_label_rotation": 45, "x_labels": ["2004", "0", "0", "0", "0", "0", "0", "0", "0", "0", "0", "0", "0", "0", "0", "0", "0", "2005", "0", "0", "0", "0", "0", "0", "0", "0", "0", "0", "0", "0", "0", "2006", "0", "0", "0", "0", "0", "0", "0", "0", "0", "0", "0", "0", "0", "0", "0", "0", "0", "0", "0", "0", "2007", "0", "0", "0", "0", "0", "0", "0", "0", "0", "0", "0", "0", "0", "0", "0", "0", "0", "0", "0", "2008", "0", "0", "0", "0", "0", "0", "2009", "0", "0", "0", "0", "0", "0", "0", "0", "2010", "0", "0", "2012", "0", "0", "0", "0", "0", "0", "0", "0", "0", "2016", "0", "0", "0"], "x_labels_major": ["2004", "2005", "2006", "2007", "2008", "2009", "2010", "2012", "2016"], "x_labels_major_count": null, "x_labels_major_every": null, "x_title": null, "xrange": null, "y_label_rotation": 0, "y_labels": null, "y_labels_major": null, "y_labels_major_count": null, "y_labels_major_every": null, "y_title": null, "zero": 170.0, "legends": ["Future Average", "Past Average", "Career Average"]}</script><script type="text/javascript" xlink:href="https://kozea.github.io/pygal.js/2.0.x/pygal-tooltips.min.js"/></defs><title>MF Maharoof: Future and Past Averages in ODIs</title><g class="graph line-graph vertical"><rect class="background" height="600" width="800" x="0" y="0"/><g class="plot" transform="translate(48, 46)"><rect class="background" height="462.02943725152284" width="732.0" x="0" y="0"/><g class="axis y always_show"><g class="guides"><path class="axis major line" d="M0.000000 453.144256 h732.000000"/><text class="major" x="-5" y="456.6442557659166">0</text><title>0</title></g><g class="guides"><path class="guide line" d="M0.000000 398.966320 h732.000000"/><text class="" x="-5" y="402.4663198780739">20</text><title>20</title></g><g class="guides"><path class="guide line" d="M0.000000 344.788384 h732.000000"/><text class="" x="-5" y="348.2883839902312">40</text><title>40</title></g><g class="guides"><path class="guide line" d="M0.000000 290.610448 h732.000000"/><text class="" x="-5" y="294.11044810238843">60</text><title>60</title></g><g class="guides"><path class="guide line" d="M0.000000 236.432512 h732.000000"/><text class="" x="-5" y="239.9325122145457">80</text><title>80</title></g><g class="guides"><path class="major guide line" d="M0.000000 182.254576 h732.000000"/><text class="major" x="-5" y="185.754576326703">100</text><title>100</title></g><g class="guides"><path class="guide line" d="M0.000000 128.076640 h732.000000"/><text class="" x="-5" y="131.57664043886024">120</text><title>120</title></g><g class="guides"><path class="guide line" d="M0.000000 73.898705 h732.000000"/><text class="" x="-5" y="77.39870455101749">140</text><title>140</title></g><g class="guides"><path class="guide line" d="M0.000000 19.720769 h732.000000"/><text class="" x="-5" y="23.220768663174738">160</text><title>160</title></g></g><g class="axis x"><g class="guides"><path class="major line" d="M14.076923 0.000000 v462.029437"/><text class="major" x="14.076923076923077" y="477.02943725152284" transform="rotate(45 14.076923 477.029437)">2004</text></g><g class="guides"><path class="major guide line" d="M129.128698 0.000000 v462.029437"/><text class="major" x="129.12869822485206" y="477.02943725152284" transform="rotate(45 129.128698 477.029437)">2005</text></g><g class="guides"><path class="major guide line" d="M223.877219 0.000000 v462.029437"/><text class="major" x="223.87721893491124" y="477.02943725152284" transform="rotate(45 223.877219 477.029437)">2006</text></g><g class="guides"><path class="major guide line" d="M366.000000 0.000000 v462.029437"/><text class="major" x="366.0" y="477.02943725152284" transform="rotate(45 366.000000 477.029437)">2007</text></g><g class="guides"><path class="major guide line" d="M501.355030 0.000000 v462.029437"/><text class="major" x="501.35502958579883" y="477.02943725152284" transform="rotate(45 501.355030 477.029437)">2008</text></g><g class="guides"><path class="major guide line" d="M548.729290 0.000000 v462.029437"/><text class="major" x="548.7292899408284" y="477.02943725152284" transform="rotate(45 548.729290 477.029437)">2009</text></g><g class="guides"><path class="major guide line" d="M609.639053 0.000000 v462.029437"/><text class="major" x="609.6390532544378" y="477.02943725152284" transform="rotate(45 609.639053 477.029437)">2010</text></g><g class="guides"><path class="major guide line" d="M629.942308 0.000000 v462.029437"/><text class="major" x="629.9423076923076" y="477.02943725152284" transform="rotate(45 629.942308 477.029437)">2012</text></g><g class="guides"><path class="major guide line" d="M697.619822 0.000000 v462.029437"/><text class="major" x="697.619822485207" y="477.02943725152284" transform="rotate(45 697.619822 477.029437)">2016</text></g></g><g class="series serie-0 color-0"><path class="line reactive nofill" d="M14.076923 377.105523 L20.844675 375.453096 27.612426 374.640427 34.380178 375.913608 41.147929 376.292854 47.915680 375.615630 54.683432 375.696896 61.451183 375.886519 68.218935 376.238676 74.986686 376.482476 81.754438 376.319943 88.522189 377.240968 95.289941 376.211587 102.057692 375.994875 108.825444 376.915900 115.593195 375.859430 122.360947 376.319943 129.128698 377.051345 135.896450 377.024256 142.664201 375.236384 149.431953 375.778163 156.199704 376.617921 162.967456 377.782747 169.735207 376.428299 176.502959 374.911316 183.270710 376.265765 190.038462 376.021964 196.806213 377.322234 203.573964 378.378704 210.341716 375.940697 217.109467 376.590832 223.877219 377.078434 230.644970 376.672099 237.412722 377.240968 244.180473 375.696896 250.948225 375.967786 257.715976 376.645010 264.483728 374.830049 271.251479 374.667516 278.019231 374.802960 284.786982 375.100939 291.554734 376.265765 298.322485 376.617921 305.090237 377.349323 311.857988 376.970078 318.625740 376.401210 325.393491 375.128028 332.161243 375.398918 338.928994 369.547701 345.696746 369.276811 352.464497 369.385167 359.232249 370.685437 366.000000 371.064683 372.767751 370.387459 379.535503 370.252014 386.303254 368.166163 393.071006 370.116569 399.838757 371.362662 406.606509 366.947160 413.374260 366.676270 420.142012 368.572498 426.909763 370.008213 433.677515 372.392042 440.445266 367.732740 447.213018 368.518320 453.980769 367.001338 460.748521 365.863601 467.516272 365.836512 474.284024 364.617509 481.051775 363.100526 487.819527 356.355373 494.587278 350.856313 501.355030 344.707117 508.122781 344.138249 514.890533 345.194719 521.658284 348.716284 528.426036 343.731914 535.193787 342.431644 541.961538 332.760882 548.729290 336.661694 555.497041 335.632313 562.264793 335.686491 569.032544 339.045523 575.800296 335.632313 582.568047 334.657110 589.335799 328.535003 596.103550 337.311829 602.871302 345.059274 609.639053 340.237437 616.406805 347.795259 623.174556 318.268284 629.942308 326.205352 636.710059 309.112213 643.477811 308.841324 650.245562 305.238491 657.013314 295.134306 663.781065 297.057622 670.548817 321.085537 677.316568 263.521480 684.084320 188.566306 690.852071 87.443189 697.619822 149.747815 704.387574 8.885181 711.155325 168.710092 717.923077 296.028242"/></g><g class="series serie-1 color-1"><path class="line reactive nofill" d="M14.076923 453.144256 L20.844675 450.435359 27.612426 441.225110 34.380178 408.176569 41.147929 394.902975 47.915680 400.997992 54.683432 396.853380 61.451183 392.464968 68.218935 388.130733 74.986686 384.880057 81.754438 386.153238 88.522189 375.805252 95.289941 385.042590 102.057692 386.153238 108.825444 378.730861 115.593195 385.746904 122.360947 382.550405 129.128698 377.620213 135.896450 377.755658 142.664201 387.345153 149.431953 383.931943 156.199704 379.624797 162.967456 373.719402 169.735207 380.112398 176.502959 385.530192 183.270710 380.193665 190.038462 380.897978 196.806213 376.401210 203.573964 372.690021 210.341716 380.572911 217.109467 378.649594 223.877219 377.213879 230.644970 378.351615 237.412722 376.780455 244.180473 380.491644 250.948225 379.733153 257.715976 378.216170 264.483728 381.846092 271.251479 381.981537 278.019231 381.602291 284.786982 380.870889 291.554734 378.676683 298.322485 378.053637 305.090237 376.672099 311.857988 377.349323 318.625740 378.243259 325.393491 380.004042 332.161243 379.516441 338.928994 386.044882 345.696746 386.071971 352.464497 385.665637 359.232249 384.229921 366.000000 383.633964 372.767751 384.148654 379.535503 384.094476 386.303254 385.421836 393.071006 383.606875 399.838757 382.306605 406.606509 385.232213 413.374260 385.205124 420.142012 383.742320 426.909763 382.631672 433.677515 380.789622 440.445266 383.552697 447.213018 382.848384 453.980769 383.254718 460.748521 383.525608 467.516272 383.335985 474.284024 383.796498 481.051775 384.121565 487.819527 386.180327 494.587278 387.399331 501.355030 388.455800 508.122781 388.212000 514.890533 387.453509 521.658284 386.288683 528.426036 387.074263 535.193787 387.020085 541.961538 388.212000 548.729290 387.236797 555.497041 387.020085 562.264793 386.532484 569.032544 385.773992 575.800296 386.071971 582.568047 385.828170 589.335799 386.071971 596.103550 384.446633 602.871302 383.010918 609.639053 383.146363 616.406805 381.927359 623.174556 383.931943 629.942308 383.010918 636.710059 383.742320 643.477811 383.173452 650.245562 382.875473 657.013314 382.983829 663.781065 382.171160 670.548817 380.654178 677.316568 381.493936 684.084320 381.412669 690.852071 381.466847 697.619822 380.545822 704.387574 379.868597 711.155325 379.218462 717.923077 378.270348"/></g><g class="series serie-2 color-2"><path class="line reactive nofill" d="M14.076923 377.105523 L20.844675 377.105523 27.612426 377.105523 34.380178 377.105523 41.147929 377.105523 47.915680 377.105523 54.683432 377.105523 61.451183 377.105523 68.218935 377.105523 74.986686 377.105523 81.754438 377.105523 88.522189 377.105523 95.289941 377.105523 102.057692 377.105523 108.825444 377.105523 115.593195 377.105523 122.360947 377.105523 129.128698 377.105523 135.896450 377.105523 142.664201 377.105523 149.431953 377.105523 156.199704 377.105523 162.967456 377.105523 169.735207 377.105523 176.502959 377.105523 183.270710 377.105523 190.038462 377.105523 196.806213 377.105523 203.573964 377.105523 210.341716 377.105523 217.109467 377.105523 223.877219 377.105523 230.644970 377.105523 237.412722 377.105523 244.180473 377.105523 250.948225 377.105523 257.715976 377.105523 264.483728 377.105523 271.251479 377.105523 278.019231 377.105523 284.786982 377.105523 291.554734 377.105523 298.322485 377.105523 305.090237 377.105523 311.857988 377.105523 318.625740 377.105523 325.393491 377.105523 332.161243 377.105523 338.928994 377.105523 345.696746 377.105523 352.464497 377.105523 359.232249 377.105523 366.000000 377.105523 372.767751 377.105523 379.535503 377.105523 386.303254 377.105523 393.071006 377.105523 399.838757 377.105523 406.606509 377.105523 413.374260 377.105523 420.142012 377.105523 426.909763 377.105523 433.677515 377.105523 440.445266 377.105523 447.213018 377.105523 453.980769 377.105523 460.748521 377.105523 467.516272 377.105523 474.284024 377.105523 481.051775 377.105523 487.819527 377.105523 494.587278 377.105523 501.355030 377.105523 508.122781 377.105523 514.890533 377.105523 521.658284 377.105523 528.426036 377.105523 535.193787 377.105523 541.961538 377.105523 548.729290 377.105523 555.497041 377.105523 562.264793 377.105523 569.032544 377.105523 575.800296 377.105523 582.568047 377.105523 589.335799 377.105523 596.103550 377.105523 602.871302 377.105523 609.639053 377.105523 616.406805 377.105523 623.174556 377.105523 629.942308 377.105523 636.710059 377.105523 643.477811 377.105523 650.245562 377.105523 657.013314 377.105523 663.781065 377.105523 670.548817 377.105523 677.316568 377.105523 684.084320 377.105523 690.852071 377.105523 697.619822 377.105523 704.387574 377.105523 711.155325 377.105523 717.923077 377.105523"/></g></g><g class="titles"><text class="title plot_title" x="400.0" y="26">MF Maharoof: Future and Past Averages in ODIs</text></g><g class="plot overlay" transform="translate(48, 46)"><g class="series serie-0 color-0"><g class="dots"><desc class="label">135 wickets in 105 innings (773.2 overs)</desc><circle class="dot reactive tooltip-trigger" cx="14.076923076923077" cy="377.10552274732936" r="2.5"/><desc class="value">28.07</desc><desc class="x top">14.076923076923077</desc><desc class="y top">377.10552274732936</desc><desc class="x_label">2004</desc></g><g class="dots"><desc class="label">118 wickets in 88 innings (667.0 overs)</desc><circle class="dot reactive tooltip-trigger" cx="129.12869822485206" cy="377.0513448114415" r="2.5"/><desc class="value">28.09</desc><desc class="x top">129.12869822485206</desc><desc class="y top">377.0513448114415</desc><desc class="x_label">2005</desc></g><g class="dots"><desc class="label">101 wickets in 74 innings (571.0 overs)</desc><circle class="dot reactive tooltip-trigger" cx="223.87721893491124" cy="377.0784337793854" r="2.5"/><desc class="value">28.08</desc><desc class="x top">223.87721893491124</desc><desc class="y top">377.0784337793854</desc><desc class="x_label">2006</desc></g><g class="dots"><desc class="label">70 wickets in 53 innings (418.4 overs)</desc><circle class="dot reactive tooltip-trigger" cx="366.0" cy="371.0646828958349" r="2.5"/><desc class="value">30.3</desc><desc class="x top">366.0</desc><desc class="y top">371.0646828958349</desc><desc class="x_label">2007</desc></g><g class="dots"><desc class="label">35 wickets in 33 innings (260.5 overs)</desc><circle class="dot reactive tooltip-trigger" cx="501.35502958579883" cy="344.7071170863994" r="2.5"/><desc class="value">40.03</desc><desc class="x left top">501.35502958579883</desc><desc class="y left top">344.7071170863994</desc><desc class="x_label">2008</desc></g><g class="dots"><desc class="label">27 wickets in 26 innings (207.4 overs)</desc><circle class="dot reactive tooltip-trigger" cx="548.7292899408284" cy="336.66169360705476" r="2.5"/><desc class="value">43</desc><desc class="x left top">548.7292899408284</desc><desc class="y left top">336.66169360705476</desc><desc class="x_label">2009</desc></g><g class="dots"><desc class="label">19 wickets in 17 innings (142.0 overs)</desc><circle class="dot reactive tooltip-trigger" cx="609.6390532544378" cy="340.23743737565235" r="2.5"/><desc class="value">41.68</desc><desc class="x left top">609.6390532544378</desc><desc class="y left top">340.23743737565235</desc><desc class="x_label">2010</desc></g><g class="dots"><desc class="label">14 wickets in 14 innings (118.0 overs)</desc><circle class="dot reactive tooltip-trigger" cx="629.9423076923076" cy="326.2053519807011" r="2.5"/><desc class="value">46.86</desc><desc class="x left top">629.9423076923076</desc><desc class="y left top">326.2053519807011</desc><desc class="x_label">2012</desc></g><g class="dots"><desc class="label">2 wickets in 4 innings (35.0 overs)</desc><circle class="dot reactive tooltip-trigger" cx="697.619822485207" cy="149.7478147939973" r="2.5"/><desc class="value">112</desc><desc class="x left">697.619822485207</desc><desc class="y left">149.7478147939973</desc><desc class="x_label">2016</desc></g></g><g class="series serie-1 color-1"><g class="dots"><desc class="label">0 wickets over 0 innings</desc><circle class="dot reactive tooltip-trigger" cx="14.076923076923077" cy="453.1442557659166" r="2.5"/><desc class="value">0</desc><desc class="x top">14.076923076923077</desc><desc class="y top">453.1442557659166</desc><desc class="x_label">2004</desc></g><g class="dots"><desc class="label">17 wickets in 17 innings (106.2 overs)</desc><circle class="dot reactive tooltip-trigger" cx="129.12869822485206" cy="377.62021313826386" r="2.5"/><desc class="value">27.88</desc><desc class="x top">129.12869822485206</desc><desc class="y top">377.62021313826386</desc><desc class="x_label">2005</desc></g><g class="dots"><desc class="label">34 wickets in 31 innings (202.2 overs)</desc><circle class="dot reactive tooltip-trigger" cx="223.87721893491124" cy="377.213878619105" r="2.5"/><desc class="value">28.03</desc><desc class="x top">223.87721893491124</desc><desc class="y top">377.213878619105</desc><desc class="x_label">2006</desc></g><g class="dots"><desc class="label">65 wickets in 52 innings (354.4 overs)</desc><circle class="dot reactive tooltip-trigger" cx="366.0" cy="383.6339640218144" r="2.5"/><desc class="value">25.66</desc><desc class="x top">366.0</desc><desc class="y top">383.6339640218144</desc><desc class="x_label">2007</desc></g><g class="dots"><desc class="label">100 wickets in 72 innings (512.3 overs)</desc><circle class="dot reactive tooltip-trigger" cx="501.35502958579883" cy="388.4558003158324" r="2.5"/><desc class="value">23.88</desc><desc class="x left top">501.35502958579883</desc><desc class="y left top">388.4558003158324</desc><desc class="x_label">2008</desc></g><g class="dots"><desc class="label">108 wickets in 79 innings (565.4 overs)</desc><circle class="dot reactive tooltip-trigger" cx="548.7292899408284" cy="387.2367967583559" r="2.5"/><desc class="value">24.33</desc><desc class="x left top">548.7292899408284</desc><desc class="y left top">387.2367967583559</desc><desc class="x_label">2009</desc></g><g class="dots"><desc class="label">116 wickets in 88 innings (631.2 overs)</desc><circle class="dot reactive tooltip-trigger" cx="609.6390532544378" cy="383.1463625988238" r="2.5"/><desc class="value">25.84</desc><desc class="x left top">609.6390532544378</desc><desc class="y left top">383.1463625988238</desc><desc class="x_label">2010</desc></g><g class="dots"><desc class="label">121 wickets in 91 innings (655.2 overs)</desc><circle class="dot reactive tooltip-trigger" cx="629.9423076923076" cy="383.0109177591042" r="2.5"/><desc class="value">25.89</desc><desc class="x left top">629.9423076923076</desc><desc class="y left top">383.0109177591042</desc><desc class="x_label">2012</desc></g><g class="dots"><desc class="label">133 wickets in 101 innings (738.2 overs)</desc><circle class="dot reactive tooltip-trigger" cx="697.619822485207" cy="380.54582167620737" r="2.5"/><desc class="value">26.8</desc><desc class="x left top">697.619822485207</desc><desc class="y left top">380.54582167620737</desc><desc class="x_label">2016</desc></g></g><g class="series serie-2 color-2"/></g><g class="plot text-overlay" transform="translate(48, 46)"><g class="series serie-0 color-0"/><g class="series serie-1 color-1"/><g class="series serie-2 color-2"/></g><g class="plot tooltip-overlay" transform="translate(48, 46)"><g class="tooltip" style="opacity: 0" transform="translate(0 0)"><rect class="tooltip-box" height="0" rx="10" ry="10" width="0"/><g class="text"/></g></g><g class="legends" transform="translate(58, 545)"><g class="legend reactive activate-serie" id="activate-serie-0"><rect class="color-0 reactive" height="12" width="12" x="0.0" y="1.0"/><text x="17.0" y="11.2">Future Average</text></g><g class="legend reactive activate-serie" id="activate-serie-1"><rect class="color-1 reactive" height="12" width="12" x="366.0" y="1.0"/><text x="383.0" y="11.2">Past Average</text></g><g class="legend reactive activate-serie" id="activate-serie-2"><rect class="color-2 reactive" height="12" width="12" x="0.0" y="22.0"/><text x="17.0" y="32.2">Career Average</text></g></g></g></svg>