<?xml version='1.0' encoding='utf-8'?>
<svg xmlns:xlink="http://www.w3.org/1999/xlink" xmlns="http://www.w3.org/2000/svg" id="chart-9793423c-2855-4641-9195-e083d179bfe0" class="pygal-chart" viewBox="0 0 800 600"><!--Generated with pygal 2.4.0 (lxml) ©Kozea 2012-2016 on 2019-08-04--><!--http://pygal.org--><!--http://github.com/Kozea/pygal--><defs><style type="text/css">#chart-9793423c-2855-4641-9195-e083d179bfe0{-webkit-user-select:none;-webkit-font-smoothing:antialiased;font-family:Consolas,"Liberation Mono",Menlo,Courier,monospace}#chart-9793423c-2855-4641-9195-e083d179bfe0 .title{font-family:Consolas,"Liberation Mono",Menlo,Courier,monospace;font-size:16px}#chart-9793423c-2855-4641-9195-e083d179bfe0 .legends .legend text{font-family:Consolas,"Liberation Mono",Menlo,Courier,monospace;font-size:14px}#chart-9793423c-2855-4641-9195-e083d179bfe0 .axis text{font-family:Consolas,"Liberation Mono",Menlo,Courier,monospace;font-size:10px}#chart-9793423c-2855-4641-9195-e083d179bfe0 .axis text.major{font-family:Consolas,"Liberation Mono",Menlo,Courier,monospace;font-size:10px}#chart-9793423c-2855-4641-9195-e083d179bfe0 .text-overlay text.value{font-family:Consolas,"Liberation Mono",Menlo,Courier,monospace;font-size:16px}#chart-9793423c-2855-4641-9195-e083d179bfe0 .text-overlay text.label{font-family:Consolas,"Liberation Mono",Menlo,Courier,monospace;font-size:10px}#chart-9793423c-2855-4641-9195-e083d179bfe0 .tooltip{font-family:Consolas,"Liberation Mono",Menlo,Courier,monospace;font-size:14px}#chart-9793423c-2855-4641-9195-e083d179bfe0 text.no_data{font-family:Consolas,"Liberation Mono",Menlo,Courier,monospace;font-size:64px}
#chart-9793423c-2855-4641-9195-e083d179bfe0{background-color:rgba(249,249,249,1)}#chart-9793423c-2855-4641-9195-e083d179bfe0 path,#chart-9793423c-2855-4641-9195-e083d179bfe0 line,#chart-9793423c-2855-4641-9195-e083d179bfe0 rect,#chart-9793423c-2855-4641-9195-e083d179bfe0 circle{-webkit-transition:150ms;-moz-transition:150ms;transition:150ms}#chart-9793423c-2855-4641-9195-e083d179bfe0 .graph &gt; .background{fill:rgba(249,249,249,1)}#chart-9793423c-2855-4641-9195-e083d179bfe0 .plot &gt; .background{fill:rgba(255,255,255,1)}#chart-9793423c-2855-4641-9195-e083d179bfe0 .graph{fill:rgba(0,0,0,.87)}#chart-9793423c-2855-4641-9195-e083d179bfe0 text.no_data{fill:rgba(0,0,0,1)}#chart-9793423c-2855-4641-9195-e083d179bfe0 .title{fill:rgba(0,0,0,1)}#chart-9793423c-2855-4641-9195-e083d179bfe0 .legends .legend text{fill:rgba(0,0,0,.87)}#chart-9793423c-2855-4641-9195-e083d179bfe0 .legends .legend:hover text{fill:rgba(0,0,0,1)}#chart-9793423c-2855-4641-9195-e083d179bfe0 .axis .line{stroke:rgba(0,0,0,1)}#chart-9793423c-2855-4641-9195-e083d179bfe0 .axis .guide.line{stroke:rgba(0,0,0,.54)}#chart-9793423c-2855-4641-9195-e083d179bfe0 .axis .major.line{stroke:rgba(0,0,0,.87)}#chart-9793423c-2855-4641-9195-e083d179bfe0 .axis text.major{fill:rgba(0,0,0,1)}#chart-9793423c-2855-4641-9195-e083d179bfe0 .axis.y .guides:hover .guide.line,#chart-9793423c-2855-4641-9195-e083d179bfe0 .line-graph .axis.x .guides:hover .guide.line,#chart-9793423c-2855-4641-9195-e083d179bfe0 .stackedline-graph .axis.x .guides:hover .guide.line,#chart-9793423c-2855-4641-9195-e083d179bfe0 .xy-graph .axis.x .guides:hover .guide.line{stroke:rgba(0,0,0,1)}#chart-9793423c-2855-4641-9195-e083d179bfe0 .axis .guides:hover text{fill:rgba(0,0,0,1)}#chart-9793423c-2855-4641-9195-e083d179bfe0 .reactive{fill-opacity:.7;stroke-opacity:.8}#chart-9793423c-2855-4641-9195-e083d179bfe0 .ci{stroke:rgba(0,0,0,.87)}#chart-9793423c-2855-4641-9195-e083d179bfe0 .reactive.active,#chart-9793423c-2855-4641-9195-e083d179bfe0 .active .reactive{fill-opacity:.8;stroke-opacity:.9;stroke-width:4}#chart-9793423c-2855-4641-9195-e083d179bfe0 .ci .reactive.active{stroke-width:1.5}#chart-9793423c-2855-4641-9195-e083d179bfe0 .series text{fill:rgba(0,0,0,1)}#chart-9793423c-2855-4641-9195-e083d179bfe0 .tooltip rect{fill:rgba(255,255,255,1);stroke:rgba(0,0,0,1);-webkit-transition:opacity 150ms;-moz-transition:opacity 150ms;transition:opacity 150ms}#chart-9793423c-2855-4641-9195-e083d179bfe0 .tooltip .label{fill:rgba(0,0,0,.87)}#chart-9793423c-2855-4641-9195-e083d179bfe0 .tooltip .label{fill:rgba(0,0,0,.87)}#chart-9793423c-2855-4641-9195-e083d179bfe0 .tooltip .legend{font-size:.8em;fill:rgba(0,0,0,.54)}#chart-9793423c-2855-4641-9195-e083d179bfe0 .tooltip .x_label{font-size:.6em;fill:rgba(0,0,0,1)}#chart-9793423c-2855-4641-9195-e083d179bfe0 .tooltip .xlink{font-size:.5em;text-decoration:underline}#chart-9793423c-2855-4641-9195-e083d179bfe0 .tooltip .value{font-size:1.5em}#chart-9793423c-2855-4641-9195-e083d179bfe0 .bound{font-size:.5em}#chart-9793423c-2855-4641-9195-e083d179bfe0 .max-value{font-size:.75em;fill:rgba(0,0,0,.54)}#chart-9793423c-2855-4641-9195-e083d179bfe0 .map-element{fill:rgba(255,255,255,1);stroke:rgba(0,0,0,.54) !important}#chart-9793423c-2855-4641-9195-e083d179bfe0 .map-element .reactive{fill-opacity:inherit;stroke-opacity:inherit}#chart-9793423c-2855-4641-9195-e083d179bfe0 .color-0,#chart-9793423c-2855-4641-9195-e083d179bfe0 .color-0 a:visited{stroke:red;fill:red}#chart-9793423c-2855-4641-9195-e083d179bfe0 .color-1,#chart-9793423c-2855-4641-9195-e083d179bfe0 .color-1 a:visited{stroke:blue;fill:blue}#chart-9793423c-2855-4641-9195-e083d179bfe0 .color-2,#chart-9793423c-2855-4641-9195-e083d179bfe0 .color-2 a:visited{stroke:green;fill:green}#chart-9793423c-2855-4641-9195-e083d179bfe0 .text-overlay .color-0 text{fill:white}#chart-9793423c-2855-4641-9195-e083d179bfe0 .text-overlay .color-1 text{fill:white}#chart-9793423c-2855-4641-9195-e083d179bfe0 .text-overlay .color-2 text{fill:white}
#chart-9793423c-2855-4641-9195-e083d179bfe0 text.no_data{text-anchor:middle}#chart-9793423c-2855-4641-9195-e083d179bfe0 .guide.line{fill:none}#chart-9793423c-2855-4641-9195-e083d179bfe0 .centered{text-anchor:middle}#chart-9793423c-2855-4641-9195-e083d179bfe0 .title{text-anchor:middle}#chart-9793423c-2855-4641-9195-e083d179bfe0 .legends .legend text{fill-opacity:1}#chart-9793423c-2855-4641-9195-e083d179bfe0 .axis.x text{text-anchor:middle}#chart-9793423c-2855-4641-9195-e083d179bfe0 .axis.x:not(.web) text[transform]{text-anchor:start}#chart-9793423c-2855-4641-9195-e083d179bfe0 .axis.x:not(.web) text[transform].backwards{text-anchor:end}#chart-9793423c-2855-4641-9195-e083d179bfe0 .axis.y text{text-anchor:end}#chart-9793423c-2855-4641-9195-e083d179bfe0 .axis.y text[transform].backwards{text-anchor:start}#chart-9793423c-2855-4641-9195-e083d179bfe0 .axis.y2 text{text-anchor:start}#chart-9793423c-2855-4641-9195-e083d179bfe0 .axis.y2 text[transform].backwards{text-anchor:end}#chart-9793423c-2855-4641-9195-e083d179bfe0 .axis .guide.line{stroke-dasharray:4,4}#chart-9793423c-2855-4641-9195-e083d179bfe0 .axis .major.guide.line{stroke-dasharray:6,6}#chart-9793423c-2855-4641-9195-e083d179bfe0 .horizontal .axis.y .guide.line,#chart-9793423c-2855-4641-9195-e083d179bfe0 .horizontal .axis.y2 .guide.line,#chart-9793423c-2855-4641-9195-e083d179bfe0 .vertical .axis.x .guide.line{opacity:0}#chart-9793423c-2855-4641-9195-e083d179bfe0 .horizontal .axis.always_show .guide.line,#chart-9793423c-2855-4641-9195-e083d179bfe0 .vertical .axis.always_show .guide.line{opacity:1 !important}#chart-9793423c-2855-4641-9195-e083d179bfe0 .axis.y .guides:hover .guide.line,#chart-9793423c-2855-4641-9195-e083d179bfe0 .axis.y2 .guides:hover .guide.line,#chart-9793423c-2855-4641-9195-e083d179bfe0 .axis.x .guides:hover .guide.line{opacity:1}#chart-9793423c-2855-4641-9195-e083d179bfe0 .axis .guides:hover text{opacity:1}#chart-9793423c-2855-4641-9195-e083d179bfe0 .nofill{fill:none}#chart-9793423c-2855-4641-9195-e083d179bfe0 .subtle-fill{fill-opacity:.2}#chart-9793423c-2855-4641-9195-e083d179bfe0 .dot{stroke-width:1px;fill-opacity:1}#chart-9793423c-2855-4641-9195-e083d179bfe0 .dot.active{stroke-width:5px}#chart-9793423c-2855-4641-9195-e083d179bfe0 .dot.negative{fill:transparent}#chart-9793423c-2855-4641-9195-e083d179bfe0 text,#chart-9793423c-2855-4641-9195-e083d179bfe0 tspan{stroke:none !important}#chart-9793423c-2855-4641-9195-e083d179bfe0 .series text.active{opacity:1}#chart-9793423c-2855-4641-9195-e083d179bfe0 .tooltip rect{fill-opacity:.95;stroke-width:.5}#chart-9793423c-2855-4641-9195-e083d179bfe0 .tooltip text{fill-opacity:1}#chart-9793423c-2855-4641-9195-e083d179bfe0 .showable{visibility:hidden}#chart-9793423c-2855-4641-9195-e083d179bfe0 .showable.shown{visibility:visible}#chart-9793423c-2855-4641-9195-e083d179bfe0 .gauge-background{fill:rgba(229,229,229,1);stroke:none}#chart-9793423c-2855-4641-9195-e083d179bfe0 .bg-lines{stroke:rgba(249,249,249,1);stroke-width:2px}</style><script type="text/javascript">window.pygal = window.pygal || {};window.pygal.config = window.pygal.config || {};window.pygal.config['9793423c-2855-4641-9195-e083d179bfe0'] = {"allow_interruptions": false, "box_mode": "extremes", "classes": ["pygal-chart"], "css": ["file://style.css", "file://graph.css"], "defs": [], "disable_xml_declaration": false, "dots_size": 2.5, "dynamic_print_values": false, "explicit_size": false, "fill": false, "force_uri_protocol": "https", "formatter": null, "half_pie": false, "height": 600, "include_x_axis": false, "inner_radius": 0, "interpolate": null, "interpolation_parameters": {}, "interpolation_precision": 250, "inverse_y_axis": false, "js": ["//kozea.github.io/pygal.js/2.0.x/pygal-tooltips.min.js"], "legend_at_bottom": true, "legend_at_bottom_columns": null, "legend_box_size": 12, "logarithmic": false, "margin": 20, "margin_bottom": null, "margin_left": null, "margin_right": null, "margin_top": null, "max_scale": 16, "min_scale": 4, "missing_value_fill_truncation": "x", "no_data_text": "No data", "no_prefix": false, "order_min": null, "pretty_print": false, "print_labels": false, "print_values": false, "print_values_position": "center", "print_zeroes": true, "range": null, "rounded_bars": null, "secondary_range": null, "show_dots": true, "show_legend": true, "show_minor_x_labels": false, "show_minor_y_labels": true, "show_only_major_dots": false, "show_x_guides": false, "show_x_labels": true, "show_y_guides": true, "show_y_labels": true, "spacing": 10, "stack_from_top": false, "strict": false, "stroke": true, "stroke_style": null, "style": {"background": "rgba(249, 249, 249, 1)", "ci_colors": [], "colors": ["red", "blue", "green", "#a3a3a3"], "font_family": "Consolas, \"Liberation Mono\", Menlo, Courier, monospace", "foreground": "rgba(0, 0, 0, .87)", "foreground_strong": "rgba(0, 0, 0, 1)", "foreground_subtle": "rgba(0, 0, 0, .54)", "guide_stroke_dasharray": "4,4", "label_font_family": "Consolas, \"Liberation Mono\", Menlo, Courier, monospace", "label_font_size": 10, "legend_font_family": "Consolas, \"Liberation Mono\", Menlo, Courier, monospace", "legend_font_size": 14, "major_guide_stroke_dasharray": "6,6", "major_label_font_family": "Consolas, \"Liberation Mono\", Menlo, Courier, monospace", "major_label_font_size": 10, "no_data_font_family": "Consolas, \"Liberation Mono\", Menlo, Courier, monospace", "no_data_font_size": 64, "opacity": ".7", "opacity_hover": ".8", "plot_background": "rgba(255, 255, 255, 1)", "stroke_opacity": ".8", "stroke_opacity_hover": ".9", "title_font_family": "Consolas, \"Liberation Mono\", Menlo, Courier, monospace", "title_font_size": 16, "tooltip_font_family": "Consolas, \"Liberation Mono\", Menlo, Courier, monospace", "tooltip_font_size": 14, "transition": "150ms", "value_background": "rgba(229, 229, 229, 1)", "value_colors": [], "value_font_family": "Consolas, \"Liberation Mono\", Menlo, Courier, monospace", "value_font_size": 16, "value_label_font_family": "Consolas, \"Liberation Mono\", Menlo, Courier, monospace", "value_label_font_size": 10}, "title": "MG Johnson: Future and Past Averages in ODIs", "tooltip_border_radius": 10, "tooltip_fancy_mode": true, "truncate_label": null, "truncate_legend": null, "width": 800, "x_label_rotation": 45, "x_labels": ["2006", "0", "0", "0", "0", "0", "0", "0", "0", "0", "2007", "0", "0", "0", "0", "0", "0", "0", "0", "0", "0", "0", "0", "0", "0", "2008", "0", "0", "0", "0", "0", "0", "0", "0", "0", "0", "0", "0", "0", "0", "0", "0", "2009", "0", "0", "0", "0", "0", "0", "0", "0", "0", "0", "0", "0", "0", "0", "0", "0", "0", "0", "0", "0", "0", "0", "0", "0", "0", "0", "0", "0", "2010", "0", "0", "0", "0", "0", "0", "0", "0", "0", "0", "0", "2011", "0", "0", "0", "0", "0", "0", "0", "0", "0", "0", "0", "0", "0", "0", "0", "0", "0", "0", "0", "0", "0", "2012", "0", "0", "0", "0", "2013", "0", "0", "0", "0", "0", "0", "0", "0", "0", "0", "0", "0", "0", "0", "0", "0", "0", "0", "0", "0", "2014", "0", "0", "0", "0", "0", "0", "0", "0", "0", "2015", "0", "0", "0", "0", "0", "0", "0", "0"], "x_labels_major": ["2006", "2007", "2008", "2009", "2010", "2011", "2012", "2013", "2014", "2015"], "x_labels_major_count": null, "x_labels_major_every": null, "x_title": null, "xrange": null, "y_label_rotation": 0, "y_labels": null, "y_labels_major": null, "y_labels_major_count": null, "y_labels_major_every": null, "y_title": null, "zero": 160.0, "legends": ["Future Average", "Past Average", "Career Average"]}</script><script type="text/javascript" xlink:href="https://kozea.github.io/pygal.js/2.0.x/pygal-tooltips.min.js"/></defs><title>MG Johnson: Future and Past Averages in ODIs</title><g class="graph line-graph vertical"><rect class="background" height="600" width="800" x="0" y="0"/><g class="plot" transform="translate(48, 46)"><rect class="background" height="462.02943725152284" width="732.0" x="0" y="0"/><g class="axis y always_show"><g class="guides"><path class="axis major line" d="M0.000000 453.144256 h732.000000"/><text class="major" x="-5" y="456.6442557659166">0</text><title>0</title></g><g class="guides"><path class="guide line" d="M0.000000 423.526984 h732.000000"/><text class="" x="-5" y="427.02698414722926">10</text><title>10</title></g><g class="guides"><path class="guide line" d="M0.000000 393.909713 h732.000000"/><text class="" x="-5" y="397.4097125285419">20</text><title>20</title></g><g class="guides"><path class="guide line" d="M0.000000 364.292441 h732.000000"/><text class="" x="-5" y="367.7924409098545">30</text><title>30</title></g><g class="guides"><path class="guide line" d="M0.000000 334.675169 h732.000000"/><text class="" x="-5" y="338.1751692911672">40</text><title>40</title></g><g class="guides"><path class="major guide line" d="M0.000000 305.057898 h732.000000"/><text class="major" x="-5" y="308.55789767247984">50</text><title>50</title></g><g class="guides"><path class="guide line" d="M0.000000 275.440626 h732.000000"/><text class="" x="-5" y="278.94062605379247">60</text><title>60</title></g><g class="guides"><path class="guide line" d="M0.000000 245.823354 h732.000000"/><text class="" x="-5" y="249.32335443510507">70</text><title>70</title></g><g class="guides"><path class="guide line" d="M0.000000 216.206083 h732.000000"/><text class="" x="-5" y="219.70608281641776">80</text><title>80</title></g><g class="guides"><path class="guide line" d="M0.000000 186.588811 h732.000000"/><text class="" x="-5" y="190.08881119773037">90</text><title>90</title></g><g class="guides"><path class="major guide line" d="M0.000000 156.971540 h732.000000"/><text class="major" x="-5" y="160.47153957904305">100</text><title>100</title></g><g class="guides"><path class="guide line" d="M0.000000 127.354268 h732.000000"/><text class="" x="-5" y="130.85426796035568">110</text><title>110</title></g><g class="guides"><path class="guide line" d="M0.000000 97.736996 h732.000000"/><text class="" x="-5" y="101.23699634166832">120</text><title>120</title></g><g class="guides"><path class="guide line" d="M0.000000 68.119725 h732.000000"/><text class="" x="-5" y="71.61972472298095">130</text><title>130</title></g><g class="guides"><path class="guide line" d="M0.000000 38.502453 h732.000000"/><text class="" x="-5" y="42.00245310429358">140</text><title>140</title></g><g class="guides"><path class="major guide line" d="M0.000000 8.885181 h732.000000"/><text class="major" x="-5" y="12.38518148560621">150</text><title>150</title></g></g><g class="axis x"><g class="guides"><path class="major line" d="M14.076923 0.000000 v462.029437"/><text class="major" x="14.076923076923077" y="477.02943725152284" transform="rotate(45 14.076923 477.029437)">2006</text></g><g class="guides"><path class="major guide line" d="M61.314920 0.000000 v462.029437"/><text class="major" x="61.31491997934951" y="477.02943725152284" transform="rotate(45 61.314920 477.029437)">2007</text></g><g class="guides"><path class="major guide line" d="M132.171915 0.000000 v462.029437"/><text class="major" x="132.17191533298916" y="477.02943725152284" transform="rotate(45 132.171915 477.029437)">2008</text></g><g class="guides"><path class="major guide line" d="M212.476510 0.000000 v462.029437"/><text class="major" x="212.4765100671141" y="477.02943725152284" transform="rotate(45 212.476510 477.029437)">2009</text></g><g class="guides"><path class="major guide line" d="M349.466701 0.000000 v462.029437"/><text class="major" x="349.4667010841507" y="477.02943725152284" transform="rotate(45 349.466701 477.029437)">2010</text></g><g class="guides"><path class="major guide line" d="M406.152297 0.000000 v462.029437"/><text class="major" x="406.15229736706243" y="477.02943725152284" transform="rotate(45 406.152297 477.029437)">2011</text></g><g class="guides"><path class="major guide line" d="M510.075891 0.000000 v462.029437"/><text class="major" x="510.0758905524006" y="477.02943725152284" transform="rotate(45 510.075891 477.029437)">2012</text></g><g class="guides"><path class="major guide line" d="M533.694889 0.000000 v462.029437"/><text class="major" x="533.6948890036139" y="477.02943725152284" transform="rotate(45 533.694889 477.029437)">2013</text></g><g class="guides"><path class="major guide line" d="M632.894682 0.000000 v462.029437"/><text class="major" x="632.8946824987092" y="477.02943725152284" transform="rotate(45 632.894682 477.029437)">2014</text></g><g class="guides"><path class="major guide line" d="M680.132679 0.000000 v462.029437"/><text class="major" x="680.1326794011356" y="477.02943725152284" transform="rotate(45 680.132679 477.029437)">2015</text></g></g><g class="series serie-0 color-0"><path class="line reactive nofill" d="M14.076923 378.331028 L18.800723 379.101077 23.524522 379.456484 28.248322 379.574953 32.972122 379.871126 37.695922 379.545336 42.419721 379.752657 47.143521 378.597583 51.867321 378.153324 56.591120 378.242176 61.314920 378.419879 66.038720 378.212559 70.762519 377.886769 75.486319 378.301410 80.210119 377.531361 84.933918 377.857151 89.657718 378.508731 94.381518 379.189929 99.105318 379.278780 103.829117 378.923373 108.552917 379.219546 113.276717 379.249163 118.000516 379.959978 122.724316 378.538349 127.448116 378.390262 132.171915 377.946003 136.895715 378.064472 141.619515 377.797917 146.343314 377.412892 151.067114 376.672460 155.790914 376.109732 160.514713 376.376288 165.238513 376.820547 169.962313 377.916386 174.686113 378.449497 179.409912 378.716052 184.133712 378.538349 188.857512 378.775287 193.581311 379.426867 198.305111 377.857151 203.028911 377.175954 207.752710 376.168967 212.476510 376.317053 217.200310 377.087102 221.924109 378.182941 226.647909 378.923373 231.371709 379.071459 236.095509 379.367632 240.819308 379.574953 245.543108 379.160311 250.266908 379.219546 254.990707 378.745669 259.714507 378.686435 264.438307 377.412892 269.162106 377.560979 273.885906 377.205571 278.609706 377.264806 283.333505 376.198584 288.057305 376.168967 292.781105 375.902411 297.504904 376.228201 302.228704 376.820547 306.952504 377.412892 311.676304 378.331028 316.400103 378.242176 321.123903 378.982608 325.847703 379.219546 330.571502 379.397249 335.295302 379.426867 340.019102 379.811891 344.742901 381.500076 349.466701 380.730027 354.190501 380.552323 358.914300 380.700409 363.638100 380.996582 368.361900 381.737014 373.085700 382.270125 377.809499 381.144668 382.533299 380.315385 387.257099 380.078447 391.980898 379.871126 396.704698 381.026199 401.428498 382.210890 406.152297 382.655149 410.876097 382.803236 415.599897 383.602902 420.323696 384.136013 425.047496 382.655149 429.771296 380.404237 434.495096 378.390262 439.218895 378.864139 443.942695 380.078447 448.666495 380.670792 453.390294 381.144668 458.114094 382.447828 462.837894 382.418211 467.561693 381.825866 472.285493 381.648162 477.009293 377.501744 481.733092 376.850164 486.456892 376.613226 491.180692 377.797917 495.904491 378.567966 500.628291 376.287436 505.352091 378.567966 510.075891 378.005238 514.799690 379.811891 519.523490 379.130694 524.247290 379.930360 528.971089 381.085434 533.694889 380.374619 538.418689 380.078447 543.142488 376.968633 547.866288 376.642843 552.590088 377.412892 557.313887 379.041842 562.037687 380.818878 566.761487 378.775287 571.485287 377.294423 576.209086 379.841509 580.932886 380.907730 585.656686 379.338015 590.380485 375.073128 595.104285 373.888437 599.828085 373.384943 604.551884 378.005238 609.275684 375.754325 613.999484 376.672460 618.723283 381.973952 623.447083 377.620213 628.170883 378.479114 632.894682 380.493088 637.618482 383.780606 642.342282 390.651813 647.066082 389.259801 651.789881 395.479428 656.513681 394.531675 661.237481 398.085748 665.961280 394.146651 670.685080 391.362627 675.408880 390.799899 680.132679 395.064786 684.856479 388.785925 689.580279 387.068123 694.304078 402.557956 699.027878 387.334678 703.751678 394.768613 708.475478 392.932343 713.199277 405.756621 717.923077 423.526984"/></g><g class="series serie-1 color-1"><path class="line reactive nofill" d="M14.076923 453.144256 L18.800723 263.593717 23.524522 180.665357 28.248322 79.966633 32.972122 8.885181 37.695922 281.364080 42.419721 311.573697 47.143521 370.867475 51.867321 381.559310 56.591120 379.545336 61.314920 376.761312 66.038720 380.019212 70.762519 383.721371 75.486319 378.449497 80.210119 385.972284 84.933918 382.714384 89.657718 376.524374 94.381518 370.215895 99.105318 370.571302 103.829117 373.503412 108.552917 371.489438 113.276717 371.904080 118.000516 366.869144 122.724316 376.998250 127.448116 377.975620 132.171915 380.226533 136.895715 379.604570 141.619515 380.730027 146.343314 382.388594 151.067114 385.083766 155.790914 386.683098 160.514713 385.676111 165.238513 383.869457 169.962313 379.811891 174.686113 377.886769 179.409912 376.939016 184.133712 377.590596 188.857512 376.731695 193.581311 374.540017 198.305111 379.752657 203.028911 381.677779 207.752710 384.224865 212.476510 383.662137 217.200310 381.529693 221.924109 378.686435 226.647909 376.790930 231.371709 376.435522 236.095509 375.724708 240.819308 375.280449 245.543108 376.435522 250.266908 376.346670 254.990707 377.412892 259.714507 377.590596 264.438307 380.048829 269.162106 379.693422 273.885906 380.256150 278.609706 380.137681 283.333505 381.766631 288.057305 381.707397 292.781105 382.003569 297.504904 381.440841 302.228704 380.493088 306.952504 379.604570 311.676304 378.271793 316.400103 378.449497 321.123903 377.412892 325.847703 377.116720 330.571502 376.909399 335.295302 376.968633 340.019102 376.494757 344.742901 374.480782 349.466701 375.547004 354.190501 375.813560 358.914300 375.695090 363.638100 375.458152 368.361900 374.717721 373.085700 374.214227 377.809499 375.576621 382.533299 376.465140 387.257099 376.761312 391.980898 376.968633 396.704698 375.991263 401.428498 375.013893 406.152297 374.628869 410.876097 374.628869 415.599897 373.977289 420.323696 373.592264 425.047496 374.984276 429.771296 376.820547 434.495096 378.271793 439.218895 377.975620 443.942695 377.146337 448.666495 376.790930 453.390294 376.494757 458.114094 375.635856 462.837894 375.724708 467.561693 376.198584 472.285493 376.405905 477.009293 378.745669 481.733092 379.041842 486.456892 379.130694 491.180692 378.567966 495.904491 378.212559 500.628291 379.219546 505.352091 378.212559 510.075891 378.449497 514.799690 377.679448 519.523490 377.975620 524.247290 377.679448 528.971089 377.235189 533.694889 377.560979 538.418689 377.679448 543.142488 378.775287 547.866288 378.864139 552.590088 378.597583 557.313887 378.094089 562.037687 377.531361 566.761487 378.182941 571.485287 378.597583 576.209086 377.916386 580.932886 377.620213 585.656686 378.064472 590.380485 379.041842 595.104285 379.278780 599.828085 379.338015 604.551884 378.390262 609.275684 378.804904 613.999484 378.627200 618.723283 377.620213 623.447083 378.449497 628.170883 378.301410 632.894682 377.975620 637.618482 377.501744 642.342282 376.494757 647.066082 376.761312 651.789881 375.843177 656.513681 376.168967 661.237481 375.813560 665.961280 376.553991 670.685080 377.057485 675.408880 377.235189 680.132679 376.968633 684.856479 377.620213 689.580279 377.827534 694.304078 376.939016 699.027878 377.975620 703.751678 377.827534 708.475478 377.946003 713.199277 377.738682 717.923077 377.738682"/></g><g class="series serie-2 color-2"><path class="line reactive nofill" d="M14.076923 378.331028 L18.800723 378.331028 23.524522 378.331028 28.248322 378.331028 32.972122 378.331028 37.695922 378.331028 42.419721 378.331028 47.143521 378.331028 51.867321 378.331028 56.591120 378.331028 61.314920 378.331028 66.038720 378.331028 70.762519 378.331028 75.486319 378.331028 80.210119 378.331028 84.933918 378.331028 89.657718 378.331028 94.381518 378.331028 99.105318 378.331028 103.829117 378.331028 108.552917 378.331028 113.276717 378.331028 118.000516 378.331028 122.724316 378.331028 127.448116 378.331028 132.171915 378.331028 136.895715 378.331028 141.619515 378.331028 146.343314 378.331028 151.067114 378.331028 155.790914 378.331028 160.514713 378.331028 165.238513 378.331028 169.962313 378.331028 174.686113 378.331028 179.409912 378.331028 184.133712 378.331028 188.857512 378.331028 193.581311 378.331028 198.305111 378.331028 203.028911 378.331028 207.752710 378.331028 212.476510 378.331028 217.200310 378.331028 221.924109 378.331028 226.647909 378.331028 231.371709 378.331028 236.095509 378.331028 240.819308 378.331028 245.543108 378.331028 250.266908 378.331028 254.990707 378.331028 259.714507 378.331028 264.438307 378.331028 269.162106 378.331028 273.885906 378.331028 278.609706 378.331028 283.333505 378.331028 288.057305 378.331028 292.781105 378.331028 297.504904 378.331028 302.228704 378.331028 306.952504 378.331028 311.676304 378.331028 316.400103 378.331028 321.123903 378.331028 325.847703 378.331028 330.571502 378.331028 335.295302 378.331028 340.019102 378.331028 344.742901 378.331028 349.466701 378.331028 354.190501 378.331028 358.914300 378.331028 363.638100 378.331028 368.361900 378.331028 373.085700 378.331028 377.809499 378.331028 382.533299 378.331028 387.257099 378.331028 391.980898 378.331028 396.704698 378.331028 401.428498 378.331028 406.152297 378.331028 410.876097 378.331028 415.599897 378.331028 420.323696 378.331028 425.047496 378.331028 429.771296 378.331028 434.495096 378.331028 439.218895 378.331028 443.942695 378.331028 448.666495 378.331028 453.390294 378.331028 458.114094 378.331028 462.837894 378.331028 467.561693 378.331028 472.285493 378.331028 477.009293 378.331028 481.733092 378.331028 486.456892 378.331028 491.180692 378.331028 495.904491 378.331028 500.628291 378.331028 505.352091 378.331028 510.075891 378.331028 514.799690 378.331028 519.523490 378.331028 524.247290 378.331028 528.971089 378.331028 533.694889 378.331028 538.418689 378.331028 543.142488 378.331028 547.866288 378.331028 552.590088 378.331028 557.313887 378.331028 562.037687 378.331028 566.761487 378.331028 571.485287 378.331028 576.209086 378.331028 580.932886 378.331028 585.656686 378.331028 590.380485 378.331028 595.104285 378.331028 599.828085 378.331028 604.551884 378.331028 609.275684 378.331028 613.999484 378.331028 618.723283 378.331028 623.447083 378.331028 628.170883 378.331028 632.894682 378.331028 637.618482 378.331028 642.342282 378.331028 647.066082 378.331028 651.789881 378.331028 656.513681 378.331028 661.237481 378.331028 665.961280 378.331028 670.685080 378.331028 675.408880 378.331028 680.132679 378.331028 684.856479 378.331028 689.580279 378.331028 694.304078 378.331028 699.027878 378.331028 703.751678 378.331028 708.475478 378.331028 713.199277 378.331028 717.923077 378.331028"/></g></g><g class="titles"><text class="title plot_title" x="400.0" y="26">MG Johnson: Future and Past Averages in ODIs</text></g><g class="plot overlay" transform="translate(48, 46)"><g class="series serie-0 color-0"><g class="dots"><desc class="label">239 wickets in 150 innings (1248.1 overs)</desc><circle class="dot reactive tooltip-trigger" cx="14.076923076923077" cy="378.3310276571124" r="2.5"/><desc class="value">25.26</desc><desc class="x top">14.076923076923077</desc><desc class="y top">378.3310276571124</desc><desc class="x_label">2006</desc></g><g class="dots"><desc class="label">225 wickets in 140 innings (1178.1 overs)</desc><circle class="dot reactive tooltip-trigger" cx="61.31491997934951" cy="378.41987947196844" r="2.5"/><desc class="value">25.23</desc><desc class="x top">61.31491997934951</desc><desc class="y top">378.41987947196844</desc><desc class="x_label">2007</desc></g><g class="dots"><desc class="label">199 wickets in 125 innings (1055.1 overs)</desc><circle class="dot reactive tooltip-trigger" cx="132.17191533298916" cy="377.9460031260694" r="2.5"/><desc class="value">25.39</desc><desc class="x top">132.17191533298916</desc><desc class="y top">377.9460031260694</desc><desc class="x_label">2008</desc></g><g class="dots"><desc class="label">174 wickets in 108 innings (925.1 overs)</desc><circle class="dot reactive tooltip-trigger" cx="212.4765100671141" cy="376.3170531870416" r="2.5"/><desc class="value">25.94</desc><desc class="x top">212.4765100671141</desc><desc class="y top">376.3170531870416</desc><desc class="x_label">2009</desc></g><g class="dots"><desc class="label">128 wickets in 79 innings (663.3 overs)</desc><circle class="dot reactive tooltip-trigger" cx="349.4667010841507" cy="380.73002665822605" r="2.5"/><desc class="value">24.45</desc><desc class="x top">349.4667010841507</desc><desc class="y top">380.73002665822605</desc><desc class="x_label">2010</desc></g><g class="dots"><desc class="label">110 wickets in 67 innings (560.0 overs)</desc><circle class="dot reactive tooltip-trigger" cx="406.15229736706243" cy="382.6551493134407" r="2.5"/><desc class="value">23.8</desc><desc class="x left top">406.15229736706243</desc><desc class="y left top">382.6551493134407</desc><desc class="x_label">2011</desc></g><g class="dots"><desc class="label">71 wickets in 45 innings (375.5 overs)</desc><circle class="dot reactive tooltip-trigger" cx="510.0758905524006" cy="378.0052376693068" r="2.5"/><desc class="value">25.37</desc><desc class="x left top">510.0758905524006</desc><desc class="y left top">378.0052376693068</desc><desc class="x_label">2012</desc></g><g class="dots"><desc class="label">65 wickets in 40 innings (332.5 overs)</desc><circle class="dot reactive tooltip-trigger" cx="533.6948890036139" cy="380.37461939880177" r="2.5"/><desc class="value">24.57</desc><desc class="x left top">533.6948890036139</desc><desc class="y left top">380.37461939880177</desc><desc class="x_label">2013</desc></g><g class="dots"><desc class="label">32 wickets in 19 innings (160.2 overs)</desc><circle class="dot reactive tooltip-trigger" cx="632.8946824987092" cy="380.49308848527653" r="2.5"/><desc class="value">24.53</desc><desc class="x left top">632.8946824987092</desc><desc class="y left top">380.49308848527653</desc><desc class="x_label">2014</desc></g><g class="dots"><desc class="label">18 wickets in 9 innings (70.3 overs)</desc><circle class="dot reactive tooltip-trigger" cx="680.1326794011356" cy="395.0647861216707" r="2.5"/><desc class="value">19.61</desc><desc class="x left top">680.1326794011356</desc><desc class="y left top">395.0647861216707</desc><desc class="x_label">2015</desc></g></g><g class="series serie-1 color-1"><g class="dots"><desc class="label">0 wickets over 0 innings</desc><circle class="dot reactive tooltip-trigger" cx="14.076923076923077" cy="453.1442557659166" r="2.5"/><desc class="value">0</desc><desc class="x top">14.076923076923077</desc><desc class="y top">453.1442557659166</desc><desc class="x_label">2006</desc></g><g class="dots"><desc class="label">14 wickets in 10 innings (70.0 overs)</desc><circle class="dot reactive tooltip-trigger" cx="61.31491997934951" cy="376.7613122613219" r="2.5"/><desc class="value">25.79</desc><desc class="x top">61.31491997934951</desc><desc class="y top">376.7613122613219</desc><desc class="x_label">2007</desc></g><g class="dots"><desc class="label">40 wickets in 25 innings (193.0 overs)</desc><circle class="dot reactive tooltip-trigger" cx="132.17191533298916" cy="380.2265330407083" r="2.5"/><desc class="value">24.62</desc><desc class="x top">132.17191533298916</desc><desc class="y top">380.2265330407083</desc><desc class="x_label">2008</desc></g><g class="dots"><desc class="label">65 wickets in 42 innings (323.0 overs)</desc><circle class="dot reactive tooltip-trigger" cx="212.4765100671141" cy="383.66213654847604" r="2.5"/><desc class="value">23.46</desc><desc class="x top">212.4765100671141</desc><desc class="y top">383.66213654847604</desc><desc class="x_label">2009</desc></g><g class="dots"><desc class="label">111 wickets in 71 innings (584.4 overs)</desc><circle class="dot reactive tooltip-trigger" cx="349.4667010841507" cy="375.5470041249557" r="2.5"/><desc class="value">26.2</desc><desc class="x top">349.4667010841507</desc><desc class="y top">375.5470041249557</desc><desc class="x_label">2010</desc></g><g class="dots"><desc class="label">129 wickets in 83 innings (688.1 overs)</desc><circle class="dot reactive tooltip-trigger" cx="406.15229736706243" cy="374.62886870477644" r="2.5"/><desc class="value">26.51</desc><desc class="x left top">406.15229736706243</desc><desc class="y left top">374.62886870477644</desc><desc class="x_label">2011</desc></g><g class="dots"><desc class="label">168 wickets in 105 innings (872.2 overs)</desc><circle class="dot reactive tooltip-trigger" cx="510.0758905524006" cy="378.44949674358713" r="2.5"/><desc class="value">25.22</desc><desc class="x left top">510.0758905524006</desc><desc class="y left top">378.44949674358713</desc><desc class="x_label">2012</desc></g><g class="dots"><desc class="label">174 wickets in 110 innings (915.2 overs)</desc><circle class="dot reactive tooltip-trigger" cx="533.6948890036139" cy="377.5609785950265" r="2.5"/><desc class="value">25.52</desc><desc class="x left top">533.6948890036139</desc><desc class="y left top">377.5609785950265</desc><desc class="x_label">2013</desc></g><g class="dots"><desc class="label">207 wickets in 131 innings (1087.5 overs)</desc><circle class="dot reactive tooltip-trigger" cx="632.8946824987092" cy="377.9756203976881" r="2.5"/><desc class="value">25.38</desc><desc class="x left top">632.8946824987092</desc><desc class="y left top">377.9756203976881</desc><desc class="x_label">2014</desc></g><g class="dots"><desc class="label">221 wickets in 141 innings (1177.4 overs)</desc><circle class="dot reactive tooltip-trigger" cx="680.1326794011356" cy="376.96863316265274" r="2.5"/><desc class="value">25.72</desc><desc class="x left top">680.1326794011356</desc><desc class="y left top">376.96863316265274</desc><desc class="x_label">2015</desc></g></g><g class="series serie-2 color-2"/></g><g class="plot text-overlay" transform="translate(48, 46)"><g class="series serie-0 color-0"/><g class="series serie-1 color-1"/><g class="series serie-2 color-2"/></g><g class="plot tooltip-overlay" transform="translate(48, 46)"><g class="tooltip" style="opacity: 0" transform="translate(0 0)"><rect class="tooltip-box" height="0" rx="10" ry="10" width="0"/><g class="text"/></g></g><g class="legends" transform="translate(58, 545)"><g class="legend reactive activate-serie" id="activate-serie-0"><rect class="color-0 reactive" height="12" width="12" x="0.0" y="1.0"/><text x="17.0" y="11.2">Future Average</text></g><g class="legend reactive activate-serie" id="activate-serie-1"><rect class="color-1 reactive" height="12" width="12" x="366.0" y="1.0"/><text x="383.0" y="11.2">Past Average</text></g><g class="legend reactive activate-serie" id="activate-serie-2"><rect class="color-2 reactive" height="12" width="12" x="0.0" y="22.0"/><text x="17.0" y="32.2">Career Average</text></g></g></g></svg>