<?xml version='1.0' encoding='utf-8'?>
<svg xmlns:xlink="http://www.w3.org/1999/xlink" xmlns="http://www.w3.org/2000/svg" id="chart-673bff69-5194-4229-bd81-dc8817b4eeae" class="pygal-chart" viewBox="0 0 800 600"><!--Generated with pygal 2.4.0 (lxml) ©Kozea 2012-2016 on 2019-08-02--><!--http://pygal.org--><!--http://github.com/Kozea/pygal--><defs><style type="text/css">#chart-673bff69-5194-4229-bd81-dc8817b4eeae{-webkit-user-select:none;-webkit-font-smoothing:antialiased;font-family:Consolas,"Liberation Mono",Menlo,Courier,monospace}#chart-673bff69-5194-4229-bd81-dc8817b4eeae .title{font-family:Consolas,"Liberation Mono",Menlo,Courier,monospace;font-size:16px}#chart-673bff69-5194-4229-bd81-dc8817b4eeae .legends .legend text{font-family:Consolas,"Liberation Mono",Menlo,Courier,monospace;font-size:14px}#chart-673bff69-5194-4229-bd81-dc8817b4eeae .axis text{font-family:Consolas,"Liberation Mono",Menlo,Courier,monospace;font-size:10px}#chart-673bff69-5194-4229-bd81-dc8817b4eeae .axis text.major{font-family:Consolas,"Liberation Mono",Menlo,Courier,monospace;font-size:10px}#chart-673bff69-5194-4229-bd81-dc8817b4eeae .text-overlay text.value{font-family:Consolas,"Liberation Mono",Menlo,Courier,monospace;font-size:16px}#chart-673bff69-5194-4229-bd81-dc8817b4eeae .text-overlay text.label{font-family:Consolas,"Liberation Mono",Menlo,Courier,monospace;font-size:10px}#chart-673bff69-5194-4229-bd81-dc8817b4eeae .tooltip{font-family:Consolas,"Liberation Mono",Menlo,Courier,monospace;font-size:14px}#chart-673bff69-5194-4229-bd81-dc8817b4eeae text.no_data{font-family:Consolas,"Liberation Mono",Menlo,Courier,monospace;font-size:64px}
#chart-673bff69-5194-4229-bd81-dc8817b4eeae{background-color:rgba(249,249,249,1)}#chart-673bff69-5194-4229-bd81-dc8817b4eeae path,#chart-673bff69-5194-4229-bd81-dc8817b4eeae line,#chart-673bff69-5194-4229-bd81-dc8817b4eeae rect,#chart-673bff69-5194-4229-bd81-dc8817b4eeae circle{-webkit-transition:150ms;-moz-transition:150ms;transition:150ms}#chart-673bff69-5194-4229-bd81-dc8817b4eeae .graph &gt; .background{fill:rgba(249,249,249,1)}#chart-673bff69-5194-4229-bd81-dc8817b4eeae .plot &gt; .background{fill:rgba(255,255,255,1)}#chart-673bff69-5194-4229-bd81-dc8817b4eeae .graph{fill:rgba(0,0,0,.87)}#chart-673bff69-5194-4229-bd81-dc8817b4eeae text.no_data{fill:rgba(0,0,0,1)}#chart-673bff69-5194-4229-bd81-dc8817b4eeae .title{fill:rgba(0,0,0,1)}#chart-673bff69-5194-4229-bd81-dc8817b4eeae .legends .legend text{fill:rgba(0,0,0,.87)}#chart-673bff69-5194-4229-bd81-dc8817b4eeae .legends .legend:hover text{fill:rgba(0,0,0,1)}#chart-673bff69-5194-4229-bd81-dc8817b4eeae .axis .line{stroke:rgba(0,0,0,1)}#chart-673bff69-5194-4229-bd81-dc8817b4eeae .axis .guide.line{stroke:rgba(0,0,0,.54)}#chart-673bff69-5194-4229-bd81-dc8817b4eeae .axis .major.line{stroke:rgba(0,0,0,.87)}#chart-673bff69-5194-4229-bd81-dc8817b4eeae .axis text.major{fill:rgba(0,0,0,1)}#chart-673bff69-5194-4229-bd81-dc8817b4eeae .axis.y .guides:hover .guide.line,#chart-673bff69-5194-4229-bd81-dc8817b4eeae .line-graph .axis.x .guides:hover .guide.line,#chart-673bff69-5194-4229-bd81-dc8817b4eeae .stackedline-graph .axis.x .guides:hover .guide.line,#chart-673bff69-5194-4229-bd81-dc8817b4eeae .xy-graph .axis.x .guides:hover .guide.line{stroke:rgba(0,0,0,1)}#chart-673bff69-5194-4229-bd81-dc8817b4eeae .axis .guides:hover text{fill:rgba(0,0,0,1)}#chart-673bff69-5194-4229-bd81-dc8817b4eeae .reactive{fill-opacity:.7;stroke-opacity:.8}#chart-673bff69-5194-4229-bd81-dc8817b4eeae .ci{stroke:rgba(0,0,0,.87)}#chart-673bff69-5194-4229-bd81-dc8817b4eeae .reactive.active,#chart-673bff69-5194-4229-bd81-dc8817b4eeae .active .reactive{fill-opacity:.8;stroke-opacity:.9;stroke-width:4}#chart-673bff69-5194-4229-bd81-dc8817b4eeae .ci .reactive.active{stroke-width:1.5}#chart-673bff69-5194-4229-bd81-dc8817b4eeae .series text{fill:rgba(0,0,0,1)}#chart-673bff69-5194-4229-bd81-dc8817b4eeae .tooltip rect{fill:rgba(255,255,255,1);stroke:rgba(0,0,0,1);-webkit-transition:opacity 150ms;-moz-transition:opacity 150ms;transition:opacity 150ms}#chart-673bff69-5194-4229-bd81-dc8817b4eeae .tooltip .label{fill:rgba(0,0,0,.87)}#chart-673bff69-5194-4229-bd81-dc8817b4eeae .tooltip .label{fill:rgba(0,0,0,.87)}#chart-673bff69-5194-4229-bd81-dc8817b4eeae .tooltip .legend{font-size:.8em;fill:rgba(0,0,0,.54)}#chart-673bff69-5194-4229-bd81-dc8817b4eeae .tooltip .x_label{font-size:.6em;fill:rgba(0,0,0,1)}#chart-673bff69-5194-4229-bd81-dc8817b4eeae .tooltip .xlink{font-size:.5em;text-decoration:underline}#chart-673bff69-5194-4229-bd81-dc8817b4eeae .tooltip .value{font-size:1.5em}#chart-673bff69-5194-4229-bd81-dc8817b4eeae .bound{font-size:.5em}#chart-673bff69-5194-4229-bd81-dc8817b4eeae .max-value{font-size:.75em;fill:rgba(0,0,0,.54)}#chart-673bff69-5194-4229-bd81-dc8817b4eeae .map-element{fill:rgba(255,255,255,1);stroke:rgba(0,0,0,.54) !important}#chart-673bff69-5194-4229-bd81-dc8817b4eeae .map-element .reactive{fill-opacity:inherit;stroke-opacity:inherit}#chart-673bff69-5194-4229-bd81-dc8817b4eeae .color-0,#chart-673bff69-5194-4229-bd81-dc8817b4eeae .color-0 a:visited{stroke:#F44336;fill:#F44336}#chart-673bff69-5194-4229-bd81-dc8817b4eeae .color-1,#chart-673bff69-5194-4229-bd81-dc8817b4eeae .color-1 a:visited{stroke:#3F51B5;fill:#3F51B5}#chart-673bff69-5194-4229-bd81-dc8817b4eeae .color-2,#chart-673bff69-5194-4229-bd81-dc8817b4eeae .color-2 a:visited{stroke:#009688;fill:#009688}#chart-673bff69-5194-4229-bd81-dc8817b4eeae .text-overlay .color-0 text{fill:black}#chart-673bff69-5194-4229-bd81-dc8817b4eeae .text-overlay .color-1 text{fill:black}#chart-673bff69-5194-4229-bd81-dc8817b4eeae .text-overlay .color-2 text{fill:black}
#chart-673bff69-5194-4229-bd81-dc8817b4eeae text.no_data{text-anchor:middle}#chart-673bff69-5194-4229-bd81-dc8817b4eeae .guide.line{fill:none}#chart-673bff69-5194-4229-bd81-dc8817b4eeae .centered{text-anchor:middle}#chart-673bff69-5194-4229-bd81-dc8817b4eeae .title{text-anchor:middle}#chart-673bff69-5194-4229-bd81-dc8817b4eeae .legends .legend text{fill-opacity:1}#chart-673bff69-5194-4229-bd81-dc8817b4eeae .axis.x text{text-anchor:middle}#chart-673bff69-5194-4229-bd81-dc8817b4eeae .axis.x:not(.web) text[transform]{text-anchor:start}#chart-673bff69-5194-4229-bd81-dc8817b4eeae .axis.x:not(.web) text[transform].backwards{text-anchor:end}#chart-673bff69-5194-4229-bd81-dc8817b4eeae .axis.y text{text-anchor:end}#chart-673bff69-5194-4229-bd81-dc8817b4eeae .axis.y text[transform].backwards{text-anchor:start}#chart-673bff69-5194-4229-bd81-dc8817b4eeae .axis.y2 text{text-anchor:start}#chart-673bff69-5194-4229-bd81-dc8817b4eeae .axis.y2 text[transform].backwards{text-anchor:end}#chart-673bff69-5194-4229-bd81-dc8817b4eeae .axis .guide.line{stroke-dasharray:4,4}#chart-673bff69-5194-4229-bd81-dc8817b4eeae .axis .major.guide.line{stroke-dasharray:6,6}#chart-673bff69-5194-4229-bd81-dc8817b4eeae .horizontal .axis.y .guide.line,#chart-673bff69-5194-4229-bd81-dc8817b4eeae .horizontal .axis.y2 .guide.line,#chart-673bff69-5194-4229-bd81-dc8817b4eeae .vertical .axis.x .guide.line{opacity:0}#chart-673bff69-5194-4229-bd81-dc8817b4eeae .horizontal .axis.always_show .guide.line,#chart-673bff69-5194-4229-bd81-dc8817b4eeae .vertical .axis.always_show .guide.line{opacity:1 !important}#chart-673bff69-5194-4229-bd81-dc8817b4eeae .axis.y .guides:hover .guide.line,#chart-673bff69-5194-4229-bd81-dc8817b4eeae .axis.y2 .guides:hover .guide.line,#chart-673bff69-5194-4229-bd81-dc8817b4eeae .axis.x .guides:hover .guide.line{opacity:1}#chart-673bff69-5194-4229-bd81-dc8817b4eeae .axis .guides:hover text{opacity:1}#chart-673bff69-5194-4229-bd81-dc8817b4eeae .nofill{fill:none}#chart-673bff69-5194-4229-bd81-dc8817b4eeae .subtle-fill{fill-opacity:.2}#chart-673bff69-5194-4229-bd81-dc8817b4eeae .dot{stroke-width:1px;fill-opacity:1}#chart-673bff69-5194-4229-bd81-dc8817b4eeae .dot.active{stroke-width:5px}#chart-673bff69-5194-4229-bd81-dc8817b4eeae .dot.negative{fill:transparent}#chart-673bff69-5194-4229-bd81-dc8817b4eeae text,#chart-673bff69-5194-4229-bd81-dc8817b4eeae tspan{stroke:none !important}#chart-673bff69-5194-4229-bd81-dc8817b4eeae .series text.active{opacity:1}#chart-673bff69-5194-4229-bd81-dc8817b4eeae .tooltip rect{fill-opacity:.95;stroke-width:.5}#chart-673bff69-5194-4229-bd81-dc8817b4eeae .tooltip text{fill-opacity:1}#chart-673bff69-5194-4229-bd81-dc8817b4eeae .showable{visibility:hidden}#chart-673bff69-5194-4229-bd81-dc8817b4eeae .showable.shown{visibility:visible}#chart-673bff69-5194-4229-bd81-dc8817b4eeae .gauge-background{fill:rgba(229,229,229,1);stroke:none}#chart-673bff69-5194-4229-bd81-dc8817b4eeae .bg-lines{stroke:rgba(249,249,249,1);stroke-width:2px}</style><script type="text/javascript">window.pygal = window.pygal || {};window.pygal.config = window.pygal.config || {};window.pygal.config['673bff69-5194-4229-bd81-dc8817b4eeae'] = {"allow_interruptions": false, "box_mode": "extremes", "classes": ["pygal-chart"], "css": ["file://style.css", "file://graph.css"], "defs": [], "disable_xml_declaration": false, "dots_size": 2.5, "dynamic_print_values": false, "explicit_size": false, "fill": false, "force_uri_protocol": "https", "formatter": null, "half_pie": false, "height": 600, "include_x_axis": false, "inner_radius": 0, "interpolate": null, "interpolation_parameters": {}, "interpolation_precision": 250, "inverse_y_axis": false, "js": ["//kozea.github.io/pygal.js/2.0.x/pygal-tooltips.min.js"], "legend_at_bottom": true, "legend_at_bottom_columns": null, "legend_box_size": 12, "logarithmic": false, "margin": 20, "margin_bottom": null, "margin_left": null, "margin_right": null, "margin_top": null, "max_scale": 16, "min_scale": 4, "missing_value_fill_truncation": "x", "no_data_text": "No data", "no_prefix": false, "order_min": null, "pretty_print": false, "print_labels": false, "print_values": false, "print_values_position": "center", "print_zeroes": true, "range": null, "rounded_bars": null, "secondary_range": null, "show_dots": true, "show_legend": true, "show_minor_x_labels": false, "show_minor_y_labels": true, "show_only_major_dots": false, "show_x_guides": false, "show_x_labels": true, "show_y_guides": true, "show_y_labels": true, "spacing": 10, "stack_from_top": false, "strict": false, "stroke": true, "stroke_style": null, "style": {"background": "rgba(249, 249, 249, 1)", "ci_colors": [], "colors": ["#F44336", "#3F51B5", "#009688", "#FFC107", "#FF5722", "#9C27B0", "#03A9F4", "#8BC34A", "#FF9800", "#E91E63", "#2196F3", "#4CAF50", "#FFEB3B", "#673AB7", "#00BCD4", "#CDDC39", "#9E9E9E", "#607D8B"], "font_family": "Consolas, \"Liberation Mono\", Menlo, Courier, monospace", "foreground": "rgba(0, 0, 0, .87)", "foreground_strong": "rgba(0, 0, 0, 1)", "foreground_subtle": "rgba(0, 0, 0, .54)", "guide_stroke_dasharray": "4,4", "label_font_family": "Consolas, \"Liberation Mono\", Menlo, Courier, monospace", "label_font_size": 10, "legend_font_family": "Consolas, \"Liberation Mono\", Menlo, Courier, monospace", "legend_font_size": 14, "major_guide_stroke_dasharray": "6,6", "major_label_font_family": "Consolas, \"Liberation Mono\", Menlo, Courier, monospace", "major_label_font_size": 10, "no_data_font_family": "Consolas, \"Liberation Mono\", Menlo, Courier, monospace", "no_data_font_size": 64, "opacity": ".7", "opacity_hover": ".8", "plot_background": "rgba(255, 255, 255, 1)", "stroke_opacity": ".8", "stroke_opacity_hover": ".9", "title_font_family": "Consolas, \"Liberation Mono\", Menlo, Courier, monospace", "title_font_size": 16, "tooltip_font_family": "Consolas, \"Liberation Mono\", Menlo, Courier, monospace", "tooltip_font_size": 14, "transition": "150ms", "value_background": "rgba(229, 229, 229, 1)", "value_colors": [], "value_font_family": "Consolas, \"Liberation Mono\", Menlo, Courier, monospace", "value_font_size": 16, "value_label_font_family": "Consolas, \"Liberation Mono\", Menlo, Courier, monospace", "value_label_font_size": 10}, "title": "MM Ali: Future and Past Averages in ODIs", "tooltip_border_radius": 10, "tooltip_fancy_mode": true, "truncate_label": null, "truncate_legend": null, "width": 800, "x_label_rotation": 45, "x_labels": ["2014", "0", "0", "0", "0", "0", "0", "0", "0", "0", "0", "0", "2015", "0", "0", "0", "0", "0", "0", "0", "0", "0", "0", "0", "0", "0", "0", "0", "0", "0", "2016", "0", "0", "0", "0", "0", "0", "0", "0", "0", "0", "0", "0", "0", "0", "2017", "0", "0", "0", "0", "0", "0", "0", "0", "0", "0", "0", "0", "0", "0", "2018", "0", "0", "0", "0", "0", "0", "0", "0", "0", "0", "0", "0", "0", "0", "0", "0", "0", "0", "0", "0", "0", "0", "2019", "0", "0", "0", "0", "0", "0", "0", "0", "0", "0", "0"], "x_labels_major": ["2014", "2015", "2016", "2017", "2018", "2019"], "x_labels_major_count": null, "x_labels_major_every": null, "x_title": null, "xrange": null, "y_label_rotation": 0, "y_labels": null, "y_labels_major": null, "y_labels_major_count": null, "y_labels_major_every": null, "y_title": null, "zero": 0, "legends": ["Future Average", "Past Average", "Career Average"]}</script><script type="text/javascript" xlink:href="https://kozea.github.io/pygal.js/2.0.x/pygal-tooltips.min.js"/></defs><title>MM Ali: Future and Past Averages in ODIs</title><g class="graph line-graph vertical"><rect class="background" height="600" width="800" x="0" y="0"/><g class="plot" transform="translate(48, 46)"><rect class="background" height="462.02943725152284" width="732.0" x="0" y="0"/><g class="axis y always_show"><g class="guides"><path class="axis major line" d="M0.000000 453.144256 h732.000000"/><text class="major" x="-5" y="456.6442557659166">0</text><title>0</title></g><g class="guides"><path class="guide line" d="M0.000000 415.173395 h732.000000"/><text class="" x="-5" y="418.67339471631743">10</text><title>10</title></g><g class="guides"><path class="guide line" d="M0.000000 377.202534 h732.000000"/><text class="" x="-5" y="380.7025336667183">20</text><title>20</title></g><g class="guides"><path class="guide line" d="M0.000000 339.231673 h732.000000"/><text class="" x="-5" y="342.7316726171191">30</text><title>30</title></g><g class="guides"><path class="guide line" d="M0.000000 301.260812 h732.000000"/><text class="" x="-5" y="304.7608115675199">40</text><title>40</title></g><g class="guides"><path class="major guide line" d="M0.000000 263.289951 h732.000000"/><text class="major" x="-5" y="266.7899505179207">50</text><title>50</title></g><g class="guides"><path class="guide line" d="M0.000000 225.319089 h732.000000"/><text class="" x="-5" y="228.81908946832155">60</text><title>60</title></g><g class="guides"><path class="guide line" d="M0.000000 187.348228 h732.000000"/><text class="" x="-5" y="190.84822841872233">70</text><title>70</title></g><g class="guides"><path class="guide line" d="M0.000000 149.377367 h732.000000"/><text class="" x="-5" y="152.8773673691232">80</text><title>80</title></g><g class="guides"><path class="guide line" d="M0.000000 111.406506 h732.000000"/><text class="" x="-5" y="114.906506319524">90</text><title>90</title></g><g class="guides"><path class="major guide line" d="M0.000000 73.435645 h732.000000"/><text class="major" x="-5" y="76.93564526992486">100</text><title>100</title></g><g class="guides"><path class="guide line" d="M0.000000 35.464784 h732.000000"/><text class="" x="-5" y="38.96478422032567">110</text><title>110</title></g></g><g class="axis x"><g class="guides"><path class="major line" d="M14.076923 0.000000 v462.029437"/><text class="major" x="14.076923076923077" y="477.02943725152284" transform="rotate(45 14.076923 477.029437)">2014</text></g><g class="guides"><path class="major guide line" d="M103.929624 0.000000 v462.029437"/><text class="major" x="103.92962356792141" y="477.02943725152284" transform="rotate(45 103.929624 477.029437)">2015</text></g><g class="guides"><path class="major guide line" d="M238.708674 0.000000 v462.029437"/><text class="major" x="238.708674304419" y="477.02943725152284" transform="rotate(45 238.708674 477.029437)">2016</text></g><g class="guides"><path class="major guide line" d="M351.024550 0.000000 v462.029437"/><text class="major" x="351.02454991816694" y="477.02943725152284" transform="rotate(45 351.024550 477.029437)">2017</text></g><g class="guides"><path class="major guide line" d="M463.340426 0.000000 v462.029437"/><text class="major" x="463.34042553191495" y="477.02943725152284" transform="rotate(45 463.340426 477.029437)">2018</text></g><g class="guides"><path class="major guide line" d="M635.558101 0.000000 v462.029437"/><text class="major" x="635.5581014729951" y="477.02943725152284" transform="rotate(45 635.558101 477.029437)">2019</text></g></g><g class="series serie-0 color-0"><path class="line reactive nofill" d="M14.076923 268.302104 L21.564648 267.238920 29.052373 265.454290 36.540098 263.365892 44.027823 265.264435 51.515548 262.150825 59.003273 262.910242 66.490998 262.302708 73.978723 264.087339 81.466448 263.783572 88.954173 266.289649 96.441899 268.567900 103.929624 265.606173 111.417349 265.378348 118.905074 264.391105 126.392799 261.733145 133.880524 258.049972 141.368249 257.328525 148.855974 260.745903 156.343699 257.556350 163.831424 257.480409 171.319149 257.024758 178.806874 259.265039 186.294599 260.290252 193.782324 252.544197 201.270049 248.177548 208.757774 249.848266 216.245499 248.367402 223.733224 248.101606 231.220949 246.430888 238.708674 238.191211 246.196399 228.166904 253.684124 231.394427 261.171849 232.761378 268.659574 235.912960 276.147300 234.242242 283.635025 235.191513 291.122750 238.646862 298.610475 243.545103 306.098200 246.089150 313.585925 250.645654 321.073650 249.126819 328.561375 242.937569 336.049100 248.557256 343.536825 252.088547 351.024550 251.063333 358.512275 255.505924 366.000000 258.581564 373.487725 262.378650 380.975450 265.796027 388.463175 265.264435 395.950900 267.846454 403.438625 263.100096 410.926350 264.011397 418.414075 268.112250 425.901800 270.580356 433.389525 272.099190 440.877250 267.618629 448.364975 274.453384 455.852700 281.857702 463.340426 280.870459 470.828151 280.149013 478.315876 278.478295 485.803601 285.047254 493.291326 289.755641 500.779051 280.376838 508.266776 284.173924 515.754501 276.579752 523.242226 260.859815 530.729951 268.757755 538.217676 267.238920 545.705401 277.680907 553.193126 260.404165 560.680851 249.506528 568.168576 217.952742 575.656301 228.166904 583.144026 167.717293 590.631751 162.477314 598.119476 149.377367 605.607201 167.223672 613.094926 185.069977 620.582651 187.348228 628.070376 147.023174 635.558101 81.029817 643.045827 134.834528 650.533552 167.109759 658.021277 186.702724 665.509002 183.551142 672.996727 207.852493 680.484452 230.635010 687.972177 278.478295 695.459902 294.615911 702.947627 8.885181 710.435352 141.783195 717.923077 293.666639"/></g><g class="series serie-1 color-1"><path class="line reactive nofill" d="M14.076923 453.144256 L21.564648 358.217103 29.052373 384.796706 36.540098 401.238089 44.027823 350.622931 51.515548 365.811275 59.003273 338.586168 66.490998 334.333432 73.978723 314.816409 81.466448 311.209177 88.954173 287.515360 96.441899 265.644144 103.929624 288.350719 111.417349 287.781156 118.905074 291.768096 126.392799 301.260812 133.880524 311.930624 141.368249 311.550915 148.855974 298.147201 156.343699 305.057898 163.831424 302.969500 171.319149 302.172112 178.806874 295.489241 186.294599 290.894767 193.782324 305.513548 201.270049 310.829469 208.757774 307.298178 216.245499 308.171508 223.733224 306.614703 231.220949 307.715858 238.708674 314.854380 246.196399 321.841018 253.684124 317.512340 261.171849 313.487429 268.659574 309.462518 276.147300 309.538459 283.635025 306.500790 291.122750 302.513850 298.610475 296.894163 306.098200 293.970406 313.585925 288.692457 321.073650 289.413903 328.561375 293.666639 336.049100 288.046952 343.536825 284.553633 351.024550 284.743487 358.512275 280.490751 366.000000 277.604965 373.487725 273.959762 380.975450 270.694268 388.463175 271.073977 395.950900 268.719784 403.438625 272.630782 410.926350 271.681511 418.414075 268.453988 425.901800 266.517474 433.389525 265.302406 440.877250 268.833696 448.364975 263.669659 455.852700 258.163884 463.340426 259.340981 470.828151 260.252282 478.315876 261.733145 485.803601 257.480409 493.291326 254.442740 500.779051 261.619233 508.266776 259.492864 515.754501 264.163280 523.242226 271.453686 530.729951 268.112250 538.217676 268.719784 545.705401 264.542989 553.193126 270.960064 560.680851 273.807879 568.168576 280.149013 575.656301 277.756849 583.144026 285.085225 590.631751 284.249866 598.119476 284.363778 605.607201 281.971614 613.094926 279.541479 620.582651 279.237712 628.070376 281.060313 635.558101 282.731031 643.045827 278.592208 650.533552 276.086131 658.021277 274.567296 665.509002 273.655996 672.996727 272.137161 680.484452 270.694268 687.972177 267.656600 695.459902 267.011095 702.947627 271.415715 710.435352 269.820939 717.923077 267.998337"/></g><g class="series serie-2 color-2"><path class="line reactive nofill" d="M14.076923 268.302104 L21.564648 268.302104 29.052373 268.302104 36.540098 268.302104 44.027823 268.302104 51.515548 268.302104 59.003273 268.302104 66.490998 268.302104 73.978723 268.302104 81.466448 268.302104 88.954173 268.302104 96.441899 268.302104 103.929624 268.302104 111.417349 268.302104 118.905074 268.302104 126.392799 268.302104 133.880524 268.302104 141.368249 268.302104 148.855974 268.302104 156.343699 268.302104 163.831424 268.302104 171.319149 268.302104 178.806874 268.302104 186.294599 268.302104 193.782324 268.302104 201.270049 268.302104 208.757774 268.302104 216.245499 268.302104 223.733224 268.302104 231.220949 268.302104 238.708674 268.302104 246.196399 268.302104 253.684124 268.302104 261.171849 268.302104 268.659574 268.302104 276.147300 268.302104 283.635025 268.302104 291.122750 268.302104 298.610475 268.302104 306.098200 268.302104 313.585925 268.302104 321.073650 268.302104 328.561375 268.302104 336.049100 268.302104 343.536825 268.302104 351.024550 268.302104 358.512275 268.302104 366.000000 268.302104 373.487725 268.302104 380.975450 268.302104 388.463175 268.302104 395.950900 268.302104 403.438625 268.302104 410.926350 268.302104 418.414075 268.302104 425.901800 268.302104 433.389525 268.302104 440.877250 268.302104 448.364975 268.302104 455.852700 268.302104 463.340426 268.302104 470.828151 268.302104 478.315876 268.302104 485.803601 268.302104 493.291326 268.302104 500.779051 268.302104 508.266776 268.302104 515.754501 268.302104 523.242226 268.302104 530.729951 268.302104 538.217676 268.302104 545.705401 268.302104 553.193126 268.302104 560.680851 268.302104 568.168576 268.302104 575.656301 268.302104 583.144026 268.302104 590.631751 268.302104 598.119476 268.302104 605.607201 268.302104 613.094926 268.302104 620.582651 268.302104 628.070376 268.302104 635.558101 268.302104 643.045827 268.302104 650.533552 268.302104 658.021277 268.302104 665.509002 268.302104 672.996727 268.302104 680.484452 268.302104 687.972177 268.302104 695.459902 268.302104 702.947627 268.302104 710.435352 268.302104 717.923077 268.302104"/></g></g><g class="titles"><text class="title plot_title" x="400.0" y="26">MM Ali: Future and Past Averages in ODIs</text></g><g class="plot overlay" transform="translate(48, 46)"><g class="series serie-0 color-0"><g class="dots"><desc class="label">84 wickets in 95 innings (775.4 overs)</desc><circle class="dot reactive tooltip-trigger" cx="14.076923076923077" cy="268.3021041764678" r="2.5"/><desc class="value">48.68</desc><desc class="x top">14.076923076923077</desc><desc class="y top">268.3021041764678</desc><desc class="x_label">2014</desc></g><g class="dots"><desc class="label">74 wickets in 83 innings (688.4 overs)</desc><circle class="dot reactive tooltip-trigger" cx="103.92962356792141" cy="265.60617304194625" r="2.5"/><desc class="value">49.39</desc><desc class="x top">103.92962356792141</desc><desc class="y top">265.60617304194625</desc><desc class="x_label">2015</desc></g><g class="dots"><desc class="label">51 wickets in 65 innings (526.0 overs)</desc><circle class="dot reactive tooltip-trigger" cx="238.708674304419" cy="238.19121136413565" r="2.5"/><desc class="value">56.61</desc><desc class="x top">238.708674304419</desc><desc class="y top">238.19121136413565</desc><desc class="x_label">2016</desc></g><g class="dots"><desc class="label">41 wickets in 50 innings (393.0 overs)</desc><circle class="dot reactive tooltip-trigger" cx="351.02454991816694" cy="251.06333325994981" r="2.5"/><desc class="value">53.22</desc><desc class="x top">351.02454991816694</desc><desc class="y top">251.06333325994981</desc><desc class="x_label">2017</desc></g><g class="dots"><desc class="label">35 wickets in 35 innings (287.5 overs)</desc><circle class="dot reactive tooltip-trigger" cx="463.34042553191495" cy="280.87045918388515" r="2.5"/><desc class="value">45.37</desc><desc class="x left top">463.34042553191495</desc><desc class="y left top">280.87045918388515</desc><desc class="x_label">2018</desc></g><g class="dots"><desc class="label">6 wickets in 12 innings (92.0 overs)</desc><circle class="dot reactive tooltip-trigger" cx="635.5581014729951" cy="81.02981747984467" r="2.5"/><desc class="value">98</desc><desc class="x left">635.5581014729951</desc><desc class="y left">81.02981747984467</desc><desc class="x_label">2019</desc></g></g><g class="series serie-1 color-1"><g class="dots"><desc class="label">0 wickets over 0 innings</desc><circle class="dot reactive tooltip-trigger" cx="14.076923076923077" cy="453.1442557659166" r="2.5"/><desc class="value">0</desc><desc class="x top">14.076923076923077</desc><desc class="y top">453.1442557659166</desc><desc class="x_label">2014</desc></g><g class="dots"><desc class="label">10 wickets in 12 innings (87.0 overs)</desc><circle class="dot reactive tooltip-trigger" cx="103.92962356792141" cy="288.3507188106562" r="2.5"/><desc class="value">43.4</desc><desc class="x top">103.92962356792141</desc><desc class="y top">288.3507188106562</desc><desc class="x_label">2015</desc></g><g class="dots"><desc class="label">33 wickets in 30 innings (249.4 overs)</desc><circle class="dot reactive tooltip-trigger" cx="238.708674304419" cy="314.8543798232764" r="2.5"/><desc class="value">36.42</desc><desc class="x top">238.708674304419</desc><desc class="y top">314.8543798232764</desc><desc class="x_label">2016</desc></g><g class="dots"><desc class="label">43 wickets in 45 innings (382.4 overs)</desc><circle class="dot reactive tooltip-trigger" cx="351.02454991816694" cy="284.74348701094425" r="2.5"/><desc class="value">44.35</desc><desc class="x top">351.02454991816694</desc><desc class="y top">284.74348701094425</desc><desc class="x_label">2017</desc></g><g class="dots"><desc class="label">49 wickets in 60 innings (487.5 overs)</desc><circle class="dot reactive tooltip-trigger" cx="463.34042553191495" cy="259.34098096876244" r="2.5"/><desc class="value">51.04</desc><desc class="x left top">463.34042553191495</desc><desc class="y left top">259.34098096876244</desc><desc class="x_label">2018</desc></g><g class="dots"><desc class="label">78 wickets in 83 innings (683.4 overs)</desc><circle class="dot reactive tooltip-trigger" cx="635.5581014729951" cy="282.7310313753155" r="2.5"/><desc class="value">44.88</desc><desc class="x left top">635.5581014729951</desc><desc class="y left top">282.7310313753155</desc><desc class="x_label">2019</desc></g></g><g class="series serie-2 color-2"/></g><g class="plot text-overlay" transform="translate(48, 46)"><g class="series serie-0 color-0"/><g class="series serie-1 color-1"/><g class="series serie-2 color-2"/></g><g class="plot tooltip-overlay" transform="translate(48, 46)"><g class="tooltip" style="opacity: 0" transform="translate(0 0)"><rect class="tooltip-box" height="0" rx="10" ry="10" width="0"/><g class="text"/></g></g><g class="legends" transform="translate(58, 545)"><g class="legend reactive activate-serie" id="activate-serie-0"><rect class="color-0 reactive" height="12" width="12" x="0.0" y="1.0"/><text x="17.0" y="11.2">Future Average</text></g><g class="legend reactive activate-serie" id="activate-serie-1"><rect class="color-1 reactive" height="12" width="12" x="366.0" y="1.0"/><text x="383.0" y="11.2">Past Average</text></g><g class="legend reactive activate-serie" id="activate-serie-2"><rect class="color-2 reactive" height="12" width="12" x="0.0" y="22.0"/><text x="17.0" y="32.2">Career Average</text></g></g></g></svg>