<?xml version='1.0' encoding='utf-8'?>
<svg xmlns:xlink="http://www.w3.org/1999/xlink" xmlns="http://www.w3.org/2000/svg" id="chart-c869cf12-35f5-45d0-b8bc-1f530c87a067" class="pygal-chart" viewBox="0 0 800 600"><!--Generated with pygal 2.4.0 (lxml) ©Kozea 2012-2016 on 2019-08-02--><!--http://pygal.org--><!--http://github.com/Kozea/pygal--><defs><style type="text/css">#chart-c869cf12-35f5-45d0-b8bc-1f530c87a067{-webkit-user-select:none;-webkit-font-smoothing:antialiased;font-family:Consolas,"Liberation Mono",Menlo,Courier,monospace}#chart-c869cf12-35f5-45d0-b8bc-1f530c87a067 .title{font-family:Consolas,"Liberation Mono",Menlo,Courier,monospace;font-size:16px}#chart-c869cf12-35f5-45d0-b8bc-1f530c87a067 .legends .legend text{font-family:Consolas,"Liberation Mono",Menlo,Courier,monospace;font-size:14px}#chart-c869cf12-35f5-45d0-b8bc-1f530c87a067 .axis text{font-family:Consolas,"Liberation Mono",Menlo,Courier,monospace;font-size:10px}#chart-c869cf12-35f5-45d0-b8bc-1f530c87a067 .axis text.major{font-family:Consolas,"Liberation Mono",Menlo,Courier,monospace;font-size:10px}#chart-c869cf12-35f5-45d0-b8bc-1f530c87a067 .text-overlay text.value{font-family:Consolas,"Liberation Mono",Menlo,Courier,monospace;font-size:16px}#chart-c869cf12-35f5-45d0-b8bc-1f530c87a067 .text-overlay text.label{font-family:Consolas,"Liberation Mono",Menlo,Courier,monospace;font-size:10px}#chart-c869cf12-35f5-45d0-b8bc-1f530c87a067 .tooltip{font-family:Consolas,"Liberation Mono",Menlo,Courier,monospace;font-size:14px}#chart-c869cf12-35f5-45d0-b8bc-1f530c87a067 text.no_data{font-family:Consolas,"Liberation Mono",Menlo,Courier,monospace;font-size:64px}
#chart-c869cf12-35f5-45d0-b8bc-1f530c87a067{background-color:rgba(249,249,249,1)}#chart-c869cf12-35f5-45d0-b8bc-1f530c87a067 path,#chart-c869cf12-35f5-45d0-b8bc-1f530c87a067 line,#chart-c869cf12-35f5-45d0-b8bc-1f530c87a067 rect,#chart-c869cf12-35f5-45d0-b8bc-1f530c87a067 circle{-webkit-transition:150ms;-moz-transition:150ms;transition:150ms}#chart-c869cf12-35f5-45d0-b8bc-1f530c87a067 .graph &gt; .background{fill:rgba(249,249,249,1)}#chart-c869cf12-35f5-45d0-b8bc-1f530c87a067 .plot &gt; .background{fill:rgba(255,255,255,1)}#chart-c869cf12-35f5-45d0-b8bc-1f530c87a067 .graph{fill:rgba(0,0,0,.87)}#chart-c869cf12-35f5-45d0-b8bc-1f530c87a067 text.no_data{fill:rgba(0,0,0,1)}#chart-c869cf12-35f5-45d0-b8bc-1f530c87a067 .title{fill:rgba(0,0,0,1)}#chart-c869cf12-35f5-45d0-b8bc-1f530c87a067 .legends .legend text{fill:rgba(0,0,0,.87)}#chart-c869cf12-35f5-45d0-b8bc-1f530c87a067 .legends .legend:hover text{fill:rgba(0,0,0,1)}#chart-c869cf12-35f5-45d0-b8bc-1f530c87a067 .axis .line{stroke:rgba(0,0,0,1)}#chart-c869cf12-35f5-45d0-b8bc-1f530c87a067 .axis .guide.line{stroke:rgba(0,0,0,.54)}#chart-c869cf12-35f5-45d0-b8bc-1f530c87a067 .axis .major.line{stroke:rgba(0,0,0,.87)}#chart-c869cf12-35f5-45d0-b8bc-1f530c87a067 .axis text.major{fill:rgba(0,0,0,1)}#chart-c869cf12-35f5-45d0-b8bc-1f530c87a067 .axis.y .guides:hover .guide.line,#chart-c869cf12-35f5-45d0-b8bc-1f530c87a067 .line-graph .axis.x .guides:hover .guide.line,#chart-c869cf12-35f5-45d0-b8bc-1f530c87a067 .stackedline-graph .axis.x .guides:hover .guide.line,#chart-c869cf12-35f5-45d0-b8bc-1f530c87a067 .xy-graph .axis.x .guides:hover .guide.line{stroke:rgba(0,0,0,1)}#chart-c869cf12-35f5-45d0-b8bc-1f530c87a067 .axis .guides:hover text{fill:rgba(0,0,0,1)}#chart-c869cf12-35f5-45d0-b8bc-1f530c87a067 .reactive{fill-opacity:.7;stroke-opacity:.8}#chart-c869cf12-35f5-45d0-b8bc-1f530c87a067 .ci{stroke:rgba(0,0,0,.87)}#chart-c869cf12-35f5-45d0-b8bc-1f530c87a067 .reactive.active,#chart-c869cf12-35f5-45d0-b8bc-1f530c87a067 .active .reactive{fill-opacity:.8;stroke-opacity:.9;stroke-width:4}#chart-c869cf12-35f5-45d0-b8bc-1f530c87a067 .ci .reactive.active{stroke-width:1.5}#chart-c869cf12-35f5-45d0-b8bc-1f530c87a067 .series text{fill:rgba(0,0,0,1)}#chart-c869cf12-35f5-45d0-b8bc-1f530c87a067 .tooltip rect{fill:rgba(255,255,255,1);stroke:rgba(0,0,0,1);-webkit-transition:opacity 150ms;-moz-transition:opacity 150ms;transition:opacity 150ms}#chart-c869cf12-35f5-45d0-b8bc-1f530c87a067 .tooltip .label{fill:rgba(0,0,0,.87)}#chart-c869cf12-35f5-45d0-b8bc-1f530c87a067 .tooltip .label{fill:rgba(0,0,0,.87)}#chart-c869cf12-35f5-45d0-b8bc-1f530c87a067 .tooltip .legend{font-size:.8em;fill:rgba(0,0,0,.54)}#chart-c869cf12-35f5-45d0-b8bc-1f530c87a067 .tooltip .x_label{font-size:.6em;fill:rgba(0,0,0,1)}#chart-c869cf12-35f5-45d0-b8bc-1f530c87a067 .tooltip .xlink{font-size:.5em;text-decoration:underline}#chart-c869cf12-35f5-45d0-b8bc-1f530c87a067 .tooltip .value{font-size:1.5em}#chart-c869cf12-35f5-45d0-b8bc-1f530c87a067 .bound{font-size:.5em}#chart-c869cf12-35f5-45d0-b8bc-1f530c87a067 .max-value{font-size:.75em;fill:rgba(0,0,0,.54)}#chart-c869cf12-35f5-45d0-b8bc-1f530c87a067 .map-element{fill:rgba(255,255,255,1);stroke:rgba(0,0,0,.54) !important}#chart-c869cf12-35f5-45d0-b8bc-1f530c87a067 .map-element .reactive{fill-opacity:inherit;stroke-opacity:inherit}#chart-c869cf12-35f5-45d0-b8bc-1f530c87a067 .color-0,#chart-c869cf12-35f5-45d0-b8bc-1f530c87a067 .color-0 a:visited{stroke:#F44336;fill:#F44336}#chart-c869cf12-35f5-45d0-b8bc-1f530c87a067 .color-1,#chart-c869cf12-35f5-45d0-b8bc-1f530c87a067 .color-1 a:visited{stroke:#3F51B5;fill:#3F51B5}#chart-c869cf12-35f5-45d0-b8bc-1f530c87a067 .color-2,#chart-c869cf12-35f5-45d0-b8bc-1f530c87a067 .color-2 a:visited{stroke:#009688;fill:#009688}#chart-c869cf12-35f5-45d0-b8bc-1f530c87a067 .text-overlay .color-0 text{fill:black}#chart-c869cf12-35f5-45d0-b8bc-1f530c87a067 .text-overlay .color-1 text{fill:black}#chart-c869cf12-35f5-45d0-b8bc-1f530c87a067 .text-overlay .color-2 text{fill:black}
#chart-c869cf12-35f5-45d0-b8bc-1f530c87a067 text.no_data{text-anchor:middle}#chart-c869cf12-35f5-45d0-b8bc-1f530c87a067 .guide.line{fill:none}#chart-c869cf12-35f5-45d0-b8bc-1f530c87a067 .centered{text-anchor:middle}#chart-c869cf12-35f5-45d0-b8bc-1f530c87a067 .title{text-anchor:middle}#chart-c869cf12-35f5-45d0-b8bc-1f530c87a067 .legends .legend text{fill-opacity:1}#chart-c869cf12-35f5-45d0-b8bc-1f530c87a067 .axis.x text{text-anchor:middle}#chart-c869cf12-35f5-45d0-b8bc-1f530c87a067 .axis.x:not(.web) text[transform]{text-anchor:start}#chart-c869cf12-35f5-45d0-b8bc-1f530c87a067 .axis.x:not(.web) text[transform].backwards{text-anchor:end}#chart-c869cf12-35f5-45d0-b8bc-1f530c87a067 .axis.y text{text-anchor:end}#chart-c869cf12-35f5-45d0-b8bc-1f530c87a067 .axis.y text[transform].backwards{text-anchor:start}#chart-c869cf12-35f5-45d0-b8bc-1f530c87a067 .axis.y2 text{text-anchor:start}#chart-c869cf12-35f5-45d0-b8bc-1f530c87a067 .axis.y2 text[transform].backwards{text-anchor:end}#chart-c869cf12-35f5-45d0-b8bc-1f530c87a067 .axis .guide.line{stroke-dasharray:4,4}#chart-c869cf12-35f5-45d0-b8bc-1f530c87a067 .axis .major.guide.line{stroke-dasharray:6,6}#chart-c869cf12-35f5-45d0-b8bc-1f530c87a067 .horizontal .axis.y .guide.line,#chart-c869cf12-35f5-45d0-b8bc-1f530c87a067 .horizontal .axis.y2 .guide.line,#chart-c869cf12-35f5-45d0-b8bc-1f530c87a067 .vertical .axis.x .guide.line{opacity:0}#chart-c869cf12-35f5-45d0-b8bc-1f530c87a067 .horizontal .axis.always_show .guide.line,#chart-c869cf12-35f5-45d0-b8bc-1f530c87a067 .vertical .axis.always_show .guide.line{opacity:1 !important}#chart-c869cf12-35f5-45d0-b8bc-1f530c87a067 .axis.y .guides:hover .guide.line,#chart-c869cf12-35f5-45d0-b8bc-1f530c87a067 .axis.y2 .guides:hover .guide.line,#chart-c869cf12-35f5-45d0-b8bc-1f530c87a067 .axis.x .guides:hover .guide.line{opacity:1}#chart-c869cf12-35f5-45d0-b8bc-1f530c87a067 .axis .guides:hover text{opacity:1}#chart-c869cf12-35f5-45d0-b8bc-1f530c87a067 .nofill{fill:none}#chart-c869cf12-35f5-45d0-b8bc-1f530c87a067 .subtle-fill{fill-opacity:.2}#chart-c869cf12-35f5-45d0-b8bc-1f530c87a067 .dot{stroke-width:1px;fill-opacity:1}#chart-c869cf12-35f5-45d0-b8bc-1f530c87a067 .dot.active{stroke-width:5px}#chart-c869cf12-35f5-45d0-b8bc-1f530c87a067 .dot.negative{fill:transparent}#chart-c869cf12-35f5-45d0-b8bc-1f530c87a067 text,#chart-c869cf12-35f5-45d0-b8bc-1f530c87a067 tspan{stroke:none !important}#chart-c869cf12-35f5-45d0-b8bc-1f530c87a067 .series text.active{opacity:1}#chart-c869cf12-35f5-45d0-b8bc-1f530c87a067 .tooltip rect{fill-opacity:.95;stroke-width:.5}#chart-c869cf12-35f5-45d0-b8bc-1f530c87a067 .tooltip text{fill-opacity:1}#chart-c869cf12-35f5-45d0-b8bc-1f530c87a067 .showable{visibility:hidden}#chart-c869cf12-35f5-45d0-b8bc-1f530c87a067 .showable.shown{visibility:visible}#chart-c869cf12-35f5-45d0-b8bc-1f530c87a067 .gauge-background{fill:rgba(229,229,229,1);stroke:none}#chart-c869cf12-35f5-45d0-b8bc-1f530c87a067 .bg-lines{stroke:rgba(249,249,249,1);stroke-width:2px}</style><script type="text/javascript">window.pygal = window.pygal || {};window.pygal.config = window.pygal.config || {};window.pygal.config['c869cf12-35f5-45d0-b8bc-1f530c87a067'] = {"allow_interruptions": false, "box_mode": "extremes", "classes": ["pygal-chart"], "css": ["file://style.css", "file://graph.css"], "defs": [], "disable_xml_declaration": false, "dots_size": 2.5, "dynamic_print_values": false, "explicit_size": false, "fill": false, "force_uri_protocol": "https", "formatter": null, "half_pie": false, "height": 600, "include_x_axis": false, "inner_radius": 0, "interpolate": null, "interpolation_parameters": {}, "interpolation_precision": 250, "inverse_y_axis": false, "js": ["//kozea.github.io/pygal.js/2.0.x/pygal-tooltips.min.js"], "legend_at_bottom": true, "legend_at_bottom_columns": null, "legend_box_size": 12, "logarithmic": false, "margin": 20, "margin_bottom": null, "margin_left": null, "margin_right": null, "margin_top": null, "max_scale": 16, "min_scale": 4, "missing_value_fill_truncation": "x", "no_data_text": "No data", "no_prefix": false, "order_min": null, "pretty_print": false, "print_labels": false, "print_values": false, "print_values_position": "center", "print_zeroes": true, "range": null, "rounded_bars": null, "secondary_range": null, "show_dots": true, "show_legend": true, "show_minor_x_labels": false, "show_minor_y_labels": true, "show_only_major_dots": false, "show_x_guides": false, "show_x_labels": true, "show_y_guides": true, "show_y_labels": true, "spacing": 10, "stack_from_top": false, "strict": false, "stroke": true, "stroke_style": null, "style": {"background": "rgba(249, 249, 249, 1)", "ci_colors": [], "colors": ["#F44336", "#3F51B5", "#009688", "#FFC107", "#FF5722", "#9C27B0", "#03A9F4", "#8BC34A", "#FF9800", "#E91E63", "#2196F3", "#4CAF50", "#FFEB3B", "#673AB7", "#00BCD4", "#CDDC39", "#9E9E9E", "#607D8B"], "font_family": "Consolas, \"Liberation Mono\", Menlo, Courier, monospace", "foreground": "rgba(0, 0, 0, .87)", "foreground_strong": "rgba(0, 0, 0, 1)", "foreground_subtle": "rgba(0, 0, 0, .54)", "guide_stroke_dasharray": "4,4", "label_font_family": "Consolas, \"Liberation Mono\", Menlo, Courier, monospace", "label_font_size": 10, "legend_font_family": "Consolas, \"Liberation Mono\", Menlo, Courier, monospace", "legend_font_size": 14, "major_guide_stroke_dasharray": "6,6", "major_label_font_family": "Consolas, \"Liberation Mono\", Menlo, Courier, monospace", "major_label_font_size": 10, "no_data_font_family": "Consolas, \"Liberation Mono\", Menlo, Courier, monospace", "no_data_font_size": 64, "opacity": ".7", "opacity_hover": ".8", "plot_background": "rgba(255, 255, 255, 1)", "stroke_opacity": ".8", "stroke_opacity_hover": ".9", "title_font_family": "Consolas, \"Liberation Mono\", Menlo, Courier, monospace", "title_font_size": 16, "tooltip_font_family": "Consolas, \"Liberation Mono\", Menlo, Courier, monospace", "tooltip_font_size": 14, "transition": "150ms", "value_background": "rgba(229, 229, 229, 1)", "value_colors": [], "value_font_family": "Consolas, \"Liberation Mono\", Menlo, Courier, monospace", "value_font_size": 16, "value_label_font_family": "Consolas, \"Liberation Mono\", Menlo, Courier, monospace", "value_label_font_size": 10}, "title": "MN Samuels: Future and Past Averages in ODIs", "tooltip_border_radius": 10, "tooltip_fancy_mode": true, "truncate_label": null, "truncate_legend": null, "width": 800, "x_label_rotation": 45, "x_labels": ["2001", "0", "0", "0", "0", "0", "0", "0", "0", "0", "0", "0", "0", "0", "0", "0", "0", "0", "0", "0", "0", "0", "0", "0", "2002", "0", "0", "0", "2003", "0", "0", "0", "0", "0", "0", "0", "0", "0", "0", "2005", "0", "0", "0", "2006", "0", "0", "0", "0", "0", "0", "0", "0", "0", "0", "0", "0", "0", "0", "0", "0", "0", "0", "0", "0", "2007", "0", "0", "0", "0", "0", "0", "0", "0", "2008", "0", "0", "2011", "0", "0", "0", "0", "0", "0", "0", "2012", "0", "0", "0", "0", "0", "0", "0", "0", "0", "0", "0", "0", "0", "0", "0", "2013", "0", "0", "0", "0", "0", "0", "0", "0", "0", "0", "0", "2014", "0", "0", "0", "0", "2015", "0", "0", "0", "0", "0", "0", "0", "0", "2017", "2018", "0", "0", "0", "0", "0", "0"], "x_labels_major": ["2001", "2002", "2003", "2005", "2006", "2007", "2008", "2011", "2012", "2013", "2014", "2015", "2017", "2018"], "x_labels_major_count": null, "x_labels_major_every": null, "x_title": null, "xrange": null, "y_label_rotation": 0, "y_labels": null, "y_labels_major": null, "y_labels_major_count": null, "y_labels_major_every": null, "y_title": null, "zero": 0, "legends": ["Future Average", "Past Average", "Career Average"]}</script><script type="text/javascript" xlink:href="https://kozea.github.io/pygal.js/2.0.x/pygal-tooltips.min.js"/></defs><title>MN Samuels: Future and Past Averages in ODIs</title><g class="graph line-graph vertical"><rect class="background" height="600" width="800" x="0" y="0"/><g class="plot" transform="translate(42, 46)"><rect class="background" height="462.02943725152284" width="738.0" x="0" y="0"/><g class="axis y always_show"><g class="guides"><path class="axis major line" d="M0.000000 453.144256 h738.000000"/><text class="major" x="-5" y="456.6442557659166">0</text><title>0</title></g><g class="guides"><path class="guide line" d="M0.000000 400.256271 h738.000000"/><text class="" x="-5" y="403.75627073254634">10</text><title>10</title></g><g class="guides"><path class="guide line" d="M0.000000 347.368286 h738.000000"/><text class="" x="-5" y="350.86828569917606">20</text><title>20</title></g><g class="guides"><path class="guide line" d="M0.000000 294.480301 h738.000000"/><text class="" x="-5" y="297.98030066580577">30</text><title>30</title></g><g class="guides"><path class="guide line" d="M0.000000 241.592316 h738.000000"/><text class="" x="-5" y="245.0923156324355">40</text><title>40</title></g><g class="guides"><path class="major guide line" d="M0.000000 188.704331 h738.000000"/><text class="major" x="-5" y="192.20433059906526">50</text><title>50</title></g><g class="guides"><path class="guide line" d="M0.000000 135.816346 h738.000000"/><text class="" x="-5" y="139.31634556569497">60</text><title>60</title></g><g class="guides"><path class="guide line" d="M0.000000 82.928361 h738.000000"/><text class="" x="-5" y="86.42836053232458">70</text><title>70</title></g><g class="guides"><path class="guide line" d="M0.000000 30.040375 h738.000000"/><text class="" x="-5" y="33.540375498954404">80</text><title>80</title></g></g><g class="axis x"><g class="guides"><path class="major line" d="M14.192308 0.000000 v462.029437"/><text class="major" x="14.192307692307692" y="477.02943725152284" transform="rotate(45 14.192308 477.029437)">2001</text></g><g class="guides"><path class="major guide line" d="M142.243204 0.000000 v462.029437"/><text class="major" x="142.24320416425678" y="477.02943725152284" transform="rotate(45 142.243204 477.029437)">2002</text></g><g class="guides"><path class="major guide line" d="M163.585020 0.000000 v462.029437"/><text class="major" x="163.58502024291494" y="477.02943725152284" transform="rotate(45 163.585020 477.029437)">2003</text></g><g class="guides"><path class="major guide line" d="M222.275014 0.000000 v462.029437"/><text class="major" x="222.27501445922496" y="477.02943725152284" transform="rotate(45 222.275014 477.029437)">2005</text></g><g class="guides"><path class="major guide line" d="M243.616831 0.000000 v462.029437"/><text class="major" x="243.61683053788315" y="477.02943725152284" transform="rotate(45 243.616831 477.029437)">2006</text></g><g class="guides"><path class="major guide line" d="M355.661365 0.000000 v462.029437"/><text class="major" x="355.6613649508386" y="477.02943725152284" transform="rotate(45 355.661365 477.029437)">2007</text></g><g class="guides"><path class="major guide line" d="M403.680451 0.000000 v462.029437"/><text class="major" x="403.68045112781954" y="477.02943725152284" transform="rotate(45 403.680451 477.029437)">2008</text></g><g class="guides"><path class="major guide line" d="M419.686813 0.000000 v462.029437"/><text class="major" x="419.6868131868132" y="477.02943725152284" transform="rotate(45 419.686813 477.029437)">2011</text></g><g class="guides"><path class="major guide line" d="M462.370445 0.000000 v462.029437"/><text class="major" x="462.3704453441295" y="477.02943725152284" transform="rotate(45 462.370445 477.029437)">2012</text></g><g class="guides"><path class="major guide line" d="M547.737710 0.000000 v462.029437"/><text class="major" x="547.7377096587622" y="477.02943725152284" transform="rotate(45 547.737710 477.029437)">2013</text></g><g class="guides"><path class="major guide line" d="M611.763158 0.000000 v462.029437"/><text class="major" x="611.7631578947369" y="477.02943725152284" transform="rotate(45 611.763158 477.029437)">2014</text></g><g class="guides"><path class="major guide line" d="M638.440428 0.000000 v462.029437"/><text class="major" x="638.4404279930595" y="477.02943725152284" transform="rotate(45 638.440428 477.029437)">2015</text></g><g class="guides"><path class="major guide line" d="M686.459514 0.000000 v462.029437"/><text class="major" x="686.4595141700404" y="477.02943725152284" transform="rotate(45 686.459514 477.029437)">2017</text></g><g class="guides"><path class="major guide line" d="M691.794968 0.000000 v462.029437"/><text class="major" x="691.7949681897051" y="477.02943725152284" transform="rotate(45 691.794968 477.029437)">2018</text></g></g><g class="series serie-0 color-0"><path class="line reactive nofill" d="M14.192308 207.902669 L19.527762 209.700861 24.863216 210.176853 30.198670 207.056461 35.534124 209.383533 40.869578 208.907541 46.205032 204.835166 51.540486 204.253398 56.875940 204.835166 62.211394 197.060632 67.546848 196.901968 72.882302 191.666058 78.217756 185.795491 83.553210 187.382131 88.888664 191.824722 94.224118 193.358473 99.559572 192.459378 104.895026 186.059931 110.230480 179.290269 115.565934 168.924224 120.901388 171.885951 126.236842 174.001471 131.572296 172.732159 136.907750 175.323670 142.243204 175.905438 147.578658 177.227638 152.914112 176.804534 158.249566 179.872037 163.585020 180.876909 168.920474 183.098204 174.255928 186.271483 179.591382 181.670229 184.926836 175.958326 190.262290 174.741903 195.597744 172.732159 200.933198 172.467719 206.268652 170.140648 211.604106 172.256167 216.939560 173.208151 222.275014 175.429446 227.610468 174.689015 232.945922 181.776005 238.281377 183.045316 243.616831 187.435019 248.952285 182.093332 254.287739 183.627084 259.623193 181.564453 264.958647 177.915182 270.294101 181.511565 275.629555 173.472591 280.965009 172.150391 286.300463 176.328542 291.635917 181.035573 296.971371 182.939540 302.306825 174.107247 307.642279 176.011214 312.977733 180.242253 318.313187 178.232510 323.648641 170.828192 328.984095 162.524778 334.319549 163.741202 339.655003 157.659083 344.990457 158.875507 350.325911 158.505291 355.661365 160.885250 360.996819 168.236680 366.332273 166.385601 371.667727 165.909609 377.003181 172.996599 382.338635 176.381430 387.674089 177.227638 393.009543 179.924925 398.344997 175.323670 403.680451 180.929797 409.015905 182.146220 414.351359 180.665357 419.686813 178.444062 425.022267 167.549137 430.357721 162.101674 435.693175 154.538692 441.028629 161.519906 446.364083 158.558179 451.699537 157.394643 457.034991 169.400216 462.370445 180.348029 467.705899 164.005642 473.041353 167.972240 478.376807 151.418301 483.712261 155.543564 489.047715 165.169177 494.383169 147.716142 499.718623 150.624981 505.054078 155.913780 510.389532 136.398113 515.724986 126.508060 521.060440 122.594349 526.395894 117.834431 531.731348 122.753013 537.066802 140.417600 542.402256 142.850448 547.737710 145.336183 553.073164 151.312525 558.408618 157.341755 563.744072 141.475360 569.079526 121.959693 574.414980 103.184459 579.750434 90.121126 585.085888 79.226202 590.421342 91.919318 595.756796 70.605460 601.092250 72.932531 606.427704 88.217159 611.763158 102.920019 617.098612 119.949950 622.434066 136.979881 627.769520 54.210185 633.104974 70.076580 638.440428 110.906105 643.775882 132.061299 649.111336 146.393943 654.446790 117.305551 659.782244 112.545632 665.117698 127.354268 670.453152 137.931865 675.788606 92.183758 681.124060 150.360541 686.459514 195.315329 691.794968 249.525513 697.130422 286.547103 702.465876 311.668896 707.801330 338.112888 713.136784 363.234681 718.472238 246.881114 723.807692 320.924293"/></g><g class="series serie-1 color-1"><path class="line reactive nofill" d="M14.192308 453.144256 L19.527762 294.480301 24.863216 8.885181 30.198670 232.760022 35.534124 165.803833 40.869578 186.059931 46.205032 250.424609 51.540486 250.636161 56.875940 243.866499 62.211394 293.422541 67.546848 285.806671 72.882302 294.850517 78.217756 308.707169 83.553210 301.408627 88.888664 281.258304 94.224118 274.329978 99.559572 273.325107 104.895026 288.345294 110.230480 300.509531 115.565934 313.414199 120.901388 305.481002 126.236842 299.769099 131.572296 297.865132 136.907750 291.307022 142.243204 289.826158 147.578658 286.441327 152.914112 283.268048 158.249566 275.757954 163.585020 273.325107 168.920474 268.036308 174.255928 260.314662 179.591382 265.021693 184.926836 270.680707 190.262290 269.887388 195.597744 270.522043 200.933198 268.036308 206.268652 268.988292 211.604106 265.550573 216.939560 264.016821 222.275014 260.420438 227.610468 259.098239 232.945922 248.256202 238.281377 246.299346 243.616831 239.476796 248.952285 244.183827 254.287739 242.015420 259.623193 243.284731 264.958647 246.352234 270.294101 241.750980 275.629555 248.150426 280.965009 247.885986 286.300463 243.231843 291.635917 237.943045 296.971371 235.774637 302.306825 242.438523 307.642279 240.534556 312.977733 236.197741 318.313187 236.885285 323.648641 241.010548 328.984095 244.924259 334.319549 243.972275 339.655003 247.092666 344.990457 246.140682 350.325911 244.712707 355.661365 242.914515 360.996819 237.467053 366.332273 237.414165 371.667727 236.409293 377.003181 231.596486 382.338635 229.322303 387.674089 227.788552 393.009543 226.043248 398.344997 228.052991 403.680451 224.562384 409.015905 223.821953 414.351359 223.927729 419.686813 224.403720 425.022267 228.423207 430.357721 230.062735 435.693175 232.389806 441.028629 229.216527 446.364083 229.375191 451.699537 228.740535 457.034991 223.769065 462.370445 219.273586 467.705899 224.086393 473.041353 222.658417 478.376807 226.413464 483.712261 225.091264 489.047715 221.917985 494.383169 225.355704 499.718623 224.509496 505.054078 222.975745 510.389532 226.043248 515.724986 227.101008 521.060440 226.572128 526.395894 226.149024 531.731348 225.144152 537.066802 221.600657 542.402256 221.071777 547.737710 220.595786 553.073164 219.379362 558.408618 218.162938 563.744072 220.278458 569.079526 222.605529 574.414980 224.192169 579.750434 224.509496 585.085888 224.192169 590.421342 222.605529 595.756796 223.345961 601.092250 223.081521 606.427704 221.389105 611.763158 219.696690 617.098612 217.792722 622.434066 215.888755 627.769520 221.018889 633.104974 219.643802 638.440428 216.206083 643.775882 214.355003 649.111336 213.138580 654.446790 214.460779 659.782244 213.561684 665.117698 212.715476 670.453152 212.080820 675.788606 213.350132 681.124060 210.599956 686.459514 208.484437 691.794968 205.945814 697.130422 204.200510 702.465876 203.036975 707.801330 201.767663 713.136784 202.455207 718.472238 210.229741 723.807692 209.383533"/></g><g class="series serie-2 color-2"><path class="line reactive nofill" d="M14.192308 207.902669 L19.527762 207.902669 24.863216 207.902669 30.198670 207.902669 35.534124 207.902669 40.869578 207.902669 46.205032 207.902669 51.540486 207.902669 56.875940 207.902669 62.211394 207.902669 67.546848 207.902669 72.882302 207.902669 78.217756 207.902669 83.553210 207.902669 88.888664 207.902669 94.224118 207.902669 99.559572 207.902669 104.895026 207.902669 110.230480 207.902669 115.565934 207.902669 120.901388 207.902669 126.236842 207.902669 131.572296 207.902669 136.907750 207.902669 142.243204 207.902669 147.578658 207.902669 152.914112 207.902669 158.249566 207.902669 163.585020 207.902669 168.920474 207.902669 174.255928 207.902669 179.591382 207.902669 184.926836 207.902669 190.262290 207.902669 195.597744 207.902669 200.933198 207.902669 206.268652 207.902669 211.604106 207.902669 216.939560 207.902669 222.275014 207.902669 227.610468 207.902669 232.945922 207.902669 238.281377 207.902669 243.616831 207.902669 248.952285 207.902669 254.287739 207.902669 259.623193 207.902669 264.958647 207.902669 270.294101 207.902669 275.629555 207.902669 280.965009 207.902669 286.300463 207.902669 291.635917 207.902669 296.971371 207.902669 302.306825 207.902669 307.642279 207.902669 312.977733 207.902669 318.313187 207.902669 323.648641 207.902669 328.984095 207.902669 334.319549 207.902669 339.655003 207.902669 344.990457 207.902669 350.325911 207.902669 355.661365 207.902669 360.996819 207.902669 366.332273 207.902669 371.667727 207.902669 377.003181 207.902669 382.338635 207.902669 387.674089 207.902669 393.009543 207.902669 398.344997 207.902669 403.680451 207.902669 409.015905 207.902669 414.351359 207.902669 419.686813 207.902669 425.022267 207.902669 430.357721 207.902669 435.693175 207.902669 441.028629 207.902669 446.364083 207.902669 451.699537 207.902669 457.034991 207.902669 462.370445 207.902669 467.705899 207.902669 473.041353 207.902669 478.376807 207.902669 483.712261 207.902669 489.047715 207.902669 494.383169 207.902669 499.718623 207.902669 505.054078 207.902669 510.389532 207.902669 515.724986 207.902669 521.060440 207.902669 526.395894 207.902669 531.731348 207.902669 537.066802 207.902669 542.402256 207.902669 547.737710 207.902669 553.073164 207.902669 558.408618 207.902669 563.744072 207.902669 569.079526 207.902669 574.414980 207.902669 579.750434 207.902669 585.085888 207.902669 590.421342 207.902669 595.756796 207.902669 601.092250 207.902669 606.427704 207.902669 611.763158 207.902669 617.098612 207.902669 622.434066 207.902669 627.769520 207.902669 633.104974 207.902669 638.440428 207.902669 643.775882 207.902669 649.111336 207.902669 654.446790 207.902669 659.782244 207.902669 665.117698 207.902669 670.453152 207.902669 675.788606 207.902669 681.124060 207.902669 686.459514 207.902669 691.794968 207.902669 697.130422 207.902669 702.465876 207.902669 707.801330 207.902669 713.136784 207.902669 718.472238 207.902669 723.807692 207.902669"/></g></g><g class="titles"><text class="title plot_title" x="400.0" y="26">MN Samuels: Future and Past Averages in ODIs</text></g><g class="plot overlay" transform="translate(42, 46)"><g class="series serie-0 color-0"><g class="dots"><desc class="label">89 wickets in 134 innings (848.3 overs)</desc><circle class="dot reactive tooltip-trigger" cx="14.192307692307692" cy="207.90266916617864" r="2.5"/><desc class="value">46.37</desc><desc class="x ">14.192307692307692</desc><desc class="y ">207.90266916617864</desc><desc class="x_label">2001</desc></g><g class="dots"><desc class="label">64 wickets in 110 innings (695.4 overs)</desc><circle class="dot reactive tooltip-trigger" cx="142.24320416425678" cy="175.9054382209896" r="2.5"/><desc class="value">52.42</desc><desc class="x ">142.24320416425678</desc><desc class="y ">175.9054382209896</desc><desc class="x_label">2002</desc></g><g class="dots"><desc class="label">63 wickets in 106 innings (673.3 overs)</desc><circle class="dot reactive tooltip-trigger" cx="163.58502024291494" cy="180.87690881412647" r="2.5"/><desc class="value">51.48</desc><desc class="x ">163.58502024291494</desc><desc class="y ">180.87690881412647</desc><desc class="x_label">2003</desc></g><g class="dots"><desc class="label">55 wickets in 95 innings (598.3 overs)</desc><circle class="dot reactive tooltip-trigger" cx="222.27501445922496" cy="175.42944635568932" r="2.5"/><desc class="value">52.51</desc><desc class="x ">222.27501445922496</desc><desc class="y ">175.42944635568932</desc><desc class="x_label">2005</desc></g><g class="dots"><desc class="label">54 wickets in 91 innings (567.3 overs)</desc><circle class="dot reactive tooltip-trigger" cx="243.61683053788315" cy="187.43501895826432" r="2.5"/><desc class="value">50.24</desc><desc class="x ">243.61683053788315</desc><desc class="y ">187.43501895826432</desc><desc class="x_label">2006</desc></g><g class="dots"><desc class="label">38 wickets in 70 innings (429.2 overs)</desc><circle class="dot reactive tooltip-trigger" cx="355.6613649508386" cy="160.8852504715125" r="2.5"/><desc class="value">55.26</desc><desc class="x ">355.6613649508386</desc><desc class="y ">160.8852504715125</desc><desc class="x_label">2007</desc></g><g class="dots"><desc class="label">34 wickets in 61 innings (357.2 overs)</desc><circle class="dot reactive tooltip-trigger" cx="403.68045112781954" cy="180.92979679915982" r="2.5"/><desc class="value">51.47</desc><desc class="x left">403.68045112781954</desc><desc class="y left">180.92979679915982</desc><desc class="x_label">2008</desc></g><g class="dots"><desc class="label">32 wickets in 58 innings (335.2 overs)</desc><circle class="dot reactive tooltip-trigger" cx="419.6868131868132" cy="178.4440615025914" r="2.5"/><desc class="value">51.94</desc><desc class="x left">419.6868131868132</desc><desc class="y left">178.4440615025914</desc><desc class="x_label">2011</desc></g><g class="dots"><desc class="label">26 wickets in 50 innings (265.2 overs)</desc><circle class="dot reactive tooltip-trigger" cx="462.3704453441295" cy="180.34802896379273" r="2.5"/><desc class="value">51.58</desc><desc class="x left">462.3704453441295</desc><desc class="y left">180.34802896379273</desc><desc class="x_label">2012</desc></g><g class="dots"><desc class="label">15 wickets in 34 innings (168.2 overs)</desc><circle class="dot reactive tooltip-trigger" cx="547.7377096587622" cy="145.33618287170157" r="2.5"/><desc class="value">58.2</desc><desc class="x left">547.7377096587622</desc><desc class="y left">145.33618287170157</desc><desc class="x_label">2013</desc></g><g class="dots"><desc class="label">9 wickets in 22 innings (108.2 overs)</desc><circle class="dot reactive tooltip-trigger" cx="611.7631578947369" cy="102.92001887493859" r="2.5"/><desc class="value">66.22</desc><desc class="x left">611.7631578947369</desc><desc class="y left">102.92001887493859</desc><desc class="x_label">2014</desc></g><g class="dots"><desc class="label">7 wickets in 17 innings (78.2 overs)</desc><circle class="dot reactive tooltip-trigger" cx="638.4404279930595" cy="110.90610461497755" r="2.5"/><desc class="value">64.71</desc><desc class="x left">638.4404279930595</desc><desc class="y left">110.90610461497755</desc><desc class="x_label">2015</desc></g><g class="dots"><desc class="label">4 wickets in 8 innings (31.4 overs)</desc><circle class="dot reactive tooltip-trigger" cx="686.4595141700404" cy="195.31532872823652" r="2.5"/><desc class="value">48.75</desc><desc class="x left">686.4595141700404</desc><desc class="y left">195.31532872823652</desc><desc class="x_label">2017</desc></g><g class="dots"><desc class="label">4 wickets in 7 innings (27.4 overs)</desc><circle class="dot reactive tooltip-trigger" cx="691.7949681897051" cy="249.52551338744104" r="2.5"/><desc class="value">38.5</desc><desc class="x left top">691.7949681897051</desc><desc class="y left top">249.52551338744104</desc><desc class="x_label">2018</desc></g></g><g class="series serie-1 color-1"><g class="dots"><desc class="label">0 wickets over 0 innings</desc><circle class="dot reactive tooltip-trigger" cx="14.192307692307692" cy="453.1442557659166" r="2.5"/><desc class="value">0</desc><desc class="x top">14.192307692307692</desc><desc class="y top">453.1442557659166</desc><desc class="x_label">2001</desc></g><g class="dots"><desc class="label">25 wickets in 24 innings (152.5 overs)</desc><circle class="dot reactive tooltip-trigger" cx="142.24320416425678" cy="289.8261579828692" r="2.5"/><desc class="value">30.88</desc><desc class="x top">142.24320416425678</desc><desc class="y top">289.8261579828692</desc><desc class="x_label">2002</desc></g><g class="dots"><desc class="label">26 wickets in 28 innings (175.0 overs)</desc><circle class="dot reactive tooltip-trigger" cx="163.58502024291494" cy="273.3251066524577" r="2.5"/><desc class="value">34</desc><desc class="x top">163.58502024291494</desc><desc class="y top">273.3251066524577</desc><desc class="x_label">2003</desc></g><g class="dots"><desc class="label">34 wickets in 39 innings (250.0 overs)</desc><circle class="dot reactive tooltip-trigger" cx="222.27501445922496" cy="260.4204383043153" r="2.5"/><desc class="value">36.44</desc><desc class="x top">222.27501445922496</desc><desc class="y top">260.4204383043153</desc><desc class="x_label">2005</desc></g><g class="dots"><desc class="label">35 wickets in 43 innings (281.0 overs)</desc><circle class="dot reactive tooltip-trigger" cx="243.61683053788315" cy="239.47679623110068" r="2.5"/><desc class="value">40.4</desc><desc class="x top">243.61683053788315</desc><desc class="y top">239.47679623110068</desc><desc class="x_label">2006</desc></g><g class="dots"><desc class="label">51 wickets in 64 innings (419.1 overs)</desc><circle class="dot reactive tooltip-trigger" cx="355.6613649508386" cy="242.9145152582698" r="2.5"/><desc class="value">39.75</desc><desc class="x top">355.6613649508386</desc><desc class="y top">242.9145152582698</desc><desc class="x_label">2007</desc></g><g class="dots"><desc class="label">55 wickets in 73 innings (491.1 overs)</desc><circle class="dot reactive tooltip-trigger" cx="403.68045112781954" cy="224.56238445169026" r="2.5"/><desc class="value">43.22</desc><desc class="x left">403.68045112781954</desc><desc class="y left">224.56238445169026</desc><desc class="x_label">2008</desc></g><g class="dots"><desc class="label">57 wickets in 76 innings (513.1 overs)</desc><circle class="dot reactive tooltip-trigger" cx="419.6868131868132" cy="224.40372049659018" r="2.5"/><desc class="value">43.25</desc><desc class="x left">419.6868131868132</desc><desc class="y left">224.40372049659018</desc><desc class="x_label">2011</desc></g><g class="dots"><desc class="label">63 wickets in 84 innings (583.1 overs)</desc><circle class="dot reactive tooltip-trigger" cx="462.3704453441295" cy="219.2735859483533" r="2.5"/><desc class="value">44.22</desc><desc class="x left">462.3704453441295</desc><desc class="y left">219.2735859483533</desc><desc class="x_label">2012</desc></g><g class="dots"><desc class="label">74 wickets in 100 innings (680.1 overs)</desc><circle class="dot reactive tooltip-trigger" cx="547.7377096587622" cy="220.59578557418752" r="2.5"/><desc class="value">43.97</desc><desc class="x left">547.7377096587622</desc><desc class="y left">220.59578557418752</desc><desc class="x_label">2013</desc></g><g class="dots"><desc class="label">80 wickets in 112 innings (740.1 overs)</desc><circle class="dot reactive tooltip-trigger" cx="611.7631578947369" cy="219.6966898286202" r="2.5"/><desc class="value">44.14</desc><desc class="x left">611.7631578947369</desc><desc class="y left">219.6966898286202</desc><desc class="x_label">2014</desc></g><g class="dots"><desc class="label">82 wickets in 117 innings (770.1 overs)</desc><circle class="dot reactive tooltip-trigger" cx="638.4404279930595" cy="216.2060828164178" r="2.5"/><desc class="value">44.8</desc><desc class="x left">638.4404279930595</desc><desc class="y left">216.2060828164178</desc><desc class="x_label">2015</desc></g><g class="dots"><desc class="label">85 wickets in 126 innings (816.5 overs)</desc><circle class="dot reactive tooltip-trigger" cx="686.4595141700404" cy="208.48443700154576" r="2.5"/><desc class="value">46.26</desc><desc class="x left">686.4595141700404</desc><desc class="y left">208.48443700154576</desc><desc class="x_label">2017</desc></g><g class="dots"><desc class="label">85 wickets in 127 innings (820.5 overs)</desc><circle class="dot reactive tooltip-trigger" cx="691.7949681897051" cy="205.94581371994394" r="2.5"/><desc class="value">46.74</desc><desc class="x left">691.7949681897051</desc><desc class="y left">205.94581371994394</desc><desc class="x_label">2018</desc></g></g><g class="series serie-2 color-2"/></g><g class="plot text-overlay" transform="translate(42, 46)"><g class="series serie-0 color-0"/><g class="series serie-1 color-1"/><g class="series serie-2 color-2"/></g><g class="plot tooltip-overlay" transform="translate(42, 46)"><g class="tooltip" style="opacity: 0" transform="translate(0 0)"><rect class="tooltip-box" height="0" rx="10" ry="10" width="0"/><g class="text"/></g></g><g class="legends" transform="translate(52, 545)"><g class="legend reactive activate-serie" id="activate-serie-0"><rect class="color-0 reactive" height="12" width="12" x="0.0" y="1.0"/><text x="17.0" y="11.2">Future Average</text></g><g class="legend reactive activate-serie" id="activate-serie-1"><rect class="color-1 reactive" height="12" width="12" x="369.0" y="1.0"/><text x="386.0" y="11.2">Past Average</text></g><g class="legend reactive activate-serie" id="activate-serie-2"><rect class="color-2 reactive" height="12" width="12" x="0.0" y="22.0"/><text x="17.0" y="32.2">Career Average</text></g></g></g></svg>