<?xml version='1.0' encoding='utf-8'?>
<svg xmlns:xlink="http://www.w3.org/1999/xlink" xmlns="http://www.w3.org/2000/svg" id="chart-8b2b0d23-2039-4db6-8428-14755d1cb726" class="pygal-chart" viewBox="0 0 800 600"><!--Generated with pygal 2.4.0 (lxml) ©Kozea 2012-2016 on 2019-08-04--><!--http://pygal.org--><!--http://github.com/Kozea/pygal--><defs><style type="text/css">#chart-8b2b0d23-2039-4db6-8428-14755d1cb726{-webkit-user-select:none;-webkit-font-smoothing:antialiased;font-family:Consolas,"Liberation Mono",Menlo,Courier,monospace}#chart-8b2b0d23-2039-4db6-8428-14755d1cb726 .title{font-family:Consolas,"Liberation Mono",Menlo,Courier,monospace;font-size:16px}#chart-8b2b0d23-2039-4db6-8428-14755d1cb726 .legends .legend text{font-family:Consolas,"Liberation Mono",Menlo,Courier,monospace;font-size:14px}#chart-8b2b0d23-2039-4db6-8428-14755d1cb726 .axis text{font-family:Consolas,"Liberation Mono",Menlo,Courier,monospace;font-size:10px}#chart-8b2b0d23-2039-4db6-8428-14755d1cb726 .axis text.major{font-family:Consolas,"Liberation Mono",Menlo,Courier,monospace;font-size:10px}#chart-8b2b0d23-2039-4db6-8428-14755d1cb726 .text-overlay text.value{font-family:Consolas,"Liberation Mono",Menlo,Courier,monospace;font-size:16px}#chart-8b2b0d23-2039-4db6-8428-14755d1cb726 .text-overlay text.label{font-family:Consolas,"Liberation Mono",Menlo,Courier,monospace;font-size:10px}#chart-8b2b0d23-2039-4db6-8428-14755d1cb726 .tooltip{font-family:Consolas,"Liberation Mono",Menlo,Courier,monospace;font-size:14px}#chart-8b2b0d23-2039-4db6-8428-14755d1cb726 text.no_data{font-family:Consolas,"Liberation Mono",Menlo,Courier,monospace;font-size:64px}
#chart-8b2b0d23-2039-4db6-8428-14755d1cb726{background-color:rgba(249,249,249,1)}#chart-8b2b0d23-2039-4db6-8428-14755d1cb726 path,#chart-8b2b0d23-2039-4db6-8428-14755d1cb726 line,#chart-8b2b0d23-2039-4db6-8428-14755d1cb726 rect,#chart-8b2b0d23-2039-4db6-8428-14755d1cb726 circle{-webkit-transition:150ms;-moz-transition:150ms;transition:150ms}#chart-8b2b0d23-2039-4db6-8428-14755d1cb726 .graph &gt; .background{fill:rgba(249,249,249,1)}#chart-8b2b0d23-2039-4db6-8428-14755d1cb726 .plot &gt; .background{fill:rgba(255,255,255,1)}#chart-8b2b0d23-2039-4db6-8428-14755d1cb726 .graph{fill:rgba(0,0,0,.87)}#chart-8b2b0d23-2039-4db6-8428-14755d1cb726 text.no_data{fill:rgba(0,0,0,1)}#chart-8b2b0d23-2039-4db6-8428-14755d1cb726 .title{fill:rgba(0,0,0,1)}#chart-8b2b0d23-2039-4db6-8428-14755d1cb726 .legends .legend text{fill:rgba(0,0,0,.87)}#chart-8b2b0d23-2039-4db6-8428-14755d1cb726 .legends .legend:hover text{fill:rgba(0,0,0,1)}#chart-8b2b0d23-2039-4db6-8428-14755d1cb726 .axis .line{stroke:rgba(0,0,0,1)}#chart-8b2b0d23-2039-4db6-8428-14755d1cb726 .axis .guide.line{stroke:rgba(0,0,0,.54)}#chart-8b2b0d23-2039-4db6-8428-14755d1cb726 .axis .major.line{stroke:rgba(0,0,0,.87)}#chart-8b2b0d23-2039-4db6-8428-14755d1cb726 .axis text.major{fill:rgba(0,0,0,1)}#chart-8b2b0d23-2039-4db6-8428-14755d1cb726 .axis.y .guides:hover .guide.line,#chart-8b2b0d23-2039-4db6-8428-14755d1cb726 .line-graph .axis.x .guides:hover .guide.line,#chart-8b2b0d23-2039-4db6-8428-14755d1cb726 .stackedline-graph .axis.x .guides:hover .guide.line,#chart-8b2b0d23-2039-4db6-8428-14755d1cb726 .xy-graph .axis.x .guides:hover .guide.line{stroke:rgba(0,0,0,1)}#chart-8b2b0d23-2039-4db6-8428-14755d1cb726 .axis .guides:hover text{fill:rgba(0,0,0,1)}#chart-8b2b0d23-2039-4db6-8428-14755d1cb726 .reactive{fill-opacity:.7;stroke-opacity:.8}#chart-8b2b0d23-2039-4db6-8428-14755d1cb726 .ci{stroke:rgba(0,0,0,.87)}#chart-8b2b0d23-2039-4db6-8428-14755d1cb726 .reactive.active,#chart-8b2b0d23-2039-4db6-8428-14755d1cb726 .active .reactive{fill-opacity:.8;stroke-opacity:.9;stroke-width:4}#chart-8b2b0d23-2039-4db6-8428-14755d1cb726 .ci .reactive.active{stroke-width:1.5}#chart-8b2b0d23-2039-4db6-8428-14755d1cb726 .series text{fill:rgba(0,0,0,1)}#chart-8b2b0d23-2039-4db6-8428-14755d1cb726 .tooltip rect{fill:rgba(255,255,255,1);stroke:rgba(0,0,0,1);-webkit-transition:opacity 150ms;-moz-transition:opacity 150ms;transition:opacity 150ms}#chart-8b2b0d23-2039-4db6-8428-14755d1cb726 .tooltip .label{fill:rgba(0,0,0,.87)}#chart-8b2b0d23-2039-4db6-8428-14755d1cb726 .tooltip .label{fill:rgba(0,0,0,.87)}#chart-8b2b0d23-2039-4db6-8428-14755d1cb726 .tooltip .legend{font-size:.8em;fill:rgba(0,0,0,.54)}#chart-8b2b0d23-2039-4db6-8428-14755d1cb726 .tooltip .x_label{font-size:.6em;fill:rgba(0,0,0,1)}#chart-8b2b0d23-2039-4db6-8428-14755d1cb726 .tooltip .xlink{font-size:.5em;text-decoration:underline}#chart-8b2b0d23-2039-4db6-8428-14755d1cb726 .tooltip .value{font-size:1.5em}#chart-8b2b0d23-2039-4db6-8428-14755d1cb726 .bound{font-size:.5em}#chart-8b2b0d23-2039-4db6-8428-14755d1cb726 .max-value{font-size:.75em;fill:rgba(0,0,0,.54)}#chart-8b2b0d23-2039-4db6-8428-14755d1cb726 .map-element{fill:rgba(255,255,255,1);stroke:rgba(0,0,0,.54) !important}#chart-8b2b0d23-2039-4db6-8428-14755d1cb726 .map-element .reactive{fill-opacity:inherit;stroke-opacity:inherit}#chart-8b2b0d23-2039-4db6-8428-14755d1cb726 .color-0,#chart-8b2b0d23-2039-4db6-8428-14755d1cb726 .color-0 a:visited{stroke:red;fill:red}#chart-8b2b0d23-2039-4db6-8428-14755d1cb726 .color-1,#chart-8b2b0d23-2039-4db6-8428-14755d1cb726 .color-1 a:visited{stroke:blue;fill:blue}#chart-8b2b0d23-2039-4db6-8428-14755d1cb726 .color-2,#chart-8b2b0d23-2039-4db6-8428-14755d1cb726 .color-2 a:visited{stroke:green;fill:green}#chart-8b2b0d23-2039-4db6-8428-14755d1cb726 .text-overlay .color-0 text{fill:white}#chart-8b2b0d23-2039-4db6-8428-14755d1cb726 .text-overlay .color-1 text{fill:white}#chart-8b2b0d23-2039-4db6-8428-14755d1cb726 .text-overlay .color-2 text{fill:white}
#chart-8b2b0d23-2039-4db6-8428-14755d1cb726 text.no_data{text-anchor:middle}#chart-8b2b0d23-2039-4db6-8428-14755d1cb726 .guide.line{fill:none}#chart-8b2b0d23-2039-4db6-8428-14755d1cb726 .centered{text-anchor:middle}#chart-8b2b0d23-2039-4db6-8428-14755d1cb726 .title{text-anchor:middle}#chart-8b2b0d23-2039-4db6-8428-14755d1cb726 .legends .legend text{fill-opacity:1}#chart-8b2b0d23-2039-4db6-8428-14755d1cb726 .axis.x text{text-anchor:middle}#chart-8b2b0d23-2039-4db6-8428-14755d1cb726 .axis.x:not(.web) text[transform]{text-anchor:start}#chart-8b2b0d23-2039-4db6-8428-14755d1cb726 .axis.x:not(.web) text[transform].backwards{text-anchor:end}#chart-8b2b0d23-2039-4db6-8428-14755d1cb726 .axis.y text{text-anchor:end}#chart-8b2b0d23-2039-4db6-8428-14755d1cb726 .axis.y text[transform].backwards{text-anchor:start}#chart-8b2b0d23-2039-4db6-8428-14755d1cb726 .axis.y2 text{text-anchor:start}#chart-8b2b0d23-2039-4db6-8428-14755d1cb726 .axis.y2 text[transform].backwards{text-anchor:end}#chart-8b2b0d23-2039-4db6-8428-14755d1cb726 .axis .guide.line{stroke-dasharray:4,4}#chart-8b2b0d23-2039-4db6-8428-14755d1cb726 .axis .major.guide.line{stroke-dasharray:6,6}#chart-8b2b0d23-2039-4db6-8428-14755d1cb726 .horizontal .axis.y .guide.line,#chart-8b2b0d23-2039-4db6-8428-14755d1cb726 .horizontal .axis.y2 .guide.line,#chart-8b2b0d23-2039-4db6-8428-14755d1cb726 .vertical .axis.x .guide.line{opacity:0}#chart-8b2b0d23-2039-4db6-8428-14755d1cb726 .horizontal .axis.always_show .guide.line,#chart-8b2b0d23-2039-4db6-8428-14755d1cb726 .vertical .axis.always_show .guide.line{opacity:1 !important}#chart-8b2b0d23-2039-4db6-8428-14755d1cb726 .axis.y .guides:hover .guide.line,#chart-8b2b0d23-2039-4db6-8428-14755d1cb726 .axis.y2 .guides:hover .guide.line,#chart-8b2b0d23-2039-4db6-8428-14755d1cb726 .axis.x .guides:hover .guide.line{opacity:1}#chart-8b2b0d23-2039-4db6-8428-14755d1cb726 .axis .guides:hover text{opacity:1}#chart-8b2b0d23-2039-4db6-8428-14755d1cb726 .nofill{fill:none}#chart-8b2b0d23-2039-4db6-8428-14755d1cb726 .subtle-fill{fill-opacity:.2}#chart-8b2b0d23-2039-4db6-8428-14755d1cb726 .dot{stroke-width:1px;fill-opacity:1}#chart-8b2b0d23-2039-4db6-8428-14755d1cb726 .dot.active{stroke-width:5px}#chart-8b2b0d23-2039-4db6-8428-14755d1cb726 .dot.negative{fill:transparent}#chart-8b2b0d23-2039-4db6-8428-14755d1cb726 text,#chart-8b2b0d23-2039-4db6-8428-14755d1cb726 tspan{stroke:none !important}#chart-8b2b0d23-2039-4db6-8428-14755d1cb726 .series text.active{opacity:1}#chart-8b2b0d23-2039-4db6-8428-14755d1cb726 .tooltip rect{fill-opacity:.95;stroke-width:.5}#chart-8b2b0d23-2039-4db6-8428-14755d1cb726 .tooltip text{fill-opacity:1}#chart-8b2b0d23-2039-4db6-8428-14755d1cb726 .showable{visibility:hidden}#chart-8b2b0d23-2039-4db6-8428-14755d1cb726 .showable.shown{visibility:visible}#chart-8b2b0d23-2039-4db6-8428-14755d1cb726 .gauge-background{fill:rgba(229,229,229,1);stroke:none}#chart-8b2b0d23-2039-4db6-8428-14755d1cb726 .bg-lines{stroke:rgba(249,249,249,1);stroke-width:2px}</style><script type="text/javascript">window.pygal = window.pygal || {};window.pygal.config = window.pygal.config || {};window.pygal.config['8b2b0d23-2039-4db6-8428-14755d1cb726'] = {"allow_interruptions": false, "box_mode": "extremes", "classes": ["pygal-chart"], "css": ["file://style.css", "file://graph.css"], "defs": [], "disable_xml_declaration": false, "dots_size": 2.5, "dynamic_print_values": false, "explicit_size": false, "fill": false, "force_uri_protocol": "https", "formatter": null, "half_pie": false, "height": 600, "include_x_axis": false, "inner_radius": 0, "interpolate": null, "interpolation_parameters": {}, "interpolation_precision": 250, "inverse_y_axis": false, "js": ["//kozea.github.io/pygal.js/2.0.x/pygal-tooltips.min.js"], "legend_at_bottom": true, "legend_at_bottom_columns": null, "legend_box_size": 12, "logarithmic": false, "margin": 20, "margin_bottom": null, "margin_left": null, "margin_right": null, "margin_top": null, "max_scale": 16, "min_scale": 4, "missing_value_fill_truncation": "x", "no_data_text": "No data", "no_prefix": false, "order_min": null, "pretty_print": false, "print_labels": false, "print_values": false, "print_values_position": "center", "print_zeroes": true, "range": null, "rounded_bars": null, "secondary_range": null, "show_dots": true, "show_legend": true, "show_minor_x_labels": false, "show_minor_y_labels": true, "show_only_major_dots": false, "show_x_guides": false, "show_x_labels": true, "show_y_guides": true, "show_y_labels": true, "spacing": 10, "stack_from_top": false, "strict": false, "stroke": true, "stroke_style": null, "style": {"background": "rgba(249, 249, 249, 1)", "ci_colors": [], "colors": ["red", "blue", "green", "#a3a3a3"], "font_family": "Consolas, \"Liberation Mono\", Menlo, Courier, monospace", "foreground": "rgba(0, 0, 0, .87)", "foreground_strong": "rgba(0, 0, 0, 1)", "foreground_subtle": "rgba(0, 0, 0, .54)", "guide_stroke_dasharray": "4,4", "label_font_family": "Consolas, \"Liberation Mono\", Menlo, Courier, monospace", "label_font_size": 10, "legend_font_family": "Consolas, \"Liberation Mono\", Menlo, Courier, monospace", "legend_font_size": 14, "major_guide_stroke_dasharray": "6,6", "major_label_font_family": "Consolas, \"Liberation Mono\", Menlo, Courier, monospace", "major_label_font_size": 10, "no_data_font_family": "Consolas, \"Liberation Mono\", Menlo, Courier, monospace", "no_data_font_size": 64, "opacity": ".7", "opacity_hover": ".8", "plot_background": "rgba(255, 255, 255, 1)", "stroke_opacity": ".8", "stroke_opacity_hover": ".9", "title_font_family": "Consolas, \"Liberation Mono\", Menlo, Courier, monospace", "title_font_size": 16, "tooltip_font_family": "Consolas, \"Liberation Mono\", Menlo, Courier, monospace", "tooltip_font_size": 14, "transition": "150ms", "value_background": "rgba(229, 229, 229, 1)", "value_colors": [], "value_font_family": "Consolas, \"Liberation Mono\", Menlo, Courier, monospace", "value_font_size": 16, "value_label_font_family": "Consolas, \"Liberation Mono\", Menlo, Courier, monospace", "value_label_font_size": 10}, "title": "Mohammad Nabi: Future and Past Averages in ODIs", "tooltip_border_radius": 10, "tooltip_fancy_mode": true, "truncate_label": null, "truncate_legend": null, "width": 800, "x_label_rotation": 45, "x_labels": ["2009", "0", "0", "2010", "0", "0", "0", "0", "0", "0", "0", "0", "0", "0", "0", "2011", "0", "2012", "0", "0", "0", "0", "2013", "0", "0", "0", "2014", "0", "0", "0", "0", "0", "0", "0", "0", "0", "0", "0", "0", "0", "2015", "0", "0", "0", "0", "0", "0", "0", "0", "0", "0", "0", "0", "0", "0", "0", "0", "2016", "0", "0", "0", "0", "0", "0", "0", "0", "0", "0", "2017", "0", "0", "0", "0", "0", "0", "0", "0", "0", "0", "0", "0", "0", "0", "2018", "0", "0", "0", "0", "0", "0", "0", "0", "0", "0", "0", "0", "0", "0", "0", "0", "0", "0", "0", "2019", "0", "0", "0", "0", "0", "0", "0", "0", "0", "0", "0", "0", "0"], "x_labels_major": ["2009", "2010", "2011", "2012", "2013", "2014", "2015", "2016", "2017", "2018", "2019"], "x_labels_major_count": null, "x_labels_major_every": null, "x_title": null, "xrange": null, "y_label_rotation": 0, "y_labels": null, "y_labels_major": null, "y_labels_major_count": null, "y_labels_major_every": null, "y_title": null, "zero": 100.0, "legends": ["Future Average", "Past Average", "Career Average"]}</script><script type="text/javascript" xlink:href="https://kozea.github.io/pygal.js/2.0.x/pygal-tooltips.min.js"/></defs><title>Mohammad Nabi: Future and Past Averages in ODIs</title><g class="graph line-graph vertical"><rect class="background" height="600" width="800" x="0" y="0"/><g class="plot" transform="translate(42, 46)"><rect class="background" height="462.02943725152284" width="738.0" x="0" y="0"/><g class="axis y always_show"><g class="guides"><path class="axis major line" d="M0.000000 453.144256 h738.000000"/><text class="major" x="-5" y="456.6442557659166">0</text><title>0</title></g><g class="guides"><path class="guide line" d="M0.000000 405.374463 h738.000000"/><text class="" x="-5" y="408.8744628325499">10</text><title>10</title></g><g class="guides"><path class="guide line" d="M0.000000 357.604670 h738.000000"/><text class="" x="-5" y="361.1046698991832">20</text><title>20</title></g><g class="guides"><path class="guide line" d="M0.000000 309.834877 h738.000000"/><text class="" x="-5" y="313.33487696581653">30</text><title>30</title></g><g class="guides"><path class="guide line" d="M0.000000 262.065084 h738.000000"/><text class="" x="-5" y="265.5650840324498">40</text><title>40</title></g><g class="guides"><path class="major guide line" d="M0.000000 214.295291 h738.000000"/><text class="major" x="-5" y="217.79529109908307">50</text><title>50</title></g><g class="guides"><path class="guide line" d="M0.000000 166.525498 h738.000000"/><text class="" x="-5" y="170.02549816571633">60</text><title>60</title></g><g class="guides"><path class="guide line" d="M0.000000 118.755705 h738.000000"/><text class="" x="-5" y="122.25570523234967">70</text><title>70</title></g><g class="guides"><path class="guide line" d="M0.000000 70.985912 h738.000000"/><text class="" x="-5" y="74.48591229898295">80</text><title>80</title></g><g class="guides"><path class="guide line" d="M0.000000 23.216119 h738.000000"/><text class="" x="-5" y="26.716119365616237">90</text><title>90</title></g></g><g class="axis x"><g class="guides"><path class="major line" d="M14.192308 0.000000 v462.029437"/><text class="major" x="14.192307692307692" y="477.02943725152284" transform="rotate(45 14.192308 477.029437)">2009</text></g><g class="guides"><path class="major guide line" d="M32.544430 0.000000 v462.029437"/><text class="major" x="32.544429708222815" y="477.02943725152284" transform="rotate(45 32.544430 477.029437)">2010</text></g><g class="guides"><path class="major guide line" d="M105.952918 0.000000 v462.029437"/><text class="major" x="105.95291777188329" y="477.02943725152284" transform="rotate(45 105.952918 477.029437)">2011</text></g><g class="guides"><path class="major guide line" d="M118.187666 0.000000 v462.029437"/><text class="major" x="118.18766578249335" y="477.02943725152284" transform="rotate(45 118.187666 477.029437)">2012</text></g><g class="guides"><path class="major guide line" d="M148.774536 0.000000 v462.029437"/><text class="major" x="148.77453580901854" y="477.02943725152284" transform="rotate(45 148.774536 477.029437)">2013</text></g><g class="guides"><path class="major guide line" d="M173.244032 0.000000 v462.029437"/><text class="major" x="173.24403183023873" y="477.02943725152284" transform="rotate(45 173.244032 477.029437)">2014</text></g><g class="guides"><path class="major guide line" d="M258.887268 0.000000 v462.029437"/><text class="major" x="258.8872679045093" y="477.02943725152284" transform="rotate(45 258.887268 477.029437)">2015</text></g><g class="guides"><path class="major guide line" d="M362.882626 0.000000 v462.029437"/><text class="major" x="362.88262599469493" y="477.02943725152284" transform="rotate(45 362.882626 477.029437)">2016</text></g><g class="guides"><path class="major guide line" d="M430.173740 0.000000 v462.029437"/><text class="major" x="430.1737400530503" y="477.02943725152284" transform="rotate(45 430.173740 477.029437)">2017</text></g><g class="guides"><path class="major guide line" d="M521.934350 0.000000 v462.029437"/><text class="major" x="521.9343501326259" y="477.02943725152284" transform="rotate(45 521.934350 477.029437)">2018</text></g><g class="guides"><path class="major guide line" d="M644.281830 0.000000 v462.029437"/><text class="major" x="644.2818302387268" y="477.02943725152284" transform="rotate(45 644.281830 477.029437)">2019</text></g></g><g class="series serie-0 color-0"><path class="line reactive nofill" d="M14.192308 300.042069 L20.309682 301.570703 26.427056 302.430559 32.544430 303.481495 38.661804 302.812717 44.779178 301.284084 50.896552 303.147106 57.013926 304.054732 63.131300 305.965524 69.248674 306.395452 75.366048 305.201207 81.483422 305.631135 87.600796 306.586531 93.718170 307.828546 99.835544 307.207538 105.952918 308.497323 112.070292 304.771279 118.187666 304.150272 124.305040 305.344516 130.422414 306.920920 136.539788 306.347682 142.657162 306.204373 148.774536 305.726675 154.891910 306.634301 161.009284 306.252142 167.126658 306.682071 173.244032 304.341351 179.361406 306.443222 185.478780 304.150272 191.596154 305.248977 197.713528 305.201207 203.830902 303.911423 209.948276 303.290415 216.065650 303.720343 222.183024 305.774445 228.300398 307.064229 234.417772 306.252142 240.535146 305.201207 246.652520 305.440056 252.769894 307.828546 258.887268 307.876315 265.004642 308.688402 271.122016 307.541927 277.239390 310.312575 283.356764 309.787107 289.474138 311.363510 295.591512 312.939914 301.708886 313.417611 307.826260 318.194591 313.943634 318.815598 320.061008 319.627685 326.178382 320.200922 332.295756 320.821929 338.413130 322.589412 344.530504 322.971570 350.647878 324.930132 356.765252 320.917469 362.882626 320.535311 369.000000 321.729555 375.117374 323.401498 381.234748 321.347397 387.352122 317.478044 393.469496 314.611856 399.586870 315.567252 405.704244 316.761497 411.821618 317.478044 417.938992 316.188259 424.056366 312.987683 430.173740 311.554590 436.291114 311.220201 442.408488 306.777610 448.525862 306.395452 454.643236 301.761782 460.760610 293.831996 466.877984 297.558040 472.995358 304.389121 479.112732 307.637466 485.230106 297.653580 491.347480 302.573868 497.464854 306.252142 503.582228 306.490991 509.699602 304.580200 515.816976 304.484660 521.934350 300.137609 528.051724 299.229983 534.169098 303.529264 540.286472 307.111999 546.403846 301.236314 552.521220 295.790558 558.638594 300.854156 564.755968 300.710847 570.873342 292.876600 576.990716 288.625089 583.108090 288.338470 589.225464 290.918039 595.342838 297.987968 601.460212 293.210989 607.577586 286.618758 613.694960 275.631705 619.812334 263.211559 625.929708 258.482350 632.047082 273.434295 638.164456 286.523218 644.281830 276.396022 650.399204 281.889548 656.516578 285.567822 662.633952 278.115734 668.751326 283.083793 674.868700 293.115449 680.986074 308.401783 687.103448 235.791698 693.220822 250.122636 699.338196 273.195446 705.455570 328.942794 711.572944 306.252142 717.690318 327.366391 723.807692 185.633415"/></g><g class="series serie-1 color-1"><path class="line reactive nofill" d="M14.192308 453.144256 L20.309682 257.288105 26.427056 142.640602 32.544430 8.885181 38.661804 123.532685 44.779178 260.870839 50.896552 203.547088 57.013926 200.919749 63.131300 154.105352 69.248674 142.640602 75.366048 210.187089 81.483422 215.489536 87.600796 201.779605 93.718170 182.671688 99.835544 205.266800 105.952918 187.735286 112.070292 258.004652 118.187666 266.507675 124.305040 256.619328 130.422414 243.960333 136.539788 255.807241 142.657162 259.533285 148.774536 267.367531 154.891910 262.065084 161.009284 268.227387 167.126658 266.173286 173.244032 280.360915 179.361406 270.806956 185.478780 283.752570 191.596154 279.501058 197.713528 280.647533 203.830902 286.762067 209.948276 289.293866 216.065650 288.434010 222.183024 281.937318 228.300398 278.927821 234.417772 282.032857 240.535146 286.236599 246.652520 286.236599 252.769894 280.122066 258.887268 281.411850 265.004642 280.169836 271.122016 284.086959 277.239390 278.163504 283.356764 280.026526 289.474138 277.638037 295.591512 274.485230 301.708886 274.437460 307.826260 265.313430 313.943634 265.361200 320.061008 263.880336 326.178382 262.829401 332.295756 262.877171 338.413130 259.772134 344.530504 260.440911 350.647878 257.097026 356.765252 267.415301 362.882626 270.042639 369.000000 269.278323 375.117374 266.937603 381.234748 271.714582 387.352122 278.927821 393.469496 283.991419 399.586870 283.465951 405.704244 282.176167 411.821618 281.985088 417.938992 284.325808 424.056366 288.242931 430.173740 290.153722 436.291114 290.726960 442.408488 294.930702 448.525862 295.360630 454.643236 298.847825 460.760610 303.863653 466.877984 301.570703 472.995358 297.319191 479.112732 295.456169 485.230106 301.236314 491.347480 298.704515 497.464854 296.745954 503.582228 296.745954 509.699602 297.796889 515.816976 297.987968 521.934350 299.946530 528.051724 300.328688 534.169098 298.608976 540.286472 297.128112 546.403846 299.564371 552.521220 301.475163 558.638594 299.707681 564.755968 299.803220 570.873342 302.096171 576.990716 303.051566 583.108090 303.003797 589.225464 302.239480 595.342838 300.519767 601.460212 301.522933 607.577586 302.669408 613.694960 304.245811 619.812334 305.678905 625.929708 305.965524 632.047082 303.815883 638.164456 301.952861 644.281830 302.908257 650.399204 302.048401 656.516578 301.522933 662.633952 302.096171 668.751326 301.475163 674.868700 300.615307 680.986074 299.325523 687.103448 303.194876 693.220822 302.478329 699.338196 301.331854 705.455570 298.608976 711.572944 299.803220 717.690318 299.373292 723.807692 300.901926"/></g><g class="series serie-2 color-2"><path class="line reactive nofill" d="M14.192308 300.042069 L20.309682 300.042069 26.427056 300.042069 32.544430 300.042069 38.661804 300.042069 44.779178 300.042069 50.896552 300.042069 57.013926 300.042069 63.131300 300.042069 69.248674 300.042069 75.366048 300.042069 81.483422 300.042069 87.600796 300.042069 93.718170 300.042069 99.835544 300.042069 105.952918 300.042069 112.070292 300.042069 118.187666 300.042069 124.305040 300.042069 130.422414 300.042069 136.539788 300.042069 142.657162 300.042069 148.774536 300.042069 154.891910 300.042069 161.009284 300.042069 167.126658 300.042069 173.244032 300.042069 179.361406 300.042069 185.478780 300.042069 191.596154 300.042069 197.713528 300.042069 203.830902 300.042069 209.948276 300.042069 216.065650 300.042069 222.183024 300.042069 228.300398 300.042069 234.417772 300.042069 240.535146 300.042069 246.652520 300.042069 252.769894 300.042069 258.887268 300.042069 265.004642 300.042069 271.122016 300.042069 277.239390 300.042069 283.356764 300.042069 289.474138 300.042069 295.591512 300.042069 301.708886 300.042069 307.826260 300.042069 313.943634 300.042069 320.061008 300.042069 326.178382 300.042069 332.295756 300.042069 338.413130 300.042069 344.530504 300.042069 350.647878 300.042069 356.765252 300.042069 362.882626 300.042069 369.000000 300.042069 375.117374 300.042069 381.234748 300.042069 387.352122 300.042069 393.469496 300.042069 399.586870 300.042069 405.704244 300.042069 411.821618 300.042069 417.938992 300.042069 424.056366 300.042069 430.173740 300.042069 436.291114 300.042069 442.408488 300.042069 448.525862 300.042069 454.643236 300.042069 460.760610 300.042069 466.877984 300.042069 472.995358 300.042069 479.112732 300.042069 485.230106 300.042069 491.347480 300.042069 497.464854 300.042069 503.582228 300.042069 509.699602 300.042069 515.816976 300.042069 521.934350 300.042069 528.051724 300.042069 534.169098 300.042069 540.286472 300.042069 546.403846 300.042069 552.521220 300.042069 558.638594 300.042069 564.755968 300.042069 570.873342 300.042069 576.990716 300.042069 583.108090 300.042069 589.225464 300.042069 595.342838 300.042069 601.460212 300.042069 607.577586 300.042069 613.694960 300.042069 619.812334 300.042069 625.929708 300.042069 632.047082 300.042069 638.164456 300.042069 644.281830 300.042069 650.399204 300.042069 656.516578 300.042069 662.633952 300.042069 668.751326 300.042069 674.868700 300.042069 680.986074 300.042069 687.103448 300.042069 693.220822 300.042069 699.338196 300.042069 705.455570 300.042069 711.572944 300.042069 717.690318 300.042069 723.807692 300.042069"/></g></g><g class="titles"><text class="title plot_title" x="400.0" y="26">Mohammad Nabi: Future and Past Averages in ODIs</text></g><g class="plot overlay" transform="translate(42, 46)"><g class="series serie-0 color-0"><g class="dots"><desc class="label">128 wickets in 117 innings (956.3 overs)</desc><circle class="dot reactive tooltip-trigger" cx="14.192307692307692" cy="300.0420694144763" r="2.5"/><desc class="value">32.05</desc><desc class="x top">14.192307692307692</desc><desc class="y top">300.0420694144763</desc><desc class="x_label">2009</desc></g><g class="dots"><desc class="label">128 wickets in 114 innings (931.3 overs)</desc><circle class="dot reactive tooltip-trigger" cx="32.544429708222815" cy="303.4814945056787" r="2.5"/><desc class="value">31.33</desc><desc class="x top">32.544429708222815</desc><desc class="y top">303.4814945056787</desc><desc class="x_label">2010</desc></g><g class="dots"><desc class="label">119 wickets in 102 innings (837.3 overs)</desc><circle class="dot reactive tooltip-trigger" cx="105.95291777188329" cy="308.4973227636822" r="2.5"/><desc class="value">30.28</desc><desc class="x top">105.95291777188329</desc><desc class="y top">308.4973227636822</desc><desc class="x_label">2011</desc></g><g class="dots"><desc class="label">114 wickets in 100 innings (823.4 overs)</desc><circle class="dot reactive tooltip-trigger" cx="118.18766578249335" cy="304.15027160674583" r="2.5"/><desc class="value">31.19</desc><desc class="x top">118.18766578249335</desc><desc class="y top">304.15027160674583</desc><desc class="x_label">2012</desc></g><g class="dots"><desc class="label">109 wickets in 95 innings (783.3 overs)</desc><circle class="dot reactive tooltip-trigger" cx="148.77453580901854" cy="305.72667477354696" r="2.5"/><desc class="value">30.86</desc><desc class="x top">148.77453580901854</desc><desc class="y top">305.72667477354696</desc><desc class="x_label">2013</desc></g><g class="dots"><desc class="label">105 wickets in 91 innings (754.0 overs)</desc><circle class="dot reactive tooltip-trigger" cx="173.24403183023873" cy="304.3413507784793" r="2.5"/><desc class="value">31.15</desc><desc class="x top">173.24403183023873</desc><desc class="y top">304.3413507784793</desc><desc class="x_label">2014</desc></g><g class="dots"><desc class="label">90 wickets in 77 innings (630.4 overs)</desc><circle class="dot reactive tooltip-trigger" cx="258.8872679045093" cy="307.8763154555484" r="2.5"/><desc class="value">30.41</desc><desc class="x top">258.8872679045093</desc><desc class="y top">307.8763154555484</desc><desc class="x_label">2015</desc></g><g class="dots"><desc class="label">76 wickets in 60 innings (498.0 overs)</desc><circle class="dot reactive tooltip-trigger" cx="362.88262599469493" cy="320.53531058289065" r="2.5"/><desc class="value">27.76</desc><desc class="x top">362.88262599469493</desc><desc class="y top">320.53531058289065</desc><desc class="x_label">2016</desc></g><g class="dots"><desc class="label">59 wickets in 49 innings (407.0 overs)</desc><circle class="dot reactive tooltip-trigger" cx="430.1737400530503" cy="311.5545895114177" r="2.5"/><desc class="value">29.64</desc><desc class="x left top">430.1737400530503</desc><desc class="y left top">311.5545895114177</desc><desc class="x_label">2017</desc></g><g class="dots"><desc class="label">38 wickets in 34 innings (284.5 overs)</desc><circle class="dot reactive tooltip-trigger" cx="521.9343501326259" cy="300.13760900034305" r="2.5"/><desc class="value">32.03</desc><desc class="x left top">521.9343501326259</desc><desc class="y left top">300.13760900034305</desc><desc class="x_label">2018</desc></g><g class="dots"><desc class="label">14 wickets in 14 innings (113.3 overs)</desc><circle class="dot reactive tooltip-trigger" cx="644.2818302387268" cy="276.3960219124598" r="2.5"/><desc class="value">37</desc><desc class="x left top">644.2818302387268</desc><desc class="y left top">276.3960219124598</desc><desc class="x_label">2019</desc></g></g><g class="series serie-1 color-1"><g class="dots"><desc class="label">0 wickets over 0 innings</desc><circle class="dot reactive tooltip-trigger" cx="14.192307692307692" cy="453.1442557659166" r="2.5"/><desc class="value">0</desc><desc class="x top">14.192307692307692</desc><desc class="y top">453.1442557659166</desc><desc class="x_label">2009</desc></g><g class="dots"><desc class="label">0 wickets in 3 innings (25.0 overs)</desc><circle class="dot reactive tooltip-trigger" cx="32.544429708222815" cy="8.88518148560621" r="2.5"/><desc class="value">93</desc><desc class="x ">32.544429708222815</desc><desc class="y ">8.88518148560621</desc><desc class="x_label">2010</desc></g><g class="dots"><desc class="label">9 wickets in 15 innings (119.0 overs)</desc><circle class="dot reactive tooltip-trigger" cx="105.95291777188329" cy="187.73528622813114" r="2.5"/><desc class="value">55.56</desc><desc class="x ">105.95291777188329</desc><desc class="y ">187.73528622813114</desc><desc class="x_label">2011</desc></g><g class="dots"><desc class="label">14 wickets in 17 innings (132.5 overs)</desc><circle class="dot reactive tooltip-trigger" cx="118.18766578249335" cy="266.5076747752529" r="2.5"/><desc class="value">39.07</desc><desc class="x top">118.18766578249335</desc><desc class="y top">266.5076747752529</desc><desc class="x_label">2012</desc></g><g class="dots"><desc class="label">19 wickets in 22 innings (173.0 overs)</desc><circle class="dot reactive tooltip-trigger" cx="148.77453580901854" cy="267.3675310480535" r="2.5"/><desc class="value">38.89</desc><desc class="x top">148.77453580901854</desc><desc class="y top">267.3675310480535</desc><desc class="x_label">2013</desc></g><g class="dots"><desc class="label">23 wickets in 26 innings (202.3 overs)</desc><circle class="dot reactive tooltip-trigger" cx="173.24403183023873" cy="280.3609147259292" r="2.5"/><desc class="value">36.17</desc><desc class="x top">173.24403183023873</desc><desc class="y top">280.3609147259292</desc><desc class="x_label">2014</desc></g><g class="dots"><desc class="label">38 wickets in 40 innings (325.5 overs)</desc><circle class="dot reactive tooltip-trigger" cx="258.8872679045093" cy="281.41185017046325" r="2.5"/><desc class="value">35.95</desc><desc class="x top">258.8872679045093</desc><desc class="y top">281.41185017046325</desc><desc class="x_label">2015</desc></g><g class="dots"><desc class="label">52 wickets in 57 innings (458.3 overs)</desc><circle class="dot reactive tooltip-trigger" cx="362.88262599469493" cy="270.0426394523221" r="2.5"/><desc class="value">38.33</desc><desc class="x top">362.88262599469493</desc><desc class="y top">270.0426394523221</desc><desc class="x_label">2016</desc></g><g class="dots"><desc class="label">69 wickets in 68 innings (549.3 overs)</desc><circle class="dot reactive tooltip-trigger" cx="430.1737400530503" cy="290.1537222772695" r="2.5"/><desc class="value">34.12</desc><desc class="x left top">430.1737400530503</desc><desc class="y left top">290.1537222772695</desc><desc class="x_label">2017</desc></g><g class="dots"><desc class="label">90 wickets in 83 innings (671.4 overs)</desc><circle class="dot reactive tooltip-trigger" cx="521.9343501326259" cy="299.9465298286096" r="2.5"/><desc class="value">32.07</desc><desc class="x left top">521.9343501326259</desc><desc class="y left top">299.9465298286096</desc><desc class="x_label">2018</desc></g><g class="dots"><desc class="label">114 wickets in 103 innings (843.0 overs)</desc><circle class="dot reactive tooltip-trigger" cx="644.2818302387268" cy="302.9082569904783" r="2.5"/><desc class="value">31.45</desc><desc class="x left top">644.2818302387268</desc><desc class="y left top">302.9082569904783</desc><desc class="x_label">2019</desc></g></g><g class="series serie-2 color-2"/></g><g class="plot text-overlay" transform="translate(42, 46)"><g class="series serie-0 color-0"/><g class="series serie-1 color-1"/><g class="series serie-2 color-2"/></g><g class="plot tooltip-overlay" transform="translate(42, 46)"><g class="tooltip" style="opacity: 0" transform="translate(0 0)"><rect class="tooltip-box" height="0" rx="10" ry="10" width="0"/><g class="text"/></g></g><g class="legends" transform="translate(52, 545)"><g class="legend reactive activate-serie" id="activate-serie-0"><rect class="color-0 reactive" height="12" width="12" x="0.0" y="1.0"/><text x="17.0" y="11.2">Future Average</text></g><g class="legend reactive activate-serie" id="activate-serie-1"><rect class="color-1 reactive" height="12" width="12" x="369.0" y="1.0"/><text x="386.0" y="11.2">Past Average</text></g><g class="legend reactive activate-serie" id="activate-serie-2"><rect class="color-2 reactive" height="12" width="12" x="0.0" y="22.0"/><text x="17.0" y="32.2">Career Average</text></g></g></g></svg>