<?xml version='1.0' encoding='utf-8'?>
<svg xmlns:xlink="http://www.w3.org/1999/xlink" xmlns="http://www.w3.org/2000/svg" id="chart-81ec250e-52d1-427d-b9b6-93dd56c99786" class="pygal-chart" viewBox="0 0 800 600"><!--Generated with pygal 2.4.0 (lxml) ©Kozea 2012-2016 on 2019-08-04--><!--http://pygal.org--><!--http://github.com/Kozea/pygal--><defs><style type="text/css">#chart-81ec250e-52d1-427d-b9b6-93dd56c99786{-webkit-user-select:none;-webkit-font-smoothing:antialiased;font-family:Consolas,"Liberation Mono",Menlo,Courier,monospace}#chart-81ec250e-52d1-427d-b9b6-93dd56c99786 .title{font-family:Consolas,"Liberation Mono",Menlo,Courier,monospace;font-size:16px}#chart-81ec250e-52d1-427d-b9b6-93dd56c99786 .legends .legend text{font-family:Consolas,"Liberation Mono",Menlo,Courier,monospace;font-size:14px}#chart-81ec250e-52d1-427d-b9b6-93dd56c99786 .axis text{font-family:Consolas,"Liberation Mono",Menlo,Courier,monospace;font-size:10px}#chart-81ec250e-52d1-427d-b9b6-93dd56c99786 .axis text.major{font-family:Consolas,"Liberation Mono",Menlo,Courier,monospace;font-size:10px}#chart-81ec250e-52d1-427d-b9b6-93dd56c99786 .text-overlay text.value{font-family:Consolas,"Liberation Mono",Menlo,Courier,monospace;font-size:16px}#chart-81ec250e-52d1-427d-b9b6-93dd56c99786 .text-overlay text.label{font-family:Consolas,"Liberation Mono",Menlo,Courier,monospace;font-size:10px}#chart-81ec250e-52d1-427d-b9b6-93dd56c99786 .tooltip{font-family:Consolas,"Liberation Mono",Menlo,Courier,monospace;font-size:14px}#chart-81ec250e-52d1-427d-b9b6-93dd56c99786 text.no_data{font-family:Consolas,"Liberation Mono",Menlo,Courier,monospace;font-size:64px}
#chart-81ec250e-52d1-427d-b9b6-93dd56c99786{background-color:rgba(249,249,249,1)}#chart-81ec250e-52d1-427d-b9b6-93dd56c99786 path,#chart-81ec250e-52d1-427d-b9b6-93dd56c99786 line,#chart-81ec250e-52d1-427d-b9b6-93dd56c99786 rect,#chart-81ec250e-52d1-427d-b9b6-93dd56c99786 circle{-webkit-transition:150ms;-moz-transition:150ms;transition:150ms}#chart-81ec250e-52d1-427d-b9b6-93dd56c99786 .graph &gt; .background{fill:rgba(249,249,249,1)}#chart-81ec250e-52d1-427d-b9b6-93dd56c99786 .plot &gt; .background{fill:rgba(255,255,255,1)}#chart-81ec250e-52d1-427d-b9b6-93dd56c99786 .graph{fill:rgba(0,0,0,.87)}#chart-81ec250e-52d1-427d-b9b6-93dd56c99786 text.no_data{fill:rgba(0,0,0,1)}#chart-81ec250e-52d1-427d-b9b6-93dd56c99786 .title{fill:rgba(0,0,0,1)}#chart-81ec250e-52d1-427d-b9b6-93dd56c99786 .legends .legend text{fill:rgba(0,0,0,.87)}#chart-81ec250e-52d1-427d-b9b6-93dd56c99786 .legends .legend:hover text{fill:rgba(0,0,0,1)}#chart-81ec250e-52d1-427d-b9b6-93dd56c99786 .axis .line{stroke:rgba(0,0,0,1)}#chart-81ec250e-52d1-427d-b9b6-93dd56c99786 .axis .guide.line{stroke:rgba(0,0,0,.54)}#chart-81ec250e-52d1-427d-b9b6-93dd56c99786 .axis .major.line{stroke:rgba(0,0,0,.87)}#chart-81ec250e-52d1-427d-b9b6-93dd56c99786 .axis text.major{fill:rgba(0,0,0,1)}#chart-81ec250e-52d1-427d-b9b6-93dd56c99786 .axis.y .guides:hover .guide.line,#chart-81ec250e-52d1-427d-b9b6-93dd56c99786 .line-graph .axis.x .guides:hover .guide.line,#chart-81ec250e-52d1-427d-b9b6-93dd56c99786 .stackedline-graph .axis.x .guides:hover .guide.line,#chart-81ec250e-52d1-427d-b9b6-93dd56c99786 .xy-graph .axis.x .guides:hover .guide.line{stroke:rgba(0,0,0,1)}#chart-81ec250e-52d1-427d-b9b6-93dd56c99786 .axis .guides:hover text{fill:rgba(0,0,0,1)}#chart-81ec250e-52d1-427d-b9b6-93dd56c99786 .reactive{fill-opacity:.7;stroke-opacity:.8}#chart-81ec250e-52d1-427d-b9b6-93dd56c99786 .ci{stroke:rgba(0,0,0,.87)}#chart-81ec250e-52d1-427d-b9b6-93dd56c99786 .reactive.active,#chart-81ec250e-52d1-427d-b9b6-93dd56c99786 .active .reactive{fill-opacity:.8;stroke-opacity:.9;stroke-width:4}#chart-81ec250e-52d1-427d-b9b6-93dd56c99786 .ci .reactive.active{stroke-width:1.5}#chart-81ec250e-52d1-427d-b9b6-93dd56c99786 .series text{fill:rgba(0,0,0,1)}#chart-81ec250e-52d1-427d-b9b6-93dd56c99786 .tooltip rect{fill:rgba(255,255,255,1);stroke:rgba(0,0,0,1);-webkit-transition:opacity 150ms;-moz-transition:opacity 150ms;transition:opacity 150ms}#chart-81ec250e-52d1-427d-b9b6-93dd56c99786 .tooltip .label{fill:rgba(0,0,0,.87)}#chart-81ec250e-52d1-427d-b9b6-93dd56c99786 .tooltip .label{fill:rgba(0,0,0,.87)}#chart-81ec250e-52d1-427d-b9b6-93dd56c99786 .tooltip .legend{font-size:.8em;fill:rgba(0,0,0,.54)}#chart-81ec250e-52d1-427d-b9b6-93dd56c99786 .tooltip .x_label{font-size:.6em;fill:rgba(0,0,0,1)}#chart-81ec250e-52d1-427d-b9b6-93dd56c99786 .tooltip .xlink{font-size:.5em;text-decoration:underline}#chart-81ec250e-52d1-427d-b9b6-93dd56c99786 .tooltip .value{font-size:1.5em}#chart-81ec250e-52d1-427d-b9b6-93dd56c99786 .bound{font-size:.5em}#chart-81ec250e-52d1-427d-b9b6-93dd56c99786 .max-value{font-size:.75em;fill:rgba(0,0,0,.54)}#chart-81ec250e-52d1-427d-b9b6-93dd56c99786 .map-element{fill:rgba(255,255,255,1);stroke:rgba(0,0,0,.54) !important}#chart-81ec250e-52d1-427d-b9b6-93dd56c99786 .map-element .reactive{fill-opacity:inherit;stroke-opacity:inherit}#chart-81ec250e-52d1-427d-b9b6-93dd56c99786 .color-0,#chart-81ec250e-52d1-427d-b9b6-93dd56c99786 .color-0 a:visited{stroke:red;fill:red}#chart-81ec250e-52d1-427d-b9b6-93dd56c99786 .color-1,#chart-81ec250e-52d1-427d-b9b6-93dd56c99786 .color-1 a:visited{stroke:blue;fill:blue}#chart-81ec250e-52d1-427d-b9b6-93dd56c99786 .color-2,#chart-81ec250e-52d1-427d-b9b6-93dd56c99786 .color-2 a:visited{stroke:green;fill:green}#chart-81ec250e-52d1-427d-b9b6-93dd56c99786 .text-overlay .color-0 text{fill:white}#chart-81ec250e-52d1-427d-b9b6-93dd56c99786 .text-overlay .color-1 text{fill:white}#chart-81ec250e-52d1-427d-b9b6-93dd56c99786 .text-overlay .color-2 text{fill:white}
#chart-81ec250e-52d1-427d-b9b6-93dd56c99786 text.no_data{text-anchor:middle}#chart-81ec250e-52d1-427d-b9b6-93dd56c99786 .guide.line{fill:none}#chart-81ec250e-52d1-427d-b9b6-93dd56c99786 .centered{text-anchor:middle}#chart-81ec250e-52d1-427d-b9b6-93dd56c99786 .title{text-anchor:middle}#chart-81ec250e-52d1-427d-b9b6-93dd56c99786 .legends .legend text{fill-opacity:1}#chart-81ec250e-52d1-427d-b9b6-93dd56c99786 .axis.x text{text-anchor:middle}#chart-81ec250e-52d1-427d-b9b6-93dd56c99786 .axis.x:not(.web) text[transform]{text-anchor:start}#chart-81ec250e-52d1-427d-b9b6-93dd56c99786 .axis.x:not(.web) text[transform].backwards{text-anchor:end}#chart-81ec250e-52d1-427d-b9b6-93dd56c99786 .axis.y text{text-anchor:end}#chart-81ec250e-52d1-427d-b9b6-93dd56c99786 .axis.y text[transform].backwards{text-anchor:start}#chart-81ec250e-52d1-427d-b9b6-93dd56c99786 .axis.y2 text{text-anchor:start}#chart-81ec250e-52d1-427d-b9b6-93dd56c99786 .axis.y2 text[transform].backwards{text-anchor:end}#chart-81ec250e-52d1-427d-b9b6-93dd56c99786 .axis .guide.line{stroke-dasharray:4,4}#chart-81ec250e-52d1-427d-b9b6-93dd56c99786 .axis .major.guide.line{stroke-dasharray:6,6}#chart-81ec250e-52d1-427d-b9b6-93dd56c99786 .horizontal .axis.y .guide.line,#chart-81ec250e-52d1-427d-b9b6-93dd56c99786 .horizontal .axis.y2 .guide.line,#chart-81ec250e-52d1-427d-b9b6-93dd56c99786 .vertical .axis.x .guide.line{opacity:0}#chart-81ec250e-52d1-427d-b9b6-93dd56c99786 .horizontal .axis.always_show .guide.line,#chart-81ec250e-52d1-427d-b9b6-93dd56c99786 .vertical .axis.always_show .guide.line{opacity:1 !important}#chart-81ec250e-52d1-427d-b9b6-93dd56c99786 .axis.y .guides:hover .guide.line,#chart-81ec250e-52d1-427d-b9b6-93dd56c99786 .axis.y2 .guides:hover .guide.line,#chart-81ec250e-52d1-427d-b9b6-93dd56c99786 .axis.x .guides:hover .guide.line{opacity:1}#chart-81ec250e-52d1-427d-b9b6-93dd56c99786 .axis .guides:hover text{opacity:1}#chart-81ec250e-52d1-427d-b9b6-93dd56c99786 .nofill{fill:none}#chart-81ec250e-52d1-427d-b9b6-93dd56c99786 .subtle-fill{fill-opacity:.2}#chart-81ec250e-52d1-427d-b9b6-93dd56c99786 .dot{stroke-width:1px;fill-opacity:1}#chart-81ec250e-52d1-427d-b9b6-93dd56c99786 .dot.active{stroke-width:5px}#chart-81ec250e-52d1-427d-b9b6-93dd56c99786 .dot.negative{fill:transparent}#chart-81ec250e-52d1-427d-b9b6-93dd56c99786 text,#chart-81ec250e-52d1-427d-b9b6-93dd56c99786 tspan{stroke:none !important}#chart-81ec250e-52d1-427d-b9b6-93dd56c99786 .series text.active{opacity:1}#chart-81ec250e-52d1-427d-b9b6-93dd56c99786 .tooltip rect{fill-opacity:.95;stroke-width:.5}#chart-81ec250e-52d1-427d-b9b6-93dd56c99786 .tooltip text{fill-opacity:1}#chart-81ec250e-52d1-427d-b9b6-93dd56c99786 .showable{visibility:hidden}#chart-81ec250e-52d1-427d-b9b6-93dd56c99786 .showable.shown{visibility:visible}#chart-81ec250e-52d1-427d-b9b6-93dd56c99786 .gauge-background{fill:rgba(229,229,229,1);stroke:none}#chart-81ec250e-52d1-427d-b9b6-93dd56c99786 .bg-lines{stroke:rgba(249,249,249,1);stroke-width:2px}</style><script type="text/javascript">window.pygal = window.pygal || {};window.pygal.config = window.pygal.config || {};window.pygal.config['81ec250e-52d1-427d-b9b6-93dd56c99786'] = {"allow_interruptions": false, "box_mode": "extremes", "classes": ["pygal-chart"], "css": ["file://style.css", "file://graph.css"], "defs": [], "disable_xml_declaration": false, "dots_size": 2.5, "dynamic_print_values": false, "explicit_size": false, "fill": false, "force_uri_protocol": "https", "formatter": null, "half_pie": false, "height": 600, "include_x_axis": false, "inner_radius": 0, "interpolate": null, "interpolation_parameters": {}, "interpolation_precision": 250, "inverse_y_axis": false, "js": ["//kozea.github.io/pygal.js/2.0.x/pygal-tooltips.min.js"], "legend_at_bottom": true, "legend_at_bottom_columns": null, "legend_box_size": 12, "logarithmic": false, "margin": 20, "margin_bottom": null, "margin_left": null, "margin_right": null, "margin_top": null, "max_scale": 16, "min_scale": 4, "missing_value_fill_truncation": "x", "no_data_text": "No data", "no_prefix": false, "order_min": null, "pretty_print": false, "print_labels": false, "print_values": false, "print_values_position": "center", "print_zeroes": true, "range": null, "rounded_bars": null, "secondary_range": null, "show_dots": true, "show_legend": true, "show_minor_x_labels": false, "show_minor_y_labels": true, "show_only_major_dots": false, "show_x_guides": false, "show_x_labels": true, "show_y_guides": true, "show_y_labels": true, "spacing": 10, "stack_from_top": false, "strict": false, "stroke": true, "stroke_style": null, "style": {"background": "rgba(249, 249, 249, 1)", "ci_colors": [], "colors": ["red", "blue", "green", "#a3a3a3"], "font_family": "Consolas, \"Liberation Mono\", Menlo, Courier, monospace", "foreground": "rgba(0, 0, 0, .87)", "foreground_strong": "rgba(0, 0, 0, 1)", "foreground_subtle": "rgba(0, 0, 0, .54)", "guide_stroke_dasharray": "4,4", "label_font_family": "Consolas, \"Liberation Mono\", Menlo, Courier, monospace", "label_font_size": 10, "legend_font_family": "Consolas, \"Liberation Mono\", Menlo, Courier, monospace", "legend_font_size": 14, "major_guide_stroke_dasharray": "6,6", "major_label_font_family": "Consolas, \"Liberation Mono\", Menlo, Courier, monospace", "major_label_font_size": 10, "no_data_font_family": "Consolas, \"Liberation Mono\", Menlo, Courier, monospace", "no_data_font_size": 64, "opacity": ".7", "opacity_hover": ".8", "plot_background": "rgba(255, 255, 255, 1)", "stroke_opacity": ".8", "stroke_opacity_hover": ".9", "title_font_family": "Consolas, \"Liberation Mono\", Menlo, Courier, monospace", "title_font_size": 16, "tooltip_font_family": "Consolas, \"Liberation Mono\", Menlo, Courier, monospace", "tooltip_font_size": 14, "transition": "150ms", "value_background": "rgba(229, 229, 229, 1)", "value_colors": [], "value_font_family": "Consolas, \"Liberation Mono\", Menlo, Courier, monospace", "value_font_size": 16, "value_label_font_family": "Consolas, \"Liberation Mono\", Menlo, Courier, monospace", "value_label_font_size": 10}, "title": "Mohammad Hafeez: Future and Past Averages in ODIs", "tooltip_border_radius": 10, "tooltip_fancy_mode": true, "truncate_label": null, "truncate_legend": null, "width": 800, "x_label_rotation": 45, "x_labels": ["2003", "0", "0", "0", "0", "0", "0", "0", "0", "0", "0", "0", "0", "0", "0", "0", "0", "0", "0", "0", "0", "2005", "0", "0", "0", "0", "0", "0", "0", "2006", "0", "0", "0", "0", "0", "0", "0", "0", "0", "2007", "0", "0", "0", "0", "0", "2010", "0", "0", "0", "0", "0", "0", "0", "0", "2011", "0", "0", "0", "0", "0", "0", "0", "0", "0", "0", "0", "0", "0", "0", "0", "0", "0", "0", "0", "0", "0", "0", "0", "0", "0", "0", "0", "0", "2012", "0", "0", "0", "0", "0", "0", "0", "0", "0", "0", "0", "0", "0", "0", "0", "0", "2013", "0", "0", "0", "0", "0", "0", "0", "0", "0", "0", "0", "0", "0", "0", "0", "0", "0", "0", "0", "0", "0", "0", "0", "0", "0", "0", "0", "0", "0", "0", "0", "0", "2014", "0", "0", "0", "0", "0", "0", "2015", "0", "0", "0", "0", "0", "2017", "0", "0", "0", "0", "0", "0", "0", "0", "0", "0", "0", "0", "0", "0", "0", "0", "2018", "0", "2019", "0", "0", "0", "0", "0", "0", "0", "0", "0", "0", "0"], "x_labels_major": ["2003", "2005", "2006", "2007", "2010", "2011", "2012", "2013", "2014", "2015", "2017", "2018", "2019"], "x_labels_major_count": null, "x_labels_major_every": null, "x_title": null, "xrange": null, "y_label_rotation": 0, "y_labels": null, "y_labels_major": null, "y_labels_major_count": null, "y_labels_major_every": null, "y_title": null, "zero": 170.0, "legends": ["Future Average", "Past Average", "Career Average"]}</script><script type="text/javascript" xlink:href="https://kozea.github.io/pygal.js/2.0.x/pygal-tooltips.min.js"/></defs><title>Mohammad Hafeez: Future and Past Averages in ODIs</title><g class="graph line-graph vertical"><rect class="background" height="600" width="800" x="0" y="0"/><g class="plot" transform="translate(48, 46)"><rect class="background" height="462.02943725152284" width="732.0" x="0" y="0"/><g class="axis y always_show"><g class="guides"><path class="axis major line" d="M0.000000 453.144256 h732.000000"/><text class="major" x="-5" y="456.6442557659166">0</text><title>0</title></g><g class="guides"><path class="guide line" d="M0.000000 398.800638 h732.000000"/><text class="" x="-5" y="402.300638116949">20</text><title>20</title></g><g class="guides"><path class="guide line" d="M0.000000 344.457020 h732.000000"/><text class="" x="-5" y="347.95702046798135">40</text><title>40</title></g><g class="guides"><path class="guide line" d="M0.000000 290.113403 h732.000000"/><text class="" x="-5" y="293.61340281901374">60</text><title>60</title></g><g class="guides"><path class="guide line" d="M0.000000 235.769785 h732.000000"/><text class="" x="-5" y="239.2697851700461">80</text><title>80</title></g><g class="guides"><path class="major guide line" d="M0.000000 181.426168 h732.000000"/><text class="major" x="-5" y="184.92616752107847">100</text><title>100</title></g><g class="guides"><path class="guide line" d="M0.000000 127.082550 h732.000000"/><text class="" x="-5" y="130.58254987211086">120</text><title>120</title></g><g class="guides"><path class="guide line" d="M0.000000 72.738932 h732.000000"/><text class="" x="-5" y="76.23893222314314">140</text><title>140</title></g><g class="guides"><path class="guide line" d="M0.000000 18.395315 h732.000000"/><text class="" x="-5" y="21.89531457417553">160</text><title>160</title></g></g><g class="axis x"><g class="guides"><path class="major line" d="M14.076923 0.000000 v462.029437"/><text class="major" x="14.076923076923077" y="477.02943725152284" transform="rotate(45 14.076923 477.029437)">2003</text></g><g class="guides"><path class="major guide line" d="M98.058566 0.000000 v462.029437"/><text class="major" x="98.05856643356643" y="477.02943725152284" transform="rotate(45 98.058566 477.029437)">2005</text></g><g class="guides"><path class="major guide line" d="M130.051573 0.000000 v462.029437"/><text class="major" x="130.0515734265734" y="477.02943725152284" transform="rotate(45 130.051573 477.029437)">2006</text></g><g class="guides"><path class="major guide line" d="M170.042832 0.000000 v462.029437"/><text class="major" x="170.04283216783216" y="477.02943725152284" transform="rotate(45 170.042832 477.029437)">2007</text></g><g class="guides"><path class="major guide line" d="M194.037587 0.000000 v462.029437"/><text class="major" x="194.0375874125874" y="477.02943725152284" transform="rotate(45 194.037587 477.029437)">2010</text></g><g class="guides"><path class="major guide line" d="M230.029720 0.000000 v462.029437"/><text class="major" x="230.0297202797203" y="477.02943725152284" transform="rotate(45 230.029720 477.029437)">2011</text></g><g class="guides"><path class="major guide line" d="M346.004371 0.000000 v462.029437"/><text class="major" x="346.00437062937067" y="477.02943725152284" transform="rotate(45 346.004371 477.029437)">2012</text></g><g class="guides"><path class="major guide line" d="M413.989510 0.000000 v462.029437"/><text class="major" x="413.98951048951056" y="477.02943725152284" transform="rotate(45 413.989510 477.029437)">2013</text></g><g class="guides"><path class="major guide line" d="M545.960664 0.000000 v462.029437"/><text class="major" x="545.9606643356644" y="477.02943725152284" transform="rotate(45 545.960664 477.029437)">2014</text></g><g class="guides"><path class="major guide line" d="M573.954545 0.000000 v462.029437"/><text class="major" x="573.9545454545454" y="477.02943725152284" transform="rotate(45 573.954545 477.029437)">2015</text></g><g class="guides"><path class="major guide line" d="M597.949301 0.000000 v462.029437"/><text class="major" x="597.9493006993007" y="477.02943725152284" transform="rotate(45 597.949301 477.029437)">2017</text></g><g class="guides"><path class="major guide line" d="M665.934441 0.000000 v462.029437"/><text class="major" x="665.9344405594405" y="477.02943725152284" transform="rotate(45 665.934441 477.029437)">2018</text></g><g class="guides"><path class="major guide line" d="M673.932692 0.000000 v462.029437"/><text class="major" x="673.9326923076923" y="477.02943725152284" transform="rotate(45 673.932692 477.029437)">2019</text></g></g><g class="series serie-0 color-0"><path class="line reactive nofill" d="M14.076923 347.581778 L18.076049 346.848140 22.075175 347.364404 26.074301 346.685109 30.073427 345.380862 34.072552 344.674395 38.071678 344.837426 42.070804 344.674395 46.069930 345.190659 50.069056 345.190659 54.068182 345.598236 58.067308 343.723382 62.066434 341.468121 66.065559 341.930042 70.064685 341.930042 74.063811 341.522465 78.062937 342.718025 82.062063 343.288633 86.061189 341.386606 90.060315 341.006201 94.059441 340.652967 98.058566 341.060544 102.057692 340.517108 106.056818 340.815998 110.055944 341.196403 114.055070 341.033373 118.054196 341.930042 122.053322 341.767011 126.052448 343.179945 130.051573 342.527822 134.050699 342.364791 138.049825 342.935399 142.048951 343.288633 146.048077 342.799540 150.047203 342.391963 154.046329 341.930042 158.045455 342.473478 162.044580 342.799540 166.043706 343.098430 170.042832 343.614694 174.041958 343.315804 178.041084 343.560351 182.040210 342.473478 186.039336 341.794183 190.038462 341.060544 194.037587 342.256104 198.036713 343.016915 202.035839 343.886412 206.034965 344.620051 210.034091 344.620051 214.033217 345.000457 218.032343 345.245003 222.031469 343.967928 226.030594 342.745197 230.029720 342.935399 234.028846 342.473478 238.027972 342.011558 242.027098 343.016915 246.026224 342.283276 250.025350 341.821355 254.024476 341.576809 258.023601 342.228932 262.022727 341.767011 266.021853 340.815998 270.020979 340.326906 274.020105 338.125989 278.019231 337.854271 282.018357 337.636896 286.017483 336.033760 290.016608 334.077389 294.015734 333.452438 298.014860 333.805671 302.013986 333.724156 306.013112 333.506782 310.012238 335.082746 314.011364 334.865372 318.010490 332.447081 322.009615 333.289407 326.008741 332.691627 330.007867 331.849301 334.006993 331.224350 338.006119 329.702728 342.005245 326.523627 346.004371 321.578357 350.003497 322.801089 354.002622 324.132507 358.001748 325.165036 362.000874 326.577970 366.000000 328.235451 369.999126 325.898675 373.998252 327.692014 377.997378 327.501812 381.996503 328.887574 385.995629 325.491098 389.994755 324.648772 393.993881 321.768560 397.993007 320.817547 401.992133 317.176524 405.991259 315.980965 409.990385 318.643802 413.989510 317.339555 417.988636 316.143996 421.987762 315.790762 425.986888 315.627731 429.986014 311.551960 433.985140 314.568031 437.984266 317.040665 441.983392 315.328841 445.982517 312.829035 449.981643 308.101140 453.980769 306.688206 457.979895 303.835166 461.979021 302.585263 465.978147 303.183043 469.977273 304.351431 473.976399 306.715378 477.975524 307.883766 481.974650 310.084682 485.973776 311.714991 489.972902 314.649546 493.972028 317.203696 497.971154 312.557317 501.970280 314.323484 505.969406 312.258427 509.968531 315.845106 513.967657 310.166198 517.966783 306.416488 521.965909 304.595977 525.965035 308.590233 529.964161 308.481546 533.963287 312.122568 537.962413 305.220929 541.961538 309.840136 545.960664 308.101140 549.959790 313.725705 553.958916 298.971412 557.958042 289.216733 561.957168 292.694725 565.956294 298.129086 569.955420 294.732610 573.954545 273.022335 577.953671 278.918618 581.952797 285.956116 585.951923 281.119534 589.951049 282.804186 593.950175 235.307864 597.949301 208.326258 601.948427 214.575774 605.947552 226.803088 609.946678 234.954631 613.945804 249.627408 617.944930 261.311285 621.944056 250.551249 625.943182 201.614821 629.942308 209.766364 633.941434 192.294891 637.940559 203.163615 641.939685 218.108109 645.938811 224.004392 649.937937 195.555508 653.937063 147.461406 657.936189 80.890475 661.935315 107.165614 665.934441 108.062284 669.933566 128.903061 673.932692 8.885181 677.931818 38.774171 681.930944 87.683427 685.930070 97.193560 689.929196 162.405901 693.928322 196.370662 697.927448 56.435847 701.926573 219.466700 705.925699 249.355690 709.924825 279.244679 713.923951 339.022659 717.923077 366.194468"/></g><g class="series serie-1 color-1"><path class="line reactive nofill" d="M14.076923 453.144256 L18.076049 397.442048 22.075175 362.118696 26.074301 388.828584 30.073427 406.952181 34.072552 412.386543 38.071678 408.772692 42.070804 402.305801 46.069930 392.985871 50.069056 386.573324 54.068182 380.106434 58.067308 392.388091 62.066434 402.088427 66.065559 398.012656 70.064685 394.262946 74.063811 394.208602 78.062937 385.051703 82.062063 380.622698 86.061189 386.790699 90.060315 386.709183 94.059441 386.518981 98.058566 384.182205 102.057692 385.214734 106.056818 381.791086 110.055944 379.780372 114.055070 378.992389 118.054196 374.672072 122.053322 374.128636 126.052448 367.716089 130.051573 368.504071 134.050699 368.341040 138.049825 366.004265 142.048951 364.645674 146.048077 365.732547 150.047203 366.466186 154.046329 367.254168 158.045455 365.406485 162.044580 364.265269 166.043706 363.205569 170.042832 361.385057 174.041958 361.249198 178.041084 360.515559 182.040210 362.770820 186.039336 364.156582 190.038462 364.917393 194.037587 361.765463 198.036713 359.754749 202.035839 357.390801 206.034965 355.461603 210.034091 355.189885 214.033217 354.211700 218.032343 353.369374 222.031469 355.896352 226.030594 358.042925 230.029720 357.309286 234.028846 357.934238 238.027972 358.504846 242.027098 356.548475 246.026224 357.309286 250.025350 357.825550 254.024476 357.934238 258.023601 356.820193 262.022727 357.309286 266.021853 358.559189 270.020979 358.993938 274.020105 361.575260 278.019231 361.575260 282.018357 361.466573 286.017483 362.797991 290.016608 364.346785 294.015734 364.645674 298.014860 364.210925 302.013986 363.803348 306.013112 363.613146 310.012238 361.792634 314.011364 361.656775 318.010490 363.395771 322.009615 362.526273 326.008741 362.689304 330.007867 363.096881 334.006993 363.259912 338.006119 364.238097 342.005245 366.085780 346.004371 368.531243 350.003497 367.525886 354.002622 366.466186 358.001748 365.623860 362.000874 364.509815 366.000000 363.151225 369.999126 364.075066 373.998252 362.689304 377.997378 362.390414 381.996503 361.357886 385.995629 362.933850 389.994755 363.042538 393.993881 363.993551 397.993007 364.075066 401.992133 365.216282 405.991259 365.352141 409.990385 363.830520 413.989510 364.047895 417.988636 364.156582 421.987762 363.830520 425.986888 363.395771 429.986014 364.265269 433.985140 362.879507 437.984266 361.738291 441.983392 362.037181 445.982517 362.634961 449.981643 363.531630 453.980769 363.531630 457.979895 364.047895 461.979021 363.912036 465.978147 363.694661 469.977273 363.259912 473.976399 362.417586 477.975524 361.982837 481.974650 361.194855 485.973776 360.597075 489.972902 359.537374 493.972028 358.613533 497.971154 359.374344 501.970280 358.776564 505.969406 359.021110 509.968531 357.852722 513.967657 358.776564 517.966783 359.401515 521.965909 359.401515 525.965035 358.314643 529.964161 357.907066 533.963287 356.928881 537.962413 357.798379 541.961538 356.684334 545.960664 356.684334 549.959790 355.380088 553.958916 357.227771 557.958042 357.961409 561.957168 357.363630 565.956294 356.385445 569.955420 356.466960 573.954545 357.988581 577.953671 357.146255 581.952797 356.168070 585.951923 356.222414 589.951049 356.005039 593.950175 358.205956 597.949301 358.368987 601.948427 357.907066 605.947552 356.956053 609.946678 356.303929 613.945804 355.189885 617.944930 354.266043 621.944056 354.293215 625.943182 355.325744 629.942308 354.890995 633.941434 354.592105 637.940559 354.103013 641.939685 353.423717 645.938811 353.151999 649.937937 353.260687 653.937063 353.505233 657.936189 353.478061 661.935315 352.880281 665.934441 352.880281 669.933566 352.418360 673.932692 352.527048 677.931818 352.092299 681.930944 351.385832 685.930070 351.249973 689.929196 350.298959 693.928322 349.782695 697.927448 349.701180 701.926573 349.266431 705.925699 349.049056 709.924825 348.831682 713.923951 348.396933 717.923077 348.206730"/></g><g class="series serie-2 color-2"><path class="line reactive nofill" d="M14.076923 347.581778 L18.076049 347.581778 22.075175 347.581778 26.074301 347.581778 30.073427 347.581778 34.072552 347.581778 38.071678 347.581778 42.070804 347.581778 46.069930 347.581778 50.069056 347.581778 54.068182 347.581778 58.067308 347.581778 62.066434 347.581778 66.065559 347.581778 70.064685 347.581778 74.063811 347.581778 78.062937 347.581778 82.062063 347.581778 86.061189 347.581778 90.060315 347.581778 94.059441 347.581778 98.058566 347.581778 102.057692 347.581778 106.056818 347.581778 110.055944 347.581778 114.055070 347.581778 118.054196 347.581778 122.053322 347.581778 126.052448 347.581778 130.051573 347.581778 134.050699 347.581778 138.049825 347.581778 142.048951 347.581778 146.048077 347.581778 150.047203 347.581778 154.046329 347.581778 158.045455 347.581778 162.044580 347.581778 166.043706 347.581778 170.042832 347.581778 174.041958 347.581778 178.041084 347.581778 182.040210 347.581778 186.039336 347.581778 190.038462 347.581778 194.037587 347.581778 198.036713 347.581778 202.035839 347.581778 206.034965 347.581778 210.034091 347.581778 214.033217 347.581778 218.032343 347.581778 222.031469 347.581778 226.030594 347.581778 230.029720 347.581778 234.028846 347.581778 238.027972 347.581778 242.027098 347.581778 246.026224 347.581778 250.025350 347.581778 254.024476 347.581778 258.023601 347.581778 262.022727 347.581778 266.021853 347.581778 270.020979 347.581778 274.020105 347.581778 278.019231 347.581778 282.018357 347.581778 286.017483 347.581778 290.016608 347.581778 294.015734 347.581778 298.014860 347.581778 302.013986 347.581778 306.013112 347.581778 310.012238 347.581778 314.011364 347.581778 318.010490 347.581778 322.009615 347.581778 326.008741 347.581778 330.007867 347.581778 334.006993 347.581778 338.006119 347.581778 342.005245 347.581778 346.004371 347.581778 350.003497 347.581778 354.002622 347.581778 358.001748 347.581778 362.000874 347.581778 366.000000 347.581778 369.999126 347.581778 373.998252 347.581778 377.997378 347.581778 381.996503 347.581778 385.995629 347.581778 389.994755 347.581778 393.993881 347.581778 397.993007 347.581778 401.992133 347.581778 405.991259 347.581778 409.990385 347.581778 413.989510 347.581778 417.988636 347.581778 421.987762 347.581778 425.986888 347.581778 429.986014 347.581778 433.985140 347.581778 437.984266 347.581778 441.983392 347.581778 445.982517 347.581778 449.981643 347.581778 453.980769 347.581778 457.979895 347.581778 461.979021 347.581778 465.978147 347.581778 469.977273 347.581778 473.976399 347.581778 477.975524 347.581778 481.974650 347.581778 485.973776 347.581778 489.972902 347.581778 493.972028 347.581778 497.971154 347.581778 501.970280 347.581778 505.969406 347.581778 509.968531 347.581778 513.967657 347.581778 517.966783 347.581778 521.965909 347.581778 525.965035 347.581778 529.964161 347.581778 533.963287 347.581778 537.962413 347.581778 541.961538 347.581778 545.960664 347.581778 549.959790 347.581778 553.958916 347.581778 557.958042 347.581778 561.957168 347.581778 565.956294 347.581778 569.955420 347.581778 573.954545 347.581778 577.953671 347.581778 581.952797 347.581778 585.951923 347.581778 589.951049 347.581778 593.950175 347.581778 597.949301 347.581778 601.948427 347.581778 605.947552 347.581778 609.946678 347.581778 613.945804 347.581778 617.944930 347.581778 621.944056 347.581778 625.943182 347.581778 629.942308 347.581778 633.941434 347.581778 637.940559 347.581778 641.939685 347.581778 645.938811 347.581778 649.937937 347.581778 653.937063 347.581778 657.936189 347.581778 661.935315 347.581778 665.934441 347.581778 669.933566 347.581778 673.932692 347.581778 677.931818 347.581778 681.930944 347.581778 685.930070 347.581778 689.929196 347.581778 693.928322 347.581778 697.927448 347.581778 701.926573 347.581778 705.925699 347.581778 709.924825 347.581778 713.923951 347.581778 717.923077 347.581778"/></g></g><g class="titles"><text class="title plot_title" x="400.0" y="26">Mohammad Hafeez: Future and Past Averages in ODIs</text></g><g class="plot overlay" transform="translate(48, 46)"><g class="series serie-0 color-0"><g class="dots"><desc class="label">139 wickets in 177 innings (1288.5 overs)</desc><circle class="dot reactive tooltip-trigger" cx="14.076923076923077" cy="347.581778482797" r="2.5"/><desc class="value">38.85</desc><desc class="x top">14.076923076923077</desc><desc class="y top">347.581778482797</desc><desc class="x_label">2003</desc></g><g class="dots"><desc class="label">118 wickets in 156 innings (1155.5 overs)</desc><circle class="dot reactive tooltip-trigger" cx="98.05856643356643" cy="341.06054436492093" r="2.5"/><desc class="value">41.25</desc><desc class="x top">98.05856643356643</desc><desc class="y top">341.06054436492093</desc><desc class="x_label">2005</desc></g><g class="dots"><desc class="label">112 wickets in 148 innings (1100.2 overs)</desc><circle class="dot reactive tooltip-trigger" cx="130.0515734265734" cy="342.527822041443" r="2.5"/><desc class="value">40.71</desc><desc class="x top">130.0515734265734</desc><desc class="y top">342.527822041443</desc><desc class="x_label">2006</desc></g><g class="dots"><desc class="label">108 wickets in 138 innings (1046.0 overs)</desc><circle class="dot reactive tooltip-trigger" cx="170.04283216783216" cy="343.6146943944224" r="2.5"/><desc class="value">40.31</desc><desc class="x top">170.04283216783216</desc><desc class="y top">343.6146943944224</desc><desc class="x_label">2007</desc></g><g class="dots"><desc class="label">101 wickets in 132 innings (1002.0 overs)</desc><circle class="dot reactive tooltip-trigger" cx="194.0375874125874" cy="342.25610395319814" r="2.5"/><desc class="value">40.81</desc><desc class="x top">194.0375874125874</desc><desc class="y top">342.25610395319814</desc><desc class="x_label">2010</desc></g><g class="dots"><desc class="label">94 wickets in 123 innings (938.0 overs)</desc><circle class="dot reactive tooltip-trigger" cx="230.0297202797203" cy="342.93539917381025" r="2.5"/><desc class="value">40.56</desc><desc class="x top">230.0297202797203</desc><desc class="y top">342.93539917381025</desc><desc class="x_label">2011</desc></g><g class="dots"><desc class="label">62 wickets in 94 innings (709.0 overs)</desc><circle class="dot reactive tooltip-trigger" cx="346.00437062937067" cy="321.578357437766" r="2.5"/><desc class="value">48.42</desc><desc class="x top">346.00437062937067</desc><desc class="y top">321.578357437766</desc><desc class="x_label">2012</desc></g><g class="dots"><desc class="label">49 wickets in 77 innings (555.0 overs)</desc><circle class="dot reactive tooltip-trigger" cx="413.98951048951056" cy="317.33955526114653" r="2.5"/><desc class="value">49.98</desc><desc class="x left top">413.98951048951056</desc><desc class="y left top">317.33955526114653</desc><desc class="x_label">2013</desc></g><g class="dots"><desc class="label">26 wickets in 44 innings (300.5 overs)</desc><circle class="dot reactive tooltip-trigger" cx="545.9606643356644" cy="308.10114026082204" r="2.5"/><desc class="value">53.38</desc><desc class="x left top">545.9606643356644</desc><desc class="y left top">308.10114026082204</desc><desc class="x_label">2014</desc></g><g class="dots"><desc class="label">17 wickets in 37 innings (236.3 overs)</desc><circle class="dot reactive tooltip-trigger" cx="573.9545454545454" cy="273.02233506841344" r="2.5"/><desc class="value">66.29</desc><desc class="x left top">573.9545454545454</desc><desc class="y left top">273.02233506841344</desc><desc class="x_label">2015</desc></g><g class="dots"><desc class="label">10 wickets in 31 innings (192.3 overs)</desc><circle class="dot reactive tooltip-trigger" cx="597.9493006993007" cy="208.32625825731748" r="2.5"/><desc class="value">90.1</desc><desc class="x left">597.9493006993007</desc><desc class="y left">208.32625825731748</desc><desc class="x_label">2017</desc></g><g class="dots"><desc class="label">3 wickets in 14 innings (70.0 overs)</desc><circle class="dot reactive tooltip-trigger" cx="665.9344405594405" cy="108.06228369497217" r="2.5"/><desc class="value">127</desc><desc class="x left">665.9344405594405</desc><desc class="y left">108.06228369497217</desc><desc class="x_label">2018</desc></g><g class="dots"><desc class="label">2 wickets in 12 innings (54.0 overs)</desc><circle class="dot reactive tooltip-trigger" cx="673.9326923076923" cy="8.88518148560621" r="2.5"/><desc class="value">163.5</desc><desc class="x left">673.9326923076923</desc><desc class="y left">8.88518148560621</desc><desc class="x_label">2019</desc></g></g><g class="series serie-1 color-1"><g class="dots"><desc class="label">0 wickets over 0 innings</desc><circle class="dot reactive tooltip-trigger" cx="14.076923076923077" cy="453.1442557659166" r="2.5"/><desc class="value">0</desc><desc class="x top">14.076923076923077</desc><desc class="y top">453.1442557659166</desc><desc class="x_label">2003</desc></g><g class="dots"><desc class="label">21 wickets in 21 innings (133.0 overs)</desc><circle class="dot reactive tooltip-trigger" cx="98.05856643356643" cy="384.1822049693767" r="2.5"/><desc class="value">25.38</desc><desc class="x top">98.05856643356643</desc><desc class="y top">384.1822049693767</desc><desc class="x_label">2005</desc></g><g class="dots"><desc class="label">27 wickets in 29 innings (188.3 overs)</desc><circle class="dot reactive tooltip-trigger" cx="130.0515734265734" cy="368.50407127764953" r="2.5"/><desc class="value">31.15</desc><desc class="x top">130.0515734265734</desc><desc class="y top">368.50407127764953</desc><desc class="x_label">2006</desc></g><g class="dots"><desc class="label">31 wickets in 39 innings (242.5 overs)</desc><circle class="dot reactive tooltip-trigger" cx="170.04283216783216" cy="361.3850573656348" r="2.5"/><desc class="value">33.77</desc><desc class="x top">170.04283216783216</desc><desc class="y top">361.3850573656348</desc><desc class="x_label">2007</desc></g><g class="dots"><desc class="label">38 wickets in 45 innings (286.5 overs)</desc><circle class="dot reactive tooltip-trigger" cx="194.0375874125874" cy="361.7654626891775" r="2.5"/><desc class="value">33.63</desc><desc class="x top">194.0375874125874</desc><desc class="y top">361.7654626891775</desc><desc class="x_label">2010</desc></g><g class="dots"><desc class="label">45 wickets in 54 innings (350.5 overs)</desc><circle class="dot reactive tooltip-trigger" cx="230.0297202797203" cy="357.3092860419622" r="2.5"/><desc class="value">35.27</desc><desc class="x top">230.0297202797203</desc><desc class="y top">357.3092860419622</desc><desc class="x_label">2011</desc></g><g class="dots"><desc class="label">77 wickets in 83 innings (579.5 overs)</desc><circle class="dot reactive tooltip-trigger" cx="346.00437062937067" cy="368.53124308647403" r="2.5"/><desc class="value">31.14</desc><desc class="x top">346.00437062937067</desc><desc class="y top">368.53124308647403</desc><desc class="x_label">2012</desc></g><g class="dots"><desc class="label">90 wickets in 100 innings (733.5 overs)</desc><circle class="dot reactive tooltip-trigger" cx="413.98951048951056" cy="364.0478946304342" r="2.5"/><desc class="value">32.79</desc><desc class="x left top">413.98951048951056</desc><desc class="y left top">364.0478946304342</desc><desc class="x_label">2013</desc></g><g class="dots"><desc class="label">113 wickets in 133 innings (988.0 overs)</desc><circle class="dot reactive tooltip-trigger" cx="545.9606643356644" cy="356.6843344389991" r="2.5"/><desc class="value">35.5</desc><desc class="x left top">545.9606643356644</desc><desc class="y left top">356.6843344389991</desc><desc class="x_label">2014</desc></g><g class="dots"><desc class="label">122 wickets in 140 innings (1052.2 overs)</desc><circle class="dot reactive tooltip-trigger" cx="573.9545454545454" cy="357.9885812625743" r="2.5"/><desc class="value">35.02</desc><desc class="x left top">573.9545454545454</desc><desc class="y left top">357.9885812625743</desc><desc class="x_label">2015</desc></g><g class="dots"><desc class="label">129 wickets in 146 innings (1096.2 overs)</desc><circle class="dot reactive tooltip-trigger" cx="597.9493006993007" cy="358.3689865861171" r="2.5"/><desc class="value">34.88</desc><desc class="x left top">597.9493006993007</desc><desc class="y left top">358.3689865861171</desc><desc class="x_label">2017</desc></g><g class="dots"><desc class="label">136 wickets in 163 innings (1218.5 overs)</desc><circle class="dot reactive tooltip-trigger" cx="665.9344405594405" cy="352.88028120357137" r="2.5"/><desc class="value">36.9</desc><desc class="x left top">665.9344405594405</desc><desc class="y left top">352.88028120357137</desc><desc class="x_label">2018</desc></g><g class="dots"><desc class="label">137 wickets in 165 innings (1234.5 overs)</desc><circle class="dot reactive tooltip-trigger" cx="673.9326923076923" cy="352.52704768885303" r="2.5"/><desc class="value">37.03</desc><desc class="x left top">673.9326923076923</desc><desc class="y left top">352.52704768885303</desc><desc class="x_label">2019</desc></g></g><g class="series serie-2 color-2"/></g><g class="plot text-overlay" transform="translate(48, 46)"><g class="series serie-0 color-0"/><g class="series serie-1 color-1"/><g class="series serie-2 color-2"/></g><g class="plot tooltip-overlay" transform="translate(48, 46)"><g class="tooltip" style="opacity: 0" transform="translate(0 0)"><rect class="tooltip-box" height="0" rx="10" ry="10" width="0"/><g class="text"/></g></g><g class="legends" transform="translate(58, 545)"><g class="legend reactive activate-serie" id="activate-serie-0"><rect class="color-0 reactive" height="12" width="12" x="0.0" y="1.0"/><text x="17.0" y="11.2">Future Average</text></g><g class="legend reactive activate-serie" id="activate-serie-1"><rect class="color-1 reactive" height="12" width="12" x="366.0" y="1.0"/><text x="383.0" y="11.2">Past Average</text></g><g class="legend reactive activate-serie" id="activate-serie-2"><rect class="color-2 reactive" height="12" width="12" x="0.0" y="22.0"/><text x="17.0" y="32.2">Career Average</text></g></g></g></svg>