<?xml version='1.0' encoding='utf-8'?>
<svg xmlns:xlink="http://www.w3.org/1999/xlink" xmlns="http://www.w3.org/2000/svg" id="chart-ffdfe888-e6e9-4073-8f81-231b121567d3" class="pygal-chart" viewBox="0 0 800 600"><!--Generated with pygal 2.4.0 (lxml) ©Kozea 2012-2016 on 2019-08-04--><!--http://pygal.org--><!--http://github.com/Kozea/pygal--><defs><style type="text/css">#chart-ffdfe888-e6e9-4073-8f81-231b121567d3{-webkit-user-select:none;-webkit-font-smoothing:antialiased;font-family:Consolas,"Liberation Mono",Menlo,Courier,monospace}#chart-ffdfe888-e6e9-4073-8f81-231b121567d3 .title{font-family:Consolas,"Liberation Mono",Menlo,Courier,monospace;font-size:16px}#chart-ffdfe888-e6e9-4073-8f81-231b121567d3 .legends .legend text{font-family:Consolas,"Liberation Mono",Menlo,Courier,monospace;font-size:14px}#chart-ffdfe888-e6e9-4073-8f81-231b121567d3 .axis text{font-family:Consolas,"Liberation Mono",Menlo,Courier,monospace;font-size:10px}#chart-ffdfe888-e6e9-4073-8f81-231b121567d3 .axis text.major{font-family:Consolas,"Liberation Mono",Menlo,Courier,monospace;font-size:10px}#chart-ffdfe888-e6e9-4073-8f81-231b121567d3 .text-overlay text.value{font-family:Consolas,"Liberation Mono",Menlo,Courier,monospace;font-size:16px}#chart-ffdfe888-e6e9-4073-8f81-231b121567d3 .text-overlay text.label{font-family:Consolas,"Liberation Mono",Menlo,Courier,monospace;font-size:10px}#chart-ffdfe888-e6e9-4073-8f81-231b121567d3 .tooltip{font-family:Consolas,"Liberation Mono",Menlo,Courier,monospace;font-size:14px}#chart-ffdfe888-e6e9-4073-8f81-231b121567d3 text.no_data{font-family:Consolas,"Liberation Mono",Menlo,Courier,monospace;font-size:64px}
#chart-ffdfe888-e6e9-4073-8f81-231b121567d3{background-color:rgba(249,249,249,1)}#chart-ffdfe888-e6e9-4073-8f81-231b121567d3 path,#chart-ffdfe888-e6e9-4073-8f81-231b121567d3 line,#chart-ffdfe888-e6e9-4073-8f81-231b121567d3 rect,#chart-ffdfe888-e6e9-4073-8f81-231b121567d3 circle{-webkit-transition:150ms;-moz-transition:150ms;transition:150ms}#chart-ffdfe888-e6e9-4073-8f81-231b121567d3 .graph &gt; .background{fill:rgba(249,249,249,1)}#chart-ffdfe888-e6e9-4073-8f81-231b121567d3 .plot &gt; .background{fill:rgba(255,255,255,1)}#chart-ffdfe888-e6e9-4073-8f81-231b121567d3 .graph{fill:rgba(0,0,0,.87)}#chart-ffdfe888-e6e9-4073-8f81-231b121567d3 text.no_data{fill:rgba(0,0,0,1)}#chart-ffdfe888-e6e9-4073-8f81-231b121567d3 .title{fill:rgba(0,0,0,1)}#chart-ffdfe888-e6e9-4073-8f81-231b121567d3 .legends .legend text{fill:rgba(0,0,0,.87)}#chart-ffdfe888-e6e9-4073-8f81-231b121567d3 .legends .legend:hover text{fill:rgba(0,0,0,1)}#chart-ffdfe888-e6e9-4073-8f81-231b121567d3 .axis .line{stroke:rgba(0,0,0,1)}#chart-ffdfe888-e6e9-4073-8f81-231b121567d3 .axis .guide.line{stroke:rgba(0,0,0,.54)}#chart-ffdfe888-e6e9-4073-8f81-231b121567d3 .axis .major.line{stroke:rgba(0,0,0,.87)}#chart-ffdfe888-e6e9-4073-8f81-231b121567d3 .axis text.major{fill:rgba(0,0,0,1)}#chart-ffdfe888-e6e9-4073-8f81-231b121567d3 .axis.y .guides:hover .guide.line,#chart-ffdfe888-e6e9-4073-8f81-231b121567d3 .line-graph .axis.x .guides:hover .guide.line,#chart-ffdfe888-e6e9-4073-8f81-231b121567d3 .stackedline-graph .axis.x .guides:hover .guide.line,#chart-ffdfe888-e6e9-4073-8f81-231b121567d3 .xy-graph .axis.x .guides:hover .guide.line{stroke:rgba(0,0,0,1)}#chart-ffdfe888-e6e9-4073-8f81-231b121567d3 .axis .guides:hover text{fill:rgba(0,0,0,1)}#chart-ffdfe888-e6e9-4073-8f81-231b121567d3 .reactive{fill-opacity:.7;stroke-opacity:.8}#chart-ffdfe888-e6e9-4073-8f81-231b121567d3 .ci{stroke:rgba(0,0,0,.87)}#chart-ffdfe888-e6e9-4073-8f81-231b121567d3 .reactive.active,#chart-ffdfe888-e6e9-4073-8f81-231b121567d3 .active .reactive{fill-opacity:.8;stroke-opacity:.9;stroke-width:4}#chart-ffdfe888-e6e9-4073-8f81-231b121567d3 .ci .reactive.active{stroke-width:1.5}#chart-ffdfe888-e6e9-4073-8f81-231b121567d3 .series text{fill:rgba(0,0,0,1)}#chart-ffdfe888-e6e9-4073-8f81-231b121567d3 .tooltip rect{fill:rgba(255,255,255,1);stroke:rgba(0,0,0,1);-webkit-transition:opacity 150ms;-moz-transition:opacity 150ms;transition:opacity 150ms}#chart-ffdfe888-e6e9-4073-8f81-231b121567d3 .tooltip .label{fill:rgba(0,0,0,.87)}#chart-ffdfe888-e6e9-4073-8f81-231b121567d3 .tooltip .label{fill:rgba(0,0,0,.87)}#chart-ffdfe888-e6e9-4073-8f81-231b121567d3 .tooltip .legend{font-size:.8em;fill:rgba(0,0,0,.54)}#chart-ffdfe888-e6e9-4073-8f81-231b121567d3 .tooltip .x_label{font-size:.6em;fill:rgba(0,0,0,1)}#chart-ffdfe888-e6e9-4073-8f81-231b121567d3 .tooltip .xlink{font-size:.5em;text-decoration:underline}#chart-ffdfe888-e6e9-4073-8f81-231b121567d3 .tooltip .value{font-size:1.5em}#chart-ffdfe888-e6e9-4073-8f81-231b121567d3 .bound{font-size:.5em}#chart-ffdfe888-e6e9-4073-8f81-231b121567d3 .max-value{font-size:.75em;fill:rgba(0,0,0,.54)}#chart-ffdfe888-e6e9-4073-8f81-231b121567d3 .map-element{fill:rgba(255,255,255,1);stroke:rgba(0,0,0,.54) !important}#chart-ffdfe888-e6e9-4073-8f81-231b121567d3 .map-element .reactive{fill-opacity:inherit;stroke-opacity:inherit}#chart-ffdfe888-e6e9-4073-8f81-231b121567d3 .color-0,#chart-ffdfe888-e6e9-4073-8f81-231b121567d3 .color-0 a:visited{stroke:red;fill:red}#chart-ffdfe888-e6e9-4073-8f81-231b121567d3 .color-1,#chart-ffdfe888-e6e9-4073-8f81-231b121567d3 .color-1 a:visited{stroke:blue;fill:blue}#chart-ffdfe888-e6e9-4073-8f81-231b121567d3 .color-2,#chart-ffdfe888-e6e9-4073-8f81-231b121567d3 .color-2 a:visited{stroke:green;fill:green}#chart-ffdfe888-e6e9-4073-8f81-231b121567d3 .text-overlay .color-0 text{fill:white}#chart-ffdfe888-e6e9-4073-8f81-231b121567d3 .text-overlay .color-1 text{fill:white}#chart-ffdfe888-e6e9-4073-8f81-231b121567d3 .text-overlay .color-2 text{fill:white}
#chart-ffdfe888-e6e9-4073-8f81-231b121567d3 text.no_data{text-anchor:middle}#chart-ffdfe888-e6e9-4073-8f81-231b121567d3 .guide.line{fill:none}#chart-ffdfe888-e6e9-4073-8f81-231b121567d3 .centered{text-anchor:middle}#chart-ffdfe888-e6e9-4073-8f81-231b121567d3 .title{text-anchor:middle}#chart-ffdfe888-e6e9-4073-8f81-231b121567d3 .legends .legend text{fill-opacity:1}#chart-ffdfe888-e6e9-4073-8f81-231b121567d3 .axis.x text{text-anchor:middle}#chart-ffdfe888-e6e9-4073-8f81-231b121567d3 .axis.x:not(.web) text[transform]{text-anchor:start}#chart-ffdfe888-e6e9-4073-8f81-231b121567d3 .axis.x:not(.web) text[transform].backwards{text-anchor:end}#chart-ffdfe888-e6e9-4073-8f81-231b121567d3 .axis.y text{text-anchor:end}#chart-ffdfe888-e6e9-4073-8f81-231b121567d3 .axis.y text[transform].backwards{text-anchor:start}#chart-ffdfe888-e6e9-4073-8f81-231b121567d3 .axis.y2 text{text-anchor:start}#chart-ffdfe888-e6e9-4073-8f81-231b121567d3 .axis.y2 text[transform].backwards{text-anchor:end}#chart-ffdfe888-e6e9-4073-8f81-231b121567d3 .axis .guide.line{stroke-dasharray:4,4}#chart-ffdfe888-e6e9-4073-8f81-231b121567d3 .axis .major.guide.line{stroke-dasharray:6,6}#chart-ffdfe888-e6e9-4073-8f81-231b121567d3 .horizontal .axis.y .guide.line,#chart-ffdfe888-e6e9-4073-8f81-231b121567d3 .horizontal .axis.y2 .guide.line,#chart-ffdfe888-e6e9-4073-8f81-231b121567d3 .vertical .axis.x .guide.line{opacity:0}#chart-ffdfe888-e6e9-4073-8f81-231b121567d3 .horizontal .axis.always_show .guide.line,#chart-ffdfe888-e6e9-4073-8f81-231b121567d3 .vertical .axis.always_show .guide.line{opacity:1 !important}#chart-ffdfe888-e6e9-4073-8f81-231b121567d3 .axis.y .guides:hover .guide.line,#chart-ffdfe888-e6e9-4073-8f81-231b121567d3 .axis.y2 .guides:hover .guide.line,#chart-ffdfe888-e6e9-4073-8f81-231b121567d3 .axis.x .guides:hover .guide.line{opacity:1}#chart-ffdfe888-e6e9-4073-8f81-231b121567d3 .axis .guides:hover text{opacity:1}#chart-ffdfe888-e6e9-4073-8f81-231b121567d3 .nofill{fill:none}#chart-ffdfe888-e6e9-4073-8f81-231b121567d3 .subtle-fill{fill-opacity:.2}#chart-ffdfe888-e6e9-4073-8f81-231b121567d3 .dot{stroke-width:1px;fill-opacity:1}#chart-ffdfe888-e6e9-4073-8f81-231b121567d3 .dot.active{stroke-width:5px}#chart-ffdfe888-e6e9-4073-8f81-231b121567d3 .dot.negative{fill:transparent}#chart-ffdfe888-e6e9-4073-8f81-231b121567d3 text,#chart-ffdfe888-e6e9-4073-8f81-231b121567d3 tspan{stroke:none !important}#chart-ffdfe888-e6e9-4073-8f81-231b121567d3 .series text.active{opacity:1}#chart-ffdfe888-e6e9-4073-8f81-231b121567d3 .tooltip rect{fill-opacity:.95;stroke-width:.5}#chart-ffdfe888-e6e9-4073-8f81-231b121567d3 .tooltip text{fill-opacity:1}#chart-ffdfe888-e6e9-4073-8f81-231b121567d3 .showable{visibility:hidden}#chart-ffdfe888-e6e9-4073-8f81-231b121567d3 .showable.shown{visibility:visible}#chart-ffdfe888-e6e9-4073-8f81-231b121567d3 .gauge-background{fill:rgba(229,229,229,1);stroke:none}#chart-ffdfe888-e6e9-4073-8f81-231b121567d3 .bg-lines{stroke:rgba(249,249,249,1);stroke-width:2px}</style><script type="text/javascript">window.pygal = window.pygal || {};window.pygal.config = window.pygal.config || {};window.pygal.config['ffdfe888-e6e9-4073-8f81-231b121567d3'] = {"allow_interruptions": false, "box_mode": "extremes", "classes": ["pygal-chart"], "css": ["file://style.css", "file://graph.css"], "defs": [], "disable_xml_declaration": false, "dots_size": 2.5, "dynamic_print_values": false, "explicit_size": false, "fill": false, "force_uri_protocol": "https", "formatter": null, "half_pie": false, "height": 600, "include_x_axis": false, "inner_radius": 0, "interpolate": null, "interpolation_parameters": {}, "interpolation_precision": 250, "inverse_y_axis": false, "js": ["//kozea.github.io/pygal.js/2.0.x/pygal-tooltips.min.js"], "legend_at_bottom": true, "legend_at_bottom_columns": null, "legend_box_size": 12, "logarithmic": false, "margin": 20, "margin_bottom": null, "margin_left": null, "margin_right": null, "margin_top": null, "max_scale": 16, "min_scale": 4, "missing_value_fill_truncation": "x", "no_data_text": "No data", "no_prefix": false, "order_min": null, "pretty_print": false, "print_labels": false, "print_values": false, "print_values_position": "center", "print_zeroes": true, "range": null, "rounded_bars": null, "secondary_range": null, "show_dots": true, "show_legend": true, "show_minor_x_labels": false, "show_minor_y_labels": true, "show_only_major_dots": false, "show_x_guides": false, "show_x_labels": true, "show_y_guides": true, "show_y_labels": true, "spacing": 10, "stack_from_top": false, "strict": false, "stroke": true, "stroke_style": null, "style": {"background": "rgba(249, 249, 249, 1)", "ci_colors": [], "colors": ["red", "blue", "green", "#a3a3a3"], "font_family": "Consolas, \"Liberation Mono\", Menlo, Courier, monospace", "foreground": "rgba(0, 0, 0, .87)", "foreground_strong": "rgba(0, 0, 0, 1)", "foreground_subtle": "rgba(0, 0, 0, .54)", "guide_stroke_dasharray": "4,4", "label_font_family": "Consolas, \"Liberation Mono\", Menlo, Courier, monospace", "label_font_size": 10, "legend_font_family": "Consolas, \"Liberation Mono\", Menlo, Courier, monospace", "legend_font_size": 14, "major_guide_stroke_dasharray": "6,6", "major_label_font_family": "Consolas, \"Liberation Mono\", Menlo, Courier, monospace", "major_label_font_size": 10, "no_data_font_family": "Consolas, \"Liberation Mono\", Menlo, Courier, monospace", "no_data_font_size": 64, "opacity": ".7", "opacity_hover": ".8", "plot_background": "rgba(255, 255, 255, 1)", "stroke_opacity": ".8", "stroke_opacity_hover": ".9", "title_font_family": "Consolas, \"Liberation Mono\", Menlo, Courier, monospace", "title_font_size": 16, "tooltip_font_family": "Consolas, \"Liberation Mono\", Menlo, Courier, monospace", "tooltip_font_size": 14, "transition": "150ms", "value_background": "rgba(229, 229, 229, 1)", "value_colors": [], "value_font_family": "Consolas, \"Liberation Mono\", Menlo, Courier, monospace", "value_font_size": 16, "value_label_font_family": "Consolas, \"Liberation Mono\", Menlo, Courier, monospace", "value_label_font_size": 10}, "title": "Mohammad Rafique: Future and Past Averages in ODIs", "tooltip_border_radius": 10, "tooltip_fancy_mode": true, "truncate_label": null, "truncate_legend": null, "width": 800, "x_label_rotation": 45, "x_labels": ["1995", "0", "1997", "0", "0", "0", "1998", "0", "0", "0", "0", "0", "1999", "0", "0", "0", "0", "0", "2000", "0", "0", "2001", "0", "0", "0", "0", "2002", "0", "0", "0", "0", "0", "0", "0", "2003", "0", "0", "0", "0", "0", "0", "0", "0", "0", "0", "0", "0", "0", "0", "0", "0", "0", "0", "2004", "0", "0", "0", "0", "0", "0", "0", "0", "0", "0", "0", "0", "0", "0", "0", "0", "2005", "0", "0", "0", "0", "0", "0", "0", "0", "0", "0", "2006", "0", "0", "0", "0", "0", "0", "0", "0", "0", "0", "0", "0", "0", "0", "0", "0", "0", "0", "0", "0", "0", "0", "0", "0", "0", "2007", "0", "0", "0", "0", "0", "0", "0", "0", "0", "0", "0", "0", "0", "0", "0", "0"], "x_labels_major": ["1995", "1997", "1998", "1999", "2000", "2001", "2002", "2003", "2004", "2005", "2006", "2007"], "x_labels_major_count": null, "x_labels_major_every": null, "x_title": null, "xrange": null, "y_label_rotation": 0, "y_labels": null, "y_labels_major": null, "y_labels_major_count": null, "y_labels_major_every": null, "y_title": null, "zero": 60.0, "legends": ["Future Average", "Past Average", "Career Average"]}</script><script type="text/javascript" xlink:href="https://kozea.github.io/pygal.js/2.0.x/pygal-tooltips.min.js"/></defs><title>Mohammad Rafique: Future and Past Averages in ODIs</title><g class="graph line-graph vertical"><rect class="background" height="600" width="800" x="0" y="0"/><g class="plot" transform="translate(42, 46)"><rect class="background" height="462.02943725152284" width="738.0" x="0" y="0"/><g class="axis y always_show"><g class="guides"><path class="axis major line" d="M0.000000 453.144256 h738.000000"/><text class="major" x="-5" y="456.6442557659166">0</text><title>0</title></g><g class="guides"><path class="guide line" d="M0.000000 369.652605 h738.000000"/><text class="" x="-5" y="373.1526048957211">10</text><title>10</title></g><g class="guides"><path class="guide line" d="M0.000000 286.160954 h738.000000"/><text class="" x="-5" y="289.6609540255256">20</text><title>20</title></g><g class="guides"><path class="guide line" d="M0.000000 202.669303 h738.000000"/><text class="" x="-5" y="206.16930315533006">30</text><title>30</title></g><g class="guides"><path class="guide line" d="M0.000000 119.177652 h738.000000"/><text class="" x="-5" y="122.67765228513451">40</text><title>40</title></g><g class="guides"><path class="major guide line" d="M0.000000 35.686001 h738.000000"/><text class="major" x="-5" y="39.18600141493897">50</text><title>50</title></g></g><g class="axis x"><g class="guides"><path class="major line" d="M14.192308 0.000000 v462.029437"/><text class="major" x="14.192307692307692" y="477.02943725152284" transform="rotate(45 14.192308 477.029437)">1995</text></g><g class="guides"><path class="major guide line" d="M25.730769 0.000000 v462.029437"/><text class="major" x="25.73076923076923" y="477.02943725152284" transform="rotate(45 25.730769 477.029437)">1997</text></g><g class="guides"><path class="major guide line" d="M48.807692 0.000000 v462.029437"/><text class="major" x="48.807692307692314" y="477.02943725152284" transform="rotate(45 48.807692 477.029437)">1998</text></g><g class="guides"><path class="major guide line" d="M83.423077 0.000000 v462.029437"/><text class="major" x="83.42307692307692" y="477.02943725152284" transform="rotate(45 83.423077 477.029437)">1999</text></g><g class="guides"><path class="major guide line" d="M118.038462 0.000000 v462.029437"/><text class="major" x="118.03846153846152" y="477.02943725152284" transform="rotate(45 118.038462 477.029437)">2000</text></g><g class="guides"><path class="major guide line" d="M135.346154 0.000000 v462.029437"/><text class="major" x="135.34615384615384" y="477.02943725152284" transform="rotate(45 135.346154 477.029437)">2001</text></g><g class="guides"><path class="major guide line" d="M164.192308 0.000000 v462.029437"/><text class="major" x="164.19230769230768" y="477.02943725152284" transform="rotate(45 164.192308 477.029437)">2002</text></g><g class="guides"><path class="major guide line" d="M210.346154 0.000000 v462.029437"/><text class="major" x="210.34615384615387" y="477.02943725152284" transform="rotate(45 210.346154 477.029437)">2003</text></g><g class="guides"><path class="major guide line" d="M319.961538 0.000000 v462.029437"/><text class="major" x="319.9615384615385" y="477.02943725152284" transform="rotate(45 319.961538 477.029437)">2004</text></g><g class="guides"><path class="major guide line" d="M418.038462 0.000000 v462.029437"/><text class="major" x="418.0384615384615" y="477.02943725152284" transform="rotate(45 418.038462 477.029437)">2005</text></g><g class="guides"><path class="major guide line" d="M481.500000 0.000000 v462.029437"/><text class="major" x="481.50000000000006" y="477.02943725152284" transform="rotate(45 481.500000 477.029437)">2006</text></g><g class="guides"><path class="major guide line" d="M631.500000 0.000000 v462.029437"/><text class="major" x="631.5" y="477.02943725152284" transform="rotate(45 631.500000 477.029437)">2007</text></g></g><g class="series serie-0 color-0"><path class="line reactive nofill" d="M14.192308 136.627407 L19.961538 135.041066 25.730769 133.287741 31.500000 135.542016 37.269231 136.209949 43.038462 135.458524 48.807692 136.543916 54.576923 136.794391 60.346154 138.046765 66.115385 140.551515 71.884615 136.460424 77.653846 134.122658 83.423077 129.948075 89.192308 133.788691 94.961538 137.211849 100.730769 141.803890 106.500000 145.060064 112.269231 143.891181 118.038462 143.223248 123.807692 143.640706 129.576923 147.314339 135.346154 147.815289 141.115385 146.813389 146.884615 150.320038 152.653846 153.910179 158.423077 153.075263 164.192308 159.671103 169.961538 159.754595 175.730769 158.251745 181.500000 160.839986 187.269231 160.589511 193.038462 160.923478 198.807692 161.758394 204.576923 165.265044 210.346154 166.099960 216.115385 166.099960 221.884615 168.020268 227.653846 171.777392 233.423077 173.530717 239.192308 173.614209 244.961538 175.284042 250.730769 173.113259 256.500000 170.858984 262.269231 174.699600 268.038462 172.278342 273.807692 174.950075 279.576923 171.526917 285.346154 176.786891 291.115385 174.699600 296.884615 171.443426 302.653846 172.194851 308.423077 175.367533 314.192308 179.375133 319.961538 182.798290 325.730769 179.458624 331.500000 179.625608 337.269231 183.299240 343.038462 185.553515 348.807692 186.889381 354.576923 182.297340 360.346154 184.301140 366.115385 184.050665 371.884615 188.726197 377.653846 189.728097 383.423077 196.908379 389.192308 196.574413 394.961538 196.073463 400.730769 188.726197 406.500000 189.644606 412.269231 188.893181 418.038462 192.900780 423.807692 180.377032 429.576923 175.951975 435.346154 181.545915 441.115385 185.970973 446.884615 193.652205 452.653846 201.082962 458.423077 198.745196 464.192308 205.174053 469.961538 210.100060 475.730769 208.430227 481.500000 211.185452 487.269231 203.504220 493.038462 200.164554 498.807692 194.821088 504.576923 190.062064 510.346154 188.976672 516.115385 165.181552 521.884615 162.509819 527.653846 165.682502 533.423077 166.684402 539.192308 173.196750 544.961538 176.870383 550.730769 166.266943 556.500000 178.373233 562.269231 177.621808 568.038462 186.722398 573.807692 183.299240 579.576923 192.399830 585.346154 188.225248 591.115385 189.728097 596.884615 201.500420 602.653846 190.896980 608.423077 181.629407 614.192308 170.358034 619.961538 185.970973 625.730769 184.468123 631.500000 167.185352 637.269231 167.101860 643.038462 179.792591 648.807692 166.350435 654.576923 190.396030 660.346154 154.995571 666.115385 162.843786 671.884615 151.154955 677.653846 165.765993 683.423077 191.564914 689.192308 184.468123 694.961538 155.329537 700.730769 194.320138 706.500000 236.984372 712.269231 280.567013 718.038462 276.392431 723.807692 317.470323"/></g><g class="series serie-1 color-1"><path class="line reactive nofill" d="M14.192308 453.144256 L19.961538 327.906779 25.730769 272.217848 31.500000 169.272643 37.269231 145.894981 43.038462 156.164454 48.807692 138.297240 54.576923 133.788691 60.346154 115.003070 66.115385 78.433727 71.884615 138.130257 77.653846 157.750795 83.423077 185.386531 89.192308 157.583812 94.961538 131.951875 100.730769 98.555215 106.500000 74.676602 112.269231 86.782892 118.038462 94.631107 123.807692 95.048565 129.576923 72.756294 135.346154 73.925178 141.115385 82.858784 146.884615 64.490621 152.653846 45.705000 158.423077 55.139556 164.192308 22.577812 169.961538 28.088261 175.730769 40.778992 181.500000 29.173653 187.269231 35.686001 193.038462 39.359634 198.807692 40.862484 204.576923 27.670803 210.346154 29.507619 216.115385 34.517118 221.884615 27.921278 227.653846 14.813089 233.423077 8.885181 239.192308 14.061664 244.961538 14.228647 250.730769 30.509519 256.500000 45.037066 262.269231 34.684102 268.038462 44.953575 273.807692 38.107259 279.576923 53.553215 285.346154 41.112959 291.115385 52.634807 296.884615 65.242046 302.653846 66.327437 308.423077 62.653805 314.192308 55.139556 319.961538 48.460224 325.730769 60.399530 331.500000 62.737296 337.269231 56.391931 343.038462 52.551315 348.807692 50.213549 354.576923 63.321738 360.346154 62.570313 366.115385 65.409029 371.884615 58.395730 377.653846 56.892881 383.423077 46.205949 389.192308 49.629107 394.961538 53.219248 400.730769 72.338836 406.500000 73.340736 412.269231 78.099760 418.038462 75.595011 423.807692 94.881582 429.576923 101.477422 435.346154 96.384432 441.115385 92.460324 446.884615 85.614009 452.653846 78.934677 458.423077 84.528617 464.192308 79.185152 469.961538 76.930877 475.730769 82.023868 481.500000 79.936576 487.269231 88.953675 493.038462 94.213649 498.807692 101.477422 504.576923 106.570413 510.346154 108.156754 516.115385 123.602710 521.884615 125.690001 527.653846 124.354135 533.423077 124.437626 539.192308 121.765893 544.961538 120.930977 550.730769 126.023968 556.500000 121.598910 562.269231 122.517318 568.038462 119.344636 573.807692 121.181452 579.576923 118.175752 585.346154 120.346535 591.115385 120.597010 596.884615 117.006869 602.653846 121.682402 608.423077 125.356034 614.192308 129.029667 619.961538 125.439526 625.730769 126.357934 631.500000 130.782992 637.269231 131.116958 643.038462 128.862684 648.807692 131.951875 654.576923 128.111259 660.346154 134.289641 666.115385 133.538216 671.884615 135.041066 677.653846 133.538216 683.423077 130.782992 689.192308 132.035367 694.961538 135.124558 700.730769 132.118858 706.500000 128.862684 712.269231 125.439526 718.038462 129.530617 723.807692 130.616008"/></g><g class="series serie-2 color-2"><path class="line reactive nofill" d="M14.192308 136.627407 L19.961538 136.627407 25.730769 136.627407 31.500000 136.627407 37.269231 136.627407 43.038462 136.627407 48.807692 136.627407 54.576923 136.627407 60.346154 136.627407 66.115385 136.627407 71.884615 136.627407 77.653846 136.627407 83.423077 136.627407 89.192308 136.627407 94.961538 136.627407 100.730769 136.627407 106.500000 136.627407 112.269231 136.627407 118.038462 136.627407 123.807692 136.627407 129.576923 136.627407 135.346154 136.627407 141.115385 136.627407 146.884615 136.627407 152.653846 136.627407 158.423077 136.627407 164.192308 136.627407 169.961538 136.627407 175.730769 136.627407 181.500000 136.627407 187.269231 136.627407 193.038462 136.627407 198.807692 136.627407 204.576923 136.627407 210.346154 136.627407 216.115385 136.627407 221.884615 136.627407 227.653846 136.627407 233.423077 136.627407 239.192308 136.627407 244.961538 136.627407 250.730769 136.627407 256.500000 136.627407 262.269231 136.627407 268.038462 136.627407 273.807692 136.627407 279.576923 136.627407 285.346154 136.627407 291.115385 136.627407 296.884615 136.627407 302.653846 136.627407 308.423077 136.627407 314.192308 136.627407 319.961538 136.627407 325.730769 136.627407 331.500000 136.627407 337.269231 136.627407 343.038462 136.627407 348.807692 136.627407 354.576923 136.627407 360.346154 136.627407 366.115385 136.627407 371.884615 136.627407 377.653846 136.627407 383.423077 136.627407 389.192308 136.627407 394.961538 136.627407 400.730769 136.627407 406.500000 136.627407 412.269231 136.627407 418.038462 136.627407 423.807692 136.627407 429.576923 136.627407 435.346154 136.627407 441.115385 136.627407 446.884615 136.627407 452.653846 136.627407 458.423077 136.627407 464.192308 136.627407 469.961538 136.627407 475.730769 136.627407 481.500000 136.627407 487.269231 136.627407 493.038462 136.627407 498.807692 136.627407 504.576923 136.627407 510.346154 136.627407 516.115385 136.627407 521.884615 136.627407 527.653846 136.627407 533.423077 136.627407 539.192308 136.627407 544.961538 136.627407 550.730769 136.627407 556.500000 136.627407 562.269231 136.627407 568.038462 136.627407 573.807692 136.627407 579.576923 136.627407 585.346154 136.627407 591.115385 136.627407 596.884615 136.627407 602.653846 136.627407 608.423077 136.627407 614.192308 136.627407 619.961538 136.627407 625.730769 136.627407 631.500000 136.627407 637.269231 136.627407 643.038462 136.627407 648.807692 136.627407 654.576923 136.627407 660.346154 136.627407 666.115385 136.627407 671.884615 136.627407 677.653846 136.627407 683.423077 136.627407 689.192308 136.627407 694.961538 136.627407 700.730769 136.627407 706.500000 136.627407 712.269231 136.627407 718.038462 136.627407 723.807692 136.627407"/></g></g><g class="titles"><text class="title plot_title" x="400.0" y="26">Mohammad Rafique: Future and Past Averages in ODIs</text></g><g class="plot overlay" transform="translate(42, 46)"><g class="series serie-0 color-0"><g class="dots"><desc class="label">125 wickets in 124 innings (1069.0 overs)</desc><circle class="dot reactive tooltip-trigger" cx="14.192307692307692" cy="136.6274073170054" r="2.5"/><desc class="value">37.91</desc><desc class="x ">14.192307692307692</desc><desc class="y ">136.6274073170054</desc><desc class="x_label">1995</desc></g><g class="dots"><desc class="label">122 wickets in 122 innings (1055.2 overs)</desc><circle class="dot reactive tooltip-trigger" cx="25.73076923076923" cy="133.28774128219754" r="2.5"/><desc class="value">38.31</desc><desc class="x ">25.73076923076923</desc><desc class="y ">133.28774128219754</desc><desc class="x_label">1997</desc></g><g class="dots"><desc class="label">118 wickets in 118 innings (1021.2 overs)</desc><circle class="dot reactive tooltip-trigger" cx="48.807692307692314" cy="136.54391566613515" r="2.5"/><desc class="value">37.92</desc><desc class="x ">48.807692307692314</desc><desc class="y ">136.54391566613515</desc><desc class="x_label">1998</desc></g><g class="dots"><desc class="label">110 wickets in 112 innings (969.2 overs)</desc><circle class="dot reactive tooltip-trigger" cx="83.42307692307692" cy="129.94807524738974" r="2.5"/><desc class="value">38.71</desc><desc class="x ">83.42307692307692</desc><desc class="y ">129.94807524738974</desc><desc class="x_label">1999</desc></g><g class="dots"><desc class="label">108 wickets in 106 innings (923.5 overs)</desc><circle class="dot reactive tooltip-trigger" cx="118.03846153846152" cy="143.22324773575087" r="2.5"/><desc class="value">37.12</desc><desc class="x ">118.03846153846152</desc><desc class="y ">143.22324773575087</desc><desc class="x_label">2000</desc></g><g class="dots"><desc class="label">106 wickets in 103 innings (896.5 overs)</desc><circle class="dot reactive tooltip-trigger" cx="135.34615384615384" cy="147.81528853361158" r="2.5"/><desc class="value">36.57</desc><desc class="x ">135.34615384615384</desc><desc class="y ">147.81528853361158</desc><desc class="x_label">2001</desc></g><g class="dots"><desc class="label">104 wickets in 98 innings (850.5 overs)</desc><circle class="dot reactive tooltip-trigger" cx="164.19230769230768" cy="159.67110295717936" r="2.5"/><desc class="value">35.15</desc><desc class="x ">164.19230769230768</desc><desc class="y ">159.67110295717936</desc><desc class="x_label">2002</desc></g><g class="dots"><desc class="label">98 wickets in 90 innings (782.5 overs)</desc><circle class="dot reactive tooltip-trigger" cx="210.34615384615387" cy="166.09996007418437" r="2.5"/><desc class="value">34.38</desc><desc class="x ">210.34615384615387</desc><desc class="y ">166.09996007418437</desc><desc class="x_label">2003</desc></g><g class="dots"><desc class="label">82 wickets in 71 innings (631.4 overs)</desc><circle class="dot reactive tooltip-trigger" cx="319.9615384615385" cy="182.7982902482235" r="2.5"/><desc class="value">32.38</desc><desc class="x ">319.9615384615385</desc><desc class="y ">182.7982902482235</desc><desc class="x_label">2004</desc></g><g class="dots"><desc class="label">65 wickets in 54 innings (483.4 overs)</desc><circle class="dot reactive tooltip-trigger" cx="418.0384615384615" cy="192.90078000351713" r="2.5"/><desc class="value">31.17</desc><desc class="x left">418.0384615384615</desc><desc class="y left">192.90078000351713</desc><desc class="x_label">2005</desc></g><g class="dots"><desc class="label">54 wickets in 43 innings (387.4 overs)</desc><circle class="dot reactive tooltip-trigger" cx="481.50000000000006" cy="211.18545154408997" r="2.5"/><desc class="value">28.98</desc><desc class="x left">481.50000000000006</desc><desc class="y left">211.18545154408997</desc><desc class="x_label">2006</desc></g><g class="dots"><desc class="label">20 wickets in 17 innings (148.1 overs)</desc><circle class="dot reactive tooltip-trigger" cx="631.5" cy="167.18535153549698" r="2.5"/><desc class="value">34.25</desc><desc class="x left">631.5</desc><desc class="y left">167.18535153549698</desc><desc class="x_label">2007</desc></g></g><g class="series serie-1 color-1"><g class="dots"><desc class="label">0 wickets over 0 innings</desc><circle class="dot reactive tooltip-trigger" cx="14.192307692307692" cy="453.1442557659166" r="2.5"/><desc class="value">0</desc><desc class="x top">14.192307692307692</desc><desc class="y top">453.1442557659166</desc><desc class="x_label">1995</desc></g><g class="dots"><desc class="label">3 wickets in 2 innings (13.4 overs)</desc><circle class="dot reactive tooltip-trigger" cx="25.73076923076923" cy="272.2178483302029" r="2.5"/><desc class="value">21.67</desc><desc class="x top">25.73076923076923</desc><desc class="y top">272.2178483302029</desc><desc class="x_label">1997</desc></g><g class="dots"><desc class="label">7 wickets in 6 innings (47.4 overs)</desc><circle class="dot reactive tooltip-trigger" cx="48.807692307692314" cy="138.2972403344093" r="2.5"/><desc class="value">37.71</desc><desc class="x ">48.807692307692314</desc><desc class="y ">138.2972403344093</desc><desc class="x_label">1998</desc></g><g class="dots"><desc class="label">15 wickets in 12 innings (99.4 overs)</desc><circle class="dot reactive tooltip-trigger" cx="83.42307692307692" cy="185.38653142519956" r="2.5"/><desc class="value">32.07</desc><desc class="x ">83.42307692307692</desc><desc class="y ">185.38653142519956</desc><desc class="x_label">1999</desc></g><g class="dots"><desc class="label">17 wickets in 18 innings (145.1 overs)</desc><circle class="dot reactive tooltip-trigger" cx="118.03846153846152" cy="94.631106929297" r="2.5"/><desc class="value">42.94</desc><desc class="x ">118.03846153846152</desc><desc class="y ">94.631106929297</desc><desc class="x_label">2000</desc></g><g class="dots"><desc class="label">19 wickets in 21 innings (172.1 overs)</desc><circle class="dot reactive tooltip-trigger" cx="135.34615384615384" cy="73.9251775134885" r="2.5"/><desc class="value">45.42</desc><desc class="x ">135.34615384615384</desc><desc class="y ">73.9251775134885</desc><desc class="x_label">2001</desc></g><g class="dots"><desc class="label">21 wickets in 26 innings (218.1 overs)</desc><circle class="dot reactive tooltip-trigger" cx="164.19230769230768" cy="22.577812228318294" r="2.5"/><desc class="value">51.57</desc><desc class="x ">164.19230769230768</desc><desc class="y ">22.577812228318294</desc><desc class="x_label">2002</desc></g><g class="dots"><desc class="label">27 wickets in 34 innings (286.1 overs)</desc><circle class="dot reactive tooltip-trigger" cx="210.34615384615387" cy="29.50761925054445" r="2.5"/><desc class="value">50.74</desc><desc class="x ">210.34615384615387</desc><desc class="y ">29.50761925054445</desc><desc class="x_label">2003</desc></g><g class="dots"><desc class="label">43 wickets in 53 innings (437.2 overs)</desc><circle class="dot reactive tooltip-trigger" cx="319.9615384615385" cy="48.4602239980789" r="2.5"/><desc class="value">48.47</desc><desc class="x ">319.9615384615385</desc><desc class="y ">48.4602239980789</desc><desc class="x_label">2004</desc></g><g class="dots"><desc class="label">60 wickets in 70 innings (585.2 overs)</desc><circle class="dot reactive tooltip-trigger" cx="418.0384615384615" cy="75.59501053089247" r="2.5"/><desc class="value">45.22</desc><desc class="x left">418.0384615384615</desc><desc class="y left">75.59501053089247</desc><desc class="x_label">2005</desc></g><g class="dots"><desc class="label">71 wickets in 81 innings (681.2 overs)</desc><circle class="dot reactive tooltip-trigger" cx="481.50000000000006" cy="79.93657637614257" r="2.5"/><desc class="value">44.7</desc><desc class="x left">481.50000000000006</desc><desc class="y left">79.93657637614257</desc><desc class="x_label">2006</desc></g><g class="dots"><desc class="label">105 wickets in 107 innings (920.5 overs)</desc><circle class="dot reactive tooltip-trigger" cx="631.5" cy="130.7829917560917" r="2.5"/><desc class="value">38.61</desc><desc class="x left">631.5</desc><desc class="y left">130.7829917560917</desc><desc class="x_label">2007</desc></g></g><g class="series serie-2 color-2"/></g><g class="plot text-overlay" transform="translate(42, 46)"><g class="series serie-0 color-0"/><g class="series serie-1 color-1"/><g class="series serie-2 color-2"/></g><g class="plot tooltip-overlay" transform="translate(42, 46)"><g class="tooltip" style="opacity: 0" transform="translate(0 0)"><rect class="tooltip-box" height="0" rx="10" ry="10" width="0"/><g class="text"/></g></g><g class="legends" transform="translate(52, 545)"><g class="legend reactive activate-serie" id="activate-serie-0"><rect class="color-0 reactive" height="12" width="12" x="0.0" y="1.0"/><text x="17.0" y="11.2">Future Average</text></g><g class="legend reactive activate-serie" id="activate-serie-1"><rect class="color-1 reactive" height="12" width="12" x="369.0" y="1.0"/><text x="386.0" y="11.2">Past Average</text></g><g class="legend reactive activate-serie" id="activate-serie-2"><rect class="color-2 reactive" height="12" width="12" x="0.0" y="22.0"/><text x="17.0" y="32.2">Career Average</text></g></g></g></svg>