<?xml version='1.0' encoding='utf-8'?>
<svg xmlns:xlink="http://www.w3.org/1999/xlink" xmlns="http://www.w3.org/2000/svg" id="chart-b889696f-23ab-4d5e-ae72-fa284432cb19" class="pygal-chart" viewBox="0 0 800 600"><!--Generated with pygal 2.4.0 (lxml) ©Kozea 2012-2016 on 2019-08-04--><!--http://pygal.org--><!--http://github.com/Kozea/pygal--><defs><style type="text/css">#chart-b889696f-23ab-4d5e-ae72-fa284432cb19{-webkit-user-select:none;-webkit-font-smoothing:antialiased;font-family:Consolas,"Liberation Mono",Menlo,Courier,monospace}#chart-b889696f-23ab-4d5e-ae72-fa284432cb19 .title{font-family:Consolas,"Liberation Mono",Menlo,Courier,monospace;font-size:16px}#chart-b889696f-23ab-4d5e-ae72-fa284432cb19 .legends .legend text{font-family:Consolas,"Liberation Mono",Menlo,Courier,monospace;font-size:14px}#chart-b889696f-23ab-4d5e-ae72-fa284432cb19 .axis text{font-family:Consolas,"Liberation Mono",Menlo,Courier,monospace;font-size:10px}#chart-b889696f-23ab-4d5e-ae72-fa284432cb19 .axis text.major{font-family:Consolas,"Liberation Mono",Menlo,Courier,monospace;font-size:10px}#chart-b889696f-23ab-4d5e-ae72-fa284432cb19 .text-overlay text.value{font-family:Consolas,"Liberation Mono",Menlo,Courier,monospace;font-size:16px}#chart-b889696f-23ab-4d5e-ae72-fa284432cb19 .text-overlay text.label{font-family:Consolas,"Liberation Mono",Menlo,Courier,monospace;font-size:10px}#chart-b889696f-23ab-4d5e-ae72-fa284432cb19 .tooltip{font-family:Consolas,"Liberation Mono",Menlo,Courier,monospace;font-size:14px}#chart-b889696f-23ab-4d5e-ae72-fa284432cb19 text.no_data{font-family:Consolas,"Liberation Mono",Menlo,Courier,monospace;font-size:64px}
#chart-b889696f-23ab-4d5e-ae72-fa284432cb19{background-color:rgba(249,249,249,1)}#chart-b889696f-23ab-4d5e-ae72-fa284432cb19 path,#chart-b889696f-23ab-4d5e-ae72-fa284432cb19 line,#chart-b889696f-23ab-4d5e-ae72-fa284432cb19 rect,#chart-b889696f-23ab-4d5e-ae72-fa284432cb19 circle{-webkit-transition:150ms;-moz-transition:150ms;transition:150ms}#chart-b889696f-23ab-4d5e-ae72-fa284432cb19 .graph &gt; .background{fill:rgba(249,249,249,1)}#chart-b889696f-23ab-4d5e-ae72-fa284432cb19 .plot &gt; .background{fill:rgba(255,255,255,1)}#chart-b889696f-23ab-4d5e-ae72-fa284432cb19 .graph{fill:rgba(0,0,0,.87)}#chart-b889696f-23ab-4d5e-ae72-fa284432cb19 text.no_data{fill:rgba(0,0,0,1)}#chart-b889696f-23ab-4d5e-ae72-fa284432cb19 .title{fill:rgba(0,0,0,1)}#chart-b889696f-23ab-4d5e-ae72-fa284432cb19 .legends .legend text{fill:rgba(0,0,0,.87)}#chart-b889696f-23ab-4d5e-ae72-fa284432cb19 .legends .legend:hover text{fill:rgba(0,0,0,1)}#chart-b889696f-23ab-4d5e-ae72-fa284432cb19 .axis .line{stroke:rgba(0,0,0,1)}#chart-b889696f-23ab-4d5e-ae72-fa284432cb19 .axis .guide.line{stroke:rgba(0,0,0,.54)}#chart-b889696f-23ab-4d5e-ae72-fa284432cb19 .axis .major.line{stroke:rgba(0,0,0,.87)}#chart-b889696f-23ab-4d5e-ae72-fa284432cb19 .axis text.major{fill:rgba(0,0,0,1)}#chart-b889696f-23ab-4d5e-ae72-fa284432cb19 .axis.y .guides:hover .guide.line,#chart-b889696f-23ab-4d5e-ae72-fa284432cb19 .line-graph .axis.x .guides:hover .guide.line,#chart-b889696f-23ab-4d5e-ae72-fa284432cb19 .stackedline-graph .axis.x .guides:hover .guide.line,#chart-b889696f-23ab-4d5e-ae72-fa284432cb19 .xy-graph .axis.x .guides:hover .guide.line{stroke:rgba(0,0,0,1)}#chart-b889696f-23ab-4d5e-ae72-fa284432cb19 .axis .guides:hover text{fill:rgba(0,0,0,1)}#chart-b889696f-23ab-4d5e-ae72-fa284432cb19 .reactive{fill-opacity:.7;stroke-opacity:.8}#chart-b889696f-23ab-4d5e-ae72-fa284432cb19 .ci{stroke:rgba(0,0,0,.87)}#chart-b889696f-23ab-4d5e-ae72-fa284432cb19 .reactive.active,#chart-b889696f-23ab-4d5e-ae72-fa284432cb19 .active .reactive{fill-opacity:.8;stroke-opacity:.9;stroke-width:4}#chart-b889696f-23ab-4d5e-ae72-fa284432cb19 .ci .reactive.active{stroke-width:1.5}#chart-b889696f-23ab-4d5e-ae72-fa284432cb19 .series text{fill:rgba(0,0,0,1)}#chart-b889696f-23ab-4d5e-ae72-fa284432cb19 .tooltip rect{fill:rgba(255,255,255,1);stroke:rgba(0,0,0,1);-webkit-transition:opacity 150ms;-moz-transition:opacity 150ms;transition:opacity 150ms}#chart-b889696f-23ab-4d5e-ae72-fa284432cb19 .tooltip .label{fill:rgba(0,0,0,.87)}#chart-b889696f-23ab-4d5e-ae72-fa284432cb19 .tooltip .label{fill:rgba(0,0,0,.87)}#chart-b889696f-23ab-4d5e-ae72-fa284432cb19 .tooltip .legend{font-size:.8em;fill:rgba(0,0,0,.54)}#chart-b889696f-23ab-4d5e-ae72-fa284432cb19 .tooltip .x_label{font-size:.6em;fill:rgba(0,0,0,1)}#chart-b889696f-23ab-4d5e-ae72-fa284432cb19 .tooltip .xlink{font-size:.5em;text-decoration:underline}#chart-b889696f-23ab-4d5e-ae72-fa284432cb19 .tooltip .value{font-size:1.5em}#chart-b889696f-23ab-4d5e-ae72-fa284432cb19 .bound{font-size:.5em}#chart-b889696f-23ab-4d5e-ae72-fa284432cb19 .max-value{font-size:.75em;fill:rgba(0,0,0,.54)}#chart-b889696f-23ab-4d5e-ae72-fa284432cb19 .map-element{fill:rgba(255,255,255,1);stroke:rgba(0,0,0,.54) !important}#chart-b889696f-23ab-4d5e-ae72-fa284432cb19 .map-element .reactive{fill-opacity:inherit;stroke-opacity:inherit}#chart-b889696f-23ab-4d5e-ae72-fa284432cb19 .color-0,#chart-b889696f-23ab-4d5e-ae72-fa284432cb19 .color-0 a:visited{stroke:red;fill:red}#chart-b889696f-23ab-4d5e-ae72-fa284432cb19 .color-1,#chart-b889696f-23ab-4d5e-ae72-fa284432cb19 .color-1 a:visited{stroke:blue;fill:blue}#chart-b889696f-23ab-4d5e-ae72-fa284432cb19 .color-2,#chart-b889696f-23ab-4d5e-ae72-fa284432cb19 .color-2 a:visited{stroke:green;fill:green}#chart-b889696f-23ab-4d5e-ae72-fa284432cb19 .text-overlay .color-0 text{fill:white}#chart-b889696f-23ab-4d5e-ae72-fa284432cb19 .text-overlay .color-1 text{fill:white}#chart-b889696f-23ab-4d5e-ae72-fa284432cb19 .text-overlay .color-2 text{fill:white}
#chart-b889696f-23ab-4d5e-ae72-fa284432cb19 text.no_data{text-anchor:middle}#chart-b889696f-23ab-4d5e-ae72-fa284432cb19 .guide.line{fill:none}#chart-b889696f-23ab-4d5e-ae72-fa284432cb19 .centered{text-anchor:middle}#chart-b889696f-23ab-4d5e-ae72-fa284432cb19 .title{text-anchor:middle}#chart-b889696f-23ab-4d5e-ae72-fa284432cb19 .legends .legend text{fill-opacity:1}#chart-b889696f-23ab-4d5e-ae72-fa284432cb19 .axis.x text{text-anchor:middle}#chart-b889696f-23ab-4d5e-ae72-fa284432cb19 .axis.x:not(.web) text[transform]{text-anchor:start}#chart-b889696f-23ab-4d5e-ae72-fa284432cb19 .axis.x:not(.web) text[transform].backwards{text-anchor:end}#chart-b889696f-23ab-4d5e-ae72-fa284432cb19 .axis.y text{text-anchor:end}#chart-b889696f-23ab-4d5e-ae72-fa284432cb19 .axis.y text[transform].backwards{text-anchor:start}#chart-b889696f-23ab-4d5e-ae72-fa284432cb19 .axis.y2 text{text-anchor:start}#chart-b889696f-23ab-4d5e-ae72-fa284432cb19 .axis.y2 text[transform].backwards{text-anchor:end}#chart-b889696f-23ab-4d5e-ae72-fa284432cb19 .axis .guide.line{stroke-dasharray:4,4}#chart-b889696f-23ab-4d5e-ae72-fa284432cb19 .axis .major.guide.line{stroke-dasharray:6,6}#chart-b889696f-23ab-4d5e-ae72-fa284432cb19 .horizontal .axis.y .guide.line,#chart-b889696f-23ab-4d5e-ae72-fa284432cb19 .horizontal .axis.y2 .guide.line,#chart-b889696f-23ab-4d5e-ae72-fa284432cb19 .vertical .axis.x .guide.line{opacity:0}#chart-b889696f-23ab-4d5e-ae72-fa284432cb19 .horizontal .axis.always_show .guide.line,#chart-b889696f-23ab-4d5e-ae72-fa284432cb19 .vertical .axis.always_show .guide.line{opacity:1 !important}#chart-b889696f-23ab-4d5e-ae72-fa284432cb19 .axis.y .guides:hover .guide.line,#chart-b889696f-23ab-4d5e-ae72-fa284432cb19 .axis.y2 .guides:hover .guide.line,#chart-b889696f-23ab-4d5e-ae72-fa284432cb19 .axis.x .guides:hover .guide.line{opacity:1}#chart-b889696f-23ab-4d5e-ae72-fa284432cb19 .axis .guides:hover text{opacity:1}#chart-b889696f-23ab-4d5e-ae72-fa284432cb19 .nofill{fill:none}#chart-b889696f-23ab-4d5e-ae72-fa284432cb19 .subtle-fill{fill-opacity:.2}#chart-b889696f-23ab-4d5e-ae72-fa284432cb19 .dot{stroke-width:1px;fill-opacity:1}#chart-b889696f-23ab-4d5e-ae72-fa284432cb19 .dot.active{stroke-width:5px}#chart-b889696f-23ab-4d5e-ae72-fa284432cb19 .dot.negative{fill:transparent}#chart-b889696f-23ab-4d5e-ae72-fa284432cb19 text,#chart-b889696f-23ab-4d5e-ae72-fa284432cb19 tspan{stroke:none !important}#chart-b889696f-23ab-4d5e-ae72-fa284432cb19 .series text.active{opacity:1}#chart-b889696f-23ab-4d5e-ae72-fa284432cb19 .tooltip rect{fill-opacity:.95;stroke-width:.5}#chart-b889696f-23ab-4d5e-ae72-fa284432cb19 .tooltip text{fill-opacity:1}#chart-b889696f-23ab-4d5e-ae72-fa284432cb19 .showable{visibility:hidden}#chart-b889696f-23ab-4d5e-ae72-fa284432cb19 .showable.shown{visibility:visible}#chart-b889696f-23ab-4d5e-ae72-fa284432cb19 .gauge-background{fill:rgba(229,229,229,1);stroke:none}#chart-b889696f-23ab-4d5e-ae72-fa284432cb19 .bg-lines{stroke:rgba(249,249,249,1);stroke-width:2px}</style><script type="text/javascript">window.pygal = window.pygal || {};window.pygal.config = window.pygal.config || {};window.pygal.config['b889696f-23ab-4d5e-ae72-fa284432cb19'] = {"allow_interruptions": false, "box_mode": "extremes", "classes": ["pygal-chart"], "css": ["file://style.css", "file://graph.css"], "defs": [], "disable_xml_declaration": false, "dots_size": 2.5, "dynamic_print_values": false, "explicit_size": false, "fill": false, "force_uri_protocol": "https", "formatter": null, "half_pie": false, "height": 600, "include_x_axis": false, "inner_radius": 0, "interpolate": null, "interpolation_parameters": {}, "interpolation_precision": 250, "inverse_y_axis": false, "js": ["//kozea.github.io/pygal.js/2.0.x/pygal-tooltips.min.js"], "legend_at_bottom": true, "legend_at_bottom_columns": null, "legend_box_size": 12, "logarithmic": false, "margin": 20, "margin_bottom": null, "margin_left": null, "margin_right": null, "margin_top": null, "max_scale": 16, "min_scale": 4, "missing_value_fill_truncation": "x", "no_data_text": "No data", "no_prefix": false, "order_min": null, "pretty_print": false, "print_labels": false, "print_values": false, "print_values_position": "center", "print_zeroes": true, "range": null, "rounded_bars": null, "secondary_range": null, "show_dots": true, "show_legend": true, "show_minor_x_labels": false, "show_minor_y_labels": true, "show_only_major_dots": false, "show_x_guides": false, "show_x_labels": true, "show_y_guides": true, "show_y_labels": true, "spacing": 10, "stack_from_top": false, "strict": false, "stroke": true, "stroke_style": null, "style": {"background": "rgba(249, 249, 249, 1)", "ci_colors": [], "colors": ["red", "blue", "green", "#a3a3a3"], "font_family": "Consolas, \"Liberation Mono\", Menlo, Courier, monospace", "foreground": "rgba(0, 0, 0, .87)", "foreground_strong": "rgba(0, 0, 0, 1)", "foreground_subtle": "rgba(0, 0, 0, .54)", "guide_stroke_dasharray": "4,4", "label_font_family": "Consolas, \"Liberation Mono\", Menlo, Courier, monospace", "label_font_size": 10, "legend_font_family": "Consolas, \"Liberation Mono\", Menlo, Courier, monospace", "legend_font_size": 14, "major_guide_stroke_dasharray": "6,6", "major_label_font_family": "Consolas, \"Liberation Mono\", Menlo, Courier, monospace", "major_label_font_size": 10, "no_data_font_family": "Consolas, \"Liberation Mono\", Menlo, Courier, monospace", "no_data_font_size": 64, "opacity": ".7", "opacity_hover": ".8", "plot_background": "rgba(255, 255, 255, 1)", "stroke_opacity": ".8", "stroke_opacity_hover": ".9", "title_font_family": "Consolas, \"Liberation Mono\", Menlo, Courier, monospace", "title_font_size": 16, "tooltip_font_family": "Consolas, \"Liberation Mono\", Menlo, Courier, monospace", "tooltip_font_size": 14, "transition": "150ms", "value_background": "rgba(229, 229, 229, 1)", "value_colors": [], "value_font_family": "Consolas, \"Liberation Mono\", Menlo, Courier, monospace", "value_font_size": 16, "value_label_font_family": "Consolas, \"Liberation Mono\", Menlo, Courier, monospace", "value_label_font_size": 10}, "title": "Mudassar Nazar: Future and Past Averages in ODIs", "tooltip_border_radius": 10, "tooltip_fancy_mode": true, "truncate_label": null, "truncate_legend": null, "width": 800, "x_label_rotation": 45, "x_labels": ["1978", "0", "0", "0", "1979", "0", "0", "0", "1980", "0", "1981", "0", "0", "0", "1982", "0", "0", "0", "0", "0", "0", "0", "0", "0", "0", "0", "1983", "0", "0", "0", "0", "0", "0", "0", "1984", "0", "0", "0", "0", "0", "0", "0", "0", "0", "0", "0", "0", "0", "0", "0", "0", "0", "0", "1985", "0", "0", "0", "0", "0", "0", "0", "0", "0", "0", "0", "0", "0", "0", "0", "0", "1986", "0", "0", "0", "0", "0", "0", "0", "1987", "0", "0", "0", "0", "0", "0", "0", "0", "0", "0", "0", "0", "0", "0", "1988", "0", "0", "0", "0", "0", "0", "1989", "0", "0", "0"], "x_labels_major": ["1978", "1979", "1980", "1981", "1982", "1983", "1984", "1985", "1986", "1987", "1988", "1989"], "x_labels_major_count": null, "x_labels_major_every": null, "x_title": null, "xrange": null, "y_label_rotation": 0, "y_labels": null, "y_labels_major": null, "y_labels_major_count": null, "y_labels_major_every": null, "y_title": null, "zero": 130.0, "legends": ["Future Average", "Past Average", "Career Average"]}</script><script type="text/javascript" xlink:href="https://kozea.github.io/pygal.js/2.0.x/pygal-tooltips.min.js"/></defs><title>Mudassar Nazar: Future and Past Averages in ODIs</title><g class="graph line-graph vertical"><rect class="background" height="600" width="800" x="0" y="0"/><g class="plot" transform="translate(48, 46)"><rect class="background" height="462.02943725152284" width="732.0" x="0" y="0"/><g class="axis y always_show"><g class="guides"><path class="axis major line" d="M0.000000 453.144256 h732.000000"/><text class="major" x="-5" y="456.6442557659166">0</text><title>0</title></g><g class="guides"><path class="guide line" d="M0.000000 416.428630 h732.000000"/><text class="" x="-5" y="419.92862979233723">10</text><title>10</title></g><g class="guides"><path class="guide line" d="M0.000000 379.713004 h732.000000"/><text class="" x="-5" y="383.2130038187579">20</text><title>20</title></g><g class="guides"><path class="guide line" d="M0.000000 342.997378 h732.000000"/><text class="" x="-5" y="346.4973778451785">30</text><title>30</title></g><g class="guides"><path class="guide line" d="M0.000000 306.281752 h732.000000"/><text class="" x="-5" y="309.7817518715991">40</text><title>40</title></g><g class="guides"><path class="major guide line" d="M0.000000 269.566126 h732.000000"/><text class="major" x="-5" y="273.0661258980198">50</text><title>50</title></g><g class="guides"><path class="guide line" d="M0.000000 232.850500 h732.000000"/><text class="" x="-5" y="236.35049992444038">60</text><title>60</title></g><g class="guides"><path class="guide line" d="M0.000000 196.134874 h732.000000"/><text class="" x="-5" y="199.634873950861">70</text><title>70</title></g><g class="guides"><path class="guide line" d="M0.000000 159.419248 h732.000000"/><text class="" x="-5" y="162.91924797728166">80</text><title>80</title></g><g class="guides"><path class="guide line" d="M0.000000 122.703622 h732.000000"/><text class="" x="-5" y="126.20362200370226">90</text><title>90</title></g><g class="guides"><path class="major guide line" d="M0.000000 85.987996 h732.000000"/><text class="major" x="-5" y="89.48799603012287">100</text><title>100</title></g><g class="guides"><path class="guide line" d="M0.000000 49.272370 h732.000000"/><text class="" x="-5" y="52.77237005654348">110</text><title>110</title></g><g class="guides"><path class="guide line" d="M0.000000 12.556744 h732.000000"/><text class="" x="-5" y="16.0567440829642">120</text><title>120</title></g></g><g class="axis x"><g class="guides"><path class="major line" d="M14.076923 0.000000 v462.029437"/><text class="major" x="14.076923076923077" y="477.02943725152284" transform="rotate(45 14.076923 477.029437)">1978</text></g><g class="guides"><path class="major guide line" d="M41.410754 0.000000 v462.029437"/><text class="major" x="41.41075429424944" y="477.02943725152284" transform="rotate(45 41.410754 477.029437)">1979</text></g><g class="guides"><path class="major guide line" d="M68.744586 0.000000 v462.029437"/><text class="major" x="68.7445855115758" y="477.02943725152284" transform="rotate(45 68.744586 477.029437)">1980</text></g><g class="guides"><path class="major guide line" d="M82.411501 0.000000 v462.029437"/><text class="major" x="82.41150112023898" y="477.02943725152284" transform="rotate(45 82.411501 477.029437)">1981</text></g><g class="guides"><path class="major guide line" d="M109.745332 0.000000 v462.029437"/><text class="major" x="109.74533233756534" y="477.02943725152284" transform="rotate(45 109.745332 477.029437)">1982</text></g><g class="guides"><path class="major guide line" d="M191.746826 0.000000 v462.029437"/><text class="major" x="191.74682598954445" y="477.02943725152284" transform="rotate(45 191.746826 477.029437)">1983</text></g><g class="guides"><path class="major guide line" d="M246.414488 0.000000 v462.029437"/><text class="major" x="246.4144884241972" y="477.02943725152284" transform="rotate(45 246.414488 477.029437)">1984</text></g><g class="guides"><path class="major guide line" d="M376.250187 0.000000 v462.029437"/><text class="major" x="376.25018670649735" y="477.02943725152284" transform="rotate(45 376.250187 477.029437)">1985</text></g><g class="guides"><path class="major guide line" d="M492.418969 0.000000 v462.029437"/><text class="major" x="492.41896938013446" y="477.02943725152284" transform="rotate(45 492.418969 477.029437)">1986</text></g><g class="guides"><path class="major guide line" d="M547.086632 0.000000 v462.029437"/><text class="major" x="547.0866318147872" y="477.02943725152284" transform="rotate(45 547.086632 477.029437)">1987</text></g><g class="guides"><path class="major guide line" d="M649.588499 0.000000 v462.029437"/><text class="major" x="649.588498879761" y="477.02943725152284" transform="rotate(45 649.588499 477.029437)">1988</text></g><g class="guides"><path class="major guide line" d="M697.422704 0.000000 v462.029437"/><text class="major" x="697.4227035100822" y="477.02943725152284" transform="rotate(45 697.422704 477.029437)">1989</text></g></g><g class="series serie-0 color-0"><path class="line reactive nofill" d="M14.076923 339.619540 L20.910381 340.023412 27.743839 339.692972 34.577296 338.628218 41.410754 339.729687 48.244212 340.096843 55.077670 340.133559 61.911128 341.161597 68.744586 342.887231 75.578043 341.235028 82.411501 341.785762 89.244959 342.263065 96.078417 340.978018 102.911875 338.261062 109.745332 338.297778 116.578790 338.040768 123.412248 335.764400 130.245706 333.671609 137.079164 333.304453 143.912621 332.313131 150.746079 333.414599 157.579537 334.148912 164.412995 335.727684 171.246453 337.416603 178.079910 338.224346 184.913368 337.233025 191.746826 334.993371 198.580284 336.315134 205.413742 335.690968 212.247199 337.526750 219.080657 338.885228 225.914115 337.563465 232.747573 335.066803 239.581031 331.064799 246.414488 331.468671 253.247946 333.708324 260.081404 333.341168 266.914862 332.313131 273.748320 334.112196 280.581777 334.038765 287.415235 334.075481 294.248693 334.038765 301.082151 333.194306 307.915609 331.285093 314.749066 333.267737 321.582524 330.624212 328.415982 330.110193 335.249440 330.146909 342.082898 328.898577 348.916355 326.181621 355.749813 321.261727 362.583271 312.339830 369.416729 316.745705 376.250187 319.829818 383.083645 320.968002 389.917102 324.162262 396.750560 325.851181 403.584018 326.108190 410.417476 326.548777 417.250934 312.963996 424.084391 315.423943 430.917849 315.277080 437.751307 310.871205 444.584765 314.836493 451.418223 311.128215 458.251680 304.886558 465.085138 303.895236 471.918596 299.048774 478.752054 302.977346 485.585512 295.413927 492.418969 298.681617 499.252427 299.489361 506.085885 300.480683 512.919343 302.059455 519.752801 306.575477 526.586258 307.970671 533.419716 304.519402 540.253174 303.528080 547.086632 288.437958 553.920090 290.494033 560.753547 289.465995 567.587005 293.725008 574.420463 290.787758 581.253921 296.882552 588.087379 276.431948 594.920836 274.559451 601.754294 284.766395 608.587752 283.407917 615.421210 280.287089 622.254668 251.942625 629.088125 275.073470 635.921583 274.449304 642.755041 282.196301 649.588499 275.991360 656.421957 235.310447 663.255414 254.879876 670.088872 192.463311 676.922330 164.302426 683.755788 210.821124 690.589246 164.926592 697.422704 8.885181 704.256161 93.331121 711.089619 221.835812 717.923077 387.056129"/></g><g class="series serie-1 color-1"><path class="line reactive nofill" d="M14.076923 453.144256 L20.910381 409.085505 27.743839 335.654253 34.577296 365.944644 41.410754 336.572143 48.244212 326.475346 55.077670 329.045440 61.911128 307.016064 68.744586 270.300438 75.578043 315.717668 82.411501 307.346505 89.244959 305.841164 96.078417 326.108190 102.911875 349.789769 109.745332 349.496044 116.578790 350.597512 123.412248 360.914603 130.245706 368.514738 137.079164 366.789103 143.912621 367.596847 150.746079 363.447982 157.579537 359.519410 164.412995 353.718341 171.246453 347.586831 178.079910 344.466003 184.913368 347.072812 191.746826 352.763734 198.580284 348.945309 205.413742 350.230356 212.247199 345.310462 219.080657 341.638900 225.914115 344.723012 232.747573 349.496044 239.581031 356.031425 246.414488 354.672947 253.247946 350.524081 260.081404 350.781091 266.914862 351.662266 273.748320 348.688300 280.581777 348.468006 287.415235 348.100850 294.248693 347.807125 301.082151 348.394575 307.915609 350.193641 314.749066 347.660262 321.582524 350.193641 328.415982 350.413934 335.249440 350.010062 342.082898 350.964669 348.916355 352.837166 355.749813 355.811131 362.583271 360.437300 369.416729 357.059463 376.250187 354.709663 383.083645 353.314469 389.917102 350.964669 396.750560 349.385897 403.584018 348.835162 410.417476 348.210997 417.250934 354.048781 424.084391 352.727019 430.917849 352.286431 437.751307 353.424616 444.584765 351.515403 451.418223 352.213000 458.251680 353.681625 465.085138 353.461331 471.918596 353.975350 478.752054 352.580156 485.585512 353.828488 492.418969 352.800450 499.252427 352.543441 506.085885 351.588834 512.919343 351.111531 519.752801 349.753053 526.586258 349.312466 533.419716 349.826484 540.253174 349.569475 547.086632 351.552119 553.920090 350.413934 560.753547 349.973347 567.587005 349.092172 574.420463 349.092172 581.253921 347.880556 588.087379 349.496044 594.920836 349.018741 601.754294 347.550115 608.587752 347.072812 615.421210 346.815803 622.254668 348.321144 629.088125 346.008059 635.921583 345.383894 642.755041 344.686297 649.588499 344.576150 656.421957 345.567472 663.255414 344.466003 670.088872 345.126884 676.922330 344.502719 683.755788 343.217672 690.589246 342.813800 697.422704 342.630222 704.256161 341.859193 711.089619 340.684293 717.923077 340.206990"/></g><g class="series serie-2 color-2"><path class="line reactive nofill" d="M14.076923 339.619540 L20.910381 339.619540 27.743839 339.619540 34.577296 339.619540 41.410754 339.619540 48.244212 339.619540 55.077670 339.619540 61.911128 339.619540 68.744586 339.619540 75.578043 339.619540 82.411501 339.619540 89.244959 339.619540 96.078417 339.619540 102.911875 339.619540 109.745332 339.619540 116.578790 339.619540 123.412248 339.619540 130.245706 339.619540 137.079164 339.619540 143.912621 339.619540 150.746079 339.619540 157.579537 339.619540 164.412995 339.619540 171.246453 339.619540 178.079910 339.619540 184.913368 339.619540 191.746826 339.619540 198.580284 339.619540 205.413742 339.619540 212.247199 339.619540 219.080657 339.619540 225.914115 339.619540 232.747573 339.619540 239.581031 339.619540 246.414488 339.619540 253.247946 339.619540 260.081404 339.619540 266.914862 339.619540 273.748320 339.619540 280.581777 339.619540 287.415235 339.619540 294.248693 339.619540 301.082151 339.619540 307.915609 339.619540 314.749066 339.619540 321.582524 339.619540 328.415982 339.619540 335.249440 339.619540 342.082898 339.619540 348.916355 339.619540 355.749813 339.619540 362.583271 339.619540 369.416729 339.619540 376.250187 339.619540 383.083645 339.619540 389.917102 339.619540 396.750560 339.619540 403.584018 339.619540 410.417476 339.619540 417.250934 339.619540 424.084391 339.619540 430.917849 339.619540 437.751307 339.619540 444.584765 339.619540 451.418223 339.619540 458.251680 339.619540 465.085138 339.619540 471.918596 339.619540 478.752054 339.619540 485.585512 339.619540 492.418969 339.619540 499.252427 339.619540 506.085885 339.619540 512.919343 339.619540 519.752801 339.619540 526.586258 339.619540 533.419716 339.619540 540.253174 339.619540 547.086632 339.619540 553.920090 339.619540 560.753547 339.619540 567.587005 339.619540 574.420463 339.619540 581.253921 339.619540 588.087379 339.619540 594.920836 339.619540 601.754294 339.619540 608.587752 339.619540 615.421210 339.619540 622.254668 339.619540 629.088125 339.619540 635.921583 339.619540 642.755041 339.619540 649.588499 339.619540 656.421957 339.619540 663.255414 339.619540 670.088872 339.619540 676.922330 339.619540 683.755788 339.619540 690.589246 339.619540 697.422704 339.619540 704.256161 339.619540 711.089619 339.619540 717.923077 339.619540"/></g></g><g class="titles"><text class="title plot_title" x="400.0" y="26">Mudassar Nazar: Future and Past Averages in ODIs</text></g><g class="plot overlay" transform="translate(48, 46)"><g class="series serie-0 color-0"><g class="dots"><desc class="label">111 wickets in 104 innings (808.5 overs)</desc><circle class="dot reactive tooltip-trigger" cx="14.076923076923077" cy="339.6195402556092" r="2.5"/><desc class="value">30.92</desc><desc class="x top">14.076923076923077</desc><desc class="y top">339.6195402556092</desc><desc class="x_label">1978</desc></g><g class="dots"><desc class="label">107 wickets in 100 innings (782.5 overs)</desc><circle class="dot reactive tooltip-trigger" cx="41.41075429424944" cy="339.7296871335299" r="2.5"/><desc class="value">30.89</desc><desc class="x top">41.41075429424944</desc><desc class="y top">339.7296871335299</desc><desc class="x_label">1979</desc></g><g class="dots"><desc class="label">106 wickets in 96 innings (744.5 overs)</desc><circle class="dot reactive tooltip-trigger" cx="68.7445855115758" cy="342.8872309672578" r="2.5"/><desc class="value">30.03</desc><desc class="x top">68.7445855115758</desc><desc class="y top">342.8872309672578</desc><desc class="x_label">1980</desc></g><g class="dots"><desc class="label">104 wickets in 94 innings (738.5 overs)</desc><circle class="dot reactive tooltip-trigger" cx="82.41150112023898" cy="341.7857621880504" r="2.5"/><desc class="value">30.33</desc><desc class="x top">82.41150112023898</desc><desc class="y top">341.7857621880504</desc><desc class="x_label">1981</desc></g><g class="dots"><desc class="label">98 wickets in 90 innings (713.5 overs)</desc><circle class="dot reactive tooltip-trigger" cx="109.74533233756534" cy="338.29777772056036" r="2.5"/><desc class="value">31.28</desc><desc class="x top">109.74533233756534</desc><desc class="y top">338.29777772056036</desc><desc class="x_label">1982</desc></g><g class="dots"><desc class="label">82 wickets in 78 innings (633.4 overs)</desc><circle class="dot reactive tooltip-trigger" cx="191.74682598954445" cy="334.9933713829382" r="2.5"/><desc class="value">32.18</desc><desc class="x top">191.74682598954445</desc><desc class="y top">334.9933713829382</desc><desc class="x_label">1983</desc></g><g class="dots"><desc class="label">72 wickets in 70 innings (557.4 overs)</desc><circle class="dot reactive tooltip-trigger" cx="246.4144884241972" cy="331.46867128947457" r="2.5"/><desc class="value">33.14</desc><desc class="x top">246.4144884241972</desc><desc class="y top">331.46867128947457</desc><desc class="x_label">1984</desc></g><g class="dots"><desc class="label">48 wickets in 51 innings (398.4 overs)</desc><circle class="dot reactive tooltip-trigger" cx="376.25018670649735" cy="319.8298178558499" r="2.5"/><desc class="value">36.31</desc><desc class="x left top">376.25018670649735</desc><desc class="y left top">319.8298178558499</desc><desc class="x_label">1985</desc></g><g class="dots"><desc class="label">27 wickets in 34 innings (265.1 overs)</desc><circle class="dot reactive tooltip-trigger" cx="492.41896938013446" cy="298.68161729506824" r="2.5"/><desc class="value">42.07</desc><desc class="x left top">492.41896938013446</desc><desc class="y left top">298.68161729506824</desc><desc class="x_label">1986</desc></g><g class="dots"><desc class="label">21 wickets in 26 innings (221.1 overs)</desc><circle class="dot reactive tooltip-trigger" cx="547.0866318147872" cy="288.4379576484396" r="2.5"/><desc class="value">44.86</desc><desc class="x left top">547.0866318147872</desc><desc class="y left top">288.4379576484396</desc><desc class="x_label">1987</desc></g><g class="dots"><desc class="label">8 wickets in 11 innings (87.0 overs)</desc><circle class="dot reactive tooltip-trigger" cx="649.588498879761" cy="275.99136044339616" r="2.5"/><desc class="value">48.25</desc><desc class="x left top">649.588498879761</desc><desc class="y left top">275.99136044339616</desc><desc class="x_label">1988</desc></g><g class="dots"><desc class="label">1 wickets in 4 innings (30.0 overs)</desc><circle class="dot reactive tooltip-trigger" cx="697.4227035100822" cy="8.88518148560621" r="2.5"/><desc class="value">121</desc><desc class="x left">697.4227035100822</desc><desc class="y left">8.88518148560621</desc><desc class="x_label">1989</desc></g></g><g class="series serie-1 color-1"><g class="dots"><desc class="label">0 wickets over 0 innings</desc><circle class="dot reactive tooltip-trigger" cx="14.076923076923077" cy="453.1442557659166" r="2.5"/><desc class="value">0</desc><desc class="x top">14.076923076923077</desc><desc class="y top">453.1442557659166</desc><desc class="x_label">1978</desc></g><g class="dots"><desc class="label">4 wickets in 4 innings (26.0 overs)</desc><circle class="dot reactive tooltip-trigger" cx="41.41075429424944" cy="336.5721432998021" r="2.5"/><desc class="value">31.75</desc><desc class="x top">41.41075429424944</desc><desc class="y top">336.5721432998021</desc><desc class="x_label">1979</desc></g><g class="dots"><desc class="label">5 wickets in 8 innings (64.0 overs)</desc><circle class="dot reactive tooltip-trigger" cx="68.7445855115758" cy="270.30043841749136" r="2.5"/><desc class="value">49.8</desc><desc class="x top">68.7445855115758</desc><desc class="y top">270.30043841749136</desc><desc class="x_label">1980</desc></g><g class="dots"><desc class="label">7 wickets in 10 innings (70.0 overs)</desc><circle class="dot reactive tooltip-trigger" cx="82.41150112023898" cy="307.34650502483294" r="2.5"/><desc class="value">39.71</desc><desc class="x top">82.41150112023898</desc><desc class="y top">307.34650502483294</desc><desc class="x_label">1981</desc></g><g class="dots"><desc class="label">13 wickets in 14 innings (95.0 overs)</desc><circle class="dot reactive tooltip-trigger" cx="109.74533233756534" cy="349.49604364250206" r="2.5"/><desc class="value">28.23</desc><desc class="x top">109.74533233756534</desc><desc class="y top">349.49604364250206</desc><desc class="x_label">1982</desc></g><g class="dots"><desc class="label">29 wickets in 26 innings (175.1 overs)</desc><circle class="dot reactive tooltip-trigger" cx="191.74682598954445" cy="352.76373435415064" r="2.5"/><desc class="value">27.34</desc><desc class="x top">191.74682598954445</desc><desc class="y top">352.76373435415064</desc><desc class="x_label">1983</desc></g><g class="dots"><desc class="label">39 wickets in 34 innings (251.1 overs)</desc><circle class="dot reactive tooltip-trigger" cx="246.4144884241972" cy="354.6729469047767" r="2.5"/><desc class="value">26.82</desc><desc class="x top">246.4144884241972</desc><desc class="y top">354.6729469047767</desc><desc class="x_label">1984</desc></g><g class="dots"><desc class="label">63 wickets in 53 innings (410.1 overs)</desc><circle class="dot reactive tooltip-trigger" cx="376.25018670649735" cy="354.70966253075034" r="2.5"/><desc class="value">26.81</desc><desc class="x left top">376.25018670649735</desc><desc class="y left top">354.70966253075034</desc><desc class="x_label">1985</desc></g><g class="dots"><desc class="label">84 wickets in 70 innings (543.4 overs)</desc><circle class="dot reactive tooltip-trigger" cx="492.41896938013446" cy="352.8004499801242" r="2.5"/><desc class="value">27.33</desc><desc class="x left top">492.41896938013446</desc><desc class="y left top">352.8004499801242</desc><desc class="x_label">1986</desc></g><g class="dots"><desc class="label">90 wickets in 78 innings (587.4 overs)</desc><circle class="dot reactive tooltip-trigger" cx="547.0866318147872" cy="351.5521186970225" r="2.5"/><desc class="value">27.67</desc><desc class="x left top">547.0866318147872</desc><desc class="y left top">351.5521186970225</desc><desc class="x_label">1987</desc></g><g class="dots"><desc class="label">103 wickets in 93 innings (721.5 overs)</desc><circle class="dot reactive tooltip-trigger" cx="649.588498879761" cy="344.5761497620424" r="2.5"/><desc class="value">29.57</desc><desc class="x left top">649.588498879761</desc><desc class="y left top">344.5761497620424</desc><desc class="x_label">1988</desc></g><g class="dots"><desc class="label">110 wickets in 100 innings (778.5 overs)</desc><circle class="dot reactive tooltip-trigger" cx="697.4227035100822" cy="342.6302215854427" r="2.5"/><desc class="value">30.1</desc><desc class="x left top">697.4227035100822</desc><desc class="y left top">342.6302215854427</desc><desc class="x_label">1989</desc></g></g><g class="series serie-2 color-2"/></g><g class="plot text-overlay" transform="translate(48, 46)"><g class="series serie-0 color-0"/><g class="series serie-1 color-1"/><g class="series serie-2 color-2"/></g><g class="plot tooltip-overlay" transform="translate(48, 46)"><g class="tooltip" style="opacity: 0" transform="translate(0 0)"><rect class="tooltip-box" height="0" rx="10" ry="10" width="0"/><g class="text"/></g></g><g class="legends" transform="translate(58, 545)"><g class="legend reactive activate-serie" id="activate-serie-0"><rect class="color-0 reactive" height="12" width="12" x="0.0" y="1.0"/><text x="17.0" y="11.2">Future Average</text></g><g class="legend reactive activate-serie" id="activate-serie-1"><rect class="color-1 reactive" height="12" width="12" x="366.0" y="1.0"/><text x="383.0" y="11.2">Past Average</text></g><g class="legend reactive activate-serie" id="activate-serie-2"><rect class="color-2 reactive" height="12" width="12" x="0.0" y="22.0"/><text x="17.0" y="32.2">Career Average</text></g></g></g></svg>