<?xml version='1.0' encoding='utf-8'?>
<svg xmlns:xlink="http://www.w3.org/1999/xlink" xmlns="http://www.w3.org/2000/svg" id="chart-6b9a2213-dd26-48da-95ec-98d47294d28a" class="pygal-chart" viewBox="0 0 800 600"><!--Generated with pygal 2.4.0 (lxml) ©Kozea 2012-2016 on 2019-08-04--><!--http://pygal.org--><!--http://github.com/Kozea/pygal--><defs><style type="text/css">#chart-6b9a2213-dd26-48da-95ec-98d47294d28a{-webkit-user-select:none;-webkit-font-smoothing:antialiased;font-family:Consolas,"Liberation Mono",Menlo,Courier,monospace}#chart-6b9a2213-dd26-48da-95ec-98d47294d28a .title{font-family:Consolas,"Liberation Mono",Menlo,Courier,monospace;font-size:16px}#chart-6b9a2213-dd26-48da-95ec-98d47294d28a .legends .legend text{font-family:Consolas,"Liberation Mono",Menlo,Courier,monospace;font-size:14px}#chart-6b9a2213-dd26-48da-95ec-98d47294d28a .axis text{font-family:Consolas,"Liberation Mono",Menlo,Courier,monospace;font-size:10px}#chart-6b9a2213-dd26-48da-95ec-98d47294d28a .axis text.major{font-family:Consolas,"Liberation Mono",Menlo,Courier,monospace;font-size:10px}#chart-6b9a2213-dd26-48da-95ec-98d47294d28a .text-overlay text.value{font-family:Consolas,"Liberation Mono",Menlo,Courier,monospace;font-size:16px}#chart-6b9a2213-dd26-48da-95ec-98d47294d28a .text-overlay text.label{font-family:Consolas,"Liberation Mono",Menlo,Courier,monospace;font-size:10px}#chart-6b9a2213-dd26-48da-95ec-98d47294d28a .tooltip{font-family:Consolas,"Liberation Mono",Menlo,Courier,monospace;font-size:14px}#chart-6b9a2213-dd26-48da-95ec-98d47294d28a text.no_data{font-family:Consolas,"Liberation Mono",Menlo,Courier,monospace;font-size:64px}
#chart-6b9a2213-dd26-48da-95ec-98d47294d28a{background-color:rgba(249,249,249,1)}#chart-6b9a2213-dd26-48da-95ec-98d47294d28a path,#chart-6b9a2213-dd26-48da-95ec-98d47294d28a line,#chart-6b9a2213-dd26-48da-95ec-98d47294d28a rect,#chart-6b9a2213-dd26-48da-95ec-98d47294d28a circle{-webkit-transition:150ms;-moz-transition:150ms;transition:150ms}#chart-6b9a2213-dd26-48da-95ec-98d47294d28a .graph &gt; .background{fill:rgba(249,249,249,1)}#chart-6b9a2213-dd26-48da-95ec-98d47294d28a .plot &gt; .background{fill:rgba(255,255,255,1)}#chart-6b9a2213-dd26-48da-95ec-98d47294d28a .graph{fill:rgba(0,0,0,.87)}#chart-6b9a2213-dd26-48da-95ec-98d47294d28a text.no_data{fill:rgba(0,0,0,1)}#chart-6b9a2213-dd26-48da-95ec-98d47294d28a .title{fill:rgba(0,0,0,1)}#chart-6b9a2213-dd26-48da-95ec-98d47294d28a .legends .legend text{fill:rgba(0,0,0,.87)}#chart-6b9a2213-dd26-48da-95ec-98d47294d28a .legends .legend:hover text{fill:rgba(0,0,0,1)}#chart-6b9a2213-dd26-48da-95ec-98d47294d28a .axis .line{stroke:rgba(0,0,0,1)}#chart-6b9a2213-dd26-48da-95ec-98d47294d28a .axis .guide.line{stroke:rgba(0,0,0,.54)}#chart-6b9a2213-dd26-48da-95ec-98d47294d28a .axis .major.line{stroke:rgba(0,0,0,.87)}#chart-6b9a2213-dd26-48da-95ec-98d47294d28a .axis text.major{fill:rgba(0,0,0,1)}#chart-6b9a2213-dd26-48da-95ec-98d47294d28a .axis.y .guides:hover .guide.line,#chart-6b9a2213-dd26-48da-95ec-98d47294d28a .line-graph .axis.x .guides:hover .guide.line,#chart-6b9a2213-dd26-48da-95ec-98d47294d28a .stackedline-graph .axis.x .guides:hover .guide.line,#chart-6b9a2213-dd26-48da-95ec-98d47294d28a .xy-graph .axis.x .guides:hover .guide.line{stroke:rgba(0,0,0,1)}#chart-6b9a2213-dd26-48da-95ec-98d47294d28a .axis .guides:hover text{fill:rgba(0,0,0,1)}#chart-6b9a2213-dd26-48da-95ec-98d47294d28a .reactive{fill-opacity:.7;stroke-opacity:.8}#chart-6b9a2213-dd26-48da-95ec-98d47294d28a .ci{stroke:rgba(0,0,0,.87)}#chart-6b9a2213-dd26-48da-95ec-98d47294d28a .reactive.active,#chart-6b9a2213-dd26-48da-95ec-98d47294d28a .active .reactive{fill-opacity:.8;stroke-opacity:.9;stroke-width:4}#chart-6b9a2213-dd26-48da-95ec-98d47294d28a .ci .reactive.active{stroke-width:1.5}#chart-6b9a2213-dd26-48da-95ec-98d47294d28a .series text{fill:rgba(0,0,0,1)}#chart-6b9a2213-dd26-48da-95ec-98d47294d28a .tooltip rect{fill:rgba(255,255,255,1);stroke:rgba(0,0,0,1);-webkit-transition:opacity 150ms;-moz-transition:opacity 150ms;transition:opacity 150ms}#chart-6b9a2213-dd26-48da-95ec-98d47294d28a .tooltip .label{fill:rgba(0,0,0,.87)}#chart-6b9a2213-dd26-48da-95ec-98d47294d28a .tooltip .label{fill:rgba(0,0,0,.87)}#chart-6b9a2213-dd26-48da-95ec-98d47294d28a .tooltip .legend{font-size:.8em;fill:rgba(0,0,0,.54)}#chart-6b9a2213-dd26-48da-95ec-98d47294d28a .tooltip .x_label{font-size:.6em;fill:rgba(0,0,0,1)}#chart-6b9a2213-dd26-48da-95ec-98d47294d28a .tooltip .xlink{font-size:.5em;text-decoration:underline}#chart-6b9a2213-dd26-48da-95ec-98d47294d28a .tooltip .value{font-size:1.5em}#chart-6b9a2213-dd26-48da-95ec-98d47294d28a .bound{font-size:.5em}#chart-6b9a2213-dd26-48da-95ec-98d47294d28a .max-value{font-size:.75em;fill:rgba(0,0,0,.54)}#chart-6b9a2213-dd26-48da-95ec-98d47294d28a .map-element{fill:rgba(255,255,255,1);stroke:rgba(0,0,0,.54) !important}#chart-6b9a2213-dd26-48da-95ec-98d47294d28a .map-element .reactive{fill-opacity:inherit;stroke-opacity:inherit}#chart-6b9a2213-dd26-48da-95ec-98d47294d28a .color-0,#chart-6b9a2213-dd26-48da-95ec-98d47294d28a .color-0 a:visited{stroke:red;fill:red}#chart-6b9a2213-dd26-48da-95ec-98d47294d28a .color-1,#chart-6b9a2213-dd26-48da-95ec-98d47294d28a .color-1 a:visited{stroke:blue;fill:blue}#chart-6b9a2213-dd26-48da-95ec-98d47294d28a .color-2,#chart-6b9a2213-dd26-48da-95ec-98d47294d28a .color-2 a:visited{stroke:green;fill:green}#chart-6b9a2213-dd26-48da-95ec-98d47294d28a .text-overlay .color-0 text{fill:white}#chart-6b9a2213-dd26-48da-95ec-98d47294d28a .text-overlay .color-1 text{fill:white}#chart-6b9a2213-dd26-48da-95ec-98d47294d28a .text-overlay .color-2 text{fill:white}
#chart-6b9a2213-dd26-48da-95ec-98d47294d28a text.no_data{text-anchor:middle}#chart-6b9a2213-dd26-48da-95ec-98d47294d28a .guide.line{fill:none}#chart-6b9a2213-dd26-48da-95ec-98d47294d28a .centered{text-anchor:middle}#chart-6b9a2213-dd26-48da-95ec-98d47294d28a .title{text-anchor:middle}#chart-6b9a2213-dd26-48da-95ec-98d47294d28a .legends .legend text{fill-opacity:1}#chart-6b9a2213-dd26-48da-95ec-98d47294d28a .axis.x text{text-anchor:middle}#chart-6b9a2213-dd26-48da-95ec-98d47294d28a .axis.x:not(.web) text[transform]{text-anchor:start}#chart-6b9a2213-dd26-48da-95ec-98d47294d28a .axis.x:not(.web) text[transform].backwards{text-anchor:end}#chart-6b9a2213-dd26-48da-95ec-98d47294d28a .axis.y text{text-anchor:end}#chart-6b9a2213-dd26-48da-95ec-98d47294d28a .axis.y text[transform].backwards{text-anchor:start}#chart-6b9a2213-dd26-48da-95ec-98d47294d28a .axis.y2 text{text-anchor:start}#chart-6b9a2213-dd26-48da-95ec-98d47294d28a .axis.y2 text[transform].backwards{text-anchor:end}#chart-6b9a2213-dd26-48da-95ec-98d47294d28a .axis .guide.line{stroke-dasharray:4,4}#chart-6b9a2213-dd26-48da-95ec-98d47294d28a .axis .major.guide.line{stroke-dasharray:6,6}#chart-6b9a2213-dd26-48da-95ec-98d47294d28a .horizontal .axis.y .guide.line,#chart-6b9a2213-dd26-48da-95ec-98d47294d28a .horizontal .axis.y2 .guide.line,#chart-6b9a2213-dd26-48da-95ec-98d47294d28a .vertical .axis.x .guide.line{opacity:0}#chart-6b9a2213-dd26-48da-95ec-98d47294d28a .horizontal .axis.always_show .guide.line,#chart-6b9a2213-dd26-48da-95ec-98d47294d28a .vertical .axis.always_show .guide.line{opacity:1 !important}#chart-6b9a2213-dd26-48da-95ec-98d47294d28a .axis.y .guides:hover .guide.line,#chart-6b9a2213-dd26-48da-95ec-98d47294d28a .axis.y2 .guides:hover .guide.line,#chart-6b9a2213-dd26-48da-95ec-98d47294d28a .axis.x .guides:hover .guide.line{opacity:1}#chart-6b9a2213-dd26-48da-95ec-98d47294d28a .axis .guides:hover text{opacity:1}#chart-6b9a2213-dd26-48da-95ec-98d47294d28a .nofill{fill:none}#chart-6b9a2213-dd26-48da-95ec-98d47294d28a .subtle-fill{fill-opacity:.2}#chart-6b9a2213-dd26-48da-95ec-98d47294d28a .dot{stroke-width:1px;fill-opacity:1}#chart-6b9a2213-dd26-48da-95ec-98d47294d28a .dot.active{stroke-width:5px}#chart-6b9a2213-dd26-48da-95ec-98d47294d28a .dot.negative{fill:transparent}#chart-6b9a2213-dd26-48da-95ec-98d47294d28a text,#chart-6b9a2213-dd26-48da-95ec-98d47294d28a tspan{stroke:none !important}#chart-6b9a2213-dd26-48da-95ec-98d47294d28a .series text.active{opacity:1}#chart-6b9a2213-dd26-48da-95ec-98d47294d28a .tooltip rect{fill-opacity:.95;stroke-width:.5}#chart-6b9a2213-dd26-48da-95ec-98d47294d28a .tooltip text{fill-opacity:1}#chart-6b9a2213-dd26-48da-95ec-98d47294d28a .showable{visibility:hidden}#chart-6b9a2213-dd26-48da-95ec-98d47294d28a .showable.shown{visibility:visible}#chart-6b9a2213-dd26-48da-95ec-98d47294d28a .gauge-background{fill:rgba(229,229,229,1);stroke:none}#chart-6b9a2213-dd26-48da-95ec-98d47294d28a .bg-lines{stroke:rgba(249,249,249,1);stroke-width:2px}</style><script type="text/javascript">window.pygal = window.pygal || {};window.pygal.config = window.pygal.config || {};window.pygal.config['6b9a2213-dd26-48da-95ec-98d47294d28a'] = {"allow_interruptions": false, "box_mode": "extremes", "classes": ["pygal-chart"], "css": ["file://style.css", "file://graph.css"], "defs": [], "disable_xml_declaration": false, "dots_size": 2.5, "dynamic_print_values": false, "explicit_size": false, "fill": false, "force_uri_protocol": "https", "formatter": null, "half_pie": false, "height": 600, "include_x_axis": false, "inner_radius": 0, "interpolate": null, "interpolation_parameters": {}, "interpolation_precision": 250, "inverse_y_axis": false, "js": ["//kozea.github.io/pygal.js/2.0.x/pygal-tooltips.min.js"], "legend_at_bottom": true, "legend_at_bottom_columns": null, "legend_box_size": 12, "logarithmic": false, "margin": 20, "margin_bottom": null, "margin_left": null, "margin_right": null, "margin_top": null, "max_scale": 16, "min_scale": 4, "missing_value_fill_truncation": "x", "no_data_text": "No data", "no_prefix": false, "order_min": null, "pretty_print": false, "print_labels": false, "print_values": false, "print_values_position": "center", "print_zeroes": true, "range": null, "rounded_bars": null, "secondary_range": null, "show_dots": true, "show_legend": true, "show_minor_x_labels": false, "show_minor_y_labels": true, "show_only_major_dots": false, "show_x_guides": false, "show_x_labels": true, "show_y_guides": true, "show_y_labels": true, "spacing": 10, "stack_from_top": false, "strict": false, "stroke": true, "stroke_style": null, "style": {"background": "rgba(249, 249, 249, 1)", "ci_colors": [], "colors": ["red", "blue", "green", "#a3a3a3"], "font_family": "Consolas, \"Liberation Mono\", Menlo, Courier, monospace", "foreground": "rgba(0, 0, 0, .87)", "foreground_strong": "rgba(0, 0, 0, 1)", "foreground_subtle": "rgba(0, 0, 0, .54)", "guide_stroke_dasharray": "4,4", "label_font_family": "Consolas, \"Liberation Mono\", Menlo, Courier, monospace", "label_font_size": 10, "legend_font_family": "Consolas, \"Liberation Mono\", Menlo, Courier, monospace", "legend_font_size": 14, "major_guide_stroke_dasharray": "6,6", "major_label_font_family": "Consolas, \"Liberation Mono\", Menlo, Courier, monospace", "major_label_font_size": 10, "no_data_font_family": "Consolas, \"Liberation Mono\", Menlo, Courier, monospace", "no_data_font_size": 64, "opacity": ".7", "opacity_hover": ".8", "plot_background": "rgba(255, 255, 255, 1)", "stroke_opacity": ".8", "stroke_opacity_hover": ".9", "title_font_family": "Consolas, \"Liberation Mono\", Menlo, Courier, monospace", "title_font_size": 16, "tooltip_font_family": "Consolas, \"Liberation Mono\", Menlo, Courier, monospace", "tooltip_font_size": 14, "transition": "150ms", "value_background": "rgba(229, 229, 229, 1)", "value_colors": [], "value_font_family": "Consolas, \"Liberation Mono\", Menlo, Courier, monospace", "value_font_size": 16, "value_label_font_family": "Consolas, \"Liberation Mono\", Menlo, Courier, monospace", "value_label_font_size": 10}, "title": "Mushtaq Ahmed: Future and Past Averages in ODIs", "tooltip_border_radius": 10, "tooltip_fancy_mode": true, "truncate_label": null, "truncate_legend": null, "width": 800, "x_label_rotation": 45, "x_labels": ["1989", "0", "0", "0", "0", "0", "0", "0", "0", "0", "0", "0", "1990", "0", "0", "0", "0", "0", "0", "0", "0", "0", "0", "0", "0", "0", "1991", "0", "0", "0", "1992", "0", "0", "0", "0", "0", "0", "0", "0", "0", "0", "0", "0", "0", "0", "0", "0", "0", "0", "0", "0", "0", "0", "0", "0", "1993", "0", "0", "0", "0", "0", "0", "0", "0", "0", "0", "0", "0", "0", "0", "0", "0", "0", "0", "0", "1994", "0", "0", "0", "0", "1995", "0", "0", "0", "0", "0", "0", "0", "1996", "0", "0", "0", "0", "0", "0", "0", "0", "0", "0", "0", "0", "0", "0", "0", "0", "0", "0", "0", "0", "0", "0", "0", "0", "1997", "0", "0", "0", "0", "0", "0", "0", "0", "0", "1998", "0", "0", "0", "0", "1999", "2000", "0", "0", "0", "0", "0", "0", "0", "0", "0", "0", "0", "2003"], "x_labels_major": ["1989", "1990", "1991", "1992", "1993", "1994", "1995", "1996", "1997", "1998", "1999", "2000", "2003"], "x_labels_major_count": null, "x_labels_major_every": null, "x_title": null, "xrange": null, "y_label_rotation": 0, "y_labels": null, "y_labels_major": null, "y_labels_major_count": null, "y_labels_major_every": null, "y_title": null, "zero": 150.0, "legends": ["Future Average", "Past Average", "Career Average"]}</script><script type="text/javascript" xlink:href="https://kozea.github.io/pygal.js/2.0.x/pygal-tooltips.min.js"/></defs><title>Mushtaq Ahmed: Future and Past Averages in ODIs</title><g class="graph line-graph vertical"><rect class="background" height="600" width="800" x="0" y="0"/><g class="plot" transform="translate(48, 46)"><rect class="background" height="462.02943725152284" width="732.0" x="0" y="0"/><g class="axis y always_show"><g class="guides"><path class="axis major line" d="M0.000000 453.144256 h732.000000"/><text class="major" x="-5" y="456.6442557659166">0</text><title>0</title></g><g class="guides"><path class="guide line" d="M0.000000 421.636520 h732.000000"/><text class="" x="-5" y="425.1365200013556">10</text><title>10</title></g><g class="guides"><path class="guide line" d="M0.000000 390.128784 h732.000000"/><text class="" x="-5" y="393.62878423679456">20</text><title>20</title></g><g class="guides"><path class="guide line" d="M0.000000 358.621048 h732.000000"/><text class="" x="-5" y="362.12104847223355">30</text><title>30</title></g><g class="guides"><path class="guide line" d="M0.000000 327.113313 h732.000000"/><text class="" x="-5" y="330.61331270767255">40</text><title>40</title></g><g class="guides"><path class="major guide line" d="M0.000000 295.605577 h732.000000"/><text class="major" x="-5" y="299.1055769431115">50</text><title>50</title></g><g class="guides"><path class="guide line" d="M0.000000 264.097841 h732.000000"/><text class="" x="-5" y="267.5978411785505">60</text><title>60</title></g><g class="guides"><path class="guide line" d="M0.000000 232.590105 h732.000000"/><text class="" x="-5" y="236.09010541398948">70</text><title>70</title></g><g class="guides"><path class="guide line" d="M0.000000 201.082370 h732.000000"/><text class="" x="-5" y="204.58236964942841">80</text><title>80</title></g><g class="guides"><path class="guide line" d="M0.000000 169.574634 h732.000000"/><text class="" x="-5" y="173.0746338848674">90</text><title>90</title></g><g class="guides"><path class="major guide line" d="M0.000000 138.066898 h732.000000"/><text class="major" x="-5" y="141.56689812030635">100</text><title>100</title></g><g class="guides"><path class="guide line" d="M0.000000 106.559162 h732.000000"/><text class="" x="-5" y="110.05916235574534">110</text><title>110</title></g><g class="guides"><path class="guide line" d="M0.000000 75.051427 h732.000000"/><text class="" x="-5" y="78.55142659118434">120</text><title>120</title></g><g class="guides"><path class="guide line" d="M0.000000 43.543691 h732.000000"/><text class="" x="-5" y="47.04369082662333">130</text><title>130</title></g><g class="guides"><path class="guide line" d="M0.000000 12.035955 h732.000000"/><text class="" x="-5" y="15.535955062062328">140</text><title>140</title></g></g><g class="axis x"><g class="guides"><path class="major line" d="M14.076923 0.000000 v462.029437"/><text class="major" x="14.076923076923077" y="477.02943725152284" transform="rotate(45 14.076923 477.029437)">1989</text></g><g class="guides"><path class="major guide line" d="M73.978723 0.000000 v462.029437"/><text class="major" x="73.97872340425532" y="477.02943725152284" transform="rotate(45 73.978723 477.029437)">1990</text></g><g class="guides"><path class="major guide line" d="M143.864157 0.000000 v462.029437"/><text class="major" x="143.86415711947623" y="477.02943725152284" transform="rotate(45 143.864157 477.029437)">1991</text></g><g class="guides"><path class="major guide line" d="M163.831424 0.000000 v462.029437"/><text class="major" x="163.83142389525366" y="477.02943725152284" transform="rotate(45 163.831424 477.029437)">1992</text></g><g class="guides"><path class="major guide line" d="M288.626841 0.000000 v462.029437"/><text class="major" x="288.62684124386254" y="477.02943725152284" transform="rotate(45 288.626841 477.029437)">1993</text></g><g class="guides"><path class="major guide line" d="M388.463175 0.000000 v462.029437"/><text class="major" x="388.4631751227496" y="477.02943725152284" transform="rotate(45 388.463175 477.029437)">1994</text></g><g class="guides"><path class="major guide line" d="M413.422259 0.000000 v462.029437"/><text class="major" x="413.4222585924714" y="477.02943725152284" transform="rotate(45 413.422259 477.029437)">1995</text></g><g class="guides"><path class="major guide line" d="M453.356792 0.000000 v462.029437"/><text class="major" x="453.3567921440262" y="477.02943725152284" transform="rotate(45 453.356792 477.029437)">1996</text></g><g class="guides"><path class="major guide line" d="M578.152209 0.000000 v462.029437"/><text class="major" x="578.152209492635" y="477.02943725152284" transform="rotate(45 578.152209 477.029437)">1997</text></g><g class="guides"><path class="major guide line" d="M628.070376 0.000000 v462.029437"/><text class="major" x="628.0703764320785" y="477.02943725152284" transform="rotate(45 628.070376 477.029437)">1998</text></g><g class="guides"><path class="major guide line" d="M653.029460 0.000000 v462.029437"/><text class="major" x="653.0294599018002" y="477.02943725152284" transform="rotate(45 653.029460 477.029437)">1999</text></g><g class="guides"><path class="major guide line" d="M658.021277 0.000000 v462.029437"/><text class="major" x="658.0212765957447" y="477.02943725152284" transform="rotate(45 658.021277 477.029437)">2000</text></g><g class="guides"><path class="major guide line" d="M717.923077 0.000000 v462.029437"/><text class="major" x="717.9230769230769" y="477.02943725152284" transform="rotate(45 717.923077 477.029437)">2003</text></g></g><g class="series serie-0 color-0"><path class="line reactive nofill" d="M14.076923 348.223496 L19.068740 347.561833 24.060556 348.255003 29.052373 348.538573 34.044190 348.822143 39.036007 348.916666 44.027823 348.223496 49.019640 348.065957 54.011457 348.727619 59.003273 349.546821 63.995090 348.538573 68.986907 348.948174 73.978723 349.389282 78.970540 349.168728 83.962357 349.389282 88.954173 348.948174 93.945990 348.916666 98.937807 349.294759 103.929624 347.876911 108.921440 346.648109 113.913257 347.089217 118.905074 346.900171 123.896890 346.868663 128.888707 346.396047 133.880524 344.663122 138.872340 345.261769 143.864157 343.024719 148.855974 344.379552 153.847791 343.717889 158.839607 344.285029 163.831424 345.135738 168.823241 344.348044 173.815057 344.694629 178.806874 343.843920 183.798691 343.686382 188.790507 344.600106 193.782324 343.371304 198.774141 343.371304 203.765957 341.543856 208.757774 340.724655 213.749591 339.149268 218.741408 338.172528 223.733224 336.030002 228.725041 337.794435 233.716858 338.109512 238.708674 339.936961 243.700491 339.873946 248.692308 341.417825 253.684124 339.810930 258.675941 340.346562 263.667758 339.905453 268.659574 341.102747 273.651391 341.606871 278.643208 341.071240 283.635025 341.606871 288.626841 341.575363 293.618658 341.921949 298.610475 342.047979 303.602291 342.268534 308.594108 343.717889 313.585925 345.765892 318.577741 347.372787 323.569558 348.255003 328.561375 349.546821 333.553191 348.223496 338.545008 349.200235 343.536825 346.364539 348.528642 347.467310 353.520458 348.412542 358.512275 347.561833 363.504092 346.679617 368.495908 344.411060 373.487725 345.324784 378.479542 345.797400 383.471358 346.679617 388.463175 343.087735 393.454992 344.316536 398.446809 345.482323 403.438625 343.938444 408.430442 343.780905 413.422259 345.986446 418.414075 347.750880 423.405892 347.971434 428.397709 348.412542 433.389525 348.507065 438.381342 346.742632 443.373159 348.223496 448.364975 347.876911 453.356792 348.160480 458.348609 343.654874 463.340426 345.104230 468.332242 348.002942 473.324059 345.356292 478.315876 343.213766 483.307692 342.394565 488.299509 345.891923 493.291326 340.031484 498.283142 341.858933 503.274959 345.198753 508.266776 348.696112 513.258592 346.364539 518.250409 344.852168 523.242226 344.442567 528.234043 346.931679 533.225859 335.620401 538.217676 331.618919 543.209493 331.650427 548.201309 334.423107 553.193126 330.075040 558.184943 329.665439 563.176759 333.918984 568.168576 338.897206 573.160393 343.276781 578.152209 342.961704 583.144026 343.308289 588.135843 345.104230 593.127660 348.255003 598.119476 349.042697 603.111293 354.178458 608.103110 348.790635 613.094926 353.453780 618.086743 338.519113 623.078560 339.243791 628.070376 346.017954 633.062193 337.605389 638.054010 339.716407 643.045827 348.255003 648.037643 353.989411 653.029460 356.951138 658.021277 343.308289 663.013093 342.142503 668.004910 331.681934 672.996727 328.688699 677.988543 326.420143 682.980360 319.614472 687.972177 333.036767 692.963993 230.227025 697.955810 217.875993 702.947627 149.094606 707.939444 8.885181 712.931260 116.011483 717.923077 248.343973"/></g><g class="series serie-1 color-1"><path class="line reactive nofill" d="M14.076923 453.144256 L19.068740 401.156492 24.060556 346.017954 29.052373 332.375105 34.044190 325.537926 39.036007 327.113313 44.027823 348.255003 49.019640 351.531808 54.011457 338.519113 59.003273 323.174846 63.995090 344.001459 68.986907 338.582129 73.978723 333.666922 78.970540 338.361574 83.962357 337.762927 88.954173 342.520595 93.945990 343.339797 98.937807 341.228778 103.929624 350.397529 108.921440 356.447015 113.913257 354.146950 118.905074 354.777105 123.896890 354.682582 128.888707 356.194953 133.880524 362.055392 138.872340 359.755327 143.864157 366.308936 148.855974 361.582776 153.847791 362.843085 158.839607 361.015636 163.831424 358.274463 168.823241 359.944373 173.815057 358.621048 178.806874 360.290958 183.798691 360.353974 188.790507 357.896371 193.782324 360.038897 198.774141 359.660804 203.765957 362.622531 208.757774 363.504748 213.749591 365.710289 218.741408 366.592506 223.733224 368.766539 228.725041 365.804812 233.716858 364.828072 238.708674 361.834838 243.700491 361.582776 248.692308 359.125172 253.684124 360.984129 258.675941 359.881358 263.667758 360.196435 268.659574 358.463510 273.651391 357.549785 278.643208 358.022401 283.635025 357.266216 288.626841 357.108677 293.618658 356.667569 298.610475 356.289476 303.602291 355.785352 308.594108 353.957904 313.585925 351.342762 318.577741 349.294759 323.569558 348.191988 328.561375 346.553586 333.553191 348.223496 338.545008 347.057709 343.536825 350.334514 348.528642 349.042697 353.520458 348.034449 358.512275 348.916666 363.504092 349.767375 368.495908 351.720854 373.487725 350.838638 378.479542 350.334514 383.471358 349.578328 388.463175 352.382517 393.454992 351.405777 398.446809 350.429037 403.438625 351.531808 408.430442 351.563316 413.422259 349.924913 418.414075 348.601588 423.405892 348.412542 428.397709 348.097465 433.389525 348.034449 438.381342 349.200235 443.373159 348.223496 448.364975 348.475558 453.356792 348.286511 458.348609 350.870145 463.340426 350.019437 468.332242 348.381034 473.324059 349.767375 478.315876 350.744115 483.307692 351.027684 488.299509 349.357774 493.291326 351.720854 498.283142 350.870145 503.274959 349.483805 508.266776 348.034449 513.258592 348.948174 518.250409 349.452297 523.242226 349.578328 528.234043 348.696112 533.225859 352.004424 538.217676 352.855133 543.209493 352.666086 548.201309 351.909901 553.193126 352.729102 558.184943 352.666086 563.176759 351.626331 568.168576 350.460545 573.160393 349.420790 578.152209 349.420790 583.144026 349.326266 588.135843 348.885158 593.127660 348.223496 598.119476 348.065957 603.111293 347.026202 608.103110 348.128972 613.094926 347.278264 618.086743 349.672852 623.078560 349.515313 628.070376 348.538573 633.062193 349.578328 638.054010 349.231743 643.045827 348.223496 648.037643 347.561833 653.029460 347.215248 658.021277 348.696112 663.013093 348.759127 668.004910 349.452297 672.996727 349.515313 677.988543 349.515313 682.980360 349.735867 687.972177 349.011189 692.963993 351.248238 697.955810 350.712607 702.947627 350.744115 707.939444 350.366022 712.931260 350.334514 717.923077 349.515313"/></g><g class="series serie-2 color-2"><path class="line reactive nofill" d="M14.076923 348.223496 L19.068740 348.223496 24.060556 348.223496 29.052373 348.223496 34.044190 348.223496 39.036007 348.223496 44.027823 348.223496 49.019640 348.223496 54.011457 348.223496 59.003273 348.223496 63.995090 348.223496 68.986907 348.223496 73.978723 348.223496 78.970540 348.223496 83.962357 348.223496 88.954173 348.223496 93.945990 348.223496 98.937807 348.223496 103.929624 348.223496 108.921440 348.223496 113.913257 348.223496 118.905074 348.223496 123.896890 348.223496 128.888707 348.223496 133.880524 348.223496 138.872340 348.223496 143.864157 348.223496 148.855974 348.223496 153.847791 348.223496 158.839607 348.223496 163.831424 348.223496 168.823241 348.223496 173.815057 348.223496 178.806874 348.223496 183.798691 348.223496 188.790507 348.223496 193.782324 348.223496 198.774141 348.223496 203.765957 348.223496 208.757774 348.223496 213.749591 348.223496 218.741408 348.223496 223.733224 348.223496 228.725041 348.223496 233.716858 348.223496 238.708674 348.223496 243.700491 348.223496 248.692308 348.223496 253.684124 348.223496 258.675941 348.223496 263.667758 348.223496 268.659574 348.223496 273.651391 348.223496 278.643208 348.223496 283.635025 348.223496 288.626841 348.223496 293.618658 348.223496 298.610475 348.223496 303.602291 348.223496 308.594108 348.223496 313.585925 348.223496 318.577741 348.223496 323.569558 348.223496 328.561375 348.223496 333.553191 348.223496 338.545008 348.223496 343.536825 348.223496 348.528642 348.223496 353.520458 348.223496 358.512275 348.223496 363.504092 348.223496 368.495908 348.223496 373.487725 348.223496 378.479542 348.223496 383.471358 348.223496 388.463175 348.223496 393.454992 348.223496 398.446809 348.223496 403.438625 348.223496 408.430442 348.223496 413.422259 348.223496 418.414075 348.223496 423.405892 348.223496 428.397709 348.223496 433.389525 348.223496 438.381342 348.223496 443.373159 348.223496 448.364975 348.223496 453.356792 348.223496 458.348609 348.223496 463.340426 348.223496 468.332242 348.223496 473.324059 348.223496 478.315876 348.223496 483.307692 348.223496 488.299509 348.223496 493.291326 348.223496 498.283142 348.223496 503.274959 348.223496 508.266776 348.223496 513.258592 348.223496 518.250409 348.223496 523.242226 348.223496 528.234043 348.223496 533.225859 348.223496 538.217676 348.223496 543.209493 348.223496 548.201309 348.223496 553.193126 348.223496 558.184943 348.223496 563.176759 348.223496 568.168576 348.223496 573.160393 348.223496 578.152209 348.223496 583.144026 348.223496 588.135843 348.223496 593.127660 348.223496 598.119476 348.223496 603.111293 348.223496 608.103110 348.223496 613.094926 348.223496 618.086743 348.223496 623.078560 348.223496 628.070376 348.223496 633.062193 348.223496 638.054010 348.223496 643.045827 348.223496 648.037643 348.223496 653.029460 348.223496 658.021277 348.223496 663.013093 348.223496 668.004910 348.223496 672.996727 348.223496 677.988543 348.223496 682.980360 348.223496 687.972177 348.223496 692.963993 348.223496 697.955810 348.223496 702.947627 348.223496 707.939444 348.223496 712.931260 348.223496 717.923077 348.223496"/></g></g><g class="titles"><text class="title plot_title" x="400.0" y="26">Mushtaq Ahmed: Future and Past Averages in ODIs</text></g><g class="plot overlay" transform="translate(48, 46)"><g class="series serie-0 color-0"><g class="dots"><desc class="label">161 wickets in 142 innings (1257.1 overs)</desc><circle class="dot reactive tooltip-trigger" cx="14.076923076923077" cy="348.2234956699284" r="2.5"/><desc class="value">33.3</desc><desc class="x top">14.076923076923077</desc><desc class="y top">348.2234956699284</desc><desc class="x_label">1989</desc></g><g class="dots"><desc class="label">149 wickets in 130 innings (1159.4 overs)</desc><circle class="dot reactive tooltip-trigger" cx="73.97872340425532" cy="349.3892818932172" r="2.5"/><desc class="value">32.93</desc><desc class="x top">73.97872340425532</desc><desc class="y top">349.3892818932172</desc><desc class="x_label">1990</desc></g><g class="dots"><desc class="label">125 wickets in 116 innings (1052.4 overs)</desc><circle class="dot reactive tooltip-trigger" cx="143.86415711947623" cy="343.0247192687758" r="2.5"/><desc class="value">34.95</desc><desc class="x top">143.86415711947623</desc><desc class="y top">343.0247192687758</desc><desc class="x_label">1991</desc></g><g class="dots"><desc class="label">123 wickets in 112 innings (1018.4 overs)</desc><circle class="dot reactive tooltip-trigger" cx="163.83142389525366" cy="345.1357375650014" r="2.5"/><desc class="value">34.28</desc><desc class="x top">163.83142389525366</desc><desc class="y top">345.1357375650014</desc><desc class="x_label">1992</desc></g><g class="dots"><desc class="label">92 wickets in 87 innings (790.0 overs)</desc><circle class="dot reactive tooltip-trigger" cx="288.62684124386254" cy="341.57536342360606" r="2.5"/><desc class="value">35.41</desc><desc class="x top">288.62684124386254</desc><desc class="y top">341.57536342360606</desc><desc class="x_label">1993</desc></g><g class="dots"><desc class="label">72 wickets in 67 innings (621.4 overs)</desc><circle class="dot reactive tooltip-trigger" cx="388.4631751227496" cy="343.087734740305" r="2.5"/><desc class="value">34.93</desc><desc class="x left top">388.4631751227496</desc><desc class="y left top">343.087734740305</desc><desc class="x_label">1994</desc></g><g class="dots"><desc class="label">69 wickets in 62 innings (574.4 overs)</desc><circle class="dot reactive tooltip-trigger" cx="413.4222585924714" cy="345.9864464306446" r="2.5"/><desc class="value">34.01</desc><desc class="x left top">413.4222585924714</desc><desc class="y left top">345.9864464306446</desc><desc class="x_label">1995</desc></g><g class="dots"><desc class="label">62 wickets in 54 innings (503.4 overs)</desc><circle class="dot reactive tooltip-trigger" cx="453.3567921440262" cy="348.1604801983993" r="2.5"/><desc class="value">33.32</desc><desc class="x left top">453.3567921440262</desc><desc class="y left top">348.1604801983993</desc><desc class="x_label">1996</desc></g><g class="dots"><desc class="label">30 wickets in 29 innings (264.2 overs)</desc><circle class="dot reactive tooltip-trigger" cx="578.152209492635" cy="342.96170379724674" r="2.5"/><desc class="value">34.97</desc><desc class="x left top">578.152209492635</desc><desc class="y left top">342.96170379724674</desc><desc class="x_label">1997</desc></g><g class="dots"><desc class="label">20 wickets in 19 innings (175.2 overs)</desc><circle class="dot reactive tooltip-trigger" cx="628.0703764320785" cy="346.01795416640914" r="2.5"/><desc class="value">34</desc><desc class="x left top">628.0703764320785</desc><desc class="y left top">346.01795416640914</desc><desc class="x_label">1998</desc></g><g class="dots"><desc class="label">17 wickets in 14 innings (136.4 overs)</desc><circle class="dot reactive tooltip-trigger" cx="653.0294599018002" cy="356.9511384767118" r="2.5"/><desc class="value">30.53</desc><desc class="x left top">653.0294599018002</desc><desc class="y left top">356.9511384767118</desc><desc class="x_label">1999</desc></g><g class="dots"><desc class="label">14 wickets in 13 innings (128.0 overs)</desc><circle class="dot reactive tooltip-trigger" cx="658.0212765957447" cy="343.30828889065685" r="2.5"/><desc class="value">34.86</desc><desc class="x left top">658.0212765957447</desc><desc class="y left top">343.30828889065685</desc><desc class="x_label">2000</desc></g><g class="dots"><desc class="label">0 wickets in 1 innings (10.0 overs)</desc><circle class="dot reactive tooltip-trigger" cx="717.9230769230769" cy="248.34397329626998" r="2.5"/><desc class="value">65</desc><desc class="x left top">717.9230769230769</desc><desc class="y left top">248.34397329626998</desc><desc class="x_label">2003</desc></g></g><g class="series serie-1 color-1"><g class="dots"><desc class="label">0 wickets over 0 innings</desc><circle class="dot reactive tooltip-trigger" cx="14.076923076923077" cy="453.1442557659166" r="2.5"/><desc class="value">0</desc><desc class="x top">14.076923076923077</desc><desc class="y top">453.1442557659166</desc><desc class="x_label">1989</desc></g><g class="dots"><desc class="label">12 wickets in 12 innings (97.3 overs)</desc><circle class="dot reactive tooltip-trigger" cx="73.97872340425532" cy="333.6669217467012" r="2.5"/><desc class="value">37.92</desc><desc class="x top">73.97872340425532</desc><desc class="y top">333.6669217467012</desc><desc class="x_label">1990</desc></g><g class="dots"><desc class="label">36 wickets in 26 innings (204.3 overs)</desc><circle class="dot reactive tooltip-trigger" cx="143.86415711947623" cy="366.30893599878647" r="2.5"/><desc class="value">27.56</desc><desc class="x top">143.86415711947623</desc><desc class="y top">366.30893599878647</desc><desc class="x_label">1991</desc></g><g class="dots"><desc class="label">38 wickets in 30 innings (238.3 overs)</desc><circle class="dot reactive tooltip-trigger" cx="163.83142389525366" cy="358.2744633788234" r="2.5"/><desc class="value">30.11</desc><desc class="x top">163.83142389525366</desc><desc class="y top">358.2744633788234</desc><desc class="x_label">1992</desc></g><g class="dots"><desc class="label">69 wickets in 55 innings (467.1 overs)</desc><circle class="dot reactive tooltip-trigger" cx="288.62684124386254" cy="357.1086771555346" r="2.5"/><desc class="value">30.48</desc><desc class="x top">288.62684124386254</desc><desc class="y top">357.1086771555346</desc><desc class="x_label">1993</desc></g><g class="dots"><desc class="label">89 wickets in 75 innings (635.3 overs)</desc><circle class="dot reactive tooltip-trigger" cx="388.4631751227496" cy="352.38251679085045" r="2.5"/><desc class="value">31.98</desc><desc class="x left top">388.4631751227496</desc><desc class="y left top">352.38251679085045</desc><desc class="x_label">1994</desc></g><g class="dots"><desc class="label">92 wickets in 80 innings (682.3 overs)</desc><circle class="dot reactive tooltip-trigger" cx="413.4222585924714" cy="349.92491340121467" r="2.5"/><desc class="value">32.76</desc><desc class="x left top">413.4222585924714</desc><desc class="y left top">349.92491340121467</desc><desc class="x_label">1995</desc></g><g class="dots"><desc class="label">99 wickets in 88 innings (753.3 overs)</desc><circle class="dot reactive tooltip-trigger" cx="453.3567921440262" cy="348.28651114145754" r="2.5"/><desc class="value">33.28</desc><desc class="x left top">453.3567921440262</desc><desc class="y left top">348.28651114145754</desc><desc class="x_label">1996</desc></g><g class="dots"><desc class="label">131 wickets in 113 innings (992.5 overs)</desc><circle class="dot reactive tooltip-trigger" cx="578.152209492635" cy="349.4207896289817" r="2.5"/><desc class="value">32.92</desc><desc class="x left top">578.152209492635</desc><desc class="y left top">349.4207896289817</desc><desc class="x_label">1997</desc></g><g class="dots"><desc class="label">141 wickets in 123 innings (1081.5 overs)</desc><circle class="dot reactive tooltip-trigger" cx="628.0703764320785" cy="348.538573027574" r="2.5"/><desc class="value">33.2</desc><desc class="x left top">628.0703764320785</desc><desc class="y left top">348.538573027574</desc><desc class="x_label">1998</desc></g><g class="dots"><desc class="label">144 wickets in 128 innings (1120.3 overs)</desc><circle class="dot reactive tooltip-trigger" cx="653.0294599018002" cy="347.2152481254625" r="2.5"/><desc class="value">33.62</desc><desc class="x left top">653.0294599018002</desc><desc class="y left top">347.2152481254625</desc><desc class="x_label">1999</desc></g><g class="dots"><desc class="label">147 wickets in 129 innings (1129.1 overs)</desc><circle class="dot reactive tooltip-trigger" cx="658.0212765957447" cy="348.69611170639683" r="2.5"/><desc class="value">33.15</desc><desc class="x left top">658.0212765957447</desc><desc class="y left top">348.69611170639683</desc><desc class="x_label">2000</desc></g><g class="dots"><desc class="label">161 wickets in 141 innings (1247.1 overs)</desc><circle class="dot reactive tooltip-trigger" cx="717.9230769230769" cy="349.51531283627537" r="2.5"/><desc class="value">32.89</desc><desc class="x left top">717.9230769230769</desc><desc class="y left top">349.51531283627537</desc><desc class="x_label">2003</desc></g></g><g class="series serie-2 color-2"/></g><g class="plot text-overlay" transform="translate(48, 46)"><g class="series serie-0 color-0"/><g class="series serie-1 color-1"/><g class="series serie-2 color-2"/></g><g class="plot tooltip-overlay" transform="translate(48, 46)"><g class="tooltip" style="opacity: 0" transform="translate(0 0)"><rect class="tooltip-box" height="0" rx="10" ry="10" width="0"/><g class="text"/></g></g><g class="legends" transform="translate(58, 545)"><g class="legend reactive activate-serie" id="activate-serie-0"><rect class="color-0 reactive" height="12" width="12" x="0.0" y="1.0"/><text x="17.0" y="11.2">Future Average</text></g><g class="legend reactive activate-serie" id="activate-serie-1"><rect class="color-1 reactive" height="12" width="12" x="366.0" y="1.0"/><text x="383.0" y="11.2">Past Average</text></g><g class="legend reactive activate-serie" id="activate-serie-2"><rect class="color-2 reactive" height="12" width="12" x="0.0" y="22.0"/><text x="17.0" y="32.2">Career Average</text></g></g></g></svg>