<?xml version='1.0' encoding='utf-8'?>
<svg xmlns:xlink="http://www.w3.org/1999/xlink" xmlns="http://www.w3.org/2000/svg" id="chart-03b38fe6-14f8-4542-a784-a7a19088cfb1" class="pygal-chart" viewBox="0 0 800 600"><!--Generated with pygal 2.4.0 (lxml) ©Kozea 2012-2016 on 2019-08-04--><!--http://pygal.org--><!--http://github.com/Kozea/pygal--><defs><style type="text/css">#chart-03b38fe6-14f8-4542-a784-a7a19088cfb1{-webkit-user-select:none;-webkit-font-smoothing:antialiased;font-family:Consolas,"Liberation Mono",Menlo,Courier,monospace}#chart-03b38fe6-14f8-4542-a784-a7a19088cfb1 .title{font-family:Consolas,"Liberation Mono",Menlo,Courier,monospace;font-size:16px}#chart-03b38fe6-14f8-4542-a784-a7a19088cfb1 .legends .legend text{font-family:Consolas,"Liberation Mono",Menlo,Courier,monospace;font-size:14px}#chart-03b38fe6-14f8-4542-a784-a7a19088cfb1 .axis text{font-family:Consolas,"Liberation Mono",Menlo,Courier,monospace;font-size:10px}#chart-03b38fe6-14f8-4542-a784-a7a19088cfb1 .axis text.major{font-family:Consolas,"Liberation Mono",Menlo,Courier,monospace;font-size:10px}#chart-03b38fe6-14f8-4542-a784-a7a19088cfb1 .text-overlay text.value{font-family:Consolas,"Liberation Mono",Menlo,Courier,monospace;font-size:16px}#chart-03b38fe6-14f8-4542-a784-a7a19088cfb1 .text-overlay text.label{font-family:Consolas,"Liberation Mono",Menlo,Courier,monospace;font-size:10px}#chart-03b38fe6-14f8-4542-a784-a7a19088cfb1 .tooltip{font-family:Consolas,"Liberation Mono",Menlo,Courier,monospace;font-size:14px}#chart-03b38fe6-14f8-4542-a784-a7a19088cfb1 text.no_data{font-family:Consolas,"Liberation Mono",Menlo,Courier,monospace;font-size:64px}
#chart-03b38fe6-14f8-4542-a784-a7a19088cfb1{background-color:rgba(249,249,249,1)}#chart-03b38fe6-14f8-4542-a784-a7a19088cfb1 path,#chart-03b38fe6-14f8-4542-a784-a7a19088cfb1 line,#chart-03b38fe6-14f8-4542-a784-a7a19088cfb1 rect,#chart-03b38fe6-14f8-4542-a784-a7a19088cfb1 circle{-webkit-transition:150ms;-moz-transition:150ms;transition:150ms}#chart-03b38fe6-14f8-4542-a784-a7a19088cfb1 .graph &gt; .background{fill:rgba(249,249,249,1)}#chart-03b38fe6-14f8-4542-a784-a7a19088cfb1 .plot &gt; .background{fill:rgba(255,255,255,1)}#chart-03b38fe6-14f8-4542-a784-a7a19088cfb1 .graph{fill:rgba(0,0,0,.87)}#chart-03b38fe6-14f8-4542-a784-a7a19088cfb1 text.no_data{fill:rgba(0,0,0,1)}#chart-03b38fe6-14f8-4542-a784-a7a19088cfb1 .title{fill:rgba(0,0,0,1)}#chart-03b38fe6-14f8-4542-a784-a7a19088cfb1 .legends .legend text{fill:rgba(0,0,0,.87)}#chart-03b38fe6-14f8-4542-a784-a7a19088cfb1 .legends .legend:hover text{fill:rgba(0,0,0,1)}#chart-03b38fe6-14f8-4542-a784-a7a19088cfb1 .axis .line{stroke:rgba(0,0,0,1)}#chart-03b38fe6-14f8-4542-a784-a7a19088cfb1 .axis .guide.line{stroke:rgba(0,0,0,.54)}#chart-03b38fe6-14f8-4542-a784-a7a19088cfb1 .axis .major.line{stroke:rgba(0,0,0,.87)}#chart-03b38fe6-14f8-4542-a784-a7a19088cfb1 .axis text.major{fill:rgba(0,0,0,1)}#chart-03b38fe6-14f8-4542-a784-a7a19088cfb1 .axis.y .guides:hover .guide.line,#chart-03b38fe6-14f8-4542-a784-a7a19088cfb1 .line-graph .axis.x .guides:hover .guide.line,#chart-03b38fe6-14f8-4542-a784-a7a19088cfb1 .stackedline-graph .axis.x .guides:hover .guide.line,#chart-03b38fe6-14f8-4542-a784-a7a19088cfb1 .xy-graph .axis.x .guides:hover .guide.line{stroke:rgba(0,0,0,1)}#chart-03b38fe6-14f8-4542-a784-a7a19088cfb1 .axis .guides:hover text{fill:rgba(0,0,0,1)}#chart-03b38fe6-14f8-4542-a784-a7a19088cfb1 .reactive{fill-opacity:.7;stroke-opacity:.8}#chart-03b38fe6-14f8-4542-a784-a7a19088cfb1 .ci{stroke:rgba(0,0,0,.87)}#chart-03b38fe6-14f8-4542-a784-a7a19088cfb1 .reactive.active,#chart-03b38fe6-14f8-4542-a784-a7a19088cfb1 .active .reactive{fill-opacity:.8;stroke-opacity:.9;stroke-width:4}#chart-03b38fe6-14f8-4542-a784-a7a19088cfb1 .ci .reactive.active{stroke-width:1.5}#chart-03b38fe6-14f8-4542-a784-a7a19088cfb1 .series text{fill:rgba(0,0,0,1)}#chart-03b38fe6-14f8-4542-a784-a7a19088cfb1 .tooltip rect{fill:rgba(255,255,255,1);stroke:rgba(0,0,0,1);-webkit-transition:opacity 150ms;-moz-transition:opacity 150ms;transition:opacity 150ms}#chart-03b38fe6-14f8-4542-a784-a7a19088cfb1 .tooltip .label{fill:rgba(0,0,0,.87)}#chart-03b38fe6-14f8-4542-a784-a7a19088cfb1 .tooltip .label{fill:rgba(0,0,0,.87)}#chart-03b38fe6-14f8-4542-a784-a7a19088cfb1 .tooltip .legend{font-size:.8em;fill:rgba(0,0,0,.54)}#chart-03b38fe6-14f8-4542-a784-a7a19088cfb1 .tooltip .x_label{font-size:.6em;fill:rgba(0,0,0,1)}#chart-03b38fe6-14f8-4542-a784-a7a19088cfb1 .tooltip .xlink{font-size:.5em;text-decoration:underline}#chart-03b38fe6-14f8-4542-a784-a7a19088cfb1 .tooltip .value{font-size:1.5em}#chart-03b38fe6-14f8-4542-a784-a7a19088cfb1 .bound{font-size:.5em}#chart-03b38fe6-14f8-4542-a784-a7a19088cfb1 .max-value{font-size:.75em;fill:rgba(0,0,0,.54)}#chart-03b38fe6-14f8-4542-a784-a7a19088cfb1 .map-element{fill:rgba(255,255,255,1);stroke:rgba(0,0,0,.54) !important}#chart-03b38fe6-14f8-4542-a784-a7a19088cfb1 .map-element .reactive{fill-opacity:inherit;stroke-opacity:inherit}#chart-03b38fe6-14f8-4542-a784-a7a19088cfb1 .color-0,#chart-03b38fe6-14f8-4542-a784-a7a19088cfb1 .color-0 a:visited{stroke:red;fill:red}#chart-03b38fe6-14f8-4542-a784-a7a19088cfb1 .color-1,#chart-03b38fe6-14f8-4542-a784-a7a19088cfb1 .color-1 a:visited{stroke:blue;fill:blue}#chart-03b38fe6-14f8-4542-a784-a7a19088cfb1 .color-2,#chart-03b38fe6-14f8-4542-a784-a7a19088cfb1 .color-2 a:visited{stroke:green;fill:green}#chart-03b38fe6-14f8-4542-a784-a7a19088cfb1 .text-overlay .color-0 text{fill:white}#chart-03b38fe6-14f8-4542-a784-a7a19088cfb1 .text-overlay .color-1 text{fill:white}#chart-03b38fe6-14f8-4542-a784-a7a19088cfb1 .text-overlay .color-2 text{fill:white}
#chart-03b38fe6-14f8-4542-a784-a7a19088cfb1 text.no_data{text-anchor:middle}#chart-03b38fe6-14f8-4542-a784-a7a19088cfb1 .guide.line{fill:none}#chart-03b38fe6-14f8-4542-a784-a7a19088cfb1 .centered{text-anchor:middle}#chart-03b38fe6-14f8-4542-a784-a7a19088cfb1 .title{text-anchor:middle}#chart-03b38fe6-14f8-4542-a784-a7a19088cfb1 .legends .legend text{fill-opacity:1}#chart-03b38fe6-14f8-4542-a784-a7a19088cfb1 .axis.x text{text-anchor:middle}#chart-03b38fe6-14f8-4542-a784-a7a19088cfb1 .axis.x:not(.web) text[transform]{text-anchor:start}#chart-03b38fe6-14f8-4542-a784-a7a19088cfb1 .axis.x:not(.web) text[transform].backwards{text-anchor:end}#chart-03b38fe6-14f8-4542-a784-a7a19088cfb1 .axis.y text{text-anchor:end}#chart-03b38fe6-14f8-4542-a784-a7a19088cfb1 .axis.y text[transform].backwards{text-anchor:start}#chart-03b38fe6-14f8-4542-a784-a7a19088cfb1 .axis.y2 text{text-anchor:start}#chart-03b38fe6-14f8-4542-a784-a7a19088cfb1 .axis.y2 text[transform].backwards{text-anchor:end}#chart-03b38fe6-14f8-4542-a784-a7a19088cfb1 .axis .guide.line{stroke-dasharray:4,4}#chart-03b38fe6-14f8-4542-a784-a7a19088cfb1 .axis .major.guide.line{stroke-dasharray:6,6}#chart-03b38fe6-14f8-4542-a784-a7a19088cfb1 .horizontal .axis.y .guide.line,#chart-03b38fe6-14f8-4542-a784-a7a19088cfb1 .horizontal .axis.y2 .guide.line,#chart-03b38fe6-14f8-4542-a784-a7a19088cfb1 .vertical .axis.x .guide.line{opacity:0}#chart-03b38fe6-14f8-4542-a784-a7a19088cfb1 .horizontal .axis.always_show .guide.line,#chart-03b38fe6-14f8-4542-a784-a7a19088cfb1 .vertical .axis.always_show .guide.line{opacity:1 !important}#chart-03b38fe6-14f8-4542-a784-a7a19088cfb1 .axis.y .guides:hover .guide.line,#chart-03b38fe6-14f8-4542-a784-a7a19088cfb1 .axis.y2 .guides:hover .guide.line,#chart-03b38fe6-14f8-4542-a784-a7a19088cfb1 .axis.x .guides:hover .guide.line{opacity:1}#chart-03b38fe6-14f8-4542-a784-a7a19088cfb1 .axis .guides:hover text{opacity:1}#chart-03b38fe6-14f8-4542-a784-a7a19088cfb1 .nofill{fill:none}#chart-03b38fe6-14f8-4542-a784-a7a19088cfb1 .subtle-fill{fill-opacity:.2}#chart-03b38fe6-14f8-4542-a784-a7a19088cfb1 .dot{stroke-width:1px;fill-opacity:1}#chart-03b38fe6-14f8-4542-a784-a7a19088cfb1 .dot.active{stroke-width:5px}#chart-03b38fe6-14f8-4542-a784-a7a19088cfb1 .dot.negative{fill:transparent}#chart-03b38fe6-14f8-4542-a784-a7a19088cfb1 text,#chart-03b38fe6-14f8-4542-a784-a7a19088cfb1 tspan{stroke:none !important}#chart-03b38fe6-14f8-4542-a784-a7a19088cfb1 .series text.active{opacity:1}#chart-03b38fe6-14f8-4542-a784-a7a19088cfb1 .tooltip rect{fill-opacity:.95;stroke-width:.5}#chart-03b38fe6-14f8-4542-a784-a7a19088cfb1 .tooltip text{fill-opacity:1}#chart-03b38fe6-14f8-4542-a784-a7a19088cfb1 .showable{visibility:hidden}#chart-03b38fe6-14f8-4542-a784-a7a19088cfb1 .showable.shown{visibility:visible}#chart-03b38fe6-14f8-4542-a784-a7a19088cfb1 .gauge-background{fill:rgba(229,229,229,1);stroke:none}#chart-03b38fe6-14f8-4542-a784-a7a19088cfb1 .bg-lines{stroke:rgba(249,249,249,1);stroke-width:2px}</style><script type="text/javascript">window.pygal = window.pygal || {};window.pygal.config = window.pygal.config || {};window.pygal.config['03b38fe6-14f8-4542-a784-a7a19088cfb1'] = {"allow_interruptions": false, "box_mode": "extremes", "classes": ["pygal-chart"], "css": ["file://style.css", "file://graph.css"], "defs": [], "disable_xml_declaration": false, "dots_size": 2.5, "dynamic_print_values": false, "explicit_size": false, "fill": false, "force_uri_protocol": "https", "formatter": null, "half_pie": false, "height": 600, "include_x_axis": false, "inner_radius": 0, "interpolate": null, "interpolation_parameters": {}, "interpolation_precision": 250, "inverse_y_axis": false, "js": ["//kozea.github.io/pygal.js/2.0.x/pygal-tooltips.min.js"], "legend_at_bottom": true, "legend_at_bottom_columns": null, "legend_box_size": 12, "logarithmic": false, "margin": 20, "margin_bottom": null, "margin_left": null, "margin_right": null, "margin_top": null, "max_scale": 16, "min_scale": 4, "missing_value_fill_truncation": "x", "no_data_text": "No data", "no_prefix": false, "order_min": null, "pretty_print": false, "print_labels": false, "print_values": false, "print_values_position": "center", "print_zeroes": true, "range": null, "rounded_bars": null, "secondary_range": null, "show_dots": true, "show_legend": true, "show_minor_x_labels": false, "show_minor_y_labels": true, "show_only_major_dots": false, "show_x_guides": false, "show_x_labels": true, "show_y_guides": true, "show_y_labels": true, "spacing": 10, "stack_from_top": false, "strict": false, "stroke": true, "stroke_style": null, "style": {"background": "rgba(249, 249, 249, 1)", "ci_colors": [], "colors": ["red", "blue", "green", "#a3a3a3"], "font_family": "Consolas, \"Liberation Mono\", Menlo, Courier, monospace", "foreground": "rgba(0, 0, 0, .87)", "foreground_strong": "rgba(0, 0, 0, 1)", "foreground_subtle": "rgba(0, 0, 0, .54)", "guide_stroke_dasharray": "4,4", "label_font_family": "Consolas, \"Liberation Mono\", Menlo, Courier, monospace", "label_font_size": 10, "legend_font_family": "Consolas, \"Liberation Mono\", Menlo, Courier, monospace", "legend_font_size": 14, "major_guide_stroke_dasharray": "6,6", "major_label_font_family": "Consolas, \"Liberation Mono\", Menlo, Courier, monospace", "major_label_font_size": 10, "no_data_font_family": "Consolas, \"Liberation Mono\", Menlo, Courier, monospace", "no_data_font_size": 64, "opacity": ".7", "opacity_hover": ".8", "plot_background": "rgba(255, 255, 255, 1)", "stroke_opacity": ".8", "stroke_opacity_hover": ".9", "title_font_family": "Consolas, \"Liberation Mono\", Menlo, Courier, monospace", "title_font_size": 16, "tooltip_font_family": "Consolas, \"Liberation Mono\", Menlo, Courier, monospace", "tooltip_font_size": 14, "transition": "150ms", "value_background": "rgba(229, 229, 229, 1)", "value_colors": [], "value_font_family": "Consolas, \"Liberation Mono\", Menlo, Courier, monospace", "value_font_size": 16, "value_label_font_family": "Consolas, \"Liberation Mono\", Menlo, Courier, monospace", "value_label_font_size": 10}, "title": "NLTC Perera: Future and Past Averages in ODIs", "tooltip_border_radius": 10, "tooltip_fancy_mode": true, "truncate_label": null, "truncate_legend": null, "width": 800, "x_label_rotation": 45, "x_labels": ["2010", "0", "0", "0", "0", "0", "0", "0", "0", "0", "0", "0", "0", "0", "2011", "0", "0", "0", "0", "0", "0", "0", "0", "0", "2012", "0", "0", "0", "0", "0", "0", "0", "0", "0", "0", "0", "0", "0", "0", "0", "0", "0", "0", "0", "0", "2013", "0", "0", "0", "0", "0", "0", "0", "0", "0", "0", "0", "0", "0", "0", "0", "0", "2014", "0", "0", "0", "0", "0", "0", "0", "0", "0", "0", "0", "0", "0", "0", "0", "0", "0", "0", "0", "0", "0", "0", "0", "2015", "0", "0", "0", "0", "0", "0", "0", "0", "0", "0", "0", "0", "0", "0", "0", "0", "2016", "0", "0", "0", "0", "0", "2017", "0", "0", "0", "0", "0", "0", "0", "0", "0", "0", "0", "0", "2018", "0", "0", "0", "0", "0", "0", "0", "0", "0", "0", "0", "0", "0", "2019", "0", "0", "0", "0", "0", "0", "0", "0", "0", "0", "0", "0", "0", "0", "0"], "x_labels_major": ["2010", "2011", "2012", "2013", "2014", "2015", "2016", "2017", "2018", "2019"], "x_labels_major_count": null, "x_labels_major_every": null, "x_title": null, "xrange": null, "y_label_rotation": 0, "y_labels": null, "y_labels_major": null, "y_labels_major_count": null, "y_labels_major_every": null, "y_title": null, "zero": 250.0, "legends": ["Future Average", "Past Average", "Career Average"]}</script><script type="text/javascript" xlink:href="https://kozea.github.io/pygal.js/2.0.x/pygal-tooltips.min.js"/></defs><title>NLTC Perera: Future and Past Averages in ODIs</title><g class="graph line-graph vertical"><rect class="background" height="600" width="800" x="0" y="0"/><g class="plot" transform="translate(48, 46)"><rect class="background" height="462.02943725152284" width="732.0" x="0" y="0"/><g class="axis y always_show"><g class="guides"><path class="axis major line" d="M0.000000 453.144256 h732.000000"/><text class="major" x="-5" y="456.6442557659166">0</text><title>0</title></g><g class="guides"><path class="guide line" d="M0.000000 416.579723 h732.000000"/><text class="" x="-5" y="420.07972290333964">20</text><title>20</title></g><g class="guides"><path class="guide line" d="M0.000000 380.015190 h732.000000"/><text class="" x="-5" y="383.51519004076266">40</text><title>40</title></g><g class="guides"><path class="guide line" d="M0.000000 343.450657 h732.000000"/><text class="" x="-5" y="346.9506571781857">60</text><title>60</title></g><g class="guides"><path class="guide line" d="M0.000000 306.886124 h732.000000"/><text class="" x="-5" y="310.3861243156087">80</text><title>80</title></g><g class="guides"><path class="major guide line" d="M0.000000 270.321591 h732.000000"/><text class="major" x="-5" y="273.8215914530317">100</text><title>100</title></g><g class="guides"><path class="guide line" d="M0.000000 233.757059 h732.000000"/><text class="" x="-5" y="237.2570585904547">120</text><title>120</title></g><g class="guides"><path class="guide line" d="M0.000000 197.192526 h732.000000"/><text class="" x="-5" y="200.69252572787775">140</text><title>140</title></g><g class="guides"><path class="guide line" d="M0.000000 160.627993 h732.000000"/><text class="" x="-5" y="164.1279928653007">160</text><title>160</title></g><g class="guides"><path class="guide line" d="M0.000000 124.063460 h732.000000"/><text class="" x="-5" y="127.56346000272373">180</text><title>180</title></g><g class="guides"><path class="major guide line" d="M0.000000 87.498927 h732.000000"/><text class="major" x="-5" y="90.99892714014675">200</text><title>200</title></g><g class="guides"><path class="guide line" d="M0.000000 50.934394 h732.000000"/><text class="" x="-5" y="54.434394277569766">220</text><title>220</title></g><g class="guides"><path class="guide line" d="M0.000000 14.369861 h732.000000"/><text class="" x="-5" y="17.869861414992783">240</text><title>240</title></g></g><g class="axis x"><g class="guides"><path class="major line" d="M14.076923 0.000000 v462.029437"/><text class="major" x="14.076923076923077" y="477.02943725152284" transform="rotate(45 14.076923 477.029437)">2010</text></g><g class="guides"><path class="major guide line" d="M79.334182 0.000000 v462.029437"/><text class="major" x="79.33418237391747" y="477.02943725152284" transform="rotate(45 79.334182 477.029437)">2011</text></g><g class="guides"><path class="major guide line" d="M125.946510 0.000000 v462.029437"/><text class="major" x="125.94651044319919" y="477.02943725152284" transform="rotate(45 125.946510 477.029437)">2012</text></g><g class="guides"><path class="major guide line" d="M223.832399 0.000000 v462.029437"/><text class="major" x="223.83239938869082" y="477.02943725152284" transform="rotate(45 223.832399 477.029437)">2013</text></g><g class="guides"><path class="major guide line" d="M303.073357 0.000000 v462.029437"/><text class="major" x="303.0733571064697" y="477.02943725152284" transform="rotate(45 303.073357 477.029437)">2014</text></g><g class="guides"><path class="major guide line" d="M414.942944 0.000000 v462.029437"/><text class="major" x="414.9429444727458" y="477.02943725152284" transform="rotate(45 414.942944 477.029437)">2015</text></g><g class="guides"><path class="major guide line" d="M494.183902 0.000000 v462.029437"/><text class="major" x="494.1839021905247" y="477.02943725152284" transform="rotate(45 494.183902 477.029437)">2016</text></g><g class="guides"><path class="major guide line" d="M522.151299 0.000000 v462.029437"/><text class="major" x="522.1512990320937" y="477.02943725152284" transform="rotate(45 522.151299 477.029437)">2017</text></g><g class="guides"><path class="major guide line" d="M582.747326 0.000000 v462.029437"/><text class="major" x="582.7473255221599" y="477.02943725152284" transform="rotate(45 582.747326 477.029437)">2018</text></g><g class="guides"><path class="major guide line" d="M648.004585 0.000000 v462.029437"/><text class="major" x="648.0045848191544" y="477.02943725152284" transform="rotate(45 648.004585 477.029437)">2019</text></g></g><g class="series serie-0 color-0"><path class="line reactive nofill" d="M14.076923 393.745172 L18.738156 394.439898 23.399389 394.037688 28.060621 393.690325 32.721854 393.690325 37.383087 393.873148 42.044320 394.257076 46.705553 394.421616 51.366786 394.439898 56.028018 394.714132 60.689251 393.196704 65.350484 392.465413 70.011717 391.002832 74.672950 390.655469 79.334182 390.893139 83.995415 390.052154 88.656648 389.046630 93.317881 388.936936 97.979114 388.900372 102.640346 389.174606 107.301579 388.973501 111.962812 388.425033 116.624045 388.553008 121.285278 388.571291 125.946510 389.010065 130.607743 388.498162 135.268976 389.393993 139.930209 389.430557 144.591442 389.064912 149.252674 388.479879 153.913907 386.925887 158.575140 387.456072 163.236373 388.315339 167.897606 388.443315 172.558839 388.900372 177.220071 386.304290 181.881304 384.604039 186.542537 384.878273 191.203770 384.183547 195.865003 382.556425 200.526235 382.867224 205.187468 383.763055 209.848701 384.019006 214.509934 384.274958 219.171167 384.658886 223.832399 384.274958 228.493632 384.786862 233.154865 384.146982 237.816098 384.402934 242.477331 384.201829 247.138563 384.220111 251.799796 384.366369 256.461029 385.189071 261.122262 385.280483 265.783495 385.755822 270.444727 384.183547 275.105960 383.891031 279.767193 383.379127 284.428426 383.836184 289.089659 383.397409 293.750891 383.708208 298.412124 384.110418 303.073357 383.726490 307.734590 383.671643 312.395823 382.885506 317.057056 382.885506 321.718288 383.689926 326.379521 384.585757 331.040754 382.647836 335.701987 381.514336 340.363220 383.086611 345.024452 383.671643 349.685685 382.867224 354.346918 380.417400 359.008151 377.053463 363.669384 378.424633 368.330616 379.375311 372.991849 379.174206 377.653082 380.344271 382.314315 380.892739 386.975548 378.753714 391.636780 378.040705 396.298013 378.570891 400.959246 379.119359 405.620479 378.680585 410.281712 379.302182 414.942944 379.960343 419.604177 380.819610 424.265410 382.026239 428.926643 382.720965 433.587876 383.305998 438.249109 383.635079 442.910341 385.134225 447.571574 385.280483 452.232807 385.828951 456.894040 385.700975 461.555273 386.304290 466.216505 386.779629 470.877738 386.944169 475.538971 387.291532 480.200204 387.145274 484.861437 387.693742 489.522669 389.942461 494.183902 388.790678 498.845135 387.931411 503.506368 389.649944 508.167601 389.266017 512.828833 386.286007 517.490066 387.035580 522.151299 388.041105 526.812532 390.655469 531.473765 391.240502 536.134997 392.081486 540.796230 392.501978 545.457463 393.288115 550.118696 394.860390 554.779929 393.470938 559.441161 392.959035 564.102394 393.726890 568.763627 394.586156 573.424860 394.439898 578.086093 393.562349 582.747326 393.141857 587.408558 391.807252 592.069791 389.156323 596.731024 381.002432 601.392257 376.687818 606.053490 379.265617 610.714722 378.717149 615.375955 369.265217 620.037188 361.970593 624.698421 363.689126 629.359654 363.945078 634.020886 325.570601 638.682119 318.074871 643.343352 319.903098 648.004585 324.034890 652.665818 305.368696 657.327050 326.393303 661.988283 328.824844 666.649516 335.534436 671.310749 233.757059 675.971982 256.920690 680.633214 264.836912 685.294447 188.965506 689.955680 8.885181 694.616913 54.590848 699.278146 89.327154 703.939379 211.818339 708.600611 273.978045 713.261844 325.168391 717.923077 387.328097"/></g><g class="series serie-1 color-1"><path class="line reactive nofill" d="M14.076923 453.144256 L18.738156 332.481297 23.399389 368.131717 28.060621 396.012173 32.721854 395.737939 37.383087 390.381235 42.044320 379.704392 46.705553 374.841309 51.366786 377.400826 56.028018 371.130009 60.689251 401.039796 65.350484 407.072944 70.011717 414.385851 74.672950 414.660085 79.334182 413.087810 83.995415 415.263400 88.656648 417.749788 93.317881 416.342053 97.979114 415.574198 102.640346 413.617996 107.301579 413.691125 111.962812 414.385851 116.624045 413.179221 121.285278 412.484495 125.946510 410.893938 130.607743 411.478971 135.268976 408.462397 139.930209 407.895646 144.591442 408.096751 149.252674 408.937736 153.913907 411.204737 158.575140 409.870131 163.236373 407.621412 167.897606 407.328896 172.558839 406.140549 177.220071 409.870131 181.881304 411.533817 186.542537 410.564857 191.203770 410.564857 195.865003 411.990874 200.526235 411.040196 205.187468 409.632462 209.848701 408.828042 214.509934 408.078469 219.171167 407.493436 223.832399 407.731106 228.493632 406.981533 233.154865 407.255767 237.816098 406.890122 242.477331 406.561041 247.138563 406.231960 251.799796 405.756621 256.461029 404.677967 261.122262 404.586556 265.783495 403.983241 270.444727 405.135024 275.105960 405.208153 279.767193 405.244718 284.428426 404.751097 289.089659 404.970484 293.750891 404.385451 298.412124 403.964959 303.073357 403.873548 307.734590 403.690725 312.395823 403.983241 317.057056 403.745572 321.718288 402.995999 326.379521 402.173297 331.040754 403.270233 335.701987 403.763854 340.363220 402.484095 345.024452 401.990474 349.685685 402.246426 354.346918 403.434773 359.008151 404.751097 363.669384 403.855265 368.330616 403.233668 372.991849 403.123975 377.653082 402.374402 382.314315 402.027039 386.975548 402.703483 391.636780 402.904588 396.298013 402.593789 400.959246 402.282991 405.620479 402.301273 410.281712 401.953910 414.942944 401.588264 419.604177 401.094643 424.265410 400.418199 428.926643 400.015990 433.587876 399.522368 438.249109 399.211570 442.910341 398.279174 447.571574 398.078069 452.232807 397.712424 456.894040 397.657577 461.555273 397.273650 466.216505 396.871440 470.877738 396.706899 475.538971 396.560641 480.200204 396.542359 484.861437 396.322972 489.522669 395.354012 494.183902 395.737939 498.845135 396.012173 503.506368 395.335729 508.167601 395.445423 512.828833 396.322972 517.490066 396.067020 522.151299 395.719657 526.812532 394.805544 531.473765 394.604439 536.134997 394.293640 540.796230 394.147382 545.457463 393.891430 550.118696 393.397809 554.779929 393.818301 559.441161 393.964559 564.102394 393.745172 568.763627 393.507503 573.424860 393.544067 578.086093 393.781737 582.747326 393.891430 587.408558 394.165664 592.069791 394.641003 596.731024 395.829351 601.392257 396.268125 606.053490 395.884197 610.714722 395.847633 615.375955 396.450948 620.037188 396.798311 624.698421 396.633770 629.359654 396.396101 634.020886 397.529601 638.682119 397.456472 643.343352 397.365061 648.004585 397.163956 652.665818 396.962851 657.327050 396.194996 661.988283 396.103585 666.649516 395.865915 671.310749 396.597206 675.971982 396.194996 680.633214 396.048738 685.294447 396.158431 689.955680 396.012173 694.616913 395.737939 699.278146 395.865915 703.939379 395.152907 708.600611 394.787261 713.261844 394.494745 717.923077 394.129100"/></g><g class="series serie-2 color-2"><path class="line reactive nofill" d="M14.076923 393.745172 L18.738156 393.745172 23.399389 393.745172 28.060621 393.745172 32.721854 393.745172 37.383087 393.745172 42.044320 393.745172 46.705553 393.745172 51.366786 393.745172 56.028018 393.745172 60.689251 393.745172 65.350484 393.745172 70.011717 393.745172 74.672950 393.745172 79.334182 393.745172 83.995415 393.745172 88.656648 393.745172 93.317881 393.745172 97.979114 393.745172 102.640346 393.745172 107.301579 393.745172 111.962812 393.745172 116.624045 393.745172 121.285278 393.745172 125.946510 393.745172 130.607743 393.745172 135.268976 393.745172 139.930209 393.745172 144.591442 393.745172 149.252674 393.745172 153.913907 393.745172 158.575140 393.745172 163.236373 393.745172 167.897606 393.745172 172.558839 393.745172 177.220071 393.745172 181.881304 393.745172 186.542537 393.745172 191.203770 393.745172 195.865003 393.745172 200.526235 393.745172 205.187468 393.745172 209.848701 393.745172 214.509934 393.745172 219.171167 393.745172 223.832399 393.745172 228.493632 393.745172 233.154865 393.745172 237.816098 393.745172 242.477331 393.745172 247.138563 393.745172 251.799796 393.745172 256.461029 393.745172 261.122262 393.745172 265.783495 393.745172 270.444727 393.745172 275.105960 393.745172 279.767193 393.745172 284.428426 393.745172 289.089659 393.745172 293.750891 393.745172 298.412124 393.745172 303.073357 393.745172 307.734590 393.745172 312.395823 393.745172 317.057056 393.745172 321.718288 393.745172 326.379521 393.745172 331.040754 393.745172 335.701987 393.745172 340.363220 393.745172 345.024452 393.745172 349.685685 393.745172 354.346918 393.745172 359.008151 393.745172 363.669384 393.745172 368.330616 393.745172 372.991849 393.745172 377.653082 393.745172 382.314315 393.745172 386.975548 393.745172 391.636780 393.745172 396.298013 393.745172 400.959246 393.745172 405.620479 393.745172 410.281712 393.745172 414.942944 393.745172 419.604177 393.745172 424.265410 393.745172 428.926643 393.745172 433.587876 393.745172 438.249109 393.745172 442.910341 393.745172 447.571574 393.745172 452.232807 393.745172 456.894040 393.745172 461.555273 393.745172 466.216505 393.745172 470.877738 393.745172 475.538971 393.745172 480.200204 393.745172 484.861437 393.745172 489.522669 393.745172 494.183902 393.745172 498.845135 393.745172 503.506368 393.745172 508.167601 393.745172 512.828833 393.745172 517.490066 393.745172 522.151299 393.745172 526.812532 393.745172 531.473765 393.745172 536.134997 393.745172 540.796230 393.745172 545.457463 393.745172 550.118696 393.745172 554.779929 393.745172 559.441161 393.745172 564.102394 393.745172 568.763627 393.745172 573.424860 393.745172 578.086093 393.745172 582.747326 393.745172 587.408558 393.745172 592.069791 393.745172 596.731024 393.745172 601.392257 393.745172 606.053490 393.745172 610.714722 393.745172 615.375955 393.745172 620.037188 393.745172 624.698421 393.745172 629.359654 393.745172 634.020886 393.745172 638.682119 393.745172 643.343352 393.745172 648.004585 393.745172 652.665818 393.745172 657.327050 393.745172 661.988283 393.745172 666.649516 393.745172 671.310749 393.745172 675.971982 393.745172 680.633214 393.745172 685.294447 393.745172 689.955680 393.745172 694.616913 393.745172 699.278146 393.745172 703.939379 393.745172 708.600611 393.745172 713.261844 393.745172 717.923077 393.745172"/></g></g><g class="titles"><text class="title plot_title" x="400.0" y="26">NLTC Perera: Future and Past Averages in ODIs</text></g><g class="plot overlay" transform="translate(48, 46)"><g class="series serie-0 color-0"><g class="dots"><desc class="label">171 wickets in 152 innings (951.5 overs)</desc><circle class="dot reactive tooltip-trigger" cx="14.076923076923077" cy="393.7451721306603" r="2.5"/><desc class="value">32.49</desc><desc class="x top">14.076923076923077</desc><desc class="y top">393.7451721306603</desc><desc class="x_label">2010</desc></g><g class="dots"><desc class="label">149 wickets in 138 innings (862.1 overs)</desc><circle class="dot reactive tooltip-trigger" cx="79.33418237391747" cy="390.8931385673793" r="2.5"/><desc class="value">34.05</desc><desc class="x top">79.33418237391747</desc><desc class="y top">390.8931385673793</desc><desc class="x_label">2011</desc></g><g class="dots"><desc class="label">134 wickets in 128 innings (780.1 overs)</desc><circle class="dot reactive tooltip-trigger" cx="125.94651044319919" cy="389.0100651249566" r="2.5"/><desc class="value">35.08</desc><desc class="x top">125.94651044319919</desc><desc class="y top">389.0100651249566</desc><desc class="x_label">2012</desc></g><g class="dots"><desc class="label">102 wickets in 107 innings (636.0 overs)</desc><circle class="dot reactive tooltip-trigger" cx="223.83239938869082" cy="384.27495811925286" r="2.5"/><desc class="value">37.67</desc><desc class="x top">223.83239938869082</desc><desc class="y top">384.27495811925286</desc><desc class="x_label">2013</desc></g><g class="dots"><desc class="label">86 wickets in 90 innings (539.2 overs)</desc><circle class="dot reactive tooltip-trigger" cx="303.0733571064697" cy="383.7264901263142" r="2.5"/><desc class="value">37.97</desc><desc class="x top">303.0733571064697</desc><desc class="y top">383.7264901263142</desc><desc class="x_label">2014</desc></g><g class="dots"><desc class="label">62 wickets in 66 innings (398.3 overs)</desc><circle class="dot reactive tooltip-trigger" cx="414.9429444727458" cy="379.96034324146876" r="2.5"/><desc class="value">40.03</desc><desc class="x left top">414.9429444727458</desc><desc class="y left top">379.96034324146876</desc><desc class="x_label">2015</desc></g><g class="dots"><desc class="label">49 wickets in 49 innings (282.0 overs)</desc><circle class="dot reactive tooltip-trigger" cx="494.1839021905247" cy="388.79067792778113" r="2.5"/><desc class="value">35.2</desc><desc class="x left top">494.1839021905247</desc><desc class="y left top">388.79067792778113</desc><desc class="x_label">2016</desc></g><g class="dots"><desc class="label">44 wickets in 43 innings (259.0 overs)</desc><circle class="dot reactive tooltip-trigger" cx="522.1512990320937" cy="388.0411050040983" r="2.5"/><desc class="value">35.61</desc><desc class="x left top">522.1512990320937</desc><desc class="y left top">388.0411050040983</desc><desc class="x_label">2017</desc></g><g class="dots"><desc class="label">33 wickets in 30 innings (184.4 overs)</desc><circle class="dot reactive tooltip-trigger" cx="582.7473255221599" cy="393.14185733842777" r="2.5"/><desc class="value">32.82</desc><desc class="x left top">582.7473255221599</desc><desc class="y left top">393.14185733842777</desc><desc class="x_label">2018</desc></g><g class="dots"><desc class="label">8 wickets in 16 innings (95.1 overs)</desc><circle class="dot reactive tooltip-trigger" cx="648.0045848191544" cy="324.0348902281573" r="2.5"/><desc class="value">70.62</desc><desc class="x left top">648.0045848191544</desc><desc class="y left top">324.0348902281573</desc><desc class="x_label">2019</desc></g></g><g class="series serie-1 color-1"><g class="dots"><desc class="label">0 wickets over 0 innings</desc><circle class="dot reactive tooltip-trigger" cx="14.076923076923077" cy="453.1442557659166" r="2.5"/><desc class="value">0</desc><desc class="x top">14.076923076923077</desc><desc class="y top">453.1442557659166</desc><desc class="x_label">2010</desc></g><g class="dots"><desc class="label">22 wickets in 14 innings (89.4 overs)</desc><circle class="dot reactive tooltip-trigger" cx="79.33418237391747" cy="413.08781001496357" r="2.5"/><desc class="value">21.91</desc><desc class="x top">79.33418237391747</desc><desc class="y top">413.08781001496357</desc><desc class="x_label">2011</desc></g><g class="dots"><desc class="label">37 wickets in 24 innings (171.4 overs)</desc><circle class="dot reactive tooltip-trigger" cx="125.94651044319919" cy="410.8939380432089" r="2.5"/><desc class="value">23.11</desc><desc class="x top">125.94651044319919</desc><desc class="y top">410.8939380432089</desc><desc class="x_label">2012</desc></g><g class="dots"><desc class="label">69 wickets in 45 innings (315.5 overs)</desc><circle class="dot reactive tooltip-trigger" cx="223.83239938869082" cy="407.73110595059603" r="2.5"/><desc class="value">24.84</desc><desc class="x top">223.83239938869082</desc><desc class="y top">407.73110595059603</desc><desc class="x_label">2013</desc></g><g class="dots"><desc class="label">85 wickets in 62 innings (412.3 overs)</desc><circle class="dot reactive tooltip-trigger" cx="303.0733571064697" cy="403.87354773359414" r="2.5"/><desc class="value">26.95</desc><desc class="x top">303.0733571064697</desc><desc class="y top">403.87354773359414</desc><desc class="x_label">2014</desc></g><g class="dots"><desc class="label">109 wickets in 86 innings (553.2 overs)</desc><circle class="dot reactive tooltip-trigger" cx="414.9429444727458" cy="401.5882644296831" r="2.5"/><desc class="value">28.2</desc><desc class="x left top">414.9429444727458</desc><desc class="y left top">401.5882644296831</desc><desc class="x_label">2015</desc></g><g class="dots"><desc class="label">122 wickets in 103 innings (669.5 overs)</desc><circle class="dot reactive tooltip-trigger" cx="494.1839021905247" cy="395.73793917167075" r="2.5"/><desc class="value">31.4</desc><desc class="x left top">494.1839021905247</desc><desc class="y left top">395.73793917167075</desc><desc class="x_label">2016</desc></g><g class="dots"><desc class="label">127 wickets in 109 innings (692.5 overs)</desc><circle class="dot reactive tooltip-trigger" cx="522.1512990320937" cy="395.71965690523945" r="2.5"/><desc class="value">31.41</desc><desc class="x left top">522.1512990320937</desc><desc class="y left top">395.71965690523945</desc><desc class="x_label">2017</desc></g><g class="dots"><desc class="label">138 wickets in 122 innings (767.1 overs)</desc><circle class="dot reactive tooltip-trigger" cx="582.7473255221599" cy="393.89143026211065" r="2.5"/><desc class="value">32.41</desc><desc class="x left top">582.7473255221599</desc><desc class="y left top">393.89143026211065</desc><desc class="x_label">2018</desc></g><g class="dots"><desc class="label">163 wickets in 136 innings (856.4 overs)</desc><circle class="dot reactive tooltip-trigger" cx="648.0045848191544" cy="397.16395595331124" r="2.5"/><desc class="value">30.62</desc><desc class="x left top">648.0045848191544</desc><desc class="y left top">397.16395595331124</desc><desc class="x_label">2019</desc></g></g><g class="series serie-2 color-2"/></g><g class="plot text-overlay" transform="translate(48, 46)"><g class="series serie-0 color-0"/><g class="series serie-1 color-1"/><g class="series serie-2 color-2"/></g><g class="plot tooltip-overlay" transform="translate(48, 46)"><g class="tooltip" style="opacity: 0" transform="translate(0 0)"><rect class="tooltip-box" height="0" rx="10" ry="10" width="0"/><g class="text"/></g></g><g class="legends" transform="translate(58, 545)"><g class="legend reactive activate-serie" id="activate-serie-0"><rect class="color-0 reactive" height="12" width="12" x="0.0" y="1.0"/><text x="17.0" y="11.2">Future Average</text></g><g class="legend reactive activate-serie" id="activate-serie-1"><rect class="color-1 reactive" height="12" width="12" x="366.0" y="1.0"/><text x="383.0" y="11.2">Past Average</text></g><g class="legend reactive activate-serie" id="activate-serie-2"><rect class="color-2 reactive" height="12" width="12" x="0.0" y="22.0"/><text x="17.0" y="32.2">Career Average</text></g></g></g></svg>