<?xml version='1.0' encoding='utf-8'?>
<svg xmlns:xlink="http://www.w3.org/1999/xlink" xmlns="http://www.w3.org/2000/svg" id="chart-5fa9562e-8e56-4ad8-8927-0176850f537a" class="pygal-chart" viewBox="0 0 800 600"><!--Generated with pygal 2.4.0 (lxml) ©Kozea 2012-2016 on 2019-08-04--><!--http://pygal.org--><!--http://github.com/Kozea/pygal--><defs><style type="text/css">#chart-5fa9562e-8e56-4ad8-8927-0176850f537a{-webkit-user-select:none;-webkit-font-smoothing:antialiased;font-family:Consolas,"Liberation Mono",Menlo,Courier,monospace}#chart-5fa9562e-8e56-4ad8-8927-0176850f537a .title{font-family:Consolas,"Liberation Mono",Menlo,Courier,monospace;font-size:16px}#chart-5fa9562e-8e56-4ad8-8927-0176850f537a .legends .legend text{font-family:Consolas,"Liberation Mono",Menlo,Courier,monospace;font-size:14px}#chart-5fa9562e-8e56-4ad8-8927-0176850f537a .axis text{font-family:Consolas,"Liberation Mono",Menlo,Courier,monospace;font-size:10px}#chart-5fa9562e-8e56-4ad8-8927-0176850f537a .axis text.major{font-family:Consolas,"Liberation Mono",Menlo,Courier,monospace;font-size:10px}#chart-5fa9562e-8e56-4ad8-8927-0176850f537a .text-overlay text.value{font-family:Consolas,"Liberation Mono",Menlo,Courier,monospace;font-size:16px}#chart-5fa9562e-8e56-4ad8-8927-0176850f537a .text-overlay text.label{font-family:Consolas,"Liberation Mono",Menlo,Courier,monospace;font-size:10px}#chart-5fa9562e-8e56-4ad8-8927-0176850f537a .tooltip{font-family:Consolas,"Liberation Mono",Menlo,Courier,monospace;font-size:14px}#chart-5fa9562e-8e56-4ad8-8927-0176850f537a text.no_data{font-family:Consolas,"Liberation Mono",Menlo,Courier,monospace;font-size:64px}
#chart-5fa9562e-8e56-4ad8-8927-0176850f537a{background-color:rgba(249,249,249,1)}#chart-5fa9562e-8e56-4ad8-8927-0176850f537a path,#chart-5fa9562e-8e56-4ad8-8927-0176850f537a line,#chart-5fa9562e-8e56-4ad8-8927-0176850f537a rect,#chart-5fa9562e-8e56-4ad8-8927-0176850f537a circle{-webkit-transition:150ms;-moz-transition:150ms;transition:150ms}#chart-5fa9562e-8e56-4ad8-8927-0176850f537a .graph &gt; .background{fill:rgba(249,249,249,1)}#chart-5fa9562e-8e56-4ad8-8927-0176850f537a .plot &gt; .background{fill:rgba(255,255,255,1)}#chart-5fa9562e-8e56-4ad8-8927-0176850f537a .graph{fill:rgba(0,0,0,.87)}#chart-5fa9562e-8e56-4ad8-8927-0176850f537a text.no_data{fill:rgba(0,0,0,1)}#chart-5fa9562e-8e56-4ad8-8927-0176850f537a .title{fill:rgba(0,0,0,1)}#chart-5fa9562e-8e56-4ad8-8927-0176850f537a .legends .legend text{fill:rgba(0,0,0,.87)}#chart-5fa9562e-8e56-4ad8-8927-0176850f537a .legends .legend:hover text{fill:rgba(0,0,0,1)}#chart-5fa9562e-8e56-4ad8-8927-0176850f537a .axis .line{stroke:rgba(0,0,0,1)}#chart-5fa9562e-8e56-4ad8-8927-0176850f537a .axis .guide.line{stroke:rgba(0,0,0,.54)}#chart-5fa9562e-8e56-4ad8-8927-0176850f537a .axis .major.line{stroke:rgba(0,0,0,.87)}#chart-5fa9562e-8e56-4ad8-8927-0176850f537a .axis text.major{fill:rgba(0,0,0,1)}#chart-5fa9562e-8e56-4ad8-8927-0176850f537a .axis.y .guides:hover .guide.line,#chart-5fa9562e-8e56-4ad8-8927-0176850f537a .line-graph .axis.x .guides:hover .guide.line,#chart-5fa9562e-8e56-4ad8-8927-0176850f537a .stackedline-graph .axis.x .guides:hover .guide.line,#chart-5fa9562e-8e56-4ad8-8927-0176850f537a .xy-graph .axis.x .guides:hover .guide.line{stroke:rgba(0,0,0,1)}#chart-5fa9562e-8e56-4ad8-8927-0176850f537a .axis .guides:hover text{fill:rgba(0,0,0,1)}#chart-5fa9562e-8e56-4ad8-8927-0176850f537a .reactive{fill-opacity:.7;stroke-opacity:.8}#chart-5fa9562e-8e56-4ad8-8927-0176850f537a .ci{stroke:rgba(0,0,0,.87)}#chart-5fa9562e-8e56-4ad8-8927-0176850f537a .reactive.active,#chart-5fa9562e-8e56-4ad8-8927-0176850f537a .active .reactive{fill-opacity:.8;stroke-opacity:.9;stroke-width:4}#chart-5fa9562e-8e56-4ad8-8927-0176850f537a .ci .reactive.active{stroke-width:1.5}#chart-5fa9562e-8e56-4ad8-8927-0176850f537a .series text{fill:rgba(0,0,0,1)}#chart-5fa9562e-8e56-4ad8-8927-0176850f537a .tooltip rect{fill:rgba(255,255,255,1);stroke:rgba(0,0,0,1);-webkit-transition:opacity 150ms;-moz-transition:opacity 150ms;transition:opacity 150ms}#chart-5fa9562e-8e56-4ad8-8927-0176850f537a .tooltip .label{fill:rgba(0,0,0,.87)}#chart-5fa9562e-8e56-4ad8-8927-0176850f537a .tooltip .label{fill:rgba(0,0,0,.87)}#chart-5fa9562e-8e56-4ad8-8927-0176850f537a .tooltip .legend{font-size:.8em;fill:rgba(0,0,0,.54)}#chart-5fa9562e-8e56-4ad8-8927-0176850f537a .tooltip .x_label{font-size:.6em;fill:rgba(0,0,0,1)}#chart-5fa9562e-8e56-4ad8-8927-0176850f537a .tooltip .xlink{font-size:.5em;text-decoration:underline}#chart-5fa9562e-8e56-4ad8-8927-0176850f537a .tooltip .value{font-size:1.5em}#chart-5fa9562e-8e56-4ad8-8927-0176850f537a .bound{font-size:.5em}#chart-5fa9562e-8e56-4ad8-8927-0176850f537a .max-value{font-size:.75em;fill:rgba(0,0,0,.54)}#chart-5fa9562e-8e56-4ad8-8927-0176850f537a .map-element{fill:rgba(255,255,255,1);stroke:rgba(0,0,0,.54) !important}#chart-5fa9562e-8e56-4ad8-8927-0176850f537a .map-element .reactive{fill-opacity:inherit;stroke-opacity:inherit}#chart-5fa9562e-8e56-4ad8-8927-0176850f537a .color-0,#chart-5fa9562e-8e56-4ad8-8927-0176850f537a .color-0 a:visited{stroke:red;fill:red}#chart-5fa9562e-8e56-4ad8-8927-0176850f537a .color-1,#chart-5fa9562e-8e56-4ad8-8927-0176850f537a .color-1 a:visited{stroke:blue;fill:blue}#chart-5fa9562e-8e56-4ad8-8927-0176850f537a .color-2,#chart-5fa9562e-8e56-4ad8-8927-0176850f537a .color-2 a:visited{stroke:green;fill:green}#chart-5fa9562e-8e56-4ad8-8927-0176850f537a .text-overlay .color-0 text{fill:white}#chart-5fa9562e-8e56-4ad8-8927-0176850f537a .text-overlay .color-1 text{fill:white}#chart-5fa9562e-8e56-4ad8-8927-0176850f537a .text-overlay .color-2 text{fill:white}
#chart-5fa9562e-8e56-4ad8-8927-0176850f537a text.no_data{text-anchor:middle}#chart-5fa9562e-8e56-4ad8-8927-0176850f537a .guide.line{fill:none}#chart-5fa9562e-8e56-4ad8-8927-0176850f537a .centered{text-anchor:middle}#chart-5fa9562e-8e56-4ad8-8927-0176850f537a .title{text-anchor:middle}#chart-5fa9562e-8e56-4ad8-8927-0176850f537a .legends .legend text{fill-opacity:1}#chart-5fa9562e-8e56-4ad8-8927-0176850f537a .axis.x text{text-anchor:middle}#chart-5fa9562e-8e56-4ad8-8927-0176850f537a .axis.x:not(.web) text[transform]{text-anchor:start}#chart-5fa9562e-8e56-4ad8-8927-0176850f537a .axis.x:not(.web) text[transform].backwards{text-anchor:end}#chart-5fa9562e-8e56-4ad8-8927-0176850f537a .axis.y text{text-anchor:end}#chart-5fa9562e-8e56-4ad8-8927-0176850f537a .axis.y text[transform].backwards{text-anchor:start}#chart-5fa9562e-8e56-4ad8-8927-0176850f537a .axis.y2 text{text-anchor:start}#chart-5fa9562e-8e56-4ad8-8927-0176850f537a .axis.y2 text[transform].backwards{text-anchor:end}#chart-5fa9562e-8e56-4ad8-8927-0176850f537a .axis .guide.line{stroke-dasharray:4,4}#chart-5fa9562e-8e56-4ad8-8927-0176850f537a .axis .major.guide.line{stroke-dasharray:6,6}#chart-5fa9562e-8e56-4ad8-8927-0176850f537a .horizontal .axis.y .guide.line,#chart-5fa9562e-8e56-4ad8-8927-0176850f537a .horizontal .axis.y2 .guide.line,#chart-5fa9562e-8e56-4ad8-8927-0176850f537a .vertical .axis.x .guide.line{opacity:0}#chart-5fa9562e-8e56-4ad8-8927-0176850f537a .horizontal .axis.always_show .guide.line,#chart-5fa9562e-8e56-4ad8-8927-0176850f537a .vertical .axis.always_show .guide.line{opacity:1 !important}#chart-5fa9562e-8e56-4ad8-8927-0176850f537a .axis.y .guides:hover .guide.line,#chart-5fa9562e-8e56-4ad8-8927-0176850f537a .axis.y2 .guides:hover .guide.line,#chart-5fa9562e-8e56-4ad8-8927-0176850f537a .axis.x .guides:hover .guide.line{opacity:1}#chart-5fa9562e-8e56-4ad8-8927-0176850f537a .axis .guides:hover text{opacity:1}#chart-5fa9562e-8e56-4ad8-8927-0176850f537a .nofill{fill:none}#chart-5fa9562e-8e56-4ad8-8927-0176850f537a .subtle-fill{fill-opacity:.2}#chart-5fa9562e-8e56-4ad8-8927-0176850f537a .dot{stroke-width:1px;fill-opacity:1}#chart-5fa9562e-8e56-4ad8-8927-0176850f537a .dot.active{stroke-width:5px}#chart-5fa9562e-8e56-4ad8-8927-0176850f537a .dot.negative{fill:transparent}#chart-5fa9562e-8e56-4ad8-8927-0176850f537a text,#chart-5fa9562e-8e56-4ad8-8927-0176850f537a tspan{stroke:none !important}#chart-5fa9562e-8e56-4ad8-8927-0176850f537a .series text.active{opacity:1}#chart-5fa9562e-8e56-4ad8-8927-0176850f537a .tooltip rect{fill-opacity:.95;stroke-width:.5}#chart-5fa9562e-8e56-4ad8-8927-0176850f537a .tooltip text{fill-opacity:1}#chart-5fa9562e-8e56-4ad8-8927-0176850f537a .showable{visibility:hidden}#chart-5fa9562e-8e56-4ad8-8927-0176850f537a .showable.shown{visibility:visible}#chart-5fa9562e-8e56-4ad8-8927-0176850f537a .gauge-background{fill:rgba(229,229,229,1);stroke:none}#chart-5fa9562e-8e56-4ad8-8927-0176850f537a .bg-lines{stroke:rgba(249,249,249,1);stroke-width:2px}</style><script type="text/javascript">window.pygal = window.pygal || {};window.pygal.config = window.pygal.config || {};window.pygal.config['5fa9562e-8e56-4ad8-8927-0176850f537a'] = {"allow_interruptions": false, "box_mode": "extremes", "classes": ["pygal-chart"], "css": ["file://style.css", "file://graph.css"], "defs": [], "disable_xml_declaration": false, "dots_size": 2.5, "dynamic_print_values": false, "explicit_size": false, "fill": false, "force_uri_protocol": "https", "formatter": null, "half_pie": false, "height": 600, "include_x_axis": false, "inner_radius": 0, "interpolate": null, "interpolation_parameters": {}, "interpolation_precision": 250, "inverse_y_axis": false, "js": ["//kozea.github.io/pygal.js/2.0.x/pygal-tooltips.min.js"], "legend_at_bottom": true, "legend_at_bottom_columns": null, "legend_box_size": 12, "logarithmic": false, "margin": 20, "margin_bottom": null, "margin_left": null, "margin_right": null, "margin_top": null, "max_scale": 16, "min_scale": 4, "missing_value_fill_truncation": "x", "no_data_text": "No data", "no_prefix": false, "order_min": null, "pretty_print": false, "print_labels": false, "print_values": false, "print_values_position": "center", "print_zeroes": true, "range": null, "rounded_bars": null, "secondary_range": null, "show_dots": true, "show_legend": true, "show_minor_x_labels": false, "show_minor_y_labels": true, "show_only_major_dots": false, "show_x_guides": false, "show_x_labels": true, "show_y_guides": true, "show_y_labels": true, "spacing": 10, "stack_from_top": false, "strict": false, "stroke": true, "stroke_style": null, "style": {"background": "rgba(249, 249, 249, 1)", "ci_colors": [], "colors": ["red", "blue", "green", "#a3a3a3"], "font_family": "Consolas, \"Liberation Mono\", Menlo, Courier, monospace", "foreground": "rgba(0, 0, 0, .87)", "foreground_strong": "rgba(0, 0, 0, 1)", "foreground_subtle": "rgba(0, 0, 0, .54)", "guide_stroke_dasharray": "4,4", "label_font_family": "Consolas, \"Liberation Mono\", Menlo, Courier, monospace", "label_font_size": 10, "legend_font_family": "Consolas, \"Liberation Mono\", Menlo, Courier, monospace", "legend_font_size": 14, "major_guide_stroke_dasharray": "6,6", "major_label_font_family": "Consolas, \"Liberation Mono\", Menlo, Courier, monospace", "major_label_font_size": 10, "no_data_font_family": "Consolas, \"Liberation Mono\", Menlo, Courier, monospace", "no_data_font_size": 64, "opacity": ".7", "opacity_hover": ".8", "plot_background": "rgba(255, 255, 255, 1)", "stroke_opacity": ".8", "stroke_opacity_hover": ".9", "title_font_family": "Consolas, \"Liberation Mono\", Menlo, Courier, monospace", "title_font_size": 16, "tooltip_font_family": "Consolas, \"Liberation Mono\", Menlo, Courier, monospace", "tooltip_font_size": 14, "transition": "150ms", "value_background": "rgba(229, 229, 229, 1)", "value_colors": [], "value_font_family": "Consolas, \"Liberation Mono\", Menlo, Courier, monospace", "value_font_size": 16, "value_label_font_family": "Consolas, \"Liberation Mono\", Menlo, Courier, monospace", "value_label_font_size": 10}, "title": "P Utseya: Future and Past Averages in ODIs", "tooltip_border_radius": 10, "tooltip_fancy_mode": true, "truncate_label": null, "truncate_legend": null, "width": 800, "x_label_rotation": 45, "x_labels": ["2004", "0", "0", "0", "0", "0", "0", "0", "0", "0", "0", "2005", "0", "0", "0", "0", "0", "0", "0", "0", "0", "0", "0", "2006", "0", "0", "0", "0", "0", "0", "0", "0", "0", "0", "0", "0", "0", "0", "0", "0", "0", "0", "0", "0", "0", "0", "0", "0", "0", "0", "0", "0", "2007", "0", "0", "0", "0", "0", "0", "0", "0", "0", "0", "0", "0", "0", "2008", "0", "0", "0", "0", "0", "0", "0", "2009", "0", "0", "0", "0", "0", "0", "0", "0", "0", "0", "0", "0", "0", "0", "0", "0", "0", "0", "0", "0", "0", "0", "2010", "0", "0", "0", "0", "0", "0", "0", "0", "0", "0", "0", "0", "0", "0", "0", "0", "0", "0", "0", "2011", "0", "0", "0", "0", "0", "0", "0", "0", "0", "0", "0", "0", "0", "0", "0", "2012", "0", "2013", "0", "0", "0", "0", "0", "0", "0", "0", "0", "0", "0", "2014", "0", "0", "0", "0", "0", "0", "0", "0", "2015", "0", "0", "0"], "x_labels_major": ["2004", "2005", "2006", "2007", "2008", "2009", "2010", "2011", "2012", "2013", "2014", "2015"], "x_labels_major_count": null, "x_labels_major_every": null, "x_title": null, "xrange": null, "y_label_rotation": 0, "y_labels": null, "y_labels_major": null, "y_labels_major_count": null, "y_labels_major_every": null, "y_title": null, "zero": 260.0, "legends": ["Future Average", "Past Average", "Career Average"]}</script><script type="text/javascript" xlink:href="https://kozea.github.io/pygal.js/2.0.x/pygal-tooltips.min.js"/></defs><title>P Utseya: Future and Past Averages in ODIs</title><g class="graph line-graph vertical"><rect class="background" height="600" width="800" x="0" y="0"/><g class="plot" transform="translate(48, 46)"><rect class="background" height="462.02943725152284" width="732.0" x="0" y="0"/><g class="axis y always_show"><g class="guides"><path class="axis major line" d="M0.000000 453.144256 h732.000000"/><text class="major" x="-5" y="456.6442557659166">0</text><title>0</title></g><g class="guides"><path class="guide line" d="M0.000000 418.838536 h732.000000"/><text class="" x="-5" y="422.33853574427104">20</text><title>20</title></g><g class="guides"><path class="guide line" d="M0.000000 384.532816 h732.000000"/><text class="" x="-5" y="388.03281572262546">40</text><title>40</title></g><g class="guides"><path class="guide line" d="M0.000000 350.227096 h732.000000"/><text class="" x="-5" y="353.7270957009798">60</text><title>60</title></g><g class="guides"><path class="guide line" d="M0.000000 315.921376 h732.000000"/><text class="" x="-5" y="319.42137567933423">80</text><title>80</title></g><g class="guides"><path class="major guide line" d="M0.000000 281.615656 h732.000000"/><text class="major" x="-5" y="285.11565565768865">100</text><title>100</title></g><g class="guides"><path class="guide line" d="M0.000000 247.309936 h732.000000"/><text class="" x="-5" y="250.8099356360431">120</text><title>120</title></g><g class="guides"><path class="guide line" d="M0.000000 213.004216 h732.000000"/><text class="" x="-5" y="216.50421561439748">140</text><title>140</title></g><g class="guides"><path class="guide line" d="M0.000000 178.698496 h732.000000"/><text class="" x="-5" y="182.1984955927519">160</text><title>160</title></g><g class="guides"><path class="guide line" d="M0.000000 144.392776 h732.000000"/><text class="" x="-5" y="147.8927755711063">180</text><title>180</title></g><g class="guides"><path class="major guide line" d="M0.000000 110.087056 h732.000000"/><text class="major" x="-5" y="113.58705554946073">200</text><title>200</title></g><g class="guides"><path class="guide line" d="M0.000000 75.781336 h732.000000"/><text class="" x="-5" y="79.28133552781509">220</text><title>220</title></g><g class="guides"><path class="guide line" d="M0.000000 41.475616 h732.000000"/><text class="" x="-5" y="44.975615506169504">240</text><title>240</title></g></g><g class="axis x"><g class="guides"><path class="major line" d="M14.076923 0.000000 v462.029437"/><text class="major" x="14.076923076923077" y="477.02943725152284" transform="rotate(45 14.076923 477.029437)">2004</text></g><g class="guides"><path class="major guide line" d="M62.770682 0.000000 v462.029437"/><text class="major" x="62.77068214804064" y="477.02943725152284" transform="rotate(45 62.770682 477.029437)">2005</text></g><g class="guides"><path class="major guide line" d="M115.891147 0.000000 v462.029437"/><text class="major" x="115.89114658925979" y="477.02943725152284" transform="rotate(45 115.891147 477.029437)">2006</text></g><g class="guides"><path class="major guide line" d="M244.265602 0.000000 v462.029437"/><text class="major" x="244.2656023222061" y="477.02943725152284" transform="rotate(45 244.265602 477.029437)">2007</text></g><g class="guides"><path class="major guide line" d="M306.239478 0.000000 v462.029437"/><text class="major" x="306.2394775036285" y="477.02943725152284" transform="rotate(45 306.239478 477.029437)">2008</text></g><g class="guides"><path class="major guide line" d="M341.653120 0.000000 v462.029437"/><text class="major" x="341.6531204644412" y="477.02943725152284" transform="rotate(45 341.653120 477.029437)">2009</text></g><g class="guides"><path class="major guide line" d="M443.467344 0.000000 v462.029437"/><text class="major" x="443.46734397677795" y="477.02943725152284" transform="rotate(45 443.467344 477.029437)">2010</text></g><g class="guides"><path class="major guide line" d="M532.001451 0.000000 v462.029437"/><text class="major" x="532.0014513788099" y="477.02943725152284" transform="rotate(45 532.001451 477.029437)">2011</text></g><g class="guides"><path class="major guide line" d="M602.828737 0.000000 v462.029437"/><text class="major" x="602.8287373004355" y="477.02943725152284" transform="rotate(45 602.828737 477.029437)">2012</text></g><g class="guides"><path class="major guide line" d="M611.682148 0.000000 v462.029437"/><text class="major" x="611.6821480406386" y="477.02943725152284" transform="rotate(45 611.682148 477.029437)">2013</text></g><g class="guides"><path class="major guide line" d="M664.802612 0.000000 v462.029437"/><text class="major" x="664.8026124818578" y="477.02943725152284" transform="rotate(45 664.802612 477.029437)">2014</text></g><g class="guides"><path class="major guide line" d="M704.642961 0.000000 v462.029437"/><text class="major" x="704.6429608127721" y="477.02943725152284" transform="rotate(45 704.642961 477.029437)">2015</text></g></g><g class="series serie-0 color-0"><path class="line reactive nofill" d="M14.076923 372.680189 L18.503628 372.817412 22.930334 373.434915 27.357039 373.949501 31.783745 374.395475 36.210450 374.687074 40.637155 374.481240 45.063861 374.927214 49.490566 375.441800 53.917271 375.304577 58.343977 375.767704 62.770682 376.196526 67.197388 375.493258 71.624093 375.373188 76.050798 374.601310 80.477504 374.464087 84.904209 374.858603 89.330914 373.503527 93.757620 374.344017 98.184325 374.721380 102.611030 375.390341 107.037736 375.373188 111.464441 375.990691 115.891147 376.333749 120.317852 376.333749 124.744557 376.488124 129.171263 376.007844 133.597968 375.012978 138.024673 373.469221 142.451379 373.537832 146.878084 373.554985 151.304790 374.138183 155.731495 374.669921 160.158200 374.807144 164.584906 374.241100 169.011611 373.760820 173.438316 372.611578 177.865022 373.160470 182.291727 373.795125 186.718433 374.138183 191.145138 373.040400 195.571843 371.994075 199.998549 372.611578 204.425254 373.160470 208.851959 372.886024 213.278665 373.211928 217.705370 373.417762 222.132075 374.275405 226.558781 374.995826 230.985486 374.875756 235.412192 374.429781 239.838897 374.927214 244.265602 375.407494 248.692308 376.316596 253.119013 376.882640 257.545718 377.465837 261.972424 377.568755 266.399129 378.083340 270.825835 378.546468 275.252540 379.369805 279.679245 378.374939 284.105951 378.735149 288.532656 379.901544 292.959361 380.724881 297.386067 380.982174 301.812772 379.901544 306.239478 378.169105 310.666183 379.078206 315.092888 377.911812 319.519594 378.100493 323.946299 378.666538 328.373004 378.752302 332.799710 379.678556 337.226415 379.163971 341.653120 379.472722 346.079826 378.117646 350.506531 377.774589 354.933237 378.254869 359.359942 377.826047 363.786647 378.512162 368.213353 378.306328 372.640058 378.134799 377.066763 377.037016 381.493469 376.745417 385.920174 377.122780 390.346880 377.826047 394.773585 379.061053 399.200290 379.181123 403.626996 379.249735 408.053701 379.095359 412.480406 376.745417 416.907112 373.983807 421.333817 374.892908 425.760522 371.067821 430.187228 370.261636 434.613933 370.690458 439.040639 372.388591 443.467344 371.170738 447.894049 371.136432 452.320755 372.731648 456.747460 371.273655 461.174165 371.753935 465.600871 370.004343 470.027576 369.918579 474.454282 370.604693 478.880987 370.381706 483.307692 368.426280 487.734398 369.970038 492.161103 371.410878 496.587808 369.283923 501.014514 368.426280 505.441219 370.210178 509.867925 372.594425 514.294630 373.023247 518.721335 372.560119 523.148041 374.515545 527.574746 368.271904 532.001451 369.524063 536.428157 369.266770 540.854862 365.853351 545.281567 366.916828 549.708273 366.899676 554.134978 365.613211 558.561684 365.407377 562.988389 365.098625 567.415094 364.601192 571.841800 358.220328 576.268505 358.803526 580.695210 361.187773 585.121916 361.084856 589.548621 363.880772 593.975327 367.500026 598.402032 370.107260 602.828737 370.416012 607.255443 364.927097 611.682148 364.566887 616.108853 369.249617 620.535559 373.469221 624.962264 377.208544 629.388970 377.431532 633.815675 376.556736 638.242380 371.290808 642.669086 373.229081 647.095791 377.362920 651.522496 381.599677 655.949202 383.572256 660.375907 385.098860 664.802612 386.007962 669.229318 385.184624 673.656023 388.220681 678.082729 389.112629 682.509434 382.989058 686.936139 389.164088 691.362845 396.711346 695.789550 352.628496 700.216255 311.341562 704.642961 342.799907 709.069666 230.157076 713.496372 300.483802 717.923077 374.241100"/></g><g class="series serie-1 color-1"><path class="line reactive nofill" d="M14.076923 453.144256 L18.503628 434.276110 22.930334 351.942382 27.357039 285.046228 31.783745 225.011218 36.210450 187.274926 40.637155 134.101060 45.063861 75.781336 49.490566 8.885181 53.917271 200.997214 58.343977 170.979709 62.770682 142.677490 67.197388 282.044477 71.624093 303.571316 76.050798 338.220094 80.477504 344.875403 84.904209 338.648915 89.330914 363.640632 93.757620 354.275171 98.184325 350.072720 102.611030 342.594073 107.037736 345.510059 111.464441 339.369335 115.891147 335.784388 120.317852 339.009125 124.744557 340.295590 129.171263 346.573537 133.597968 356.779488 138.024673 368.237599 142.451379 368.117529 146.878084 368.237599 151.304790 365.355918 155.731495 362.628613 160.158200 362.525696 164.584906 365.596058 169.011611 367.997459 173.438316 372.971788 177.865022 370.810528 182.291727 368.340516 186.718433 366.933981 191.145138 371.393725 195.571843 374.961520 199.998549 372.920329 204.425254 371.084973 208.851959 372.062686 213.278665 371.067821 217.705370 370.553235 222.132075 368.031764 226.558781 365.921963 230.985486 366.539466 235.412192 367.946000 239.838897 366.625230 244.265602 365.338765 248.692308 362.903059 253.119013 361.376455 257.545718 359.798392 261.972424 360.004226 266.399129 358.666303 270.825835 357.465603 275.252540 355.321495 279.679245 358.940749 284.105951 358.597691 288.532656 355.887540 292.959361 353.966419 297.386067 354.035031 301.812772 357.568520 306.239478 362.302709 310.666183 360.587423 315.092888 363.417645 319.519594 363.383339 323.946299 362.405626 328.373004 362.268403 332.799710 360.690340 337.226415 361.925346 341.653120 361.410760 346.079826 364.206677 350.506531 364.978555 354.933237 364.275288 359.359942 365.150084 363.786647 364.138065 368.213353 364.704110 372.640058 365.167237 377.066763 367.054051 381.493469 367.585790 385.920174 367.122663 390.346880 366.213561 394.773585 364.669804 399.200290 364.772721 403.626996 364.927097 408.053701 365.338765 412.480406 368.443433 416.907112 371.445184 421.333817 370.553235 425.760522 374.052418 430.187228 374.669921 434.613933 374.309711 439.040639 372.920329 443.467344 373.846584 447.894049 373.829431 452.320755 372.645884 456.747460 373.675055 461.174165 373.331998 465.600871 374.446934 470.027576 374.446934 474.454282 374.000960 478.880987 374.121030 483.307692 375.167354 487.734398 374.258253 492.161103 373.417762 496.587808 374.532698 501.014514 374.927214 505.441219 373.983807 509.867925 372.714495 514.294630 372.508661 518.721335 372.731648 523.148041 371.771088 527.574746 374.567004 532.001451 374.035265 536.428157 374.086724 540.854862 375.304577 545.281567 374.910061 549.708273 374.824297 554.134978 375.201660 558.561684 375.184507 562.988389 375.184507 567.415094 375.235966 571.841800 376.711112 576.268505 376.385207 580.695210 375.750551 585.121916 375.630481 589.548621 374.927214 593.975327 374.000960 598.402032 373.331998 602.828737 373.229081 607.255443 374.309711 611.682148 374.292558 616.108853 373.366304 620.535559 372.525814 624.962264 371.788241 629.388970 371.788241 633.815675 371.994075 638.242380 372.903177 642.669086 372.594425 647.095791 371.994075 651.522496 371.376572 655.949202 371.187891 660.375907 371.102126 664.802612 371.119279 669.229318 371.325114 673.656023 370.999209 678.082729 371.050668 682.509434 371.839699 686.936139 371.342266 691.362845 370.724763 695.789550 373.469221 700.216255 374.103877 704.642961 373.366304 709.069666 373.760820 713.496372 373.829431 717.923077 373.280540"/></g><g class="series serie-2 color-2"><path class="line reactive nofill" d="M14.076923 372.680189 L18.503628 372.680189 22.930334 372.680189 27.357039 372.680189 31.783745 372.680189 36.210450 372.680189 40.637155 372.680189 45.063861 372.680189 49.490566 372.680189 53.917271 372.680189 58.343977 372.680189 62.770682 372.680189 67.197388 372.680189 71.624093 372.680189 76.050798 372.680189 80.477504 372.680189 84.904209 372.680189 89.330914 372.680189 93.757620 372.680189 98.184325 372.680189 102.611030 372.680189 107.037736 372.680189 111.464441 372.680189 115.891147 372.680189 120.317852 372.680189 124.744557 372.680189 129.171263 372.680189 133.597968 372.680189 138.024673 372.680189 142.451379 372.680189 146.878084 372.680189 151.304790 372.680189 155.731495 372.680189 160.158200 372.680189 164.584906 372.680189 169.011611 372.680189 173.438316 372.680189 177.865022 372.680189 182.291727 372.680189 186.718433 372.680189 191.145138 372.680189 195.571843 372.680189 199.998549 372.680189 204.425254 372.680189 208.851959 372.680189 213.278665 372.680189 217.705370 372.680189 222.132075 372.680189 226.558781 372.680189 230.985486 372.680189 235.412192 372.680189 239.838897 372.680189 244.265602 372.680189 248.692308 372.680189 253.119013 372.680189 257.545718 372.680189 261.972424 372.680189 266.399129 372.680189 270.825835 372.680189 275.252540 372.680189 279.679245 372.680189 284.105951 372.680189 288.532656 372.680189 292.959361 372.680189 297.386067 372.680189 301.812772 372.680189 306.239478 372.680189 310.666183 372.680189 315.092888 372.680189 319.519594 372.680189 323.946299 372.680189 328.373004 372.680189 332.799710 372.680189 337.226415 372.680189 341.653120 372.680189 346.079826 372.680189 350.506531 372.680189 354.933237 372.680189 359.359942 372.680189 363.786647 372.680189 368.213353 372.680189 372.640058 372.680189 377.066763 372.680189 381.493469 372.680189 385.920174 372.680189 390.346880 372.680189 394.773585 372.680189 399.200290 372.680189 403.626996 372.680189 408.053701 372.680189 412.480406 372.680189 416.907112 372.680189 421.333817 372.680189 425.760522 372.680189 430.187228 372.680189 434.613933 372.680189 439.040639 372.680189 443.467344 372.680189 447.894049 372.680189 452.320755 372.680189 456.747460 372.680189 461.174165 372.680189 465.600871 372.680189 470.027576 372.680189 474.454282 372.680189 478.880987 372.680189 483.307692 372.680189 487.734398 372.680189 492.161103 372.680189 496.587808 372.680189 501.014514 372.680189 505.441219 372.680189 509.867925 372.680189 514.294630 372.680189 518.721335 372.680189 523.148041 372.680189 527.574746 372.680189 532.001451 372.680189 536.428157 372.680189 540.854862 372.680189 545.281567 372.680189 549.708273 372.680189 554.134978 372.680189 558.561684 372.680189 562.988389 372.680189 567.415094 372.680189 571.841800 372.680189 576.268505 372.680189 580.695210 372.680189 585.121916 372.680189 589.548621 372.680189 593.975327 372.680189 598.402032 372.680189 602.828737 372.680189 607.255443 372.680189 611.682148 372.680189 616.108853 372.680189 620.535559 372.680189 624.962264 372.680189 629.388970 372.680189 633.815675 372.680189 638.242380 372.680189 642.669086 372.680189 647.095791 372.680189 651.522496 372.680189 655.949202 372.680189 660.375907 372.680189 664.802612 372.680189 669.229318 372.680189 673.656023 372.680189 678.082729 372.680189 682.509434 372.680189 686.936139 372.680189 691.362845 372.680189 695.789550 372.680189 700.216255 372.680189 704.642961 372.680189 709.069666 372.680189 713.496372 372.680189 717.923077 372.680189"/></g></g><g class="titles"><text class="title plot_title" x="400.0" y="26">P Utseya: Future and Past Averages in ODIs</text></g><g class="plot overlay" transform="translate(48, 46)"><g class="series serie-0 color-0"><g class="dots"><desc class="label">133 wickets in 160 innings (1428.3 overs)</desc><circle class="dot reactive tooltip-trigger" cx="14.076923076923077" cy="372.6801894551469" r="2.5"/><desc class="value">46.91</desc><desc class="x top">14.076923076923077</desc><desc class="y top">372.6801894551469</desc><desc class="x_label">2004</desc></g><g class="dots"><desc class="label">131 wickets in 149 innings (1334.4 overs)</desc><circle class="dot reactive tooltip-trigger" cx="62.77068214804064" cy="376.1965257573656" r="2.5"/><desc class="value">44.86</desc><desc class="x top">62.77068214804064</desc><desc class="y top">376.1965257573656</desc><desc class="x_label">2005</desc></g><g class="dots"><desc class="label">121 wickets in 137 innings (1230.4 overs)</desc><circle class="dot reactive tooltip-trigger" cx="115.89114658925979" cy="376.3337486374521" r="2.5"/><desc class="value">44.78</desc><desc class="x top">115.89114658925979</desc><desc class="y top">376.3337486374521</desc><desc class="x_label">2006</desc></g><g class="dots"><desc class="label">97 wickets in 108 innings (963.2 overs)</desc><circle class="dot reactive tooltip-trigger" cx="244.2656023222061" cy="375.40749419686773" r="2.5"/><desc class="value">45.32</desc><desc class="x top">244.2656023222061</desc><desc class="y top">375.40749419686773</desc><desc class="x_label">2007</desc></g><g class="dots"><desc class="label">87 wickets in 94 innings (832.2 overs)</desc><circle class="dot reactive tooltip-trigger" cx="306.2394775036285" cy="378.1691046586102" r="2.5"/><desc class="value">43.71</desc><desc class="x top">306.2394775036285</desc><desc class="y top">378.1691046586102</desc><desc class="x_label">2008</desc></g><g class="dots"><desc class="label">83 wickets in 86 innings (773.5 overs)</desc><circle class="dot reactive tooltip-trigger" cx="341.6531204644412" cy="379.4727220194327" r="2.5"/><desc class="value">42.95</desc><desc class="x top">341.6531204644412</desc><desc class="y top">379.4727220194327</desc><desc class="x_label">2009</desc></g><g class="dots"><desc class="label">58 wickets in 63 innings (579.0 overs)</desc><circle class="dot reactive tooltip-trigger" cx="443.46734397677795" cy="371.1707377741945" r="2.5"/><desc class="value">47.79</desc><desc class="x left top">443.46734397677795</desc><desc class="y left top">371.1707377741945</desc><desc class="x_label">2010</desc></g><g class="dots"><desc class="label">40 wickets in 43 innings (401.0 overs)</desc><circle class="dot reactive tooltip-trigger" cx="532.0014513788099" cy="369.5240632131555" r="2.5"/><desc class="value">48.75</desc><desc class="x left top">532.0014513788099</desc><desc class="y left top">369.5240632131555</desc><desc class="x_label">2011</desc></g><g class="dots"><desc class="label">26 wickets in 27 innings (255.0 overs)</desc><circle class="dot reactive tooltip-trigger" cx="602.8287373004355" cy="370.4160119337183" r="2.5"/><desc class="value">48.23</desc><desc class="x left top">602.8287373004355</desc><desc class="y left top">370.4160119337183</desc><desc class="x_label">2012</desc></g><g class="dots"><desc class="label">22 wickets in 25 innings (235.0 overs)</desc><circle class="dot reactive tooltip-trigger" cx="611.6821480406386" cy="364.5668866700277" r="2.5"/><desc class="value">51.64</desc><desc class="x left top">611.6821480406386</desc><desc class="y left top">364.5668866700277</desc><desc class="x_label">2013</desc></g><g class="dots"><desc class="label">14 wickets in 13 innings (119.0 overs)</desc><circle class="dot reactive tooltip-trigger" cx="664.8026124818578" cy="386.00796168355623" r="2.5"/><desc class="value">39.14</desc><desc class="x left top">664.8026124818578</desc><desc class="y left top">386.00796168355623</desc><desc class="x_label">2014</desc></g><g class="dots"><desc class="label">3 wickets in 4 innings (37.0 overs)</desc><circle class="dot reactive tooltip-trigger" cx="704.6429608127721" cy="342.79990731629357" r="2.5"/><desc class="value">64.33</desc><desc class="x left top">704.6429608127721</desc><desc class="y left top">342.79990731629357</desc><desc class="x_label">2015</desc></g></g><g class="series serie-1 color-1"><g class="dots"><desc class="label">0 wickets over 0 innings</desc><circle class="dot reactive tooltip-trigger" cx="14.076923076923077" cy="453.1442557659166" r="2.5"/><desc class="value">0</desc><desc class="x top">14.076923076923077</desc><desc class="y top">453.1442557659166</desc><desc class="x_label">2004</desc></g><g class="dots"><desc class="label">2 wickets in 11 innings (93.5 overs)</desc><circle class="dot reactive tooltip-trigger" cx="62.77068214804064" cy="142.67748957002402" r="2.5"/><desc class="value">181</desc><desc class="x ">62.77068214804064</desc><desc class="y ">142.67748957002402</desc><desc class="x_label">2005</desc></g><g class="dots"><desc class="label">12 wickets in 23 innings (197.5 overs)</desc><circle class="dot reactive tooltip-trigger" cx="115.89114658925979" cy="335.78438757186706" r="2.5"/><desc class="value">68.42</desc><desc class="x top">115.89114658925979</desc><desc class="y top">335.78438757186706</desc><desc class="x_label">2006</desc></g><g class="dots"><desc class="label">36 wickets in 52 innings (465.1 overs)</desc><circle class="dot reactive tooltip-trigger" cx="244.2656023222061" cy="365.33876537051475" r="2.5"/><desc class="value">51.19</desc><desc class="x top">244.2656023222061</desc><desc class="y top">365.33876537051475</desc><desc class="x_label">2007</desc></g><g class="dots"><desc class="label">46 wickets in 66 innings (596.1 overs)</desc><circle class="dot reactive tooltip-trigger" cx="306.2394775036285" cy="362.3027091485991" r="2.5"/><desc class="value">52.96</desc><desc class="x top">306.2394775036285</desc><desc class="y top">362.3027091485991</desc><desc class="x_label">2008</desc></g><g class="dots"><desc class="label">50 wickets in 74 innings (654.4 overs)</desc><circle class="dot reactive tooltip-trigger" cx="341.6531204644412" cy="361.4107604280363" r="2.5"/><desc class="value">53.48</desc><desc class="x top">341.6531204644412</desc><desc class="y top">361.4107604280363</desc><desc class="x_label">2009</desc></g><g class="dots"><desc class="label">75 wickets in 97 innings (849.3 overs)</desc><circle class="dot reactive tooltip-trigger" cx="443.46734397677795" cy="373.84658393588285" r="2.5"/><desc class="value">46.23</desc><desc class="x left top">443.46734397677795</desc><desc class="y left top">373.84658393588285</desc><desc class="x_label">2010</desc></g><g class="dots"><desc class="label">93 wickets in 117 innings (1027.3 overs)</desc><circle class="dot reactive tooltip-trigger" cx="532.0014513788099" cy="374.03526539600193" r="2.5"/><desc class="value">46.12</desc><desc class="x left top">532.0014513788099</desc><desc class="y left top">374.03526539600193</desc><desc class="x_label">2011</desc></g><g class="dots"><desc class="label">107 wickets in 133 innings (1173.3 overs)</desc><circle class="dot reactive tooltip-trigger" cx="602.8287373004355" cy="373.2290809754932" r="2.5"/><desc class="value">46.59</desc><desc class="x left top">602.8287373004355</desc><desc class="y left top">373.2290809754932</desc><desc class="x_label">2012</desc></g><g class="dots"><desc class="label">111 wickets in 135 innings (1193.3 overs)</desc><circle class="dot reactive tooltip-trigger" cx="611.6821480406386" cy="374.2925582961642" r="2.5"/><desc class="value">45.97</desc><desc class="x left top">611.6821480406386</desc><desc class="y left top">374.2925582961642</desc><desc class="x_label">2013</desc></g><g class="dots"><desc class="label">119 wickets in 147 innings (1309.3 overs)</desc><circle class="dot reactive tooltip-trigger" cx="664.8026124818578" cy="371.119279194162" r="2.5"/><desc class="value">47.82</desc><desc class="x left top">664.8026124818578</desc><desc class="y left top">371.119279194162</desc><desc class="x_label">2014</desc></g><g class="dots"><desc class="label">130 wickets in 156 innings (1391.3 overs)</desc><circle class="dot reactive tooltip-trigger" cx="704.6429608127721" cy="373.3663038555798" r="2.5"/><desc class="value">46.51</desc><desc class="x left top">704.6429608127721</desc><desc class="y left top">373.3663038555798</desc><desc class="x_label">2015</desc></g></g><g class="series serie-2 color-2"/></g><g class="plot text-overlay" transform="translate(48, 46)"><g class="series serie-0 color-0"/><g class="series serie-1 color-1"/><g class="series serie-2 color-2"/></g><g class="plot tooltip-overlay" transform="translate(48, 46)"><g class="tooltip" style="opacity: 0" transform="translate(0 0)"><rect class="tooltip-box" height="0" rx="10" ry="10" width="0"/><g class="text"/></g></g><g class="legends" transform="translate(58, 545)"><g class="legend reactive activate-serie" id="activate-serie-0"><rect class="color-0 reactive" height="12" width="12" x="0.0" y="1.0"/><text x="17.0" y="11.2">Future Average</text></g><g class="legend reactive activate-serie" id="activate-serie-1"><rect class="color-1 reactive" height="12" width="12" x="366.0" y="1.0"/><text x="383.0" y="11.2">Past Average</text></g><g class="legend reactive activate-serie" id="activate-serie-2"><rect class="color-2 reactive" height="12" width="12" x="0.0" y="22.0"/><text x="17.0" y="32.2">Career Average</text></g></g></g></svg>