<?xml version='1.0' encoding='utf-8'?>
<svg xmlns:xlink="http://www.w3.org/1999/xlink" xmlns="http://www.w3.org/2000/svg" id="chart-e5a2e68c-f056-469e-954b-32a3eb5866cb" class="pygal-chart" viewBox="0 0 800 600"><!--Generated with pygal 2.4.0 (lxml) ©Kozea 2012-2016 on 2019-08-02--><!--http://pygal.org--><!--http://github.com/Kozea/pygal--><defs><style type="text/css">#chart-e5a2e68c-f056-469e-954b-32a3eb5866cb{-webkit-user-select:none;-webkit-font-smoothing:antialiased;font-family:Consolas,"Liberation Mono",Menlo,Courier,monospace}#chart-e5a2e68c-f056-469e-954b-32a3eb5866cb .title{font-family:Consolas,"Liberation Mono",Menlo,Courier,monospace;font-size:16px}#chart-e5a2e68c-f056-469e-954b-32a3eb5866cb .legends .legend text{font-family:Consolas,"Liberation Mono",Menlo,Courier,monospace;font-size:14px}#chart-e5a2e68c-f056-469e-954b-32a3eb5866cb .axis text{font-family:Consolas,"Liberation Mono",Menlo,Courier,monospace;font-size:10px}#chart-e5a2e68c-f056-469e-954b-32a3eb5866cb .axis text.major{font-family:Consolas,"Liberation Mono",Menlo,Courier,monospace;font-size:10px}#chart-e5a2e68c-f056-469e-954b-32a3eb5866cb .text-overlay text.value{font-family:Consolas,"Liberation Mono",Menlo,Courier,monospace;font-size:16px}#chart-e5a2e68c-f056-469e-954b-32a3eb5866cb .text-overlay text.label{font-family:Consolas,"Liberation Mono",Menlo,Courier,monospace;font-size:10px}#chart-e5a2e68c-f056-469e-954b-32a3eb5866cb .tooltip{font-family:Consolas,"Liberation Mono",Menlo,Courier,monospace;font-size:14px}#chart-e5a2e68c-f056-469e-954b-32a3eb5866cb text.no_data{font-family:Consolas,"Liberation Mono",Menlo,Courier,monospace;font-size:64px}
#chart-e5a2e68c-f056-469e-954b-32a3eb5866cb{background-color:rgba(249,249,249,1)}#chart-e5a2e68c-f056-469e-954b-32a3eb5866cb path,#chart-e5a2e68c-f056-469e-954b-32a3eb5866cb line,#chart-e5a2e68c-f056-469e-954b-32a3eb5866cb rect,#chart-e5a2e68c-f056-469e-954b-32a3eb5866cb circle{-webkit-transition:150ms;-moz-transition:150ms;transition:150ms}#chart-e5a2e68c-f056-469e-954b-32a3eb5866cb .graph &gt; .background{fill:rgba(249,249,249,1)}#chart-e5a2e68c-f056-469e-954b-32a3eb5866cb .plot &gt; .background{fill:rgba(255,255,255,1)}#chart-e5a2e68c-f056-469e-954b-32a3eb5866cb .graph{fill:rgba(0,0,0,.87)}#chart-e5a2e68c-f056-469e-954b-32a3eb5866cb text.no_data{fill:rgba(0,0,0,1)}#chart-e5a2e68c-f056-469e-954b-32a3eb5866cb .title{fill:rgba(0,0,0,1)}#chart-e5a2e68c-f056-469e-954b-32a3eb5866cb .legends .legend text{fill:rgba(0,0,0,.87)}#chart-e5a2e68c-f056-469e-954b-32a3eb5866cb .legends .legend:hover text{fill:rgba(0,0,0,1)}#chart-e5a2e68c-f056-469e-954b-32a3eb5866cb .axis .line{stroke:rgba(0,0,0,1)}#chart-e5a2e68c-f056-469e-954b-32a3eb5866cb .axis .guide.line{stroke:rgba(0,0,0,.54)}#chart-e5a2e68c-f056-469e-954b-32a3eb5866cb .axis .major.line{stroke:rgba(0,0,0,.87)}#chart-e5a2e68c-f056-469e-954b-32a3eb5866cb .axis text.major{fill:rgba(0,0,0,1)}#chart-e5a2e68c-f056-469e-954b-32a3eb5866cb .axis.y .guides:hover .guide.line,#chart-e5a2e68c-f056-469e-954b-32a3eb5866cb .line-graph .axis.x .guides:hover .guide.line,#chart-e5a2e68c-f056-469e-954b-32a3eb5866cb .stackedline-graph .axis.x .guides:hover .guide.line,#chart-e5a2e68c-f056-469e-954b-32a3eb5866cb .xy-graph .axis.x .guides:hover .guide.line{stroke:rgba(0,0,0,1)}#chart-e5a2e68c-f056-469e-954b-32a3eb5866cb .axis .guides:hover text{fill:rgba(0,0,0,1)}#chart-e5a2e68c-f056-469e-954b-32a3eb5866cb .reactive{fill-opacity:.7;stroke-opacity:.8}#chart-e5a2e68c-f056-469e-954b-32a3eb5866cb .ci{stroke:rgba(0,0,0,.87)}#chart-e5a2e68c-f056-469e-954b-32a3eb5866cb .reactive.active,#chart-e5a2e68c-f056-469e-954b-32a3eb5866cb .active .reactive{fill-opacity:.8;stroke-opacity:.9;stroke-width:4}#chart-e5a2e68c-f056-469e-954b-32a3eb5866cb .ci .reactive.active{stroke-width:1.5}#chart-e5a2e68c-f056-469e-954b-32a3eb5866cb .series text{fill:rgba(0,0,0,1)}#chart-e5a2e68c-f056-469e-954b-32a3eb5866cb .tooltip rect{fill:rgba(255,255,255,1);stroke:rgba(0,0,0,1);-webkit-transition:opacity 150ms;-moz-transition:opacity 150ms;transition:opacity 150ms}#chart-e5a2e68c-f056-469e-954b-32a3eb5866cb .tooltip .label{fill:rgba(0,0,0,.87)}#chart-e5a2e68c-f056-469e-954b-32a3eb5866cb .tooltip .label{fill:rgba(0,0,0,.87)}#chart-e5a2e68c-f056-469e-954b-32a3eb5866cb .tooltip .legend{font-size:.8em;fill:rgba(0,0,0,.54)}#chart-e5a2e68c-f056-469e-954b-32a3eb5866cb .tooltip .x_label{font-size:.6em;fill:rgba(0,0,0,1)}#chart-e5a2e68c-f056-469e-954b-32a3eb5866cb .tooltip .xlink{font-size:.5em;text-decoration:underline}#chart-e5a2e68c-f056-469e-954b-32a3eb5866cb .tooltip .value{font-size:1.5em}#chart-e5a2e68c-f056-469e-954b-32a3eb5866cb .bound{font-size:.5em}#chart-e5a2e68c-f056-469e-954b-32a3eb5866cb .max-value{font-size:.75em;fill:rgba(0,0,0,.54)}#chart-e5a2e68c-f056-469e-954b-32a3eb5866cb .map-element{fill:rgba(255,255,255,1);stroke:rgba(0,0,0,.54) !important}#chart-e5a2e68c-f056-469e-954b-32a3eb5866cb .map-element .reactive{fill-opacity:inherit;stroke-opacity:inherit}#chart-e5a2e68c-f056-469e-954b-32a3eb5866cb .color-0,#chart-e5a2e68c-f056-469e-954b-32a3eb5866cb .color-0 a:visited{stroke:#F44336;fill:#F44336}#chart-e5a2e68c-f056-469e-954b-32a3eb5866cb .color-1,#chart-e5a2e68c-f056-469e-954b-32a3eb5866cb .color-1 a:visited{stroke:#3F51B5;fill:#3F51B5}#chart-e5a2e68c-f056-469e-954b-32a3eb5866cb .color-2,#chart-e5a2e68c-f056-469e-954b-32a3eb5866cb .color-2 a:visited{stroke:#009688;fill:#009688}#chart-e5a2e68c-f056-469e-954b-32a3eb5866cb .text-overlay .color-0 text{fill:black}#chart-e5a2e68c-f056-469e-954b-32a3eb5866cb .text-overlay .color-1 text{fill:black}#chart-e5a2e68c-f056-469e-954b-32a3eb5866cb .text-overlay .color-2 text{fill:black}
#chart-e5a2e68c-f056-469e-954b-32a3eb5866cb text.no_data{text-anchor:middle}#chart-e5a2e68c-f056-469e-954b-32a3eb5866cb .guide.line{fill:none}#chart-e5a2e68c-f056-469e-954b-32a3eb5866cb .centered{text-anchor:middle}#chart-e5a2e68c-f056-469e-954b-32a3eb5866cb .title{text-anchor:middle}#chart-e5a2e68c-f056-469e-954b-32a3eb5866cb .legends .legend text{fill-opacity:1}#chart-e5a2e68c-f056-469e-954b-32a3eb5866cb .axis.x text{text-anchor:middle}#chart-e5a2e68c-f056-469e-954b-32a3eb5866cb .axis.x:not(.web) text[transform]{text-anchor:start}#chart-e5a2e68c-f056-469e-954b-32a3eb5866cb .axis.x:not(.web) text[transform].backwards{text-anchor:end}#chart-e5a2e68c-f056-469e-954b-32a3eb5866cb .axis.y text{text-anchor:end}#chart-e5a2e68c-f056-469e-954b-32a3eb5866cb .axis.y text[transform].backwards{text-anchor:start}#chart-e5a2e68c-f056-469e-954b-32a3eb5866cb .axis.y2 text{text-anchor:start}#chart-e5a2e68c-f056-469e-954b-32a3eb5866cb .axis.y2 text[transform].backwards{text-anchor:end}#chart-e5a2e68c-f056-469e-954b-32a3eb5866cb .axis .guide.line{stroke-dasharray:4,4}#chart-e5a2e68c-f056-469e-954b-32a3eb5866cb .axis .major.guide.line{stroke-dasharray:6,6}#chart-e5a2e68c-f056-469e-954b-32a3eb5866cb .horizontal .axis.y .guide.line,#chart-e5a2e68c-f056-469e-954b-32a3eb5866cb .horizontal .axis.y2 .guide.line,#chart-e5a2e68c-f056-469e-954b-32a3eb5866cb .vertical .axis.x .guide.line{opacity:0}#chart-e5a2e68c-f056-469e-954b-32a3eb5866cb .horizontal .axis.always_show .guide.line,#chart-e5a2e68c-f056-469e-954b-32a3eb5866cb .vertical .axis.always_show .guide.line{opacity:1 !important}#chart-e5a2e68c-f056-469e-954b-32a3eb5866cb .axis.y .guides:hover .guide.line,#chart-e5a2e68c-f056-469e-954b-32a3eb5866cb .axis.y2 .guides:hover .guide.line,#chart-e5a2e68c-f056-469e-954b-32a3eb5866cb .axis.x .guides:hover .guide.line{opacity:1}#chart-e5a2e68c-f056-469e-954b-32a3eb5866cb .axis .guides:hover text{opacity:1}#chart-e5a2e68c-f056-469e-954b-32a3eb5866cb .nofill{fill:none}#chart-e5a2e68c-f056-469e-954b-32a3eb5866cb .subtle-fill{fill-opacity:.2}#chart-e5a2e68c-f056-469e-954b-32a3eb5866cb .dot{stroke-width:1px;fill-opacity:1}#chart-e5a2e68c-f056-469e-954b-32a3eb5866cb .dot.active{stroke-width:5px}#chart-e5a2e68c-f056-469e-954b-32a3eb5866cb .dot.negative{fill:transparent}#chart-e5a2e68c-f056-469e-954b-32a3eb5866cb text,#chart-e5a2e68c-f056-469e-954b-32a3eb5866cb tspan{stroke:none !important}#chart-e5a2e68c-f056-469e-954b-32a3eb5866cb .series text.active{opacity:1}#chart-e5a2e68c-f056-469e-954b-32a3eb5866cb .tooltip rect{fill-opacity:.95;stroke-width:.5}#chart-e5a2e68c-f056-469e-954b-32a3eb5866cb .tooltip text{fill-opacity:1}#chart-e5a2e68c-f056-469e-954b-32a3eb5866cb .showable{visibility:hidden}#chart-e5a2e68c-f056-469e-954b-32a3eb5866cb .showable.shown{visibility:visible}#chart-e5a2e68c-f056-469e-954b-32a3eb5866cb .gauge-background{fill:rgba(229,229,229,1);stroke:none}#chart-e5a2e68c-f056-469e-954b-32a3eb5866cb .bg-lines{stroke:rgba(249,249,249,1);stroke-width:2px}</style><script type="text/javascript">window.pygal = window.pygal || {};window.pygal.config = window.pygal.config || {};window.pygal.config['e5a2e68c-f056-469e-954b-32a3eb5866cb'] = {"allow_interruptions": false, "box_mode": "extremes", "classes": ["pygal-chart"], "css": ["file://style.css", "file://graph.css"], "defs": [], "disable_xml_declaration": false, "dots_size": 2.5, "dynamic_print_values": false, "explicit_size": false, "fill": false, "force_uri_protocol": "https", "formatter": null, "half_pie": false, "height": 600, "include_x_axis": false, "inner_radius": 0, "interpolate": null, "interpolation_parameters": {}, "interpolation_precision": 250, "inverse_y_axis": false, "js": ["//kozea.github.io/pygal.js/2.0.x/pygal-tooltips.min.js"], "legend_at_bottom": true, "legend_at_bottom_columns": null, "legend_box_size": 12, "logarithmic": false, "margin": 20, "margin_bottom": null, "margin_left": null, "margin_right": null, "margin_top": null, "max_scale": 16, "min_scale": 4, "missing_value_fill_truncation": "x", "no_data_text": "No data", "no_prefix": false, "order_min": null, "pretty_print": false, "print_labels": false, "print_values": false, "print_values_position": "center", "print_zeroes": true, "range": null, "rounded_bars": null, "secondary_range": null, "show_dots": true, "show_legend": true, "show_minor_x_labels": false, "show_minor_y_labels": true, "show_only_major_dots": false, "show_x_guides": false, "show_x_labels": true, "show_y_guides": true, "show_y_labels": true, "spacing": 10, "stack_from_top": false, "strict": false, "stroke": true, "stroke_style": null, "style": {"background": "rgba(249, 249, 249, 1)", "ci_colors": [], "colors": ["#F44336", "#3F51B5", "#009688", "#FFC107", "#FF5722", "#9C27B0", "#03A9F4", "#8BC34A", "#FF9800", "#E91E63", "#2196F3", "#4CAF50", "#FFEB3B", "#673AB7", "#00BCD4", "#CDDC39", "#9E9E9E", "#607D8B"], "font_family": "Consolas, \"Liberation Mono\", Menlo, Courier, monospace", "foreground": "rgba(0, 0, 0, .87)", "foreground_strong": "rgba(0, 0, 0, 1)", "foreground_subtle": "rgba(0, 0, 0, .54)", "guide_stroke_dasharray": "4,4", "label_font_family": "Consolas, \"Liberation Mono\", Menlo, Courier, monospace", "label_font_size": 10, "legend_font_family": "Consolas, \"Liberation Mono\", Menlo, Courier, monospace", "legend_font_size": 14, "major_guide_stroke_dasharray": "6,6", "major_label_font_family": "Consolas, \"Liberation Mono\", Menlo, Courier, monospace", "major_label_font_size": 10, "no_data_font_family": "Consolas, \"Liberation Mono\", Menlo, Courier, monospace", "no_data_font_size": 64, "opacity": ".7", "opacity_hover": ".8", "plot_background": "rgba(255, 255, 255, 1)", "stroke_opacity": ".8", "stroke_opacity_hover": ".9", "title_font_family": "Consolas, \"Liberation Mono\", Menlo, Courier, monospace", "title_font_size": 16, "tooltip_font_family": "Consolas, \"Liberation Mono\", Menlo, Courier, monospace", "tooltip_font_size": 14, "transition": "150ms", "value_background": "rgba(229, 229, 229, 1)", "value_colors": [], "value_font_family": "Consolas, \"Liberation Mono\", Menlo, Courier, monospace", "value_font_size": 16, "value_label_font_family": "Consolas, \"Liberation Mono\", Menlo, Courier, monospace", "value_label_font_size": 10}, "title": "PA Strang: Future and Past Averages in ODIs", "tooltip_border_radius": 10, "tooltip_fancy_mode": true, "truncate_label": null, "truncate_legend": null, "width": 800, "x_label_rotation": 45, "x_labels": ["1994", "0", "0", "1995", "0", "0", "0", "0", "0", "1996", "0", "0", "0", "0", "0", "0", "0", "0", "0", "0", "0", "0", "0", "0", "1997", "0", "0", "0", "0", "0", "0", "0", "0", "0", "0", "0", "0", "0", "0", "0", "0", "0", "0", "0", "0", "0", "1998", "0", "0", "0", "0", "0", "0", "0", "0", "0", "0", "0", "0", "0", "0", "0", "0", "1999", "0", "0", "0", "0", "0", "0", "0", "0", "0", "0", "0", "2000", "0", "0", "0", "0", "0", "0", "0", "0", "0", "2001", "0", "0", "0"], "x_labels_major": ["1994", "1995", "1996", "1997", "1998", "1999", "2000", "2001"], "x_labels_major_count": null, "x_labels_major_every": null, "x_title": null, "xrange": null, "y_label_rotation": 0, "y_labels": null, "y_labels_major": null, "y_labels_major_count": null, "y_labels_major_every": null, "y_title": null, "zero": 0, "legends": ["Future Average", "Past Average", "Career Average"]}</script><script type="text/javascript" xlink:href="https://kozea.github.io/pygal.js/2.0.x/pygal-tooltips.min.js"/></defs><title>PA Strang: Future and Past Averages in ODIs</title><g class="graph line-graph vertical"><rect class="background" height="600" width="800" x="0" y="0"/><g class="plot" transform="translate(42, 46)"><rect class="background" height="462.02943725152284" width="738.0" x="0" y="0"/><g class="axis y always_show"><g class="guides"><path class="axis major line" d="M0.000000 453.144256 h738.000000"/><text class="major" x="-5" y="456.6442557659166">0</text><title>0</title></g><g class="guides"><path class="guide line" d="M0.000000 398.297456 h738.000000"/><text class="" x="-5" y="401.7974564720511">10</text><title>10</title></g><g class="guides"><path class="guide line" d="M0.000000 343.450657 h738.000000"/><text class="" x="-5" y="346.9506571781857">20</text><title>20</title></g><g class="guides"><path class="guide line" d="M0.000000 288.603858 h738.000000"/><text class="" x="-5" y="292.1038578843202">30</text><title>30</title></g><g class="guides"><path class="guide line" d="M0.000000 233.757059 h738.000000"/><text class="" x="-5" y="237.2570585904547">40</text><title>40</title></g><g class="guides"><path class="major guide line" d="M0.000000 178.910259 h738.000000"/><text class="major" x="-5" y="182.4102592965893">50</text><title>50</title></g><g class="guides"><path class="guide line" d="M0.000000 124.063460 h738.000000"/><text class="" x="-5" y="127.56346000272379">60</text><title>60</title></g><g class="guides"><path class="guide line" d="M0.000000 69.216661 h738.000000"/><text class="" x="-5" y="72.71666070885829">70</text><title>70</title></g><g class="guides"><path class="guide line" d="M0.000000 14.369861 h738.000000"/><text class="" x="-5" y="17.869861414992783">80</text><title>80</title></g></g><g class="axis x"><g class="guides"><path class="major line" d="M14.192308 0.000000 v462.029437"/><text class="major" x="14.192307692307692" y="477.02943725152284" transform="rotate(45 14.192308 477.029437)">1994</text></g><g class="guides"><path class="major guide line" d="M38.383741 0.000000 v462.029437"/><text class="major" x="38.38374125874126" y="477.02943725152284" transform="rotate(45 38.383741 477.029437)">1995</text></g><g class="guides"><path class="major guide line" d="M86.766608 0.000000 v462.029437"/><text class="major" x="86.7666083916084" y="477.02943725152284" transform="rotate(45 86.766608 477.029437)">1996</text></g><g class="guides"><path class="major guide line" d="M207.723776 0.000000 v462.029437"/><text class="major" x="207.7237762237762" y="477.02943725152284" transform="rotate(45 207.723776 477.029437)">1997</text></g><g class="guides"><path class="major guide line" d="M385.127622 0.000000 v462.029437"/><text class="major" x="385.12762237762234" y="477.02943725152284" transform="rotate(45 385.127622 477.029437)">1998</text></g><g class="guides"><path class="major guide line" d="M522.212413 0.000000 v462.029437"/><text class="major" x="522.2124125874126" y="477.02943725152284" transform="rotate(45 522.212413 477.029437)">1999</text></g><g class="guides"><path class="major guide line" d="M618.978147 0.000000 v462.029437"/><text class="major" x="618.9781468531469" y="477.02943725152284" transform="rotate(45 618.978147 477.029437)">2000</text></g><g class="guides"><path class="major guide line" d="M699.616259 0.000000 v462.029437"/><text class="major" x="699.6162587412588" y="477.02943725152284" transform="rotate(45 699.616259 477.029437)">2001</text></g></g><g class="series serie-0 color-0"><path class="line reactive nofill" d="M14.192308 271.875584 L22.256119 271.711044 30.319930 274.617924 38.383741 272.588592 46.447552 273.082214 54.511364 275.550320 62.575175 275.605166 70.638986 272.149818 78.702797 273.301601 86.766608 275.166392 94.830420 275.769707 102.894231 277.086030 110.958042 275.714860 119.021853 269.626865 127.085664 272.588592 135.149476 262.058007 143.213287 259.315667 151.277098 260.796531 159.340909 261.235305 167.404720 264.142185 175.468531 268.091155 183.532343 271.601350 191.596154 275.056698 199.659965 277.634498 207.723776 277.250570 215.787587 271.217423 223.851399 269.955946 231.915210 273.575835 239.979021 274.014609 248.042832 276.263328 256.106643 280.376838 264.170455 281.364080 272.234266 283.996727 280.298077 284.600042 288.361888 285.532437 296.425699 285.367897 304.489510 281.144693 312.553322 284.161267 320.617133 283.667646 328.680944 281.967395 336.744755 287.561769 344.808566 284.709735 352.872378 279.005668 360.936189 274.453384 369.000000 276.427868 377.063811 276.043941 385.127622 268.913857 393.191434 265.019734 401.255245 262.990403 409.319056 265.513355 417.382867 256.683021 425.446678 260.906224 433.510490 251.582268 441.574301 257.396029 449.638112 246.865444 457.701923 252.843745 465.765734 253.282519 473.829545 259.480207 481.893357 245.494274 489.957168 219.277504 498.020979 229.149927 506.084790 239.241739 514.148601 238.802964 522.212413 250.430486 530.276224 203.426779 538.340035 210.940790 546.403846 191.799257 554.467657 165.034019 562.531469 182.914076 570.595280 186.588811 578.659091 197.558171 586.722902 214.725219 594.786713 212.586194 602.850524 211.818339 610.914336 220.703520 618.978147 235.018535 627.041958 189.331151 635.105769 195.364299 643.169580 212.421654 651.233392 224.597643 659.297203 218.674189 667.361014 213.408896 675.424825 221.855303 683.488636 219.496891 691.552448 196.735469 699.616259 224.158869 707.680070 250.211098 715.743881 151.486860 723.807692 343.450657"/></g><g class="series serie-1 color-1"><path class="line reactive nofill" d="M14.192308 453.144256 L22.256119 288.603858 30.319930 8.885181 38.383741 250.211098 46.447552 243.355248 54.511364 187.137279 62.575175 204.139787 70.638986 268.749317 78.702797 258.109037 86.766608 239.845053 94.830420 238.144803 102.894231 227.175443 110.958042 244.726418 119.021853 283.119178 127.085664 268.365389 135.149476 306.867842 143.213287 311.749207 151.277098 305.057898 159.340909 301.986477 167.404720 292.607674 175.468531 282.077089 183.532343 272.588592 191.596154 263.264637 199.659965 256.353940 207.723776 258.109037 215.787587 273.246754 223.851399 275.879400 231.915210 268.255695 239.979021 267.542687 248.042832 263.045249 256.106643 254.818230 264.170455 253.721294 272.234266 248.730235 280.298077 247.578452 288.361888 246.975137 296.425699 248.346307 304.489510 257.012101 312.553322 252.295277 320.617133 253.830987 328.680944 257.121795 336.744755 248.949622 344.808566 254.598842 352.872378 263.429177 360.936189 269.023551 369.000000 266.884525 377.063811 267.487840 385.127622 274.563077 393.191434 277.634498 401.255245 279.060515 409.319056 276.811796 417.382867 282.241629 425.446678 279.389596 433.510490 284.051574 441.574301 280.541378 449.638112 284.929122 457.701923 281.802855 465.765734 281.144693 473.829545 278.073272 481.893357 283.283718 489.957168 290.358955 498.020979 286.903607 506.084790 283.338565 514.148601 282.899791 522.212413 279.005668 530.276224 288.768398 538.340035 286.903607 546.403846 289.097479 554.467657 291.675279 562.531469 288.329624 570.595280 287.671462 578.659091 285.642131 586.722902 282.461016 594.786713 281.967395 602.850524 281.254387 610.914336 279.883217 618.978147 277.634498 627.041958 281.473774 635.105769 279.773523 643.169580 278.018426 651.233392 276.756949 659.297203 276.702102 667.361014 276.482715 675.424825 275.221239 683.488636 274.727618 691.552448 275.111545 699.616259 273.959762 707.680070 272.588592 715.743881 273.137060 723.807692 271.107729"/></g><g class="series serie-2 color-2"><path class="line reactive nofill" d="M14.192308 271.875584 L22.256119 271.875584 30.319930 271.875584 38.383741 271.875584 46.447552 271.875584 54.511364 271.875584 62.575175 271.875584 70.638986 271.875584 78.702797 271.875584 86.766608 271.875584 94.830420 271.875584 102.894231 271.875584 110.958042 271.875584 119.021853 271.875584 127.085664 271.875584 135.149476 271.875584 143.213287 271.875584 151.277098 271.875584 159.340909 271.875584 167.404720 271.875584 175.468531 271.875584 183.532343 271.875584 191.596154 271.875584 199.659965 271.875584 207.723776 271.875584 215.787587 271.875584 223.851399 271.875584 231.915210 271.875584 239.979021 271.875584 248.042832 271.875584 256.106643 271.875584 264.170455 271.875584 272.234266 271.875584 280.298077 271.875584 288.361888 271.875584 296.425699 271.875584 304.489510 271.875584 312.553322 271.875584 320.617133 271.875584 328.680944 271.875584 336.744755 271.875584 344.808566 271.875584 352.872378 271.875584 360.936189 271.875584 369.000000 271.875584 377.063811 271.875584 385.127622 271.875584 393.191434 271.875584 401.255245 271.875584 409.319056 271.875584 417.382867 271.875584 425.446678 271.875584 433.510490 271.875584 441.574301 271.875584 449.638112 271.875584 457.701923 271.875584 465.765734 271.875584 473.829545 271.875584 481.893357 271.875584 489.957168 271.875584 498.020979 271.875584 506.084790 271.875584 514.148601 271.875584 522.212413 271.875584 530.276224 271.875584 538.340035 271.875584 546.403846 271.875584 554.467657 271.875584 562.531469 271.875584 570.595280 271.875584 578.659091 271.875584 586.722902 271.875584 594.786713 271.875584 602.850524 271.875584 610.914336 271.875584 618.978147 271.875584 627.041958 271.875584 635.105769 271.875584 643.169580 271.875584 651.233392 271.875584 659.297203 271.875584 667.361014 271.875584 675.424825 271.875584 683.488636 271.875584 691.552448 271.875584 699.616259 271.875584 707.680070 271.875584 715.743881 271.875584 723.807692 271.875584"/></g></g><g class="titles"><text class="title plot_title" x="400.0" y="26">PA Strang: Future and Past Averages in ODIs</text></g><g class="plot overlay" transform="translate(42, 46)"><g class="series serie-0 color-0"><g class="dots"><desc class="label">96 wickets in 89 innings (725.1 overs)</desc><circle class="dot reactive tooltip-trigger" cx="14.192307692307692" cy="271.87558409969125" r="2.5"/><desc class="value">33.05</desc><desc class="x top">14.192307692307692</desc><desc class="y top">271.87558409969125</desc><desc class="x_label">1994</desc></g><g class="dots"><desc class="label">93 wickets in 86 innings (696.1 overs)</desc><circle class="dot reactive tooltip-trigger" cx="38.38374125874126" cy="272.5885924905115" r="2.5"/><desc class="value">32.92</desc><desc class="x top">38.38374125874126</desc><desc class="y top">272.5885924905115</desc><desc class="x_label">1995</desc></g><g class="dots"><desc class="label">87 wickets in 80 innings (643.1 overs)</desc><circle class="dot reactive tooltip-trigger" cx="86.7666083916084" cy="275.16639205732315" r="2.5"/><desc class="value">32.45</desc><desc class="x top">86.7666083916084</desc><desc class="y top">275.16639205732315</desc><desc class="x_label">1996</desc></g><g class="dots"><desc class="label">69 wickets in 65 innings (517.1 overs)</desc><circle class="dot reactive tooltip-trigger" cx="207.7237762237762" cy="277.25057043049003" r="2.5"/><desc class="value">32.07</desc><desc class="x top">207.7237762237762</desc><desc class="y top">277.25057043049003</desc><desc class="x_label">1997</desc></g><g class="dots"><desc class="label">46 wickets in 43 innings (329.0 overs)</desc><circle class="dot reactive tooltip-trigger" cx="385.12762237762234" cy="268.9138569378225" r="2.5"/><desc class="value">33.59</desc><desc class="x left top">385.12762237762234</desc><desc class="y left top">268.9138569378225</desc><desc class="x_label">1998</desc></g><g class="dots"><desc class="label">24 wickets in 26 innings (182.0 overs)</desc><circle class="dot reactive tooltip-trigger" cx="522.2124125874126" cy="250.43048557578982" r="2.5"/><desc class="value">36.96</desc><desc class="x left top">522.2124125874126</desc><desc class="y left top">250.43048557578982</desc><desc class="x_label">1999</desc></g><g class="dots"><desc class="label">13 wickets in 14 innings (97.3 overs)</desc><circle class="dot reactive tooltip-trigger" cx="618.9781468531469" cy="235.01853497421362" r="2.5"/><desc class="value">39.77</desc><desc class="x left top">618.9781468531469</desc><desc class="y left top">235.01853497421362</desc><desc class="x_label">2000</desc></g><g class="dots"><desc class="label">4 wickets in 4 innings (29.0 overs)</desc><circle class="dot reactive tooltip-trigger" cx="699.6162587412588" cy="224.15886871402827" r="2.5"/><desc class="value">41.75</desc><desc class="x left">699.6162587412588</desc><desc class="y left">224.15886871402827</desc><desc class="x_label">2001</desc></g></g><g class="series serie-1 color-1"><g class="dots"><desc class="label">0 wickets over 0 innings</desc><circle class="dot reactive tooltip-trigger" cx="14.192307692307692" cy="453.1442557659166" r="2.5"/><desc class="value">0</desc><desc class="x top">14.192307692307692</desc><desc class="y top">453.1442557659166</desc><desc class="x_label">1994</desc></g><g class="dots"><desc class="label">3 wickets in 3 innings (29.0 overs)</desc><circle class="dot reactive tooltip-trigger" cx="38.38374125874126" cy="250.2110983786144" r="2.5"/><desc class="value">37</desc><desc class="x top">38.38374125874126</desc><desc class="y top">250.2110983786144</desc><desc class="x_label">1995</desc></g><g class="dots"><desc class="label">9 wickets in 9 innings (82.0 overs)</desc><circle class="dot reactive tooltip-trigger" cx="86.7666083916084" cy="239.8450533120738" r="2.5"/><desc class="value">38.89</desc><desc class="x top">86.7666083916084</desc><desc class="y top">239.8450533120738</desc><desc class="x_label">1996</desc></g><g class="dots"><desc class="label">27 wickets in 24 innings (208.0 overs)</desc><circle class="dot reactive tooltip-trigger" cx="207.7237762237762" cy="258.109037476931" r="2.5"/><desc class="value">35.56</desc><desc class="x top">207.7237762237762</desc><desc class="y top">258.109037476931</desc><desc class="x_label">1997</desc></g><g class="dots"><desc class="label">50 wickets in 46 innings (396.1 overs)</desc><circle class="dot reactive tooltip-trigger" cx="385.12762237762234" cy="274.5630772650906" r="2.5"/><desc class="value">32.56</desc><desc class="x left top">385.12762237762234</desc><desc class="y left top">274.5630772650906</desc><desc class="x_label">1998</desc></g><g class="dots"><desc class="label">72 wickets in 63 innings (543.1 overs)</desc><circle class="dot reactive tooltip-trigger" cx="522.2124125874126" cy="279.00566800789375" r="2.5"/><desc class="value">31.75</desc><desc class="x left top">522.2124125874126</desc><desc class="y left top">279.00566800789375</desc><desc class="x_label">1999</desc></g><g class="dots"><desc class="label">83 wickets in 75 innings (627.4 overs)</desc><circle class="dot reactive tooltip-trigger" cx="618.9781468531469" cy="277.63449802554715" r="2.5"/><desc class="value">32</desc><desc class="x left top">618.9781468531469</desc><desc class="y left top">277.63449802554715</desc><desc class="x_label">2000</desc></g><g class="dots"><desc class="label">92 wickets in 85 innings (696.1 overs)</desc><circle class="dot reactive tooltip-trigger" cx="699.6162587412588" cy="273.95976247285813" r="2.5"/><desc class="value">32.67</desc><desc class="x left top">699.6162587412588</desc><desc class="y left top">273.95976247285813</desc><desc class="x_label">2001</desc></g></g><g class="series serie-2 color-2"/></g><g class="plot text-overlay" transform="translate(42, 46)"><g class="series serie-0 color-0"/><g class="series serie-1 color-1"/><g class="series serie-2 color-2"/></g><g class="plot tooltip-overlay" transform="translate(42, 46)"><g class="tooltip" style="opacity: 0" transform="translate(0 0)"><rect class="tooltip-box" height="0" rx="10" ry="10" width="0"/><g class="text"/></g></g><g class="legends" transform="translate(52, 545)"><g class="legend reactive activate-serie" id="activate-serie-0"><rect class="color-0 reactive" height="12" width="12" x="0.0" y="1.0"/><text x="17.0" y="11.2">Future Average</text></g><g class="legend reactive activate-serie" id="activate-serie-1"><rect class="color-1 reactive" height="12" width="12" x="369.0" y="1.0"/><text x="386.0" y="11.2">Past Average</text></g><g class="legend reactive activate-serie" id="activate-serie-2"><rect class="color-2 reactive" height="12" width="12" x="0.0" y="22.0"/><text x="17.0" y="32.2">Career Average</text></g></g></g></svg>