<?xml version='1.0' encoding='utf-8'?>
<svg xmlns:xlink="http://www.w3.org/1999/xlink" xmlns="http://www.w3.org/2000/svg" id="chart-7c586dd5-219c-4e75-9bed-5dbd9a0d5352" class="pygal-chart" viewBox="0 0 800 600"><!--Generated with pygal 2.4.0 (lxml) ©Kozea 2012-2016 on 2019-08-04--><!--http://pygal.org--><!--http://github.com/Kozea/pygal--><defs><style type="text/css">#chart-7c586dd5-219c-4e75-9bed-5dbd9a0d5352{-webkit-user-select:none;-webkit-font-smoothing:antialiased;font-family:Consolas,"Liberation Mono",Menlo,Courier,monospace}#chart-7c586dd5-219c-4e75-9bed-5dbd9a0d5352 .title{font-family:Consolas,"Liberation Mono",Menlo,Courier,monospace;font-size:16px}#chart-7c586dd5-219c-4e75-9bed-5dbd9a0d5352 .legends .legend text{font-family:Consolas,"Liberation Mono",Menlo,Courier,monospace;font-size:14px}#chart-7c586dd5-219c-4e75-9bed-5dbd9a0d5352 .axis text{font-family:Consolas,"Liberation Mono",Menlo,Courier,monospace;font-size:10px}#chart-7c586dd5-219c-4e75-9bed-5dbd9a0d5352 .axis text.major{font-family:Consolas,"Liberation Mono",Menlo,Courier,monospace;font-size:10px}#chart-7c586dd5-219c-4e75-9bed-5dbd9a0d5352 .text-overlay text.value{font-family:Consolas,"Liberation Mono",Menlo,Courier,monospace;font-size:16px}#chart-7c586dd5-219c-4e75-9bed-5dbd9a0d5352 .text-overlay text.label{font-family:Consolas,"Liberation Mono",Menlo,Courier,monospace;font-size:10px}#chart-7c586dd5-219c-4e75-9bed-5dbd9a0d5352 .tooltip{font-family:Consolas,"Liberation Mono",Menlo,Courier,monospace;font-size:14px}#chart-7c586dd5-219c-4e75-9bed-5dbd9a0d5352 text.no_data{font-family:Consolas,"Liberation Mono",Menlo,Courier,monospace;font-size:64px}
#chart-7c586dd5-219c-4e75-9bed-5dbd9a0d5352{background-color:rgba(249,249,249,1)}#chart-7c586dd5-219c-4e75-9bed-5dbd9a0d5352 path,#chart-7c586dd5-219c-4e75-9bed-5dbd9a0d5352 line,#chart-7c586dd5-219c-4e75-9bed-5dbd9a0d5352 rect,#chart-7c586dd5-219c-4e75-9bed-5dbd9a0d5352 circle{-webkit-transition:150ms;-moz-transition:150ms;transition:150ms}#chart-7c586dd5-219c-4e75-9bed-5dbd9a0d5352 .graph &gt; .background{fill:rgba(249,249,249,1)}#chart-7c586dd5-219c-4e75-9bed-5dbd9a0d5352 .plot &gt; .background{fill:rgba(255,255,255,1)}#chart-7c586dd5-219c-4e75-9bed-5dbd9a0d5352 .graph{fill:rgba(0,0,0,.87)}#chart-7c586dd5-219c-4e75-9bed-5dbd9a0d5352 text.no_data{fill:rgba(0,0,0,1)}#chart-7c586dd5-219c-4e75-9bed-5dbd9a0d5352 .title{fill:rgba(0,0,0,1)}#chart-7c586dd5-219c-4e75-9bed-5dbd9a0d5352 .legends .legend text{fill:rgba(0,0,0,.87)}#chart-7c586dd5-219c-4e75-9bed-5dbd9a0d5352 .legends .legend:hover text{fill:rgba(0,0,0,1)}#chart-7c586dd5-219c-4e75-9bed-5dbd9a0d5352 .axis .line{stroke:rgba(0,0,0,1)}#chart-7c586dd5-219c-4e75-9bed-5dbd9a0d5352 .axis .guide.line{stroke:rgba(0,0,0,.54)}#chart-7c586dd5-219c-4e75-9bed-5dbd9a0d5352 .axis .major.line{stroke:rgba(0,0,0,.87)}#chart-7c586dd5-219c-4e75-9bed-5dbd9a0d5352 .axis text.major{fill:rgba(0,0,0,1)}#chart-7c586dd5-219c-4e75-9bed-5dbd9a0d5352 .axis.y .guides:hover .guide.line,#chart-7c586dd5-219c-4e75-9bed-5dbd9a0d5352 .line-graph .axis.x .guides:hover .guide.line,#chart-7c586dd5-219c-4e75-9bed-5dbd9a0d5352 .stackedline-graph .axis.x .guides:hover .guide.line,#chart-7c586dd5-219c-4e75-9bed-5dbd9a0d5352 .xy-graph .axis.x .guides:hover .guide.line{stroke:rgba(0,0,0,1)}#chart-7c586dd5-219c-4e75-9bed-5dbd9a0d5352 .axis .guides:hover text{fill:rgba(0,0,0,1)}#chart-7c586dd5-219c-4e75-9bed-5dbd9a0d5352 .reactive{fill-opacity:.7;stroke-opacity:.8}#chart-7c586dd5-219c-4e75-9bed-5dbd9a0d5352 .ci{stroke:rgba(0,0,0,.87)}#chart-7c586dd5-219c-4e75-9bed-5dbd9a0d5352 .reactive.active,#chart-7c586dd5-219c-4e75-9bed-5dbd9a0d5352 .active .reactive{fill-opacity:.8;stroke-opacity:.9;stroke-width:4}#chart-7c586dd5-219c-4e75-9bed-5dbd9a0d5352 .ci .reactive.active{stroke-width:1.5}#chart-7c586dd5-219c-4e75-9bed-5dbd9a0d5352 .series text{fill:rgba(0,0,0,1)}#chart-7c586dd5-219c-4e75-9bed-5dbd9a0d5352 .tooltip rect{fill:rgba(255,255,255,1);stroke:rgba(0,0,0,1);-webkit-transition:opacity 150ms;-moz-transition:opacity 150ms;transition:opacity 150ms}#chart-7c586dd5-219c-4e75-9bed-5dbd9a0d5352 .tooltip .label{fill:rgba(0,0,0,.87)}#chart-7c586dd5-219c-4e75-9bed-5dbd9a0d5352 .tooltip .label{fill:rgba(0,0,0,.87)}#chart-7c586dd5-219c-4e75-9bed-5dbd9a0d5352 .tooltip .legend{font-size:.8em;fill:rgba(0,0,0,.54)}#chart-7c586dd5-219c-4e75-9bed-5dbd9a0d5352 .tooltip .x_label{font-size:.6em;fill:rgba(0,0,0,1)}#chart-7c586dd5-219c-4e75-9bed-5dbd9a0d5352 .tooltip .xlink{font-size:.5em;text-decoration:underline}#chart-7c586dd5-219c-4e75-9bed-5dbd9a0d5352 .tooltip .value{font-size:1.5em}#chart-7c586dd5-219c-4e75-9bed-5dbd9a0d5352 .bound{font-size:.5em}#chart-7c586dd5-219c-4e75-9bed-5dbd9a0d5352 .max-value{font-size:.75em;fill:rgba(0,0,0,.54)}#chart-7c586dd5-219c-4e75-9bed-5dbd9a0d5352 .map-element{fill:rgba(255,255,255,1);stroke:rgba(0,0,0,.54) !important}#chart-7c586dd5-219c-4e75-9bed-5dbd9a0d5352 .map-element .reactive{fill-opacity:inherit;stroke-opacity:inherit}#chart-7c586dd5-219c-4e75-9bed-5dbd9a0d5352 .color-0,#chart-7c586dd5-219c-4e75-9bed-5dbd9a0d5352 .color-0 a:visited{stroke:red;fill:red}#chart-7c586dd5-219c-4e75-9bed-5dbd9a0d5352 .color-1,#chart-7c586dd5-219c-4e75-9bed-5dbd9a0d5352 .color-1 a:visited{stroke:blue;fill:blue}#chart-7c586dd5-219c-4e75-9bed-5dbd9a0d5352 .color-2,#chart-7c586dd5-219c-4e75-9bed-5dbd9a0d5352 .color-2 a:visited{stroke:green;fill:green}#chart-7c586dd5-219c-4e75-9bed-5dbd9a0d5352 .text-overlay .color-0 text{fill:white}#chart-7c586dd5-219c-4e75-9bed-5dbd9a0d5352 .text-overlay .color-1 text{fill:white}#chart-7c586dd5-219c-4e75-9bed-5dbd9a0d5352 .text-overlay .color-2 text{fill:white}
#chart-7c586dd5-219c-4e75-9bed-5dbd9a0d5352 text.no_data{text-anchor:middle}#chart-7c586dd5-219c-4e75-9bed-5dbd9a0d5352 .guide.line{fill:none}#chart-7c586dd5-219c-4e75-9bed-5dbd9a0d5352 .centered{text-anchor:middle}#chart-7c586dd5-219c-4e75-9bed-5dbd9a0d5352 .title{text-anchor:middle}#chart-7c586dd5-219c-4e75-9bed-5dbd9a0d5352 .legends .legend text{fill-opacity:1}#chart-7c586dd5-219c-4e75-9bed-5dbd9a0d5352 .axis.x text{text-anchor:middle}#chart-7c586dd5-219c-4e75-9bed-5dbd9a0d5352 .axis.x:not(.web) text[transform]{text-anchor:start}#chart-7c586dd5-219c-4e75-9bed-5dbd9a0d5352 .axis.x:not(.web) text[transform].backwards{text-anchor:end}#chart-7c586dd5-219c-4e75-9bed-5dbd9a0d5352 .axis.y text{text-anchor:end}#chart-7c586dd5-219c-4e75-9bed-5dbd9a0d5352 .axis.y text[transform].backwards{text-anchor:start}#chart-7c586dd5-219c-4e75-9bed-5dbd9a0d5352 .axis.y2 text{text-anchor:start}#chart-7c586dd5-219c-4e75-9bed-5dbd9a0d5352 .axis.y2 text[transform].backwards{text-anchor:end}#chart-7c586dd5-219c-4e75-9bed-5dbd9a0d5352 .axis .guide.line{stroke-dasharray:4,4}#chart-7c586dd5-219c-4e75-9bed-5dbd9a0d5352 .axis .major.guide.line{stroke-dasharray:6,6}#chart-7c586dd5-219c-4e75-9bed-5dbd9a0d5352 .horizontal .axis.y .guide.line,#chart-7c586dd5-219c-4e75-9bed-5dbd9a0d5352 .horizontal .axis.y2 .guide.line,#chart-7c586dd5-219c-4e75-9bed-5dbd9a0d5352 .vertical .axis.x .guide.line{opacity:0}#chart-7c586dd5-219c-4e75-9bed-5dbd9a0d5352 .horizontal .axis.always_show .guide.line,#chart-7c586dd5-219c-4e75-9bed-5dbd9a0d5352 .vertical .axis.always_show .guide.line{opacity:1 !important}#chart-7c586dd5-219c-4e75-9bed-5dbd9a0d5352 .axis.y .guides:hover .guide.line,#chart-7c586dd5-219c-4e75-9bed-5dbd9a0d5352 .axis.y2 .guides:hover .guide.line,#chart-7c586dd5-219c-4e75-9bed-5dbd9a0d5352 .axis.x .guides:hover .guide.line{opacity:1}#chart-7c586dd5-219c-4e75-9bed-5dbd9a0d5352 .axis .guides:hover text{opacity:1}#chart-7c586dd5-219c-4e75-9bed-5dbd9a0d5352 .nofill{fill:none}#chart-7c586dd5-219c-4e75-9bed-5dbd9a0d5352 .subtle-fill{fill-opacity:.2}#chart-7c586dd5-219c-4e75-9bed-5dbd9a0d5352 .dot{stroke-width:1px;fill-opacity:1}#chart-7c586dd5-219c-4e75-9bed-5dbd9a0d5352 .dot.active{stroke-width:5px}#chart-7c586dd5-219c-4e75-9bed-5dbd9a0d5352 .dot.negative{fill:transparent}#chart-7c586dd5-219c-4e75-9bed-5dbd9a0d5352 text,#chart-7c586dd5-219c-4e75-9bed-5dbd9a0d5352 tspan{stroke:none !important}#chart-7c586dd5-219c-4e75-9bed-5dbd9a0d5352 .series text.active{opacity:1}#chart-7c586dd5-219c-4e75-9bed-5dbd9a0d5352 .tooltip rect{fill-opacity:.95;stroke-width:.5}#chart-7c586dd5-219c-4e75-9bed-5dbd9a0d5352 .tooltip text{fill-opacity:1}#chart-7c586dd5-219c-4e75-9bed-5dbd9a0d5352 .showable{visibility:hidden}#chart-7c586dd5-219c-4e75-9bed-5dbd9a0d5352 .showable.shown{visibility:visible}#chart-7c586dd5-219c-4e75-9bed-5dbd9a0d5352 .gauge-background{fill:rgba(229,229,229,1);stroke:none}#chart-7c586dd5-219c-4e75-9bed-5dbd9a0d5352 .bg-lines{stroke:rgba(249,249,249,1);stroke-width:2px}</style><script type="text/javascript">window.pygal = window.pygal || {};window.pygal.config = window.pygal.config || {};window.pygal.config['7c586dd5-219c-4e75-9bed-5dbd9a0d5352'] = {"allow_interruptions": false, "box_mode": "extremes", "classes": ["pygal-chart"], "css": ["file://style.css", "file://graph.css"], "defs": [], "disable_xml_declaration": false, "dots_size": 2.5, "dynamic_print_values": false, "explicit_size": false, "fill": false, "force_uri_protocol": "https", "formatter": null, "half_pie": false, "height": 600, "include_x_axis": false, "inner_radius": 0, "interpolate": null, "interpolation_parameters": {}, "interpolation_precision": 250, "inverse_y_axis": false, "js": ["//kozea.github.io/pygal.js/2.0.x/pygal-tooltips.min.js"], "legend_at_bottom": true, "legend_at_bottom_columns": null, "legend_box_size": 12, "logarithmic": false, "margin": 20, "margin_bottom": null, "margin_left": null, "margin_right": null, "margin_top": null, "max_scale": 16, "min_scale": 4, "missing_value_fill_truncation": "x", "no_data_text": "No data", "no_prefix": false, "order_min": null, "pretty_print": false, "print_labels": false, "print_values": false, "print_values_position": "center", "print_zeroes": true, "range": null, "rounded_bars": null, "secondary_range": null, "show_dots": true, "show_legend": true, "show_minor_x_labels": false, "show_minor_y_labels": true, "show_only_major_dots": false, "show_x_guides": false, "show_x_labels": true, "show_y_guides": true, "show_y_labels": true, "spacing": 10, "stack_from_top": false, "strict": false, "stroke": true, "stroke_style": null, "style": {"background": "rgba(249, 249, 249, 1)", "ci_colors": [], "colors": ["red", "blue", "green", "#a3a3a3"], "font_family": "Consolas, \"Liberation Mono\", Menlo, Courier, monospace", "foreground": "rgba(0, 0, 0, .87)", "foreground_strong": "rgba(0, 0, 0, 1)", "foreground_subtle": "rgba(0, 0, 0, .54)", "guide_stroke_dasharray": "4,4", "label_font_family": "Consolas, \"Liberation Mono\", Menlo, Courier, monospace", "label_font_size": 10, "legend_font_family": "Consolas, \"Liberation Mono\", Menlo, Courier, monospace", "legend_font_size": 14, "major_guide_stroke_dasharray": "6,6", "major_label_font_family": "Consolas, \"Liberation Mono\", Menlo, Courier, monospace", "major_label_font_size": 10, "no_data_font_family": "Consolas, \"Liberation Mono\", Menlo, Courier, monospace", "no_data_font_size": 64, "opacity": ".7", "opacity_hover": ".8", "plot_background": "rgba(255, 255, 255, 1)", "stroke_opacity": ".8", "stroke_opacity_hover": ".9", "title_font_family": "Consolas, \"Liberation Mono\", Menlo, Courier, monospace", "title_font_size": 16, "tooltip_font_family": "Consolas, \"Liberation Mono\", Menlo, Courier, monospace", "tooltip_font_size": 14, "transition": "150ms", "value_background": "rgba(229, 229, 229, 1)", "value_colors": [], "value_font_family": "Consolas, \"Liberation Mono\", Menlo, Courier, monospace", "value_font_size": 16, "value_label_font_family": "Consolas, \"Liberation Mono\", Menlo, Courier, monospace", "value_label_font_size": 10}, "title": "PAJ DeFreitas: Future and Past Averages in ODIs", "tooltip_border_radius": 10, "tooltip_fancy_mode": true, "truncate_label": null, "truncate_legend": null, "width": 800, "x_label_rotation": 45, "x_labels": ["1987", "0", "0", "0", "0", "0", "0", "0", "0", "0", "0", "0", "0", "0", "0", "0", "0", "0", "0", "0", "0", "0", "0", "0", "0", "0", "0", "0", "0", "0", "1988", "0", "0", "0", "0", "0", "0", "0", "1989", "0", "0", "0", "0", "0", "0", "1990", "0", "0", "0", "0", "0", "0", "0", "0", "1991", "0", "0", "0", "0", "0", "0", "0", "1992", "0", "0", "0", "0", "0", "0", "0", "0", "0", "0", "0", "0", "0", "0", "0", "1993", "0", "0", "0", "0", "0", "0", "1994", "0", "0", "0", "1995", "0", "0", "0", "1996", "0", "0", "0", "0", "0", "0", "0", "1997", "0"], "x_labels_major": ["1987", "1988", "1989", "1990", "1991", "1992", "1993", "1994", "1995", "1996", "1997"], "x_labels_major_count": null, "x_labels_major_every": null, "x_title": null, "xrange": null, "y_label_rotation": 0, "y_labels": null, "y_labels_major": null, "y_labels_major_count": null, "y_labels_major_every": null, "y_title": null, "zero": 180.0, "legends": ["Future Average", "Past Average", "Career Average"]}</script><script type="text/javascript" xlink:href="https://kozea.github.io/pygal.js/2.0.x/pygal-tooltips.min.js"/></defs><title>PAJ DeFreitas: Future and Past Averages in ODIs</title><g class="graph line-graph vertical"><rect class="background" height="600" width="800" x="0" y="0"/><g class="plot" transform="translate(48, 46)"><rect class="background" height="462.02943725152284" width="732.0" x="0" y="0"/><g class="axis y always_show"><g class="guides"><path class="axis major line" d="M0.000000 453.144256 h732.000000"/><text class="major" x="-5" y="456.6442557659166">0</text><title>0</title></g><g class="guides"><path class="guide line" d="M0.000000 402.371790 h732.000000"/><text class="" x="-5" y="405.8717901338812">20</text><title>20</title></g><g class="guides"><path class="guide line" d="M0.000000 351.599325 h732.000000"/><text class="" x="-5" y="355.0993245018457">40</text><title>40</title></g><g class="guides"><path class="guide line" d="M0.000000 300.826859 h732.000000"/><text class="" x="-5" y="304.32685886981017">60</text><title>60</title></g><g class="guides"><path class="guide line" d="M0.000000 250.054393 h732.000000"/><text class="" x="-5" y="253.55439323777472">80</text><title>80</title></g><g class="guides"><path class="major guide line" d="M0.000000 199.281928 h732.000000"/><text class="major" x="-5" y="202.78192760573927">100</text><title>100</title></g><g class="guides"><path class="guide line" d="M0.000000 148.509462 h732.000000"/><text class="" x="-5" y="152.00946197370376">120</text><title>120</title></g><g class="guides"><path class="guide line" d="M0.000000 97.736996 h732.000000"/><text class="" x="-5" y="101.23699634166826">140</text><title>140</title></g><g class="guides"><path class="guide line" d="M0.000000 46.964531 h732.000000"/><text class="" x="-5" y="50.46453070963287">160</text><title>160</title></g></g><g class="axis x"><g class="guides"><path class="major line" d="M14.076923 0.000000 v462.029437"/><text class="major" x="14.076923076923077" y="477.02943725152284" transform="rotate(45 14.076923 477.029437)">1987</text></g><g class="guides"><path class="major guide line" d="M221.090498 0.000000 v462.029437"/><text class="major" x="221.09049773755657" y="477.02943725152284" transform="rotate(45 221.090498 477.029437)">1988</text></g><g class="guides"><path class="major guide line" d="M276.294118 0.000000 v462.029437"/><text class="major" x="276.29411764705884" y="477.02943725152284" transform="rotate(45 276.294118 477.029437)">1989</text></g><g class="guides"><path class="major guide line" d="M324.597285 0.000000 v462.029437"/><text class="major" x="324.59728506787326" y="477.02943725152284" transform="rotate(45 324.597285 477.029437)">1990</text></g><g class="guides"><path class="major guide line" d="M386.701357 0.000000 v462.029437"/><text class="major" x="386.70135746606337" y="477.02943725152284" transform="rotate(45 386.701357 477.029437)">1991</text></g><g class="guides"><path class="major guide line" d="M441.904977 0.000000 v462.029437"/><text class="major" x="441.9049773755656" y="477.02943725152284" transform="rotate(45 441.904977 477.029437)">1992</text></g><g class="guides"><path class="major guide line" d="M552.312217 0.000000 v462.029437"/><text class="major" x="552.31221719457" y="477.02943725152284" transform="rotate(45 552.312217 477.029437)">1993</text></g><g class="guides"><path class="major guide line" d="M600.615385 0.000000 v462.029437"/><text class="major" x="600.6153846153845" y="477.02943725152284" transform="rotate(45 600.615385 477.029437)">1994</text></g><g class="guides"><path class="major guide line" d="M628.217195 0.000000 v462.029437"/><text class="major" x="628.2171945701358" y="477.02943725152284" transform="rotate(45 628.217195 477.029437)">1995</text></g><g class="guides"><path class="major guide line" d="M655.819005 0.000000 v462.029437"/><text class="major" x="655.8190045248869" y="477.02943725152284" transform="rotate(45 655.819005 477.029437)">1996</text></g><g class="guides"><path class="major guide line" d="M711.022624 0.000000 v462.029437"/><text class="major" x="711.0226244343892" y="477.02943725152284" transform="rotate(45 711.022624 477.029437)">1997</text></g></g><g class="series serie-0 color-0"><path class="line reactive nofill" d="M14.076923 369.801253 L20.977376 368.531942 27.877828 368.328852 34.778281 369.065053 41.678733 367.922672 48.579186 368.887349 55.479638 369.191984 62.380090 367.135699 69.280543 364.622462 76.180995 364.114737 83.081448 365.054028 89.981900 363.784716 96.882353 362.769267 103.782805 361.753818 110.683258 362.642336 117.583710 362.946971 124.484163 362.083839 131.384615 363.480081 138.285068 363.327764 145.185520 364.190896 152.085973 364.063965 158.986425 362.185384 165.886878 361.855363 172.787330 362.007680 179.687783 359.494443 186.588235 358.605925 193.488688 358.605925 200.389140 359.697533 207.289593 360.332189 214.190045 361.449183 221.090498 360.078326 227.990950 360.306802 234.891403 358.656697 241.791855 359.215194 248.692308 358.961332 255.592760 360.586051 262.493213 360.890686 269.393665 360.611437 276.294118 360.002168 283.194570 357.895110 290.095023 358.326676 296.995475 360.281416 303.895928 357.336613 310.796380 358.504380 317.696833 360.256030 324.597285 358.834401 331.497738 358.478994 338.398190 359.875236 345.298643 361.043003 352.199095 364.165510 359.099548 364.698621 366.000000 364.927097 372.900452 367.668810 379.800905 369.090439 386.701357 367.034154 393.601810 369.369687 400.502262 369.572777 407.402715 369.725095 414.303167 369.166598 421.203620 368.354238 428.104072 367.719582 435.004525 370.461295 441.904977 368.227307 448.805430 370.182047 455.705882 370.562840 462.606335 366.526429 469.506787 363.429309 476.407240 362.566177 483.307692 364.698621 490.208145 365.130187 497.108597 365.891774 504.009050 364.368600 510.909502 363.835489 517.809955 367.059540 524.710407 368.379624 531.610860 367.719582 538.511312 361.576114 545.411765 358.326676 552.312217 359.824464 559.212670 363.886261 566.113122 359.545215 573.013575 358.402835 579.914027 355.940370 586.814480 357.692020 593.714932 360.154485 600.615385 363.480081 607.515837 352.716319 614.416290 348.045252 621.316742 355.331101 628.217195 353.224043 635.117647 342.511053 642.018100 339.820112 648.918552 349.974606 655.819005 358.199745 662.719457 365.815615 669.619910 355.102625 676.520362 369.674322 683.420814 359.215194 690.321267 322.405157 697.221719 8.885181 704.122172 148.509462 711.022624 244.977147 717.923077 333.828962"/></g><g class="series serie-1 color-1"><path class="line reactive nofill" d="M14.076923 453.144256 L20.977376 417.603530 27.877828 411.256972 34.778281 390.313330 41.678733 404.072668 48.579186 386.708484 55.479638 379.524181 62.380090 397.802268 69.280543 407.271333 76.180995 407.779058 83.081448 401.534044 89.981900 404.605779 96.882353 405.443524 103.782805 405.875090 110.683258 401.889452 117.583710 398.792331 124.484163 399.096966 131.384615 393.791243 138.285068 393.131201 145.185520 390.084853 152.085973 389.475584 158.986425 392.395001 165.886878 392.395001 172.787330 390.998758 179.687783 394.375127 186.588235 394.400513 193.488688 393.461222 200.389140 391.125689 207.289593 389.805605 214.190045 387.419299 221.090498 388.764769 227.990950 387.647775 234.891403 389.196335 241.791855 387.546230 248.692308 387.317754 255.592760 384.728358 262.493213 383.687523 269.393665 383.611364 276.294118 384.017544 283.194570 385.845353 290.095023 384.753745 296.995475 382.215121 303.895928 384.398337 310.796380 382.570529 317.696833 380.615789 324.597285 381.377376 331.497738 381.351989 338.398190 379.930360 345.298643 378.432573 352.199095 375.360838 359.099548 374.650024 366.000000 374.269230 372.900452 371.781380 379.800905 370.461295 386.701357 372.111401 393.601810 370.182047 400.502262 370.004343 407.402715 369.877412 414.303167 370.283592 421.203620 370.816703 428.104072 371.197496 435.004525 369.369687 441.904977 370.791317 448.805430 369.572777 455.705882 369.369687 462.606335 371.578290 469.506787 372.974533 476.407240 373.253781 483.307692 372.238332 490.208145 371.933697 497.108597 371.527517 504.009050 372.086014 510.909502 372.212946 517.809955 370.918248 524.710407 370.385137 531.610860 370.588227 538.511312 372.466808 545.411765 373.152236 552.312217 372.593739 559.212670 371.451359 566.113122 372.365263 573.013575 372.517580 579.914027 372.898374 586.814480 372.365263 593.714932 371.730607 600.615385 371.070565 607.515837 372.568353 614.416290 373.076077 621.316742 371.984469 628.217195 372.111401 635.117647 372.999919 642.018100 372.974533 648.918552 371.908311 655.819005 370.918248 662.719457 370.182047 669.619910 370.918248 676.520362 369.826640 683.420814 370.385137 690.321267 371.527517 697.221719 372.974533 704.122172 372.466808 711.022624 371.629062 717.923077 370.842089"/></g><g class="series serie-2 color-2"><path class="line reactive nofill" d="M14.076923 369.801253 L20.977376 369.801253 27.877828 369.801253 34.778281 369.801253 41.678733 369.801253 48.579186 369.801253 55.479638 369.801253 62.380090 369.801253 69.280543 369.801253 76.180995 369.801253 83.081448 369.801253 89.981900 369.801253 96.882353 369.801253 103.782805 369.801253 110.683258 369.801253 117.583710 369.801253 124.484163 369.801253 131.384615 369.801253 138.285068 369.801253 145.185520 369.801253 152.085973 369.801253 158.986425 369.801253 165.886878 369.801253 172.787330 369.801253 179.687783 369.801253 186.588235 369.801253 193.488688 369.801253 200.389140 369.801253 207.289593 369.801253 214.190045 369.801253 221.090498 369.801253 227.990950 369.801253 234.891403 369.801253 241.791855 369.801253 248.692308 369.801253 255.592760 369.801253 262.493213 369.801253 269.393665 369.801253 276.294118 369.801253 283.194570 369.801253 290.095023 369.801253 296.995475 369.801253 303.895928 369.801253 310.796380 369.801253 317.696833 369.801253 324.597285 369.801253 331.497738 369.801253 338.398190 369.801253 345.298643 369.801253 352.199095 369.801253 359.099548 369.801253 366.000000 369.801253 372.900452 369.801253 379.800905 369.801253 386.701357 369.801253 393.601810 369.801253 400.502262 369.801253 407.402715 369.801253 414.303167 369.801253 421.203620 369.801253 428.104072 369.801253 435.004525 369.801253 441.904977 369.801253 448.805430 369.801253 455.705882 369.801253 462.606335 369.801253 469.506787 369.801253 476.407240 369.801253 483.307692 369.801253 490.208145 369.801253 497.108597 369.801253 504.009050 369.801253 510.909502 369.801253 517.809955 369.801253 524.710407 369.801253 531.610860 369.801253 538.511312 369.801253 545.411765 369.801253 552.312217 369.801253 559.212670 369.801253 566.113122 369.801253 573.013575 369.801253 579.914027 369.801253 586.814480 369.801253 593.714932 369.801253 600.615385 369.801253 607.515837 369.801253 614.416290 369.801253 621.316742 369.801253 628.217195 369.801253 635.117647 369.801253 642.018100 369.801253 648.918552 369.801253 655.819005 369.801253 662.719457 369.801253 669.619910 369.801253 676.520362 369.801253 683.420814 369.801253 690.321267 369.801253 697.221719 369.801253 704.122172 369.801253 711.022624 369.801253 717.923077 369.801253"/></g></g><g class="titles"><text class="title plot_title" x="400.0" y="26">PAJ DeFreitas: Future and Past Averages in ODIs</text></g><g class="plot overlay" transform="translate(48, 46)"><g class="series serie-0 color-0"><g class="dots"><desc class="label">115 wickets in 103 innings (952.0 overs)</desc><circle class="dot reactive tooltip-trigger" cx="14.076923076923077" cy="369.8012534309304" r="2.5"/><desc class="value">32.83</desc><desc class="x top">14.076923076923077</desc><desc class="y top">369.8012534309304</desc><desc class="x_label">1987</desc></g><g class="dots"><desc class="label">76 wickets in 73 innings (675.4 overs)</desc><circle class="dot reactive tooltip-trigger" cx="221.09049773755657" cy="360.0783262623956" r="2.5"/><desc class="value">36.66</desc><desc class="x top">221.09049773755657</desc><desc class="y top">360.0783262623956</desc><desc class="x_label">1988</desc></g><g class="dots"><desc class="label">68 wickets in 65 innings (595.4 overs)</desc><circle class="dot reactive tooltip-trigger" cx="276.29411764705884" cy="360.0021675639476" r="2.5"/><desc class="value">36.69</desc><desc class="x top">276.29411764705884</desc><desc class="y top">360.0021675639476</desc><desc class="x_label">1989</desc></g><g class="dots"><desc class="label">59 wickets in 58 innings (529.4 overs)</desc><circle class="dot reactive tooltip-trigger" cx="324.59728506787326" cy="358.8344008544108" r="2.5"/><desc class="value">37.15</desc><desc class="x top">324.59728506787326</desc><desc class="y top">358.8344008544108</desc><desc class="x_label">1990</desc></g><g class="dots"><desc class="label">52 wickets in 49 innings (443.2 overs)</desc><circle class="dot reactive tooltip-trigger" cx="386.70135746606337" cy="367.0341540539845" r="2.5"/><desc class="value">33.92</desc><desc class="x left top">386.70135746606337</desc><desc class="y left top">367.0341540539845</desc><desc class="x_label">1991</desc></g><g class="dots"><desc class="label">44 wickets in 41 innings (363.1 overs)</desc><circle class="dot reactive tooltip-trigger" cx="441.9049773755656" cy="368.2273069963373" r="2.5"/><desc class="value">33.45</desc><desc class="x left top">441.9049773755656</desc><desc class="y left top">368.2273069963373</desc><desc class="x_label">1992</desc></g><g class="dots"><desc class="label">25 wickets in 25 innings (215.5 overs)</desc><circle class="dot reactive tooltip-trigger" cx="552.31221719457" cy="359.82446393423544" r="2.5"/><desc class="value">36.76</desc><desc class="x left top">552.31221719457</desc><desc class="y left top">359.82446393423544</desc><desc class="x_label">1993</desc></g><g class="dots"><desc class="label">19 wickets in 18 innings (161.5 overs)</desc><circle class="dot reactive tooltip-trigger" cx="600.6153846153845" cy="363.480081459742" r="2.5"/><desc class="value">35.32</desc><desc class="x left top">600.6153846153845</desc><desc class="y left top">363.480081459742</desc><desc class="x_label">1994</desc></g><g class="dots"><desc class="label">14 wickets in 14 innings (122.5 overs)</desc><circle class="dot reactive tooltip-trigger" cx="628.2171945701358" cy="353.22404340207083" r="2.5"/><desc class="value">39.36</desc><desc class="x left top">628.2171945701358</desc><desc class="y left top">353.22404340207083</desc><desc class="x_label">1995</desc></g><g class="dots"><desc class="label">10 wickets in 10 innings (83.1 overs)</desc><circle class="dot reactive tooltip-trigger" cx="655.8190045248869" cy="358.1997450340103" r="2.5"/><desc class="value">37.4</desc><desc class="x left top">655.8190045248869</desc><desc class="y left top">358.1997450340103</desc><desc class="x_label">1996</desc></g><g class="dots"><desc class="label">0 wickets in 2 innings (17.0 overs)</desc><circle class="dot reactive tooltip-trigger" cx="711.0226244343892" cy="244.9771466745712" r="2.5"/><desc class="value">82</desc><desc class="x left top">711.0226244343892</desc><desc class="y left top">244.9771466745712</desc><desc class="x_label">1997</desc></g></g><g class="series serie-1 color-1"><g class="dots"><desc class="label">0 wickets over 0 innings</desc><circle class="dot reactive tooltip-trigger" cx="14.076923076923077" cy="453.1442557659166" r="2.5"/><desc class="value">0</desc><desc class="x top">14.076923076923077</desc><desc class="y top">453.1442557659166</desc><desc class="x_label">1987</desc></g><g class="dots"><desc class="label">39 wickets in 30 innings (276.2 overs)</desc><circle class="dot reactive tooltip-trigger" cx="221.09049773755657" cy="388.7647693444957" r="2.5"/><desc class="value">25.36</desc><desc class="x top">221.09049773755657</desc><desc class="y top">388.7647693444957</desc><desc class="x_label">1988</desc></g><g class="dots"><desc class="label">47 wickets in 38 innings (356.2 overs)</desc><circle class="dot reactive tooltip-trigger" cx="276.29411764705884" cy="384.0175438079003" r="2.5"/><desc class="value">27.23</desc><desc class="x top">276.29411764705884</desc><desc class="y top">384.0175438079003</desc><desc class="x_label">1989</desc></g><g class="dots"><desc class="label">56 wickets in 45 innings (422.2 overs)</desc><circle class="dot reactive tooltip-trigger" cx="324.59728506787326" cy="381.3773755950345" r="2.5"/><desc class="value">28.27</desc><desc class="x top">324.59728506787326</desc><desc class="y top">381.3773755950345</desc><desc class="x_label">1990</desc></g><g class="dots"><desc class="label">63 wickets in 54 innings (508.4 overs)</desc><circle class="dot reactive tooltip-trigger" cx="386.70135746606337" cy="372.111400617188" r="2.5"/><desc class="value">31.92</desc><desc class="x left top">386.70135746606337</desc><desc class="y left top">372.111400617188</desc><desc class="x_label">1991</desc></g><g class="dots"><desc class="label">71 wickets in 62 innings (588.5 overs)</desc><circle class="dot reactive tooltip-trigger" cx="441.9049773755656" cy="370.7913165107551" r="2.5"/><desc class="value">32.44</desc><desc class="x left top">441.9049773755656</desc><desc class="y left top">370.7913165107551</desc><desc class="x_label">1992</desc></g><g class="dots"><desc class="label">90 wickets in 78 innings (736.1 overs)</desc><circle class="dot reactive tooltip-trigger" cx="552.31221719457" cy="372.5937390406923" r="2.5"/><desc class="value">31.73</desc><desc class="x left top">552.31221719457</desc><desc class="y left top">372.5937390406923</desc><desc class="x_label">1993</desc></g><g class="dots"><desc class="label">96 wickets in 85 innings (790.1 overs)</desc><circle class="dot reactive tooltip-trigger" cx="600.6153846153845" cy="371.07056507173127" r="2.5"/><desc class="value">32.33</desc><desc class="x left top">600.6153846153845</desc><desc class="y left top">371.07056507173127</desc><desc class="x_label">1994</desc></g><g class="dots"><desc class="label">101 wickets in 89 innings (829.1 overs)</desc><circle class="dot reactive tooltip-trigger" cx="628.2171945701358" cy="372.111400617188" r="2.5"/><desc class="value">31.92</desc><desc class="x left top">628.2171945701358</desc><desc class="y left top">372.111400617188</desc><desc class="x_label">1995</desc></g><g class="dots"><desc class="label">105 wickets in 93 innings (868.5 overs)</desc><circle class="dot reactive tooltip-trigger" cx="655.8190045248869" cy="370.9182476748352" r="2.5"/><desc class="value">32.39</desc><desc class="x left top">655.8190045248869</desc><desc class="y left top">370.9182476748352</desc><desc class="x_label">1996</desc></g><g class="dots"><desc class="label">115 wickets in 101 innings (935.0 overs)</desc><circle class="dot reactive tooltip-trigger" cx="711.0226244343892" cy="371.6290621936837" r="2.5"/><desc class="value">32.11</desc><desc class="x left top">711.0226244343892</desc><desc class="y left top">371.6290621936837</desc><desc class="x_label">1997</desc></g></g><g class="series serie-2 color-2"/></g><g class="plot text-overlay" transform="translate(48, 46)"><g class="series serie-0 color-0"/><g class="series serie-1 color-1"/><g class="series serie-2 color-2"/></g><g class="plot tooltip-overlay" transform="translate(48, 46)"><g class="tooltip" style="opacity: 0" transform="translate(0 0)"><rect class="tooltip-box" height="0" rx="10" ry="10" width="0"/><g class="text"/></g></g><g class="legends" transform="translate(58, 545)"><g class="legend reactive activate-serie" id="activate-serie-0"><rect class="color-0 reactive" height="12" width="12" x="0.0" y="1.0"/><text x="17.0" y="11.2">Future Average</text></g><g class="legend reactive activate-serie" id="activate-serie-1"><rect class="color-1 reactive" height="12" width="12" x="366.0" y="1.0"/><text x="383.0" y="11.2">Past Average</text></g><g class="legend reactive activate-serie" id="activate-serie-2"><rect class="color-2 reactive" height="12" width="12" x="0.0" y="22.0"/><text x="17.0" y="32.2">Career Average</text></g></g></g></svg>