<?xml version='1.0' encoding='utf-8'?>
<svg xmlns:xlink="http://www.w3.org/1999/xlink" xmlns="http://www.w3.org/2000/svg" id="chart-acbe3fcc-2045-4bbe-af13-c0cfcdaa868a" class="pygal-chart" viewBox="0 0 800 600"><!--Generated with pygal 2.4.0 (lxml) ©Kozea 2012-2016 on 2019-08-04--><!--http://pygal.org--><!--http://github.com/Kozea/pygal--><defs><style type="text/css">#chart-acbe3fcc-2045-4bbe-af13-c0cfcdaa868a{-webkit-user-select:none;-webkit-font-smoothing:antialiased;font-family:Consolas,"Liberation Mono",Menlo,Courier,monospace}#chart-acbe3fcc-2045-4bbe-af13-c0cfcdaa868a .title{font-family:Consolas,"Liberation Mono",Menlo,Courier,monospace;font-size:16px}#chart-acbe3fcc-2045-4bbe-af13-c0cfcdaa868a .legends .legend text{font-family:Consolas,"Liberation Mono",Menlo,Courier,monospace;font-size:14px}#chart-acbe3fcc-2045-4bbe-af13-c0cfcdaa868a .axis text{font-family:Consolas,"Liberation Mono",Menlo,Courier,monospace;font-size:10px}#chart-acbe3fcc-2045-4bbe-af13-c0cfcdaa868a .axis text.major{font-family:Consolas,"Liberation Mono",Menlo,Courier,monospace;font-size:10px}#chart-acbe3fcc-2045-4bbe-af13-c0cfcdaa868a .text-overlay text.value{font-family:Consolas,"Liberation Mono",Menlo,Courier,monospace;font-size:16px}#chart-acbe3fcc-2045-4bbe-af13-c0cfcdaa868a .text-overlay text.label{font-family:Consolas,"Liberation Mono",Menlo,Courier,monospace;font-size:10px}#chart-acbe3fcc-2045-4bbe-af13-c0cfcdaa868a .tooltip{font-family:Consolas,"Liberation Mono",Menlo,Courier,monospace;font-size:14px}#chart-acbe3fcc-2045-4bbe-af13-c0cfcdaa868a text.no_data{font-family:Consolas,"Liberation Mono",Menlo,Courier,monospace;font-size:64px}
#chart-acbe3fcc-2045-4bbe-af13-c0cfcdaa868a{background-color:rgba(249,249,249,1)}#chart-acbe3fcc-2045-4bbe-af13-c0cfcdaa868a path,#chart-acbe3fcc-2045-4bbe-af13-c0cfcdaa868a line,#chart-acbe3fcc-2045-4bbe-af13-c0cfcdaa868a rect,#chart-acbe3fcc-2045-4bbe-af13-c0cfcdaa868a circle{-webkit-transition:150ms;-moz-transition:150ms;transition:150ms}#chart-acbe3fcc-2045-4bbe-af13-c0cfcdaa868a .graph &gt; .background{fill:rgba(249,249,249,1)}#chart-acbe3fcc-2045-4bbe-af13-c0cfcdaa868a .plot &gt; .background{fill:rgba(255,255,255,1)}#chart-acbe3fcc-2045-4bbe-af13-c0cfcdaa868a .graph{fill:rgba(0,0,0,.87)}#chart-acbe3fcc-2045-4bbe-af13-c0cfcdaa868a text.no_data{fill:rgba(0,0,0,1)}#chart-acbe3fcc-2045-4bbe-af13-c0cfcdaa868a .title{fill:rgba(0,0,0,1)}#chart-acbe3fcc-2045-4bbe-af13-c0cfcdaa868a .legends .legend text{fill:rgba(0,0,0,.87)}#chart-acbe3fcc-2045-4bbe-af13-c0cfcdaa868a .legends .legend:hover text{fill:rgba(0,0,0,1)}#chart-acbe3fcc-2045-4bbe-af13-c0cfcdaa868a .axis .line{stroke:rgba(0,0,0,1)}#chart-acbe3fcc-2045-4bbe-af13-c0cfcdaa868a .axis .guide.line{stroke:rgba(0,0,0,.54)}#chart-acbe3fcc-2045-4bbe-af13-c0cfcdaa868a .axis .major.line{stroke:rgba(0,0,0,.87)}#chart-acbe3fcc-2045-4bbe-af13-c0cfcdaa868a .axis text.major{fill:rgba(0,0,0,1)}#chart-acbe3fcc-2045-4bbe-af13-c0cfcdaa868a .axis.y .guides:hover .guide.line,#chart-acbe3fcc-2045-4bbe-af13-c0cfcdaa868a .line-graph .axis.x .guides:hover .guide.line,#chart-acbe3fcc-2045-4bbe-af13-c0cfcdaa868a .stackedline-graph .axis.x .guides:hover .guide.line,#chart-acbe3fcc-2045-4bbe-af13-c0cfcdaa868a .xy-graph .axis.x .guides:hover .guide.line{stroke:rgba(0,0,0,1)}#chart-acbe3fcc-2045-4bbe-af13-c0cfcdaa868a .axis .guides:hover text{fill:rgba(0,0,0,1)}#chart-acbe3fcc-2045-4bbe-af13-c0cfcdaa868a .reactive{fill-opacity:.7;stroke-opacity:.8}#chart-acbe3fcc-2045-4bbe-af13-c0cfcdaa868a .ci{stroke:rgba(0,0,0,.87)}#chart-acbe3fcc-2045-4bbe-af13-c0cfcdaa868a .reactive.active,#chart-acbe3fcc-2045-4bbe-af13-c0cfcdaa868a .active .reactive{fill-opacity:.8;stroke-opacity:.9;stroke-width:4}#chart-acbe3fcc-2045-4bbe-af13-c0cfcdaa868a .ci .reactive.active{stroke-width:1.5}#chart-acbe3fcc-2045-4bbe-af13-c0cfcdaa868a .series text{fill:rgba(0,0,0,1)}#chart-acbe3fcc-2045-4bbe-af13-c0cfcdaa868a .tooltip rect{fill:rgba(255,255,255,1);stroke:rgba(0,0,0,1);-webkit-transition:opacity 150ms;-moz-transition:opacity 150ms;transition:opacity 150ms}#chart-acbe3fcc-2045-4bbe-af13-c0cfcdaa868a .tooltip .label{fill:rgba(0,0,0,.87)}#chart-acbe3fcc-2045-4bbe-af13-c0cfcdaa868a .tooltip .label{fill:rgba(0,0,0,.87)}#chart-acbe3fcc-2045-4bbe-af13-c0cfcdaa868a .tooltip .legend{font-size:.8em;fill:rgba(0,0,0,.54)}#chart-acbe3fcc-2045-4bbe-af13-c0cfcdaa868a .tooltip .x_label{font-size:.6em;fill:rgba(0,0,0,1)}#chart-acbe3fcc-2045-4bbe-af13-c0cfcdaa868a .tooltip .xlink{font-size:.5em;text-decoration:underline}#chart-acbe3fcc-2045-4bbe-af13-c0cfcdaa868a .tooltip .value{font-size:1.5em}#chart-acbe3fcc-2045-4bbe-af13-c0cfcdaa868a .bound{font-size:.5em}#chart-acbe3fcc-2045-4bbe-af13-c0cfcdaa868a .max-value{font-size:.75em;fill:rgba(0,0,0,.54)}#chart-acbe3fcc-2045-4bbe-af13-c0cfcdaa868a .map-element{fill:rgba(255,255,255,1);stroke:rgba(0,0,0,.54) !important}#chart-acbe3fcc-2045-4bbe-af13-c0cfcdaa868a .map-element .reactive{fill-opacity:inherit;stroke-opacity:inherit}#chart-acbe3fcc-2045-4bbe-af13-c0cfcdaa868a .color-0,#chart-acbe3fcc-2045-4bbe-af13-c0cfcdaa868a .color-0 a:visited{stroke:red;fill:red}#chart-acbe3fcc-2045-4bbe-af13-c0cfcdaa868a .color-1,#chart-acbe3fcc-2045-4bbe-af13-c0cfcdaa868a .color-1 a:visited{stroke:blue;fill:blue}#chart-acbe3fcc-2045-4bbe-af13-c0cfcdaa868a .color-2,#chart-acbe3fcc-2045-4bbe-af13-c0cfcdaa868a .color-2 a:visited{stroke:green;fill:green}#chart-acbe3fcc-2045-4bbe-af13-c0cfcdaa868a .text-overlay .color-0 text{fill:white}#chart-acbe3fcc-2045-4bbe-af13-c0cfcdaa868a .text-overlay .color-1 text{fill:white}#chart-acbe3fcc-2045-4bbe-af13-c0cfcdaa868a .text-overlay .color-2 text{fill:white}
#chart-acbe3fcc-2045-4bbe-af13-c0cfcdaa868a text.no_data{text-anchor:middle}#chart-acbe3fcc-2045-4bbe-af13-c0cfcdaa868a .guide.line{fill:none}#chart-acbe3fcc-2045-4bbe-af13-c0cfcdaa868a .centered{text-anchor:middle}#chart-acbe3fcc-2045-4bbe-af13-c0cfcdaa868a .title{text-anchor:middle}#chart-acbe3fcc-2045-4bbe-af13-c0cfcdaa868a .legends .legend text{fill-opacity:1}#chart-acbe3fcc-2045-4bbe-af13-c0cfcdaa868a .axis.x text{text-anchor:middle}#chart-acbe3fcc-2045-4bbe-af13-c0cfcdaa868a .axis.x:not(.web) text[transform]{text-anchor:start}#chart-acbe3fcc-2045-4bbe-af13-c0cfcdaa868a .axis.x:not(.web) text[transform].backwards{text-anchor:end}#chart-acbe3fcc-2045-4bbe-af13-c0cfcdaa868a .axis.y text{text-anchor:end}#chart-acbe3fcc-2045-4bbe-af13-c0cfcdaa868a .axis.y text[transform].backwards{text-anchor:start}#chart-acbe3fcc-2045-4bbe-af13-c0cfcdaa868a .axis.y2 text{text-anchor:start}#chart-acbe3fcc-2045-4bbe-af13-c0cfcdaa868a .axis.y2 text[transform].backwards{text-anchor:end}#chart-acbe3fcc-2045-4bbe-af13-c0cfcdaa868a .axis .guide.line{stroke-dasharray:4,4}#chart-acbe3fcc-2045-4bbe-af13-c0cfcdaa868a .axis .major.guide.line{stroke-dasharray:6,6}#chart-acbe3fcc-2045-4bbe-af13-c0cfcdaa868a .horizontal .axis.y .guide.line,#chart-acbe3fcc-2045-4bbe-af13-c0cfcdaa868a .horizontal .axis.y2 .guide.line,#chart-acbe3fcc-2045-4bbe-af13-c0cfcdaa868a .vertical .axis.x .guide.line{opacity:0}#chart-acbe3fcc-2045-4bbe-af13-c0cfcdaa868a .horizontal .axis.always_show .guide.line,#chart-acbe3fcc-2045-4bbe-af13-c0cfcdaa868a .vertical .axis.always_show .guide.line{opacity:1 !important}#chart-acbe3fcc-2045-4bbe-af13-c0cfcdaa868a .axis.y .guides:hover .guide.line,#chart-acbe3fcc-2045-4bbe-af13-c0cfcdaa868a .axis.y2 .guides:hover .guide.line,#chart-acbe3fcc-2045-4bbe-af13-c0cfcdaa868a .axis.x .guides:hover .guide.line{opacity:1}#chart-acbe3fcc-2045-4bbe-af13-c0cfcdaa868a .axis .guides:hover text{opacity:1}#chart-acbe3fcc-2045-4bbe-af13-c0cfcdaa868a .nofill{fill:none}#chart-acbe3fcc-2045-4bbe-af13-c0cfcdaa868a .subtle-fill{fill-opacity:.2}#chart-acbe3fcc-2045-4bbe-af13-c0cfcdaa868a .dot{stroke-width:1px;fill-opacity:1}#chart-acbe3fcc-2045-4bbe-af13-c0cfcdaa868a .dot.active{stroke-width:5px}#chart-acbe3fcc-2045-4bbe-af13-c0cfcdaa868a .dot.negative{fill:transparent}#chart-acbe3fcc-2045-4bbe-af13-c0cfcdaa868a text,#chart-acbe3fcc-2045-4bbe-af13-c0cfcdaa868a tspan{stroke:none !important}#chart-acbe3fcc-2045-4bbe-af13-c0cfcdaa868a .series text.active{opacity:1}#chart-acbe3fcc-2045-4bbe-af13-c0cfcdaa868a .tooltip rect{fill-opacity:.95;stroke-width:.5}#chart-acbe3fcc-2045-4bbe-af13-c0cfcdaa868a .tooltip text{fill-opacity:1}#chart-acbe3fcc-2045-4bbe-af13-c0cfcdaa868a .showable{visibility:hidden}#chart-acbe3fcc-2045-4bbe-af13-c0cfcdaa868a .showable.shown{visibility:visible}#chart-acbe3fcc-2045-4bbe-af13-c0cfcdaa868a .gauge-background{fill:rgba(229,229,229,1);stroke:none}#chart-acbe3fcc-2045-4bbe-af13-c0cfcdaa868a .bg-lines{stroke:rgba(249,249,249,1);stroke-width:2px}</style><script type="text/javascript">window.pygal = window.pygal || {};window.pygal.config = window.pygal.config || {};window.pygal.config['acbe3fcc-2045-4bbe-af13-c0cfcdaa868a'] = {"allow_interruptions": false, "box_mode": "extremes", "classes": ["pygal-chart"], "css": ["file://style.css", "file://graph.css"], "defs": [], "disable_xml_declaration": false, "dots_size": 2.5, "dynamic_print_values": false, "explicit_size": false, "fill": false, "force_uri_protocol": "https", "formatter": null, "half_pie": false, "height": 600, "include_x_axis": false, "inner_radius": 0, "interpolate": null, "interpolation_parameters": {}, "interpolation_precision": 250, "inverse_y_axis": false, "js": ["//kozea.github.io/pygal.js/2.0.x/pygal-tooltips.min.js"], "legend_at_bottom": true, "legend_at_bottom_columns": null, "legend_box_size": 12, "logarithmic": false, "margin": 20, "margin_bottom": null, "margin_left": null, "margin_right": null, "margin_top": null, "max_scale": 16, "min_scale": 4, "missing_value_fill_truncation": "x", "no_data_text": "No data", "no_prefix": false, "order_min": null, "pretty_print": false, "print_labels": false, "print_values": false, "print_values_position": "center", "print_zeroes": true, "range": null, "rounded_bars": null, "secondary_range": null, "show_dots": true, "show_legend": true, "show_minor_x_labels": false, "show_minor_y_labels": true, "show_only_major_dots": false, "show_x_guides": false, "show_x_labels": true, "show_y_guides": true, "show_y_labels": true, "spacing": 10, "stack_from_top": false, "strict": false, "stroke": true, "stroke_style": null, "style": {"background": "rgba(249, 249, 249, 1)", "ci_colors": [], "colors": ["red", "blue", "green", "#a3a3a3"], "font_family": "Consolas, \"Liberation Mono\", Menlo, Courier, monospace", "foreground": "rgba(0, 0, 0, .87)", "foreground_strong": "rgba(0, 0, 0, 1)", "foreground_subtle": "rgba(0, 0, 0, .54)", "guide_stroke_dasharray": "4,4", "label_font_family": "Consolas, \"Liberation Mono\", Menlo, Courier, monospace", "label_font_size": 10, "legend_font_family": "Consolas, \"Liberation Mono\", Menlo, Courier, monospace", "legend_font_size": 14, "major_guide_stroke_dasharray": "6,6", "major_label_font_family": "Consolas, \"Liberation Mono\", Menlo, Courier, monospace", "major_label_font_size": 10, "no_data_font_family": "Consolas, \"Liberation Mono\", Menlo, Courier, monospace", "no_data_font_size": 64, "opacity": ".7", "opacity_hover": ".8", "plot_background": "rgba(255, 255, 255, 1)", "stroke_opacity": ".8", "stroke_opacity_hover": ".9", "title_font_family": "Consolas, \"Liberation Mono\", Menlo, Courier, monospace", "title_font_size": 16, "tooltip_font_family": "Consolas, \"Liberation Mono\", Menlo, Courier, monospace", "tooltip_font_size": 14, "transition": "150ms", "value_background": "rgba(229, 229, 229, 1)", "value_colors": [], "value_font_family": "Consolas, \"Liberation Mono\", Menlo, Courier, monospace", "value_font_size": 16, "value_label_font_family": "Consolas, \"Liberation Mono\", Menlo, Courier, monospace", "value_label_font_size": 10}, "title": "PD Collingwood: Future and Past Averages in ODIs", "tooltip_border_radius": 10, "tooltip_fancy_mode": true, "truncate_label": null, "truncate_legend": null, "width": 800, "x_label_rotation": 45, "x_labels": ["2001", "0", "0", "0", "0", "0", "2002", "0", "0", "0", "0", "0", "0", "0", "0", "0", "0", "0", "0", "0", "0", "2003", "0", "0", "0", "2004", "0", "0", "0", "0", "0", "0", "0", "0", "0", "0", "2005", "0", "0", "0", "0", "0", "0", "0", "0", "0", "0", "0", "0", "0", "0", "0", "0", "0", "0", "0", "0", "2006", "0", "0", "0", "0", "0", "0", "0", "0", "0", "0", "0", "0", "0", "0", "2007", "0", "0", "0", "0", "0", "0", "0", "0", "0", "0", "0", "0", "0", "0", "0", "0", "0", "0", "0", "0", "0", "0", "0", "0", "0", "0", "0", "0", "2008", "0", "0", "0", "0", "0", "0", "0", "0", "0", "0", "0", "0", "2009", "0", "0", "0", "0", "0", "0", "0", "0", "0", "0", "0", "0", "0", "0", "0", "0", "0", "2010", "0", "0", "0", "0", "0", "0", "0", "0", "0", "0", "0", "2011", "0", "0", "0", "0", "0", "0"], "x_labels_major": ["2001", "2002", "2003", "2004", "2005", "2006", "2007", "2008", "2009", "2010", "2011"], "x_labels_major_count": null, "x_labels_major_every": null, "x_title": null, "xrange": null, "y_label_rotation": 0, "y_labels": null, "y_labels_major": null, "y_labels_major_count": null, "y_labels_major_every": null, "y_title": null, "zero": 120.0, "legends": ["Future Average", "Past Average", "Career Average"]}</script><script type="text/javascript" xlink:href="https://kozea.github.io/pygal.js/2.0.x/pygal-tooltips.min.js"/></defs><title>PD Collingwood: Future and Past Averages in ODIs</title><g class="graph line-graph vertical"><rect class="background" height="600" width="800" x="0" y="0"/><g class="plot" transform="translate(48, 46)"><rect class="background" height="462.02943725152284" width="732.0" x="0" y="0"/><g class="axis y always_show"><g class="guides"><path class="axis major line" d="M0.000000 453.144256 h732.000000"/><text class="major" x="-5" y="456.6442557659166">0</text><title>0</title></g><g class="guides"><path class="guide line" d="M0.000000 414.846060 h732.000000"/><text class="" x="-5" y="418.34605970726915">10</text><title>10</title></g><g class="guides"><path class="guide line" d="M0.000000 376.547864 h732.000000"/><text class="" x="-5" y="380.0478636486217">20</text><title>20</title></g><g class="guides"><path class="guide line" d="M0.000000 338.249668 h732.000000"/><text class="" x="-5" y="341.74966758997425">30</text><title>30</title></g><g class="guides"><path class="guide line" d="M0.000000 299.951472 h732.000000"/><text class="" x="-5" y="303.4514715313268">40</text><title>40</title></g><g class="guides"><path class="major guide line" d="M0.000000 261.653275 h732.000000"/><text class="major" x="-5" y="265.15327547267935">50</text><title>50</title></g><g class="guides"><path class="guide line" d="M0.000000 223.355079 h732.000000"/><text class="" x="-5" y="226.85507941403188">60</text><title>60</title></g><g class="guides"><path class="guide line" d="M0.000000 185.056883 h732.000000"/><text class="" x="-5" y="188.55688335538446">70</text><title>70</title></g><g class="guides"><path class="guide line" d="M0.000000 146.758687 h732.000000"/><text class="" x="-5" y="150.25868729673698">80</text><title>80</title></g><g class="guides"><path class="guide line" d="M0.000000 108.460491 h732.000000"/><text class="" x="-5" y="111.96049123808956">90</text><title>90</title></g><g class="guides"><path class="major guide line" d="M0.000000 70.162295 h732.000000"/><text class="major" x="-5" y="73.66229517944214">100</text><title>100</title></g><g class="guides"><path class="guide line" d="M0.000000 31.864099 h732.000000"/><text class="" x="-5" y="35.36409912079466">110</text><title>110</title></g></g><g class="axis x"><g class="guides"><path class="major line" d="M14.076923 0.000000 v462.029437"/><text class="major" x="14.076923076923077" y="477.02943725152284" transform="rotate(45 14.076923 477.029437)">2001</text></g><g class="guides"><path class="major guide line" d="M42.230769 0.000000 v462.029437"/><text class="major" x="42.23076923076923" y="477.02943725152284" transform="rotate(45 42.230769 477.029437)">2002</text></g><g class="guides"><path class="major guide line" d="M112.615385 0.000000 v462.029437"/><text class="major" x="112.61538461538461" y="477.02943725152284" transform="rotate(45 112.615385 477.029437)">2003</text></g><g class="guides"><path class="major guide line" d="M131.384615 0.000000 v462.029437"/><text class="major" x="131.38461538461536" y="477.02943725152284" transform="rotate(45 131.384615 477.029437)">2004</text></g><g class="guides"><path class="major guide line" d="M183.000000 0.000000 v462.029437"/><text class="major" x="183.0" y="477.02943725152284" transform="rotate(45 183.000000 477.029437)">2005</text></g><g class="guides"><path class="major guide line" d="M281.538462 0.000000 v462.029437"/><text class="major" x="281.53846153846155" y="477.02943725152284" transform="rotate(45 281.538462 477.029437)">2006</text></g><g class="guides"><path class="major guide line" d="M351.923077 0.000000 v462.029437"/><text class="major" x="351.9230769230769" y="477.02943725152284" transform="rotate(45 351.923077 477.029437)">2007</text></g><g class="guides"><path class="major guide line" d="M488.000000 0.000000 v462.029437"/><text class="major" x="488.0" y="477.02943725152284" transform="rotate(45 488.000000 477.029437)">2008</text></g><g class="guides"><path class="major guide line" d="M549.000000 0.000000 v462.029437"/><text class="major" x="549.0" y="477.02943725152284" transform="rotate(45 549.000000 477.029437)">2009</text></g><g class="guides"><path class="major guide line" d="M633.461538 0.000000 v462.029437"/><text class="major" x="633.4615384615385" y="477.02943725152284" transform="rotate(45 633.461538 477.029437)">2010</text></g><g class="guides"><path class="major guide line" d="M689.769231 0.000000 v462.029437"/><text class="major" x="689.7692307692307" y="477.02943725152284" transform="rotate(45 689.769231 477.029437)">2011</text></g></g><g class="series serie-0 color-0"><path class="line reactive nofill" d="M14.076923 305.006833 L18.769231 305.619605 23.461538 305.964288 28.153846 306.691954 32.846154 306.921743 37.538462 306.653656 42.230769 307.917496 46.923077 308.683460 51.615385 309.526021 56.307692 309.947301 61.000000 309.755810 65.692308 311.019650 70.384615 311.632421 75.076923 307.572813 79.769231 307.764304 84.461538 308.262180 89.153846 306.538761 93.846154 307.036638 98.538462 308.913249 103.230769 309.296231 107.923077 309.028144 112.615385 308.491969 117.307692 309.066442 122.000000 308.377075 126.692308 307.764304 131.384615 306.845147 136.076923 307.534514 140.769231 306.347270 145.461538 308.721758 150.153846 309.181337 154.846154 310.368581 159.538462 310.674966 164.230769 308.453671 168.923077 310.177090 173.615385 306.002587 178.307692 307.304725 183.000000 305.428114 187.692308 306.347270 192.384615 308.223882 197.076923 307.228129 201.769231 308.338776 206.461538 310.751563 211.153846 310.674966 215.846154 311.823912 220.538462 313.470735 225.230769 313.968611 229.923077 304.662150 234.615385 305.504710 239.307692 306.577059 244.000000 305.964288 248.692308 299.568490 253.384615 300.640839 258.076923 301.215312 262.769231 300.181261 267.461538 300.334453 272.153846 301.330207 276.846154 302.900433 281.538462 303.934484 286.230769 304.891939 290.923077 305.964288 295.615385 305.543008 300.307692 306.079183 305.000000 304.508957 309.692308 305.543008 314.384615 302.555749 319.076923 299.530191 323.769231 301.368505 328.461538 303.360011 333.153846 304.432360 337.846154 305.657903 342.538462 306.194077 347.230769 302.823836 351.923077 304.049379 356.615385 305.351517 361.307692 301.981276 366.000000 301.981276 370.692308 301.751487 375.384615 299.453595 380.076923 300.908926 384.769231 297.079107 389.461538 298.496140 394.153846 301.483399 398.846154 297.998264 403.538462 297.806773 408.230769 298.074860 412.923077 298.840824 417.615385 299.951472 422.307692 300.908926 427.000000 300.947225 431.692308 301.100417 436.384615 303.551502 441.076923 306.883445 445.769231 309.909003 450.461538 311.862211 455.153846 309.411126 459.846154 313.049455 464.538462 314.045208 469.230769 318.755886 473.923077 316.381398 478.615385 312.513280 483.307692 316.113310 488.000000 315.385645 492.692308 316.840976 497.384615 318.909079 502.076923 312.283491 506.769231 319.406955 511.461538 318.449500 516.153846 302.900433 520.846154 300.832330 525.538462 299.951472 530.230769 299.951472 534.923077 301.866381 539.615385 305.428114 544.307692 307.457918 549.000000 308.185584 553.692308 308.070689 558.384615 297.270598 563.076923 297.959965 567.769231 295.087601 572.461538 273.334225 577.153846 279.002358 581.846154 273.985295 586.538462 262.840520 591.230769 267.398005 595.923077 264.985219 600.615385 274.406575 605.307692 280.534286 610.000000 284.096018 614.692308 288.462013 619.384615 302.134469 624.076923 284.632193 628.769231 296.772721 633.461538 273.142734 638.153846 288.079031 642.846154 298.036562 647.538462 317.568642 652.230769 307.189831 656.923077 298.994017 661.615385 311.900509 666.307692 313.815419 671.000000 329.134697 675.692308 320.211217 680.384615 314.619681 685.076923 321.015479 689.769231 300.717435 694.461538 231.014719 699.153846 162.077966 703.846154 8.885181 708.538462 185.056883 713.230769 261.653275 717.923077 361.228585"/></g><g class="series serie-1 color-1"><path class="line reactive nofill" d="M14.076923 453.144256 L18.769231 384.207503 23.461538 345.909307 28.153846 265.483095 32.846154 93.141213 37.538462 213.780530 42.230769 144.843777 46.923077 102.715762 51.615385 56.757927 56.307692 33.779009 61.000000 134.005388 65.692308 88.047553 70.384615 66.332476 75.076923 266.593743 79.769231 269.312915 84.461538 263.108607 89.153846 289.227977 93.846154 284.249211 98.538462 265.483095 103.230769 265.827779 107.923077 271.534210 112.615385 278.427885 117.307692 274.329978 122.000000 281.606636 126.692308 287.198172 131.384615 293.976953 136.076923 289.917344 140.769231 298.036562 145.461538 285.704543 150.153846 283.368353 154.846154 277.202343 159.538462 275.708713 164.230769 289.227977 168.923077 281.376846 173.615385 301.100417 178.307692 296.121652 183.000000 303.474906 187.692308 300.257857 192.384615 293.823760 197.076923 297.959965 201.769231 294.551426 206.461538 287.044979 211.153846 288.193925 215.846154 284.785386 220.538462 279.844919 225.230769 278.351289 229.923077 305.696201 234.615385 303.781291 239.307692 301.406803 244.000000 302.900433 248.692308 314.964364 253.384615 313.011156 258.076923 311.938807 262.769231 313.547331 267.461538 312.934560 272.153846 310.981352 276.846154 308.415373 281.538462 306.691954 286.230769 305.160026 290.923077 303.398309 295.615385 304.125975 300.307692 303.245116 305.000000 305.696201 309.692308 304.125975 314.384615 308.453671 319.076923 312.168596 323.769231 309.755810 328.461538 307.151532 333.153846 305.696201 337.846154 304.087677 342.538462 303.398309 347.230769 307.611111 351.923077 306.155779 356.615385 304.547255 361.307692 308.415373 366.000000 308.262180 370.692308 308.377075 375.384615 310.406879 380.076923 308.989846 384.769231 312.245192 389.461538 310.904756 394.153846 308.223882 398.846154 310.943054 403.538462 310.866457 408.230769 310.445177 412.923077 309.679213 417.615385 308.836653 422.307692 308.108987 427.000000 307.955795 431.692308 307.840900 436.384615 306.040885 441.076923 303.589800 445.769231 301.406803 450.461538 299.951472 455.153846 301.981276 459.846154 299.491893 464.538462 299.032315 469.230769 295.968459 473.923077 298.074860 478.615385 300.755734 483.307692 298.725929 488.000000 299.376999 492.692308 298.572736 497.384615 297.462089 502.076923 301.483399 506.769231 298.074860 511.461538 298.802526 516.153846 305.772797 520.846154 306.538761 525.538462 306.768550 530.230769 306.691954 534.923077 306.040885 539.615385 304.853641 544.307692 304.164273 549.000000 303.972782 553.692308 304.049379 558.384615 306.998340 563.076923 306.845147 567.769231 307.457918 572.461538 311.517527 577.153846 310.368581 581.846154 310.981352 586.538462 312.092000 591.230769 311.326036 595.923077 311.249439 600.615385 309.755810 605.307692 308.798355 610.000000 307.994093 614.692308 307.381322 619.384615 305.389815 624.076923 307.457918 628.769231 306.002587 633.461538 308.147285 638.153846 306.653656 642.846154 305.696201 647.538462 303.742993 652.230769 304.777044 656.923077 305.466412 661.615385 304.432360 666.307692 304.317466 671.000000 303.130222 675.692308 303.972782 680.384615 304.432360 685.076923 304.087677 689.769231 305.198324 694.461538 307.036638 699.153846 307.611111 703.846154 307.687707 708.538462 307.419620 713.230769 306.730252 717.923077 305.811096"/></g><g class="series serie-2 color-2"><path class="line reactive nofill" d="M14.076923 305.006833 L18.769231 305.006833 23.461538 305.006833 28.153846 305.006833 32.846154 305.006833 37.538462 305.006833 42.230769 305.006833 46.923077 305.006833 51.615385 305.006833 56.307692 305.006833 61.000000 305.006833 65.692308 305.006833 70.384615 305.006833 75.076923 305.006833 79.769231 305.006833 84.461538 305.006833 89.153846 305.006833 93.846154 305.006833 98.538462 305.006833 103.230769 305.006833 107.923077 305.006833 112.615385 305.006833 117.307692 305.006833 122.000000 305.006833 126.692308 305.006833 131.384615 305.006833 136.076923 305.006833 140.769231 305.006833 145.461538 305.006833 150.153846 305.006833 154.846154 305.006833 159.538462 305.006833 164.230769 305.006833 168.923077 305.006833 173.615385 305.006833 178.307692 305.006833 183.000000 305.006833 187.692308 305.006833 192.384615 305.006833 197.076923 305.006833 201.769231 305.006833 206.461538 305.006833 211.153846 305.006833 215.846154 305.006833 220.538462 305.006833 225.230769 305.006833 229.923077 305.006833 234.615385 305.006833 239.307692 305.006833 244.000000 305.006833 248.692308 305.006833 253.384615 305.006833 258.076923 305.006833 262.769231 305.006833 267.461538 305.006833 272.153846 305.006833 276.846154 305.006833 281.538462 305.006833 286.230769 305.006833 290.923077 305.006833 295.615385 305.006833 300.307692 305.006833 305.000000 305.006833 309.692308 305.006833 314.384615 305.006833 319.076923 305.006833 323.769231 305.006833 328.461538 305.006833 333.153846 305.006833 337.846154 305.006833 342.538462 305.006833 347.230769 305.006833 351.923077 305.006833 356.615385 305.006833 361.307692 305.006833 366.000000 305.006833 370.692308 305.006833 375.384615 305.006833 380.076923 305.006833 384.769231 305.006833 389.461538 305.006833 394.153846 305.006833 398.846154 305.006833 403.538462 305.006833 408.230769 305.006833 412.923077 305.006833 417.615385 305.006833 422.307692 305.006833 427.000000 305.006833 431.692308 305.006833 436.384615 305.006833 441.076923 305.006833 445.769231 305.006833 450.461538 305.006833 455.153846 305.006833 459.846154 305.006833 464.538462 305.006833 469.230769 305.006833 473.923077 305.006833 478.615385 305.006833 483.307692 305.006833 488.000000 305.006833 492.692308 305.006833 497.384615 305.006833 502.076923 305.006833 506.769231 305.006833 511.461538 305.006833 516.153846 305.006833 520.846154 305.006833 525.538462 305.006833 530.230769 305.006833 534.923077 305.006833 539.615385 305.006833 544.307692 305.006833 549.000000 305.006833 553.692308 305.006833 558.384615 305.006833 563.076923 305.006833 567.769231 305.006833 572.461538 305.006833 577.153846 305.006833 581.846154 305.006833 586.538462 305.006833 591.230769 305.006833 595.923077 305.006833 600.615385 305.006833 605.307692 305.006833 610.000000 305.006833 614.692308 305.006833 619.384615 305.006833 624.076923 305.006833 628.769231 305.006833 633.461538 305.006833 638.153846 305.006833 642.846154 305.006833 647.538462 305.006833 652.230769 305.006833 656.923077 305.006833 661.615385 305.006833 666.307692 305.006833 671.000000 305.006833 675.692308 305.006833 680.384615 305.006833 685.076923 305.006833 689.769231 305.006833 694.461538 305.006833 699.153846 305.006833 703.846154 305.006833 708.538462 305.006833 713.230769 305.006833 717.923077 305.006833"/></g></g><g class="titles"><text class="title plot_title" x="400.0" y="26">PD Collingwood: Future and Past Averages in ODIs</text></g><g class="plot overlay" transform="translate(48, 46)"><g class="series serie-0 color-0"><g class="dots"><desc class="label">111 wickets in 151 innings (864.2 overs)</desc><circle class="dot reactive tooltip-trigger" cx="14.076923076923077" cy="305.00683341106827" r="2.5"/><desc class="value">38.68</desc><desc class="x top">14.076923076923077</desc><desc class="y top">305.00683341106827</desc><desc class="x_label">2001</desc></g><g class="dots"><desc class="label">109 wickets in 145 innings (836.1 overs)</desc><circle class="dot reactive tooltip-trigger" cx="42.23076923076923" cy="307.9174963115255" r="2.5"/><desc class="value">37.92</desc><desc class="x top">42.23076923076923</desc><desc class="y top">307.9174963115255</desc><desc class="x_label">2002</desc></g><g class="dots"><desc class="label">98 wickets in 130 innings (766.1 overs)</desc><circle class="dot reactive tooltip-trigger" cx="112.61538461538461" cy="308.49196925240517" r="2.5"/><desc class="value">37.77</desc><desc class="x top">112.61538461538461</desc><desc class="y top">308.49196925240517</desc><desc class="x_label">2003</desc></g><g class="dots"><desc class="label">95 wickets in 126 innings (753.1 overs)</desc><circle class="dot reactive tooltip-trigger" cx="131.38461538461536" cy="306.84514682188336" r="2.5"/><desc class="value">38.2</desc><desc class="x top">131.38461538461536</desc><desc class="y top">306.84514682188336</desc><desc class="x_label">2004</desc></g><g class="dots"><desc class="label">86 wickets in 115 innings (685.5 overs)</desc><circle class="dot reactive tooltip-trigger" cx="183.0" cy="305.42811356771335" r="2.5"/><desc class="value">38.57</desc><desc class="x top">183.0</desc><desc class="y top">305.42811356771335</desc><desc class="x_label">2005</desc></g><g class="dots"><desc class="label">69 wickets in 94 innings (548.5 overs)</desc><circle class="dot reactive tooltip-trigger" cx="281.53846153846155" cy="303.93448392142614" r="2.5"/><desc class="value">38.96</desc><desc class="x top">281.53846153846155</desc><desc class="y top">303.93448392142614</desc><desc class="x_label">2006</desc></g><g class="dots"><desc class="label">61 wickets in 79 innings (482.5 overs)</desc><circle class="dot reactive tooltip-trigger" cx="351.9230769230769" cy="304.0493785096021" r="2.5"/><desc class="value">38.93</desc><desc class="x top">351.9230769230769</desc><desc class="y top">304.0493785096021</desc><desc class="x_label">2007</desc></g><g class="dots"><desc class="label">39 wickets in 50 innings (289.0 overs)</desc><circle class="dot reactive tooltip-trigger" cx="488.0" cy="315.38564454296176" r="2.5"/><desc class="value">35.97</desc><desc class="x left top">488.0</desc><desc class="y left top">315.38564454296176</desc><desc class="x_label">2008</desc></g><g class="dots"><desc class="label">27 wickets in 37 innings (213.0 overs)</desc><circle class="dot reactive tooltip-trigger" cx="549.0" cy="308.185583683936" r="2.5"/><desc class="value">37.85</desc><desc class="x left top">549.0</desc><desc class="y left top">308.185583683936</desc><desc class="x_label">2009</desc></g><g class="dots"><desc class="label">10 wickets in 19 innings (105.0 overs)</desc><circle class="dot reactive tooltip-trigger" cx="633.4615384615385" cy="273.1427342902736" r="2.5"/><desc class="value">47</desc><desc class="x left top">633.4615384615385</desc><desc class="y left top">273.1427342902736</desc><desc class="x_label">2010</desc></g><g class="dots"><desc class="label">5 wickets in 7 innings (48.0 overs)</desc><circle class="dot reactive tooltip-trigger" cx="689.7692307692307" cy="300.7174354524998" r="2.5"/><desc class="value">39.8</desc><desc class="x left top">689.7692307692307</desc><desc class="y left top">300.7174354524998</desc><desc class="x_label">2011</desc></g></g><g class="series serie-1 color-1"><g class="dots"><desc class="label">0 wickets over 0 innings</desc><circle class="dot reactive tooltip-trigger" cx="14.076923076923077" cy="453.1442557659166" r="2.5"/><desc class="value">0</desc><desc class="x top">14.076923076923077</desc><desc class="y top">453.1442557659166</desc><desc class="x_label">2001</desc></g><g class="dots"><desc class="label">2 wickets in 6 innings (28.1 overs)</desc><circle class="dot reactive tooltip-trigger" cx="42.23076923076923" cy="144.84377749380462" r="2.5"/><desc class="value">80.5</desc><desc class="x ">42.23076923076923</desc><desc class="y ">144.84377749380462</desc><desc class="x_label">2002</desc></g><g class="dots"><desc class="label">13 wickets in 21 innings (98.1 overs)</desc><circle class="dot reactive tooltip-trigger" cx="112.61538461538461" cy="278.42788534636696" r="2.5"/><desc class="value">45.62</desc><desc class="x top">112.61538461538461</desc><desc class="y top">278.42788534636696</desc><desc class="x_label">2003</desc></g><g class="dots"><desc class="label">16 wickets in 25 innings (111.1 overs)</desc><circle class="dot reactive tooltip-trigger" cx="131.38461538461536" cy="293.9769529461778" r="2.5"/><desc class="value">41.56</desc><desc class="x top">131.38461538461536</desc><desc class="y top">293.9769529461778</desc><desc class="x_label">2004</desc></g><g class="dots"><desc class="label">25 wickets in 36 innings (178.3 overs)</desc><circle class="dot reactive tooltip-trigger" cx="183.0" cy="303.4749055687224" r="2.5"/><desc class="value">39.08</desc><desc class="x top">183.0</desc><desc class="y top">303.4749055687224</desc><desc class="x_label">2005</desc></g><g class="dots"><desc class="label">42 wickets in 57 innings (315.3 overs)</desc><circle class="dot reactive tooltip-trigger" cx="281.53846153846155" cy="306.69195403764877" r="2.5"/><desc class="value">38.24</desc><desc class="x top">281.53846153846155</desc><desc class="y top">306.69195403764877</desc><desc class="x_label">2006</desc></g><g class="dots"><desc class="label">50 wickets in 72 innings (381.3 overs)</desc><circle class="dot reactive tooltip-trigger" cx="351.9230769230769" cy="306.1557792928277" r="2.5"/><desc class="value">38.38</desc><desc class="x top">351.9230769230769</desc><desc class="y top">306.1557792928277</desc><desc class="x_label">2007</desc></g><g class="dots"><desc class="label">72 wickets in 101 innings (575.2 overs)</desc><circle class="dot reactive tooltip-trigger" cx="488.0" cy="299.3769985904471" r="2.5"/><desc class="value">40.15</desc><desc class="x left top">488.0</desc><desc class="y left top">299.3769985904471</desc><desc class="x_label">2008</desc></g><g class="dots"><desc class="label">84 wickets in 114 innings (651.2 overs)</desc><circle class="dot reactive tooltip-trigger" cx="549.0" cy="303.97278211748477" r="2.5"/><desc class="value">38.95</desc><desc class="x left top">549.0</desc><desc class="y left top">303.97278211748477</desc><desc class="x_label">2009</desc></g><g class="dots"><desc class="label">101 wickets in 132 innings (759.2 overs)</desc><circle class="dot reactive tooltip-trigger" cx="633.4615384615385" cy="308.14728548787735" r="2.5"/><desc class="value">37.86</desc><desc class="x left top">633.4615384615385</desc><desc class="y left top">308.14728548787735</desc><desc class="x_label">2010</desc></g><g class="dots"><desc class="label">106 wickets in 144 innings (816.2 overs)</desc><circle class="dot reactive tooltip-trigger" cx="689.7692307692307" cy="305.1983243913615" r="2.5"/><desc class="value">38.63</desc><desc class="x left top">689.7692307692307</desc><desc class="y left top">305.1983243913615</desc><desc class="x_label">2011</desc></g></g><g class="series serie-2 color-2"/></g><g class="plot text-overlay" transform="translate(48, 46)"><g class="series serie-0 color-0"/><g class="series serie-1 color-1"/><g class="series serie-2 color-2"/></g><g class="plot tooltip-overlay" transform="translate(48, 46)"><g class="tooltip" style="opacity: 0" transform="translate(0 0)"><rect class="tooltip-box" height="0" rx="10" ry="10" width="0"/><g class="text"/></g></g><g class="legends" transform="translate(58, 545)"><g class="legend reactive activate-serie" id="activate-serie-0"><rect class="color-0 reactive" height="12" width="12" x="0.0" y="1.0"/><text x="17.0" y="11.2">Future Average</text></g><g class="legend reactive activate-serie" id="activate-serie-1"><rect class="color-1 reactive" height="12" width="12" x="366.0" y="1.0"/><text x="383.0" y="11.2">Past Average</text></g><g class="legend reactive activate-serie" id="activate-serie-2"><rect class="color-2 reactive" height="12" width="12" x="0.0" y="22.0"/><text x="17.0" y="32.2">Career Average</text></g></g></g></svg>