<?xml version='1.0' encoding='utf-8'?>
<svg xmlns:xlink="http://www.w3.org/1999/xlink" xmlns="http://www.w3.org/2000/svg" id="chart-dd878012-6048-4e29-b82b-11d3472f5662" class="pygal-chart" viewBox="0 0 800 600"><!--Generated with pygal 2.4.0 (lxml) ©Kozea 2012-2016 on 2019-08-04--><!--http://pygal.org--><!--http://github.com/Kozea/pygal--><defs><style type="text/css">#chart-dd878012-6048-4e29-b82b-11d3472f5662{-webkit-user-select:none;-webkit-font-smoothing:antialiased;font-family:Consolas,"Liberation Mono",Menlo,Courier,monospace}#chart-dd878012-6048-4e29-b82b-11d3472f5662 .title{font-family:Consolas,"Liberation Mono",Menlo,Courier,monospace;font-size:16px}#chart-dd878012-6048-4e29-b82b-11d3472f5662 .legends .legend text{font-family:Consolas,"Liberation Mono",Menlo,Courier,monospace;font-size:14px}#chart-dd878012-6048-4e29-b82b-11d3472f5662 .axis text{font-family:Consolas,"Liberation Mono",Menlo,Courier,monospace;font-size:10px}#chart-dd878012-6048-4e29-b82b-11d3472f5662 .axis text.major{font-family:Consolas,"Liberation Mono",Menlo,Courier,monospace;font-size:10px}#chart-dd878012-6048-4e29-b82b-11d3472f5662 .text-overlay text.value{font-family:Consolas,"Liberation Mono",Menlo,Courier,monospace;font-size:16px}#chart-dd878012-6048-4e29-b82b-11d3472f5662 .text-overlay text.label{font-family:Consolas,"Liberation Mono",Menlo,Courier,monospace;font-size:10px}#chart-dd878012-6048-4e29-b82b-11d3472f5662 .tooltip{font-family:Consolas,"Liberation Mono",Menlo,Courier,monospace;font-size:14px}#chart-dd878012-6048-4e29-b82b-11d3472f5662 text.no_data{font-family:Consolas,"Liberation Mono",Menlo,Courier,monospace;font-size:64px}
#chart-dd878012-6048-4e29-b82b-11d3472f5662{background-color:rgba(249,249,249,1)}#chart-dd878012-6048-4e29-b82b-11d3472f5662 path,#chart-dd878012-6048-4e29-b82b-11d3472f5662 line,#chart-dd878012-6048-4e29-b82b-11d3472f5662 rect,#chart-dd878012-6048-4e29-b82b-11d3472f5662 circle{-webkit-transition:150ms;-moz-transition:150ms;transition:150ms}#chart-dd878012-6048-4e29-b82b-11d3472f5662 .graph &gt; .background{fill:rgba(249,249,249,1)}#chart-dd878012-6048-4e29-b82b-11d3472f5662 .plot &gt; .background{fill:rgba(255,255,255,1)}#chart-dd878012-6048-4e29-b82b-11d3472f5662 .graph{fill:rgba(0,0,0,.87)}#chart-dd878012-6048-4e29-b82b-11d3472f5662 text.no_data{fill:rgba(0,0,0,1)}#chart-dd878012-6048-4e29-b82b-11d3472f5662 .title{fill:rgba(0,0,0,1)}#chart-dd878012-6048-4e29-b82b-11d3472f5662 .legends .legend text{fill:rgba(0,0,0,.87)}#chart-dd878012-6048-4e29-b82b-11d3472f5662 .legends .legend:hover text{fill:rgba(0,0,0,1)}#chart-dd878012-6048-4e29-b82b-11d3472f5662 .axis .line{stroke:rgba(0,0,0,1)}#chart-dd878012-6048-4e29-b82b-11d3472f5662 .axis .guide.line{stroke:rgba(0,0,0,.54)}#chart-dd878012-6048-4e29-b82b-11d3472f5662 .axis .major.line{stroke:rgba(0,0,0,.87)}#chart-dd878012-6048-4e29-b82b-11d3472f5662 .axis text.major{fill:rgba(0,0,0,1)}#chart-dd878012-6048-4e29-b82b-11d3472f5662 .axis.y .guides:hover .guide.line,#chart-dd878012-6048-4e29-b82b-11d3472f5662 .line-graph .axis.x .guides:hover .guide.line,#chart-dd878012-6048-4e29-b82b-11d3472f5662 .stackedline-graph .axis.x .guides:hover .guide.line,#chart-dd878012-6048-4e29-b82b-11d3472f5662 .xy-graph .axis.x .guides:hover .guide.line{stroke:rgba(0,0,0,1)}#chart-dd878012-6048-4e29-b82b-11d3472f5662 .axis .guides:hover text{fill:rgba(0,0,0,1)}#chart-dd878012-6048-4e29-b82b-11d3472f5662 .reactive{fill-opacity:.7;stroke-opacity:.8}#chart-dd878012-6048-4e29-b82b-11d3472f5662 .ci{stroke:rgba(0,0,0,.87)}#chart-dd878012-6048-4e29-b82b-11d3472f5662 .reactive.active,#chart-dd878012-6048-4e29-b82b-11d3472f5662 .active .reactive{fill-opacity:.8;stroke-opacity:.9;stroke-width:4}#chart-dd878012-6048-4e29-b82b-11d3472f5662 .ci .reactive.active{stroke-width:1.5}#chart-dd878012-6048-4e29-b82b-11d3472f5662 .series text{fill:rgba(0,0,0,1)}#chart-dd878012-6048-4e29-b82b-11d3472f5662 .tooltip rect{fill:rgba(255,255,255,1);stroke:rgba(0,0,0,1);-webkit-transition:opacity 150ms;-moz-transition:opacity 150ms;transition:opacity 150ms}#chart-dd878012-6048-4e29-b82b-11d3472f5662 .tooltip .label{fill:rgba(0,0,0,.87)}#chart-dd878012-6048-4e29-b82b-11d3472f5662 .tooltip .label{fill:rgba(0,0,0,.87)}#chart-dd878012-6048-4e29-b82b-11d3472f5662 .tooltip .legend{font-size:.8em;fill:rgba(0,0,0,.54)}#chart-dd878012-6048-4e29-b82b-11d3472f5662 .tooltip .x_label{font-size:.6em;fill:rgba(0,0,0,1)}#chart-dd878012-6048-4e29-b82b-11d3472f5662 .tooltip .xlink{font-size:.5em;text-decoration:underline}#chart-dd878012-6048-4e29-b82b-11d3472f5662 .tooltip .value{font-size:1.5em}#chart-dd878012-6048-4e29-b82b-11d3472f5662 .bound{font-size:.5em}#chart-dd878012-6048-4e29-b82b-11d3472f5662 .max-value{font-size:.75em;fill:rgba(0,0,0,.54)}#chart-dd878012-6048-4e29-b82b-11d3472f5662 .map-element{fill:rgba(255,255,255,1);stroke:rgba(0,0,0,.54) !important}#chart-dd878012-6048-4e29-b82b-11d3472f5662 .map-element .reactive{fill-opacity:inherit;stroke-opacity:inherit}#chart-dd878012-6048-4e29-b82b-11d3472f5662 .color-0,#chart-dd878012-6048-4e29-b82b-11d3472f5662 .color-0 a:visited{stroke:red;fill:red}#chart-dd878012-6048-4e29-b82b-11d3472f5662 .color-1,#chart-dd878012-6048-4e29-b82b-11d3472f5662 .color-1 a:visited{stroke:blue;fill:blue}#chart-dd878012-6048-4e29-b82b-11d3472f5662 .color-2,#chart-dd878012-6048-4e29-b82b-11d3472f5662 .color-2 a:visited{stroke:green;fill:green}#chart-dd878012-6048-4e29-b82b-11d3472f5662 .text-overlay .color-0 text{fill:white}#chart-dd878012-6048-4e29-b82b-11d3472f5662 .text-overlay .color-1 text{fill:white}#chart-dd878012-6048-4e29-b82b-11d3472f5662 .text-overlay .color-2 text{fill:white}
#chart-dd878012-6048-4e29-b82b-11d3472f5662 text.no_data{text-anchor:middle}#chart-dd878012-6048-4e29-b82b-11d3472f5662 .guide.line{fill:none}#chart-dd878012-6048-4e29-b82b-11d3472f5662 .centered{text-anchor:middle}#chart-dd878012-6048-4e29-b82b-11d3472f5662 .title{text-anchor:middle}#chart-dd878012-6048-4e29-b82b-11d3472f5662 .legends .legend text{fill-opacity:1}#chart-dd878012-6048-4e29-b82b-11d3472f5662 .axis.x text{text-anchor:middle}#chart-dd878012-6048-4e29-b82b-11d3472f5662 .axis.x:not(.web) text[transform]{text-anchor:start}#chart-dd878012-6048-4e29-b82b-11d3472f5662 .axis.x:not(.web) text[transform].backwards{text-anchor:end}#chart-dd878012-6048-4e29-b82b-11d3472f5662 .axis.y text{text-anchor:end}#chart-dd878012-6048-4e29-b82b-11d3472f5662 .axis.y text[transform].backwards{text-anchor:start}#chart-dd878012-6048-4e29-b82b-11d3472f5662 .axis.y2 text{text-anchor:start}#chart-dd878012-6048-4e29-b82b-11d3472f5662 .axis.y2 text[transform].backwards{text-anchor:end}#chart-dd878012-6048-4e29-b82b-11d3472f5662 .axis .guide.line{stroke-dasharray:4,4}#chart-dd878012-6048-4e29-b82b-11d3472f5662 .axis .major.guide.line{stroke-dasharray:6,6}#chart-dd878012-6048-4e29-b82b-11d3472f5662 .horizontal .axis.y .guide.line,#chart-dd878012-6048-4e29-b82b-11d3472f5662 .horizontal .axis.y2 .guide.line,#chart-dd878012-6048-4e29-b82b-11d3472f5662 .vertical .axis.x .guide.line{opacity:0}#chart-dd878012-6048-4e29-b82b-11d3472f5662 .horizontal .axis.always_show .guide.line,#chart-dd878012-6048-4e29-b82b-11d3472f5662 .vertical .axis.always_show .guide.line{opacity:1 !important}#chart-dd878012-6048-4e29-b82b-11d3472f5662 .axis.y .guides:hover .guide.line,#chart-dd878012-6048-4e29-b82b-11d3472f5662 .axis.y2 .guides:hover .guide.line,#chart-dd878012-6048-4e29-b82b-11d3472f5662 .axis.x .guides:hover .guide.line{opacity:1}#chart-dd878012-6048-4e29-b82b-11d3472f5662 .axis .guides:hover text{opacity:1}#chart-dd878012-6048-4e29-b82b-11d3472f5662 .nofill{fill:none}#chart-dd878012-6048-4e29-b82b-11d3472f5662 .subtle-fill{fill-opacity:.2}#chart-dd878012-6048-4e29-b82b-11d3472f5662 .dot{stroke-width:1px;fill-opacity:1}#chart-dd878012-6048-4e29-b82b-11d3472f5662 .dot.active{stroke-width:5px}#chart-dd878012-6048-4e29-b82b-11d3472f5662 .dot.negative{fill:transparent}#chart-dd878012-6048-4e29-b82b-11d3472f5662 text,#chart-dd878012-6048-4e29-b82b-11d3472f5662 tspan{stroke:none !important}#chart-dd878012-6048-4e29-b82b-11d3472f5662 .series text.active{opacity:1}#chart-dd878012-6048-4e29-b82b-11d3472f5662 .tooltip rect{fill-opacity:.95;stroke-width:.5}#chart-dd878012-6048-4e29-b82b-11d3472f5662 .tooltip text{fill-opacity:1}#chart-dd878012-6048-4e29-b82b-11d3472f5662 .showable{visibility:hidden}#chart-dd878012-6048-4e29-b82b-11d3472f5662 .showable.shown{visibility:visible}#chart-dd878012-6048-4e29-b82b-11d3472f5662 .gauge-background{fill:rgba(229,229,229,1);stroke:none}#chart-dd878012-6048-4e29-b82b-11d3472f5662 .bg-lines{stroke:rgba(249,249,249,1);stroke-width:2px}</style><script type="text/javascript">window.pygal = window.pygal || {};window.pygal.config = window.pygal.config || {};window.pygal.config['dd878012-6048-4e29-b82b-11d3472f5662'] = {"allow_interruptions": false, "box_mode": "extremes", "classes": ["pygal-chart"], "css": ["file://style.css", "file://graph.css"], "defs": [], "disable_xml_declaration": false, "dots_size": 2.5, "dynamic_print_values": false, "explicit_size": false, "fill": false, "force_uri_protocol": "https", "formatter": null, "half_pie": false, "height": 600, "include_x_axis": false, "inner_radius": 0, "interpolate": null, "interpolation_parameters": {}, "interpolation_precision": 250, "inverse_y_axis": false, "js": ["//kozea.github.io/pygal.js/2.0.x/pygal-tooltips.min.js"], "legend_at_bottom": true, "legend_at_bottom_columns": null, "legend_box_size": 12, "logarithmic": false, "margin": 20, "margin_bottom": null, "margin_left": null, "margin_right": null, "margin_top": null, "max_scale": 16, "min_scale": 4, "missing_value_fill_truncation": "x", "no_data_text": "No data", "no_prefix": false, "order_min": null, "pretty_print": false, "print_labels": false, "print_values": false, "print_values_position": "center", "print_zeroes": true, "range": null, "rounded_bars": null, "secondary_range": null, "show_dots": true, "show_legend": true, "show_minor_x_labels": false, "show_minor_y_labels": true, "show_only_major_dots": false, "show_x_guides": false, "show_x_labels": true, "show_y_guides": true, "show_y_labels": true, "spacing": 10, "stack_from_top": false, "strict": false, "stroke": true, "stroke_style": null, "style": {"background": "rgba(249, 249, 249, 1)", "ci_colors": [], "colors": ["red", "blue", "green", "#a3a3a3"], "font_family": "Consolas, \"Liberation Mono\", Menlo, Courier, monospace", "foreground": "rgba(0, 0, 0, .87)", "foreground_strong": "rgba(0, 0, 0, 1)", "foreground_subtle": "rgba(0, 0, 0, .54)", "guide_stroke_dasharray": "4,4", "label_font_family": "Consolas, \"Liberation Mono\", Menlo, Courier, monospace", "label_font_size": 10, "legend_font_family": "Consolas, \"Liberation Mono\", Menlo, Courier, monospace", "legend_font_size": 14, "major_guide_stroke_dasharray": "6,6", "major_label_font_family": "Consolas, \"Liberation Mono\", Menlo, Courier, monospace", "major_label_font_size": 10, "no_data_font_family": "Consolas, \"Liberation Mono\", Menlo, Courier, monospace", "no_data_font_size": 64, "opacity": ".7", "opacity_hover": ".8", "plot_background": "rgba(255, 255, 255, 1)", "stroke_opacity": ".8", "stroke_opacity_hover": ".9", "title_font_family": "Consolas, \"Liberation Mono\", Menlo, Courier, monospace", "title_font_size": 16, "tooltip_font_family": "Consolas, \"Liberation Mono\", Menlo, Courier, monospace", "tooltip_font_size": 14, "transition": "150ms", "value_background": "rgba(229, 229, 229, 1)", "value_colors": [], "value_font_family": "Consolas, \"Liberation Mono\", Menlo, Courier, monospace", "value_font_size": 16, "value_label_font_family": "Consolas, \"Liberation Mono\", Menlo, Courier, monospace", "value_label_font_size": 10}, "title": "PR Reiffel: Future and Past Averages in ODIs", "tooltip_border_radius": 10, "tooltip_fancy_mode": true, "truncate_label": null, "truncate_legend": null, "width": 800, "x_label_rotation": 45, "x_labels": ["1992", "0", "0", "0", "0", "0", "1993", "0", "0", "0", "0", "0", "0", "0", "0", "0", "0", "0", "0", "0", "0", "0", "1994", "0", "0", "0", "0", "0", "0", "0", "0", "0", "0", "0", "0", "0", "0", "0", "0", "0", "1995", "0", "0", "0", "0", "0", "0", "0", "1996", "0", "0", "0", "0", "0", "0", "0", "0", "0", "0", "0", "0", "0", "0", "0", "0", "0", "0", "0", "0", "0", "1997", "0", "0", "0", "0", "0", "0", "1998", "0", "0", "0", "0", "0", "1999", "0", "0", "0", "0", "0", "0", "0", "0"], "x_labels_major": ["1992", "1993", "1994", "1995", "1996", "1997", "1998", "1999"], "x_labels_major_count": null, "x_labels_major_every": null, "x_title": null, "xrange": null, "y_label_rotation": 0, "y_labels": null, "y_labels_major": null, "y_labels_major_count": null, "y_labels_major_every": null, "y_title": null, "zero": 60, "legends": ["Future Average", "Past Average", "Career Average"]}</script><script type="text/javascript" xlink:href="https://kozea.github.io/pygal.js/2.0.x/pygal-tooltips.min.js"/></defs><title>PR Reiffel: Future and Past Averages in ODIs</title><g class="graph line-graph vertical"><rect class="background" height="600" width="800" x="0" y="0"/><g class="plot" transform="translate(42, 46)"><rect class="background" height="462.02943725152284" width="738.0" x="0" y="0"/><g class="axis y always_show"><g class="guides"><path class="axis major line" d="M0.000000 453.144256 h738.000000"/><text class="major" x="-5" y="456.6442557659166">0</text><title>0</title></g><g class="guides"><path class="guide line" d="M0.000000 364.007202 h738.000000"/><text class="" x="-5" y="367.5072023388881">10</text><title>10</title></g><g class="guides"><path class="guide line" d="M0.000000 274.870149 h738.000000"/><text class="" x="-5" y="278.3701489118595">20</text><title>20</title></g><g class="guides"><path class="guide line" d="M0.000000 185.733095 h738.000000"/><text class="" x="-5" y="189.23309548483093">30</text><title>30</title></g><g class="guides"><path class="guide line" d="M0.000000 96.596042 h738.000000"/><text class="" x="-5" y="100.09604205780232">40</text><title>40</title></g></g><g class="axis x"><g class="guides"><path class="major line" d="M14.192308 0.000000 v462.029437"/><text class="major" x="14.192307692307692" y="477.02943725152284" transform="rotate(45 14.192308 477.029437)">1992</text></g><g class="guides"><path class="major guide line" d="M60.980135 0.000000 v462.029437"/><text class="major" x="60.98013524936602" y="477.02943725152284" transform="rotate(45 60.980135 477.029437)">1993</text></g><g class="guides"><path class="major guide line" d="M185.747675 0.000000 v462.029437"/><text class="major" x="185.74767540152155" y="477.02943725152284" transform="rotate(45 185.747675 477.029437)">1994</text></g><g class="guides"><path class="major guide line" d="M326.111158 0.000000 v462.029437"/><text class="major" x="326.1111580726965" y="477.02943725152284" transform="rotate(45 326.111158 477.029437)">1995</text></g><g class="guides"><path class="major guide line" d="M388.494928 0.000000 v462.029437"/><text class="major" x="388.4949281487743" y="477.02943725152284" transform="rotate(45 388.494928 477.029437)">1996</text></g><g class="guides"><path class="major guide line" d="M560.050296 0.000000 v462.029437"/><text class="major" x="560.0502958579882" y="477.02943725152284" transform="rotate(45 560.050296 477.029437)">1997</text></g><g class="guides"><path class="major guide line" d="M614.636095 0.000000 v462.029437"/><text class="major" x="614.6360946745561" y="477.02943725152284" transform="rotate(45 614.636095 477.029437)">1998</text></g><g class="guides"><path class="major guide line" d="M661.423922 0.000000 v462.029437"/><text class="major" x="661.4239222316146" y="477.02943725152284" transform="rotate(45 661.423922 477.029437)">1999</text></g></g><g class="series serie-0 color-0"><path class="line reactive nofill" d="M14.192308 192.774923 L21.990279 190.100811 29.788250 188.585481 37.586221 181.900202 45.384193 181.811065 53.182164 185.019999 60.980135 186.357055 68.778107 181.008832 76.576078 178.780405 84.374049 183.772080 92.172020 186.713603 99.969992 185.822233 107.767963 181.543654 115.565934 172.897360 123.363905 171.827715 131.161877 169.955837 138.959848 175.214923 146.757819 178.691268 154.555790 182.969847 162.353762 185.109136 170.151733 183.950354 177.949704 171.292893 185.747675 176.462842 193.545647 175.660608 201.343618 175.838883 209.141589 175.125786 216.939560 167.638274 224.737532 170.579796 232.535503 173.521319 240.333474 173.610456 248.131445 174.234416 255.929417 180.741420 263.727388 186.000507 271.525359 182.078476 279.323331 179.671776 287.121302 175.660608 294.919273 173.788730 302.717244 169.510152 310.515216 164.072792 318.313187 169.421015 326.111158 174.323553 333.909129 158.189746 341.707101 146.958477 349.505072 136.975127 357.303043 139.649239 365.101014 125.119899 372.898986 124.941625 380.696957 132.429138 388.494928 127.348325 396.292899 99.894113 404.090871 102.389951 411.888842 104.261829 419.686813 100.696347 427.484784 99.715839 435.282756 100.874621 443.080727 96.061220 450.878698 77.609850 458.676669 78.501220 466.474641 77.164164 474.272612 81.353606 482.070583 83.760306 489.868555 62.367414 497.666526 42.757262 505.464497 59.425891 513.262468 72.529038 521.060440 8.885181 528.858411 32.773912 536.656382 57.197464 544.454353 69.409241 552.252325 37.854724 560.050296 55.682135 567.848267 65.130662 575.646238 65.398073 583.444210 83.760306 591.242181 109.966600 599.040152 135.638071 606.838123 149.543452 614.636095 140.005787 622.434066 163.181421 630.232037 179.760913 638.030008 198.212283 645.827980 208.908729 653.625951 171.649441 661.423922 117.364976 669.221893 113.353808 677.019865 132.250863 684.817836 150.078274 692.615807 172.362537 700.413779 216.931064 708.211750 144.106092 716.009721 199.103653 723.807692 194.646801"/></g><g class="series serie-1 color-1"><path class="line reactive nofill" d="M14.192308 453.144256 L21.990279 332.809234 29.788250 337.266086 37.586221 374.436238 45.384193 348.764766 53.182164 302.859184 60.980135 271.482941 68.778107 294.302027 76.576078 293.410656 84.374049 257.042738 92.172020 236.452079 99.969992 238.591368 107.767963 255.973094 115.565934 278.435631 123.363905 277.811672 131.161877 275.226697 138.959848 256.240505 146.757819 241.087206 154.555790 224.596851 162.353762 217.822435 170.151733 220.050861 177.949704 247.237662 185.747675 234.134515 193.545647 234.312790 201.343618 231.995226 209.141589 231.906089 216.939560 241.711165 224.737532 236.006394 232.535503 230.301622 240.333474 228.608018 248.131445 226.112181 255.929417 214.346090 263.727388 204.986699 271.525359 210.513196 279.323331 213.543856 287.121302 217.822435 294.919273 219.605176 302.717244 223.170658 310.515216 227.538374 318.313187 221.031369 326.111158 215.059186 333.909129 228.786292 341.707101 235.293297 349.505072 240.819795 357.303043 236.719490 365.101014 242.691673 372.898986 240.908932 380.696957 235.649845 388.494928 235.738982 396.292899 244.741825 404.090871 241.265480 411.888842 238.323957 419.686813 238.234820 427.484784 236.719490 435.282756 234.312790 443.080727 234.669338 450.878698 238.234820 458.676669 235.828120 466.474641 234.312790 474.272612 232.797460 482.070583 230.034211 489.868555 233.064871 497.666526 234.401927 505.464497 229.766800 513.262468 226.112181 521.060440 232.975734 528.858411 227.716648 536.656382 222.368424 544.454353 219.783450 552.252325 222.368424 560.050296 218.981216 567.848267 217.198475 575.646238 215.415734 583.444210 212.206800 591.242181 207.482537 599.040152 202.936547 606.838123 200.529846 614.636095 201.510354 622.434066 197.677461 630.232037 194.914212 638.030008 191.883552 645.827980 190.100811 653.625951 195.538171 661.423922 199.816750 669.221893 199.281928 677.019865 197.053501 684.817836 195.805583 692.615807 194.022841 700.413779 191.348730 708.211750 194.201116 716.009721 192.685786 723.807692 192.774923"/></g><g class="series serie-2 color-2"><path class="line reactive nofill" d="M14.192308 192.774923 L21.990279 192.774923 29.788250 192.774923 37.586221 192.774923 45.384193 192.774923 53.182164 192.774923 60.980135 192.774923 68.778107 192.774923 76.576078 192.774923 84.374049 192.774923 92.172020 192.774923 99.969992 192.774923 107.767963 192.774923 115.565934 192.774923 123.363905 192.774923 131.161877 192.774923 138.959848 192.774923 146.757819 192.774923 154.555790 192.774923 162.353762 192.774923 170.151733 192.774923 177.949704 192.774923 185.747675 192.774923 193.545647 192.774923 201.343618 192.774923 209.141589 192.774923 216.939560 192.774923 224.737532 192.774923 232.535503 192.774923 240.333474 192.774923 248.131445 192.774923 255.929417 192.774923 263.727388 192.774923 271.525359 192.774923 279.323331 192.774923 287.121302 192.774923 294.919273 192.774923 302.717244 192.774923 310.515216 192.774923 318.313187 192.774923 326.111158 192.774923 333.909129 192.774923 341.707101 192.774923 349.505072 192.774923 357.303043 192.774923 365.101014 192.774923 372.898986 192.774923 380.696957 192.774923 388.494928 192.774923 396.292899 192.774923 404.090871 192.774923 411.888842 192.774923 419.686813 192.774923 427.484784 192.774923 435.282756 192.774923 443.080727 192.774923 450.878698 192.774923 458.676669 192.774923 466.474641 192.774923 474.272612 192.774923 482.070583 192.774923 489.868555 192.774923 497.666526 192.774923 505.464497 192.774923 513.262468 192.774923 521.060440 192.774923 528.858411 192.774923 536.656382 192.774923 544.454353 192.774923 552.252325 192.774923 560.050296 192.774923 567.848267 192.774923 575.646238 192.774923 583.444210 192.774923 591.242181 192.774923 599.040152 192.774923 606.838123 192.774923 614.636095 192.774923 622.434066 192.774923 630.232037 192.774923 638.030008 192.774923 645.827980 192.774923 653.625951 192.774923 661.423922 192.774923 669.221893 192.774923 677.019865 192.774923 684.817836 192.774923 692.615807 192.774923 700.413779 192.774923 708.211750 192.774923 716.009721 192.774923 723.807692 192.774923"/></g></g><g class="titles"><text class="title plot_title" x="400.0" y="26">PR Reiffel: Future and Past Averages in ODIs</text></g><g class="plot overlay" transform="translate(42, 46)"><g class="series serie-0 color-0"><g class="dots"><desc class="label">106 wickets in 92 innings (788.4 overs)</desc><circle class="dot reactive tooltip-trigger" cx="14.192307692307692" cy="192.77492270556615" r="2.5"/><desc class="value">29.21</desc><desc class="x ">14.192307692307692</desc><desc class="y ">192.77492270556615</desc><desc class="x_label">1992</desc></g><g class="dots"><desc class="label">98 wickets in 86 innings (739.4 overs)</desc><circle class="dot reactive tooltip-trigger" cx="60.98013524936602" cy="186.3570548588201" r="2.5"/><desc class="value">29.93</desc><desc class="x ">60.98013524936602</desc><desc class="y ">186.3570548588201</desc><desc class="x_label">1993</desc></g><g class="dots"><desc class="label">76 wickets in 70 innings (593.4 overs)</desc><circle class="dot reactive tooltip-trigger" cx="185.74767540152155" cy="176.46284192841995" r="2.5"/><desc class="value">31.04</desc><desc class="x ">185.74767540152155</desc><desc class="y ">176.46284192841995</desc><desc class="x_label">1994</desc></g><g class="dots"><desc class="label">58 wickets in 52 innings (435.5 overs)</desc><circle class="dot reactive tooltip-trigger" cx="326.1111580726965" cy="174.32355264617127" r="2.5"/><desc class="value">31.28</desc><desc class="x ">326.1111580726965</desc><desc class="y ">174.32355264617127</desc><desc class="x_label">1995</desc></g><g class="dots"><desc class="label">42 wickets in 44 innings (358.3 overs)</desc><circle class="dot reactive tooltip-trigger" cx="388.4949281487743" cy="127.34832549012725" r="2.5"/><desc class="value">36.55</desc><desc class="x left">388.4949281487743</desc><desc class="y left">127.34832549012725</desc><desc class="x_label">1996</desc></g><g class="dots"><desc class="label">17 wickets in 22 innings (181.3 overs)</desc><circle class="dot reactive tooltip-trigger" cx="560.0502958579882" cy="55.682134534796205" r="2.5"/><desc class="value">44.59</desc><desc class="x left">560.0502958579882</desc><desc class="y left">55.682134534796205</desc><desc class="x_label">1997</desc></g><g class="dots"><desc class="label">15 wickets in 15 innings (121.0 overs)</desc><circle class="dot reactive tooltip-trigger" cx="614.6360946745561" cy="140.00578707676522" r="2.5"/><desc class="value">35.13</desc><desc class="x left">614.6360946745561</desc><desc class="y left">140.00578707676522</desc><desc class="x_label">1998</desc></g><g class="dots"><desc class="label">9 wickets in 9 innings (77.0 overs)</desc><circle class="dot reactive tooltip-trigger" cx="661.4239222316146" cy="117.36497550630003" r="2.5"/><desc class="value">37.67</desc><desc class="x left">661.4239222316146</desc><desc class="y left">117.36497550630003</desc><desc class="x_label">1999</desc></g></g><g class="series serie-1 color-1"><g class="dots"><desc class="label">0 wickets over 0 innings</desc><circle class="dot reactive tooltip-trigger" cx="14.192307692307692" cy="453.1442557659166" r="2.5"/><desc class="value">0</desc><desc class="x top">14.192307692307692</desc><desc class="y top">453.1442557659166</desc><desc class="x_label">1992</desc></g><g class="dots"><desc class="label">8 wickets in 6 innings (49.0 overs)</desc><circle class="dot reactive tooltip-trigger" cx="60.98013524936602" cy="271.48294088163243" r="2.5"/><desc class="value">20.38</desc><desc class="x top">60.98013524936602</desc><desc class="y top">271.48294088163243</desc><desc class="x_label">1993</desc></g><g class="dots"><desc class="label">30 wickets in 22 innings (195.0 overs)</desc><circle class="dot reactive tooltip-trigger" cx="185.74767540152155" cy="234.13451549570743" r="2.5"/><desc class="value">24.57</desc><desc class="x top">185.74767540152155</desc><desc class="y top">234.13451549570743</desc><desc class="x_label">1994</desc></g><g class="dots"><desc class="label">48 wickets in 40 innings (352.5 overs)</desc><circle class="dot reactive tooltip-trigger" cx="326.1111580726965" cy="215.0591860623233" r="2.5"/><desc class="value">26.71</desc><desc class="x ">326.1111580726965</desc><desc class="y ">215.0591860623233</desc><desc class="x_label">1995</desc></g><g class="dots"><desc class="label">64 wickets in 48 innings (430.1 overs)</desc><circle class="dot reactive tooltip-trigger" cx="388.4949281487743" cy="235.73898245739394" r="2.5"/><desc class="value">24.39</desc><desc class="x left top">388.4949281487743</desc><desc class="y left top">235.73898245739394</desc><desc class="x_label">1996</desc></g><g class="dots"><desc class="label">89 wickets in 70 innings (607.1 overs)</desc><circle class="dot reactive tooltip-trigger" cx="560.0502958579882" cy="218.98121641311258" r="2.5"/><desc class="value">26.27</desc><desc class="x left">560.0502958579882</desc><desc class="y left">218.98121641311258</desc><desc class="x_label">1997</desc></g><g class="dots"><desc class="label">91 wickets in 77 innings (667.4 overs)</desc><circle class="dot reactive tooltip-trigger" cx="614.6360946745561" cy="201.51035394141496" r="2.5"/><desc class="value">28.23</desc><desc class="x left">614.6360946745561</desc><desc class="y left">201.51035394141496</desc><desc class="x_label">1998</desc></g><g class="dots"><desc class="label">97 wickets in 83 innings (711.4 overs)</desc><circle class="dot reactive tooltip-trigger" cx="661.4239222316146" cy="199.81674992630144" r="2.5"/><desc class="value">28.42</desc><desc class="x left">661.4239222316146</desc><desc class="y left">199.81674992630144</desc><desc class="x_label">1999</desc></g></g><g class="series serie-2 color-2"/></g><g class="plot text-overlay" transform="translate(42, 46)"><g class="series serie-0 color-0"/><g class="series serie-1 color-1"/><g class="series serie-2 color-2"/></g><g class="plot tooltip-overlay" transform="translate(42, 46)"><g class="tooltip" style="opacity: 0" transform="translate(0 0)"><rect class="tooltip-box" height="0" rx="10" ry="10" width="0"/><g class="text"/></g></g><g class="legends" transform="translate(52, 545)"><g class="legend reactive activate-serie" id="activate-serie-0"><rect class="color-0 reactive" height="12" width="12" x="0.0" y="1.0"/><text x="17.0" y="11.2">Future Average</text></g><g class="legend reactive activate-serie" id="activate-serie-1"><rect class="color-1 reactive" height="12" width="12" x="369.0" y="1.0"/><text x="386.0" y="11.2">Past Average</text></g><g class="legend reactive activate-serie" id="activate-serie-2"><rect class="color-2 reactive" height="12" width="12" x="0.0" y="22.0"/><text x="17.0" y="32.2">Career Average</text></g></g></g></svg>