<?xml version='1.0' encoding='utf-8'?>
<svg xmlns:xlink="http://www.w3.org/1999/xlink" xmlns="http://www.w3.org/2000/svg" id="chart-58e7d483-b39a-4b88-9bbf-30b9ce4c6867" class="pygal-chart" viewBox="0 0 800 600"><!--Generated with pygal 2.4.0 (lxml) ©Kozea 2012-2016 on 2019-08-02--><!--http://pygal.org--><!--http://github.com/Kozea/pygal--><defs><style type="text/css">#chart-58e7d483-b39a-4b88-9bbf-30b9ce4c6867{-webkit-user-select:none;-webkit-font-smoothing:antialiased;font-family:Consolas,"Liberation Mono",Menlo,Courier,monospace}#chart-58e7d483-b39a-4b88-9bbf-30b9ce4c6867 .title{font-family:Consolas,"Liberation Mono",Menlo,Courier,monospace;font-size:16px}#chart-58e7d483-b39a-4b88-9bbf-30b9ce4c6867 .legends .legend text{font-family:Consolas,"Liberation Mono",Menlo,Courier,monospace;font-size:14px}#chart-58e7d483-b39a-4b88-9bbf-30b9ce4c6867 .axis text{font-family:Consolas,"Liberation Mono",Menlo,Courier,monospace;font-size:10px}#chart-58e7d483-b39a-4b88-9bbf-30b9ce4c6867 .axis text.major{font-family:Consolas,"Liberation Mono",Menlo,Courier,monospace;font-size:10px}#chart-58e7d483-b39a-4b88-9bbf-30b9ce4c6867 .text-overlay text.value{font-family:Consolas,"Liberation Mono",Menlo,Courier,monospace;font-size:16px}#chart-58e7d483-b39a-4b88-9bbf-30b9ce4c6867 .text-overlay text.label{font-family:Consolas,"Liberation Mono",Menlo,Courier,monospace;font-size:10px}#chart-58e7d483-b39a-4b88-9bbf-30b9ce4c6867 .tooltip{font-family:Consolas,"Liberation Mono",Menlo,Courier,monospace;font-size:14px}#chart-58e7d483-b39a-4b88-9bbf-30b9ce4c6867 text.no_data{font-family:Consolas,"Liberation Mono",Menlo,Courier,monospace;font-size:64px}
#chart-58e7d483-b39a-4b88-9bbf-30b9ce4c6867{background-color:rgba(249,249,249,1)}#chart-58e7d483-b39a-4b88-9bbf-30b9ce4c6867 path,#chart-58e7d483-b39a-4b88-9bbf-30b9ce4c6867 line,#chart-58e7d483-b39a-4b88-9bbf-30b9ce4c6867 rect,#chart-58e7d483-b39a-4b88-9bbf-30b9ce4c6867 circle{-webkit-transition:150ms;-moz-transition:150ms;transition:150ms}#chart-58e7d483-b39a-4b88-9bbf-30b9ce4c6867 .graph &gt; .background{fill:rgba(249,249,249,1)}#chart-58e7d483-b39a-4b88-9bbf-30b9ce4c6867 .plot &gt; .background{fill:rgba(255,255,255,1)}#chart-58e7d483-b39a-4b88-9bbf-30b9ce4c6867 .graph{fill:rgba(0,0,0,.87)}#chart-58e7d483-b39a-4b88-9bbf-30b9ce4c6867 text.no_data{fill:rgba(0,0,0,1)}#chart-58e7d483-b39a-4b88-9bbf-30b9ce4c6867 .title{fill:rgba(0,0,0,1)}#chart-58e7d483-b39a-4b88-9bbf-30b9ce4c6867 .legends .legend text{fill:rgba(0,0,0,.87)}#chart-58e7d483-b39a-4b88-9bbf-30b9ce4c6867 .legends .legend:hover text{fill:rgba(0,0,0,1)}#chart-58e7d483-b39a-4b88-9bbf-30b9ce4c6867 .axis .line{stroke:rgba(0,0,0,1)}#chart-58e7d483-b39a-4b88-9bbf-30b9ce4c6867 .axis .guide.line{stroke:rgba(0,0,0,.54)}#chart-58e7d483-b39a-4b88-9bbf-30b9ce4c6867 .axis .major.line{stroke:rgba(0,0,0,.87)}#chart-58e7d483-b39a-4b88-9bbf-30b9ce4c6867 .axis text.major{fill:rgba(0,0,0,1)}#chart-58e7d483-b39a-4b88-9bbf-30b9ce4c6867 .axis.y .guides:hover .guide.line,#chart-58e7d483-b39a-4b88-9bbf-30b9ce4c6867 .line-graph .axis.x .guides:hover .guide.line,#chart-58e7d483-b39a-4b88-9bbf-30b9ce4c6867 .stackedline-graph .axis.x .guides:hover .guide.line,#chart-58e7d483-b39a-4b88-9bbf-30b9ce4c6867 .xy-graph .axis.x .guides:hover .guide.line{stroke:rgba(0,0,0,1)}#chart-58e7d483-b39a-4b88-9bbf-30b9ce4c6867 .axis .guides:hover text{fill:rgba(0,0,0,1)}#chart-58e7d483-b39a-4b88-9bbf-30b9ce4c6867 .reactive{fill-opacity:.7;stroke-opacity:.8}#chart-58e7d483-b39a-4b88-9bbf-30b9ce4c6867 .ci{stroke:rgba(0,0,0,.87)}#chart-58e7d483-b39a-4b88-9bbf-30b9ce4c6867 .reactive.active,#chart-58e7d483-b39a-4b88-9bbf-30b9ce4c6867 .active .reactive{fill-opacity:.8;stroke-opacity:.9;stroke-width:4}#chart-58e7d483-b39a-4b88-9bbf-30b9ce4c6867 .ci .reactive.active{stroke-width:1.5}#chart-58e7d483-b39a-4b88-9bbf-30b9ce4c6867 .series text{fill:rgba(0,0,0,1)}#chart-58e7d483-b39a-4b88-9bbf-30b9ce4c6867 .tooltip rect{fill:rgba(255,255,255,1);stroke:rgba(0,0,0,1);-webkit-transition:opacity 150ms;-moz-transition:opacity 150ms;transition:opacity 150ms}#chart-58e7d483-b39a-4b88-9bbf-30b9ce4c6867 .tooltip .label{fill:rgba(0,0,0,.87)}#chart-58e7d483-b39a-4b88-9bbf-30b9ce4c6867 .tooltip .label{fill:rgba(0,0,0,.87)}#chart-58e7d483-b39a-4b88-9bbf-30b9ce4c6867 .tooltip .legend{font-size:.8em;fill:rgba(0,0,0,.54)}#chart-58e7d483-b39a-4b88-9bbf-30b9ce4c6867 .tooltip .x_label{font-size:.6em;fill:rgba(0,0,0,1)}#chart-58e7d483-b39a-4b88-9bbf-30b9ce4c6867 .tooltip .xlink{font-size:.5em;text-decoration:underline}#chart-58e7d483-b39a-4b88-9bbf-30b9ce4c6867 .tooltip .value{font-size:1.5em}#chart-58e7d483-b39a-4b88-9bbf-30b9ce4c6867 .bound{font-size:.5em}#chart-58e7d483-b39a-4b88-9bbf-30b9ce4c6867 .max-value{font-size:.75em;fill:rgba(0,0,0,.54)}#chart-58e7d483-b39a-4b88-9bbf-30b9ce4c6867 .map-element{fill:rgba(255,255,255,1);stroke:rgba(0,0,0,.54) !important}#chart-58e7d483-b39a-4b88-9bbf-30b9ce4c6867 .map-element .reactive{fill-opacity:inherit;stroke-opacity:inherit}#chart-58e7d483-b39a-4b88-9bbf-30b9ce4c6867 .color-0,#chart-58e7d483-b39a-4b88-9bbf-30b9ce4c6867 .color-0 a:visited{stroke:#F44336;fill:#F44336}#chart-58e7d483-b39a-4b88-9bbf-30b9ce4c6867 .color-1,#chart-58e7d483-b39a-4b88-9bbf-30b9ce4c6867 .color-1 a:visited{stroke:#3F51B5;fill:#3F51B5}#chart-58e7d483-b39a-4b88-9bbf-30b9ce4c6867 .color-2,#chart-58e7d483-b39a-4b88-9bbf-30b9ce4c6867 .color-2 a:visited{stroke:#009688;fill:#009688}#chart-58e7d483-b39a-4b88-9bbf-30b9ce4c6867 .text-overlay .color-0 text{fill:black}#chart-58e7d483-b39a-4b88-9bbf-30b9ce4c6867 .text-overlay .color-1 text{fill:black}#chart-58e7d483-b39a-4b88-9bbf-30b9ce4c6867 .text-overlay .color-2 text{fill:black}
#chart-58e7d483-b39a-4b88-9bbf-30b9ce4c6867 text.no_data{text-anchor:middle}#chart-58e7d483-b39a-4b88-9bbf-30b9ce4c6867 .guide.line{fill:none}#chart-58e7d483-b39a-4b88-9bbf-30b9ce4c6867 .centered{text-anchor:middle}#chart-58e7d483-b39a-4b88-9bbf-30b9ce4c6867 .title{text-anchor:middle}#chart-58e7d483-b39a-4b88-9bbf-30b9ce4c6867 .legends .legend text{fill-opacity:1}#chart-58e7d483-b39a-4b88-9bbf-30b9ce4c6867 .axis.x text{text-anchor:middle}#chart-58e7d483-b39a-4b88-9bbf-30b9ce4c6867 .axis.x:not(.web) text[transform]{text-anchor:start}#chart-58e7d483-b39a-4b88-9bbf-30b9ce4c6867 .axis.x:not(.web) text[transform].backwards{text-anchor:end}#chart-58e7d483-b39a-4b88-9bbf-30b9ce4c6867 .axis.y text{text-anchor:end}#chart-58e7d483-b39a-4b88-9bbf-30b9ce4c6867 .axis.y text[transform].backwards{text-anchor:start}#chart-58e7d483-b39a-4b88-9bbf-30b9ce4c6867 .axis.y2 text{text-anchor:start}#chart-58e7d483-b39a-4b88-9bbf-30b9ce4c6867 .axis.y2 text[transform].backwards{text-anchor:end}#chart-58e7d483-b39a-4b88-9bbf-30b9ce4c6867 .axis .guide.line{stroke-dasharray:4,4}#chart-58e7d483-b39a-4b88-9bbf-30b9ce4c6867 .axis .major.guide.line{stroke-dasharray:6,6}#chart-58e7d483-b39a-4b88-9bbf-30b9ce4c6867 .horizontal .axis.y .guide.line,#chart-58e7d483-b39a-4b88-9bbf-30b9ce4c6867 .horizontal .axis.y2 .guide.line,#chart-58e7d483-b39a-4b88-9bbf-30b9ce4c6867 .vertical .axis.x .guide.line{opacity:0}#chart-58e7d483-b39a-4b88-9bbf-30b9ce4c6867 .horizontal .axis.always_show .guide.line,#chart-58e7d483-b39a-4b88-9bbf-30b9ce4c6867 .vertical .axis.always_show .guide.line{opacity:1 !important}#chart-58e7d483-b39a-4b88-9bbf-30b9ce4c6867 .axis.y .guides:hover .guide.line,#chart-58e7d483-b39a-4b88-9bbf-30b9ce4c6867 .axis.y2 .guides:hover .guide.line,#chart-58e7d483-b39a-4b88-9bbf-30b9ce4c6867 .axis.x .guides:hover .guide.line{opacity:1}#chart-58e7d483-b39a-4b88-9bbf-30b9ce4c6867 .axis .guides:hover text{opacity:1}#chart-58e7d483-b39a-4b88-9bbf-30b9ce4c6867 .nofill{fill:none}#chart-58e7d483-b39a-4b88-9bbf-30b9ce4c6867 .subtle-fill{fill-opacity:.2}#chart-58e7d483-b39a-4b88-9bbf-30b9ce4c6867 .dot{stroke-width:1px;fill-opacity:1}#chart-58e7d483-b39a-4b88-9bbf-30b9ce4c6867 .dot.active{stroke-width:5px}#chart-58e7d483-b39a-4b88-9bbf-30b9ce4c6867 .dot.negative{fill:transparent}#chart-58e7d483-b39a-4b88-9bbf-30b9ce4c6867 text,#chart-58e7d483-b39a-4b88-9bbf-30b9ce4c6867 tspan{stroke:none !important}#chart-58e7d483-b39a-4b88-9bbf-30b9ce4c6867 .series text.active{opacity:1}#chart-58e7d483-b39a-4b88-9bbf-30b9ce4c6867 .tooltip rect{fill-opacity:.95;stroke-width:.5}#chart-58e7d483-b39a-4b88-9bbf-30b9ce4c6867 .tooltip text{fill-opacity:1}#chart-58e7d483-b39a-4b88-9bbf-30b9ce4c6867 .showable{visibility:hidden}#chart-58e7d483-b39a-4b88-9bbf-30b9ce4c6867 .showable.shown{visibility:visible}#chart-58e7d483-b39a-4b88-9bbf-30b9ce4c6867 .gauge-background{fill:rgba(229,229,229,1);stroke:none}#chart-58e7d483-b39a-4b88-9bbf-30b9ce4c6867 .bg-lines{stroke:rgba(249,249,249,1);stroke-width:2px}</style><script type="text/javascript">window.pygal = window.pygal || {};window.pygal.config = window.pygal.config || {};window.pygal.config['58e7d483-b39a-4b88-9bbf-30b9ce4c6867'] = {"allow_interruptions": false, "box_mode": "extremes", "classes": ["pygal-chart"], "css": ["file://style.css", "file://graph.css"], "defs": [], "disable_xml_declaration": false, "dots_size": 2.5, "dynamic_print_values": false, "explicit_size": false, "fill": false, "force_uri_protocol": "https", "formatter": null, "half_pie": false, "height": 600, "include_x_axis": false, "inner_radius": 0, "interpolate": null, "interpolation_parameters": {}, "interpolation_precision": 250, "inverse_y_axis": false, "js": ["//kozea.github.io/pygal.js/2.0.x/pygal-tooltips.min.js"], "legend_at_bottom": true, "legend_at_bottom_columns": null, "legend_box_size": 12, "logarithmic": false, "margin": 20, "margin_bottom": null, "margin_left": null, "margin_right": null, "margin_top": null, "max_scale": 16, "min_scale": 4, "missing_value_fill_truncation": "x", "no_data_text": "No data", "no_prefix": false, "order_min": null, "pretty_print": false, "print_labels": false, "print_values": false, "print_values_position": "center", "print_zeroes": true, "range": null, "rounded_bars": null, "secondary_range": null, "show_dots": true, "show_legend": true, "show_minor_x_labels": false, "show_minor_y_labels": true, "show_only_major_dots": false, "show_x_guides": false, "show_x_labels": true, "show_y_guides": true, "show_y_labels": true, "spacing": 10, "stack_from_top": false, "strict": false, "stroke": true, "stroke_style": null, "style": {"background": "rgba(249, 249, 249, 1)", "ci_colors": [], "colors": ["#F44336", "#3F51B5", "#009688", "#FFC107", "#FF5722", "#9C27B0", "#03A9F4", "#8BC34A", "#FF9800", "#E91E63", "#2196F3", "#4CAF50", "#FFEB3B", "#673AB7", "#00BCD4", "#CDDC39", "#9E9E9E", "#607D8B"], "font_family": "Consolas, \"Liberation Mono\", Menlo, Courier, monospace", "foreground": "rgba(0, 0, 0, .87)", "foreground_strong": "rgba(0, 0, 0, 1)", "foreground_subtle": "rgba(0, 0, 0, .54)", "guide_stroke_dasharray": "4,4", "label_font_family": "Consolas, \"Liberation Mono\", Menlo, Courier, monospace", "label_font_size": 10, "legend_font_family": "Consolas, \"Liberation Mono\", Menlo, Courier, monospace", "legend_font_size": 14, "major_guide_stroke_dasharray": "6,6", "major_label_font_family": "Consolas, \"Liberation Mono\", Menlo, Courier, monospace", "major_label_font_size": 10, "no_data_font_family": "Consolas, \"Liberation Mono\", Menlo, Courier, monospace", "no_data_font_size": 64, "opacity": ".7", "opacity_hover": ".8", "plot_background": "rgba(255, 255, 255, 1)", "stroke_opacity": ".8", "stroke_opacity_hover": ".9", "title_font_family": "Consolas, \"Liberation Mono\", Menlo, Courier, monospace", "title_font_size": 16, "tooltip_font_family": "Consolas, \"Liberation Mono\", Menlo, Courier, monospace", "tooltip_font_size": 14, "transition": "150ms", "value_background": "rgba(229, 229, 229, 1)", "value_colors": [], "value_font_family": "Consolas, \"Liberation Mono\", Menlo, Courier, monospace", "value_font_size": 16, "value_label_font_family": "Consolas, \"Liberation Mono\", Menlo, Courier, monospace", "value_label_font_size": 10}, "title": "PV Simmons: Future and Past Averages in ODIs", "tooltip_border_radius": 10, "tooltip_fancy_mode": true, "truncate_label": null, "truncate_legend": null, "width": 800, "x_label_rotation": 45, "x_labels": ["1988", "0", "1989", "0", "0", "0", "1991", "0", "0", "0", "0", "0", "0", "0", "0", "1992", "0", "0", "0", "0", "0", "0", "0", "0", "1993", "0", "0", "0", "0", "0", "0", "0", "0", "0", "0", "0", "0", "0", "0", "0", "0", "0", "0", "0", "0", "0", "0", "1994", "0", "0", "0", "0", "0", "0", "0", "0", "1995", "0", "0", "0", "0", "0", "0", "0", "0", "0", "0", "0", "0", "1996", "0", "0", "0", "0", "0", "0", "0", "0", "1997", "0", "0", "0", "0", "0", "0", "0", "1998", "0", "0", "0", "0", "0", "0", "1999", "0", "0", "0", "0", "0", "0", "0", "0", "0"], "x_labels_major": ["1988", "1989", "1991", "1992", "1993", "1994", "1995", "1996", "1997", "1998", "1999"], "x_labels_major_count": null, "x_labels_major_every": null, "x_title": null, "xrange": null, "y_label_rotation": 0, "y_labels": null, "y_labels_major": null, "y_labels_major_count": null, "y_labels_major_every": null, "y_title": null, "zero": 0, "legends": ["Future Average", "Past Average", "Career Average"]}</script><script type="text/javascript" xlink:href="https://kozea.github.io/pygal.js/2.0.x/pygal-tooltips.min.js"/></defs><title>PV Simmons: Future and Past Averages in ODIs</title><g class="graph line-graph vertical"><rect class="background" height="600" width="800" x="0" y="0"/><g class="plot" transform="translate(42, 46)"><rect class="background" height="462.02943725152284" width="738.0" x="0" y="0"/><g class="axis y always_show"><g class="guides"><path class="axis major line" d="M0.000000 453.144256 h738.000000"/><text class="major" x="-5" y="456.6442557659166">0</text><title>0</title></g><g class="guides"><path class="guide line" d="M0.000000 366.324034 h738.000000"/><text class="" x="-5" y="369.8240340969093">10</text><title>10</title></g><g class="guides"><path class="guide line" d="M0.000000 279.503812 h738.000000"/><text class="" x="-5" y="283.00381242790206">20</text><title>20</title></g><g class="guides"><path class="guide line" d="M0.000000 192.683591 h738.000000"/><text class="" x="-5" y="196.18359075889475">30</text><title>30</title></g><g class="guides"><path class="guide line" d="M0.000000 105.863369 h738.000000"/><text class="" x="-5" y="109.36336908988739">40</text><title>40</title></g><g class="guides"><path class="major guide line" d="M0.000000 19.043147 h738.000000"/><text class="major" x="-5" y="22.543147420880132">50</text><title>50</title></g></g><g class="axis x"><g class="guides"><path class="major line" d="M14.192308 0.000000 v462.029437"/><text class="major" x="14.192307692307692" y="477.02943725152284" transform="rotate(45 14.192308 477.029437)">1988</text></g><g class="guides"><path class="major guide line" d="M28.106335 0.000000 v462.029437"/><text class="major" x="28.10633484162896" y="477.02943725152284" transform="rotate(45 28.106335 477.029437)">1989</text></g><g class="guides"><path class="major guide line" d="M55.934389 0.000000 v462.029437"/><text class="major" x="55.93438914027149" y="477.02943725152284" transform="rotate(45 55.934389 477.029437)">1991</text></g><g class="guides"><path class="major guide line" d="M118.547511 0.000000 v462.029437"/><text class="major" x="118.54751131221718" y="477.02943725152284" transform="rotate(45 118.547511 477.029437)">1992</text></g><g class="guides"><path class="major guide line" d="M181.160633 0.000000 v462.029437"/><text class="major" x="181.1606334841629" y="477.02943725152284" transform="rotate(45 181.160633 477.029437)">1993</text></g><g class="guides"><path class="major guide line" d="M341.171946 0.000000 v462.029437"/><text class="major" x="341.17194570135746" y="477.02943725152284" transform="rotate(45 341.171946 477.029437)">1994</text></g><g class="guides"><path class="major guide line" d="M403.785068 0.000000 v462.029437"/><text class="major" x="403.7850678733032" y="477.02943725152284" transform="rotate(45 403.785068 477.029437)">1995</text></g><g class="guides"><path class="major guide line" d="M494.226244 0.000000 v462.029437"/><text class="major" x="494.2262443438914" y="477.02943725152284" transform="rotate(45 494.226244 477.029437)">1996</text></g><g class="guides"><path class="major guide line" d="M556.839367 0.000000 v462.029437"/><text class="major" x="556.8393665158371" y="477.02943725152284" transform="rotate(45 556.839367 477.029437)">1997</text></g><g class="guides"><path class="major guide line" d="M612.495475 0.000000 v462.029437"/><text class="major" x="612.4954751131222" y="477.02943725152284" transform="rotate(45 612.495475 477.029437)">1998</text></g><g class="guides"><path class="major guide line" d="M661.194570 0.000000 v462.029437"/><text class="major" x="661.1945701357465" y="477.02943725152284" transform="rotate(45 661.194570 477.029437)">1999</text></g></g><g class="series serie-0 color-0"><path class="line reactive nofill" d="M14.192308 152.312188 L21.149321 153.267210 28.106335 149.099839 35.063348 150.228502 42.020362 152.051727 48.977376 148.578918 55.934389 148.752559 62.891403 146.495233 69.848416 146.495233 76.805430 150.662603 83.762443 156.566379 90.719457 157.695041 97.676471 161.081030 104.633484 163.511996 111.590498 160.560109 118.547511 162.383333 125.504525 164.032918 132.461538 164.380198 139.418552 161.254671 146.375566 162.643794 153.332579 157.087300 160.289593 145.279750 167.246606 144.411548 174.203620 143.803806 181.160633 123.921975 188.117647 125.918840 195.074661 126.960683 202.031674 126.526582 208.988688 120.709627 215.945701 127.134323 222.902715 121.056908 229.859729 114.979492 236.816742 106.037010 243.773756 103.692864 250.730769 102.651021 257.687783 110.117560 264.644796 110.030740 271.601810 113.329908 278.558824 116.281796 285.515837 123.053773 292.472851 124.790177 299.429864 121.491009 306.386878 125.311099 313.343891 132.083076 320.300905 128.870728 327.257919 111.680324 334.214932 114.371751 341.171946 103.432403 348.128959 109.943920 355.085973 113.503549 362.042986 113.329908 369.000000 119.320503 375.957014 123.227413 382.914027 125.918840 389.871041 130.693952 396.828054 132.517177 403.785068 137.813211 410.742081 147.537075 417.699095 144.758828 424.656109 114.805852 431.613122 115.066313 438.570136 118.886402 445.527149 116.368616 452.484163 126.873863 459.441176 125.137458 466.398190 129.391649 473.355204 131.301694 480.312217 136.250447 487.269231 141.199199 494.226244 139.723256 501.183258 138.073671 508.140271 132.517177 515.097285 133.211739 522.054299 137.552750 529.011312 138.160492 535.968326 155.524536 542.925339 155.784997 549.882353 145.366570 556.839367 155.177255 563.796380 168.634389 570.753394 167.505726 577.710407 177.403232 584.667421 182.351984 591.624434 190.165804 598.581448 190.513085 605.538462 193.985894 612.495475 204.838422 619.452489 205.185703 626.409502 182.265164 633.366516 170.631254 640.323529 139.810076 647.280543 167.418906 654.237557 204.491141 661.194570 192.683591 668.151584 199.455568 675.108597 230.276747 682.065611 219.945140 689.022624 253.457746 695.979638 216.993253 702.936652 244.775724 709.893665 308.414946 716.850679 305.549879 723.807692 435.780211"/></g><g class="series serie-1 color-1"><path class="line reactive nofill" d="M14.192308 453.144256 L21.149321 375.006056 28.106335 283.844824 35.063348 236.093702 42.020362 162.296513 48.977376 250.592679 55.934389 223.070668 62.891403 243.039319 69.848416 227.411679 76.805430 173.843603 83.762443 97.181347 90.719457 82.682370 97.676471 39.272259 104.633484 8.885181 111.590498 62.453258 118.547511 58.112247 125.504525 55.681281 132.461538 52.816214 139.418552 94.055819 146.375566 84.592415 153.332579 126.526582 160.289593 181.831063 167.246606 182.959726 174.203620 183.046546 181.160633 230.971309 188.117647 225.414814 195.074661 222.636567 202.031674 219.511039 208.988688 225.675275 215.945701 210.742197 222.902715 217.080073 229.859729 225.588455 236.816742 234.096836 243.773756 233.836376 250.730769 231.492230 257.687783 219.511039 264.644796 216.385511 271.601810 211.349938 278.558824 206.922107 285.515837 196.590501 292.472851 193.985894 299.429864 196.764141 306.386878 191.120827 313.343891 181.483782 320.300905 184.522490 327.257919 200.410590 334.214932 197.285063 341.171946 204.838422 348.128959 197.892804 355.085973 193.985894 362.042986 192.249490 369.000000 186.085254 375.957014 182.091524 382.914027 179.313277 389.871041 174.451344 396.828054 171.586277 403.785068 166.463884 410.742081 156.913659 417.699095 159.344626 424.656109 181.049681 431.613122 179.486917 438.570136 175.493187 445.527149 176.014108 452.484163 169.068490 459.441176 169.328951 466.398190 165.942962 473.355204 164.206558 480.312217 161.428311 487.269231 158.650064 494.226244 159.084165 501.183258 159.518266 508.140271 161.862412 515.097285 160.994210 522.054299 158.997345 529.011312 158.389603 535.968326 150.923064 542.925339 150.923064 549.882353 154.829974 556.839367 151.270345 563.796380 146.408413 570.753394 147.189795 577.710407 143.803806 584.667421 142.154222 591.624434 139.462795 598.581448 140.157357 605.538462 139.115514 612.495475 135.642705 619.452489 137.639570 626.409502 145.713851 633.366516 148.926199 640.323529 154.222233 647.280543 149.968042 654.237557 144.324727 661.194570 147.363435 668.151584 146.582053 675.108597 142.848784 682.065611 146.061132 689.022624 143.022424 695.979638 148.144817 702.936652 147.623896 709.893665 146.408413 716.850679 150.402143 723.807692 152.485828"/></g><g class="series serie-2 color-2"><path class="line reactive nofill" d="M14.192308 152.312188 L21.149321 152.312188 28.106335 152.312188 35.063348 152.312188 42.020362 152.312188 48.977376 152.312188 55.934389 152.312188 62.891403 152.312188 69.848416 152.312188 76.805430 152.312188 83.762443 152.312188 90.719457 152.312188 97.676471 152.312188 104.633484 152.312188 111.590498 152.312188 118.547511 152.312188 125.504525 152.312188 132.461538 152.312188 139.418552 152.312188 146.375566 152.312188 153.332579 152.312188 160.289593 152.312188 167.246606 152.312188 174.203620 152.312188 181.160633 152.312188 188.117647 152.312188 195.074661 152.312188 202.031674 152.312188 208.988688 152.312188 215.945701 152.312188 222.902715 152.312188 229.859729 152.312188 236.816742 152.312188 243.773756 152.312188 250.730769 152.312188 257.687783 152.312188 264.644796 152.312188 271.601810 152.312188 278.558824 152.312188 285.515837 152.312188 292.472851 152.312188 299.429864 152.312188 306.386878 152.312188 313.343891 152.312188 320.300905 152.312188 327.257919 152.312188 334.214932 152.312188 341.171946 152.312188 348.128959 152.312188 355.085973 152.312188 362.042986 152.312188 369.000000 152.312188 375.957014 152.312188 382.914027 152.312188 389.871041 152.312188 396.828054 152.312188 403.785068 152.312188 410.742081 152.312188 417.699095 152.312188 424.656109 152.312188 431.613122 152.312188 438.570136 152.312188 445.527149 152.312188 452.484163 152.312188 459.441176 152.312188 466.398190 152.312188 473.355204 152.312188 480.312217 152.312188 487.269231 152.312188 494.226244 152.312188 501.183258 152.312188 508.140271 152.312188 515.097285 152.312188 522.054299 152.312188 529.011312 152.312188 535.968326 152.312188 542.925339 152.312188 549.882353 152.312188 556.839367 152.312188 563.796380 152.312188 570.753394 152.312188 577.710407 152.312188 584.667421 152.312188 591.624434 152.312188 598.581448 152.312188 605.538462 152.312188 612.495475 152.312188 619.452489 152.312188 626.409502 152.312188 633.366516 152.312188 640.323529 152.312188 647.280543 152.312188 654.237557 152.312188 661.194570 152.312188 668.151584 152.312188 675.108597 152.312188 682.065611 152.312188 689.022624 152.312188 695.979638 152.312188 702.936652 152.312188 709.893665 152.312188 716.850679 152.312188 723.807692 152.312188"/></g></g><g class="titles"><text class="title plot_title" x="400.0" y="26">PV Simmons: Future and Past Averages in ODIs</text></g><g class="plot overlay" transform="translate(42, 46)"><g class="series serie-0 color-0"><g class="dots"><desc class="label">83 wickets in 103 innings (646.4 overs)</desc><circle class="dot reactive tooltip-trigger" cx="14.192307692307692" cy="152.31218768280633" r="2.5"/><desc class="value">34.65</desc><desc class="x ">14.192307692307692</desc><desc class="y ">152.31218768280633</desc><desc class="x_label">1988</desc></g><g class="dots"><desc class="label">81 wickets in 101 innings (636.4 overs)</desc><circle class="dot reactive tooltip-trigger" cx="28.10633484162896" cy="149.09983948105304" r="2.5"/><desc class="value">35.02</desc><desc class="x ">28.10633484162896</desc><desc class="y ">149.09983948105304</desc><desc class="x_label">1989</desc></g><g class="dots"><desc class="label">79 wickets in 97 innings (623.4 overs)</desc><circle class="dot reactive tooltip-trigger" cx="55.93438914027149" cy="148.75255859437698" r="2.5"/><desc class="value">35.06</desc><desc class="x ">55.93438914027149</desc><desc class="y ">148.75255859437698</desc><desc class="x_label">1991</desc></g><g class="dots"><desc class="label">75 wickets in 88 innings (577.4 overs)</desc><circle class="dot reactive tooltip-trigger" cx="118.54751131221718" cy="162.38333339641116" r="2.5"/><desc class="value">33.49</desc><desc class="x ">118.54751131221718</desc><desc class="y ">162.38333339641116</desc><desc class="x_label">1992</desc></g><g class="dots"><desc class="label">61 wickets in 79 innings (511.4 overs)</desc><circle class="dot reactive tooltip-trigger" cx="181.1606334841629" cy="123.92197519704092" r="2.5"/><desc class="value">37.92</desc><desc class="x ">181.1606334841629</desc><desc class="y ">123.92197519704092</desc><desc class="x_label">1993</desc></g><g class="dots"><desc class="label">43 wickets in 56 innings (369.5 overs)</desc><circle class="dot reactive tooltip-trigger" cx="341.17194570135746" cy="103.43240288315519" r="2.5"/><desc class="value">40.28</desc><desc class="x ">341.17194570135746</desc><desc class="y ">103.43240288315519</desc><desc class="x_label">1994</desc></g><g class="dots"><desc class="label">41 wickets in 47 innings (312.5 overs)</desc><circle class="dot reactive tooltip-trigger" cx="403.7850678733032" cy="137.81321066408208" r="2.5"/><desc class="value">36.32</desc><desc class="x left">403.7850678733032</desc><desc class="y left">137.81321066408208</desc><desc class="x_label">1995</desc></g><g class="dots"><desc class="label">29 wickets in 34 innings (222.0 overs)</desc><circle class="dot reactive tooltip-trigger" cx="494.2262443438914" cy="139.7232555408002" r="2.5"/><desc class="value">36.1</desc><desc class="x left">494.2262443438914</desc><desc class="y left">139.7232555408002</desc><desc class="x_label">1996</desc></g><g class="dots"><desc class="label">22 wickets in 25 innings (155.0 overs)</desc><circle class="dot reactive tooltip-trigger" cx="556.8393665158371" cy="155.17725499788355" r="2.5"/><desc class="value">34.32</desc><desc class="x left">556.8393665158371</desc><desc class="y left">155.17725499788355</desc><desc class="x_label">1997</desc></g><g class="dots"><desc class="label">20 wickets in 17 innings (121.2 overs)</desc><circle class="dot reactive tooltip-trigger" cx="612.4954751131222" cy="204.83842179255572" r="2.5"/><desc class="value">28.6</desc><desc class="x left">612.4954751131222</desc><desc class="y left">204.83842179255572</desc><desc class="x_label">1998</desc></g><g class="dots"><desc class="label">9 wickets in 10 innings (62.3 overs)</desc><circle class="dot reactive tooltip-trigger" cx="661.1945701357465" cy="192.68359075889475" r="2.5"/><desc class="value">30</desc><desc class="x left">661.1945701357465</desc><desc class="y left">192.68359075889475</desc><desc class="x_label">1999</desc></g></g><g class="series serie-1 color-1"><g class="dots"><desc class="label">0 wickets over 0 innings</desc><circle class="dot reactive tooltip-trigger" cx="14.192307692307692" cy="453.1442557659166" r="2.5"/><desc class="value">0</desc><desc class="x top">14.192307692307692</desc><desc class="y top">453.1442557659166</desc><desc class="x_label">1988</desc></g><g class="dots"><desc class="label">2 wickets in 2 innings (10.0 overs)</desc><circle class="dot reactive tooltip-trigger" cx="28.10633484162896" cy="283.8448235113524" r="2.5"/><desc class="value">19.5</desc><desc class="x top">28.10633484162896</desc><desc class="y top">283.8448235113524</desc><desc class="x_label">1989</desc></g><g class="dots"><desc class="label">4 wickets in 6 innings (23.0 overs)</desc><circle class="dot reactive tooltip-trigger" cx="55.93438914027149" cy="223.0706683430473" r="2.5"/><desc class="value">26.5</desc><desc class="x ">55.93438914027149</desc><desc class="y ">223.0706683430473</desc><desc class="x_label">1991</desc></g><g class="dots"><desc class="label">8 wickets in 15 innings (69.0 overs)</desc><circle class="dot reactive tooltip-trigger" cx="118.54751131221718" cy="58.11224717193335" r="2.5"/><desc class="value">45.5</desc><desc class="x ">118.54751131221718</desc><desc class="y ">58.11224717193335</desc><desc class="x_label">1992</desc></g><g class="dots"><desc class="label">22 wickets in 24 innings (135.0 overs)</desc><circle class="dot reactive tooltip-trigger" cx="181.1606334841629" cy="230.97130851492693" r="2.5"/><desc class="value">25.59</desc><desc class="x ">181.1606334841629</desc><desc class="y ">230.97130851492693</desc><desc class="x_label">1993</desc></g><g class="dots"><desc class="label">40 wickets in 47 innings (276.5 overs)</desc><circle class="dot reactive tooltip-trigger" cx="341.17194570135746" cy="204.83842179255572" r="2.5"/><desc class="value">28.6</desc><desc class="x ">341.17194570135746</desc><desc class="y ">204.83842179255572</desc><desc class="x_label">1994</desc></g><g class="dots"><desc class="label">42 wickets in 56 innings (333.5 overs)</desc><circle class="dot reactive tooltip-trigger" cx="403.7850678733032" cy="166.46388381485446" r="2.5"/><desc class="value">33.02</desc><desc class="x left">403.7850678733032</desc><desc class="y left">166.46388381485446</desc><desc class="x_label">1995</desc></g><g class="dots"><desc class="label">54 wickets in 69 innings (424.4 overs)</desc><circle class="dot reactive tooltip-trigger" cx="494.2262443438914" cy="159.0841649729889" r="2.5"/><desc class="value">33.87</desc><desc class="x left">494.2262443438914</desc><desc class="y left">159.0841649729889</desc><desc class="x_label">1996</desc></g><g class="dots"><desc class="label">61 wickets in 78 innings (491.4 overs)</desc><circle class="dot reactive tooltip-trigger" cx="556.8393665158371" cy="151.2703450227782" r="2.5"/><desc class="value">34.77</desc><desc class="x left">556.8393665158371</desc><desc class="y left">151.2703450227782</desc><desc class="x_label">1997</desc></g><g class="dots"><desc class="label">63 wickets in 86 innings (525.2 overs)</desc><circle class="dot reactive tooltip-trigger" cx="612.4954751131222" cy="135.64270512235686" r="2.5"/><desc class="value">36.57</desc><desc class="x left">612.4954751131222</desc><desc class="y left">135.64270512235686</desc><desc class="x_label">1998</desc></g><g class="dots"><desc class="label">74 wickets in 93 innings (584.1 overs)</desc><circle class="dot reactive tooltip-trigger" cx="661.1945701357465" cy="147.3634350476729" r="2.5"/><desc class="value">35.22</desc><desc class="x left">661.1945701357465</desc><desc class="y left">147.3634350476729</desc><desc class="x_label">1999</desc></g></g><g class="series serie-2 color-2"/></g><g class="plot text-overlay" transform="translate(42, 46)"><g class="series serie-0 color-0"/><g class="series serie-1 color-1"/><g class="series serie-2 color-2"/></g><g class="plot tooltip-overlay" transform="translate(42, 46)"><g class="tooltip" style="opacity: 0" transform="translate(0 0)"><rect class="tooltip-box" height="0" rx="10" ry="10" width="0"/><g class="text"/></g></g><g class="legends" transform="translate(52, 545)"><g class="legend reactive activate-serie" id="activate-serie-0"><rect class="color-0 reactive" height="12" width="12" x="0.0" y="1.0"/><text x="17.0" y="11.2">Future Average</text></g><g class="legend reactive activate-serie" id="activate-serie-1"><rect class="color-1 reactive" height="12" width="12" x="369.0" y="1.0"/><text x="386.0" y="11.2">Past Average</text></g><g class="legend reactive activate-serie" id="activate-serie-2"><rect class="color-2 reactive" height="12" width="12" x="0.0" y="22.0"/><text x="17.0" y="32.2">Career Average</text></g></g></g></svg>