<?xml version='1.0' encoding='utf-8'?>
<svg xmlns:xlink="http://www.w3.org/1999/xlink" xmlns="http://www.w3.org/2000/svg" id="chart-e8f3b23f-71e4-4ddc-a5c0-1dde0e81bd56" class="pygal-chart" viewBox="0 0 800 600"><!--Generated with pygal 2.4.0 (lxml) ©Kozea 2012-2016 on 2019-08-04--><!--http://pygal.org--><!--http://github.com/Kozea/pygal--><defs><style type="text/css">#chart-e8f3b23f-71e4-4ddc-a5c0-1dde0e81bd56{-webkit-user-select:none;-webkit-font-smoothing:antialiased;font-family:Consolas,"Liberation Mono",Menlo,Courier,monospace}#chart-e8f3b23f-71e4-4ddc-a5c0-1dde0e81bd56 .title{font-family:Consolas,"Liberation Mono",Menlo,Courier,monospace;font-size:16px}#chart-e8f3b23f-71e4-4ddc-a5c0-1dde0e81bd56 .legends .legend text{font-family:Consolas,"Liberation Mono",Menlo,Courier,monospace;font-size:14px}#chart-e8f3b23f-71e4-4ddc-a5c0-1dde0e81bd56 .axis text{font-family:Consolas,"Liberation Mono",Menlo,Courier,monospace;font-size:10px}#chart-e8f3b23f-71e4-4ddc-a5c0-1dde0e81bd56 .axis text.major{font-family:Consolas,"Liberation Mono",Menlo,Courier,monospace;font-size:10px}#chart-e8f3b23f-71e4-4ddc-a5c0-1dde0e81bd56 .text-overlay text.value{font-family:Consolas,"Liberation Mono",Menlo,Courier,monospace;font-size:16px}#chart-e8f3b23f-71e4-4ddc-a5c0-1dde0e81bd56 .text-overlay text.label{font-family:Consolas,"Liberation Mono",Menlo,Courier,monospace;font-size:10px}#chart-e8f3b23f-71e4-4ddc-a5c0-1dde0e81bd56 .tooltip{font-family:Consolas,"Liberation Mono",Menlo,Courier,monospace;font-size:14px}#chart-e8f3b23f-71e4-4ddc-a5c0-1dde0e81bd56 text.no_data{font-family:Consolas,"Liberation Mono",Menlo,Courier,monospace;font-size:64px}
#chart-e8f3b23f-71e4-4ddc-a5c0-1dde0e81bd56{background-color:rgba(249,249,249,1)}#chart-e8f3b23f-71e4-4ddc-a5c0-1dde0e81bd56 path,#chart-e8f3b23f-71e4-4ddc-a5c0-1dde0e81bd56 line,#chart-e8f3b23f-71e4-4ddc-a5c0-1dde0e81bd56 rect,#chart-e8f3b23f-71e4-4ddc-a5c0-1dde0e81bd56 circle{-webkit-transition:150ms;-moz-transition:150ms;transition:150ms}#chart-e8f3b23f-71e4-4ddc-a5c0-1dde0e81bd56 .graph &gt; .background{fill:rgba(249,249,249,1)}#chart-e8f3b23f-71e4-4ddc-a5c0-1dde0e81bd56 .plot &gt; .background{fill:rgba(255,255,255,1)}#chart-e8f3b23f-71e4-4ddc-a5c0-1dde0e81bd56 .graph{fill:rgba(0,0,0,.87)}#chart-e8f3b23f-71e4-4ddc-a5c0-1dde0e81bd56 text.no_data{fill:rgba(0,0,0,1)}#chart-e8f3b23f-71e4-4ddc-a5c0-1dde0e81bd56 .title{fill:rgba(0,0,0,1)}#chart-e8f3b23f-71e4-4ddc-a5c0-1dde0e81bd56 .legends .legend text{fill:rgba(0,0,0,.87)}#chart-e8f3b23f-71e4-4ddc-a5c0-1dde0e81bd56 .legends .legend:hover text{fill:rgba(0,0,0,1)}#chart-e8f3b23f-71e4-4ddc-a5c0-1dde0e81bd56 .axis .line{stroke:rgba(0,0,0,1)}#chart-e8f3b23f-71e4-4ddc-a5c0-1dde0e81bd56 .axis .guide.line{stroke:rgba(0,0,0,.54)}#chart-e8f3b23f-71e4-4ddc-a5c0-1dde0e81bd56 .axis .major.line{stroke:rgba(0,0,0,.87)}#chart-e8f3b23f-71e4-4ddc-a5c0-1dde0e81bd56 .axis text.major{fill:rgba(0,0,0,1)}#chart-e8f3b23f-71e4-4ddc-a5c0-1dde0e81bd56 .axis.y .guides:hover .guide.line,#chart-e8f3b23f-71e4-4ddc-a5c0-1dde0e81bd56 .line-graph .axis.x .guides:hover .guide.line,#chart-e8f3b23f-71e4-4ddc-a5c0-1dde0e81bd56 .stackedline-graph .axis.x .guides:hover .guide.line,#chart-e8f3b23f-71e4-4ddc-a5c0-1dde0e81bd56 .xy-graph .axis.x .guides:hover .guide.line{stroke:rgba(0,0,0,1)}#chart-e8f3b23f-71e4-4ddc-a5c0-1dde0e81bd56 .axis .guides:hover text{fill:rgba(0,0,0,1)}#chart-e8f3b23f-71e4-4ddc-a5c0-1dde0e81bd56 .reactive{fill-opacity:.7;stroke-opacity:.8}#chart-e8f3b23f-71e4-4ddc-a5c0-1dde0e81bd56 .ci{stroke:rgba(0,0,0,.87)}#chart-e8f3b23f-71e4-4ddc-a5c0-1dde0e81bd56 .reactive.active,#chart-e8f3b23f-71e4-4ddc-a5c0-1dde0e81bd56 .active .reactive{fill-opacity:.8;stroke-opacity:.9;stroke-width:4}#chart-e8f3b23f-71e4-4ddc-a5c0-1dde0e81bd56 .ci .reactive.active{stroke-width:1.5}#chart-e8f3b23f-71e4-4ddc-a5c0-1dde0e81bd56 .series text{fill:rgba(0,0,0,1)}#chart-e8f3b23f-71e4-4ddc-a5c0-1dde0e81bd56 .tooltip rect{fill:rgba(255,255,255,1);stroke:rgba(0,0,0,1);-webkit-transition:opacity 150ms;-moz-transition:opacity 150ms;transition:opacity 150ms}#chart-e8f3b23f-71e4-4ddc-a5c0-1dde0e81bd56 .tooltip .label{fill:rgba(0,0,0,.87)}#chart-e8f3b23f-71e4-4ddc-a5c0-1dde0e81bd56 .tooltip .label{fill:rgba(0,0,0,.87)}#chart-e8f3b23f-71e4-4ddc-a5c0-1dde0e81bd56 .tooltip .legend{font-size:.8em;fill:rgba(0,0,0,.54)}#chart-e8f3b23f-71e4-4ddc-a5c0-1dde0e81bd56 .tooltip .x_label{font-size:.6em;fill:rgba(0,0,0,1)}#chart-e8f3b23f-71e4-4ddc-a5c0-1dde0e81bd56 .tooltip .xlink{font-size:.5em;text-decoration:underline}#chart-e8f3b23f-71e4-4ddc-a5c0-1dde0e81bd56 .tooltip .value{font-size:1.5em}#chart-e8f3b23f-71e4-4ddc-a5c0-1dde0e81bd56 .bound{font-size:.5em}#chart-e8f3b23f-71e4-4ddc-a5c0-1dde0e81bd56 .max-value{font-size:.75em;fill:rgba(0,0,0,.54)}#chart-e8f3b23f-71e4-4ddc-a5c0-1dde0e81bd56 .map-element{fill:rgba(255,255,255,1);stroke:rgba(0,0,0,.54) !important}#chart-e8f3b23f-71e4-4ddc-a5c0-1dde0e81bd56 .map-element .reactive{fill-opacity:inherit;stroke-opacity:inherit}#chart-e8f3b23f-71e4-4ddc-a5c0-1dde0e81bd56 .color-0,#chart-e8f3b23f-71e4-4ddc-a5c0-1dde0e81bd56 .color-0 a:visited{stroke:red;fill:red}#chart-e8f3b23f-71e4-4ddc-a5c0-1dde0e81bd56 .color-1,#chart-e8f3b23f-71e4-4ddc-a5c0-1dde0e81bd56 .color-1 a:visited{stroke:blue;fill:blue}#chart-e8f3b23f-71e4-4ddc-a5c0-1dde0e81bd56 .color-2,#chart-e8f3b23f-71e4-4ddc-a5c0-1dde0e81bd56 .color-2 a:visited{stroke:green;fill:green}#chart-e8f3b23f-71e4-4ddc-a5c0-1dde0e81bd56 .text-overlay .color-0 text{fill:white}#chart-e8f3b23f-71e4-4ddc-a5c0-1dde0e81bd56 .text-overlay .color-1 text{fill:white}#chart-e8f3b23f-71e4-4ddc-a5c0-1dde0e81bd56 .text-overlay .color-2 text{fill:white}
#chart-e8f3b23f-71e4-4ddc-a5c0-1dde0e81bd56 text.no_data{text-anchor:middle}#chart-e8f3b23f-71e4-4ddc-a5c0-1dde0e81bd56 .guide.line{fill:none}#chart-e8f3b23f-71e4-4ddc-a5c0-1dde0e81bd56 .centered{text-anchor:middle}#chart-e8f3b23f-71e4-4ddc-a5c0-1dde0e81bd56 .title{text-anchor:middle}#chart-e8f3b23f-71e4-4ddc-a5c0-1dde0e81bd56 .legends .legend text{fill-opacity:1}#chart-e8f3b23f-71e4-4ddc-a5c0-1dde0e81bd56 .axis.x text{text-anchor:middle}#chart-e8f3b23f-71e4-4ddc-a5c0-1dde0e81bd56 .axis.x:not(.web) text[transform]{text-anchor:start}#chart-e8f3b23f-71e4-4ddc-a5c0-1dde0e81bd56 .axis.x:not(.web) text[transform].backwards{text-anchor:end}#chart-e8f3b23f-71e4-4ddc-a5c0-1dde0e81bd56 .axis.y text{text-anchor:end}#chart-e8f3b23f-71e4-4ddc-a5c0-1dde0e81bd56 .axis.y text[transform].backwards{text-anchor:start}#chart-e8f3b23f-71e4-4ddc-a5c0-1dde0e81bd56 .axis.y2 text{text-anchor:start}#chart-e8f3b23f-71e4-4ddc-a5c0-1dde0e81bd56 .axis.y2 text[transform].backwards{text-anchor:end}#chart-e8f3b23f-71e4-4ddc-a5c0-1dde0e81bd56 .axis .guide.line{stroke-dasharray:4,4}#chart-e8f3b23f-71e4-4ddc-a5c0-1dde0e81bd56 .axis .major.guide.line{stroke-dasharray:6,6}#chart-e8f3b23f-71e4-4ddc-a5c0-1dde0e81bd56 .horizontal .axis.y .guide.line,#chart-e8f3b23f-71e4-4ddc-a5c0-1dde0e81bd56 .horizontal .axis.y2 .guide.line,#chart-e8f3b23f-71e4-4ddc-a5c0-1dde0e81bd56 .vertical .axis.x .guide.line{opacity:0}#chart-e8f3b23f-71e4-4ddc-a5c0-1dde0e81bd56 .horizontal .axis.always_show .guide.line,#chart-e8f3b23f-71e4-4ddc-a5c0-1dde0e81bd56 .vertical .axis.always_show .guide.line{opacity:1 !important}#chart-e8f3b23f-71e4-4ddc-a5c0-1dde0e81bd56 .axis.y .guides:hover .guide.line,#chart-e8f3b23f-71e4-4ddc-a5c0-1dde0e81bd56 .axis.y2 .guides:hover .guide.line,#chart-e8f3b23f-71e4-4ddc-a5c0-1dde0e81bd56 .axis.x .guides:hover .guide.line{opacity:1}#chart-e8f3b23f-71e4-4ddc-a5c0-1dde0e81bd56 .axis .guides:hover text{opacity:1}#chart-e8f3b23f-71e4-4ddc-a5c0-1dde0e81bd56 .nofill{fill:none}#chart-e8f3b23f-71e4-4ddc-a5c0-1dde0e81bd56 .subtle-fill{fill-opacity:.2}#chart-e8f3b23f-71e4-4ddc-a5c0-1dde0e81bd56 .dot{stroke-width:1px;fill-opacity:1}#chart-e8f3b23f-71e4-4ddc-a5c0-1dde0e81bd56 .dot.active{stroke-width:5px}#chart-e8f3b23f-71e4-4ddc-a5c0-1dde0e81bd56 .dot.negative{fill:transparent}#chart-e8f3b23f-71e4-4ddc-a5c0-1dde0e81bd56 text,#chart-e8f3b23f-71e4-4ddc-a5c0-1dde0e81bd56 tspan{stroke:none !important}#chart-e8f3b23f-71e4-4ddc-a5c0-1dde0e81bd56 .series text.active{opacity:1}#chart-e8f3b23f-71e4-4ddc-a5c0-1dde0e81bd56 .tooltip rect{fill-opacity:.95;stroke-width:.5}#chart-e8f3b23f-71e4-4ddc-a5c0-1dde0e81bd56 .tooltip text{fill-opacity:1}#chart-e8f3b23f-71e4-4ddc-a5c0-1dde0e81bd56 .showable{visibility:hidden}#chart-e8f3b23f-71e4-4ddc-a5c0-1dde0e81bd56 .showable.shown{visibility:visible}#chart-e8f3b23f-71e4-4ddc-a5c0-1dde0e81bd56 .gauge-background{fill:rgba(229,229,229,1);stroke:none}#chart-e8f3b23f-71e4-4ddc-a5c0-1dde0e81bd56 .bg-lines{stroke:rgba(249,249,249,1);stroke-width:2px}</style><script type="text/javascript">window.pygal = window.pygal || {};window.pygal.config = window.pygal.config || {};window.pygal.config['e8f3b23f-71e4-4ddc-a5c0-1dde0e81bd56'] = {"allow_interruptions": false, "box_mode": "extremes", "classes": ["pygal-chart"], "css": ["file://style.css", "file://graph.css"], "defs": [], "disable_xml_declaration": false, "dots_size": 2.5, "dynamic_print_values": false, "explicit_size": false, "fill": false, "force_uri_protocol": "https", "formatter": null, "half_pie": false, "height": 600, "include_x_axis": false, "inner_radius": 0, "interpolate": null, "interpolation_parameters": {}, "interpolation_precision": 250, "inverse_y_axis": false, "js": ["//kozea.github.io/pygal.js/2.0.x/pygal-tooltips.min.js"], "legend_at_bottom": true, "legend_at_bottom_columns": null, "legend_box_size": 12, "logarithmic": false, "margin": 20, "margin_bottom": null, "margin_left": null, "margin_right": null, "margin_top": null, "max_scale": 16, "min_scale": 4, "missing_value_fill_truncation": "x", "no_data_text": "No data", "no_prefix": false, "order_min": null, "pretty_print": false, "print_labels": false, "print_values": false, "print_values_position": "center", "print_zeroes": true, "range": null, "rounded_bars": null, "secondary_range": null, "show_dots": true, "show_legend": true, "show_minor_x_labels": false, "show_minor_y_labels": true, "show_only_major_dots": false, "show_x_guides": false, "show_x_labels": true, "show_y_guides": true, "show_y_labels": true, "spacing": 10, "stack_from_top": false, "strict": false, "stroke": true, "stroke_style": null, "style": {"background": "rgba(249, 249, 249, 1)", "ci_colors": [], "colors": ["red", "blue", "green", "#a3a3a3"], "font_family": "Consolas, \"Liberation Mono\", Menlo, Courier, monospace", "foreground": "rgba(0, 0, 0, .87)", "foreground_strong": "rgba(0, 0, 0, 1)", "foreground_subtle": "rgba(0, 0, 0, .54)", "guide_stroke_dasharray": "4,4", "label_font_family": "Consolas, \"Liberation Mono\", Menlo, Courier, monospace", "label_font_size": 10, "legend_font_family": "Consolas, \"Liberation Mono\", Menlo, Courier, monospace", "legend_font_size": 14, "major_guide_stroke_dasharray": "6,6", "major_label_font_family": "Consolas, \"Liberation Mono\", Menlo, Courier, monospace", "major_label_font_size": 10, "no_data_font_family": "Consolas, \"Liberation Mono\", Menlo, Courier, monospace", "no_data_font_size": 64, "opacity": ".7", "opacity_hover": ".8", "plot_background": "rgba(255, 255, 255, 1)", "stroke_opacity": ".8", "stroke_opacity_hover": ".9", "title_font_family": "Consolas, \"Liberation Mono\", Menlo, Courier, monospace", "title_font_size": 16, "tooltip_font_family": "Consolas, \"Liberation Mono\", Menlo, Courier, monospace", "tooltip_font_size": 14, "transition": "150ms", "value_background": "rgba(229, 229, 229, 1)", "value_colors": [], "value_font_family": "Consolas, \"Liberation Mono\", Menlo, Courier, monospace", "value_font_size": 16, "value_label_font_family": "Consolas, \"Liberation Mono\", Menlo, Courier, monospace", "value_label_font_size": 10}, "title": "R Ashwin: Future and Past Averages in ODIs", "tooltip_border_radius": 10, "tooltip_fancy_mode": true, "truncate_label": null, "truncate_legend": null, "width": 800, "x_label_rotation": 45, "x_labels": ["2010", "0", "0", "0", "0", "0", "0", "2011", "0", "0", "0", "0", "0", "0", "0", "0", "0", "0", "0", "0", "0", "0", "0", "0", "2012", "0", "0", "0", "0", "0", "0", "0", "0", "0", "0", "0", "0", "0", "0", "0", "2013", "0", "0", "0", "0", "0", "0", "0", "0", "0", "0", "0", "0", "0", "0", "0", "0", "0", "0", "0", "0", "0", "0", "0", "0", "0", "0", "0", "0", "2014", "0", "0", "0", "0", "0", "0", "0", "0", "0", "0", "0", "0", "0", "0", "0", "0", "2015", "0", "0", "0", "0", "0", "0", "0", "0", "0", "0", "0", "0", "2016", "0", "2017", "0", "0", "0", "0", "0", "0", "0"], "x_labels_major": ["2010", "2011", "2012", "2013", "2014", "2015", "2016", "2017"], "x_labels_major_count": null, "x_labels_major_every": null, "x_title": null, "xrange": null, "y_label_rotation": 0, "y_labels": null, "y_labels_major": null, "y_labels_major_count": null, "y_labels_major_every": null, "y_title": null, "zero": 70.0, "legends": ["Future Average", "Past Average", "Career Average"]}</script><script type="text/javascript" xlink:href="https://kozea.github.io/pygal.js/2.0.x/pygal-tooltips.min.js"/></defs><title>R Ashwin: Future and Past Averages in ODIs</title><g class="graph line-graph vertical"><rect class="background" height="600" width="800" x="0" y="0"/><g class="plot" transform="translate(42, 46)"><rect class="background" height="462.02943725152284" width="738.0" x="0" y="0"/><g class="axis y always_show"><g class="guides"><path class="axis major line" d="M0.000000 453.144256 h738.000000"/><text class="major" x="-5" y="456.6442557659166">0</text><title>0</title></g><g class="guides"><path class="guide line" d="M0.000000 380.612162 h738.000000"/><text class="" x="-5" y="384.11216200586597">10</text><title>10</title></g><g class="guides"><path class="guide line" d="M0.000000 308.080068 h738.000000"/><text class="" x="-5" y="311.58006824581526">20</text><title>20</title></g><g class="guides"><path class="guide line" d="M0.000000 235.547974 h738.000000"/><text class="" x="-5" y="239.04797448576457">30</text><title>30</title></g><g class="guides"><path class="guide line" d="M0.000000 163.015881 h738.000000"/><text class="" x="-5" y="166.51588072571388">40</text><title>40</title></g><g class="guides"><path class="major guide line" d="M0.000000 90.483787 h738.000000"/><text class="major" x="-5" y="93.98378696566323">50</text><title>50</title></g><g class="guides"><path class="guide line" d="M0.000000 17.951693 h738.000000"/><text class="" x="-5" y="21.451693205612514">60</text><title>60</title></g></g><g class="axis x"><g class="guides"><path class="major line" d="M14.192308 0.000000 v462.029437"/><text class="major" x="14.192307692307692" y="477.02943725152284" transform="rotate(45 14.192308 477.029437)">2010</text></g><g class="guides"><path class="major guide line" d="M60.185897 0.000000 v462.029437"/><text class="major" x="60.18589743589743" y="477.02943725152284" transform="rotate(45 60.185897 477.029437)">2011</text></g><g class="guides"><path class="major guide line" d="M171.884615 0.000000 v462.029437"/><text class="major" x="171.88461538461536" y="477.02943725152284" transform="rotate(45 171.884615 477.029437)">2012</text></g><g class="guides"><path class="major guide line" d="M277.012821 0.000000 v462.029437"/><text class="major" x="277.0128205128205" y="477.02943725152284" transform="rotate(45 277.012821 477.029437)">2013</text></g><g class="guides"><path class="major guide line" d="M467.557692 0.000000 v462.029437"/><text class="major" x="467.55769230769226" y="477.02943725152284" transform="rotate(45 467.557692 477.029437)">2014</text></g><g class="guides"><path class="major guide line" d="M579.256410 0.000000 v462.029437"/><text class="major" x="579.2564102564102" y="477.02943725152284" transform="rotate(45 579.256410 477.029437)">2015</text></g><g class="guides"><path class="major guide line" d="M664.673077 0.000000 v462.029437"/><text class="major" x="664.6730769230769" y="477.02943725152284" transform="rotate(45 664.673077 477.029437)">2016</text></g><g class="guides"><path class="major guide line" d="M677.814103 0.000000 v462.029437"/><text class="major" x="677.8141025641027" y="477.02943725152284" transform="rotate(45 677.814103 477.029437)">2017</text></g></g><g class="series serie-0 color-0"><path class="line reactive nofill" d="M14.192308 214.441135 L20.762821 213.643282 27.333333 213.715814 33.903846 211.249723 40.474359 212.192640 47.044872 211.249723 53.615385 211.249723 60.185897 207.187926 66.756410 205.737284 73.326923 204.866899 79.897436 205.084495 86.467949 207.840715 93.038462 206.390073 99.608974 202.836000 106.179487 203.416257 112.750000 204.866899 119.320513 200.805102 125.891026 202.110679 132.461538 204.794367 139.032051 200.805102 145.602564 196.017983 152.173077 195.655323 158.743590 198.121414 165.314103 197.976350 171.884615 199.572056 178.455128 202.690936 185.025641 197.903818 191.596154 201.022698 198.166667 198.339010 204.737179 196.888369 211.307692 200.079781 217.878205 203.706385 224.448718 199.064331 231.019231 200.587505 237.589744 202.110679 244.160256 200.369909 250.730769 199.136863 257.301282 202.908532 263.871795 201.167762 270.442308 203.996514 277.012821 206.607669 283.583333 207.768183 290.153846 206.172477 296.724359 211.032127 303.294872 205.954880 309.865385 203.343725 316.435897 202.836000 323.006410 207.115394 329.576923 211.177191 336.147436 211.394787 342.717949 208.566036 349.288462 203.633853 355.858974 198.484075 362.429487 195.945451 369.000000 199.064331 375.570513 201.602955 382.141026 200.079781 388.711538 197.178497 395.282051 195.582791 401.852564 197.105965 408.423077 203.416257 414.993590 202.038147 421.564103 201.457890 428.134615 199.281928 434.705128 195.872919 441.275641 191.520994 447.846154 187.966921 454.416667 195.582791 460.987179 197.251029 467.557692 205.737284 474.128205 212.700365 480.698718 219.445850 487.269231 221.476748 493.839744 227.061720 500.410256 232.138966 506.980769 234.822654 513.551282 232.211498 520.121795 224.885757 526.692308 214.441135 533.262821 209.654017 539.833333 198.193946 546.403846 200.587505 552.974359 203.416257 559.544872 206.970330 566.115385 202.908532 572.685897 204.794367 579.256410 201.820551 585.826923 206.535137 592.397436 208.275907 598.967949 191.448461 605.538462 152.136067 612.108974 150.903021 618.679487 133.640383 625.250000 146.115903 631.820513 158.156230 638.391026 158.736487 644.961538 122.107780 651.532051 114.491910 658.102564 75.977368 664.673077 48.415173 671.243590 8.885181 677.814103 63.284252 684.384615 120.367010 690.955128 15.050409 697.525641 102.088922 704.096154 92.297089 710.666667 190.215416 717.237179 317.146580 723.807692 385.471812"/></g><g class="series serie-1 color-1"><path class="line reactive nofill" d="M14.192308 453.144256 L20.762821 271.814021 27.333333 250.054393 33.903846 291.180090 40.474359 260.426483 47.044872 263.762959 53.615385 254.696447 60.185897 284.797266 66.756410 287.190825 73.326923 284.724734 79.897436 278.704570 86.467949 259.628630 93.038462 263.545363 99.608974 275.150498 106.179487 269.492994 112.750000 262.239785 119.320513 273.627324 125.891026 265.793858 132.461538 254.551383 139.032051 264.560812 145.602564 274.932901 152.173077 273.844920 158.743590 264.198152 165.314103 262.820042 171.884615 256.727346 178.455128 247.805898 185.025641 256.944942 191.596154 248.821348 198.166667 253.173273 204.737179 253.971126 211.307692 246.935513 217.878205 238.666855 224.448718 246.065128 231.019231 242.075863 237.589744 238.231662 244.160256 240.044964 250.730769 241.568138 257.301282 234.895186 263.871795 236.708488 270.442308 231.921370 277.012821 227.496912 283.583333 225.248417 290.153846 227.206784 296.724359 219.663446 303.294872 226.408931 309.865385 229.310214 316.435897 229.165150 323.006410 223.652711 329.576923 218.502932 336.147436 218.140272 342.717949 221.259152 349.288462 226.046270 355.858974 230.760856 362.429487 232.429094 369.000000 228.947554 375.570513 226.626527 382.141026 227.641976 388.711538 229.455279 395.282051 230.035535 401.852564 228.367297 408.423077 223.290051 414.993590 223.870307 421.564103 223.797775 428.134615 224.813225 434.705128 226.481463 441.275641 228.439829 447.846154 229.745407 454.416667 225.320949 460.987179 224.087904 467.557692 219.300785 474.128205 215.384052 480.698718 211.612384 487.269231 210.596934 493.839744 207.478054 500.410256 204.721835 506.980769 203.561321 513.551282 205.519688 520.121795 209.654017 526.692308 214.368603 533.262821 216.254438 539.833333 220.098639 546.403846 219.083189 552.974359 217.995208 559.544872 216.762162 566.115385 217.777612 572.685897 217.124823 579.256410 217.705079 585.826923 216.399502 592.397436 215.891777 598.967949 219.228253 605.538462 225.103353 612.108974 224.740693 618.679487 226.118802 625.250000 223.725243 631.820513 222.057005 638.391026 221.549280 644.961538 223.942839 651.532051 223.870307 658.102564 225.393481 664.673077 226.263866 671.243590 225.973738 677.814103 222.927390 684.384615 219.735978 690.955128 221.259152 697.525641 218.285336 704.096154 217.777612 710.666667 215.093924 717.237179 211.612384 723.807692 210.959595"/></g><g class="series serie-2 color-2"><path class="line reactive nofill" d="M14.192308 214.441135 L20.762821 214.441135 27.333333 214.441135 33.903846 214.441135 40.474359 214.441135 47.044872 214.441135 53.615385 214.441135 60.185897 214.441135 66.756410 214.441135 73.326923 214.441135 79.897436 214.441135 86.467949 214.441135 93.038462 214.441135 99.608974 214.441135 106.179487 214.441135 112.750000 214.441135 119.320513 214.441135 125.891026 214.441135 132.461538 214.441135 139.032051 214.441135 145.602564 214.441135 152.173077 214.441135 158.743590 214.441135 165.314103 214.441135 171.884615 214.441135 178.455128 214.441135 185.025641 214.441135 191.596154 214.441135 198.166667 214.441135 204.737179 214.441135 211.307692 214.441135 217.878205 214.441135 224.448718 214.441135 231.019231 214.441135 237.589744 214.441135 244.160256 214.441135 250.730769 214.441135 257.301282 214.441135 263.871795 214.441135 270.442308 214.441135 277.012821 214.441135 283.583333 214.441135 290.153846 214.441135 296.724359 214.441135 303.294872 214.441135 309.865385 214.441135 316.435897 214.441135 323.006410 214.441135 329.576923 214.441135 336.147436 214.441135 342.717949 214.441135 349.288462 214.441135 355.858974 214.441135 362.429487 214.441135 369.000000 214.441135 375.570513 214.441135 382.141026 214.441135 388.711538 214.441135 395.282051 214.441135 401.852564 214.441135 408.423077 214.441135 414.993590 214.441135 421.564103 214.441135 428.134615 214.441135 434.705128 214.441135 441.275641 214.441135 447.846154 214.441135 454.416667 214.441135 460.987179 214.441135 467.557692 214.441135 474.128205 214.441135 480.698718 214.441135 487.269231 214.441135 493.839744 214.441135 500.410256 214.441135 506.980769 214.441135 513.551282 214.441135 520.121795 214.441135 526.692308 214.441135 533.262821 214.441135 539.833333 214.441135 546.403846 214.441135 552.974359 214.441135 559.544872 214.441135 566.115385 214.441135 572.685897 214.441135 579.256410 214.441135 585.826923 214.441135 592.397436 214.441135 598.967949 214.441135 605.538462 214.441135 612.108974 214.441135 618.679487 214.441135 625.250000 214.441135 631.820513 214.441135 638.391026 214.441135 644.961538 214.441135 651.532051 214.441135 658.102564 214.441135 664.673077 214.441135 671.243590 214.441135 677.814103 214.441135 684.384615 214.441135 690.955128 214.441135 697.525641 214.441135 704.096154 214.441135 710.666667 214.441135 717.237179 214.441135 723.807692 214.441135"/></g></g><g class="titles"><text class="title plot_title" x="400.0" y="26">R Ashwin: Future and Past Averages in ODIs</text></g><g class="plot overlay" transform="translate(42, 46)"><g class="series serie-0 color-0"><g class="dots"><desc class="label">150 wickets in 109 innings (1003.3 overs)</desc><circle class="dot reactive tooltip-trigger" cx="14.192307692307692" cy="214.44113520158987" r="2.5"/><desc class="value">32.91</desc><desc class="x ">14.192307692307692</desc><desc class="y ">214.44113520158987</desc><desc class="x_label">2010</desc></g><g class="dots"><desc class="label">136 wickets in 102 innings (937.3 overs)</desc><circle class="dot reactive tooltip-trigger" cx="60.18589743589743" cy="207.18792582558478" r="2.5"/><desc class="value">33.91</desc><desc class="x ">60.18589743589743</desc><desc class="y ">207.18792582558478</desc><desc class="x_label">2011</desc></g><g class="dots"><desc class="label">111 wickets in 85 innings (782.2 overs)</desc><circle class="dot reactive tooltip-trigger" cx="171.88461538461536" cy="199.57205598077945" r="2.5"/><desc class="value">34.96</desc><desc class="x ">171.88461538461536</desc><desc class="y ">199.57205598077945</desc><desc class="x_label">2012</desc></g><g class="dots"><desc class="label">94 wickets in 69 innings (636.2 overs)</desc><circle class="dot reactive tooltip-trigger" cx="277.0128205128205" cy="206.60766907550436" r="2.5"/><desc class="value">33.99</desc><desc class="x ">277.0128205128205</desc><desc class="y ">206.60766907550436</desc><desc class="x_label">2013</desc></g><g class="dots"><desc class="label">54 wickets in 40 innings (376.3 overs)</desc><circle class="dot reactive tooltip-trigger" cx="467.55769230769226" cy="205.73728395038376" r="2.5"/><desc class="value">34.11</desc><desc class="x left">467.55769230769226</desc><desc class="y left">205.73728395038376</desc><desc class="x_label">2014</desc></g><g class="dots"><desc class="label">31 wickets in 23 innings (214.4 overs)</desc><circle class="dot reactive tooltip-trigger" cx="579.2564102564102" cy="201.82055088734103" r="2.5"/><desc class="value">34.65</desc><desc class="x left">579.2564102564102</desc><desc class="y left">201.82055088734103</desc><desc class="x_label">2015</desc></g><g class="dots"><desc class="label">10 wickets in 10 innings (94.0 overs)</desc><circle class="dot reactive tooltip-trigger" cx="664.6730769230769" cy="48.41517258483384" r="2.5"/><desc class="value">55.8</desc><desc class="x left">664.6730769230769</desc><desc class="y left">48.41517258483384</desc><desc class="x_label">2016</desc></g><g class="dots"><desc class="label">8 wickets in 8 innings (75.0 overs)</desc><circle class="dot reactive tooltip-trigger" cx="677.8141025641027" cy="63.2842518056442" r="2.5"/><desc class="value">53.75</desc><desc class="x left">677.8141025641027</desc><desc class="y left">63.2842518056442</desc><desc class="x_label">2017</desc></g></g><g class="series serie-1 color-1"><g class="dots"><desc class="label">0 wickets over 0 innings</desc><circle class="dot reactive tooltip-trigger" cx="14.192307692307692" cy="453.1442557659166" r="2.5"/><desc class="value">0</desc><desc class="x top">14.192307692307692</desc><desc class="y top">453.1442557659166</desc><desc class="x_label">2010</desc></g><g class="dots"><desc class="label">14 wickets in 7 innings (66.0 overs)</desc><circle class="dot reactive tooltip-trigger" cx="60.18589743589743" cy="284.79726614883896" r="2.5"/><desc class="value">23.21</desc><desc class="x top">60.18589743589743</desc><desc class="y top">284.79726614883896</desc><desc class="x_label">2011</desc></g><g class="dots"><desc class="label">39 wickets in 24 innings (221.1 overs)</desc><circle class="dot reactive tooltip-trigger" cx="171.88461538461536" cy="256.7273458636994" r="2.5"/><desc class="value">27.08</desc><desc class="x top">171.88461538461536</desc><desc class="y top">256.7273458636994</desc><desc class="x_label">2012</desc></g><g class="dots"><desc class="label">56 wickets in 40 innings (367.1 overs)</desc><circle class="dot reactive tooltip-trigger" cx="277.0128205128205" cy="227.49691207839896" r="2.5"/><desc class="value">31.11</desc><desc class="x ">277.0128205128205</desc><desc class="y ">227.49691207839896</desc><desc class="x_label">2013</desc></g><g class="dots"><desc class="label">96 wickets in 69 innings (627.0 overs)</desc><circle class="dot reactive tooltip-trigger" cx="467.55769230769226" cy="219.30078548351324" r="2.5"/><desc class="value">32.24</desc><desc class="x left">467.55769230769226</desc><desc class="y left">219.30078548351324</desc><desc class="x_label">2014</desc></g><g class="dots"><desc class="label">119 wickets in 86 innings (788.5 overs)</desc><circle class="dot reactive tooltip-trigger" cx="579.2564102564102" cy="217.7050794207921" r="2.5"/><desc class="value">32.46</desc><desc class="x left">579.2564102564102</desc><desc class="y left">217.7050794207921</desc><desc class="x_label">2015</desc></g><g class="dots"><desc class="label">140 wickets in 99 innings (909.3 overs)</desc><circle class="dot reactive tooltip-trigger" cx="664.6730769230769" cy="226.2638664844781" r="2.5"/><desc class="value">31.28</desc><desc class="x left">664.6730769230769</desc><desc class="y left">226.2638664844781</desc><desc class="x_label">2016</desc></g><g class="dots"><desc class="label">142 wickets in 101 innings (928.3 overs)</desc><circle class="dot reactive tooltip-trigger" cx="677.8141025641027" cy="222.9273901715158" r="2.5"/><desc class="value">31.74</desc><desc class="x left">677.8141025641027</desc><desc class="y left">222.9273901715158</desc><desc class="x_label">2017</desc></g></g><g class="series serie-2 color-2"/></g><g class="plot text-overlay" transform="translate(42, 46)"><g class="series serie-0 color-0"/><g class="series serie-1 color-1"/><g class="series serie-2 color-2"/></g><g class="plot tooltip-overlay" transform="translate(42, 46)"><g class="tooltip" style="opacity: 0" transform="translate(0 0)"><rect class="tooltip-box" height="0" rx="10" ry="10" width="0"/><g class="text"/></g></g><g class="legends" transform="translate(52, 545)"><g class="legend reactive activate-serie" id="activate-serie-0"><rect class="color-0 reactive" height="12" width="12" x="0.0" y="1.0"/><text x="17.0" y="11.2">Future Average</text></g><g class="legend reactive activate-serie" id="activate-serie-1"><rect class="color-1 reactive" height="12" width="12" x="369.0" y="1.0"/><text x="386.0" y="11.2">Past Average</text></g><g class="legend reactive activate-serie" id="activate-serie-2"><rect class="color-2 reactive" height="12" width="12" x="0.0" y="22.0"/><text x="17.0" y="32.2">Career Average</text></g></g></g></svg>