<?xml version='1.0' encoding='utf-8'?>
<svg xmlns:xlink="http://www.w3.org/1999/xlink" xmlns="http://www.w3.org/2000/svg" id="chart-e5357353-7331-4dd4-bcbf-29e056fdc0e5" class="pygal-chart" viewBox="0 0 800 600"><!--Generated with pygal 2.4.0 (lxml) ©Kozea 2012-2016 on 2019-08-04--><!--http://pygal.org--><!--http://github.com/Kozea/pygal--><defs><style type="text/css">#chart-e5357353-7331-4dd4-bcbf-29e056fdc0e5{-webkit-user-select:none;-webkit-font-smoothing:antialiased;font-family:Consolas,"Liberation Mono",Menlo,Courier,monospace}#chart-e5357353-7331-4dd4-bcbf-29e056fdc0e5 .title{font-family:Consolas,"Liberation Mono",Menlo,Courier,monospace;font-size:16px}#chart-e5357353-7331-4dd4-bcbf-29e056fdc0e5 .legends .legend text{font-family:Consolas,"Liberation Mono",Menlo,Courier,monospace;font-size:14px}#chart-e5357353-7331-4dd4-bcbf-29e056fdc0e5 .axis text{font-family:Consolas,"Liberation Mono",Menlo,Courier,monospace;font-size:10px}#chart-e5357353-7331-4dd4-bcbf-29e056fdc0e5 .axis text.major{font-family:Consolas,"Liberation Mono",Menlo,Courier,monospace;font-size:10px}#chart-e5357353-7331-4dd4-bcbf-29e056fdc0e5 .text-overlay text.value{font-family:Consolas,"Liberation Mono",Menlo,Courier,monospace;font-size:16px}#chart-e5357353-7331-4dd4-bcbf-29e056fdc0e5 .text-overlay text.label{font-family:Consolas,"Liberation Mono",Menlo,Courier,monospace;font-size:10px}#chart-e5357353-7331-4dd4-bcbf-29e056fdc0e5 .tooltip{font-family:Consolas,"Liberation Mono",Menlo,Courier,monospace;font-size:14px}#chart-e5357353-7331-4dd4-bcbf-29e056fdc0e5 text.no_data{font-family:Consolas,"Liberation Mono",Menlo,Courier,monospace;font-size:64px}
#chart-e5357353-7331-4dd4-bcbf-29e056fdc0e5{background-color:rgba(249,249,249,1)}#chart-e5357353-7331-4dd4-bcbf-29e056fdc0e5 path,#chart-e5357353-7331-4dd4-bcbf-29e056fdc0e5 line,#chart-e5357353-7331-4dd4-bcbf-29e056fdc0e5 rect,#chart-e5357353-7331-4dd4-bcbf-29e056fdc0e5 circle{-webkit-transition:150ms;-moz-transition:150ms;transition:150ms}#chart-e5357353-7331-4dd4-bcbf-29e056fdc0e5 .graph &gt; .background{fill:rgba(249,249,249,1)}#chart-e5357353-7331-4dd4-bcbf-29e056fdc0e5 .plot &gt; .background{fill:rgba(255,255,255,1)}#chart-e5357353-7331-4dd4-bcbf-29e056fdc0e5 .graph{fill:rgba(0,0,0,.87)}#chart-e5357353-7331-4dd4-bcbf-29e056fdc0e5 text.no_data{fill:rgba(0,0,0,1)}#chart-e5357353-7331-4dd4-bcbf-29e056fdc0e5 .title{fill:rgba(0,0,0,1)}#chart-e5357353-7331-4dd4-bcbf-29e056fdc0e5 .legends .legend text{fill:rgba(0,0,0,.87)}#chart-e5357353-7331-4dd4-bcbf-29e056fdc0e5 .legends .legend:hover text{fill:rgba(0,0,0,1)}#chart-e5357353-7331-4dd4-bcbf-29e056fdc0e5 .axis .line{stroke:rgba(0,0,0,1)}#chart-e5357353-7331-4dd4-bcbf-29e056fdc0e5 .axis .guide.line{stroke:rgba(0,0,0,.54)}#chart-e5357353-7331-4dd4-bcbf-29e056fdc0e5 .axis .major.line{stroke:rgba(0,0,0,.87)}#chart-e5357353-7331-4dd4-bcbf-29e056fdc0e5 .axis text.major{fill:rgba(0,0,0,1)}#chart-e5357353-7331-4dd4-bcbf-29e056fdc0e5 .axis.y .guides:hover .guide.line,#chart-e5357353-7331-4dd4-bcbf-29e056fdc0e5 .line-graph .axis.x .guides:hover .guide.line,#chart-e5357353-7331-4dd4-bcbf-29e056fdc0e5 .stackedline-graph .axis.x .guides:hover .guide.line,#chart-e5357353-7331-4dd4-bcbf-29e056fdc0e5 .xy-graph .axis.x .guides:hover .guide.line{stroke:rgba(0,0,0,1)}#chart-e5357353-7331-4dd4-bcbf-29e056fdc0e5 .axis .guides:hover text{fill:rgba(0,0,0,1)}#chart-e5357353-7331-4dd4-bcbf-29e056fdc0e5 .reactive{fill-opacity:.7;stroke-opacity:.8}#chart-e5357353-7331-4dd4-bcbf-29e056fdc0e5 .ci{stroke:rgba(0,0,0,.87)}#chart-e5357353-7331-4dd4-bcbf-29e056fdc0e5 .reactive.active,#chart-e5357353-7331-4dd4-bcbf-29e056fdc0e5 .active .reactive{fill-opacity:.8;stroke-opacity:.9;stroke-width:4}#chart-e5357353-7331-4dd4-bcbf-29e056fdc0e5 .ci .reactive.active{stroke-width:1.5}#chart-e5357353-7331-4dd4-bcbf-29e056fdc0e5 .series text{fill:rgba(0,0,0,1)}#chart-e5357353-7331-4dd4-bcbf-29e056fdc0e5 .tooltip rect{fill:rgba(255,255,255,1);stroke:rgba(0,0,0,1);-webkit-transition:opacity 150ms;-moz-transition:opacity 150ms;transition:opacity 150ms}#chart-e5357353-7331-4dd4-bcbf-29e056fdc0e5 .tooltip .label{fill:rgba(0,0,0,.87)}#chart-e5357353-7331-4dd4-bcbf-29e056fdc0e5 .tooltip .label{fill:rgba(0,0,0,.87)}#chart-e5357353-7331-4dd4-bcbf-29e056fdc0e5 .tooltip .legend{font-size:.8em;fill:rgba(0,0,0,.54)}#chart-e5357353-7331-4dd4-bcbf-29e056fdc0e5 .tooltip .x_label{font-size:.6em;fill:rgba(0,0,0,1)}#chart-e5357353-7331-4dd4-bcbf-29e056fdc0e5 .tooltip .xlink{font-size:.5em;text-decoration:underline}#chart-e5357353-7331-4dd4-bcbf-29e056fdc0e5 .tooltip .value{font-size:1.5em}#chart-e5357353-7331-4dd4-bcbf-29e056fdc0e5 .bound{font-size:.5em}#chart-e5357353-7331-4dd4-bcbf-29e056fdc0e5 .max-value{font-size:.75em;fill:rgba(0,0,0,.54)}#chart-e5357353-7331-4dd4-bcbf-29e056fdc0e5 .map-element{fill:rgba(255,255,255,1);stroke:rgba(0,0,0,.54) !important}#chart-e5357353-7331-4dd4-bcbf-29e056fdc0e5 .map-element .reactive{fill-opacity:inherit;stroke-opacity:inherit}#chart-e5357353-7331-4dd4-bcbf-29e056fdc0e5 .color-0,#chart-e5357353-7331-4dd4-bcbf-29e056fdc0e5 .color-0 a:visited{stroke:red;fill:red}#chart-e5357353-7331-4dd4-bcbf-29e056fdc0e5 .color-1,#chart-e5357353-7331-4dd4-bcbf-29e056fdc0e5 .color-1 a:visited{stroke:blue;fill:blue}#chart-e5357353-7331-4dd4-bcbf-29e056fdc0e5 .color-2,#chart-e5357353-7331-4dd4-bcbf-29e056fdc0e5 .color-2 a:visited{stroke:green;fill:green}#chart-e5357353-7331-4dd4-bcbf-29e056fdc0e5 .text-overlay .color-0 text{fill:white}#chart-e5357353-7331-4dd4-bcbf-29e056fdc0e5 .text-overlay .color-1 text{fill:white}#chart-e5357353-7331-4dd4-bcbf-29e056fdc0e5 .text-overlay .color-2 text{fill:white}
#chart-e5357353-7331-4dd4-bcbf-29e056fdc0e5 text.no_data{text-anchor:middle}#chart-e5357353-7331-4dd4-bcbf-29e056fdc0e5 .guide.line{fill:none}#chart-e5357353-7331-4dd4-bcbf-29e056fdc0e5 .centered{text-anchor:middle}#chart-e5357353-7331-4dd4-bcbf-29e056fdc0e5 .title{text-anchor:middle}#chart-e5357353-7331-4dd4-bcbf-29e056fdc0e5 .legends .legend text{fill-opacity:1}#chart-e5357353-7331-4dd4-bcbf-29e056fdc0e5 .axis.x text{text-anchor:middle}#chart-e5357353-7331-4dd4-bcbf-29e056fdc0e5 .axis.x:not(.web) text[transform]{text-anchor:start}#chart-e5357353-7331-4dd4-bcbf-29e056fdc0e5 .axis.x:not(.web) text[transform].backwards{text-anchor:end}#chart-e5357353-7331-4dd4-bcbf-29e056fdc0e5 .axis.y text{text-anchor:end}#chart-e5357353-7331-4dd4-bcbf-29e056fdc0e5 .axis.y text[transform].backwards{text-anchor:start}#chart-e5357353-7331-4dd4-bcbf-29e056fdc0e5 .axis.y2 text{text-anchor:start}#chart-e5357353-7331-4dd4-bcbf-29e056fdc0e5 .axis.y2 text[transform].backwards{text-anchor:end}#chart-e5357353-7331-4dd4-bcbf-29e056fdc0e5 .axis .guide.line{stroke-dasharray:4,4}#chart-e5357353-7331-4dd4-bcbf-29e056fdc0e5 .axis .major.guide.line{stroke-dasharray:6,6}#chart-e5357353-7331-4dd4-bcbf-29e056fdc0e5 .horizontal .axis.y .guide.line,#chart-e5357353-7331-4dd4-bcbf-29e056fdc0e5 .horizontal .axis.y2 .guide.line,#chart-e5357353-7331-4dd4-bcbf-29e056fdc0e5 .vertical .axis.x .guide.line{opacity:0}#chart-e5357353-7331-4dd4-bcbf-29e056fdc0e5 .horizontal .axis.always_show .guide.line,#chart-e5357353-7331-4dd4-bcbf-29e056fdc0e5 .vertical .axis.always_show .guide.line{opacity:1 !important}#chart-e5357353-7331-4dd4-bcbf-29e056fdc0e5 .axis.y .guides:hover .guide.line,#chart-e5357353-7331-4dd4-bcbf-29e056fdc0e5 .axis.y2 .guides:hover .guide.line,#chart-e5357353-7331-4dd4-bcbf-29e056fdc0e5 .axis.x .guides:hover .guide.line{opacity:1}#chart-e5357353-7331-4dd4-bcbf-29e056fdc0e5 .axis .guides:hover text{opacity:1}#chart-e5357353-7331-4dd4-bcbf-29e056fdc0e5 .nofill{fill:none}#chart-e5357353-7331-4dd4-bcbf-29e056fdc0e5 .subtle-fill{fill-opacity:.2}#chart-e5357353-7331-4dd4-bcbf-29e056fdc0e5 .dot{stroke-width:1px;fill-opacity:1}#chart-e5357353-7331-4dd4-bcbf-29e056fdc0e5 .dot.active{stroke-width:5px}#chart-e5357353-7331-4dd4-bcbf-29e056fdc0e5 .dot.negative{fill:transparent}#chart-e5357353-7331-4dd4-bcbf-29e056fdc0e5 text,#chart-e5357353-7331-4dd4-bcbf-29e056fdc0e5 tspan{stroke:none !important}#chart-e5357353-7331-4dd4-bcbf-29e056fdc0e5 .series text.active{opacity:1}#chart-e5357353-7331-4dd4-bcbf-29e056fdc0e5 .tooltip rect{fill-opacity:.95;stroke-width:.5}#chart-e5357353-7331-4dd4-bcbf-29e056fdc0e5 .tooltip text{fill-opacity:1}#chart-e5357353-7331-4dd4-bcbf-29e056fdc0e5 .showable{visibility:hidden}#chart-e5357353-7331-4dd4-bcbf-29e056fdc0e5 .showable.shown{visibility:visible}#chart-e5357353-7331-4dd4-bcbf-29e056fdc0e5 .gauge-background{fill:rgba(229,229,229,1);stroke:none}#chart-e5357353-7331-4dd4-bcbf-29e056fdc0e5 .bg-lines{stroke:rgba(249,249,249,1);stroke-width:2px}</style><script type="text/javascript">window.pygal = window.pygal || {};window.pygal.config = window.pygal.config || {};window.pygal.config['e5357353-7331-4dd4-bcbf-29e056fdc0e5'] = {"allow_interruptions": false, "box_mode": "extremes", "classes": ["pygal-chart"], "css": ["file://style.css", "file://graph.css"], "defs": [], "disable_xml_declaration": false, "dots_size": 2.5, "dynamic_print_values": false, "explicit_size": false, "fill": false, "force_uri_protocol": "https", "formatter": null, "half_pie": false, "height": 600, "include_x_axis": false, "inner_radius": 0, "interpolate": null, "interpolation_parameters": {}, "interpolation_precision": 250, "inverse_y_axis": false, "js": ["//kozea.github.io/pygal.js/2.0.x/pygal-tooltips.min.js"], "legend_at_bottom": true, "legend_at_bottom_columns": null, "legend_box_size": 12, "logarithmic": false, "margin": 20, "margin_bottom": null, "margin_left": null, "margin_right": null, "margin_top": null, "max_scale": 16, "min_scale": 4, "missing_value_fill_truncation": "x", "no_data_text": "No data", "no_prefix": false, "order_min": null, "pretty_print": false, "print_labels": false, "print_values": false, "print_values_position": "center", "print_zeroes": true, "range": null, "rounded_bars": null, "secondary_range": null, "show_dots": true, "show_legend": true, "show_minor_x_labels": false, "show_minor_y_labels": true, "show_only_major_dots": false, "show_x_guides": false, "show_x_labels": true, "show_y_guides": true, "show_y_labels": true, "spacing": 10, "stack_from_top": false, "strict": false, "stroke": true, "stroke_style": null, "style": {"background": "rgba(249, 249, 249, 1)", "ci_colors": [], "colors": ["red", "blue", "green", "#a3a3a3"], "font_family": "Consolas, \"Liberation Mono\", Menlo, Courier, monospace", "foreground": "rgba(0, 0, 0, .87)", "foreground_strong": "rgba(0, 0, 0, 1)", "foreground_subtle": "rgba(0, 0, 0, .54)", "guide_stroke_dasharray": "4,4", "label_font_family": "Consolas, \"Liberation Mono\", Menlo, Courier, monospace", "label_font_size": 10, "legend_font_family": "Consolas, \"Liberation Mono\", Menlo, Courier, monospace", "legend_font_size": 14, "major_guide_stroke_dasharray": "6,6", "major_label_font_family": "Consolas, \"Liberation Mono\", Menlo, Courier, monospace", "major_label_font_size": 10, "no_data_font_family": "Consolas, \"Liberation Mono\", Menlo, Courier, monospace", "no_data_font_size": 64, "opacity": ".7", "opacity_hover": ".8", "plot_background": "rgba(255, 255, 255, 1)", "stroke_opacity": ".8", "stroke_opacity_hover": ".9", "title_font_family": "Consolas, \"Liberation Mono\", Menlo, Courier, monospace", "title_font_size": 16, "tooltip_font_family": "Consolas, \"Liberation Mono\", Menlo, Courier, monospace", "tooltip_font_size": 14, "transition": "150ms", "value_background": "rgba(229, 229, 229, 1)", "value_colors": [], "value_font_family": "Consolas, \"Liberation Mono\", Menlo, Courier, monospace", "value_font_size": 16, "value_label_font_family": "Consolas, \"Liberation Mono\", Menlo, Courier, monospace", "value_label_font_size": 10}, "title": "RA Harper: Future and Past Averages in ODIs", "tooltip_border_radius": 10, "tooltip_fancy_mode": true, "truncate_label": null, "truncate_legend": null, "width": 800, "x_label_rotation": 45, "x_labels": ["1983", "0", "0", "0", "0", "1984", "0", "0", "0", "1985", "0", "0", "0", "0", "0", "0", "0", "0", "0", "0", "0", "0", "0", "1986", "0", "0", "0", "0", "0", "0", "0", "0", "0", "0", "0", "0", "1987", "0", "0", "0", "0", "0", "0", "0", "0", "0", "0", "0", "0", "0", "0", "0", "0", "1988", "0", "0", "0", "0", "0", "1989", "0", "0", "1992", "0", "0", "0", "1993", "0", "0", "0", "1994", "0", "0", "0", "0", "1995", "0", "0", "0", "0", "0", "0", "0", "1996", "0", "0", "0", "0", "0", "0", "0", "0", "0", "0", "0", "0", "0", "0", "0"], "x_labels_major": ["1983", "1984", "1985", "1986", "1987", "1988", "1989", "1992", "1993", "1994", "1995", "1996"], "x_labels_major_count": null, "x_labels_major_every": null, "x_title": null, "xrange": null, "y_label_rotation": 0, "y_labels": null, "y_labels_major": null, "y_labels_major_count": null, "y_labels_major_every": null, "y_title": null, "zero": 60, "legends": ["Future Average", "Past Average", "Career Average"]}</script><script type="text/javascript" xlink:href="https://kozea.github.io/pygal.js/2.0.x/pygal-tooltips.min.js"/></defs><title>RA Harper: Future and Past Averages in ODIs</title><g class="graph line-graph vertical"><rect class="background" height="600" width="800" x="0" y="0"/><g class="plot" transform="translate(42, 46)"><rect class="background" height="462.02943725152284" width="738.0" x="0" y="0"/><g class="axis y always_show"><g class="guides"><path class="axis major line" d="M0.000000 453.144256 h738.000000"/><text class="major" x="-5" y="456.6442557659166">0</text><title>0</title></g><g class="guides"><path class="guide line" d="M0.000000 408.416436 h738.000000"/><text class="" x="-5" y="411.91643555143787">4</text><title>4</title></g><g class="guides"><path class="guide line" d="M0.000000 363.688615 h738.000000"/><text class="" x="-5" y="367.1886153369591">8</text><title>8</title></g><g class="guides"><path class="guide line" d="M0.000000 318.960795 h738.000000"/><text class="" x="-5" y="322.4607951224803">12</text><title>12</title></g><g class="guides"><path class="guide line" d="M0.000000 274.232975 h738.000000"/><text class="" x="-5" y="277.73297490800155">16</text><title>16</title></g><g class="guides"><path class="major guide line" d="M0.000000 229.505155 h738.000000"/><text class="major" x="-5" y="233.00515469352277">20</text><title>20</title></g><g class="guides"><path class="guide line" d="M0.000000 184.777334 h738.000000"/><text class="" x="-5" y="188.277334479044">24</text><title>24</title></g><g class="guides"><path class="guide line" d="M0.000000 140.049514 h738.000000"/><text class="" x="-5" y="143.54951426456523">28</text><title>28</title></g><g class="guides"><path class="guide line" d="M0.000000 95.321694 h738.000000"/><text class="" x="-5" y="98.82169405008642">32</text><title>32</title></g><g class="guides"><path class="guide line" d="M0.000000 50.593874 h738.000000"/><text class="" x="-5" y="54.09387383560767">36</text><title>36</title></g></g><g class="axis x"><g class="guides"><path class="major line" d="M14.192308 0.000000 v462.029437"/><text class="major" x="14.192307692307692" y="477.02943725152284" transform="rotate(45 14.192308 477.029437)">1983</text></g><g class="guides"><path class="major guide line" d="M50.397174 0.000000 v462.029437"/><text class="major" x="50.397174254317115" y="477.02943725152284" transform="rotate(45 50.397174 477.029437)">1984</text></g><g class="guides"><path class="major guide line" d="M79.361068 0.000000 v462.029437"/><text class="major" x="79.36106750392466" y="477.02943725152284" transform="rotate(45 79.361068 477.029437)">1985</text></g><g class="guides"><path class="major guide line" d="M180.734694 0.000000 v462.029437"/><text class="major" x="180.73469387755102" y="477.02943725152284" transform="rotate(45 180.734694 477.029437)">1986</text></g><g class="guides"><path class="major guide line" d="M274.867347 0.000000 v462.029437"/><text class="major" x="274.86734693877554" y="477.02943725152284" transform="rotate(45 274.867347 477.029437)">1987</text></g><g class="guides"><path class="major guide line" d="M397.963893 0.000000 v462.029437"/><text class="major" x="397.96389324960757" y="477.02943725152284" transform="rotate(45 397.963893 477.029437)">1988</text></g><g class="guides"><path class="major guide line" d="M441.409733 0.000000 v462.029437"/><text class="major" x="441.4097331240189" y="477.02943725152284" transform="rotate(45 441.409733 477.029437)">1989</text></g><g class="guides"><path class="major guide line" d="M463.132653 0.000000 v462.029437"/><text class="major" x="463.13265306122446" y="477.02943725152284" transform="rotate(45 463.132653 477.029437)">1992</text></g><g class="guides"><path class="major guide line" d="M492.096546 0.000000 v462.029437"/><text class="major" x="492.09654631083197" y="477.02943725152284" transform="rotate(45 492.096546 477.029437)">1993</text></g><g class="guides"><path class="major guide line" d="M521.060440 0.000000 v462.029437"/><text class="major" x="521.0604395604396" y="477.02943725152284" transform="rotate(45 521.060440 477.029437)">1994</text></g><g class="guides"><path class="major guide line" d="M557.265306 0.000000 v462.029437"/><text class="major" x="557.265306122449" y="477.02943725152284" transform="rotate(45 557.265306 477.029437)">1995</text></g><g class="guides"><path class="major guide line" d="M615.193093 0.000000 v462.029437"/><text class="major" x="615.1930926216642" y="477.02943725152284" transform="rotate(45 615.193093 477.029437)">1996</text></g></g><g class="series serie-0 color-0"><path class="line reactive nofill" d="M14.192308 69.491378 L21.433281 61.552190 28.674254 62.894024 35.915228 61.216731 43.156201 63.229483 50.397174 67.925904 57.638148 64.571318 64.879121 69.155919 72.120094 65.689513 79.361068 66.136791 86.602041 65.577694 93.843014 66.024972 101.083987 59.763077 108.324961 54.843017 115.565934 49.699317 122.806907 47.239287 130.047881 36.728250 137.288854 40.641934 144.529827 48.245663 151.770801 42.878325 159.011774 41.424671 166.252747 41.536490 173.493721 42.207408 180.734694 45.450175 187.975667 50.929332 195.216641 54.395739 202.457614 46.680190 209.698587 53.836641 216.939560 60.769453 224.180534 67.590446 231.421507 66.024972 238.662480 69.715017 245.903454 72.175047 253.144427 72.063228 260.385400 77.318746 267.626374 67.031348 274.867347 73.628701 282.108320 78.772401 289.349294 70.945032 296.590267 66.136791 303.831240 71.056852 311.072214 73.293243 318.313187 62.558566 325.554160 69.491378 332.795133 67.814085 340.036107 69.379558 347.277080 61.775829 354.518053 71.392310 361.759027 74.746897 369.000000 73.405062 376.240973 72.286867 383.481947 76.424190 390.722920 77.430566 397.963893 82.462446 405.204867 90.289814 412.445840 99.347198 419.686813 101.359950 426.927786 100.577213 434.168760 106.950927 441.409733 112.765544 448.650706 123.164762 455.891680 130.880311 463.132653 143.515920 470.373626 144.857755 477.614600 145.528672 484.855573 145.416853 492.096546 138.707680 499.337520 148.771439 506.578493 133.452161 513.819466 135.688552 521.060440 131.774868 528.301413 138.036762 535.542386 143.739559 542.783359 134.234898 550.024333 103.596341 557.265306 106.950927 564.506279 127.190266 571.747253 142.956823 578.988226 142.174086 586.229199 146.758687 593.470173 162.860703 600.711146 174.042658 607.952119 145.416853 615.193093 169.905334 622.434066 176.949966 629.675039 172.365364 636.916013 177.732703 644.156986 182.988222 651.397959 186.678267 658.638932 177.061785 665.879906 126.295710 673.120879 141.950447 680.361852 51.935708 687.602826 69.715017 694.843799 123.276582 702.084772 119.921995 709.325746 65.465874 716.566719 147.541424 723.807692 326.452705"/></g><g class="series serie-1 color-1"><path class="line reactive nofill" d="M14.192308 453.144256 L21.433281 326.452705 28.674254 226.709666 35.915228 199.649335 43.156201 152.796943 50.397174 90.513453 57.638148 118.915619 64.879121 72.957784 72.120094 100.353574 79.361068 94.427138 86.602041 95.321694 93.843014 90.513453 101.083987 120.481093 108.324961 136.359469 115.565934 148.435981 122.806907 153.356041 130.047881 173.148101 137.288854 161.071590 144.529827 136.806747 151.770801 145.193214 159.011774 145.416853 166.252747 141.279529 173.493721 136.247650 180.734694 128.532101 187.975667 115.001935 195.216641 106.503649 202.457614 120.257454 209.698587 104.379078 216.939560 88.836160 224.180534 73.628701 231.421507 76.759649 238.662480 69.155919 245.903454 64.124039 253.144427 64.459498 260.385400 54.172099 267.626374 73.852340 274.867347 62.111288 282.108320 53.613002 289.349294 67.254987 296.590267 74.299619 303.831240 67.254987 311.072214 64.124039 318.313187 77.877844 325.554160 69.491378 332.795133 71.504130 340.036107 69.603197 347.277080 77.542386 354.518053 67.478626 361.759027 64.012220 369.000000 65.577694 376.240973 66.807709 383.481947 63.117663 390.722920 62.446746 397.963893 57.973964 405.204867 51.041152 412.445840 42.990144 419.686813 42.319227 426.927786 44.108340 434.168760 38.852821 441.409733 34.156400 448.650706 25.546295 455.891680 19.284400 463.132653 8.885181 470.373626 10.227016 477.614600 12.127948 484.855573 14.587979 492.096546 23.421723 499.337520 16.712550 506.578493 31.920009 513.819466 32.255468 521.060440 35.945513 528.301413 34.156400 535.542386 32.926385 542.783359 40.418295 550.024333 56.855769 557.265306 55.625754 564.506279 48.133844 571.747253 42.319227 578.988226 43.996520 586.229199 43.772881 593.470173 38.405543 600.711146 34.603678 607.952119 49.363859 615.193093 42.766505 622.434066 42.654686 629.675039 45.338355 636.916013 44.108340 644.156986 42.878325 651.397959 43.772881 658.638932 49.028400 665.879906 60.993092 673.120879 59.651257 680.361852 71.056852 687.602826 69.491378 694.843799 66.024972 702.084772 66.807709 709.325746 69.603197 716.566719 67.031348 723.807692 61.552190"/></g><g class="series serie-2 color-2"><path class="line reactive nofill" d="M14.192308 69.491378 L21.433281 69.491378 28.674254 69.491378 35.915228 69.491378 43.156201 69.491378 50.397174 69.491378 57.638148 69.491378 64.879121 69.491378 72.120094 69.491378 79.361068 69.491378 86.602041 69.491378 93.843014 69.491378 101.083987 69.491378 108.324961 69.491378 115.565934 69.491378 122.806907 69.491378 130.047881 69.491378 137.288854 69.491378 144.529827 69.491378 151.770801 69.491378 159.011774 69.491378 166.252747 69.491378 173.493721 69.491378 180.734694 69.491378 187.975667 69.491378 195.216641 69.491378 202.457614 69.491378 209.698587 69.491378 216.939560 69.491378 224.180534 69.491378 231.421507 69.491378 238.662480 69.491378 245.903454 69.491378 253.144427 69.491378 260.385400 69.491378 267.626374 69.491378 274.867347 69.491378 282.108320 69.491378 289.349294 69.491378 296.590267 69.491378 303.831240 69.491378 311.072214 69.491378 318.313187 69.491378 325.554160 69.491378 332.795133 69.491378 340.036107 69.491378 347.277080 69.491378 354.518053 69.491378 361.759027 69.491378 369.000000 69.491378 376.240973 69.491378 383.481947 69.491378 390.722920 69.491378 397.963893 69.491378 405.204867 69.491378 412.445840 69.491378 419.686813 69.491378 426.927786 69.491378 434.168760 69.491378 441.409733 69.491378 448.650706 69.491378 455.891680 69.491378 463.132653 69.491378 470.373626 69.491378 477.614600 69.491378 484.855573 69.491378 492.096546 69.491378 499.337520 69.491378 506.578493 69.491378 513.819466 69.491378 521.060440 69.491378 528.301413 69.491378 535.542386 69.491378 542.783359 69.491378 550.024333 69.491378 557.265306 69.491378 564.506279 69.491378 571.747253 69.491378 578.988226 69.491378 586.229199 69.491378 593.470173 69.491378 600.711146 69.491378 607.952119 69.491378 615.193093 69.491378 622.434066 69.491378 629.675039 69.491378 636.916013 69.491378 644.156986 69.491378 651.397959 69.491378 658.638932 69.491378 665.879906 69.491378 673.120879 69.491378 680.361852 69.491378 687.602826 69.491378 694.843799 69.491378 702.084772 69.491378 709.325746 69.491378 716.566719 69.491378 723.807692 69.491378"/></g></g><g class="titles"><text class="title plot_title" x="400.0" y="26">RA Harper: Future and Past Averages in ODIs</text></g><g class="plot overlay" transform="translate(42, 46)"><g class="series serie-0 color-0"><g class="dots"><desc class="label">100 wickets in 99 innings (862.3 overs)</desc><circle class="dot reactive tooltip-trigger" cx="14.192307692307692" cy="69.49137787622493" r="2.5"/><desc class="value">34.31</desc><desc class="x ">14.192307692307692</desc><desc class="y ">69.49137787622493</desc><desc class="x_label">1983</desc></g><g class="dots"><desc class="label">93 wickets in 94 innings (814.3 overs)</desc><circle class="dot reactive tooltip-trigger" cx="50.397174254317115" cy="67.92590416871815" r="2.5"/><desc class="value">34.45</desc><desc class="x ">50.397174254317115</desc><desc class="y ">67.92590416871815</desc><desc class="x_label">1984</desc></g><g class="dots"><desc class="label">88 wickets in 90 innings (776.3 overs)</desc><circle class="dot reactive tooltip-trigger" cx="79.36106750392466" cy="66.13679136013906" r="2.5"/><desc class="value">34.61</desc><desc class="x ">79.36106750392466</desc><desc class="y ">66.13679136013906</desc><desc class="x_label">1985</desc></g><g class="dots"><desc class="label">71 wickets in 76 innings (652.3 overs)</desc><circle class="dot reactive tooltip-trigger" cx="180.73469387755102" cy="45.450174510942645" r="2.5"/><desc class="value">36.46</desc><desc class="x ">180.73469387755102</desc><desc class="y ">45.450174510942645</desc><desc class="x_label">1986</desc></g><g class="dots"><desc class="label">64 wickets in 63 innings (539.3 overs)</desc><circle class="dot reactive tooltip-trigger" cx="274.86734693877554" cy="73.62870124606428" r="2.5"/><desc class="value">33.94</desc><desc class="x ">274.86734693877554</desc><desc class="y ">73.62870124606428</desc><desc class="x_label">1987</desc></g><g class="dots"><desc class="label">47 wickets in 46 innings (375.3 overs)</desc><circle class="dot reactive tooltip-trigger" cx="397.96389324960757" cy="82.46244573842381" r="2.5"/><desc class="value">33.15</desc><desc class="x left">397.96389324960757</desc><desc class="y left">82.46244573842381</desc><desc class="x_label">1988</desc></g><g class="dots"><desc class="label">45 wickets in 40 innings (335.3 overs)</desc><circle class="dot reactive tooltip-trigger" cx="441.4097331240189" cy="112.76554393373317" r="2.5"/><desc class="value">30.44</desc><desc class="x left">441.4097331240189</desc><desc class="y left">112.76554393373317</desc><desc class="x_label">1989</desc></g><g class="dots"><desc class="label">45 wickets in 37 innings (312.3 overs)</desc><circle class="dot reactive tooltip-trigger" cx="463.13265306122446" cy="143.51592033118732" r="2.5"/><desc class="value">27.69</desc><desc class="x left">463.13265306122446</desc><desc class="y left">143.51592033118732</desc><desc class="x_label">1992</desc></g><g class="dots"><desc class="label">40 wickets in 33 innings (278.3 overs)</desc><circle class="dot reactive tooltip-trigger" cx="492.09654631083197" cy="138.70767965813087" r="2.5"/><desc class="value">28.12</desc><desc class="x left">492.09654631083197</desc><desc class="y left">138.70767965813087</desc><desc class="x_label">1993</desc></g><g class="dots"><desc class="label">35 wickets in 29 innings (247.3 overs)</desc><circle class="dot reactive tooltip-trigger" cx="521.0604395604396" cy="131.7748675248867" r="2.5"/><desc class="value">28.74</desc><desc class="x left">521.0604395604396</desc><desc class="y left">131.7748675248867</desc><desc class="x_label">1994</desc></g><g class="dots"><desc class="label">27 wickets in 24 innings (210.3 overs)</desc><circle class="dot reactive tooltip-trigger" cx="557.265306122449" cy="106.95092730585094" r="2.5"/><desc class="value">30.96</desc><desc class="x left">557.265306122449</desc><desc class="y left">106.95092730585094</desc><desc class="x_label">1995</desc></g><g class="dots"><desc class="label">21 wickets in 16 innings (136.3 overs)</desc><circle class="dot reactive tooltip-trigger" cx="615.1930926216642" cy="169.9053342577298" r="2.5"/><desc class="value">25.33</desc><desc class="x left">615.1930926216642</desc><desc class="y left">169.9053342577298</desc><desc class="x_label">1996</desc></g></g><g class="series serie-1 color-1"><g class="dots"><desc class="label">0 wickets over 0 innings</desc><circle class="dot reactive tooltip-trigger" cx="14.192307692307692" cy="453.1442557659166" r="2.5"/><desc class="value">0</desc><desc class="x top">14.192307692307692</desc><desc class="y top">453.1442557659166</desc><desc class="x_label">1983</desc></g><g class="dots"><desc class="label">7 wickets in 5 innings (48.0 overs)</desc><circle class="dot reactive tooltip-trigger" cx="50.397174254317115" cy="90.51345337702998" r="2.5"/><desc class="value">32.43</desc><desc class="x ">50.397174254317115</desc><desc class="y ">90.51345337702998</desc><desc class="x_label">1984</desc></g><g class="dots"><desc class="label">12 wickets in 9 innings (86.0 overs)</desc><circle class="dot reactive tooltip-trigger" cx="79.36106750392466" cy="94.42713764579685" r="2.5"/><desc class="value">32.08</desc><desc class="x ">79.36106750392466</desc><desc class="y ">94.42713764579685</desc><desc class="x_label">1985</desc></g><g class="dots"><desc class="label">29 wickets in 23 innings (210.0 overs)</desc><circle class="dot reactive tooltip-trigger" cx="180.73469387755102" cy="128.53210055933693" r="2.5"/><desc class="value">29.03</desc><desc class="x ">180.73469387755102</desc><desc class="y ">128.53210055933693</desc><desc class="x_label">1986</desc></g><g class="dots"><desc class="label">36 wickets in 36 innings (323.0 overs)</desc><circle class="dot reactive tooltip-trigger" cx="274.86734693877554" cy="62.111287540835974" r="2.5"/><desc class="value">34.97</desc><desc class="x ">274.86734693877554</desc><desc class="y ">62.111287540835974</desc><desc class="x_label">1987</desc></g><g class="dots"><desc class="label">53 wickets in 53 innings (487.0 overs)</desc><circle class="dot reactive tooltip-trigger" cx="397.96389324960757" cy="57.973964170996624" r="2.5"/><desc class="value">35.34</desc><desc class="x left">397.96389324960757</desc><desc class="y left">57.973964170996624</desc><desc class="x_label">1988</desc></g><g class="dots"><desc class="label">55 wickets in 59 innings (527.0 overs)</desc><circle class="dot reactive tooltip-trigger" cx="441.4097331240189" cy="34.1563999067867" r="2.5"/><desc class="value">37.47</desc><desc class="x left">441.4097331240189</desc><desc class="y left">34.1563999067867</desc><desc class="x_label">1989</desc></g><g class="dots"><desc class="label">55 wickets in 62 innings (550.0 overs)</desc><circle class="dot reactive tooltip-trigger" cx="463.13265306122446" cy="8.88518148560621" r="2.5"/><desc class="value">39.73</desc><desc class="x left">463.13265306122446</desc><desc class="y left">8.88518148560621</desc><desc class="x_label">1992</desc></g><g class="dots"><desc class="label">60 wickets in 66 innings (584.0 overs)</desc><circle class="dot reactive tooltip-trigger" cx="492.09654631083197" cy="23.421723055311816" r="2.5"/><desc class="value">38.43</desc><desc class="x left">492.09654631083197</desc><desc class="y left">23.421723055311816</desc><desc class="x_label">1993</desc></g><g class="dots"><desc class="label">65 wickets in 70 innings (615.0 overs)</desc><circle class="dot reactive tooltip-trigger" cx="521.0604395604396" cy="35.94551271536585" r="2.5"/><desc class="value">37.31</desc><desc class="x left">521.0604395604396</desc><desc class="y left">35.94551271536585</desc><desc class="x_label">1994</desc></g><g class="dots"><desc class="label">73 wickets in 75 innings (652.0 overs)</desc><circle class="dot reactive tooltip-trigger" cx="557.265306122449" cy="55.62575360973659" r="2.5"/><desc class="value">35.55</desc><desc class="x left">557.265306122449</desc><desc class="y left">55.62575360973659</desc><desc class="x_label">1995</desc></g><g class="dots"><desc class="label">79 wickets in 83 innings (726.0 overs)</desc><circle class="dot reactive tooltip-trigger" cx="615.1930926216642" cy="42.76650529807381" r="2.5"/><desc class="value">36.7</desc><desc class="x left">615.1930926216642</desc><desc class="y left">42.76650529807381</desc><desc class="x_label">1996</desc></g></g><g class="series serie-2 color-2"/></g><g class="plot text-overlay" transform="translate(42, 46)"><g class="series serie-0 color-0"/><g class="series serie-1 color-1"/><g class="series serie-2 color-2"/></g><g class="plot tooltip-overlay" transform="translate(42, 46)"><g class="tooltip" style="opacity: 0" transform="translate(0 0)"><rect class="tooltip-box" height="0" rx="10" ry="10" width="0"/><g class="text"/></g></g><g class="legends" transform="translate(52, 545)"><g class="legend reactive activate-serie" id="activate-serie-0"><rect class="color-0 reactive" height="12" width="12" x="0.0" y="1.0"/><text x="17.0" y="11.2">Future Average</text></g><g class="legend reactive activate-serie" id="activate-serie-1"><rect class="color-1 reactive" height="12" width="12" x="369.0" y="1.0"/><text x="386.0" y="11.2">Past Average</text></g><g class="legend reactive activate-serie" id="activate-serie-2"><rect class="color-2 reactive" height="12" width="12" x="0.0" y="22.0"/><text x="17.0" y="32.2">Career Average</text></g></g></g></svg>