<?xml version='1.0' encoding='utf-8'?>
<svg xmlns:xlink="http://www.w3.org/1999/xlink" xmlns="http://www.w3.org/2000/svg" id="chart-c838735e-01d3-457b-b4c4-0bb7cd71c30c" class="pygal-chart" viewBox="0 0 800 600"><!--Generated with pygal 2.4.0 (lxml) ©Kozea 2012-2016 on 2019-08-04--><!--http://pygal.org--><!--http://github.com/Kozea/pygal--><defs><style type="text/css">#chart-c838735e-01d3-457b-b4c4-0bb7cd71c30c{-webkit-user-select:none;-webkit-font-smoothing:antialiased;font-family:Consolas,"Liberation Mono",Menlo,Courier,monospace}#chart-c838735e-01d3-457b-b4c4-0bb7cd71c30c .title{font-family:Consolas,"Liberation Mono",Menlo,Courier,monospace;font-size:16px}#chart-c838735e-01d3-457b-b4c4-0bb7cd71c30c .legends .legend text{font-family:Consolas,"Liberation Mono",Menlo,Courier,monospace;font-size:14px}#chart-c838735e-01d3-457b-b4c4-0bb7cd71c30c .axis text{font-family:Consolas,"Liberation Mono",Menlo,Courier,monospace;font-size:10px}#chart-c838735e-01d3-457b-b4c4-0bb7cd71c30c .axis text.major{font-family:Consolas,"Liberation Mono",Menlo,Courier,monospace;font-size:10px}#chart-c838735e-01d3-457b-b4c4-0bb7cd71c30c .text-overlay text.value{font-family:Consolas,"Liberation Mono",Menlo,Courier,monospace;font-size:16px}#chart-c838735e-01d3-457b-b4c4-0bb7cd71c30c .text-overlay text.label{font-family:Consolas,"Liberation Mono",Menlo,Courier,monospace;font-size:10px}#chart-c838735e-01d3-457b-b4c4-0bb7cd71c30c .tooltip{font-family:Consolas,"Liberation Mono",Menlo,Courier,monospace;font-size:14px}#chart-c838735e-01d3-457b-b4c4-0bb7cd71c30c text.no_data{font-family:Consolas,"Liberation Mono",Menlo,Courier,monospace;font-size:64px}
#chart-c838735e-01d3-457b-b4c4-0bb7cd71c30c{background-color:rgba(249,249,249,1)}#chart-c838735e-01d3-457b-b4c4-0bb7cd71c30c path,#chart-c838735e-01d3-457b-b4c4-0bb7cd71c30c line,#chart-c838735e-01d3-457b-b4c4-0bb7cd71c30c rect,#chart-c838735e-01d3-457b-b4c4-0bb7cd71c30c circle{-webkit-transition:150ms;-moz-transition:150ms;transition:150ms}#chart-c838735e-01d3-457b-b4c4-0bb7cd71c30c .graph &gt; .background{fill:rgba(249,249,249,1)}#chart-c838735e-01d3-457b-b4c4-0bb7cd71c30c .plot &gt; .background{fill:rgba(255,255,255,1)}#chart-c838735e-01d3-457b-b4c4-0bb7cd71c30c .graph{fill:rgba(0,0,0,.87)}#chart-c838735e-01d3-457b-b4c4-0bb7cd71c30c text.no_data{fill:rgba(0,0,0,1)}#chart-c838735e-01d3-457b-b4c4-0bb7cd71c30c .title{fill:rgba(0,0,0,1)}#chart-c838735e-01d3-457b-b4c4-0bb7cd71c30c .legends .legend text{fill:rgba(0,0,0,.87)}#chart-c838735e-01d3-457b-b4c4-0bb7cd71c30c .legends .legend:hover text{fill:rgba(0,0,0,1)}#chart-c838735e-01d3-457b-b4c4-0bb7cd71c30c .axis .line{stroke:rgba(0,0,0,1)}#chart-c838735e-01d3-457b-b4c4-0bb7cd71c30c .axis .guide.line{stroke:rgba(0,0,0,.54)}#chart-c838735e-01d3-457b-b4c4-0bb7cd71c30c .axis .major.line{stroke:rgba(0,0,0,.87)}#chart-c838735e-01d3-457b-b4c4-0bb7cd71c30c .axis text.major{fill:rgba(0,0,0,1)}#chart-c838735e-01d3-457b-b4c4-0bb7cd71c30c .axis.y .guides:hover .guide.line,#chart-c838735e-01d3-457b-b4c4-0bb7cd71c30c .line-graph .axis.x .guides:hover .guide.line,#chart-c838735e-01d3-457b-b4c4-0bb7cd71c30c .stackedline-graph .axis.x .guides:hover .guide.line,#chart-c838735e-01d3-457b-b4c4-0bb7cd71c30c .xy-graph .axis.x .guides:hover .guide.line{stroke:rgba(0,0,0,1)}#chart-c838735e-01d3-457b-b4c4-0bb7cd71c30c .axis .guides:hover text{fill:rgba(0,0,0,1)}#chart-c838735e-01d3-457b-b4c4-0bb7cd71c30c .reactive{fill-opacity:.7;stroke-opacity:.8}#chart-c838735e-01d3-457b-b4c4-0bb7cd71c30c .ci{stroke:rgba(0,0,0,.87)}#chart-c838735e-01d3-457b-b4c4-0bb7cd71c30c .reactive.active,#chart-c838735e-01d3-457b-b4c4-0bb7cd71c30c .active .reactive{fill-opacity:.8;stroke-opacity:.9;stroke-width:4}#chart-c838735e-01d3-457b-b4c4-0bb7cd71c30c .ci .reactive.active{stroke-width:1.5}#chart-c838735e-01d3-457b-b4c4-0bb7cd71c30c .series text{fill:rgba(0,0,0,1)}#chart-c838735e-01d3-457b-b4c4-0bb7cd71c30c .tooltip rect{fill:rgba(255,255,255,1);stroke:rgba(0,0,0,1);-webkit-transition:opacity 150ms;-moz-transition:opacity 150ms;transition:opacity 150ms}#chart-c838735e-01d3-457b-b4c4-0bb7cd71c30c .tooltip .label{fill:rgba(0,0,0,.87)}#chart-c838735e-01d3-457b-b4c4-0bb7cd71c30c .tooltip .label{fill:rgba(0,0,0,.87)}#chart-c838735e-01d3-457b-b4c4-0bb7cd71c30c .tooltip .legend{font-size:.8em;fill:rgba(0,0,0,.54)}#chart-c838735e-01d3-457b-b4c4-0bb7cd71c30c .tooltip .x_label{font-size:.6em;fill:rgba(0,0,0,1)}#chart-c838735e-01d3-457b-b4c4-0bb7cd71c30c .tooltip .xlink{font-size:.5em;text-decoration:underline}#chart-c838735e-01d3-457b-b4c4-0bb7cd71c30c .tooltip .value{font-size:1.5em}#chart-c838735e-01d3-457b-b4c4-0bb7cd71c30c .bound{font-size:.5em}#chart-c838735e-01d3-457b-b4c4-0bb7cd71c30c .max-value{font-size:.75em;fill:rgba(0,0,0,.54)}#chart-c838735e-01d3-457b-b4c4-0bb7cd71c30c .map-element{fill:rgba(255,255,255,1);stroke:rgba(0,0,0,.54) !important}#chart-c838735e-01d3-457b-b4c4-0bb7cd71c30c .map-element .reactive{fill-opacity:inherit;stroke-opacity:inherit}#chart-c838735e-01d3-457b-b4c4-0bb7cd71c30c .color-0,#chart-c838735e-01d3-457b-b4c4-0bb7cd71c30c .color-0 a:visited{stroke:red;fill:red}#chart-c838735e-01d3-457b-b4c4-0bb7cd71c30c .color-1,#chart-c838735e-01d3-457b-b4c4-0bb7cd71c30c .color-1 a:visited{stroke:blue;fill:blue}#chart-c838735e-01d3-457b-b4c4-0bb7cd71c30c .color-2,#chart-c838735e-01d3-457b-b4c4-0bb7cd71c30c .color-2 a:visited{stroke:green;fill:green}#chart-c838735e-01d3-457b-b4c4-0bb7cd71c30c .text-overlay .color-0 text{fill:white}#chart-c838735e-01d3-457b-b4c4-0bb7cd71c30c .text-overlay .color-1 text{fill:white}#chart-c838735e-01d3-457b-b4c4-0bb7cd71c30c .text-overlay .color-2 text{fill:white}
#chart-c838735e-01d3-457b-b4c4-0bb7cd71c30c text.no_data{text-anchor:middle}#chart-c838735e-01d3-457b-b4c4-0bb7cd71c30c .guide.line{fill:none}#chart-c838735e-01d3-457b-b4c4-0bb7cd71c30c .centered{text-anchor:middle}#chart-c838735e-01d3-457b-b4c4-0bb7cd71c30c .title{text-anchor:middle}#chart-c838735e-01d3-457b-b4c4-0bb7cd71c30c .legends .legend text{fill-opacity:1}#chart-c838735e-01d3-457b-b4c4-0bb7cd71c30c .axis.x text{text-anchor:middle}#chart-c838735e-01d3-457b-b4c4-0bb7cd71c30c .axis.x:not(.web) text[transform]{text-anchor:start}#chart-c838735e-01d3-457b-b4c4-0bb7cd71c30c .axis.x:not(.web) text[transform].backwards{text-anchor:end}#chart-c838735e-01d3-457b-b4c4-0bb7cd71c30c .axis.y text{text-anchor:end}#chart-c838735e-01d3-457b-b4c4-0bb7cd71c30c .axis.y text[transform].backwards{text-anchor:start}#chart-c838735e-01d3-457b-b4c4-0bb7cd71c30c .axis.y2 text{text-anchor:start}#chart-c838735e-01d3-457b-b4c4-0bb7cd71c30c .axis.y2 text[transform].backwards{text-anchor:end}#chart-c838735e-01d3-457b-b4c4-0bb7cd71c30c .axis .guide.line{stroke-dasharray:4,4}#chart-c838735e-01d3-457b-b4c4-0bb7cd71c30c .axis .major.guide.line{stroke-dasharray:6,6}#chart-c838735e-01d3-457b-b4c4-0bb7cd71c30c .horizontal .axis.y .guide.line,#chart-c838735e-01d3-457b-b4c4-0bb7cd71c30c .horizontal .axis.y2 .guide.line,#chart-c838735e-01d3-457b-b4c4-0bb7cd71c30c .vertical .axis.x .guide.line{opacity:0}#chart-c838735e-01d3-457b-b4c4-0bb7cd71c30c .horizontal .axis.always_show .guide.line,#chart-c838735e-01d3-457b-b4c4-0bb7cd71c30c .vertical .axis.always_show .guide.line{opacity:1 !important}#chart-c838735e-01d3-457b-b4c4-0bb7cd71c30c .axis.y .guides:hover .guide.line,#chart-c838735e-01d3-457b-b4c4-0bb7cd71c30c .axis.y2 .guides:hover .guide.line,#chart-c838735e-01d3-457b-b4c4-0bb7cd71c30c .axis.x .guides:hover .guide.line{opacity:1}#chart-c838735e-01d3-457b-b4c4-0bb7cd71c30c .axis .guides:hover text{opacity:1}#chart-c838735e-01d3-457b-b4c4-0bb7cd71c30c .nofill{fill:none}#chart-c838735e-01d3-457b-b4c4-0bb7cd71c30c .subtle-fill{fill-opacity:.2}#chart-c838735e-01d3-457b-b4c4-0bb7cd71c30c .dot{stroke-width:1px;fill-opacity:1}#chart-c838735e-01d3-457b-b4c4-0bb7cd71c30c .dot.active{stroke-width:5px}#chart-c838735e-01d3-457b-b4c4-0bb7cd71c30c .dot.negative{fill:transparent}#chart-c838735e-01d3-457b-b4c4-0bb7cd71c30c text,#chart-c838735e-01d3-457b-b4c4-0bb7cd71c30c tspan{stroke:none !important}#chart-c838735e-01d3-457b-b4c4-0bb7cd71c30c .series text.active{opacity:1}#chart-c838735e-01d3-457b-b4c4-0bb7cd71c30c .tooltip rect{fill-opacity:.95;stroke-width:.5}#chart-c838735e-01d3-457b-b4c4-0bb7cd71c30c .tooltip text{fill-opacity:1}#chart-c838735e-01d3-457b-b4c4-0bb7cd71c30c .showable{visibility:hidden}#chart-c838735e-01d3-457b-b4c4-0bb7cd71c30c .showable.shown{visibility:visible}#chart-c838735e-01d3-457b-b4c4-0bb7cd71c30c .gauge-background{fill:rgba(229,229,229,1);stroke:none}#chart-c838735e-01d3-457b-b4c4-0bb7cd71c30c .bg-lines{stroke:rgba(249,249,249,1);stroke-width:2px}</style><script type="text/javascript">window.pygal = window.pygal || {};window.pygal.config = window.pygal.config || {};window.pygal.config['c838735e-01d3-457b-b4c4-0bb7cd71c30c'] = {"allow_interruptions": false, "box_mode": "extremes", "classes": ["pygal-chart"], "css": ["file://style.css", "file://graph.css"], "defs": [], "disable_xml_declaration": false, "dots_size": 2.5, "dynamic_print_values": false, "explicit_size": false, "fill": false, "force_uri_protocol": "https", "formatter": null, "half_pie": false, "height": 600, "include_x_axis": false, "inner_radius": 0, "interpolate": null, "interpolation_parameters": {}, "interpolation_precision": 250, "inverse_y_axis": false, "js": ["//kozea.github.io/pygal.js/2.0.x/pygal-tooltips.min.js"], "legend_at_bottom": true, "legend_at_bottom_columns": null, "legend_box_size": 12, "logarithmic": false, "margin": 20, "margin_bottom": null, "margin_left": null, "margin_right": null, "margin_top": null, "max_scale": 16, "min_scale": 4, "missing_value_fill_truncation": "x", "no_data_text": "No data", "no_prefix": false, "order_min": null, "pretty_print": false, "print_labels": false, "print_values": false, "print_values_position": "center", "print_zeroes": true, "range": null, "rounded_bars": null, "secondary_range": null, "show_dots": true, "show_legend": true, "show_minor_x_labels": false, "show_minor_y_labels": true, "show_only_major_dots": false, "show_x_guides": false, "show_x_labels": true, "show_y_guides": true, "show_y_labels": true, "spacing": 10, "stack_from_top": false, "strict": false, "stroke": true, "stroke_style": null, "style": {"background": "rgba(249, 249, 249, 1)", "ci_colors": [], "colors": ["red", "blue", "green", "#a3a3a3"], "font_family": "Consolas, \"Liberation Mono\", Menlo, Courier, monospace", "foreground": "rgba(0, 0, 0, .87)", "foreground_strong": "rgba(0, 0, 0, 1)", "foreground_subtle": "rgba(0, 0, 0, .54)", "guide_stroke_dasharray": "4,4", "label_font_family": "Consolas, \"Liberation Mono\", Menlo, Courier, monospace", "label_font_size": 10, "legend_font_family": "Consolas, \"Liberation Mono\", Menlo, Courier, monospace", "legend_font_size": 14, "major_guide_stroke_dasharray": "6,6", "major_label_font_family": "Consolas, \"Liberation Mono\", Menlo, Courier, monospace", "major_label_font_size": 10, "no_data_font_family": "Consolas, \"Liberation Mono\", Menlo, Courier, monospace", "no_data_font_size": 64, "opacity": ".7", "opacity_hover": ".8", "plot_background": "rgba(255, 255, 255, 1)", "stroke_opacity": ".8", "stroke_opacity_hover": ".9", "title_font_family": "Consolas, \"Liberation Mono\", Menlo, Courier, monospace", "title_font_size": 16, "tooltip_font_family": "Consolas, \"Liberation Mono\", Menlo, Courier, monospace", "tooltip_font_size": 14, "transition": "150ms", "value_background": "rgba(229, 229, 229, 1)", "value_colors": [], "value_font_family": "Consolas, \"Liberation Mono\", Menlo, Courier, monospace", "value_font_size": 16, "value_label_font_family": "Consolas, \"Liberation Mono\", Menlo, Courier, monospace", "value_label_font_size": 10}, "title": "RJ Shastri: Future and Past Averages in ODIs", "tooltip_border_radius": 10, "tooltip_fancy_mode": true, "truncate_label": null, "truncate_legend": null, "width": 800, "x_label_rotation": 45, "x_labels": ["1981", "0", "1982", "0", "0", "0", "0", "0", "1983", "0", "0", "0", "0", "0", "0", "0", "0", "0", "1984", "0", "0", "0", "0", "0", "0", "1985", "0", "0", "0", "0", "0", "0", "0", "0", "0", "0", "0", "0", "0", "1986", "0", "0", "0", "0", "0", "0", "0", "0", "0", "0", "0", "0", "0", "0", "0", "0", "0", "0", "0", "0", "0", "0", "0", "0", "0", "0", "1987", "0", "0", "0", "0", "0", "0", "0", "0", "0", "0", "0", "0", "0", "0", "0", "0", "0", "0", "0", "0", "1988", "0", "0", "0", "0", "0", "0", "0", "0", "0", "0", "0", "1989", "0", "0", "0", "0", "0", "0", "0", "0", "0", "0", "0", "1990", "0", "0", "0", "0", "0", "1991", "0", "0", "0", "0", "0", "0", "0", "0", "1992", "0", "0", "0", "0", "0", "0", "0", "0", "0"], "x_labels_major": ["1981", "1982", "1983", "1984", "1985", "1986", "1987", "1988", "1989", "1990", "1991", "1992"], "x_labels_major_count": null, "x_labels_major_every": null, "x_title": null, "xrange": null, "y_label_rotation": 0, "y_labels": null, "y_labels_major": null, "y_labels_major_count": null, "y_labels_major_every": null, "y_title": null, "zero": 280.0, "legends": ["Future Average", "Past Average", "Career Average"]}</script><script type="text/javascript" xlink:href="https://kozea.github.io/pygal.js/2.0.x/pygal-tooltips.min.js"/></defs><title>RJ Shastri: Future and Past Averages in ODIs</title><g class="graph line-graph vertical"><rect class="background" height="600" width="800" x="0" y="0"/><g class="plot" transform="translate(48, 46)"><rect class="background" height="462.02943725152284" width="732.0" x="0" y="0"/><g class="axis y always_show"><g class="guides"><path class="axis major line" d="M0.000000 453.144256 h732.000000"/><text class="major" x="-5" y="456.6442557659166">0</text><title>0</title></g><g class="guides"><path class="guide line" d="M0.000000 420.597803 h732.000000"/><text class="" x="-5" y="424.09780343768875">20</text><title>20</title></g><g class="guides"><path class="guide line" d="M0.000000 388.051351 h732.000000"/><text class="" x="-5" y="391.5513511094609">40</text><title>40</title></g><g class="guides"><path class="guide line" d="M0.000000 355.504899 h732.000000"/><text class="" x="-5" y="359.004898781233">60</text><title>60</title></g><g class="guides"><path class="guide line" d="M0.000000 322.958446 h732.000000"/><text class="" x="-5" y="326.45844645300514">80</text><title>80</title></g><g class="guides"><path class="major guide line" d="M0.000000 290.411994 h732.000000"/><text class="major" x="-5" y="293.91199412477727">100</text><title>100</title></g><g class="guides"><path class="guide line" d="M0.000000 257.865542 h732.000000"/><text class="" x="-5" y="261.3655417965494">120</text><title>120</title></g><g class="guides"><path class="guide line" d="M0.000000 225.319089 h732.000000"/><text class="" x="-5" y="228.8190894683215">140</text><title>140</title></g><g class="guides"><path class="guide line" d="M0.000000 192.772637 h732.000000"/><text class="" x="-5" y="196.2726371400936">160</text><title>160</title></g><g class="guides"><path class="guide line" d="M0.000000 160.226185 h732.000000"/><text class="" x="-5" y="163.72618481186572">180</text><title>180</title></g><g class="guides"><path class="major guide line" d="M0.000000 127.679732 h732.000000"/><text class="major" x="-5" y="131.17973248363785">200</text><title>200</title></g><g class="guides"><path class="guide line" d="M0.000000 95.133280 h732.000000"/><text class="" x="-5" y="98.63328015540998">220</text><title>220</title></g><g class="guides"><path class="guide line" d="M0.000000 62.586828 h732.000000"/><text class="" x="-5" y="66.0868278271821">240</text><title>240</title></g><g class="guides"><path class="guide line" d="M0.000000 30.040375 h732.000000"/><text class="" x="-5" y="33.54037549895429">260</text><title>260</title></g></g><g class="axis x"><g class="guides"><path class="major line" d="M14.076923 0.000000 v462.029437"/><text class="major" x="14.076923076923077" y="477.02943725152284" transform="rotate(45 14.076923 477.029437)">1981</text></g><g class="guides"><path class="major guide line" d="M24.504274 0.000000 v462.029437"/><text class="major" x="24.504273504273502" y="477.02943725152284" transform="rotate(45 24.504274 477.029437)">1982</text></g><g class="guides"><path class="major guide line" d="M55.786325 0.000000 v462.029437"/><text class="major" x="55.78632478632479" y="477.02943725152284" transform="rotate(45 55.786325 477.029437)">1983</text></g><g class="guides"><path class="major guide line" d="M107.923077 0.000000 v462.029437"/><text class="major" x="107.92307692307692" y="477.02943725152284" transform="rotate(45 107.923077 477.029437)">1984</text></g><g class="guides"><path class="major guide line" d="M144.418803 0.000000 v462.029437"/><text class="major" x="144.41880341880338" y="477.02943725152284" transform="rotate(45 144.418803 477.029437)">1985</text></g><g class="guides"><path class="major guide line" d="M217.410256 0.000000 v462.029437"/><text class="major" x="217.41025641025638" y="477.02943725152284" transform="rotate(45 217.410256 477.029437)">1986</text></g><g class="guides"><path class="major guide line" d="M358.179487 0.000000 v462.029437"/><text class="major" x="358.1794871794871" y="477.02943725152284" transform="rotate(45 358.179487 477.029437)">1987</text></g><g class="guides"><path class="major guide line" d="M467.666667 0.000000 v462.029437"/><text class="major" x="467.6666666666667" y="477.02943725152284" transform="rotate(45 467.666667 477.029437)">1988</text></g><g class="guides"><path class="major guide line" d="M530.230769 0.000000 v462.029437"/><text class="major" x="530.2307692307692" y="477.02943725152284" transform="rotate(45 530.230769 477.029437)">1989</text></g><g class="guides"><path class="major guide line" d="M592.794872 0.000000 v462.029437"/><text class="major" x="592.7948717948718" y="477.02943725152284" transform="rotate(45 592.794872 477.029437)">1990</text></g><g class="guides"><path class="major guide line" d="M624.076923 0.000000 v462.029437"/><text class="major" x="624.0769230769231" y="477.02943725152284" transform="rotate(45 624.076923 477.029437)">1991</text></g><g class="guides"><path class="major guide line" d="M671.000000 0.000000 v462.029437"/><text class="major" x="671.0" y="477.02943725152284" transform="rotate(45 671.000000 477.029437)">1992</text></g></g><g class="series serie-0 color-0"><path class="line reactive nofill" d="M14.076923 394.479275 L19.290598 394.788467 24.504274 395.455669 29.717949 395.439396 34.931624 395.911319 40.145299 396.578522 45.358974 397.099265 50.572650 397.489822 55.786325 397.554915 61.000000 396.838893 66.213675 396.513429 71.427350 395.455669 76.641026 395.488215 81.854701 395.716041 87.068376 395.797407 92.282051 395.634675 97.495726 395.878773 102.709402 396.464609 107.923077 395.748587 113.136752 395.423123 118.350427 394.446729 123.564103 394.788467 128.777778 395.292937 133.991453 395.748587 139.205128 396.464609 144.418803 397.180631 149.632479 397.099265 154.846154 395.585855 160.059829 395.504489 165.273504 395.927593 170.487179 394.707101 175.700855 394.674554 180.914530 393.388969 186.128205 393.502882 191.341880 392.542762 196.555556 391.468729 201.769231 391.419909 206.982906 391.126991 212.196581 391.598914 217.410256 392.087111 222.623932 392.363756 227.837607 392.786860 233.051282 392.526488 238.264957 392.835680 243.478632 392.933319 248.692308 392.803133 253.905983 392.054565 259.119658 391.973199 264.333333 391.322270 269.547009 391.224630 274.760684 390.280783 279.974359 391.110718 285.188034 390.020411 290.401709 390.882892 295.615385 391.696554 300.829060 390.573701 306.042735 391.387362 311.256410 392.070838 316.470085 391.729100 321.683761 390.817800 326.897436 390.996805 332.111111 389.694947 337.324786 389.971592 342.538462 390.964259 347.752137 391.745373 352.965812 390.622521 358.179487 391.257177 363.393162 389.987865 368.606838 391.045625 373.820513 388.555821 379.034188 386.163657 384.247863 382.192990 389.461538 382.079077 394.675214 382.811372 399.888889 384.568881 405.102564 386.098564 410.316239 383.511121 415.529915 384.454968 420.743590 384.275963 425.957265 384.552607 431.170940 383.088017 436.384615 382.518454 441.598291 382.192990 446.811966 381.867525 452.025641 381.379328 457.239316 383.364662 462.452991 380.728399 467.666667 375.911524 472.880342 372.770792 478.094017 375.228049 483.307692 376.367175 488.521368 375.179229 493.735043 375.195502 498.948718 376.448541 504.162393 373.405448 509.376068 375.032770 514.589744 373.698366 519.803419 376.074257 525.017094 378.694246 530.230769 380.500574 535.444444 380.402935 540.658120 380.044924 545.871795 381.981438 551.085470 384.227143 556.299145 387.481788 561.512821 390.052958 566.726496 388.865012 571.940171 388.897559 577.153846 391.371089 582.367521 389.141657 587.581197 390.215690 592.794872 389.434575 598.008547 388.653460 603.222222 384.503788 608.435897 384.292236 613.649573 385.333722 618.863248 382.013984 624.076923 383.755219 629.290598 385.496455 634.504274 386.928499 639.717949 380.500574 644.931624 386.277569 650.145299 388.783646 655.358974 339.231673 660.572650 347.091641 665.786325 340.533531 671.000000 351.599325 676.213675 364.617905 681.427350 367.221622 686.641026 330.558043 691.854701 355.504899 697.068376 329.467737 702.282051 347.368286 707.495726 300.175930 712.709402 353.877576 717.923077 394.560642"/></g><g class="series serie-1 color-1"><path class="line reactive nofill" d="M14.076923 453.144256 L19.290598 414.088513 24.504274 327.840414 29.717949 272.511445 34.931624 212.300509 40.145299 126.052410 45.358974 59.332183 50.572650 8.885181 55.786325 199.281928 61.000000 335.977027 66.213675 352.787270 71.427350 381.542061 76.641026 382.518454 81.854701 379.914738 87.068376 378.775612 92.282051 382.127897 97.495726 380.858585 102.709402 376.790279 107.923077 384.910618 113.136752 387.856072 118.350427 394.739647 123.564103 392.754313 128.777778 389.760040 133.991453 387.188870 139.205128 382.990378 144.418803 378.889525 149.632479 380.240203 154.846154 389.678674 160.059829 390.264510 165.273504 388.507001 170.487179 393.681887 175.700855 393.828346 180.914530 397.815287 186.128205 397.327090 191.341880 399.719254 196.555556 401.997506 201.769231 401.834774 206.982906 402.241604 212.196581 401.151298 217.410256 400.028446 222.623932 399.198511 227.837607 398.270937 233.051282 398.694041 238.264957 398.010566 243.478632 397.701374 248.692308 397.847833 253.905983 399.003232 259.119658 399.019506 264.333333 399.816894 269.547009 399.800620 274.760684 400.907200 279.974359 399.637888 285.188034 400.890927 290.401709 399.654161 295.615385 398.498762 300.829060 399.735527 306.042735 398.645221 311.256410 397.733921 316.470085 397.961746 321.683761 398.840500 326.897436 398.498762 332.111111 399.654161 337.324786 399.214784 342.538462 398.173298 347.752137 397.343363 352.965812 398.287210 358.179487 397.668828 363.393162 398.645221 368.606838 397.668828 373.820513 399.491429 379.034188 400.874653 384.247863 402.778621 389.461538 402.599615 394.675214 402.111419 399.888889 400.972293 405.102564 399.963353 410.316239 400.988566 415.529915 400.419003 420.743590 400.337637 425.957265 399.995899 431.170940 400.386457 436.384615 400.467823 441.598291 400.419003 446.811966 400.370183 452.025641 400.370183 457.239316 399.475156 462.452991 400.223724 467.666667 401.395397 472.880342 401.948686 478.094017 401.102478 483.307692 400.711921 488.521368 400.858380 493.735043 400.581735 498.948718 400.191178 504.162393 400.598008 509.376068 400.126085 514.589744 400.256271 519.803419 399.589068 525.017094 398.856773 530.230769 398.368576 535.444444 398.222117 540.658120 398.124478 545.871795 397.636281 551.085470 397.066718 556.299145 396.253057 561.512821 395.602128 566.726496 395.764860 571.940171 395.699767 577.153846 395.162751 582.367521 395.520762 587.581197 395.309210 592.794872 395.406849 598.008547 395.488215 603.222222 395.992685 608.435897 395.927593 613.649573 395.683494 618.863248 396.008959 624.076923 395.797407 629.290598 395.585855 634.504274 395.325483 639.717949 395.781134 644.931624 395.244117 650.145299 395.016292 655.358974 397.180631 660.572650 396.790074 665.786325 396.659888 671.000000 396.220511 676.213675 395.683494 681.427350 395.585855 686.641026 396.008959 691.854701 395.406849 697.068376 395.504489 702.282051 395.227844 707.495726 395.227844 712.709402 394.804740 717.923077 394.479275"/></g><g class="series serie-2 color-2"><path class="line reactive nofill" d="M14.076923 394.479275 L19.290598 394.479275 24.504274 394.479275 29.717949 394.479275 34.931624 394.479275 40.145299 394.479275 45.358974 394.479275 50.572650 394.479275 55.786325 394.479275 61.000000 394.479275 66.213675 394.479275 71.427350 394.479275 76.641026 394.479275 81.854701 394.479275 87.068376 394.479275 92.282051 394.479275 97.495726 394.479275 102.709402 394.479275 107.923077 394.479275 113.136752 394.479275 118.350427 394.479275 123.564103 394.479275 128.777778 394.479275 133.991453 394.479275 139.205128 394.479275 144.418803 394.479275 149.632479 394.479275 154.846154 394.479275 160.059829 394.479275 165.273504 394.479275 170.487179 394.479275 175.700855 394.479275 180.914530 394.479275 186.128205 394.479275 191.341880 394.479275 196.555556 394.479275 201.769231 394.479275 206.982906 394.479275 212.196581 394.479275 217.410256 394.479275 222.623932 394.479275 227.837607 394.479275 233.051282 394.479275 238.264957 394.479275 243.478632 394.479275 248.692308 394.479275 253.905983 394.479275 259.119658 394.479275 264.333333 394.479275 269.547009 394.479275 274.760684 394.479275 279.974359 394.479275 285.188034 394.479275 290.401709 394.479275 295.615385 394.479275 300.829060 394.479275 306.042735 394.479275 311.256410 394.479275 316.470085 394.479275 321.683761 394.479275 326.897436 394.479275 332.111111 394.479275 337.324786 394.479275 342.538462 394.479275 347.752137 394.479275 352.965812 394.479275 358.179487 394.479275 363.393162 394.479275 368.606838 394.479275 373.820513 394.479275 379.034188 394.479275 384.247863 394.479275 389.461538 394.479275 394.675214 394.479275 399.888889 394.479275 405.102564 394.479275 410.316239 394.479275 415.529915 394.479275 420.743590 394.479275 425.957265 394.479275 431.170940 394.479275 436.384615 394.479275 441.598291 394.479275 446.811966 394.479275 452.025641 394.479275 457.239316 394.479275 462.452991 394.479275 467.666667 394.479275 472.880342 394.479275 478.094017 394.479275 483.307692 394.479275 488.521368 394.479275 493.735043 394.479275 498.948718 394.479275 504.162393 394.479275 509.376068 394.479275 514.589744 394.479275 519.803419 394.479275 525.017094 394.479275 530.230769 394.479275 535.444444 394.479275 540.658120 394.479275 545.871795 394.479275 551.085470 394.479275 556.299145 394.479275 561.512821 394.479275 566.726496 394.479275 571.940171 394.479275 577.153846 394.479275 582.367521 394.479275 587.581197 394.479275 592.794872 394.479275 598.008547 394.479275 603.222222 394.479275 608.435897 394.479275 613.649573 394.479275 618.863248 394.479275 624.076923 394.479275 629.290598 394.479275 634.504274 394.479275 639.717949 394.479275 644.931624 394.479275 650.145299 394.479275 655.358974 394.479275 660.572650 394.479275 665.786325 394.479275 671.000000 394.479275 676.213675 394.479275 681.427350 394.479275 686.641026 394.479275 691.854701 394.479275 697.068376 394.479275 702.282051 394.479275 707.495726 394.479275 712.709402 394.479275 717.923077 394.479275"/></g></g><g class="titles"><text class="title plot_title" x="400.0" y="26">RJ Shastri: Future and Past Averages in ODIs</text></g><g class="plot overlay" transform="translate(48, 46)"><g class="series serie-0 color-0"><g class="dots"><desc class="label">129 wickets in 136 innings (1102.1 overs)</desc><circle class="dot reactive tooltip-trigger" cx="14.076923076923077" cy="394.4792754442859" r="2.5"/><desc class="value">36.05</desc><desc class="x top">14.076923076923077</desc><desc class="y top">394.4792754442859</desc><desc class="x_label">1981</desc></g><g class="dots"><desc class="label">129 wickets in 134 innings (1085.1 overs)</desc><circle class="dot reactive tooltip-trigger" cx="24.504273504273502" cy="395.4556690141327" r="2.5"/><desc class="value">35.45</desc><desc class="x top">24.504273504273502</desc><desc class="y top">395.4556690141327</desc><desc class="x_label">1982</desc></g><g class="dots"><desc class="label">127 wickets in 128 innings (1039.1 overs)</desc><circle class="dot reactive tooltip-trigger" cx="55.78632478632479" cy="397.5549151893034" r="2.5"/><desc class="value">34.16</desc><desc class="x top">55.78632478632479</desc><desc class="y top">397.5549151893034</desc><desc class="x_label">1983</desc></g><g class="dots"><desc class="label">114 wickets in 118 innings (972.0 overs)</desc><circle class="dot reactive tooltip-trigger" cx="107.92307692307692" cy="395.7485870850868" r="2.5"/><desc class="value">35.27</desc><desc class="x top">107.92307692307692</desc><desc class="y top">395.7485870850868</desc><desc class="x_label">1984</desc></g><g class="dots"><desc class="label">110 wickets in 111 innings (920.0 overs)</desc><circle class="dot reactive tooltip-trigger" cx="144.41880341880338" cy="397.1806309875288" r="2.5"/><desc class="value">34.39</desc><desc class="x top">144.41880341880338</desc><desc class="y top">397.1806309875288</desc><desc class="x_label">1985</desc></g><g class="dots"><desc class="label">90 wickets in 97 innings (798.3 overs)</desc><circle class="dot reactive tooltip-trigger" cx="217.41025641025638" cy="392.0871111981611" r="2.5"/><desc class="value">37.52</desc><desc class="x top">217.41025641025638</desc><desc class="y top">392.0871111981611</desc><desc class="x_label">1986</desc></g><g class="dots"><desc class="label">64 wickets in 70 innings (550.3 overs)</desc><circle class="dot reactive tooltip-trigger" cx="358.1794871794871" cy="391.2571766637913" r="2.5"/><desc class="value">38.03</desc><desc class="x top">358.1794871794871</desc><desc class="y top">391.2571766637913</desc><desc class="x_label">1987</desc></g><g class="dots"><desc class="label">35 wickets in 49 innings (363.5 overs)</desc><circle class="dot reactive tooltip-trigger" cx="467.6666666666667" cy="375.9115243910319" r="2.5"/><desc class="value">47.46</desc><desc class="x left top">467.6666666666667</desc><desc class="y left top">375.9115243910319</desc><desc class="x_label">1988</desc></g><g class="dots"><desc class="label">28 wickets in 37 innings (276.5 overs)</desc><circle class="dot reactive tooltip-trigger" cx="530.2307692307692" cy="380.500574169312" r="2.5"/><desc class="value">44.64</desc><desc class="x left top">530.2307692307692</desc><desc class="y left top">380.500574169312</desc><desc class="x_label">1989</desc></g><g class="dots"><desc class="label">20 wickets in 25 innings (184.5 overs)</desc><circle class="dot reactive tooltip-trigger" cx="592.7948717948718" cy="389.4345753334106" r="2.5"/><desc class="value">39.15</desc><desc class="x left top">592.7948717948718</desc><desc class="y left top">389.4345753334106</desc><desc class="x_label">1990</desc></g><g class="dots"><desc class="label">14 wickets in 19 innings (136.5 overs)</desc><circle class="dot reactive tooltip-trigger" cx="624.0769230769231" cy="383.7552194021348" r="2.5"/><desc class="value">42.64</desc><desc class="x left top">624.0769230769231</desc><desc class="y left top">383.7552194021348</desc><desc class="x_label">1991</desc></g><g class="dots"><desc class="label">5 wickets in 10 innings (66.0 overs)</desc><circle class="dot reactive tooltip-trigger" cx="671.0" cy="351.5993245018457" r="2.5"/><desc class="value">62.4</desc><desc class="x left top">671.0</desc><desc class="y left top">351.5993245018457</desc><desc class="x_label">1992</desc></g></g><g class="series serie-1 color-1"><g class="dots"><desc class="label">0 wickets over 0 innings</desc><circle class="dot reactive tooltip-trigger" cx="14.076923076923077" cy="453.1442557659166" r="2.5"/><desc class="value">0</desc><desc class="x top">14.076923076923077</desc><desc class="y top">453.1442557659166</desc><desc class="x_label">1981</desc></g><g class="dots"><desc class="label">0 wickets in 2 innings (17.0 overs)</desc><circle class="dot reactive tooltip-trigger" cx="24.504273504273502" cy="327.8404143022393" r="2.5"/><desc class="value">77</desc><desc class="x top">24.504273504273502</desc><desc class="y top">327.8404143022393</desc><desc class="x_label">1982</desc></g><g class="dots"><desc class="label">2 wickets in 8 innings (63.0 overs)</desc><circle class="dot reactive tooltip-trigger" cx="55.78632478632479" cy="199.2819276057392" r="2.5"/><desc class="value">156</desc><desc class="x ">55.78632478632479</desc><desc class="y ">199.2819276057392</desc><desc class="x_label">1983</desc></g><g class="dots"><desc class="label">15 wickets in 18 innings (130.1 overs)</desc><circle class="dot reactive tooltip-trigger" cx="107.92307692307692" cy="384.91061845978686" r="2.5"/><desc class="value">41.93</desc><desc class="x top">107.92307692307692</desc><desc class="y top">384.91061845978686</desc><desc class="x_label">1984</desc></g><g class="dots"><desc class="label">19 wickets in 25 innings (182.1 overs)</desc><circle class="dot reactive tooltip-trigger" cx="144.41880341880338" cy="378.88952477906474" r="2.5"/><desc class="value">45.63</desc><desc class="x top">144.41880341880338</desc><desc class="y top">378.88952477906474</desc><desc class="x_label">1985</desc></g><g class="dots"><desc class="label">39 wickets in 39 innings (303.4 overs)</desc><circle class="dot reactive tooltip-trigger" cx="217.41025641025638" cy="400.0284455662487" r="2.5"/><desc class="value">32.64</desc><desc class="x top">217.41025641025638</desc><desc class="y top">400.0284455662487</desc><desc class="x_label">1986</desc></g><g class="dots"><desc class="label">65 wickets in 66 innings (551.4 overs)</desc><circle class="dot reactive tooltip-trigger" cx="358.1794871794871" cy="397.66882777245223" r="2.5"/><desc class="value">34.09</desc><desc class="x top">358.1794871794871</desc><desc class="y top">397.66882777245223</desc><desc class="x_label">1987</desc></g><g class="dots"><desc class="label">94 wickets in 87 innings (738.2 overs)</desc><circle class="dot reactive tooltip-trigger" cx="467.6666666666667" cy="401.3953965640343" r="2.5"/><desc class="value">31.8</desc><desc class="x left top">467.6666666666667</desc><desc class="y left top">401.3953965640343</desc><desc class="x_label">1988</desc></g><g class="dots"><desc class="label">101 wickets in 99 innings (825.2 overs)</desc><circle class="dot reactive tooltip-trigger" cx="530.2307692307692" cy="398.36857649750914" r="2.5"/><desc class="value">33.66</desc><desc class="x left top">530.2307692307692</desc><desc class="y left top">398.36857649750914</desc><desc class="x_label">1989</desc></g><g class="dots"><desc class="label">109 wickets in 111 innings (917.2 overs)</desc><circle class="dot reactive tooltip-trigger" cx="592.7948717948718" cy="395.4068493356404" r="2.5"/><desc class="value">35.48</desc><desc class="x left top">592.7948717948718</desc><desc class="y left top">395.4068493356404</desc><desc class="x_label">1990</desc></g><g class="dots"><desc class="label">115 wickets in 117 innings (965.2 overs)</desc><circle class="dot reactive tooltip-trigger" cx="624.0769230769231" cy="395.7974067635791" r="2.5"/><desc class="value">35.24</desc><desc class="x left top">624.0769230769231</desc><desc class="y left top">395.7974067635791</desc><desc class="x_label">1991</desc></g><g class="dots"><desc class="label">124 wickets in 126 innings (1036.1 overs)</desc><circle class="dot reactive tooltip-trigger" cx="671.0" cy="396.22051064384607" r="2.5"/><desc class="value">34.98</desc><desc class="x left top">671.0</desc><desc class="y left top">396.22051064384607</desc><desc class="x_label">1992</desc></g></g><g class="series serie-2 color-2"/></g><g class="plot text-overlay" transform="translate(48, 46)"><g class="series serie-0 color-0"/><g class="series serie-1 color-1"/><g class="series serie-2 color-2"/></g><g class="plot tooltip-overlay" transform="translate(48, 46)"><g class="tooltip" style="opacity: 0" transform="translate(0 0)"><rect class="tooltip-box" height="0" rx="10" ry="10" width="0"/><g class="text"/></g></g><g class="legends" transform="translate(58, 545)"><g class="legend reactive activate-serie" id="activate-serie-0"><rect class="color-0 reactive" height="12" width="12" x="0.0" y="1.0"/><text x="17.0" y="11.2">Future Average</text></g><g class="legend reactive activate-serie" id="activate-serie-1"><rect class="color-1 reactive" height="12" width="12" x="366.0" y="1.0"/><text x="383.0" y="11.2">Past Average</text></g><g class="legend reactive activate-serie" id="activate-serie-2"><rect class="color-2 reactive" height="12" width="12" x="0.0" y="22.0"/><text x="17.0" y="32.2">Career Average</text></g></g></g></svg>