<?xml version='1.0' encoding='utf-8'?>
<svg xmlns:xlink="http://www.w3.org/1999/xlink" xmlns="http://www.w3.org/2000/svg" id="chart-3e7235b2-be4b-4cfc-acc1-b2ad46c4ffb1" class="pygal-chart" viewBox="0 0 800 600"><!--Generated with pygal 2.4.0 (lxml) ©Kozea 2012-2016 on 2019-08-04--><!--http://pygal.org--><!--http://github.com/Kozea/pygal--><defs><style type="text/css">#chart-3e7235b2-be4b-4cfc-acc1-b2ad46c4ffb1{-webkit-user-select:none;-webkit-font-smoothing:antialiased;font-family:Consolas,"Liberation Mono",Menlo,Courier,monospace}#chart-3e7235b2-be4b-4cfc-acc1-b2ad46c4ffb1 .title{font-family:Consolas,"Liberation Mono",Menlo,Courier,monospace;font-size:16px}#chart-3e7235b2-be4b-4cfc-acc1-b2ad46c4ffb1 .legends .legend text{font-family:Consolas,"Liberation Mono",Menlo,Courier,monospace;font-size:14px}#chart-3e7235b2-be4b-4cfc-acc1-b2ad46c4ffb1 .axis text{font-family:Consolas,"Liberation Mono",Menlo,Courier,monospace;font-size:10px}#chart-3e7235b2-be4b-4cfc-acc1-b2ad46c4ffb1 .axis text.major{font-family:Consolas,"Liberation Mono",Menlo,Courier,monospace;font-size:10px}#chart-3e7235b2-be4b-4cfc-acc1-b2ad46c4ffb1 .text-overlay text.value{font-family:Consolas,"Liberation Mono",Menlo,Courier,monospace;font-size:16px}#chart-3e7235b2-be4b-4cfc-acc1-b2ad46c4ffb1 .text-overlay text.label{font-family:Consolas,"Liberation Mono",Menlo,Courier,monospace;font-size:10px}#chart-3e7235b2-be4b-4cfc-acc1-b2ad46c4ffb1 .tooltip{font-family:Consolas,"Liberation Mono",Menlo,Courier,monospace;font-size:14px}#chart-3e7235b2-be4b-4cfc-acc1-b2ad46c4ffb1 text.no_data{font-family:Consolas,"Liberation Mono",Menlo,Courier,monospace;font-size:64px}
#chart-3e7235b2-be4b-4cfc-acc1-b2ad46c4ffb1{background-color:rgba(249,249,249,1)}#chart-3e7235b2-be4b-4cfc-acc1-b2ad46c4ffb1 path,#chart-3e7235b2-be4b-4cfc-acc1-b2ad46c4ffb1 line,#chart-3e7235b2-be4b-4cfc-acc1-b2ad46c4ffb1 rect,#chart-3e7235b2-be4b-4cfc-acc1-b2ad46c4ffb1 circle{-webkit-transition:150ms;-moz-transition:150ms;transition:150ms}#chart-3e7235b2-be4b-4cfc-acc1-b2ad46c4ffb1 .graph &gt; .background{fill:rgba(249,249,249,1)}#chart-3e7235b2-be4b-4cfc-acc1-b2ad46c4ffb1 .plot &gt; .background{fill:rgba(255,255,255,1)}#chart-3e7235b2-be4b-4cfc-acc1-b2ad46c4ffb1 .graph{fill:rgba(0,0,0,.87)}#chart-3e7235b2-be4b-4cfc-acc1-b2ad46c4ffb1 text.no_data{fill:rgba(0,0,0,1)}#chart-3e7235b2-be4b-4cfc-acc1-b2ad46c4ffb1 .title{fill:rgba(0,0,0,1)}#chart-3e7235b2-be4b-4cfc-acc1-b2ad46c4ffb1 .legends .legend text{fill:rgba(0,0,0,.87)}#chart-3e7235b2-be4b-4cfc-acc1-b2ad46c4ffb1 .legends .legend:hover text{fill:rgba(0,0,0,1)}#chart-3e7235b2-be4b-4cfc-acc1-b2ad46c4ffb1 .axis .line{stroke:rgba(0,0,0,1)}#chart-3e7235b2-be4b-4cfc-acc1-b2ad46c4ffb1 .axis .guide.line{stroke:rgba(0,0,0,.54)}#chart-3e7235b2-be4b-4cfc-acc1-b2ad46c4ffb1 .axis .major.line{stroke:rgba(0,0,0,.87)}#chart-3e7235b2-be4b-4cfc-acc1-b2ad46c4ffb1 .axis text.major{fill:rgba(0,0,0,1)}#chart-3e7235b2-be4b-4cfc-acc1-b2ad46c4ffb1 .axis.y .guides:hover .guide.line,#chart-3e7235b2-be4b-4cfc-acc1-b2ad46c4ffb1 .line-graph .axis.x .guides:hover .guide.line,#chart-3e7235b2-be4b-4cfc-acc1-b2ad46c4ffb1 .stackedline-graph .axis.x .guides:hover .guide.line,#chart-3e7235b2-be4b-4cfc-acc1-b2ad46c4ffb1 .xy-graph .axis.x .guides:hover .guide.line{stroke:rgba(0,0,0,1)}#chart-3e7235b2-be4b-4cfc-acc1-b2ad46c4ffb1 .axis .guides:hover text{fill:rgba(0,0,0,1)}#chart-3e7235b2-be4b-4cfc-acc1-b2ad46c4ffb1 .reactive{fill-opacity:.7;stroke-opacity:.8}#chart-3e7235b2-be4b-4cfc-acc1-b2ad46c4ffb1 .ci{stroke:rgba(0,0,0,.87)}#chart-3e7235b2-be4b-4cfc-acc1-b2ad46c4ffb1 .reactive.active,#chart-3e7235b2-be4b-4cfc-acc1-b2ad46c4ffb1 .active .reactive{fill-opacity:.8;stroke-opacity:.9;stroke-width:4}#chart-3e7235b2-be4b-4cfc-acc1-b2ad46c4ffb1 .ci .reactive.active{stroke-width:1.5}#chart-3e7235b2-be4b-4cfc-acc1-b2ad46c4ffb1 .series text{fill:rgba(0,0,0,1)}#chart-3e7235b2-be4b-4cfc-acc1-b2ad46c4ffb1 .tooltip rect{fill:rgba(255,255,255,1);stroke:rgba(0,0,0,1);-webkit-transition:opacity 150ms;-moz-transition:opacity 150ms;transition:opacity 150ms}#chart-3e7235b2-be4b-4cfc-acc1-b2ad46c4ffb1 .tooltip .label{fill:rgba(0,0,0,.87)}#chart-3e7235b2-be4b-4cfc-acc1-b2ad46c4ffb1 .tooltip .label{fill:rgba(0,0,0,.87)}#chart-3e7235b2-be4b-4cfc-acc1-b2ad46c4ffb1 .tooltip .legend{font-size:.8em;fill:rgba(0,0,0,.54)}#chart-3e7235b2-be4b-4cfc-acc1-b2ad46c4ffb1 .tooltip .x_label{font-size:.6em;fill:rgba(0,0,0,1)}#chart-3e7235b2-be4b-4cfc-acc1-b2ad46c4ffb1 .tooltip .xlink{font-size:.5em;text-decoration:underline}#chart-3e7235b2-be4b-4cfc-acc1-b2ad46c4ffb1 .tooltip .value{font-size:1.5em}#chart-3e7235b2-be4b-4cfc-acc1-b2ad46c4ffb1 .bound{font-size:.5em}#chart-3e7235b2-be4b-4cfc-acc1-b2ad46c4ffb1 .max-value{font-size:.75em;fill:rgba(0,0,0,.54)}#chart-3e7235b2-be4b-4cfc-acc1-b2ad46c4ffb1 .map-element{fill:rgba(255,255,255,1);stroke:rgba(0,0,0,.54) !important}#chart-3e7235b2-be4b-4cfc-acc1-b2ad46c4ffb1 .map-element .reactive{fill-opacity:inherit;stroke-opacity:inherit}#chart-3e7235b2-be4b-4cfc-acc1-b2ad46c4ffb1 .color-0,#chart-3e7235b2-be4b-4cfc-acc1-b2ad46c4ffb1 .color-0 a:visited{stroke:red;fill:red}#chart-3e7235b2-be4b-4cfc-acc1-b2ad46c4ffb1 .color-1,#chart-3e7235b2-be4b-4cfc-acc1-b2ad46c4ffb1 .color-1 a:visited{stroke:blue;fill:blue}#chart-3e7235b2-be4b-4cfc-acc1-b2ad46c4ffb1 .color-2,#chart-3e7235b2-be4b-4cfc-acc1-b2ad46c4ffb1 .color-2 a:visited{stroke:green;fill:green}#chart-3e7235b2-be4b-4cfc-acc1-b2ad46c4ffb1 .text-overlay .color-0 text{fill:white}#chart-3e7235b2-be4b-4cfc-acc1-b2ad46c4ffb1 .text-overlay .color-1 text{fill:white}#chart-3e7235b2-be4b-4cfc-acc1-b2ad46c4ffb1 .text-overlay .color-2 text{fill:white}
#chart-3e7235b2-be4b-4cfc-acc1-b2ad46c4ffb1 text.no_data{text-anchor:middle}#chart-3e7235b2-be4b-4cfc-acc1-b2ad46c4ffb1 .guide.line{fill:none}#chart-3e7235b2-be4b-4cfc-acc1-b2ad46c4ffb1 .centered{text-anchor:middle}#chart-3e7235b2-be4b-4cfc-acc1-b2ad46c4ffb1 .title{text-anchor:middle}#chart-3e7235b2-be4b-4cfc-acc1-b2ad46c4ffb1 .legends .legend text{fill-opacity:1}#chart-3e7235b2-be4b-4cfc-acc1-b2ad46c4ffb1 .axis.x text{text-anchor:middle}#chart-3e7235b2-be4b-4cfc-acc1-b2ad46c4ffb1 .axis.x:not(.web) text[transform]{text-anchor:start}#chart-3e7235b2-be4b-4cfc-acc1-b2ad46c4ffb1 .axis.x:not(.web) text[transform].backwards{text-anchor:end}#chart-3e7235b2-be4b-4cfc-acc1-b2ad46c4ffb1 .axis.y text{text-anchor:end}#chart-3e7235b2-be4b-4cfc-acc1-b2ad46c4ffb1 .axis.y text[transform].backwards{text-anchor:start}#chart-3e7235b2-be4b-4cfc-acc1-b2ad46c4ffb1 .axis.y2 text{text-anchor:start}#chart-3e7235b2-be4b-4cfc-acc1-b2ad46c4ffb1 .axis.y2 text[transform].backwards{text-anchor:end}#chart-3e7235b2-be4b-4cfc-acc1-b2ad46c4ffb1 .axis .guide.line{stroke-dasharray:4,4}#chart-3e7235b2-be4b-4cfc-acc1-b2ad46c4ffb1 .axis .major.guide.line{stroke-dasharray:6,6}#chart-3e7235b2-be4b-4cfc-acc1-b2ad46c4ffb1 .horizontal .axis.y .guide.line,#chart-3e7235b2-be4b-4cfc-acc1-b2ad46c4ffb1 .horizontal .axis.y2 .guide.line,#chart-3e7235b2-be4b-4cfc-acc1-b2ad46c4ffb1 .vertical .axis.x .guide.line{opacity:0}#chart-3e7235b2-be4b-4cfc-acc1-b2ad46c4ffb1 .horizontal .axis.always_show .guide.line,#chart-3e7235b2-be4b-4cfc-acc1-b2ad46c4ffb1 .vertical .axis.always_show .guide.line{opacity:1 !important}#chart-3e7235b2-be4b-4cfc-acc1-b2ad46c4ffb1 .axis.y .guides:hover .guide.line,#chart-3e7235b2-be4b-4cfc-acc1-b2ad46c4ffb1 .axis.y2 .guides:hover .guide.line,#chart-3e7235b2-be4b-4cfc-acc1-b2ad46c4ffb1 .axis.x .guides:hover .guide.line{opacity:1}#chart-3e7235b2-be4b-4cfc-acc1-b2ad46c4ffb1 .axis .guides:hover text{opacity:1}#chart-3e7235b2-be4b-4cfc-acc1-b2ad46c4ffb1 .nofill{fill:none}#chart-3e7235b2-be4b-4cfc-acc1-b2ad46c4ffb1 .subtle-fill{fill-opacity:.2}#chart-3e7235b2-be4b-4cfc-acc1-b2ad46c4ffb1 .dot{stroke-width:1px;fill-opacity:1}#chart-3e7235b2-be4b-4cfc-acc1-b2ad46c4ffb1 .dot.active{stroke-width:5px}#chart-3e7235b2-be4b-4cfc-acc1-b2ad46c4ffb1 .dot.negative{fill:transparent}#chart-3e7235b2-be4b-4cfc-acc1-b2ad46c4ffb1 text,#chart-3e7235b2-be4b-4cfc-acc1-b2ad46c4ffb1 tspan{stroke:none !important}#chart-3e7235b2-be4b-4cfc-acc1-b2ad46c4ffb1 .series text.active{opacity:1}#chart-3e7235b2-be4b-4cfc-acc1-b2ad46c4ffb1 .tooltip rect{fill-opacity:.95;stroke-width:.5}#chart-3e7235b2-be4b-4cfc-acc1-b2ad46c4ffb1 .tooltip text{fill-opacity:1}#chart-3e7235b2-be4b-4cfc-acc1-b2ad46c4ffb1 .showable{visibility:hidden}#chart-3e7235b2-be4b-4cfc-acc1-b2ad46c4ffb1 .showable.shown{visibility:visible}#chart-3e7235b2-be4b-4cfc-acc1-b2ad46c4ffb1 .gauge-background{fill:rgba(229,229,229,1);stroke:none}#chart-3e7235b2-be4b-4cfc-acc1-b2ad46c4ffb1 .bg-lines{stroke:rgba(249,249,249,1);stroke-width:2px}</style><script type="text/javascript">window.pygal = window.pygal || {};window.pygal.config = window.pygal.config || {};window.pygal.config['3e7235b2-be4b-4cfc-acc1-b2ad46c4ffb1'] = {"allow_interruptions": false, "box_mode": "extremes", "classes": ["pygal-chart"], "css": ["file://style.css", "file://graph.css"], "defs": [], "disable_xml_declaration": false, "dots_size": 2.5, "dynamic_print_values": false, "explicit_size": false, "fill": false, "force_uri_protocol": "https", "formatter": null, "half_pie": false, "height": 600, "include_x_axis": false, "inner_radius": 0, "interpolate": null, "interpolation_parameters": {}, "interpolation_precision": 250, "inverse_y_axis": false, "js": ["//kozea.github.io/pygal.js/2.0.x/pygal-tooltips.min.js"], "legend_at_bottom": true, "legend_at_bottom_columns": null, "legend_box_size": 12, "logarithmic": false, "margin": 20, "margin_bottom": null, "margin_left": null, "margin_right": null, "margin_top": null, "max_scale": 16, "min_scale": 4, "missing_value_fill_truncation": "x", "no_data_text": "No data", "no_prefix": false, "order_min": null, "pretty_print": false, "print_labels": false, "print_values": false, "print_values_position": "center", "print_zeroes": true, "range": null, "rounded_bars": null, "secondary_range": null, "show_dots": true, "show_legend": true, "show_minor_x_labels": false, "show_minor_y_labels": true, "show_only_major_dots": false, "show_x_guides": false, "show_x_labels": true, "show_y_guides": true, "show_y_labels": true, "spacing": 10, "stack_from_top": false, "strict": false, "stroke": true, "stroke_style": null, "style": {"background": "rgba(249, 249, 249, 1)", "ci_colors": [], "colors": ["red", "blue", "green", "#a3a3a3"], "font_family": "Consolas, \"Liberation Mono\", Menlo, Courier, monospace", "foreground": "rgba(0, 0, 0, .87)", "foreground_strong": "rgba(0, 0, 0, 1)", "foreground_subtle": "rgba(0, 0, 0, .54)", "guide_stroke_dasharray": "4,4", "label_font_family": "Consolas, \"Liberation Mono\", Menlo, Courier, monospace", "label_font_size": 10, "legend_font_family": "Consolas, \"Liberation Mono\", Menlo, Courier, monospace", "legend_font_size": 14, "major_guide_stroke_dasharray": "6,6", "major_label_font_family": "Consolas, \"Liberation Mono\", Menlo, Courier, monospace", "major_label_font_size": 10, "no_data_font_family": "Consolas, \"Liberation Mono\", Menlo, Courier, monospace", "no_data_font_size": 64, "opacity": ".7", "opacity_hover": ".8", "plot_background": "rgba(255, 255, 255, 1)", "stroke_opacity": ".8", "stroke_opacity_hover": ".9", "title_font_family": "Consolas, \"Liberation Mono\", Menlo, Courier, monospace", "title_font_size": 16, "tooltip_font_family": "Consolas, \"Liberation Mono\", Menlo, Courier, monospace", "tooltip_font_size": 14, "transition": "150ms", "value_background": "rgba(229, 229, 229, 1)", "value_colors": [], "value_font_family": "Consolas, \"Liberation Mono\", Menlo, Courier, monospace", "value_font_size": 16, "value_label_font_family": "Consolas, \"Liberation Mono\", Menlo, Courier, monospace", "value_label_font_size": 10}, "title": "Rubel Hossain: Future and Past Averages in ODIs", "tooltip_border_radius": 10, "tooltip_fancy_mode": true, "truncate_label": null, "truncate_legend": null, "width": 800, "x_label_rotation": 45, "x_labels": ["2009", "0", "0", "0", "0", "0", "0", "0", "2010", "0", "0", "0", "0", "0", "0", "0", "0", "0", "0", "0", "0", "2011", "0", "0", "0", "0", "0", "0", "0", "0", "0", "0", "0", "0", "0", "0", "0", "2012", "2013", "0", "0", "0", "0", "2014", "0", "0", "0", "0", "0", "0", "0", "0", "0", "2015", "0", "0", "0", "0", "0", "0", "0", "0", "0", "0", "0", "0", "0", "2016", "0", "2017", "0", "0", "0", "0", "0", "0", "0", "0", "0", "2018", "0", "0", "0", "0", "0", "0", "0", "0", "0", "0", "0", "0", "0", "2019", "0", "0", "0", "0", "0"], "x_labels_major": ["2009", "2010", "2011", "2012", "2013", "2014", "2015", "2016", "2017", "2018", "2019"], "x_labels_major_count": null, "x_labels_major_every": null, "x_title": null, "xrange": null, "y_label_rotation": 0, "y_labels": null, "y_labels_major": null, "y_labels_major_count": null, "y_labels_major_every": null, "y_title": null, "zero": 90.0, "legends": ["Future Average", "Past Average", "Career Average"]}</script><script type="text/javascript" xlink:href="https://kozea.github.io/pygal.js/2.0.x/pygal-tooltips.min.js"/></defs><title>Rubel Hossain: Future and Past Averages in ODIs</title><g class="graph line-graph vertical"><rect class="background" height="600" width="800" x="0" y="0"/><g class="plot" transform="translate(42, 46)"><rect class="background" height="462.02943725152284" width="738.0" x="0" y="0"/><g class="axis y always_show"><g class="guides"><path class="axis major line" d="M0.000000 453.144256 h738.000000"/><text class="major" x="-5" y="456.6442557659166">0</text><title>0</title></g><g class="guides"><path class="guide line" d="M0.000000 397.611871 h738.000000"/><text class="" x="-5" y="401.1118714808778">10</text><title>10</title></g><g class="guides"><path class="guide line" d="M0.000000 342.079487 h738.000000"/><text class="" x="-5" y="345.57948719583896">20</text><title>20</title></g><g class="guides"><path class="guide line" d="M0.000000 286.547103 h738.000000"/><text class="" x="-5" y="290.04710291080016">30</text><title>30</title></g><g class="guides"><path class="guide line" d="M0.000000 231.014719 h738.000000"/><text class="" x="-5" y="234.51471862576136">40</text><title>40</title></g><g class="guides"><path class="major guide line" d="M0.000000 175.482334 h738.000000"/><text class="major" x="-5" y="178.98233434072256">50</text><title>50</title></g><g class="guides"><path class="guide line" d="M0.000000 119.949950 h738.000000"/><text class="" x="-5" y="123.44995005568376">60</text><title>60</title></g><g class="guides"><path class="guide line" d="M0.000000 64.417566 h738.000000"/><text class="" x="-5" y="67.91756577064501">70</text><title>70</title></g><g class="guides"><path class="guide line" d="M0.000000 8.885181 h738.000000"/><text class="" x="-5" y="12.38518148560621">80</text><title>80</title></g></g><g class="axis x"><g class="guides"><path class="major line" d="M14.192308 0.000000 v462.029437"/><text class="major" x="14.192307692307692" y="477.02943725152284" transform="rotate(45 14.192308 477.029437)">2009</text></g><g class="guides"><path class="major guide line" d="M72.120094 0.000000 v462.029437"/><text class="major" x="72.12009419152275" y="477.02943725152284" transform="rotate(45 72.120094 477.029437)">2010</text></g><g class="guides"><path class="major guide line" d="M166.252747 0.000000 v462.029437"/><text class="major" x="166.25274725274724" y="477.02943725152284" transform="rotate(45 166.252747 477.029437)">2011</text></g><g class="guides"><path class="major guide line" d="M282.108320 0.000000 v462.029437"/><text class="major" x="282.1083202511774" y="477.02943725152284" transform="rotate(45 282.108320 477.029437)">2012</text></g><g class="guides"><path class="major guide line" d="M289.349294 0.000000 v462.029437"/><text class="major" x="289.3492935635793" y="477.02943725152284" transform="rotate(45 289.349294 477.029437)">2013</text></g><g class="guides"><path class="major guide line" d="M325.554160 0.000000 v462.029437"/><text class="major" x="325.5541601255887" y="477.02943725152284" transform="rotate(45 325.554160 477.029437)">2014</text></g><g class="guides"><path class="major guide line" d="M397.963893 0.000000 v462.029437"/><text class="major" x="397.96389324960757" y="477.02943725152284" transform="rotate(45 397.963893 477.029437)">2015</text></g><g class="guides"><path class="major guide line" d="M499.337520 0.000000 v462.029437"/><text class="major" x="499.33751962323385" y="477.02943725152284" transform="rotate(45 499.337520 477.029437)">2016</text></g><g class="guides"><path class="major guide line" d="M513.819466 0.000000 v462.029437"/><text class="major" x="513.8194662480377" y="477.02943725152284" transform="rotate(45 513.819466 477.029437)">2017</text></g><g class="guides"><path class="major guide line" d="M586.229199 0.000000 v462.029437"/><text class="major" x="586.2291993720565" y="477.02943725152284" transform="rotate(45 586.229199 477.029437)">2018</text></g><g class="guides"><path class="major guide line" d="M687.602826 0.000000 v462.029437"/><text class="major" x="687.6028257456829" y="477.02943725152284" transform="rotate(45 687.602826 477.029437)">2019</text></g></g><g class="series serie-0 color-0"><path class="line reactive nofill" d="M14.192308 263.612228 L21.433281 258.891976 28.674254 261.279868 35.915228 260.613479 43.156201 258.725378 50.397174 257.892393 57.638148 257.559198 64.879121 259.336235 72.120094 260.502415 79.361068 261.113271 86.602041 262.334983 93.843014 265.222667 101.083987 265.222667 108.324961 266.277783 115.565934 267.777157 122.806907 270.886971 130.047881 270.220582 137.288854 269.942920 144.529827 272.108683 151.770801 272.441877 159.011774 272.941669 166.252747 267.166301 173.493721 270.498244 180.734694 271.164632 187.975667 271.831021 195.216641 272.219748 202.457614 272.386345 209.698587 269.998452 216.939560 273.274863 224.180534 267.055236 231.421507 270.053985 238.662480 268.554610 245.903454 261.946257 253.144427 261.890724 260.385400 259.336235 267.626374 263.001372 274.867347 259.836026 282.108320 259.003040 289.349294 262.001789 296.590267 262.668178 303.831240 264.112020 311.072214 250.173391 318.313187 253.838529 325.554160 254.005126 332.795133 251.172974 340.036107 248.340823 347.277080 247.952096 354.518053 250.284456 361.759027 252.505751 369.000000 254.782579 376.240973 256.059824 383.481947 258.614314 390.722920 254.060658 397.963893 251.783830 405.204867 250.839780 412.445840 253.449802 419.686813 259.502832 426.927786 250.062326 434.168760 250.451053 441.409733 252.672348 448.650706 253.671931 455.891680 252.616816 463.132653 249.007211 470.373626 253.449802 477.614600 247.563369 484.855573 257.226004 492.096546 252.283622 499.337520 246.119527 506.578493 249.729132 513.819466 253.227672 521.060440 250.284456 528.301413 256.615148 535.542386 259.891558 542.783359 270.053985 550.024333 268.110351 557.265306 272.552942 564.506279 280.327476 571.747253 286.547103 578.988226 275.440626 586.229199 283.992613 593.470173 276.107015 600.711146 265.944588 607.952119 262.168386 615.193093 235.401777 622.434066 239.344576 629.675039 219.186321 636.916013 215.965442 644.156986 205.358757 651.397959 199.527857 658.638932 187.088603 665.879906 181.590897 673.120879 131.722816 680.361852 134.221773 687.602826 69.970804 694.843799 63.029256 702.084772 8.885181 709.325746 162.543289 716.566719 150.492761 723.807692 147.716142"/></g><g class="series serie-1 color-1"><path class="line reactive nofill" d="M14.192308 453.144256 L21.433281 407.330039 28.674254 335.137939 35.915228 336.526249 43.156201 346.855272 50.397174 348.299114 57.638148 342.690343 64.879121 319.255677 72.120094 299.874875 79.361068 290.101176 86.602041 275.884885 93.843014 248.618484 101.083987 250.839780 108.324961 243.953764 115.565934 232.847287 122.806907 209.912413 130.047881 221.518681 137.288854 228.071502 144.529827 215.798845 151.770801 216.853961 159.011774 217.020558 166.252747 249.229341 173.493721 235.901568 180.734694 233.236014 187.975667 230.570460 195.216641 230.570460 202.457614 231.403445 209.698587 243.231843 216.939560 232.680690 224.180534 254.393852 231.421507 246.230592 238.662480 251.395104 245.903454 267.221833 253.144427 267.166301 260.385400 271.664424 267.626374 264.833941 274.867347 270.276114 282.108320 271.164632 289.349294 266.277783 296.590267 265.111603 303.831240 262.834775 311.072214 280.993864 318.313187 276.273612 325.554160 275.662756 332.795133 278.217245 340.036107 279.883217 347.277080 279.327893 354.518053 276.551274 361.759027 274.052316 369.000000 271.942086 376.240973 270.720373 383.481947 268.332481 390.722920 272.053151 397.963893 273.441460 405.204867 273.830187 412.445840 271.553359 419.686813 266.833106 426.927786 272.830604 434.168760 272.275280 441.409733 270.609309 448.650706 269.720790 455.891680 270.165050 463.132653 271.719956 470.373626 269.276531 477.614600 271.942086 484.855573 266.944171 492.096546 269.109934 499.337520 271.497827 506.578493 269.609726 513.819466 268.110351 521.060440 268.943337 528.301413 266.444380 535.542386 265.056070 542.783359 261.168803 550.024333 262.001789 557.265306 260.446882 564.506279 257.725795 571.747253 255.504500 578.988226 260.113688 586.229199 257.836860 593.470173 260.391350 600.711146 263.056904 607.952119 263.945423 615.193093 268.665675 622.434066 267.666092 629.675039 269.609726 636.916013 269.609726 644.156986 270.331647 651.397959 270.387179 658.638932 270.942503 665.879906 270.720373 673.120879 272.552942 680.361852 271.220165 687.602826 271.608892 694.843799 270.220582 702.084772 269.831855 709.325746 266.111185 716.566719 265.444797 723.807692 264.556279"/></g><g class="series serie-2 color-2"><path class="line reactive nofill" d="M14.192308 263.612228 L21.433281 263.612228 28.674254 263.612228 35.915228 263.612228 43.156201 263.612228 50.397174 263.612228 57.638148 263.612228 64.879121 263.612228 72.120094 263.612228 79.361068 263.612228 86.602041 263.612228 93.843014 263.612228 101.083987 263.612228 108.324961 263.612228 115.565934 263.612228 122.806907 263.612228 130.047881 263.612228 137.288854 263.612228 144.529827 263.612228 151.770801 263.612228 159.011774 263.612228 166.252747 263.612228 173.493721 263.612228 180.734694 263.612228 187.975667 263.612228 195.216641 263.612228 202.457614 263.612228 209.698587 263.612228 216.939560 263.612228 224.180534 263.612228 231.421507 263.612228 238.662480 263.612228 245.903454 263.612228 253.144427 263.612228 260.385400 263.612228 267.626374 263.612228 274.867347 263.612228 282.108320 263.612228 289.349294 263.612228 296.590267 263.612228 303.831240 263.612228 311.072214 263.612228 318.313187 263.612228 325.554160 263.612228 332.795133 263.612228 340.036107 263.612228 347.277080 263.612228 354.518053 263.612228 361.759027 263.612228 369.000000 263.612228 376.240973 263.612228 383.481947 263.612228 390.722920 263.612228 397.963893 263.612228 405.204867 263.612228 412.445840 263.612228 419.686813 263.612228 426.927786 263.612228 434.168760 263.612228 441.409733 263.612228 448.650706 263.612228 455.891680 263.612228 463.132653 263.612228 470.373626 263.612228 477.614600 263.612228 484.855573 263.612228 492.096546 263.612228 499.337520 263.612228 506.578493 263.612228 513.819466 263.612228 521.060440 263.612228 528.301413 263.612228 535.542386 263.612228 542.783359 263.612228 550.024333 263.612228 557.265306 263.612228 564.506279 263.612228 571.747253 263.612228 578.988226 263.612228 586.229199 263.612228 593.470173 263.612228 600.711146 263.612228 607.952119 263.612228 615.193093 263.612228 622.434066 263.612228 629.675039 263.612228 636.916013 263.612228 644.156986 263.612228 651.397959 263.612228 658.638932 263.612228 665.879906 263.612228 673.120879 263.612228 680.361852 263.612228 687.602826 263.612228 694.843799 263.612228 702.084772 263.612228 709.325746 263.612228 716.566719 263.612228 723.807692 263.612228"/></g></g><g class="titles"><text class="title plot_title" x="400.0" y="26">Rubel Hossain: Future and Past Averages in ODIs</text></g><g class="plot overlay" transform="translate(42, 46)"><g class="series serie-0 color-0"><g class="dots"><desc class="label">126 wickets in 99 innings (756.4 overs)</desc><circle class="dot reactive tooltip-trigger" cx="14.192307692307692" cy="263.6122282010791" r="2.5"/><desc class="value">34.13</desc><desc class="x top">14.192307692307692</desc><desc class="y top">263.6122282010791</desc><desc class="x_label">2009</desc></g><g class="dots"><desc class="label">116 wickets in 91 innings (706.1 overs)</desc><circle class="dot reactive tooltip-trigger" cx="72.12009419152275" cy="260.502414681117" r="2.5"/><desc class="value">34.69</desc><desc class="x top">72.12009419152275</desc><desc class="y top">260.502414681117</desc><desc class="x_label">2010</desc></g><g class="dots"><desc class="label">101 wickets in 78 innings (598.1 overs)</desc><circle class="dot reactive tooltip-trigger" cx="166.25274725274724" cy="267.1663007953216" r="2.5"/><desc class="value">33.49</desc><desc class="x top">166.25274725274724</desc><desc class="y top">267.1663007953216</desc><desc class="x_label">2011</desc></g><g class="dots"><desc class="label">78 wickets in 62 innings (469.3 overs)</desc><circle class="dot reactive tooltip-trigger" cx="282.1083202511774" cy="259.0030403054209" r="2.5"/><desc class="value">34.96</desc><desc class="x top">282.1083202511774</desc><desc class="y top">259.0030403054209</desc><desc class="x_label">2012</desc></g><g class="dots"><desc class="label">78 wickets in 61 innings (464.3 overs)</desc><circle class="dot reactive tooltip-trigger" cx="289.3492935635793" cy="262.001789056813" r="2.5"/><desc class="value">34.42</desc><desc class="x top">289.3492935635793</desc><desc class="y top">262.001789056813</desc><desc class="x_label">2013</desc></g><g class="dots"><desc class="label">70 wickets in 56 innings (435.4 overs)</desc><circle class="dot reactive tooltip-trigger" cx="325.5541601255887" cy="254.00512571976745" r="2.5"/><desc class="value">35.86</desc><desc class="x top">325.5541601255887</desc><desc class="y top">254.00512571976745</desc><desc class="x_label">2014</desc></g><g class="dots"><desc class="label">57 wickets in 46 innings (356.5 overs)</desc><circle class="dot reactive tooltip-trigger" cx="397.96389324960757" cy="251.7838303483659" r="2.5"/><desc class="value">36.26</desc><desc class="x left top">397.96389324960757</desc><desc class="y left top">251.7838303483659</desc><desc class="x_label">2015</desc></g><g class="dots"><desc class="label">39 wickets in 32 innings (248.2 overs)</desc><circle class="dot reactive tooltip-trigger" cx="499.33751962323385" cy="246.11952715129195" r="2.5"/><desc class="value">37.28</desc><desc class="x left top">499.33751962323385</desc><desc class="y left top">246.11952715129195</desc><desc class="x_label">2016</desc></g><g class="dots"><desc class="label">38 wickets in 30 innings (236.2 overs)</desc><circle class="dot reactive tooltip-trigger" cx="513.8194662480377" cy="253.2276723397769" r="2.5"/><desc class="value">36</desc><desc class="x left top">513.8194662480377</desc><desc class="y left top">253.2276723397769</desc><desc class="x_label">2017</desc></g><g class="dots"><desc class="label">28 wickets in 20 innings (152.2 overs)</desc><circle class="dot reactive tooltip-trigger" cx="586.2291993720565" cy="283.9926132336884" r="2.5"/><desc class="value">30.46</desc><desc class="x left top">586.2291993720565</desc><desc class="y left top">283.9926132336884</desc><desc class="x_label">2018</desc></g><g class="dots"><desc class="label">5 wickets in 6 innings (51.0 overs)</desc><circle class="dot reactive tooltip-trigger" cx="687.6028257456829" cy="69.97080419914886" r="2.5"/><desc class="value">69</desc><desc class="x left">687.6028257456829</desc><desc class="y left">69.97080419914886</desc><desc class="x_label">2019</desc></g></g><g class="series serie-1 color-1"><g class="dots"><desc class="label">0 wickets over 0 innings</desc><circle class="dot reactive tooltip-trigger" cx="14.192307692307692" cy="453.1442557659166" r="2.5"/><desc class="value">0</desc><desc class="x top">14.192307692307692</desc><desc class="y top">453.1442557659166</desc><desc class="x_label">2009</desc></g><g class="dots"><desc class="label">10 wickets in 8 innings (50.3 overs)</desc><circle class="dot reactive tooltip-trigger" cx="72.12009419152275" cy="299.8748751392095" r="2.5"/><desc class="value">27.6</desc><desc class="x top">72.12009419152275</desc><desc class="y top">299.8748751392095</desc><desc class="x_label">2010</desc></g><g class="dots"><desc class="label">25 wickets in 21 innings (158.3 overs)</desc><circle class="dot reactive tooltip-trigger" cx="166.25274725274724" cy="249.2293406712541" r="2.5"/><desc class="value">36.72</desc><desc class="x top">166.25274725274724</desc><desc class="y top">249.2293406712541</desc><desc class="x_label">2011</desc></g><g class="dots"><desc class="label">48 wickets in 37 innings (287.1 overs)</desc><circle class="dot reactive tooltip-trigger" cx="282.1083202511774" cy="271.16463246384444" r="2.5"/><desc class="value">32.77</desc><desc class="x top">282.1083202511774</desc><desc class="y top">271.16463246384444</desc><desc class="x_label">2012</desc></g><g class="dots"><desc class="label">48 wickets in 38 innings (292.1 overs)</desc><circle class="dot reactive tooltip-trigger" cx="289.3492935635793" cy="266.277782646761" r="2.5"/><desc class="value">33.65</desc><desc class="x top">289.3492935635793</desc><desc class="y top">266.277782646761</desc><desc class="x_label">2013</desc></g><g class="dots"><desc class="label">56 wickets in 43 innings (321.0 overs)</desc><circle class="dot reactive tooltip-trigger" cx="325.5541601255887" cy="275.6627555909326" r="2.5"/><desc class="value">31.96</desc><desc class="x top">325.5541601255887</desc><desc class="y top">275.6627555909326</desc><desc class="x_label">2014</desc></g><g class="dots"><desc class="label">69 wickets in 53 innings (399.5 overs)</desc><circle class="dot reactive tooltip-trigger" cx="397.96389324960757" cy="273.44146021953105" r="2.5"/><desc class="value">32.36</desc><desc class="x left top">397.96389324960757</desc><desc class="y left top">273.44146021953105</desc><desc class="x_label">2015</desc></g><g class="dots"><desc class="label">87 wickets in 67 innings (508.2 overs)</desc><circle class="dot reactive tooltip-trigger" cx="499.33751962323385" cy="271.49782676955465" r="2.5"/><desc class="value">32.71</desc><desc class="x left top">499.33751962323385</desc><desc class="y left top">271.49782676955465</desc><desc class="x_label">2016</desc></g><g class="dots"><desc class="label">88 wickets in 69 innings (520.2 overs)</desc><circle class="dot reactive tooltip-trigger" cx="513.8194662480377" cy="268.1103513281673" r="2.5"/><desc class="value">33.32</desc><desc class="x left top">513.8194662480377</desc><desc class="y left top">268.1103513281673</desc><desc class="x_label">2017</desc></g><g class="dots"><desc class="label">98 wickets in 79 innings (604.2 overs)</desc><circle class="dot reactive tooltip-trigger" cx="586.2291993720565" cy="257.8368602354351" r="2.5"/><desc class="value">35.17</desc><desc class="x left top">586.2291993720565</desc><desc class="y left top">257.8368602354351</desc><desc class="x_label">2018</desc></g><g class="dots"><desc class="label">121 wickets in 93 innings (705.4 overs)</desc><circle class="dot reactive tooltip-trigger" cx="687.6028257456829" cy="271.6088915381248" r="2.5"/><desc class="value">32.69</desc><desc class="x left top">687.6028257456829</desc><desc class="y left top">271.6088915381248</desc><desc class="x_label">2019</desc></g></g><g class="series serie-2 color-2"/></g><g class="plot text-overlay" transform="translate(42, 46)"><g class="series serie-0 color-0"/><g class="series serie-1 color-1"/><g class="series serie-2 color-2"/></g><g class="plot tooltip-overlay" transform="translate(42, 46)"><g class="tooltip" style="opacity: 0" transform="translate(0 0)"><rect class="tooltip-box" height="0" rx="10" ry="10" width="0"/><g class="text"/></g></g><g class="legends" transform="translate(52, 545)"><g class="legend reactive activate-serie" id="activate-serie-0"><rect class="color-0 reactive" height="12" width="12" x="0.0" y="1.0"/><text x="17.0" y="11.2">Future Average</text></g><g class="legend reactive activate-serie" id="activate-serie-1"><rect class="color-1 reactive" height="12" width="12" x="369.0" y="1.0"/><text x="386.0" y="11.2">Past Average</text></g><g class="legend reactive activate-serie" id="activate-serie-2"><rect class="color-2 reactive" height="12" width="12" x="0.0" y="22.0"/><text x="17.0" y="32.2">Career Average</text></g></g></g></svg>