<?xml version='1.0' encoding='utf-8'?>
<svg xmlns:xlink="http://www.w3.org/1999/xlink" xmlns="http://www.w3.org/2000/svg" id="chart-28cdf33f-f16e-42f0-b4d2-13efb47a44b2" class="pygal-chart" viewBox="0 0 800 600"><!--Generated with pygal 2.4.0 (lxml) ©Kozea 2012-2016 on 2019-08-04--><!--http://pygal.org--><!--http://github.com/Kozea/pygal--><defs><style type="text/css">#chart-28cdf33f-f16e-42f0-b4d2-13efb47a44b2{-webkit-user-select:none;-webkit-font-smoothing:antialiased;font-family:Consolas,"Liberation Mono",Menlo,Courier,monospace}#chart-28cdf33f-f16e-42f0-b4d2-13efb47a44b2 .title{font-family:Consolas,"Liberation Mono",Menlo,Courier,monospace;font-size:16px}#chart-28cdf33f-f16e-42f0-b4d2-13efb47a44b2 .legends .legend text{font-family:Consolas,"Liberation Mono",Menlo,Courier,monospace;font-size:14px}#chart-28cdf33f-f16e-42f0-b4d2-13efb47a44b2 .axis text{font-family:Consolas,"Liberation Mono",Menlo,Courier,monospace;font-size:10px}#chart-28cdf33f-f16e-42f0-b4d2-13efb47a44b2 .axis text.major{font-family:Consolas,"Liberation Mono",Menlo,Courier,monospace;font-size:10px}#chart-28cdf33f-f16e-42f0-b4d2-13efb47a44b2 .text-overlay text.value{font-family:Consolas,"Liberation Mono",Menlo,Courier,monospace;font-size:16px}#chart-28cdf33f-f16e-42f0-b4d2-13efb47a44b2 .text-overlay text.label{font-family:Consolas,"Liberation Mono",Menlo,Courier,monospace;font-size:10px}#chart-28cdf33f-f16e-42f0-b4d2-13efb47a44b2 .tooltip{font-family:Consolas,"Liberation Mono",Menlo,Courier,monospace;font-size:14px}#chart-28cdf33f-f16e-42f0-b4d2-13efb47a44b2 text.no_data{font-family:Consolas,"Liberation Mono",Menlo,Courier,monospace;font-size:64px}
#chart-28cdf33f-f16e-42f0-b4d2-13efb47a44b2{background-color:rgba(249,249,249,1)}#chart-28cdf33f-f16e-42f0-b4d2-13efb47a44b2 path,#chart-28cdf33f-f16e-42f0-b4d2-13efb47a44b2 line,#chart-28cdf33f-f16e-42f0-b4d2-13efb47a44b2 rect,#chart-28cdf33f-f16e-42f0-b4d2-13efb47a44b2 circle{-webkit-transition:150ms;-moz-transition:150ms;transition:150ms}#chart-28cdf33f-f16e-42f0-b4d2-13efb47a44b2 .graph &gt; .background{fill:rgba(249,249,249,1)}#chart-28cdf33f-f16e-42f0-b4d2-13efb47a44b2 .plot &gt; .background{fill:rgba(255,255,255,1)}#chart-28cdf33f-f16e-42f0-b4d2-13efb47a44b2 .graph{fill:rgba(0,0,0,.87)}#chart-28cdf33f-f16e-42f0-b4d2-13efb47a44b2 text.no_data{fill:rgba(0,0,0,1)}#chart-28cdf33f-f16e-42f0-b4d2-13efb47a44b2 .title{fill:rgba(0,0,0,1)}#chart-28cdf33f-f16e-42f0-b4d2-13efb47a44b2 .legends .legend text{fill:rgba(0,0,0,.87)}#chart-28cdf33f-f16e-42f0-b4d2-13efb47a44b2 .legends .legend:hover text{fill:rgba(0,0,0,1)}#chart-28cdf33f-f16e-42f0-b4d2-13efb47a44b2 .axis .line{stroke:rgba(0,0,0,1)}#chart-28cdf33f-f16e-42f0-b4d2-13efb47a44b2 .axis .guide.line{stroke:rgba(0,0,0,.54)}#chart-28cdf33f-f16e-42f0-b4d2-13efb47a44b2 .axis .major.line{stroke:rgba(0,0,0,.87)}#chart-28cdf33f-f16e-42f0-b4d2-13efb47a44b2 .axis text.major{fill:rgba(0,0,0,1)}#chart-28cdf33f-f16e-42f0-b4d2-13efb47a44b2 .axis.y .guides:hover .guide.line,#chart-28cdf33f-f16e-42f0-b4d2-13efb47a44b2 .line-graph .axis.x .guides:hover .guide.line,#chart-28cdf33f-f16e-42f0-b4d2-13efb47a44b2 .stackedline-graph .axis.x .guides:hover .guide.line,#chart-28cdf33f-f16e-42f0-b4d2-13efb47a44b2 .xy-graph .axis.x .guides:hover .guide.line{stroke:rgba(0,0,0,1)}#chart-28cdf33f-f16e-42f0-b4d2-13efb47a44b2 .axis .guides:hover text{fill:rgba(0,0,0,1)}#chart-28cdf33f-f16e-42f0-b4d2-13efb47a44b2 .reactive{fill-opacity:.7;stroke-opacity:.8}#chart-28cdf33f-f16e-42f0-b4d2-13efb47a44b2 .ci{stroke:rgba(0,0,0,.87)}#chart-28cdf33f-f16e-42f0-b4d2-13efb47a44b2 .reactive.active,#chart-28cdf33f-f16e-42f0-b4d2-13efb47a44b2 .active .reactive{fill-opacity:.8;stroke-opacity:.9;stroke-width:4}#chart-28cdf33f-f16e-42f0-b4d2-13efb47a44b2 .ci .reactive.active{stroke-width:1.5}#chart-28cdf33f-f16e-42f0-b4d2-13efb47a44b2 .series text{fill:rgba(0,0,0,1)}#chart-28cdf33f-f16e-42f0-b4d2-13efb47a44b2 .tooltip rect{fill:rgba(255,255,255,1);stroke:rgba(0,0,0,1);-webkit-transition:opacity 150ms;-moz-transition:opacity 150ms;transition:opacity 150ms}#chart-28cdf33f-f16e-42f0-b4d2-13efb47a44b2 .tooltip .label{fill:rgba(0,0,0,.87)}#chart-28cdf33f-f16e-42f0-b4d2-13efb47a44b2 .tooltip .label{fill:rgba(0,0,0,.87)}#chart-28cdf33f-f16e-42f0-b4d2-13efb47a44b2 .tooltip .legend{font-size:.8em;fill:rgba(0,0,0,.54)}#chart-28cdf33f-f16e-42f0-b4d2-13efb47a44b2 .tooltip .x_label{font-size:.6em;fill:rgba(0,0,0,1)}#chart-28cdf33f-f16e-42f0-b4d2-13efb47a44b2 .tooltip .xlink{font-size:.5em;text-decoration:underline}#chart-28cdf33f-f16e-42f0-b4d2-13efb47a44b2 .tooltip .value{font-size:1.5em}#chart-28cdf33f-f16e-42f0-b4d2-13efb47a44b2 .bound{font-size:.5em}#chart-28cdf33f-f16e-42f0-b4d2-13efb47a44b2 .max-value{font-size:.75em;fill:rgba(0,0,0,.54)}#chart-28cdf33f-f16e-42f0-b4d2-13efb47a44b2 .map-element{fill:rgba(255,255,255,1);stroke:rgba(0,0,0,.54) !important}#chart-28cdf33f-f16e-42f0-b4d2-13efb47a44b2 .map-element .reactive{fill-opacity:inherit;stroke-opacity:inherit}#chart-28cdf33f-f16e-42f0-b4d2-13efb47a44b2 .color-0,#chart-28cdf33f-f16e-42f0-b4d2-13efb47a44b2 .color-0 a:visited{stroke:red;fill:red}#chart-28cdf33f-f16e-42f0-b4d2-13efb47a44b2 .color-1,#chart-28cdf33f-f16e-42f0-b4d2-13efb47a44b2 .color-1 a:visited{stroke:blue;fill:blue}#chart-28cdf33f-f16e-42f0-b4d2-13efb47a44b2 .color-2,#chart-28cdf33f-f16e-42f0-b4d2-13efb47a44b2 .color-2 a:visited{stroke:green;fill:green}#chart-28cdf33f-f16e-42f0-b4d2-13efb47a44b2 .text-overlay .color-0 text{fill:white}#chart-28cdf33f-f16e-42f0-b4d2-13efb47a44b2 .text-overlay .color-1 text{fill:white}#chart-28cdf33f-f16e-42f0-b4d2-13efb47a44b2 .text-overlay .color-2 text{fill:white}
#chart-28cdf33f-f16e-42f0-b4d2-13efb47a44b2 text.no_data{text-anchor:middle}#chart-28cdf33f-f16e-42f0-b4d2-13efb47a44b2 .guide.line{fill:none}#chart-28cdf33f-f16e-42f0-b4d2-13efb47a44b2 .centered{text-anchor:middle}#chart-28cdf33f-f16e-42f0-b4d2-13efb47a44b2 .title{text-anchor:middle}#chart-28cdf33f-f16e-42f0-b4d2-13efb47a44b2 .legends .legend text{fill-opacity:1}#chart-28cdf33f-f16e-42f0-b4d2-13efb47a44b2 .axis.x text{text-anchor:middle}#chart-28cdf33f-f16e-42f0-b4d2-13efb47a44b2 .axis.x:not(.web) text[transform]{text-anchor:start}#chart-28cdf33f-f16e-42f0-b4d2-13efb47a44b2 .axis.x:not(.web) text[transform].backwards{text-anchor:end}#chart-28cdf33f-f16e-42f0-b4d2-13efb47a44b2 .axis.y text{text-anchor:end}#chart-28cdf33f-f16e-42f0-b4d2-13efb47a44b2 .axis.y text[transform].backwards{text-anchor:start}#chart-28cdf33f-f16e-42f0-b4d2-13efb47a44b2 .axis.y2 text{text-anchor:start}#chart-28cdf33f-f16e-42f0-b4d2-13efb47a44b2 .axis.y2 text[transform].backwards{text-anchor:end}#chart-28cdf33f-f16e-42f0-b4d2-13efb47a44b2 .axis .guide.line{stroke-dasharray:4,4}#chart-28cdf33f-f16e-42f0-b4d2-13efb47a44b2 .axis .major.guide.line{stroke-dasharray:6,6}#chart-28cdf33f-f16e-42f0-b4d2-13efb47a44b2 .horizontal .axis.y .guide.line,#chart-28cdf33f-f16e-42f0-b4d2-13efb47a44b2 .horizontal .axis.y2 .guide.line,#chart-28cdf33f-f16e-42f0-b4d2-13efb47a44b2 .vertical .axis.x .guide.line{opacity:0}#chart-28cdf33f-f16e-42f0-b4d2-13efb47a44b2 .horizontal .axis.always_show .guide.line,#chart-28cdf33f-f16e-42f0-b4d2-13efb47a44b2 .vertical .axis.always_show .guide.line{opacity:1 !important}#chart-28cdf33f-f16e-42f0-b4d2-13efb47a44b2 .axis.y .guides:hover .guide.line,#chart-28cdf33f-f16e-42f0-b4d2-13efb47a44b2 .axis.y2 .guides:hover .guide.line,#chart-28cdf33f-f16e-42f0-b4d2-13efb47a44b2 .axis.x .guides:hover .guide.line{opacity:1}#chart-28cdf33f-f16e-42f0-b4d2-13efb47a44b2 .axis .guides:hover text{opacity:1}#chart-28cdf33f-f16e-42f0-b4d2-13efb47a44b2 .nofill{fill:none}#chart-28cdf33f-f16e-42f0-b4d2-13efb47a44b2 .subtle-fill{fill-opacity:.2}#chart-28cdf33f-f16e-42f0-b4d2-13efb47a44b2 .dot{stroke-width:1px;fill-opacity:1}#chart-28cdf33f-f16e-42f0-b4d2-13efb47a44b2 .dot.active{stroke-width:5px}#chart-28cdf33f-f16e-42f0-b4d2-13efb47a44b2 .dot.negative{fill:transparent}#chart-28cdf33f-f16e-42f0-b4d2-13efb47a44b2 text,#chart-28cdf33f-f16e-42f0-b4d2-13efb47a44b2 tspan{stroke:none !important}#chart-28cdf33f-f16e-42f0-b4d2-13efb47a44b2 .series text.active{opacity:1}#chart-28cdf33f-f16e-42f0-b4d2-13efb47a44b2 .tooltip rect{fill-opacity:.95;stroke-width:.5}#chart-28cdf33f-f16e-42f0-b4d2-13efb47a44b2 .tooltip text{fill-opacity:1}#chart-28cdf33f-f16e-42f0-b4d2-13efb47a44b2 .showable{visibility:hidden}#chart-28cdf33f-f16e-42f0-b4d2-13efb47a44b2 .showable.shown{visibility:visible}#chart-28cdf33f-f16e-42f0-b4d2-13efb47a44b2 .gauge-background{fill:rgba(229,229,229,1);stroke:none}#chart-28cdf33f-f16e-42f0-b4d2-13efb47a44b2 .bg-lines{stroke:rgba(249,249,249,1);stroke-width:2px}</style><script type="text/javascript">window.pygal = window.pygal || {};window.pygal.config = window.pygal.config || {};window.pygal.config['28cdf33f-f16e-42f0-b4d2-13efb47a44b2'] = {"allow_interruptions": false, "box_mode": "extremes", "classes": ["pygal-chart"], "css": ["file://style.css", "file://graph.css"], "defs": [], "disable_xml_declaration": false, "dots_size": 2.5, "dynamic_print_values": false, "explicit_size": false, "fill": false, "force_uri_protocol": "https", "formatter": null, "half_pie": false, "height": 600, "include_x_axis": false, "inner_radius": 0, "interpolate": null, "interpolation_parameters": {}, "interpolation_precision": 250, "inverse_y_axis": false, "js": ["//kozea.github.io/pygal.js/2.0.x/pygal-tooltips.min.js"], "legend_at_bottom": true, "legend_at_bottom_columns": null, "legend_box_size": 12, "logarithmic": false, "margin": 20, "margin_bottom": null, "margin_left": null, "margin_right": null, "margin_top": null, "max_scale": 16, "min_scale": 4, "missing_value_fill_truncation": "x", "no_data_text": "No data", "no_prefix": false, "order_min": null, "pretty_print": false, "print_labels": false, "print_values": false, "print_values_position": "center", "print_zeroes": true, "range": null, "rounded_bars": null, "secondary_range": null, "show_dots": true, "show_legend": true, "show_minor_x_labels": false, "show_minor_y_labels": true, "show_only_major_dots": false, "show_x_guides": false, "show_x_labels": true, "show_y_guides": true, "show_y_labels": true, "spacing": 10, "stack_from_top": false, "strict": false, "stroke": true, "stroke_style": null, "style": {"background": "rgba(249, 249, 249, 1)", "ci_colors": [], "colors": ["red", "blue", "green", "#a3a3a3"], "font_family": "Consolas, \"Liberation Mono\", Menlo, Courier, monospace", "foreground": "rgba(0, 0, 0, .87)", "foreground_strong": "rgba(0, 0, 0, 1)", "foreground_subtle": "rgba(0, 0, 0, .54)", "guide_stroke_dasharray": "4,4", "label_font_family": "Consolas, \"Liberation Mono\", Menlo, Courier, monospace", "label_font_size": 10, "legend_font_family": "Consolas, \"Liberation Mono\", Menlo, Courier, monospace", "legend_font_size": 14, "major_guide_stroke_dasharray": "6,6", "major_label_font_family": "Consolas, \"Liberation Mono\", Menlo, Courier, monospace", "major_label_font_size": 10, "no_data_font_family": "Consolas, \"Liberation Mono\", Menlo, Courier, monospace", "no_data_font_size": 64, "opacity": ".7", "opacity_hover": ".8", "plot_background": "rgba(255, 255, 255, 1)", "stroke_opacity": ".8", "stroke_opacity_hover": ".9", "title_font_family": "Consolas, \"Liberation Mono\", Menlo, Courier, monospace", "title_font_size": 16, "tooltip_font_family": "Consolas, \"Liberation Mono\", Menlo, Courier, monospace", "tooltip_font_size": 14, "transition": "150ms", "value_background": "rgba(229, 229, 229, 1)", "value_colors": [], "value_font_family": "Consolas, \"Liberation Mono\", Menlo, Courier, monospace", "value_font_size": 16, "value_label_font_family": "Consolas, \"Liberation Mono\", Menlo, Courier, monospace", "value_label_font_size": 10}, "title": "RW Price: Future and Past Averages in ODIs", "tooltip_border_radius": 10, "tooltip_fancy_mode": true, "truncate_label": null, "truncate_legend": null, "width": 800, "x_label_rotation": 45, "x_labels": ["2002", "0", "2003", "0", "0", "0", "0", "0", "0", "0", "0", "0", "0", "0", "2004", "0", "0", "0", "0", "0", "0", "0", "0", "0", "2007", "0", "0", "0", "2008", "0", "0", "0", "0", "0", "0", "0", "0", "0", "0", "2009", "0", "0", "0", "0", "0", "0", "0", "0", "0", "0", "0", "0", "0", "0", "0", "0", "0", "0", "0", "0", "0", "0", "0", "0", "0", "0", "2010", "0", "0", "0", "0", "0", "0", "0", "0", "0", "0", "0", "0", "0", "2011", "0", "0", "0", "0", "0", "0", "0", "0", "0", "0", "0", "0", "0", "0", "0", "2012", "0", "0"], "x_labels_major": ["2002", "2003", "2004", "2007", "2008", "2009", "2010", "2011", "2012"], "x_labels_major_count": null, "x_labels_major_every": null, "x_title": null, "xrange": null, "y_label_rotation": 0, "y_labels": null, "y_labels_major": null, "y_labels_major_count": null, "y_labels_major_every": null, "y_title": null, "zero": 110.0, "legends": ["Future Average", "Past Average", "Career Average"]}</script><script type="text/javascript" xlink:href="https://kozea.github.io/pygal.js/2.0.x/pygal-tooltips.min.js"/></defs><title>RW Price: Future and Past Averages in ODIs</title><g class="graph line-graph vertical"><rect class="background" height="600" width="800" x="0" y="0"/><g class="plot" transform="translate(48, 46)"><rect class="background" height="462.02943725152284" width="732.0" x="0" y="0"/><g class="axis y always_show"><g class="guides"><path class="axis major line" d="M0.000000 453.144256 h732.000000"/><text class="major" x="-5" y="456.6442557659166">0</text><title>0</title></g><g class="guides"><path class="guide line" d="M0.000000 411.102137 h732.000000"/><text class="" x="-5" y="414.60213650024895">10</text><title>10</title></g><g class="guides"><path class="guide line" d="M0.000000 369.060017 h732.000000"/><text class="" x="-5" y="372.56001723458127">20</text><title>20</title></g><g class="guides"><path class="guide line" d="M0.000000 327.017898 h732.000000"/><text class="" x="-5" y="330.5178979689136">30</text><title>30</title></g><g class="guides"><path class="guide line" d="M0.000000 284.975779 h732.000000"/><text class="" x="-5" y="288.4757787032459">40</text><title>40</title></g><g class="guides"><path class="major guide line" d="M0.000000 242.933659 h732.000000"/><text class="major" x="-5" y="246.4336594375782">50</text><title>50</title></g><g class="guides"><path class="guide line" d="M0.000000 200.891540 h732.000000"/><text class="" x="-5" y="204.3915401719105">60</text><title>60</title></g><g class="guides"><path class="guide line" d="M0.000000 158.849421 h732.000000"/><text class="" x="-5" y="162.3494209062428">70</text><title>70</title></g><g class="guides"><path class="guide line" d="M0.000000 116.807302 h732.000000"/><text class="" x="-5" y="120.30730164057513">80</text><title>80</title></g><g class="guides"><path class="guide line" d="M0.000000 74.765182 h732.000000"/><text class="" x="-5" y="78.26518237490745">90</text><title>90</title></g><g class="guides"><path class="major guide line" d="M0.000000 32.723063 h732.000000"/><text class="major" x="-5" y="36.22306310923983">100</text><title>100</title></g></g><g class="axis x"><g class="guides"><path class="major line" d="M14.076923 0.000000 v462.029437"/><text class="major" x="14.076923076923077" y="477.02943725152284" transform="rotate(45 14.076923 477.029437)">2002</text></g><g class="guides"><path class="major guide line" d="M28.441130 0.000000 v462.029437"/><text class="major" x="28.441130298273155" y="477.02943725152284" transform="rotate(45 28.441130 477.029437)">2003</text></g><g class="guides"><path class="major guide line" d="M114.626374 0.000000 v462.029437"/><text class="major" x="114.6263736263736" y="477.02943725152284" transform="rotate(45 114.626374 477.029437)">2004</text></g><g class="guides"><path class="major guide line" d="M186.447410 0.000000 v462.029437"/><text class="major" x="186.44740973312403" y="477.02943725152284" transform="rotate(45 186.447410 477.029437)">2007</text></g><g class="guides"><path class="major guide line" d="M215.175824 0.000000 v462.029437"/><text class="major" x="215.17582417582418" y="477.02943725152284" transform="rotate(45 215.175824 477.029437)">2008</text></g><g class="guides"><path class="major guide line" d="M294.178964 0.000000 v462.029437"/><text class="major" x="294.1789638932496" y="477.02943725152284" transform="rotate(45 294.178964 477.029437)">2009</text></g><g class="guides"><path class="major guide line" d="M488.095761 0.000000 v462.029437"/><text class="major" x="488.09576138147565" y="477.02943725152284" transform="rotate(45 488.095761 477.029437)">2010</text></g><g class="guides"><path class="major guide line" d="M588.645212 0.000000 v462.029437"/><text class="major" x="588.6452119309262" y="477.02943725152284" transform="rotate(45 588.645212 477.029437)">2011</text></g><g class="guides"><path class="major guide line" d="M703.558870 0.000000 v462.029437"/><text class="major" x="703.5588697017268" y="477.02943725152284" transform="rotate(45 703.558870 477.029437)">2012</text></g></g><g class="series serie-0 color-0"><path class="line reactive nofill" d="M14.076923 302.843679 L21.259027 304.441280 28.441130 305.576417 35.623234 304.104943 42.805338 304.441280 49.987441 305.786628 57.169545 305.113954 64.351648 305.198038 71.533752 306.669512 78.715856 308.140986 85.897959 310.411261 93.080063 308.056902 100.262166 307.720565 107.444270 309.990840 114.626374 311.294145 121.808477 312.849704 128.990581 314.405262 136.172684 317.138000 143.354788 317.642505 150.536892 318.147011 157.718995 320.038906 164.901099 320.333201 172.083203 322.351223 179.265306 322.855728 186.447410 321.678549 193.629513 323.696571 200.811617 325.630508 207.993721 326.639519 215.175824 327.312193 222.357928 327.396277 229.540031 326.933814 236.722135 329.498383 243.904239 332.104994 251.086342 331.053941 258.268446 331.432320 265.450549 332.399289 272.632653 330.549436 279.814757 332.104994 286.996860 331.810700 294.178964 331.768657 301.361068 330.465352 308.543171 330.002888 315.725275 324.116992 322.907378 323.444318 330.089482 320.038906 337.271586 318.483348 344.453689 318.399264 351.635793 316.801663 358.817896 318.609474 366.000000 315.582442 373.182104 319.113980 380.364207 321.930802 387.546311 317.306168 394.728414 314.237094 401.910518 310.369219 409.092622 310.915766 416.274725 310.201050 423.456829 305.912754 430.638932 304.735575 437.821036 299.017847 445.003140 298.429257 452.185243 302.128963 459.367347 302.759595 466.549451 295.192014 473.731554 298.933762 480.913658 290.777591 488.095761 282.537336 495.277865 286.741548 502.459969 279.762556 509.642072 285.858663 516.824176 289.474285 524.006279 288.423232 531.188383 296.369193 538.370487 298.471299 545.552590 298.513341 552.734694 299.354183 559.916797 304.861701 567.098901 297.588414 574.281005 291.282097 581.463108 291.786602 588.645212 288.969780 595.827316 289.852665 603.009419 263.450214 610.191523 269.462237 617.373626 270.134911 624.555730 248.735472 631.737834 219.221904 638.919937 214.345018 646.102041 230.321024 653.284144 221.912600 660.466248 142.032573 667.648352 27.467798 674.830455 69.509917 682.012559 8.885181 689.194662 71.948360 696.376766 130.807327 703.558870 210.687354 710.740973 276.567355 717.923077 329.120004"/></g><g class="series serie-1 color-1"><path class="line reactive nofill" d="M14.076923 453.144256 L21.259027 293.384203 28.441130 179.870481 35.623234 240.831553 42.805338 251.342083 49.987441 207.912574 57.169545 248.188924 64.351648 258.068822 71.533752 230.321024 78.715856 202.573225 85.897959 158.849421 93.080063 233.306014 100.262166 246.633366 107.444270 220.861547 114.626374 205.600258 121.808477 187.774399 128.990581 185.924546 136.172684 158.386958 143.354788 169.780372 150.536892 179.113722 157.718995 163.810391 164.901099 174.615216 172.083203 159.900474 179.265306 168.855445 186.447410 196.140781 193.629513 184.621240 200.811617 173.690289 207.993721 168.098687 215.175824 174.362963 222.357928 191.095726 229.540031 200.218866 236.722135 189.161789 243.904239 178.104712 251.086342 196.687328 258.268446 195.299938 265.450549 191.684316 272.632653 210.014680 279.814757 204.927584 286.996860 211.065733 294.178964 216.026703 301.361068 228.134833 308.543171 233.011719 315.725275 257.648401 322.907378 261.011771 330.089482 270.933711 337.271586 276.231018 344.453689 277.450239 351.635793 281.948746 358.817896 280.140935 366.000000 285.942747 373.182104 281.276072 380.364207 277.534324 387.546311 285.900705 394.728414 290.987802 401.910518 295.612435 409.092622 295.402224 416.274725 296.327151 423.456829 300.321152 430.638932 301.414247 437.821036 305.492333 445.003140 305.786628 452.185243 303.348185 459.367347 302.885722 466.549451 307.342186 473.731554 305.113954 480.913658 309.065913 488.095761 311.966819 495.277865 310.074924 502.459969 312.261114 509.642072 309.780629 516.824176 308.309155 524.006279 308.435281 531.188383 305.366207 538.370487 304.525364 545.552590 304.441280 552.734694 304.062901 559.916797 302.128963 567.098901 304.483322 574.281005 306.122965 581.463108 305.786628 588.645212 306.333175 595.827316 305.912754 603.009419 310.369219 610.191523 309.192039 617.373626 308.603450 624.555730 310.915766 631.737834 313.186041 638.919937 312.681535 646.102041 310.915766 653.284144 310.831682 660.466248 313.101956 667.648352 314.321178 674.830455 312.555409 682.012559 311.924777 689.194662 309.990840 696.376766 308.183029 703.558870 305.702544 710.740973 303.642480 717.923077 302.297132"/></g><g class="series serie-2 color-2"><path class="line reactive nofill" d="M14.076923 302.843679 L21.259027 302.843679 28.441130 302.843679 35.623234 302.843679 42.805338 302.843679 49.987441 302.843679 57.169545 302.843679 64.351648 302.843679 71.533752 302.843679 78.715856 302.843679 85.897959 302.843679 93.080063 302.843679 100.262166 302.843679 107.444270 302.843679 114.626374 302.843679 121.808477 302.843679 128.990581 302.843679 136.172684 302.843679 143.354788 302.843679 150.536892 302.843679 157.718995 302.843679 164.901099 302.843679 172.083203 302.843679 179.265306 302.843679 186.447410 302.843679 193.629513 302.843679 200.811617 302.843679 207.993721 302.843679 215.175824 302.843679 222.357928 302.843679 229.540031 302.843679 236.722135 302.843679 243.904239 302.843679 251.086342 302.843679 258.268446 302.843679 265.450549 302.843679 272.632653 302.843679 279.814757 302.843679 286.996860 302.843679 294.178964 302.843679 301.361068 302.843679 308.543171 302.843679 315.725275 302.843679 322.907378 302.843679 330.089482 302.843679 337.271586 302.843679 344.453689 302.843679 351.635793 302.843679 358.817896 302.843679 366.000000 302.843679 373.182104 302.843679 380.364207 302.843679 387.546311 302.843679 394.728414 302.843679 401.910518 302.843679 409.092622 302.843679 416.274725 302.843679 423.456829 302.843679 430.638932 302.843679 437.821036 302.843679 445.003140 302.843679 452.185243 302.843679 459.367347 302.843679 466.549451 302.843679 473.731554 302.843679 480.913658 302.843679 488.095761 302.843679 495.277865 302.843679 502.459969 302.843679 509.642072 302.843679 516.824176 302.843679 524.006279 302.843679 531.188383 302.843679 538.370487 302.843679 545.552590 302.843679 552.734694 302.843679 559.916797 302.843679 567.098901 302.843679 574.281005 302.843679 581.463108 302.843679 588.645212 302.843679 595.827316 302.843679 603.009419 302.843679 610.191523 302.843679 617.373626 302.843679 624.555730 302.843679 631.737834 302.843679 638.919937 302.843679 646.102041 302.843679 653.284144 302.843679 660.466248 302.843679 667.648352 302.843679 674.830455 302.843679 682.012559 302.843679 689.194662 302.843679 696.376766 302.843679 703.558870 302.843679 710.740973 302.843679 717.923077 302.843679"/></g></g><g class="titles"><text class="title plot_title" x="400.0" y="26">RW Price: Future and Past Averages in ODIs</text></g><g class="plot overlay" transform="translate(48, 46)"><g class="series serie-0 color-0"><g class="dots"><desc class="label">100 wickets in 99 innings (895.4 overs)</desc><circle class="dot reactive tooltip-trigger" cx="14.076923076923077" cy="302.84367939115464" r="2.5"/><desc class="value">35.75</desc><desc class="x top">14.076923076923077</desc><desc class="y top">302.84367939115464</desc><desc class="x_label">2002</desc></g><g class="dots"><desc class="label">100 wickets in 97 innings (881.4 overs)</desc><circle class="dot reactive tooltip-trigger" cx="28.441130298273155" cy="305.57641714342304" r="2.5"/><desc class="value">35.1</desc><desc class="x top">28.441130298273155</desc><desc class="y top">305.57641714342304</desc><desc class="x_label">2003</desc></g><g class="dots"><desc class="label">92 wickets in 85 innings (774.2 overs)</desc><circle class="dot reactive tooltip-trigger" cx="114.6263736263736" cy="311.29414536355387" r="2.5"/><desc class="value">33.74</desc><desc class="x top">114.6263736263736</desc><desc class="y top">311.29414536355387</desc><desc class="x_label">2004</desc></g><g class="dots"><desc class="label">85 wickets in 75 innings (674.2 overs)</desc><circle class="dot reactive tooltip-trigger" cx="186.44740973312403" cy="321.67854882217375" r="2.5"/><desc class="value">31.27</desc><desc class="x top">186.44740973312403</desc><desc class="y top">321.67854882217375</desc><desc class="x_label">2007</desc></g><g class="dots"><desc class="label">84 wickets in 71 innings (637.2 overs)</desc><circle class="dot reactive tooltip-trigger" cx="215.17582417582418" cy="327.31219280377326" r="2.5"/><desc class="value">29.93</desc><desc class="x top">215.17582417582418</desc><desc class="y top">327.31219280377326</desc><desc class="x_label">2008</desc></g><g class="dots"><desc class="label">75 wickets in 60 innings (537.2 overs)</desc><circle class="dot reactive tooltip-trigger" cx="294.1789638932496" cy="331.768657445934" r="2.5"/><desc class="value">28.87</desc><desc class="x top">294.1789638932496</desc><desc class="y top">331.768657445934</desc><desc class="x_label">2009</desc></g><g class="dots"><desc class="label">31 wickets in 33 innings (299.1 overs)</desc><circle class="dot reactive tooltip-trigger" cx="488.09576138147565" cy="282.5373357858372" r="2.5"/><desc class="value">40.58</desc><desc class="x left top">488.09576138147565</desc><desc class="y left top">282.5373357858372</desc><desc class="x_label">2010</desc></g><g class="dots"><desc class="label">20 wickets in 19 innings (176.0 overs)</desc><circle class="dot reactive tooltip-trigger" cx="588.6452119309262" cy="288.9697800334843" r="2.5"/><desc class="value">39.05</desc><desc class="x left top">588.6452119309262</desc><desc class="y left top">288.9697800334843</desc><desc class="x_label">2011</desc></g><g class="dots"><desc class="label">3 wickets in 3 innings (30.0 overs)</desc><circle class="dot reactive tooltip-trigger" cx="703.5588697017268" cy="210.6873539608111" r="2.5"/><desc class="value">57.67</desc><desc class="x left">703.5588697017268</desc><desc class="y left">210.6873539608111</desc><desc class="x_label">2012</desc></g></g><g class="series serie-1 color-1"><g class="dots"><desc class="label">0 wickets over 0 innings</desc><circle class="dot reactive tooltip-trigger" cx="14.076923076923077" cy="453.1442557659166" r="2.5"/><desc class="value">0</desc><desc class="x top">14.076923076923077</desc><desc class="y top">453.1442557659166</desc><desc class="x_label">2002</desc></g><g class="dots"><desc class="label">0 wickets in 2 innings (14.0 overs)</desc><circle class="dot reactive tooltip-trigger" cx="28.441130298273155" cy="179.8704805390767" r="2.5"/><desc class="value">65</desc><desc class="x ">28.441130298273155</desc><desc class="y ">179.8704805390767</desc><desc class="x_label">2003</desc></g><g class="dots"><desc class="label">8 wickets in 14 innings (121.2 overs)</desc><circle class="dot reactive tooltip-trigger" cx="114.6263736263736" cy="205.60025752966527" r="2.5"/><desc class="value">58.88</desc><desc class="x ">114.6263736263736</desc><desc class="y ">205.60025752966527</desc><desc class="x_label">2004</desc></g><g class="dots"><desc class="label">15 wickets in 24 innings (221.2 overs)</desc><circle class="dot reactive tooltip-trigger" cx="186.44740973312403" cy="196.14078069489005" r="2.5"/><desc class="value">61.13</desc><desc class="x ">186.44740973312403</desc><desc class="y ">196.14078069489005</desc><desc class="x_label">2007</desc></g><g class="dots"><desc class="label">16 wickets in 28 innings (258.2 overs)</desc><circle class="dot reactive tooltip-trigger" cx="215.17582417582418" cy="174.36296291527418" r="2.5"/><desc class="value">66.31</desc><desc class="x ">215.17582417582418</desc><desc class="y ">174.36296291527418</desc><desc class="x_label">2008</desc></g><g class="dots"><desc class="label">25 wickets in 39 innings (358.2 overs)</desc><circle class="dot reactive tooltip-trigger" cx="294.1789638932496" cy="216.0267031075509" r="2.5"/><desc class="value">56.4</desc><desc class="x ">294.1789638932496</desc><desc class="y ">216.0267031075509</desc><desc class="x_label">2009</desc></g><g class="dots"><desc class="label">69 wickets in 66 innings (596.3 overs)</desc><circle class="dot reactive tooltip-trigger" cx="488.09576138147565" cy="311.9668192718045" r="2.5"/><desc class="value">33.58</desc><desc class="x left top">488.09576138147565</desc><desc class="y left top">311.9668192718045</desc><desc class="x_label">2010</desc></g><g class="dots"><desc class="label">80 wickets in 80 innings (719.4 overs)</desc><circle class="dot reactive tooltip-trigger" cx="588.6452119309262" cy="306.3331752902051" r="2.5"/><desc class="value">34.92</desc><desc class="x left top">588.6452119309262</desc><desc class="y left top">306.3331752902051</desc><desc class="x_label">2011</desc></g><g class="dots"><desc class="label">97 wickets in 96 innings (865.4 overs)</desc><circle class="dot reactive tooltip-trigger" cx="703.5588697017268" cy="305.70254350122" r="2.5"/><desc class="value">35.07</desc><desc class="x left top">703.5588697017268</desc><desc class="y left top">305.70254350122</desc><desc class="x_label">2012</desc></g></g><g class="series serie-2 color-2"/></g><g class="plot text-overlay" transform="translate(48, 46)"><g class="series serie-0 color-0"/><g class="series serie-1 color-1"/><g class="series serie-2 color-2"/></g><g class="plot tooltip-overlay" transform="translate(48, 46)"><g class="tooltip" style="opacity: 0" transform="translate(0 0)"><rect class="tooltip-box" height="0" rx="10" ry="10" width="0"/><g class="text"/></g></g><g class="legends" transform="translate(58, 545)"><g class="legend reactive activate-serie" id="activate-serie-0"><rect class="color-0 reactive" height="12" width="12" x="0.0" y="1.0"/><text x="17.0" y="11.2">Future Average</text></g><g class="legend reactive activate-serie" id="activate-serie-1"><rect class="color-1 reactive" height="12" width="12" x="366.0" y="1.0"/><text x="383.0" y="11.2">Past Average</text></g><g class="legend reactive activate-serie" id="activate-serie-2"><rect class="color-2 reactive" height="12" width="12" x="0.0" y="22.0"/><text x="17.0" y="32.2">Career Average</text></g></g></g></svg>