<?xml version='1.0' encoding='utf-8'?>
<svg xmlns:xlink="http://www.w3.org/1999/xlink" xmlns="http://www.w3.org/2000/svg" id="chart-5dce402a-f425-497f-b95d-54b41fe24284" class="pygal-chart" viewBox="0 0 800 600"><!--Generated with pygal 2.4.0 (lxml) ©Kozea 2012-2016 on 2019-08-04--><!--http://pygal.org--><!--http://github.com/Kozea/pygal--><defs><style type="text/css">#chart-5dce402a-f425-497f-b95d-54b41fe24284{-webkit-user-select:none;-webkit-font-smoothing:antialiased;font-family:Consolas,"Liberation Mono",Menlo,Courier,monospace}#chart-5dce402a-f425-497f-b95d-54b41fe24284 .title{font-family:Consolas,"Liberation Mono",Menlo,Courier,monospace;font-size:16px}#chart-5dce402a-f425-497f-b95d-54b41fe24284 .legends .legend text{font-family:Consolas,"Liberation Mono",Menlo,Courier,monospace;font-size:14px}#chart-5dce402a-f425-497f-b95d-54b41fe24284 .axis text{font-family:Consolas,"Liberation Mono",Menlo,Courier,monospace;font-size:10px}#chart-5dce402a-f425-497f-b95d-54b41fe24284 .axis text.major{font-family:Consolas,"Liberation Mono",Menlo,Courier,monospace;font-size:10px}#chart-5dce402a-f425-497f-b95d-54b41fe24284 .text-overlay text.value{font-family:Consolas,"Liberation Mono",Menlo,Courier,monospace;font-size:16px}#chart-5dce402a-f425-497f-b95d-54b41fe24284 .text-overlay text.label{font-family:Consolas,"Liberation Mono",Menlo,Courier,monospace;font-size:10px}#chart-5dce402a-f425-497f-b95d-54b41fe24284 .tooltip{font-family:Consolas,"Liberation Mono",Menlo,Courier,monospace;font-size:14px}#chart-5dce402a-f425-497f-b95d-54b41fe24284 text.no_data{font-family:Consolas,"Liberation Mono",Menlo,Courier,monospace;font-size:64px}
#chart-5dce402a-f425-497f-b95d-54b41fe24284{background-color:rgba(249,249,249,1)}#chart-5dce402a-f425-497f-b95d-54b41fe24284 path,#chart-5dce402a-f425-497f-b95d-54b41fe24284 line,#chart-5dce402a-f425-497f-b95d-54b41fe24284 rect,#chart-5dce402a-f425-497f-b95d-54b41fe24284 circle{-webkit-transition:150ms;-moz-transition:150ms;transition:150ms}#chart-5dce402a-f425-497f-b95d-54b41fe24284 .graph &gt; .background{fill:rgba(249,249,249,1)}#chart-5dce402a-f425-497f-b95d-54b41fe24284 .plot &gt; .background{fill:rgba(255,255,255,1)}#chart-5dce402a-f425-497f-b95d-54b41fe24284 .graph{fill:rgba(0,0,0,.87)}#chart-5dce402a-f425-497f-b95d-54b41fe24284 text.no_data{fill:rgba(0,0,0,1)}#chart-5dce402a-f425-497f-b95d-54b41fe24284 .title{fill:rgba(0,0,0,1)}#chart-5dce402a-f425-497f-b95d-54b41fe24284 .legends .legend text{fill:rgba(0,0,0,.87)}#chart-5dce402a-f425-497f-b95d-54b41fe24284 .legends .legend:hover text{fill:rgba(0,0,0,1)}#chart-5dce402a-f425-497f-b95d-54b41fe24284 .axis .line{stroke:rgba(0,0,0,1)}#chart-5dce402a-f425-497f-b95d-54b41fe24284 .axis .guide.line{stroke:rgba(0,0,0,.54)}#chart-5dce402a-f425-497f-b95d-54b41fe24284 .axis .major.line{stroke:rgba(0,0,0,.87)}#chart-5dce402a-f425-497f-b95d-54b41fe24284 .axis text.major{fill:rgba(0,0,0,1)}#chart-5dce402a-f425-497f-b95d-54b41fe24284 .axis.y .guides:hover .guide.line,#chart-5dce402a-f425-497f-b95d-54b41fe24284 .line-graph .axis.x .guides:hover .guide.line,#chart-5dce402a-f425-497f-b95d-54b41fe24284 .stackedline-graph .axis.x .guides:hover .guide.line,#chart-5dce402a-f425-497f-b95d-54b41fe24284 .xy-graph .axis.x .guides:hover .guide.line{stroke:rgba(0,0,0,1)}#chart-5dce402a-f425-497f-b95d-54b41fe24284 .axis .guides:hover text{fill:rgba(0,0,0,1)}#chart-5dce402a-f425-497f-b95d-54b41fe24284 .reactive{fill-opacity:.7;stroke-opacity:.8}#chart-5dce402a-f425-497f-b95d-54b41fe24284 .ci{stroke:rgba(0,0,0,.87)}#chart-5dce402a-f425-497f-b95d-54b41fe24284 .reactive.active,#chart-5dce402a-f425-497f-b95d-54b41fe24284 .active .reactive{fill-opacity:.8;stroke-opacity:.9;stroke-width:4}#chart-5dce402a-f425-497f-b95d-54b41fe24284 .ci .reactive.active{stroke-width:1.5}#chart-5dce402a-f425-497f-b95d-54b41fe24284 .series text{fill:rgba(0,0,0,1)}#chart-5dce402a-f425-497f-b95d-54b41fe24284 .tooltip rect{fill:rgba(255,255,255,1);stroke:rgba(0,0,0,1);-webkit-transition:opacity 150ms;-moz-transition:opacity 150ms;transition:opacity 150ms}#chart-5dce402a-f425-497f-b95d-54b41fe24284 .tooltip .label{fill:rgba(0,0,0,.87)}#chart-5dce402a-f425-497f-b95d-54b41fe24284 .tooltip .label{fill:rgba(0,0,0,.87)}#chart-5dce402a-f425-497f-b95d-54b41fe24284 .tooltip .legend{font-size:.8em;fill:rgba(0,0,0,.54)}#chart-5dce402a-f425-497f-b95d-54b41fe24284 .tooltip .x_label{font-size:.6em;fill:rgba(0,0,0,1)}#chart-5dce402a-f425-497f-b95d-54b41fe24284 .tooltip .xlink{font-size:.5em;text-decoration:underline}#chart-5dce402a-f425-497f-b95d-54b41fe24284 .tooltip .value{font-size:1.5em}#chart-5dce402a-f425-497f-b95d-54b41fe24284 .bound{font-size:.5em}#chart-5dce402a-f425-497f-b95d-54b41fe24284 .max-value{font-size:.75em;fill:rgba(0,0,0,.54)}#chart-5dce402a-f425-497f-b95d-54b41fe24284 .map-element{fill:rgba(255,255,255,1);stroke:rgba(0,0,0,.54) !important}#chart-5dce402a-f425-497f-b95d-54b41fe24284 .map-element .reactive{fill-opacity:inherit;stroke-opacity:inherit}#chart-5dce402a-f425-497f-b95d-54b41fe24284 .color-0,#chart-5dce402a-f425-497f-b95d-54b41fe24284 .color-0 a:visited{stroke:red;fill:red}#chart-5dce402a-f425-497f-b95d-54b41fe24284 .color-1,#chart-5dce402a-f425-497f-b95d-54b41fe24284 .color-1 a:visited{stroke:blue;fill:blue}#chart-5dce402a-f425-497f-b95d-54b41fe24284 .color-2,#chart-5dce402a-f425-497f-b95d-54b41fe24284 .color-2 a:visited{stroke:green;fill:green}#chart-5dce402a-f425-497f-b95d-54b41fe24284 .text-overlay .color-0 text{fill:white}#chart-5dce402a-f425-497f-b95d-54b41fe24284 .text-overlay .color-1 text{fill:white}#chart-5dce402a-f425-497f-b95d-54b41fe24284 .text-overlay .color-2 text{fill:white}
#chart-5dce402a-f425-497f-b95d-54b41fe24284 text.no_data{text-anchor:middle}#chart-5dce402a-f425-497f-b95d-54b41fe24284 .guide.line{fill:none}#chart-5dce402a-f425-497f-b95d-54b41fe24284 .centered{text-anchor:middle}#chart-5dce402a-f425-497f-b95d-54b41fe24284 .title{text-anchor:middle}#chart-5dce402a-f425-497f-b95d-54b41fe24284 .legends .legend text{fill-opacity:1}#chart-5dce402a-f425-497f-b95d-54b41fe24284 .axis.x text{text-anchor:middle}#chart-5dce402a-f425-497f-b95d-54b41fe24284 .axis.x:not(.web) text[transform]{text-anchor:start}#chart-5dce402a-f425-497f-b95d-54b41fe24284 .axis.x:not(.web) text[transform].backwards{text-anchor:end}#chart-5dce402a-f425-497f-b95d-54b41fe24284 .axis.y text{text-anchor:end}#chart-5dce402a-f425-497f-b95d-54b41fe24284 .axis.y text[transform].backwards{text-anchor:start}#chart-5dce402a-f425-497f-b95d-54b41fe24284 .axis.y2 text{text-anchor:start}#chart-5dce402a-f425-497f-b95d-54b41fe24284 .axis.y2 text[transform].backwards{text-anchor:end}#chart-5dce402a-f425-497f-b95d-54b41fe24284 .axis .guide.line{stroke-dasharray:4,4}#chart-5dce402a-f425-497f-b95d-54b41fe24284 .axis .major.guide.line{stroke-dasharray:6,6}#chart-5dce402a-f425-497f-b95d-54b41fe24284 .horizontal .axis.y .guide.line,#chart-5dce402a-f425-497f-b95d-54b41fe24284 .horizontal .axis.y2 .guide.line,#chart-5dce402a-f425-497f-b95d-54b41fe24284 .vertical .axis.x .guide.line{opacity:0}#chart-5dce402a-f425-497f-b95d-54b41fe24284 .horizontal .axis.always_show .guide.line,#chart-5dce402a-f425-497f-b95d-54b41fe24284 .vertical .axis.always_show .guide.line{opacity:1 !important}#chart-5dce402a-f425-497f-b95d-54b41fe24284 .axis.y .guides:hover .guide.line,#chart-5dce402a-f425-497f-b95d-54b41fe24284 .axis.y2 .guides:hover .guide.line,#chart-5dce402a-f425-497f-b95d-54b41fe24284 .axis.x .guides:hover .guide.line{opacity:1}#chart-5dce402a-f425-497f-b95d-54b41fe24284 .axis .guides:hover text{opacity:1}#chart-5dce402a-f425-497f-b95d-54b41fe24284 .nofill{fill:none}#chart-5dce402a-f425-497f-b95d-54b41fe24284 .subtle-fill{fill-opacity:.2}#chart-5dce402a-f425-497f-b95d-54b41fe24284 .dot{stroke-width:1px;fill-opacity:1}#chart-5dce402a-f425-497f-b95d-54b41fe24284 .dot.active{stroke-width:5px}#chart-5dce402a-f425-497f-b95d-54b41fe24284 .dot.negative{fill:transparent}#chart-5dce402a-f425-497f-b95d-54b41fe24284 text,#chart-5dce402a-f425-497f-b95d-54b41fe24284 tspan{stroke:none !important}#chart-5dce402a-f425-497f-b95d-54b41fe24284 .series text.active{opacity:1}#chart-5dce402a-f425-497f-b95d-54b41fe24284 .tooltip rect{fill-opacity:.95;stroke-width:.5}#chart-5dce402a-f425-497f-b95d-54b41fe24284 .tooltip text{fill-opacity:1}#chart-5dce402a-f425-497f-b95d-54b41fe24284 .showable{visibility:hidden}#chart-5dce402a-f425-497f-b95d-54b41fe24284 .showable.shown{visibility:visible}#chart-5dce402a-f425-497f-b95d-54b41fe24284 .gauge-background{fill:rgba(229,229,229,1);stroke:none}#chart-5dce402a-f425-497f-b95d-54b41fe24284 .bg-lines{stroke:rgba(249,249,249,1);stroke-width:2px}</style><script type="text/javascript">window.pygal = window.pygal || {};window.pygal.config = window.pygal.config || {};window.pygal.config['5dce402a-f425-497f-b95d-54b41fe24284'] = {"allow_interruptions": false, "box_mode": "extremes", "classes": ["pygal-chart"], "css": ["file://style.css", "file://graph.css"], "defs": [], "disable_xml_declaration": false, "dots_size": 2.5, "dynamic_print_values": false, "explicit_size": false, "fill": false, "force_uri_protocol": "https", "formatter": null, "half_pie": false, "height": 600, "include_x_axis": false, "inner_radius": 0, "interpolate": null, "interpolation_parameters": {}, "interpolation_precision": 250, "inverse_y_axis": false, "js": ["//kozea.github.io/pygal.js/2.0.x/pygal-tooltips.min.js"], "legend_at_bottom": true, "legend_at_bottom_columns": null, "legend_box_size": 12, "logarithmic": false, "margin": 20, "margin_bottom": null, "margin_left": null, "margin_right": null, "margin_top": null, "max_scale": 16, "min_scale": 4, "missing_value_fill_truncation": "x", "no_data_text": "No data", "no_prefix": false, "order_min": null, "pretty_print": false, "print_labels": false, "print_values": false, "print_values_position": "center", "print_zeroes": true, "range": null, "rounded_bars": null, "secondary_range": null, "show_dots": true, "show_legend": true, "show_minor_x_labels": false, "show_minor_y_labels": true, "show_only_major_dots": false, "show_x_guides": false, "show_x_labels": true, "show_y_guides": true, "show_y_labels": true, "spacing": 10, "stack_from_top": false, "strict": false, "stroke": true, "stroke_style": null, "style": {"background": "rgba(249, 249, 249, 1)", "ci_colors": [], "colors": ["red", "blue", "green", "#a3a3a3"], "font_family": "Consolas, \"Liberation Mono\", Menlo, Courier, monospace", "foreground": "rgba(0, 0, 0, .87)", "foreground_strong": "rgba(0, 0, 0, 1)", "foreground_subtle": "rgba(0, 0, 0, .54)", "guide_stroke_dasharray": "4,4", "label_font_family": "Consolas, \"Liberation Mono\", Menlo, Courier, monospace", "label_font_size": 10, "legend_font_family": "Consolas, \"Liberation Mono\", Menlo, Courier, monospace", "legend_font_size": 14, "major_guide_stroke_dasharray": "6,6", "major_label_font_family": "Consolas, \"Liberation Mono\", Menlo, Courier, monospace", "major_label_font_size": 10, "no_data_font_family": "Consolas, \"Liberation Mono\", Menlo, Courier, monospace", "no_data_font_size": 64, "opacity": ".7", "opacity_hover": ".8", "plot_background": "rgba(255, 255, 255, 1)", "stroke_opacity": ".8", "stroke_opacity_hover": ".9", "title_font_family": "Consolas, \"Liberation Mono\", Menlo, Courier, monospace", "title_font_size": 16, "tooltip_font_family": "Consolas, \"Liberation Mono\", Menlo, Courier, monospace", "tooltip_font_size": 14, "transition": "150ms", "value_background": "rgba(229, 229, 229, 1)", "value_colors": [], "value_font_family": "Consolas, \"Liberation Mono\", Menlo, Courier, monospace", "value_font_size": 16, "value_label_font_family": "Consolas, \"Liberation Mono\", Menlo, Courier, monospace", "value_label_font_size": 10}, "title": "Saeed Ajmal: Future and Past Averages in ODIs", "tooltip_border_radius": 10, "tooltip_fancy_mode": true, "truncate_label": null, "truncate_legend": null, "width": 800, "x_label_rotation": 45, "x_labels": ["2008", "0", "0", "0", "2009", "0", "0", "0", "0", "0", "0", "0", "0", "0", "0", "0", "0", "0", "0", "0", "0", "0", "2010", "0", "0", "0", "0", "0", "0", "0", "0", "0", "0", "0", "0", "2011", "0", "0", "0", "0", "0", "0", "0", "0", "0", "0", "0", "0", "0", "0", "0", "0", "0", "0", "0", "2012", "0", "0", "0", "0", "0", "0", "0", "0", "0", "0", "0", "0", "0", "0", "0", "2013", "0", "0", "0", "0", "0", "0", "0", "0", "0", "0", "0", "0", "0", "0", "0", "0", "0", "0", "0", "0", "0", "0", "0", "0", "0", "0", "0", "0", "0", "0", "0", "0", "2014", "0", "0", "0", "0", "0", "2015", "0"], "x_labels_major": ["2008", "2009", "2010", "2011", "2012", "2013", "2014", "2015"], "x_labels_major_count": null, "x_labels_major_every": null, "x_title": null, "xrange": null, "y_label_rotation": 0, "y_labels": null, "y_labels_major": null, "y_labels_major_count": null, "y_labels_major_every": null, "y_title": null, "zero": 130.0, "legends": ["Future Average", "Past Average", "Career Average"]}</script><script type="text/javascript" xlink:href="https://kozea.github.io/pygal.js/2.0.x/pygal-tooltips.min.js"/></defs><title>Saeed Ajmal: Future and Past Averages in ODIs</title><g class="graph line-graph vertical"><rect class="background" height="600" width="800" x="0" y="0"/><g class="plot" transform="translate(48, 46)"><rect class="background" height="462.02943725152284" width="732.0" x="0" y="0"/><g class="axis y always_show"><g class="guides"><path class="axis major line" d="M0.000000 453.144256 h732.000000"/><text class="major" x="-5" y="456.6442557659166">0</text><title>0</title></g><g class="guides"><path class="guide line" d="M0.000000 417.025632 h732.000000"/><text class="" x="-5" y="420.5256318406881">10</text><title>10</title></g><g class="guides"><path class="guide line" d="M0.000000 380.907008 h732.000000"/><text class="" x="-5" y="384.40700791545964">20</text><title>20</title></g><g class="guides"><path class="guide line" d="M0.000000 344.788384 h732.000000"/><text class="" x="-5" y="348.2883839902311">30</text><title>30</title></g><g class="guides"><path class="guide line" d="M0.000000 308.669760 h732.000000"/><text class="" x="-5" y="312.1697600650026">40</text><title>40</title></g><g class="guides"><path class="major guide line" d="M0.000000 272.551136 h732.000000"/><text class="major" x="-5" y="276.05113613977414">50</text><title>50</title></g><g class="guides"><path class="guide line" d="M0.000000 236.432512 h732.000000"/><text class="" x="-5" y="239.93251221454568">60</text><title>60</title></g><g class="guides"><path class="guide line" d="M0.000000 200.313888 h732.000000"/><text class="" x="-5" y="203.81388828931716">70</text><title>70</title></g><g class="guides"><path class="guide line" d="M0.000000 164.195264 h732.000000"/><text class="" x="-5" y="167.6952643640887">80</text><title>80</title></g><g class="guides"><path class="guide line" d="M0.000000 128.076640 h732.000000"/><text class="" x="-5" y="131.57664043886024">90</text><title>90</title></g><g class="guides"><path class="major guide line" d="M0.000000 91.958017 h732.000000"/><text class="major" x="-5" y="95.45801651363172">100</text><title>100</title></g><g class="guides"><path class="guide line" d="M0.000000 55.839393 h732.000000"/><text class="" x="-5" y="59.33939258840326">110</text><title>110</title></g><g class="guides"><path class="guide line" d="M0.000000 19.720769 h732.000000"/><text class="" x="-5" y="23.220768663174738">120</text><title>120</title></g></g><g class="axis x"><g class="guides"><path class="major line" d="M14.076923 0.000000 v462.029437"/><text class="major" x="14.076923076923077" y="477.02943725152284" transform="rotate(45 14.076923 477.029437)">2008</text></g><g class="guides"><path class="major guide line" d="M39.440748 0.000000 v462.029437"/><text class="major" x="39.440748440748436" y="477.02943725152284" transform="rotate(45 39.440748 477.029437)">2009</text></g><g class="guides"><path class="major guide line" d="M153.577963 0.000000 v462.029437"/><text class="major" x="153.57796257796258" y="477.02943725152284" transform="rotate(45 153.577963 477.029437)">2010</text></g><g class="guides"><path class="major guide line" d="M236.010395 0.000000 v462.029437"/><text class="major" x="236.010395010395" y="477.02943725152284" transform="rotate(45 236.010395 477.029437)">2011</text></g><g class="guides"><path class="major guide line" d="M362.829522 0.000000 v462.029437"/><text class="major" x="362.8295218295218" y="477.02943725152284" transform="rotate(45 362.829522 477.029437)">2012</text></g><g class="guides"><path class="major guide line" d="M464.284823 0.000000 v462.029437"/><text class="major" x="464.2848232848233" y="477.02943725152284" transform="rotate(45 464.284823 477.029437)">2013</text></g><g class="guides"><path class="major guide line" d="M673.536383 0.000000 v462.029437"/><text class="major" x="673.5363825363825" y="477.02943725152284" transform="rotate(45 673.536383 477.029437)">2014</text></g><g class="guides"><path class="major guide line" d="M711.582121 0.000000 v462.029437"/><text class="major" x="711.5821205821204" y="477.02943725152284" transform="rotate(45 711.582121 477.029437)">2015</text></g></g><g class="series serie-0 color-0"><path class="line reactive nofill" d="M14.076923 371.046624 L20.417879 371.516166 26.758836 371.010505 33.099792 371.299454 39.440748 372.021826 45.781705 373.033148 52.122661 372.527487 58.463617 372.816436 64.804574 373.683283 71.145530 374.080588 77.486486 374.477893 83.827443 374.839079 90.168399 375.272503 96.509356 375.489214 102.850312 375.091909 109.191268 375.705926 115.532225 375.128028 121.873181 374.875198 128.214137 374.586249 134.555094 374.514011 140.896050 373.936113 147.237006 375.236384 153.577963 374.044469 159.918919 375.416977 166.259875 376.392180 172.600832 376.825603 178.941788 377.114552 185.282744 376.970078 191.623701 376.319943 197.964657 376.536654 204.305613 377.078434 210.646570 376.789485 216.987526 378.053637 223.328482 378.053637 229.669439 378.956602 236.010395 379.895686 242.351351 380.184635 248.692308 379.606737 255.033264 379.678975 261.374220 379.787331 267.715177 379.281670 274.056133 378.378704 280.397089 378.848246 286.738046 379.751212 293.079002 378.198111 299.419958 376.789485 305.760915 377.584095 312.101871 378.848246 318.442827 378.234230 324.783784 378.198111 331.124740 377.547976 337.465696 377.114552 343.806653 377.295146 350.147609 377.042315 356.488565 377.439620 362.829522 376.211587 369.170478 377.295146 375.511435 375.091909 381.852391 376.247705 388.193347 376.933959 394.534304 376.897841 400.875260 376.970078 407.216216 375.561452 413.557173 376.645010 419.898129 376.572773 426.239085 377.511857 432.580042 378.667653 438.920998 379.028839 445.261954 377.656332 451.602911 375.272503 457.943867 373.936113 464.284823 375.958756 470.625780 373.719402 476.966736 369.096218 483.307692 369.457404 489.648649 368.121015 495.989605 370.360370 502.330561 368.735032 508.671518 370.793793 515.012474 368.012659 521.353430 372.599724 527.694387 372.130182 534.035343 373.466571 540.376299 373.972232 546.717256 375.705926 553.058212 375.850401 559.399168 373.683283 565.740125 375.344740 572.081081 376.464417 578.422037 376.608892 584.762994 376.392180 591.103950 373.791639 597.444906 367.615354 603.785863 363.967373 610.126819 362.594866 616.467775 368.987862 622.808732 365.664949 629.149688 362.703221 635.490644 365.845542 641.831601 363.497831 648.172557 371.371691 654.513514 375.055791 660.854470 373.863876 667.195426 362.125323 673.536383 360.066562 679.877339 367.362524 686.218295 359.235834 692.559252 339.623421 698.900208 338.287032 705.241164 212.955407 711.582121 8.885181 717.923077 276.162999"/></g><g class="series serie-1 color-1"><path class="line reactive nofill" d="M14.076923 453.144256 L20.417879 283.386723 26.758836 373.683283 33.099792 359.235834 39.440748 327.632038 45.781705 281.580792 52.122661 327.343089 58.463617 326.223411 64.804574 304.552237 71.145530 294.222310 77.486486 296.028242 83.827443 297.436868 90.168399 289.021229 96.509356 301.120968 102.850312 317.843891 109.191268 309.789437 115.532225 325.031497 121.873181 333.519373 128.214137 340.237437 134.555094 344.282723 140.896050 350.928550 147.237006 341.646064 153.577963 353.745803 159.918919 345.582994 166.259875 340.092963 172.600832 338.864930 178.941788 339.840133 185.282744 344.029893 191.623701 350.170059 197.964657 350.639601 204.305613 349.411568 210.646570 351.650923 216.987526 347.352806 223.328482 348.725314 229.669439 345.871943 236.010395 342.910216 242.351351 342.874097 248.692308 346.160892 255.033264 347.280569 261.374220 347.677874 267.715177 350.133940 274.056133 353.854159 280.397089 352.806719 286.738046 350.639601 293.079002 355.515615 299.419958 359.777613 305.760915 358.477342 312.101871 356.093513 318.442827 357.899444 324.783784 358.874647 331.124740 360.716697 337.465696 361.800256 343.806653 361.764137 350.147609 362.378154 356.488565 361.980849 362.829522 364.039611 369.170478 362.558747 375.511435 366.170609 381.852391 364.870339 388.193347 364.220204 394.534304 364.689746 400.875260 364.870339 407.216216 366.640151 413.557173 365.701067 419.898129 366.026135 426.239085 365.159288 432.580042 364.220204 438.920998 364.184085 445.261954 365.737186 451.602911 367.976541 457.943867 369.060099 464.284823 367.687592 470.625780 369.312930 476.966736 372.166301 483.307692 371.913471 489.648649 372.563606 495.989605 371.407810 502.330561 372.166301 508.671518 371.154979 515.012474 372.383013 521.353430 370.396488 527.694387 370.613200 534.035343 370.071421 540.376299 369.890828 546.717256 369.240692 553.058212 369.276811 559.399168 370.143658 565.740125 369.637997 572.081081 369.349048 578.422037 369.421286 584.762994 369.565760 591.103950 370.360370 597.444906 371.841233 603.785863 372.527487 610.126819 372.708080 616.467775 371.443928 622.808732 371.985708 629.149688 372.383013 635.490644 371.841233 641.831601 372.094064 648.172557 371.010505 654.513514 370.540963 660.854470 370.721556 667.195426 371.841233 673.536383 371.877352 679.877339 371.299454 686.218295 371.732877 692.559252 372.310775 698.900208 371.985708 705.241164 372.780318 711.582121 373.033148 717.923077 371.588403"/></g><g class="series serie-2 color-2"><path class="line reactive nofill" d="M14.076923 371.046624 L20.417879 371.046624 26.758836 371.046624 33.099792 371.046624 39.440748 371.046624 45.781705 371.046624 52.122661 371.046624 58.463617 371.046624 64.804574 371.046624 71.145530 371.046624 77.486486 371.046624 83.827443 371.046624 90.168399 371.046624 96.509356 371.046624 102.850312 371.046624 109.191268 371.046624 115.532225 371.046624 121.873181 371.046624 128.214137 371.046624 134.555094 371.046624 140.896050 371.046624 147.237006 371.046624 153.577963 371.046624 159.918919 371.046624 166.259875 371.046624 172.600832 371.046624 178.941788 371.046624 185.282744 371.046624 191.623701 371.046624 197.964657 371.046624 204.305613 371.046624 210.646570 371.046624 216.987526 371.046624 223.328482 371.046624 229.669439 371.046624 236.010395 371.046624 242.351351 371.046624 248.692308 371.046624 255.033264 371.046624 261.374220 371.046624 267.715177 371.046624 274.056133 371.046624 280.397089 371.046624 286.738046 371.046624 293.079002 371.046624 299.419958 371.046624 305.760915 371.046624 312.101871 371.046624 318.442827 371.046624 324.783784 371.046624 331.124740 371.046624 337.465696 371.046624 343.806653 371.046624 350.147609 371.046624 356.488565 371.046624 362.829522 371.046624 369.170478 371.046624 375.511435 371.046624 381.852391 371.046624 388.193347 371.046624 394.534304 371.046624 400.875260 371.046624 407.216216 371.046624 413.557173 371.046624 419.898129 371.046624 426.239085 371.046624 432.580042 371.046624 438.920998 371.046624 445.261954 371.046624 451.602911 371.046624 457.943867 371.046624 464.284823 371.046624 470.625780 371.046624 476.966736 371.046624 483.307692 371.046624 489.648649 371.046624 495.989605 371.046624 502.330561 371.046624 508.671518 371.046624 515.012474 371.046624 521.353430 371.046624 527.694387 371.046624 534.035343 371.046624 540.376299 371.046624 546.717256 371.046624 553.058212 371.046624 559.399168 371.046624 565.740125 371.046624 572.081081 371.046624 578.422037 371.046624 584.762994 371.046624 591.103950 371.046624 597.444906 371.046624 603.785863 371.046624 610.126819 371.046624 616.467775 371.046624 622.808732 371.046624 629.149688 371.046624 635.490644 371.046624 641.831601 371.046624 648.172557 371.046624 654.513514 371.046624 660.854470 371.046624 667.195426 371.046624 673.536383 371.046624 679.877339 371.046624 686.218295 371.046624 692.559252 371.046624 698.900208 371.046624 705.241164 371.046624 711.582121 371.046624 717.923077 371.046624"/></g></g><g class="titles"><text class="title plot_title" x="400.0" y="26">Saeed Ajmal: Future and Past Averages in ODIs</text></g><g class="plot overlay" transform="translate(48, 46)"><g class="series serie-0 color-0"><g class="dots"><desc class="label">184 wickets in 112 innings (1000.0 overs)</desc><circle class="dot reactive tooltip-trigger" cx="14.076923076923077" cy="371.04662358387225" r="2.5"/><desc class="value">22.73</desc><desc class="x top">14.076923076923077</desc><desc class="y top">371.04662358387225</desc><desc class="x_label">2008</desc></g><g class="dots"><desc class="label">180 wickets in 108 innings (962.4 overs)</desc><circle class="dot reactive tooltip-trigger" cx="39.440748440748436" cy="372.02182642985343" r="2.5"/><desc class="value">22.46</desc><desc class="x top">39.440748440748436</desc><desc class="y top">372.02182642985343</desc><desc class="x_label">2009</desc></g><g class="dots"><desc class="label">157 wickets in 90 innings (810.3 overs)</desc><circle class="dot reactive tooltip-trigger" cx="153.57796257796258" cy="374.0444693696662" r="2.5"/><desc class="value">21.9</desc><desc class="x top">153.57796257796258</desc><desc class="y top">374.0444693696662</desc><desc class="x_label">2010</desc></g><g class="dots"><desc class="label">140 wickets in 77 innings (697.0 overs)</desc><circle class="dot reactive tooltip-trigger" cx="236.010395010395" cy="379.8956864455532" r="2.5"/><desc class="value">20.28</desc><desc class="x top">236.010395010395</desc><desc class="y top">379.8956864455532</desc><desc class="x_label">2011</desc></g><g class="dots"><desc class="label">106 wickets in 57 innings (530.2 overs)</desc><circle class="dot reactive tooltip-trigger" cx="362.8295218295218" cy="376.21158680517993" r="2.5"/><desc class="value">21.3</desc><desc class="x top">362.8295218295218</desc><desc class="y top">376.21158680517993</desc><desc class="x_label">2012</desc></g><g class="dots"><desc class="label">75 wickets in 41 innings (378.4 overs)</desc><circle class="dot reactive tooltip-trigger" cx="464.2848232848233" cy="375.9587564377033" r="2.5"/><desc class="value">21.37</desc><desc class="x left top">464.2848232848233</desc><desc class="y left top">375.9587564377033</desc><desc class="x_label">2013</desc></g><g class="dots"><desc class="label">13 wickets in 8 innings (72.1 overs)</desc><circle class="dot reactive tooltip-trigger" cx="673.5363825363825" cy="360.0665619106028" r="2.5"/><desc class="value">25.77</desc><desc class="x left top">673.5363825363825</desc><desc class="y left top">360.0665619106028</desc><desc class="x_label">2014</desc></g><g class="dots"><desc class="label">1 wickets in 2 innings (19.1 overs)</desc><circle class="dot reactive tooltip-trigger" cx="711.5821205821204" cy="8.88518148560621" r="2.5"/><desc class="value">123</desc><desc class="x left">711.5821205821204</desc><desc class="y left">8.88518148560621</desc><desc class="x_label">2015</desc></g></g><g class="series serie-1 color-1"><g class="dots"><desc class="label">0 wickets over 0 innings</desc><circle class="dot reactive tooltip-trigger" cx="14.076923076923077" cy="453.1442557659166" r="2.5"/><desc class="value">0</desc><desc class="x top">14.076923076923077</desc><desc class="y top">453.1442557659166</desc><desc class="x_label">2008</desc></g><g class="dots"><desc class="label">4 wickets in 4 innings (37.2 overs)</desc><circle class="dot reactive tooltip-trigger" cx="39.440748440748436" cy="327.6320376257476" r="2.5"/><desc class="value">34.75</desc><desc class="x top">39.440748440748436</desc><desc class="y top">327.6320376257476</desc><desc class="x_label">2009</desc></g><g class="dots"><desc class="label">27 wickets in 22 innings (189.3 overs)</desc><circle class="dot reactive tooltip-trigger" cx="153.57796257796258" cy="353.7458027236878" r="2.5"/><desc class="value">27.52</desc><desc class="x top">153.57796257796258</desc><desc class="y top">353.7458027236878</desc><desc class="x_label">2010</desc></g><g class="dots"><desc class="label">44 wickets in 35 innings (303.0 overs)</desc><circle class="dot reactive tooltip-trigger" cx="236.010395010395" cy="342.9102155461193" r="2.5"/><desc class="value">30.52</desc><desc class="x top">236.010395010395</desc><desc class="y top">342.9102155461193</desc><desc class="x_label">2011</desc></g><g class="dots"><desc class="label">78 wickets in 55 innings (469.4 overs)</desc><circle class="dot reactive tooltip-trigger" cx="362.8295218295218" cy="364.03961054237794" r="2.5"/><desc class="value">24.67</desc><desc class="x top">362.8295218295218</desc><desc class="y top">364.03961054237794</desc><desc class="x_label">2012</desc></g><g class="dots"><desc class="label">109 wickets in 71 innings (621.2 overs)</desc><circle class="dot reactive tooltip-trigger" cx="464.2848232848233" cy="367.687591558826" r="2.5"/><desc class="value">23.66</desc><desc class="x left top">464.2848232848233</desc><desc class="y left top">367.687591558826</desc><desc class="x_label">2013</desc></g><g class="dots"><desc class="label">171 wickets in 104 innings (927.5 overs)</desc><circle class="dot reactive tooltip-trigger" cx="673.5363825363825" cy="371.8773519341525" r="2.5"/><desc class="value">22.5</desc><desc class="x left top">673.5363825363825</desc><desc class="y left top">371.8773519341525</desc><desc class="x_label">2014</desc></g><g class="dots"><desc class="label">183 wickets in 110 innings (980.5 overs)</desc><circle class="dot reactive tooltip-trigger" cx="711.5821205821204" cy="373.0331478997598" r="2.5"/><desc class="value">22.18</desc><desc class="x left top">711.5821205821204</desc><desc class="y left top">373.0331478997598</desc><desc class="x_label">2015</desc></g></g><g class="series serie-2 color-2"/></g><g class="plot text-overlay" transform="translate(48, 46)"><g class="series serie-0 color-0"/><g class="series serie-1 color-1"/><g class="series serie-2 color-2"/></g><g class="plot tooltip-overlay" transform="translate(48, 46)"><g class="tooltip" style="opacity: 0" transform="translate(0 0)"><rect class="tooltip-box" height="0" rx="10" ry="10" width="0"/><g class="text"/></g></g><g class="legends" transform="translate(58, 545)"><g class="legend reactive activate-serie" id="activate-serie-0"><rect class="color-0 reactive" height="12" width="12" x="0.0" y="1.0"/><text x="17.0" y="11.2">Future Average</text></g><g class="legend reactive activate-serie" id="activate-serie-1"><rect class="color-1 reactive" height="12" width="12" x="366.0" y="1.0"/><text x="383.0" y="11.2">Past Average</text></g><g class="legend reactive activate-serie" id="activate-serie-2"><rect class="color-2 reactive" height="12" width="12" x="0.0" y="22.0"/><text x="17.0" y="32.2">Career Average</text></g></g></g></svg>