<?xml version='1.0' encoding='utf-8'?>
<svg xmlns:xlink="http://www.w3.org/1999/xlink" xmlns="http://www.w3.org/2000/svg" id="chart-548b9297-2be6-4841-a93f-194974c95549" class="pygal-chart" viewBox="0 0 800 600"><!--Generated with pygal 2.4.0 (lxml) ©Kozea 2012-2016 on 2019-08-02--><!--http://pygal.org--><!--http://github.com/Kozea/pygal--><defs><style type="text/css">#chart-548b9297-2be6-4841-a93f-194974c95549{-webkit-user-select:none;-webkit-font-smoothing:antialiased;font-family:Consolas,"Liberation Mono",Menlo,Courier,monospace}#chart-548b9297-2be6-4841-a93f-194974c95549 .title{font-family:Consolas,"Liberation Mono",Menlo,Courier,monospace;font-size:16px}#chart-548b9297-2be6-4841-a93f-194974c95549 .legends .legend text{font-family:Consolas,"Liberation Mono",Menlo,Courier,monospace;font-size:14px}#chart-548b9297-2be6-4841-a93f-194974c95549 .axis text{font-family:Consolas,"Liberation Mono",Menlo,Courier,monospace;font-size:10px}#chart-548b9297-2be6-4841-a93f-194974c95549 .axis text.major{font-family:Consolas,"Liberation Mono",Menlo,Courier,monospace;font-size:10px}#chart-548b9297-2be6-4841-a93f-194974c95549 .text-overlay text.value{font-family:Consolas,"Liberation Mono",Menlo,Courier,monospace;font-size:16px}#chart-548b9297-2be6-4841-a93f-194974c95549 .text-overlay text.label{font-family:Consolas,"Liberation Mono",Menlo,Courier,monospace;font-size:10px}#chart-548b9297-2be6-4841-a93f-194974c95549 .tooltip{font-family:Consolas,"Liberation Mono",Menlo,Courier,monospace;font-size:14px}#chart-548b9297-2be6-4841-a93f-194974c95549 text.no_data{font-family:Consolas,"Liberation Mono",Menlo,Courier,monospace;font-size:64px}
#chart-548b9297-2be6-4841-a93f-194974c95549{background-color:rgba(249,249,249,1)}#chart-548b9297-2be6-4841-a93f-194974c95549 path,#chart-548b9297-2be6-4841-a93f-194974c95549 line,#chart-548b9297-2be6-4841-a93f-194974c95549 rect,#chart-548b9297-2be6-4841-a93f-194974c95549 circle{-webkit-transition:150ms;-moz-transition:150ms;transition:150ms}#chart-548b9297-2be6-4841-a93f-194974c95549 .graph &gt; .background{fill:rgba(249,249,249,1)}#chart-548b9297-2be6-4841-a93f-194974c95549 .plot &gt; .background{fill:rgba(255,255,255,1)}#chart-548b9297-2be6-4841-a93f-194974c95549 .graph{fill:rgba(0,0,0,.87)}#chart-548b9297-2be6-4841-a93f-194974c95549 text.no_data{fill:rgba(0,0,0,1)}#chart-548b9297-2be6-4841-a93f-194974c95549 .title{fill:rgba(0,0,0,1)}#chart-548b9297-2be6-4841-a93f-194974c95549 .legends .legend text{fill:rgba(0,0,0,.87)}#chart-548b9297-2be6-4841-a93f-194974c95549 .legends .legend:hover text{fill:rgba(0,0,0,1)}#chart-548b9297-2be6-4841-a93f-194974c95549 .axis .line{stroke:rgba(0,0,0,1)}#chart-548b9297-2be6-4841-a93f-194974c95549 .axis .guide.line{stroke:rgba(0,0,0,.54)}#chart-548b9297-2be6-4841-a93f-194974c95549 .axis .major.line{stroke:rgba(0,0,0,.87)}#chart-548b9297-2be6-4841-a93f-194974c95549 .axis text.major{fill:rgba(0,0,0,1)}#chart-548b9297-2be6-4841-a93f-194974c95549 .axis.y .guides:hover .guide.line,#chart-548b9297-2be6-4841-a93f-194974c95549 .line-graph .axis.x .guides:hover .guide.line,#chart-548b9297-2be6-4841-a93f-194974c95549 .stackedline-graph .axis.x .guides:hover .guide.line,#chart-548b9297-2be6-4841-a93f-194974c95549 .xy-graph .axis.x .guides:hover .guide.line{stroke:rgba(0,0,0,1)}#chart-548b9297-2be6-4841-a93f-194974c95549 .axis .guides:hover text{fill:rgba(0,0,0,1)}#chart-548b9297-2be6-4841-a93f-194974c95549 .reactive{fill-opacity:.7;stroke-opacity:.8}#chart-548b9297-2be6-4841-a93f-194974c95549 .ci{stroke:rgba(0,0,0,.87)}#chart-548b9297-2be6-4841-a93f-194974c95549 .reactive.active,#chart-548b9297-2be6-4841-a93f-194974c95549 .active .reactive{fill-opacity:.8;stroke-opacity:.9;stroke-width:4}#chart-548b9297-2be6-4841-a93f-194974c95549 .ci .reactive.active{stroke-width:1.5}#chart-548b9297-2be6-4841-a93f-194974c95549 .series text{fill:rgba(0,0,0,1)}#chart-548b9297-2be6-4841-a93f-194974c95549 .tooltip rect{fill:rgba(255,255,255,1);stroke:rgba(0,0,0,1);-webkit-transition:opacity 150ms;-moz-transition:opacity 150ms;transition:opacity 150ms}#chart-548b9297-2be6-4841-a93f-194974c95549 .tooltip .label{fill:rgba(0,0,0,.87)}#chart-548b9297-2be6-4841-a93f-194974c95549 .tooltip .label{fill:rgba(0,0,0,.87)}#chart-548b9297-2be6-4841-a93f-194974c95549 .tooltip .legend{font-size:.8em;fill:rgba(0,0,0,.54)}#chart-548b9297-2be6-4841-a93f-194974c95549 .tooltip .x_label{font-size:.6em;fill:rgba(0,0,0,1)}#chart-548b9297-2be6-4841-a93f-194974c95549 .tooltip .xlink{font-size:.5em;text-decoration:underline}#chart-548b9297-2be6-4841-a93f-194974c95549 .tooltip .value{font-size:1.5em}#chart-548b9297-2be6-4841-a93f-194974c95549 .bound{font-size:.5em}#chart-548b9297-2be6-4841-a93f-194974c95549 .max-value{font-size:.75em;fill:rgba(0,0,0,.54)}#chart-548b9297-2be6-4841-a93f-194974c95549 .map-element{fill:rgba(255,255,255,1);stroke:rgba(0,0,0,.54) !important}#chart-548b9297-2be6-4841-a93f-194974c95549 .map-element .reactive{fill-opacity:inherit;stroke-opacity:inherit}#chart-548b9297-2be6-4841-a93f-194974c95549 .color-0,#chart-548b9297-2be6-4841-a93f-194974c95549 .color-0 a:visited{stroke:#F44336;fill:#F44336}#chart-548b9297-2be6-4841-a93f-194974c95549 .color-1,#chart-548b9297-2be6-4841-a93f-194974c95549 .color-1 a:visited{stroke:#3F51B5;fill:#3F51B5}#chart-548b9297-2be6-4841-a93f-194974c95549 .color-2,#chart-548b9297-2be6-4841-a93f-194974c95549 .color-2 a:visited{stroke:#009688;fill:#009688}#chart-548b9297-2be6-4841-a93f-194974c95549 .text-overlay .color-0 text{fill:black}#chart-548b9297-2be6-4841-a93f-194974c95549 .text-overlay .color-1 text{fill:black}#chart-548b9297-2be6-4841-a93f-194974c95549 .text-overlay .color-2 text{fill:black}
#chart-548b9297-2be6-4841-a93f-194974c95549 text.no_data{text-anchor:middle}#chart-548b9297-2be6-4841-a93f-194974c95549 .guide.line{fill:none}#chart-548b9297-2be6-4841-a93f-194974c95549 .centered{text-anchor:middle}#chart-548b9297-2be6-4841-a93f-194974c95549 .title{text-anchor:middle}#chart-548b9297-2be6-4841-a93f-194974c95549 .legends .legend text{fill-opacity:1}#chart-548b9297-2be6-4841-a93f-194974c95549 .axis.x text{text-anchor:middle}#chart-548b9297-2be6-4841-a93f-194974c95549 .axis.x:not(.web) text[transform]{text-anchor:start}#chart-548b9297-2be6-4841-a93f-194974c95549 .axis.x:not(.web) text[transform].backwards{text-anchor:end}#chart-548b9297-2be6-4841-a93f-194974c95549 .axis.y text{text-anchor:end}#chart-548b9297-2be6-4841-a93f-194974c95549 .axis.y text[transform].backwards{text-anchor:start}#chart-548b9297-2be6-4841-a93f-194974c95549 .axis.y2 text{text-anchor:start}#chart-548b9297-2be6-4841-a93f-194974c95549 .axis.y2 text[transform].backwards{text-anchor:end}#chart-548b9297-2be6-4841-a93f-194974c95549 .axis .guide.line{stroke-dasharray:4,4}#chart-548b9297-2be6-4841-a93f-194974c95549 .axis .major.guide.line{stroke-dasharray:6,6}#chart-548b9297-2be6-4841-a93f-194974c95549 .horizontal .axis.y .guide.line,#chart-548b9297-2be6-4841-a93f-194974c95549 .horizontal .axis.y2 .guide.line,#chart-548b9297-2be6-4841-a93f-194974c95549 .vertical .axis.x .guide.line{opacity:0}#chart-548b9297-2be6-4841-a93f-194974c95549 .horizontal .axis.always_show .guide.line,#chart-548b9297-2be6-4841-a93f-194974c95549 .vertical .axis.always_show .guide.line{opacity:1 !important}#chart-548b9297-2be6-4841-a93f-194974c95549 .axis.y .guides:hover .guide.line,#chart-548b9297-2be6-4841-a93f-194974c95549 .axis.y2 .guides:hover .guide.line,#chart-548b9297-2be6-4841-a93f-194974c95549 .axis.x .guides:hover .guide.line{opacity:1}#chart-548b9297-2be6-4841-a93f-194974c95549 .axis .guides:hover text{opacity:1}#chart-548b9297-2be6-4841-a93f-194974c95549 .nofill{fill:none}#chart-548b9297-2be6-4841-a93f-194974c95549 .subtle-fill{fill-opacity:.2}#chart-548b9297-2be6-4841-a93f-194974c95549 .dot{stroke-width:1px;fill-opacity:1}#chart-548b9297-2be6-4841-a93f-194974c95549 .dot.active{stroke-width:5px}#chart-548b9297-2be6-4841-a93f-194974c95549 .dot.negative{fill:transparent}#chart-548b9297-2be6-4841-a93f-194974c95549 text,#chart-548b9297-2be6-4841-a93f-194974c95549 tspan{stroke:none !important}#chart-548b9297-2be6-4841-a93f-194974c95549 .series text.active{opacity:1}#chart-548b9297-2be6-4841-a93f-194974c95549 .tooltip rect{fill-opacity:.95;stroke-width:.5}#chart-548b9297-2be6-4841-a93f-194974c95549 .tooltip text{fill-opacity:1}#chart-548b9297-2be6-4841-a93f-194974c95549 .showable{visibility:hidden}#chart-548b9297-2be6-4841-a93f-194974c95549 .showable.shown{visibility:visible}#chart-548b9297-2be6-4841-a93f-194974c95549 .gauge-background{fill:rgba(229,229,229,1);stroke:none}#chart-548b9297-2be6-4841-a93f-194974c95549 .bg-lines{stroke:rgba(249,249,249,1);stroke-width:2px}</style><script type="text/javascript">window.pygal = window.pygal || {};window.pygal.config = window.pygal.config || {};window.pygal.config['548b9297-2be6-4841-a93f-194974c95549'] = {"allow_interruptions": false, "box_mode": "extremes", "classes": ["pygal-chart"], "css": ["file://style.css", "file://graph.css"], "defs": [], "disable_xml_declaration": false, "dots_size": 2.5, "dynamic_print_values": false, "explicit_size": false, "fill": false, "force_uri_protocol": "https", "formatter": null, "half_pie": false, "height": 600, "include_x_axis": false, "inner_radius": 0, "interpolate": null, "interpolation_parameters": {}, "interpolation_precision": 250, "inverse_y_axis": false, "js": ["//kozea.github.io/pygal.js/2.0.x/pygal-tooltips.min.js"], "legend_at_bottom": true, "legend_at_bottom_columns": null, "legend_box_size": 12, "logarithmic": false, "margin": 20, "margin_bottom": null, "margin_left": null, "margin_right": null, "margin_top": null, "max_scale": 16, "min_scale": 4, "missing_value_fill_truncation": "x", "no_data_text": "No data", "no_prefix": false, "order_min": null, "pretty_print": false, "print_labels": false, "print_values": false, "print_values_position": "center", "print_zeroes": true, "range": null, "rounded_bars": null, "secondary_range": null, "show_dots": true, "show_legend": true, "show_minor_x_labels": false, "show_minor_y_labels": true, "show_only_major_dots": false, "show_x_guides": false, "show_x_labels": true, "show_y_guides": true, "show_y_labels": true, "spacing": 10, "stack_from_top": false, "strict": false, "stroke": true, "stroke_style": null, "style": {"background": "rgba(249, 249, 249, 1)", "ci_colors": [], "colors": ["#F44336", "#3F51B5", "#009688", "#FFC107", "#FF5722", "#9C27B0", "#03A9F4", "#8BC34A", "#FF9800", "#E91E63", "#2196F3", "#4CAF50", "#FFEB3B", "#673AB7", "#00BCD4", "#CDDC39", "#9E9E9E", "#607D8B"], "font_family": "Consolas, \"Liberation Mono\", Menlo, Courier, monospace", "foreground": "rgba(0, 0, 0, .87)", "foreground_strong": "rgba(0, 0, 0, 1)", "foreground_subtle": "rgba(0, 0, 0, .54)", "guide_stroke_dasharray": "4,4", "label_font_family": "Consolas, \"Liberation Mono\", Menlo, Courier, monospace", "label_font_size": 10, "legend_font_family": "Consolas, \"Liberation Mono\", Menlo, Courier, monospace", "legend_font_size": 14, "major_guide_stroke_dasharray": "6,6", "major_label_font_family": "Consolas, \"Liberation Mono\", Menlo, Courier, monospace", "major_label_font_size": 10, "no_data_font_family": "Consolas, \"Liberation Mono\", Menlo, Courier, monospace", "no_data_font_size": 64, "opacity": ".7", "opacity_hover": ".8", "plot_background": "rgba(255, 255, 255, 1)", "stroke_opacity": ".8", "stroke_opacity_hover": ".9", "title_font_family": "Consolas, \"Liberation Mono\", Menlo, Courier, monospace", "title_font_size": 16, "tooltip_font_family": "Consolas, \"Liberation Mono\", Menlo, Courier, monospace", "tooltip_font_size": 14, "transition": "150ms", "value_background": "rgba(229, 229, 229, 1)", "value_colors": [], "value_font_family": "Consolas, \"Liberation Mono\", Menlo, Courier, monospace", "value_font_size": 16, "value_label_font_family": "Consolas, \"Liberation Mono\", Menlo, Courier, monospace", "value_label_font_size": 10}, "title": "Saleem Malik: Future and Past Averages in ODIs", "tooltip_border_radius": 10, "tooltip_fancy_mode": true, "truncate_label": null, "truncate_legend": null, "width": 800, "x_label_rotation": 45, "x_labels": ["1985", "0", "0", "0", "1986", "1987", "0", "0", "0", "0", "0", "0", "1988", "0", "0", "0", "1989", "0", "0", "1990", "0", "0", "1991", "0", "1992", "0", "0", "1993", "0", "0", "0", "0", "0", "0", "0", "0", "0", "0", "0", "1994", "0", "0", "0", "0", "0", "0", "0", "0", "0", "0", "0", "0", "0", "0", "0", "0", "0", "0", "0", "0", "0", "0", "0", "0", "0", "0", "1995", "0", "0", "0", "0", "0", "0", "0", "0", "1996", "0", "0", "0", "0", "0", "0", "0", "0", "0", "0", "0", "0", "0", "0", "0", "0", "0", "0", "0", "0", "0", "0", "0", "0", "0", "1997", "0", "0", "0", "0", "0", "0", "0", "0", "0", "0", "0", "1998", "0", "0", "0", "0", "0", "1999"], "x_labels_major": ["1985", "1986", "1987", "1988", "1989", "1990", "1991", "1992", "1993", "1994", "1995", "1996", "1997", "1998", "1999"], "x_labels_major_count": null, "x_labels_major_every": null, "x_title": null, "xrange": null, "y_label_rotation": 0, "y_labels": null, "y_labels_major": null, "y_labels_major_count": null, "y_labels_major_every": null, "y_title": null, "zero": 0, "legends": ["Future Average", "Past Average", "Career Average"]}</script><script type="text/javascript" xlink:href="https://kozea.github.io/pygal.js/2.0.x/pygal-tooltips.min.js"/></defs><title>Saleem Malik: Future and Past Averages in ODIs</title><g class="graph line-graph vertical"><rect class="background" height="600" width="800" x="0" y="0"/><g class="plot" transform="translate(48, 46)"><rect class="background" height="462.02943725152284" width="732.0" x="0" y="0"/><g class="axis y always_show"><g class="guides"><path class="axis major line" d="M0.000000 453.144256 h732.000000"/><text class="major" x="-5" y="456.6442557659166">0</text><title>0</title></g><g class="guides"><path class="guide line" d="M0.000000 416.276283 h732.000000"/><text class="" x="-5" y="419.77628279659626">20</text><title>20</title></g><g class="guides"><path class="guide line" d="M0.000000 379.408310 h732.000000"/><text class="" x="-5" y="382.9083098272759">40</text><title>40</title></g><g class="guides"><path class="guide line" d="M0.000000 342.540337 h732.000000"/><text class="" x="-5" y="346.04033685795554">60</text><title>60</title></g><g class="guides"><path class="guide line" d="M0.000000 305.672364 h732.000000"/><text class="" x="-5" y="309.1723638886351">80</text><title>80</title></g><g class="guides"><path class="major guide line" d="M0.000000 268.804391 h732.000000"/><text class="major" x="-5" y="272.3043909193148">100</text><title>100</title></g><g class="guides"><path class="guide line" d="M0.000000 231.936418 h732.000000"/><text class="" x="-5" y="235.43641794999442">120</text><title>120</title></g><g class="guides"><path class="guide line" d="M0.000000 195.068445 h732.000000"/><text class="" x="-5" y="198.56844498067403">140</text><title>140</title></g><g class="guides"><path class="guide line" d="M0.000000 158.200472 h732.000000"/><text class="" x="-5" y="161.70047201135372">160</text><title>160</title></g><g class="guides"><path class="guide line" d="M0.000000 121.332499 h732.000000"/><text class="" x="-5" y="124.83249904203336">180</text><title>180</title></g><g class="guides"><path class="major guide line" d="M0.000000 84.464526 h732.000000"/><text class="major" x="-5" y="87.96452607271294">200</text><title>200</title></g><g class="guides"><path class="guide line" d="M0.000000 47.596553 h732.000000"/><text class="" x="-5" y="51.09655310339258">220</text><title>220</title></g><g class="guides"><path class="guide line" d="M0.000000 10.728580 h732.000000"/><text class="" x="-5" y="14.228580134072217">240</text><title>240</title></g></g><g class="axis x"><g class="guides"><path class="major line" d="M14.076923 0.000000 v462.029437"/><text class="major" x="14.076923076923077" y="477.02943725152284" transform="rotate(45 14.076923 477.029437)">1985</text></g><g class="guides"><path class="major guide line" d="M37.735617 0.000000 v462.029437"/><text class="major" x="37.735617323852615" y="477.02943725152284" transform="rotate(45 37.735617 477.029437)">1986</text></g><g class="guides"><path class="major guide line" d="M43.650291 0.000000 v462.029437"/><text class="major" x="43.65029088558501" y="477.02943725152284" transform="rotate(45 43.650291 477.029437)">1987</text></g><g class="guides"><path class="major guide line" d="M85.053006 0.000000 v462.029437"/><text class="major" x="85.0530058177117" y="477.02943725152284" transform="rotate(45 85.053006 477.029437)">1988</text></g><g class="guides"><path class="major guide line" d="M108.711700 0.000000 v462.029437"/><text class="major" x="108.71170006464124" y="477.02943725152284" transform="rotate(45 108.711700 477.029437)">1989</text></g><g class="guides"><path class="major guide line" d="M126.455721 0.000000 v462.029437"/><text class="major" x="126.45572074983838" y="477.02943725152284" transform="rotate(45 126.455721 477.029437)">1990</text></g><g class="guides"><path class="major guide line" d="M144.199741 0.000000 v462.029437"/><text class="major" x="144.19974143503555" y="477.02943725152284" transform="rotate(45 144.199741 477.029437)">1991</text></g><g class="guides"><path class="major guide line" d="M156.029089 0.000000 v462.029437"/><text class="major" x="156.02908855850032" y="477.02943725152284" transform="rotate(45 156.029089 477.029437)">1992</text></g><g class="guides"><path class="major guide line" d="M173.773109 0.000000 v462.029437"/><text class="major" x="173.77310924369746" y="477.02943725152284" transform="rotate(45 173.773109 477.029437)">1993</text></g><g class="guides"><path class="major guide line" d="M244.749192 0.000000 v462.029437"/><text class="major" x="244.7491919844861" y="477.02943725152284" transform="rotate(45 244.749192 477.029437)">1994</text></g><g class="guides"><path class="major guide line" d="M404.445378 0.000000 v462.029437"/><text class="major" x="404.4453781512605" y="477.02943725152284" transform="rotate(45 404.445378 477.029437)">1995</text></g><g class="guides"><path class="major guide line" d="M457.677440 0.000000 v462.029437"/><text class="major" x="457.67744020685194" y="477.02943725152284" transform="rotate(45 457.677440 477.029437)">1996</text></g><g class="guides"><path class="major guide line" d="M611.458953 0.000000 v462.029437"/><text class="major" x="611.4589528118939" y="477.02943725152284" transform="rotate(45 611.458953 477.029437)">1997</text></g><g class="guides"><path class="major guide line" d="M682.435036 0.000000 v462.029437"/><text class="major" x="682.4350355526826" y="477.02943725152284" transform="rotate(45 682.435036 477.029437)">1998</text></g><g class="guides"><path class="major guide line" d="M717.923077 0.000000 v462.029437"/><text class="major" x="717.9230769230769" y="477.02943725152284" transform="rotate(45 717.923077 477.029437)">1999</text></g></g><g class="series serie-0 color-0"><path class="line reactive nofill" d="M14.076923 391.851251 L19.991597 391.869685 25.906270 392.201496 31.820944 392.514874 37.735617 392.975724 43.650291 393.381272 49.564964 393.989593 55.479638 394.247669 61.394312 394.966594 67.308985 395.574916 73.223659 396.201672 79.138332 396.017332 85.053006 396.699389 90.967679 396.920597 96.882353 396.754691 102.797027 396.865295 108.711700 396.957465 114.626374 397.399881 120.541047 397.233975 126.455721 396.754691 132.370394 393.971159 138.285068 392.570176 144.199741 392.717648 150.114415 392.312100 156.029089 392.514874 161.943762 392.957290 167.858436 392.994158 173.773109 393.104762 179.687783 393.307536 185.602456 393.086328 191.517130 393.289102 197.431803 393.491876 203.346477 393.436574 209.261151 393.731517 215.175824 394.653217 221.090498 394.339839 227.005171 394.745387 232.919845 394.395141 238.834518 395.427444 244.749192 393.344404 250.663866 390.929551 256.578539 391.040155 262.493213 392.164628 268.407886 392.072459 274.322560 392.441138 280.237233 391.906553 286.151907 389.970984 292.066580 389.491700 297.981254 388.625303 303.895928 387.648302 309.810601 388.625303 315.725275 387.648302 321.639948 388.735907 327.554622 388.975549 333.469295 388.348793 339.383969 388.901813 345.298643 389.712908 351.213316 390.265928 357.127990 391.224495 363.042663 391.242929 368.957337 391.390401 374.872010 388.256623 380.786684 388.809643 386.701357 389.583870 392.616031 387.851076 398.530705 388.477831 404.445378 389.934116 410.360052 391.003287 416.274725 390.524004 422.189399 391.113891 428.104072 390.524004 434.018746 389.252059 439.933420 387.648302 445.848093 388.348793 451.762767 389.270493 457.677440 390.745212 463.592114 391.224495 469.506787 391.501005 475.421461 391.132325 481.336134 389.583870 487.250808 391.058589 493.165482 391.077023 499.080155 392.127761 504.994829 392.312100 510.909502 394.468877 516.824176 395.574916 522.738849 395.814558 528.653523 395.169368 534.568197 395.740822 540.482870 391.906553 546.397544 392.662346 552.312217 394.432009 558.226891 391.501005 564.141564 395.777690 570.056238 397.621088 575.970911 398.155674 581.885585 399.151109 587.800259 399.132675 593.714932 396.607219 599.629606 394.800689 605.544279 396.828427 611.458953 394.634783 617.373626 393.547177 623.288300 390.929551 629.202973 389.860380 635.117647 395.390576 641.032321 393.012592 646.946994 395.077198 652.861668 400.459922 658.776341 401.160414 664.691015 406.506270 670.605688 407.980989 676.520362 408.294367 682.435036 410.948861 688.349709 390.468702 694.264383 388.625303 700.179056 373.269792 706.093730 303.828965 712.008403 322.262952 717.923077 421.806479"/></g><g class="series serie-1 color-1"><path class="line reactive nofill" d="M14.076923 453.144256 L19.991597 390.468702 25.906270 360.974323 31.820944 333.323344 37.735617 292.768573 43.650291 257.743999 49.564964 204.285438 55.479638 182.164654 61.394312 117.645702 67.308985 64.187141 73.223659 8.885181 79.138332 210.737333 85.053006 181.242955 90.967679 246.683607 96.882353 287.699227 102.797027 285.394979 108.711700 283.551580 114.626374 273.873737 120.541047 301.616887 126.455721 324.106350 132.370394 376.901288 138.285068 387.629868 144.199741 386.781904 150.114415 389.417964 156.029089 388.367227 161.943762 385.989243 167.858436 385.731167 173.773109 385.196582 179.687783 384.698864 185.602456 386.210451 191.517130 385.288752 197.431803 384.367052 203.346477 385.159714 209.261151 384.422354 215.175824 380.846161 221.090498 383.279447 227.005171 382.486786 232.919845 384.108976 238.834518 380.993633 244.749192 388.035416 250.663866 393.897423 256.578539 393.620913 262.493213 391.187627 268.407886 391.427269 274.322560 390.653042 280.237233 391.777515 286.151907 394.911292 292.066580 395.335274 297.981254 396.201672 303.895928 397.012767 309.810601 395.814558 315.725275 396.570351 321.639948 395.335274 327.554622 395.077198 333.469295 395.611784 339.383969 395.021896 345.298643 394.155499 351.213316 393.547177 357.127990 392.533308 363.042663 392.478006 368.957337 392.312100 374.872010 394.929726 380.786684 394.339839 386.701357 393.713083 392.616031 394.837557 398.530705 394.376707 404.445378 393.289102 410.360052 392.496440 416.274725 392.809818 422.189399 392.385836 428.104072 392.772950 434.018746 393.547177 439.933420 394.450443 445.848093 394.026461 451.762767 393.455008 457.677440 392.551742 463.592114 392.238364 469.506787 392.072459 475.421461 392.275232 481.336134 393.067894 487.250808 392.275232 493.165482 392.256798 499.080155 391.722213 504.994829 391.630043 510.909502 390.524004 516.824176 389.970984 522.738849 389.841946 528.653523 390.247494 534.568197 389.970984 540.482870 391.832817 546.397544 391.501005 552.312217 390.745212 558.226891 391.998723 564.141564 390.321230 570.056238 389.602304 575.970911 389.528568 581.885585 389.159889 587.800259 389.325795 593.714932 390.394966 599.629606 391.003287 605.544279 390.413400 611.458953 391.095457 617.373626 391.427269 623.288300 392.054025 629.202973 392.256798 635.117647 391.132325 641.032321 391.648477 646.946994 391.353533 652.861668 390.524004 658.776341 390.671476 664.691015 390.007852 670.605688 389.823512 676.520362 390.007852 682.435036 389.712908 688.349709 391.943421 694.264383 392.017157 700.179056 392.496440 706.093730 392.865120 712.008403 392.643912 717.923077 392.201496"/></g><g class="series serie-2 color-2"><path class="line reactive nofill" d="M14.076923 391.851251 L19.991597 391.851251 25.906270 391.851251 31.820944 391.851251 37.735617 391.851251 43.650291 391.851251 49.564964 391.851251 55.479638 391.851251 61.394312 391.851251 67.308985 391.851251 73.223659 391.851251 79.138332 391.851251 85.053006 391.851251 90.967679 391.851251 96.882353 391.851251 102.797027 391.851251 108.711700 391.851251 114.626374 391.851251 120.541047 391.851251 126.455721 391.851251 132.370394 391.851251 138.285068 391.851251 144.199741 391.851251 150.114415 391.851251 156.029089 391.851251 161.943762 391.851251 167.858436 391.851251 173.773109 391.851251 179.687783 391.851251 185.602456 391.851251 191.517130 391.851251 197.431803 391.851251 203.346477 391.851251 209.261151 391.851251 215.175824 391.851251 221.090498 391.851251 227.005171 391.851251 232.919845 391.851251 238.834518 391.851251 244.749192 391.851251 250.663866 391.851251 256.578539 391.851251 262.493213 391.851251 268.407886 391.851251 274.322560 391.851251 280.237233 391.851251 286.151907 391.851251 292.066580 391.851251 297.981254 391.851251 303.895928 391.851251 309.810601 391.851251 315.725275 391.851251 321.639948 391.851251 327.554622 391.851251 333.469295 391.851251 339.383969 391.851251 345.298643 391.851251 351.213316 391.851251 357.127990 391.851251 363.042663 391.851251 368.957337 391.851251 374.872010 391.851251 380.786684 391.851251 386.701357 391.851251 392.616031 391.851251 398.530705 391.851251 404.445378 391.851251 410.360052 391.851251 416.274725 391.851251 422.189399 391.851251 428.104072 391.851251 434.018746 391.851251 439.933420 391.851251 445.848093 391.851251 451.762767 391.851251 457.677440 391.851251 463.592114 391.851251 469.506787 391.851251 475.421461 391.851251 481.336134 391.851251 487.250808 391.851251 493.165482 391.851251 499.080155 391.851251 504.994829 391.851251 510.909502 391.851251 516.824176 391.851251 522.738849 391.851251 528.653523 391.851251 534.568197 391.851251 540.482870 391.851251 546.397544 391.851251 552.312217 391.851251 558.226891 391.851251 564.141564 391.851251 570.056238 391.851251 575.970911 391.851251 581.885585 391.851251 587.800259 391.851251 593.714932 391.851251 599.629606 391.851251 605.544279 391.851251 611.458953 391.851251 617.373626 391.851251 623.288300 391.851251 629.202973 391.851251 635.117647 391.851251 641.032321 391.851251 646.946994 391.851251 652.861668 391.851251 658.776341 391.851251 664.691015 391.851251 670.605688 391.851251 676.520362 391.851251 682.435036 391.851251 688.349709 391.851251 694.264383 391.851251 700.179056 391.851251 706.093730 391.851251 712.008403 391.851251 717.923077 391.851251"/></g></g><g class="titles"><text class="title plot_title" x="400.0" y="26">Saleem Malik: Future and Past Averages in ODIs</text></g><g class="plot overlay" transform="translate(48, 46)"><g class="series serie-0 color-0"><g class="dots"><desc class="label">89 wickets in 120 innings (584.1 overs)</desc><circle class="dot reactive tooltip-trigger" cx="14.076923076923077" cy="391.8512507044215" r="2.5"/><desc class="value">33.25</desc><desc class="x top">14.076923076923077</desc><desc class="y top">391.8512507044215</desc><desc class="x_label">1985</desc></g><g class="dots"><desc class="label">88 wickets in 116 innings (567.1 overs)</desc><circle class="dot reactive tooltip-trigger" cx="37.735617323852615" cy="392.97572387998576" r="2.5"/><desc class="value">32.64</desc><desc class="x top">37.735617323852615</desc><desc class="y top">392.97572387998576</desc><desc class="x_label">1986</desc></g><g class="dots"><desc class="label">88 wickets in 115 innings (564.1 overs)</desc><circle class="dot reactive tooltip-trigger" cx="43.65029088558501" cy="393.3812715826483" r="2.5"/><desc class="value">32.42</desc><desc class="x top">43.65029088558501</desc><desc class="y top">393.3812715826483</desc><desc class="x_label">1987</desc></g><g class="dots"><desc class="label">87 wickets in 108 innings (528.1 overs)</desc><circle class="dot reactive tooltip-trigger" cx="85.0530058177117" cy="396.69938914988717" r="2.5"/><desc class="value">30.62</desc><desc class="x top">85.0530058177117</desc><desc class="y top">396.69938914988717</desc><desc class="x_label">1988</desc></g><g class="dots"><desc class="label">85 wickets in 104 innings (515.5 overs)</desc><circle class="dot reactive tooltip-trigger" cx="108.71170006464124" cy="396.9574649606724" r="2.5"/><desc class="value">30.48</desc><desc class="x top">108.71170006464124</desc><desc class="y top">396.9574649606724</desc><desc class="x_label">1989</desc></g><g class="dots"><desc class="label">83 wickets in 101 innings (506.5 overs)</desc><circle class="dot reactive tooltip-trigger" cx="126.45572074983838" cy="396.75469110934114" r="2.5"/><desc class="value">30.59</desc><desc class="x top">126.45572074983838</desc><desc class="y top">396.75469110934114</desc><desc class="x_label">1990</desc></g><g class="dots"><desc class="label">76 wickets in 98 innings (495.5 overs)</desc><circle class="dot reactive tooltip-trigger" cx="144.19974143503555" cy="392.71764806920055" r="2.5"/><desc class="value">32.78</desc><desc class="x top">144.19974143503555</desc><desc class="y top">392.71764806920055</desc><desc class="x_label">1991</desc></g><g class="dots"><desc class="label">75 wickets in 96 innings (490.5 overs)</desc><circle class="dot reactive tooltip-trigger" cx="156.02908855850032" cy="392.5148742178693" r="2.5"/><desc class="value">32.89</desc><desc class="x top">156.02908855850032</desc><desc class="y top">392.5148742178693</desc><desc class="x_label">1992</desc></g><g class="dots"><desc class="label">75 wickets in 93 innings (485.1 overs)</desc><circle class="dot reactive tooltip-trigger" cx="173.77310924369746" cy="393.1047617853784" r="2.5"/><desc class="value">32.57</desc><desc class="x top">173.77310924369746</desc><desc class="y top">393.1047617853784</desc><desc class="x_label">1993</desc></g><g class="dots"><desc class="label">64 wickets in 81 innings (412.1 overs)</desc><circle class="dot reactive tooltip-trigger" cx="244.7491919844861" cy="393.344403609679" r="2.5"/><desc class="value">32.44</desc><desc class="x top">244.7491919844861</desc><desc class="y top">393.344403609679</desc><desc class="x_label">1994</desc></g><g class="dots"><desc class="label">38 wickets in 54 innings (246.1 overs)</desc><circle class="dot reactive tooltip-trigger" cx="404.4453781512605" cy="389.9341161100169" r="2.5"/><desc class="value">34.29</desc><desc class="x left top">404.4453781512605</desc><desc class="y left top">389.9341161100169</desc><desc class="x_label">1995</desc></g><g class="dots"><desc class="label">34 wickets in 45 innings (214.5 overs)</desc><circle class="dot reactive tooltip-trigger" cx="457.67744020685194" cy="390.7452115153419" r="2.5"/><desc class="value">33.85</desc><desc class="x left top">457.67744020685194</desc><desc class="y left top">390.7452115153419</desc><desc class="x_label">1996</desc></g><g class="dots"><desc class="label">19 wickets in 19 innings (107.4 overs)</desc><circle class="dot reactive tooltip-trigger" cx="611.4589528118939" cy="394.63478266360516" r="2.5"/><desc class="value">31.74</desc><desc class="x left top">611.4589528118939</desc><desc class="y left top">394.63478266360516</desc><desc class="x_label">1997</desc></g><g class="dots"><desc class="label">9 wickets in 7 innings (33.4 overs)</desc><circle class="dot reactive tooltip-trigger" cx="682.4350355526826" cy="410.9488607025295" r="2.5"/><desc class="value">22.89</desc><desc class="x left top">682.4350355526826</desc><desc class="y left top">410.9488607025295</desc><desc class="x_label">1998</desc></g><g class="dots"><desc class="label">0 wickets in 1 innings (2.0 overs)</desc><circle class="dot reactive tooltip-trigger" cx="717.9230769230769" cy="421.8064787419943" r="2.5"/><desc class="value">17</desc><desc class="x left top">717.9230769230769</desc><desc class="y left top">421.8064787419943</desc><desc class="x_label">1999</desc></g></g><g class="series serie-1 color-1"><g class="dots"><desc class="label">0 wickets over 0 innings</desc><circle class="dot reactive tooltip-trigger" cx="14.076923076923077" cy="453.1442557659166" r="2.5"/><desc class="value">0</desc><desc class="x top">14.076923076923077</desc><desc class="y top">453.1442557659166</desc><desc class="x_label">1985</desc></g><g class="dots"><desc class="label">1 wickets in 4 innings (17.0 overs)</desc><circle class="dot reactive tooltip-trigger" cx="37.735617323852615" cy="292.768573349373" r="2.5"/><desc class="value">87</desc><desc class="x top">37.735617323852615</desc><desc class="y top">292.768573349373</desc><desc class="x_label">1986</desc></g><g class="dots"><desc class="label">1 wickets in 5 innings (20.0 overs)</desc><circle class="dot reactive tooltip-trigger" cx="43.65029088558501" cy="257.7439990285187" r="2.5"/><desc class="value">106</desc><desc class="x top">43.65029088558501</desc><desc class="y top">257.7439990285187</desc><desc class="x_label">1987</desc></g><g class="dots"><desc class="label">2 wickets in 12 innings (56.0 overs)</desc><circle class="dot reactive tooltip-trigger" cx="85.0530058177117" cy="181.24295511717895" r="2.5"/><desc class="value">147.5</desc><desc class="x ">85.0530058177117</desc><desc class="y ">181.24295511717895</desc><desc class="x_label">1988</desc></g><g class="dots"><desc class="label">4 wickets in 16 innings (68.2 overs)</desc><circle class="dot reactive tooltip-trigger" cx="108.71170006464124" cy="283.5515801070429" r="2.5"/><desc class="value">92</desc><desc class="x top">108.71170006464124</desc><desc class="y top">283.5515801070429</desc><desc class="x_label">1989</desc></g><g class="dots"><desc class="label">6 wickets in 19 innings (77.2 overs)</desc><circle class="dot reactive tooltip-trigger" cx="126.45572074983838" cy="324.1063503732953" r="2.5"/><desc class="value">70</desc><desc class="x top">126.45572074983838</desc><desc class="y top">324.1063503732953</desc><desc class="x_label">1990</desc></g><g class="dots"><desc class="label">13 wickets in 22 innings (88.2 overs)</desc><circle class="dot reactive tooltip-trigger" cx="144.19974143503555" cy="386.78190442114" r="2.5"/><desc class="value">36</desc><desc class="x top">144.19974143503555</desc><desc class="y top">386.78190442114</desc><desc class="x_label">1991</desc></g><g class="dots"><desc class="label">14 wickets in 24 innings (93.2 overs)</desc><circle class="dot reactive tooltip-trigger" cx="156.02908855850032" cy="388.3672272588207" r="2.5"/><desc class="value">35.14</desc><desc class="x top">156.02908855850032</desc><desc class="y top">388.3672272588207</desc><desc class="x_label">1992</desc></g><g class="dots"><desc class="label">14 wickets in 27 innings (99.0 overs)</desc><circle class="dot reactive tooltip-trigger" cx="173.77310924369746" cy="385.1965815834592" r="2.5"/><desc class="value">36.86</desc><desc class="x top">173.77310924369746</desc><desc class="y top">385.1965815834592</desc><desc class="x_label">1993</desc></g><g class="dots"><desc class="label">25 wickets in 39 innings (172.0 overs)</desc><circle class="dot reactive tooltip-trigger" cx="244.7491919844861" cy="388.03541550209684" r="2.5"/><desc class="value">35.32</desc><desc class="x top">244.7491919844861</desc><desc class="y top">388.03541550209684</desc><desc class="x_label">1994</desc></g><g class="dots"><desc class="label">51 wickets in 66 innings (338.0 overs)</desc><circle class="dot reactive tooltip-trigger" cx="404.4453781512605" cy="393.289101650225" r="2.5"/><desc class="value">32.47</desc><desc class="x left top">404.4453781512605</desc><desc class="y left top">393.289101650225</desc><desc class="x_label">1995</desc></g><g class="dots"><desc class="label">55 wickets in 75 innings (369.2 overs)</desc><circle class="dot reactive tooltip-trigger" cx="457.67744020685194" cy="392.5517421908386" r="2.5"/><desc class="value">32.87</desc><desc class="x left top">457.67744020685194</desc><desc class="y left top">392.5517421908386</desc><desc class="x_label">1996</desc></g><g class="dots"><desc class="label">70 wickets in 101 innings (476.3 overs)</desc><circle class="dot reactive tooltip-trigger" cx="611.4589528118939" cy="391.0954572585505" r="2.5"/><desc class="value">33.66</desc><desc class="x left top">611.4589528118939</desc><desc class="y left top">391.0954572585505</desc><desc class="x_label">1997</desc></g><g class="dots"><desc class="label">80 wickets in 113 innings (550.3 overs)</desc><circle class="dot reactive tooltip-trigger" cx="682.4350355526826" cy="389.71290827220093" r="2.5"/><desc class="value">34.41</desc><desc class="x left top">682.4350355526826</desc><desc class="y left top">389.71290827220093</desc><desc class="x_label">1998</desc></g><g class="dots"><desc class="label">89 wickets in 119 innings (582.1 overs)</desc><circle class="dot reactive tooltip-trigger" cx="717.9230769230769" cy="392.20149644763006" r="2.5"/><desc class="value">33.06</desc><desc class="x left top">717.9230769230769</desc><desc class="y left top">392.20149644763006</desc><desc class="x_label">1999</desc></g></g><g class="series serie-2 color-2"/></g><g class="plot text-overlay" transform="translate(48, 46)"><g class="series serie-0 color-0"/><g class="series serie-1 color-1"/><g class="series serie-2 color-2"/></g><g class="plot tooltip-overlay" transform="translate(48, 46)"><g class="tooltip" style="opacity: 0" transform="translate(0 0)"><rect class="tooltip-box" height="0" rx="10" ry="10" width="0"/><g class="text"/></g></g><g class="legends" transform="translate(58, 545)"><g class="legend reactive activate-serie" id="activate-serie-0"><rect class="color-0 reactive" height="12" width="12" x="0.0" y="1.0"/><text x="17.0" y="11.2">Future Average</text></g><g class="legend reactive activate-serie" id="activate-serie-1"><rect class="color-1 reactive" height="12" width="12" x="366.0" y="1.0"/><text x="383.0" y="11.2">Past Average</text></g><g class="legend reactive activate-serie" id="activate-serie-2"><rect class="color-2 reactive" height="12" width="12" x="0.0" y="22.0"/><text x="17.0" y="32.2">Career Average</text></g></g></g></svg>