<?xml version='1.0' encoding='utf-8'?>
<svg xmlns:xlink="http://www.w3.org/1999/xlink" xmlns="http://www.w3.org/2000/svg" id="chart-4f96db32-6e5d-4409-8de3-d09244519e05" class="pygal-chart" viewBox="0 0 800 600"><!--Generated with pygal 2.4.0 (lxml) ©Kozea 2012-2016 on 2019-08-04--><!--http://pygal.org--><!--http://github.com/Kozea/pygal--><defs><style type="text/css">#chart-4f96db32-6e5d-4409-8de3-d09244519e05{-webkit-user-select:none;-webkit-font-smoothing:antialiased;font-family:Consolas,"Liberation Mono",Menlo,Courier,monospace}#chart-4f96db32-6e5d-4409-8de3-d09244519e05 .title{font-family:Consolas,"Liberation Mono",Menlo,Courier,monospace;font-size:16px}#chart-4f96db32-6e5d-4409-8de3-d09244519e05 .legends .legend text{font-family:Consolas,"Liberation Mono",Menlo,Courier,monospace;font-size:14px}#chart-4f96db32-6e5d-4409-8de3-d09244519e05 .axis text{font-family:Consolas,"Liberation Mono",Menlo,Courier,monospace;font-size:10px}#chart-4f96db32-6e5d-4409-8de3-d09244519e05 .axis text.major{font-family:Consolas,"Liberation Mono",Menlo,Courier,monospace;font-size:10px}#chart-4f96db32-6e5d-4409-8de3-d09244519e05 .text-overlay text.value{font-family:Consolas,"Liberation Mono",Menlo,Courier,monospace;font-size:16px}#chart-4f96db32-6e5d-4409-8de3-d09244519e05 .text-overlay text.label{font-family:Consolas,"Liberation Mono",Menlo,Courier,monospace;font-size:10px}#chart-4f96db32-6e5d-4409-8de3-d09244519e05 .tooltip{font-family:Consolas,"Liberation Mono",Menlo,Courier,monospace;font-size:14px}#chart-4f96db32-6e5d-4409-8de3-d09244519e05 text.no_data{font-family:Consolas,"Liberation Mono",Menlo,Courier,monospace;font-size:64px}
#chart-4f96db32-6e5d-4409-8de3-d09244519e05{background-color:rgba(249,249,249,1)}#chart-4f96db32-6e5d-4409-8de3-d09244519e05 path,#chart-4f96db32-6e5d-4409-8de3-d09244519e05 line,#chart-4f96db32-6e5d-4409-8de3-d09244519e05 rect,#chart-4f96db32-6e5d-4409-8de3-d09244519e05 circle{-webkit-transition:150ms;-moz-transition:150ms;transition:150ms}#chart-4f96db32-6e5d-4409-8de3-d09244519e05 .graph &gt; .background{fill:rgba(249,249,249,1)}#chart-4f96db32-6e5d-4409-8de3-d09244519e05 .plot &gt; .background{fill:rgba(255,255,255,1)}#chart-4f96db32-6e5d-4409-8de3-d09244519e05 .graph{fill:rgba(0,0,0,.87)}#chart-4f96db32-6e5d-4409-8de3-d09244519e05 text.no_data{fill:rgba(0,0,0,1)}#chart-4f96db32-6e5d-4409-8de3-d09244519e05 .title{fill:rgba(0,0,0,1)}#chart-4f96db32-6e5d-4409-8de3-d09244519e05 .legends .legend text{fill:rgba(0,0,0,.87)}#chart-4f96db32-6e5d-4409-8de3-d09244519e05 .legends .legend:hover text{fill:rgba(0,0,0,1)}#chart-4f96db32-6e5d-4409-8de3-d09244519e05 .axis .line{stroke:rgba(0,0,0,1)}#chart-4f96db32-6e5d-4409-8de3-d09244519e05 .axis .guide.line{stroke:rgba(0,0,0,.54)}#chart-4f96db32-6e5d-4409-8de3-d09244519e05 .axis .major.line{stroke:rgba(0,0,0,.87)}#chart-4f96db32-6e5d-4409-8de3-d09244519e05 .axis text.major{fill:rgba(0,0,0,1)}#chart-4f96db32-6e5d-4409-8de3-d09244519e05 .axis.y .guides:hover .guide.line,#chart-4f96db32-6e5d-4409-8de3-d09244519e05 .line-graph .axis.x .guides:hover .guide.line,#chart-4f96db32-6e5d-4409-8de3-d09244519e05 .stackedline-graph .axis.x .guides:hover .guide.line,#chart-4f96db32-6e5d-4409-8de3-d09244519e05 .xy-graph .axis.x .guides:hover .guide.line{stroke:rgba(0,0,0,1)}#chart-4f96db32-6e5d-4409-8de3-d09244519e05 .axis .guides:hover text{fill:rgba(0,0,0,1)}#chart-4f96db32-6e5d-4409-8de3-d09244519e05 .reactive{fill-opacity:.7;stroke-opacity:.8}#chart-4f96db32-6e5d-4409-8de3-d09244519e05 .ci{stroke:rgba(0,0,0,.87)}#chart-4f96db32-6e5d-4409-8de3-d09244519e05 .reactive.active,#chart-4f96db32-6e5d-4409-8de3-d09244519e05 .active .reactive{fill-opacity:.8;stroke-opacity:.9;stroke-width:4}#chart-4f96db32-6e5d-4409-8de3-d09244519e05 .ci .reactive.active{stroke-width:1.5}#chart-4f96db32-6e5d-4409-8de3-d09244519e05 .series text{fill:rgba(0,0,0,1)}#chart-4f96db32-6e5d-4409-8de3-d09244519e05 .tooltip rect{fill:rgba(255,255,255,1);stroke:rgba(0,0,0,1);-webkit-transition:opacity 150ms;-moz-transition:opacity 150ms;transition:opacity 150ms}#chart-4f96db32-6e5d-4409-8de3-d09244519e05 .tooltip .label{fill:rgba(0,0,0,.87)}#chart-4f96db32-6e5d-4409-8de3-d09244519e05 .tooltip .label{fill:rgba(0,0,0,.87)}#chart-4f96db32-6e5d-4409-8de3-d09244519e05 .tooltip .legend{font-size:.8em;fill:rgba(0,0,0,.54)}#chart-4f96db32-6e5d-4409-8de3-d09244519e05 .tooltip .x_label{font-size:.6em;fill:rgba(0,0,0,1)}#chart-4f96db32-6e5d-4409-8de3-d09244519e05 .tooltip .xlink{font-size:.5em;text-decoration:underline}#chart-4f96db32-6e5d-4409-8de3-d09244519e05 .tooltip .value{font-size:1.5em}#chart-4f96db32-6e5d-4409-8de3-d09244519e05 .bound{font-size:.5em}#chart-4f96db32-6e5d-4409-8de3-d09244519e05 .max-value{font-size:.75em;fill:rgba(0,0,0,.54)}#chart-4f96db32-6e5d-4409-8de3-d09244519e05 .map-element{fill:rgba(255,255,255,1);stroke:rgba(0,0,0,.54) !important}#chart-4f96db32-6e5d-4409-8de3-d09244519e05 .map-element .reactive{fill-opacity:inherit;stroke-opacity:inherit}#chart-4f96db32-6e5d-4409-8de3-d09244519e05 .color-0,#chart-4f96db32-6e5d-4409-8de3-d09244519e05 .color-0 a:visited{stroke:red;fill:red}#chart-4f96db32-6e5d-4409-8de3-d09244519e05 .color-1,#chart-4f96db32-6e5d-4409-8de3-d09244519e05 .color-1 a:visited{stroke:blue;fill:blue}#chart-4f96db32-6e5d-4409-8de3-d09244519e05 .color-2,#chart-4f96db32-6e5d-4409-8de3-d09244519e05 .color-2 a:visited{stroke:green;fill:green}#chart-4f96db32-6e5d-4409-8de3-d09244519e05 .text-overlay .color-0 text{fill:white}#chart-4f96db32-6e5d-4409-8de3-d09244519e05 .text-overlay .color-1 text{fill:white}#chart-4f96db32-6e5d-4409-8de3-d09244519e05 .text-overlay .color-2 text{fill:white}
#chart-4f96db32-6e5d-4409-8de3-d09244519e05 text.no_data{text-anchor:middle}#chart-4f96db32-6e5d-4409-8de3-d09244519e05 .guide.line{fill:none}#chart-4f96db32-6e5d-4409-8de3-d09244519e05 .centered{text-anchor:middle}#chart-4f96db32-6e5d-4409-8de3-d09244519e05 .title{text-anchor:middle}#chart-4f96db32-6e5d-4409-8de3-d09244519e05 .legends .legend text{fill-opacity:1}#chart-4f96db32-6e5d-4409-8de3-d09244519e05 .axis.x text{text-anchor:middle}#chart-4f96db32-6e5d-4409-8de3-d09244519e05 .axis.x:not(.web) text[transform]{text-anchor:start}#chart-4f96db32-6e5d-4409-8de3-d09244519e05 .axis.x:not(.web) text[transform].backwards{text-anchor:end}#chart-4f96db32-6e5d-4409-8de3-d09244519e05 .axis.y text{text-anchor:end}#chart-4f96db32-6e5d-4409-8de3-d09244519e05 .axis.y text[transform].backwards{text-anchor:start}#chart-4f96db32-6e5d-4409-8de3-d09244519e05 .axis.y2 text{text-anchor:start}#chart-4f96db32-6e5d-4409-8de3-d09244519e05 .axis.y2 text[transform].backwards{text-anchor:end}#chart-4f96db32-6e5d-4409-8de3-d09244519e05 .axis .guide.line{stroke-dasharray:4,4}#chart-4f96db32-6e5d-4409-8de3-d09244519e05 .axis .major.guide.line{stroke-dasharray:6,6}#chart-4f96db32-6e5d-4409-8de3-d09244519e05 .horizontal .axis.y .guide.line,#chart-4f96db32-6e5d-4409-8de3-d09244519e05 .horizontal .axis.y2 .guide.line,#chart-4f96db32-6e5d-4409-8de3-d09244519e05 .vertical .axis.x .guide.line{opacity:0}#chart-4f96db32-6e5d-4409-8de3-d09244519e05 .horizontal .axis.always_show .guide.line,#chart-4f96db32-6e5d-4409-8de3-d09244519e05 .vertical .axis.always_show .guide.line{opacity:1 !important}#chart-4f96db32-6e5d-4409-8de3-d09244519e05 .axis.y .guides:hover .guide.line,#chart-4f96db32-6e5d-4409-8de3-d09244519e05 .axis.y2 .guides:hover .guide.line,#chart-4f96db32-6e5d-4409-8de3-d09244519e05 .axis.x .guides:hover .guide.line{opacity:1}#chart-4f96db32-6e5d-4409-8de3-d09244519e05 .axis .guides:hover text{opacity:1}#chart-4f96db32-6e5d-4409-8de3-d09244519e05 .nofill{fill:none}#chart-4f96db32-6e5d-4409-8de3-d09244519e05 .subtle-fill{fill-opacity:.2}#chart-4f96db32-6e5d-4409-8de3-d09244519e05 .dot{stroke-width:1px;fill-opacity:1}#chart-4f96db32-6e5d-4409-8de3-d09244519e05 .dot.active{stroke-width:5px}#chart-4f96db32-6e5d-4409-8de3-d09244519e05 .dot.negative{fill:transparent}#chart-4f96db32-6e5d-4409-8de3-d09244519e05 text,#chart-4f96db32-6e5d-4409-8de3-d09244519e05 tspan{stroke:none !important}#chart-4f96db32-6e5d-4409-8de3-d09244519e05 .series text.active{opacity:1}#chart-4f96db32-6e5d-4409-8de3-d09244519e05 .tooltip rect{fill-opacity:.95;stroke-width:.5}#chart-4f96db32-6e5d-4409-8de3-d09244519e05 .tooltip text{fill-opacity:1}#chart-4f96db32-6e5d-4409-8de3-d09244519e05 .showable{visibility:hidden}#chart-4f96db32-6e5d-4409-8de3-d09244519e05 .showable.shown{visibility:visible}#chart-4f96db32-6e5d-4409-8de3-d09244519e05 .gauge-background{fill:rgba(229,229,229,1);stroke:none}#chart-4f96db32-6e5d-4409-8de3-d09244519e05 .bg-lines{stroke:rgba(249,249,249,1);stroke-width:2px}</style><script type="text/javascript">window.pygal = window.pygal || {};window.pygal.config = window.pygal.config || {};window.pygal.config['4f96db32-6e5d-4409-8de3-d09244519e05'] = {"allow_interruptions": false, "box_mode": "extremes", "classes": ["pygal-chart"], "css": ["file://style.css", "file://graph.css"], "defs": [], "disable_xml_declaration": false, "dots_size": 2.5, "dynamic_print_values": false, "explicit_size": false, "fill": false, "force_uri_protocol": "https", "formatter": null, "half_pie": false, "height": 600, "include_x_axis": false, "inner_radius": 0, "interpolate": null, "interpolation_parameters": {}, "interpolation_precision": 250, "inverse_y_axis": false, "js": ["//kozea.github.io/pygal.js/2.0.x/pygal-tooltips.min.js"], "legend_at_bottom": true, "legend_at_bottom_columns": null, "legend_box_size": 12, "logarithmic": false, "margin": 20, "margin_bottom": null, "margin_left": null, "margin_right": null, "margin_top": null, "max_scale": 16, "min_scale": 4, "missing_value_fill_truncation": "x", "no_data_text": "No data", "no_prefix": false, "order_min": null, "pretty_print": false, "print_labels": false, "print_values": false, "print_values_position": "center", "print_zeroes": true, "range": null, "rounded_bars": null, "secondary_range": null, "show_dots": true, "show_legend": true, "show_minor_x_labels": false, "show_minor_y_labels": true, "show_only_major_dots": false, "show_x_guides": false, "show_x_labels": true, "show_y_guides": true, "show_y_labels": true, "spacing": 10, "stack_from_top": false, "strict": false, "stroke": true, "stroke_style": null, "style": {"background": "rgba(249, 249, 249, 1)", "ci_colors": [], "colors": ["red", "blue", "green", "#a3a3a3"], "font_family": "Consolas, \"Liberation Mono\", Menlo, Courier, monospace", "foreground": "rgba(0, 0, 0, .87)", "foreground_strong": "rgba(0, 0, 0, 1)", "foreground_subtle": "rgba(0, 0, 0, .54)", "guide_stroke_dasharray": "4,4", "label_font_family": "Consolas, \"Liberation Mono\", Menlo, Courier, monospace", "label_font_size": 10, "legend_font_family": "Consolas, \"Liberation Mono\", Menlo, Courier, monospace", "legend_font_size": 14, "major_guide_stroke_dasharray": "6,6", "major_label_font_family": "Consolas, \"Liberation Mono\", Menlo, Courier, monospace", "major_label_font_size": 10, "no_data_font_family": "Consolas, \"Liberation Mono\", Menlo, Courier, monospace", "no_data_font_size": 64, "opacity": ".7", "opacity_hover": ".8", "plot_background": "rgba(255, 255, 255, 1)", "stroke_opacity": ".8", "stroke_opacity_hover": ".9", "title_font_family": "Consolas, \"Liberation Mono\", Menlo, Courier, monospace", "title_font_size": 16, "tooltip_font_family": "Consolas, \"Liberation Mono\", Menlo, Courier, monospace", "tooltip_font_size": 14, "transition": "150ms", "value_background": "rgba(229, 229, 229, 1)", "value_colors": [], "value_font_family": "Consolas, \"Liberation Mono\", Menlo, Courier, monospace", "value_font_size": 16, "value_label_font_family": "Consolas, \"Liberation Mono\", Menlo, Courier, monospace", "value_label_font_size": 10}, "title": "Saqlain Mushtaq: Future and Past Averages in ODIs", "tooltip_border_radius": 10, "tooltip_fancy_mode": true, "truncate_label": null, "truncate_legend": null, "width": 800, "x_label_rotation": 45, "x_labels": ["1995", "0", "0", "0", "0", "1996", "0", "0", "0", "0", "0", "0", "0", "0", "0", "0", "0", "0", "0", "0", "0", "0", "0", "0", "0", "0", "0", "0", "0", "0", "0", "0", "0", "0", "0", "0", "0", "1997", "0", "0", "0", "0", "0", "0", "0", "0", "0", "0", "0", "0", "0", "0", "0", "0", "0", "0", "0", "0", "0", "0", "0", "0", "0", "0", "0", "0", "0", "0", "0", "0", "0", "1998", "0", "0", "0", "0", "0", "0", "0", "0", "0", "0", "0", "0", "0", "1999", "0", "0", "0", "0", "0", "0", "0", "0", "0", "0", "0", "0", "0", "0", "0", "0", "0", "0", "0", "0", "0", "0", "2000", "0", "0", "0", "0", "0", "0", "0", "0", "0", "0", "0", "0", "0", "0", "0", "0", "0", "2001", "0", "0", "0", "0", "0", "0", "0", "0", "0", "0", "0", "0", "0", "0", "2002", "0", "0", "0", "0", "0", "0", "0", "0", "0", "0", "0", "0", "0", "0", "0", "0", "0", "0", "0", "2003", "0", "0", "0"], "x_labels_major": ["1995", "1996", "1997", "1998", "1999", "2000", "2001", "2002", "2003"], "x_labels_major_count": null, "x_labels_major_every": null, "x_title": null, "xrange": null, "y_label_rotation": 0, "y_labels": null, "y_labels_major": null, "y_labels_major_count": null, "y_labels_major_every": null, "y_title": null, "zero": 90.0, "legends": ["Future Average", "Past Average", "Career Average"]}</script><script type="text/javascript" xlink:href="https://kozea.github.io/pygal.js/2.0.x/pygal-tooltips.min.js"/></defs><title>Saqlain Mushtaq: Future and Past Averages in ODIs</title><g class="graph line-graph vertical"><rect class="background" height="600" width="800" x="0" y="0"/><g class="plot" transform="translate(42, 46)"><rect class="background" height="462.02943725152284" width="738.0" x="0" y="0"/><g class="axis y always_show"><g class="guides"><path class="axis major line" d="M0.000000 453.144256 h738.000000"/><text class="major" x="-5" y="456.6442557659166">0</text><title>0</title></g><g class="guides"><path class="guide line" d="M0.000000 400.256271 h738.000000"/><text class="" x="-5" y="403.75627073254634">10</text><title>10</title></g><g class="guides"><path class="guide line" d="M0.000000 347.368286 h738.000000"/><text class="" x="-5" y="350.86828569917606">20</text><title>20</title></g><g class="guides"><path class="guide line" d="M0.000000 294.480301 h738.000000"/><text class="" x="-5" y="297.98030066580577">30</text><title>30</title></g><g class="guides"><path class="guide line" d="M0.000000 241.592316 h738.000000"/><text class="" x="-5" y="245.0923156324355">40</text><title>40</title></g><g class="guides"><path class="major guide line" d="M0.000000 188.704331 h738.000000"/><text class="major" x="-5" y="192.20433059906526">50</text><title>50</title></g><g class="guides"><path class="guide line" d="M0.000000 135.816346 h738.000000"/><text class="" x="-5" y="139.31634556569497">60</text><title>60</title></g><g class="guides"><path class="guide line" d="M0.000000 82.928361 h738.000000"/><text class="" x="-5" y="86.42836053232458">70</text><title>70</title></g><g class="guides"><path class="guide line" d="M0.000000 30.040375 h738.000000"/><text class="" x="-5" y="33.540375498954404">80</text><title>80</title></g></g><g class="axis x"><g class="guides"><path class="major line" d="M14.192308 0.000000 v462.029437"/><text class="major" x="14.192307692307692" y="477.02943725152284" transform="rotate(45 14.192308 477.029437)">1995</text></g><g class="guides"><path class="major guide line" d="M35.826923 0.000000 v462.029437"/><text class="major" x="35.82692307692308" y="477.02943725152284" transform="rotate(45 35.826923 477.029437)">1996</text></g><g class="guides"><path class="major guide line" d="M174.288462 0.000000 v462.029437"/><text class="major" x="174.28846153846152" y="477.02943725152284" transform="rotate(45 174.288462 477.029437)">1997</text></g><g class="guides"><path class="major guide line" d="M321.403846 0.000000 v462.029437"/><text class="major" x="321.40384615384613" y="477.02943725152284" transform="rotate(45 321.403846 477.029437)">1998</text></g><g class="guides"><path class="major guide line" d="M381.980769 0.000000 v462.029437"/><text class="major" x="381.9807692307693" y="477.02943725152284" transform="rotate(45 381.980769 477.029437)">1999</text></g><g class="guides"><path class="major guide line" d="M481.500000 0.000000 v462.029437"/><text class="major" x="481.50000000000006" y="477.02943725152284" transform="rotate(45 481.500000 477.029437)">2000</text></g><g class="guides"><path class="major guide line" d="M559.384615 0.000000 v462.029437"/><text class="major" x="559.3846153846154" y="477.02943725152284" transform="rotate(45 559.384615 477.029437)">2001</text></g><g class="guides"><path class="major guide line" d="M624.288462 0.000000 v462.029437"/><text class="major" x="624.2884615384615" y="477.02943725152284" transform="rotate(45 624.288462 477.029437)">2002</text></g><g class="guides"><path class="major guide line" d="M710.826923 0.000000 v462.029437"/><text class="major" x="710.8269230769231" y="477.02943725152284" transform="rotate(45 710.826923 477.029437)">2003</text></g></g><g class="series serie-0 color-0"><path class="line reactive nofill" d="M14.192308 337.901336 L18.519231 338.430216 22.846154 338.165776 27.173077 337.425345 31.500000 337.372457 35.826923 337.901336 40.153846 337.795560 44.480769 337.795560 48.807692 337.266681 53.134615 336.896465 57.461538 336.843577 61.788462 337.954224 66.115385 339.117760 70.442308 340.175520 74.769231 340.915952 79.096154 340.757288 83.423077 341.550607 87.750000 341.497719 92.076923 341.550607 96.403846 340.439960 100.730769 340.281296 105.057692 339.805304 109.384615 339.011984 113.711538 337.848448 118.038462 338.747544 122.365385 338.694656 126.692308 338.271552 131.019231 336.949353 135.346154 336.684913 139.673077 335.891593 144.000000 335.680041 148.326923 335.891593 152.653846 335.574265 156.980769 333.987625 161.307692 334.199177 165.634615 335.204049 169.961538 333.194306 174.288462 334.252065 178.615385 333.141418 182.942308 333.511634 187.269231 333.300082 191.596154 333.828962 195.923077 331.977882 200.250000 332.348098 204.576923 333.141418 208.903846 333.247194 213.230769 332.665426 217.557692 332.718314 221.884615 332.612538 226.211538 332.348098 230.538462 332.242322 234.865385 331.396114 239.192308 330.655682 243.519231 330.655682 247.846154 331.396114 252.173077 330.232579 256.500000 330.655682 260.826923 328.275723 265.153846 326.001540 269.480769 326.001540 273.807692 326.741972 278.134615 327.746843 282.461538 328.593051 286.788462 326.741972 291.115385 328.222835 295.442308 328.963267 299.769231 327.746843 304.096154 326.530420 308.423077 328.381499 312.750000 327.165075 317.076923 327.429515 321.403846 324.890892 325.730769 322.828261 330.057692 321.241621 334.384615 323.304253 338.711538 321.823389 343.038462 321.506061 347.365385 321.030069 351.692308 318.808774 356.019231 317.327910 360.346154 319.178990 364.673077 317.433686 369.000000 318.227006 373.326923 315.159503 377.653846 314.736399 381.980769 312.356440 386.307692 312.779543 390.634615 313.625751 394.961538 314.260407 399.288462 312.779543 403.615385 312.885319 407.942308 309.976480 412.269231 310.505360 416.596154 311.245792 420.923077 313.678639 425.250000 314.736399 429.576923 314.524847 433.903846 315.582607 438.230769 314.101743 442.557692 313.043983 446.884615 307.279193 451.211538 308.654281 455.538462 312.673768 459.865385 308.707169 464.192308 310.981352 468.519231 310.611136 472.846154 310.769800 477.173077 306.644537 481.500000 304.105914 485.826923 304.899234 490.153846 303.471258 494.480769 305.533890 498.807692 308.072513 503.134615 311.034240 507.461538 310.399584 511.788462 310.558248 516.115385 310.558248 520.442308 310.558248 524.769231 311.087128 529.096154 310.611136 533.423077 311.933336 537.750000 309.024497 542.076923 306.856089 546.403846 307.966737 550.730769 312.885319 555.057692 311.087128 559.384615 299.240219 563.711538 298.605563 568.038462 301.038411 572.365385 294.268749 576.692308 301.355739 581.019231 299.980651 585.346154 305.428114 589.673077 311.192904 594.000000 299.504659 598.326923 294.903405 602.653846 289.032838 606.980769 291.148358 611.307692 289.350166 615.634615 292.100341 619.961538 290.196374 624.288462 298.764227 628.615385 297.812244 632.942308 286.864431 637.269231 287.340423 641.596154 279.724553 645.923077 283.215160 650.250000 277.344594 654.576923 287.446199 658.903846 267.454540 663.230769 263.382165 667.557692 277.979249 671.884615 302.889490 676.211538 312.197776 680.538462 297.494916 684.865385 303.841474 689.192308 296.384268 693.519231 316.111487 697.846154 306.644537 702.173077 288.556846 706.500000 322.934037 710.826923 282.580504 715.153846 227.471224 719.480769 8.885181 723.807692 178.126734"/></g><g class="series serie-1 color-1"><path class="line reactive nofill" d="M14.192308 453.144256 L18.519231 310.346696 22.846154 302.413498 27.173077 361.489378 31.500000 356.623683 35.826923 338.800432 40.153846 341.550607 44.480769 340.334184 48.807692 349.483805 53.134615 353.238852 57.461538 352.128204 61.788462 337.584008 66.115385 321.717613 70.442308 307.437857 74.769231 299.504659 79.096154 304.846346 83.423077 295.855388 87.750000 300.192203 92.076923 302.730826 96.403846 316.164375 100.730769 319.126102 105.057692 324.256236 109.384615 330.655682 113.711538 338.165776 118.038462 333.035642 122.365385 333.670298 126.692308 336.103145 131.019231 342.396815 135.346154 343.401687 139.673077 346.310526 144.000000 346.733630 148.326923 345.834534 152.653846 346.574966 156.980769 351.123333 161.307692 349.959797 165.634615 346.574966 169.961538 351.810876 174.288462 348.690485 178.615385 351.176221 182.942308 349.906909 187.269231 350.330013 191.596154 348.637597 195.923077 352.604196 200.250000 351.440661 204.576923 349.430917 208.903846 349.060701 213.230769 349.748245 217.557692 349.589581 221.884615 349.378029 226.211538 349.536693 230.538462 349.430917 234.865385 350.541565 239.192308 351.334885 243.519231 350.964669 247.846154 349.272253 252.173077 350.541565 256.500000 349.642469 260.826923 352.392644 265.153846 354.613940 269.480769 354.349500 273.807692 353.080188 278.134615 351.757988 282.461538 350.382901 286.788462 352.286868 291.115385 350.330013 295.442308 349.219365 299.769231 350.277125 304.096154 351.176221 308.423077 349.007813 312.750000 349.959797 317.076923 349.325141 321.403846 351.281997 325.730769 352.604196 330.057692 353.450404 334.384615 351.546437 338.711538 352.286868 343.038462 352.022428 347.365385 352.181092 351.692308 353.397516 356.019231 353.714844 360.346154 352.286868 364.673077 352.974412 369.000000 352.181092 373.326923 353.450404 377.653846 353.291740 381.980769 354.190836 386.307692 353.926396 390.634615 353.133076 394.961538 352.551308 399.288462 352.762860 403.615385 352.498420 407.942308 353.450404 412.269231 352.921524 416.596154 352.339756 420.923077 350.964669 425.250000 350.435789 429.576923 350.330013 433.903846 349.589581 438.230769 349.801133 442.557692 349.959797 446.884615 351.599325 451.211538 350.753117 455.538462 349.007813 459.865385 350.118461 464.192308 349.166477 468.519231 349.166477 472.846154 348.902037 477.173077 349.959797 481.500000 350.488677 485.826923 350.171349 490.153846 350.277125 494.480769 349.536693 498.807692 348.426045 503.134615 347.368286 507.461538 347.262510 511.788462 346.839406 516.115385 346.680742 520.442308 346.363414 524.769231 345.887422 529.096154 345.728758 533.423077 345.199878 537.750000 345.675870 542.076923 345.887422 546.403846 345.464318 550.730769 344.195007 555.057692 344.406559 559.384615 346.204750 563.711538 346.151862 568.038462 345.675870 572.365385 346.416302 576.692308 345.041214 581.019231 344.935438 585.346154 343.930567 589.673077 342.872807 594.000000 344.300783 598.326923 344.459447 602.653846 344.882550 606.980769 344.353671 611.307692 344.195007 615.634615 343.824791 619.961538 343.666127 624.288462 342.661255 628.615385 342.555479 632.942308 343.190135 637.269231 342.925695 641.596154 343.190135 645.923077 342.661255 650.250000 342.661255 654.576923 341.867935 658.903846 342.608367 663.230769 342.608367 667.557692 341.656383 671.884615 340.122632 676.211538 339.540864 680.538462 339.963968 684.865385 339.540864 689.192308 339.540864 693.519231 338.800432 697.846154 339.011984 702.173077 339.329312 706.500000 338.324440 710.826923 338.694656 715.153846 339.064872 719.480769 339.064872 723.807692 338.853320"/></g><g class="series serie-2 color-2"><path class="line reactive nofill" d="M14.192308 337.901336 L18.519231 337.901336 22.846154 337.901336 27.173077 337.901336 31.500000 337.901336 35.826923 337.901336 40.153846 337.901336 44.480769 337.901336 48.807692 337.901336 53.134615 337.901336 57.461538 337.901336 61.788462 337.901336 66.115385 337.901336 70.442308 337.901336 74.769231 337.901336 79.096154 337.901336 83.423077 337.901336 87.750000 337.901336 92.076923 337.901336 96.403846 337.901336 100.730769 337.901336 105.057692 337.901336 109.384615 337.901336 113.711538 337.901336 118.038462 337.901336 122.365385 337.901336 126.692308 337.901336 131.019231 337.901336 135.346154 337.901336 139.673077 337.901336 144.000000 337.901336 148.326923 337.901336 152.653846 337.901336 156.980769 337.901336 161.307692 337.901336 165.634615 337.901336 169.961538 337.901336 174.288462 337.901336 178.615385 337.901336 182.942308 337.901336 187.269231 337.901336 191.596154 337.901336 195.923077 337.901336 200.250000 337.901336 204.576923 337.901336 208.903846 337.901336 213.230769 337.901336 217.557692 337.901336 221.884615 337.901336 226.211538 337.901336 230.538462 337.901336 234.865385 337.901336 239.192308 337.901336 243.519231 337.901336 247.846154 337.901336 252.173077 337.901336 256.500000 337.901336 260.826923 337.901336 265.153846 337.901336 269.480769 337.901336 273.807692 337.901336 278.134615 337.901336 282.461538 337.901336 286.788462 337.901336 291.115385 337.901336 295.442308 337.901336 299.769231 337.901336 304.096154 337.901336 308.423077 337.901336 312.750000 337.901336 317.076923 337.901336 321.403846 337.901336 325.730769 337.901336 330.057692 337.901336 334.384615 337.901336 338.711538 337.901336 343.038462 337.901336 347.365385 337.901336 351.692308 337.901336 356.019231 337.901336 360.346154 337.901336 364.673077 337.901336 369.000000 337.901336 373.326923 337.901336 377.653846 337.901336 381.980769 337.901336 386.307692 337.901336 390.634615 337.901336 394.961538 337.901336 399.288462 337.901336 403.615385 337.901336 407.942308 337.901336 412.269231 337.901336 416.596154 337.901336 420.923077 337.901336 425.250000 337.901336 429.576923 337.901336 433.903846 337.901336 438.230769 337.901336 442.557692 337.901336 446.884615 337.901336 451.211538 337.901336 455.538462 337.901336 459.865385 337.901336 464.192308 337.901336 468.519231 337.901336 472.846154 337.901336 477.173077 337.901336 481.500000 337.901336 485.826923 337.901336 490.153846 337.901336 494.480769 337.901336 498.807692 337.901336 503.134615 337.901336 507.461538 337.901336 511.788462 337.901336 516.115385 337.901336 520.442308 337.901336 524.769231 337.901336 529.096154 337.901336 533.423077 337.901336 537.750000 337.901336 542.076923 337.901336 546.403846 337.901336 550.730769 337.901336 555.057692 337.901336 559.384615 337.901336 563.711538 337.901336 568.038462 337.901336 572.365385 337.901336 576.692308 337.901336 581.019231 337.901336 585.346154 337.901336 589.673077 337.901336 594.000000 337.901336 598.326923 337.901336 602.653846 337.901336 606.980769 337.901336 611.307692 337.901336 615.634615 337.901336 619.961538 337.901336 624.288462 337.901336 628.615385 337.901336 632.942308 337.901336 637.269231 337.901336 641.596154 337.901336 645.923077 337.901336 650.250000 337.901336 654.576923 337.901336 658.903846 337.901336 663.230769 337.901336 667.557692 337.901336 671.884615 337.901336 676.211538 337.901336 680.538462 337.901336 684.865385 337.901336 689.192308 337.901336 693.519231 337.901336 697.846154 337.901336 702.173077 337.901336 706.500000 337.901336 710.826923 337.901336 715.153846 337.901336 719.480769 337.901336 723.807692 337.901336"/></g></g><g class="titles"><text class="title plot_title" x="400.0" y="26">Saqlain Mushtaq: Future and Past Averages in ODIs</text></g><g class="plot overlay" transform="translate(42, 46)"><g class="series serie-0 color-0"><g class="dots"><desc class="label">288 wickets in 165 innings (1461.4 overs)</desc><circle class="dot reactive tooltip-trigger" cx="14.192307692307692" cy="337.9013363782028" r="2.5"/><desc class="value">21.79</desc><desc class="x top">14.192307692307692</desc><desc class="y top">337.9013363782028</desc><desc class="x_label">1995</desc></g><g class="dots"><desc class="label">280 wickets in 160 innings (1421.5 overs)</desc><circle class="dot reactive tooltip-trigger" cx="35.82692307692308" cy="337.9013363782028" r="2.5"/><desc class="value">21.79</desc><desc class="x top">35.82692307692308</desc><desc class="y top">337.9013363782028</desc><desc class="x_label">1996</desc></g><g class="dots"><desc class="label">215 wickets in 128 innings (1132.5 overs)</desc><circle class="dot reactive tooltip-trigger" cx="174.28846153846152" cy="334.25206541090023" r="2.5"/><desc class="value">22.48</desc><desc class="x top">174.28846153846152</desc><desc class="y top">334.25206541090023</desc><desc class="x_label">1997</desc></g><g class="dots"><desc class="label">146 wickets in 94 innings (818.3 overs)</desc><circle class="dot reactive tooltip-trigger" cx="321.40384615384613" cy="324.8908920599937" r="2.5"/><desc class="value">24.25</desc><desc class="x top">321.40384615384613</desc><desc class="y top">324.8908920599937</desc><desc class="x_label">1998</desc></g><g class="dots"><desc class="label">112 wickets in 80 innings (693.3 overs)</desc><circle class="dot reactive tooltip-trigger" cx="381.9807692307693" cy="312.3564396070849" r="2.5"/><desc class="value">26.62</desc><desc class="x left top">381.9807692307693</desc><desc class="y left top">312.3564396070849</desc><desc class="x_label">1999</desc></g><g class="dots"><desc class="label">78 wickets in 57 innings (495.5 overs)</desc><circle class="dot reactive tooltip-trigger" cx="481.50000000000006" cy="304.1059139418792" r="2.5"/><desc class="value">28.18</desc><desc class="x left top">481.50000000000006</desc><desc class="y left top">304.1059139418792</desc><desc class="x_label">2000</desc></g><g class="dots"><desc class="label">51 wickets in 39 innings (334.3 overs)</desc><circle class="dot reactive tooltip-trigger" cx="559.3846153846154" cy="299.2402193188091" r="2.5"/><desc class="value">29.1</desc><desc class="x left top">559.3846153846154</desc><desc class="y left top">299.2402193188091</desc><desc class="x_label">2001</desc></g><g class="dots"><desc class="label">31 wickets in 24 innings (205.3 overs)</desc><circle class="dot reactive tooltip-trigger" cx="624.2884615384615" cy="298.7642274535088" r="2.5"/><desc class="value">29.19</desc><desc class="x left top">624.2884615384615</desc><desc class="y left top">298.7642274535088</desc><desc class="x_label">2002</desc></g><g class="dots"><desc class="label">4 wickets in 4 innings (26.4 overs)</desc><circle class="dot reactive tooltip-trigger" cx="710.8269230769231" cy="282.5805040332975" r="2.5"/><desc class="value">32.25</desc><desc class="x left top">710.8269230769231</desc><desc class="y left top">282.5805040332975</desc><desc class="x_label">2003</desc></g></g><g class="series serie-1 color-1"><g class="dots"><desc class="label">0 wickets over 0 innings</desc><circle class="dot reactive tooltip-trigger" cx="14.192307692307692" cy="453.1442557659166" r="2.5"/><desc class="value">0</desc><desc class="x top">14.192307692307692</desc><desc class="y top">453.1442557659166</desc><desc class="x_label">1995</desc></g><g class="dots"><desc class="label">8 wickets in 5 innings (39.5 overs)</desc><circle class="dot reactive tooltip-trigger" cx="35.82692307692308" cy="338.80043212377007" r="2.5"/><desc class="value">21.62</desc><desc class="x top">35.82692307692308</desc><desc class="y top">338.80043212377007</desc><desc class="x_label">1996</desc></g><g class="dots"><desc class="label">73 wickets in 37 innings (328.5 overs)</desc><circle class="dot reactive tooltip-trigger" cx="174.28846153846152" cy="348.69048532501034" r="2.5"/><desc class="value">19.75</desc><desc class="x top">174.28846153846152</desc><desc class="y top">348.69048532501034</desc><desc class="x_label">1997</desc></g><g class="dots"><desc class="label">142 wickets in 71 innings (643.1 overs)</desc><circle class="dot reactive tooltip-trigger" cx="321.40384615384613" cy="351.28199659164545" r="2.5"/><desc class="value">19.26</desc><desc class="x top">321.40384615384613</desc><desc class="y top">351.28199659164545</desc><desc class="x_label">1998</desc></g><g class="dots"><desc class="label">176 wickets in 85 innings (768.1 overs)</desc><circle class="dot reactive tooltip-trigger" cx="381.9807692307693" cy="354.19083576848084" r="2.5"/><desc class="value">18.71</desc><desc class="x left top">381.9807692307693</desc><desc class="y left top">354.19083576848084</desc><desc class="x_label">1999</desc></g><g class="dots"><desc class="label">210 wickets in 108 innings (965.5 overs)</desc><circle class="dot reactive tooltip-trigger" cx="481.50000000000006" cy="350.4886768161449" r="2.5"/><desc class="value">19.41</desc><desc class="x left top">481.50000000000006</desc><desc class="y left top">350.4886768161449</desc><desc class="x_label">2000</desc></g><g class="dots"><desc class="label">237 wickets in 126 innings (1127.1 overs)</desc><circle class="dot reactive tooltip-trigger" cx="559.3846153846154" cy="346.20475002844194" r="2.5"/><desc class="value">20.22</desc><desc class="x left top">559.3846153846154</desc><desc class="y left top">346.20475002844194</desc><desc class="x_label">2001</desc></g><g class="dots"><desc class="label">257 wickets in 141 innings (1256.1 overs)</desc><circle class="dot reactive tooltip-trigger" cx="624.2884615384615" cy="342.6612550312061" r="2.5"/><desc class="value">20.89</desc><desc class="x left top">624.2884615384615</desc><desc class="y left top">342.6612550312061</desc><desc class="x_label">2002</desc></g><g class="dots"><desc class="label">284 wickets in 161 innings (1435.0 overs)</desc><circle class="dot reactive tooltip-trigger" cx="710.8269230769231" cy="338.69465615370336" r="2.5"/><desc class="value">21.64</desc><desc class="x left top">710.8269230769231</desc><desc class="y left top">338.69465615370336</desc><desc class="x_label">2003</desc></g></g><g class="series serie-2 color-2"/></g><g class="plot text-overlay" transform="translate(42, 46)"><g class="series serie-0 color-0"/><g class="series serie-1 color-1"/><g class="series serie-2 color-2"/></g><g class="plot tooltip-overlay" transform="translate(42, 46)"><g class="tooltip" style="opacity: 0" transform="translate(0 0)"><rect class="tooltip-box" height="0" rx="10" ry="10" width="0"/><g class="text"/></g></g><g class="legends" transform="translate(52, 545)"><g class="legend reactive activate-serie" id="activate-serie-0"><rect class="color-0 reactive" height="12" width="12" x="0.0" y="1.0"/><text x="17.0" y="11.2">Future Average</text></g><g class="legend reactive activate-serie" id="activate-serie-1"><rect class="color-1 reactive" height="12" width="12" x="369.0" y="1.0"/><text x="386.0" y="11.2">Past Average</text></g><g class="legend reactive activate-serie" id="activate-serie-2"><rect class="color-2 reactive" height="12" width="12" x="0.0" y="22.0"/><text x="17.0" y="32.2">Career Average</text></g></g></g></svg>