<?xml version='1.0' encoding='utf-8'?>
<svg xmlns:xlink="http://www.w3.org/1999/xlink" xmlns="http://www.w3.org/2000/svg" id="chart-900e91c0-77d7-4831-a4a2-eb63c07ea389" class="pygal-chart" viewBox="0 0 800 600"><!--Generated with pygal 2.4.0 (lxml) ©Kozea 2012-2016 on 2019-08-04--><!--http://pygal.org--><!--http://github.com/Kozea/pygal--><defs><style type="text/css">#chart-900e91c0-77d7-4831-a4a2-eb63c07ea389{-webkit-user-select:none;-webkit-font-smoothing:antialiased;font-family:Consolas,"Liberation Mono",Menlo,Courier,monospace}#chart-900e91c0-77d7-4831-a4a2-eb63c07ea389 .title{font-family:Consolas,"Liberation Mono",Menlo,Courier,monospace;font-size:16px}#chart-900e91c0-77d7-4831-a4a2-eb63c07ea389 .legends .legend text{font-family:Consolas,"Liberation Mono",Menlo,Courier,monospace;font-size:14px}#chart-900e91c0-77d7-4831-a4a2-eb63c07ea389 .axis text{font-family:Consolas,"Liberation Mono",Menlo,Courier,monospace;font-size:10px}#chart-900e91c0-77d7-4831-a4a2-eb63c07ea389 .axis text.major{font-family:Consolas,"Liberation Mono",Menlo,Courier,monospace;font-size:10px}#chart-900e91c0-77d7-4831-a4a2-eb63c07ea389 .text-overlay text.value{font-family:Consolas,"Liberation Mono",Menlo,Courier,monospace;font-size:16px}#chart-900e91c0-77d7-4831-a4a2-eb63c07ea389 .text-overlay text.label{font-family:Consolas,"Liberation Mono",Menlo,Courier,monospace;font-size:10px}#chart-900e91c0-77d7-4831-a4a2-eb63c07ea389 .tooltip{font-family:Consolas,"Liberation Mono",Menlo,Courier,monospace;font-size:14px}#chart-900e91c0-77d7-4831-a4a2-eb63c07ea389 text.no_data{font-family:Consolas,"Liberation Mono",Menlo,Courier,monospace;font-size:64px}
#chart-900e91c0-77d7-4831-a4a2-eb63c07ea389{background-color:rgba(249,249,249,1)}#chart-900e91c0-77d7-4831-a4a2-eb63c07ea389 path,#chart-900e91c0-77d7-4831-a4a2-eb63c07ea389 line,#chart-900e91c0-77d7-4831-a4a2-eb63c07ea389 rect,#chart-900e91c0-77d7-4831-a4a2-eb63c07ea389 circle{-webkit-transition:150ms;-moz-transition:150ms;transition:150ms}#chart-900e91c0-77d7-4831-a4a2-eb63c07ea389 .graph &gt; .background{fill:rgba(249,249,249,1)}#chart-900e91c0-77d7-4831-a4a2-eb63c07ea389 .plot &gt; .background{fill:rgba(255,255,255,1)}#chart-900e91c0-77d7-4831-a4a2-eb63c07ea389 .graph{fill:rgba(0,0,0,.87)}#chart-900e91c0-77d7-4831-a4a2-eb63c07ea389 text.no_data{fill:rgba(0,0,0,1)}#chart-900e91c0-77d7-4831-a4a2-eb63c07ea389 .title{fill:rgba(0,0,0,1)}#chart-900e91c0-77d7-4831-a4a2-eb63c07ea389 .legends .legend text{fill:rgba(0,0,0,.87)}#chart-900e91c0-77d7-4831-a4a2-eb63c07ea389 .legends .legend:hover text{fill:rgba(0,0,0,1)}#chart-900e91c0-77d7-4831-a4a2-eb63c07ea389 .axis .line{stroke:rgba(0,0,0,1)}#chart-900e91c0-77d7-4831-a4a2-eb63c07ea389 .axis .guide.line{stroke:rgba(0,0,0,.54)}#chart-900e91c0-77d7-4831-a4a2-eb63c07ea389 .axis .major.line{stroke:rgba(0,0,0,.87)}#chart-900e91c0-77d7-4831-a4a2-eb63c07ea389 .axis text.major{fill:rgba(0,0,0,1)}#chart-900e91c0-77d7-4831-a4a2-eb63c07ea389 .axis.y .guides:hover .guide.line,#chart-900e91c0-77d7-4831-a4a2-eb63c07ea389 .line-graph .axis.x .guides:hover .guide.line,#chart-900e91c0-77d7-4831-a4a2-eb63c07ea389 .stackedline-graph .axis.x .guides:hover .guide.line,#chart-900e91c0-77d7-4831-a4a2-eb63c07ea389 .xy-graph .axis.x .guides:hover .guide.line{stroke:rgba(0,0,0,1)}#chart-900e91c0-77d7-4831-a4a2-eb63c07ea389 .axis .guides:hover text{fill:rgba(0,0,0,1)}#chart-900e91c0-77d7-4831-a4a2-eb63c07ea389 .reactive{fill-opacity:.7;stroke-opacity:.8}#chart-900e91c0-77d7-4831-a4a2-eb63c07ea389 .ci{stroke:rgba(0,0,0,.87)}#chart-900e91c0-77d7-4831-a4a2-eb63c07ea389 .reactive.active,#chart-900e91c0-77d7-4831-a4a2-eb63c07ea389 .active .reactive{fill-opacity:.8;stroke-opacity:.9;stroke-width:4}#chart-900e91c0-77d7-4831-a4a2-eb63c07ea389 .ci .reactive.active{stroke-width:1.5}#chart-900e91c0-77d7-4831-a4a2-eb63c07ea389 .series text{fill:rgba(0,0,0,1)}#chart-900e91c0-77d7-4831-a4a2-eb63c07ea389 .tooltip rect{fill:rgba(255,255,255,1);stroke:rgba(0,0,0,1);-webkit-transition:opacity 150ms;-moz-transition:opacity 150ms;transition:opacity 150ms}#chart-900e91c0-77d7-4831-a4a2-eb63c07ea389 .tooltip .label{fill:rgba(0,0,0,.87)}#chart-900e91c0-77d7-4831-a4a2-eb63c07ea389 .tooltip .label{fill:rgba(0,0,0,.87)}#chart-900e91c0-77d7-4831-a4a2-eb63c07ea389 .tooltip .legend{font-size:.8em;fill:rgba(0,0,0,.54)}#chart-900e91c0-77d7-4831-a4a2-eb63c07ea389 .tooltip .x_label{font-size:.6em;fill:rgba(0,0,0,1)}#chart-900e91c0-77d7-4831-a4a2-eb63c07ea389 .tooltip .xlink{font-size:.5em;text-decoration:underline}#chart-900e91c0-77d7-4831-a4a2-eb63c07ea389 .tooltip .value{font-size:1.5em}#chart-900e91c0-77d7-4831-a4a2-eb63c07ea389 .bound{font-size:.5em}#chart-900e91c0-77d7-4831-a4a2-eb63c07ea389 .max-value{font-size:.75em;fill:rgba(0,0,0,.54)}#chart-900e91c0-77d7-4831-a4a2-eb63c07ea389 .map-element{fill:rgba(255,255,255,1);stroke:rgba(0,0,0,.54) !important}#chart-900e91c0-77d7-4831-a4a2-eb63c07ea389 .map-element .reactive{fill-opacity:inherit;stroke-opacity:inherit}#chart-900e91c0-77d7-4831-a4a2-eb63c07ea389 .color-0,#chart-900e91c0-77d7-4831-a4a2-eb63c07ea389 .color-0 a:visited{stroke:red;fill:red}#chart-900e91c0-77d7-4831-a4a2-eb63c07ea389 .color-1,#chart-900e91c0-77d7-4831-a4a2-eb63c07ea389 .color-1 a:visited{stroke:blue;fill:blue}#chart-900e91c0-77d7-4831-a4a2-eb63c07ea389 .color-2,#chart-900e91c0-77d7-4831-a4a2-eb63c07ea389 .color-2 a:visited{stroke:green;fill:green}#chart-900e91c0-77d7-4831-a4a2-eb63c07ea389 .text-overlay .color-0 text{fill:white}#chart-900e91c0-77d7-4831-a4a2-eb63c07ea389 .text-overlay .color-1 text{fill:white}#chart-900e91c0-77d7-4831-a4a2-eb63c07ea389 .text-overlay .color-2 text{fill:white}
#chart-900e91c0-77d7-4831-a4a2-eb63c07ea389 text.no_data{text-anchor:middle}#chart-900e91c0-77d7-4831-a4a2-eb63c07ea389 .guide.line{fill:none}#chart-900e91c0-77d7-4831-a4a2-eb63c07ea389 .centered{text-anchor:middle}#chart-900e91c0-77d7-4831-a4a2-eb63c07ea389 .title{text-anchor:middle}#chart-900e91c0-77d7-4831-a4a2-eb63c07ea389 .legends .legend text{fill-opacity:1}#chart-900e91c0-77d7-4831-a4a2-eb63c07ea389 .axis.x text{text-anchor:middle}#chart-900e91c0-77d7-4831-a4a2-eb63c07ea389 .axis.x:not(.web) text[transform]{text-anchor:start}#chart-900e91c0-77d7-4831-a4a2-eb63c07ea389 .axis.x:not(.web) text[transform].backwards{text-anchor:end}#chart-900e91c0-77d7-4831-a4a2-eb63c07ea389 .axis.y text{text-anchor:end}#chart-900e91c0-77d7-4831-a4a2-eb63c07ea389 .axis.y text[transform].backwards{text-anchor:start}#chart-900e91c0-77d7-4831-a4a2-eb63c07ea389 .axis.y2 text{text-anchor:start}#chart-900e91c0-77d7-4831-a4a2-eb63c07ea389 .axis.y2 text[transform].backwards{text-anchor:end}#chart-900e91c0-77d7-4831-a4a2-eb63c07ea389 .axis .guide.line{stroke-dasharray:4,4}#chart-900e91c0-77d7-4831-a4a2-eb63c07ea389 .axis .major.guide.line{stroke-dasharray:6,6}#chart-900e91c0-77d7-4831-a4a2-eb63c07ea389 .horizontal .axis.y .guide.line,#chart-900e91c0-77d7-4831-a4a2-eb63c07ea389 .horizontal .axis.y2 .guide.line,#chart-900e91c0-77d7-4831-a4a2-eb63c07ea389 .vertical .axis.x .guide.line{opacity:0}#chart-900e91c0-77d7-4831-a4a2-eb63c07ea389 .horizontal .axis.always_show .guide.line,#chart-900e91c0-77d7-4831-a4a2-eb63c07ea389 .vertical .axis.always_show .guide.line{opacity:1 !important}#chart-900e91c0-77d7-4831-a4a2-eb63c07ea389 .axis.y .guides:hover .guide.line,#chart-900e91c0-77d7-4831-a4a2-eb63c07ea389 .axis.y2 .guides:hover .guide.line,#chart-900e91c0-77d7-4831-a4a2-eb63c07ea389 .axis.x .guides:hover .guide.line{opacity:1}#chart-900e91c0-77d7-4831-a4a2-eb63c07ea389 .axis .guides:hover text{opacity:1}#chart-900e91c0-77d7-4831-a4a2-eb63c07ea389 .nofill{fill:none}#chart-900e91c0-77d7-4831-a4a2-eb63c07ea389 .subtle-fill{fill-opacity:.2}#chart-900e91c0-77d7-4831-a4a2-eb63c07ea389 .dot{stroke-width:1px;fill-opacity:1}#chart-900e91c0-77d7-4831-a4a2-eb63c07ea389 .dot.active{stroke-width:5px}#chart-900e91c0-77d7-4831-a4a2-eb63c07ea389 .dot.negative{fill:transparent}#chart-900e91c0-77d7-4831-a4a2-eb63c07ea389 text,#chart-900e91c0-77d7-4831-a4a2-eb63c07ea389 tspan{stroke:none !important}#chart-900e91c0-77d7-4831-a4a2-eb63c07ea389 .series text.active{opacity:1}#chart-900e91c0-77d7-4831-a4a2-eb63c07ea389 .tooltip rect{fill-opacity:.95;stroke-width:.5}#chart-900e91c0-77d7-4831-a4a2-eb63c07ea389 .tooltip text{fill-opacity:1}#chart-900e91c0-77d7-4831-a4a2-eb63c07ea389 .showable{visibility:hidden}#chart-900e91c0-77d7-4831-a4a2-eb63c07ea389 .showable.shown{visibility:visible}#chart-900e91c0-77d7-4831-a4a2-eb63c07ea389 .gauge-background{fill:rgba(229,229,229,1);stroke:none}#chart-900e91c0-77d7-4831-a4a2-eb63c07ea389 .bg-lines{stroke:rgba(249,249,249,1);stroke-width:2px}</style><script type="text/javascript">window.pygal = window.pygal || {};window.pygal.config = window.pygal.config || {};window.pygal.config['900e91c0-77d7-4831-a4a2-eb63c07ea389'] = {"allow_interruptions": false, "box_mode": "extremes", "classes": ["pygal-chart"], "css": ["file://style.css", "file://graph.css"], "defs": [], "disable_xml_declaration": false, "dots_size": 2.5, "dynamic_print_values": false, "explicit_size": false, "fill": false, "force_uri_protocol": "https", "formatter": null, "half_pie": false, "height": 600, "include_x_axis": false, "inner_radius": 0, "interpolate": null, "interpolation_parameters": {}, "interpolation_precision": 250, "inverse_y_axis": false, "js": ["//kozea.github.io/pygal.js/2.0.x/pygal-tooltips.min.js"], "legend_at_bottom": true, "legend_at_bottom_columns": null, "legend_box_size": 12, "logarithmic": false, "margin": 20, "margin_bottom": null, "margin_left": null, "margin_right": null, "margin_top": null, "max_scale": 16, "min_scale": 4, "missing_value_fill_truncation": "x", "no_data_text": "No data", "no_prefix": false, "order_min": null, "pretty_print": false, "print_labels": false, "print_values": false, "print_values_position": "center", "print_zeroes": true, "range": null, "rounded_bars": null, "secondary_range": null, "show_dots": true, "show_legend": true, "show_minor_x_labels": false, "show_minor_y_labels": true, "show_only_major_dots": false, "show_x_guides": false, "show_x_labels": true, "show_y_guides": true, "show_y_labels": true, "spacing": 10, "stack_from_top": false, "strict": false, "stroke": true, "stroke_style": null, "style": {"background": "rgba(249, 249, 249, 1)", "ci_colors": [], "colors": ["red", "blue", "green", "#a3a3a3"], "font_family": "Consolas, \"Liberation Mono\", Menlo, Courier, monospace", "foreground": "rgba(0, 0, 0, .87)", "foreground_strong": "rgba(0, 0, 0, 1)", "foreground_subtle": "rgba(0, 0, 0, .54)", "guide_stroke_dasharray": "4,4", "label_font_family": "Consolas, \"Liberation Mono\", Menlo, Courier, monospace", "label_font_size": 10, "legend_font_family": "Consolas, \"Liberation Mono\", Menlo, Courier, monospace", "legend_font_size": 14, "major_guide_stroke_dasharray": "6,6", "major_label_font_family": "Consolas, \"Liberation Mono\", Menlo, Courier, monospace", "major_label_font_size": 10, "no_data_font_family": "Consolas, \"Liberation Mono\", Menlo, Courier, monospace", "no_data_font_size": 64, "opacity": ".7", "opacity_hover": ".8", "plot_background": "rgba(255, 255, 255, 1)", "stroke_opacity": ".8", "stroke_opacity_hover": ".9", "title_font_family": "Consolas, \"Liberation Mono\", Menlo, Courier, monospace", "title_font_size": 16, "tooltip_font_family": "Consolas, \"Liberation Mono\", Menlo, Courier, monospace", "tooltip_font_size": 14, "transition": "150ms", "value_background": "rgba(229, 229, 229, 1)", "value_colors": [], "value_font_family": "Consolas, \"Liberation Mono\", Menlo, Courier, monospace", "value_font_size": 16, "value_label_font_family": "Consolas, \"Liberation Mono\", Menlo, Courier, monospace", "value_label_font_size": 10}, "title": "SC Ganguly: Future and Past Averages in ODIs", "tooltip_border_radius": 10, "tooltip_fancy_mode": true, "truncate_label": null, "truncate_legend": null, "width": 800, "x_label_rotation": 45, "x_labels": ["1996", "0", "0", "0", "1997", "0", "0", "0", "0", "0", "0", "0", "0", "0", "0", "0", "0", "0", "0", "0", "0", "0", "0", "0", "0", "0", "1998", "0", "0", "0", "0", "0", "0", "0", "0", "0", "0", "0", "0", "0", "0", "0", "1999", "0", "0", "0", "0", "0", "0", "0", "0", "0", "0", "0", "0", "0", "0", "0", "0", "0", "0", "0", "0", "0", "0", "0", "0", "0", "0", "0", "0", "0", "2000", "0", "0", "0", "0", "0", "0", "0", "0", "0", "0", "0", "0", "0", "0", "0", "2001", "0", "0", "0", "0", "0", "0", "0", "0", "0", "0", "0", "0", "0", "2002", "0", "0", "0", "0", "0", "0", "0", "0", "0", "0", "0", "0", "0", "0", "0", "0", "0", "0", "0", "0", "0", "0", "2003", "0", "0", "0", "0", "0", "0", "0", "0", "0", "0", "2004", "0", "0", "0", "0", "0", "0", "0", "0", "0", "0", "0", "0", "0", "0", "0", "2005", "0", "0", "2007", "0", "0", "0", "0", "0", "0", "0", "0", "0", "0", "0", "0", "0", "0", "0"], "x_labels_major": ["1996", "1997", "1998", "1999", "2000", "2001", "2002", "2003", "2004", "2005", "2007"], "x_labels_major_count": null, "x_labels_major_every": null, "x_title": null, "xrange": null, "y_label_rotation": 0, "y_labels": null, "y_labels_major": null, "y_labels_major_count": null, "y_labels_major_every": null, "y_title": null, "zero": 220.0, "legends": ["Future Average", "Past Average", "Career Average"]}</script><script type="text/javascript" xlink:href="https://kozea.github.io/pygal.js/2.0.x/pygal-tooltips.min.js"/></defs><title>SC Ganguly: Future and Past Averages in ODIs</title><g class="graph line-graph vertical"><rect class="background" height="600" width="800" x="0" y="0"/><g class="plot" transform="translate(48, 46)"><rect class="background" height="462.02943725152284" width="732.0" x="0" y="0"/><g class="axis y always_show"><g class="guides"><path class="axis major line" d="M0.000000 453.144256 h732.000000"/><text class="major" x="-5" y="456.6442557659166">0</text><title>0</title></g><g class="guides"><path class="guide line" d="M0.000000 412.386543 h732.000000"/><text class="" x="-5" y="415.88654252919093">20</text><title>20</title></g><g class="guides"><path class="guide line" d="M0.000000 371.628829 h732.000000"/><text class="" x="-5" y="375.1288292924652">40</text><title>40</title></g><g class="guides"><path class="guide line" d="M0.000000 330.871116 h732.000000"/><text class="" x="-5" y="334.37111605573944">60</text><title>60</title></g><g class="guides"><path class="guide line" d="M0.000000 290.113403 h732.000000"/><text class="" x="-5" y="293.61340281901374">80</text><title>80</title></g><g class="guides"><path class="major guide line" d="M0.000000 249.355690 h732.000000"/><text class="major" x="-5" y="252.85568958228802">100</text><title>100</title></g><g class="guides"><path class="guide line" d="M0.000000 208.597976 h732.000000"/><text class="" x="-5" y="212.0979763455623">120</text><title>120</title></g><g class="guides"><path class="guide line" d="M0.000000 167.840263 h732.000000"/><text class="" x="-5" y="171.34026310883655">140</text><title>140</title></g><g class="guides"><path class="guide line" d="M0.000000 127.082550 h732.000000"/><text class="" x="-5" y="130.5825498721108">160</text><title>160</title></g><g class="guides"><path class="guide line" d="M0.000000 86.324837 h732.000000"/><text class="" x="-5" y="89.82483663538505">180</text><title>180</title></g><g class="guides"><path class="major guide line" d="M0.000000 45.567123 h732.000000"/><text class="major" x="-5" y="49.06712339865942">200</text><title>200</title></g></g><g class="axis x"><g class="guides"><path class="major line" d="M14.076923 0.000000 v462.029437"/><text class="major" x="14.076923076923077" y="477.02943725152284" transform="rotate(45 14.076923 477.029437)">1996</text></g><g class="guides"><path class="major guide line" d="M30.638009 0.000000 v462.029437"/><text class="major" x="30.638009049773757" y="477.02943725152284" transform="rotate(45 30.638009 477.029437)">1997</text></g><g class="guides"><path class="major guide line" d="M121.723982 0.000000 v462.029437"/><text class="major" x="121.72398190045249" y="477.02943725152284" transform="rotate(45 121.723982 477.029437)">1998</text></g><g class="guides"><path class="major guide line" d="M187.968326 0.000000 v462.029437"/><text class="major" x="187.96832579185522" y="477.02943725152284" transform="rotate(45 187.968326 477.029437)">1999</text></g><g class="guides"><path class="major guide line" d="M312.176471 0.000000 v462.029437"/><text class="major" x="312.1764705882353" y="477.02943725152284" transform="rotate(45 312.176471 477.029437)">2000</text></g><g class="guides"><path class="major guide line" d="M378.420814 0.000000 v462.029437"/><text class="major" x="378.42081447963807" y="477.02943725152284" transform="rotate(45 378.420814 477.029437)">2001</text></g><g class="guides"><path class="major guide line" d="M436.384615 0.000000 v462.029437"/><text class="major" x="436.38461538461536" y="477.02943725152284" transform="rotate(45 436.384615 477.029437)">2002</text></g><g class="guides"><path class="major guide line" d="M531.610860 0.000000 v462.029437"/><text class="major" x="531.6108597285067" y="477.02943725152284" transform="rotate(45 531.610860 477.029437)">2003</text></g><g class="guides"><path class="major guide line" d="M577.153846 0.000000 v462.029437"/><text class="major" x="577.1538461538462" y="477.02943725152284" transform="rotate(45 577.153846 477.029437)">2004</text></g><g class="guides"><path class="major guide line" d="M643.398190 0.000000 v462.029437"/><text class="major" x="643.3981900452488" y="477.02943725152284" transform="rotate(45 643.398190 477.029437)">2005</text></g><g class="guides"><path class="major guide line" d="M655.819005 0.000000 v462.029437"/><text class="major" x="655.8190045248869" y="477.02943725152284" transform="rotate(45 655.819005 477.029437)">2007</text></g></g><g class="series serie-0 color-0"><path class="line reactive nofill" d="M14.076923 374.706037 L18.217195 374.991341 22.357466 375.276645 26.497738 375.684222 30.638009 375.908389 34.778281 376.132557 38.918552 376.336345 43.058824 376.866195 47.199095 377.375667 51.339367 377.762865 55.479638 378.251958 59.619910 378.007411 63.760181 378.394610 67.900452 377.436803 72.040724 376.173314 76.180995 375.378539 80.321267 371.323146 84.461538 370.120794 88.601810 368.938820 92.742081 369.448292 96.882353 370.385719 101.022624 371.078600 105.162896 371.404662 109.303167 371.384283 113.443439 371.323146 117.583710 371.098979 121.723982 371.730724 125.864253 372.056785 130.004525 372.260574 134.144796 372.382847 138.285068 372.810803 142.425339 371.649208 146.565611 371.751102 150.705882 372.280953 154.846154 372.668151 158.986425 373.198001 163.126697 373.585200 167.266968 373.768609 171.407240 371.526935 175.547511 371.465798 179.687783 373.157244 183.828054 374.379975 187.968326 374.706037 192.108597 375.052477 196.248869 374.502248 200.389140 375.052477 204.529412 371.200873 208.669683 371.751102 212.809955 372.505120 216.950226 371.180494 221.090498 371.771481 225.230769 372.199437 229.371041 372.708909 233.511312 371.995649 237.651584 371.445420 241.791855 372.892318 245.932127 374.033534 250.072398 371.139737 254.212670 370.834054 258.352941 371.323146 262.493213 370.120794 266.633484 371.160116 270.773756 371.771481 274.914027 372.158680 279.054299 372.566257 283.194570 372.994213 287.334842 370.161552 291.475113 370.711781 295.615385 371.282389 299.755656 371.812239 303.895928 371.547314 308.036199 372.199437 312.176471 371.812239 316.316742 371.302768 320.457014 371.893754 324.597285 372.708909 328.737557 371.323146 332.877828 372.056785 337.018100 368.572001 341.158371 369.224124 345.298643 369.917005 349.438914 370.080036 353.579186 371.506556 357.719457 370.039278 361.859729 370.589508 366.000000 371.995649 370.140271 370.956327 374.280543 371.669587 378.420814 363.803348 382.561086 362.417586 386.701357 363.232740 390.841629 361.887736 394.981900 363.334635 399.122172 359.768335 403.262443 359.340379 407.402715 359.768335 411.542986 353.634299 415.683258 349.517770 419.823529 350.944290 423.963801 352.167021 428.104072 352.921039 432.244344 353.838087 436.384615 355.142334 440.524887 353.797330 444.665158 352.493083 448.805430 346.746245 452.945701 348.091250 457.085973 343.322597 461.226244 344.830633 465.366516 343.485628 469.506787 344.158131 473.647059 345.788439 477.787330 343.954342 481.927602 341.671910 486.067873 344.341540 490.208145 345.217831 494.348416 344.015479 498.488688 346.623972 502.628959 347.826325 506.769231 348.743373 510.909502 350.129136 515.049774 348.152386 519.190045 349.008298 523.330317 351.351867 527.470588 352.309673 531.610860 349.619664 535.751131 347.072307 539.891403 344.687981 544.031674 345.706924 548.171946 347.296474 552.312217 329.098156 556.452489 333.724156 560.592760 335.619390 564.733032 336.169619 568.873303 322.882604 573.013575 324.920490 577.153846 326.489662 581.294118 332.745971 585.434389 333.683398 589.574661 309.065739 593.714932 259.259814 597.855204 268.858255 601.995475 270.325533 606.135747 272.934027 610.276018 277.009798 614.416290 283.999746 618.556561 288.360821 622.696833 298.264945 626.837104 304.378602 630.977376 309.330665 635.117647 311.939158 639.257919 317.482207 643.398190 324.757459 647.538462 333.499989 651.678733 335.823178 655.819005 342.813126 659.959276 346.888897 664.099548 339.022659 668.239819 325.165036 672.380090 330.871116 676.520362 336.984773 680.660633 347.581778 684.800905 293.516672 688.941176 307.781872 693.081448 319.316304 697.221719 104.665808 701.361991 192.294891 705.502262 218.787405 709.642534 233.052604 713.782805 281.961860 717.923077 394.045572"/></g><g class="series serie-1 color-1"><path class="line reactive nofill" d="M14.076923 453.144256 L18.217195 424.613857 22.357466 396.083457 26.497738 355.325744 30.638009 332.909002 34.778281 310.492259 38.918552 290.113403 43.058824 237.128376 47.199095 186.181234 51.339367 147.461406 55.479638 98.552151 59.619910 47.605009 63.760181 8.885181 67.900452 286.710134 72.040724 346.766624 76.180995 365.800476 80.321267 399.486726 84.461538 402.930753 88.601810 405.009396 92.742081 402.319387 96.882353 397.346946 101.022624 393.801025 105.162896 392.007686 109.303167 390.927607 113.443439 390.092073 117.583710 390.071695 121.723982 387.402064 125.864253 385.995923 130.004525 385.140011 134.144796 384.610161 138.285068 382.776064 142.425339 386.179333 146.565611 385.792135 150.705882 383.856143 154.846154 382.409244 158.986425 380.371359 163.126697 378.904081 167.266968 378.231579 171.407240 384.793571 175.547511 384.426751 179.687783 379.372795 183.828054 375.704601 187.968326 374.726415 192.108597 373.666715 196.248869 375.317402 200.389140 373.748230 204.529412 382.898337 208.669683 381.614469 212.809955 379.841509 216.950226 382.205456 221.090498 380.921588 225.230769 380.024918 229.371041 378.944839 233.511312 380.208328 237.651584 381.043861 241.791855 378.231579 245.932127 376.010283 250.072398 380.778936 254.212670 381.023482 258.352941 380.208328 262.493213 381.879394 266.633484 380.249086 270.773756 379.311658 274.914027 378.679914 279.054299 378.048169 283.194570 377.375667 287.334842 381.003103 291.475113 380.208328 295.615385 379.433931 299.755656 378.720671 303.895928 378.883702 308.036199 378.027790 312.176471 378.394610 316.316742 378.883702 320.457014 378.150063 324.597285 377.151499 328.737557 378.516883 332.877828 377.701729 337.018100 380.840072 341.158371 380.187949 345.298643 379.495068 349.438914 379.332037 353.579186 377.905517 357.719457 379.189385 361.859729 378.659535 366.000000 377.294151 370.140271 378.170442 374.280543 377.497940 378.420814 382.918716 382.561086 383.611597 386.701357 383.020610 390.841629 383.611597 394.981900 382.613033 399.122172 384.263720 403.262443 384.121068 407.402715 383.856143 411.542986 386.057060 415.683258 387.116760 419.823529 386.403500 423.963801 385.812513 428.104072 385.445694 432.244344 384.976980 436.384615 384.345236 440.524887 384.549024 444.665158 384.691676 448.805430 386.118196 452.945701 385.588346 457.085973 386.321985 461.226244 385.751377 465.366516 385.669862 469.506787 384.895465 473.647059 384.345236 477.787330 384.426751 481.927602 384.569403 486.067873 383.774628 490.208145 383.509703 494.348416 383.367051 498.488688 382.633412 502.628959 382.286971 506.769231 382.022046 510.909502 381.634848 515.049774 381.757121 519.190045 381.532954 523.330317 380.921588 527.470588 380.656663 531.610860 380.982724 535.751131 381.186513 539.891403 381.288407 544.031674 381.064240 548.171946 380.717799 552.312217 382.755685 556.452489 381.940531 560.592760 381.594090 564.733032 381.512575 568.873303 382.450002 573.013575 382.144319 577.153846 381.920152 581.294118 380.982724 585.434389 380.840072 589.574661 382.001667 593.714932 383.387430 597.855204 382.674170 601.995475 382.572275 606.135747 382.368487 610.276018 382.062804 614.416290 381.532954 618.556561 381.206892 622.696833 380.452874 626.837104 380.004539 630.977376 379.617341 635.117647 379.433931 639.257919 379.005975 643.398190 378.455746 647.538462 377.803623 651.678733 377.640592 655.819005 377.110742 659.959276 376.805059 664.099548 376.988469 668.239819 377.314530 672.380090 377.008847 676.520362 376.682786 680.660633 376.132557 684.800905 377.212636 688.941176 376.784680 693.081448 376.417861 697.221719 377.436803 701.361991 376.540134 705.502262 376.275209 709.642534 376.132557 713.782805 375.643464 717.923077 374.502248"/></g><g class="series serie-2 color-2"><path class="line reactive nofill" d="M14.076923 374.706037 L18.217195 374.706037 22.357466 374.706037 26.497738 374.706037 30.638009 374.706037 34.778281 374.706037 38.918552 374.706037 43.058824 374.706037 47.199095 374.706037 51.339367 374.706037 55.479638 374.706037 59.619910 374.706037 63.760181 374.706037 67.900452 374.706037 72.040724 374.706037 76.180995 374.706037 80.321267 374.706037 84.461538 374.706037 88.601810 374.706037 92.742081 374.706037 96.882353 374.706037 101.022624 374.706037 105.162896 374.706037 109.303167 374.706037 113.443439 374.706037 117.583710 374.706037 121.723982 374.706037 125.864253 374.706037 130.004525 374.706037 134.144796 374.706037 138.285068 374.706037 142.425339 374.706037 146.565611 374.706037 150.705882 374.706037 154.846154 374.706037 158.986425 374.706037 163.126697 374.706037 167.266968 374.706037 171.407240 374.706037 175.547511 374.706037 179.687783 374.706037 183.828054 374.706037 187.968326 374.706037 192.108597 374.706037 196.248869 374.706037 200.389140 374.706037 204.529412 374.706037 208.669683 374.706037 212.809955 374.706037 216.950226 374.706037 221.090498 374.706037 225.230769 374.706037 229.371041 374.706037 233.511312 374.706037 237.651584 374.706037 241.791855 374.706037 245.932127 374.706037 250.072398 374.706037 254.212670 374.706037 258.352941 374.706037 262.493213 374.706037 266.633484 374.706037 270.773756 374.706037 274.914027 374.706037 279.054299 374.706037 283.194570 374.706037 287.334842 374.706037 291.475113 374.706037 295.615385 374.706037 299.755656 374.706037 303.895928 374.706037 308.036199 374.706037 312.176471 374.706037 316.316742 374.706037 320.457014 374.706037 324.597285 374.706037 328.737557 374.706037 332.877828 374.706037 337.018100 374.706037 341.158371 374.706037 345.298643 374.706037 349.438914 374.706037 353.579186 374.706037 357.719457 374.706037 361.859729 374.706037 366.000000 374.706037 370.140271 374.706037 374.280543 374.706037 378.420814 374.706037 382.561086 374.706037 386.701357 374.706037 390.841629 374.706037 394.981900 374.706037 399.122172 374.706037 403.262443 374.706037 407.402715 374.706037 411.542986 374.706037 415.683258 374.706037 419.823529 374.706037 423.963801 374.706037 428.104072 374.706037 432.244344 374.706037 436.384615 374.706037 440.524887 374.706037 444.665158 374.706037 448.805430 374.706037 452.945701 374.706037 457.085973 374.706037 461.226244 374.706037 465.366516 374.706037 469.506787 374.706037 473.647059 374.706037 477.787330 374.706037 481.927602 374.706037 486.067873 374.706037 490.208145 374.706037 494.348416 374.706037 498.488688 374.706037 502.628959 374.706037 506.769231 374.706037 510.909502 374.706037 515.049774 374.706037 519.190045 374.706037 523.330317 374.706037 527.470588 374.706037 531.610860 374.706037 535.751131 374.706037 539.891403 374.706037 544.031674 374.706037 548.171946 374.706037 552.312217 374.706037 556.452489 374.706037 560.592760 374.706037 564.733032 374.706037 568.873303 374.706037 573.013575 374.706037 577.153846 374.706037 581.294118 374.706037 585.434389 374.706037 589.574661 374.706037 593.714932 374.706037 597.855204 374.706037 601.995475 374.706037 606.135747 374.706037 610.276018 374.706037 614.416290 374.706037 618.556561 374.706037 622.696833 374.706037 626.837104 374.706037 630.977376 374.706037 635.117647 374.706037 639.257919 374.706037 643.398190 374.706037 647.538462 374.706037 651.678733 374.706037 655.819005 374.706037 659.959276 374.706037 664.099548 374.706037 668.239819 374.706037 672.380090 374.706037 676.520362 374.706037 680.660633 374.706037 684.800905 374.706037 688.941176 374.706037 693.081448 374.706037 697.221719 374.706037 701.361991 374.706037 705.502262 374.706037 709.642534 374.706037 713.782805 374.706037 717.923077 374.706037"/></g></g><g class="titles"><text class="title plot_title" x="400.0" y="26">SC Ganguly: Future and Past Averages in ODIs</text></g><g class="plot overlay" transform="translate(48, 46)"><g class="series serie-0 color-0"><g class="dots"><desc class="label">100 wickets in 171 innings (760.1 overs)</desc><circle class="dot reactive tooltip-trigger" cx="14.076923076923077" cy="374.70603664183795" r="2.5"/><desc class="value">38.49</desc><desc class="x top">14.076923076923077</desc><desc class="y top">374.70603664183795</desc><desc class="x_label">1996</desc></g><g class="dots"><desc class="label">100 wickets in 167 innings (751.1 overs)</desc><circle class="dot reactive tooltip-trigger" cx="30.638009049773757" cy="375.9083891823214" r="2.5"/><desc class="value">37.9</desc><desc class="x top">30.638009049773757</desc><desc class="y top">375.9083891823214</desc><desc class="x_label">1997</desc></g><g class="dots"><desc class="label">81 wickets in 145 innings (628.0 overs)</desc><circle class="dot reactive tooltip-trigger" cx="121.72398190045249" cy="371.730723575557" r="2.5"/><desc class="value">39.95</desc><desc class="x top">121.72398190045249</desc><desc class="y top">371.730723575557</desc><desc class="x_label">1998</desc></g><g class="dots"><desc class="label">75 wickets in 129 innings (557.0 overs)</desc><circle class="dot reactive tooltip-trigger" cx="187.96832579185522" cy="374.70603664183795" r="2.5"/><desc class="value">38.49</desc><desc class="x top">187.96832579185522</desc><desc class="y top">374.70603664183795</desc><desc class="x_label">1999</desc></g><g class="dots"><desc class="label">56 wickets in 99 innings (435.2 overs)</desc><circle class="dot reactive tooltip-trigger" cx="312.1764705882353" cy="371.8122390020305" r="2.5"/><desc class="value">39.91</desc><desc class="x top">312.1764705882353</desc><desc class="y top">371.8122390020305</desc><desc class="x_label">2000</desc></g><g class="dots"><desc class="label">43 wickets in 83 innings (371.3 overs)</desc><circle class="dot reactive tooltip-trigger" cx="378.42081447963807" cy="363.8033483510138" r="2.5"/><desc class="value">43.84</desc><desc class="x left top">378.42081447963807</desc><desc class="y left top">363.8033483510138</desc><desc class="x_label">2001</desc></g><g class="dots"><desc class="label">33 wickets in 69 innings (304.3 overs)</desc><circle class="dot reactive tooltip-trigger" cx="436.38461538461536" cy="355.1423342882096" r="2.5"/><desc class="value">48.09</desc><desc class="x left top">436.38461538461536</desc><desc class="y left top">355.1423342882096</desc><desc class="x_label">2002</desc></g><g class="dots"><desc class="label">20 wickets in 46 innings (196.1 overs)</desc><circle class="dot reactive tooltip-trigger" cx="531.6108597285067" cy="349.6196641446333" r="2.5"/><desc class="value">50.8</desc><desc class="x left top">531.6108597285067</desc><desc class="y left top">349.6196641446333</desc><desc class="x_label">2003</desc></g><g class="dots"><desc class="label">13 wickets in 35 innings (147.0 overs)</desc><circle class="dot reactive tooltip-trigger" cx="577.1538461538462" cy="326.48966188279144" r="2.5"/><desc class="value">62.15</desc><desc class="x left top">577.1538461538462</desc><desc class="y left top">326.48966188279144</desc><desc class="x_label">2004</desc></g><g class="dots"><desc class="label">7 wickets in 19 innings (83.0 overs)</desc><circle class="dot reactive tooltip-trigger" cx="643.3981900452488" cy="324.7574590702306" r="2.5"/><desc class="value">63</desc><desc class="x left top">643.3981900452488</desc><desc class="y left top">324.7574590702306</desc><desc class="x_label">2005</desc></g><g class="dots"><desc class="label">7 wickets in 16 innings (73.0 overs)</desc><circle class="dot reactive tooltip-trigger" cx="655.8190045248869" cy="342.8131260341001" r="2.5"/><desc class="value">54.14</desc><desc class="x left top">655.8190045248869</desc><desc class="y left top">342.8131260341001</desc><desc class="x_label">2007</desc></g></g><g class="series serie-1 color-1"><g class="dots"><desc class="label">0 wickets over 0 innings</desc><circle class="dot reactive tooltip-trigger" cx="14.076923076923077" cy="453.1442557659166" r="2.5"/><desc class="value">0</desc><desc class="x top">14.076923076923077</desc><desc class="y top">453.1442557659166</desc><desc class="x_label">1996</desc></g><g class="dots"><desc class="label">0 wickets in 4 innings (9.0 overs)</desc><circle class="dot reactive tooltip-trigger" cx="30.638009049773757" cy="332.90900171757573" r="2.5"/><desc class="value">59</desc><desc class="x top">30.638009049773757</desc><desc class="y top">332.90900171757573</desc><desc class="x_label">1997</desc></g><g class="dots"><desc class="label">19 wickets in 26 innings (132.1 overs)</desc><circle class="dot reactive tooltip-trigger" cx="121.72398190045249" cy="387.40206431507806" r="2.5"/><desc class="value">32.26</desc><desc class="x top">121.72398190045249</desc><desc class="y top">387.40206431507806</desc><desc class="x_label">1998</desc></g><g class="dots"><desc class="label">25 wickets in 42 innings (203.1 overs)</desc><circle class="dot reactive tooltip-trigger" cx="187.96832579185522" cy="374.72641549845633" r="2.5"/><desc class="value">38.48</desc><desc class="x top">187.96832579185522</desc><desc class="y top">374.72641549845633</desc><desc class="x_label">1999</desc></g><g class="dots"><desc class="label">44 wickets in 72 innings (324.5 overs)</desc><circle class="dot reactive tooltip-trigger" cx="312.1764705882353" cy="378.39460968976164" r="2.5"/><desc class="value">36.68</desc><desc class="x top">312.1764705882353</desc><desc class="y top">378.39460968976164</desc><desc class="x_label">2000</desc></g><g class="dots"><desc class="label">57 wickets in 88 innings (388.4 overs)</desc><circle class="dot reactive tooltip-trigger" cx="378.42081447963807" cy="382.91871585903823" r="2.5"/><desc class="value">34.46</desc><desc class="x left top">378.42081447963807</desc><desc class="y left top">382.91871585903823</desc><desc class="x_label">2001</desc></g><g class="dots"><desc class="label">67 wickets in 102 innings (455.4 overs)</desc><circle class="dot reactive tooltip-trigger" cx="436.38461538461536" cy="384.3452358223236" r="2.5"/><desc class="value">33.76</desc><desc class="x left top">436.38461538461536</desc><desc class="y left top">384.3452358223236</desc><desc class="x_label">2002</desc></g><g class="dots"><desc class="label">80 wickets in 125 innings (564.0 overs)</desc><circle class="dot reactive tooltip-trigger" cx="531.6108597285067" cy="380.98272448029377" r="2.5"/><desc class="value">35.41</desc><desc class="x left top">531.6108597285067</desc><desc class="y left top">380.98272448029377</desc><desc class="x_label">2003</desc></g><g class="dots"><desc class="label">87 wickets in 136 innings (613.1 overs)</desc><circle class="dot reactive tooltip-trigger" cx="577.1538461538462" cy="381.9201518847384" r="2.5"/><desc class="value">34.95</desc><desc class="x left top">577.1538461538462</desc><desc class="y left top">381.9201518847384</desc><desc class="x_label">2004</desc></g><g class="dots"><desc class="label">93 wickets in 152 innings (677.1 overs)</desc><circle class="dot reactive tooltip-trigger" cx="643.3981900452488" cy="378.4557462596167" r="2.5"/><desc class="value">36.65</desc><desc class="x left top">643.3981900452488</desc><desc class="y left top">378.4557462596167</desc><desc class="x_label">2005</desc></g><g class="dots"><desc class="label">93 wickets in 155 innings (687.1 overs)</desc><circle class="dot reactive tooltip-trigger" cx="655.8190045248869" cy="377.1107417228048" r="2.5"/><desc class="value">37.31</desc><desc class="x left top">655.8190045248869</desc><desc class="y left top">377.1107417228048</desc><desc class="x_label">2007</desc></g></g><g class="series serie-2 color-2"/></g><g class="plot text-overlay" transform="translate(48, 46)"><g class="series serie-0 color-0"/><g class="series serie-1 color-1"/><g class="series serie-2 color-2"/></g><g class="plot tooltip-overlay" transform="translate(48, 46)"><g class="tooltip" style="opacity: 0" transform="translate(0 0)"><rect class="tooltip-box" height="0" rx="10" ry="10" width="0"/><g class="text"/></g></g><g class="legends" transform="translate(58, 545)"><g class="legend reactive activate-serie" id="activate-serie-0"><rect class="color-0 reactive" height="12" width="12" x="0.0" y="1.0"/><text x="17.0" y="11.2">Future Average</text></g><g class="legend reactive activate-serie" id="activate-serie-1"><rect class="color-1 reactive" height="12" width="12" x="366.0" y="1.0"/><text x="383.0" y="11.2">Past Average</text></g><g class="legend reactive activate-serie" id="activate-serie-2"><rect class="color-2 reactive" height="12" width="12" x="0.0" y="22.0"/><text x="17.0" y="32.2">Career Average</text></g></g></g></svg>