<?xml version='1.0' encoding='utf-8'?>
<svg xmlns:xlink="http://www.w3.org/1999/xlink" xmlns="http://www.w3.org/2000/svg" id="chart-e7cd9976-ba6a-4066-92b2-9f41df727dde" class="pygal-chart" viewBox="0 0 800 600"><!--Generated with pygal 2.4.0 (lxml) ©Kozea 2012-2016 on 2019-08-02--><!--http://pygal.org--><!--http://github.com/Kozea/pygal--><defs><style type="text/css">#chart-e7cd9976-ba6a-4066-92b2-9f41df727dde{-webkit-user-select:none;-webkit-font-smoothing:antialiased;font-family:Consolas,"Liberation Mono",Menlo,Courier,monospace}#chart-e7cd9976-ba6a-4066-92b2-9f41df727dde .title{font-family:Consolas,"Liberation Mono",Menlo,Courier,monospace;font-size:16px}#chart-e7cd9976-ba6a-4066-92b2-9f41df727dde .legends .legend text{font-family:Consolas,"Liberation Mono",Menlo,Courier,monospace;font-size:14px}#chart-e7cd9976-ba6a-4066-92b2-9f41df727dde .axis text{font-family:Consolas,"Liberation Mono",Menlo,Courier,monospace;font-size:10px}#chart-e7cd9976-ba6a-4066-92b2-9f41df727dde .axis text.major{font-family:Consolas,"Liberation Mono",Menlo,Courier,monospace;font-size:10px}#chart-e7cd9976-ba6a-4066-92b2-9f41df727dde .text-overlay text.value{font-family:Consolas,"Liberation Mono",Menlo,Courier,monospace;font-size:16px}#chart-e7cd9976-ba6a-4066-92b2-9f41df727dde .text-overlay text.label{font-family:Consolas,"Liberation Mono",Menlo,Courier,monospace;font-size:10px}#chart-e7cd9976-ba6a-4066-92b2-9f41df727dde .tooltip{font-family:Consolas,"Liberation Mono",Menlo,Courier,monospace;font-size:14px}#chart-e7cd9976-ba6a-4066-92b2-9f41df727dde text.no_data{font-family:Consolas,"Liberation Mono",Menlo,Courier,monospace;font-size:64px}
#chart-e7cd9976-ba6a-4066-92b2-9f41df727dde{background-color:rgba(249,249,249,1)}#chart-e7cd9976-ba6a-4066-92b2-9f41df727dde path,#chart-e7cd9976-ba6a-4066-92b2-9f41df727dde line,#chart-e7cd9976-ba6a-4066-92b2-9f41df727dde rect,#chart-e7cd9976-ba6a-4066-92b2-9f41df727dde circle{-webkit-transition:150ms;-moz-transition:150ms;transition:150ms}#chart-e7cd9976-ba6a-4066-92b2-9f41df727dde .graph &gt; .background{fill:rgba(249,249,249,1)}#chart-e7cd9976-ba6a-4066-92b2-9f41df727dde .plot &gt; .background{fill:rgba(255,255,255,1)}#chart-e7cd9976-ba6a-4066-92b2-9f41df727dde .graph{fill:rgba(0,0,0,.87)}#chart-e7cd9976-ba6a-4066-92b2-9f41df727dde text.no_data{fill:rgba(0,0,0,1)}#chart-e7cd9976-ba6a-4066-92b2-9f41df727dde .title{fill:rgba(0,0,0,1)}#chart-e7cd9976-ba6a-4066-92b2-9f41df727dde .legends .legend text{fill:rgba(0,0,0,.87)}#chart-e7cd9976-ba6a-4066-92b2-9f41df727dde .legends .legend:hover text{fill:rgba(0,0,0,1)}#chart-e7cd9976-ba6a-4066-92b2-9f41df727dde .axis .line{stroke:rgba(0,0,0,1)}#chart-e7cd9976-ba6a-4066-92b2-9f41df727dde .axis .guide.line{stroke:rgba(0,0,0,.54)}#chart-e7cd9976-ba6a-4066-92b2-9f41df727dde .axis .major.line{stroke:rgba(0,0,0,.87)}#chart-e7cd9976-ba6a-4066-92b2-9f41df727dde .axis text.major{fill:rgba(0,0,0,1)}#chart-e7cd9976-ba6a-4066-92b2-9f41df727dde .axis.y .guides:hover .guide.line,#chart-e7cd9976-ba6a-4066-92b2-9f41df727dde .line-graph .axis.x .guides:hover .guide.line,#chart-e7cd9976-ba6a-4066-92b2-9f41df727dde .stackedline-graph .axis.x .guides:hover .guide.line,#chart-e7cd9976-ba6a-4066-92b2-9f41df727dde .xy-graph .axis.x .guides:hover .guide.line{stroke:rgba(0,0,0,1)}#chart-e7cd9976-ba6a-4066-92b2-9f41df727dde .axis .guides:hover text{fill:rgba(0,0,0,1)}#chart-e7cd9976-ba6a-4066-92b2-9f41df727dde .reactive{fill-opacity:.7;stroke-opacity:.8}#chart-e7cd9976-ba6a-4066-92b2-9f41df727dde .ci{stroke:rgba(0,0,0,.87)}#chart-e7cd9976-ba6a-4066-92b2-9f41df727dde .reactive.active,#chart-e7cd9976-ba6a-4066-92b2-9f41df727dde .active .reactive{fill-opacity:.8;stroke-opacity:.9;stroke-width:4}#chart-e7cd9976-ba6a-4066-92b2-9f41df727dde .ci .reactive.active{stroke-width:1.5}#chart-e7cd9976-ba6a-4066-92b2-9f41df727dde .series text{fill:rgba(0,0,0,1)}#chart-e7cd9976-ba6a-4066-92b2-9f41df727dde .tooltip rect{fill:rgba(255,255,255,1);stroke:rgba(0,0,0,1);-webkit-transition:opacity 150ms;-moz-transition:opacity 150ms;transition:opacity 150ms}#chart-e7cd9976-ba6a-4066-92b2-9f41df727dde .tooltip .label{fill:rgba(0,0,0,.87)}#chart-e7cd9976-ba6a-4066-92b2-9f41df727dde .tooltip .label{fill:rgba(0,0,0,.87)}#chart-e7cd9976-ba6a-4066-92b2-9f41df727dde .tooltip .legend{font-size:.8em;fill:rgba(0,0,0,.54)}#chart-e7cd9976-ba6a-4066-92b2-9f41df727dde .tooltip .x_label{font-size:.6em;fill:rgba(0,0,0,1)}#chart-e7cd9976-ba6a-4066-92b2-9f41df727dde .tooltip .xlink{font-size:.5em;text-decoration:underline}#chart-e7cd9976-ba6a-4066-92b2-9f41df727dde .tooltip .value{font-size:1.5em}#chart-e7cd9976-ba6a-4066-92b2-9f41df727dde .bound{font-size:.5em}#chart-e7cd9976-ba6a-4066-92b2-9f41df727dde .max-value{font-size:.75em;fill:rgba(0,0,0,.54)}#chart-e7cd9976-ba6a-4066-92b2-9f41df727dde .map-element{fill:rgba(255,255,255,1);stroke:rgba(0,0,0,.54) !important}#chart-e7cd9976-ba6a-4066-92b2-9f41df727dde .map-element .reactive{fill-opacity:inherit;stroke-opacity:inherit}#chart-e7cd9976-ba6a-4066-92b2-9f41df727dde .color-0,#chart-e7cd9976-ba6a-4066-92b2-9f41df727dde .color-0 a:visited{stroke:#F44336;fill:#F44336}#chart-e7cd9976-ba6a-4066-92b2-9f41df727dde .color-1,#chart-e7cd9976-ba6a-4066-92b2-9f41df727dde .color-1 a:visited{stroke:#3F51B5;fill:#3F51B5}#chart-e7cd9976-ba6a-4066-92b2-9f41df727dde .color-2,#chart-e7cd9976-ba6a-4066-92b2-9f41df727dde .color-2 a:visited{stroke:#009688;fill:#009688}#chart-e7cd9976-ba6a-4066-92b2-9f41df727dde .text-overlay .color-0 text{fill:black}#chart-e7cd9976-ba6a-4066-92b2-9f41df727dde .text-overlay .color-1 text{fill:black}#chart-e7cd9976-ba6a-4066-92b2-9f41df727dde .text-overlay .color-2 text{fill:black}
#chart-e7cd9976-ba6a-4066-92b2-9f41df727dde text.no_data{text-anchor:middle}#chart-e7cd9976-ba6a-4066-92b2-9f41df727dde .guide.line{fill:none}#chart-e7cd9976-ba6a-4066-92b2-9f41df727dde .centered{text-anchor:middle}#chart-e7cd9976-ba6a-4066-92b2-9f41df727dde .title{text-anchor:middle}#chart-e7cd9976-ba6a-4066-92b2-9f41df727dde .legends .legend text{fill-opacity:1}#chart-e7cd9976-ba6a-4066-92b2-9f41df727dde .axis.x text{text-anchor:middle}#chart-e7cd9976-ba6a-4066-92b2-9f41df727dde .axis.x:not(.web) text[transform]{text-anchor:start}#chart-e7cd9976-ba6a-4066-92b2-9f41df727dde .axis.x:not(.web) text[transform].backwards{text-anchor:end}#chart-e7cd9976-ba6a-4066-92b2-9f41df727dde .axis.y text{text-anchor:end}#chart-e7cd9976-ba6a-4066-92b2-9f41df727dde .axis.y text[transform].backwards{text-anchor:start}#chart-e7cd9976-ba6a-4066-92b2-9f41df727dde .axis.y2 text{text-anchor:start}#chart-e7cd9976-ba6a-4066-92b2-9f41df727dde .axis.y2 text[transform].backwards{text-anchor:end}#chart-e7cd9976-ba6a-4066-92b2-9f41df727dde .axis .guide.line{stroke-dasharray:4,4}#chart-e7cd9976-ba6a-4066-92b2-9f41df727dde .axis .major.guide.line{stroke-dasharray:6,6}#chart-e7cd9976-ba6a-4066-92b2-9f41df727dde .horizontal .axis.y .guide.line,#chart-e7cd9976-ba6a-4066-92b2-9f41df727dde .horizontal .axis.y2 .guide.line,#chart-e7cd9976-ba6a-4066-92b2-9f41df727dde .vertical .axis.x .guide.line{opacity:0}#chart-e7cd9976-ba6a-4066-92b2-9f41df727dde .horizontal .axis.always_show .guide.line,#chart-e7cd9976-ba6a-4066-92b2-9f41df727dde .vertical .axis.always_show .guide.line{opacity:1 !important}#chart-e7cd9976-ba6a-4066-92b2-9f41df727dde .axis.y .guides:hover .guide.line,#chart-e7cd9976-ba6a-4066-92b2-9f41df727dde .axis.y2 .guides:hover .guide.line,#chart-e7cd9976-ba6a-4066-92b2-9f41df727dde .axis.x .guides:hover .guide.line{opacity:1}#chart-e7cd9976-ba6a-4066-92b2-9f41df727dde .axis .guides:hover text{opacity:1}#chart-e7cd9976-ba6a-4066-92b2-9f41df727dde .nofill{fill:none}#chart-e7cd9976-ba6a-4066-92b2-9f41df727dde .subtle-fill{fill-opacity:.2}#chart-e7cd9976-ba6a-4066-92b2-9f41df727dde .dot{stroke-width:1px;fill-opacity:1}#chart-e7cd9976-ba6a-4066-92b2-9f41df727dde .dot.active{stroke-width:5px}#chart-e7cd9976-ba6a-4066-92b2-9f41df727dde .dot.negative{fill:transparent}#chart-e7cd9976-ba6a-4066-92b2-9f41df727dde text,#chart-e7cd9976-ba6a-4066-92b2-9f41df727dde tspan{stroke:none !important}#chart-e7cd9976-ba6a-4066-92b2-9f41df727dde .series text.active{opacity:1}#chart-e7cd9976-ba6a-4066-92b2-9f41df727dde .tooltip rect{fill-opacity:.95;stroke-width:.5}#chart-e7cd9976-ba6a-4066-92b2-9f41df727dde .tooltip text{fill-opacity:1}#chart-e7cd9976-ba6a-4066-92b2-9f41df727dde .showable{visibility:hidden}#chart-e7cd9976-ba6a-4066-92b2-9f41df727dde .showable.shown{visibility:visible}#chart-e7cd9976-ba6a-4066-92b2-9f41df727dde .gauge-background{fill:rgba(229,229,229,1);stroke:none}#chart-e7cd9976-ba6a-4066-92b2-9f41df727dde .bg-lines{stroke:rgba(249,249,249,1);stroke-width:2px}</style><script type="text/javascript">window.pygal = window.pygal || {};window.pygal.config = window.pygal.config || {};window.pygal.config['e7cd9976-ba6a-4066-92b2-9f41df727dde'] = {"allow_interruptions": false, "box_mode": "extremes", "classes": ["pygal-chart"], "css": ["file://style.css", "file://graph.css"], "defs": [], "disable_xml_declaration": false, "dots_size": 2.5, "dynamic_print_values": false, "explicit_size": false, "fill": false, "force_uri_protocol": "https", "formatter": null, "half_pie": false, "height": 600, "include_x_axis": false, "inner_radius": 0, "interpolate": null, "interpolation_parameters": {}, "interpolation_precision": 250, "inverse_y_axis": false, "js": ["//kozea.github.io/pygal.js/2.0.x/pygal-tooltips.min.js"], "legend_at_bottom": true, "legend_at_bottom_columns": null, "legend_box_size": 12, "logarithmic": false, "margin": 20, "margin_bottom": null, "margin_left": null, "margin_right": null, "margin_top": null, "max_scale": 16, "min_scale": 4, "missing_value_fill_truncation": "x", "no_data_text": "No data", "no_prefix": false, "order_min": null, "pretty_print": false, "print_labels": false, "print_values": false, "print_values_position": "center", "print_zeroes": true, "range": null, "rounded_bars": null, "secondary_range": null, "show_dots": true, "show_legend": true, "show_minor_x_labels": false, "show_minor_y_labels": true, "show_only_major_dots": false, "show_x_guides": false, "show_x_labels": true, "show_y_guides": true, "show_y_labels": true, "spacing": 10, "stack_from_top": false, "strict": false, "stroke": true, "stroke_style": null, "style": {"background": "rgba(249, 249, 249, 1)", "ci_colors": [], "colors": ["#F44336", "#3F51B5", "#009688", "#FFC107", "#FF5722", "#9C27B0", "#03A9F4", "#8BC34A", "#FF9800", "#E91E63", "#2196F3", "#4CAF50", "#FFEB3B", "#673AB7", "#00BCD4", "#CDDC39", "#9E9E9E", "#607D8B"], "font_family": "Consolas, \"Liberation Mono\", Menlo, Courier, monospace", "foreground": "rgba(0, 0, 0, .87)", "foreground_strong": "rgba(0, 0, 0, 1)", "foreground_subtle": "rgba(0, 0, 0, .54)", "guide_stroke_dasharray": "4,4", "label_font_family": "Consolas, \"Liberation Mono\", Menlo, Courier, monospace", "label_font_size": 10, "legend_font_family": "Consolas, \"Liberation Mono\", Menlo, Courier, monospace", "legend_font_size": 14, "major_guide_stroke_dasharray": "6,6", "major_label_font_family": "Consolas, \"Liberation Mono\", Menlo, Courier, monospace", "major_label_font_size": 10, "no_data_font_family": "Consolas, \"Liberation Mono\", Menlo, Courier, monospace", "no_data_font_size": 64, "opacity": ".7", "opacity_hover": ".8", "plot_background": "rgba(255, 255, 255, 1)", "stroke_opacity": ".8", "stroke_opacity_hover": ".9", "title_font_family": "Consolas, \"Liberation Mono\", Menlo, Courier, monospace", "title_font_size": 16, "tooltip_font_family": "Consolas, \"Liberation Mono\", Menlo, Courier, monospace", "tooltip_font_size": 14, "transition": "150ms", "value_background": "rgba(229, 229, 229, 1)", "value_colors": [], "value_font_family": "Consolas, \"Liberation Mono\", Menlo, Courier, monospace", "value_font_size": 16, "value_label_font_family": "Consolas, \"Liberation Mono\", Menlo, Courier, monospace", "value_label_font_size": 10}, "title": "SC Williams: Future and Past Averages in ODIs", "tooltip_border_radius": 10, "tooltip_fancy_mode": true, "truncate_label": null, "truncate_legend": null, "width": 800, "x_label_rotation": 45, "x_labels": ["2005", "0", "0", "2006", "0", "0", "0", "0", "2007", "0", "0", "0", "0", "0", "0", "0", "0", "2008", "0", "0", "0", "2009", "0", "0", "0", "0", "2010", "0", "0", "2011", "0", "2013", "0", "0", "0", "0", "0", "0", "0", "2014", "0", "0", "0", "0", "0", "0", "0", "0", "0", "0", "2015", "0", "0", "0", "0", "0", "0", "0", "0", "0", "0", "0", "0", "0", "0", "0", "0", "0", "0", "0", "0", "0", "0", "0", "2016", "0", "0", "2017", "0", "0", "0", "0", "0", "0", "0", "0", "0", "2018", "0", "0", "0", "0", "0", "0", "0", "0", "0", "0", "2019", "0", "0", "0", "0", "0", "0", "0", "0"], "x_labels_major": ["2005", "2006", "2007", "2008", "2009", "2010", "2011", "2013", "2014", "2015", "2016", "2017", "2018", "2019"], "x_labels_major_count": null, "x_labels_major_every": null, "x_title": null, "xrange": null, "y_label_rotation": 0, "y_labels": null, "y_labels_major": null, "y_labels_major_count": null, "y_labels_major_every": null, "y_title": null, "zero": 0, "legends": ["Future Average", "Past Average", "Career Average"]}</script><script type="text/javascript" xlink:href="https://kozea.github.io/pygal.js/2.0.x/pygal-tooltips.min.js"/></defs><title>SC Williams: Future and Past Averages in ODIs</title><g class="graph line-graph vertical"><rect class="background" height="600" width="800" x="0" y="0"/><g class="plot" transform="translate(48, 46)"><rect class="background" height="462.02943725152284" width="732.0" x="0" y="0"/><g class="axis y always_show"><g class="guides"><path class="axis major line" d="M0.000000 453.144256 h732.000000"/><text class="major" x="-5" y="456.6442557659166">0</text><title>0</title></g><g class="guides"><path class="guide line" d="M0.000000 415.010430 h732.000000"/><text class="" x="-5" y="418.51042964743505">10</text><title>10</title></g><g class="guides"><path class="guide line" d="M0.000000 376.876604 h732.000000"/><text class="" x="-5" y="380.37660352895347">20</text><title>20</title></g><g class="guides"><path class="guide line" d="M0.000000 338.742777 h732.000000"/><text class="" x="-5" y="342.2427774104719">30</text><title>30</title></g><g class="guides"><path class="guide line" d="M0.000000 300.608951 h732.000000"/><text class="" x="-5" y="304.1089512919903">40</text><title>40</title></g><g class="guides"><path class="major guide line" d="M0.000000 262.475125 h732.000000"/><text class="major" x="-5" y="265.9751251735087">50</text><title>50</title></g><g class="guides"><path class="guide line" d="M0.000000 224.341299 h732.000000"/><text class="" x="-5" y="227.84129905502715">60</text><title>60</title></g><g class="guides"><path class="guide line" d="M0.000000 186.207473 h732.000000"/><text class="" x="-5" y="189.70747293654557">70</text><title>70</title></g><g class="guides"><path class="guide line" d="M0.000000 148.073647 h732.000000"/><text class="" x="-5" y="151.573646818064">80</text><title>80</title></g><g class="guides"><path class="guide line" d="M0.000000 109.939821 h732.000000"/><text class="" x="-5" y="113.43982069958241">90</text><title>90</title></g><g class="guides"><path class="major guide line" d="M0.000000 71.805995 h732.000000"/><text class="major" x="-5" y="75.30599458110078">100</text><title>100</title></g><g class="guides"><path class="guide line" d="M0.000000 33.672168 h732.000000"/><text class="" x="-5" y="37.1721684626192">110</text><title>110</title></g></g><g class="axis x"><g class="guides"><path class="major line" d="M14.076923 0.000000 v462.029437"/><text class="major" x="14.076923076923077" y="477.02943725152284" transform="rotate(45 14.076923 477.029437)">2005</text></g><g class="guides"><path class="major guide line" d="M33.997097 0.000000 v462.029437"/><text class="major" x="33.997097242380256" y="477.02943725152284" transform="rotate(45 33.997097 477.029437)">2006</text></g><g class="guides"><path class="major guide line" d="M67.197388 0.000000 v462.029437"/><text class="major" x="67.19738751814224" y="477.02943725152284" transform="rotate(45 67.197388 477.029437)">2007</text></g><g class="guides"><path class="major guide line" d="M126.957910 0.000000 v462.029437"/><text class="major" x="126.95791001451376" y="477.02943725152284" transform="rotate(45 126.957910 477.029437)">2008</text></g><g class="guides"><path class="major guide line" d="M153.518142 0.000000 v462.029437"/><text class="major" x="153.51814223512335" y="477.02943725152284" transform="rotate(45 153.518142 477.029437)">2009</text></g><g class="guides"><path class="major guide line" d="M186.718433 0.000000 v462.029437"/><text class="major" x="186.71843251088535" y="477.02943725152284" transform="rotate(45 186.718433 477.029437)">2010</text></g><g class="guides"><path class="major guide line" d="M206.638607 0.000000 v462.029437"/><text class="major" x="206.63860667634253" y="477.02943725152284" transform="rotate(45 206.638607 477.029437)">2011</text></g><g class="guides"><path class="major guide line" d="M219.918723 0.000000 v462.029437"/><text class="major" x="219.91872278664732" y="477.02943725152284" transform="rotate(45 219.918723 477.029437)">2013</text></g><g class="guides"><path class="major guide line" d="M273.039187 0.000000 v462.029437"/><text class="major" x="273.0391872278664" y="477.02943725152284" transform="rotate(45 273.039187 477.029437)">2014</text></g><g class="guides"><path class="major guide line" d="M346.079826 0.000000 v462.029437"/><text class="major" x="346.0798258345428" y="477.02943725152284" transform="rotate(45 346.079826 477.029437)">2015</text></g><g class="guides"><path class="major guide line" d="M505.441219 0.000000 v462.029437"/><text class="major" x="505.4412191582003" y="477.02943725152284" transform="rotate(45 505.441219 477.029437)">2016</text></g><g class="guides"><path class="major guide line" d="M525.361393 0.000000 v462.029437"/><text class="major" x="525.3613933236575" y="477.02943725152284" transform="rotate(45 525.361393 477.029437)">2017</text></g><g class="guides"><path class="major guide line" d="M591.761974 0.000000 v462.029437"/><text class="major" x="591.7619738751814" y="477.02943725152284" transform="rotate(45 591.761974 477.029437)">2018</text></g><g class="guides"><path class="major guide line" d="M664.802612 0.000000 v462.029437"/><text class="major" x="664.8026124818578" y="477.02943725152284" transform="rotate(45 664.802612 477.029437)">2019</text></g></g><g class="series serie-0 color-0"><path class="line reactive nofill" d="M14.076923 275.898232 L20.716981 276.775310 27.357039 279.063340 33.997097 280.664960 40.637155 279.635347 47.277213 278.453198 53.917271 280.398023 60.557329 281.427637 67.197388 282.266581 73.837446 283.639399 80.477504 277.271050 87.117562 278.987072 93.757620 280.283622 100.397678 278.834537 107.037736 279.826016 113.677794 279.559079 120.317852 277.423585 126.957910 278.758269 133.597968 280.931897 140.238026 282.686053 146.878084 281.427637 153.518142 282.037778 160.158200 282.762321 166.798258 283.677532 173.438316 284.630878 180.078374 284.859681 186.718433 285.469822 193.358491 285.164752 199.998549 286.308766 206.638607 287.185844 213.278665 288.978134 219.918723 289.664543 226.558781 288.787465 233.198839 289.931480 239.838897 289.359473 246.478955 290.732290 253.119013 291.876305 259.759071 293.058454 266.399129 293.821130 273.039187 295.575286 279.679245 298.549725 286.319303 300.342015 292.959361 297.215041 299.599419 297.215041 306.239478 300.608951 312.879536 297.558245 319.519594 294.698208 326.159652 295.994758 332.799710 298.702260 339.439768 294.126201 346.079826 293.821130 352.719884 297.253175 359.359942 294.126201 366.000000 298.015851 372.640058 295.193948 379.280116 290.427220 385.920174 293.249123 392.560232 297.062505 399.200290 301.867368 405.840348 305.680750 412.480406 307.244237 419.120464 309.341597 425.760522 311.782162 432.400581 315.061671 439.040639 315.671813 445.680697 318.913188 452.320755 322.002028 458.960813 321.506288 465.600871 322.497767 472.240929 324.862065 478.880987 323.298578 485.521045 319.256392 492.161103 321.315619 498.801161 324.785797 505.441219 325.167135 512.081277 323.374845 518.721335 317.006497 525.361393 319.790266 532.001451 307.091702 538.641509 308.502653 545.281567 307.930646 551.921626 303.468988 558.561684 294.355004 565.201742 297.176907 571.841800 300.799620 578.481858 305.185010 585.121916 312.239768 591.761974 313.040579 598.402032 306.443427 605.042090 306.100222 611.682148 300.608951 618.322206 301.981769 624.962264 298.854795 631.602322 304.422334 638.242380 305.680750 644.882438 311.019486 651.522496 322.116429 658.162554 337.026755 664.802612 351.898947 671.442671 352.966695 678.082729 361.279869 684.722787 373.063221 691.362845 366.694872 698.002903 362.728954 704.642961 296.795569 711.283019 380.689986 717.923077 399.756899"/></g><g class="series serie-1 color-1"><path class="line reactive nofill" d="M14.076923 453.144256 L20.716981 392.130134 27.357039 228.154682 33.997097 113.753203 40.637155 14.605255 47.277213 188.114164 53.917271 121.379969 60.557329 85.152834 67.197388 56.552464 73.837446 8.885181 80.477504 257.899066 87.117562 235.018770 93.757620 218.239887 100.397678 244.056487 107.037736 233.226481 113.677794 242.302331 120.317852 263.924211 126.957910 253.399275 133.597968 236.239053 140.238026 222.434608 146.878084 237.916941 153.518142 233.645953 160.158200 228.574154 166.798258 222.205805 173.438316 215.875590 180.078374 214.159567 186.718433 209.926713 193.358491 219.383902 199.998549 212.519813 206.638607 207.181077 213.278665 196.122268 219.918723 191.927547 226.558781 205.617590 233.198839 199.363643 239.838897 209.736044 246.478955 203.062624 253.119013 197.342550 259.759071 191.622476 266.399129 187.809094 273.039187 179.228983 279.679245 164.585594 286.319303 155.700412 292.959361 189.220045 299.599419 196.389205 306.239478 183.652507 312.879536 207.066676 319.519594 220.527916 326.159652 220.947389 332.799710 213.511292 339.439768 232.501938 346.079826 235.972116 352.719884 228.345351 359.359942 240.243105 366.000000 232.616339 372.640058 242.531134 379.280116 254.848360 385.920174 250.768041 392.560232 245.238636 399.200290 238.298279 405.840348 232.768875 412.480406 230.518979 419.120464 227.506407 425.760522 223.959961 432.400581 219.231366 439.040639 221.557530 445.680697 217.095872 452.320755 212.901151 458.960813 217.095872 465.600871 219.078831 472.240929 216.256928 478.880987 224.341299 485.521045 233.760354 492.161103 231.739261 498.801161 228.383485 505.441219 230.633380 512.081277 236.963596 518.721335 245.810643 525.361393 243.789550 532.001451 256.755051 538.641509 255.877973 545.281567 257.403326 551.921626 261.826850 558.561684 267.623192 565.201742 266.974917 571.841800 265.449564 578.481858 264.419950 585.121916 261.636181 591.761974 262.322590 598.402032 266.288508 605.042090 267.127452 611.682148 269.301080 618.322206 269.491749 624.962264 270.750165 631.602322 269.491749 638.242380 269.834954 644.882438 269.453615 651.522496 267.432523 658.162554 264.686887 664.802612 261.979385 671.442671 261.788716 678.082729 260.263363 684.722787 258.089735 691.362845 262.703928 698.002903 266.402909 704.642961 274.983020 711.283019 271.284039 717.923077 274.144076"/></g><g class="series serie-2 color-2"><path class="line reactive nofill" d="M14.076923 275.898232 L20.716981 275.898232 27.357039 275.898232 33.997097 275.898232 40.637155 275.898232 47.277213 275.898232 53.917271 275.898232 60.557329 275.898232 67.197388 275.898232 73.837446 275.898232 80.477504 275.898232 87.117562 275.898232 93.757620 275.898232 100.397678 275.898232 107.037736 275.898232 113.677794 275.898232 120.317852 275.898232 126.957910 275.898232 133.597968 275.898232 140.238026 275.898232 146.878084 275.898232 153.518142 275.898232 160.158200 275.898232 166.798258 275.898232 173.438316 275.898232 180.078374 275.898232 186.718433 275.898232 193.358491 275.898232 199.998549 275.898232 206.638607 275.898232 213.278665 275.898232 219.918723 275.898232 226.558781 275.898232 233.198839 275.898232 239.838897 275.898232 246.478955 275.898232 253.119013 275.898232 259.759071 275.898232 266.399129 275.898232 273.039187 275.898232 279.679245 275.898232 286.319303 275.898232 292.959361 275.898232 299.599419 275.898232 306.239478 275.898232 312.879536 275.898232 319.519594 275.898232 326.159652 275.898232 332.799710 275.898232 339.439768 275.898232 346.079826 275.898232 352.719884 275.898232 359.359942 275.898232 366.000000 275.898232 372.640058 275.898232 379.280116 275.898232 385.920174 275.898232 392.560232 275.898232 399.200290 275.898232 405.840348 275.898232 412.480406 275.898232 419.120464 275.898232 425.760522 275.898232 432.400581 275.898232 439.040639 275.898232 445.680697 275.898232 452.320755 275.898232 458.960813 275.898232 465.600871 275.898232 472.240929 275.898232 478.880987 275.898232 485.521045 275.898232 492.161103 275.898232 498.801161 275.898232 505.441219 275.898232 512.081277 275.898232 518.721335 275.898232 525.361393 275.898232 532.001451 275.898232 538.641509 275.898232 545.281567 275.898232 551.921626 275.898232 558.561684 275.898232 565.201742 275.898232 571.841800 275.898232 578.481858 275.898232 585.121916 275.898232 591.761974 275.898232 598.402032 275.898232 605.042090 275.898232 611.682148 275.898232 618.322206 275.898232 624.962264 275.898232 631.602322 275.898232 638.242380 275.898232 644.882438 275.898232 651.522496 275.898232 658.162554 275.898232 664.802612 275.898232 671.442671 275.898232 678.082729 275.898232 684.722787 275.898232 691.362845 275.898232 698.002903 275.898232 704.642961 275.898232 711.283019 275.898232 717.923077 275.898232"/></g></g><g class="titles"><text class="title plot_title" x="400.0" y="26">SC Williams: Future and Past Averages in ODIs</text></g><g class="plot overlay" transform="translate(48, 46)"><g class="series serie-0 color-0"><g class="dots"><desc class="label">71 wickets in 107 innings (680.0 overs)</desc><circle class="dot reactive tooltip-trigger" cx="14.076923076923077" cy="275.89823196721426" r="2.5"/><desc class="value">46.48</desc><desc class="x top">14.076923076923077</desc><desc class="y top">275.89823196721426</desc><desc class="x_label">2005</desc></g><g class="dots"><desc class="label">71 wickets in 104 innings (662.3 overs)</desc><circle class="dot reactive tooltip-trigger" cx="33.997097242380256" cy="280.66496023202444" r="2.5"/><desc class="value">45.23</desc><desc class="x top">33.997097242380256</desc><desc class="y top">280.66496023202444</desc><desc class="x_label">2006</desc></g><g class="dots"><desc class="label">69 wickets in 99 innings (630.3 overs)</desc><circle class="dot reactive tooltip-trigger" cx="67.19738751814224" cy="282.2665809290006" r="2.5"/><desc class="value">44.81</desc><desc class="x top">67.19738751814224</desc><desc class="y top">282.2665809290006</desc><desc class="x_label">2007</desc></g><g class="dots"><desc class="label">63 wickets in 90 innings (593.2 overs)</desc><circle class="dot reactive tooltip-trigger" cx="126.95791001451376" cy="278.75826892610036" r="2.5"/><desc class="value">45.73</desc><desc class="x top">126.95791001451376</desc><desc class="y top">278.75826892610036</desc><desc class="x_label">2008</desc></g><g class="dots"><desc class="label">62 wickets in 86 innings (579.2 overs)</desc><circle class="dot reactive tooltip-trigger" cx="153.51814223512335" cy="282.03777797228975" r="2.5"/><desc class="value">44.87</desc><desc class="x top">153.51814223512335</desc><desc class="y top">282.03777797228975</desc><desc class="x_label">2009</desc></g><g class="dots"><desc class="label">62 wickets in 81 innings (568.3 overs)</desc><circle class="dot reactive tooltip-trigger" cx="186.71843251088535" cy="285.4698223229531" r="2.5"/><desc class="value">43.97</desc><desc class="x top">186.71843251088535</desc><desc class="y top">285.4698223229531</desc><desc class="x_label">2010</desc></g><g class="dots"><desc class="label">61 wickets in 78 innings (552.3 overs)</desc><circle class="dot reactive tooltip-trigger" cx="206.63860667634253" cy="287.1858444982848" r="2.5"/><desc class="value">43.52</desc><desc class="x top">206.63860667634253</desc><desc class="y top">287.1858444982848</desc><desc class="x_label">2011</desc></g><g class="dots"><desc class="label">61 wickets in 76 innings (541.3 overs)</desc><circle class="dot reactive tooltip-trigger" cx="219.91872278664732" cy="289.6645431959861" r="2.5"/><desc class="value">42.87</desc><desc class="x top">219.91872278664732</desc><desc class="y top">289.6645431959861</desc><desc class="x_label">2013</desc></g><g class="dots"><desc class="label">59 wickets in 68 innings (511.3 overs)</desc><circle class="dot reactive tooltip-trigger" cx="273.0391872278664" cy="295.57528624435076" r="2.5"/><desc class="value">41.32</desc><desc class="x top">273.0391872278664</desc><desc class="y top">295.57528624435076</desc><desc class="x_label">2014</desc></g><g class="dots"><desc class="label">49 wickets in 57 innings (416.5 overs)</desc><circle class="dot reactive tooltip-trigger" cx="346.0798258345428" cy="293.8211302429006" r="2.5"/><desc class="value">41.78</desc><desc class="x top">346.0798258345428</desc><desc class="y top">293.8211302429006</desc><desc class="x_label">2015</desc></g><g class="dots"><desc class="label">34 wickets in 33 innings (246.5 overs)</desc><circle class="dot reactive tooltip-trigger" cx="505.4412191582003" cy="325.16713531229243" r="2.5"/><desc class="value">33.56</desc><desc class="x left top">505.4412191582003</desc><desc class="y left top">325.16713531229243</desc><desc class="x_label">2016</desc></g><g class="dots"><desc class="label">30 wickets in 30 innings (223.5 overs)</desc><circle class="dot reactive tooltip-trigger" cx="525.3613933236575" cy="319.7902658295866" r="2.5"/><desc class="value">34.97</desc><desc class="x left top">525.3613933236575</desc><desc class="y left top">319.7902658295866</desc><desc class="x_label">2017</desc></g><g class="dots"><desc class="label">19 wickets in 20 innings (149.2 overs)</desc><circle class="dot reactive tooltip-trigger" cx="591.7619738751814" cy="313.0405786066153" r="2.5"/><desc class="value">36.74</desc><desc class="x left top">591.7619738751814</desc><desc class="y left top">313.0405786066153</desc><desc class="x_label">2018</desc></g><g class="dots"><desc class="label">11 wickets in 9 innings (68.0 overs)</desc><circle class="dot reactive tooltip-trigger" cx="664.8026124818578" cy="351.898947421348" r="2.5"/><desc class="value">26.55</desc><desc class="x left top">664.8026124818578</desc><desc class="y left top">351.898947421348</desc><desc class="x_label">2019</desc></g></g><g class="series serie-1 color-1"><g class="dots"><desc class="label">0 wickets over 0 innings</desc><circle class="dot reactive tooltip-trigger" cx="14.076923076923077" cy="453.1442557659166" r="2.5"/><desc class="value">0</desc><desc class="x top">14.076923076923077</desc><desc class="y top">453.1442557659166</desc><desc class="x_label">2005</desc></g><g class="dots"><desc class="label">0 wickets in 3 innings (17.3 overs)</desc><circle class="dot reactive tooltip-trigger" cx="33.997097242380256" cy="113.75320331143052" r="2.5"/><desc class="value">89</desc><desc class="x ">33.997097242380256</desc><desc class="y ">113.75320331143052</desc><desc class="x_label">2006</desc></g><g class="dots"><desc class="label">2 wickets in 8 innings (49.3 overs)</desc><circle class="dot reactive tooltip-trigger" cx="67.19738751814224" cy="56.55246413370821" r="2.5"/><desc class="value">104</desc><desc class="x ">67.19738751814224</desc><desc class="y ">56.55246413370821</desc><desc class="x_label">2007</desc></g><g class="dots"><desc class="label">8 wickets in 17 innings (86.4 overs)</desc><circle class="dot reactive tooltip-trigger" cx="126.95791001451376" cy="253.39927455731012" r="2.5"/><desc class="value">52.38</desc><desc class="x top">126.95791001451376</desc><desc class="y top">253.39927455731012</desc><desc class="x_label">2008</desc></g><g class="dots"><desc class="label">9 wickets in 21 innings (100.4 overs)</desc><circle class="dot reactive tooltip-trigger" cx="153.51814223512335" cy="233.64595262793662" r="2.5"/><desc class="value">57.56</desc><desc class="x top">153.51814223512335</desc><desc class="y top">233.64595262793662</desc><desc class="x_label">2009</desc></g><g class="dots"><desc class="label">9 wickets in 26 innings (111.3 overs)</desc><circle class="dot reactive tooltip-trigger" cx="186.71843251088535" cy="209.92671278224108" r="2.5"/><desc class="value">63.78</desc><desc class="x ">186.71843251088535</desc><desc class="y ">209.92671278224108</desc><desc class="x_label">2010</desc></g><g class="dots"><desc class="label">10 wickets in 29 innings (127.3 overs)</desc><circle class="dot reactive tooltip-trigger" cx="206.63860667634253" cy="207.18107730171042" r="2.5"/><desc class="value">64.5</desc><desc class="x ">206.63860667634253</desc><desc class="y ">207.18107730171042</desc><desc class="x_label">2011</desc></g><g class="dots"><desc class="label">10 wickets in 31 innings (138.3 overs)</desc><circle class="dot reactive tooltip-trigger" cx="219.91872278664732" cy="191.92754685431782" r="2.5"/><desc class="value">68.5</desc><desc class="x ">219.91872278664732</desc><desc class="y ">191.92754685431782</desc><desc class="x_label">2013</desc></g><g class="dots"><desc class="label">12 wickets in 39 innings (168.3 overs)</desc><circle class="dot reactive tooltip-trigger" cx="273.0391872278664" cy="179.22898275686345" r="2.5"/><desc class="value">71.83</desc><desc class="x ">273.0391872278664</desc><desc class="y ">179.22898275686345</desc><desc class="x_label">2014</desc></g><g class="dots"><desc class="label">22 wickets in 50 innings (263.1 overs)</desc><circle class="dot reactive tooltip-trigger" cx="346.0798258345428" cy="235.972116021164" r="2.5"/><desc class="value">56.95</desc><desc class="x top">346.0798258345428</desc><desc class="y top">235.972116021164</desc><desc class="x_label">2015</desc></g><g class="dots"><desc class="label">37 wickets in 74 innings (433.1 overs)</desc><circle class="dot reactive tooltip-trigger" cx="505.4412191582003" cy="230.6333803645766" r="2.5"/><desc class="value">58.35</desc><desc class="x left">505.4412191582003</desc><desc class="y left">230.6333803645766</desc><desc class="x_label">2016</desc></g><g class="dots"><desc class="label">41 wickets in 77 innings (456.1 overs)</desc><circle class="dot reactive tooltip-trigger" cx="525.3613933236575" cy="243.78955037545276" r="2.5"/><desc class="value">54.9</desc><desc class="x left top">525.3613933236575</desc><desc class="y left top">243.78955037545276</desc><desc class="x_label">2017</desc></g><g class="dots"><desc class="label">52 wickets in 87 innings (530.4 overs)</desc><circle class="dot reactive tooltip-trigger" cx="591.7619738751814" cy="262.3225898690348" r="2.5"/><desc class="value">50.04</desc><desc class="x left top">591.7619738751814</desc><desc class="y left top">262.3225898690348</desc><desc class="x_label">2018</desc></g><g class="dots"><desc class="label">60 wickets in 98 innings (612.0 overs)</desc><circle class="dot reactive tooltip-trigger" cx="664.8026124818578" cy="261.97938543396845" r="2.5"/><desc class="value">50.13</desc><desc class="x left top">664.8026124818578</desc><desc class="y left top">261.97938543396845</desc><desc class="x_label">2019</desc></g></g><g class="series serie-2 color-2"/></g><g class="plot text-overlay" transform="translate(48, 46)"><g class="series serie-0 color-0"/><g class="series serie-1 color-1"/><g class="series serie-2 color-2"/></g><g class="plot tooltip-overlay" transform="translate(48, 46)"><g class="tooltip" style="opacity: 0" transform="translate(0 0)"><rect class="tooltip-box" height="0" rx="10" ry="10" width="0"/><g class="text"/></g></g><g class="legends" transform="translate(58, 545)"><g class="legend reactive activate-serie" id="activate-serie-0"><rect class="color-0 reactive" height="12" width="12" x="0.0" y="1.0"/><text x="17.0" y="11.2">Future Average</text></g><g class="legend reactive activate-serie" id="activate-serie-1"><rect class="color-1 reactive" height="12" width="12" x="366.0" y="1.0"/><text x="383.0" y="11.2">Past Average</text></g><g class="legend reactive activate-serie" id="activate-serie-2"><rect class="color-2 reactive" height="12" width="12" x="0.0" y="22.0"/><text x="17.0" y="32.2">Career Average</text></g></g></g></svg>