<?xml version='1.0' encoding='utf-8'?>
<svg xmlns:xlink="http://www.w3.org/1999/xlink" xmlns="http://www.w3.org/2000/svg" id="chart-16e9e5ce-3a8f-4109-8609-7ceabdcf6831" class="pygal-chart" viewBox="0 0 800 600"><!--Generated with pygal 2.4.0 (lxml) ©Kozea 2012-2016 on 2019-08-04--><!--http://pygal.org--><!--http://github.com/Kozea/pygal--><defs><style type="text/css">#chart-16e9e5ce-3a8f-4109-8609-7ceabdcf6831{-webkit-user-select:none;-webkit-font-smoothing:antialiased;font-family:Consolas,"Liberation Mono",Menlo,Courier,monospace}#chart-16e9e5ce-3a8f-4109-8609-7ceabdcf6831 .title{font-family:Consolas,"Liberation Mono",Menlo,Courier,monospace;font-size:16px}#chart-16e9e5ce-3a8f-4109-8609-7ceabdcf6831 .legends .legend text{font-family:Consolas,"Liberation Mono",Menlo,Courier,monospace;font-size:14px}#chart-16e9e5ce-3a8f-4109-8609-7ceabdcf6831 .axis text{font-family:Consolas,"Liberation Mono",Menlo,Courier,monospace;font-size:10px}#chart-16e9e5ce-3a8f-4109-8609-7ceabdcf6831 .axis text.major{font-family:Consolas,"Liberation Mono",Menlo,Courier,monospace;font-size:10px}#chart-16e9e5ce-3a8f-4109-8609-7ceabdcf6831 .text-overlay text.value{font-family:Consolas,"Liberation Mono",Menlo,Courier,monospace;font-size:16px}#chart-16e9e5ce-3a8f-4109-8609-7ceabdcf6831 .text-overlay text.label{font-family:Consolas,"Liberation Mono",Menlo,Courier,monospace;font-size:10px}#chart-16e9e5ce-3a8f-4109-8609-7ceabdcf6831 .tooltip{font-family:Consolas,"Liberation Mono",Menlo,Courier,monospace;font-size:14px}#chart-16e9e5ce-3a8f-4109-8609-7ceabdcf6831 text.no_data{font-family:Consolas,"Liberation Mono",Menlo,Courier,monospace;font-size:64px}
#chart-16e9e5ce-3a8f-4109-8609-7ceabdcf6831{background-color:rgba(249,249,249,1)}#chart-16e9e5ce-3a8f-4109-8609-7ceabdcf6831 path,#chart-16e9e5ce-3a8f-4109-8609-7ceabdcf6831 line,#chart-16e9e5ce-3a8f-4109-8609-7ceabdcf6831 rect,#chart-16e9e5ce-3a8f-4109-8609-7ceabdcf6831 circle{-webkit-transition:150ms;-moz-transition:150ms;transition:150ms}#chart-16e9e5ce-3a8f-4109-8609-7ceabdcf6831 .graph &gt; .background{fill:rgba(249,249,249,1)}#chart-16e9e5ce-3a8f-4109-8609-7ceabdcf6831 .plot &gt; .background{fill:rgba(255,255,255,1)}#chart-16e9e5ce-3a8f-4109-8609-7ceabdcf6831 .graph{fill:rgba(0,0,0,.87)}#chart-16e9e5ce-3a8f-4109-8609-7ceabdcf6831 text.no_data{fill:rgba(0,0,0,1)}#chart-16e9e5ce-3a8f-4109-8609-7ceabdcf6831 .title{fill:rgba(0,0,0,1)}#chart-16e9e5ce-3a8f-4109-8609-7ceabdcf6831 .legends .legend text{fill:rgba(0,0,0,.87)}#chart-16e9e5ce-3a8f-4109-8609-7ceabdcf6831 .legends .legend:hover text{fill:rgba(0,0,0,1)}#chart-16e9e5ce-3a8f-4109-8609-7ceabdcf6831 .axis .line{stroke:rgba(0,0,0,1)}#chart-16e9e5ce-3a8f-4109-8609-7ceabdcf6831 .axis .guide.line{stroke:rgba(0,0,0,.54)}#chart-16e9e5ce-3a8f-4109-8609-7ceabdcf6831 .axis .major.line{stroke:rgba(0,0,0,.87)}#chart-16e9e5ce-3a8f-4109-8609-7ceabdcf6831 .axis text.major{fill:rgba(0,0,0,1)}#chart-16e9e5ce-3a8f-4109-8609-7ceabdcf6831 .axis.y .guides:hover .guide.line,#chart-16e9e5ce-3a8f-4109-8609-7ceabdcf6831 .line-graph .axis.x .guides:hover .guide.line,#chart-16e9e5ce-3a8f-4109-8609-7ceabdcf6831 .stackedline-graph .axis.x .guides:hover .guide.line,#chart-16e9e5ce-3a8f-4109-8609-7ceabdcf6831 .xy-graph .axis.x .guides:hover .guide.line{stroke:rgba(0,0,0,1)}#chart-16e9e5ce-3a8f-4109-8609-7ceabdcf6831 .axis .guides:hover text{fill:rgba(0,0,0,1)}#chart-16e9e5ce-3a8f-4109-8609-7ceabdcf6831 .reactive{fill-opacity:.7;stroke-opacity:.8}#chart-16e9e5ce-3a8f-4109-8609-7ceabdcf6831 .ci{stroke:rgba(0,0,0,.87)}#chart-16e9e5ce-3a8f-4109-8609-7ceabdcf6831 .reactive.active,#chart-16e9e5ce-3a8f-4109-8609-7ceabdcf6831 .active .reactive{fill-opacity:.8;stroke-opacity:.9;stroke-width:4}#chart-16e9e5ce-3a8f-4109-8609-7ceabdcf6831 .ci .reactive.active{stroke-width:1.5}#chart-16e9e5ce-3a8f-4109-8609-7ceabdcf6831 .series text{fill:rgba(0,0,0,1)}#chart-16e9e5ce-3a8f-4109-8609-7ceabdcf6831 .tooltip rect{fill:rgba(255,255,255,1);stroke:rgba(0,0,0,1);-webkit-transition:opacity 150ms;-moz-transition:opacity 150ms;transition:opacity 150ms}#chart-16e9e5ce-3a8f-4109-8609-7ceabdcf6831 .tooltip .label{fill:rgba(0,0,0,.87)}#chart-16e9e5ce-3a8f-4109-8609-7ceabdcf6831 .tooltip .label{fill:rgba(0,0,0,.87)}#chart-16e9e5ce-3a8f-4109-8609-7ceabdcf6831 .tooltip .legend{font-size:.8em;fill:rgba(0,0,0,.54)}#chart-16e9e5ce-3a8f-4109-8609-7ceabdcf6831 .tooltip .x_label{font-size:.6em;fill:rgba(0,0,0,1)}#chart-16e9e5ce-3a8f-4109-8609-7ceabdcf6831 .tooltip .xlink{font-size:.5em;text-decoration:underline}#chart-16e9e5ce-3a8f-4109-8609-7ceabdcf6831 .tooltip .value{font-size:1.5em}#chart-16e9e5ce-3a8f-4109-8609-7ceabdcf6831 .bound{font-size:.5em}#chart-16e9e5ce-3a8f-4109-8609-7ceabdcf6831 .max-value{font-size:.75em;fill:rgba(0,0,0,.54)}#chart-16e9e5ce-3a8f-4109-8609-7ceabdcf6831 .map-element{fill:rgba(255,255,255,1);stroke:rgba(0,0,0,.54) !important}#chart-16e9e5ce-3a8f-4109-8609-7ceabdcf6831 .map-element .reactive{fill-opacity:inherit;stroke-opacity:inherit}#chart-16e9e5ce-3a8f-4109-8609-7ceabdcf6831 .color-0,#chart-16e9e5ce-3a8f-4109-8609-7ceabdcf6831 .color-0 a:visited{stroke:red;fill:red}#chart-16e9e5ce-3a8f-4109-8609-7ceabdcf6831 .color-1,#chart-16e9e5ce-3a8f-4109-8609-7ceabdcf6831 .color-1 a:visited{stroke:blue;fill:blue}#chart-16e9e5ce-3a8f-4109-8609-7ceabdcf6831 .color-2,#chart-16e9e5ce-3a8f-4109-8609-7ceabdcf6831 .color-2 a:visited{stroke:green;fill:green}#chart-16e9e5ce-3a8f-4109-8609-7ceabdcf6831 .text-overlay .color-0 text{fill:white}#chart-16e9e5ce-3a8f-4109-8609-7ceabdcf6831 .text-overlay .color-1 text{fill:white}#chart-16e9e5ce-3a8f-4109-8609-7ceabdcf6831 .text-overlay .color-2 text{fill:white}
#chart-16e9e5ce-3a8f-4109-8609-7ceabdcf6831 text.no_data{text-anchor:middle}#chart-16e9e5ce-3a8f-4109-8609-7ceabdcf6831 .guide.line{fill:none}#chart-16e9e5ce-3a8f-4109-8609-7ceabdcf6831 .centered{text-anchor:middle}#chart-16e9e5ce-3a8f-4109-8609-7ceabdcf6831 .title{text-anchor:middle}#chart-16e9e5ce-3a8f-4109-8609-7ceabdcf6831 .legends .legend text{fill-opacity:1}#chart-16e9e5ce-3a8f-4109-8609-7ceabdcf6831 .axis.x text{text-anchor:middle}#chart-16e9e5ce-3a8f-4109-8609-7ceabdcf6831 .axis.x:not(.web) text[transform]{text-anchor:start}#chart-16e9e5ce-3a8f-4109-8609-7ceabdcf6831 .axis.x:not(.web) text[transform].backwards{text-anchor:end}#chart-16e9e5ce-3a8f-4109-8609-7ceabdcf6831 .axis.y text{text-anchor:end}#chart-16e9e5ce-3a8f-4109-8609-7ceabdcf6831 .axis.y text[transform].backwards{text-anchor:start}#chart-16e9e5ce-3a8f-4109-8609-7ceabdcf6831 .axis.y2 text{text-anchor:start}#chart-16e9e5ce-3a8f-4109-8609-7ceabdcf6831 .axis.y2 text[transform].backwards{text-anchor:end}#chart-16e9e5ce-3a8f-4109-8609-7ceabdcf6831 .axis .guide.line{stroke-dasharray:4,4}#chart-16e9e5ce-3a8f-4109-8609-7ceabdcf6831 .axis .major.guide.line{stroke-dasharray:6,6}#chart-16e9e5ce-3a8f-4109-8609-7ceabdcf6831 .horizontal .axis.y .guide.line,#chart-16e9e5ce-3a8f-4109-8609-7ceabdcf6831 .horizontal .axis.y2 .guide.line,#chart-16e9e5ce-3a8f-4109-8609-7ceabdcf6831 .vertical .axis.x .guide.line{opacity:0}#chart-16e9e5ce-3a8f-4109-8609-7ceabdcf6831 .horizontal .axis.always_show .guide.line,#chart-16e9e5ce-3a8f-4109-8609-7ceabdcf6831 .vertical .axis.always_show .guide.line{opacity:1 !important}#chart-16e9e5ce-3a8f-4109-8609-7ceabdcf6831 .axis.y .guides:hover .guide.line,#chart-16e9e5ce-3a8f-4109-8609-7ceabdcf6831 .axis.y2 .guides:hover .guide.line,#chart-16e9e5ce-3a8f-4109-8609-7ceabdcf6831 .axis.x .guides:hover .guide.line{opacity:1}#chart-16e9e5ce-3a8f-4109-8609-7ceabdcf6831 .axis .guides:hover text{opacity:1}#chart-16e9e5ce-3a8f-4109-8609-7ceabdcf6831 .nofill{fill:none}#chart-16e9e5ce-3a8f-4109-8609-7ceabdcf6831 .subtle-fill{fill-opacity:.2}#chart-16e9e5ce-3a8f-4109-8609-7ceabdcf6831 .dot{stroke-width:1px;fill-opacity:1}#chart-16e9e5ce-3a8f-4109-8609-7ceabdcf6831 .dot.active{stroke-width:5px}#chart-16e9e5ce-3a8f-4109-8609-7ceabdcf6831 .dot.negative{fill:transparent}#chart-16e9e5ce-3a8f-4109-8609-7ceabdcf6831 text,#chart-16e9e5ce-3a8f-4109-8609-7ceabdcf6831 tspan{stroke:none !important}#chart-16e9e5ce-3a8f-4109-8609-7ceabdcf6831 .series text.active{opacity:1}#chart-16e9e5ce-3a8f-4109-8609-7ceabdcf6831 .tooltip rect{fill-opacity:.95;stroke-width:.5}#chart-16e9e5ce-3a8f-4109-8609-7ceabdcf6831 .tooltip text{fill-opacity:1}#chart-16e9e5ce-3a8f-4109-8609-7ceabdcf6831 .showable{visibility:hidden}#chart-16e9e5ce-3a8f-4109-8609-7ceabdcf6831 .showable.shown{visibility:visible}#chart-16e9e5ce-3a8f-4109-8609-7ceabdcf6831 .gauge-background{fill:rgba(229,229,229,1);stroke:none}#chart-16e9e5ce-3a8f-4109-8609-7ceabdcf6831 .bg-lines{stroke:rgba(249,249,249,1);stroke-width:2px}</style><script type="text/javascript">window.pygal = window.pygal || {};window.pygal.config = window.pygal.config || {};window.pygal.config['16e9e5ce-3a8f-4109-8609-7ceabdcf6831'] = {"allow_interruptions": false, "box_mode": "extremes", "classes": ["pygal-chart"], "css": ["file://style.css", "file://graph.css"], "defs": [], "disable_xml_declaration": false, "dots_size": 2.5, "dynamic_print_values": false, "explicit_size": false, "fill": false, "force_uri_protocol": "https", "formatter": null, "half_pie": false, "height": 600, "include_x_axis": false, "inner_radius": 0, "interpolate": null, "interpolation_parameters": {}, "interpolation_precision": 250, "inverse_y_axis": false, "js": ["//kozea.github.io/pygal.js/2.0.x/pygal-tooltips.min.js"], "legend_at_bottom": true, "legend_at_bottom_columns": null, "legend_box_size": 12, "logarithmic": false, "margin": 20, "margin_bottom": null, "margin_left": null, "margin_right": null, "margin_top": null, "max_scale": 16, "min_scale": 4, "missing_value_fill_truncation": "x", "no_data_text": "No data", "no_prefix": false, "order_min": null, "pretty_print": false, "print_labels": false, "print_values": false, "print_values_position": "center", "print_zeroes": true, "range": null, "rounded_bars": null, "secondary_range": null, "show_dots": true, "show_legend": true, "show_minor_x_labels": false, "show_minor_y_labels": true, "show_only_major_dots": false, "show_x_guides": false, "show_x_labels": true, "show_y_guides": true, "show_y_labels": true, "spacing": 10, "stack_from_top": false, "strict": false, "stroke": true, "stroke_style": null, "style": {"background": "rgba(249, 249, 249, 1)", "ci_colors": [], "colors": ["red", "blue", "green", "#a3a3a3"], "font_family": "Consolas, \"Liberation Mono\", Menlo, Courier, monospace", "foreground": "rgba(0, 0, 0, .87)", "foreground_strong": "rgba(0, 0, 0, 1)", "foreground_subtle": "rgba(0, 0, 0, .54)", "guide_stroke_dasharray": "4,4", "label_font_family": "Consolas, \"Liberation Mono\", Menlo, Courier, monospace", "label_font_size": 10, "legend_font_family": "Consolas, \"Liberation Mono\", Menlo, Courier, monospace", "legend_font_size": 14, "major_guide_stroke_dasharray": "6,6", "major_label_font_family": "Consolas, \"Liberation Mono\", Menlo, Courier, monospace", "major_label_font_size": 10, "no_data_font_family": "Consolas, \"Liberation Mono\", Menlo, Courier, monospace", "no_data_font_size": 64, "opacity": ".7", "opacity_hover": ".8", "plot_background": "rgba(255, 255, 255, 1)", "stroke_opacity": ".8", "stroke_opacity_hover": ".9", "title_font_family": "Consolas, \"Liberation Mono\", Menlo, Courier, monospace", "title_font_size": 16, "tooltip_font_family": "Consolas, \"Liberation Mono\", Menlo, Courier, monospace", "tooltip_font_size": 14, "transition": "150ms", "value_background": "rgba(229, 229, 229, 1)", "value_colors": [], "value_font_family": "Consolas, \"Liberation Mono\", Menlo, Courier, monospace", "value_font_size": 16, "value_label_font_family": "Consolas, \"Liberation Mono\", Menlo, Courier, monospace", "value_label_font_size": 10}, "title": "SCJ Broad: Future and Past Averages in ODIs", "tooltip_border_radius": 10, "tooltip_fancy_mode": true, "truncate_label": null, "truncate_legend": null, "width": 800, "x_label_rotation": 45, "x_labels": ["2006", "0", "0", "0", "0", "2007", "0", "0", "0", "0", "0", "0", "0", "0", "0", "0", "0", "0", "0", "0", "0", "2008", "0", "0", "0", "0", "0", "0", "0", "0", "0", "0", "0", "0", "0", "0", "0", "0", "0", "0", "0", "0", "2009", "0", "0", "0", "0", "0", "0", "0", "0", "0", "0", "0", "0", "0", "0", "2010", "0", "0", "0", "0", "0", "0", "0", "0", "0", "0", "0", "0", "0", "0", "0", "2011", "0", "0", "0", "0", "0", "0", "0", "0", "0", "0", "2012", "0", "0", "0", "0", "0", "0", "0", "0", "2013", "0", "0", "0", "0", "0", "0", "0", "0", "2014", "0", "0", "0", "0", "0", "2015", "0", "0", "0", "0", "0", "0", "0", "0", "0", "0", "2016", "0"], "x_labels_major": ["2006", "2007", "2008", "2009", "2010", "2011", "2012", "2013", "2014", "2015", "2016"], "x_labels_major_count": null, "x_labels_major_every": null, "x_title": null, "xrange": null, "y_label_rotation": 0, "y_labels": null, "y_labels_major": null, "y_labels_major_count": null, "y_labels_major_every": null, "y_title": null, "zero": 100.0, "legends": ["Future Average", "Past Average", "Career Average"]}</script><script type="text/javascript" xlink:href="https://kozea.github.io/pygal.js/2.0.x/pygal-tooltips.min.js"/></defs><title>SCJ Broad: Future and Past Averages in ODIs</title><g class="graph line-graph vertical"><rect class="background" height="600" width="800" x="0" y="0"/><g class="plot" transform="translate(42, 46)"><rect class="background" height="462.02943725152284" width="738.0" x="0" y="0"/><g class="axis y always_show"><g class="guides"><path class="axis major line" d="M0.000000 453.144256 h738.000000"/><text class="major" x="-5" y="456.6442557659166">0</text><title>0</title></g><g class="guides"><path class="guide line" d="M0.000000 405.027818 h738.000000"/><text class="" x="-5" y="408.52781752479126">10</text><title>10</title></g><g class="guides"><path class="guide line" d="M0.000000 356.911379 h738.000000"/><text class="" x="-5" y="360.4113792836659">20</text><title>20</title></g><g class="guides"><path class="guide line" d="M0.000000 308.794941 h738.000000"/><text class="" x="-5" y="312.2949410425406">30</text><title>30</title></g><g class="guides"><path class="guide line" d="M0.000000 260.678503 h738.000000"/><text class="" x="-5" y="264.17850280141516">40</text><title>40</title></g><g class="guides"><path class="major guide line" d="M0.000000 212.562065 h738.000000"/><text class="major" x="-5" y="216.0620645602898">50</text><title>50</title></g><g class="guides"><path class="guide line" d="M0.000000 164.445626 h738.000000"/><text class="" x="-5" y="167.94562631916443">60</text><title>60</title></g><g class="guides"><path class="guide line" d="M0.000000 116.329188 h738.000000"/><text class="" x="-5" y="119.82918807803912">70</text><title>70</title></g><g class="guides"><path class="guide line" d="M0.000000 68.212750 h738.000000"/><text class="" x="-5" y="71.71274983691376">80</text><title>80</title></g><g class="guides"><path class="guide line" d="M0.000000 20.096312 h738.000000"/><text class="" x="-5" y="23.596311595788393">90</text><title>90</title></g></g><g class="axis x"><g class="guides"><path class="major line" d="M14.192308 0.000000 v462.029437"/><text class="major" x="14.192307692307692" y="477.02943725152284" transform="rotate(45 14.192308 477.029437)">2006</text></g><g class="guides"><path class="major guide line" d="M43.759615 0.000000 v462.029437"/><text class="major" x="43.75961538461538" y="477.02943725152284" transform="rotate(45 43.759615 477.029437)">2007</text></g><g class="guides"><path class="major guide line" d="M138.375000 0.000000 v462.029437"/><text class="major" x="138.375" y="477.02943725152284" transform="rotate(45 138.375000 477.029437)">2008</text></g><g class="guides"><path class="major guide line" d="M262.557692 0.000000 v462.029437"/><text class="major" x="262.5576923076923" y="477.02943725152284" transform="rotate(45 262.557692 477.029437)">2009</text></g><g class="guides"><path class="major guide line" d="M351.259615 0.000000 v462.029437"/><text class="major" x="351.25961538461536" y="477.02943725152284" transform="rotate(45 351.259615 477.029437)">2010</text></g><g class="guides"><path class="major guide line" d="M445.875000 0.000000 v462.029437"/><text class="major" x="445.87499999999994" y="477.02943725152284" transform="rotate(45 445.875000 477.029437)">2011</text></g><g class="guides"><path class="major guide line" d="M510.923077 0.000000 v462.029437"/><text class="major" x="510.9230769230769" y="477.02943725152284" transform="rotate(45 510.923077 477.029437)">2012</text></g><g class="guides"><path class="major guide line" d="M564.144231 0.000000 v462.029437"/><text class="major" x="564.1442307692308" y="477.02943725152284" transform="rotate(45 564.144231 477.029437)">2013</text></g><g class="guides"><path class="major guide line" d="M617.365385 0.000000 v462.029437"/><text class="major" x="617.3653846153845" y="477.02943725152284" transform="rotate(45 617.365385 477.029437)">2014</text></g><g class="guides"><path class="major guide line" d="M652.846154 0.000000 v462.029437"/><text class="major" x="652.8461538461538" y="477.02943725152284" transform="rotate(45 652.846154 477.029437)">2015</text></g><g class="guides"><path class="major guide line" d="M717.894231 0.000000 v462.029437"/><text class="major" x="717.8942307692307" y="477.02943725152284" transform="rotate(45 717.894231 477.029437)">2016</text></g></g><g class="series serie-0 color-0"><path class="line reactive nofill" d="M14.192308 308.169427 L20.105769 307.688263 26.019231 308.891174 31.932692 307.976962 37.846154 308.073194 43.759615 309.083640 49.673077 309.997852 55.586538 308.025078 61.500000 307.688263 67.413462 309.757270 73.326923 310.527133 79.240385 311.200763 85.153846 311.345112 91.067308 309.372338 96.980769 310.960181 102.894231 310.575249 108.807692 311.922510 114.721154 311.778160 120.634615 311.248879 126.548077 310.190318 132.461538 310.045968 138.375000 308.313777 144.288462 306.196653 150.201923 307.255215 156.115385 305.234325 162.028846 305.715489 167.942308 307.110866 173.855769 305.571140 179.769231 305.474907 185.682692 303.790831 191.596154 305.138092 197.509615 304.753160 203.423077 303.742715 209.336538 304.849393 215.250000 299.845284 221.163462 300.903845 227.076923 300.951962 232.990385 299.700934 238.903846 302.636037 244.817308 299.797167 250.730769 299.941516 256.644231 300.663263 262.557692 301.577475 268.471154 299.316003 274.384615 301.336893 280.298077 301.336893 286.211538 299.893400 292.125000 299.893400 298.038462 296.140318 303.951923 295.995968 309.865385 298.449907 315.778846 300.470797 321.692308 300.182099 327.605769 297.872510 333.519231 296.332784 339.432692 291.473023 345.346154 287.912407 351.259615 285.699051 357.173077 284.303674 363.086538 284.255558 369.000000 287.190660 374.913462 286.276448 380.826923 280.165660 386.740385 279.780729 392.653846 280.454359 398.567308 274.920969 404.480769 272.659496 410.394231 274.295455 416.307692 273.573708 422.221154 274.824736 428.134615 269.435695 434.048077 269.964975 439.961538 267.270455 445.875000 259.186893 451.788462 257.695284 457.701923 264.479701 463.615385 250.237236 469.528846 253.461037 475.442308 260.486037 481.355769 265.682612 487.269231 261.400249 493.182692 258.801962 499.096154 261.544599 505.009615 262.362578 510.923077 259.138777 516.836538 256.829188 522.750000 258.465147 528.663462 247.831414 534.576923 247.494599 540.490385 241.287578 546.403846 234.936208 552.317308 235.321140 558.230769 240.806414 564.144231 247.061551 570.057692 249.226791 575.971154 253.797852 581.884615 245.521825 587.798077 239.411037 593.711538 237.438263 599.625000 251.488263 605.538462 247.783297 611.451923 228.007441 617.365385 222.474051 623.278846 238.737407 629.192308 228.825421 635.105769 188.503845 641.019231 201.447167 646.932692 190.524736 652.846154 165.889119 658.759615 189.466174 664.673077 205.344599 670.586538 234.695626 676.500000 213.764976 682.413462 123.065489 688.326923 8.885181 694.240385 52.189976 700.153846 90.683126 706.067308 198.127133 711.980769 195.721311 717.894231 24.907955 723.807692 289.548366"/></g><g class="series serie-1 color-1"><path class="line reactive nofill" d="M14.192308 453.144256 L20.105769 385.781242 26.019231 174.068914 31.932692 314.809496 37.846154 310.719599 43.759615 275.113434 49.673077 244.318914 55.586538 310.623366 61.500000 315.531242 67.413462 281.368571 73.326923 268.377133 79.240385 261.544599 85.153846 263.902304 91.067308 295.851619 96.980769 281.320455 102.894231 287.768058 108.807692 276.653160 114.721154 281.079873 120.634615 287.238777 126.548077 295.514804 132.461538 297.583811 138.375000 307.351448 144.288462 316.830386 150.201923 312.163092 156.115385 319.621140 162.028846 317.167201 167.942308 311.970626 173.855769 317.070968 179.769231 317.119085 185.682692 321.882612 191.596154 317.504016 197.509615 318.225763 203.423077 320.342886 209.336538 317.022852 215.250000 327.752818 221.163462 325.250763 227.076923 324.673366 232.990385 326.982955 238.903846 320.535352 244.817308 325.010181 250.730769 324.288434 256.644231 322.508126 262.557692 320.439119 268.471154 323.518571 274.384615 319.957955 280.298077 319.717373 286.211538 321.208982 292.125000 320.872167 298.038462 325.058297 303.951923 324.432783 309.865385 321.160866 315.778846 318.418229 321.692308 318.370112 327.605769 320.439119 333.519231 321.353331 339.432692 325.202646 345.346154 327.031071 351.259615 328.185866 357.173077 328.474564 363.086538 328.089633 369.000000 325.683811 374.913462 325.587578 380.826923 328.522681 386.740385 328.330215 392.653846 327.416003 398.567308 329.196311 404.480769 329.581242 410.394231 328.089633 416.307692 328.041516 422.221154 326.838605 428.134615 327.849051 434.048077 327.079188 439.961538 327.416003 445.875000 329.485009 451.788462 328.955729 457.701923 326.164975 463.615385 329.533126 469.528846 328.330215 475.442308 325.731927 481.355769 323.807270 487.269231 324.432783 493.182692 324.336551 499.096154 323.422338 505.009615 322.748708 510.923077 322.796825 516.836538 323.037407 522.750000 322.075078 528.663462 323.422338 534.576923 322.989290 540.490385 323.374222 546.403846 323.566688 552.317308 322.893057 558.230769 321.786379 564.144231 320.535352 570.057692 319.621140 575.971154 318.273879 581.884615 318.851277 587.798077 318.851277 593.711538 318.658811 599.625000 316.541688 605.538462 316.637920 611.451923 317.744599 617.365385 317.792715 623.278846 315.964290 629.192308 315.964290 635.105769 317.552133 641.019231 316.541688 646.932692 316.637920 652.846154 316.589804 658.759615 315.194427 664.673077 314.280215 670.586538 312.499907 676.500000 312.596140 682.413462 313.510352 688.326923 313.269770 694.240385 312.548023 700.153846 311.874393 706.067308 310.045968 711.980769 309.420455 717.894231 309.757270 723.807692 309.083640"/></g><g class="series serie-2 color-2"><path class="line reactive nofill" d="M14.192308 308.169427 L20.105769 308.169427 26.019231 308.169427 31.932692 308.169427 37.846154 308.169427 43.759615 308.169427 49.673077 308.169427 55.586538 308.169427 61.500000 308.169427 67.413462 308.169427 73.326923 308.169427 79.240385 308.169427 85.153846 308.169427 91.067308 308.169427 96.980769 308.169427 102.894231 308.169427 108.807692 308.169427 114.721154 308.169427 120.634615 308.169427 126.548077 308.169427 132.461538 308.169427 138.375000 308.169427 144.288462 308.169427 150.201923 308.169427 156.115385 308.169427 162.028846 308.169427 167.942308 308.169427 173.855769 308.169427 179.769231 308.169427 185.682692 308.169427 191.596154 308.169427 197.509615 308.169427 203.423077 308.169427 209.336538 308.169427 215.250000 308.169427 221.163462 308.169427 227.076923 308.169427 232.990385 308.169427 238.903846 308.169427 244.817308 308.169427 250.730769 308.169427 256.644231 308.169427 262.557692 308.169427 268.471154 308.169427 274.384615 308.169427 280.298077 308.169427 286.211538 308.169427 292.125000 308.169427 298.038462 308.169427 303.951923 308.169427 309.865385 308.169427 315.778846 308.169427 321.692308 308.169427 327.605769 308.169427 333.519231 308.169427 339.432692 308.169427 345.346154 308.169427 351.259615 308.169427 357.173077 308.169427 363.086538 308.169427 369.000000 308.169427 374.913462 308.169427 380.826923 308.169427 386.740385 308.169427 392.653846 308.169427 398.567308 308.169427 404.480769 308.169427 410.394231 308.169427 416.307692 308.169427 422.221154 308.169427 428.134615 308.169427 434.048077 308.169427 439.961538 308.169427 445.875000 308.169427 451.788462 308.169427 457.701923 308.169427 463.615385 308.169427 469.528846 308.169427 475.442308 308.169427 481.355769 308.169427 487.269231 308.169427 493.182692 308.169427 499.096154 308.169427 505.009615 308.169427 510.923077 308.169427 516.836538 308.169427 522.750000 308.169427 528.663462 308.169427 534.576923 308.169427 540.490385 308.169427 546.403846 308.169427 552.317308 308.169427 558.230769 308.169427 564.144231 308.169427 570.057692 308.169427 575.971154 308.169427 581.884615 308.169427 587.798077 308.169427 593.711538 308.169427 599.625000 308.169427 605.538462 308.169427 611.451923 308.169427 617.365385 308.169427 623.278846 308.169427 629.192308 308.169427 635.105769 308.169427 641.019231 308.169427 646.932692 308.169427 652.846154 308.169427 658.759615 308.169427 664.673077 308.169427 670.586538 308.169427 676.500000 308.169427 682.413462 308.169427 688.326923 308.169427 694.240385 308.169427 700.153846 308.169427 706.067308 308.169427 711.980769 308.169427 717.894231 308.169427 723.807692 308.169427"/></g></g><g class="titles"><text class="title plot_title" x="400.0" y="26">SCJ Broad: Future and Past Averages in ODIs</text></g><g class="plot overlay" transform="translate(42, 46)"><g class="series serie-0 color-0"><g class="dots"><desc class="label">178 wickets in 121 innings (1018.1 overs)</desc><circle class="dot reactive tooltip-trigger" cx="14.192307692307692" cy="308.1694273454059" r="2.5"/><desc class="value">30.13</desc><desc class="x top">14.192307692307692</desc><desc class="y top">308.1694273454059</desc><desc class="x_label">2006</desc></g><g class="dots"><desc class="label">173 wickets in 116 innings (982.3 overs)</desc><circle class="dot reactive tooltip-trigger" cx="43.75961538461538" cy="309.08363967198727" r="2.5"/><desc class="value">29.94</desc><desc class="x top">43.75961538461538</desc><desc class="y top">309.08363967198727</desc><desc class="x_label">2007</desc></g><g class="dots"><desc class="label">148 wickets in 100 innings (837.1 overs)</desc><circle class="dot reactive tooltip-trigger" cx="138.375" cy="308.3137766601293" r="2.5"/><desc class="value">30.1</desc><desc class="x top">138.375</desc><desc class="y top">308.3137766601293</desc><desc class="x_label">2008</desc></g><g class="dots"><desc class="label">116 wickets in 79 innings (672.2 overs)</desc><circle class="dot reactive tooltip-trigger" cx="262.5576923076923" cy="301.57747530637175" r="2.5"/><desc class="value">31.5</desc><desc class="x top">262.5576923076923</desc><desc class="y top">301.57747530637175</desc><desc class="x_label">2009</desc></g><g class="dots"><desc class="label">84 wickets in 64 innings (542.5 overs)</desc><circle class="dot reactive tooltip-trigger" cx="351.25961538461536" cy="285.6990506868004" r="2.5"/><desc class="value">34.8</desc><desc class="x top">351.25961538461536</desc><desc class="y top">285.6990506868004</desc><desc class="x_label">2010</desc></g><g class="dots"><desc class="label">54 wickets in 48 innings (399.5 overs)</desc><circle class="dot reactive tooltip-trigger" cx="445.87499999999994" cy="259.18689321594024" r="2.5"/><desc class="value">40.31</desc><desc class="x left top">445.87499999999994</desc><desc class="y left top">259.18689321594024</desc><desc class="x_label">2011</desc></g><g class="dots"><desc class="label">41 wickets in 37 innings (308.5 overs)</desc><circle class="dot reactive tooltip-trigger" cx="510.9230769230769" cy="259.13877677769915" r="2.5"/><desc class="value">40.32</desc><desc class="x left top">510.9230769230769</desc><desc class="y left top">259.13877677769915</desc><desc class="x_label">2012</desc></g><g class="dots"><desc class="label">30 wickets in 28 innings (229.5 overs)</desc><circle class="dot reactive tooltip-trigger" cx="564.1442307692308" cy="247.0615507791767" r="2.5"/><desc class="value">42.83</desc><desc class="x left top">564.1442307692308</desc><desc class="y left top">247.0615507791767</desc><desc class="x_label">2013</desc></g><g class="dots"><desc class="label">18 wickets in 19 innings (157.1 overs)</desc><circle class="dot reactive tooltip-trigger" cx="617.3653846153845" cy="222.47405083796167" r="2.5"/><desc class="value">47.94</desc><desc class="x left">617.3653846153845</desc><desc class="y left">222.47405083796167</desc><desc class="x_label">2014</desc></g><g class="dots"><desc class="label">10 wickets in 13 innings (106.1 overs)</desc><circle class="dot reactive tooltip-trigger" cx="652.8461538461538" cy="165.8891194663982" r="2.5"/><desc class="value">59.7</desc><desc class="x left">652.8461538461538</desc><desc class="y left">165.8891194663982</desc><desc class="x_label">2015</desc></g><g class="dots"><desc class="label">1 wickets in 2 innings (16.0 overs)</desc><circle class="dot reactive tooltip-trigger" cx="717.8942307692307" cy="24.90795541990093" r="2.5"/><desc class="value">89</desc><desc class="x left">717.8942307692307</desc><desc class="y left">24.90795541990093</desc><desc class="x_label">2016</desc></g></g><g class="series serie-1 color-1"><g class="dots"><desc class="label">0 wickets over 0 innings</desc><circle class="dot reactive tooltip-trigger" cx="14.192307692307692" cy="453.1442557659166" r="2.5"/><desc class="value">0</desc><desc class="x top">14.192307692307692</desc><desc class="y top">453.1442557659166</desc><desc class="x_label">2006</desc></g><g class="dots"><desc class="label">5 wickets in 5 innings (35.4 overs)</desc><circle class="dot reactive tooltip-trigger" cx="43.75961538461538" cy="275.1134342737528" r="2.5"/><desc class="value">37</desc><desc class="x top">43.75961538461538</desc><desc class="y top">275.1134342737528</desc><desc class="x_label">2007</desc></g><g class="dots"><desc class="label">30 wickets in 21 innings (181.0 overs)</desc><circle class="dot reactive tooltip-trigger" cx="138.375" cy="307.3514478953068" r="2.5"/><desc class="value">30.3</desc><desc class="x top">138.375</desc><desc class="y top">307.3514478953068</desc><desc class="x_label">2008</desc></g><g class="dots"><desc class="label">62 wickets in 42 innings (345.5 overs)</desc><circle class="dot reactive tooltip-trigger" cx="262.5576923076923" cy="320.4391190968929" r="2.5"/><desc class="value">27.58</desc><desc class="x top">262.5576923076923</desc><desc class="y top">320.4391190968929</desc><desc class="x_label">2009</desc></g><g class="dots"><desc class="label">94 wickets in 57 innings (475.2 overs)</desc><circle class="dot reactive tooltip-trigger" cx="351.25961538461536" cy="328.1858656537141" r="2.5"/><desc class="value">25.97</desc><desc class="x top">351.25961538461536</desc><desc class="y top">328.1858656537141</desc><desc class="x_label">2010</desc></g><g class="dots"><desc class="label">124 wickets in 73 innings (618.2 overs)</desc><circle class="dot reactive tooltip-trigger" cx="445.87499999999994" cy="329.48500948622444" r="2.5"/><desc class="value">25.7</desc><desc class="x left top">445.87499999999994</desc><desc class="y left top">329.48500948622444</desc><desc class="x_label">2011</desc></g><g class="dots"><desc class="label">137 wickets in 84 innings (709.2 overs)</desc><circle class="dot reactive tooltip-trigger" cx="510.9230769230769" cy="322.79682457070805" r="2.5"/><desc class="value">27.09</desc><desc class="x left top">510.9230769230769</desc><desc class="y left top">322.79682457070805</desc><desc class="x_label">2012</desc></g><g class="dots"><desc class="label">148 wickets in 93 innings (788.2 overs)</desc><circle class="dot reactive tooltip-trigger" cx="564.1442307692308" cy="320.53535197337516" r="2.5"/><desc class="value">27.56</desc><desc class="x left top">564.1442307692308</desc><desc class="y left top">320.53535197337516</desc><desc class="x_label">2013</desc></g><g class="dots"><desc class="label">160 wickets in 102 innings (861.0 overs)</desc><circle class="dot reactive tooltip-trigger" cx="617.3653846153845" cy="317.79271499363097" r="2.5"/><desc class="value">28.13</desc><desc class="x left top">617.3653846153845</desc><desc class="y left top">317.79271499363097</desc><desc class="x_label">2014</desc></g><g class="dots"><desc class="label">168 wickets in 108 innings (912.0 overs)</desc><circle class="dot reactive tooltip-trigger" cx="652.8461538461538" cy="316.5898040376029" r="2.5"/><desc class="value">28.38</desc><desc class="x left top">652.8461538461538</desc><desc class="y left top">316.5898040376029</desc><desc class="x_label">2015</desc></g><g class="dots"><desc class="label">177 wickets in 119 innings (1002.1 overs)</desc><circle class="dot reactive tooltip-trigger" cx="717.8942307692307" cy="309.75726980736306" r="2.5"/><desc class="value">29.8</desc><desc class="x left top">717.8942307692307</desc><desc class="y left top">309.75726980736306</desc><desc class="x_label">2016</desc></g></g><g class="series serie-2 color-2"/></g><g class="plot text-overlay" transform="translate(42, 46)"><g class="series serie-0 color-0"/><g class="series serie-1 color-1"/><g class="series serie-2 color-2"/></g><g class="plot tooltip-overlay" transform="translate(42, 46)"><g class="tooltip" style="opacity: 0" transform="translate(0 0)"><rect class="tooltip-box" height="0" rx="10" ry="10" width="0"/><g class="text"/></g></g><g class="legends" transform="translate(52, 545)"><g class="legend reactive activate-serie" id="activate-serie-0"><rect class="color-0 reactive" height="12" width="12" x="0.0" y="1.0"/><text x="17.0" y="11.2">Future Average</text></g><g class="legend reactive activate-serie" id="activate-serie-1"><rect class="color-1 reactive" height="12" width="12" x="369.0" y="1.0"/><text x="386.0" y="11.2">Past Average</text></g><g class="legend reactive activate-serie" id="activate-serie-2"><rect class="color-2 reactive" height="12" width="12" x="0.0" y="22.0"/><text x="17.0" y="32.2">Career Average</text></g></g></g></svg>