<?xml version='1.0' encoding='utf-8'?>
<svg xmlns:xlink="http://www.w3.org/1999/xlink" xmlns="http://www.w3.org/2000/svg" id="chart-25f3a8c3-c54f-4ea3-80c5-8ae920182968" class="pygal-chart" viewBox="0 0 800 600"><!--Generated with pygal 2.4.0 (lxml) ©Kozea 2012-2016 on 2019-08-04--><!--http://pygal.org--><!--http://github.com/Kozea/pygal--><defs><style type="text/css">#chart-25f3a8c3-c54f-4ea3-80c5-8ae920182968{-webkit-user-select:none;-webkit-font-smoothing:antialiased;font-family:Consolas,"Liberation Mono",Menlo,Courier,monospace}#chart-25f3a8c3-c54f-4ea3-80c5-8ae920182968 .title{font-family:Consolas,"Liberation Mono",Menlo,Courier,monospace;font-size:16px}#chart-25f3a8c3-c54f-4ea3-80c5-8ae920182968 .legends .legend text{font-family:Consolas,"Liberation Mono",Menlo,Courier,monospace;font-size:14px}#chart-25f3a8c3-c54f-4ea3-80c5-8ae920182968 .axis text{font-family:Consolas,"Liberation Mono",Menlo,Courier,monospace;font-size:10px}#chart-25f3a8c3-c54f-4ea3-80c5-8ae920182968 .axis text.major{font-family:Consolas,"Liberation Mono",Menlo,Courier,monospace;font-size:10px}#chart-25f3a8c3-c54f-4ea3-80c5-8ae920182968 .text-overlay text.value{font-family:Consolas,"Liberation Mono",Menlo,Courier,monospace;font-size:16px}#chart-25f3a8c3-c54f-4ea3-80c5-8ae920182968 .text-overlay text.label{font-family:Consolas,"Liberation Mono",Menlo,Courier,monospace;font-size:10px}#chart-25f3a8c3-c54f-4ea3-80c5-8ae920182968 .tooltip{font-family:Consolas,"Liberation Mono",Menlo,Courier,monospace;font-size:14px}#chart-25f3a8c3-c54f-4ea3-80c5-8ae920182968 text.no_data{font-family:Consolas,"Liberation Mono",Menlo,Courier,monospace;font-size:64px}
#chart-25f3a8c3-c54f-4ea3-80c5-8ae920182968{background-color:rgba(249,249,249,1)}#chart-25f3a8c3-c54f-4ea3-80c5-8ae920182968 path,#chart-25f3a8c3-c54f-4ea3-80c5-8ae920182968 line,#chart-25f3a8c3-c54f-4ea3-80c5-8ae920182968 rect,#chart-25f3a8c3-c54f-4ea3-80c5-8ae920182968 circle{-webkit-transition:150ms;-moz-transition:150ms;transition:150ms}#chart-25f3a8c3-c54f-4ea3-80c5-8ae920182968 .graph &gt; .background{fill:rgba(249,249,249,1)}#chart-25f3a8c3-c54f-4ea3-80c5-8ae920182968 .plot &gt; .background{fill:rgba(255,255,255,1)}#chart-25f3a8c3-c54f-4ea3-80c5-8ae920182968 .graph{fill:rgba(0,0,0,.87)}#chart-25f3a8c3-c54f-4ea3-80c5-8ae920182968 text.no_data{fill:rgba(0,0,0,1)}#chart-25f3a8c3-c54f-4ea3-80c5-8ae920182968 .title{fill:rgba(0,0,0,1)}#chart-25f3a8c3-c54f-4ea3-80c5-8ae920182968 .legends .legend text{fill:rgba(0,0,0,.87)}#chart-25f3a8c3-c54f-4ea3-80c5-8ae920182968 .legends .legend:hover text{fill:rgba(0,0,0,1)}#chart-25f3a8c3-c54f-4ea3-80c5-8ae920182968 .axis .line{stroke:rgba(0,0,0,1)}#chart-25f3a8c3-c54f-4ea3-80c5-8ae920182968 .axis .guide.line{stroke:rgba(0,0,0,.54)}#chart-25f3a8c3-c54f-4ea3-80c5-8ae920182968 .axis .major.line{stroke:rgba(0,0,0,.87)}#chart-25f3a8c3-c54f-4ea3-80c5-8ae920182968 .axis text.major{fill:rgba(0,0,0,1)}#chart-25f3a8c3-c54f-4ea3-80c5-8ae920182968 .axis.y .guides:hover .guide.line,#chart-25f3a8c3-c54f-4ea3-80c5-8ae920182968 .line-graph .axis.x .guides:hover .guide.line,#chart-25f3a8c3-c54f-4ea3-80c5-8ae920182968 .stackedline-graph .axis.x .guides:hover .guide.line,#chart-25f3a8c3-c54f-4ea3-80c5-8ae920182968 .xy-graph .axis.x .guides:hover .guide.line{stroke:rgba(0,0,0,1)}#chart-25f3a8c3-c54f-4ea3-80c5-8ae920182968 .axis .guides:hover text{fill:rgba(0,0,0,1)}#chart-25f3a8c3-c54f-4ea3-80c5-8ae920182968 .reactive{fill-opacity:.7;stroke-opacity:.8}#chart-25f3a8c3-c54f-4ea3-80c5-8ae920182968 .ci{stroke:rgba(0,0,0,.87)}#chart-25f3a8c3-c54f-4ea3-80c5-8ae920182968 .reactive.active,#chart-25f3a8c3-c54f-4ea3-80c5-8ae920182968 .active .reactive{fill-opacity:.8;stroke-opacity:.9;stroke-width:4}#chart-25f3a8c3-c54f-4ea3-80c5-8ae920182968 .ci .reactive.active{stroke-width:1.5}#chart-25f3a8c3-c54f-4ea3-80c5-8ae920182968 .series text{fill:rgba(0,0,0,1)}#chart-25f3a8c3-c54f-4ea3-80c5-8ae920182968 .tooltip rect{fill:rgba(255,255,255,1);stroke:rgba(0,0,0,1);-webkit-transition:opacity 150ms;-moz-transition:opacity 150ms;transition:opacity 150ms}#chart-25f3a8c3-c54f-4ea3-80c5-8ae920182968 .tooltip .label{fill:rgba(0,0,0,.87)}#chart-25f3a8c3-c54f-4ea3-80c5-8ae920182968 .tooltip .label{fill:rgba(0,0,0,.87)}#chart-25f3a8c3-c54f-4ea3-80c5-8ae920182968 .tooltip .legend{font-size:.8em;fill:rgba(0,0,0,.54)}#chart-25f3a8c3-c54f-4ea3-80c5-8ae920182968 .tooltip .x_label{font-size:.6em;fill:rgba(0,0,0,1)}#chart-25f3a8c3-c54f-4ea3-80c5-8ae920182968 .tooltip .xlink{font-size:.5em;text-decoration:underline}#chart-25f3a8c3-c54f-4ea3-80c5-8ae920182968 .tooltip .value{font-size:1.5em}#chart-25f3a8c3-c54f-4ea3-80c5-8ae920182968 .bound{font-size:.5em}#chart-25f3a8c3-c54f-4ea3-80c5-8ae920182968 .max-value{font-size:.75em;fill:rgba(0,0,0,.54)}#chart-25f3a8c3-c54f-4ea3-80c5-8ae920182968 .map-element{fill:rgba(255,255,255,1);stroke:rgba(0,0,0,.54) !important}#chart-25f3a8c3-c54f-4ea3-80c5-8ae920182968 .map-element .reactive{fill-opacity:inherit;stroke-opacity:inherit}#chart-25f3a8c3-c54f-4ea3-80c5-8ae920182968 .color-0,#chart-25f3a8c3-c54f-4ea3-80c5-8ae920182968 .color-0 a:visited{stroke:red;fill:red}#chart-25f3a8c3-c54f-4ea3-80c5-8ae920182968 .color-1,#chart-25f3a8c3-c54f-4ea3-80c5-8ae920182968 .color-1 a:visited{stroke:blue;fill:blue}#chart-25f3a8c3-c54f-4ea3-80c5-8ae920182968 .color-2,#chart-25f3a8c3-c54f-4ea3-80c5-8ae920182968 .color-2 a:visited{stroke:green;fill:green}#chart-25f3a8c3-c54f-4ea3-80c5-8ae920182968 .text-overlay .color-0 text{fill:white}#chart-25f3a8c3-c54f-4ea3-80c5-8ae920182968 .text-overlay .color-1 text{fill:white}#chart-25f3a8c3-c54f-4ea3-80c5-8ae920182968 .text-overlay .color-2 text{fill:white}
#chart-25f3a8c3-c54f-4ea3-80c5-8ae920182968 text.no_data{text-anchor:middle}#chart-25f3a8c3-c54f-4ea3-80c5-8ae920182968 .guide.line{fill:none}#chart-25f3a8c3-c54f-4ea3-80c5-8ae920182968 .centered{text-anchor:middle}#chart-25f3a8c3-c54f-4ea3-80c5-8ae920182968 .title{text-anchor:middle}#chart-25f3a8c3-c54f-4ea3-80c5-8ae920182968 .legends .legend text{fill-opacity:1}#chart-25f3a8c3-c54f-4ea3-80c5-8ae920182968 .axis.x text{text-anchor:middle}#chart-25f3a8c3-c54f-4ea3-80c5-8ae920182968 .axis.x:not(.web) text[transform]{text-anchor:start}#chart-25f3a8c3-c54f-4ea3-80c5-8ae920182968 .axis.x:not(.web) text[transform].backwards{text-anchor:end}#chart-25f3a8c3-c54f-4ea3-80c5-8ae920182968 .axis.y text{text-anchor:end}#chart-25f3a8c3-c54f-4ea3-80c5-8ae920182968 .axis.y text[transform].backwards{text-anchor:start}#chart-25f3a8c3-c54f-4ea3-80c5-8ae920182968 .axis.y2 text{text-anchor:start}#chart-25f3a8c3-c54f-4ea3-80c5-8ae920182968 .axis.y2 text[transform].backwards{text-anchor:end}#chart-25f3a8c3-c54f-4ea3-80c5-8ae920182968 .axis .guide.line{stroke-dasharray:4,4}#chart-25f3a8c3-c54f-4ea3-80c5-8ae920182968 .axis .major.guide.line{stroke-dasharray:6,6}#chart-25f3a8c3-c54f-4ea3-80c5-8ae920182968 .horizontal .axis.y .guide.line,#chart-25f3a8c3-c54f-4ea3-80c5-8ae920182968 .horizontal .axis.y2 .guide.line,#chart-25f3a8c3-c54f-4ea3-80c5-8ae920182968 .vertical .axis.x .guide.line{opacity:0}#chart-25f3a8c3-c54f-4ea3-80c5-8ae920182968 .horizontal .axis.always_show .guide.line,#chart-25f3a8c3-c54f-4ea3-80c5-8ae920182968 .vertical .axis.always_show .guide.line{opacity:1 !important}#chart-25f3a8c3-c54f-4ea3-80c5-8ae920182968 .axis.y .guides:hover .guide.line,#chart-25f3a8c3-c54f-4ea3-80c5-8ae920182968 .axis.y2 .guides:hover .guide.line,#chart-25f3a8c3-c54f-4ea3-80c5-8ae920182968 .axis.x .guides:hover .guide.line{opacity:1}#chart-25f3a8c3-c54f-4ea3-80c5-8ae920182968 .axis .guides:hover text{opacity:1}#chart-25f3a8c3-c54f-4ea3-80c5-8ae920182968 .nofill{fill:none}#chart-25f3a8c3-c54f-4ea3-80c5-8ae920182968 .subtle-fill{fill-opacity:.2}#chart-25f3a8c3-c54f-4ea3-80c5-8ae920182968 .dot{stroke-width:1px;fill-opacity:1}#chart-25f3a8c3-c54f-4ea3-80c5-8ae920182968 .dot.active{stroke-width:5px}#chart-25f3a8c3-c54f-4ea3-80c5-8ae920182968 .dot.negative{fill:transparent}#chart-25f3a8c3-c54f-4ea3-80c5-8ae920182968 text,#chart-25f3a8c3-c54f-4ea3-80c5-8ae920182968 tspan{stroke:none !important}#chart-25f3a8c3-c54f-4ea3-80c5-8ae920182968 .series text.active{opacity:1}#chart-25f3a8c3-c54f-4ea3-80c5-8ae920182968 .tooltip rect{fill-opacity:.95;stroke-width:.5}#chart-25f3a8c3-c54f-4ea3-80c5-8ae920182968 .tooltip text{fill-opacity:1}#chart-25f3a8c3-c54f-4ea3-80c5-8ae920182968 .showable{visibility:hidden}#chart-25f3a8c3-c54f-4ea3-80c5-8ae920182968 .showable.shown{visibility:visible}#chart-25f3a8c3-c54f-4ea3-80c5-8ae920182968 .gauge-background{fill:rgba(229,229,229,1);stroke:none}#chart-25f3a8c3-c54f-4ea3-80c5-8ae920182968 .bg-lines{stroke:rgba(249,249,249,1);stroke-width:2px}</style><script type="text/javascript">window.pygal = window.pygal || {};window.pygal.config = window.pygal.config || {};window.pygal.config['25f3a8c3-c54f-4ea3-80c5-8ae920182968'] = {"allow_interruptions": false, "box_mode": "extremes", "classes": ["pygal-chart"], "css": ["file://style.css", "file://graph.css"], "defs": [], "disable_xml_declaration": false, "dots_size": 2.5, "dynamic_print_values": false, "explicit_size": false, "fill": false, "force_uri_protocol": "https", "formatter": null, "half_pie": false, "height": 600, "include_x_axis": false, "inner_radius": 0, "interpolate": null, "interpolation_parameters": {}, "interpolation_precision": 250, "inverse_y_axis": false, "js": ["//kozea.github.io/pygal.js/2.0.x/pygal-tooltips.min.js"], "legend_at_bottom": true, "legend_at_bottom_columns": null, "legend_box_size": 12, "logarithmic": false, "margin": 20, "margin_bottom": null, "margin_left": null, "margin_right": null, "margin_top": null, "max_scale": 16, "min_scale": 4, "missing_value_fill_truncation": "x", "no_data_text": "No data", "no_prefix": false, "order_min": null, "pretty_print": false, "print_labels": false, "print_values": false, "print_values_position": "center", "print_zeroes": true, "range": null, "rounded_bars": null, "secondary_range": null, "show_dots": true, "show_legend": true, "show_minor_x_labels": false, "show_minor_y_labels": true, "show_only_major_dots": false, "show_x_guides": false, "show_x_labels": true, "show_y_guides": true, "show_y_labels": true, "spacing": 10, "stack_from_top": false, "strict": false, "stroke": true, "stroke_style": null, "style": {"background": "rgba(249, 249, 249, 1)", "ci_colors": [], "colors": ["red", "blue", "green", "#a3a3a3"], "font_family": "Consolas, \"Liberation Mono\", Menlo, Courier, monospace", "foreground": "rgba(0, 0, 0, .87)", "foreground_strong": "rgba(0, 0, 0, 1)", "foreground_subtle": "rgba(0, 0, 0, .54)", "guide_stroke_dasharray": "4,4", "label_font_family": "Consolas, \"Liberation Mono\", Menlo, Courier, monospace", "label_font_size": 10, "legend_font_family": "Consolas, \"Liberation Mono\", Menlo, Courier, monospace", "legend_font_size": 14, "major_guide_stroke_dasharray": "6,6", "major_label_font_family": "Consolas, \"Liberation Mono\", Menlo, Courier, monospace", "major_label_font_size": 10, "no_data_font_family": "Consolas, \"Liberation Mono\", Menlo, Courier, monospace", "no_data_font_size": 64, "opacity": ".7", "opacity_hover": ".8", "plot_background": "rgba(255, 255, 255, 1)", "stroke_opacity": ".8", "stroke_opacity_hover": ".9", "title_font_family": "Consolas, \"Liberation Mono\", Menlo, Courier, monospace", "title_font_size": 16, "tooltip_font_family": "Consolas, \"Liberation Mono\", Menlo, Courier, monospace", "tooltip_font_size": 14, "transition": "150ms", "value_background": "rgba(229, 229, 229, 1)", "value_colors": [], "value_font_family": "Consolas, \"Liberation Mono\", Menlo, Courier, monospace", "value_font_size": 16, "value_label_font_family": "Consolas, \"Liberation Mono\", Menlo, Courier, monospace", "value_label_font_size": 10}, "title": "Shahid Afridi: Future and Past Averages in ODIs", "tooltip_border_radius": 10, "tooltip_fancy_mode": true, "truncate_label": null, "truncate_legend": null, "width": 800, "x_label_rotation": 45, "x_labels": ["1996", "0", "0", "0", "0", "0", "0", "0", "0", "0", "0", "0", "0", "0", "0", "0", "1997", "0", "0", "0", "0", "0", "0", "0", "0", "0", "0", "0", "0", "0", "0", "0", "0", "0", "0", "0", "0", "0", "0", "0", "0", "0", "0", "0", "0", "0", "0", "1998", "0", "0", "0", "0", "0", "0", "0", "0", "0", "0", "0", "0", "0", "0", "0", "0", "0", "0", "1999", "0", "0", "0", "0", "0", "0", "0", "0", "0", "0", "0", "0", "0", "0", "0", "2000", "0", "0", "0", "0", "0", "0", "0", "0", "0", "0", "0", "0", "0", "0", "0", "0", "0", "0", "0", "0", "0", "0", "0", "0", "2001", "0", "0", "0", "0", "0", "0", "0", "0", "0", "0", "0", "0", "0", "0", "2002", "0", "0", "0", "0", "0", "0", "0", "0", "0", "0", "0", "0", "0", "0", "0", "0", "0", "0", "0", "0", "0", "0", "0", "0", "0", "0", "0", "0", "0", "0", "0", "0", "2003", "0", "0", "2004", "0", "0", "0", "0", "0", "0", "0", "0", "0", "0", "0", "0", "2005", "0", "0", "0", "0", "0", "0", "0", "0", "0", "0", "0", "0", "0", "0", "0", "0", "0", "0", "0", "0", "0", "0", "2006", "0", "0", "0", "0", "0", "0", "0", "0", "0", "0", "0", "0", "0", "0", "0", "0", "2007", "0", "0", "0", "0", "0", "0", "0", "0", "0", "0", "0", "0", "0", "2008", "0", "0", "0", "0", "0", "0", "0", "0", "0", "0", "0", "0", "0", "0", "0", "0", "0", "0", "2009", "0", "0", "0", "0", "0", "0", "0", "0", "0", "0", "0", "0", "0", "0", "0", "0", "0", "0", "0", "2010", "0", "0", "0", "0", "0", "0", "0", "0", "0", "0", "0", "0", "0", "0", "0", "0", "0", "2011", "0", "0", "0", "0", "0", "0", "0", "0", "0", "0", "0", "0", "0", "0", "0", "0", "0", "0", "0", "0", "0", "0", "0", "0", "0", "2012", "0", "0", "0", "0", "0", "0", "0", "0", "0", "0", "0", "0", "0", "0", "2013", "0", "0", "0", "0", "0", "0", "0", "0", "0", "0", "0", "0", "0", "0", "0", "0", "0", "0", "0", "0", "0", "0", "0", "2014", "0", "0", "0", "0", "0", "0", "0", "0", "0", "0", "0", "0", "0", "0", "0", "2015", "0", "0", "0", "0", "0", "0", "0", "0"], "x_labels_major": ["1996", "1997", "1998", "1999", "2000", "2001", "2002", "2003", "2004", "2005", "2006", "2007", "2008", "2009", "2010", "2011", "2012", "2013", "2014", "2015"], "x_labels_major_count": null, "x_labels_major_every": null, "x_title": null, "xrange": null, "y_label_rotation": 0, "y_labels": null, "y_labels_major": null, "y_labels_major_count": null, "y_labels_major_every": null, "y_title": null, "zero": 150.0, "legends": ["Future Average", "Past Average", "Career Average"]}</script><script type="text/javascript" xlink:href="https://kozea.github.io/pygal.js/2.0.x/pygal-tooltips.min.js"/></defs><title>Shahid Afridi: Future and Past Averages in ODIs</title><g class="graph line-graph vertical"><rect class="background" height="600" width="800" x="0" y="0"/><g class="plot" transform="translate(48, 46)"><rect class="background" height="462.02943725152284" width="732.0" x="0" y="0"/><g class="axis y always_show"><g class="guides"><path class="axis major line" d="M0.000000 453.144256 h732.000000"/><text class="major" x="-5" y="456.6442557659166">0</text><title>0</title></g><g class="guides"><path class="guide line" d="M0.000000 421.636520 h732.000000"/><text class="" x="-5" y="425.1365200013556">10</text><title>10</title></g><g class="guides"><path class="guide line" d="M0.000000 390.128784 h732.000000"/><text class="" x="-5" y="393.62878423679456">20</text><title>20</title></g><g class="guides"><path class="guide line" d="M0.000000 358.621048 h732.000000"/><text class="" x="-5" y="362.12104847223355">30</text><title>30</title></g><g class="guides"><path class="guide line" d="M0.000000 327.113313 h732.000000"/><text class="" x="-5" y="330.61331270767255">40</text><title>40</title></g><g class="guides"><path class="major guide line" d="M0.000000 295.605577 h732.000000"/><text class="major" x="-5" y="299.1055769431115">50</text><title>50</title></g><g class="guides"><path class="guide line" d="M0.000000 264.097841 h732.000000"/><text class="" x="-5" y="267.5978411785505">60</text><title>60</title></g><g class="guides"><path class="guide line" d="M0.000000 232.590105 h732.000000"/><text class="" x="-5" y="236.09010541398948">70</text><title>70</title></g><g class="guides"><path class="guide line" d="M0.000000 201.082370 h732.000000"/><text class="" x="-5" y="204.58236964942841">80</text><title>80</title></g><g class="guides"><path class="guide line" d="M0.000000 169.574634 h732.000000"/><text class="" x="-5" y="173.0746338848674">90</text><title>90</title></g><g class="guides"><path class="major guide line" d="M0.000000 138.066898 h732.000000"/><text class="major" x="-5" y="141.56689812030635">100</text><title>100</title></g><g class="guides"><path class="guide line" d="M0.000000 106.559162 h732.000000"/><text class="" x="-5" y="110.05916235574534">110</text><title>110</title></g><g class="guides"><path class="guide line" d="M0.000000 75.051427 h732.000000"/><text class="" x="-5" y="78.55142659118434">120</text><title>120</title></g><g class="guides"><path class="guide line" d="M0.000000 43.543691 h732.000000"/><text class="" x="-5" y="47.04369082662333">130</text><title>130</title></g><g class="guides"><path class="guide line" d="M0.000000 12.035955 h732.000000"/><text class="" x="-5" y="15.535955062062328">140</text><title>140</title></g></g><g class="axis x"><g class="guides"><path class="major line" d="M14.076923 0.000000 v462.029437"/><text class="major" x="14.076923076923077" y="477.02943725152284" transform="rotate(45 14.076923 477.029437)">1996</text></g><g class="guides"><path class="major guide line" d="M44.431474 0.000000 v462.029437"/><text class="major" x="44.43147418619117" y="477.02943725152284" transform="rotate(45 44.431474 477.029437)">1997</text></g><g class="guides"><path class="major guide line" d="M103.243417 0.000000 v462.029437"/><text class="major" x="103.24341696039808" y="477.02943725152284" transform="rotate(45 103.243417 477.029437)">1998</text></g><g class="guides"><path class="major guide line" d="M139.289446 0.000000 v462.029437"/><text class="major" x="139.28944640265394" y="477.02943725152284" transform="rotate(45 139.289446 477.029437)">1999</text></g><g class="guides"><path class="major guide line" d="M169.643998 0.000000 v462.029437"/><text class="major" x="169.64399751192204" y="477.02943725152284" transform="rotate(45 169.643998 477.029437)">2000</text></g><g class="guides"><path class="major guide line" d="M217.072984 0.000000 v462.029437"/><text class="major" x="217.07298362015342" y="477.02943725152284" transform="rotate(45 217.072984 477.029437)">2001</text></g><g class="guides"><path class="major guide line" d="M245.530375 0.000000 v462.029437"/><text class="major" x="245.53037528509228" y="477.02943725152284" transform="rotate(45 245.530375 477.029437)">2002</text></g><g class="guides"><path class="major guide line" d="M308.136637 0.000000 v462.029437"/><text class="major" x="308.1366369479577" y="477.02943725152284" transform="rotate(45 308.136637 477.029437)">2003</text></g><g class="guides"><path class="major guide line" d="M313.828115 0.000000 v462.029437"/><text class="major" x="313.8281152809455" y="477.02943725152284" transform="rotate(45 313.828115 477.029437)">2004</text></g><g class="guides"><path class="major guide line" d="M338.491188 0.000000 v462.029437"/><text class="major" x="338.49118805722577" y="477.02943725152284" transform="rotate(45 338.491188 477.029437)">2005</text></g><g class="guides"><path class="major guide line" d="M382.125855 0.000000 v462.029437"/><text class="major" x="382.1258552767987" y="477.02943725152284" transform="rotate(45 382.125855 477.029437)">2006</text></g><g class="guides"><path class="major guide line" d="M414.377566 0.000000 v462.029437"/><text class="major" x="414.377565830396" y="477.02943725152284" transform="rotate(45 414.377566 477.029437)">2007</text></g><g class="guides"><path class="major guide line" d="M440.937798 0.000000 v462.029437"/><text class="major" x="440.93779805100564" y="477.02943725152284" transform="rotate(45 440.937798 477.029437)">2008</text></g><g class="guides"><path class="major guide line" d="M476.983827 0.000000 v462.029437"/><text class="major" x="476.98382749326146" y="477.02943725152284" transform="rotate(45 476.983827 477.029437)">2009</text></g><g class="guides"><path class="major guide line" d="M514.927016 0.000000 v462.029437"/><text class="major" x="514.9270163798466" y="477.02943725152284" transform="rotate(45 514.927016 477.029437)">2010</text></g><g class="guides"><path class="major guide line" d="M549.075886 0.000000 v462.029437"/><text class="major" x="549.0758863777733" y="477.02943725152284" transform="rotate(45 549.075886 477.029437)">2011</text></g><g class="guides"><path class="major guide line" d="M598.402032 0.000000 v462.029437"/><text class="major" x="598.4020319303338" y="477.02943725152284" transform="rotate(45 598.402032 477.029437)">2012</text></g><g class="guides"><path class="major guide line" d="M626.859424 0.000000 v462.029437"/><text class="major" x="626.8594235952727" y="477.02943725152284" transform="rotate(45 626.859424 477.029437)">2013</text></g><g class="guides"><path class="major guide line" d="M672.391250 0.000000 v462.029437"/><text class="major" x="672.3912502591747" y="477.02943725152284" transform="rotate(45 672.391250 477.029437)">2014</text></g><g class="guides"><path class="major guide line" d="M702.745801 0.000000 v462.029437"/><text class="major" x="702.7458013684429" y="477.02943725152284" transform="rotate(45 702.745801 477.029437)">2015</text></g></g><g class="series serie-0 color-0"><path class="line reactive nofill" d="M14.076923 344.411060 L15.974083 344.663122 17.871242 344.726137 19.768401 344.285029 21.665561 344.285029 23.562720 344.600106 25.459880 344.253521 27.357039 344.253521 29.254199 344.568598 31.151358 344.852168 33.048518 345.072722 34.945677 344.631614 36.842836 344.978199 38.739996 344.726137 40.637155 344.757645 42.534315 344.883676 44.431474 344.568598 46.328634 344.568598 48.225793 344.883676 50.122953 344.316536 52.020112 344.757645 53.917271 344.852168 55.814431 344.285029 57.711590 344.158998 59.608750 344.474075 61.505909 344.285029 63.403069 344.253521 65.300228 344.474075 67.197388 344.663122 69.094547 344.789152 70.991706 345.293276 72.888866 345.765892 74.786025 346.301524 76.683185 346.364539 78.580344 346.270016 80.477504 346.585093 82.374663 346.679617 84.271823 346.711124 86.168982 346.868663 88.066141 347.278264 89.963301 347.309771 91.860460 347.435802 93.757620 347.687864 95.654779 348.160480 97.551939 348.507065 99.449098 348.885158 101.346258 349.105712 103.243417 349.326266 105.140576 349.641344 107.037736 349.294759 108.934895 349.420790 110.832055 349.609836 112.729214 349.830390 114.626374 349.641344 116.523533 350.208483 118.420693 350.649591 120.317852 350.807130 122.215011 350.964669 124.112171 351.216731 126.009330 351.216731 127.906490 351.531808 129.803649 351.626331 131.700809 352.067439 133.597968 352.603071 135.495128 352.823625 137.392287 352.382517 139.289446 352.382517 141.186606 352.571563 143.083765 352.666086 144.980925 352.351009 146.878084 352.508548 148.775244 352.634579 150.672403 352.224978 152.569563 351.972916 154.466722 352.161963 156.363881 352.445532 158.261041 352.508548 160.158200 352.666086 162.055360 352.918148 163.952519 352.855133 165.849679 353.044179 167.746838 353.296241 169.643998 352.760610 171.541157 353.012672 173.438316 353.296241 175.335476 353.138702 177.232635 353.138702 179.129795 352.634579 181.026954 352.603071 182.924114 352.823625 184.821273 352.949656 186.718433 352.697594 188.615592 352.886641 190.512751 352.981164 192.409911 353.264733 194.307070 352.981164 196.204230 353.044179 198.101389 353.170210 199.998549 352.382517 201.895708 352.414025 203.792868 352.508548 205.690027 353.044179 207.587186 352.792117 209.484346 353.012672 211.381505 353.107195 213.278665 353.201718 215.175824 352.035932 217.072984 351.909901 218.970143 352.035932 220.867303 352.193470 222.764462 351.878393 224.661621 351.720854 226.558781 351.185223 228.455940 351.626331 230.353100 350.775622 232.250259 351.216731 234.147419 351.248238 236.044578 351.122207 237.941738 351.279746 239.838897 350.838638 241.736056 351.122207 243.633216 351.279746 245.530375 351.059192 247.427535 351.342762 249.324694 350.429037 251.221854 350.145468 253.119013 350.082452 255.016173 350.208483 256.913332 350.586576 258.810491 350.775622 260.707651 351.027684 262.604810 350.964669 264.501970 351.153715 266.399129 351.405777 268.296289 351.468792 270.193448 351.342762 272.090608 350.586576 273.987767 350.208483 275.884926 350.429037 277.782086 350.460545 279.679245 350.996176 281.576405 351.311254 283.473564 351.216731 285.370724 350.870145 287.267883 350.933161 289.165043 351.374269 291.062202 350.460545 292.959361 351.027684 294.856521 351.153715 296.753680 351.374269 298.650840 351.468792 300.547999 350.870145 302.445159 350.145468 304.342318 350.019437 306.239478 350.555068 308.136637 351.374269 310.033796 352.098947 311.930956 351.783870 313.828115 351.941408 315.725275 351.846885 317.622434 352.193470 319.519594 350.870145 321.416753 351.122207 323.313913 351.216731 325.211072 349.326266 327.108231 349.609836 329.005391 348.601588 330.902550 348.664604 332.799710 348.790635 334.696869 349.105712 336.594029 349.011189 338.491188 348.538573 340.388348 348.664604 342.285507 349.168728 344.182666 349.452297 346.079826 349.861898 347.976985 349.578328 349.874145 349.357774 351.771304 349.137220 353.668464 348.759127 355.565623 349.420790 357.462783 350.555068 359.359942 350.807130 361.257101 351.500300 363.154261 351.941408 365.051420 351.185223 366.948580 350.681099 368.845739 349.389282 370.742899 349.893406 372.640058 349.609836 374.537217 350.208483 376.434377 349.798882 378.331536 349.483805 380.228696 348.538573 382.125855 348.570081 384.023015 349.578328 385.920174 349.830390 387.817334 350.176975 389.714493 349.609836 391.611652 348.696112 393.508812 348.853650 395.405971 348.916666 397.303131 349.074205 399.200290 348.633096 401.097450 348.538573 402.994609 348.948174 404.891769 349.326266 406.788928 348.507065 408.686087 348.727619 410.583247 349.483805 412.480406 349.893406 414.377566 350.113960 416.274725 349.735867 418.171885 348.570081 420.069044 347.278264 421.966204 347.971434 423.863363 346.931679 425.760522 347.152233 427.657682 347.278264 429.554841 346.207001 431.452001 346.364539 433.349160 347.120725 435.246320 347.120725 437.143479 347.656356 439.040639 348.633096 440.937798 349.798882 442.834957 349.231743 444.732117 349.326266 446.629276 349.798882 448.526436 350.239991 450.423595 349.200235 452.320755 348.002942 454.217914 347.656356 456.115074 347.656356 458.012233 346.522078 459.909392 344.915183 461.806552 344.600106 463.703711 344.348044 465.600871 343.560351 467.498030 344.158998 469.395190 345.261769 471.292349 346.301524 473.189509 346.522078 475.086668 346.679617 476.983827 347.057709 478.880987 347.309771 480.778146 348.191988 482.675306 349.452297 484.572465 345.986446 486.469625 345.324784 488.366784 344.505583 490.263944 345.198753 492.161103 345.986446 494.058262 346.364539 495.955422 346.459062 497.852581 347.467310 499.749741 346.868663 501.646900 345.671369 503.544060 345.797400 505.441219 345.104230 507.338379 345.387799 509.235538 345.545338 511.132697 345.009707 513.029857 344.537091 514.927016 344.505583 516.824176 345.293276 518.721335 344.442567 520.618495 345.828908 522.515654 346.080970 524.412814 345.135738 526.309973 345.356292 528.207132 345.545338 530.104292 346.080970 532.001451 346.553586 533.898611 347.246756 535.795770 348.538573 537.692930 348.475558 539.590089 348.664604 541.487249 349.672852 543.384408 349.483805 545.281567 349.105712 547.178727 350.586576 549.075886 350.397529 550.973046 350.618084 552.870205 350.996176 554.767365 351.279746 556.664524 350.964669 558.561684 352.540055 560.458843 347.908418 562.356002 344.568598 564.253162 339.306806 566.150321 339.968469 568.047481 339.873946 569.944640 339.779422 571.841800 335.399847 573.738959 337.132773 575.636119 338.676652 577.533278 337.447850 579.430437 338.424590 581.327597 339.684899 583.224756 340.913701 585.121916 337.636896 587.019075 336.030002 588.916235 334.612154 590.813394 327.522913 592.710554 328.468145 594.607713 319.582964 596.504872 322.072075 598.402032 323.458415 600.299191 314.069110 602.196351 312.147138 604.093510 311.769045 605.990670 314.793788 607.887829 317.944562 609.784989 315.707512 611.682148 317.660992 613.579307 321.189858 615.476467 320.307642 617.373626 321.063827 619.270786 321.567951 621.167945 323.836508 623.065105 321.599459 624.962264 321.284382 626.859424 325.443403 628.756583 329.444885 630.653742 331.083287 632.550902 334.769692 634.448061 337.636896 636.345221 339.527361 638.242380 320.559704 640.139540 315.991082 642.036699 317.913054 643.933859 317.755515 645.831018 320.307642 647.728177 324.655709 649.625337 327.365375 651.522496 326.420143 653.419656 318.417178 655.316815 307.673040 657.213975 301.907124 659.111134 306.192176 661.008294 310.351197 662.905453 309.027872 664.802612 302.285217 666.699772 293.274004 668.596931 284.955962 670.494091 283.002483 672.391250 288.831414 674.288410 280.387341 676.185569 275.944750 678.082729 283.002483 679.979888 294.849391 681.877047 301.339985 683.774207 311.926584 685.671366 321.378905 687.568526 322.859768 689.465685 305.278452 691.362845 313.375940 693.260004 301.655062 695.157164 298.189211 697.054323 280.198294 698.951482 213.149832 700.848642 194.150668 702.745801 155.396153 704.642961 97.106842 706.540120 8.885181 708.437280 87.654521 710.334439 163.273087 712.231599 246.768587 714.128758 150.669992 716.025917 238.891653 717.923077 358.621048"/></g><g class="series serie-1 color-1"><path class="line reactive nofill" d="M14.076923 453.144256 L15.974083 352.319501 17.871242 216.836238 19.768401 356.257968 21.665561 352.949656 23.562720 329.003777 25.459880 353.233226 27.357039 351.122207 29.254199 336.187541 31.151358 322.765245 33.048518 312.556739 34.945677 336.250556 36.842836 322.702230 38.739996 333.950491 40.637155 333.666922 42.534315 331.177811 44.431474 340.315054 46.328634 341.008224 48.225793 333.792953 50.122953 346.175493 52.020112 337.573881 53.917271 335.777940 55.814431 346.553586 57.711590 348.255003 59.608750 343.119242 61.505909 346.143985 63.403069 346.616601 65.300228 343.591859 67.197388 340.693147 69.094547 339.117760 70.991706 332.375105 72.888866 325.821496 74.786025 318.480193 76.683185 318.795270 78.580344 320.717242 80.477504 316.778775 82.374663 316.810283 84.271823 316.495206 86.168982 314.415695 88.066141 309.374457 89.963301 310.130643 91.860460 309.878581 93.757620 307.326455 95.654779 301.812601 97.551939 297.779611 99.449098 293.652097 101.346258 293.021943 103.243417 290.532831 105.140576 286.909442 107.037736 294.156221 108.934895 294.282252 110.832055 292.454803 112.729214 292.013695 114.626374 296.645332 116.523533 291.572587 118.420693 287.350550 120.317852 285.901194 122.215011 284.451838 124.112171 282.277805 126.009330 283.884699 127.906490 281.175034 129.803649 282.088758 131.700809 278.402353 133.597968 273.550162 135.495128 271.691205 137.392287 280.859957 139.289446 282.372328 141.186606 280.828449 143.083765 281.773681 144.980925 287.066981 146.878084 285.901194 148.775244 284.955962 150.672403 291.604095 152.569563 295.605577 154.466722 294.408283 156.363881 292.517819 158.261041 292.045203 160.158200 291.099971 162.055360 289.556092 163.952519 291.068463 165.849679 289.902677 167.746838 288.327290 169.643998 293.872651 171.541157 292.391788 173.438316 290.532831 175.335476 293.715113 177.232635 294.691853 179.129795 300.237214 181.026954 301.213954 182.924114 300.930384 184.821273 300.174199 186.718433 302.379740 188.615592 301.371493 190.512751 300.898877 192.409911 299.449521 194.307070 302.379740 196.204230 302.190694 198.101389 301.592047 199.998549 307.357962 201.895708 307.862086 203.792868 307.357962 205.690027 304.931867 207.587186 306.727808 209.484346 305.845591 211.381505 305.372975 213.278665 304.931867 215.175824 312.903324 217.072984 313.848556 218.970143 313.375940 220.867303 312.777293 222.764462 314.982834 224.661621 316.463698 226.558781 319.677487 228.455940 318.070593 230.353100 322.135090 232.250259 320.591211 234.147419 320.843273 236.044578 321.662474 237.941738 321.095335 239.838897 323.237861 241.736056 322.292629 243.633216 322.135090 245.530375 323.395400 247.427535 322.481676 249.324694 326.105065 251.221854 327.459898 253.119013 327.932514 255.016173 327.522913 256.913332 326.420143 258.810491 325.884511 260.707651 325.191341 262.604810 325.569434 264.501970 324.970787 266.399129 324.277616 268.296289 324.403647 270.193448 325.033802 272.090608 327.774975 273.987767 329.224331 275.884926 328.814730 277.782086 328.909254 279.679245 327.554421 281.576405 326.735220 283.473564 327.428390 285.370724 328.688699 287.267883 328.531161 289.165043 327.459898 291.062202 330.169563 292.959361 328.846238 294.856521 328.751715 296.753680 328.436638 298.650840 328.405130 300.547999 330.295594 302.445159 332.312089 304.342318 332.690182 306.239478 331.587411 308.136637 329.885993 310.033796 328.342114 311.930956 329.381870 313.828115 329.255839 315.725275 329.759963 317.622434 329.066792 319.519594 332.217566 321.416753 331.744950 323.313913 331.713442 325.211072 335.714925 327.108231 335.210801 329.005391 337.258804 330.902550 337.195788 332.799710 337.101265 334.696869 336.660157 336.594029 336.975234 338.491188 337.888958 340.388348 337.762927 342.285507 336.943726 344.182666 336.502618 346.079826 335.966986 347.976985 336.534126 349.874145 337.069757 351.771304 337.542373 353.668464 338.235543 355.565623 337.258804 357.462783 335.683417 359.359942 335.305324 361.257101 334.328584 363.154261 333.698429 365.051420 334.927231 366.948580 335.840956 368.845739 337.888958 370.742899 337.227296 372.640058 337.668404 374.537217 336.880711 376.434377 337.479358 378.331536 338.046497 380.228696 339.369822 382.125855 339.369822 384.023015 338.172528 385.920174 337.857451 387.817334 337.447850 389.714493 338.235543 391.611652 339.464345 393.508812 339.369822 395.405971 339.338314 397.303131 339.212283 399.200290 339.810930 401.097450 339.936961 402.994609 339.527361 404.891769 339.117760 406.788928 340.062992 408.686087 339.873946 410.583247 339.086252 412.480406 338.645144 414.377566 338.456098 416.274725 338.928714 418.171885 340.283546 420.069044 341.638379 421.966204 340.976716 423.863363 342.047979 425.760522 341.858933 427.657682 341.764410 429.554841 342.804165 431.452001 342.678134 433.349160 342.016472 435.246320 342.047979 437.143479 341.606871 439.040639 340.756162 440.937798 339.747915 442.834957 340.346562 444.732117 340.283546 446.629276 339.936961 448.526436 339.621884 450.423595 340.598624 452.320755 341.638379 454.217914 341.953456 456.115074 341.984964 458.012233 342.867181 459.909392 344.064475 461.806552 344.285029 463.703711 344.442567 465.600871 344.946691 467.498030 344.568598 469.395190 343.843920 471.292349 343.182258 473.189509 343.024719 475.086668 342.930196 476.983827 342.741150 478.880987 342.583611 480.778146 342.047979 482.675306 341.260286 484.572465 343.465828 486.469625 343.875428 488.366784 344.348044 490.263944 343.969951 492.161103 343.528843 494.058262 343.339797 495.955422 343.276781 497.852581 342.709642 499.749741 343.087735 501.646900 343.749397 503.544060 343.686382 505.441219 344.064475 507.338379 343.906936 509.235538 343.843920 511.132697 344.095982 513.029857 344.348044 514.927016 344.379552 516.824176 344.001459 518.721335 344.411060 520.618495 343.749397 522.515654 343.654874 524.412814 344.095982 526.309973 344.001459 528.207132 343.938444 530.104292 343.717889 532.001451 343.497335 533.898611 343.245273 535.795770 342.709642 537.692930 342.741150 539.590089 342.709642 541.487249 342.300041 543.384408 342.426072 545.281567 342.615119 547.178727 342.047979 549.075886 342.174010 550.973046 342.110995 552.870205 341.984964 554.767365 341.921949 556.664524 342.079487 558.561684 341.543856 560.458843 343.245273 562.356002 344.348044 564.253162 345.891923 566.150321 345.671369 568.047481 345.702877 569.944640 345.702877 571.841800 346.774140 573.738959 346.301524 575.636119 345.891923 577.533278 346.175493 579.430437 345.923431 581.327597 345.608354 583.224756 345.293276 585.121916 346.049462 587.019075 346.364539 588.916235 346.616601 590.813394 347.908418 592.710554 347.656356 594.607713 349.011189 596.504872 348.570081 598.402032 348.318019 600.299191 349.515313 602.196351 349.609836 604.093510 349.578328 605.990670 349.105712 607.887829 348.601588 609.784989 348.759127 611.682148 348.475558 613.579307 347.939926 615.476467 347.971434 617.373626 347.876911 619.270786 347.719372 621.167945 347.372787 623.065105 347.561833 624.962264 347.530325 626.859424 346.963186 628.756583 346.427555 630.653742 346.207001 632.550902 345.702877 634.448061 345.324784 636.345221 345.072722 638.242380 347.089217 640.139540 347.435802 642.036699 347.215248 643.933859 347.152233 645.831018 346.900171 647.728177 346.459062 649.625337 346.175493 651.522496 346.207001 653.419656 346.774140 655.316815 347.435802 657.213975 347.656356 659.111134 347.309771 661.008294 346.994694 662.905453 346.994694 664.802612 347.246756 666.699772 347.561833 668.596931 347.750880 670.494091 347.687864 672.391250 347.372787 674.288410 347.467310 676.185569 347.498818 678.082729 347.183740 679.979888 346.648109 681.877047 346.333032 683.774207 345.860415 685.671366 345.450815 687.568526 345.387799 689.465685 345.828908 691.362845 345.545338 693.260004 345.734385 695.157164 345.734385 697.054323 345.891923 698.951482 346.427555 700.848642 346.333032 702.745801 346.333032 704.642961 346.301524 706.540120 346.112477 708.437280 345.702877 710.334439 345.324784 712.231599 344.915183 714.128758 345.167245 716.025917 344.946691 717.923077 344.631614"/></g><g class="series serie-2 color-2"><path class="line reactive nofill" d="M14.076923 344.411060 L15.974083 344.411060 17.871242 344.411060 19.768401 344.411060 21.665561 344.411060 23.562720 344.411060 25.459880 344.411060 27.357039 344.411060 29.254199 344.411060 31.151358 344.411060 33.048518 344.411060 34.945677 344.411060 36.842836 344.411060 38.739996 344.411060 40.637155 344.411060 42.534315 344.411060 44.431474 344.411060 46.328634 344.411060 48.225793 344.411060 50.122953 344.411060 52.020112 344.411060 53.917271 344.411060 55.814431 344.411060 57.711590 344.411060 59.608750 344.411060 61.505909 344.411060 63.403069 344.411060 65.300228 344.411060 67.197388 344.411060 69.094547 344.411060 70.991706 344.411060 72.888866 344.411060 74.786025 344.411060 76.683185 344.411060 78.580344 344.411060 80.477504 344.411060 82.374663 344.411060 84.271823 344.411060 86.168982 344.411060 88.066141 344.411060 89.963301 344.411060 91.860460 344.411060 93.757620 344.411060 95.654779 344.411060 97.551939 344.411060 99.449098 344.411060 101.346258 344.411060 103.243417 344.411060 105.140576 344.411060 107.037736 344.411060 108.934895 344.411060 110.832055 344.411060 112.729214 344.411060 114.626374 344.411060 116.523533 344.411060 118.420693 344.411060 120.317852 344.411060 122.215011 344.411060 124.112171 344.411060 126.009330 344.411060 127.906490 344.411060 129.803649 344.411060 131.700809 344.411060 133.597968 344.411060 135.495128 344.411060 137.392287 344.411060 139.289446 344.411060 141.186606 344.411060 143.083765 344.411060 144.980925 344.411060 146.878084 344.411060 148.775244 344.411060 150.672403 344.411060 152.569563 344.411060 154.466722 344.411060 156.363881 344.411060 158.261041 344.411060 160.158200 344.411060 162.055360 344.411060 163.952519 344.411060 165.849679 344.411060 167.746838 344.411060 169.643998 344.411060 171.541157 344.411060 173.438316 344.411060 175.335476 344.411060 177.232635 344.411060 179.129795 344.411060 181.026954 344.411060 182.924114 344.411060 184.821273 344.411060 186.718433 344.411060 188.615592 344.411060 190.512751 344.411060 192.409911 344.411060 194.307070 344.411060 196.204230 344.411060 198.101389 344.411060 199.998549 344.411060 201.895708 344.411060 203.792868 344.411060 205.690027 344.411060 207.587186 344.411060 209.484346 344.411060 211.381505 344.411060 213.278665 344.411060 215.175824 344.411060 217.072984 344.411060 218.970143 344.411060 220.867303 344.411060 222.764462 344.411060 224.661621 344.411060 226.558781 344.411060 228.455940 344.411060 230.353100 344.411060 232.250259 344.411060 234.147419 344.411060 236.044578 344.411060 237.941738 344.411060 239.838897 344.411060 241.736056 344.411060 243.633216 344.411060 245.530375 344.411060 247.427535 344.411060 249.324694 344.411060 251.221854 344.411060 253.119013 344.411060 255.016173 344.411060 256.913332 344.411060 258.810491 344.411060 260.707651 344.411060 262.604810 344.411060 264.501970 344.411060 266.399129 344.411060 268.296289 344.411060 270.193448 344.411060 272.090608 344.411060 273.987767 344.411060 275.884926 344.411060 277.782086 344.411060 279.679245 344.411060 281.576405 344.411060 283.473564 344.411060 285.370724 344.411060 287.267883 344.411060 289.165043 344.411060 291.062202 344.411060 292.959361 344.411060 294.856521 344.411060 296.753680 344.411060 298.650840 344.411060 300.547999 344.411060 302.445159 344.411060 304.342318 344.411060 306.239478 344.411060 308.136637 344.411060 310.033796 344.411060 311.930956 344.411060 313.828115 344.411060 315.725275 344.411060 317.622434 344.411060 319.519594 344.411060 321.416753 344.411060 323.313913 344.411060 325.211072 344.411060 327.108231 344.411060 329.005391 344.411060 330.902550 344.411060 332.799710 344.411060 334.696869 344.411060 336.594029 344.411060 338.491188 344.411060 340.388348 344.411060 342.285507 344.411060 344.182666 344.411060 346.079826 344.411060 347.976985 344.411060 349.874145 344.411060 351.771304 344.411060 353.668464 344.411060 355.565623 344.411060 357.462783 344.411060 359.359942 344.411060 361.257101 344.411060 363.154261 344.411060 365.051420 344.411060 366.948580 344.411060 368.845739 344.411060 370.742899 344.411060 372.640058 344.411060 374.537217 344.411060 376.434377 344.411060 378.331536 344.411060 380.228696 344.411060 382.125855 344.411060 384.023015 344.411060 385.920174 344.411060 387.817334 344.411060 389.714493 344.411060 391.611652 344.411060 393.508812 344.411060 395.405971 344.411060 397.303131 344.411060 399.200290 344.411060 401.097450 344.411060 402.994609 344.411060 404.891769 344.411060 406.788928 344.411060 408.686087 344.411060 410.583247 344.411060 412.480406 344.411060 414.377566 344.411060 416.274725 344.411060 418.171885 344.411060 420.069044 344.411060 421.966204 344.411060 423.863363 344.411060 425.760522 344.411060 427.657682 344.411060 429.554841 344.411060 431.452001 344.411060 433.349160 344.411060 435.246320 344.411060 437.143479 344.411060 439.040639 344.411060 440.937798 344.411060 442.834957 344.411060 444.732117 344.411060 446.629276 344.411060 448.526436 344.411060 450.423595 344.411060 452.320755 344.411060 454.217914 344.411060 456.115074 344.411060 458.012233 344.411060 459.909392 344.411060 461.806552 344.411060 463.703711 344.411060 465.600871 344.411060 467.498030 344.411060 469.395190 344.411060 471.292349 344.411060 473.189509 344.411060 475.086668 344.411060 476.983827 344.411060 478.880987 344.411060 480.778146 344.411060 482.675306 344.411060 484.572465 344.411060 486.469625 344.411060 488.366784 344.411060 490.263944 344.411060 492.161103 344.411060 494.058262 344.411060 495.955422 344.411060 497.852581 344.411060 499.749741 344.411060 501.646900 344.411060 503.544060 344.411060 505.441219 344.411060 507.338379 344.411060 509.235538 344.411060 511.132697 344.411060 513.029857 344.411060 514.927016 344.411060 516.824176 344.411060 518.721335 344.411060 520.618495 344.411060 522.515654 344.411060 524.412814 344.411060 526.309973 344.411060 528.207132 344.411060 530.104292 344.411060 532.001451 344.411060 533.898611 344.411060 535.795770 344.411060 537.692930 344.411060 539.590089 344.411060 541.487249 344.411060 543.384408 344.411060 545.281567 344.411060 547.178727 344.411060 549.075886 344.411060 550.973046 344.411060 552.870205 344.411060 554.767365 344.411060 556.664524 344.411060 558.561684 344.411060 560.458843 344.411060 562.356002 344.411060 564.253162 344.411060 566.150321 344.411060 568.047481 344.411060 569.944640 344.411060 571.841800 344.411060 573.738959 344.411060 575.636119 344.411060 577.533278 344.411060 579.430437 344.411060 581.327597 344.411060 583.224756 344.411060 585.121916 344.411060 587.019075 344.411060 588.916235 344.411060 590.813394 344.411060 592.710554 344.411060 594.607713 344.411060 596.504872 344.411060 598.402032 344.411060 600.299191 344.411060 602.196351 344.411060 604.093510 344.411060 605.990670 344.411060 607.887829 344.411060 609.784989 344.411060 611.682148 344.411060 613.579307 344.411060 615.476467 344.411060 617.373626 344.411060 619.270786 344.411060 621.167945 344.411060 623.065105 344.411060 624.962264 344.411060 626.859424 344.411060 628.756583 344.411060 630.653742 344.411060 632.550902 344.411060 634.448061 344.411060 636.345221 344.411060 638.242380 344.411060 640.139540 344.411060 642.036699 344.411060 643.933859 344.411060 645.831018 344.411060 647.728177 344.411060 649.625337 344.411060 651.522496 344.411060 653.419656 344.411060 655.316815 344.411060 657.213975 344.411060 659.111134 344.411060 661.008294 344.411060 662.905453 344.411060 664.802612 344.411060 666.699772 344.411060 668.596931 344.411060 670.494091 344.411060 672.391250 344.411060 674.288410 344.411060 676.185569 344.411060 678.082729 344.411060 679.979888 344.411060 681.877047 344.411060 683.774207 344.411060 685.671366 344.411060 687.568526 344.411060 689.465685 344.411060 691.362845 344.411060 693.260004 344.411060 695.157164 344.411060 697.054323 344.411060 698.951482 344.411060 700.848642 344.411060 702.745801 344.411060 704.642961 344.411060 706.540120 344.411060 708.437280 344.411060 710.334439 344.411060 712.231599 344.411060 714.128758 344.411060 716.025917 344.411060 717.923077 344.411060"/></g></g><g class="titles"><text class="title plot_title" x="400.0" y="26">Shahid Afridi: Future and Past Averages in ODIs</text></g><g class="plot overlay" transform="translate(48, 46)"><g class="series serie-0 color-0"><g class="dots"><desc class="label">395 wickets in 372 innings (2945.0 overs)</desc><circle class="dot reactive tooltip-trigger" cx="14.076923076923077" cy="344.41105964241655" r="2.5"/><desc class="value">34.51</desc><desc class="x top">14.076923076923077</desc><desc class="y top">344.41105964241655</desc><desc class="x_label">1996</desc></g><g class="dots"><desc class="label">379 wickets in 356 innings (2809.5 overs)</desc><circle class="dot reactive tooltip-trigger" cx="44.43147418619117" cy="344.56859832123934" r="2.5"/><desc class="value">34.46</desc><desc class="x top">44.43147418619117</desc><desc class="y top">344.56859832123934</desc><desc class="x_label">1997</desc></g><g class="dots"><desc class="label">362 wickets in 325 innings (2576.3 overs)</desc><circle class="dot reactive tooltip-trigger" cx="103.24341696039808" cy="349.32626642168805" r="2.5"/><desc class="value">32.95</desc><desc class="x top">103.24341696039808</desc><desc class="y top">349.32626642168805</desc><desc class="x_label">1998</desc></g><g class="dots"><desc class="label">350 wickets in 306 innings (2429.1 overs)</desc><circle class="dot reactive tooltip-trigger" cx="139.28944640265394" cy="352.38251679085045" r="2.5"/><desc class="value">31.98</desc><desc class="x top">139.28944640265394</desc><desc class="y top">352.38251679085045</desc><desc class="x_label">1999</desc></g><g class="dots"><desc class="label">339 wickets in 290 innings (2348.0 overs)</desc><circle class="dot reactive tooltip-trigger" cx="169.64399751192204" cy="352.7606096200252" r="2.5"/><desc class="value">31.86</desc><desc class="x top">169.64399751192204</desc><desc class="y top">352.7606096200252</desc><desc class="x_label">2000</desc></g><g class="dots"><desc class="label">317 wickets in 265 innings (2213.4 overs)</desc><circle class="dot reactive tooltip-trigger" cx="217.07298362015342" cy="351.9099007543821" r="2.5"/><desc class="value">32.13</desc><desc class="x top">217.07298362015342</desc><desc class="y top">351.9099007543821</desc><desc class="x_label">2001</desc></g><g class="dots"><desc class="label">300 wickets in 250 innings (2112.2 overs)</desc><circle class="dot reactive tooltip-trigger" cx="245.53037528509228" cy="351.0591918887389" r="2.5"/><desc class="value">32.4</desc><desc class="x top">245.53037528509228</desc><desc class="y top">351.0591918887389</desc><desc class="x_label">2002</desc></g><g class="dots"><desc class="label">267 wickets in 217 innings (1852.4 overs)</desc><circle class="dot reactive tooltip-trigger" cx="308.1366369479577" cy="351.37426924638453" r="2.5"/><desc class="value">32.3</desc><desc class="x top">308.1366369479577</desc><desc class="y top">351.37426924638453</desc><desc class="x_label">2003</desc></g><g class="dots"><desc class="label">264 wickets in 214 innings (1826.1 overs)</desc><circle class="dot reactive tooltip-trigger" cx="313.8281152809455" cy="351.9414084901466" r="2.5"/><desc class="value">32.12</desc><desc class="x top">313.8281152809455</desc><desc class="y top">351.9414084901466</desc><desc class="x_label">2004</desc></g><g class="dots"><desc class="label">242 wickets in 201 innings (1729.4 overs)</desc><circle class="dot reactive tooltip-trigger" cx="338.49118805722577" cy="348.538573027574" r="2.5"/><desc class="value">33.2</desc><desc class="x top">338.49118805722577</desc><desc class="y top">348.538573027574</desc><desc class="x_label">2005</desc></g><g class="dots"><desc class="label">216 wickets in 178 innings (1547.5 overs)</desc><circle class="dot reactive tooltip-trigger" cx="382.1258552767987" cy="348.5700807633386" r="2.5"/><desc class="value">33.19</desc><desc class="x left top">382.1258552767987</desc><desc class="y left top">348.5700807633386</desc><desc class="x_label">2006</desc></g><g class="dots"><desc class="label">202 wickets in 161 innings (1425.3 overs)</desc><circle class="dot reactive tooltip-trigger" cx="414.377565830396" cy="350.1139598158021" r="2.5"/><desc class="value">32.7</desc><desc class="x left top">414.377565830396</desc><desc class="y left top">350.1139598158021</desc><desc class="x_label">2007</desc></g><g class="dots"><desc class="label">183 wickets in 147 innings (1296.3 overs)</desc><circle class="dot reactive tooltip-trigger" cx="440.93779805100564" cy="349.79888245815647" r="2.5"/><desc class="value">32.8</desc><desc class="x left top">440.93779805100564</desc><desc class="y left top">349.79888245815647</desc><desc class="x_label">2008</desc></g><g class="dots"><desc class="label">153 wickets in 128 innings (1114.2 overs)</desc><circle class="dot reactive tooltip-trigger" cx="476.98382749326146" cy="347.05770944663965" r="2.5"/><desc class="value">33.67</desc><desc class="x left top">476.98382749326146</desc><desc class="y left top">347.05770944663965</desc><desc class="x_label">2009</desc></g><g class="dots"><desc class="label">126 wickets in 108 innings (932.3 overs)</desc><circle class="dot reactive tooltip-trigger" cx="514.9270163798466" cy="344.5055828497102" r="2.5"/><desc class="value">34.48</desc><desc class="x left top">514.9270163798466</desc><desc class="y left top">344.5055828497102</desc><desc class="x_label">2010</desc></g><g class="dots"><desc class="label">107 wickets in 90 innings (760.0 overs)</desc><circle class="dot reactive tooltip-trigger" cx="549.0758863777733" cy="350.39752943768315" r="2.5"/><desc class="value">32.61</desc><desc class="x left top">549.0758863777733</desc><desc class="y left top">350.39752943768315</desc><desc class="x_label">2011</desc></g><g class="dots"><desc class="label">62 wickets in 64 innings (536.0 overs)</desc><circle class="dot reactive tooltip-trigger" cx="598.4020319303338" cy="323.4584153589834" r="2.5"/><desc class="value">41.16</desc><desc class="x left top">598.4020319303338</desc><desc class="y left top">323.4584153589834</desc><desc class="x_label">2012</desc></g><g class="dots"><desc class="label">47 wickets in 49 innings (399.0 overs)</desc><circle class="dot reactive tooltip-trigger" cx="626.8594235952727" cy="325.4434027121508" r="2.5"/><desc class="value">40.53</desc><desc class="x left top">626.8594235952727</desc><desc class="y left top">325.4434027121508</desc><desc class="x_label">2013</desc></g><g class="dots"><desc class="label">20 wickets in 25 innings (220.4 overs)</desc><circle class="dot reactive tooltip-trigger" cx="672.3912502591747" cy="288.8314137537309" r="2.5"/><desc class="value">52.15</desc><desc class="x left top">672.3912502591747</desc><desc class="y left top">288.8314137537309</desc><desc class="x_label">2014</desc></g><g class="dots"><desc class="label">4 wickets in 9 innings (77.0 overs)</desc><circle class="dot reactive tooltip-trigger" cx="702.7458013684429" cy="155.39615279081494" r="2.5"/><desc class="value">94.5</desc><desc class="x left">702.7458013684429</desc><desc class="y left">155.39615279081494</desc><desc class="x_label">2015</desc></g></g><g class="series serie-1 color-1"><g class="dots"><desc class="label">0 wickets over 0 innings</desc><circle class="dot reactive tooltip-trigger" cx="14.076923076923077" cy="453.1442557659166" r="2.5"/><desc class="value">0</desc><desc class="x top">14.076923076923077</desc><desc class="y top">453.1442557659166</desc><desc class="x_label">1996</desc></g><g class="dots"><desc class="label">16 wickets in 16 innings (135.1 overs)</desc><circle class="dot reactive tooltip-trigger" cx="44.43147418619117" cy="340.3150539930236" r="2.5"/><desc class="value">35.81</desc><desc class="x top">44.43147418619117</desc><desc class="y top">340.3150539930236</desc><desc class="x_label">1997</desc></g><g class="dots"><desc class="label">33 wickets in 47 innings (368.3 overs)</desc><circle class="dot reactive tooltip-trigger" cx="103.24341696039808" cy="290.53283148501714" r="2.5"/><desc class="value">51.61</desc><desc class="x top">103.24341696039808</desc><desc class="y top">290.53283148501714</desc><desc class="x_label">1998</desc></g><g class="dots"><desc class="label">45 wickets in 66 innings (515.5 overs)</desc><circle class="dot reactive tooltip-trigger" cx="139.28944640265394" cy="282.37232792199586" r="2.5"/><desc class="value">54.2</desc><desc class="x top">139.28944640265394</desc><desc class="y top">282.37232792199586</desc><desc class="x_label">1999</desc></g><g class="dots"><desc class="label">56 wickets in 82 innings (597.0 overs)</desc><circle class="dot reactive tooltip-trigger" cx="169.64399751192204" cy="293.87265147606064" r="2.5"/><desc class="value">50.55</desc><desc class="x top">169.64399751192204</desc><desc class="y top">293.87265147606064</desc><desc class="x_label">2000</desc></g><g class="dots"><desc class="label">78 wickets in 107 innings (731.2 overs)</desc><circle class="dot reactive tooltip-trigger" cx="217.07298362015342" cy="313.84855595079233" r="2.5"/><desc class="value">44.21</desc><desc class="x top">217.07298362015342</desc><desc class="y top">313.84855595079233</desc><desc class="x_label">2001</desc></g><g class="dots"><desc class="label">95 wickets in 122 innings (832.4 overs)</desc><circle class="dot reactive tooltip-trigger" cx="245.53037528509228" cy="323.39539988745435" r="2.5"/><desc class="value">41.18</desc><desc class="x top">245.53037528509228</desc><desc class="y top">323.39539988745435</desc><desc class="x_label">2002</desc></g><g class="dots"><desc class="label">128 wickets in 155 innings (1092.2 overs)</desc><circle class="dot reactive tooltip-trigger" cx="308.1366369479577" cy="329.8859934549539" r="2.5"/><desc class="value">39.12</desc><desc class="x top">308.1366369479577</desc><desc class="y top">329.8859934549539</desc><desc class="x_label">2003</desc></g><g class="dots"><desc class="label">131 wickets in 158 innings (1118.5 overs)</desc><circle class="dot reactive tooltip-trigger" cx="313.8281152809455" cy="329.25583873966264" r="2.5"/><desc class="value">39.32</desc><desc class="x top">313.8281152809455</desc><desc class="y top">329.25583873966264</desc><desc class="x_label">2004</desc></g><g class="dots"><desc class="label">153 wickets in 171 innings (1215.2 overs)</desc><circle class="dot reactive tooltip-trigger" cx="338.49118805722577" cy="337.8889583391524" r="2.5"/><desc class="value">36.58</desc><desc class="x top">338.49118805722577</desc><desc class="y top">337.8889583391524</desc><desc class="x_label">2005</desc></g><g class="dots"><desc class="label">179 wickets in 194 innings (1397.1 overs)</desc><circle class="dot reactive tooltip-trigger" cx="382.1258552767987" cy="339.36982192008674" r="2.5"/><desc class="value">36.11</desc><desc class="x left top">382.1258552767987</desc><desc class="y left top">339.36982192008674</desc><desc class="x_label">2006</desc></g><g class="dots"><desc class="label">193 wickets in 211 innings (1519.3 overs)</desc><circle class="dot reactive tooltip-trigger" cx="414.377565830396" cy="338.4560975829145" r="2.5"/><desc class="value">36.4</desc><desc class="x left top">414.377565830396</desc><desc class="y left top">338.4560975829145</desc><desc class="x_label">2007</desc></g><g class="dots"><desc class="label">212 wickets in 225 innings (1648.3 overs)</desc><circle class="dot reactive tooltip-trigger" cx="440.93779805100564" cy="339.7479147492615" r="2.5"/><desc class="value">35.99</desc><desc class="x left top">440.93779805100564</desc><desc class="y left top">339.7479147492615</desc><desc class="x_label">2008</desc></g><g class="dots"><desc class="label">242 wickets in 244 innings (1830.4 overs)</desc><circle class="dot reactive tooltip-trigger" cx="476.98382749326146" cy="342.74114964689477" r="2.5"/><desc class="value">35.04</desc><desc class="x left top">476.98382749326146</desc><desc class="y left top">342.74114964689477</desc><desc class="x_label">2009</desc></g><g class="dots"><desc class="label">269 wickets in 264 innings (2012.3 overs)</desc><circle class="dot reactive tooltip-trigger" cx="514.9270163798466" cy="344.37955190665195" r="2.5"/><desc class="value">34.52</desc><desc class="x left top">514.9270163798466</desc><desc class="y left top">344.37955190665195</desc><desc class="x_label">2010</desc></g><g class="dots"><desc class="label">288 wickets in 282 innings (2185.0 overs)</desc><circle class="dot reactive tooltip-trigger" cx="549.0758863777733" cy="342.1740104031327" r="2.5"/><desc class="value">35.22</desc><desc class="x left top">549.0758863777733</desc><desc class="y left top">342.1740104031327</desc><desc class="x_label">2011</desc></g><g class="dots"><desc class="label">333 wickets in 308 innings (2409.0 overs)</desc><circle class="dot reactive tooltip-trigger" cx="598.4020319303338" cy="348.3180188772221" r="2.5"/><desc class="value">33.27</desc><desc class="x left top">598.4020319303338</desc><desc class="y left top">348.3180188772221</desc><desc class="x_label">2012</desc></g><g class="dots"><desc class="label">348 wickets in 323 innings (2546.0 overs)</desc><circle class="dot reactive tooltip-trigger" cx="626.8594235952727" cy="346.963186239346" r="2.5"/><desc class="value">33.7</desc><desc class="x left top">626.8594235952727</desc><desc class="y left top">346.963186239346</desc><desc class="x_label">2013</desc></g><g class="dots"><desc class="label">375 wickets in 347 innings (2724.2 overs)</desc><circle class="dot reactive tooltip-trigger" cx="672.3912502591747" cy="347.3727868042853" r="2.5"/><desc class="value">33.57</desc><desc class="x left top">672.3912502591747</desc><desc class="y left top">347.3727868042853</desc><desc class="x_label">2014</desc></g><g class="dots"><desc class="label">391 wickets in 363 innings (2868.0 overs)</desc><circle class="dot reactive tooltip-trigger" cx="702.7458013684429" cy="346.3330315240548" r="2.5"/><desc class="value">33.9</desc><desc class="x left top">702.7458013684429</desc><desc class="y left top">346.3330315240548</desc><desc class="x_label">2015</desc></g></g><g class="series serie-2 color-2"/></g><g class="plot text-overlay" transform="translate(48, 46)"><g class="series serie-0 color-0"/><g class="series serie-1 color-1"/><g class="series serie-2 color-2"/></g><g class="plot tooltip-overlay" transform="translate(48, 46)"><g class="tooltip" style="opacity: 0" transform="translate(0 0)"><rect class="tooltip-box" height="0" rx="10" ry="10" width="0"/><g class="text"/></g></g><g class="legends" transform="translate(58, 545)"><g class="legend reactive activate-serie" id="activate-serie-0"><rect class="color-0 reactive" height="12" width="12" x="0.0" y="1.0"/><text x="17.0" y="11.2">Future Average</text></g><g class="legend reactive activate-serie" id="activate-serie-1"><rect class="color-1 reactive" height="12" width="12" x="366.0" y="1.0"/><text x="383.0" y="11.2">Past Average</text></g><g class="legend reactive activate-serie" id="activate-serie-2"><rect class="color-2 reactive" height="12" width="12" x="0.0" y="22.0"/><text x="17.0" y="32.2">Career Average</text></g></g></g></svg>