<?xml version='1.0' encoding='utf-8'?>
<svg xmlns:xlink="http://www.w3.org/1999/xlink" xmlns="http://www.w3.org/2000/svg" id="chart-2d330d4b-36ee-45d6-b71a-bc176a8260eb" class="pygal-chart" viewBox="0 0 800 600"><!--Generated with pygal 2.4.0 (lxml) ©Kozea 2012-2016 on 2019-08-04--><!--http://pygal.org--><!--http://github.com/Kozea/pygal--><defs><style type="text/css">#chart-2d330d4b-36ee-45d6-b71a-bc176a8260eb{-webkit-user-select:none;-webkit-font-smoothing:antialiased;font-family:Consolas,"Liberation Mono",Menlo,Courier,monospace}#chart-2d330d4b-36ee-45d6-b71a-bc176a8260eb .title{font-family:Consolas,"Liberation Mono",Menlo,Courier,monospace;font-size:16px}#chart-2d330d4b-36ee-45d6-b71a-bc176a8260eb .legends .legend text{font-family:Consolas,"Liberation Mono",Menlo,Courier,monospace;font-size:14px}#chart-2d330d4b-36ee-45d6-b71a-bc176a8260eb .axis text{font-family:Consolas,"Liberation Mono",Menlo,Courier,monospace;font-size:10px}#chart-2d330d4b-36ee-45d6-b71a-bc176a8260eb .axis text.major{font-family:Consolas,"Liberation Mono",Menlo,Courier,monospace;font-size:10px}#chart-2d330d4b-36ee-45d6-b71a-bc176a8260eb .text-overlay text.value{font-family:Consolas,"Liberation Mono",Menlo,Courier,monospace;font-size:16px}#chart-2d330d4b-36ee-45d6-b71a-bc176a8260eb .text-overlay text.label{font-family:Consolas,"Liberation Mono",Menlo,Courier,monospace;font-size:10px}#chart-2d330d4b-36ee-45d6-b71a-bc176a8260eb .tooltip{font-family:Consolas,"Liberation Mono",Menlo,Courier,monospace;font-size:14px}#chart-2d330d4b-36ee-45d6-b71a-bc176a8260eb text.no_data{font-family:Consolas,"Liberation Mono",Menlo,Courier,monospace;font-size:64px}
#chart-2d330d4b-36ee-45d6-b71a-bc176a8260eb{background-color:rgba(249,249,249,1)}#chart-2d330d4b-36ee-45d6-b71a-bc176a8260eb path,#chart-2d330d4b-36ee-45d6-b71a-bc176a8260eb line,#chart-2d330d4b-36ee-45d6-b71a-bc176a8260eb rect,#chart-2d330d4b-36ee-45d6-b71a-bc176a8260eb circle{-webkit-transition:150ms;-moz-transition:150ms;transition:150ms}#chart-2d330d4b-36ee-45d6-b71a-bc176a8260eb .graph &gt; .background{fill:rgba(249,249,249,1)}#chart-2d330d4b-36ee-45d6-b71a-bc176a8260eb .plot &gt; .background{fill:rgba(255,255,255,1)}#chart-2d330d4b-36ee-45d6-b71a-bc176a8260eb .graph{fill:rgba(0,0,0,.87)}#chart-2d330d4b-36ee-45d6-b71a-bc176a8260eb text.no_data{fill:rgba(0,0,0,1)}#chart-2d330d4b-36ee-45d6-b71a-bc176a8260eb .title{fill:rgba(0,0,0,1)}#chart-2d330d4b-36ee-45d6-b71a-bc176a8260eb .legends .legend text{fill:rgba(0,0,0,.87)}#chart-2d330d4b-36ee-45d6-b71a-bc176a8260eb .legends .legend:hover text{fill:rgba(0,0,0,1)}#chart-2d330d4b-36ee-45d6-b71a-bc176a8260eb .axis .line{stroke:rgba(0,0,0,1)}#chart-2d330d4b-36ee-45d6-b71a-bc176a8260eb .axis .guide.line{stroke:rgba(0,0,0,.54)}#chart-2d330d4b-36ee-45d6-b71a-bc176a8260eb .axis .major.line{stroke:rgba(0,0,0,.87)}#chart-2d330d4b-36ee-45d6-b71a-bc176a8260eb .axis text.major{fill:rgba(0,0,0,1)}#chart-2d330d4b-36ee-45d6-b71a-bc176a8260eb .axis.y .guides:hover .guide.line,#chart-2d330d4b-36ee-45d6-b71a-bc176a8260eb .line-graph .axis.x .guides:hover .guide.line,#chart-2d330d4b-36ee-45d6-b71a-bc176a8260eb .stackedline-graph .axis.x .guides:hover .guide.line,#chart-2d330d4b-36ee-45d6-b71a-bc176a8260eb .xy-graph .axis.x .guides:hover .guide.line{stroke:rgba(0,0,0,1)}#chart-2d330d4b-36ee-45d6-b71a-bc176a8260eb .axis .guides:hover text{fill:rgba(0,0,0,1)}#chart-2d330d4b-36ee-45d6-b71a-bc176a8260eb .reactive{fill-opacity:.7;stroke-opacity:.8}#chart-2d330d4b-36ee-45d6-b71a-bc176a8260eb .ci{stroke:rgba(0,0,0,.87)}#chart-2d330d4b-36ee-45d6-b71a-bc176a8260eb .reactive.active,#chart-2d330d4b-36ee-45d6-b71a-bc176a8260eb .active .reactive{fill-opacity:.8;stroke-opacity:.9;stroke-width:4}#chart-2d330d4b-36ee-45d6-b71a-bc176a8260eb .ci .reactive.active{stroke-width:1.5}#chart-2d330d4b-36ee-45d6-b71a-bc176a8260eb .series text{fill:rgba(0,0,0,1)}#chart-2d330d4b-36ee-45d6-b71a-bc176a8260eb .tooltip rect{fill:rgba(255,255,255,1);stroke:rgba(0,0,0,1);-webkit-transition:opacity 150ms;-moz-transition:opacity 150ms;transition:opacity 150ms}#chart-2d330d4b-36ee-45d6-b71a-bc176a8260eb .tooltip .label{fill:rgba(0,0,0,.87)}#chart-2d330d4b-36ee-45d6-b71a-bc176a8260eb .tooltip .label{fill:rgba(0,0,0,.87)}#chart-2d330d4b-36ee-45d6-b71a-bc176a8260eb .tooltip .legend{font-size:.8em;fill:rgba(0,0,0,.54)}#chart-2d330d4b-36ee-45d6-b71a-bc176a8260eb .tooltip .x_label{font-size:.6em;fill:rgba(0,0,0,1)}#chart-2d330d4b-36ee-45d6-b71a-bc176a8260eb .tooltip .xlink{font-size:.5em;text-decoration:underline}#chart-2d330d4b-36ee-45d6-b71a-bc176a8260eb .tooltip .value{font-size:1.5em}#chart-2d330d4b-36ee-45d6-b71a-bc176a8260eb .bound{font-size:.5em}#chart-2d330d4b-36ee-45d6-b71a-bc176a8260eb .max-value{font-size:.75em;fill:rgba(0,0,0,.54)}#chart-2d330d4b-36ee-45d6-b71a-bc176a8260eb .map-element{fill:rgba(255,255,255,1);stroke:rgba(0,0,0,.54) !important}#chart-2d330d4b-36ee-45d6-b71a-bc176a8260eb .map-element .reactive{fill-opacity:inherit;stroke-opacity:inherit}#chart-2d330d4b-36ee-45d6-b71a-bc176a8260eb .color-0,#chart-2d330d4b-36ee-45d6-b71a-bc176a8260eb .color-0 a:visited{stroke:red;fill:red}#chart-2d330d4b-36ee-45d6-b71a-bc176a8260eb .color-1,#chart-2d330d4b-36ee-45d6-b71a-bc176a8260eb .color-1 a:visited{stroke:blue;fill:blue}#chart-2d330d4b-36ee-45d6-b71a-bc176a8260eb .color-2,#chart-2d330d4b-36ee-45d6-b71a-bc176a8260eb .color-2 a:visited{stroke:green;fill:green}#chart-2d330d4b-36ee-45d6-b71a-bc176a8260eb .text-overlay .color-0 text{fill:white}#chart-2d330d4b-36ee-45d6-b71a-bc176a8260eb .text-overlay .color-1 text{fill:white}#chart-2d330d4b-36ee-45d6-b71a-bc176a8260eb .text-overlay .color-2 text{fill:white}
#chart-2d330d4b-36ee-45d6-b71a-bc176a8260eb text.no_data{text-anchor:middle}#chart-2d330d4b-36ee-45d6-b71a-bc176a8260eb .guide.line{fill:none}#chart-2d330d4b-36ee-45d6-b71a-bc176a8260eb .centered{text-anchor:middle}#chart-2d330d4b-36ee-45d6-b71a-bc176a8260eb .title{text-anchor:middle}#chart-2d330d4b-36ee-45d6-b71a-bc176a8260eb .legends .legend text{fill-opacity:1}#chart-2d330d4b-36ee-45d6-b71a-bc176a8260eb .axis.x text{text-anchor:middle}#chart-2d330d4b-36ee-45d6-b71a-bc176a8260eb .axis.x:not(.web) text[transform]{text-anchor:start}#chart-2d330d4b-36ee-45d6-b71a-bc176a8260eb .axis.x:not(.web) text[transform].backwards{text-anchor:end}#chart-2d330d4b-36ee-45d6-b71a-bc176a8260eb .axis.y text{text-anchor:end}#chart-2d330d4b-36ee-45d6-b71a-bc176a8260eb .axis.y text[transform].backwards{text-anchor:start}#chart-2d330d4b-36ee-45d6-b71a-bc176a8260eb .axis.y2 text{text-anchor:start}#chart-2d330d4b-36ee-45d6-b71a-bc176a8260eb .axis.y2 text[transform].backwards{text-anchor:end}#chart-2d330d4b-36ee-45d6-b71a-bc176a8260eb .axis .guide.line{stroke-dasharray:4,4}#chart-2d330d4b-36ee-45d6-b71a-bc176a8260eb .axis .major.guide.line{stroke-dasharray:6,6}#chart-2d330d4b-36ee-45d6-b71a-bc176a8260eb .horizontal .axis.y .guide.line,#chart-2d330d4b-36ee-45d6-b71a-bc176a8260eb .horizontal .axis.y2 .guide.line,#chart-2d330d4b-36ee-45d6-b71a-bc176a8260eb .vertical .axis.x .guide.line{opacity:0}#chart-2d330d4b-36ee-45d6-b71a-bc176a8260eb .horizontal .axis.always_show .guide.line,#chart-2d330d4b-36ee-45d6-b71a-bc176a8260eb .vertical .axis.always_show .guide.line{opacity:1 !important}#chart-2d330d4b-36ee-45d6-b71a-bc176a8260eb .axis.y .guides:hover .guide.line,#chart-2d330d4b-36ee-45d6-b71a-bc176a8260eb .axis.y2 .guides:hover .guide.line,#chart-2d330d4b-36ee-45d6-b71a-bc176a8260eb .axis.x .guides:hover .guide.line{opacity:1}#chart-2d330d4b-36ee-45d6-b71a-bc176a8260eb .axis .guides:hover text{opacity:1}#chart-2d330d4b-36ee-45d6-b71a-bc176a8260eb .nofill{fill:none}#chart-2d330d4b-36ee-45d6-b71a-bc176a8260eb .subtle-fill{fill-opacity:.2}#chart-2d330d4b-36ee-45d6-b71a-bc176a8260eb .dot{stroke-width:1px;fill-opacity:1}#chart-2d330d4b-36ee-45d6-b71a-bc176a8260eb .dot.active{stroke-width:5px}#chart-2d330d4b-36ee-45d6-b71a-bc176a8260eb .dot.negative{fill:transparent}#chart-2d330d4b-36ee-45d6-b71a-bc176a8260eb text,#chart-2d330d4b-36ee-45d6-b71a-bc176a8260eb tspan{stroke:none !important}#chart-2d330d4b-36ee-45d6-b71a-bc176a8260eb .series text.active{opacity:1}#chart-2d330d4b-36ee-45d6-b71a-bc176a8260eb .tooltip rect{fill-opacity:.95;stroke-width:.5}#chart-2d330d4b-36ee-45d6-b71a-bc176a8260eb .tooltip text{fill-opacity:1}#chart-2d330d4b-36ee-45d6-b71a-bc176a8260eb .showable{visibility:hidden}#chart-2d330d4b-36ee-45d6-b71a-bc176a8260eb .showable.shown{visibility:visible}#chart-2d330d4b-36ee-45d6-b71a-bc176a8260eb .gauge-background{fill:rgba(229,229,229,1);stroke:none}#chart-2d330d4b-36ee-45d6-b71a-bc176a8260eb .bg-lines{stroke:rgba(249,249,249,1);stroke-width:2px}</style><script type="text/javascript">window.pygal = window.pygal || {};window.pygal.config = window.pygal.config || {};window.pygal.config['2d330d4b-36ee-45d6-b71a-bc176a8260eb'] = {"allow_interruptions": false, "box_mode": "extremes", "classes": ["pygal-chart"], "css": ["file://style.css", "file://graph.css"], "defs": [], "disable_xml_declaration": false, "dots_size": 2.5, "dynamic_print_values": false, "explicit_size": false, "fill": false, "force_uri_protocol": "https", "formatter": null, "half_pie": false, "height": 600, "include_x_axis": false, "inner_radius": 0, "interpolate": null, "interpolation_parameters": {}, "interpolation_precision": 250, "inverse_y_axis": false, "js": ["//kozea.github.io/pygal.js/2.0.x/pygal-tooltips.min.js"], "legend_at_bottom": true, "legend_at_bottom_columns": null, "legend_box_size": 12, "logarithmic": false, "margin": 20, "margin_bottom": null, "margin_left": null, "margin_right": null, "margin_top": null, "max_scale": 16, "min_scale": 4, "missing_value_fill_truncation": "x", "no_data_text": "No data", "no_prefix": false, "order_min": null, "pretty_print": false, "print_labels": false, "print_values": false, "print_values_position": "center", "print_zeroes": true, "range": null, "rounded_bars": null, "secondary_range": null, "show_dots": true, "show_legend": true, "show_minor_x_labels": false, "show_minor_y_labels": true, "show_only_major_dots": false, "show_x_guides": false, "show_x_labels": true, "show_y_guides": true, "show_y_labels": true, "spacing": 10, "stack_from_top": false, "strict": false, "stroke": true, "stroke_style": null, "style": {"background": "rgba(249, 249, 249, 1)", "ci_colors": [], "colors": ["red", "blue", "green", "#a3a3a3"], "font_family": "Consolas, \"Liberation Mono\", Menlo, Courier, monospace", "foreground": "rgba(0, 0, 0, .87)", "foreground_strong": "rgba(0, 0, 0, 1)", "foreground_subtle": "rgba(0, 0, 0, .54)", "guide_stroke_dasharray": "4,4", "label_font_family": "Consolas, \"Liberation Mono\", Menlo, Courier, monospace", "label_font_size": 10, "legend_font_family": "Consolas, \"Liberation Mono\", Menlo, Courier, monospace", "legend_font_size": 14, "major_guide_stroke_dasharray": "6,6", "major_label_font_family": "Consolas, \"Liberation Mono\", Menlo, Courier, monospace", "major_label_font_size": 10, "no_data_font_family": "Consolas, \"Liberation Mono\", Menlo, Courier, monospace", "no_data_font_size": 64, "opacity": ".7", "opacity_hover": ".8", "plot_background": "rgba(255, 255, 255, 1)", "stroke_opacity": ".8", "stroke_opacity_hover": ".9", "title_font_family": "Consolas, \"Liberation Mono\", Menlo, Courier, monospace", "title_font_size": 16, "tooltip_font_family": "Consolas, \"Liberation Mono\", Menlo, Courier, monospace", "tooltip_font_size": 14, "transition": "150ms", "value_background": "rgba(229, 229, 229, 1)", "value_colors": [], "value_font_family": "Consolas, \"Liberation Mono\", Menlo, Courier, monospace", "value_font_size": 16, "value_label_font_family": "Consolas, \"Liberation Mono\", Menlo, Courier, monospace", "value_label_font_size": 10}, "title": "Shakib Al Hasan: Future and Past Averages in ODIs", "tooltip_border_radius": 10, "tooltip_fancy_mode": true, "truncate_label": null, "truncate_legend": null, "width": 800, "x_label_rotation": 45, "x_labels": ["2006", "0", "0", "0", "0", "0", "0", "0", "0", "0", "0", "0", "0", "0", "2007", "0", "0", "0", "0", "0", "0", "0", "0", "0", "0", "0", "0", "0", "0", "0", "0", "0", "0", "0", "0", "0", "2008", "0", "0", "0", "0", "0", "0", "0", "0", "0", "0", "0", "0", "0", "0", "0", "0", "0", "0", "2009", "0", "0", "0", "0", "0", "0", "0", "0", "0", "0", "0", "0", "0", "0", "0", "0", "0", "0", "2010", "0", "0", "0", "0", "0", "0", "0", "0", "0", "0", "0", "0", "0", "0", "0", "0", "0", "0", "0", "0", "0", "0", "0", "0", "0", "0", "2011", "0", "0", "0", "0", "0", "0", "0", "0", "0", "0", "0", "0", "0", "0", "0", "0", "0", "0", "0", "2012", "0", "0", "0", "2013", "0", "0", "2014", "0", "0", "0", "0", "0", "0", "0", "0", "0", "0", "0", "2015", "0", "0", "0", "0", "0", "0", "0", "0", "0", "0", "0", "0", "0", "0", "0", "2016", "0", "0", "0", "0", "0", "0", "0", "0", "2017", "0", "0", "0", "0", "0", "0", "0", "0", "0", "0", "0", "2018", "0", "0", "0", "0", "0", "0", "0", "0", "0", "0", "0", "0", "0", "0", "2019", "0", "0", "0", "0", "0", "0", "0", "0", "0", "0"], "x_labels_major": ["2006", "2007", "2008", "2009", "2010", "2011", "2012", "2013", "2014", "2015", "2016", "2017", "2018", "2019"], "x_labels_major_count": null, "x_labels_major_every": null, "x_title": null, "xrange": null, "y_label_rotation": 0, "y_labels": null, "y_labels_major": null, "y_labels_major_count": null, "y_labels_major_every": null, "y_title": null, "zero": 100.0, "legends": ["Future Average", "Past Average", "Career Average"]}</script><script type="text/javascript" xlink:href="https://kozea.github.io/pygal.js/2.0.x/pygal-tooltips.min.js"/></defs><title>Shakib Al Hasan: Future and Past Averages in ODIs</title><g class="graph line-graph vertical"><rect class="background" height="600" width="800" x="0" y="0"/><g class="plot" transform="translate(42, 46)"><rect class="background" height="462.02943725152284" width="738.0" x="0" y="0"/><g class="axis y always_show"><g class="guides"><path class="axis major line" d="M0.000000 453.144256 h738.000000"/><text class="major" x="-5" y="456.6442557659166">0</text><title>0</title></g><g class="guides"><path class="guide line" d="M0.000000 407.811697 h738.000000"/><text class="" x="-5" y="411.31169716588494">10</text><title>10</title></g><g class="guides"><path class="guide line" d="M0.000000 362.479139 h738.000000"/><text class="" x="-5" y="365.97913856585325">20</text><title>20</title></g><g class="guides"><path class="guide line" d="M0.000000 317.146580 h738.000000"/><text class="" x="-5" y="320.6465799658216">30</text><title>30</title></g><g class="guides"><path class="guide line" d="M0.000000 271.814021 h738.000000"/><text class="" x="-5" y="275.3140213657899">40</text><title>40</title></g><g class="guides"><path class="major guide line" d="M0.000000 226.481463 h738.000000"/><text class="major" x="-5" y="229.98146276575824">50</text><title>50</title></g><g class="guides"><path class="guide line" d="M0.000000 181.148904 h738.000000"/><text class="" x="-5" y="184.64890416572655">60</text><title>60</title></g><g class="guides"><path class="guide line" d="M0.000000 135.816346 h738.000000"/><text class="" x="-5" y="139.31634556569492">70</text><title>70</title></g><g class="guides"><path class="guide line" d="M0.000000 90.483787 h738.000000"/><text class="" x="-5" y="93.98378696566323">80</text><title>80</title></g><g class="guides"><path class="guide line" d="M0.000000 45.151228 h738.000000"/><text class="" x="-5" y="48.65122836563154">90</text><title>90</title></g></g><g class="axis x"><g class="guides"><path class="major line" d="M14.192308 0.000000 v462.029437"/><text class="major" x="14.192307692307692" y="477.02943725152284" transform="rotate(45 14.192308 477.029437)">2006</text></g><g class="guides"><path class="major guide line" d="M63.373572 0.000000 v462.029437"/><text class="major" x="63.37357197258187" y="477.02943725152284" transform="rotate(45 63.373572 477.029437)">2007</text></g><g class="guides"><path class="major guide line" d="M140.658416 0.000000 v462.029437"/><text class="major" x="140.65841584158414" y="477.02943725152284" transform="rotate(45 140.658416 477.029437)">2008</text></g><g class="guides"><path class="major guide line" d="M207.404417 0.000000 v462.029437"/><text class="major" x="207.40441736481344" y="477.02943725152284" transform="rotate(45 207.404417 477.029437)">2009</text></g><g class="guides"><path class="major guide line" d="M274.150419 0.000000 v462.029437"/><text class="major" x="274.1504188880427" y="477.02943725152284" transform="rotate(45 274.150419 477.029437)">2010</text></g><g class="guides"><path class="major guide line" d="M369.000000 0.000000 v462.029437"/><text class="major" x="369.0" y="477.02943725152284" transform="rotate(45 369.000000 477.029437)">2011</text></g><g class="guides"><path class="major guide line" d="M439.258949 0.000000 v462.029437"/><text class="major" x="439.25894897182025" y="477.02943725152284" transform="rotate(45 439.258949 477.029437)">2012</text></g><g class="guides"><path class="major guide line" d="M453.310739 0.000000 v462.029437"/><text class="major" x="453.31073876618433" y="477.02943725152284" transform="rotate(45 453.310739 477.029437)">2013</text></g><g class="guides"><path class="major guide line" d="M463.849581 0.000000 v462.029437"/><text class="major" x="463.8495811119573" y="477.02943725152284" transform="rotate(45 463.849581 477.029437)">2014</text></g><g class="guides"><path class="major guide line" d="M506.004950 0.000000 v462.029437"/><text class="major" x="506.0049504950495" y="477.02943725152284" transform="rotate(45 506.004950 477.029437)">2015</text></g><g class="guides"><path class="major guide line" d="M562.212110 0.000000 v462.029437"/><text class="major" x="562.2121096725057" y="477.02943725152284" transform="rotate(45 562.212110 477.029437)">2016</text></g><g class="guides"><path class="major guide line" d="M593.828637 0.000000 v462.029437"/><text class="major" x="593.8286367098249" y="477.02943725152284" transform="rotate(45 593.828637 477.029437)">2017</text></g><g class="guides"><path class="major guide line" d="M635.984006 0.000000 v462.029437"/><text class="major" x="635.984006092917" y="477.02943725152284" transform="rotate(45 635.984006 477.029437)">2018</text></g><g class="guides"><path class="major guide line" d="M688.678218 0.000000 v462.029437"/><text class="major" x="688.6782178217821" y="477.02943725152284" transform="rotate(45 688.678218 477.029437)">2019</text></g></g><g class="series serie-0 color-0"><path class="line reactive nofill" d="M14.192308 316.149264 L17.705255 316.285261 21.218203 315.786603 24.731150 315.741271 28.244097 316.239929 31.757045 316.647922 35.269992 316.829252 38.782940 315.559940 42.295887 315.015950 45.808835 314.698622 49.321782 315.423943 52.834730 314.879952 56.347677 315.423943 59.860625 315.106615 63.373572 314.698622 66.886519 314.879952 70.399467 314.789287 73.912414 314.789287 77.425362 314.970617 80.938309 315.106615 84.451257 314.607957 87.964204 315.469275 91.477152 315.786603 94.990099 314.879952 98.503046 315.151947 102.015994 315.786603 105.528941 315.559940 109.041889 315.922601 112.554836 316.194596 116.067784 316.330594 119.580731 316.013266 123.093679 316.783919 126.606626 317.781236 130.119573 318.053231 133.632521 317.373243 137.145468 318.461224 140.658416 318.778552 144.171363 318.778552 147.684311 319.367875 151.197258 320.319859 154.710206 320.501189 158.223153 319.594538 161.736101 319.322543 165.249048 319.821201 168.761995 319.821201 172.274943 319.594538 175.787890 319.730536 179.300838 320.818517 182.813785 320.546522 186.326733 320.093196 189.839680 320.637187 193.352628 320.682520 196.865575 319.821201 200.378522 319.413208 203.891470 319.186545 207.404417 320.682520 210.917365 319.231878 214.430312 319.775868 217.943260 318.914550 221.456207 317.101247 224.969155 317.645238 228.482102 315.877268 231.995050 315.786603 235.507997 316.058599 239.020944 316.738587 242.533892 316.285261 246.046839 315.786603 249.559787 315.877268 253.072734 317.599906 256.585682 318.143896 260.098629 319.367875 263.611577 319.231878 267.124524 320.002531 270.637471 318.007899 274.150419 316.466592 277.663366 317.554573 281.176314 317.962566 284.689261 318.642554 288.202209 319.367875 291.715156 320.229194 295.228104 320.546522 298.741051 318.325226 302.253998 318.642554 305.766946 317.101247 309.279893 317.509240 312.792841 317.191913 316.305788 317.735903 319.818736 318.098564 323.331683 317.418575 326.844631 316.829252 330.357578 319.005215 333.870526 319.639871 337.383473 318.551889 340.896420 317.826568 344.409368 315.423943 347.922315 314.925285 351.435263 313.746638 354.948210 312.885319 358.461158 313.066650 361.974105 310.210699 365.487053 311.072017 369.000000 309.848038 372.512947 310.890687 376.025895 309.621375 379.538842 309.666708 383.051790 309.168050 386.564737 309.394712 390.077685 308.760057 393.590632 309.984036 397.103580 310.120033 400.616527 311.888003 404.129474 312.522659 407.642422 313.701306 411.155369 313.111982 414.668317 312.885319 418.181264 311.480010 421.694212 313.429310 425.207159 312.159999 428.720107 307.717408 432.233054 306.765424 435.746002 306.538761 439.258949 306.085436 442.771896 305.042787 446.284844 307.762740 449.797791 307.400080 453.310739 306.266766 456.823686 307.490745 460.336634 307.944071 463.849581 309.893371 467.362529 308.306731 470.875476 308.986719 474.388423 309.984036 477.901371 311.298680 481.414318 309.530710 484.927266 308.397396 488.440213 304.861457 491.953161 300.101538 495.466108 299.240219 498.979056 298.424233 502.492003 296.157605 506.004950 291.851012 509.517898 290.173708 513.030845 293.482984 516.543793 294.117640 520.056740 296.610931 523.569688 291.307022 527.082635 292.712331 530.595583 293.346987 534.108530 292.032343 537.621478 289.448387 541.134425 286.637768 544.647372 288.995061 548.160320 288.768398 551.673267 290.763031 555.186215 292.938994 558.699162 287.317756 562.212110 275.939284 565.725057 271.360696 569.238005 260.662212 572.750952 263.880824 576.263899 261.478198 579.776847 262.248852 583.289794 266.782107 586.802742 260.934207 590.315689 256.400951 593.828637 262.656845 597.341584 261.568863 600.854532 268.459412 604.367479 273.219331 607.880427 279.021898 611.393374 278.976566 614.906321 274.443310 618.419269 282.285842 621.932216 288.813731 625.445164 295.613615 628.958111 301.642845 632.471059 300.736194 635.984006 308.216066 639.496954 300.464198 643.009901 291.715015 646.522848 278.523240 650.035796 280.336542 653.548743 283.963147 657.061691 291.760347 660.574638 286.592435 664.087586 295.477617 667.600533 294.706963 671.113481 270.046052 674.626428 270.998035 678.139375 275.213963 681.652323 274.216647 685.165270 282.693835 688.678218 270.408712 692.191165 267.643426 695.704113 261.931524 699.217060 288.723066 702.730008 294.933626 706.242955 282.013847 709.755903 322.223827 713.268850 319.413208 716.781797 357.175229 720.294745 8.885181 723.807692 194.748672"/></g><g class="series serie-1 color-1"><path class="line reactive nofill" d="M14.192308 453.144256 L17.705255 276.347277 21.218203 345.842090 24.731150 343.212801 28.244097 311.480010 31.757045 285.413789 35.269992 271.814021 38.782940 337.863559 42.295887 348.380713 45.808835 349.287364 49.321782 332.786313 52.834730 340.175520 56.347677 330.066359 59.860625 334.644948 63.373572 340.130187 66.886519 335.823594 70.399467 335.551599 73.912414 334.780945 77.425362 330.973010 80.938309 328.933045 84.451257 332.786313 87.964204 323.719801 91.477152 319.730536 94.990099 328.207724 98.503046 325.669101 102.015994 319.685203 105.528941 321.362508 109.041889 318.143896 112.554836 315.831936 116.067784 314.653289 119.580731 317.282578 123.093679 311.434678 126.606626 304.136136 130.119573 302.685494 133.632521 308.352064 137.145468 301.234852 140.658416 299.149554 144.171363 299.784210 147.684311 296.248270 151.197258 290.309705 154.710206 290.083042 158.223153 296.565598 161.736101 299.104222 165.249048 297.200254 168.761995 297.744245 172.274943 299.602880 175.787890 299.602880 179.300838 294.480301 182.813785 296.746929 186.326733 299.557547 189.839680 297.290919 193.352628 297.698912 196.865575 301.824175 200.378522 303.954805 203.891470 305.360115 207.404417 300.056205 210.917365 305.949438 214.430312 304.136136 217.943260 307.354747 221.456207 313.293312 224.969155 311.616008 228.482102 316.874585 231.995050 317.146580 235.507997 316.375926 239.020944 314.562624 242.533892 315.741271 246.046839 317.101247 249.559787 316.783919 253.072734 312.613324 256.585682 311.298680 260.098629 308.397396 263.611577 308.850722 267.124524 306.946754 270.637471 311.978668 274.150419 315.514608 277.663366 313.157315 281.176314 312.386661 284.689261 310.936019 288.202209 309.530710 291.715156 307.944071 295.228104 307.218750 298.741051 312.069333 302.253998 311.525343 305.766946 314.471959 309.279893 313.791971 312.792841 314.381294 316.305788 313.519975 319.818736 313.021317 323.331683 314.199964 326.844631 315.151947 330.357578 311.888003 333.870526 310.981352 337.383473 312.749322 340.896420 313.837303 344.409368 317.101247 347.922315 317.690571 351.435263 319.050547 354.948210 319.957199 358.461158 319.685203 361.974105 322.541154 365.487053 321.543838 369.000000 322.541154 372.512947 321.453173 376.025895 322.450489 379.538842 322.450489 383.051790 322.722485 386.564737 322.405157 390.077685 322.813150 393.590632 321.679836 397.103580 321.498506 400.616527 319.911866 404.129474 319.277210 407.642422 318.279894 411.155369 318.733220 414.668317 318.869217 418.181264 319.911866 421.694212 318.325226 425.207159 319.277210 428.720107 322.359824 432.233054 322.813150 435.746002 322.858482 439.258949 323.085145 442.771896 323.583803 446.284844 321.725168 449.797791 321.815834 453.310739 322.314492 456.823686 321.589171 460.336634 321.181178 463.849581 320.002531 467.362529 320.818517 470.875476 320.365192 474.388423 319.685203 477.901371 318.959882 481.414318 319.821201 484.927266 320.410524 488.440213 322.042496 491.953161 323.946464 495.466108 324.218459 498.979056 324.490454 502.492003 325.215775 506.004950 326.575752 509.517898 326.893080 513.030845 325.533103 516.543793 325.079778 520.056740 324.082461 523.569688 325.487771 527.082635 324.762450 530.595583 324.399789 534.108530 324.535787 537.621478 325.034445 541.134425 325.578436 544.647372 324.853115 548.160320 324.717117 551.673267 324.127794 555.186215 323.402473 558.699162 324.626452 562.212110 326.711750 565.725057 327.346406 569.238005 328.706382 572.750952 327.981061 576.263899 327.890396 579.776847 327.437071 583.289794 326.485087 586.802742 326.802415 590.315689 327.029078 593.828637 325.895764 597.341584 325.759766 600.854532 324.581120 604.367479 323.719801 607.880427 322.722485 611.393374 322.495822 614.906321 322.858482 618.419269 321.589171 621.932216 320.546522 625.445164 319.458540 628.958111 318.461224 632.471059 318.461224 635.984006 317.327910 639.496954 318.279894 643.009901 319.095880 646.522848 320.138529 650.035796 319.957199 653.548743 319.594538 657.061691 318.733220 660.574638 319.005215 664.087586 318.143896 667.600533 318.143896 671.113481 319.594538 674.626428 319.322543 678.139375 318.823885 681.652323 318.733220 685.165270 318.189229 688.678218 318.551889 692.191165 318.506557 695.704113 318.551889 699.217060 317.373243 702.730008 317.010582 706.242955 317.237245 709.755903 315.967933 713.268850 316.058599 716.781797 315.197280 720.294745 317.327910 723.807692 317.146580"/></g><g class="series serie-2 color-2"><path class="line reactive nofill" d="M14.192308 316.149264 L17.705255 316.149264 21.218203 316.149264 24.731150 316.149264 28.244097 316.149264 31.757045 316.149264 35.269992 316.149264 38.782940 316.149264 42.295887 316.149264 45.808835 316.149264 49.321782 316.149264 52.834730 316.149264 56.347677 316.149264 59.860625 316.149264 63.373572 316.149264 66.886519 316.149264 70.399467 316.149264 73.912414 316.149264 77.425362 316.149264 80.938309 316.149264 84.451257 316.149264 87.964204 316.149264 91.477152 316.149264 94.990099 316.149264 98.503046 316.149264 102.015994 316.149264 105.528941 316.149264 109.041889 316.149264 112.554836 316.149264 116.067784 316.149264 119.580731 316.149264 123.093679 316.149264 126.606626 316.149264 130.119573 316.149264 133.632521 316.149264 137.145468 316.149264 140.658416 316.149264 144.171363 316.149264 147.684311 316.149264 151.197258 316.149264 154.710206 316.149264 158.223153 316.149264 161.736101 316.149264 165.249048 316.149264 168.761995 316.149264 172.274943 316.149264 175.787890 316.149264 179.300838 316.149264 182.813785 316.149264 186.326733 316.149264 189.839680 316.149264 193.352628 316.149264 196.865575 316.149264 200.378522 316.149264 203.891470 316.149264 207.404417 316.149264 210.917365 316.149264 214.430312 316.149264 217.943260 316.149264 221.456207 316.149264 224.969155 316.149264 228.482102 316.149264 231.995050 316.149264 235.507997 316.149264 239.020944 316.149264 242.533892 316.149264 246.046839 316.149264 249.559787 316.149264 253.072734 316.149264 256.585682 316.149264 260.098629 316.149264 263.611577 316.149264 267.124524 316.149264 270.637471 316.149264 274.150419 316.149264 277.663366 316.149264 281.176314 316.149264 284.689261 316.149264 288.202209 316.149264 291.715156 316.149264 295.228104 316.149264 298.741051 316.149264 302.253998 316.149264 305.766946 316.149264 309.279893 316.149264 312.792841 316.149264 316.305788 316.149264 319.818736 316.149264 323.331683 316.149264 326.844631 316.149264 330.357578 316.149264 333.870526 316.149264 337.383473 316.149264 340.896420 316.149264 344.409368 316.149264 347.922315 316.149264 351.435263 316.149264 354.948210 316.149264 358.461158 316.149264 361.974105 316.149264 365.487053 316.149264 369.000000 316.149264 372.512947 316.149264 376.025895 316.149264 379.538842 316.149264 383.051790 316.149264 386.564737 316.149264 390.077685 316.149264 393.590632 316.149264 397.103580 316.149264 400.616527 316.149264 404.129474 316.149264 407.642422 316.149264 411.155369 316.149264 414.668317 316.149264 418.181264 316.149264 421.694212 316.149264 425.207159 316.149264 428.720107 316.149264 432.233054 316.149264 435.746002 316.149264 439.258949 316.149264 442.771896 316.149264 446.284844 316.149264 449.797791 316.149264 453.310739 316.149264 456.823686 316.149264 460.336634 316.149264 463.849581 316.149264 467.362529 316.149264 470.875476 316.149264 474.388423 316.149264 477.901371 316.149264 481.414318 316.149264 484.927266 316.149264 488.440213 316.149264 491.953161 316.149264 495.466108 316.149264 498.979056 316.149264 502.492003 316.149264 506.004950 316.149264 509.517898 316.149264 513.030845 316.149264 516.543793 316.149264 520.056740 316.149264 523.569688 316.149264 527.082635 316.149264 530.595583 316.149264 534.108530 316.149264 537.621478 316.149264 541.134425 316.149264 544.647372 316.149264 548.160320 316.149264 551.673267 316.149264 555.186215 316.149264 558.699162 316.149264 562.212110 316.149264 565.725057 316.149264 569.238005 316.149264 572.750952 316.149264 576.263899 316.149264 579.776847 316.149264 583.289794 316.149264 586.802742 316.149264 590.315689 316.149264 593.828637 316.149264 597.341584 316.149264 600.854532 316.149264 604.367479 316.149264 607.880427 316.149264 611.393374 316.149264 614.906321 316.149264 618.419269 316.149264 621.932216 316.149264 625.445164 316.149264 628.958111 316.149264 632.471059 316.149264 635.984006 316.149264 639.496954 316.149264 643.009901 316.149264 646.522848 316.149264 650.035796 316.149264 653.548743 316.149264 657.061691 316.149264 660.574638 316.149264 664.087586 316.149264 667.600533 316.149264 671.113481 316.149264 674.626428 316.149264 678.139375 316.149264 681.652323 316.149264 685.165270 316.149264 688.678218 316.149264 692.191165 316.149264 695.704113 316.149264 699.217060 316.149264 702.730008 316.149264 706.242955 316.149264 709.755903 316.149264 713.268850 316.149264 716.781797 316.149264 720.294745 316.149264 723.807692 316.149264"/></g></g><g class="titles"><text class="title plot_title" x="400.0" y="26">Shakib Al Hasan: Future and Past Averages in ODIs</text></g><g class="plot overlay" transform="translate(42, 46)"><g class="series serie-0 color-0"><g class="dots"><desc class="label">260 wickets in 203 innings (1752.5 overs)</desc><circle class="dot reactive tooltip-trigger" cx="14.192307692307692" cy="316.1492636766209" r="2.5"/><desc class="value">30.22</desc><desc class="x top">14.192307692307692</desc><desc class="y top">316.1492636766209</desc><desc class="x_label">2006</desc></g><g class="dots"><desc class="label">245 wickets in 189 innings (1640.2 overs)</desc><circle class="dot reactive tooltip-trigger" cx="63.37357197258187" cy="314.6986218014199" r="2.5"/><desc class="value">30.54</desc><desc class="x top">63.37357197258187</desc><desc class="y top">314.6986218014199</desc><desc class="x_label">2007</desc></g><g class="dots"><desc class="label">225 wickets in 167 innings (1472.5 overs)</desc><circle class="dot reactive tooltip-trigger" cx="140.65841584158414" cy="318.7785520754227" r="2.5"/><desc class="value">29.64</desc><desc class="x top">140.65841584158414</desc><desc class="y top">318.7785520754227</desc><desc class="x_label">2008</desc></g><g class="dots"><desc class="label">203 wickets in 148 innings (1299.0 overs)</desc><circle class="dot reactive tooltip-trigger" cx="207.40441736481344" cy="320.68251953662406" r="2.5"/><desc class="value">29.22</desc><desc class="x top">207.40441736481344</desc><desc class="y top">320.68251953662406</desc><desc class="x_label">2009</desc></g><g class="dots"><desc class="label">177 wickets in 129 innings (1128.3 overs)</desc><circle class="dot reactive tooltip-trigger" cx="274.1504188880427" cy="316.4665915868211" r="2.5"/><desc class="value">30.15</desc><desc class="x top">274.1504188880427</desc><desc class="y top">316.4665915868211</desc><desc class="x_label">2010</desc></g><g class="dots"><desc class="label">131 wickets in 102 innings (879.3 overs)</desc><circle class="dot reactive tooltip-trigger" cx="369.0" cy="309.84803803121645" r="2.5"/><desc class="value">31.61</desc><desc class="x top">369.0</desc><desc class="y top">309.84803803121645</desc><desc class="x_label">2011</desc></g><g class="dots"><desc class="label">106 wickets in 82 innings (717.3 overs)</desc><circle class="dot reactive tooltip-trigger" cx="439.25894897182025" cy="306.0854356674139" r="2.5"/><desc class="value">32.44</desc><desc class="x left top">439.25894897182025</desc><desc class="y left top">306.0854356674139</desc><desc class="x_label">2012</desc></g><g class="dots"><desc class="label">100 wickets in 78 innings (677.3 overs)</desc><circle class="dot reactive tooltip-trigger" cx="453.31073876618433" cy="306.266765901814" r="2.5"/><desc class="value">32.4</desc><desc class="x left top">453.31073876618433</desc><desc class="y left top">306.266765901814</desc><desc class="x_label">2013</desc></g><g class="dots"><desc class="label">99 wickets in 75 innings (656.3 overs)</desc><circle class="dot reactive tooltip-trigger" cx="463.8495811119573" cy="309.8933705898165" r="2.5"/><desc class="value">31.6</desc><desc class="x left top">463.8495811119573</desc><desc class="y left top">309.8933705898165</desc><desc class="x_label">2014</desc></g><g class="dots"><desc class="label">78 wickets in 63 innings (561.4 overs)</desc><circle class="dot reactive tooltip-trigger" cx="506.0049504950495" cy="291.8510122670039" r="2.5"/><desc class="value">35.58</desc><desc class="x left top">506.0049504950495</desc><desc class="y left top">291.8510122670039</desc><desc class="x_label">2015</desc></g><g class="dots"><desc class="label">54 wickets in 47 innings (417.4 overs)</desc><circle class="dot reactive tooltip-trigger" cx="562.2121096725057" cy="275.9392841983928" r="2.5"/><desc class="value">39.09</desc><desc class="x left top">562.2121096725057</desc><desc class="y left top">275.9392841983928</desc><desc class="x_label">2016</desc></g><g class="dots"><desc class="label">40 wickets in 38 innings (336.4 overs)</desc><circle class="dot reactive tooltip-trigger" cx="593.8286367098249" cy="262.65684452858346" r="2.5"/><desc class="value">42.02</desc><desc class="x left top">593.8286367098249</desc><desc class="y left top">262.65684452858346</desc><desc class="x_label">2017</desc></g><g class="dots"><desc class="label">34 wickets in 26 innings (228.4 overs)</desc><circle class="dot reactive tooltip-trigger" cx="635.984006092917" cy="308.2160659216154" r="2.5"/><desc class="value">31.97</desc><desc class="x left top">635.984006092917</desc><desc class="y left top">308.2160659216154</desc><desc class="x_label">2018</desc></g><g class="dots"><desc class="label">13 wickets in 11 innings (103.0 overs)</desc><circle class="dot reactive tooltip-trigger" cx="688.6782178217821" cy="270.4087120491889" r="2.5"/><desc class="value">40.31</desc><desc class="x left top">688.6782178217821</desc><desc class="y left top">270.4087120491889</desc><desc class="x_label">2019</desc></g></g><g class="series serie-1 color-1"><g class="dots"><desc class="label">0 wickets over 0 innings</desc><circle class="dot reactive tooltip-trigger" cx="14.192307692307692" cy="453.1442557659166" r="2.5"/><desc class="value">0</desc><desc class="x top">14.192307692307692</desc><desc class="y top">453.1442557659166</desc><desc class="x_label">2006</desc></g><g class="dots"><desc class="label">15 wickets in 14 innings (112.3 overs)</desc><circle class="dot reactive tooltip-trigger" cx="63.37357197258187" cy="340.1301871760376" r="2.5"/><desc class="value">24.93</desc><desc class="x top">63.37357197258187</desc><desc class="y top">340.1301871760376</desc><desc class="x_label">2007</desc></g><g class="dots"><desc class="label">35 wickets in 36 innings (280.0 overs)</desc><circle class="dot reactive tooltip-trigger" cx="140.65841584158414" cy="299.149554201609" r="2.5"/><desc class="value">33.97</desc><desc class="x top">140.65841584158414</desc><desc class="y top">299.149554201609</desc><desc class="x_label">2008</desc></g><g class="dots"><desc class="label">57 wickets in 55 innings (453.5 overs)</desc><circle class="dot reactive tooltip-trigger" cx="207.40441736481344" cy="300.0562053736096" r="2.5"/><desc class="value">33.77</desc><desc class="x top">207.40441736481344</desc><desc class="y top">300.0562053736096</desc><desc class="x_label">2009</desc></g><g class="dots"><desc class="label">83 wickets in 74 innings (624.2 overs)</desc><circle class="dot reactive tooltip-trigger" cx="274.1504188880427" cy="315.51460785622044" r="2.5"/><desc class="value">30.36</desc><desc class="x top">274.1504188880427</desc><desc class="y top">315.51460785622044</desc><desc class="x_label">2010</desc></g><g class="dots"><desc class="label">129 wickets in 101 innings (873.2 overs)</desc><circle class="dot reactive tooltip-trigger" cx="369.0" cy="322.54115443922535" r="2.5"/><desc class="value">28.81</desc><desc class="x top">369.0</desc><desc class="y top">322.54115443922535</desc><desc class="x_label">2011</desc></g><g class="dots"><desc class="label">154 wickets in 121 innings (1035.2 overs)</desc><circle class="dot reactive tooltip-trigger" cx="439.25894897182025" cy="323.08514514242574" r="2.5"/><desc class="value">28.69</desc><desc class="x left top">439.25894897182025</desc><desc class="y left top">323.08514514242574</desc><desc class="x_label">2012</desc></g><g class="dots"><desc class="label">160 wickets in 125 innings (1075.2 overs)</desc><circle class="dot reactive tooltip-trigger" cx="453.31073876618433" cy="322.3144916462252" r="2.5"/><desc class="value">28.86</desc><desc class="x left top">453.31073876618433</desc><desc class="y left top">322.3144916462252</desc><desc class="x_label">2013</desc></g><g class="dots"><desc class="label">161 wickets in 128 innings (1096.2 overs)</desc><circle class="dot reactive tooltip-trigger" cx="463.8495811119573" cy="320.0025311576236" r="2.5"/><desc class="value">29.37</desc><desc class="x left top">463.8495811119573</desc><desc class="y left top">320.0025311576236</desc><desc class="x_label">2014</desc></g><g class="dots"><desc class="label">182 wickets in 140 innings (1191.1 overs)</desc><circle class="dot reactive tooltip-trigger" cx="506.0049504950495" cy="326.57575215462816" r="2.5"/><desc class="value">27.92</desc><desc class="x left top">506.0049504950495</desc><desc class="y left top">326.57575215462816</desc><desc class="x_label">2015</desc></g><g class="dots"><desc class="label">206 wickets in 156 innings (1335.1 overs)</desc><circle class="dot reactive tooltip-trigger" cx="562.2121096725057" cy="326.7117498304283" r="2.5"/><desc class="value">27.89</desc><desc class="x left top">562.2121096725057</desc><desc class="y left top">326.7117498304283</desc><desc class="x_label">2016</desc></g><g class="dots"><desc class="label">220 wickets in 165 innings (1416.1 overs)</desc><circle class="dot reactive tooltip-trigger" cx="593.8286367098249" cy="325.8957637756277" r="2.5"/><desc class="value">28.07</desc><desc class="x left top">593.8286367098249</desc><desc class="y left top">325.8957637756277</desc><desc class="x_label">2017</desc></g><g class="dots"><desc class="label">226 wickets in 177 innings (1524.1 overs)</desc><circle class="dot reactive tooltip-trigger" cx="635.984006092917" cy="317.3279102002217" r="2.5"/><desc class="value">29.96</desc><desc class="x left top">635.984006092917</desc><desc class="y left top">317.3279102002217</desc><desc class="x_label">2018</desc></g><g class="dots"><desc class="label">247 wickets in 192 innings (1649.5 overs)</desc><circle class="dot reactive tooltip-trigger" cx="688.6782178217821" cy="318.5518892824225" r="2.5"/><desc class="value">29.69</desc><desc class="x left top">688.6782178217821</desc><desc class="y left top">318.5518892824225</desc><desc class="x_label">2019</desc></g></g><g class="series serie-2 color-2"/></g><g class="plot text-overlay" transform="translate(42, 46)"><g class="series serie-0 color-0"/><g class="series serie-1 color-1"/><g class="series serie-2 color-2"/></g><g class="plot tooltip-overlay" transform="translate(42, 46)"><g class="tooltip" style="opacity: 0" transform="translate(0 0)"><rect class="tooltip-box" height="0" rx="10" ry="10" width="0"/><g class="text"/></g></g><g class="legends" transform="translate(52, 545)"><g class="legend reactive activate-serie" id="activate-serie-0"><rect class="color-0 reactive" height="12" width="12" x="0.0" y="1.0"/><text x="17.0" y="11.2">Future Average</text></g><g class="legend reactive activate-serie" id="activate-serie-1"><rect class="color-1 reactive" height="12" width="12" x="369.0" y="1.0"/><text x="386.0" y="11.2">Past Average</text></g><g class="legend reactive activate-serie" id="activate-serie-2"><rect class="color-2 reactive" height="12" width="12" x="0.0" y="22.0"/><text x="17.0" y="32.2">Career Average</text></g></g></g></svg>