<?xml version='1.0' encoding='utf-8'?>
<svg xmlns:xlink="http://www.w3.org/1999/xlink" xmlns="http://www.w3.org/2000/svg" id="chart-472ef80d-3bee-4e4e-8877-02374c99fef2" class="pygal-chart" viewBox="0 0 800 600"><!--Generated with pygal 2.4.0 (lxml) ©Kozea 2012-2016 on 2019-08-04--><!--http://pygal.org--><!--http://github.com/Kozea/pygal--><defs><style type="text/css">#chart-472ef80d-3bee-4e4e-8877-02374c99fef2{-webkit-user-select:none;-webkit-font-smoothing:antialiased;font-family:Consolas,"Liberation Mono",Menlo,Courier,monospace}#chart-472ef80d-3bee-4e4e-8877-02374c99fef2 .title{font-family:Consolas,"Liberation Mono",Menlo,Courier,monospace;font-size:16px}#chart-472ef80d-3bee-4e4e-8877-02374c99fef2 .legends .legend text{font-family:Consolas,"Liberation Mono",Menlo,Courier,monospace;font-size:14px}#chart-472ef80d-3bee-4e4e-8877-02374c99fef2 .axis text{font-family:Consolas,"Liberation Mono",Menlo,Courier,monospace;font-size:10px}#chart-472ef80d-3bee-4e4e-8877-02374c99fef2 .axis text.major{font-family:Consolas,"Liberation Mono",Menlo,Courier,monospace;font-size:10px}#chart-472ef80d-3bee-4e4e-8877-02374c99fef2 .text-overlay text.value{font-family:Consolas,"Liberation Mono",Menlo,Courier,monospace;font-size:16px}#chart-472ef80d-3bee-4e4e-8877-02374c99fef2 .text-overlay text.label{font-family:Consolas,"Liberation Mono",Menlo,Courier,monospace;font-size:10px}#chart-472ef80d-3bee-4e4e-8877-02374c99fef2 .tooltip{font-family:Consolas,"Liberation Mono",Menlo,Courier,monospace;font-size:14px}#chart-472ef80d-3bee-4e4e-8877-02374c99fef2 text.no_data{font-family:Consolas,"Liberation Mono",Menlo,Courier,monospace;font-size:64px}
#chart-472ef80d-3bee-4e4e-8877-02374c99fef2{background-color:rgba(249,249,249,1)}#chart-472ef80d-3bee-4e4e-8877-02374c99fef2 path,#chart-472ef80d-3bee-4e4e-8877-02374c99fef2 line,#chart-472ef80d-3bee-4e4e-8877-02374c99fef2 rect,#chart-472ef80d-3bee-4e4e-8877-02374c99fef2 circle{-webkit-transition:150ms;-moz-transition:150ms;transition:150ms}#chart-472ef80d-3bee-4e4e-8877-02374c99fef2 .graph &gt; .background{fill:rgba(249,249,249,1)}#chart-472ef80d-3bee-4e4e-8877-02374c99fef2 .plot &gt; .background{fill:rgba(255,255,255,1)}#chart-472ef80d-3bee-4e4e-8877-02374c99fef2 .graph{fill:rgba(0,0,0,.87)}#chart-472ef80d-3bee-4e4e-8877-02374c99fef2 text.no_data{fill:rgba(0,0,0,1)}#chart-472ef80d-3bee-4e4e-8877-02374c99fef2 .title{fill:rgba(0,0,0,1)}#chart-472ef80d-3bee-4e4e-8877-02374c99fef2 .legends .legend text{fill:rgba(0,0,0,.87)}#chart-472ef80d-3bee-4e4e-8877-02374c99fef2 .legends .legend:hover text{fill:rgba(0,0,0,1)}#chart-472ef80d-3bee-4e4e-8877-02374c99fef2 .axis .line{stroke:rgba(0,0,0,1)}#chart-472ef80d-3bee-4e4e-8877-02374c99fef2 .axis .guide.line{stroke:rgba(0,0,0,.54)}#chart-472ef80d-3bee-4e4e-8877-02374c99fef2 .axis .major.line{stroke:rgba(0,0,0,.87)}#chart-472ef80d-3bee-4e4e-8877-02374c99fef2 .axis text.major{fill:rgba(0,0,0,1)}#chart-472ef80d-3bee-4e4e-8877-02374c99fef2 .axis.y .guides:hover .guide.line,#chart-472ef80d-3bee-4e4e-8877-02374c99fef2 .line-graph .axis.x .guides:hover .guide.line,#chart-472ef80d-3bee-4e4e-8877-02374c99fef2 .stackedline-graph .axis.x .guides:hover .guide.line,#chart-472ef80d-3bee-4e4e-8877-02374c99fef2 .xy-graph .axis.x .guides:hover .guide.line{stroke:rgba(0,0,0,1)}#chart-472ef80d-3bee-4e4e-8877-02374c99fef2 .axis .guides:hover text{fill:rgba(0,0,0,1)}#chart-472ef80d-3bee-4e4e-8877-02374c99fef2 .reactive{fill-opacity:.7;stroke-opacity:.8}#chart-472ef80d-3bee-4e4e-8877-02374c99fef2 .ci{stroke:rgba(0,0,0,.87)}#chart-472ef80d-3bee-4e4e-8877-02374c99fef2 .reactive.active,#chart-472ef80d-3bee-4e4e-8877-02374c99fef2 .active .reactive{fill-opacity:.8;stroke-opacity:.9;stroke-width:4}#chart-472ef80d-3bee-4e4e-8877-02374c99fef2 .ci .reactive.active{stroke-width:1.5}#chart-472ef80d-3bee-4e4e-8877-02374c99fef2 .series text{fill:rgba(0,0,0,1)}#chart-472ef80d-3bee-4e4e-8877-02374c99fef2 .tooltip rect{fill:rgba(255,255,255,1);stroke:rgba(0,0,0,1);-webkit-transition:opacity 150ms;-moz-transition:opacity 150ms;transition:opacity 150ms}#chart-472ef80d-3bee-4e4e-8877-02374c99fef2 .tooltip .label{fill:rgba(0,0,0,.87)}#chart-472ef80d-3bee-4e4e-8877-02374c99fef2 .tooltip .label{fill:rgba(0,0,0,.87)}#chart-472ef80d-3bee-4e4e-8877-02374c99fef2 .tooltip .legend{font-size:.8em;fill:rgba(0,0,0,.54)}#chart-472ef80d-3bee-4e4e-8877-02374c99fef2 .tooltip .x_label{font-size:.6em;fill:rgba(0,0,0,1)}#chart-472ef80d-3bee-4e4e-8877-02374c99fef2 .tooltip .xlink{font-size:.5em;text-decoration:underline}#chart-472ef80d-3bee-4e4e-8877-02374c99fef2 .tooltip .value{font-size:1.5em}#chart-472ef80d-3bee-4e4e-8877-02374c99fef2 .bound{font-size:.5em}#chart-472ef80d-3bee-4e4e-8877-02374c99fef2 .max-value{font-size:.75em;fill:rgba(0,0,0,.54)}#chart-472ef80d-3bee-4e4e-8877-02374c99fef2 .map-element{fill:rgba(255,255,255,1);stroke:rgba(0,0,0,.54) !important}#chart-472ef80d-3bee-4e4e-8877-02374c99fef2 .map-element .reactive{fill-opacity:inherit;stroke-opacity:inherit}#chart-472ef80d-3bee-4e4e-8877-02374c99fef2 .color-0,#chart-472ef80d-3bee-4e4e-8877-02374c99fef2 .color-0 a:visited{stroke:red;fill:red}#chart-472ef80d-3bee-4e4e-8877-02374c99fef2 .color-1,#chart-472ef80d-3bee-4e4e-8877-02374c99fef2 .color-1 a:visited{stroke:blue;fill:blue}#chart-472ef80d-3bee-4e4e-8877-02374c99fef2 .color-2,#chart-472ef80d-3bee-4e4e-8877-02374c99fef2 .color-2 a:visited{stroke:green;fill:green}#chart-472ef80d-3bee-4e4e-8877-02374c99fef2 .text-overlay .color-0 text{fill:white}#chart-472ef80d-3bee-4e4e-8877-02374c99fef2 .text-overlay .color-1 text{fill:white}#chart-472ef80d-3bee-4e4e-8877-02374c99fef2 .text-overlay .color-2 text{fill:white}
#chart-472ef80d-3bee-4e4e-8877-02374c99fef2 text.no_data{text-anchor:middle}#chart-472ef80d-3bee-4e4e-8877-02374c99fef2 .guide.line{fill:none}#chart-472ef80d-3bee-4e4e-8877-02374c99fef2 .centered{text-anchor:middle}#chart-472ef80d-3bee-4e4e-8877-02374c99fef2 .title{text-anchor:middle}#chart-472ef80d-3bee-4e4e-8877-02374c99fef2 .legends .legend text{fill-opacity:1}#chart-472ef80d-3bee-4e4e-8877-02374c99fef2 .axis.x text{text-anchor:middle}#chart-472ef80d-3bee-4e4e-8877-02374c99fef2 .axis.x:not(.web) text[transform]{text-anchor:start}#chart-472ef80d-3bee-4e4e-8877-02374c99fef2 .axis.x:not(.web) text[transform].backwards{text-anchor:end}#chart-472ef80d-3bee-4e4e-8877-02374c99fef2 .axis.y text{text-anchor:end}#chart-472ef80d-3bee-4e4e-8877-02374c99fef2 .axis.y text[transform].backwards{text-anchor:start}#chart-472ef80d-3bee-4e4e-8877-02374c99fef2 .axis.y2 text{text-anchor:start}#chart-472ef80d-3bee-4e4e-8877-02374c99fef2 .axis.y2 text[transform].backwards{text-anchor:end}#chart-472ef80d-3bee-4e4e-8877-02374c99fef2 .axis .guide.line{stroke-dasharray:4,4}#chart-472ef80d-3bee-4e4e-8877-02374c99fef2 .axis .major.guide.line{stroke-dasharray:6,6}#chart-472ef80d-3bee-4e4e-8877-02374c99fef2 .horizontal .axis.y .guide.line,#chart-472ef80d-3bee-4e4e-8877-02374c99fef2 .horizontal .axis.y2 .guide.line,#chart-472ef80d-3bee-4e4e-8877-02374c99fef2 .vertical .axis.x .guide.line{opacity:0}#chart-472ef80d-3bee-4e4e-8877-02374c99fef2 .horizontal .axis.always_show .guide.line,#chart-472ef80d-3bee-4e4e-8877-02374c99fef2 .vertical .axis.always_show .guide.line{opacity:1 !important}#chart-472ef80d-3bee-4e4e-8877-02374c99fef2 .axis.y .guides:hover .guide.line,#chart-472ef80d-3bee-4e4e-8877-02374c99fef2 .axis.y2 .guides:hover .guide.line,#chart-472ef80d-3bee-4e4e-8877-02374c99fef2 .axis.x .guides:hover .guide.line{opacity:1}#chart-472ef80d-3bee-4e4e-8877-02374c99fef2 .axis .guides:hover text{opacity:1}#chart-472ef80d-3bee-4e4e-8877-02374c99fef2 .nofill{fill:none}#chart-472ef80d-3bee-4e4e-8877-02374c99fef2 .subtle-fill{fill-opacity:.2}#chart-472ef80d-3bee-4e4e-8877-02374c99fef2 .dot{stroke-width:1px;fill-opacity:1}#chart-472ef80d-3bee-4e4e-8877-02374c99fef2 .dot.active{stroke-width:5px}#chart-472ef80d-3bee-4e4e-8877-02374c99fef2 .dot.negative{fill:transparent}#chart-472ef80d-3bee-4e4e-8877-02374c99fef2 text,#chart-472ef80d-3bee-4e4e-8877-02374c99fef2 tspan{stroke:none !important}#chart-472ef80d-3bee-4e4e-8877-02374c99fef2 .series text.active{opacity:1}#chart-472ef80d-3bee-4e4e-8877-02374c99fef2 .tooltip rect{fill-opacity:.95;stroke-width:.5}#chart-472ef80d-3bee-4e4e-8877-02374c99fef2 .tooltip text{fill-opacity:1}#chart-472ef80d-3bee-4e4e-8877-02374c99fef2 .showable{visibility:hidden}#chart-472ef80d-3bee-4e4e-8877-02374c99fef2 .showable.shown{visibility:visible}#chart-472ef80d-3bee-4e4e-8877-02374c99fef2 .gauge-background{fill:rgba(229,229,229,1);stroke:none}#chart-472ef80d-3bee-4e4e-8877-02374c99fef2 .bg-lines{stroke:rgba(249,249,249,1);stroke-width:2px}</style><script type="text/javascript">window.pygal = window.pygal || {};window.pygal.config = window.pygal.config || {};window.pygal.config['472ef80d-3bee-4e4e-8877-02374c99fef2'] = {"allow_interruptions": false, "box_mode": "extremes", "classes": ["pygal-chart"], "css": ["file://style.css", "file://graph.css"], "defs": [], "disable_xml_declaration": false, "dots_size": 2.5, "dynamic_print_values": false, "explicit_size": false, "fill": false, "force_uri_protocol": "https", "formatter": null, "half_pie": false, "height": 600, "include_x_axis": false, "inner_radius": 0, "interpolate": null, "interpolation_parameters": {}, "interpolation_precision": 250, "inverse_y_axis": false, "js": ["//kozea.github.io/pygal.js/2.0.x/pygal-tooltips.min.js"], "legend_at_bottom": true, "legend_at_bottom_columns": null, "legend_box_size": 12, "logarithmic": false, "margin": 20, "margin_bottom": null, "margin_left": null, "margin_right": null, "margin_top": null, "max_scale": 16, "min_scale": 4, "missing_value_fill_truncation": "x", "no_data_text": "No data", "no_prefix": false, "order_min": null, "pretty_print": false, "print_labels": false, "print_values": false, "print_values_position": "center", "print_zeroes": true, "range": null, "rounded_bars": null, "secondary_range": null, "show_dots": true, "show_legend": true, "show_minor_x_labels": false, "show_minor_y_labels": true, "show_only_major_dots": false, "show_x_guides": false, "show_x_labels": true, "show_y_guides": true, "show_y_labels": true, "spacing": 10, "stack_from_top": false, "strict": false, "stroke": true, "stroke_style": null, "style": {"background": "rgba(249, 249, 249, 1)", "ci_colors": [], "colors": ["red", "blue", "green", "#a3a3a3"], "font_family": "Consolas, \"Liberation Mono\", Menlo, Courier, monospace", "foreground": "rgba(0, 0, 0, .87)", "foreground_strong": "rgba(0, 0, 0, 1)", "foreground_subtle": "rgba(0, 0, 0, .54)", "guide_stroke_dasharray": "4,4", "label_font_family": "Consolas, \"Liberation Mono\", Menlo, Courier, monospace", "label_font_size": 10, "legend_font_family": "Consolas, \"Liberation Mono\", Menlo, Courier, monospace", "legend_font_size": 14, "major_guide_stroke_dasharray": "6,6", "major_label_font_family": "Consolas, \"Liberation Mono\", Menlo, Courier, monospace", "major_label_font_size": 10, "no_data_font_family": "Consolas, \"Liberation Mono\", Menlo, Courier, monospace", "no_data_font_size": 64, "opacity": ".7", "opacity_hover": ".8", "plot_background": "rgba(255, 255, 255, 1)", "stroke_opacity": ".8", "stroke_opacity_hover": ".9", "title_font_family": "Consolas, \"Liberation Mono\", Menlo, Courier, monospace", "title_font_size": 16, "tooltip_font_family": "Consolas, \"Liberation Mono\", Menlo, Courier, monospace", "tooltip_font_size": 14, "transition": "150ms", "value_background": "rgba(229, 229, 229, 1)", "value_colors": [], "value_font_family": "Consolas, \"Liberation Mono\", Menlo, Courier, monospace", "value_font_size": 16, "value_label_font_family": "Consolas, \"Liberation Mono\", Menlo, Courier, monospace", "value_label_font_size": 10}, "title": "Shoaib Akhtar: Future and Past Averages in ODIs", "tooltip_border_radius": 10, "tooltip_fancy_mode": true, "truncate_label": null, "truncate_legend": null, "width": 800, "x_label_rotation": 45, "x_labels": ["1998", "0", "0", "0", "0", "1999", "0", "0", "0", "0", "0", "0", "0", "0", "0", "0", "0", "0", "0", "0", "0", "0", "0", "0", "0", "0", "2000", "0", "0", "0", "0", "0", "0", "0", "0", "0", "0", "0", "0", "0", "0", "2001", "0", "0", "0", "0", "0", "0", "0", "2002", "0", "0", "0", "0", "0", "0", "0", "0", "0", "0", "0", "0", "0", "0", "0", "0", "0", "0", "0", "0", "0", "0", "0", "0", "0", "2003", "0", "0", "0", "0", "0", "0", "0", "0", "0", "0", "0", "0", "0", "0", "0", "0", "0", "0", "2004", "0", "0", "0", "0", "0", "0", "0", "0", "0", "0", "0", "0", "0", "0", "0", "0", "0", "0", "0", "0", "0", "0", "2005", "0", "0", "0", "0", "0", "0", "0", "0", "0", "0", "2006", "0", "0", "0", "2007", "0", "0", "0", "0", "2009", "0", "0", "0", "0", "0", "2010", "0", "0", "0", "0", "0", "0", "0", "0", "0", "0", "0", "0", "2011", "0", "0", "0", "0", "0"], "x_labels_major": ["1998", "1999", "2000", "2001", "2002", "2003", "2004", "2005", "2006", "2007", "2009", "2010", "2011"], "x_labels_major_count": null, "x_labels_major_every": null, "x_title": null, "xrange": null, "y_label_rotation": 0, "y_labels": null, "y_labels_major": null, "y_labels_major_count": null, "y_labels_major_every": null, "y_title": null, "zero": 80.0, "legends": ["Future Average", "Past Average", "Career Average"]}</script><script type="text/javascript" xlink:href="https://kozea.github.io/pygal.js/2.0.x/pygal-tooltips.min.js"/></defs><title>Shoaib Akhtar: Future and Past Averages in ODIs</title><g class="graph line-graph vertical"><rect class="background" height="600" width="800" x="0" y="0"/><g class="plot" transform="translate(42, 46)"><rect class="background" height="462.02943725152284" width="738.0" x="0" y="0"/><g class="axis y always_show"><g class="guides"><path class="axis major line" d="M0.000000 453.144256 h738.000000"/><text class="major" x="-5" y="456.6442557659166">0</text><title>0</title></g><g class="guides"><path class="guide line" d="M0.000000 389.678674 h738.000000"/><text class="" x="-5" y="393.1786737258723">10</text><title>10</title></g><g class="guides"><path class="guide line" d="M0.000000 326.213092 h738.000000"/><text class="" x="-5" y="329.713091685828">20</text><title>20</title></g><g class="guides"><path class="guide line" d="M0.000000 262.747510 h738.000000"/><text class="" x="-5" y="266.2475096457837">30</text><title>30</title></g><g class="guides"><path class="guide line" d="M0.000000 199.281928 h738.000000"/><text class="" x="-5" y="202.78192760573927">40</text><title>40</title></g><g class="guides"><path class="major guide line" d="M0.000000 135.816346 h738.000000"/><text class="major" x="-5" y="139.31634556569497">50</text><title>50</title></g><g class="guides"><path class="guide line" d="M0.000000 72.350764 h738.000000"/><text class="" x="-5" y="75.85076352565062">60</text><title>60</title></g><g class="guides"><path class="guide line" d="M0.000000 8.885181 h738.000000"/><text class="" x="-5" y="12.38518148560621">70</text><title>70</title></g></g><g class="axis x"><g class="guides"><path class="major line" d="M14.192308 0.000000 v462.029437"/><text class="major" x="14.192307692307692" y="477.02943725152284" transform="rotate(45 14.192308 477.029437)">1998</text></g><g class="guides"><path class="major guide line" d="M36.230053 0.000000 v462.029437"/><text class="major" x="36.23005255613951" y="477.02943725152284" transform="rotate(45 36.230053 477.029437)">1999</text></g><g class="guides"><path class="major guide line" d="M128.788581 0.000000 v462.029437"/><text class="major" x="128.78858098423316" y="477.02943725152284" transform="rotate(45 128.788581 477.029437)">2000</text></g><g class="guides"><path class="major guide line" d="M194.901816 0.000000 v462.029437"/><text class="major" x="194.90181557572862" y="477.02943725152284" transform="rotate(45 194.901816 477.029437)">2001</text></g><g class="guides"><path class="major guide line" d="M230.162207 0.000000 v462.029437"/><text class="major" x="230.16220735785953" y="477.02943725152284" transform="rotate(45 230.162207 477.029437)">2002</text></g><g class="guides"><path class="major guide line" d="M344.758481 0.000000 v462.029437"/><text class="major" x="344.758480649785" y="477.02943725152284" transform="rotate(45 344.758481 477.029437)">2003</text></g><g class="guides"><path class="major guide line" d="M428.501911 0.000000 v462.029437"/><text class="major" x="428.5019111323459" y="477.02943725152284" transform="rotate(45 428.501911 477.029437)">2004</text></g><g class="guides"><path class="major guide line" d="M529.875538 0.000000 v462.029437"/><text class="major" x="529.8755375059723" y="477.02943725152284" transform="rotate(45 529.875538 477.029437)">2005</text></g><g class="guides"><path class="major guide line" d="M578.358576 0.000000 v462.029437"/><text class="major" x="578.3585762064022" y="477.02943725152284" transform="rotate(45 578.358576 477.029437)">2006</text></g><g class="guides"><path class="major guide line" d="M595.988772 0.000000 v462.029437"/><text class="major" x="595.9887720974677" y="477.02943725152284" transform="rotate(45 595.988772 477.029437)">2007</text></g><g class="guides"><path class="major guide line" d="M618.026517 0.000000 v462.029437"/><text class="major" x="618.0265169612996" y="477.02943725152284" transform="rotate(45 618.026517 477.029437)">2009</text></g><g class="guides"><path class="major guide line" d="M644.471811 0.000000 v462.029437"/><text class="major" x="644.4718107978978" y="477.02943725152284" transform="rotate(45 644.471811 477.029437)">2010</text></g><g class="guides"><path class="major guide line" d="M701.769947 0.000000 v462.029437"/><text class="major" x="701.7699474438605" y="477.02943725152284" transform="rotate(45 701.769947 477.029437)">2011</text></g></g><g class="series serie-0 color-0"><path class="line reactive nofill" d="M14.192308 294.607232 L18.599857 294.226438 23.007406 293.464851 27.414955 294.924560 31.822504 296.384268 36.230053 296.765062 40.637602 295.876543 45.045151 295.749612 49.452699 294.670697 53.860248 295.178422 58.267797 294.353370 62.675346 293.591783 67.082895 292.639799 71.490444 292.259005 75.897993 290.418503 80.305542 290.228107 84.713091 290.355038 89.120640 290.418503 93.528189 288.514536 97.935738 289.085726 102.343287 288.451070 106.750836 289.339589 111.158385 289.339589 115.565934 290.228107 119.973483 289.276123 124.381032 288.578002 128.788581 289.720382 133.196130 288.260674 137.603679 286.420172 142.011228 285.722050 146.418777 285.658585 150.826326 286.420172 155.233875 286.293241 159.641424 286.674034 164.048973 287.245224 168.456522 286.356706 172.864071 288.387605 177.271620 289.529985 181.679169 289.339589 186.086718 289.276123 190.494267 286.864431 194.901816 286.166309 199.309365 282.104512 203.716914 282.675702 208.124462 283.119961 212.532011 283.627686 216.939560 283.119961 221.347109 283.627686 225.754658 282.294909 230.162207 280.454407 234.569756 278.677371 238.977305 280.390941 243.384854 280.390941 247.792403 280.137079 252.199952 280.835201 256.607501 278.740836 261.015050 277.852318 265.422599 278.804302 269.830148 279.375492 274.237697 276.329144 278.645246 269.601793 283.052795 271.886553 287.460344 272.902003 291.867893 271.696157 296.275442 266.111185 300.682991 267.570894 305.090540 269.728724 309.498089 267.761291 313.905638 268.269015 318.313187 269.982586 322.720736 269.284465 327.128285 270.617242 331.535834 269.855655 335.943383 270.109517 340.350932 268.205550 344.758481 269.982586 349.166030 269.347930 353.573579 265.603461 357.981128 267.443963 362.388677 264.016821 366.796226 266.365048 371.203774 264.080287 375.611323 266.428513 380.018872 264.905339 384.426421 261.732060 388.833970 262.239785 393.241519 264.651477 397.649068 260.272352 402.056617 263.001372 406.464166 259.193437 410.871715 258.685712 415.279264 260.843542 419.686813 260.843542 424.094362 256.210555 428.501911 256.527883 432.909460 257.352935 437.317009 259.256903 441.724558 258.177988 446.132107 257.733729 450.539656 254.433518 454.947205 255.893227 459.354754 255.956692 463.762303 257.162538 468.169852 252.021826 472.577401 254.433518 476.984950 256.083624 481.392499 253.545000 485.800048 255.512433 490.207597 250.752515 494.615146 254.243122 499.022695 255.131640 503.430244 246.563786 507.837793 241.930799 512.245342 239.963366 516.652891 241.232677 521.060440 244.342491 525.467989 248.531219 529.875538 250.879446 534.283086 256.527883 538.690635 257.226004 543.098184 254.877777 547.505733 253.481535 551.913282 248.086960 556.320831 253.735397 560.728380 260.780077 565.135929 267.697825 569.543478 256.020158 573.951027 258.939575 578.358576 257.035607 582.766125 250.308256 587.173674 234.886119 591.581223 233.299480 595.988772 239.138313 600.396321 222.510331 604.803870 218.511999 609.211419 203.914915 613.618968 204.295709 618.026517 206.517004 622.434066 216.290704 626.841615 218.067740 631.249164 226.318266 635.656713 233.807204 640.064262 226.952921 644.471811 228.920354 648.879360 209.246024 653.286909 226.508662 657.694458 222.129537 662.102007 231.014719 666.509556 235.711172 670.917105 238.757520 675.324654 220.860225 679.732203 183.923257 684.139752 208.294040 688.547301 218.892792 692.954849 161.964165 697.362398 118.871035 701.769947 149.778774 706.177496 209.436421 710.585045 199.281928 714.992594 195.029734 719.400143 216.227238 723.807692 8.885181"/></g><g class="series serie-1 color-1"><path class="line reactive nofill" d="M14.192308 453.144256 L18.599857 389.678674 23.007406 367.465720 27.414955 278.613905 31.822504 186.588811 36.230053 190.396746 40.637602 251.894895 45.045151 265.539995 49.452699 293.909110 53.860248 283.373824 58.267797 299.494082 62.675346 309.965903 67.082895 318.533756 71.490444 321.453173 75.897993 333.638565 80.305542 332.305788 84.713091 329.513302 89.120640 326.213092 93.528189 335.923326 97.935738 330.655682 102.343287 331.988460 106.750836 326.593885 111.158385 324.689918 115.565934 319.041481 119.973483 322.278226 124.381032 323.230209 128.788581 317.772169 133.196130 322.341691 137.603679 327.926662 142.011228 328.815181 146.418777 327.545869 150.826326 324.118727 155.233875 323.166744 159.641424 321.072380 164.048973 319.295343 168.456522 321.072380 172.864071 314.471959 177.271620 310.854421 181.679169 311.171749 186.086718 311.044818 190.494267 316.820186 194.901816 317.962566 199.309365 325.768833 203.716914 324.309124 208.124462 322.024363 212.532011 320.310793 216.939560 320.564655 221.347109 318.978015 225.754658 320.437724 230.162207 322.722485 234.569756 325.070711 238.977305 321.707035 243.384854 321.326242 247.792403 320.818517 252.199952 319.104946 256.607501 321.389707 261.015050 321.960898 265.422599 319.929999 269.830148 318.597222 274.237697 321.960898 278.645246 328.497853 283.052795 325.451505 287.460344 324.055262 291.867893 324.689918 296.275442 329.005577 300.682991 327.228541 305.090540 324.689918 309.498089 325.959229 313.905638 325.388039 318.313187 323.357140 322.720736 323.737934 327.128285 321.707035 331.535834 321.770501 335.943383 321.008914 340.350932 321.707035 344.758481 319.866533 349.166030 319.739602 353.573579 321.580104 357.981128 319.549206 362.388677 321.326242 366.796226 318.851084 371.203774 319.929999 375.611323 318.026032 380.018872 318.533756 384.426421 319.803068 388.833970 318.597222 393.241519 316.756720 397.649068 318.406825 402.056617 316.502858 406.464166 317.962566 410.871715 317.899100 415.279264 316.502858 419.686813 316.122064 424.094362 317.835635 428.501911 317.264445 432.909460 316.375926 437.317009 315.297012 441.724558 315.170080 446.132107 314.725821 450.539656 315.360477 454.947205 314.281562 459.354754 313.519975 463.762303 312.567992 468.169852 313.900769 472.577401 312.821854 476.984950 311.806405 481.392499 312.187198 485.800048 311.362145 490.207597 312.314129 494.615146 310.600559 499.022695 310.283231 503.430244 312.123732 507.837793 313.075716 512.245342 313.329579 516.652891 312.504526 521.060440 311.489077 525.467989 310.092834 529.875538 308.950453 534.283086 307.109951 538.690635 306.919555 543.098184 307.109951 547.505733 306.983020 551.913282 307.935004 556.320831 306.348365 560.728380 304.317466 565.135929 302.350033 569.543478 304.444397 573.951027 303.682810 578.358576 303.682810 582.766125 304.507863 587.173674 306.538761 591.581223 306.157968 595.988772 305.015587 600.396321 306.538761 604.803870 306.348365 609.211419 307.173417 613.618968 306.665692 618.026517 305.904105 622.434066 304.634794 626.841615 304.000138 631.249164 303.048154 635.656713 302.096171 640.064262 302.286567 644.471811 301.715377 648.879360 302.540430 653.286909 300.953790 657.694458 301.017256 662.102007 300.255669 666.509556 299.557547 670.917105 299.049823 675.324654 299.430616 679.732203 300.255669 684.139752 299.049823 688.547301 298.161304 692.954849 299.049823 697.362398 298.986357 701.769947 297.653580 706.177496 296.384268 710.585045 296.193871 714.992594 295.876543 719.400143 295.622681 723.807692 295.813078"/></g><g class="series serie-2 color-2"><path class="line reactive nofill" d="M14.192308 294.607232 L18.599857 294.607232 23.007406 294.607232 27.414955 294.607232 31.822504 294.607232 36.230053 294.607232 40.637602 294.607232 45.045151 294.607232 49.452699 294.607232 53.860248 294.607232 58.267797 294.607232 62.675346 294.607232 67.082895 294.607232 71.490444 294.607232 75.897993 294.607232 80.305542 294.607232 84.713091 294.607232 89.120640 294.607232 93.528189 294.607232 97.935738 294.607232 102.343287 294.607232 106.750836 294.607232 111.158385 294.607232 115.565934 294.607232 119.973483 294.607232 124.381032 294.607232 128.788581 294.607232 133.196130 294.607232 137.603679 294.607232 142.011228 294.607232 146.418777 294.607232 150.826326 294.607232 155.233875 294.607232 159.641424 294.607232 164.048973 294.607232 168.456522 294.607232 172.864071 294.607232 177.271620 294.607232 181.679169 294.607232 186.086718 294.607232 190.494267 294.607232 194.901816 294.607232 199.309365 294.607232 203.716914 294.607232 208.124462 294.607232 212.532011 294.607232 216.939560 294.607232 221.347109 294.607232 225.754658 294.607232 230.162207 294.607232 234.569756 294.607232 238.977305 294.607232 243.384854 294.607232 247.792403 294.607232 252.199952 294.607232 256.607501 294.607232 261.015050 294.607232 265.422599 294.607232 269.830148 294.607232 274.237697 294.607232 278.645246 294.607232 283.052795 294.607232 287.460344 294.607232 291.867893 294.607232 296.275442 294.607232 300.682991 294.607232 305.090540 294.607232 309.498089 294.607232 313.905638 294.607232 318.313187 294.607232 322.720736 294.607232 327.128285 294.607232 331.535834 294.607232 335.943383 294.607232 340.350932 294.607232 344.758481 294.607232 349.166030 294.607232 353.573579 294.607232 357.981128 294.607232 362.388677 294.607232 366.796226 294.607232 371.203774 294.607232 375.611323 294.607232 380.018872 294.607232 384.426421 294.607232 388.833970 294.607232 393.241519 294.607232 397.649068 294.607232 402.056617 294.607232 406.464166 294.607232 410.871715 294.607232 415.279264 294.607232 419.686813 294.607232 424.094362 294.607232 428.501911 294.607232 432.909460 294.607232 437.317009 294.607232 441.724558 294.607232 446.132107 294.607232 450.539656 294.607232 454.947205 294.607232 459.354754 294.607232 463.762303 294.607232 468.169852 294.607232 472.577401 294.607232 476.984950 294.607232 481.392499 294.607232 485.800048 294.607232 490.207597 294.607232 494.615146 294.607232 499.022695 294.607232 503.430244 294.607232 507.837793 294.607232 512.245342 294.607232 516.652891 294.607232 521.060440 294.607232 525.467989 294.607232 529.875538 294.607232 534.283086 294.607232 538.690635 294.607232 543.098184 294.607232 547.505733 294.607232 551.913282 294.607232 556.320831 294.607232 560.728380 294.607232 565.135929 294.607232 569.543478 294.607232 573.951027 294.607232 578.358576 294.607232 582.766125 294.607232 587.173674 294.607232 591.581223 294.607232 595.988772 294.607232 600.396321 294.607232 604.803870 294.607232 609.211419 294.607232 613.618968 294.607232 618.026517 294.607232 622.434066 294.607232 626.841615 294.607232 631.249164 294.607232 635.656713 294.607232 640.064262 294.607232 644.471811 294.607232 648.879360 294.607232 653.286909 294.607232 657.694458 294.607232 662.102007 294.607232 666.509556 294.607232 670.917105 294.607232 675.324654 294.607232 679.732203 294.607232 684.139752 294.607232 688.547301 294.607232 692.954849 294.607232 697.362398 294.607232 701.769947 294.607232 706.177496 294.607232 710.585045 294.607232 714.992594 294.607232 719.400143 294.607232 723.807692 294.607232"/></g></g><g class="titles"><text class="title plot_title" x="400.0" y="26">Shoaib Akhtar: Future and Past Averages in ODIs</text></g><g class="plot overlay" transform="translate(42, 46)"><g class="series serie-0 color-0"><g class="dots"><desc class="label">247 wickets in 162 innings (1294.0 overs)</desc><circle class="dot reactive tooltip-trigger" cx="14.192307692307692" cy="294.6072318298859" r="2.5"/><desc class="value">24.98</desc><desc class="x top">14.192307692307692</desc><desc class="y top">294.6072318298859</desc><desc class="x_label">1998</desc></g><g class="dots"><desc class="label">242 wickets in 157 innings (1255.0 overs)</desc><circle class="dot reactive tooltip-trigger" cx="36.23005255613951" cy="296.7650616192474" r="2.5"/><desc class="value">24.64</desc><desc class="x top">36.23005255613951</desc><desc class="y top">296.7650616192474</desc><desc class="x_label">1999</desc></g><g class="dots"><desc class="label">204 wickets in 136 innings (1086.1 overs)</desc><circle class="dot reactive tooltip-trigger" cx="128.78858098423316" cy="289.7203820128025" r="2.5"/><desc class="value">25.75</desc><desc class="x top">128.78858098423316</desc><desc class="y top">289.7203820128025</desc><desc class="x_label">2000</desc></g><g class="dots"><desc class="label">181 wickets in 121 innings (978.2 overs)</desc><circle class="dot reactive tooltip-trigger" cx="194.90181557572862" cy="286.16630941856" r="2.5"/><desc class="value">26.31</desc><desc class="x top">194.90181557572862</desc><desc class="y top">286.16630941856</desc><desc class="x_label">2001</desc></g><g class="dots"><desc class="label">164 wickets in 113 innings (924.5 overs)</desc><circle class="dot reactive tooltip-trigger" cx="230.16220735785953" cy="280.45440703495603" r="2.5"/><desc class="value">27.21</desc><desc class="x top">230.16220735785953</desc><desc class="y top">280.45440703495603</desc><desc class="x_label">2002</desc></g><g class="dots"><desc class="label">125 wickets in 87 innings (725.1 overs)</desc><circle class="dot reactive tooltip-trigger" cx="344.758480649785" cy="269.98258599834867" r="2.5"/><desc class="value">28.86</desc><desc class="x top">344.758480649785</desc><desc class="y top">269.98258599834867</desc><desc class="x_label">2003</desc></g><g class="dots"><desc class="label">92 wickets in 68 innings (559.0 overs)</desc><circle class="dot reactive tooltip-trigger" cx="428.5019111323459" cy="256.5278826058593" r="2.5"/><desc class="value">30.98</desc><desc class="x left top">428.5019111323459</desc><desc class="y left top">256.5278826058593</desc><desc class="x_label">2004</desc></g><g class="dots"><desc class="label">61 wickets in 45 innings (370.1 overs)</desc><circle class="dot reactive tooltip-trigger" cx="529.8755375059723" cy="250.87944580429533" r="2.5"/><desc class="value">31.87</desc><desc class="x left top">529.8755375059723</desc><desc class="y left top">250.87944580429533</desc><desc class="x_label">2005</desc></g><g class="dots"><desc class="label">48 wickets in 34 innings (284.0 overs)</desc><circle class="dot reactive tooltip-trigger" cx="578.3585762064022" cy="257.0356072621796" r="2.5"/><desc class="value">30.9</desc><desc class="x left top">578.3585762064022</desc><desc class="y left top">257.0356072621796</desc><desc class="x_label">2006</desc></g><g class="dots"><desc class="label">39 wickets in 30 innings (248.0 overs)</desc><circle class="dot reactive tooltip-trigger" cx="595.9887720974677" cy="239.13831312688714" r="2.5"/><desc class="value">33.72</desc><desc class="x left top">595.9887720974677</desc><desc class="y left top">239.13831312688714</desc><desc class="x_label">2007</desc></g><g class="dots"><desc class="label">28 wickets in 25 innings (201.0 overs)</desc><circle class="dot reactive tooltip-trigger" cx="618.0265169612996" cy="206.51700395830437" r="2.5"/><desc class="value">38.86</desc><desc class="x left">618.0265169612996</desc><desc class="y left">206.51700395830437</desc><desc class="x_label">2009</desc></g><g class="dots"><desc class="label">24 wickets in 19 innings (161.0 overs)</desc><circle class="dot reactive tooltip-trigger" cx="644.4718107978978" cy="228.92035441844" r="2.5"/><desc class="value">35.33</desc><desc class="x left">644.4718107978978</desc><desc class="y left">228.92035441844</desc><desc class="x_label">2010</desc></g><g class="dots"><desc class="label">5 wickets in 6 innings (43.0 overs)</desc><circle class="dot reactive tooltip-trigger" cx="701.7699474438605" cy="149.77877361450476" r="2.5"/><desc class="value">47.8</desc><desc class="x left">701.7699474438605</desc><desc class="y left">149.77877361450476</desc><desc class="x_label">2011</desc></g></g><g class="series serie-1 color-1"><g class="dots"><desc class="label">0 wickets over 0 innings</desc><circle class="dot reactive tooltip-trigger" cx="14.192307692307692" cy="453.1442557659166" r="2.5"/><desc class="value">0</desc><desc class="x top">14.192307692307692</desc><desc class="y top">453.1442557659166</desc><desc class="x_label">1998</desc></g><g class="dots"><desc class="label">5 wickets in 5 innings (39.0 overs)</desc><circle class="dot reactive tooltip-trigger" cx="36.23005255613951" cy="190.39674612013306" r="2.5"/><desc class="value">41.4</desc><desc class="x ">36.23005255613951</desc><desc class="y ">190.39674612013306</desc><desc class="x_label">1999</desc></g><g class="dots"><desc class="label">43 wickets in 26 innings (207.5 overs)</desc><circle class="dot reactive tooltip-trigger" cx="128.78858098423316" cy="317.77216927450206" r="2.5"/><desc class="value">21.33</desc><desc class="x top">128.78858098423316</desc><desc class="y top">317.77216927450206</desc><desc class="x_label">2000</desc></g><g class="dots"><desc class="label">66 wickets in 41 innings (315.4 overs)</desc><circle class="dot reactive tooltip-trigger" cx="194.90181557572862" cy="317.9625660206222" r="2.5"/><desc class="value">21.3</desc><desc class="x top">194.90181557572862</desc><desc class="y top">317.9625660206222</desc><desc class="x_label">2001</desc></g><g class="dots"><desc class="label">83 wickets in 49 innings (369.1 overs)</desc><circle class="dot reactive tooltip-trigger" cx="230.16220735785953" cy="322.72248467362556" r="2.5"/><desc class="value">20.55</desc><desc class="x top">230.16220735785953</desc><desc class="y top">322.72248467362556</desc><desc class="x_label">2002</desc></g><g class="dots"><desc class="label">122 wickets in 75 innings (568.5 overs)</desc><circle class="dot reactive tooltip-trigger" cx="344.758480649785" cy="319.8665334818236" r="2.5"/><desc class="value">21</desc><desc class="x top">344.758480649785</desc><desc class="y top">319.8665334818236</desc><desc class="x_label">2003</desc></g><g class="dots"><desc class="label">155 wickets in 94 innings (735.0 overs)</desc><circle class="dot reactive tooltip-trigger" cx="428.5019111323459" cy="317.2644446181817" r="2.5"/><desc class="value">21.41</desc><desc class="x left top">428.5019111323459</desc><desc class="y left top">317.2644446181817</desc><desc class="x_label">2004</desc></g><g class="dots"><desc class="label">186 wickets in 117 innings (923.5 overs)</desc><circle class="dot reactive tooltip-trigger" cx="529.8755375059723" cy="308.9504533709359" r="2.5"/><desc class="value">22.72</desc><desc class="x left top">529.8755375059723</desc><desc class="y left top">308.9504533709359</desc><desc class="x_label">2005</desc></g><g class="dots"><desc class="label">199 wickets in 128 innings (1010.0 overs)</desc><circle class="dot reactive tooltip-trigger" cx="578.3585762064022" cy="303.6828100616122" r="2.5"/><desc class="value">23.55</desc><desc class="x left top">578.3585762064022</desc><desc class="y left top">303.6828100616122</desc><desc class="x_label">2006</desc></g><g class="dots"><desc class="label">208 wickets in 132 innings (1046.0 overs)</desc><circle class="dot reactive tooltip-trigger" cx="595.9887720974677" cy="305.01558728445315" r="2.5"/><desc class="value">23.34</desc><desc class="x left top">595.9887720974677</desc><desc class="y left top">305.01558728445315</desc><desc class="x_label">2007</desc></g><g class="dots"><desc class="label">219 wickets in 137 innings (1093.0 overs)</desc><circle class="dot reactive tooltip-trigger" cx="618.0265169612996" cy="305.9041054330138" r="2.5"/><desc class="value">23.2</desc><desc class="x left top">618.0265169612996</desc><desc class="y left top">305.9041054330138</desc><desc class="x_label">2009</desc></g><g class="dots"><desc class="label">223 wickets in 143 innings (1133.0 overs)</desc><circle class="dot reactive tooltip-trigger" cx="644.4718107978978" cy="301.7153770183709" r="2.5"/><desc class="value">23.86</desc><desc class="x left top">644.4718107978978</desc><desc class="y left top">301.7153770183709</desc><desc class="x_label">2010</desc></g><g class="dots"><desc class="label">242 wickets in 156 innings (1251.0 overs)</desc><circle class="dot reactive tooltip-trigger" cx="701.7699474438605" cy="297.65357976780797" r="2.5"/><desc class="value">24.5</desc><desc class="x left top">701.7699474438605</desc><desc class="y left top">297.65357976780797</desc><desc class="x_label">2011</desc></g></g><g class="series serie-2 color-2"/></g><g class="plot text-overlay" transform="translate(42, 46)"><g class="series serie-0 color-0"/><g class="series serie-1 color-1"/><g class="series serie-2 color-2"/></g><g class="plot tooltip-overlay" transform="translate(42, 46)"><g class="tooltip" style="opacity: 0" transform="translate(0 0)"><rect class="tooltip-box" height="0" rx="10" ry="10" width="0"/><g class="text"/></g></g><g class="legends" transform="translate(52, 545)"><g class="legend reactive activate-serie" id="activate-serie-0"><rect class="color-0 reactive" height="12" width="12" x="0.0" y="1.0"/><text x="17.0" y="11.2">Future Average</text></g><g class="legend reactive activate-serie" id="activate-serie-1"><rect class="color-1 reactive" height="12" width="12" x="369.0" y="1.0"/><text x="386.0" y="11.2">Past Average</text></g><g class="legend reactive activate-serie" id="activate-serie-2"><rect class="color-2 reactive" height="12" width="12" x="0.0" y="22.0"/><text x="17.0" y="32.2">Career Average</text></g></g></g></svg>