<?xml version='1.0' encoding='utf-8'?>
<svg xmlns:xlink="http://www.w3.org/1999/xlink" xmlns="http://www.w3.org/2000/svg" id="chart-69751d27-75ed-498a-9dc3-9baf6171e630" class="pygal-chart" viewBox="0 0 800 600"><!--Generated with pygal 2.4.0 (lxml) ©Kozea 2012-2016 on 2019-08-04--><!--http://pygal.org--><!--http://github.com/Kozea/pygal--><defs><style type="text/css">#chart-69751d27-75ed-498a-9dc3-9baf6171e630{-webkit-user-select:none;-webkit-font-smoothing:antialiased;font-family:Consolas,"Liberation Mono",Menlo,Courier,monospace}#chart-69751d27-75ed-498a-9dc3-9baf6171e630 .title{font-family:Consolas,"Liberation Mono",Menlo,Courier,monospace;font-size:16px}#chart-69751d27-75ed-498a-9dc3-9baf6171e630 .legends .legend text{font-family:Consolas,"Liberation Mono",Menlo,Courier,monospace;font-size:14px}#chart-69751d27-75ed-498a-9dc3-9baf6171e630 .axis text{font-family:Consolas,"Liberation Mono",Menlo,Courier,monospace;font-size:10px}#chart-69751d27-75ed-498a-9dc3-9baf6171e630 .axis text.major{font-family:Consolas,"Liberation Mono",Menlo,Courier,monospace;font-size:10px}#chart-69751d27-75ed-498a-9dc3-9baf6171e630 .text-overlay text.value{font-family:Consolas,"Liberation Mono",Menlo,Courier,monospace;font-size:16px}#chart-69751d27-75ed-498a-9dc3-9baf6171e630 .text-overlay text.label{font-family:Consolas,"Liberation Mono",Menlo,Courier,monospace;font-size:10px}#chart-69751d27-75ed-498a-9dc3-9baf6171e630 .tooltip{font-family:Consolas,"Liberation Mono",Menlo,Courier,monospace;font-size:14px}#chart-69751d27-75ed-498a-9dc3-9baf6171e630 text.no_data{font-family:Consolas,"Liberation Mono",Menlo,Courier,monospace;font-size:64px}
#chart-69751d27-75ed-498a-9dc3-9baf6171e630{background-color:rgba(249,249,249,1)}#chart-69751d27-75ed-498a-9dc3-9baf6171e630 path,#chart-69751d27-75ed-498a-9dc3-9baf6171e630 line,#chart-69751d27-75ed-498a-9dc3-9baf6171e630 rect,#chart-69751d27-75ed-498a-9dc3-9baf6171e630 circle{-webkit-transition:150ms;-moz-transition:150ms;transition:150ms}#chart-69751d27-75ed-498a-9dc3-9baf6171e630 .graph &gt; .background{fill:rgba(249,249,249,1)}#chart-69751d27-75ed-498a-9dc3-9baf6171e630 .plot &gt; .background{fill:rgba(255,255,255,1)}#chart-69751d27-75ed-498a-9dc3-9baf6171e630 .graph{fill:rgba(0,0,0,.87)}#chart-69751d27-75ed-498a-9dc3-9baf6171e630 text.no_data{fill:rgba(0,0,0,1)}#chart-69751d27-75ed-498a-9dc3-9baf6171e630 .title{fill:rgba(0,0,0,1)}#chart-69751d27-75ed-498a-9dc3-9baf6171e630 .legends .legend text{fill:rgba(0,0,0,.87)}#chart-69751d27-75ed-498a-9dc3-9baf6171e630 .legends .legend:hover text{fill:rgba(0,0,0,1)}#chart-69751d27-75ed-498a-9dc3-9baf6171e630 .axis .line{stroke:rgba(0,0,0,1)}#chart-69751d27-75ed-498a-9dc3-9baf6171e630 .axis .guide.line{stroke:rgba(0,0,0,.54)}#chart-69751d27-75ed-498a-9dc3-9baf6171e630 .axis .major.line{stroke:rgba(0,0,0,.87)}#chart-69751d27-75ed-498a-9dc3-9baf6171e630 .axis text.major{fill:rgba(0,0,0,1)}#chart-69751d27-75ed-498a-9dc3-9baf6171e630 .axis.y .guides:hover .guide.line,#chart-69751d27-75ed-498a-9dc3-9baf6171e630 .line-graph .axis.x .guides:hover .guide.line,#chart-69751d27-75ed-498a-9dc3-9baf6171e630 .stackedline-graph .axis.x .guides:hover .guide.line,#chart-69751d27-75ed-498a-9dc3-9baf6171e630 .xy-graph .axis.x .guides:hover .guide.line{stroke:rgba(0,0,0,1)}#chart-69751d27-75ed-498a-9dc3-9baf6171e630 .axis .guides:hover text{fill:rgba(0,0,0,1)}#chart-69751d27-75ed-498a-9dc3-9baf6171e630 .reactive{fill-opacity:.7;stroke-opacity:.8}#chart-69751d27-75ed-498a-9dc3-9baf6171e630 .ci{stroke:rgba(0,0,0,.87)}#chart-69751d27-75ed-498a-9dc3-9baf6171e630 .reactive.active,#chart-69751d27-75ed-498a-9dc3-9baf6171e630 .active .reactive{fill-opacity:.8;stroke-opacity:.9;stroke-width:4}#chart-69751d27-75ed-498a-9dc3-9baf6171e630 .ci .reactive.active{stroke-width:1.5}#chart-69751d27-75ed-498a-9dc3-9baf6171e630 .series text{fill:rgba(0,0,0,1)}#chart-69751d27-75ed-498a-9dc3-9baf6171e630 .tooltip rect{fill:rgba(255,255,255,1);stroke:rgba(0,0,0,1);-webkit-transition:opacity 150ms;-moz-transition:opacity 150ms;transition:opacity 150ms}#chart-69751d27-75ed-498a-9dc3-9baf6171e630 .tooltip .label{fill:rgba(0,0,0,.87)}#chart-69751d27-75ed-498a-9dc3-9baf6171e630 .tooltip .label{fill:rgba(0,0,0,.87)}#chart-69751d27-75ed-498a-9dc3-9baf6171e630 .tooltip .legend{font-size:.8em;fill:rgba(0,0,0,.54)}#chart-69751d27-75ed-498a-9dc3-9baf6171e630 .tooltip .x_label{font-size:.6em;fill:rgba(0,0,0,1)}#chart-69751d27-75ed-498a-9dc3-9baf6171e630 .tooltip .xlink{font-size:.5em;text-decoration:underline}#chart-69751d27-75ed-498a-9dc3-9baf6171e630 .tooltip .value{font-size:1.5em}#chart-69751d27-75ed-498a-9dc3-9baf6171e630 .bound{font-size:.5em}#chart-69751d27-75ed-498a-9dc3-9baf6171e630 .max-value{font-size:.75em;fill:rgba(0,0,0,.54)}#chart-69751d27-75ed-498a-9dc3-9baf6171e630 .map-element{fill:rgba(255,255,255,1);stroke:rgba(0,0,0,.54) !important}#chart-69751d27-75ed-498a-9dc3-9baf6171e630 .map-element .reactive{fill-opacity:inherit;stroke-opacity:inherit}#chart-69751d27-75ed-498a-9dc3-9baf6171e630 .color-0,#chart-69751d27-75ed-498a-9dc3-9baf6171e630 .color-0 a:visited{stroke:red;fill:red}#chart-69751d27-75ed-498a-9dc3-9baf6171e630 .color-1,#chart-69751d27-75ed-498a-9dc3-9baf6171e630 .color-1 a:visited{stroke:blue;fill:blue}#chart-69751d27-75ed-498a-9dc3-9baf6171e630 .color-2,#chart-69751d27-75ed-498a-9dc3-9baf6171e630 .color-2 a:visited{stroke:green;fill:green}#chart-69751d27-75ed-498a-9dc3-9baf6171e630 .text-overlay .color-0 text{fill:white}#chart-69751d27-75ed-498a-9dc3-9baf6171e630 .text-overlay .color-1 text{fill:white}#chart-69751d27-75ed-498a-9dc3-9baf6171e630 .text-overlay .color-2 text{fill:white}
#chart-69751d27-75ed-498a-9dc3-9baf6171e630 text.no_data{text-anchor:middle}#chart-69751d27-75ed-498a-9dc3-9baf6171e630 .guide.line{fill:none}#chart-69751d27-75ed-498a-9dc3-9baf6171e630 .centered{text-anchor:middle}#chart-69751d27-75ed-498a-9dc3-9baf6171e630 .title{text-anchor:middle}#chart-69751d27-75ed-498a-9dc3-9baf6171e630 .legends .legend text{fill-opacity:1}#chart-69751d27-75ed-498a-9dc3-9baf6171e630 .axis.x text{text-anchor:middle}#chart-69751d27-75ed-498a-9dc3-9baf6171e630 .axis.x:not(.web) text[transform]{text-anchor:start}#chart-69751d27-75ed-498a-9dc3-9baf6171e630 .axis.x:not(.web) text[transform].backwards{text-anchor:end}#chart-69751d27-75ed-498a-9dc3-9baf6171e630 .axis.y text{text-anchor:end}#chart-69751d27-75ed-498a-9dc3-9baf6171e630 .axis.y text[transform].backwards{text-anchor:start}#chart-69751d27-75ed-498a-9dc3-9baf6171e630 .axis.y2 text{text-anchor:start}#chart-69751d27-75ed-498a-9dc3-9baf6171e630 .axis.y2 text[transform].backwards{text-anchor:end}#chart-69751d27-75ed-498a-9dc3-9baf6171e630 .axis .guide.line{stroke-dasharray:4,4}#chart-69751d27-75ed-498a-9dc3-9baf6171e630 .axis .major.guide.line{stroke-dasharray:6,6}#chart-69751d27-75ed-498a-9dc3-9baf6171e630 .horizontal .axis.y .guide.line,#chart-69751d27-75ed-498a-9dc3-9baf6171e630 .horizontal .axis.y2 .guide.line,#chart-69751d27-75ed-498a-9dc3-9baf6171e630 .vertical .axis.x .guide.line{opacity:0}#chart-69751d27-75ed-498a-9dc3-9baf6171e630 .horizontal .axis.always_show .guide.line,#chart-69751d27-75ed-498a-9dc3-9baf6171e630 .vertical .axis.always_show .guide.line{opacity:1 !important}#chart-69751d27-75ed-498a-9dc3-9baf6171e630 .axis.y .guides:hover .guide.line,#chart-69751d27-75ed-498a-9dc3-9baf6171e630 .axis.y2 .guides:hover .guide.line,#chart-69751d27-75ed-498a-9dc3-9baf6171e630 .axis.x .guides:hover .guide.line{opacity:1}#chart-69751d27-75ed-498a-9dc3-9baf6171e630 .axis .guides:hover text{opacity:1}#chart-69751d27-75ed-498a-9dc3-9baf6171e630 .nofill{fill:none}#chart-69751d27-75ed-498a-9dc3-9baf6171e630 .subtle-fill{fill-opacity:.2}#chart-69751d27-75ed-498a-9dc3-9baf6171e630 .dot{stroke-width:1px;fill-opacity:1}#chart-69751d27-75ed-498a-9dc3-9baf6171e630 .dot.active{stroke-width:5px}#chart-69751d27-75ed-498a-9dc3-9baf6171e630 .dot.negative{fill:transparent}#chart-69751d27-75ed-498a-9dc3-9baf6171e630 text,#chart-69751d27-75ed-498a-9dc3-9baf6171e630 tspan{stroke:none !important}#chart-69751d27-75ed-498a-9dc3-9baf6171e630 .series text.active{opacity:1}#chart-69751d27-75ed-498a-9dc3-9baf6171e630 .tooltip rect{fill-opacity:.95;stroke-width:.5}#chart-69751d27-75ed-498a-9dc3-9baf6171e630 .tooltip text{fill-opacity:1}#chart-69751d27-75ed-498a-9dc3-9baf6171e630 .showable{visibility:hidden}#chart-69751d27-75ed-498a-9dc3-9baf6171e630 .showable.shown{visibility:visible}#chart-69751d27-75ed-498a-9dc3-9baf6171e630 .gauge-background{fill:rgba(229,229,229,1);stroke:none}#chart-69751d27-75ed-498a-9dc3-9baf6171e630 .bg-lines{stroke:rgba(249,249,249,1);stroke-width:2px}</style><script type="text/javascript">window.pygal = window.pygal || {};window.pygal.config = window.pygal.config || {};window.pygal.config['69751d27-75ed-498a-9dc3-9baf6171e630'] = {"allow_interruptions": false, "box_mode": "extremes", "classes": ["pygal-chart"], "css": ["file://style.css", "file://graph.css"], "defs": [], "disable_xml_declaration": false, "dots_size": 2.5, "dynamic_print_values": false, "explicit_size": false, "fill": false, "force_uri_protocol": "https", "formatter": null, "half_pie": false, "height": 600, "include_x_axis": false, "inner_radius": 0, "interpolate": null, "interpolation_parameters": {}, "interpolation_precision": 250, "inverse_y_axis": false, "js": ["//kozea.github.io/pygal.js/2.0.x/pygal-tooltips.min.js"], "legend_at_bottom": true, "legend_at_bottom_columns": null, "legend_box_size": 12, "logarithmic": false, "margin": 20, "margin_bottom": null, "margin_left": null, "margin_right": null, "margin_top": null, "max_scale": 16, "min_scale": 4, "missing_value_fill_truncation": "x", "no_data_text": "No data", "no_prefix": false, "order_min": null, "pretty_print": false, "print_labels": false, "print_values": false, "print_values_position": "center", "print_zeroes": true, "range": null, "rounded_bars": null, "secondary_range": null, "show_dots": true, "show_legend": true, "show_minor_x_labels": false, "show_minor_y_labels": true, "show_only_major_dots": false, "show_x_guides": false, "show_x_labels": true, "show_y_guides": true, "show_y_labels": true, "spacing": 10, "stack_from_top": false, "strict": false, "stroke": true, "stroke_style": null, "style": {"background": "rgba(249, 249, 249, 1)", "ci_colors": [], "colors": ["red", "blue", "green", "#a3a3a3"], "font_family": "Consolas, \"Liberation Mono\", Menlo, Courier, monospace", "foreground": "rgba(0, 0, 0, .87)", "foreground_strong": "rgba(0, 0, 0, 1)", "foreground_subtle": "rgba(0, 0, 0, .54)", "guide_stroke_dasharray": "4,4", "label_font_family": "Consolas, \"Liberation Mono\", Menlo, Courier, monospace", "label_font_size": 10, "legend_font_family": "Consolas, \"Liberation Mono\", Menlo, Courier, monospace", "legend_font_size": 14, "major_guide_stroke_dasharray": "6,6", "major_label_font_family": "Consolas, \"Liberation Mono\", Menlo, Courier, monospace", "major_label_font_size": 10, "no_data_font_family": "Consolas, \"Liberation Mono\", Menlo, Courier, monospace", "no_data_font_size": 64, "opacity": ".7", "opacity_hover": ".8", "plot_background": "rgba(255, 255, 255, 1)", "stroke_opacity": ".8", "stroke_opacity_hover": ".9", "title_font_family": "Consolas, \"Liberation Mono\", Menlo, Courier, monospace", "title_font_size": 16, "tooltip_font_family": "Consolas, \"Liberation Mono\", Menlo, Courier, monospace", "tooltip_font_size": 14, "transition": "150ms", "value_background": "rgba(229, 229, 229, 1)", "value_colors": [], "value_font_family": "Consolas, \"Liberation Mono\", Menlo, Courier, monospace", "value_font_size": 16, "value_label_font_family": "Consolas, \"Liberation Mono\", Menlo, Courier, monospace", "value_label_font_size": 10}, "title": "Sir RJ Hadlee: Future and Past Averages in ODIs", "tooltip_border_radius": 10, "tooltip_fancy_mode": true, "truncate_label": null, "truncate_legend": null, "width": 800, "x_label_rotation": 45, "x_labels": ["1973", "0", "0", "1974", "1975", "0", "0", "0", "0", "1976", "0", "1978", "0", "1979", "0", "0", "0", "1980", "0", "0", "0", "0", "0", "0", "1981", "0", "0", "0", "0", "0", "0", "0", "0", "0", "1982", "0", "0", "1983", "0", "0", "0", "0", "0", "0", "0", "0", "0", "0", "0", "0", "0", "0", "0", "0", "0", "0", "0", "1984", "0", "0", "0", "0", "0", "1985", "0", "0", "0", "0", "0", "0", "0", "0", "0", "0", "1986", "0", "0", "0", "0", "0", "0", "0", "0", "0", "0", "0", "0", "0", "0", "1987", "0", "0", "1988", "0", "0", "0", "0", "0", "0", "0", "0", "0", "0", "0", "0", "1989", "1990", "0", "0", "0", "0", "0"], "x_labels_major": ["1973", "1974", "1975", "1976", "1978", "1979", "1980", "1981", "1982", "1983", "1984", "1985", "1986", "1987", "1988", "1989", "1990"], "x_labels_major_count": null, "x_labels_major_every": null, "x_title": null, "xrange": null, "y_label_rotation": 0, "y_labels": null, "y_labels_major": null, "y_labels_major_count": null, "y_labels_major_every": null, "y_title": null, "zero": 80.0, "legends": ["Future Average", "Past Average", "Career Average"]}</script><script type="text/javascript" xlink:href="https://kozea.github.io/pygal.js/2.0.x/pygal-tooltips.min.js"/></defs><title>Sir RJ Hadlee: Future and Past Averages in ODIs</title><g class="graph line-graph vertical"><rect class="background" height="600" width="800" x="0" y="0"/><g class="plot" transform="translate(42, 46)"><rect class="background" height="462.02943725152284" width="738.0" x="0" y="0"/><g class="axis y always_show"><g class="guides"><path class="axis major line" d="M0.000000 453.144256 h738.000000"/><text class="major" x="-5" y="456.6442557659166">0</text><title>0</title></g><g class="guides"><path class="guide line" d="M0.000000 391.441607 h738.000000"/><text class="" x="-5" y="394.94160656031795">10</text><title>10</title></g><g class="guides"><path class="guide line" d="M0.000000 329.738957 h738.000000"/><text class="" x="-5" y="333.2389573547193">20</text><title>20</title></g><g class="guides"><path class="guide line" d="M0.000000 268.036308 h738.000000"/><text class="" x="-5" y="271.5363081491206">30</text><title>30</title></g><g class="guides"><path class="guide line" d="M0.000000 206.333659 h738.000000"/><text class="" x="-5" y="209.83365894352195">40</text><title>40</title></g><g class="guides"><path class="major guide line" d="M0.000000 144.631010 h738.000000"/><text class="major" x="-5" y="148.1310097379233">50</text><title>50</title></g><g class="guides"><path class="guide line" d="M0.000000 82.928361 h738.000000"/><text class="" x="-5" y="86.42836053232458">60</text><title>60</title></g><g class="guides"><path class="guide line" d="M0.000000 21.225711 h738.000000"/><text class="" x="-5" y="24.725711326725957">70</text><title>70</title></g></g><g class="axis x"><g class="guides"><path class="major line" d="M14.192308 0.000000 v462.029437"/><text class="major" x="14.192307692307692" y="477.02943725152284" transform="rotate(45 14.192308 477.029437)">1973</text></g><g class="guides"><path class="major guide line" d="M33.371102 0.000000 v462.029437"/><text class="major" x="33.37110187110187" y="477.02943725152284" transform="rotate(45 33.371102 477.029437)">1974</text></g><g class="guides"><path class="major guide line" d="M39.764033 0.000000 v462.029437"/><text class="major" x="39.764033264033266" y="477.02943725152284" transform="rotate(45 39.764033 477.029437)">1975</text></g><g class="guides"><path class="major guide line" d="M71.728690 0.000000 v462.029437"/><text class="major" x="71.72869022869023" y="477.02943725152284" transform="rotate(45 71.728690 477.029437)">1976</text></g><g class="guides"><path class="major guide line" d="M84.514553 0.000000 v462.029437"/><text class="major" x="84.51455301455302" y="477.02943725152284" transform="rotate(45 84.514553 477.029437)">1978</text></g><g class="guides"><path class="major guide line" d="M97.300416 0.000000 v462.029437"/><text class="major" x="97.30041580041579" y="477.02943725152284" transform="rotate(45 97.300416 477.029437)">1979</text></g><g class="guides"><path class="major guide line" d="M122.872141 0.000000 v462.029437"/><text class="major" x="122.87214137214136" y="477.02943725152284" transform="rotate(45 122.872141 477.029437)">1980</text></g><g class="guides"><path class="major guide line" d="M167.622661 0.000000 v462.029437"/><text class="major" x="167.62266112266113" y="477.02943725152284" transform="rotate(45 167.622661 477.029437)">1981</text></g><g class="guides"><path class="major guide line" d="M231.551975 0.000000 v462.029437"/><text class="major" x="231.55197505197503" y="477.02943725152284" transform="rotate(45 231.551975 477.029437)">1982</text></g><g class="guides"><path class="major guide line" d="M250.730769 0.000000 v462.029437"/><text class="major" x="250.73076923076923" y="477.02943725152284" transform="rotate(45 250.730769 477.029437)">1983</text></g><g class="guides"><path class="major guide line" d="M378.589397 0.000000 v462.029437"/><text class="major" x="378.58939708939704" y="477.02943725152284" transform="rotate(45 378.589397 477.029437)">1984</text></g><g class="guides"><path class="major guide line" d="M416.946985 0.000000 v462.029437"/><text class="major" x="416.9469854469854" y="477.02943725152284" transform="rotate(45 416.946985 477.029437)">1985</text></g><g class="guides"><path class="major guide line" d="M487.269231 0.000000 v462.029437"/><text class="major" x="487.2692307692307" y="477.02943725152284" transform="rotate(45 487.269231 477.029437)">1986</text></g><g class="guides"><path class="major guide line" d="M583.163202 0.000000 v462.029437"/><text class="major" x="583.1632016632017" y="477.02943725152284" transform="rotate(45 583.163202 477.029437)">1987</text></g><g class="guides"><path class="major guide line" d="M602.341996 0.000000 v462.029437"/><text class="major" x="602.3419958419958" y="477.02943725152284" transform="rotate(45 602.341996 477.029437)">1988</text></g><g class="guides"><path class="major guide line" d="M685.450104 0.000000 v462.029437"/><text class="major" x="685.4501039501039" y="477.02943725152284" transform="rotate(45 685.450104 477.029437)">1989</text></g><g class="guides"><path class="major guide line" d="M691.843035 0.000000 v462.029437"/><text class="major" x="691.8430353430354" y="477.02943725152284" transform="rotate(45 691.843035 477.029437)">1990</text></g></g><g class="series serie-0 color-0"><path class="line reactive nofill" d="M14.192308 320.113344 L20.585239 321.532505 26.978170 322.889963 33.371102 322.149532 39.764033 323.506990 46.156965 322.704855 52.549896 322.828261 58.942827 323.260179 65.335759 325.049556 71.728690 325.296367 78.121622 326.468717 84.514553 327.085743 90.907484 326.283609 97.300416 328.381499 103.693347 328.504904 110.086279 327.641067 116.479210 328.504904 122.872141 329.060228 129.265073 328.504904 135.658004 329.615552 142.050936 331.651739 148.443867 331.404929 154.836798 328.319796 161.229730 329.245336 167.622661 331.219821 174.015593 331.960253 180.408524 333.194306 186.801455 332.947495 193.194387 332.638982 199.587318 329.121931 205.980249 330.541092 212.373181 331.590037 218.766112 333.749630 225.159044 333.070900 231.551975 332.453874 237.944906 333.256008 244.337838 332.453874 250.730769 332.762387 257.123701 334.613467 263.516632 335.600709 269.909563 335.909222 276.302495 335.909222 282.695426 336.896465 289.088358 337.019870 295.481289 338.994355 301.874220 337.760302 308.267152 335.415601 314.660083 334.675169 321.053015 331.713442 327.445946 331.466632 333.838877 332.824090 340.231809 333.873035 346.624740 334.304953 353.017672 331.898550 359.410603 326.962338 365.803534 324.926151 372.196466 324.617637 378.589397 327.455959 384.982328 322.211234 391.375260 321.347397 397.768191 323.630395 404.161123 320.298452 410.554054 320.792073 416.946985 316.904806 423.339917 315.609051 429.732848 319.681426 436.125780 316.657996 442.518711 316.843104 448.911642 314.806916 455.304574 317.521833 461.697505 313.079242 468.090437 311.351568 474.483368 313.819674 480.876299 315.794159 487.269231 318.570778 493.662162 323.136774 500.055094 323.136774 506.448025 320.051641 512.840956 319.064399 519.233888 322.828261 525.626819 323.692098 532.019751 317.151617 538.412682 315.979267 544.805613 311.968594 551.198545 299.566362 557.591476 297.159959 563.984407 297.283364 570.377339 294.383339 576.770270 289.940749 583.163202 296.728040 589.556133 295.679095 595.949064 299.319551 602.341996 306.353653 608.734927 297.715282 615.127859 300.553604 621.520790 304.811087 627.913721 294.383339 634.306653 285.313050 640.699584 293.025881 647.092516 301.664252 653.485447 312.770729 659.878378 312.523918 666.271310 326.468717 672.664241 323.568692 679.057173 325.234664 685.450104 337.698599 691.843035 299.566362 698.235967 293.581205 704.628898 263.100096 711.021830 277.291706 717.414761 329.738957 723.807692 348.249752"/></g><g class="series serie-1 color-1"><path class="line reactive nofill" d="M14.192308 453.144256 L20.585239 224.844454 26.978170 8.885181 33.371102 160.056672 39.764033 52.077036 46.156965 220.216755 52.549896 214.046490 58.942827 198.620828 65.335759 168.078016 71.728690 207.197496 78.121622 182.516436 84.514553 189.365430 90.907484 228.546613 97.300416 209.727305 103.693347 217.625244 110.086279 242.491411 116.479210 239.653090 122.872141 240.640332 129.265073 254.646833 135.658004 246.070165 142.050936 235.580715 148.443867 246.316976 154.836798 278.464056 161.229730 273.466141 167.622661 263.532015 174.015593 259.953261 180.408524 256.621318 186.801455 260.323477 193.194387 264.210744 199.587318 287.287535 205.980249 281.981107 212.373181 279.698109 218.766112 272.108683 225.159044 276.119355 231.551975 281.055567 237.944906 278.587461 244.337838 283.585376 250.730769 284.017294 257.123701 278.587461 263.516632 277.291706 269.909563 279.142785 276.302495 280.376838 282.695426 279.142785 289.088358 280.130027 295.481289 275.378923 301.874220 280.747054 308.267152 288.891804 314.660083 291.174802 321.053015 298.887633 327.445946 299.998280 333.838877 297.591877 340.231809 295.617392 346.624740 295.617392 353.017672 301.294036 359.410603 310.487731 365.803534 313.819674 372.196466 314.374998 378.589397 311.043055 384.982328 317.830346 391.375260 318.817588 397.768191 316.534590 404.161123 319.866533 410.554054 319.496318 416.946985 322.766558 423.339917 323.630395 429.732848 320.421857 436.125780 322.643153 442.518711 322.458045 448.911642 323.692098 455.304574 321.841018 461.697505 324.370827 468.090437 325.172961 474.483368 323.630395 480.876299 322.519747 487.269231 320.915479 493.662162 318.385670 500.055094 318.447373 506.448025 320.113344 512.840956 320.545263 519.233888 318.817588 525.626819 318.447373 532.019751 321.285694 538.412682 321.655910 544.805613 323.013369 551.198545 326.592122 557.591476 326.838933 563.984407 326.592122 570.377339 326.900635 576.770270 327.455959 583.163202 325.789988 589.556133 325.604880 595.949064 324.741043 602.341996 323.198477 608.734927 324.494232 615.127859 323.938908 621.520790 322.951666 627.913721 324.247422 634.306653 325.111259 640.699584 324.000611 647.092516 322.766558 653.485447 321.162289 659.878378 321.100586 666.271310 319.187804 672.664241 319.681426 679.057173 319.558020 685.450104 318.385670 691.843035 321.347397 698.235967 321.347397 704.628898 321.964424 711.021830 321.223992 717.414761 319.866533 723.807692 319.743128"/></g><g class="series serie-2 color-2"><path class="line reactive nofill" d="M14.192308 320.113344 L20.585239 320.113344 26.978170 320.113344 33.371102 320.113344 39.764033 320.113344 46.156965 320.113344 52.549896 320.113344 58.942827 320.113344 65.335759 320.113344 71.728690 320.113344 78.121622 320.113344 84.514553 320.113344 90.907484 320.113344 97.300416 320.113344 103.693347 320.113344 110.086279 320.113344 116.479210 320.113344 122.872141 320.113344 129.265073 320.113344 135.658004 320.113344 142.050936 320.113344 148.443867 320.113344 154.836798 320.113344 161.229730 320.113344 167.622661 320.113344 174.015593 320.113344 180.408524 320.113344 186.801455 320.113344 193.194387 320.113344 199.587318 320.113344 205.980249 320.113344 212.373181 320.113344 218.766112 320.113344 225.159044 320.113344 231.551975 320.113344 237.944906 320.113344 244.337838 320.113344 250.730769 320.113344 257.123701 320.113344 263.516632 320.113344 269.909563 320.113344 276.302495 320.113344 282.695426 320.113344 289.088358 320.113344 295.481289 320.113344 301.874220 320.113344 308.267152 320.113344 314.660083 320.113344 321.053015 320.113344 327.445946 320.113344 333.838877 320.113344 340.231809 320.113344 346.624740 320.113344 353.017672 320.113344 359.410603 320.113344 365.803534 320.113344 372.196466 320.113344 378.589397 320.113344 384.982328 320.113344 391.375260 320.113344 397.768191 320.113344 404.161123 320.113344 410.554054 320.113344 416.946985 320.113344 423.339917 320.113344 429.732848 320.113344 436.125780 320.113344 442.518711 320.113344 448.911642 320.113344 455.304574 320.113344 461.697505 320.113344 468.090437 320.113344 474.483368 320.113344 480.876299 320.113344 487.269231 320.113344 493.662162 320.113344 500.055094 320.113344 506.448025 320.113344 512.840956 320.113344 519.233888 320.113344 525.626819 320.113344 532.019751 320.113344 538.412682 320.113344 544.805613 320.113344 551.198545 320.113344 557.591476 320.113344 563.984407 320.113344 570.377339 320.113344 576.770270 320.113344 583.163202 320.113344 589.556133 320.113344 595.949064 320.113344 602.341996 320.113344 608.734927 320.113344 615.127859 320.113344 621.520790 320.113344 627.913721 320.113344 634.306653 320.113344 640.699584 320.113344 647.092516 320.113344 653.485447 320.113344 659.878378 320.113344 666.271310 320.113344 672.664241 320.113344 679.057173 320.113344 685.450104 320.113344 691.843035 320.113344 698.235967 320.113344 704.628898 320.113344 711.021830 320.113344 717.414761 320.113344 723.807692 320.113344"/></g></g><g class="titles"><text class="title plot_title" x="400.0" y="26">Sir RJ Hadlee: Future and Past Averages in ODIs</text></g><g class="plot overlay" transform="translate(42, 46)"><g class="series serie-0 color-0"><g class="dots"><desc class="label">158 wickets in 112 innings (1019.4 overs)</desc><circle class="dot reactive tooltip-trigger" cx="14.192307692307692" cy="320.1133440786459" r="2.5"/><desc class="value">21.56</desc><desc class="x top">14.192307692307692</desc><desc class="y top">320.1133440786459</desc><desc class="x_label">1973</desc></g><g class="dots"><desc class="label">156 wickets in 109 innings (995.4 overs)</desc><circle class="dot reactive tooltip-trigger" cx="33.37110187110187" cy="322.1495315024306" r="2.5"/><desc class="value">21.23</desc><desc class="x top">33.37110187110187</desc><desc class="y top">322.1495315024306</desc><desc class="x_label">1974</desc></g><g class="dots"><desc class="label">156 wickets in 108 innings (989.4 overs)</desc><circle class="dot reactive tooltip-trigger" cx="39.764033264033266" cy="323.5069897849538" r="2.5"/><desc class="value">21.01</desc><desc class="x top">39.764033264033266</desc><desc class="y top">323.5069897849538</desc><desc class="x_label">1975</desc></g><g class="dots"><desc class="label">151 wickets in 103 innings (945.4 overs)</desc><circle class="dot reactive tooltip-trigger" cx="71.72869022869023" cy="325.29636661191614" r="2.5"/><desc class="value">20.72</desc><desc class="x top">71.72869022869023</desc><desc class="y top">325.29636661191614</desc><desc class="x_label">1976</desc></g><g class="dots"><desc class="label">150 wickets in 101 innings (932.4 overs)</desc><circle class="dot reactive tooltip-trigger" cx="84.51455301455302" cy="327.0857434388786" r="2.5"/><desc class="value">20.43</desc><desc class="x top">84.51455301455302</desc><desc class="y top">327.0857434388786</desc><desc class="x_label">1978</desc></g><g class="dots"><desc class="label">147 wickets in 99 innings (910.4 overs)</desc><circle class="dot reactive tooltip-trigger" cx="97.30041580041579" cy="328.3814990721961" r="2.5"/><desc class="value">20.22</desc><desc class="x top">97.30041580041579</desc><desc class="y top">328.3814990721961</desc><desc class="x_label">1979</desc></g><g class="dots"><desc class="label">142 wickets in 95 innings (865.4 overs)</desc><circle class="dot reactive tooltip-trigger" cx="122.87214137214136" cy="329.06022821345766" r="2.5"/><desc class="value">20.11</desc><desc class="x top">122.87214137214136</desc><desc class="y top">329.06022821345766</desc><desc class="x_label">1980</desc></g><g class="dots"><desc class="label">132 wickets in 88 innings (796.5 overs)</desc><circle class="dot reactive tooltip-trigger" cx="167.62266112266113" cy="331.2198209356536" r="2.5"/><desc class="value">19.76</desc><desc class="x top">167.62266112266113</desc><desc class="y top">331.2198209356536</desc><desc class="x_label">1981</desc></g><g class="dots"><desc class="label">120 wickets in 78 innings (710.3 overs)</desc><circle class="dot reactive tooltip-trigger" cx="231.55197505197503" cy="332.4538739197656" r="2.5"/><desc class="value">19.56</desc><desc class="x top">231.55197505197503</desc><desc class="y top">332.4538739197656</desc><desc class="x_label">1982</desc></g><g class="dots"><desc class="label">117 wickets in 75 innings (685.0 overs)</desc><circle class="dot reactive tooltip-trigger" cx="250.73076923076923" cy="332.7623871657936" r="2.5"/><desc class="value">19.51</desc><desc class="x top">250.73076923076923</desc><desc class="y top">332.7623871657936</desc><desc class="x_label">1983</desc></g><g class="dots"><desc class="label">87 wickets in 55 innings (502.4 overs)</desc><circle class="dot reactive tooltip-trigger" cx="378.58939708939704" cy="327.4559593341121" r="2.5"/><desc class="value">20.37</desc><desc class="x left top">378.58939708939704</desc><desc class="y left top">327.4559593341121</desc><desc class="x_label">1984</desc></g><g class="dots"><desc class="label">72 wickets in 49 innings (450.1 overs)</desc><circle class="dot reactive tooltip-trigger" cx="416.9469854469854" cy="316.9048063199548" r="2.5"/><desc class="value">22.08</desc><desc class="x left top">416.9469854469854</desc><desc class="y left top">316.9048063199548</desc><desc class="x_label">1985</desc></g><g class="dots"><desc class="label">57 wickets in 38 innings (353.5 overs)</desc><circle class="dot reactive tooltip-trigger" cx="487.2692307692307" cy="318.57077784850594" r="2.5"/><desc class="value">21.81</desc><desc class="x left top">487.2692307692307</desc><desc class="y left top">318.57077784850594</desc><desc class="x_label">1986</desc></g><g class="dots"><desc class="label">31 wickets in 23 innings (214.0 overs)</desc><circle class="dot reactive tooltip-trigger" cx="583.1632016632017" cy="296.72804002972396" r="2.5"/><desc class="value">25.35</desc><desc class="x left top">583.1632016632017</desc><desc class="y left top">296.72804002972396</desc><desc class="x_label">1987</desc></g><g class="dots"><desc class="label">29 wickets in 20 innings (191.0 overs)</desc><circle class="dot reactive tooltip-trigger" cx="602.3419958419958" cy="306.35365330579737" r="2.5"/><desc class="value">23.79</desc><desc class="x left top">602.3419958419958</desc><desc class="y left top">306.35365330579737</desc><desc class="x_label">1988</desc></g><g class="dots"><desc class="label">14 wickets in 7 innings (70.2 overs)</desc><circle class="dot reactive tooltip-trigger" cx="685.4501039501039" cy="337.6985991022415" r="2.5"/><desc class="value">18.71</desc><desc class="x left top">685.4501039501039</desc><desc class="y left top">337.6985991022415</desc><desc class="x_label">1989</desc></g><g class="dots"><desc class="label">9 wickets in 6 innings (60.2 overs)</desc><circle class="dot reactive tooltip-trigger" cx="691.8430353430354" cy="299.56636189318147" r="2.5"/><desc class="value">24.89</desc><desc class="x left top">691.8430353430354</desc><desc class="y left top">299.56636189318147</desc><desc class="x_label">1990</desc></g></g><g class="series serie-1 color-1"><g class="dots"><desc class="label">0 wickets over 0 innings</desc><circle class="dot reactive tooltip-trigger" cx="14.192307692307692" cy="453.1442557659166" r="2.5"/><desc class="value">0</desc><desc class="x top">14.192307692307692</desc><desc class="y top">453.1442557659166</desc><desc class="x_label">1973</desc></g><g class="dots"><desc class="label">2 wickets in 3 innings (24.0 overs)</desc><circle class="dot reactive tooltip-trigger" cx="33.37110187110187" cy="160.05667203932296" r="2.5"/><desc class="value">47.5</desc><desc class="x ">33.37110187110187</desc><desc class="y ">160.05667203932296</desc><desc class="x_label">1974</desc></g><g class="dots"><desc class="label">2 wickets in 4 innings (30.0 overs)</desc><circle class="dot reactive tooltip-trigger" cx="39.764033264033266" cy="52.077035929525266" r="2.5"/><desc class="value">65</desc><desc class="x ">39.764033264033266</desc><desc class="y ">52.077035929525266</desc><desc class="x_label">1975</desc></g><g class="dots"><desc class="label">7 wickets in 9 innings (74.0 overs)</desc><circle class="dot reactive tooltip-trigger" cx="71.72869022869023" cy="207.19749603240032" r="2.5"/><desc class="value">39.86</desc><desc class="x ">71.72869022869023</desc><desc class="y ">207.19749603240032</desc><desc class="x_label">1976</desc></g><g class="dots"><desc class="label">8 wickets in 11 innings (87.0 overs)</desc><circle class="dot reactive tooltip-trigger" cx="84.51455301455302" cy="189.3654304119823" r="2.5"/><desc class="value">42.75</desc><desc class="x ">84.51455301455302</desc><desc class="y ">189.3654304119823</desc><desc class="x_label">1978</desc></g><g class="dots"><desc class="label">11 wickets in 13 innings (109.0 overs)</desc><circle class="dot reactive tooltip-trigger" cx="97.30041580041579" cy="209.72730464982985" r="2.5"/><desc class="value">39.45</desc><desc class="x ">97.30041580041579</desc><desc class="y ">209.72730464982985</desc><desc class="x_label">1979</desc></g><g class="dots"><desc class="label">16 wickets in 17 innings (154.0 overs)</desc><circle class="dot reactive tooltip-trigger" cx="122.87214137214136" cy="240.64033190183483" r="2.5"/><desc class="value">34.44</desc><desc class="x top">122.87214137214136</desc><desc class="y top">240.64033190183483</desc><desc class="x_label">1980</desc></g><g class="dots"><desc class="label">26 wickets in 24 innings (222.5 overs)</desc><circle class="dot reactive tooltip-trigger" cx="167.62266112266113" cy="263.5320147571119" r="2.5"/><desc class="value">30.73</desc><desc class="x top">167.62266112266113</desc><desc class="y top">263.5320147571119</desc><desc class="x_label">1981</desc></g><g class="dots"><desc class="label">38 wickets in 34 innings (309.1 overs)</desc><circle class="dot reactive tooltip-trigger" cx="231.55197505197503" cy="281.0555671315019" r="2.5"/><desc class="value">27.89</desc><desc class="x top">231.55197505197503</desc><desc class="y top">281.0555671315019</desc><desc class="x_label">1982</desc></g><g class="dots"><desc class="label">41 wickets in 37 innings (334.4 overs)</desc><circle class="dot reactive tooltip-trigger" cx="250.73076923076923" cy="284.01729429337064" r="2.5"/><desc class="value">27.41</desc><desc class="x top">250.73076923076923</desc><desc class="y top">284.01729429337064</desc><desc class="x_label">1983</desc></g><g class="dots"><desc class="label">71 wickets in 57 innings (517.0 overs)</desc><circle class="dot reactive tooltip-trigger" cx="378.58939708939704" cy="311.0430546454229" r="2.5"/><desc class="value">23.03</desc><desc class="x left top">378.58939708939704</desc><desc class="y left top">311.0430546454229</desc><desc class="x_label">1984</desc></g><g class="dots"><desc class="label">86 wickets in 63 innings (569.3 overs)</desc><circle class="dot reactive tooltip-trigger" cx="416.9469854469854" cy="322.7665579944866" r="2.5"/><desc class="value">21.13</desc><desc class="x left top">416.9469854469854</desc><desc class="y left top">322.7665579944866</desc><desc class="x_label">1985</desc></g><g class="dots"><desc class="label">101 wickets in 74 innings (665.5 overs)</desc><circle class="dot reactive tooltip-trigger" cx="487.2692307692307" cy="320.91547851831865" r="2.5"/><desc class="value">21.43</desc><desc class="x left top">487.2692307692307</desc><desc class="y left top">320.91547851831865</desc><desc class="x_label">1986</desc></g><g class="dots"><desc class="label">127 wickets in 89 innings (805.4 overs)</desc><circle class="dot reactive tooltip-trigger" cx="583.1632016632017" cy="325.78998780556094" r="2.5"/><desc class="value">20.64</desc><desc class="x left top">583.1632016632017</desc><desc class="y left top">325.78998780556094</desc><desc class="x_label">1987</desc></g><g class="dots"><desc class="label">129 wickets in 92 innings (828.4 overs)</desc><circle class="dot reactive tooltip-trigger" cx="602.3419958419958" cy="323.19847653892583" r="2.5"/><desc class="value">21.06</desc><desc class="x left top">602.3419958419958</desc><desc class="y left top">323.19847653892583</desc><desc class="x_label">1988</desc></g><g class="dots"><desc class="label">144 wickets in 105 innings (949.2 overs)</desc><circle class="dot reactive tooltip-trigger" cx="685.4501039501039" cy="318.3856699008891" r="2.5"/><desc class="value">21.84</desc><desc class="x left top">685.4501039501039</desc><desc class="y left top">318.3856699008891</desc><desc class="x_label">1989</desc></g><g class="dots"><desc class="label">149 wickets in 106 innings (959.2 overs)</desc><circle class="dot reactive tooltip-trigger" cx="691.8430353430354" cy="321.34739706275786" r="2.5"/><desc class="value">21.36</desc><desc class="x left top">691.8430353430354</desc><desc class="y left top">321.34739706275786</desc><desc class="x_label">1990</desc></g></g><g class="series serie-2 color-2"/></g><g class="plot text-overlay" transform="translate(42, 46)"><g class="series serie-0 color-0"/><g class="series serie-1 color-1"/><g class="series serie-2 color-2"/></g><g class="plot tooltip-overlay" transform="translate(42, 46)"><g class="tooltip" style="opacity: 0" transform="translate(0 0)"><rect class="tooltip-box" height="0" rx="10" ry="10" width="0"/><g class="text"/></g></g><g class="legends" transform="translate(52, 545)"><g class="legend reactive activate-serie" id="activate-serie-0"><rect class="color-0 reactive" height="12" width="12" x="0.0" y="1.0"/><text x="17.0" y="11.2">Future Average</text></g><g class="legend reactive activate-serie" id="activate-serie-1"><rect class="color-1 reactive" height="12" width="12" x="369.0" y="1.0"/><text x="386.0" y="11.2">Past Average</text></g><g class="legend reactive activate-serie" id="activate-serie-2"><rect class="color-2 reactive" height="12" width="12" x="0.0" y="22.0"/><text x="17.0" y="32.2">Career Average</text></g></g></g></svg>