<?xml version='1.0' encoding='utf-8'?>
<svg xmlns:xlink="http://www.w3.org/1999/xlink" xmlns="http://www.w3.org/2000/svg" id="chart-3b430d31-7736-4a8d-96e4-3a53831ddd8f" class="pygal-chart" viewBox="0 0 800 600"><!--Generated with pygal 2.4.0 (lxml) ©Kozea 2012-2016 on 2019-08-04--><!--http://pygal.org--><!--http://github.com/Kozea/pygal--><defs><style type="text/css">#chart-3b430d31-7736-4a8d-96e4-3a53831ddd8f{-webkit-user-select:none;-webkit-font-smoothing:antialiased;font-family:Consolas,"Liberation Mono",Menlo,Courier,monospace}#chart-3b430d31-7736-4a8d-96e4-3a53831ddd8f .title{font-family:Consolas,"Liberation Mono",Menlo,Courier,monospace;font-size:16px}#chart-3b430d31-7736-4a8d-96e4-3a53831ddd8f .legends .legend text{font-family:Consolas,"Liberation Mono",Menlo,Courier,monospace;font-size:14px}#chart-3b430d31-7736-4a8d-96e4-3a53831ddd8f .axis text{font-family:Consolas,"Liberation Mono",Menlo,Courier,monospace;font-size:10px}#chart-3b430d31-7736-4a8d-96e4-3a53831ddd8f .axis text.major{font-family:Consolas,"Liberation Mono",Menlo,Courier,monospace;font-size:10px}#chart-3b430d31-7736-4a8d-96e4-3a53831ddd8f .text-overlay text.value{font-family:Consolas,"Liberation Mono",Menlo,Courier,monospace;font-size:16px}#chart-3b430d31-7736-4a8d-96e4-3a53831ddd8f .text-overlay text.label{font-family:Consolas,"Liberation Mono",Menlo,Courier,monospace;font-size:10px}#chart-3b430d31-7736-4a8d-96e4-3a53831ddd8f .tooltip{font-family:Consolas,"Liberation Mono",Menlo,Courier,monospace;font-size:14px}#chart-3b430d31-7736-4a8d-96e4-3a53831ddd8f text.no_data{font-family:Consolas,"Liberation Mono",Menlo,Courier,monospace;font-size:64px}
#chart-3b430d31-7736-4a8d-96e4-3a53831ddd8f{background-color:rgba(249,249,249,1)}#chart-3b430d31-7736-4a8d-96e4-3a53831ddd8f path,#chart-3b430d31-7736-4a8d-96e4-3a53831ddd8f line,#chart-3b430d31-7736-4a8d-96e4-3a53831ddd8f rect,#chart-3b430d31-7736-4a8d-96e4-3a53831ddd8f circle{-webkit-transition:150ms;-moz-transition:150ms;transition:150ms}#chart-3b430d31-7736-4a8d-96e4-3a53831ddd8f .graph &gt; .background{fill:rgba(249,249,249,1)}#chart-3b430d31-7736-4a8d-96e4-3a53831ddd8f .plot &gt; .background{fill:rgba(255,255,255,1)}#chart-3b430d31-7736-4a8d-96e4-3a53831ddd8f .graph{fill:rgba(0,0,0,.87)}#chart-3b430d31-7736-4a8d-96e4-3a53831ddd8f text.no_data{fill:rgba(0,0,0,1)}#chart-3b430d31-7736-4a8d-96e4-3a53831ddd8f .title{fill:rgba(0,0,0,1)}#chart-3b430d31-7736-4a8d-96e4-3a53831ddd8f .legends .legend text{fill:rgba(0,0,0,.87)}#chart-3b430d31-7736-4a8d-96e4-3a53831ddd8f .legends .legend:hover text{fill:rgba(0,0,0,1)}#chart-3b430d31-7736-4a8d-96e4-3a53831ddd8f .axis .line{stroke:rgba(0,0,0,1)}#chart-3b430d31-7736-4a8d-96e4-3a53831ddd8f .axis .guide.line{stroke:rgba(0,0,0,.54)}#chart-3b430d31-7736-4a8d-96e4-3a53831ddd8f .axis .major.line{stroke:rgba(0,0,0,.87)}#chart-3b430d31-7736-4a8d-96e4-3a53831ddd8f .axis text.major{fill:rgba(0,0,0,1)}#chart-3b430d31-7736-4a8d-96e4-3a53831ddd8f .axis.y .guides:hover .guide.line,#chart-3b430d31-7736-4a8d-96e4-3a53831ddd8f .line-graph .axis.x .guides:hover .guide.line,#chart-3b430d31-7736-4a8d-96e4-3a53831ddd8f .stackedline-graph .axis.x .guides:hover .guide.line,#chart-3b430d31-7736-4a8d-96e4-3a53831ddd8f .xy-graph .axis.x .guides:hover .guide.line{stroke:rgba(0,0,0,1)}#chart-3b430d31-7736-4a8d-96e4-3a53831ddd8f .axis .guides:hover text{fill:rgba(0,0,0,1)}#chart-3b430d31-7736-4a8d-96e4-3a53831ddd8f .reactive{fill-opacity:.7;stroke-opacity:.8}#chart-3b430d31-7736-4a8d-96e4-3a53831ddd8f .ci{stroke:rgba(0,0,0,.87)}#chart-3b430d31-7736-4a8d-96e4-3a53831ddd8f .reactive.active,#chart-3b430d31-7736-4a8d-96e4-3a53831ddd8f .active .reactive{fill-opacity:.8;stroke-opacity:.9;stroke-width:4}#chart-3b430d31-7736-4a8d-96e4-3a53831ddd8f .ci .reactive.active{stroke-width:1.5}#chart-3b430d31-7736-4a8d-96e4-3a53831ddd8f .series text{fill:rgba(0,0,0,1)}#chart-3b430d31-7736-4a8d-96e4-3a53831ddd8f .tooltip rect{fill:rgba(255,255,255,1);stroke:rgba(0,0,0,1);-webkit-transition:opacity 150ms;-moz-transition:opacity 150ms;transition:opacity 150ms}#chart-3b430d31-7736-4a8d-96e4-3a53831ddd8f .tooltip .label{fill:rgba(0,0,0,.87)}#chart-3b430d31-7736-4a8d-96e4-3a53831ddd8f .tooltip .label{fill:rgba(0,0,0,.87)}#chart-3b430d31-7736-4a8d-96e4-3a53831ddd8f .tooltip .legend{font-size:.8em;fill:rgba(0,0,0,.54)}#chart-3b430d31-7736-4a8d-96e4-3a53831ddd8f .tooltip .x_label{font-size:.6em;fill:rgba(0,0,0,1)}#chart-3b430d31-7736-4a8d-96e4-3a53831ddd8f .tooltip .xlink{font-size:.5em;text-decoration:underline}#chart-3b430d31-7736-4a8d-96e4-3a53831ddd8f .tooltip .value{font-size:1.5em}#chart-3b430d31-7736-4a8d-96e4-3a53831ddd8f .bound{font-size:.5em}#chart-3b430d31-7736-4a8d-96e4-3a53831ddd8f .max-value{font-size:.75em;fill:rgba(0,0,0,.54)}#chart-3b430d31-7736-4a8d-96e4-3a53831ddd8f .map-element{fill:rgba(255,255,255,1);stroke:rgba(0,0,0,.54) !important}#chart-3b430d31-7736-4a8d-96e4-3a53831ddd8f .map-element .reactive{fill-opacity:inherit;stroke-opacity:inherit}#chart-3b430d31-7736-4a8d-96e4-3a53831ddd8f .color-0,#chart-3b430d31-7736-4a8d-96e4-3a53831ddd8f .color-0 a:visited{stroke:red;fill:red}#chart-3b430d31-7736-4a8d-96e4-3a53831ddd8f .color-1,#chart-3b430d31-7736-4a8d-96e4-3a53831ddd8f .color-1 a:visited{stroke:blue;fill:blue}#chart-3b430d31-7736-4a8d-96e4-3a53831ddd8f .color-2,#chart-3b430d31-7736-4a8d-96e4-3a53831ddd8f .color-2 a:visited{stroke:green;fill:green}#chart-3b430d31-7736-4a8d-96e4-3a53831ddd8f .text-overlay .color-0 text{fill:white}#chart-3b430d31-7736-4a8d-96e4-3a53831ddd8f .text-overlay .color-1 text{fill:white}#chart-3b430d31-7736-4a8d-96e4-3a53831ddd8f .text-overlay .color-2 text{fill:white}
#chart-3b430d31-7736-4a8d-96e4-3a53831ddd8f text.no_data{text-anchor:middle}#chart-3b430d31-7736-4a8d-96e4-3a53831ddd8f .guide.line{fill:none}#chart-3b430d31-7736-4a8d-96e4-3a53831ddd8f .centered{text-anchor:middle}#chart-3b430d31-7736-4a8d-96e4-3a53831ddd8f .title{text-anchor:middle}#chart-3b430d31-7736-4a8d-96e4-3a53831ddd8f .legends .legend text{fill-opacity:1}#chart-3b430d31-7736-4a8d-96e4-3a53831ddd8f .axis.x text{text-anchor:middle}#chart-3b430d31-7736-4a8d-96e4-3a53831ddd8f .axis.x:not(.web) text[transform]{text-anchor:start}#chart-3b430d31-7736-4a8d-96e4-3a53831ddd8f .axis.x:not(.web) text[transform].backwards{text-anchor:end}#chart-3b430d31-7736-4a8d-96e4-3a53831ddd8f .axis.y text{text-anchor:end}#chart-3b430d31-7736-4a8d-96e4-3a53831ddd8f .axis.y text[transform].backwards{text-anchor:start}#chart-3b430d31-7736-4a8d-96e4-3a53831ddd8f .axis.y2 text{text-anchor:start}#chart-3b430d31-7736-4a8d-96e4-3a53831ddd8f .axis.y2 text[transform].backwards{text-anchor:end}#chart-3b430d31-7736-4a8d-96e4-3a53831ddd8f .axis .guide.line{stroke-dasharray:4,4}#chart-3b430d31-7736-4a8d-96e4-3a53831ddd8f .axis .major.guide.line{stroke-dasharray:6,6}#chart-3b430d31-7736-4a8d-96e4-3a53831ddd8f .horizontal .axis.y .guide.line,#chart-3b430d31-7736-4a8d-96e4-3a53831ddd8f .horizontal .axis.y2 .guide.line,#chart-3b430d31-7736-4a8d-96e4-3a53831ddd8f .vertical .axis.x .guide.line{opacity:0}#chart-3b430d31-7736-4a8d-96e4-3a53831ddd8f .horizontal .axis.always_show .guide.line,#chart-3b430d31-7736-4a8d-96e4-3a53831ddd8f .vertical .axis.always_show .guide.line{opacity:1 !important}#chart-3b430d31-7736-4a8d-96e4-3a53831ddd8f .axis.y .guides:hover .guide.line,#chart-3b430d31-7736-4a8d-96e4-3a53831ddd8f .axis.y2 .guides:hover .guide.line,#chart-3b430d31-7736-4a8d-96e4-3a53831ddd8f .axis.x .guides:hover .guide.line{opacity:1}#chart-3b430d31-7736-4a8d-96e4-3a53831ddd8f .axis .guides:hover text{opacity:1}#chart-3b430d31-7736-4a8d-96e4-3a53831ddd8f .nofill{fill:none}#chart-3b430d31-7736-4a8d-96e4-3a53831ddd8f .subtle-fill{fill-opacity:.2}#chart-3b430d31-7736-4a8d-96e4-3a53831ddd8f .dot{stroke-width:1px;fill-opacity:1}#chart-3b430d31-7736-4a8d-96e4-3a53831ddd8f .dot.active{stroke-width:5px}#chart-3b430d31-7736-4a8d-96e4-3a53831ddd8f .dot.negative{fill:transparent}#chart-3b430d31-7736-4a8d-96e4-3a53831ddd8f text,#chart-3b430d31-7736-4a8d-96e4-3a53831ddd8f tspan{stroke:none !important}#chart-3b430d31-7736-4a8d-96e4-3a53831ddd8f .series text.active{opacity:1}#chart-3b430d31-7736-4a8d-96e4-3a53831ddd8f .tooltip rect{fill-opacity:.95;stroke-width:.5}#chart-3b430d31-7736-4a8d-96e4-3a53831ddd8f .tooltip text{fill-opacity:1}#chart-3b430d31-7736-4a8d-96e4-3a53831ddd8f .showable{visibility:hidden}#chart-3b430d31-7736-4a8d-96e4-3a53831ddd8f .showable.shown{visibility:visible}#chart-3b430d31-7736-4a8d-96e4-3a53831ddd8f .gauge-background{fill:rgba(229,229,229,1);stroke:none}#chart-3b430d31-7736-4a8d-96e4-3a53831ddd8f .bg-lines{stroke:rgba(249,249,249,1);stroke-width:2px}</style><script type="text/javascript">window.pygal = window.pygal || {};window.pygal.config = window.pygal.config || {};window.pygal.config['3b430d31-7736-4a8d-96e4-3a53831ddd8f'] = {"allow_interruptions": false, "box_mode": "extremes", "classes": ["pygal-chart"], "css": ["file://style.css", "file://graph.css"], "defs": [], "disable_xml_declaration": false, "dots_size": 2.5, "dynamic_print_values": false, "explicit_size": false, "fill": false, "force_uri_protocol": "https", "formatter": null, "half_pie": false, "height": 600, "include_x_axis": false, "inner_radius": 0, "interpolate": null, "interpolation_parameters": {}, "interpolation_precision": 250, "inverse_y_axis": false, "js": ["//kozea.github.io/pygal.js/2.0.x/pygal-tooltips.min.js"], "legend_at_bottom": true, "legend_at_bottom_columns": null, "legend_box_size": 12, "logarithmic": false, "margin": 20, "margin_bottom": null, "margin_left": null, "margin_right": null, "margin_top": null, "max_scale": 16, "min_scale": 4, "missing_value_fill_truncation": "x", "no_data_text": "No data", "no_prefix": false, "order_min": null, "pretty_print": false, "print_labels": false, "print_values": false, "print_values_position": "center", "print_zeroes": true, "range": null, "rounded_bars": null, "secondary_range": null, "show_dots": true, "show_legend": true, "show_minor_x_labels": false, "show_minor_y_labels": true, "show_only_major_dots": false, "show_x_guides": false, "show_x_labels": true, "show_y_guides": true, "show_y_labels": true, "spacing": 10, "stack_from_top": false, "strict": false, "stroke": true, "stroke_style": null, "style": {"background": "rgba(249, 249, 249, 1)", "ci_colors": [], "colors": ["red", "blue", "green", "#a3a3a3"], "font_family": "Consolas, \"Liberation Mono\", Menlo, Courier, monospace", "foreground": "rgba(0, 0, 0, .87)", "foreground_strong": "rgba(0, 0, 0, 1)", "foreground_subtle": "rgba(0, 0, 0, .54)", "guide_stroke_dasharray": "4,4", "label_font_family": "Consolas, \"Liberation Mono\", Menlo, Courier, monospace", "label_font_size": 10, "legend_font_family": "Consolas, \"Liberation Mono\", Menlo, Courier, monospace", "legend_font_size": 14, "major_guide_stroke_dasharray": "6,6", "major_label_font_family": "Consolas, \"Liberation Mono\", Menlo, Courier, monospace", "major_label_font_size": 10, "no_data_font_family": "Consolas, \"Liberation Mono\", Menlo, Courier, monospace", "no_data_font_size": 64, "opacity": ".7", "opacity_hover": ".8", "plot_background": "rgba(255, 255, 255, 1)", "stroke_opacity": ".8", "stroke_opacity_hover": ".9", "title_font_family": "Consolas, \"Liberation Mono\", Menlo, Courier, monospace", "title_font_size": 16, "tooltip_font_family": "Consolas, \"Liberation Mono\", Menlo, Courier, monospace", "tooltip_font_size": 14, "transition": "150ms", "value_background": "rgba(229, 229, 229, 1)", "value_colors": [], "value_font_family": "Consolas, \"Liberation Mono\", Menlo, Courier, monospace", "value_font_size": 16, "value_label_font_family": "Consolas, \"Liberation Mono\", Menlo, Courier, monospace", "value_label_font_size": 10}, "title": "SK Warne: Future and Past Averages in ODIs", "tooltip_border_radius": 10, "tooltip_fancy_mode": true, "truncate_label": null, "truncate_legend": null, "width": 800, "x_label_rotation": 45, "x_labels": ["1993", "0", "0", "0", "1994", "0", "0", "0", "0", "0", "0", "0", "0", "0", "0", "0", "0", "0", "0", "0", "0", "0", "0", "0", "0", "0", "0", "0", "0", "0", "0", "0", "0", "1995", "0", "0", "0", "0", "0", "0", "0", "0", "0", "0", "0", "1996", "0", "0", "0", "0", "0", "0", "0", "0", "0", "0", "0", "0", "0", "0", "0", "1997", "0", "0", "0", "0", "0", "0", "0", "0", "0", "0", "0", "0", "0", "0", "0", "0", "0", "1998", "0", "0", "0", "0", "0", "0", "0", "0", "0", "0", "0", "0", "0", "0", "0", "1999", "0", "0", "0", "0", "0", "0", "0", "0", "0", "0", "0", "0", "0", "0", "0", "0", "0", "0", "0", "0", "0", "0", "0", "0", "0", "0", "0", "0", "0", "0", "0", "0", "0", "0", "0", "2000", "0", "0", "0", "0", "0", "0", "0", "0", "0", "0", "0", "0", "0", "0", "2001", "0", "0", "0", "0", "0", "0", "0", "0", "0", "0", "0", "0", "0", "0", "0", "0", "0", "2002", "0", "0", "0", "0", "0", "0", "0", "0", "0", "0", "0", "0", "0", "0", "0", "0", "0", "0", "0", "0", "0", "0", "0", "2003", "0", "2005"], "x_labels_major": ["1993", "1994", "1995", "1996", "1997", "1998", "1999", "2000", "2001", "2002", "2003", "2005"], "x_labels_major_count": null, "x_labels_major_every": null, "x_title": null, "xrange": null, "y_label_rotation": 0, "y_labels": null, "y_labels_major": null, "y_labels_major_count": null, "y_labels_major_every": null, "y_title": null, "zero": 60, "legends": ["Future Average", "Past Average", "Career Average"]}</script><script type="text/javascript" xlink:href="https://kozea.github.io/pygal.js/2.0.x/pygal-tooltips.min.js"/></defs><title>SK Warne: Future and Past Averages in ODIs</title><g class="graph line-graph vertical"><rect class="background" height="600" width="800" x="0" y="0"/><g class="plot" transform="translate(42, 46)"><rect class="background" height="462.02943725152284" width="738.0" x="0" y="0"/><g class="axis y always_show"><g class="guides"><path class="axis major line" d="M0.000000 453.144256 h738.000000"/><text class="major" x="-5" y="456.6442557659166">0</text><title>0</title></g><g class="guides"><path class="guide line" d="M0.000000 398.144680 h738.000000"/><text class="" x="-5" y="401.6446798723468">4</text><title>4</title></g><g class="guides"><path class="guide line" d="M0.000000 343.145104 h738.000000"/><text class="" x="-5" y="346.64510397877694">8</text><title>8</title></g><g class="guides"><path class="guide line" d="M0.000000 288.145528 h738.000000"/><text class="" x="-5" y="291.6455280852071">12</text><title>12</title></g><g class="guides"><path class="guide line" d="M0.000000 233.145952 h738.000000"/><text class="" x="-5" y="236.64595219163726">16</text><title>16</title></g><g class="guides"><path class="major guide line" d="M0.000000 178.146376 h738.000000"/><text class="major" x="-5" y="181.64637629806742">20</text><title>20</title></g><g class="guides"><path class="guide line" d="M0.000000 123.146800 h738.000000"/><text class="" x="-5" y="126.64680040449758">24</text><title>24</title></g><g class="guides"><path class="guide line" d="M0.000000 68.147225 h738.000000"/><text class="" x="-5" y="71.64722451092774">28</text><title>28</title></g><g class="guides"><path class="guide line" d="M0.000000 13.147649 h738.000000"/><text class="" x="-5" y="16.647648617357902">32</text><title>32</title></g></g><g class="axis x"><g class="guides"><path class="major line" d="M14.192308 0.000000 v462.029437"/><text class="major" x="14.192307692307692" y="477.02943725152284" transform="rotate(45 14.192308 477.029437)">1993</text></g><g class="guides"><path class="major guide line" d="M29.131579 0.000000 v462.029437"/><text class="major" x="29.131578947368418" y="477.02943725152284" transform="rotate(45 29.131579 477.029437)">1994</text></g><g class="guides"><path class="major guide line" d="M137.441296 0.000000 v462.029437"/><text class="major" x="137.4412955465587" y="477.02943725152284" transform="rotate(45 137.441296 477.029437)">1995</text></g><g class="guides"><path class="major guide line" d="M182.259109 0.000000 v462.029437"/><text class="major" x="182.25910931174087" y="477.02943725152284" transform="rotate(45 182.259109 477.029437)">1996</text></g><g class="guides"><path class="major guide line" d="M242.016194 0.000000 v462.029437"/><text class="major" x="242.0161943319838" y="477.02943725152284" transform="rotate(45 242.016194 477.029437)">1997</text></g><g class="guides"><path class="major guide line" d="M309.242915 0.000000 v462.029437"/><text class="major" x="309.24291497975713" y="477.02943725152284" transform="rotate(45 309.242915 477.029437)">1998</text></g><g class="guides"><path class="major guide line" d="M369.000000 0.000000 v462.029437"/><text class="major" x="369.0" y="477.02943725152284" transform="rotate(45 369.000000 477.029437)">1999</text></g><g class="guides"><path class="major guide line" d="M503.453441 0.000000 v462.029437"/><text class="major" x="503.4534412955466" y="477.02943725152284" transform="rotate(45 503.453441 477.029437)">2000</text></g><g class="guides"><path class="major guide line" d="M559.475709 0.000000 v462.029437"/><text class="major" x="559.4757085020243" y="477.02943725152284" transform="rotate(45 559.475709 477.029437)">2001</text></g><g class="guides"><path class="major guide line" d="M626.702429 0.000000 v462.029437"/><text class="major" x="626.7024291497976" y="477.02943725152284" transform="rotate(45 626.702429 477.029437)">2002</text></g><g class="guides"><path class="major guide line" d="M716.338057 0.000000 v462.029437"/><text class="major" x="716.3380566801619" y="477.02943725152284" transform="rotate(45 716.338057 477.029437)">2003</text></g><g class="guides"><path class="major guide line" d="M723.807692 0.000000 v462.029437"/><text class="major" x="723.8076923076923" y="477.02943725152284" transform="rotate(45 723.807692 477.029437)">2005</text></g></g><g class="series serie-0 color-0"><path class="line reactive nofill" d="M14.192308 99.221985 L17.927126 98.671989 21.661943 99.496983 25.396761 95.784511 29.131579 91.659543 32.866397 90.422053 36.601215 89.597059 40.336032 86.984579 44.070850 87.947072 47.805668 86.022087 51.540486 85.059594 55.275304 87.947072 59.010121 88.772065 62.744939 85.059594 66.479757 85.334592 70.214575 85.747089 73.949393 86.709581 77.684211 84.097102 81.419028 84.647097 85.153846 81.897118 88.888664 77.772150 92.623482 76.947157 96.358300 74.059679 100.093117 73.922180 103.827935 72.272193 107.562753 74.472176 111.297571 74.609675 115.032389 70.484706 118.767206 73.234685 122.502024 74.609675 126.236842 76.534660 129.971660 74.884673 133.706478 75.984664 137.441296 75.709666 141.176113 74.609675 144.910931 72.409692 148.645749 73.097186 152.380567 76.809658 156.115385 74.747174 159.850202 76.534660 163.585020 78.734643 167.319838 81.897118 171.054656 80.522129 174.789474 81.897118 178.524291 81.209624 182.259109 84.509598 185.993927 81.209624 189.728745 81.897118 193.463563 82.997110 197.198381 80.384630 200.933198 78.734643 204.668016 74.609675 208.402834 74.472176 212.137652 74.472176 215.872470 69.247216 219.607287 71.309700 223.342105 71.034702 227.076923 65.672244 230.811741 69.797212 234.546559 68.284723 238.281377 60.447284 242.016194 55.772320 245.751012 49.722367 249.485830 53.572337 253.220648 51.784851 256.955466 50.822358 260.690283 53.709836 264.425101 52.059849 268.159919 52.747343 271.894737 53.297339 275.629555 51.509853 279.364372 52.747343 283.099190 52.197348 286.834008 56.047318 290.568826 56.872311 294.303644 60.584783 298.038462 63.334762 301.773279 60.172286 305.508097 63.334762 309.242915 62.922265 312.977733 67.047233 316.712551 63.747258 320.447368 65.672244 324.182186 62.784766 327.917004 64.847250 331.651822 66.222239 335.386640 70.072210 339.121457 69.109717 342.856275 70.484706 346.591093 72.822188 350.325911 73.509683 354.060729 71.034702 357.795547 71.859696 361.530364 74.609675 365.265182 78.322146 369.000000 84.234600 372.734818 88.222070 376.469636 87.397076 380.204453 89.047063 383.939271 94.684520 387.674089 91.384545 391.408907 96.609505 395.143725 92.622036 398.878543 90.009556 402.613360 92.209539 406.348178 94.959518 410.082996 93.584528 413.817814 86.709581 417.552632 84.097102 421.287449 79.284639 425.022267 86.022087 428.757085 80.659628 432.491903 78.459645 436.226721 71.722197 439.961538 75.159670 443.696356 69.659713 447.431174 71.722197 451.165992 74.609675 454.900810 73.372184 458.635628 63.747258 462.370445 70.347208 466.105263 74.059679 469.840081 70.897203 473.574899 59.072294 477.309717 46.697390 481.044534 43.534914 484.779352 39.822443 488.514170 38.584952 492.248988 45.184902 495.983806 52.609844 499.718623 49.584868 503.453441 46.697390 507.188259 45.459899 510.923077 50.409861 514.657895 50.959857 518.392713 56.047318 522.127530 51.784851 525.862348 50.272362 529.597166 42.847420 533.331984 43.672413 537.066802 42.709921 540.801619 52.197348 544.536437 50.547360 548.271255 44.497407 552.006073 39.822443 555.740891 46.972388 559.475709 53.572337 563.210526 61.822273 566.945344 51.647352 570.680162 45.459899 574.414980 35.834974 578.149798 37.347462 581.884615 35.147479 585.619433 32.397500 589.354251 31.710005 593.089069 8.885181 596.823887 16.860120 600.558704 36.934965 604.293522 19.197602 608.028340 39.959942 611.763158 26.210048 615.497976 43.534914 619.232794 26.897543 622.967611 26.072549 626.702429 9.572676 630.437247 26.072549 634.172065 20.435092 637.906883 21.535084 641.641700 45.047403 645.376518 36.522468 649.111336 38.034957 652.846154 52.197348 656.580972 81.347123 660.315789 75.297169 664.050607 94.409522 667.785425 94.272023 671.520243 94.959518 675.255061 92.347038 678.989879 82.859611 682.724696 75.984664 686.459514 51.234855 690.194332 57.834804 693.929150 80.659628 697.663968 135.659204 701.398785 106.646928 705.133603 118.609335 708.868421 119.709327 712.603239 154.634058 716.338057 142.396652 720.072874 160.959009 723.807692 267.520687"/></g><g class="series serie-1 color-1"><path class="line reactive nofill" d="M14.192308 453.144256 L17.927126 178.146376 21.661943 72.684690 25.396761 240.983392 29.131579 294.332980 32.866397 290.208012 36.601215 278.933099 40.336032 286.633040 44.070850 262.845723 47.805668 262.570725 51.540486 257.758262 55.275304 225.721009 59.010121 212.246113 62.744939 228.470988 66.479757 221.183544 70.214575 213.621103 73.949393 205.646164 77.684211 214.996092 81.419028 207.158653 85.153846 216.096084 88.888664 227.645995 92.623482 225.308513 96.358300 231.358466 100.093117 225.583511 103.827935 227.233498 107.562753 216.646079 111.297571 213.621103 115.032389 220.908547 118.767206 209.358636 122.502024 201.246198 126.236842 193.546258 129.971660 196.158737 133.706478 189.833786 137.441296 189.008793 141.176113 189.283790 144.910931 193.546258 148.645749 189.146291 152.380567 176.496389 156.115385 180.346359 159.850202 173.196414 163.585020 164.808979 167.319838 154.634058 171.054656 156.559043 174.789474 152.296576 178.524291 152.846571 182.259109 143.084147 185.993927 149.821595 189.728745 147.071616 193.463563 143.221646 197.198381 147.759111 200.933198 150.371590 204.668016 157.659034 208.402834 157.109039 212.137652 156.009047 215.872470 163.846487 219.607287 159.309022 223.342105 158.071531 227.076923 164.946478 230.811741 156.834041 234.546559 158.071531 238.281377 167.833956 242.016194 171.683926 245.751012 177.046385 249.485830 170.858932 253.220648 171.683926 256.955466 170.996431 260.690283 166.733964 264.425101 167.421459 268.159919 165.358975 271.894737 162.883994 275.629555 163.571489 279.364372 160.959009 283.099190 159.859017 286.834008 154.909055 290.568826 153.121569 294.303644 148.446605 298.038462 144.871633 301.773279 146.934117 305.508097 143.084147 309.242915 142.946648 312.977733 137.996686 316.712551 140.746665 320.447368 137.996686 324.182186 139.646673 327.917004 136.759195 331.651822 134.834210 335.386640 130.709242 339.121457 130.984240 342.856275 129.059255 346.591093 126.171777 350.325911 125.071786 354.060729 126.996771 357.795547 125.759280 361.530364 122.734304 365.265182 119.159331 369.000000 113.659374 372.734818 109.809403 376.469636 110.359399 380.204453 108.571913 383.939271 103.484452 387.674089 106.234431 391.408907 101.559467 395.143725 104.859441 398.878543 106.784427 402.613360 104.859441 406.348178 102.659458 410.082996 103.621951 413.817814 108.434414 417.552632 110.084401 421.287449 112.971879 425.022267 108.296915 428.757085 111.459391 432.491903 112.559382 436.226721 115.996856 439.961538 113.934371 443.696356 116.546851 447.431174 115.034363 451.165992 113.246877 454.900810 113.659374 458.635628 118.196839 462.370445 114.759365 466.105263 112.559382 469.840081 113.659374 473.574899 118.609335 477.309717 123.009301 481.044534 123.559297 484.779352 124.384291 488.514170 124.109293 492.248988 121.359314 495.983806 118.334338 499.718623 118.884333 503.453441 119.296830 507.188259 119.159331 510.923077 116.959348 514.657895 116.409352 518.392713 114.621866 522.127530 115.584359 525.862348 115.584359 529.597166 116.959348 533.331984 116.409352 537.066802 116.409352 540.801619 113.521875 544.536437 113.659374 548.271255 114.896864 552.006073 115.584359 555.740891 113.521875 559.475709 111.734388 563.210526 109.534405 566.945344 111.459391 570.680162 112.284384 574.414980 113.934371 578.149798 113.246877 581.884615 113.109378 585.619433 112.971879 589.354251 112.834380 593.089069 115.721858 596.823887 113.796873 600.558704 110.221900 604.293522 112.284384 608.028340 108.846911 611.763158 110.084401 615.497976 107.609420 619.232794 109.396906 622.967611 108.846911 626.702429 109.809403 630.437247 107.884418 634.172065 108.296915 637.906883 107.471921 641.641700 104.996940 645.376518 105.684435 649.111336 105.271938 652.846154 103.621951 656.580972 100.871972 660.315789 101.284469 664.050607 99.634482 667.785425 99.634482 671.520243 99.496983 675.255061 99.634482 678.989879 100.184477 682.724696 100.459475 686.459514 101.421968 690.194332 101.009471 693.929150 100.046979 697.663968 97.846995 701.398785 98.946987 705.133603 98.671989 708.868421 98.671989 712.603239 97.846995 716.338057 98.534490 720.072874 98.396991 723.807692 98.121993"/></g><g class="series serie-2 color-2"><path class="line reactive nofill" d="M14.192308 99.221985 L17.927126 99.221985 21.661943 99.221985 25.396761 99.221985 29.131579 99.221985 32.866397 99.221985 36.601215 99.221985 40.336032 99.221985 44.070850 99.221985 47.805668 99.221985 51.540486 99.221985 55.275304 99.221985 59.010121 99.221985 62.744939 99.221985 66.479757 99.221985 70.214575 99.221985 73.949393 99.221985 77.684211 99.221985 81.419028 99.221985 85.153846 99.221985 88.888664 99.221985 92.623482 99.221985 96.358300 99.221985 100.093117 99.221985 103.827935 99.221985 107.562753 99.221985 111.297571 99.221985 115.032389 99.221985 118.767206 99.221985 122.502024 99.221985 126.236842 99.221985 129.971660 99.221985 133.706478 99.221985 137.441296 99.221985 141.176113 99.221985 144.910931 99.221985 148.645749 99.221985 152.380567 99.221985 156.115385 99.221985 159.850202 99.221985 163.585020 99.221985 167.319838 99.221985 171.054656 99.221985 174.789474 99.221985 178.524291 99.221985 182.259109 99.221985 185.993927 99.221985 189.728745 99.221985 193.463563 99.221985 197.198381 99.221985 200.933198 99.221985 204.668016 99.221985 208.402834 99.221985 212.137652 99.221985 215.872470 99.221985 219.607287 99.221985 223.342105 99.221985 227.076923 99.221985 230.811741 99.221985 234.546559 99.221985 238.281377 99.221985 242.016194 99.221985 245.751012 99.221985 249.485830 99.221985 253.220648 99.221985 256.955466 99.221985 260.690283 99.221985 264.425101 99.221985 268.159919 99.221985 271.894737 99.221985 275.629555 99.221985 279.364372 99.221985 283.099190 99.221985 286.834008 99.221985 290.568826 99.221985 294.303644 99.221985 298.038462 99.221985 301.773279 99.221985 305.508097 99.221985 309.242915 99.221985 312.977733 99.221985 316.712551 99.221985 320.447368 99.221985 324.182186 99.221985 327.917004 99.221985 331.651822 99.221985 335.386640 99.221985 339.121457 99.221985 342.856275 99.221985 346.591093 99.221985 350.325911 99.221985 354.060729 99.221985 357.795547 99.221985 361.530364 99.221985 365.265182 99.221985 369.000000 99.221985 372.734818 99.221985 376.469636 99.221985 380.204453 99.221985 383.939271 99.221985 387.674089 99.221985 391.408907 99.221985 395.143725 99.221985 398.878543 99.221985 402.613360 99.221985 406.348178 99.221985 410.082996 99.221985 413.817814 99.221985 417.552632 99.221985 421.287449 99.221985 425.022267 99.221985 428.757085 99.221985 432.491903 99.221985 436.226721 99.221985 439.961538 99.221985 443.696356 99.221985 447.431174 99.221985 451.165992 99.221985 454.900810 99.221985 458.635628 99.221985 462.370445 99.221985 466.105263 99.221985 469.840081 99.221985 473.574899 99.221985 477.309717 99.221985 481.044534 99.221985 484.779352 99.221985 488.514170 99.221985 492.248988 99.221985 495.983806 99.221985 499.718623 99.221985 503.453441 99.221985 507.188259 99.221985 510.923077 99.221985 514.657895 99.221985 518.392713 99.221985 522.127530 99.221985 525.862348 99.221985 529.597166 99.221985 533.331984 99.221985 537.066802 99.221985 540.801619 99.221985 544.536437 99.221985 548.271255 99.221985 552.006073 99.221985 555.740891 99.221985 559.475709 99.221985 563.210526 99.221985 566.945344 99.221985 570.680162 99.221985 574.414980 99.221985 578.149798 99.221985 581.884615 99.221985 585.619433 99.221985 589.354251 99.221985 593.089069 99.221985 596.823887 99.221985 600.558704 99.221985 604.293522 99.221985 608.028340 99.221985 611.763158 99.221985 615.497976 99.221985 619.232794 99.221985 622.967611 99.221985 626.702429 99.221985 630.437247 99.221985 634.172065 99.221985 637.906883 99.221985 641.641700 99.221985 645.376518 99.221985 649.111336 99.221985 652.846154 99.221985 656.580972 99.221985 660.315789 99.221985 664.050607 99.221985 667.785425 99.221985 671.520243 99.221985 675.255061 99.221985 678.989879 99.221985 682.724696 99.221985 686.459514 99.221985 690.194332 99.221985 693.929150 99.221985 697.663968 99.221985 701.398785 99.221985 705.133603 99.221985 708.868421 99.221985 712.603239 99.221985 716.338057 99.221985 720.072874 99.221985 723.807692 99.221985"/></g></g><g class="titles"><text class="title plot_title" x="400.0" y="26">SK Warne: Future and Past Averages in ODIs</text></g><g class="plot overlay" transform="translate(42, 46)"><g class="series serie-0 color-0"><g class="dots"><desc class="label">293 wickets in 191 innings (1773.4 overs)</desc><circle class="dot reactive tooltip-trigger" cx="14.192307692307692" cy="99.22198489079472" r="2.5"/><desc class="value">25.74</desc><desc class="x ">14.192307692307692</desc><desc class="y ">99.22198489079472</desc><desc class="x_label">1993</desc></g><g class="dots"><desc class="label">282 wickets in 187 innings (1733.4 overs)</desc><circle class="dot reactive tooltip-trigger" cx="29.131578947368418" cy="91.65954320542886" r="2.5"/><desc class="value">26.29</desc><desc class="x ">29.131578947368418</desc><desc class="y ">91.65954320542886</desc><desc class="x_label">1994</desc></g><g class="dots"><desc class="label">232 wickets in 158 innings (1460.2 overs)</desc><circle class="dot reactive tooltip-trigger" cx="137.4412955465587" cy="75.7096661962936" r="2.5"/><desc class="value">27.45</desc><desc class="x ">137.4412955465587</desc><desc class="y ">75.7096661962936</desc><desc class="x_label">1995</desc></g><g class="dots"><desc class="label">219 wickets in 146 innings (1345.0 overs)</desc><circle class="dot reactive tooltip-trigger" cx="182.25910931174087" cy="84.50959833926481" r="2.5"/><desc class="value">26.81</desc><desc class="x ">182.25910931174087</desc><desc class="y ">84.50959833926481</desc><desc class="x_label">1996</desc></g><g class="dots"><desc class="label">183 wickets in 130 innings (1193.1 overs)</desc><circle class="dot reactive tooltip-trigger" cx="242.0161943319838" cy="55.77231993487453" r="2.5"/><desc class="value">28.9</desc><desc class="x ">242.0161943319838</desc><desc class="y ">55.77231993487453</desc><desc class="x_label">1997</desc></g><g class="dots"><desc class="label">160 wickets in 112 innings (1023.4 overs)</desc><circle class="dot reactive tooltip-trigger" cx="309.24291497975713" cy="62.92226480103864" r="2.5"/><desc class="value">28.38</desc><desc class="x ">309.24291497975713</desc><desc class="y ">62.92226480103864</desc><desc class="x_label">1998</desc></g><g class="dots"><desc class="label">143 wickets in 96 innings (874.1 overs)</desc><circle class="dot reactive tooltip-trigger" cx="369.0" cy="84.23460045979692" r="2.5"/><desc class="value">26.83</desc><desc class="x ">369.0</desc><desc class="y ">84.23460045979692</desc><desc class="x_label">1999</desc></g><g class="dots"><desc class="label">81 wickets in 60 innings (545.0 overs)</desc><circle class="dot reactive tooltip-trigger" cx="503.4534412955466" cy="46.69738991243548" r="2.5"/><desc class="value">29.56</desc><desc class="x left">503.4534412955466</desc><desc class="y left">46.69738991243548</desc><desc class="x_label">2000</desc></g><g class="dots"><desc class="label">63 wickets in 45 innings (402.0 overs)</desc><circle class="dot reactive tooltip-trigger" cx="559.4757085020243" cy="53.572336899131756" r="2.5"/><desc class="value">29.06</desc><desc class="x left">559.4757085020243</desc><desc class="y left">53.572336899131756</desc><desc class="x_label">2001</desc></g><g class="dots"><desc class="label">31 wickets in 27 innings (234.1 overs)</desc><circle class="dot reactive tooltip-trigger" cx="626.7024291497976" cy="9.572676184275906" r="2.5"/><desc class="value">32.26</desc><desc class="x left">626.7024291497976</desc><desc class="y left">9.572676184275906</desc><desc class="x_label">2002</desc></g><g class="dots"><desc class="label">5 wickets in 3 innings (27.0 overs)</desc><circle class="dot reactive tooltip-trigger" cx="716.3380566801619" cy="142.396651967247" r="2.5"/><desc class="value">22.6</desc><desc class="x left">716.3380566801619</desc><desc class="y left">142.396651967247</desc><desc class="x_label">2003</desc></g><g class="dots"><desc class="label">2 wickets in 1 innings (7.0 overs)</desc><circle class="dot reactive tooltip-trigger" cx="723.8076923076923" cy="267.5206871251184" r="2.5"/><desc class="value">13.5</desc><desc class="x left top">723.8076923076923</desc><desc class="y left top">267.5206871251184</desc><desc class="x_label">2005</desc></g></g><g class="series serie-1 color-1"><g class="dots"><desc class="label">0 wickets over 0 innings</desc><circle class="dot reactive tooltip-trigger" cx="14.192307692307692" cy="453.1442557659166" r="2.5"/><desc class="value">0</desc><desc class="x top">14.192307692307692</desc><desc class="y top">453.1442557659166</desc><desc class="x_label">1993</desc></g><g class="dots"><desc class="label">11 wickets in 4 innings (40.0 overs)</desc><circle class="dot reactive tooltip-trigger" cx="29.131578947368418" cy="294.3329803732337" r="2.5"/><desc class="value">11.55</desc><desc class="x top">29.131578947368418</desc><desc class="y top">294.3329803732337</desc><desc class="x_label">1994</desc></g><g class="dots"><desc class="label">61 wickets in 33 innings (313.2 overs)</desc><circle class="dot reactive tooltip-trigger" cx="137.4412955465587" cy="189.00879253704744" r="2.5"/><desc class="value">19.21</desc><desc class="x ">137.4412955465587</desc><desc class="y ">189.00879253704744</desc><desc class="x_label">1995</desc></g><g class="dots"><desc class="label">74 wickets in 45 innings (428.4 overs)</desc><circle class="dot reactive tooltip-trigger" cx="182.25910931174087" cy="143.08414666591665" r="2.5"/><desc class="value">22.55</desc><desc class="x ">182.25910931174087</desc><desc class="y ">143.08414666591665</desc><desc class="x_label">1996</desc></g><g class="dots"><desc class="label">110 wickets in 61 innings (580.3 overs)</desc><circle class="dot reactive tooltip-trigger" cx="242.0161943319838" cy="171.683926130573" r="2.5"/><desc class="value">20.47</desc><desc class="x ">242.0161943319838</desc><desc class="y ">171.683926130573</desc><desc class="x_label">1997</desc></g><g class="dots"><desc class="label">133 wickets in 79 innings (750.0 overs)</desc><circle class="dot reactive tooltip-trigger" cx="309.24291497975713" cy="142.94664772618273" r="2.5"/><desc class="value">22.56</desc><desc class="x ">309.24291497975713</desc><desc class="y ">142.94664772618273</desc><desc class="x_label">1998</desc></g><g class="dots"><desc class="label">150 wickets in 95 innings (899.3 overs)</desc><circle class="dot reactive tooltip-trigger" cx="369.0" cy="113.65937356285673" r="2.5"/><desc class="value">24.69</desc><desc class="x ">369.0</desc><desc class="y ">113.65937356285673</desc><desc class="x_label">1999</desc></g><g class="dots"><desc class="label">212 wickets in 131 innings (1228.4 overs)</desc><circle class="dot reactive tooltip-trigger" cx="503.4534412955466" cy="119.2968300919477" r="2.5"/><desc class="value">24.28</desc><desc class="x left">503.4534412955466</desc><desc class="y left">119.2968300919477</desc><desc class="x_label">2000</desc></g><g class="dots"><desc class="label">230 wickets in 146 innings (1371.4 overs)</desc><circle class="dot reactive tooltip-trigger" cx="559.4757085020243" cy="111.73438840658184" r="2.5"/><desc class="value">24.83</desc><desc class="x left">559.4757085020243</desc><desc class="y left">111.73438840658184</desc><desc class="x_label">2001</desc></g><g class="dots"><desc class="label">262 wickets in 164 innings (1539.3 overs)</desc><circle class="dot reactive tooltip-trigger" cx="626.7024291497976" cy="109.80940325030696" r="2.5"/><desc class="value">24.97</desc><desc class="x left">626.7024291497976</desc><desc class="y left">109.80940325030696</desc><desc class="x_label">2002</desc></g><g class="dots"><desc class="label">288 wickets in 188 innings (1746.4 overs)</desc><circle class="dot reactive tooltip-trigger" cx="716.3380566801619" cy="98.53449019212513" r="2.5"/><desc class="value">25.79</desc><desc class="x left">716.3380566801619</desc><desc class="y left">98.53449019212513</desc><desc class="x_label">2003</desc></g><g class="dots"><desc class="label">291 wickets in 190 innings (1766.4 overs)</desc><circle class="dot reactive tooltip-trigger" cx="723.8076923076923" cy="98.12199337292333" r="2.5"/><desc class="value">25.82</desc><desc class="x left">723.8076923076923</desc><desc class="y left">98.12199337292333</desc><desc class="x_label">2005</desc></g></g><g class="series serie-2 color-2"/></g><g class="plot text-overlay" transform="translate(42, 46)"><g class="series serie-0 color-0"/><g class="series serie-1 color-1"/><g class="series serie-2 color-2"/></g><g class="plot tooltip-overlay" transform="translate(42, 46)"><g class="tooltip" style="opacity: 0" transform="translate(0 0)"><rect class="tooltip-box" height="0" rx="10" ry="10" width="0"/><g class="text"/></g></g><g class="legends" transform="translate(52, 545)"><g class="legend reactive activate-serie" id="activate-serie-0"><rect class="color-0 reactive" height="12" width="12" x="0.0" y="1.0"/><text x="17.0" y="11.2">Future Average</text></g><g class="legend reactive activate-serie" id="activate-serie-1"><rect class="color-1 reactive" height="12" width="12" x="369.0" y="1.0"/><text x="386.0" y="11.2">Past Average</text></g><g class="legend reactive activate-serie" id="activate-serie-2"><rect class="color-2 reactive" height="12" width="12" x="0.0" y="22.0"/><text x="17.0" y="32.2">Career Average</text></g></g></g></svg>