<?xml version='1.0' encoding='utf-8'?>
<svg xmlns:xlink="http://www.w3.org/1999/xlink" xmlns="http://www.w3.org/2000/svg" id="chart-f056666f-b1f8-4c71-8553-eb7024eaa86c" class="pygal-chart" viewBox="0 0 800 600"><!--Generated with pygal 2.4.0 (lxml) ©Kozea 2012-2016 on 2019-08-04--><!--http://pygal.org--><!--http://github.com/Kozea/pygal--><defs><style type="text/css">#chart-f056666f-b1f8-4c71-8553-eb7024eaa86c{-webkit-user-select:none;-webkit-font-smoothing:antialiased;font-family:Consolas,"Liberation Mono",Menlo,Courier,monospace}#chart-f056666f-b1f8-4c71-8553-eb7024eaa86c .title{font-family:Consolas,"Liberation Mono",Menlo,Courier,monospace;font-size:16px}#chart-f056666f-b1f8-4c71-8553-eb7024eaa86c .legends .legend text{font-family:Consolas,"Liberation Mono",Menlo,Courier,monospace;font-size:14px}#chart-f056666f-b1f8-4c71-8553-eb7024eaa86c .axis text{font-family:Consolas,"Liberation Mono",Menlo,Courier,monospace;font-size:10px}#chart-f056666f-b1f8-4c71-8553-eb7024eaa86c .axis text.major{font-family:Consolas,"Liberation Mono",Menlo,Courier,monospace;font-size:10px}#chart-f056666f-b1f8-4c71-8553-eb7024eaa86c .text-overlay text.value{font-family:Consolas,"Liberation Mono",Menlo,Courier,monospace;font-size:16px}#chart-f056666f-b1f8-4c71-8553-eb7024eaa86c .text-overlay text.label{font-family:Consolas,"Liberation Mono",Menlo,Courier,monospace;font-size:10px}#chart-f056666f-b1f8-4c71-8553-eb7024eaa86c .tooltip{font-family:Consolas,"Liberation Mono",Menlo,Courier,monospace;font-size:14px}#chart-f056666f-b1f8-4c71-8553-eb7024eaa86c text.no_data{font-family:Consolas,"Liberation Mono",Menlo,Courier,monospace;font-size:64px}
#chart-f056666f-b1f8-4c71-8553-eb7024eaa86c{background-color:rgba(249,249,249,1)}#chart-f056666f-b1f8-4c71-8553-eb7024eaa86c path,#chart-f056666f-b1f8-4c71-8553-eb7024eaa86c line,#chart-f056666f-b1f8-4c71-8553-eb7024eaa86c rect,#chart-f056666f-b1f8-4c71-8553-eb7024eaa86c circle{-webkit-transition:150ms;-moz-transition:150ms;transition:150ms}#chart-f056666f-b1f8-4c71-8553-eb7024eaa86c .graph &gt; .background{fill:rgba(249,249,249,1)}#chart-f056666f-b1f8-4c71-8553-eb7024eaa86c .plot &gt; .background{fill:rgba(255,255,255,1)}#chart-f056666f-b1f8-4c71-8553-eb7024eaa86c .graph{fill:rgba(0,0,0,.87)}#chart-f056666f-b1f8-4c71-8553-eb7024eaa86c text.no_data{fill:rgba(0,0,0,1)}#chart-f056666f-b1f8-4c71-8553-eb7024eaa86c .title{fill:rgba(0,0,0,1)}#chart-f056666f-b1f8-4c71-8553-eb7024eaa86c .legends .legend text{fill:rgba(0,0,0,.87)}#chart-f056666f-b1f8-4c71-8553-eb7024eaa86c .legends .legend:hover text{fill:rgba(0,0,0,1)}#chart-f056666f-b1f8-4c71-8553-eb7024eaa86c .axis .line{stroke:rgba(0,0,0,1)}#chart-f056666f-b1f8-4c71-8553-eb7024eaa86c .axis .guide.line{stroke:rgba(0,0,0,.54)}#chart-f056666f-b1f8-4c71-8553-eb7024eaa86c .axis .major.line{stroke:rgba(0,0,0,.87)}#chart-f056666f-b1f8-4c71-8553-eb7024eaa86c .axis text.major{fill:rgba(0,0,0,1)}#chart-f056666f-b1f8-4c71-8553-eb7024eaa86c .axis.y .guides:hover .guide.line,#chart-f056666f-b1f8-4c71-8553-eb7024eaa86c .line-graph .axis.x .guides:hover .guide.line,#chart-f056666f-b1f8-4c71-8553-eb7024eaa86c .stackedline-graph .axis.x .guides:hover .guide.line,#chart-f056666f-b1f8-4c71-8553-eb7024eaa86c .xy-graph .axis.x .guides:hover .guide.line{stroke:rgba(0,0,0,1)}#chart-f056666f-b1f8-4c71-8553-eb7024eaa86c .axis .guides:hover text{fill:rgba(0,0,0,1)}#chart-f056666f-b1f8-4c71-8553-eb7024eaa86c .reactive{fill-opacity:.7;stroke-opacity:.8}#chart-f056666f-b1f8-4c71-8553-eb7024eaa86c .ci{stroke:rgba(0,0,0,.87)}#chart-f056666f-b1f8-4c71-8553-eb7024eaa86c .reactive.active,#chart-f056666f-b1f8-4c71-8553-eb7024eaa86c .active .reactive{fill-opacity:.8;stroke-opacity:.9;stroke-width:4}#chart-f056666f-b1f8-4c71-8553-eb7024eaa86c .ci .reactive.active{stroke-width:1.5}#chart-f056666f-b1f8-4c71-8553-eb7024eaa86c .series text{fill:rgba(0,0,0,1)}#chart-f056666f-b1f8-4c71-8553-eb7024eaa86c .tooltip rect{fill:rgba(255,255,255,1);stroke:rgba(0,0,0,1);-webkit-transition:opacity 150ms;-moz-transition:opacity 150ms;transition:opacity 150ms}#chart-f056666f-b1f8-4c71-8553-eb7024eaa86c .tooltip .label{fill:rgba(0,0,0,.87)}#chart-f056666f-b1f8-4c71-8553-eb7024eaa86c .tooltip .label{fill:rgba(0,0,0,.87)}#chart-f056666f-b1f8-4c71-8553-eb7024eaa86c .tooltip .legend{font-size:.8em;fill:rgba(0,0,0,.54)}#chart-f056666f-b1f8-4c71-8553-eb7024eaa86c .tooltip .x_label{font-size:.6em;fill:rgba(0,0,0,1)}#chart-f056666f-b1f8-4c71-8553-eb7024eaa86c .tooltip .xlink{font-size:.5em;text-decoration:underline}#chart-f056666f-b1f8-4c71-8553-eb7024eaa86c .tooltip .value{font-size:1.5em}#chart-f056666f-b1f8-4c71-8553-eb7024eaa86c .bound{font-size:.5em}#chart-f056666f-b1f8-4c71-8553-eb7024eaa86c .max-value{font-size:.75em;fill:rgba(0,0,0,.54)}#chart-f056666f-b1f8-4c71-8553-eb7024eaa86c .map-element{fill:rgba(255,255,255,1);stroke:rgba(0,0,0,.54) !important}#chart-f056666f-b1f8-4c71-8553-eb7024eaa86c .map-element .reactive{fill-opacity:inherit;stroke-opacity:inherit}#chart-f056666f-b1f8-4c71-8553-eb7024eaa86c .color-0,#chart-f056666f-b1f8-4c71-8553-eb7024eaa86c .color-0 a:visited{stroke:red;fill:red}#chart-f056666f-b1f8-4c71-8553-eb7024eaa86c .color-1,#chart-f056666f-b1f8-4c71-8553-eb7024eaa86c .color-1 a:visited{stroke:blue;fill:blue}#chart-f056666f-b1f8-4c71-8553-eb7024eaa86c .color-2,#chart-f056666f-b1f8-4c71-8553-eb7024eaa86c .color-2 a:visited{stroke:green;fill:green}#chart-f056666f-b1f8-4c71-8553-eb7024eaa86c .text-overlay .color-0 text{fill:white}#chart-f056666f-b1f8-4c71-8553-eb7024eaa86c .text-overlay .color-1 text{fill:white}#chart-f056666f-b1f8-4c71-8553-eb7024eaa86c .text-overlay .color-2 text{fill:white}
#chart-f056666f-b1f8-4c71-8553-eb7024eaa86c text.no_data{text-anchor:middle}#chart-f056666f-b1f8-4c71-8553-eb7024eaa86c .guide.line{fill:none}#chart-f056666f-b1f8-4c71-8553-eb7024eaa86c .centered{text-anchor:middle}#chart-f056666f-b1f8-4c71-8553-eb7024eaa86c .title{text-anchor:middle}#chart-f056666f-b1f8-4c71-8553-eb7024eaa86c .legends .legend text{fill-opacity:1}#chart-f056666f-b1f8-4c71-8553-eb7024eaa86c .axis.x text{text-anchor:middle}#chart-f056666f-b1f8-4c71-8553-eb7024eaa86c .axis.x:not(.web) text[transform]{text-anchor:start}#chart-f056666f-b1f8-4c71-8553-eb7024eaa86c .axis.x:not(.web) text[transform].backwards{text-anchor:end}#chart-f056666f-b1f8-4c71-8553-eb7024eaa86c .axis.y text{text-anchor:end}#chart-f056666f-b1f8-4c71-8553-eb7024eaa86c .axis.y text[transform].backwards{text-anchor:start}#chart-f056666f-b1f8-4c71-8553-eb7024eaa86c .axis.y2 text{text-anchor:start}#chart-f056666f-b1f8-4c71-8553-eb7024eaa86c .axis.y2 text[transform].backwards{text-anchor:end}#chart-f056666f-b1f8-4c71-8553-eb7024eaa86c .axis .guide.line{stroke-dasharray:4,4}#chart-f056666f-b1f8-4c71-8553-eb7024eaa86c .axis .major.guide.line{stroke-dasharray:6,6}#chart-f056666f-b1f8-4c71-8553-eb7024eaa86c .horizontal .axis.y .guide.line,#chart-f056666f-b1f8-4c71-8553-eb7024eaa86c .horizontal .axis.y2 .guide.line,#chart-f056666f-b1f8-4c71-8553-eb7024eaa86c .vertical .axis.x .guide.line{opacity:0}#chart-f056666f-b1f8-4c71-8553-eb7024eaa86c .horizontal .axis.always_show .guide.line,#chart-f056666f-b1f8-4c71-8553-eb7024eaa86c .vertical .axis.always_show .guide.line{opacity:1 !important}#chart-f056666f-b1f8-4c71-8553-eb7024eaa86c .axis.y .guides:hover .guide.line,#chart-f056666f-b1f8-4c71-8553-eb7024eaa86c .axis.y2 .guides:hover .guide.line,#chart-f056666f-b1f8-4c71-8553-eb7024eaa86c .axis.x .guides:hover .guide.line{opacity:1}#chart-f056666f-b1f8-4c71-8553-eb7024eaa86c .axis .guides:hover text{opacity:1}#chart-f056666f-b1f8-4c71-8553-eb7024eaa86c .nofill{fill:none}#chart-f056666f-b1f8-4c71-8553-eb7024eaa86c .subtle-fill{fill-opacity:.2}#chart-f056666f-b1f8-4c71-8553-eb7024eaa86c .dot{stroke-width:1px;fill-opacity:1}#chart-f056666f-b1f8-4c71-8553-eb7024eaa86c .dot.active{stroke-width:5px}#chart-f056666f-b1f8-4c71-8553-eb7024eaa86c .dot.negative{fill:transparent}#chart-f056666f-b1f8-4c71-8553-eb7024eaa86c text,#chart-f056666f-b1f8-4c71-8553-eb7024eaa86c tspan{stroke:none !important}#chart-f056666f-b1f8-4c71-8553-eb7024eaa86c .series text.active{opacity:1}#chart-f056666f-b1f8-4c71-8553-eb7024eaa86c .tooltip rect{fill-opacity:.95;stroke-width:.5}#chart-f056666f-b1f8-4c71-8553-eb7024eaa86c .tooltip text{fill-opacity:1}#chart-f056666f-b1f8-4c71-8553-eb7024eaa86c .showable{visibility:hidden}#chart-f056666f-b1f8-4c71-8553-eb7024eaa86c .showable.shown{visibility:visible}#chart-f056666f-b1f8-4c71-8553-eb7024eaa86c .gauge-background{fill:rgba(229,229,229,1);stroke:none}#chart-f056666f-b1f8-4c71-8553-eb7024eaa86c .bg-lines{stroke:rgba(249,249,249,1);stroke-width:2px}</style><script type="text/javascript">window.pygal = window.pygal || {};window.pygal.config = window.pygal.config || {};window.pygal.config['f056666f-b1f8-4c71-8553-eb7024eaa86c'] = {"allow_interruptions": false, "box_mode": "extremes", "classes": ["pygal-chart"], "css": ["file://style.css", "file://graph.css"], "defs": [], "disable_xml_declaration": false, "dots_size": 2.5, "dynamic_print_values": false, "explicit_size": false, "fill": false, "force_uri_protocol": "https", "formatter": null, "half_pie": false, "height": 600, "include_x_axis": false, "inner_radius": 0, "interpolate": null, "interpolation_parameters": {}, "interpolation_precision": 250, "inverse_y_axis": false, "js": ["//kozea.github.io/pygal.js/2.0.x/pygal-tooltips.min.js"], "legend_at_bottom": true, "legend_at_bottom_columns": null, "legend_box_size": 12, "logarithmic": false, "margin": 20, "margin_bottom": null, "margin_left": null, "margin_right": null, "margin_top": null, "max_scale": 16, "min_scale": 4, "missing_value_fill_truncation": "x", "no_data_text": "No data", "no_prefix": false, "order_min": null, "pretty_print": false, "print_labels": false, "print_values": false, "print_values_position": "center", "print_zeroes": true, "range": null, "rounded_bars": null, "secondary_range": null, "show_dots": true, "show_legend": true, "show_minor_x_labels": false, "show_minor_y_labels": true, "show_only_major_dots": false, "show_x_guides": false, "show_x_labels": true, "show_y_guides": true, "show_y_labels": true, "spacing": 10, "stack_from_top": false, "strict": false, "stroke": true, "stroke_style": null, "style": {"background": "rgba(249, 249, 249, 1)", "ci_colors": [], "colors": ["red", "blue", "green", "#a3a3a3"], "font_family": "Consolas, \"Liberation Mono\", Menlo, Courier, monospace", "foreground": "rgba(0, 0, 0, .87)", "foreground_strong": "rgba(0, 0, 0, 1)", "foreground_subtle": "rgba(0, 0, 0, .54)", "guide_stroke_dasharray": "4,4", "label_font_family": "Consolas, \"Liberation Mono\", Menlo, Courier, monospace", "label_font_size": 10, "legend_font_family": "Consolas, \"Liberation Mono\", Menlo, Courier, monospace", "legend_font_size": 14, "major_guide_stroke_dasharray": "6,6", "major_label_font_family": "Consolas, \"Liberation Mono\", Menlo, Courier, monospace", "major_label_font_size": 10, "no_data_font_family": "Consolas, \"Liberation Mono\", Menlo, Courier, monospace", "no_data_font_size": 64, "opacity": ".7", "opacity_hover": ".8", "plot_background": "rgba(255, 255, 255, 1)", "stroke_opacity": ".8", "stroke_opacity_hover": ".9", "title_font_family": "Consolas, \"Liberation Mono\", Menlo, Courier, monospace", "title_font_size": 16, "tooltip_font_family": "Consolas, \"Liberation Mono\", Menlo, Courier, monospace", "tooltip_font_size": 14, "transition": "150ms", "value_background": "rgba(229, 229, 229, 1)", "value_colors": [], "value_font_family": "Consolas, \"Liberation Mono\", Menlo, Courier, monospace", "value_font_size": 16, "value_label_font_family": "Consolas, \"Liberation Mono\", Menlo, Courier, monospace", "value_label_font_size": 10}, "title": "SL Malinga: Future and Past Averages in ODIs", "tooltip_border_radius": 10, "tooltip_fancy_mode": true, "truncate_label": null, "truncate_legend": null, "width": 800, "x_label_rotation": 45, "x_labels": ["2004", "0", "0", "0", "2005", "2006", "0", "0", "0", "0", "0", "0", "0", "0", "0", "0", "0", "0", "0", "0", "0", "0", "0", "2007", "0", "0", "0", "0", "0", "0", "0", "0", "0", "0", "0", "0", "0", "0", "0", "0", "0", "0", "0", "2008", "0", "0", "0", "0", "0", "0", "0", "2009", "0", "0", "0", "0", "0", "0", "0", "0", "0", "0", "2010", "0", "0", "0", "0", "0", "0", "0", "0", "0", "2011", "0", "0", "0", "0", "0", "0", "0", "0", "0", "0", "0", "0", "0", "0", "0", "0", "0", "0", "0", "0", "0", "0", "2012", "0", "0", "0", "0", "0", "0", "0", "0", "0", "0", "0", "0", "0", "0", "0", "0", "0", "0", "0", "0", "0", "0", "0", "0", "0", "0", "0", "0", "0", "0", "2013", "0", "0", "0", "0", "0", "0", "0", "0", "0", "0", "0", "0", "0", "0", "0", "0", "0", "0", "0", "0", "0", "0", "0", "0", "0", "0", "0", "2014", "0", "0", "0", "0", "0", "0", "0", "0", "0", "0", "0", "0", "0", "0", "0", "0", "2015", "0", "0", "0", "0", "0", "0", "0", "0", "0", "0", "0", "0", "0", "2017", "0", "0", "0", "0", "0", "0", "0", "0", "0", "0", "0", "0", "2018", "0", "0", "0", "0", "0", "2019", "0", "0", "0", "0", "0", "0", "0", "0", "0", "0", "0", "0", "0", "0", "0"], "x_labels_major": ["2004", "2005", "2006", "2007", "2008", "2009", "2010", "2011", "2012", "2013", "2014", "2015", "2017", "2018", "2019"], "x_labels_major_count": null, "x_labels_major_every": null, "x_title": null, "xrange": null, "y_label_rotation": 0, "y_labels": null, "y_labels_major": null, "y_labels_major_count": null, "y_labels_major_every": null, "y_title": null, "zero": 60.0, "legends": ["Future Average", "Past Average", "Career Average"]}</script><script type="text/javascript" xlink:href="https://kozea.github.io/pygal.js/2.0.x/pygal-tooltips.min.js"/></defs><title>SL Malinga: Future and Past Averages in ODIs</title><g class="graph line-graph vertical"><rect class="background" height="600" width="800" x="0" y="0"/><g class="plot" transform="translate(42, 46)"><rect class="background" height="462.02943725152284" width="738.0" x="0" y="0"/><g class="axis y always_show"><g class="guides"><path class="axis major line" d="M0.000000 453.144256 h738.000000"/><text class="major" x="-5" y="456.6442557659166">0</text><title>0</title></g><g class="guides"><path class="guide line" d="M0.000000 365.605522 h738.000000"/><text class="" x="-5" y="369.1055219175796">10</text><title>10</title></g><g class="guides"><path class="guide line" d="M0.000000 278.066788 h738.000000"/><text class="" x="-5" y="281.5667880692426">20</text><title>20</title></g><g class="guides"><path class="guide line" d="M0.000000 190.528054 h738.000000"/><text class="" x="-5" y="194.02805422090552">30</text><title>30</title></g><g class="guides"><path class="guide line" d="M0.000000 102.989320 h738.000000"/><text class="" x="-5" y="106.48932037256856">40</text><title>40</title></g><g class="guides"><path class="major guide line" d="M0.000000 15.450587 h738.000000"/><text class="major" x="-5" y="18.950586524231483">50</text><title>50</title></g></g><g class="axis x"><g class="guides"><path class="major line" d="M14.192308 0.000000 v462.029437"/><text class="major" x="14.192307692307692" y="477.02943725152284" transform="rotate(45 14.192308 477.029437)">2004</text></g><g class="guides"><path class="major guide line" d="M27.153319 0.000000 v462.029437"/><text class="major" x="27.15331928345627" y="477.02943725152284" transform="rotate(45 27.153319 477.029437)">2005</text></g><g class="guides"><path class="major guide line" d="M30.393572 0.000000 v462.029437"/><text class="major" x="30.393572181243414" y="477.02943725152284" transform="rotate(45 30.393572 477.029437)">2006</text></g><g class="guides"><path class="major guide line" d="M88.718124 0.000000 v462.029437"/><text class="major" x="88.71812434141201" y="477.02943725152284" transform="rotate(45 88.718124 477.029437)">2007</text></g><g class="guides"><path class="major guide line" d="M153.523182 0.000000 v462.029437"/><text class="major" x="153.52318229715488" y="477.02943725152284" transform="rotate(45 153.523182 477.029437)">2008</text></g><g class="guides"><path class="major guide line" d="M179.445205 0.000000 v462.029437"/><text class="major" x="179.44520547945206" y="477.02943725152284" transform="rotate(45 179.445205 477.029437)">2009</text></g><g class="guides"><path class="major guide line" d="M215.087987 0.000000 v462.029437"/><text class="major" x="215.08798735511064" y="477.02943725152284" transform="rotate(45 215.087987 477.029437)">2010</text></g><g class="guides"><path class="major guide line" d="M247.490516 0.000000 v462.029437"/><text class="major" x="247.49051633298205" y="477.02943725152284" transform="rotate(45 247.490516 477.029437)">2011</text></g><g class="guides"><path class="major guide line" d="M322.016333 0.000000 v462.029437"/><text class="major" x="322.0163329820864" y="477.02943725152284" transform="rotate(45 322.016333 477.029437)">2012</text></g><g class="guides"><path class="major guide line" d="M422.464173 0.000000 v462.029437"/><text class="major" x="422.46417281348783" y="477.02943725152284" transform="rotate(45 422.464173 477.029437)">2013</text></g><g class="guides"><path class="major guide line" d="M513.191254 0.000000 v462.029437"/><text class="major" x="513.1912539515279" y="477.02943725152284" transform="rotate(45 513.191254 477.029437)">2014</text></g><g class="guides"><path class="major guide line" d="M568.275553 0.000000 v462.029437"/><text class="major" x="568.2755532139093" y="477.02943725152284" transform="rotate(45 568.275553 477.029437)">2015</text></g><g class="guides"><path class="major guide line" d="M613.639094 0.000000 v462.029437"/><text class="major" x="613.6390937829294" y="477.02943725152284" transform="rotate(45 613.639094 477.029437)">2017</text></g><g class="guides"><path class="major guide line" d="M655.762381 0.000000 v462.029437"/><text class="major" x="655.7623814541622" y="477.02943725152284" transform="rotate(45 655.762381 477.029437)">2018</text></g><g class="guides"><path class="major guide line" d="M675.203899 0.000000 v462.029437"/><text class="major" x="675.2038988408851" y="477.02943725152284" transform="rotate(45 675.203899 477.029437)">2019</text></g></g><g class="series serie-0 color-0"><path class="line reactive nofill" d="M14.192308 200.332392 L17.432561 200.595009 20.672813 200.507470 23.913066 200.419931 27.153319 201.470396 30.393572 202.695938 33.633825 202.871016 36.874078 201.995628 40.114331 202.871016 43.354584 201.295318 46.594837 200.945164 49.835090 200.770086 53.075342 200.857625 56.315595 198.931773 59.555848 200.244854 62.796101 200.419931 66.036354 201.382857 69.276607 199.719621 72.516860 198.844234 75.757113 200.157315 78.997366 199.194389 82.237619 197.356075 85.477871 197.618692 88.718124 198.231463 91.958377 196.130533 95.198630 196.655766 98.438883 198.231463 101.679136 195.867917 104.919389 194.117142 108.159642 194.379759 111.399895 192.453906 114.640148 191.666058 117.880400 191.315903 121.120653 191.053287 124.360906 190.703132 127.601159 192.366368 130.841412 193.416832 134.081665 192.979139 137.321918 190.878209 140.562171 190.965748 143.802424 192.804061 147.042677 193.066678 150.282929 192.453906 153.523182 191.228364 156.763435 192.103751 160.003688 192.979139 163.243941 193.416832 166.484194 191.053287 169.724447 190.265438 172.964700 190.790670 176.204953 190.965748 179.445205 191.578519 182.685458 192.278829 185.925711 193.504371 189.165964 196.218072 192.406217 193.154216 195.646470 193.241755 198.886723 194.992530 202.126976 194.467297 205.367229 194.904991 208.607482 196.918382 211.847734 198.844234 215.087987 201.470396 218.328240 197.531153 221.568493 196.743304 224.808746 196.655766 228.048999 194.642375 231.289252 195.955456 234.529505 194.554836 237.769758 194.117142 241.010011 194.467297 244.250263 194.642375 247.490516 195.867917 250.730769 194.379759 253.971022 192.103751 257.211275 186.501272 260.451528 188.514663 263.691781 188.864818 266.932034 189.477589 270.172287 187.989431 273.412540 187.289121 276.652792 185.100653 279.893045 185.538346 283.133298 185.275730 286.373551 186.413734 289.613804 188.952357 292.854057 183.700033 296.094310 184.312804 299.334563 178.622786 302.574816 176.609396 305.815068 173.895695 309.055321 175.471392 312.295574 172.670153 315.535827 172.319998 318.776080 172.670153 322.016333 172.407536 325.256586 167.155212 328.496839 167.417828 331.737092 165.141821 334.977345 166.367364 338.217597 167.067674 341.457850 167.943061 344.698103 167.067674 347.938356 166.367364 351.178609 166.892596 354.418862 166.279825 357.659115 167.592906 360.899368 171.006917 364.139621 166.542441 367.379874 168.905987 370.620126 165.579515 373.860379 169.518758 377.100632 172.057381 380.340885 173.720617 383.581138 173.282924 386.821391 171.882304 390.061644 170.481684 393.301897 168.468293 396.542150 169.606297 399.782403 174.596005 403.022655 172.932769 406.262908 172.670153 409.503161 173.195385 412.743414 171.181994 415.983667 169.518758 419.223920 170.043991 422.464173 172.495075 425.704426 174.420927 428.944679 170.131529 432.184932 164.441512 435.425184 162.165504 438.665437 163.303508 441.905690 162.165504 445.145943 159.451804 448.386196 152.011011 451.626449 151.135624 454.866702 153.149015 458.106955 157.263335 461.347208 159.889497 464.587460 157.788568 467.827713 155.775177 471.067966 156.300409 474.308219 158.226261 477.548472 157.175797 480.788725 155.862716 484.028978 157.701029 487.269231 153.586709 490.509484 151.310701 493.749737 154.899790 496.989989 157.613490 500.230242 162.603198 503.470495 166.542441 506.710748 168.730909 509.951001 172.232459 513.191254 165.754593 516.431507 166.104747 519.671760 164.178895 522.912013 152.886399 526.152266 155.337483 529.392518 157.613490 532.632771 145.620684 535.873024 153.149015 539.113277 151.310701 542.353530 152.711321 545.593783 147.021303 548.834036 140.543437 552.074289 146.671149 555.314542 132.314796 558.554795 142.819444 561.795047 145.883300 565.035300 144.044987 568.275553 141.681441 571.515806 152.623782 574.756059 144.132525 577.996312 133.978032 581.236565 137.829736 584.476818 135.903884 587.717071 129.075863 590.957323 130.038789 594.197576 138.967740 597.437829 137.654659 600.678082 145.095451 603.918335 146.933765 607.158588 150.347775 610.398841 145.708222 613.639094 140.630976 616.879347 151.223163 620.119600 151.398240 623.359852 154.899790 626.600105 158.401339 629.840358 161.815350 633.080611 169.693836 636.320864 173.458001 639.561117 169.081064 642.801370 180.461100 646.041623 191.228364 649.281876 190.090361 652.522129 202.083167 655.762381 203.571326 659.002634 179.410635 662.242887 188.864818 665.483140 199.019311 668.723393 166.192286 671.963646 178.885403 675.203899 183.700033 678.444152 189.477589 681.684405 183.700033 684.924658 183.962649 688.164910 200.157315 691.405163 191.053287 694.645416 210.574424 697.885669 230.183101 701.125922 228.257249 704.366175 253.468404 707.606428 233.597111 710.846681 259.858731 714.086934 210.224269 717.327187 234.297421 720.567439 190.528054 723.807692 342.232680"/></g><g class="series serie-1 color-1"><path class="line reactive nofill" d="M14.192308 453.144256 L17.432561 111.743194 20.672813 177.397244 23.913066 192.716523 27.153319 105.177789 30.393572 8.885181 33.633825 31.207559 36.874078 124.261233 40.114331 81.717408 43.354584 170.394145 46.594837 184.662959 49.835090 191.753596 53.075342 190.002822 56.315595 223.355079 59.555848 202.345783 62.796101 199.281928 66.036354 183.962649 69.276607 209.523959 72.516860 219.941069 75.757113 202.783477 78.997366 214.163512 82.237619 230.095562 85.477871 226.068780 88.718124 219.065681 91.958377 234.735115 95.198630 229.132636 98.438883 217.052291 101.679136 231.758798 104.919389 241.300520 108.159642 238.499280 111.399895 246.202689 114.640148 248.478696 117.880400 247.953464 121.120653 248.303619 124.360906 247.953464 127.601159 239.812361 130.841412 234.735115 134.081665 235.960657 137.321918 243.488988 140.562171 242.350985 143.802424 234.122344 147.042677 232.196492 150.282929 233.772189 153.523182 237.186199 156.763435 233.159418 160.003688 229.307713 163.243941 226.944168 166.484194 233.597111 169.724447 235.085270 172.964700 232.896801 176.204953 231.758798 179.445205 229.220175 182.685458 226.506474 185.925711 222.479692 189.165964 213.813357 192.406217 222.304615 195.646470 221.604305 198.886723 216.089365 202.126976 217.227368 205.367229 215.651671 208.607482 209.961653 211.847734 204.534252 215.087987 197.268537 218.328240 207.598107 221.568493 209.436421 224.808746 209.348882 228.048999 213.550741 231.289252 210.574424 234.529505 213.463202 237.769758 213.988435 241.010011 213.025509 244.250263 212.500276 247.490516 209.961653 250.730769 212.500276 253.971022 216.527058 257.211275 225.631086 260.451528 221.866921 263.691781 221.079072 266.932034 219.678453 270.172287 221.429227 273.412540 222.129537 276.652792 224.843238 279.893045 223.792773 283.133298 223.705234 286.373551 221.866921 289.613804 217.927678 292.854057 224.493083 296.094310 223.355079 299.334563 229.657868 302.574816 231.583720 305.815068 234.034805 309.055321 231.933875 312.295574 234.209882 315.535827 233.859727 318.776080 233.071879 322.016333 232.984340 325.256586 236.836044 328.496839 236.135735 331.737092 237.711432 334.977345 235.960657 338.217597 234.472499 341.457850 233.246956 344.698103 233.334495 347.938356 233.159418 351.178609 232.284030 354.418862 232.108953 357.659115 230.533256 360.899368 227.119245 364.139621 229.745407 367.379874 227.381861 370.620126 229.132636 373.860379 225.893703 377.100632 223.792773 380.340885 222.392153 383.581138 222.567231 386.821391 223.092463 390.061644 223.880312 393.301897 224.930777 396.542150 223.792773 399.782403 219.941069 403.022655 220.728917 406.262908 220.466301 409.503161 219.853530 412.743414 220.466301 415.983667 221.166611 419.223920 220.553840 422.464173 218.890604 425.704426 217.402446 428.944679 219.503375 432.184932 222.217076 435.425184 223.092463 438.665437 222.129537 441.905690 222.217076 445.145943 223.180002 448.386196 225.981241 451.626449 225.718625 454.866702 224.405544 458.106955 222.304615 461.347208 220.991534 464.587460 221.516766 467.827713 221.866921 471.067966 221.604305 474.308219 220.378762 477.548472 220.641379 480.788725 220.991534 484.028978 219.853530 487.269231 220.903995 490.509484 221.604305 493.749737 220.028608 496.989989 218.890604 500.230242 216.702136 503.470495 214.776283 506.710748 213.638280 509.951001 212.150121 513.191254 214.075974 516.431507 213.725819 519.671760 214.075974 522.912013 217.052291 526.152266 216.001826 529.392518 215.213977 532.632771 217.927678 535.873024 215.476593 539.113277 215.826748 542.353530 215.389055 545.593783 216.351981 548.834036 217.402446 552.074289 215.651671 555.314542 218.452910 558.554795 215.651671 561.795047 214.601206 565.035300 214.513667 568.275553 214.863822 571.515806 212.150121 574.756059 213.463202 577.996312 214.951361 581.236565 213.900896 584.476818 213.725819 587.717071 214.513667 590.957323 214.075974 594.197576 212.325199 597.437829 212.062583 600.678082 210.399347 603.918335 209.874114 607.158588 209.261343 610.398841 209.611498 613.639094 210.049192 616.879347 208.298417 620.119600 207.860724 623.359852 207.160414 626.600105 206.460104 629.840358 206.022410 633.080611 204.709329 636.320864 204.184097 639.561117 204.534252 642.801370 203.046093 646.041623 201.645473 649.281876 201.733012 652.522129 200.157315 655.762381 199.982237 659.002634 202.608399 662.242887 201.557935 665.483140 200.507470 668.723393 203.308709 671.963646 202.258245 675.203899 201.820551 678.444152 201.207780 681.684405 201.557935 684.924658 201.382857 688.164910 200.419931 691.405163 200.857625 694.645416 199.807160 697.885669 198.756695 701.125922 199.019311 704.366175 197.706230 707.606428 199.019311 710.846681 198.143924 714.086934 200.157315 717.327187 199.632083 720.567439 200.507470 723.807692 199.106850"/></g><g class="series serie-2 color-2"><path class="line reactive nofill" d="M14.192308 200.332392 L17.432561 200.332392 20.672813 200.332392 23.913066 200.332392 27.153319 200.332392 30.393572 200.332392 33.633825 200.332392 36.874078 200.332392 40.114331 200.332392 43.354584 200.332392 46.594837 200.332392 49.835090 200.332392 53.075342 200.332392 56.315595 200.332392 59.555848 200.332392 62.796101 200.332392 66.036354 200.332392 69.276607 200.332392 72.516860 200.332392 75.757113 200.332392 78.997366 200.332392 82.237619 200.332392 85.477871 200.332392 88.718124 200.332392 91.958377 200.332392 95.198630 200.332392 98.438883 200.332392 101.679136 200.332392 104.919389 200.332392 108.159642 200.332392 111.399895 200.332392 114.640148 200.332392 117.880400 200.332392 121.120653 200.332392 124.360906 200.332392 127.601159 200.332392 130.841412 200.332392 134.081665 200.332392 137.321918 200.332392 140.562171 200.332392 143.802424 200.332392 147.042677 200.332392 150.282929 200.332392 153.523182 200.332392 156.763435 200.332392 160.003688 200.332392 163.243941 200.332392 166.484194 200.332392 169.724447 200.332392 172.964700 200.332392 176.204953 200.332392 179.445205 200.332392 182.685458 200.332392 185.925711 200.332392 189.165964 200.332392 192.406217 200.332392 195.646470 200.332392 198.886723 200.332392 202.126976 200.332392 205.367229 200.332392 208.607482 200.332392 211.847734 200.332392 215.087987 200.332392 218.328240 200.332392 221.568493 200.332392 224.808746 200.332392 228.048999 200.332392 231.289252 200.332392 234.529505 200.332392 237.769758 200.332392 241.010011 200.332392 244.250263 200.332392 247.490516 200.332392 250.730769 200.332392 253.971022 200.332392 257.211275 200.332392 260.451528 200.332392 263.691781 200.332392 266.932034 200.332392 270.172287 200.332392 273.412540 200.332392 276.652792 200.332392 279.893045 200.332392 283.133298 200.332392 286.373551 200.332392 289.613804 200.332392 292.854057 200.332392 296.094310 200.332392 299.334563 200.332392 302.574816 200.332392 305.815068 200.332392 309.055321 200.332392 312.295574 200.332392 315.535827 200.332392 318.776080 200.332392 322.016333 200.332392 325.256586 200.332392 328.496839 200.332392 331.737092 200.332392 334.977345 200.332392 338.217597 200.332392 341.457850 200.332392 344.698103 200.332392 347.938356 200.332392 351.178609 200.332392 354.418862 200.332392 357.659115 200.332392 360.899368 200.332392 364.139621 200.332392 367.379874 200.332392 370.620126 200.332392 373.860379 200.332392 377.100632 200.332392 380.340885 200.332392 383.581138 200.332392 386.821391 200.332392 390.061644 200.332392 393.301897 200.332392 396.542150 200.332392 399.782403 200.332392 403.022655 200.332392 406.262908 200.332392 409.503161 200.332392 412.743414 200.332392 415.983667 200.332392 419.223920 200.332392 422.464173 200.332392 425.704426 200.332392 428.944679 200.332392 432.184932 200.332392 435.425184 200.332392 438.665437 200.332392 441.905690 200.332392 445.145943 200.332392 448.386196 200.332392 451.626449 200.332392 454.866702 200.332392 458.106955 200.332392 461.347208 200.332392 464.587460 200.332392 467.827713 200.332392 471.067966 200.332392 474.308219 200.332392 477.548472 200.332392 480.788725 200.332392 484.028978 200.332392 487.269231 200.332392 490.509484 200.332392 493.749737 200.332392 496.989989 200.332392 500.230242 200.332392 503.470495 200.332392 506.710748 200.332392 509.951001 200.332392 513.191254 200.332392 516.431507 200.332392 519.671760 200.332392 522.912013 200.332392 526.152266 200.332392 529.392518 200.332392 532.632771 200.332392 535.873024 200.332392 539.113277 200.332392 542.353530 200.332392 545.593783 200.332392 548.834036 200.332392 552.074289 200.332392 555.314542 200.332392 558.554795 200.332392 561.795047 200.332392 565.035300 200.332392 568.275553 200.332392 571.515806 200.332392 574.756059 200.332392 577.996312 200.332392 581.236565 200.332392 584.476818 200.332392 587.717071 200.332392 590.957323 200.332392 594.197576 200.332392 597.437829 200.332392 600.678082 200.332392 603.918335 200.332392 607.158588 200.332392 610.398841 200.332392 613.639094 200.332392 616.879347 200.332392 620.119600 200.332392 623.359852 200.332392 626.600105 200.332392 629.840358 200.332392 633.080611 200.332392 636.320864 200.332392 639.561117 200.332392 642.801370 200.332392 646.041623 200.332392 649.281876 200.332392 652.522129 200.332392 655.762381 200.332392 659.002634 200.332392 662.242887 200.332392 665.483140 200.332392 668.723393 200.332392 671.963646 200.332392 675.203899 200.332392 678.444152 200.332392 681.684405 200.332392 684.924658 200.332392 688.164910 200.332392 691.405163 200.332392 694.645416 200.332392 697.885669 200.332392 701.125922 200.332392 704.366175 200.332392 707.606428 200.332392 710.846681 200.332392 714.086934 200.332392 717.327187 200.332392 720.567439 200.332392 723.807692 200.332392"/></g></g><g class="titles"><text class="title plot_title" x="400.0" y="26">SL Malinga: Future and Past Averages in ODIs</text></g><g class="plot overlay" transform="translate(42, 46)"><g class="series serie-0 color-0"><g class="dots"><desc class="label">338 wickets in 220 innings (1822.4 overs)</desc><circle class="dot reactive tooltip-trigger" cx="14.192307692307692" cy="200.33239241191933" r="2.5"/><desc class="value">28.88</desc><desc class="x ">14.192307692307692</desc><desc class="y ">200.33239241191933</desc><desc class="x_label">2004</desc></g><g class="dots"><desc class="label">334 wickets in 216 innings (1788.4 overs)</desc><circle class="dot reactive tooltip-trigger" cx="27.15331928345627" cy="201.4703959519477" r="2.5"/><desc class="value">28.75</desc><desc class="x ">27.15331928345627</desc><desc class="y ">201.4703959519477</desc><desc class="x_label">2005</desc></g><g class="dots"><desc class="label">334 wickets in 215 innings (1782.4 overs)</desc><circle class="dot reactive tooltip-trigger" cx="30.393572181243414" cy="202.69593822582442" r="2.5"/><desc class="value">28.61</desc><desc class="x ">30.393572181243414</desc><desc class="y ">202.69593822582442</desc><desc class="x_label">2006</desc></g><g class="dots"><desc class="label">304 wickets in 197 innings (1629.5 overs)</desc><circle class="dot reactive tooltip-trigger" cx="88.71812434141201" cy="198.2314627995592" r="2.5"/><desc class="value">29.12</desc><desc class="x ">88.71812434141201</desc><desc class="y ">198.2314627995592</desc><desc class="x_label">2007</desc></g><g class="dots"><desc class="label">271 wickets in 177 innings (1472.3 overs)</desc><circle class="dot reactive tooltip-trigger" cx="153.52318229715488" cy="191.22836409169224" r="2.5"/><desc class="value">29.92</desc><desc class="x ">153.52318229715488</desc><desc class="y ">191.22836409169224</desc><desc class="x_label">2008</desc></g><g class="dots"><desc class="label">259 wickets in 169 innings (1401.5 overs)</desc><circle class="dot reactive tooltip-trigger" cx="179.44520547945206" cy="191.57851902708558" r="2.5"/><desc class="value">29.88</desc><desc class="x ">179.44520547945206</desc><desc class="y ">191.57851902708558</desc><desc class="x_label">2009</desc></g><g class="dots"><desc class="label">248 wickets in 158 innings (1303.4 overs)</desc><circle class="dot reactive tooltip-trigger" cx="215.08798735511064" cy="201.4703959519477" r="2.5"/><desc class="value">28.75</desc><desc class="x ">215.08798735511064</desc><desc class="y ">201.4703959519477</desc><desc class="x_label">2010</desc></g><g class="dots"><desc class="label">230 wickets in 148 innings (1216.4 overs)</desc><circle class="dot reactive tooltip-trigger" cx="247.49051633298205" cy="195.86791698565406" r="2.5"/><desc class="value">29.39</desc><desc class="x ">247.49051633298205</desc><desc class="y ">195.86791698565406</desc><desc class="x_label">2011</desc></g><g class="dots"><desc class="label">182 wickets in 125 innings (1024.3 overs)</desc><circle class="dot reactive tooltip-trigger" cx="322.0163329820864" cy="172.40753631429976" r="2.5"/><desc class="value">32.07</desc><desc class="x ">322.0163329820864</desc><desc class="y ">172.40753631429976</desc><desc class="x_label">2012</desc></g><g class="dots"><desc class="label">135 wickets in 94 innings (758.3 overs)</desc><circle class="dot reactive tooltip-trigger" cx="422.46417281348783" cy="172.49507504814812" r="2.5"/><desc class="value">32.06</desc><desc class="x left">422.46417281348783</desc><desc class="y left">172.49507504814812</desc><desc class="x_label">2013</desc></g><g class="dots"><desc class="label">96 wickets in 66 innings (540.2 overs)</desc><circle class="dot reactive tooltip-trigger" cx="513.1912539515279" cy="165.75459254182618" r="2.5"/><desc class="value">32.83</desc><desc class="x left">513.1912539515279</desc><desc class="y left">165.75459254182618</desc><desc class="x_label">2014</desc></g><g class="dots"><desc class="label">67 wickets in 49 innings (409.3 overs)</desc><circle class="dot reactive tooltip-trigger" cx="568.2755532139093" cy="141.68144073353346" r="2.5"/><desc class="value">35.58</desc><desc class="x left">568.2755532139093</desc><desc class="y left">141.68144073353346</desc><desc class="x_label">2015</desc></g><g class="dots"><desc class="label">47 wickets in 35 innings (288.1 overs)</desc><circle class="dot reactive tooltip-trigger" cx="613.6390937829294" cy="140.6309759273534" r="2.5"/><desc class="value">35.7</desc><desc class="x left">613.6390937829294</desc><desc class="y left">140.6309759273534</desc><desc class="x_label">2017</desc></g><g class="dots"><desc class="label">37 wickets in 22 innings (184.2 overs)</desc><circle class="dot reactive tooltip-trigger" cx="655.7623814541622" cy="203.57132556430776" r="2.5"/><desc class="value">28.51</desc><desc class="x left">655.7623814541622</desc><desc class="y left">203.57132556430776</desc><desc class="x_label">2018</desc></g><g class="dots"><desc class="label">27 wickets in 16 innings (140.2 overs)</desc><circle class="dot reactive tooltip-trigger" cx="675.2038988408851" cy="183.70003298073527" r="2.5"/><desc class="value">30.78</desc><desc class="x left">675.2038988408851</desc><desc class="y left">183.70003298073527</desc><desc class="x_label">2019</desc></g></g><g class="series serie-1 color-1"><g class="dots"><desc class="label">0 wickets over 0 innings</desc><circle class="dot reactive tooltip-trigger" cx="14.192307692307692" cy="453.1442557659166" r="2.5"/><desc class="value">0</desc><desc class="x top">14.192307692307692</desc><desc class="y top">453.1442557659166</desc><desc class="x_label">2004</desc></g><g class="dots"><desc class="label">4 wickets in 4 innings (34.0 overs)</desc><circle class="dot reactive tooltip-trigger" cx="27.15331928345627" cy="105.17778871877692" r="2.5"/><desc class="value">39.75</desc><desc class="x ">27.15331928345627</desc><desc class="y ">105.17778871877692</desc><desc class="x_label">2005</desc></g><g class="dots"><desc class="label">4 wickets in 5 innings (40.0 overs)</desc><circle class="dot reactive tooltip-trigger" cx="30.393572181243414" cy="8.88518148560621" r="2.5"/><desc class="value">50.75</desc><desc class="x ">30.393572181243414</desc><desc class="y ">8.88518148560621</desc><desc class="x_label">2006</desc></g><g class="dots"><desc class="label">34 wickets in 23 innings (192.5 overs)</desc><circle class="dot reactive tooltip-trigger" cx="88.71812434141201" cy="219.06568145546345" r="2.5"/><desc class="value">26.74</desc><desc class="x ">88.71812434141201</desc><desc class="y ">219.06568145546345</desc><desc class="x_label">2007</desc></g><g class="dots"><desc class="label">67 wickets in 43 innings (350.1 overs)</desc><circle class="dot reactive tooltip-trigger" cx="153.52318229715488" cy="237.18619936206917" r="2.5"/><desc class="value">24.67</desc><desc class="x top">153.52318229715488</desc><desc class="y top">237.18619936206917</desc><desc class="x_label">2008</desc></g><g class="dots"><desc class="label">79 wickets in 51 innings (420.5 overs)</desc><circle class="dot reactive tooltip-trigger" cx="179.44520547945206" cy="229.2201745818705" r="2.5"/><desc class="value">25.58</desc><desc class="x ">179.44520547945206</desc><desc class="y ">229.2201745818705</desc><desc class="x_label">2009</desc></g><g class="dots"><desc class="label">90 wickets in 62 innings (519.0 overs)</desc><circle class="dot reactive tooltip-trigger" cx="215.08798735511064" cy="197.2685367272275" r="2.5"/><desc class="value">29.23</desc><desc class="x ">215.08798735511064</desc><desc class="y ">197.2685367272275</desc><desc class="x_label">2010</desc></g><g class="dots"><desc class="label">108 wickets in 72 innings (606.0 overs)</desc><circle class="dot reactive tooltip-trigger" cx="247.49051633298205" cy="209.96165313523633" r="2.5"/><desc class="value">27.78</desc><desc class="x ">247.49051633298205</desc><desc class="y ">209.96165313523633</desc><desc class="x_label">2011</desc></g><g class="dots"><desc class="label">156 wickets in 95 innings (798.1 overs)</desc><circle class="dot reactive tooltip-trigger" cx="322.0163329820864" cy="232.984340137349" r="2.5"/><desc class="value">25.15</desc><desc class="x top">322.0163329820864</desc><desc class="y top">232.984340137349</desc><desc class="x_label">2012</desc></g><g class="dots"><desc class="label">203 wickets in 126 innings (1064.1 overs)</desc><circle class="dot reactive tooltip-trigger" cx="422.46417281348783" cy="218.89060398776672" r="2.5"/><desc class="value">26.76</desc><desc class="x left">422.46417281348783</desc><desc class="y left">218.89060398776672</desc><desc class="x_label">2013</desc></g><g class="dots"><desc class="label">242 wickets in 154 innings (1282.2 overs)</desc><circle class="dot reactive tooltip-trigger" cx="513.1912539515279" cy="214.0759736261082" r="2.5"/><desc class="value">27.31</desc><desc class="x left">513.1912539515279</desc><desc class="y left">214.0759736261082</desc><desc class="x_label">2014</desc></g><g class="dots"><desc class="label">271 wickets in 171 innings (1413.1 overs)</desc><circle class="dot reactive tooltip-trigger" cx="568.2755532139093" cy="214.86382223074324" r="2.5"/><desc class="value">27.22</desc><desc class="x left">568.2755532139093</desc><desc class="y left">214.86382223074324</desc><desc class="x_label">2015</desc></g><g class="dots"><desc class="label">291 wickets in 185 innings (1534.3 overs)</desc><circle class="dot reactive tooltip-trigger" cx="613.6390937829294" cy="210.0491918690847" r="2.5"/><desc class="value">27.77</desc><desc class="x left">613.6390937829294</desc><desc class="y left">210.0491918690847</desc><desc class="x_label">2017</desc></g><g class="dots"><desc class="label">301 wickets in 198 innings (1638.2 overs)</desc><circle class="dot reactive tooltip-trigger" cx="655.7623814541622" cy="199.98223747652594" r="2.5"/><desc class="value">28.92</desc><desc class="x left">655.7623814541622</desc><desc class="y left">199.98223747652594</desc><desc class="x_label">2018</desc></g><g class="dots"><desc class="label">311 wickets in 204 innings (1682.2 overs)</desc><circle class="dot reactive tooltip-trigger" cx="675.2038988408851" cy="201.82055088734103" r="2.5"/><desc class="value">28.71</desc><desc class="x left">675.2038988408851</desc><desc class="y left">201.82055088734103</desc><desc class="x_label">2019</desc></g></g><g class="series serie-2 color-2"/></g><g class="plot text-overlay" transform="translate(42, 46)"><g class="series serie-0 color-0"/><g class="series serie-1 color-1"/><g class="series serie-2 color-2"/></g><g class="plot tooltip-overlay" transform="translate(42, 46)"><g class="tooltip" style="opacity: 0" transform="translate(0 0)"><rect class="tooltip-box" height="0" rx="10" ry="10" width="0"/><g class="text"/></g></g><g class="legends" transform="translate(52, 545)"><g class="legend reactive activate-serie" id="activate-serie-0"><rect class="color-0 reactive" height="12" width="12" x="0.0" y="1.0"/><text x="17.0" y="11.2">Future Average</text></g><g class="legend reactive activate-serie" id="activate-serie-1"><rect class="color-1 reactive" height="12" width="12" x="369.0" y="1.0"/><text x="386.0" y="11.2">Past Average</text></g><g class="legend reactive activate-serie" id="activate-serie-2"><rect class="color-2 reactive" height="12" width="12" x="0.0" y="22.0"/><text x="17.0" y="32.2">Career Average</text></g></g></g></svg>