<?xml version='1.0' encoding='utf-8'?>
<svg xmlns:xlink="http://www.w3.org/1999/xlink" xmlns="http://www.w3.org/2000/svg" id="chart-1a2add65-7737-47b8-8708-43c17d72593c" class="pygal-chart" viewBox="0 0 800 600"><!--Generated with pygal 2.4.0 (lxml) ©Kozea 2012-2016 on 2019-08-04--><!--http://pygal.org--><!--http://github.com/Kozea/pygal--><defs><style type="text/css">#chart-1a2add65-7737-47b8-8708-43c17d72593c{-webkit-user-select:none;-webkit-font-smoothing:antialiased;font-family:Consolas,"Liberation Mono",Menlo,Courier,monospace}#chart-1a2add65-7737-47b8-8708-43c17d72593c .title{font-family:Consolas,"Liberation Mono",Menlo,Courier,monospace;font-size:16px}#chart-1a2add65-7737-47b8-8708-43c17d72593c .legends .legend text{font-family:Consolas,"Liberation Mono",Menlo,Courier,monospace;font-size:14px}#chart-1a2add65-7737-47b8-8708-43c17d72593c .axis text{font-family:Consolas,"Liberation Mono",Menlo,Courier,monospace;font-size:10px}#chart-1a2add65-7737-47b8-8708-43c17d72593c .axis text.major{font-family:Consolas,"Liberation Mono",Menlo,Courier,monospace;font-size:10px}#chart-1a2add65-7737-47b8-8708-43c17d72593c .text-overlay text.value{font-family:Consolas,"Liberation Mono",Menlo,Courier,monospace;font-size:16px}#chart-1a2add65-7737-47b8-8708-43c17d72593c .text-overlay text.label{font-family:Consolas,"Liberation Mono",Menlo,Courier,monospace;font-size:10px}#chart-1a2add65-7737-47b8-8708-43c17d72593c .tooltip{font-family:Consolas,"Liberation Mono",Menlo,Courier,monospace;font-size:14px}#chart-1a2add65-7737-47b8-8708-43c17d72593c text.no_data{font-family:Consolas,"Liberation Mono",Menlo,Courier,monospace;font-size:64px}
#chart-1a2add65-7737-47b8-8708-43c17d72593c{background-color:rgba(249,249,249,1)}#chart-1a2add65-7737-47b8-8708-43c17d72593c path,#chart-1a2add65-7737-47b8-8708-43c17d72593c line,#chart-1a2add65-7737-47b8-8708-43c17d72593c rect,#chart-1a2add65-7737-47b8-8708-43c17d72593c circle{-webkit-transition:150ms;-moz-transition:150ms;transition:150ms}#chart-1a2add65-7737-47b8-8708-43c17d72593c .graph &gt; .background{fill:rgba(249,249,249,1)}#chart-1a2add65-7737-47b8-8708-43c17d72593c .plot &gt; .background{fill:rgba(255,255,255,1)}#chart-1a2add65-7737-47b8-8708-43c17d72593c .graph{fill:rgba(0,0,0,.87)}#chart-1a2add65-7737-47b8-8708-43c17d72593c text.no_data{fill:rgba(0,0,0,1)}#chart-1a2add65-7737-47b8-8708-43c17d72593c .title{fill:rgba(0,0,0,1)}#chart-1a2add65-7737-47b8-8708-43c17d72593c .legends .legend text{fill:rgba(0,0,0,.87)}#chart-1a2add65-7737-47b8-8708-43c17d72593c .legends .legend:hover text{fill:rgba(0,0,0,1)}#chart-1a2add65-7737-47b8-8708-43c17d72593c .axis .line{stroke:rgba(0,0,0,1)}#chart-1a2add65-7737-47b8-8708-43c17d72593c .axis .guide.line{stroke:rgba(0,0,0,.54)}#chart-1a2add65-7737-47b8-8708-43c17d72593c .axis .major.line{stroke:rgba(0,0,0,.87)}#chart-1a2add65-7737-47b8-8708-43c17d72593c .axis text.major{fill:rgba(0,0,0,1)}#chart-1a2add65-7737-47b8-8708-43c17d72593c .axis.y .guides:hover .guide.line,#chart-1a2add65-7737-47b8-8708-43c17d72593c .line-graph .axis.x .guides:hover .guide.line,#chart-1a2add65-7737-47b8-8708-43c17d72593c .stackedline-graph .axis.x .guides:hover .guide.line,#chart-1a2add65-7737-47b8-8708-43c17d72593c .xy-graph .axis.x .guides:hover .guide.line{stroke:rgba(0,0,0,1)}#chart-1a2add65-7737-47b8-8708-43c17d72593c .axis .guides:hover text{fill:rgba(0,0,0,1)}#chart-1a2add65-7737-47b8-8708-43c17d72593c .reactive{fill-opacity:.7;stroke-opacity:.8}#chart-1a2add65-7737-47b8-8708-43c17d72593c .ci{stroke:rgba(0,0,0,.87)}#chart-1a2add65-7737-47b8-8708-43c17d72593c .reactive.active,#chart-1a2add65-7737-47b8-8708-43c17d72593c .active .reactive{fill-opacity:.8;stroke-opacity:.9;stroke-width:4}#chart-1a2add65-7737-47b8-8708-43c17d72593c .ci .reactive.active{stroke-width:1.5}#chart-1a2add65-7737-47b8-8708-43c17d72593c .series text{fill:rgba(0,0,0,1)}#chart-1a2add65-7737-47b8-8708-43c17d72593c .tooltip rect{fill:rgba(255,255,255,1);stroke:rgba(0,0,0,1);-webkit-transition:opacity 150ms;-moz-transition:opacity 150ms;transition:opacity 150ms}#chart-1a2add65-7737-47b8-8708-43c17d72593c .tooltip .label{fill:rgba(0,0,0,.87)}#chart-1a2add65-7737-47b8-8708-43c17d72593c .tooltip .label{fill:rgba(0,0,0,.87)}#chart-1a2add65-7737-47b8-8708-43c17d72593c .tooltip .legend{font-size:.8em;fill:rgba(0,0,0,.54)}#chart-1a2add65-7737-47b8-8708-43c17d72593c .tooltip .x_label{font-size:.6em;fill:rgba(0,0,0,1)}#chart-1a2add65-7737-47b8-8708-43c17d72593c .tooltip .xlink{font-size:.5em;text-decoration:underline}#chart-1a2add65-7737-47b8-8708-43c17d72593c .tooltip .value{font-size:1.5em}#chart-1a2add65-7737-47b8-8708-43c17d72593c .bound{font-size:.5em}#chart-1a2add65-7737-47b8-8708-43c17d72593c .max-value{font-size:.75em;fill:rgba(0,0,0,.54)}#chart-1a2add65-7737-47b8-8708-43c17d72593c .map-element{fill:rgba(255,255,255,1);stroke:rgba(0,0,0,.54) !important}#chart-1a2add65-7737-47b8-8708-43c17d72593c .map-element .reactive{fill-opacity:inherit;stroke-opacity:inherit}#chart-1a2add65-7737-47b8-8708-43c17d72593c .color-0,#chart-1a2add65-7737-47b8-8708-43c17d72593c .color-0 a:visited{stroke:red;fill:red}#chart-1a2add65-7737-47b8-8708-43c17d72593c .color-1,#chart-1a2add65-7737-47b8-8708-43c17d72593c .color-1 a:visited{stroke:blue;fill:blue}#chart-1a2add65-7737-47b8-8708-43c17d72593c .color-2,#chart-1a2add65-7737-47b8-8708-43c17d72593c .color-2 a:visited{stroke:green;fill:green}#chart-1a2add65-7737-47b8-8708-43c17d72593c .text-overlay .color-0 text{fill:white}#chart-1a2add65-7737-47b8-8708-43c17d72593c .text-overlay .color-1 text{fill:white}#chart-1a2add65-7737-47b8-8708-43c17d72593c .text-overlay .color-2 text{fill:white}
#chart-1a2add65-7737-47b8-8708-43c17d72593c text.no_data{text-anchor:middle}#chart-1a2add65-7737-47b8-8708-43c17d72593c .guide.line{fill:none}#chart-1a2add65-7737-47b8-8708-43c17d72593c .centered{text-anchor:middle}#chart-1a2add65-7737-47b8-8708-43c17d72593c .title{text-anchor:middle}#chart-1a2add65-7737-47b8-8708-43c17d72593c .legends .legend text{fill-opacity:1}#chart-1a2add65-7737-47b8-8708-43c17d72593c .axis.x text{text-anchor:middle}#chart-1a2add65-7737-47b8-8708-43c17d72593c .axis.x:not(.web) text[transform]{text-anchor:start}#chart-1a2add65-7737-47b8-8708-43c17d72593c .axis.x:not(.web) text[transform].backwards{text-anchor:end}#chart-1a2add65-7737-47b8-8708-43c17d72593c .axis.y text{text-anchor:end}#chart-1a2add65-7737-47b8-8708-43c17d72593c .axis.y text[transform].backwards{text-anchor:start}#chart-1a2add65-7737-47b8-8708-43c17d72593c .axis.y2 text{text-anchor:start}#chart-1a2add65-7737-47b8-8708-43c17d72593c .axis.y2 text[transform].backwards{text-anchor:end}#chart-1a2add65-7737-47b8-8708-43c17d72593c .axis .guide.line{stroke-dasharray:4,4}#chart-1a2add65-7737-47b8-8708-43c17d72593c .axis .major.guide.line{stroke-dasharray:6,6}#chart-1a2add65-7737-47b8-8708-43c17d72593c .horizontal .axis.y .guide.line,#chart-1a2add65-7737-47b8-8708-43c17d72593c .horizontal .axis.y2 .guide.line,#chart-1a2add65-7737-47b8-8708-43c17d72593c .vertical .axis.x .guide.line{opacity:0}#chart-1a2add65-7737-47b8-8708-43c17d72593c .horizontal .axis.always_show .guide.line,#chart-1a2add65-7737-47b8-8708-43c17d72593c .vertical .axis.always_show .guide.line{opacity:1 !important}#chart-1a2add65-7737-47b8-8708-43c17d72593c .axis.y .guides:hover .guide.line,#chart-1a2add65-7737-47b8-8708-43c17d72593c .axis.y2 .guides:hover .guide.line,#chart-1a2add65-7737-47b8-8708-43c17d72593c .axis.x .guides:hover .guide.line{opacity:1}#chart-1a2add65-7737-47b8-8708-43c17d72593c .axis .guides:hover text{opacity:1}#chart-1a2add65-7737-47b8-8708-43c17d72593c .nofill{fill:none}#chart-1a2add65-7737-47b8-8708-43c17d72593c .subtle-fill{fill-opacity:.2}#chart-1a2add65-7737-47b8-8708-43c17d72593c .dot{stroke-width:1px;fill-opacity:1}#chart-1a2add65-7737-47b8-8708-43c17d72593c .dot.active{stroke-width:5px}#chart-1a2add65-7737-47b8-8708-43c17d72593c .dot.negative{fill:transparent}#chart-1a2add65-7737-47b8-8708-43c17d72593c text,#chart-1a2add65-7737-47b8-8708-43c17d72593c tspan{stroke:none !important}#chart-1a2add65-7737-47b8-8708-43c17d72593c .series text.active{opacity:1}#chart-1a2add65-7737-47b8-8708-43c17d72593c .tooltip rect{fill-opacity:.95;stroke-width:.5}#chart-1a2add65-7737-47b8-8708-43c17d72593c .tooltip text{fill-opacity:1}#chart-1a2add65-7737-47b8-8708-43c17d72593c .showable{visibility:hidden}#chart-1a2add65-7737-47b8-8708-43c17d72593c .showable.shown{visibility:visible}#chart-1a2add65-7737-47b8-8708-43c17d72593c .gauge-background{fill:rgba(229,229,229,1);stroke:none}#chart-1a2add65-7737-47b8-8708-43c17d72593c .bg-lines{stroke:rgba(249,249,249,1);stroke-width:2px}</style><script type="text/javascript">window.pygal = window.pygal || {};window.pygal.config = window.pygal.config || {};window.pygal.config['1a2add65-7737-47b8-8708-43c17d72593c'] = {"allow_interruptions": false, "box_mode": "extremes", "classes": ["pygal-chart"], "css": ["file://style.css", "file://graph.css"], "defs": [], "disable_xml_declaration": false, "dots_size": 2.5, "dynamic_print_values": false, "explicit_size": false, "fill": false, "force_uri_protocol": "https", "formatter": null, "half_pie": false, "height": 600, "include_x_axis": false, "inner_radius": 0, "interpolate": null, "interpolation_parameters": {}, "interpolation_precision": 250, "inverse_y_axis": false, "js": ["//kozea.github.io/pygal.js/2.0.x/pygal-tooltips.min.js"], "legend_at_bottom": true, "legend_at_bottom_columns": null, "legend_box_size": 12, "logarithmic": false, "margin": 20, "margin_bottom": null, "margin_left": null, "margin_right": null, "margin_top": null, "max_scale": 16, "min_scale": 4, "missing_value_fill_truncation": "x", "no_data_text": "No data", "no_prefix": false, "order_min": null, "pretty_print": false, "print_labels": false, "print_values": false, "print_values_position": "center", "print_zeroes": true, "range": null, "rounded_bars": null, "secondary_range": null, "show_dots": true, "show_legend": true, "show_minor_x_labels": false, "show_minor_y_labels": true, "show_only_major_dots": false, "show_x_guides": false, "show_x_labels": true, "show_y_guides": true, "show_y_labels": true, "spacing": 10, "stack_from_top": false, "strict": false, "stroke": true, "stroke_style": null, "style": {"background": "rgba(249, 249, 249, 1)", "ci_colors": [], "colors": ["red", "blue", "green", "#a3a3a3"], "font_family": "Consolas, \"Liberation Mono\", Menlo, Courier, monospace", "foreground": "rgba(0, 0, 0, .87)", "foreground_strong": "rgba(0, 0, 0, 1)", "foreground_subtle": "rgba(0, 0, 0, .54)", "guide_stroke_dasharray": "4,4", "label_font_family": "Consolas, \"Liberation Mono\", Menlo, Courier, monospace", "label_font_size": 10, "legend_font_family": "Consolas, \"Liberation Mono\", Menlo, Courier, monospace", "legend_font_size": 14, "major_guide_stroke_dasharray": "6,6", "major_label_font_family": "Consolas, \"Liberation Mono\", Menlo, Courier, monospace", "major_label_font_size": 10, "no_data_font_family": "Consolas, \"Liberation Mono\", Menlo, Courier, monospace", "no_data_font_size": 64, "opacity": ".7", "opacity_hover": ".8", "plot_background": "rgba(255, 255, 255, 1)", "stroke_opacity": ".8", "stroke_opacity_hover": ".9", "title_font_family": "Consolas, \"Liberation Mono\", Menlo, Courier, monospace", "title_font_size": 16, "tooltip_font_family": "Consolas, \"Liberation Mono\", Menlo, Courier, monospace", "tooltip_font_size": 14, "transition": "150ms", "value_background": "rgba(229, 229, 229, 1)", "value_colors": [], "value_font_family": "Consolas, \"Liberation Mono\", Menlo, Courier, monospace", "value_font_size": 16, "value_label_font_family": "Consolas, \"Liberation Mono\", Menlo, Courier, monospace", "value_label_font_size": 10}, "title": "SP O'Donnell: Future and Past Averages in ODIs", "tooltip_border_radius": 10, "tooltip_fancy_mode": true, "truncate_label": null, "truncate_legend": null, "width": 800, "x_label_rotation": 45, "x_labels": ["1985", "0", "0", "0", "0", "0", "0", "0", "0", "0", "0", "0", "0", "0", "0", "0", "0", "0", "0", "0", "0", "1987", "0", "0", "0", "0", "0", "0", "0", "0", "0", "0", "0", "0", "0", "0", "0", "0", "0", "0", "0", "0", "0", "0", "1989", "0", "0", "0", "0", "0", "0", "0", "0", "0", "0", "0", "0", "0", "1990", "0", "0", "0", "0", "0", "0", "0", "0", "0", "0", "0", "0", "0", "0", "0", "0", "0", "0", "0", "0", "0", "0", "1991", "0", "0", "0", "0", "0"], "x_labels_major": ["1985", "1987", "1989", "1990", "1991"], "x_labels_major_count": null, "x_labels_major_every": null, "x_title": null, "xrange": null, "y_label_rotation": 0, "y_labels": null, "y_labels_major": null, "y_labels_major_count": null, "y_labels_major_every": null, "y_title": null, "zero": 80.0, "legends": ["Future Average", "Past Average", "Career Average"]}</script><script type="text/javascript" xlink:href="https://kozea.github.io/pygal.js/2.0.x/pygal-tooltips.min.js"/></defs><title>SP O'Donnell: Future and Past Averages in ODIs</title><g class="graph line-graph vertical"><rect class="background" height="600" width="800" x="0" y="0"/><g class="plot" transform="translate(42, 46)"><rect class="background" height="462.02943725152284" width="738.0" x="0" y="0"/><g class="axis y always_show"><g class="guides"><path class="axis major line" d="M0.000000 453.144256 h738.000000"/><text class="major" x="-5" y="456.6442557659166">0</text><title>0</title></g><g class="guides"><path class="guide line" d="M0.000000 393.109246 h738.000000"/><text class="" x="-5" y="396.60924572803685">10</text><title>10</title></g><g class="guides"><path class="guide line" d="M0.000000 333.074236 h738.000000"/><text class="" x="-5" y="336.5742356901571">20</text><title>20</title></g><g class="guides"><path class="guide line" d="M0.000000 273.039226 h738.000000"/><text class="" x="-5" y="276.5392256522773">30</text><title>30</title></g><g class="guides"><path class="guide line" d="M0.000000 213.004216 h738.000000"/><text class="" x="-5" y="216.5042156143975">40</text><title>40</title></g><g class="guides"><path class="major guide line" d="M0.000000 152.969206 h738.000000"/><text class="major" x="-5" y="156.4692055765177">50</text><title>50</title></g><g class="guides"><path class="guide line" d="M0.000000 92.934196 h738.000000"/><text class="" x="-5" y="96.434195538638">60</text><title>60</title></g><g class="guides"><path class="guide line" d="M0.000000 32.899186 h738.000000"/><text class="" x="-5" y="36.399185500758165">70</text><title>70</title></g></g><g class="axis x"><g class="guides"><path class="major line" d="M14.192308 0.000000 v462.029437"/><text class="major" x="14.192307692307692" y="477.02943725152284" transform="rotate(45 14.192308 477.029437)">1985</text></g><g class="guides"><path class="major guide line" d="M187.470483 0.000000 v462.029437"/><text class="major" x="187.47048300536673" y="477.02943725152284" transform="rotate(45 187.470483 477.029437)">1987</text></g><g class="guides"><path class="major guide line" d="M377.251342 0.000000 v462.029437"/><text class="major" x="377.2513416815743" y="477.02943725152284" transform="rotate(45 377.251342 477.029437)">1989</text></g><g class="guides"><path class="major guide line" d="M492.770125 0.000000 v462.029437"/><text class="major" x="492.77012522361355" y="477.02943725152284" transform="rotate(45 492.770125 477.029437)">1990</text></g><g class="guides"><path class="major guide line" d="M682.550984 0.000000 v462.029437"/><text class="major" x="682.5509838998211" y="477.02943725152284" transform="rotate(45 682.550984 477.029437)">1991</text></g></g><g class="series serie-0 color-0"><path class="line reactive nofill" d="M14.192308 280.723707 L22.443649 282.044477 30.694991 282.644827 38.946333 282.044477 47.197674 284.505913 55.449016 283.785492 63.700358 282.764897 71.951699 285.526508 80.203041 287.807838 88.454383 285.586543 96.705725 284.746053 104.957066 286.366998 113.208408 285.766648 121.459750 288.408188 129.711091 289.188643 137.962433 288.348153 146.213775 289.488818 154.465116 289.428783 162.716458 288.348153 170.967800 291.349904 179.219141 289.788993 187.470483 293.571199 195.721825 294.411689 203.973166 298.374000 212.224508 295.552354 220.475850 296.092670 228.727191 298.133860 236.978533 295.072074 245.229875 297.533510 253.481216 298.914315 261.732558 291.830184 269.983900 290.029133 278.235242 292.850779 286.486583 295.072074 294.737925 293.631234 302.989267 295.552354 311.240608 296.392845 319.491950 296.512915 327.743292 297.053230 335.994633 290.569449 344.245975 289.488818 352.497317 291.349904 360.748658 293.571199 369.000000 298.313965 377.251342 299.334560 385.502683 301.435785 393.754025 305.217991 402.005367 300.295120 410.256708 299.034385 418.508050 301.615890 426.759392 299.874875 435.010733 301.315715 443.262075 304.677676 451.513417 303.957256 459.764758 308.700022 468.016100 305.458131 476.267442 311.041387 484.518784 302.456381 492.770125 296.272775 501.021467 298.974350 509.272809 298.734210 517.524150 301.675925 525.775492 298.313965 534.026834 297.053230 542.278175 293.030884 550.529517 287.807838 558.780859 277.121606 567.032200 278.802587 575.283542 237.018220 583.534884 256.589633 591.786225 267.696110 600.037567 261.392434 608.288909 259.591383 616.540250 247.404276 624.791592 240.860460 633.042934 269.196985 641.294275 276.881466 649.545617 296.212740 657.796959 260.431874 666.048301 267.035725 674.299642 276.040976 682.550984 267.035725 690.802326 247.824521 699.053667 281.444127 707.305009 277.541851 715.556351 8.885181 723.807692 243.021721"/></g><g class="series serie-1 color-1"><path class="line reactive nofill" d="M14.192308 453.144256 L22.443649 309.060232 30.694991 74.923693 38.946333 232.995874 47.197674 146.965705 55.449016 217.807016 63.700358 250.766237 71.951699 211.263200 80.203041 178.724225 88.454383 226.992373 96.705725 245.182981 104.957066 235.517344 113.208408 246.863961 121.459750 228.853458 129.711091 228.193073 137.962433 239.839865 146.213775 236.658010 154.465116 239.839865 162.716458 247.224171 170.967800 234.016469 179.219141 245.182981 187.470483 230.474404 195.721825 229.994123 203.973166 215.345581 212.224508 236.117694 220.475850 238.879305 228.727191 233.296049 236.978533 246.563786 245.229875 240.740390 253.481216 239.359585 261.732558 259.411278 269.983900 264.274114 278.235242 259.171138 286.486583 255.328898 294.737925 259.591383 302.989267 256.469563 311.240608 256.049318 319.491950 256.829773 327.743292 256.949843 335.994633 268.416530 344.245975 270.517755 352.497317 268.776740 360.748658 266.315305 369.000000 261.032224 377.251342 260.672014 385.502683 259.231173 393.754025 255.268863 402.005367 262.533099 410.256708 264.274114 418.508050 261.992784 426.759392 264.814429 435.010733 263.553694 443.262075 260.852119 451.513417 262.112854 459.764758 258.330648 468.016100 263.013379 476.267442 259.051068 484.518784 267.395935 492.770125 272.258771 501.021467 271.178140 509.272809 271.718455 517.524150 270.637825 525.775492 272.979191 534.026834 273.819681 542.278175 275.980941 550.529517 278.202237 558.780859 281.804337 567.032200 281.264022 575.283542 290.029133 583.534884 285.826683 591.786225 283.485317 600.037567 284.565948 608.288909 284.625983 616.540250 286.066823 624.791592 286.667173 633.042934 282.404687 641.294275 281.264022 649.545617 278.382342 657.796959 282.764897 666.048301 281.924407 674.299642 281.083917 682.550984 281.504162 690.802326 282.284617 699.053667 280.663672 707.305009 280.843777 715.556351 283.245177 723.807692 281.083917"/></g><g class="series serie-2 color-2"><path class="line reactive nofill" d="M14.192308 280.723707 L22.443649 280.723707 30.694991 280.723707 38.946333 280.723707 47.197674 280.723707 55.449016 280.723707 63.700358 280.723707 71.951699 280.723707 80.203041 280.723707 88.454383 280.723707 96.705725 280.723707 104.957066 280.723707 113.208408 280.723707 121.459750 280.723707 129.711091 280.723707 137.962433 280.723707 146.213775 280.723707 154.465116 280.723707 162.716458 280.723707 170.967800 280.723707 179.219141 280.723707 187.470483 280.723707 195.721825 280.723707 203.973166 280.723707 212.224508 280.723707 220.475850 280.723707 228.727191 280.723707 236.978533 280.723707 245.229875 280.723707 253.481216 280.723707 261.732558 280.723707 269.983900 280.723707 278.235242 280.723707 286.486583 280.723707 294.737925 280.723707 302.989267 280.723707 311.240608 280.723707 319.491950 280.723707 327.743292 280.723707 335.994633 280.723707 344.245975 280.723707 352.497317 280.723707 360.748658 280.723707 369.000000 280.723707 377.251342 280.723707 385.502683 280.723707 393.754025 280.723707 402.005367 280.723707 410.256708 280.723707 418.508050 280.723707 426.759392 280.723707 435.010733 280.723707 443.262075 280.723707 451.513417 280.723707 459.764758 280.723707 468.016100 280.723707 476.267442 280.723707 484.518784 280.723707 492.770125 280.723707 501.021467 280.723707 509.272809 280.723707 517.524150 280.723707 525.775492 280.723707 534.026834 280.723707 542.278175 280.723707 550.529517 280.723707 558.780859 280.723707 567.032200 280.723707 575.283542 280.723707 583.534884 280.723707 591.786225 280.723707 600.037567 280.723707 608.288909 280.723707 616.540250 280.723707 624.791592 280.723707 633.042934 280.723707 641.294275 280.723707 649.545617 280.723707 657.796959 280.723707 666.048301 280.723707 674.299642 280.723707 682.550984 280.723707 690.802326 280.723707 699.053667 280.723707 707.305009 280.723707 715.556351 280.723707 723.807692 280.723707"/></g></g><g class="titles"><text class="title plot_title" x="400.0" y="26">SP O'Donnell: Future and Past Averages in ODIs</text></g><g class="plot overlay" transform="translate(42, 46)"><g class="series serie-0 color-0"><g class="dots"><desc class="label">108 wickets in 87 innings (725.0 overs)</desc><circle class="dot reactive tooltip-trigger" cx="14.192307692307692" cy="280.72370693712594" r="2.5"/><desc class="value">28.72</desc><desc class="x top">14.192307692307692</desc><desc class="y top">280.72370693712594</desc><desc class="x_label">1985</desc></g><g class="dots"><desc class="label">86 wickets in 66 innings (539.3 overs)</desc><circle class="dot reactive tooltip-trigger" cx="187.47048300536673" cy="293.57119908523214" r="2.5"/><desc class="value">26.58</desc><desc class="x top">187.47048300536673</desc><desc class="y top">293.57119908523214</desc><desc class="x_label">1987</desc></g><g class="dots"><desc class="label">56 wickets in 43 innings (344.5 overs)</desc><circle class="dot reactive tooltip-trigger" cx="377.2513416815743" cy="299.33456004886864" r="2.5"/><desc class="value">25.62</desc><desc class="x left top">377.2513416815743</desc><desc class="y left top">299.33456004886864</desc><desc class="x_label">1989</desc></g><g class="dots"><desc class="label">38 wickets in 29 innings (241.1 overs)</desc><circle class="dot reactive tooltip-trigger" cx="492.77012522361355" cy="296.27277453693677" r="2.5"/><desc class="value">26.13</desc><desc class="x left top">492.77012522361355</desc><desc class="y left top">296.27277453693677</desc><desc class="x_label">1990</desc></g><g class="dots"><desc class="label">6 wickets in 6 innings (44.0 overs)</desc><circle class="dot reactive tooltip-trigger" cx="682.5509838998211" cy="267.03572464848935" r="2.5"/><desc class="value">31</desc><desc class="x left top">682.5509838998211</desc><desc class="y left top">267.03572464848935</desc><desc class="x_label">1991</desc></g></g><g class="series serie-1 color-1"><g class="dots"><desc class="label">0 wickets over 0 innings</desc><circle class="dot reactive tooltip-trigger" cx="14.192307692307692" cy="453.1442557659166" r="2.5"/><desc class="value">0</desc><desc class="x top">14.192307692307692</desc><desc class="y top">453.1442557659166</desc><desc class="x_label">1985</desc></g><g class="dots"><desc class="label">22 wickets in 21 innings (185.3 overs)</desc><circle class="dot reactive tooltip-trigger" cx="187.47048300536673" cy="230.47440353542052" r="2.5"/><desc class="value">37.09</desc><desc class="x ">187.47048300536673</desc><desc class="y ">230.47440353542052</desc><desc class="x_label">1987</desc></g><g class="dots"><desc class="label">52 wickets in 44 innings (380.1 overs)</desc><circle class="dot reactive tooltip-trigger" cx="377.2513416815743" cy="260.67201358447403" r="2.5"/><desc class="value">32.06</desc><desc class="x left top">377.2513416815743</desc><desc class="y left top">260.67201358447403</desc><desc class="x_label">1989</desc></g><g class="dots"><desc class="label">70 wickets in 58 innings (483.5 overs)</desc><circle class="dot reactive tooltip-trigger" cx="492.77012522361355" cy="272.25877052178487" r="2.5"/><desc class="value">30.13</desc><desc class="x left top">492.77012522361355</desc><desc class="y left top">272.25877052178487</desc><desc class="x_label">1990</desc></g><g class="dots"><desc class="label">102 wickets in 81 innings (681.0 overs)</desc><circle class="dot reactive tooltip-trigger" cx="682.5509838998211" cy="281.5041620676183" r="2.5"/><desc class="value">28.59</desc><desc class="x left top">682.5509838998211</desc><desc class="y left top">281.5041620676183</desc><desc class="x_label">1991</desc></g></g><g class="series serie-2 color-2"/></g><g class="plot text-overlay" transform="translate(42, 46)"><g class="series serie-0 color-0"/><g class="series serie-1 color-1"/><g class="series serie-2 color-2"/></g><g class="plot tooltip-overlay" transform="translate(42, 46)"><g class="tooltip" style="opacity: 0" transform="translate(0 0)"><rect class="tooltip-box" height="0" rx="10" ry="10" width="0"/><g class="text"/></g></g><g class="legends" transform="translate(52, 545)"><g class="legend reactive activate-serie" id="activate-serie-0"><rect class="color-0 reactive" height="12" width="12" x="0.0" y="1.0"/><text x="17.0" y="11.2">Future Average</text></g><g class="legend reactive activate-serie" id="activate-serie-1"><rect class="color-1 reactive" height="12" width="12" x="369.0" y="1.0"/><text x="386.0" y="11.2">Past Average</text></g><g class="legend reactive activate-serie" id="activate-serie-2"><rect class="color-2 reactive" height="12" width="12" x="0.0" y="22.0"/><text x="17.0" y="32.2">Career Average</text></g></g></g></svg>