<?xml version='1.0' encoding='utf-8'?>
<svg xmlns:xlink="http://www.w3.org/1999/xlink" xmlns="http://www.w3.org/2000/svg" id="chart-d1eb251b-ac4f-4c95-a25c-9b75b40c33f2" class="pygal-chart" viewBox="0 0 800 600"><!--Generated with pygal 2.4.0 (lxml) ©Kozea 2012-2016 on 2019-08-04--><!--http://pygal.org--><!--http://github.com/Kozea/pygal--><defs><style type="text/css">#chart-d1eb251b-ac4f-4c95-a25c-9b75b40c33f2{-webkit-user-select:none;-webkit-font-smoothing:antialiased;font-family:Consolas,"Liberation Mono",Menlo,Courier,monospace}#chart-d1eb251b-ac4f-4c95-a25c-9b75b40c33f2 .title{font-family:Consolas,"Liberation Mono",Menlo,Courier,monospace;font-size:16px}#chart-d1eb251b-ac4f-4c95-a25c-9b75b40c33f2 .legends .legend text{font-family:Consolas,"Liberation Mono",Menlo,Courier,monospace;font-size:14px}#chart-d1eb251b-ac4f-4c95-a25c-9b75b40c33f2 .axis text{font-family:Consolas,"Liberation Mono",Menlo,Courier,monospace;font-size:10px}#chart-d1eb251b-ac4f-4c95-a25c-9b75b40c33f2 .axis text.major{font-family:Consolas,"Liberation Mono",Menlo,Courier,monospace;font-size:10px}#chart-d1eb251b-ac4f-4c95-a25c-9b75b40c33f2 .text-overlay text.value{font-family:Consolas,"Liberation Mono",Menlo,Courier,monospace;font-size:16px}#chart-d1eb251b-ac4f-4c95-a25c-9b75b40c33f2 .text-overlay text.label{font-family:Consolas,"Liberation Mono",Menlo,Courier,monospace;font-size:10px}#chart-d1eb251b-ac4f-4c95-a25c-9b75b40c33f2 .tooltip{font-family:Consolas,"Liberation Mono",Menlo,Courier,monospace;font-size:14px}#chart-d1eb251b-ac4f-4c95-a25c-9b75b40c33f2 text.no_data{font-family:Consolas,"Liberation Mono",Menlo,Courier,monospace;font-size:64px}
#chart-d1eb251b-ac4f-4c95-a25c-9b75b40c33f2{background-color:rgba(249,249,249,1)}#chart-d1eb251b-ac4f-4c95-a25c-9b75b40c33f2 path,#chart-d1eb251b-ac4f-4c95-a25c-9b75b40c33f2 line,#chart-d1eb251b-ac4f-4c95-a25c-9b75b40c33f2 rect,#chart-d1eb251b-ac4f-4c95-a25c-9b75b40c33f2 circle{-webkit-transition:150ms;-moz-transition:150ms;transition:150ms}#chart-d1eb251b-ac4f-4c95-a25c-9b75b40c33f2 .graph &gt; .background{fill:rgba(249,249,249,1)}#chart-d1eb251b-ac4f-4c95-a25c-9b75b40c33f2 .plot &gt; .background{fill:rgba(255,255,255,1)}#chart-d1eb251b-ac4f-4c95-a25c-9b75b40c33f2 .graph{fill:rgba(0,0,0,.87)}#chart-d1eb251b-ac4f-4c95-a25c-9b75b40c33f2 text.no_data{fill:rgba(0,0,0,1)}#chart-d1eb251b-ac4f-4c95-a25c-9b75b40c33f2 .title{fill:rgba(0,0,0,1)}#chart-d1eb251b-ac4f-4c95-a25c-9b75b40c33f2 .legends .legend text{fill:rgba(0,0,0,.87)}#chart-d1eb251b-ac4f-4c95-a25c-9b75b40c33f2 .legends .legend:hover text{fill:rgba(0,0,0,1)}#chart-d1eb251b-ac4f-4c95-a25c-9b75b40c33f2 .axis .line{stroke:rgba(0,0,0,1)}#chart-d1eb251b-ac4f-4c95-a25c-9b75b40c33f2 .axis .guide.line{stroke:rgba(0,0,0,.54)}#chart-d1eb251b-ac4f-4c95-a25c-9b75b40c33f2 .axis .major.line{stroke:rgba(0,0,0,.87)}#chart-d1eb251b-ac4f-4c95-a25c-9b75b40c33f2 .axis text.major{fill:rgba(0,0,0,1)}#chart-d1eb251b-ac4f-4c95-a25c-9b75b40c33f2 .axis.y .guides:hover .guide.line,#chart-d1eb251b-ac4f-4c95-a25c-9b75b40c33f2 .line-graph .axis.x .guides:hover .guide.line,#chart-d1eb251b-ac4f-4c95-a25c-9b75b40c33f2 .stackedline-graph .axis.x .guides:hover .guide.line,#chart-d1eb251b-ac4f-4c95-a25c-9b75b40c33f2 .xy-graph .axis.x .guides:hover .guide.line{stroke:rgba(0,0,0,1)}#chart-d1eb251b-ac4f-4c95-a25c-9b75b40c33f2 .axis .guides:hover text{fill:rgba(0,0,0,1)}#chart-d1eb251b-ac4f-4c95-a25c-9b75b40c33f2 .reactive{fill-opacity:.7;stroke-opacity:.8}#chart-d1eb251b-ac4f-4c95-a25c-9b75b40c33f2 .ci{stroke:rgba(0,0,0,.87)}#chart-d1eb251b-ac4f-4c95-a25c-9b75b40c33f2 .reactive.active,#chart-d1eb251b-ac4f-4c95-a25c-9b75b40c33f2 .active .reactive{fill-opacity:.8;stroke-opacity:.9;stroke-width:4}#chart-d1eb251b-ac4f-4c95-a25c-9b75b40c33f2 .ci .reactive.active{stroke-width:1.5}#chart-d1eb251b-ac4f-4c95-a25c-9b75b40c33f2 .series text{fill:rgba(0,0,0,1)}#chart-d1eb251b-ac4f-4c95-a25c-9b75b40c33f2 .tooltip rect{fill:rgba(255,255,255,1);stroke:rgba(0,0,0,1);-webkit-transition:opacity 150ms;-moz-transition:opacity 150ms;transition:opacity 150ms}#chart-d1eb251b-ac4f-4c95-a25c-9b75b40c33f2 .tooltip .label{fill:rgba(0,0,0,.87)}#chart-d1eb251b-ac4f-4c95-a25c-9b75b40c33f2 .tooltip .label{fill:rgba(0,0,0,.87)}#chart-d1eb251b-ac4f-4c95-a25c-9b75b40c33f2 .tooltip .legend{font-size:.8em;fill:rgba(0,0,0,.54)}#chart-d1eb251b-ac4f-4c95-a25c-9b75b40c33f2 .tooltip .x_label{font-size:.6em;fill:rgba(0,0,0,1)}#chart-d1eb251b-ac4f-4c95-a25c-9b75b40c33f2 .tooltip .xlink{font-size:.5em;text-decoration:underline}#chart-d1eb251b-ac4f-4c95-a25c-9b75b40c33f2 .tooltip .value{font-size:1.5em}#chart-d1eb251b-ac4f-4c95-a25c-9b75b40c33f2 .bound{font-size:.5em}#chart-d1eb251b-ac4f-4c95-a25c-9b75b40c33f2 .max-value{font-size:.75em;fill:rgba(0,0,0,.54)}#chart-d1eb251b-ac4f-4c95-a25c-9b75b40c33f2 .map-element{fill:rgba(255,255,255,1);stroke:rgba(0,0,0,.54) !important}#chart-d1eb251b-ac4f-4c95-a25c-9b75b40c33f2 .map-element .reactive{fill-opacity:inherit;stroke-opacity:inherit}#chart-d1eb251b-ac4f-4c95-a25c-9b75b40c33f2 .color-0,#chart-d1eb251b-ac4f-4c95-a25c-9b75b40c33f2 .color-0 a:visited{stroke:red;fill:red}#chart-d1eb251b-ac4f-4c95-a25c-9b75b40c33f2 .color-1,#chart-d1eb251b-ac4f-4c95-a25c-9b75b40c33f2 .color-1 a:visited{stroke:blue;fill:blue}#chart-d1eb251b-ac4f-4c95-a25c-9b75b40c33f2 .color-2,#chart-d1eb251b-ac4f-4c95-a25c-9b75b40c33f2 .color-2 a:visited{stroke:green;fill:green}#chart-d1eb251b-ac4f-4c95-a25c-9b75b40c33f2 .text-overlay .color-0 text{fill:white}#chart-d1eb251b-ac4f-4c95-a25c-9b75b40c33f2 .text-overlay .color-1 text{fill:white}#chart-d1eb251b-ac4f-4c95-a25c-9b75b40c33f2 .text-overlay .color-2 text{fill:white}
#chart-d1eb251b-ac4f-4c95-a25c-9b75b40c33f2 text.no_data{text-anchor:middle}#chart-d1eb251b-ac4f-4c95-a25c-9b75b40c33f2 .guide.line{fill:none}#chart-d1eb251b-ac4f-4c95-a25c-9b75b40c33f2 .centered{text-anchor:middle}#chart-d1eb251b-ac4f-4c95-a25c-9b75b40c33f2 .title{text-anchor:middle}#chart-d1eb251b-ac4f-4c95-a25c-9b75b40c33f2 .legends .legend text{fill-opacity:1}#chart-d1eb251b-ac4f-4c95-a25c-9b75b40c33f2 .axis.x text{text-anchor:middle}#chart-d1eb251b-ac4f-4c95-a25c-9b75b40c33f2 .axis.x:not(.web) text[transform]{text-anchor:start}#chart-d1eb251b-ac4f-4c95-a25c-9b75b40c33f2 .axis.x:not(.web) text[transform].backwards{text-anchor:end}#chart-d1eb251b-ac4f-4c95-a25c-9b75b40c33f2 .axis.y text{text-anchor:end}#chart-d1eb251b-ac4f-4c95-a25c-9b75b40c33f2 .axis.y text[transform].backwards{text-anchor:start}#chart-d1eb251b-ac4f-4c95-a25c-9b75b40c33f2 .axis.y2 text{text-anchor:start}#chart-d1eb251b-ac4f-4c95-a25c-9b75b40c33f2 .axis.y2 text[transform].backwards{text-anchor:end}#chart-d1eb251b-ac4f-4c95-a25c-9b75b40c33f2 .axis .guide.line{stroke-dasharray:4,4}#chart-d1eb251b-ac4f-4c95-a25c-9b75b40c33f2 .axis .major.guide.line{stroke-dasharray:6,6}#chart-d1eb251b-ac4f-4c95-a25c-9b75b40c33f2 .horizontal .axis.y .guide.line,#chart-d1eb251b-ac4f-4c95-a25c-9b75b40c33f2 .horizontal .axis.y2 .guide.line,#chart-d1eb251b-ac4f-4c95-a25c-9b75b40c33f2 .vertical .axis.x .guide.line{opacity:0}#chart-d1eb251b-ac4f-4c95-a25c-9b75b40c33f2 .horizontal .axis.always_show .guide.line,#chart-d1eb251b-ac4f-4c95-a25c-9b75b40c33f2 .vertical .axis.always_show .guide.line{opacity:1 !important}#chart-d1eb251b-ac4f-4c95-a25c-9b75b40c33f2 .axis.y .guides:hover .guide.line,#chart-d1eb251b-ac4f-4c95-a25c-9b75b40c33f2 .axis.y2 .guides:hover .guide.line,#chart-d1eb251b-ac4f-4c95-a25c-9b75b40c33f2 .axis.x .guides:hover .guide.line{opacity:1}#chart-d1eb251b-ac4f-4c95-a25c-9b75b40c33f2 .axis .guides:hover text{opacity:1}#chart-d1eb251b-ac4f-4c95-a25c-9b75b40c33f2 .nofill{fill:none}#chart-d1eb251b-ac4f-4c95-a25c-9b75b40c33f2 .subtle-fill{fill-opacity:.2}#chart-d1eb251b-ac4f-4c95-a25c-9b75b40c33f2 .dot{stroke-width:1px;fill-opacity:1}#chart-d1eb251b-ac4f-4c95-a25c-9b75b40c33f2 .dot.active{stroke-width:5px}#chart-d1eb251b-ac4f-4c95-a25c-9b75b40c33f2 .dot.negative{fill:transparent}#chart-d1eb251b-ac4f-4c95-a25c-9b75b40c33f2 text,#chart-d1eb251b-ac4f-4c95-a25c-9b75b40c33f2 tspan{stroke:none !important}#chart-d1eb251b-ac4f-4c95-a25c-9b75b40c33f2 .series text.active{opacity:1}#chart-d1eb251b-ac4f-4c95-a25c-9b75b40c33f2 .tooltip rect{fill-opacity:.95;stroke-width:.5}#chart-d1eb251b-ac4f-4c95-a25c-9b75b40c33f2 .tooltip text{fill-opacity:1}#chart-d1eb251b-ac4f-4c95-a25c-9b75b40c33f2 .showable{visibility:hidden}#chart-d1eb251b-ac4f-4c95-a25c-9b75b40c33f2 .showable.shown{visibility:visible}#chart-d1eb251b-ac4f-4c95-a25c-9b75b40c33f2 .gauge-background{fill:rgba(229,229,229,1);stroke:none}#chart-d1eb251b-ac4f-4c95-a25c-9b75b40c33f2 .bg-lines{stroke:rgba(249,249,249,1);stroke-width:2px}</style><script type="text/javascript">window.pygal = window.pygal || {};window.pygal.config = window.pygal.config || {};window.pygal.config['d1eb251b-ac4f-4c95-a25c-9b75b40c33f2'] = {"allow_interruptions": false, "box_mode": "extremes", "classes": ["pygal-chart"], "css": ["file://style.css", "file://graph.css"], "defs": [], "disable_xml_declaration": false, "dots_size": 2.5, "dynamic_print_values": false, "explicit_size": false, "fill": false, "force_uri_protocol": "https", "formatter": null, "half_pie": false, "height": 600, "include_x_axis": false, "inner_radius": 0, "interpolate": null, "interpolation_parameters": {}, "interpolation_precision": 250, "inverse_y_axis": false, "js": ["//kozea.github.io/pygal.js/2.0.x/pygal-tooltips.min.js"], "legend_at_bottom": true, "legend_at_bottom_columns": null, "legend_box_size": 12, "logarithmic": false, "margin": 20, "margin_bottom": null, "margin_left": null, "margin_right": null, "margin_top": null, "max_scale": 16, "min_scale": 4, "missing_value_fill_truncation": "x", "no_data_text": "No data", "no_prefix": false, "order_min": null, "pretty_print": false, "print_labels": false, "print_values": false, "print_values_position": "center", "print_zeroes": true, "range": null, "rounded_bars": null, "secondary_range": null, "show_dots": true, "show_legend": true, "show_minor_x_labels": false, "show_minor_y_labels": true, "show_only_major_dots": false, "show_x_guides": false, "show_x_labels": true, "show_y_guides": true, "show_y_labels": true, "spacing": 10, "stack_from_top": false, "strict": false, "stroke": true, "stroke_style": null, "style": {"background": "rgba(249, 249, 249, 1)", "ci_colors": [], "colors": ["red", "blue", "green", "#a3a3a3"], "font_family": "Consolas, \"Liberation Mono\", Menlo, Courier, monospace", "foreground": "rgba(0, 0, 0, .87)", "foreground_strong": "rgba(0, 0, 0, 1)", "foreground_subtle": "rgba(0, 0, 0, .54)", "guide_stroke_dasharray": "4,4", "label_font_family": "Consolas, \"Liberation Mono\", Menlo, Courier, monospace", "label_font_size": 10, "legend_font_family": "Consolas, \"Liberation Mono\", Menlo, Courier, monospace", "legend_font_size": 14, "major_guide_stroke_dasharray": "6,6", "major_label_font_family": "Consolas, \"Liberation Mono\", Menlo, Courier, monospace", "major_label_font_size": 10, "no_data_font_family": "Consolas, \"Liberation Mono\", Menlo, Courier, monospace", "no_data_font_size": 64, "opacity": ".7", "opacity_hover": ".8", "plot_background": "rgba(255, 255, 255, 1)", "stroke_opacity": ".8", "stroke_opacity_hover": ".9", "title_font_family": "Consolas, \"Liberation Mono\", Menlo, Courier, monospace", "title_font_size": 16, "tooltip_font_family": "Consolas, \"Liberation Mono\", Menlo, Courier, monospace", "tooltip_font_size": 14, "transition": "150ms", "value_background": "rgba(229, 229, 229, 1)", "value_colors": [], "value_font_family": "Consolas, \"Liberation Mono\", Menlo, Courier, monospace", "value_font_size": 16, "value_label_font_family": "Consolas, \"Liberation Mono\", Menlo, Courier, monospace", "value_label_font_size": 10}, "title": "SR Watson: Future and Past Averages in ODIs", "tooltip_border_radius": 10, "tooltip_fancy_mode": true, "truncate_label": null, "truncate_legend": null, "width": 800, "x_label_rotation": 45, "x_labels": ["2002", "0", "0", "0", "0", "0", "0", "0", "0", "0", "0", "0", "0", "0", "0", "0", "2003", "0", "0", "0", "0", "2004", "0", "0", "0", "2005", "0", "0", "0", "0", "0", "0", "0", "0", "0", "0", "0", "0", "2006", "0", "0", "0", "0", "0", "0", "0", "0", "0", "0", "2007", "0", "0", "0", "0", "0", "0", "0", "0", "0", "0", "0", "2008", "0", "0", "0", "0", "0", "0", "2009", "0", "0", "0", "0", "0", "0", "0", "0", "0", "0", "0", "0", "0", "0", "0", "2010", "0", "0", "0", "0", "0", "0", "0", "0", "0", "0", "0", "0", "0", "0", "0", "2011", "0", "0", "0", "0", "0", "0", "0", "0", "0", "0", "0", "0", "0", "0", "0", "0", "0", "0", "0", "0", "0", "0", "2012", "0", "0", "0", "0", "0", "0", "0", "0", "0", "0", "0", "0", "2013", "0", "0", "0", "0", "0", "0", "0", "0", "0", "0", "2014", "0", "0", "0", "0", "0", "2015", "0", "0", "0", "0", "0", "0", "0", "0", "0"], "x_labels_major": ["2002", "2003", "2004", "2005", "2006", "2007", "2008", "2009", "2010", "2011", "2012", "2013", "2014", "2015"], "x_labels_major_count": null, "x_labels_major_every": null, "x_title": null, "xrange": null, "y_label_rotation": 0, "y_labels": null, "y_labels_major": null, "y_labels_major_count": null, "y_labels_major_every": null, "y_title": null, "zero": 160.0, "legends": ["Future Average", "Past Average", "Career Average"]}</script><script type="text/javascript" xlink:href="https://kozea.github.io/pygal.js/2.0.x/pygal-tooltips.min.js"/></defs><title>SR Watson: Future and Past Averages in ODIs</title><g class="graph line-graph vertical"><rect class="background" height="600" width="800" x="0" y="0"/><g class="plot" transform="translate(48, 46)"><rect class="background" height="462.02943725152284" width="732.0" x="0" y="0"/><g class="axis y always_show"><g class="guides"><path class="axis major line" d="M0.000000 453.144256 h732.000000"/><text class="major" x="-5" y="456.6442557659166">0</text><title>0</title></g><g class="guides"><path class="guide line" d="M0.000000 424.296264 h732.000000"/><text class="" x="-5" y="427.79626392953287">10</text><title>10</title></g><g class="guides"><path class="guide line" d="M0.000000 395.448272 h732.000000"/><text class="" x="-5" y="398.94827209314906">20</text><title>20</title></g><g class="guides"><path class="guide line" d="M0.000000 366.600280 h732.000000"/><text class="" x="-5" y="370.10028025676525">30</text><title>30</title></g><g class="guides"><path class="guide line" d="M0.000000 337.752288 h732.000000"/><text class="" x="-5" y="341.2522884203815">40</text><title>40</title></g><g class="guides"><path class="major guide line" d="M0.000000 308.904297 h732.000000"/><text class="major" x="-5" y="312.40429658399773">50</text><title>50</title></g><g class="guides"><path class="guide line" d="M0.000000 280.056305 h732.000000"/><text class="" x="-5" y="283.5563047476139">60</text><title>60</title></g><g class="guides"><path class="guide line" d="M0.000000 251.208313 h732.000000"/><text class="" x="-5" y="254.7083129112301">70</text><title>70</title></g><g class="guides"><path class="guide line" d="M0.000000 222.360321 h732.000000"/><text class="" x="-5" y="225.86032107484633">80</text><title>80</title></g><g class="guides"><path class="guide line" d="M0.000000 193.512329 h732.000000"/><text class="" x="-5" y="197.01232923846254">90</text><title>90</title></g><g class="guides"><path class="major guide line" d="M0.000000 164.664337 h732.000000"/><text class="major" x="-5" y="168.16433740207873">100</text><title>100</title></g><g class="guides"><path class="guide line" d="M0.000000 135.816346 h732.000000"/><text class="" x="-5" y="139.31634556569492">110</text><title>110</title></g><g class="guides"><path class="guide line" d="M0.000000 106.968354 h732.000000"/><text class="" x="-5" y="110.46835372931116">120</text><title>120</title></g><g class="guides"><path class="guide line" d="M0.000000 78.120362 h732.000000"/><text class="" x="-5" y="81.62036189292735">130</text><title>130</title></g><g class="guides"><path class="guide line" d="M0.000000 49.272370 h732.000000"/><text class="" x="-5" y="52.77237005654354">140</text><title>140</title></g><g class="guides"><path class="major guide line" d="M0.000000 20.424378 h732.000000"/><text class="major" x="-5" y="23.924378220159724">150</text><title>150</title></g></g><g class="axis x"><g class="guides"><path class="major line" d="M14.076923 0.000000 v462.029437"/><text class="major" x="14.076923076923077" y="477.02943725152284" transform="rotate(45 14.076923 477.029437)">2002</text></g><g class="guides"><path class="major guide line" d="M83.592593 0.000000 v462.029437"/><text class="major" x="83.59259259259258" y="477.02943725152284" transform="rotate(45 83.592593 477.029437)">2003</text></g><g class="guides"><path class="major guide line" d="M105.316239 0.000000 v462.029437"/><text class="major" x="105.31623931623929" y="477.02943725152284" transform="rotate(45 105.316239 477.029437)">2004</text></g><g class="guides"><path class="major guide line" d="M122.695157 0.000000 v462.029437"/><text class="major" x="122.69515669515668" y="477.02943725152284" transform="rotate(45 122.695157 477.029437)">2005</text></g><g class="guides"><path class="major guide line" d="M179.176638 0.000000 v462.029437"/><text class="major" x="179.17663817663816" y="477.02943725152284" transform="rotate(45 179.176638 477.029437)">2006</text></g><g class="guides"><path class="major guide line" d="M226.968661 0.000000 v462.029437"/><text class="major" x="226.968660968661" y="477.02943725152284" transform="rotate(45 226.968661 477.029437)">2007</text></g><g class="guides"><path class="major guide line" d="M279.105413 0.000000 v462.029437"/><text class="major" x="279.1054131054131" y="477.02943725152284" transform="rotate(45 279.105413 477.029437)">2008</text></g><g class="guides"><path class="major guide line" d="M309.518519 0.000000 v462.029437"/><text class="major" x="309.51851851851853" y="477.02943725152284" transform="rotate(45 309.518519 477.029437)">2009</text></g><g class="guides"><path class="major guide line" d="M379.034188 0.000000 v462.029437"/><text class="major" x="379.034188034188" y="477.02943725152284" transform="rotate(45 379.034188 477.029437)">2010</text></g><g class="guides"><path class="major guide line" d="M448.549858 0.000000 v462.029437"/><text class="major" x="448.5498575498575" y="477.02943725152284" transform="rotate(45 448.549858 477.029437)">2011</text></g><g class="guides"><path class="major guide line" d="M548.478632 0.000000 v462.029437"/><text class="major" x="548.4786324786324" y="477.02943725152284" transform="rotate(45 548.478632 477.029437)">2012</text></g><g class="guides"><path class="major guide line" d="M604.960114 0.000000 v462.029437"/><text class="major" x="604.9601139601139" y="477.02943725152284" transform="rotate(45 604.960114 477.029437)">2013</text></g><g class="guides"><path class="major guide line" d="M652.752137 0.000000 v462.029437"/><text class="major" x="652.7521367521367" y="477.02943725152284" transform="rotate(45 652.752137 477.029437)">2014</text></g><g class="guides"><path class="major guide line" d="M678.820513 0.000000 v462.029437"/><text class="major" x="678.8205128205128" y="477.02943725152284" transform="rotate(45 678.820513 477.029437)">2015</text></g></g><g class="series serie-0 color-0"><path class="line reactive nofill" d="M14.076923 361.407642 L18.421652 361.782666 22.766382 362.475017 27.111111 363.282761 31.455840 363.513545 35.800570 363.657785 40.145299 363.802025 44.490028 364.609769 48.834758 364.407833 53.179487 363.542393 57.524217 363.686633 61.868946 364.148201 66.213675 364.494377 70.558405 363.484697 74.903134 363.946265 79.247863 363.946265 83.592593 362.734649 87.937322 362.907737 92.282051 362.417321 96.626781 363.080825 100.971510 362.244233 105.316239 362.561561 109.660969 363.282761 114.005698 364.205897 118.350427 364.811705 122.695157 365.619449 127.039886 366.340648 131.384615 366.167560 135.729345 366.081016 140.074074 366.831064 144.418803 367.119544 148.763533 367.956136 153.108262 368.388856 157.452991 368.648488 161.797721 367.754200 166.142450 368.071528 170.487179 367.148392 174.831909 367.667656 179.176638 365.994472 183.521368 366.369496 187.866097 366.052168 192.210826 365.821384 196.555556 364.032809 200.900285 364.292441 205.245014 363.542393 209.589744 363.628937 213.934473 361.753818 218.279202 362.157690 222.623932 362.042298 226.968661 360.744138 231.313390 361.234554 235.658120 362.388473 240.002849 363.080825 244.347578 362.157690 248.692308 362.821193 253.037037 363.282761 257.381766 363.686633 261.726496 364.523225 266.071225 364.609769 270.415954 364.321289 274.760684 364.811705 279.105413 365.330969 283.450142 364.984793 287.794872 363.888569 292.139601 363.657785 296.484330 363.715481 300.829060 363.484697 305.173789 363.628937 309.518519 362.042298 313.863248 360.080634 318.207977 360.311418 322.552707 359.099802 326.897436 357.109291 331.242165 357.513163 335.586895 357.311227 339.931624 356.590027 344.276353 355.436107 348.621083 354.166796 352.965812 352.955180 357.310541 354.772604 361.655271 354.830300 366.000000 356.590027 370.344729 353.820620 374.689459 351.512781 379.034188 349.695357 383.378917 344.935438 387.723647 343.694975 392.068376 344.993134 396.413105 344.675806 400.757835 344.041151 405.102564 344.473871 409.447293 342.367967 413.792023 339.771648 418.136752 337.377265 422.481481 336.886849 426.826211 336.079105 431.170940 334.579009 435.515670 335.098273 439.860399 337.348417 444.205128 334.579009 448.549858 332.732738 452.894587 335.415601 457.239316 334.867489 461.584046 333.338546 465.928775 335.184817 470.273504 328.492083 474.618234 328.261299 478.962963 328.751715 483.307692 326.270788 487.652422 328.376691 491.997151 331.838450 496.341880 330.367203 500.686610 332.271170 505.031339 331.896146 509.376068 334.550161 513.720798 334.088593 518.065527 331.319186 522.410256 332.300018 526.754986 331.232642 531.099715 328.838259 535.444444 326.674660 539.789174 325.636132 544.133903 327.568947 548.478632 331.607666 552.823362 323.847556 557.168091 326.732356 561.512821 315.366247 565.857550 319.404966 570.202279 309.394712 574.547009 311.039048 578.891738 308.240793 583.236467 289.922318 587.581197 280.056305 591.925926 265.430373 596.270655 265.430373 600.615385 258.535703 604.960114 259.631927 609.304843 249.765913 613.649573 252.419929 617.994302 255.766296 622.339031 242.294283 626.683761 233.611038 631.028490 225.879776 635.373219 173.722607 639.717949 193.108457 644.062678 185.348348 648.407407 209.869141 652.752137 222.360321 657.096866 239.669116 661.441595 217.167683 665.786325 192.791129 670.131054 226.687520 674.475783 244.717515 678.820513 252.650713 683.165242 269.238308 687.509972 293.037901 691.854701 302.413498 696.199430 320.443493 700.544160 280.056305 704.888889 304.577098 709.233618 346.406686 713.578348 379.581877 717.923077 396.890672"/></g><g class="series serie-1 color-1"><path class="line reactive nofill" d="M14.076923 453.144256 L18.421652 392.563473 22.766382 277.171506 27.111111 141.585944 31.455840 8.885181 35.800570 176.203534 40.145299 163.221938 44.490028 96.871557 48.834758 196.397128 53.179487 291.595501 57.524217 300.249899 61.868946 287.758719 66.213675 278.613905 70.558405 319.722294 74.903134 310.692872 79.247863 316.606710 83.592593 344.243087 87.937322 344.964286 92.282051 352.003196 96.626781 345.512398 100.971510 354.570668 105.316239 351.858956 109.660969 345.772030 114.005698 338.242704 118.350427 333.107762 122.695157 326.386180 127.039886 320.443493 131.384615 326.213092 135.729345 328.694019 140.074074 323.472532 144.418803 321.395477 148.763533 315.625879 153.108262 315.193159 157.452991 313.375735 161.797721 325.174564 166.142450 323.328293 170.487179 332.819282 174.831909 331.376882 179.176638 342.742991 183.521368 341.156351 187.866097 343.781519 192.210826 345.858574 196.555556 353.301356 200.900285 352.782092 205.245014 355.378411 209.589744 355.378411 213.934473 360.542202 218.279202 359.590218 222.623932 359.907546 226.968661 362.878889 231.313390 361.811514 235.658120 359.301738 240.002849 357.772795 244.347578 359.907546 248.692308 358.753626 253.037037 357.859339 257.381766 357.224683 261.726496 355.695739 266.071225 355.493803 270.415954 356.157307 274.760684 355.436107 279.105413 354.743756 283.450142 355.464955 287.794872 357.513163 292.139601 357.945883 296.484330 357.945883 300.829060 358.378603 305.173789 358.147819 309.518519 360.542202 313.863248 363.167369 318.207977 362.821193 322.552707 364.205897 326.897436 366.282952 331.242165 365.705993 335.586895 365.734841 339.931624 366.369496 344.276353 367.234936 348.621083 368.158072 352.965812 368.936968 357.310541 367.321480 361.655271 366.975304 366.000000 365.504057 370.344729 367.408024 374.689459 368.648488 379.034188 369.571623 383.378917 371.821767 387.723647 372.312183 392.068376 371.273655 396.413105 371.187111 400.757835 371.331351 405.102564 370.812087 409.447293 371.446743 413.792023 372.254487 418.136752 372.802599 422.481481 372.716055 426.826211 372.773751 431.170940 372.773751 435.515670 372.571815 439.860399 371.619831 444.205128 372.139095 448.549858 372.571815 452.894587 371.504439 457.239316 371.417895 461.584046 371.677527 465.928775 371.014023 470.273504 372.398727 474.618234 372.110247 478.962963 371.966007 483.307692 372.398727 487.652422 371.735223 491.997151 370.667847 496.341880 370.812087 500.686610 370.235127 505.031339 370.033191 509.376068 369.254296 513.720798 369.138904 518.065527 369.340839 522.410256 369.081208 526.754986 369.081208 531.099715 369.081208 535.444444 369.283143 539.789174 369.196600 544.133903 368.763880 548.478632 367.898440 552.823362 368.936968 557.168091 368.360008 561.512821 369.456231 565.857550 368.763880 570.202279 369.658167 574.547009 369.398535 578.891738 369.427383 583.236467 370.523607 587.581197 370.581303 591.925926 370.812087 596.270655 370.148583 600.615385 370.033191 604.960114 369.946647 609.304843 370.004343 613.649573 369.802407 617.994302 369.542775 622.339031 369.773559 626.683761 369.513927 631.028490 369.081208 635.373219 369.571623 639.717949 368.735032 644.062678 367.927288 648.407407 367.033000 652.752137 366.571432 657.096866 365.936776 661.441595 365.850232 665.786325 365.532905 670.131054 364.696313 674.475783 364.263593 678.820513 364.061657 683.165242 363.657785 687.509972 363.080825 691.854701 362.850041 696.199430 362.157690 700.544160 362.388473 704.888889 362.099994 709.233618 361.609578 713.578348 361.205706 717.923077 360.974922"/></g><g class="series serie-2 color-2"><path class="line reactive nofill" d="M14.076923 361.407642 L18.421652 361.407642 22.766382 361.407642 27.111111 361.407642 31.455840 361.407642 35.800570 361.407642 40.145299 361.407642 44.490028 361.407642 48.834758 361.407642 53.179487 361.407642 57.524217 361.407642 61.868946 361.407642 66.213675 361.407642 70.558405 361.407642 74.903134 361.407642 79.247863 361.407642 83.592593 361.407642 87.937322 361.407642 92.282051 361.407642 96.626781 361.407642 100.971510 361.407642 105.316239 361.407642 109.660969 361.407642 114.005698 361.407642 118.350427 361.407642 122.695157 361.407642 127.039886 361.407642 131.384615 361.407642 135.729345 361.407642 140.074074 361.407642 144.418803 361.407642 148.763533 361.407642 153.108262 361.407642 157.452991 361.407642 161.797721 361.407642 166.142450 361.407642 170.487179 361.407642 174.831909 361.407642 179.176638 361.407642 183.521368 361.407642 187.866097 361.407642 192.210826 361.407642 196.555556 361.407642 200.900285 361.407642 205.245014 361.407642 209.589744 361.407642 213.934473 361.407642 218.279202 361.407642 222.623932 361.407642 226.968661 361.407642 231.313390 361.407642 235.658120 361.407642 240.002849 361.407642 244.347578 361.407642 248.692308 361.407642 253.037037 361.407642 257.381766 361.407642 261.726496 361.407642 266.071225 361.407642 270.415954 361.407642 274.760684 361.407642 279.105413 361.407642 283.450142 361.407642 287.794872 361.407642 292.139601 361.407642 296.484330 361.407642 300.829060 361.407642 305.173789 361.407642 309.518519 361.407642 313.863248 361.407642 318.207977 361.407642 322.552707 361.407642 326.897436 361.407642 331.242165 361.407642 335.586895 361.407642 339.931624 361.407642 344.276353 361.407642 348.621083 361.407642 352.965812 361.407642 357.310541 361.407642 361.655271 361.407642 366.000000 361.407642 370.344729 361.407642 374.689459 361.407642 379.034188 361.407642 383.378917 361.407642 387.723647 361.407642 392.068376 361.407642 396.413105 361.407642 400.757835 361.407642 405.102564 361.407642 409.447293 361.407642 413.792023 361.407642 418.136752 361.407642 422.481481 361.407642 426.826211 361.407642 431.170940 361.407642 435.515670 361.407642 439.860399 361.407642 444.205128 361.407642 448.549858 361.407642 452.894587 361.407642 457.239316 361.407642 461.584046 361.407642 465.928775 361.407642 470.273504 361.407642 474.618234 361.407642 478.962963 361.407642 483.307692 361.407642 487.652422 361.407642 491.997151 361.407642 496.341880 361.407642 500.686610 361.407642 505.031339 361.407642 509.376068 361.407642 513.720798 361.407642 518.065527 361.407642 522.410256 361.407642 526.754986 361.407642 531.099715 361.407642 535.444444 361.407642 539.789174 361.407642 544.133903 361.407642 548.478632 361.407642 552.823362 361.407642 557.168091 361.407642 561.512821 361.407642 565.857550 361.407642 570.202279 361.407642 574.547009 361.407642 578.891738 361.407642 583.236467 361.407642 587.581197 361.407642 591.925926 361.407642 596.270655 361.407642 600.615385 361.407642 604.960114 361.407642 609.304843 361.407642 613.649573 361.407642 617.994302 361.407642 622.339031 361.407642 626.683761 361.407642 631.028490 361.407642 635.373219 361.407642 639.717949 361.407642 644.062678 361.407642 648.407407 361.407642 652.752137 361.407642 657.096866 361.407642 661.441595 361.407642 665.786325 361.407642 670.131054 361.407642 674.475783 361.407642 678.820513 361.407642 683.165242 361.407642 687.509972 361.407642 691.854701 361.407642 696.199430 361.407642 700.544160 361.407642 704.888889 361.407642 709.233618 361.407642 713.578348 361.407642 717.923077 361.407642"/></g></g><g class="titles"><text class="title plot_title" x="400.0" y="26">SR Watson: Future and Past Averages in ODIs</text></g><g class="plot overlay" transform="translate(48, 46)"><g class="series serie-0 color-0"><g class="dots"><desc class="label">168 wickets in 163 innings (1077.4 overs)</desc><circle class="dot reactive tooltip-trigger" cx="14.076923076923077" cy="361.4076417262162" r="2.5"/><desc class="value">31.8</desc><desc class="x top">14.076923076923077</desc><desc class="y top">361.4076417262162</desc><desc class="x_label">2002</desc></g><g class="dots"><desc class="label">156 wickets in 147 innings (977.5 overs)</desc><circle class="dot reactive tooltip-trigger" cx="83.59259259259258" cy="362.73464935068984" r="2.5"/><desc class="value">31.34</desc><desc class="x top">83.59259259259258</desc><desc class="y top">362.73464935068984</desc><desc class="x_label">2003</desc></g><g class="dots"><desc class="label">150 wickets in 142 innings (940.5 overs)</desc><circle class="dot reactive tooltip-trigger" cx="105.31623931623929" cy="362.5615613996715" r="2.5"/><desc class="value">31.4</desc><desc class="x top">105.31623931623929</desc><desc class="y top">362.5615613996715</desc><desc class="x_label">2004</desc></g><g class="dots"><desc class="label">150 wickets in 138 innings (909.1 overs)</desc><circle class="dot reactive tooltip-trigger" cx="122.69515669515668" cy="365.61944853432817" r="2.5"/><desc class="value">30.34</desc><desc class="x top">122.69515669515668</desc><desc class="y top">365.61944853432817</desc><desc class="x_label">2005</desc></g><g class="dots"><desc class="label">135 wickets in 125 innings (810.0 overs)</desc><circle class="dot reactive tooltip-trigger" cx="179.17663817663816" cy="365.9944724282012" r="2.5"/><desc class="value">30.21</desc><desc class="x top">179.17663817663816</desc><desc class="y top">365.9944724282012</desc><desc class="x_label">2006</desc></g><g class="dots"><desc class="label">116 wickets in 114 innings (730.0 overs)</desc><circle class="dot reactive tooltip-trigger" cx="226.968660968661" cy="360.74413791397933" r="2.5"/><desc class="value">32.03</desc><desc class="x top">226.968660968661</desc><desc class="y top">360.74413791397933</desc><desc class="x_label">2007</desc></g><g class="dots"><desc class="label">106 wickets in 102 innings (645.3 overs)</desc><circle class="dot reactive tooltip-trigger" cx="279.1054131054131" cy="365.33096861596437" r="2.5"/><desc class="value">30.44</desc><desc class="x top">279.1054131054131</desc><desc class="y top">365.33096861596437</desc><desc class="x_label">2008</desc></g><g class="dots"><desc class="label">98 wickets in 95 innings (609.3 overs)</desc><circle class="dot reactive tooltip-trigger" cx="309.51851851851853" cy="362.0422975466166" r="2.5"/><desc class="value">31.58</desc><desc class="x top">309.51851851851853</desc><desc class="y top">362.0422975466166</desc><desc class="x_label">2009</desc></g><g class="dots"><desc class="label">69 wickets in 79 innings (485.3 overs)</desc><circle class="dot reactive tooltip-trigger" cx="379.034188034188" cy="349.69535704064435" r="2.5"/><desc class="value">35.86</desc><desc class="x left top">379.034188034188</desc><desc class="y left top">349.69535704064435</desc><desc class="x_label">2010</desc></g><g class="dots"><desc class="label">47 wickets in 63 innings (383.1 overs)</desc><circle class="dot reactive tooltip-trigger" cx="448.5498575498575" cy="332.7327378408507" r="2.5"/><desc class="value">41.74</desc><desc class="x left top">448.5498575498575</desc><desc class="y left top">332.7327378408507</desc><desc class="x_label">2011</desc></g><g class="dots"><desc class="label">30 wickets in 40 innings (238.2 overs)</desc><circle class="dot reactive tooltip-trigger" cx="548.4786324786324" cy="331.6076661592317" r="2.5"/><desc class="value">42.13</desc><desc class="x left top">548.4786324786324</desc><desc class="y left top">331.6076661592317</desc><desc class="x_label">2012</desc></g><g class="dots"><desc class="label">13 wickets in 27 innings (146.4 overs)</desc><circle class="dot reactive tooltip-trigger" cx="604.9601139601139" cy="259.6319265274542" r="2.5"/><desc class="value">67.08</desc><desc class="x left top">604.9601139601139</desc><desc class="y left top">259.6319265274542</desc><desc class="x_label">2013</desc></g><g class="dots"><desc class="label">6 wickets in 16 innings (77.4 overs)</desc><circle class="dot reactive tooltip-trigger" cx="652.7521367521367" cy="222.36032107484633" r="2.5"/><desc class="value">80</desc><desc class="x left">652.7521367521367</desc><desc class="y left">222.36032107484633</desc><desc class="x_label">2014</desc></g><g class="dots"><desc class="label">4 wickets in 10 innings (48.0 overs)</desc><circle class="dot reactive tooltip-trigger" cx="678.8205128205128" cy="252.65071250304928" r="2.5"/><desc class="value">69.5</desc><desc class="x left top">678.8205128205128</desc><desc class="y left top">252.65071250304928</desc><desc class="x_label">2015</desc></g></g><g class="series serie-1 color-1"><g class="dots"><desc class="label">0 wickets over 0 innings</desc><circle class="dot reactive tooltip-trigger" cx="14.076923076923077" cy="453.1442557659166" r="2.5"/><desc class="value">0</desc><desc class="x top">14.076923076923077</desc><desc class="y top">453.1442557659166</desc><desc class="x_label">2002</desc></g><g class="dots"><desc class="label">12 wickets in 16 innings (99.5 overs)</desc><circle class="dot reactive tooltip-trigger" cx="83.59259259259258" cy="344.2430865835678" r="2.5"/><desc class="value">37.75</desc><desc class="x top">83.59259259259258</desc><desc class="y top">344.2430865835678</desc><desc class="x_label">2003</desc></g><g class="dots"><desc class="label">18 wickets in 21 innings (136.5 overs)</desc><circle class="dot reactive tooltip-trigger" cx="105.31623931623929" cy="351.8589564283732" r="2.5"/><desc class="value">35.11</desc><desc class="x top">105.31623931623929</desc><desc class="y top">351.8589564283732</desc><desc class="x_label">2004</desc></g><g class="dots"><desc class="label">18 wickets in 25 innings (168.3 overs)</desc><circle class="dot reactive tooltip-trigger" cx="122.69515669515668" cy="326.3861796368463" r="2.5"/><desc class="value">43.94</desc><desc class="x top">122.69515669515668</desc><desc class="y top">326.3861796368463</desc><desc class="x_label">2005</desc></g><g class="dots"><desc class="label">33 wickets in 38 innings (267.4 overs)</desc><circle class="dot reactive tooltip-trigger" cx="179.17663817663816" cy="342.7429910080759" r="2.5"/><desc class="value">38.27</desc><desc class="x top">179.17663817663816</desc><desc class="y top">342.7429910080759</desc><desc class="x_label">2006</desc></g><g class="dots"><desc class="label">52 wickets in 49 innings (347.4 overs)</desc><circle class="dot reactive tooltip-trigger" cx="226.968660968661" cy="362.87888930987174" r="2.5"/><desc class="value">31.29</desc><desc class="x top">226.968660968661</desc><desc class="y top">362.87888930987174</desc><desc class="x_label">2007</desc></g><g class="dots"><desc class="label">62 wickets in 61 innings (432.1 overs)</desc><circle class="dot reactive tooltip-trigger" cx="279.1054131054131" cy="354.7437556120115" r="2.5"/><desc class="value">34.11</desc><desc class="x top">279.1054131054131</desc><desc class="y top">354.7437556120115</desc><desc class="x_label">2008</desc></g><g class="dots"><desc class="label">70 wickets in 68 innings (468.1 overs)</desc><circle class="dot reactive tooltip-trigger" cx="309.51851851851853" cy="360.54220197112465" r="2.5"/><desc class="value">32.1</desc><desc class="x top">309.51851851851853</desc><desc class="y top">360.54220197112465</desc><desc class="x_label">2009</desc></g><g class="dots"><desc class="label">99 wickets in 84 innings (592.1 overs)</desc><circle class="dot reactive tooltip-trigger" cx="379.034188034188" cy="369.57162341591277" r="2.5"/><desc class="value">28.97</desc><desc class="x left top">379.034188034188</desc><desc class="y left top">369.57162341591277</desc><desc class="x_label">2010</desc></g><g class="dots"><desc class="label">121 wickets in 100 innings (694.3 overs)</desc><circle class="dot reactive tooltip-trigger" cx="448.5498575498575" cy="372.5718145668967" r="2.5"/><desc class="value">27.93</desc><desc class="x left top">448.5498575498575</desc><desc class="y left top">372.5718145668967</desc><desc class="x_label">2011</desc></g><g class="dots"><desc class="label">138 wickets in 123 innings (839.2 overs)</desc><circle class="dot reactive tooltip-trigger" cx="548.4786324786324" cy="367.89843988940254" r="2.5"/><desc class="value">29.55</desc><desc class="x left top">548.4786324786324</desc><desc class="y left top">367.89843988940254</desc><desc class="x_label">2012</desc></g><g class="dots"><desc class="label">155 wickets in 136 innings (931.0 overs)</desc><circle class="dot reactive tooltip-trigger" cx="604.9601139601139" cy="369.94664730978576" r="2.5"/><desc class="value">28.84</desc><desc class="x left top">604.9601139601139</desc><desc class="y left top">369.94664730978576</desc><desc class="x_label">2013</desc></g><g class="dots"><desc class="label">162 wickets in 147 innings (1000.0 overs)</desc><circle class="dot reactive tooltip-trigger" cx="652.7521367521367" cy="366.57143226492883" r="2.5"/><desc class="value">30.01</desc><desc class="x left top">652.7521367521367</desc><desc class="y left top">366.57143226492883</desc><desc class="x_label">2014</desc></g><g class="dots"><desc class="label">164 wickets in 153 innings (1029.4 overs)</desc><circle class="dot reactive tooltip-trigger" cx="678.8205128205128" cy="364.0616569751635" r="2.5"/><desc class="value">30.88</desc><desc class="x left top">678.8205128205128</desc><desc class="y left top">364.0616569751635</desc><desc class="x_label">2015</desc></g></g><g class="series serie-2 color-2"/></g><g class="plot text-overlay" transform="translate(48, 46)"><g class="series serie-0 color-0"/><g class="series serie-1 color-1"/><g class="series serie-2 color-2"/></g><g class="plot tooltip-overlay" transform="translate(48, 46)"><g class="tooltip" style="opacity: 0" transform="translate(0 0)"><rect class="tooltip-box" height="0" rx="10" ry="10" width="0"/><g class="text"/></g></g><g class="legends" transform="translate(58, 545)"><g class="legend reactive activate-serie" id="activate-serie-0"><rect class="color-0 reactive" height="12" width="12" x="0.0" y="1.0"/><text x="17.0" y="11.2">Future Average</text></g><g class="legend reactive activate-serie" id="activate-serie-1"><rect class="color-1 reactive" height="12" width="12" x="366.0" y="1.0"/><text x="383.0" y="11.2">Past Average</text></g><g class="legend reactive activate-serie" id="activate-serie-2"><rect class="color-2 reactive" height="12" width="12" x="0.0" y="22.0"/><text x="17.0" y="32.2">Career Average</text></g></g></g></svg>