<?xml version='1.0' encoding='utf-8'?>
<svg xmlns:xlink="http://www.w3.org/1999/xlink" xmlns="http://www.w3.org/2000/svg" id="chart-b75eb15f-257e-4ffd-9258-afa3def8ec18" class="pygal-chart" viewBox="0 0 800 600"><!--Generated with pygal 2.4.0 (lxml) ©Kozea 2012-2016 on 2019-08-04--><!--http://pygal.org--><!--http://github.com/Kozea/pygal--><defs><style type="text/css">#chart-b75eb15f-257e-4ffd-9258-afa3def8ec18{-webkit-user-select:none;-webkit-font-smoothing:antialiased;font-family:Consolas,"Liberation Mono",Menlo,Courier,monospace}#chart-b75eb15f-257e-4ffd-9258-afa3def8ec18 .title{font-family:Consolas,"Liberation Mono",Menlo,Courier,monospace;font-size:16px}#chart-b75eb15f-257e-4ffd-9258-afa3def8ec18 .legends .legend text{font-family:Consolas,"Liberation Mono",Menlo,Courier,monospace;font-size:14px}#chart-b75eb15f-257e-4ffd-9258-afa3def8ec18 .axis text{font-family:Consolas,"Liberation Mono",Menlo,Courier,monospace;font-size:10px}#chart-b75eb15f-257e-4ffd-9258-afa3def8ec18 .axis text.major{font-family:Consolas,"Liberation Mono",Menlo,Courier,monospace;font-size:10px}#chart-b75eb15f-257e-4ffd-9258-afa3def8ec18 .text-overlay text.value{font-family:Consolas,"Liberation Mono",Menlo,Courier,monospace;font-size:16px}#chart-b75eb15f-257e-4ffd-9258-afa3def8ec18 .text-overlay text.label{font-family:Consolas,"Liberation Mono",Menlo,Courier,monospace;font-size:10px}#chart-b75eb15f-257e-4ffd-9258-afa3def8ec18 .tooltip{font-family:Consolas,"Liberation Mono",Menlo,Courier,monospace;font-size:14px}#chart-b75eb15f-257e-4ffd-9258-afa3def8ec18 text.no_data{font-family:Consolas,"Liberation Mono",Menlo,Courier,monospace;font-size:64px}
#chart-b75eb15f-257e-4ffd-9258-afa3def8ec18{background-color:rgba(249,249,249,1)}#chart-b75eb15f-257e-4ffd-9258-afa3def8ec18 path,#chart-b75eb15f-257e-4ffd-9258-afa3def8ec18 line,#chart-b75eb15f-257e-4ffd-9258-afa3def8ec18 rect,#chart-b75eb15f-257e-4ffd-9258-afa3def8ec18 circle{-webkit-transition:150ms;-moz-transition:150ms;transition:150ms}#chart-b75eb15f-257e-4ffd-9258-afa3def8ec18 .graph &gt; .background{fill:rgba(249,249,249,1)}#chart-b75eb15f-257e-4ffd-9258-afa3def8ec18 .plot &gt; .background{fill:rgba(255,255,255,1)}#chart-b75eb15f-257e-4ffd-9258-afa3def8ec18 .graph{fill:rgba(0,0,0,.87)}#chart-b75eb15f-257e-4ffd-9258-afa3def8ec18 text.no_data{fill:rgba(0,0,0,1)}#chart-b75eb15f-257e-4ffd-9258-afa3def8ec18 .title{fill:rgba(0,0,0,1)}#chart-b75eb15f-257e-4ffd-9258-afa3def8ec18 .legends .legend text{fill:rgba(0,0,0,.87)}#chart-b75eb15f-257e-4ffd-9258-afa3def8ec18 .legends .legend:hover text{fill:rgba(0,0,0,1)}#chart-b75eb15f-257e-4ffd-9258-afa3def8ec18 .axis .line{stroke:rgba(0,0,0,1)}#chart-b75eb15f-257e-4ffd-9258-afa3def8ec18 .axis .guide.line{stroke:rgba(0,0,0,.54)}#chart-b75eb15f-257e-4ffd-9258-afa3def8ec18 .axis .major.line{stroke:rgba(0,0,0,.87)}#chart-b75eb15f-257e-4ffd-9258-afa3def8ec18 .axis text.major{fill:rgba(0,0,0,1)}#chart-b75eb15f-257e-4ffd-9258-afa3def8ec18 .axis.y .guides:hover .guide.line,#chart-b75eb15f-257e-4ffd-9258-afa3def8ec18 .line-graph .axis.x .guides:hover .guide.line,#chart-b75eb15f-257e-4ffd-9258-afa3def8ec18 .stackedline-graph .axis.x .guides:hover .guide.line,#chart-b75eb15f-257e-4ffd-9258-afa3def8ec18 .xy-graph .axis.x .guides:hover .guide.line{stroke:rgba(0,0,0,1)}#chart-b75eb15f-257e-4ffd-9258-afa3def8ec18 .axis .guides:hover text{fill:rgba(0,0,0,1)}#chart-b75eb15f-257e-4ffd-9258-afa3def8ec18 .reactive{fill-opacity:.7;stroke-opacity:.8}#chart-b75eb15f-257e-4ffd-9258-afa3def8ec18 .ci{stroke:rgba(0,0,0,.87)}#chart-b75eb15f-257e-4ffd-9258-afa3def8ec18 .reactive.active,#chart-b75eb15f-257e-4ffd-9258-afa3def8ec18 .active .reactive{fill-opacity:.8;stroke-opacity:.9;stroke-width:4}#chart-b75eb15f-257e-4ffd-9258-afa3def8ec18 .ci .reactive.active{stroke-width:1.5}#chart-b75eb15f-257e-4ffd-9258-afa3def8ec18 .series text{fill:rgba(0,0,0,1)}#chart-b75eb15f-257e-4ffd-9258-afa3def8ec18 .tooltip rect{fill:rgba(255,255,255,1);stroke:rgba(0,0,0,1);-webkit-transition:opacity 150ms;-moz-transition:opacity 150ms;transition:opacity 150ms}#chart-b75eb15f-257e-4ffd-9258-afa3def8ec18 .tooltip .label{fill:rgba(0,0,0,.87)}#chart-b75eb15f-257e-4ffd-9258-afa3def8ec18 .tooltip .label{fill:rgba(0,0,0,.87)}#chart-b75eb15f-257e-4ffd-9258-afa3def8ec18 .tooltip .legend{font-size:.8em;fill:rgba(0,0,0,.54)}#chart-b75eb15f-257e-4ffd-9258-afa3def8ec18 .tooltip .x_label{font-size:.6em;fill:rgba(0,0,0,1)}#chart-b75eb15f-257e-4ffd-9258-afa3def8ec18 .tooltip .xlink{font-size:.5em;text-decoration:underline}#chart-b75eb15f-257e-4ffd-9258-afa3def8ec18 .tooltip .value{font-size:1.5em}#chart-b75eb15f-257e-4ffd-9258-afa3def8ec18 .bound{font-size:.5em}#chart-b75eb15f-257e-4ffd-9258-afa3def8ec18 .max-value{font-size:.75em;fill:rgba(0,0,0,.54)}#chart-b75eb15f-257e-4ffd-9258-afa3def8ec18 .map-element{fill:rgba(255,255,255,1);stroke:rgba(0,0,0,.54) !important}#chart-b75eb15f-257e-4ffd-9258-afa3def8ec18 .map-element .reactive{fill-opacity:inherit;stroke-opacity:inherit}#chart-b75eb15f-257e-4ffd-9258-afa3def8ec18 .color-0,#chart-b75eb15f-257e-4ffd-9258-afa3def8ec18 .color-0 a:visited{stroke:red;fill:red}#chart-b75eb15f-257e-4ffd-9258-afa3def8ec18 .color-1,#chart-b75eb15f-257e-4ffd-9258-afa3def8ec18 .color-1 a:visited{stroke:blue;fill:blue}#chart-b75eb15f-257e-4ffd-9258-afa3def8ec18 .color-2,#chart-b75eb15f-257e-4ffd-9258-afa3def8ec18 .color-2 a:visited{stroke:green;fill:green}#chart-b75eb15f-257e-4ffd-9258-afa3def8ec18 .text-overlay .color-0 text{fill:white}#chart-b75eb15f-257e-4ffd-9258-afa3def8ec18 .text-overlay .color-1 text{fill:white}#chart-b75eb15f-257e-4ffd-9258-afa3def8ec18 .text-overlay .color-2 text{fill:white}
#chart-b75eb15f-257e-4ffd-9258-afa3def8ec18 text.no_data{text-anchor:middle}#chart-b75eb15f-257e-4ffd-9258-afa3def8ec18 .guide.line{fill:none}#chart-b75eb15f-257e-4ffd-9258-afa3def8ec18 .centered{text-anchor:middle}#chart-b75eb15f-257e-4ffd-9258-afa3def8ec18 .title{text-anchor:middle}#chart-b75eb15f-257e-4ffd-9258-afa3def8ec18 .legends .legend text{fill-opacity:1}#chart-b75eb15f-257e-4ffd-9258-afa3def8ec18 .axis.x text{text-anchor:middle}#chart-b75eb15f-257e-4ffd-9258-afa3def8ec18 .axis.x:not(.web) text[transform]{text-anchor:start}#chart-b75eb15f-257e-4ffd-9258-afa3def8ec18 .axis.x:not(.web) text[transform].backwards{text-anchor:end}#chart-b75eb15f-257e-4ffd-9258-afa3def8ec18 .axis.y text{text-anchor:end}#chart-b75eb15f-257e-4ffd-9258-afa3def8ec18 .axis.y text[transform].backwards{text-anchor:start}#chart-b75eb15f-257e-4ffd-9258-afa3def8ec18 .axis.y2 text{text-anchor:start}#chart-b75eb15f-257e-4ffd-9258-afa3def8ec18 .axis.y2 text[transform].backwards{text-anchor:end}#chart-b75eb15f-257e-4ffd-9258-afa3def8ec18 .axis .guide.line{stroke-dasharray:4,4}#chart-b75eb15f-257e-4ffd-9258-afa3def8ec18 .axis .major.guide.line{stroke-dasharray:6,6}#chart-b75eb15f-257e-4ffd-9258-afa3def8ec18 .horizontal .axis.y .guide.line,#chart-b75eb15f-257e-4ffd-9258-afa3def8ec18 .horizontal .axis.y2 .guide.line,#chart-b75eb15f-257e-4ffd-9258-afa3def8ec18 .vertical .axis.x .guide.line{opacity:0}#chart-b75eb15f-257e-4ffd-9258-afa3def8ec18 .horizontal .axis.always_show .guide.line,#chart-b75eb15f-257e-4ffd-9258-afa3def8ec18 .vertical .axis.always_show .guide.line{opacity:1 !important}#chart-b75eb15f-257e-4ffd-9258-afa3def8ec18 .axis.y .guides:hover .guide.line,#chart-b75eb15f-257e-4ffd-9258-afa3def8ec18 .axis.y2 .guides:hover .guide.line,#chart-b75eb15f-257e-4ffd-9258-afa3def8ec18 .axis.x .guides:hover .guide.line{opacity:1}#chart-b75eb15f-257e-4ffd-9258-afa3def8ec18 .axis .guides:hover text{opacity:1}#chart-b75eb15f-257e-4ffd-9258-afa3def8ec18 .nofill{fill:none}#chart-b75eb15f-257e-4ffd-9258-afa3def8ec18 .subtle-fill{fill-opacity:.2}#chart-b75eb15f-257e-4ffd-9258-afa3def8ec18 .dot{stroke-width:1px;fill-opacity:1}#chart-b75eb15f-257e-4ffd-9258-afa3def8ec18 .dot.active{stroke-width:5px}#chart-b75eb15f-257e-4ffd-9258-afa3def8ec18 .dot.negative{fill:transparent}#chart-b75eb15f-257e-4ffd-9258-afa3def8ec18 text,#chart-b75eb15f-257e-4ffd-9258-afa3def8ec18 tspan{stroke:none !important}#chart-b75eb15f-257e-4ffd-9258-afa3def8ec18 .series text.active{opacity:1}#chart-b75eb15f-257e-4ffd-9258-afa3def8ec18 .tooltip rect{fill-opacity:.95;stroke-width:.5}#chart-b75eb15f-257e-4ffd-9258-afa3def8ec18 .tooltip text{fill-opacity:1}#chart-b75eb15f-257e-4ffd-9258-afa3def8ec18 .showable{visibility:hidden}#chart-b75eb15f-257e-4ffd-9258-afa3def8ec18 .showable.shown{visibility:visible}#chart-b75eb15f-257e-4ffd-9258-afa3def8ec18 .gauge-background{fill:rgba(229,229,229,1);stroke:none}#chart-b75eb15f-257e-4ffd-9258-afa3def8ec18 .bg-lines{stroke:rgba(249,249,249,1);stroke-width:2px}</style><script type="text/javascript">window.pygal = window.pygal || {};window.pygal.config = window.pygal.config || {};window.pygal.config['b75eb15f-257e-4ffd-9258-afa3def8ec18'] = {"allow_interruptions": false, "box_mode": "extremes", "classes": ["pygal-chart"], "css": ["file://style.css", "file://graph.css"], "defs": [], "disable_xml_declaration": false, "dots_size": 2.5, "dynamic_print_values": false, "explicit_size": false, "fill": false, "force_uri_protocol": "https", "formatter": null, "half_pie": false, "height": 600, "include_x_axis": false, "inner_radius": 0, "interpolate": null, "interpolation_parameters": {}, "interpolation_precision": 250, "inverse_y_axis": false, "js": ["//kozea.github.io/pygal.js/2.0.x/pygal-tooltips.min.js"], "legend_at_bottom": true, "legend_at_bottom_columns": null, "legend_box_size": 12, "logarithmic": false, "margin": 20, "margin_bottom": null, "margin_left": null, "margin_right": null, "margin_top": null, "max_scale": 16, "min_scale": 4, "missing_value_fill_truncation": "x", "no_data_text": "No data", "no_prefix": false, "order_min": null, "pretty_print": false, "print_labels": false, "print_values": false, "print_values_position": "center", "print_zeroes": true, "range": null, "rounded_bars": null, "secondary_range": null, "show_dots": true, "show_legend": true, "show_minor_x_labels": false, "show_minor_y_labels": true, "show_only_major_dots": false, "show_x_guides": false, "show_x_labels": true, "show_y_guides": true, "show_y_labels": true, "spacing": 10, "stack_from_top": false, "strict": false, "stroke": true, "stroke_style": null, "style": {"background": "rgba(249, 249, 249, 1)", "ci_colors": [], "colors": ["red", "blue", "green", "#a3a3a3"], "font_family": "Consolas, \"Liberation Mono\", Menlo, Courier, monospace", "foreground": "rgba(0, 0, 0, .87)", "foreground_strong": "rgba(0, 0, 0, 1)", "foreground_subtle": "rgba(0, 0, 0, .54)", "guide_stroke_dasharray": "4,4", "label_font_family": "Consolas, \"Liberation Mono\", Menlo, Courier, monospace", "label_font_size": 10, "legend_font_family": "Consolas, \"Liberation Mono\", Menlo, Courier, monospace", "legend_font_size": 14, "major_guide_stroke_dasharray": "6,6", "major_label_font_family": "Consolas, \"Liberation Mono\", Menlo, Courier, monospace", "major_label_font_size": 10, "no_data_font_family": "Consolas, \"Liberation Mono\", Menlo, Courier, monospace", "no_data_font_size": 64, "opacity": ".7", "opacity_hover": ".8", "plot_background": "rgba(255, 255, 255, 1)", "stroke_opacity": ".8", "stroke_opacity_hover": ".9", "title_font_family": "Consolas, \"Liberation Mono\", Menlo, Courier, monospace", "title_font_size": 16, "tooltip_font_family": "Consolas, \"Liberation Mono\", Menlo, Courier, monospace", "tooltip_font_size": 14, "transition": "150ms", "value_background": "rgba(229, 229, 229, 1)", "value_colors": [], "value_font_family": "Consolas, \"Liberation Mono\", Menlo, Courier, monospace", "value_font_size": 16, "value_label_font_family": "Consolas, \"Liberation Mono\", Menlo, Courier, monospace", "value_label_font_size": 10}, "title": "SR Waugh: Future and Past Averages in ODIs", "tooltip_border_radius": 10, "tooltip_fancy_mode": true, "truncate_label": null, "truncate_legend": null, "width": 800, "x_label_rotation": 45, "x_labels": ["1986", "0", "0", "0", "0", "0", "0", "0", "0", "0", "0", "0", "0", "0", "0", "0", "0", "0", "0", "0", "1987", "0", "0", "0", "0", "0", "0", "0", "0", "0", "0", "0", "0", "0", "0", "0", "0", "0", "0", "0", "0", "0", "0", "0", "1988", "0", "0", "0", "0", "0", "0", "0", "0", "0", "0", "0", "0", "0", "0", "1989", "0", "0", "0", "0", "0", "0", "0", "0", "0", "0", "0", "0", "1990", "0", "0", "0", "0", "0", "0", "0", "0", "0", "0", "1991", "0", "0", "0", "0", "0", "0", "0", "0", "0", "0", "0", "0", "0", "1992", "0", "0", "0", "0", "0", "0", "0", "0", "0", "0", "0", "0", "0", "0", "0", "0", "0", "1993", "0", "0", "0", "0", "0", "0", "0", "0", "0", "0", "0", "0", "0", "0", "0", "1994", "0", "0", "0", "0", "0", "0", "0", "0", "0", "0", "0", "0", "0", "0", "0", "0", "0", "0", "0", "0", "0", "0", "0", "1995", "0", "0", "1996", "0", "0", "0", "0", "0", "0", "0", "0", "0", "0", "0", "0", "0", "1997", "0", "0", "0", "1998", "0", "0", "0", "0", "0", "0", "0", "0", "0", "0", "0", "0", "0", "1999", "0", "0", "0", "0", "0", "0", "0", "0", "0", "2000", "0", "0", "0", "2001", "2002", "0"], "x_labels_major": ["1986", "1987", "1988", "1989", "1990", "1991", "1992", "1993", "1994", "1995", "1996", "1997", "1998", "1999", "2000", "2001", "2002"], "x_labels_major_count": null, "x_labels_major_every": null, "x_title": null, "xrange": null, "y_label_rotation": 0, "y_labels": null, "y_labels_major": null, "y_labels_major_count": null, "y_labels_major_every": null, "y_title": null, "zero": 60.0, "legends": ["Future Average", "Past Average", "Career Average"]}</script><script type="text/javascript" xlink:href="https://kozea.github.io/pygal.js/2.0.x/pygal-tooltips.min.js"/></defs><title>SR Waugh: Future and Past Averages in ODIs</title><g class="graph line-graph vertical"><rect class="background" height="600" width="800" x="0" y="0"/><g class="plot" transform="translate(42, 46)"><rect class="background" height="462.02943725152284" width="738.0" x="0" y="0"/><g class="axis y always_show"><g class="guides"><path class="axis major line" d="M0.000000 453.144256 h738.000000"/><text class="major" x="-5" y="456.6442557659166">0</text><title>0</title></g><g class="guides"><path class="guide line" d="M0.000000 377.846108 h738.000000"/><text class="" x="-5" y="381.34610758281315">10</text><title>10</title></g><g class="guides"><path class="guide line" d="M0.000000 302.547959 h738.000000"/><text class="" x="-5" y="306.0479593997097">20</text><title>20</title></g><g class="guides"><path class="guide line" d="M0.000000 227.249811 h738.000000"/><text class="" x="-5" y="230.74981121660625">30</text><title>30</title></g><g class="guides"><path class="guide line" d="M0.000000 151.951663 h738.000000"/><text class="" x="-5" y="155.45166303350283">40</text><title>40</title></g><g class="guides"><path class="major guide line" d="M0.000000 76.653515 h738.000000"/><text class="major" x="-5" y="80.15351485039935">50</text><title>50</title></g></g><g class="axis x"><g class="guides"><path class="major line" d="M14.192308 0.000000 v462.029437"/><text class="major" x="14.192307692307692" y="477.02943725152284" transform="rotate(45 14.192308 477.029437)">1986</text></g><g class="guides"><path class="major guide line" d="M83.087005 0.000000 v462.029437"/><text class="major" x="83.08700522778193" y="477.02943725152284" transform="rotate(45 83.087005 477.029437)">1987</text></g><g class="guides"><path class="major guide line" d="M165.760642 0.000000 v462.029437"/><text class="major" x="165.76064227035098" y="477.02943725152284" transform="rotate(45 165.760642 477.029437)">1988</text></g><g class="guides"><path class="major guide line" d="M217.431665 0.000000 v462.029437"/><text class="major" x="217.4316654219567" y="477.02943725152284" transform="rotate(45 217.431665 477.029437)">1989</text></g><g class="guides"><path class="major guide line" d="M262.213219 0.000000 v462.029437"/><text class="major" x="262.21321882001496" y="477.02943725152284" transform="rotate(45 262.213219 477.029437)">1990</text></g><g class="guides"><path class="major guide line" d="M300.105302 0.000000 v462.029437"/><text class="major" x="300.1053024645258" y="477.02943725152284" transform="rotate(45 300.105302 477.029437)">1991</text></g><g class="guides"><path class="major guide line" d="M348.331591 0.000000 v462.029437"/><text class="major" x="348.33159073935775" y="477.02943725152284" transform="rotate(45 348.331591 477.029437)">1992</text></g><g class="guides"><path class="major guide line" d="M410.336819 0.000000 v462.029437"/><text class="major" x="410.33681852128456" y="477.02943725152284" transform="rotate(45 410.336819 477.029437)">1993</text></g><g class="guides"><path class="major guide line" d="M465.452577 0.000000 v462.029437"/><text class="major" x="465.45257654966395" y="477.02943725152284" transform="rotate(45 465.452577 477.029437)">1994</text></g><g class="guides"><path class="major guide line" d="M548.126214 0.000000 v462.029437"/><text class="major" x="548.1262135922331" y="477.02943725152284" transform="rotate(45 548.126214 477.029437)">1995</text></g><g class="guides"><path class="major guide line" d="M558.460418 0.000000 v462.029437"/><text class="major" x="558.4604182225542" y="477.02943725152284" transform="rotate(45 558.460418 477.029437)">1996</text></g><g class="guides"><path class="major guide line" d="M606.686706 0.000000 v462.029437"/><text class="major" x="606.686706497386" y="477.02943725152284" transform="rotate(45 606.686706 477.029437)">1997</text></g><g class="guides"><path class="major guide line" d="M620.465646 0.000000 v462.029437"/><text class="major" x="620.465646004481" y="477.02943725152284" transform="rotate(45 620.465646 477.029437)">1998</text></g><g class="guides"><path class="major guide line" d="M668.691934 0.000000 v462.029437"/><text class="major" x="668.6919342793129" y="477.02943725152284" transform="rotate(45 668.691934 477.029437)">1999</text></g><g class="guides"><path class="major guide line" d="M703.139283 0.000000 v462.029437"/><text class="major" x="703.1392830470501" y="477.02943725152284" transform="rotate(45 703.139283 477.029437)">2000</text></g><g class="guides"><path class="major guide line" d="M716.918223 0.000000 v462.029437"/><text class="major" x="716.9182225541449" y="477.02943725152284" transform="rotate(45 716.918223 477.029437)">2001</text></g><g class="guides"><path class="major guide line" d="M720.362957 0.000000 v462.029437"/><text class="major" x="720.3629574309186" y="477.02943725152284" transform="rotate(45 720.362957 477.029437)">2002</text></g></g><g class="series serie-0 color-0"><path class="line reactive nofill" d="M14.192308 192.085576 L17.637043 191.257296 21.081777 190.278420 24.526512 189.374843 27.971247 190.052526 31.415982 188.395967 34.860717 188.772457 38.305452 189.826632 41.750187 191.181998 45.194922 191.031402 48.639656 191.633787 52.084391 191.633787 55.529126 192.160874 58.973861 192.010278 62.418596 192.462067 65.863331 193.440943 69.308066 195.172800 72.752801 193.968030 76.197535 193.139750 79.642270 193.591539 83.087005 192.763259 86.531740 192.311470 89.976475 188.395967 93.421210 188.621861 96.865945 188.019476 100.310680 187.793582 103.755414 187.191196 107.200149 185.835830 110.644884 183.953376 114.089619 181.543835 117.534354 177.628332 120.979089 177.854226 124.423824 179.586083 127.868559 179.887276 131.313294 181.468537 134.758028 181.317941 138.202763 181.995624 141.647498 181.016748 145.092233 181.317941 148.536968 179.510785 151.981703 180.640257 155.426438 178.833102 158.871173 177.402437 162.315907 178.155419 165.760642 176.272965 169.205377 172.206865 172.650112 172.809250 176.094847 173.035145 179.539582 175.068195 182.984317 174.842300 186.429052 171.980970 189.873786 165.279435 193.318521 162.719298 196.763256 160.987441 200.207991 161.665124 203.652726 161.891019 207.097461 162.116913 210.542196 161.363932 213.986931 162.267509 217.431665 158.577900 220.876400 156.695446 224.321135 158.954391 227.765870 161.213335 231.210605 162.945193 234.655340 161.288633 238.100075 164.074665 241.544810 164.451156 244.989544 166.258311 248.434279 164.149963 251.879014 164.752348 255.323749 169.420833 258.768484 168.592554 262.213219 169.119641 265.657954 169.496132 269.102689 171.679778 272.547423 168.065467 275.992158 167.914870 279.436893 166.785398 282.881628 170.249113 286.326363 171.077393 289.771098 172.131567 293.215833 169.496132 296.660568 170.926796 300.105302 169.496132 303.550037 168.592554 306.994772 167.613678 310.439507 170.023219 313.884242 172.809250 317.328977 169.571430 320.773712 171.378585 324.218447 171.529182 327.663181 167.538380 331.107916 170.173815 334.552651 164.752348 337.997386 167.237187 341.442121 162.267509 344.886856 161.288633 348.331591 157.373130 351.776326 159.029689 355.221060 151.349278 358.665795 146.605495 362.110530 142.012307 365.555265 141.861711 369.000000 147.584370 372.444735 149.090333 375.889470 149.993911 379.334205 148.939737 382.778940 152.252856 386.223674 143.744165 389.668409 138.021506 393.113144 136.139052 396.557879 139.452170 400.002614 133.051828 403.447349 134.557791 406.892084 135.461369 410.336819 134.934282 413.781553 133.503617 417.226288 131.094076 420.671023 134.181300 424.115758 129.362219 427.560493 132.976530 431.005228 134.858983 434.449963 133.955406 437.894698 138.473295 441.339432 145.777215 444.784167 138.774487 448.228902 129.061026 451.673637 130.717585 455.118372 130.792883 458.563107 135.913157 462.007842 138.172102 465.452577 128.910430 468.897311 133.578915 472.342046 138.774487 475.786781 136.590841 479.231516 138.247400 482.676251 137.795611 486.120986 145.927811 489.565721 150.144507 493.010456 149.015035 496.455190 152.704645 499.899925 150.370402 503.344660 151.650470 506.789395 155.189483 510.234130 149.918613 513.678865 138.849785 517.123600 147.207880 520.568335 156.318956 524.013069 137.042630 527.457804 135.310772 530.902539 133.353020 534.347274 122.886578 537.792009 130.642287 541.236744 139.000382 544.681479 144.421848 548.126214 145.701917 551.570948 148.789141 555.015683 144.421848 558.460418 145.777215 561.905153 149.015035 565.349888 152.177557 568.794623 161.966317 572.239358 148.563246 575.684093 133.277722 579.128827 139.753363 582.573562 136.590841 586.018297 140.656941 589.463032 135.762561 592.907767 134.030704 596.352502 127.253870 599.797237 136.590841 603.241972 126.124398 606.686706 133.955406 610.131441 141.786413 613.576176 149.993911 617.020911 156.544850 620.465646 163.773472 623.910381 155.340080 627.355116 149.768017 630.799851 136.063754 634.244586 158.276707 637.689320 164.902945 641.134055 148.638545 644.578790 72.286222 648.023525 96.080437 651.468260 108.128141 654.912995 127.329169 658.357730 143.066482 661.802465 128.609237 665.247199 161.740422 668.691934 185.082848 672.136669 166.183013 675.581404 177.025946 679.026139 196.302272 682.470874 180.188469 685.915609 164.827646 689.360344 191.784383 692.805078 231.541806 696.249813 154.963589 699.694548 129.362219 703.139283 159.481478 706.584018 168.893746 710.028753 200.895459 713.473488 234.779626 716.918223 232.294787 720.362957 8.885181 723.807692 257.369070"/></g><g class="series serie-1 color-1"><path class="line reactive nofill" d="M14.192308 453.144256 L17.637043 355.256663 21.081777 305.032798 24.526512 319.490043 27.971247 289.370783 31.415982 308.797706 34.860717 296.298213 38.305452 263.618817 41.750187 221.000065 45.194922 220.774170 48.639656 204.660367 52.084391 201.799037 55.529126 190.429017 58.973861 193.365645 62.418596 186.212320 65.863331 169.044343 69.308066 140.280450 72.752801 165.279435 76.197535 179.586083 79.642270 174.992896 83.087005 185.007550 86.531740 189.600737 89.976475 219.719996 93.421210 216.557474 96.865945 218.590524 100.310680 218.891717 103.755414 221.301258 107.200149 226.496830 110.644884 233.574856 114.089619 241.857652 117.534354 253.679461 120.979089 250.818132 124.423824 243.664808 127.868559 240.954074 131.313294 234.403135 134.758028 233.650154 138.202763 230.035843 141.647498 231.240613 145.092233 230.035843 148.536968 233.951346 151.981703 229.056967 155.426438 232.595980 158.871173 235.683204 162.315907 232.370085 165.760642 235.532608 169.205377 242.685932 172.650112 239.899900 176.094847 238.243341 179.539582 233.348961 182.984317 232.821874 186.429052 237.264465 189.873786 246.902628 193.318521 249.387467 196.763256 250.140448 200.207991 247.580311 203.652726 245.999050 207.097461 244.417789 210.542196 244.493087 213.986931 242.911826 217.431665 245.622559 220.876400 246.300243 224.321135 242.761230 227.765870 239.372813 231.210605 236.737378 234.655340 238.243341 238.100075 234.101943 241.544810 232.595980 244.989544 230.035843 248.434279 231.315911 251.879014 229.734650 255.323749 223.334308 258.768484 223.710798 262.213219 222.430730 265.657954 221.903643 269.102689 218.967015 272.547423 222.506028 275.992158 222.054239 279.436893 222.807220 282.881628 218.590524 286.326363 217.084561 289.771098 215.352704 293.215833 217.310456 296.660568 215.729195 300.105302 216.783369 303.550037 217.310456 306.994772 217.837543 310.439507 215.277406 313.884242 212.340778 317.328977 214.825617 320.773712 212.943163 324.218447 212.416076 327.663181 215.352704 331.107916 212.867865 334.552651 216.482176 337.997386 214.223232 341.442121 217.611648 344.886856 217.912841 348.331591 220.021189 351.776326 218.665822 355.221060 222.882519 358.665795 225.066165 362.110530 226.948619 365.555265 226.270935 369.000000 222.355432 372.444735 221.376556 375.889470 220.096487 379.334205 220.247083 382.778940 218.063437 386.223674 221.677748 389.668409 223.710798 393.113144 224.087289 396.557879 222.204835 400.002614 224.388482 403.447349 222.882519 406.892084 221.753046 410.336819 221.301258 413.781553 221.376556 417.226288 221.828345 420.671023 220.322382 424.115758 221.301258 427.560493 219.569400 431.005228 218.741120 434.449963 218.515226 437.894698 216.482176 441.339432 213.169058 444.784167 215.202108 448.228902 217.461052 451.673637 216.180983 455.118372 215.578598 458.563107 213.545548 462.007842 212.717269 465.452577 215.051511 468.897311 213.319654 472.342046 211.437200 475.786781 211.738393 479.231516 211.136008 482.676251 210.759517 486.120986 207.973485 489.565721 206.542820 493.010456 206.542820 496.455190 205.262752 499.899925 205.714541 503.344660 204.886261 506.789395 203.832087 510.234130 204.735665 513.678865 207.145206 517.123600 204.735665 520.568335 202.175528 524.013069 206.241628 527.457804 206.241628 530.902539 206.316926 534.347274 207.747591 537.792009 206.015733 541.236744 204.057982 544.681479 202.853211 548.126214 202.552019 551.570948 201.874335 555.015683 202.100230 558.460418 201.497845 561.905153 200.820161 565.349888 200.217776 568.794623 198.184726 572.239358 200.293074 575.684093 202.326124 579.128827 201.196652 582.573562 201.347248 586.018297 200.669565 589.463032 201.121354 592.907767 200.970758 596.352502 201.573143 599.797237 200.217776 603.241972 200.895459 606.686706 199.841285 610.131441 198.787111 613.576176 197.732937 617.020911 196.829359 620.465646 195.850483 623.910381 196.754061 627.355116 197.205850 630.799851 198.109428 634.244586 195.699887 637.689320 194.796309 641.134055 195.925782 644.578790 199.916583 648.023525 198.335322 651.468260 197.055254 654.912995 195.925782 658.357730 195.022204 661.802465 195.473993 665.247199 193.742135 668.691934 192.462067 672.136669 193.290346 675.581404 192.763259 679.026139 191.859682 682.470874 192.612663 685.915609 193.064452 689.360344 192.085576 692.805078 190.579613 696.249813 193.064452 699.694548 193.365645 703.139283 192.763259 706.584018 192.537365 710.028753 191.859682 713.473488 191.181998 716.918223 191.407893 720.362957 194.344520 723.807692 193.064452"/></g><g class="series serie-2 color-2"><path class="line reactive nofill" d="M14.192308 192.085576 L17.637043 192.085576 21.081777 192.085576 24.526512 192.085576 27.971247 192.085576 31.415982 192.085576 34.860717 192.085576 38.305452 192.085576 41.750187 192.085576 45.194922 192.085576 48.639656 192.085576 52.084391 192.085576 55.529126 192.085576 58.973861 192.085576 62.418596 192.085576 65.863331 192.085576 69.308066 192.085576 72.752801 192.085576 76.197535 192.085576 79.642270 192.085576 83.087005 192.085576 86.531740 192.085576 89.976475 192.085576 93.421210 192.085576 96.865945 192.085576 100.310680 192.085576 103.755414 192.085576 107.200149 192.085576 110.644884 192.085576 114.089619 192.085576 117.534354 192.085576 120.979089 192.085576 124.423824 192.085576 127.868559 192.085576 131.313294 192.085576 134.758028 192.085576 138.202763 192.085576 141.647498 192.085576 145.092233 192.085576 148.536968 192.085576 151.981703 192.085576 155.426438 192.085576 158.871173 192.085576 162.315907 192.085576 165.760642 192.085576 169.205377 192.085576 172.650112 192.085576 176.094847 192.085576 179.539582 192.085576 182.984317 192.085576 186.429052 192.085576 189.873786 192.085576 193.318521 192.085576 196.763256 192.085576 200.207991 192.085576 203.652726 192.085576 207.097461 192.085576 210.542196 192.085576 213.986931 192.085576 217.431665 192.085576 220.876400 192.085576 224.321135 192.085576 227.765870 192.085576 231.210605 192.085576 234.655340 192.085576 238.100075 192.085576 241.544810 192.085576 244.989544 192.085576 248.434279 192.085576 251.879014 192.085576 255.323749 192.085576 258.768484 192.085576 262.213219 192.085576 265.657954 192.085576 269.102689 192.085576 272.547423 192.085576 275.992158 192.085576 279.436893 192.085576 282.881628 192.085576 286.326363 192.085576 289.771098 192.085576 293.215833 192.085576 296.660568 192.085576 300.105302 192.085576 303.550037 192.085576 306.994772 192.085576 310.439507 192.085576 313.884242 192.085576 317.328977 192.085576 320.773712 192.085576 324.218447 192.085576 327.663181 192.085576 331.107916 192.085576 334.552651 192.085576 337.997386 192.085576 341.442121 192.085576 344.886856 192.085576 348.331591 192.085576 351.776326 192.085576 355.221060 192.085576 358.665795 192.085576 362.110530 192.085576 365.555265 192.085576 369.000000 192.085576 372.444735 192.085576 375.889470 192.085576 379.334205 192.085576 382.778940 192.085576 386.223674 192.085576 389.668409 192.085576 393.113144 192.085576 396.557879 192.085576 400.002614 192.085576 403.447349 192.085576 406.892084 192.085576 410.336819 192.085576 413.781553 192.085576 417.226288 192.085576 420.671023 192.085576 424.115758 192.085576 427.560493 192.085576 431.005228 192.085576 434.449963 192.085576 437.894698 192.085576 441.339432 192.085576 444.784167 192.085576 448.228902 192.085576 451.673637 192.085576 455.118372 192.085576 458.563107 192.085576 462.007842 192.085576 465.452577 192.085576 468.897311 192.085576 472.342046 192.085576 475.786781 192.085576 479.231516 192.085576 482.676251 192.085576 486.120986 192.085576 489.565721 192.085576 493.010456 192.085576 496.455190 192.085576 499.899925 192.085576 503.344660 192.085576 506.789395 192.085576 510.234130 192.085576 513.678865 192.085576 517.123600 192.085576 520.568335 192.085576 524.013069 192.085576 527.457804 192.085576 530.902539 192.085576 534.347274 192.085576 537.792009 192.085576 541.236744 192.085576 544.681479 192.085576 548.126214 192.085576 551.570948 192.085576 555.015683 192.085576 558.460418 192.085576 561.905153 192.085576 565.349888 192.085576 568.794623 192.085576 572.239358 192.085576 575.684093 192.085576 579.128827 192.085576 582.573562 192.085576 586.018297 192.085576 589.463032 192.085576 592.907767 192.085576 596.352502 192.085576 599.797237 192.085576 603.241972 192.085576 606.686706 192.085576 610.131441 192.085576 613.576176 192.085576 617.020911 192.085576 620.465646 192.085576 623.910381 192.085576 627.355116 192.085576 630.799851 192.085576 634.244586 192.085576 637.689320 192.085576 641.134055 192.085576 644.578790 192.085576 648.023525 192.085576 651.468260 192.085576 654.912995 192.085576 658.357730 192.085576 661.802465 192.085576 665.247199 192.085576 668.691934 192.085576 672.136669 192.085576 675.581404 192.085576 679.026139 192.085576 682.470874 192.085576 685.915609 192.085576 689.360344 192.085576 692.805078 192.085576 696.249813 192.085576 699.694548 192.085576 703.139283 192.085576 706.584018 192.085576 710.028753 192.085576 713.473488 192.085576 716.918223 192.085576 720.362957 192.085576 723.807692 192.085576"/></g></g><g class="titles"><text class="title plot_title" x="400.0" y="26">SR Waugh: Future and Past Averages in ODIs</text></g><g class="plot overlay" transform="translate(42, 46)"><g class="series serie-0 color-0"><g class="dots"><desc class="label">195 wickets in 207 innings (1480.3 overs)</desc><circle class="dot reactive tooltip-trigger" cx="14.192307692307692" cy="192.08557601509693" r="2.5"/><desc class="value">34.67</desc><desc class="x ">14.192307692307692</desc><desc class="y ">192.08557601509693</desc><desc class="x_label">1986</desc></g><g class="dots"><desc class="label">177 wickets in 187 innings (1340.3 overs)</desc><circle class="dot reactive tooltip-trigger" cx="83.08700522778193" cy="192.76325934874484" r="2.5"/><desc class="value">34.58</desc><desc class="x ">83.08700522778193</desc><desc class="y ">192.76325934874484</desc><desc class="x_label">1987</desc></g><g class="dots"><desc class="label">143 wickets in 163 innings (1143.1 overs)</desc><circle class="dot reactive tooltip-trigger" cx="165.76064227035098" cy="176.2729648966452" r="2.5"/><desc class="value">36.77</desc><desc class="x ">165.76064227035098</desc><desc class="y ">176.2729648966452</desc><desc class="x_label">1988</desc></g><g class="dots"><desc class="label">120 wickets in 148 innings (1013.4 overs)</desc><circle class="dot reactive tooltip-trigger" cx="217.4316654219567" cy="158.57790007361587" r="2.5"/><desc class="value">39.12</desc><desc class="x ">217.4316654219567</desc><desc class="y ">158.57790007361587</desc><desc class="x_label">1989</desc></g><g class="dots"><desc class="label">111 wickets in 135 innings (909.2 overs)</desc><circle class="dot reactive tooltip-trigger" cx="262.21321882001496" cy="169.11964081925038" r="2.5"/><desc class="value">37.72</desc><desc class="x ">262.21321882001496</desc><desc class="y ">169.11964081925038</desc><desc class="x_label">1990</desc></g><g class="dots"><desc class="label">102 wickets in 124 innings (832.2 overs)</desc><circle class="dot reactive tooltip-trigger" cx="300.1053024645258" cy="169.49613156016585" r="2.5"/><desc class="value">37.67</desc><desc class="x ">300.1053024645258</desc><desc class="y ">169.49613156016585</desc><desc class="x_label">1991</desc></g><g class="dots"><desc class="label">87 wickets in 110 innings (731.3 overs)</desc><circle class="dot reactive tooltip-trigger" cx="348.33159073935775" cy="157.37312970268624" r="2.5"/><desc class="value">39.28</desc><desc class="x ">348.33159073935775</desc><desc class="y ">157.37312970268624</desc><desc class="x_label">1992</desc></g><g class="dots"><desc class="label">66 wickets in 92 innings (587.4 overs)</desc><circle class="dot reactive tooltip-trigger" cx="410.33681852128456" cy="134.9342815441214" r="2.5"/><desc class="value">42.26</desc><desc class="x left">410.33681852128456</desc><desc class="y left">134.9342815441214</desc><desc class="x_label">1993</desc></g><g class="dots"><desc class="label">52 wickets in 76 innings (460.0 overs)</desc><circle class="dot reactive tooltip-trigger" cx="465.45257654966395" cy="128.91042968947306" r="2.5"/><desc class="value">43.06</desc><desc class="x left">465.45257654966395</desc><desc class="y left">128.91042968947306</desc><desc class="x_label">1994</desc></g><g class="dots"><desc class="label">36 wickets in 52 innings (281.0 overs)</desc><circle class="dot reactive tooltip-trigger" cx="548.1262135922331" cy="145.7019167343052" r="2.5"/><desc class="value">40.83</desc><desc class="x left">548.1262135922331</desc><desc class="y left">145.7019167343052</desc><desc class="x_label">1995</desc></g><g class="dots"><desc class="label">33 wickets in 49 innings (258.3 overs)</desc><circle class="dot reactive tooltip-trigger" cx="558.4604182225542" cy="145.7772148824883" r="2.5"/><desc class="value">40.82</desc><desc class="x left">558.4604182225542</desc><desc class="y left">145.7772148824883</desc><desc class="x_label">1996</desc></g><g class="dots"><desc class="label">23 wickets in 35 innings (185.3 overs)</desc><circle class="dot reactive tooltip-trigger" cx="606.686706497386" cy="133.95540561774106" r="2.5"/><desc class="value">42.39</desc><desc class="x left">606.686706497386</desc><desc class="y left">133.95540561774106</desc><desc class="x_label">1997</desc></g><g class="dots"><desc class="label">23 wickets in 31 innings (170.3 overs)</desc><circle class="dot reactive tooltip-trigger" cx="620.465646004481" cy="163.77347229825006" r="2.5"/><desc class="value">38.43</desc><desc class="x left">620.465646004481</desc><desc class="y left">163.77347229825006</desc><desc class="x_label">1998</desc></g><g class="dots"><desc class="label">10 wickets in 17 innings (69.4 overs)</desc><circle class="dot reactive tooltip-trigger" cx="668.6919342793129" cy="185.0828482340683" r="2.5"/><desc class="value">35.6</desc><desc class="x left">668.6919342793129</desc><desc class="y left">185.0828482340683</desc><desc class="x_label">1999</desc></g><g class="dots"><desc class="label">4 wickets in 7 innings (29.0 overs)</desc><circle class="dot reactive tooltip-trigger" cx="703.1392830470501" cy="159.4814778518131" r="2.5"/><desc class="value">39</desc><desc class="x left">703.1392830470501</desc><desc class="y left">159.4814778518131</desc><desc class="x_label">2000</desc></g><g class="dots"><desc class="label">3 wickets in 3 innings (16.0 overs)</desc><circle class="dot reactive tooltip-trigger" cx="716.9182225541449" cy="232.2947871448742" r="2.5"/><desc class="value">29.33</desc><desc class="x left top">716.9182225541449</desc><desc class="y left top">232.2947871448742</desc><desc class="x_label">2001</desc></g><g class="dots"><desc class="label">0 wickets in 2 innings (10.0 overs)</desc><circle class="dot reactive tooltip-trigger" cx="720.3629574309186" cy="8.88518148560621" r="2.5"/><desc class="value">59</desc><desc class="x left">720.3629574309186</desc><desc class="y left">8.88518148560621</desc><desc class="x_label">2002</desc></g></g><g class="series serie-1 color-1"><g class="dots"><desc class="label">0 wickets over 0 innings</desc><circle class="dot reactive tooltip-trigger" cx="14.192307692307692" cy="453.1442557659166" r="2.5"/><desc class="value">0</desc><desc class="x top">14.192307692307692</desc><desc class="y top">453.1442557659166</desc><desc class="x_label">1986</desc></g><g class="dots"><desc class="label">18 wickets in 20 innings (140.0 overs)</desc><circle class="dot reactive tooltip-trigger" cx="83.08700522778193" cy="185.0075500858852" r="2.5"/><desc class="value">35.61</desc><desc class="x ">83.08700522778193</desc><desc class="y ">185.0075500858852</desc><desc class="x_label">1987</desc></g><g class="dots"><desc class="label">52 wickets in 44 innings (337.2 overs)</desc><circle class="dot reactive tooltip-trigger" cx="165.76064227035098" cy="235.53260751674765" r="2.5"/><desc class="value">28.9</desc><desc class="x top">165.76064227035098</desc><desc class="y top">235.53260751674765</desc><desc class="x_label">1988</desc></g><g class="dots"><desc class="label">75 wickets in 59 innings (466.5 overs)</desc><circle class="dot reactive tooltip-trigger" cx="217.4316654219567" cy="245.6225593732835" r="2.5"/><desc class="value">27.56</desc><desc class="x top">217.4316654219567</desc><desc class="y top">245.6225593732835</desc><desc class="x_label">1989</desc></g><g class="dots"><desc class="label">84 wickets in 72 innings (571.1 overs)</desc><circle class="dot reactive tooltip-trigger" cx="262.21321882001496" cy="222.43072973288764" r="2.5"/><desc class="value">30.64</desc><desc class="x ">262.21321882001496</desc><desc class="y ">222.43072973288764</desc><desc class="x_label">1990</desc></g><g class="dots"><desc class="label">93 wickets in 83 innings (648.1 overs)</desc><circle class="dot reactive tooltip-trigger" cx="300.1053024645258" cy="216.78336861915486" r="2.5"/><desc class="value">31.39</desc><desc class="x ">300.1053024645258</desc><desc class="y ">216.78336861915486</desc><desc class="x_label">1991</desc></g><g class="dots"><desc class="label">108 wickets in 97 innings (749.0 overs)</desc><circle class="dot reactive tooltip-trigger" cx="348.33159073935775" cy="220.0211889910283" r="2.5"/><desc class="value">30.96</desc><desc class="x ">348.33159073935775</desc><desc class="y ">220.0211889910283</desc><desc class="x_label">1992</desc></g><g class="dots"><desc class="label">129 wickets in 115 innings (892.5 overs)</desc><circle class="dot reactive tooltip-trigger" cx="410.33681852128456" cy="221.30125751014108" r="2.5"/><desc class="value">30.79</desc><desc class="x left">410.33681852128456</desc><desc class="y left">221.30125751014108</desc><desc class="x_label">1993</desc></g><g class="dots"><desc class="label">143 wickets in 131 innings (1020.3 overs)</desc><circle class="dot reactive tooltip-trigger" cx="465.45257654966395" cy="215.05151121094343" r="2.5"/><desc class="value">31.62</desc><desc class="x left">465.45257654966395</desc><desc class="y left">215.05151121094343</desc><desc class="x_label">1994</desc></g><g class="dots"><desc class="label">159 wickets in 155 innings (1199.3 overs)</desc><circle class="dot reactive tooltip-trigger" cx="548.1262135922331" cy="202.5520186125483" r="2.5"/><desc class="value">33.28</desc><desc class="x left">548.1262135922331</desc><desc class="y left">202.5520186125483</desc><desc class="x_label">1995</desc></g><g class="dots"><desc class="label">162 wickets in 158 innings (1222.0 overs)</desc><circle class="dot reactive tooltip-trigger" cx="558.4604182225542" cy="201.49784453798486" r="2.5"/><desc class="value">33.42</desc><desc class="x left">558.4604182225542</desc><desc class="y left">201.49784453798486</desc><desc class="x_label">1996</desc></g><g class="dots"><desc class="label">172 wickets in 172 innings (1295.0 overs)</desc><circle class="dot reactive tooltip-trigger" cx="606.686706497386" cy="199.84128527795656" r="2.5"/><desc class="value">33.64</desc><desc class="x left">606.686706497386</desc><desc class="y left">199.84128527795656</desc><desc class="x_label">1997</desc></g><g class="dots"><desc class="label">172 wickets in 176 innings (1310.0 overs)</desc><circle class="dot reactive tooltip-trigger" cx="620.465646004481" cy="195.8504834242521" r="2.5"/><desc class="value">34.17</desc><desc class="x left">620.465646004481</desc><desc class="y left">195.8504834242521</desc><desc class="x_label">1998</desc></g><g class="dots"><desc class="label">185 wickets in 190 innings (1410.5 overs)</desc><circle class="dot reactive tooltip-trigger" cx="668.6919342793129" cy="192.46206675601246" r="2.5"/><desc class="value">34.62</desc><desc class="x left">668.6919342793129</desc><desc class="y left">192.46206675601246</desc><desc class="x_label">1999</desc></g><g class="dots"><desc class="label">191 wickets in 200 innings (1451.3 overs)</desc><circle class="dot reactive tooltip-trigger" cx="703.1392830470501" cy="192.76325934874484" r="2.5"/><desc class="value">34.58</desc><desc class="x left">703.1392830470501</desc><desc class="y left">192.76325934874484</desc><desc class="x_label">2000</desc></g><g class="dots"><desc class="label">192 wickets in 204 innings (1464.3 overs)</desc><circle class="dot reactive tooltip-trigger" cx="716.9182225541449" cy="191.40789268144903" r="2.5"/><desc class="value">34.76</desc><desc class="x left">716.9182225541449</desc><desc class="y left">191.40789268144903</desc><desc class="x_label">2001</desc></g><g class="dots"><desc class="label">195 wickets in 205 innings (1470.3 overs)</desc><circle class="dot reactive tooltip-trigger" cx="720.3629574309186" cy="194.34452046059005" r="2.5"/><desc class="value">34.37</desc><desc class="x left">720.3629574309186</desc><desc class="y left">194.34452046059005</desc><desc class="x_label">2002</desc></g></g><g class="series serie-2 color-2"/></g><g class="plot text-overlay" transform="translate(42, 46)"><g class="series serie-0 color-0"/><g class="series serie-1 color-1"/><g class="series serie-2 color-2"/></g><g class="plot tooltip-overlay" transform="translate(42, 46)"><g class="tooltip" style="opacity: 0" transform="translate(0 0)"><rect class="tooltip-box" height="0" rx="10" ry="10" width="0"/><g class="text"/></g></g><g class="legends" transform="translate(52, 545)"><g class="legend reactive activate-serie" id="activate-serie-0"><rect class="color-0 reactive" height="12" width="12" x="0.0" y="1.0"/><text x="17.0" y="11.2">Future Average</text></g><g class="legend reactive activate-serie" id="activate-serie-1"><rect class="color-1 reactive" height="12" width="12" x="369.0" y="1.0"/><text x="386.0" y="11.2">Past Average</text></g><g class="legend reactive activate-serie" id="activate-serie-2"><rect class="color-2 reactive" height="12" width="12" x="0.0" y="22.0"/><text x="17.0" y="32.2">Career Average</text></g></g></g></svg>