<?xml version='1.0' encoding='utf-8'?>
<svg xmlns:xlink="http://www.w3.org/1999/xlink" xmlns="http://www.w3.org/2000/svg" id="chart-7be2d47a-fa16-43cb-b7e9-7ba4acd5de0b" class="pygal-chart" viewBox="0 0 800 600"><!--Generated with pygal 2.4.0 (lxml) ©Kozea 2012-2016 on 2019-08-04--><!--http://pygal.org--><!--http://github.com/Kozea/pygal--><defs><style type="text/css">#chart-7be2d47a-fa16-43cb-b7e9-7ba4acd5de0b{-webkit-user-select:none;-webkit-font-smoothing:antialiased;font-family:Consolas,"Liberation Mono",Menlo,Courier,monospace}#chart-7be2d47a-fa16-43cb-b7e9-7ba4acd5de0b .title{font-family:Consolas,"Liberation Mono",Menlo,Courier,monospace;font-size:16px}#chart-7be2d47a-fa16-43cb-b7e9-7ba4acd5de0b .legends .legend text{font-family:Consolas,"Liberation Mono",Menlo,Courier,monospace;font-size:14px}#chart-7be2d47a-fa16-43cb-b7e9-7ba4acd5de0b .axis text{font-family:Consolas,"Liberation Mono",Menlo,Courier,monospace;font-size:10px}#chart-7be2d47a-fa16-43cb-b7e9-7ba4acd5de0b .axis text.major{font-family:Consolas,"Liberation Mono",Menlo,Courier,monospace;font-size:10px}#chart-7be2d47a-fa16-43cb-b7e9-7ba4acd5de0b .text-overlay text.value{font-family:Consolas,"Liberation Mono",Menlo,Courier,monospace;font-size:16px}#chart-7be2d47a-fa16-43cb-b7e9-7ba4acd5de0b .text-overlay text.label{font-family:Consolas,"Liberation Mono",Menlo,Courier,monospace;font-size:10px}#chart-7be2d47a-fa16-43cb-b7e9-7ba4acd5de0b .tooltip{font-family:Consolas,"Liberation Mono",Menlo,Courier,monospace;font-size:14px}#chart-7be2d47a-fa16-43cb-b7e9-7ba4acd5de0b text.no_data{font-family:Consolas,"Liberation Mono",Menlo,Courier,monospace;font-size:64px}
#chart-7be2d47a-fa16-43cb-b7e9-7ba4acd5de0b{background-color:rgba(249,249,249,1)}#chart-7be2d47a-fa16-43cb-b7e9-7ba4acd5de0b path,#chart-7be2d47a-fa16-43cb-b7e9-7ba4acd5de0b line,#chart-7be2d47a-fa16-43cb-b7e9-7ba4acd5de0b rect,#chart-7be2d47a-fa16-43cb-b7e9-7ba4acd5de0b circle{-webkit-transition:150ms;-moz-transition:150ms;transition:150ms}#chart-7be2d47a-fa16-43cb-b7e9-7ba4acd5de0b .graph &gt; .background{fill:rgba(249,249,249,1)}#chart-7be2d47a-fa16-43cb-b7e9-7ba4acd5de0b .plot &gt; .background{fill:rgba(255,255,255,1)}#chart-7be2d47a-fa16-43cb-b7e9-7ba4acd5de0b .graph{fill:rgba(0,0,0,.87)}#chart-7be2d47a-fa16-43cb-b7e9-7ba4acd5de0b text.no_data{fill:rgba(0,0,0,1)}#chart-7be2d47a-fa16-43cb-b7e9-7ba4acd5de0b .title{fill:rgba(0,0,0,1)}#chart-7be2d47a-fa16-43cb-b7e9-7ba4acd5de0b .legends .legend text{fill:rgba(0,0,0,.87)}#chart-7be2d47a-fa16-43cb-b7e9-7ba4acd5de0b .legends .legend:hover text{fill:rgba(0,0,0,1)}#chart-7be2d47a-fa16-43cb-b7e9-7ba4acd5de0b .axis .line{stroke:rgba(0,0,0,1)}#chart-7be2d47a-fa16-43cb-b7e9-7ba4acd5de0b .axis .guide.line{stroke:rgba(0,0,0,.54)}#chart-7be2d47a-fa16-43cb-b7e9-7ba4acd5de0b .axis .major.line{stroke:rgba(0,0,0,.87)}#chart-7be2d47a-fa16-43cb-b7e9-7ba4acd5de0b .axis text.major{fill:rgba(0,0,0,1)}#chart-7be2d47a-fa16-43cb-b7e9-7ba4acd5de0b .axis.y .guides:hover .guide.line,#chart-7be2d47a-fa16-43cb-b7e9-7ba4acd5de0b .line-graph .axis.x .guides:hover .guide.line,#chart-7be2d47a-fa16-43cb-b7e9-7ba4acd5de0b .stackedline-graph .axis.x .guides:hover .guide.line,#chart-7be2d47a-fa16-43cb-b7e9-7ba4acd5de0b .xy-graph .axis.x .guides:hover .guide.line{stroke:rgba(0,0,0,1)}#chart-7be2d47a-fa16-43cb-b7e9-7ba4acd5de0b .axis .guides:hover text{fill:rgba(0,0,0,1)}#chart-7be2d47a-fa16-43cb-b7e9-7ba4acd5de0b .reactive{fill-opacity:.7;stroke-opacity:.8}#chart-7be2d47a-fa16-43cb-b7e9-7ba4acd5de0b .ci{stroke:rgba(0,0,0,.87)}#chart-7be2d47a-fa16-43cb-b7e9-7ba4acd5de0b .reactive.active,#chart-7be2d47a-fa16-43cb-b7e9-7ba4acd5de0b .active .reactive{fill-opacity:.8;stroke-opacity:.9;stroke-width:4}#chart-7be2d47a-fa16-43cb-b7e9-7ba4acd5de0b .ci .reactive.active{stroke-width:1.5}#chart-7be2d47a-fa16-43cb-b7e9-7ba4acd5de0b .series text{fill:rgba(0,0,0,1)}#chart-7be2d47a-fa16-43cb-b7e9-7ba4acd5de0b .tooltip rect{fill:rgba(255,255,255,1);stroke:rgba(0,0,0,1);-webkit-transition:opacity 150ms;-moz-transition:opacity 150ms;transition:opacity 150ms}#chart-7be2d47a-fa16-43cb-b7e9-7ba4acd5de0b .tooltip .label{fill:rgba(0,0,0,.87)}#chart-7be2d47a-fa16-43cb-b7e9-7ba4acd5de0b .tooltip .label{fill:rgba(0,0,0,.87)}#chart-7be2d47a-fa16-43cb-b7e9-7ba4acd5de0b .tooltip .legend{font-size:.8em;fill:rgba(0,0,0,.54)}#chart-7be2d47a-fa16-43cb-b7e9-7ba4acd5de0b .tooltip .x_label{font-size:.6em;fill:rgba(0,0,0,1)}#chart-7be2d47a-fa16-43cb-b7e9-7ba4acd5de0b .tooltip .xlink{font-size:.5em;text-decoration:underline}#chart-7be2d47a-fa16-43cb-b7e9-7ba4acd5de0b .tooltip .value{font-size:1.5em}#chart-7be2d47a-fa16-43cb-b7e9-7ba4acd5de0b .bound{font-size:.5em}#chart-7be2d47a-fa16-43cb-b7e9-7ba4acd5de0b .max-value{font-size:.75em;fill:rgba(0,0,0,.54)}#chart-7be2d47a-fa16-43cb-b7e9-7ba4acd5de0b .map-element{fill:rgba(255,255,255,1);stroke:rgba(0,0,0,.54) !important}#chart-7be2d47a-fa16-43cb-b7e9-7ba4acd5de0b .map-element .reactive{fill-opacity:inherit;stroke-opacity:inherit}#chart-7be2d47a-fa16-43cb-b7e9-7ba4acd5de0b .color-0,#chart-7be2d47a-fa16-43cb-b7e9-7ba4acd5de0b .color-0 a:visited{stroke:red;fill:red}#chart-7be2d47a-fa16-43cb-b7e9-7ba4acd5de0b .color-1,#chart-7be2d47a-fa16-43cb-b7e9-7ba4acd5de0b .color-1 a:visited{stroke:blue;fill:blue}#chart-7be2d47a-fa16-43cb-b7e9-7ba4acd5de0b .color-2,#chart-7be2d47a-fa16-43cb-b7e9-7ba4acd5de0b .color-2 a:visited{stroke:green;fill:green}#chart-7be2d47a-fa16-43cb-b7e9-7ba4acd5de0b .text-overlay .color-0 text{fill:white}#chart-7be2d47a-fa16-43cb-b7e9-7ba4acd5de0b .text-overlay .color-1 text{fill:white}#chart-7be2d47a-fa16-43cb-b7e9-7ba4acd5de0b .text-overlay .color-2 text{fill:white}
#chart-7be2d47a-fa16-43cb-b7e9-7ba4acd5de0b text.no_data{text-anchor:middle}#chart-7be2d47a-fa16-43cb-b7e9-7ba4acd5de0b .guide.line{fill:none}#chart-7be2d47a-fa16-43cb-b7e9-7ba4acd5de0b .centered{text-anchor:middle}#chart-7be2d47a-fa16-43cb-b7e9-7ba4acd5de0b .title{text-anchor:middle}#chart-7be2d47a-fa16-43cb-b7e9-7ba4acd5de0b .legends .legend text{fill-opacity:1}#chart-7be2d47a-fa16-43cb-b7e9-7ba4acd5de0b .axis.x text{text-anchor:middle}#chart-7be2d47a-fa16-43cb-b7e9-7ba4acd5de0b .axis.x:not(.web) text[transform]{text-anchor:start}#chart-7be2d47a-fa16-43cb-b7e9-7ba4acd5de0b .axis.x:not(.web) text[transform].backwards{text-anchor:end}#chart-7be2d47a-fa16-43cb-b7e9-7ba4acd5de0b .axis.y text{text-anchor:end}#chart-7be2d47a-fa16-43cb-b7e9-7ba4acd5de0b .axis.y text[transform].backwards{text-anchor:start}#chart-7be2d47a-fa16-43cb-b7e9-7ba4acd5de0b .axis.y2 text{text-anchor:start}#chart-7be2d47a-fa16-43cb-b7e9-7ba4acd5de0b .axis.y2 text[transform].backwards{text-anchor:end}#chart-7be2d47a-fa16-43cb-b7e9-7ba4acd5de0b .axis .guide.line{stroke-dasharray:4,4}#chart-7be2d47a-fa16-43cb-b7e9-7ba4acd5de0b .axis .major.guide.line{stroke-dasharray:6,6}#chart-7be2d47a-fa16-43cb-b7e9-7ba4acd5de0b .horizontal .axis.y .guide.line,#chart-7be2d47a-fa16-43cb-b7e9-7ba4acd5de0b .horizontal .axis.y2 .guide.line,#chart-7be2d47a-fa16-43cb-b7e9-7ba4acd5de0b .vertical .axis.x .guide.line{opacity:0}#chart-7be2d47a-fa16-43cb-b7e9-7ba4acd5de0b .horizontal .axis.always_show .guide.line,#chart-7be2d47a-fa16-43cb-b7e9-7ba4acd5de0b .vertical .axis.always_show .guide.line{opacity:1 !important}#chart-7be2d47a-fa16-43cb-b7e9-7ba4acd5de0b .axis.y .guides:hover .guide.line,#chart-7be2d47a-fa16-43cb-b7e9-7ba4acd5de0b .axis.y2 .guides:hover .guide.line,#chart-7be2d47a-fa16-43cb-b7e9-7ba4acd5de0b .axis.x .guides:hover .guide.line{opacity:1}#chart-7be2d47a-fa16-43cb-b7e9-7ba4acd5de0b .axis .guides:hover text{opacity:1}#chart-7be2d47a-fa16-43cb-b7e9-7ba4acd5de0b .nofill{fill:none}#chart-7be2d47a-fa16-43cb-b7e9-7ba4acd5de0b .subtle-fill{fill-opacity:.2}#chart-7be2d47a-fa16-43cb-b7e9-7ba4acd5de0b .dot{stroke-width:1px;fill-opacity:1}#chart-7be2d47a-fa16-43cb-b7e9-7ba4acd5de0b .dot.active{stroke-width:5px}#chart-7be2d47a-fa16-43cb-b7e9-7ba4acd5de0b .dot.negative{fill:transparent}#chart-7be2d47a-fa16-43cb-b7e9-7ba4acd5de0b text,#chart-7be2d47a-fa16-43cb-b7e9-7ba4acd5de0b tspan{stroke:none !important}#chart-7be2d47a-fa16-43cb-b7e9-7ba4acd5de0b .series text.active{opacity:1}#chart-7be2d47a-fa16-43cb-b7e9-7ba4acd5de0b .tooltip rect{fill-opacity:.95;stroke-width:.5}#chart-7be2d47a-fa16-43cb-b7e9-7ba4acd5de0b .tooltip text{fill-opacity:1}#chart-7be2d47a-fa16-43cb-b7e9-7ba4acd5de0b .showable{visibility:hidden}#chart-7be2d47a-fa16-43cb-b7e9-7ba4acd5de0b .showable.shown{visibility:visible}#chart-7be2d47a-fa16-43cb-b7e9-7ba4acd5de0b .gauge-background{fill:rgba(229,229,229,1);stroke:none}#chart-7be2d47a-fa16-43cb-b7e9-7ba4acd5de0b .bg-lines{stroke:rgba(249,249,249,1);stroke-width:2px}</style><script type="text/javascript">window.pygal = window.pygal || {};window.pygal.config = window.pygal.config || {};window.pygal.config['7be2d47a-fa16-43cb-b7e9-7ba4acd5de0b'] = {"allow_interruptions": false, "box_mode": "extremes", "classes": ["pygal-chart"], "css": ["file://style.css", "file://graph.css"], "defs": [], "disable_xml_declaration": false, "dots_size": 2.5, "dynamic_print_values": false, "explicit_size": false, "fill": false, "force_uri_protocol": "https", "formatter": null, "half_pie": false, "height": 600, "include_x_axis": false, "inner_radius": 0, "interpolate": null, "interpolation_parameters": {}, "interpolation_precision": 250, "inverse_y_axis": false, "js": ["//kozea.github.io/pygal.js/2.0.x/pygal-tooltips.min.js"], "legend_at_bottom": true, "legend_at_bottom_columns": null, "legend_box_size": 12, "logarithmic": false, "margin": 20, "margin_bottom": null, "margin_left": null, "margin_right": null, "margin_top": null, "max_scale": 16, "min_scale": 4, "missing_value_fill_truncation": "x", "no_data_text": "No data", "no_prefix": false, "order_min": null, "pretty_print": false, "print_labels": false, "print_values": false, "print_values_position": "center", "print_zeroes": true, "range": null, "rounded_bars": null, "secondary_range": null, "show_dots": true, "show_legend": true, "show_minor_x_labels": false, "show_minor_y_labels": true, "show_only_major_dots": false, "show_x_guides": false, "show_x_labels": true, "show_y_guides": true, "show_y_labels": true, "spacing": 10, "stack_from_top": false, "strict": false, "stroke": true, "stroke_style": null, "style": {"background": "rgba(249, 249, 249, 1)", "ci_colors": [], "colors": ["red", "blue", "green", "#a3a3a3"], "font_family": "Consolas, \"Liberation Mono\", Menlo, Courier, monospace", "foreground": "rgba(0, 0, 0, .87)", "foreground_strong": "rgba(0, 0, 0, 1)", "foreground_subtle": "rgba(0, 0, 0, .54)", "guide_stroke_dasharray": "4,4", "label_font_family": "Consolas, \"Liberation Mono\", Menlo, Courier, monospace", "label_font_size": 10, "legend_font_family": "Consolas, \"Liberation Mono\", Menlo, Courier, monospace", "legend_font_size": 14, "major_guide_stroke_dasharray": "6,6", "major_label_font_family": "Consolas, \"Liberation Mono\", Menlo, Courier, monospace", "major_label_font_size": 10, "no_data_font_family": "Consolas, \"Liberation Mono\", Menlo, Courier, monospace", "no_data_font_size": 64, "opacity": ".7", "opacity_hover": ".8", "plot_background": "rgba(255, 255, 255, 1)", "stroke_opacity": ".8", "stroke_opacity_hover": ".9", "title_font_family": "Consolas, \"Liberation Mono\", Menlo, Courier, monospace", "title_font_size": 16, "tooltip_font_family": "Consolas, \"Liberation Mono\", Menlo, Courier, monospace", "tooltip_font_size": 14, "transition": "150ms", "value_background": "rgba(229, 229, 229, 1)", "value_colors": [], "value_font_family": "Consolas, \"Liberation Mono\", Menlo, Courier, monospace", "value_font_size": 16, "value_label_font_family": "Consolas, \"Liberation Mono\", Menlo, Courier, monospace", "value_label_font_size": 10}, "title": "ST Jayasuriya: Future and Past Averages in ODIs", "tooltip_border_radius": 10, "tooltip_fancy_mode": true, "truncate_label": null, "truncate_legend": null, "width": 800, "x_label_rotation": 45, "x_labels": ["1990", "0", "0", "1991", "1992", "0", "0", "0", "0", "0", "0", "0", "0", "0", "0", "1993", "0", "0", "0", "0", "0", "0", "0", "0", "0", "0", "0", "0", "0", "0", "0", "0", "0", "0", "1994", "0", "0", "0", "0", "0", "0", "0", "0", "0", "0", "0", "0", "0", "0", "0", "0", "0", "0", "0", "0", "1995", "0", "0", "0", "0", "0", "0", "0", "0", "0", "0", "0", "0", "0", "0", "1996", "0", "0", "0", "0", "0", "0", "0", "0", "0", "0", "0", "0", "0", "0", "0", "0", "0", "0", "0", "0", "0", "0", "0", "0", "0", "0", "0", "1997", "0", "0", "0", "0", "0", "0", "0", "0", "0", "0", "0", "0", "0", "0", "0", "0", "0", "0", "0", "0", "0", "0", "1998", "0", "0", "0", "0", "0", "0", "0", "0", "0", "0", "0", "0", "0", "0", "0", "0", "0", "0", "0", "0", "0", "1999", "0", "0", "0", "0", "0", "0", "0", "0", "0", "0", "0", "0", "0", "0", "0", "0", "0", "0", "0", "0", "0", "0", "0", "0", "0", "2000", "0", "0", "0", "0", "0", "0", "0", "0", "0", "0", "0", "0", "0", "0", "0", "0", "0", "0", "0", "2001", "0", "0", "0", "0", "0", "0", "0", "0", "0", "0", "0", "0", "0", "0", "0", "0", "0", "0", "0", "0", "0", "0", "0", "0", "0", "0", "0", "0", "0", "0", "2002", "0", "0", "0", "0", "0", "0", "0", "0", "0", "0", "0", "0", "0", "0", "0", "0", "0", "0", "0", "0", "0", "0", "0", "0", "0", "2003", "0", "0", "0", "0", "0", "0", "0", "0", "0", "0", "0", "0", "0", "0", "0", "0", "0", "0", "0", "0", "0", "0", "2004", "0", "0", "0", "0", "0", "0", "0", "0", "0", "0", "0", "0", "0", "0", "0", "0", "0", "0", "0", "0", "0", "2005", "0", "0", "0", "0", "0", "2006", "0", "0", "0", "0", "0", "0", "0", "0", "0", "0", "0", "0", "0", "0", "0", "0", "0", "0", "0", "0", "0", "2007", "0", "0", "0", "0", "0", "0", "0", "0", "0", "0", "0", "0", "0", "0", "0", "0", "0", "0", "0", "0", "0", "0", "2008", "0", "0", "0", "0", "0", "0", "0", "0", "0", "2009", "0", "0", "0", "0", "0", "0", "0", "0", "0", "0", "0", "0", "0", "0", "2011"], "x_labels_major": ["1990", "1991", "1992", "1993", "1994", "1995", "1996", "1997", "1998", "1999", "2000", "2001", "2002", "2003", "2004", "2005", "2006", "2007", "2008", "2009", "2011"], "x_labels_major_count": null, "x_labels_major_every": null, "x_title": null, "xrange": null, "y_label_rotation": 0, "y_labels": null, "y_labels_major": null, "y_labels_major_count": null, "y_labels_major_every": null, "y_title": null, "zero": 170.0, "legends": ["Future Average", "Past Average", "Career Average"]}</script><script type="text/javascript" xlink:href="https://kozea.github.io/pygal.js/2.0.x/pygal-tooltips.min.js"/></defs><title>ST Jayasuriya: Future and Past Averages in ODIs</title><g class="graph line-graph vertical"><rect class="background" height="600" width="800" x="0" y="0"/><g class="plot" transform="translate(48, 46)"><rect class="background" height="462.02943725152284" width="732.0" x="0" y="0"/><g class="axis y always_show"><g class="guides"><path class="axis major line" d="M0.000000 453.144256 h732.000000"/><text class="major" x="-5" y="456.6442557659166">0</text><title>0</title></g><g class="guides"><path class="guide line" d="M0.000000 398.966320 h732.000000"/><text class="" x="-5" y="402.4663198780739">20</text><title>20</title></g><g class="guides"><path class="guide line" d="M0.000000 344.788384 h732.000000"/><text class="" x="-5" y="348.2883839902312">40</text><title>40</title></g><g class="guides"><path class="guide line" d="M0.000000 290.610448 h732.000000"/><text class="" x="-5" y="294.11044810238843">60</text><title>60</title></g><g class="guides"><path class="guide line" d="M0.000000 236.432512 h732.000000"/><text class="" x="-5" y="239.9325122145457">80</text><title>80</title></g><g class="guides"><path class="major guide line" d="M0.000000 182.254576 h732.000000"/><text class="major" x="-5" y="185.754576326703">100</text><title>100</title></g><g class="guides"><path class="guide line" d="M0.000000 128.076640 h732.000000"/><text class="" x="-5" y="131.57664043886024">120</text><title>120</title></g><g class="guides"><path class="guide line" d="M0.000000 73.898705 h732.000000"/><text class="" x="-5" y="77.39870455101749">140</text><title>140</title></g><g class="guides"><path class="guide line" d="M0.000000 19.720769 h732.000000"/><text class="" x="-5" y="23.220768663174738">160</text><title>160</title></g></g><g class="axis x"><g class="guides"><path class="major line" d="M14.076923 0.000000 v462.029437"/><text class="major" x="14.076923076923077" y="477.02943725152284" transform="rotate(45 14.076923 477.029437)">1990</text></g><g class="guides"><path class="major guide line" d="M19.830434 0.000000 v462.029437"/><text class="major" x="19.830433871305807" y="477.02943725152284" transform="rotate(45 19.830434 477.029437)">1991</text></g><g class="guides"><path class="major guide line" d="M21.748271 0.000000 v462.029437"/><text class="major" x="21.748270802766715" y="477.02943725152284" transform="rotate(45 21.748271 477.029437)">1992</text></g><g class="guides"><path class="major guide line" d="M42.844477 0.000000 v462.029437"/><text class="major" x="42.84447704883672" y="477.02943725152284" transform="rotate(45 42.844477 477.029437)">1993</text></g><g class="guides"><path class="major guide line" d="M79.283379 0.000000 v462.029437"/><text class="major" x="79.283378746594" y="477.02943725152284" transform="rotate(45 79.283379 477.029437)">1994</text></g><g class="guides"><path class="major guide line" d="M119.557954 0.000000 v462.029437"/><text class="major" x="119.55795430727309" y="477.02943725152284" transform="rotate(45 119.557954 477.029437)">1995</text></g><g class="guides"><path class="major guide line" d="M148.325508 0.000000 v462.029437"/><text class="major" x="148.32550827918675" y="477.02943725152284" transform="rotate(45 148.325508 477.029437)">1996</text></g><g class="guides"><path class="major guide line" d="M202.024942 0.000000 v462.029437"/><text class="major" x="202.02494236009224" y="477.02943725152284" transform="rotate(45 202.024942 477.029437)">1997</text></g><g class="guides"><path class="major guide line" d="M246.135192 0.000000 v462.029437"/><text class="major" x="246.13519178369313" y="477.02943725152284" transform="rotate(45 246.135192 477.029437)">1998</text></g><g class="guides"><path class="major guide line" d="M288.327604 0.000000 v462.029437"/><text class="major" x="288.32760427583315" y="477.02943725152284" transform="rotate(45 288.327604 477.029437)">1999</text></g><g class="guides"><path class="major guide line" d="M338.191364 0.000000 v462.029437"/><text class="major" x="338.1913644938169" y="477.02943725152284" transform="rotate(45 338.191364 477.029437)">2000</text></g><g class="guides"><path class="major guide line" d="M376.548103 0.000000 v462.029437"/><text class="major" x="376.54810312303505" y="477.02943725152284" transform="rotate(45 376.548103 477.029437)">2001</text></g><g class="guides"><path class="major guide line" d="M436.001048 0.000000 v462.029437"/><text class="major" x="436.0010479983232" y="477.02943725152284" transform="rotate(45 436.001048 477.029437)">2002</text></g><g class="guides"><path class="major guide line" d="M485.864808 0.000000 v462.029437"/><text class="major" x="485.86480821630687" y="477.02943725152284" transform="rotate(45 485.864808 477.029437)">2003</text></g><g class="guides"><path class="major guide line" d="M529.975058 0.000000 v462.029437"/><text class="major" x="529.9750576399078" y="477.02943725152284" transform="rotate(45 529.975058 477.029437)">2004</text></g><g class="guides"><path class="major guide line" d="M572.167470 0.000000 v462.029437"/><text class="major" x="572.1674701320478" y="477.02943725152284" transform="rotate(45 572.167470 477.029437)">2005</text></g><g class="guides"><path class="major guide line" d="M583.674492 0.000000 v462.029437"/><text class="major" x="583.6744917208132" y="477.02943725152284" transform="rotate(45 583.674492 477.029437)">2006</text></g><g class="guides"><path class="major guide line" d="M625.866904 0.000000 v462.029437"/><text class="major" x="625.8669042129533" y="477.02943725152284" transform="rotate(45 625.866904 477.029437)">2007</text></g><g class="guides"><path class="major guide line" d="M669.977154 0.000000 v462.029437"/><text class="major" x="669.9771536365541" y="477.02943725152284" transform="rotate(45 669.977154 477.029437)">2008</text></g><g class="guides"><path class="major guide line" d="M689.155523 0.000000 v462.029437"/><text class="major" x="689.1555229511632" y="477.02943725152284" transform="rotate(45 689.155523 477.029437)">2009</text></g><g class="guides"><path class="major guide line" d="M717.923077 0.000000 v462.029437"/><text class="major" x="717.9230769230769" y="477.02943725152284" transform="rotate(45 717.923077 477.029437)">2011</text></g></g><g class="series serie-0 color-0"><path class="line reactive nofill" d="M14.076923 353.592299 L15.994760 353.727743 17.912597 353.592299 19.830434 353.294320 21.748271 353.565210 23.666108 353.809010 25.583945 353.727743 27.501782 354.269523 29.419619 353.998633 31.337455 354.377879 33.255292 354.540412 35.173129 354.648768 37.090966 354.757124 39.008803 354.838391 40.926640 354.188256 42.844477 354.242434 44.762314 353.998633 46.680151 352.319117 48.597988 352.292028 50.515825 352.021138 52.433662 351.696071 54.351499 351.777338 56.269336 350.883402 58.187173 351.181380 60.105009 351.208469 62.022846 351.506448 63.940683 351.831516 65.858520 352.264939 67.776357 352.562918 69.694194 351.371003 71.612031 350.585423 73.529868 350.720868 75.447705 350.747957 77.365542 350.775046 79.283379 350.314533 81.201216 350.775046 83.119053 350.775046 85.036890 350.666690 86.954726 350.883402 88.872563 350.856313 90.790400 351.018847 92.708237 351.262647 94.626074 350.910491 96.543911 350.449978 98.461748 350.829224 100.379585 350.612512 102.297422 350.558334 104.215259 350.233267 106.133096 350.395800 108.050933 350.504156 109.968770 350.531245 111.886607 350.477067 113.804444 350.693779 115.722280 350.720868 117.640117 350.991758 119.557954 351.208469 121.475791 351.316825 123.393628 350.531245 125.311465 350.314533 127.229302 349.989466 129.147139 349.908199 131.064976 350.287444 132.982813 350.341622 134.900650 349.962377 136.818487 350.287444 138.736324 349.989466 140.654161 350.124911 142.571997 350.449978 144.489834 349.745665 146.407671 349.772754 148.325508 350.124911 150.243345 350.233267 152.161182 350.829224 154.079019 350.531245 155.996856 350.531245 157.914693 351.018847 159.832530 351.398092 161.750367 352.021138 163.668204 352.102405 165.586041 352.644185 167.503878 353.023430 169.421715 352.725452 171.339551 351.614804 173.257388 351.696071 175.175225 351.777338 177.093062 351.696071 179.010899 351.723160 180.928736 351.668982 182.846573 351.668982 184.764410 351.316825 186.682247 351.912783 188.600084 352.237850 190.517921 352.508740 192.435758 352.400384 194.353595 352.210761 196.271432 352.671274 198.189268 351.533537 200.107105 351.912783 202.024942 351.885694 203.942779 350.856313 205.860616 351.208469 207.778453 350.802135 209.696290 350.910491 211.614127 350.829224 213.531964 351.073025 215.449801 351.289736 217.367638 350.639601 219.285475 350.910491 221.203312 350.964669 223.121149 349.312242 225.038986 347.957793 226.956822 347.605637 228.874659 348.228683 230.792496 348.391217 232.710333 347.849437 234.628170 348.364128 236.546007 348.093238 238.463844 348.011971 240.381681 348.201594 242.299518 348.526662 244.217355 348.905907 246.135192 349.095530 248.053029 349.041352 249.970866 348.716284 251.888703 349.095530 253.806540 349.122619 255.724376 349.474775 257.642213 349.691487 259.560050 349.095530 261.477887 349.583131 263.395724 350.124911 265.313561 350.504156 267.231398 348.580840 269.149235 347.307658 271.067072 346.765879 272.984909 346.738790 274.902746 345.492697 276.820583 346.169921 278.738420 346.034477 280.656257 346.684612 282.574093 347.280569 284.491930 347.659815 286.409767 348.174505 288.327604 348.499573 290.245441 349.014263 292.163278 349.447686 294.081115 349.664398 295.998952 348.607928 297.916789 348.662106 299.834626 348.201594 301.752463 348.932996 303.670300 349.854021 305.588137 350.720868 307.505974 350.856313 309.423811 350.693779 311.341647 350.693779 313.259484 350.693779 315.177321 348.039060 317.095158 348.499573 319.012995 349.149708 320.930832 349.041352 322.848669 348.309950 324.766506 348.472484 326.684343 348.526662 328.602180 347.226391 330.520017 346.603345 332.437854 344.490405 334.355691 344.652939 336.273528 344.761295 338.191364 345.411430 340.109201 346.115743 342.027038 345.221807 343.944875 344.219516 345.862712 344.652939 347.780549 344.625850 349.698386 344.517494 351.616223 344.950918 353.534060 345.330163 355.451897 345.601053 357.369734 344.707117 359.287571 344.192427 361.205408 344.869651 363.123245 343.867359 365.041082 344.192427 366.958918 344.896740 368.876755 345.519786 370.794592 345.871943 372.712429 345.601053 374.630266 346.224099 376.548103 346.007388 378.465940 346.630434 380.383777 346.847146 382.301614 347.524370 384.219451 346.738790 386.137288 346.576256 388.055125 347.090946 389.972962 347.172213 391.890799 347.470192 393.808636 347.145124 395.726472 347.063857 397.644309 347.172213 399.562146 346.278277 401.479983 346.820057 403.397820 346.142832 405.315657 345.763587 407.233494 345.601053 409.151331 346.576256 411.069168 346.820057 412.987005 347.307658 414.904842 347.361836 416.822679 347.118035 418.740516 347.307658 420.658353 347.632726 422.576189 345.628142 424.494026 346.467900 426.411863 346.982590 428.329700 347.659815 430.247537 346.061565 432.165374 346.088654 434.083211 345.032185 436.001048 344.056982 437.918885 343.000512 439.836722 343.786092 441.754559 345.113452 443.672396 345.763587 445.590233 346.142832 447.508070 347.443103 449.425907 347.578548 451.343743 347.226391 453.261580 347.795259 455.179417 345.736498 457.097254 346.115743 459.015091 347.009679 460.932928 347.741081 462.850765 345.221807 464.768602 345.763587 466.686439 345.844854 468.604276 346.278277 470.522113 345.492697 472.439950 345.817765 474.357787 346.494989 476.275624 346.440811 478.193460 347.253480 480.111297 347.713993 482.029134 348.255772 483.946971 349.637309 485.864808 349.799843 487.782645 346.413722 489.700482 346.603345 491.618319 347.118035 493.536156 347.388925 495.453993 347.172213 497.371830 346.874235 499.289667 347.090946 501.207504 346.142832 503.125341 348.039060 505.043178 348.905907 506.961014 346.061565 508.878851 344.788384 510.796688 346.738790 512.714525 344.707117 514.632362 346.007388 516.550199 346.440811 518.468036 345.682320 520.385873 345.492697 522.303710 343.813181 524.221547 344.138249 526.139384 346.061565 528.057221 346.820057 529.975058 346.928412 531.892895 347.957793 533.810732 348.635017 535.728568 350.179089 537.646405 351.073025 539.564242 351.994049 541.482079 353.185964 543.399916 352.617096 545.317753 351.343914 547.235590 352.210761 549.153427 351.398092 551.071264 349.718576 552.989101 350.070733 554.906938 350.991758 556.824775 352.075316 558.742612 353.077608 560.660449 350.287444 562.578285 349.854021 564.496122 350.883402 566.413959 352.644185 568.331796 354.946747 570.249633 347.009679 572.167470 347.741081 574.085307 348.120327 576.003144 348.174505 577.920981 349.041352 579.838818 350.747957 581.756655 351.804427 583.674492 351.723160 585.592329 354.188256 587.510166 355.515615 589.428003 356.057395 591.345839 356.707530 593.263676 355.271815 595.181513 355.515615 597.099350 358.143245 599.017187 355.000925 600.935024 354.973836 602.852861 354.702946 604.770698 355.244726 606.688535 351.858605 608.606372 353.456854 610.524209 354.973836 612.442046 354.892569 614.359883 355.488526 616.277720 355.678149 618.195556 355.488526 620.113393 352.454562 622.031230 349.799843 623.949067 352.698363 625.866904 354.648768 627.784741 354.757124 629.702578 357.195131 631.620415 357.899444 633.538252 358.034889 635.456089 357.736911 637.373926 357.655644 639.291763 352.102405 641.209600 354.648768 643.127437 358.251601 645.045274 360.879231 646.963110 359.904028 648.880947 362.802548 650.798784 365.321822 652.716621 368.220341 654.634458 364.238263 656.552295 371.308484 658.470132 370.577081 660.387969 359.876939 662.305806 342.214932 664.223643 337.853608 666.141480 341.320996 668.059317 331.243900 669.977154 334.277864 671.894991 338.341210 673.812827 340.725039 675.730664 341.402263 677.648501 333.952797 679.566338 329.699829 681.484175 324.580014 683.402012 328.535003 685.319849 330.404142 687.237686 335.415601 689.155523 341.239729 691.073360 344.788384 692.991197 348.120327 694.909034 344.571672 696.826871 353.592299 698.744708 355.867772 700.662545 353.727743 702.580381 346.901323 704.498218 339.370590 706.416055 345.167630 708.333892 317.157637 710.251729 319.866533 712.169566 315.667743 714.087403 8.885181 716.005240 214.761338 717.923077 328.535003"/></g><g class="series serie-1 color-1"><path class="line reactive nofill" d="M14.076923 453.144256 L15.994760 409.801907 17.912597 350.206178 19.830434 383.606875 21.748271 356.517907 23.666108 330.349964 25.583945 342.756711 27.501782 298.059914 29.419619 331.243900 31.337455 311.821110 33.255292 303.694420 35.173129 297.382690 37.090966 291.964896 39.008803 287.441039 40.926640 332.760882 42.844477 330.349964 44.762314 341.591886 46.680151 376.347032 48.597988 375.642718 50.515825 377.295146 52.433662 379.516441 54.351499 378.405793 56.269336 384.392455 58.187173 381.033423 60.105009 379.597708 62.022846 376.482476 63.940683 372.771288 65.858520 367.976541 67.776357 364.752953 69.694194 374.504982 71.612031 379.055928 73.529868 377.945281 75.447705 376.997167 77.365542 376.021964 79.283379 378.080726 81.201216 374.721694 83.119053 374.098647 85.036890 374.261181 86.954726 372.744199 88.872563 372.283686 90.790400 371.281395 92.708237 369.574790 94.626074 371.064683 96.543911 373.015089 98.461748 370.685437 100.379585 371.471017 102.297422 371.308484 104.215259 372.310775 106.133096 371.498106 108.050933 370.766704 109.968770 370.658348 111.886607 370.631259 113.804444 369.385167 115.722280 368.789210 117.640117 367.353494 119.557954 366.242847 121.475791 365.457267 123.393628 368.518320 125.311465 369.114277 127.229302 370.062391 129.147139 370.035302 131.064976 368.301608 132.982813 367.759829 134.900650 368.870476 136.818487 367.516028 138.736324 368.139074 140.654161 367.326405 142.571997 366.080313 144.489834 368.274519 146.407671 367.922363 148.325508 366.540825 150.243345 366.188669 152.161182 363.940284 154.079019 364.644597 155.996856 364.400797 157.914693 362.721281 159.832530 361.312654 161.750367 359.145537 163.668204 358.793380 165.586041 356.815886 167.503878 355.542704 169.421715 356.490818 171.339551 359.849850 173.257388 359.551872 175.175225 359.199715 177.093062 359.308071 179.010899 359.172626 180.928736 359.253893 182.846573 359.118448 184.764410 359.958206 186.682247 358.224512 188.600084 357.384754 190.517921 356.599174 192.435758 356.815886 194.353595 357.195131 196.271432 356.030306 198.189268 358.739202 200.107105 357.791089 202.024942 357.818178 203.942779 360.066562 205.860616 359.199715 207.778453 359.958206 209.696290 359.633138 211.614127 359.741494 213.531964 359.091359 215.449801 358.549580 217.367638 359.822761 219.285475 359.226804 221.203312 359.037181 223.121149 361.881523 225.038986 363.913195 226.956822 364.238263 228.874659 363.154704 230.792496 362.721281 232.710333 363.425594 234.628170 362.531658 236.546007 362.775459 238.463844 362.775459 240.381681 362.314946 242.299518 361.827345 244.217355 361.204299 246.135192 360.797964 248.053029 360.770875 249.970866 361.095943 251.888703 360.418718 253.806540 360.310363 255.724376 359.768583 257.642213 359.443516 259.560050 360.174918 261.477887 359.443516 263.395724 358.630847 265.313561 358.089067 267.231398 360.527074 269.149235 362.016968 271.067072 362.504569 272.984909 362.423302 274.902746 363.642306 276.820583 362.802548 278.738420 362.856726 280.656257 362.071146 282.574093 361.339743 284.491930 360.852142 286.409767 360.229096 288.327604 359.768583 290.245441 359.118448 292.163278 358.603758 294.081115 358.359957 295.998952 359.416427 297.916789 359.280982 299.834626 359.660227 301.752463 358.820469 303.670300 357.791089 305.588137 356.815886 307.505974 356.653352 309.423811 356.788797 311.341647 356.761708 313.259484 356.707530 315.177321 359.253893 317.095158 358.766291 319.012995 358.116156 320.930832 358.143245 322.848669 358.766291 324.766506 358.603758 326.684343 358.468313 328.602180 359.524783 330.520017 359.958206 332.437854 361.475188 334.355691 361.339743 336.273528 361.150121 338.191364 360.581252 340.109201 359.985295 342.027038 360.581252 343.944875 361.204299 345.862712 360.852142 347.780549 360.797964 349.698386 360.797964 351.616223 360.364541 353.534060 360.066562 355.451897 359.849850 357.369734 360.364541 359.287571 360.689608 361.205408 360.174918 363.123245 360.743786 365.041082 360.499985 366.958918 359.985295 368.876755 359.524783 370.794592 359.253893 372.712429 359.389338 374.630266 358.928825 376.548103 359.037181 378.465940 358.576669 380.383777 358.359957 382.301614 357.872356 384.219451 358.305779 386.137288 358.359957 388.055125 358.007800 389.972962 357.953622 391.890799 357.764000 393.808636 357.926533 395.726472 357.926533 397.644309 357.818178 399.562146 358.251601 401.479983 357.899444 403.397820 358.224512 405.315657 358.387046 407.233494 358.441224 409.151331 357.845267 411.069168 357.628555 412.987005 357.330576 414.904842 357.303487 416.822679 357.411843 418.740516 357.303487 420.658353 357.113864 422.576189 358.116156 424.494026 357.628555 426.411863 357.330576 428.329700 356.951331 430.247537 357.682733 432.165374 357.628555 434.083211 358.061978 436.001048 358.441224 437.918885 358.847558 439.836722 358.441224 441.754559 357.791089 443.672396 357.466021 445.590233 357.276398 447.508070 356.626263 449.425907 356.572085 451.343743 356.707530 453.261580 356.409551 455.179417 357.249309 457.097254 357.086775 459.015091 356.680441 460.932928 356.328284 462.850765 357.330576 464.768602 357.086775 466.686439 357.005509 468.604276 356.815886 470.522113 357.113864 472.439950 356.978420 474.357787 356.680441 476.275624 356.653352 478.193460 356.301195 480.111297 356.111573 482.029134 355.840683 483.946971 355.244726 485.864808 355.163459 487.782645 356.382462 489.700482 356.274106 491.618319 356.084484 493.536156 355.949039 495.453993 356.003217 497.371830 356.057395 499.289667 355.949039 501.207504 356.192839 503.125341 355.542704 505.043178 355.217637 506.961014 356.111573 508.878851 356.436640 510.796688 355.813594 512.714525 356.355373 514.632362 355.949039 516.550199 355.786505 518.468036 355.976128 520.385873 356.003217 522.303710 356.382462 524.221547 356.301195 526.139384 355.732327 528.057221 355.515615 529.975058 355.488526 531.892895 355.163459 533.810732 354.973836 535.728568 354.540412 537.646405 354.296612 539.564242 354.025722 541.482079 353.700654 543.399916 353.863188 545.317753 354.188256 547.235590 353.971544 549.153427 354.161167 551.071264 354.567501 552.989101 354.459146 554.906938 354.242434 556.824775 353.971544 558.742612 353.700654 560.660449 354.377879 562.578285 354.459146 564.496122 354.215345 566.413959 353.809010 568.331796 353.267231 570.249633 354.973836 572.167470 354.811302 574.085307 354.730035 576.003144 354.730035 577.920981 354.540412 579.838818 354.188256 581.756655 353.971544 583.674492 353.971544 585.592329 353.456854 587.510166 353.185964 589.428003 353.077608 591.345839 352.942163 593.263676 353.240142 595.181513 353.185964 597.099350 352.671274 599.017187 353.321409 600.935024 353.321409 602.852861 353.375587 604.770698 353.294320 606.688535 353.863188 608.606372 353.619388 610.524209 353.348498 612.442046 353.375587 614.359883 353.294320 616.277720 353.267231 618.195556 353.294320 620.113393 353.754832 622.031230 354.106989 623.949067 353.700654 625.866904 353.429765 627.784741 353.429765 629.702578 353.104697 631.620415 353.023430 633.538252 352.996341 635.456089 353.050519 637.373926 353.077608 639.291763 353.754832 641.209600 353.456854 643.127437 353.050519 645.045274 352.752541 646.963110 352.915074 648.880947 352.617096 650.798784 352.346206 652.716621 352.021138 654.634458 352.562918 656.552295 351.912783 658.470132 352.048227 660.387969 353.104697 662.305806 354.296612 664.223643 354.513323 666.141480 354.296612 668.059317 354.757124 669.977154 354.594590 671.894991 354.377879 673.812827 354.269523 675.730664 354.215345 677.648501 354.540412 679.566338 354.675857 681.484175 354.811302 683.402012 354.648768 685.319849 354.567501 687.237686 354.350790 689.155523 354.106989 691.073360 353.944455 692.991197 353.809010 694.909034 353.944455 696.826871 353.592299 698.744708 353.511032 700.662545 353.592299 702.580381 353.781921 704.498218 353.944455 706.416055 353.781921 708.333892 354.161167 710.251729 354.106989 712.169566 354.052811 714.087403 354.648768 716.005240 354.025722 717.923077 353.673565"/></g><g class="series serie-2 color-2"><path class="line reactive nofill" d="M14.076923 353.592299 L15.994760 353.592299 17.912597 353.592299 19.830434 353.592299 21.748271 353.592299 23.666108 353.592299 25.583945 353.592299 27.501782 353.592299 29.419619 353.592299 31.337455 353.592299 33.255292 353.592299 35.173129 353.592299 37.090966 353.592299 39.008803 353.592299 40.926640 353.592299 42.844477 353.592299 44.762314 353.592299 46.680151 353.592299 48.597988 353.592299 50.515825 353.592299 52.433662 353.592299 54.351499 353.592299 56.269336 353.592299 58.187173 353.592299 60.105009 353.592299 62.022846 353.592299 63.940683 353.592299 65.858520 353.592299 67.776357 353.592299 69.694194 353.592299 71.612031 353.592299 73.529868 353.592299 75.447705 353.592299 77.365542 353.592299 79.283379 353.592299 81.201216 353.592299 83.119053 353.592299 85.036890 353.592299 86.954726 353.592299 88.872563 353.592299 90.790400 353.592299 92.708237 353.592299 94.626074 353.592299 96.543911 353.592299 98.461748 353.592299 100.379585 353.592299 102.297422 353.592299 104.215259 353.592299 106.133096 353.592299 108.050933 353.592299 109.968770 353.592299 111.886607 353.592299 113.804444 353.592299 115.722280 353.592299 117.640117 353.592299 119.557954 353.592299 121.475791 353.592299 123.393628 353.592299 125.311465 353.592299 127.229302 353.592299 129.147139 353.592299 131.064976 353.592299 132.982813 353.592299 134.900650 353.592299 136.818487 353.592299 138.736324 353.592299 140.654161 353.592299 142.571997 353.592299 144.489834 353.592299 146.407671 353.592299 148.325508 353.592299 150.243345 353.592299 152.161182 353.592299 154.079019 353.592299 155.996856 353.592299 157.914693 353.592299 159.832530 353.592299 161.750367 353.592299 163.668204 353.592299 165.586041 353.592299 167.503878 353.592299 169.421715 353.592299 171.339551 353.592299 173.257388 353.592299 175.175225 353.592299 177.093062 353.592299 179.010899 353.592299 180.928736 353.592299 182.846573 353.592299 184.764410 353.592299 186.682247 353.592299 188.600084 353.592299 190.517921 353.592299 192.435758 353.592299 194.353595 353.592299 196.271432 353.592299 198.189268 353.592299 200.107105 353.592299 202.024942 353.592299 203.942779 353.592299 205.860616 353.592299 207.778453 353.592299 209.696290 353.592299 211.614127 353.592299 213.531964 353.592299 215.449801 353.592299 217.367638 353.592299 219.285475 353.592299 221.203312 353.592299 223.121149 353.592299 225.038986 353.592299 226.956822 353.592299 228.874659 353.592299 230.792496 353.592299 232.710333 353.592299 234.628170 353.592299 236.546007 353.592299 238.463844 353.592299 240.381681 353.592299 242.299518 353.592299 244.217355 353.592299 246.135192 353.592299 248.053029 353.592299 249.970866 353.592299 251.888703 353.592299 253.806540 353.592299 255.724376 353.592299 257.642213 353.592299 259.560050 353.592299 261.477887 353.592299 263.395724 353.592299 265.313561 353.592299 267.231398 353.592299 269.149235 353.592299 271.067072 353.592299 272.984909 353.592299 274.902746 353.592299 276.820583 353.592299 278.738420 353.592299 280.656257 353.592299 282.574093 353.592299 284.491930 353.592299 286.409767 353.592299 288.327604 353.592299 290.245441 353.592299 292.163278 353.592299 294.081115 353.592299 295.998952 353.592299 297.916789 353.592299 299.834626 353.592299 301.752463 353.592299 303.670300 353.592299 305.588137 353.592299 307.505974 353.592299 309.423811 353.592299 311.341647 353.592299 313.259484 353.592299 315.177321 353.592299 317.095158 353.592299 319.012995 353.592299 320.930832 353.592299 322.848669 353.592299 324.766506 353.592299 326.684343 353.592299 328.602180 353.592299 330.520017 353.592299 332.437854 353.592299 334.355691 353.592299 336.273528 353.592299 338.191364 353.592299 340.109201 353.592299 342.027038 353.592299 343.944875 353.592299 345.862712 353.592299 347.780549 353.592299 349.698386 353.592299 351.616223 353.592299 353.534060 353.592299 355.451897 353.592299 357.369734 353.592299 359.287571 353.592299 361.205408 353.592299 363.123245 353.592299 365.041082 353.592299 366.958918 353.592299 368.876755 353.592299 370.794592 353.592299 372.712429 353.592299 374.630266 353.592299 376.548103 353.592299 378.465940 353.592299 380.383777 353.592299 382.301614 353.592299 384.219451 353.592299 386.137288 353.592299 388.055125 353.592299 389.972962 353.592299 391.890799 353.592299 393.808636 353.592299 395.726472 353.592299 397.644309 353.592299 399.562146 353.592299 401.479983 353.592299 403.397820 353.592299 405.315657 353.592299 407.233494 353.592299 409.151331 353.592299 411.069168 353.592299 412.987005 353.592299 414.904842 353.592299 416.822679 353.592299 418.740516 353.592299 420.658353 353.592299 422.576189 353.592299 424.494026 353.592299 426.411863 353.592299 428.329700 353.592299 430.247537 353.592299 432.165374 353.592299 434.083211 353.592299 436.001048 353.592299 437.918885 353.592299 439.836722 353.592299 441.754559 353.592299 443.672396 353.592299 445.590233 353.592299 447.508070 353.592299 449.425907 353.592299 451.343743 353.592299 453.261580 353.592299 455.179417 353.592299 457.097254 353.592299 459.015091 353.592299 460.932928 353.592299 462.850765 353.592299 464.768602 353.592299 466.686439 353.592299 468.604276 353.592299 470.522113 353.592299 472.439950 353.592299 474.357787 353.592299 476.275624 353.592299 478.193460 353.592299 480.111297 353.592299 482.029134 353.592299 483.946971 353.592299 485.864808 353.592299 487.782645 353.592299 489.700482 353.592299 491.618319 353.592299 493.536156 353.592299 495.453993 353.592299 497.371830 353.592299 499.289667 353.592299 501.207504 353.592299 503.125341 353.592299 505.043178 353.592299 506.961014 353.592299 508.878851 353.592299 510.796688 353.592299 512.714525 353.592299 514.632362 353.592299 516.550199 353.592299 518.468036 353.592299 520.385873 353.592299 522.303710 353.592299 524.221547 353.592299 526.139384 353.592299 528.057221 353.592299 529.975058 353.592299 531.892895 353.592299 533.810732 353.592299 535.728568 353.592299 537.646405 353.592299 539.564242 353.592299 541.482079 353.592299 543.399916 353.592299 545.317753 353.592299 547.235590 353.592299 549.153427 353.592299 551.071264 353.592299 552.989101 353.592299 554.906938 353.592299 556.824775 353.592299 558.742612 353.592299 560.660449 353.592299 562.578285 353.592299 564.496122 353.592299 566.413959 353.592299 568.331796 353.592299 570.249633 353.592299 572.167470 353.592299 574.085307 353.592299 576.003144 353.592299 577.920981 353.592299 579.838818 353.592299 581.756655 353.592299 583.674492 353.592299 585.592329 353.592299 587.510166 353.592299 589.428003 353.592299 591.345839 353.592299 593.263676 353.592299 595.181513 353.592299 597.099350 353.592299 599.017187 353.592299 600.935024 353.592299 602.852861 353.592299 604.770698 353.592299 606.688535 353.592299 608.606372 353.592299 610.524209 353.592299 612.442046 353.592299 614.359883 353.592299 616.277720 353.592299 618.195556 353.592299 620.113393 353.592299 622.031230 353.592299 623.949067 353.592299 625.866904 353.592299 627.784741 353.592299 629.702578 353.592299 631.620415 353.592299 633.538252 353.592299 635.456089 353.592299 637.373926 353.592299 639.291763 353.592299 641.209600 353.592299 643.127437 353.592299 645.045274 353.592299 646.963110 353.592299 648.880947 353.592299 650.798784 353.592299 652.716621 353.592299 654.634458 353.592299 656.552295 353.592299 658.470132 353.592299 660.387969 353.592299 662.305806 353.592299 664.223643 353.592299 666.141480 353.592299 668.059317 353.592299 669.977154 353.592299 671.894991 353.592299 673.812827 353.592299 675.730664 353.592299 677.648501 353.592299 679.566338 353.592299 681.484175 353.592299 683.402012 353.592299 685.319849 353.592299 687.237686 353.592299 689.155523 353.592299 691.073360 353.592299 692.991197 353.592299 694.909034 353.592299 696.826871 353.592299 698.744708 353.592299 700.662545 353.592299 702.580381 353.592299 704.498218 353.592299 706.416055 353.592299 708.333892 353.592299 710.251729 353.592299 712.169566 353.592299 714.087403 353.592299 716.005240 353.592299 717.923077 353.592299"/></g></g><g class="titles"><text class="title plot_title" x="400.0" y="26">ST Jayasuriya: Future and Past Averages in ODIs</text></g><g class="plot overlay" transform="translate(48, 46)"><g class="series serie-0 color-0"><g class="dots"><desc class="label">323 wickets in 368 innings (2479.0 overs)</desc><circle class="dot reactive tooltip-trigger" cx="14.076923076923077" cy="353.5922985720056" r="2.5"/><desc class="value">36.75</desc><desc class="x top">14.076923076923077</desc><desc class="y top">353.5922985720056</desc><desc class="x_label">1990</desc></g><g class="dots"><desc class="label">320 wickets in 365 innings (2461.0 overs)</desc><circle class="dot reactive tooltip-trigger" cx="19.830433871305807" cy="353.29431992462247" r="2.5"/><desc class="value">36.86</desc><desc class="x top">19.830433871305807</desc><desc class="y top">353.29431992462247</desc><desc class="x_label">1991</desc></g><g class="dots"><desc class="label">320 wickets in 364 innings (2456.0 overs)</desc><circle class="dot reactive tooltip-trigger" cx="21.748270802766715" cy="353.5652096040617" r="2.5"/><desc class="value">36.76</desc><desc class="x top">21.748270802766715</desc><desc class="y top">353.5652096040617</desc><desc class="x_label">1992</desc></g><g class="dots"><desc class="label">314 wickets in 353 innings (2403.1 overs)</desc><circle class="dot reactive tooltip-trigger" cx="42.84447704883672" cy="354.2424338026597" r="2.5"/><desc class="value">36.51</desc><desc class="x top">42.84447704883672</desc><desc class="y top">354.2424338026597</desc><desc class="x_label">1993</desc></g><g class="dots"><desc class="label">285 wickets in 334 innings (2270.2 overs)</desc><circle class="dot reactive tooltip-trigger" cx="79.283378746594" cy="350.31453345079115" r="2.5"/><desc class="value">37.96</desc><desc class="x top">79.283378746594</desc><desc class="y top">350.31453345079115</desc><desc class="x_label">1994</desc></g><g class="dots"><desc class="label">272 wickets in 313 innings (2144.3 overs)</desc><circle class="dot reactive tooltip-trigger" cx="119.55795430727309" cy="351.2084693929405" r="2.5"/><desc class="value">37.63</desc><desc class="x top">119.55795430727309</desc><desc class="y top">351.2084693929405</desc><desc class="x_label">1995</desc></g><g class="dots"><desc class="label">255 wickets in 298 innings (2025.0 overs)</desc><circle class="dot reactive tooltip-trigger" cx="148.32550827918675" cy="350.1249106751837" r="2.5"/><desc class="value">38.03</desc><desc class="x top">148.32550827918675</desc><desc class="y top">350.1249106751837</desc><desc class="x_label">1996</desc></g><g class="dots"><desc class="label">230 wickets in 270 innings (1800.3 overs)</desc><circle class="dot reactive tooltip-trigger" cx="202.02494236009224" cy="351.88569359153854" r="2.5"/><desc class="value">37.38</desc><desc class="x top">202.02494236009224</desc><desc class="y top">351.88569359153854</desc><desc class="x_label">1997</desc></g><g class="dots"><desc class="label">199 wickets in 247 innings (1611.0 overs)</desc><circle class="dot reactive tooltip-trigger" cx="246.13519178369313" cy="349.0955298933147" r="2.5"/><desc class="value">38.41</desc><desc class="x top">246.13519178369313</desc><desc class="y top">349.0955298933147</desc><desc class="x_label">1998</desc></g><g class="dots"><desc class="label">177 wickets in 225 innings (1449.2 overs)</desc><circle class="dot reactive tooltip-trigger" cx="288.32760427583315" cy="348.4995725985484" r="2.5"/><desc class="value">38.63</desc><desc class="x top">288.32760427583315</desc><desc class="y top">348.4995725985484</desc><desc class="x_label">1999</desc></g><g class="dots"><desc class="label">149 wickets in 199 innings (1256.2 overs)</desc><circle class="dot reactive tooltip-trigger" cx="338.1913644938169" cy="345.41143025294133" r="2.5"/><desc class="value">39.77</desc><desc class="x top">338.1913644938169</desc><desc class="y top">345.41143025294133</desc><desc class="x_label">2000</desc></g><g class="dots"><desc class="label">135 wickets in 179 innings (1127.2 overs)</desc><circle class="dot reactive tooltip-trigger" cx="376.54810312303505" cy="346.00738754770765" r="2.5"/><desc class="value">39.55</desc><desc class="x left top">376.54810312303505</desc><desc class="y left top">346.00738754770765</desc><desc class="x_label">2001</desc></g><g class="dots"><desc class="label">109 wickets in 148 innings (913.0 overs)</desc><circle class="dot reactive tooltip-trigger" cx="436.0010479983232" cy="344.0569818557453" r="2.5"/><desc class="value">40.27</desc><desc class="x left top">436.0010479983232</desc><desc class="y left top">344.0569818557453</desc><desc class="x_label">2002</desc></g><g class="dots"><desc class="label">95 wickets in 122 innings (767.2 overs)</desc><circle class="dot reactive tooltip-trigger" cx="485.86480821630687" cy="349.79984305985664" r="2.5"/><desc class="value">38.15</desc><desc class="x left top">485.86480821630687</desc><desc class="y left top">349.79984305985664</desc><desc class="x_label">2003</desc></g><g class="dots"><desc class="label">72 wickets in 99 innings (596.2 overs)</desc><circle class="dot reactive tooltip-trigger" cx="529.9750576399078" cy="346.92841245780096" r="2.5"/><desc class="value">39.21</desc><desc class="x left top">529.9750576399078</desc><desc class="y left top">346.92841245780096</desc><desc class="x_label">2004</desc></g><g class="dots"><desc class="label">56 wickets in 77 innings (446.2 overs)</desc><circle class="dot reactive tooltip-trigger" cx="572.1674701320478" cy="347.74108149611857" r="2.5"/><desc class="value">38.91</desc><desc class="x left top">572.1674701320478</desc><desc class="y left top">347.74108149611857</desc><desc class="x_label">2005</desc></g><g class="dots"><desc class="label">55 wickets in 71 innings (424.0 overs)</desc><circle class="dot reactive tooltip-trigger" cx="583.6744917208132" cy="351.7231597838751" r="2.5"/><desc class="value">37.44</desc><desc class="x left top">583.6744917208132</desc><desc class="y left top">351.7231597838751</desc><desc class="x_label">2006</desc></g><g class="dots"><desc class="label">39 wickets in 49 innings (285.0 overs)</desc><circle class="dot reactive tooltip-trigger" cx="625.8669042129533" cy="354.6487683218185" r="2.5"/><desc class="value">36.36</desc><desc class="x left top">625.8669042129533</desc><desc class="y left top">354.6487683218185</desc><desc class="x_label">2007</desc></g><g class="dots"><desc class="label">16 wickets in 26 innings (131.1 overs)</desc><circle class="dot reactive tooltip-trigger" cx="669.9771536365541" cy="334.2778644279897" r="2.5"/><desc class="value">43.88</desc><desc class="x left top">669.9771536365541</desc><desc class="y left top">334.2778644279897</desc><desc class="x_label">2008</desc></g><g class="dots"><desc class="label">13 wickets in 16 innings (99.0 overs)</desc><circle class="dot reactive tooltip-trigger" cx="689.1555229511632" cy="341.2397291895775" r="2.5"/><desc class="value">41.31</desc><desc class="x left top">689.1555229511632</desc><desc class="y left top">341.2397291895775</desc><desc class="x_label">2009</desc></g><g class="dots"><desc class="label">1 wickets in 1 innings (6.0 overs)</desc><circle class="dot reactive tooltip-trigger" cx="717.9230769230769" cy="328.53500322387833" r="2.5"/><desc class="value">46</desc><desc class="x left top">717.9230769230769</desc><desc class="y left top">328.53500322387833</desc><desc class="x_label">2011</desc></g></g><g class="series serie-1 color-1"><g class="dots"><desc class="label">0 wickets over 0 innings</desc><circle class="dot reactive tooltip-trigger" cx="14.076923076923077" cy="453.1442557659166" r="2.5"/><desc class="value">0</desc><desc class="x top">14.076923076923077</desc><desc class="y top">453.1442557659166</desc><desc class="x_label">1990</desc></g><g class="dots"><desc class="label">3 wickets in 3 innings (18.0 overs)</desc><circle class="dot reactive tooltip-trigger" cx="19.830433871305807" cy="383.60687505387045" r="2.5"/><desc class="value">25.67</desc><desc class="x top">19.830433871305807</desc><desc class="y top">383.60687505387045</desc><desc class="x_label">1991</desc></g><g class="dots"><desc class="label">3 wickets in 4 innings (23.0 overs)</desc><circle class="dot reactive tooltip-trigger" cx="21.748270802766715" cy="356.5179071099491" r="2.5"/><desc class="value">35.67</desc><desc class="x top">21.748270802766715</desc><desc class="y top">356.5179071099491</desc><desc class="x_label">1992</desc></g><g class="dots"><desc class="label">9 wickets in 15 innings (75.5 overs)</desc><circle class="dot reactive tooltip-trigger" cx="42.84447704883672" cy="330.34996407612107" r="2.5"/><desc class="value">45.33</desc><desc class="x top">42.84447704883672</desc><desc class="y top">330.34996407612107</desc><desc class="x_label">1993</desc></g><g class="dots"><desc class="label">38 wickets in 34 innings (208.4 overs)</desc><circle class="dot reactive tooltip-trigger" cx="79.283378746594" cy="378.0807255933105" r="2.5"/><desc class="value">27.71</desc><desc class="x top">79.283378746594</desc><desc class="y top">378.0807255933105</desc><desc class="x_label">1994</desc></g><g class="dots"><desc class="label">51 wickets in 55 innings (334.3 overs)</desc><circle class="dot reactive tooltip-trigger" cx="119.55795430727309" cy="366.2428466018169" r="2.5"/><desc class="value">32.08</desc><desc class="x top">119.55795430727309</desc><desc class="y top">366.2428466018169</desc><desc class="x_label">1995</desc></g><g class="dots"><desc class="label">68 wickets in 70 innings (454.0 overs)</desc><circle class="dot reactive tooltip-trigger" cx="148.32550827918675" cy="366.5408252492" r="2.5"/><desc class="value">31.97</desc><desc class="x top">148.32550827918675</desc><desc class="y top">366.5408252492</desc><desc class="x_label">1996</desc></g><g class="dots"><desc class="label">93 wickets in 98 innings (678.3 overs)</desc><circle class="dot reactive tooltip-trigger" cx="202.02494236009224" cy="357.81817757125737" r="2.5"/><desc class="value">35.19</desc><desc class="x top">202.02494236009224</desc><desc class="y top">357.81817757125737</desc><desc class="x_label">1997</desc></g><g class="dots"><desc class="label">124 wickets in 121 innings (868.0 overs)</desc><circle class="dot reactive tooltip-trigger" cx="246.13519178369313" cy="360.7979640450887" r="2.5"/><desc class="value">34.09</desc><desc class="x top">246.13519178369313</desc><desc class="y top">360.7979640450887</desc><desc class="x_label">1998</desc></g><g class="dots"><desc class="label">146 wickets in 143 innings (1029.4 overs)</desc><circle class="dot reactive tooltip-trigger" cx="288.32760427583315" cy="359.7685832632197" r="2.5"/><desc class="value">34.47</desc><desc class="x top">288.32760427583315</desc><desc class="y top">359.7685832632197</desc><desc class="x_label">1999</desc></g><g class="dots"><desc class="label">174 wickets in 169 innings (1222.4 overs)</desc><circle class="dot reactive tooltip-trigger" cx="338.1913644938169" cy="360.5812523015373" r="2.5"/><desc class="value">34.17</desc><desc class="x top">338.1913644938169</desc><desc class="y top">360.5812523015373</desc><desc class="x_label">2000</desc></g><g class="dots"><desc class="label">188 wickets in 189 innings (1351.4 overs)</desc><circle class="dot reactive tooltip-trigger" cx="376.54810312303505" cy="359.0371811287338" r="2.5"/><desc class="value">34.74</desc><desc class="x left top">376.54810312303505</desc><desc class="y left top">359.0371811287338</desc><desc class="x_label">2001</desc></g><g class="dots"><desc class="label">214 wickets in 220 innings (1566.0 overs)</desc><circle class="dot reactive tooltip-trigger" cx="436.0010479983232" cy="358.4412238339675" r="2.5"/><desc class="value">34.96</desc><desc class="x left top">436.0010479983232</desc><desc class="y left top">358.4412238339675</desc><desc class="x_label">2002</desc></g><g class="dots"><desc class="label">228 wickets in 246 innings (1711.4 overs)</desc><circle class="dot reactive tooltip-trigger" cx="485.86480821630687" cy="355.163458712753" r="2.5"/><desc class="value">36.17</desc><desc class="x left top">485.86480821630687</desc><desc class="y left top">355.163458712753</desc><desc class="x_label">2003</desc></g><g class="dots"><desc class="label">251 wickets in 269 innings (1882.4 overs)</desc><circle class="dot reactive tooltip-trigger" cx="529.9750576399078" cy="355.4885263280801" r="2.5"/><desc class="value">36.05</desc><desc class="x left top">529.9750576399078</desc><desc class="y left top">355.4885263280801</desc><desc class="x_label">2004</desc></g><g class="dots"><desc class="label">267 wickets in 291 innings (2032.4 overs)</desc><circle class="dot reactive tooltip-trigger" cx="572.1674701320478" cy="354.81130212948204" r="2.5"/><desc class="value">36.3</desc><desc class="x left top">572.1674701320478</desc><desc class="y left top">354.81130212948204</desc><desc class="x_label">2005</desc></g><g class="dots"><desc class="label">268 wickets in 297 innings (2055.0 overs)</desc><circle class="dot reactive tooltip-trigger" cx="583.6744917208132" cy="353.9715441232205" r="2.5"/><desc class="value">36.61</desc><desc class="x left top">583.6744917208132</desc><desc class="y left top">353.9715441232205</desc><desc class="x_label">2006</desc></g><g class="dots"><desc class="label">284 wickets in 319 innings (2194.0 overs)</desc><circle class="dot reactive tooltip-trigger" cx="625.8669042129533" cy="353.42976476434205" r="2.5"/><desc class="value">36.81</desc><desc class="x left top">625.8669042129533</desc><desc class="y left top">353.42976476434205</desc><desc class="x_label">2007</desc></g><g class="dots"><desc class="label">307 wickets in 342 innings (2347.5 overs)</desc><circle class="dot reactive tooltip-trigger" cx="669.9771536365541" cy="354.5945903859307" r="2.5"/><desc class="value">36.38</desc><desc class="x left top">669.9771536365541</desc><desc class="y left top">354.5945903859307</desc><desc class="x_label">2008</desc></g><g class="dots"><desc class="label">310 wickets in 352 innings (2380.0 overs)</desc><circle class="dot reactive tooltip-trigger" cx="689.1555229511632" cy="354.1069889629401" r="2.5"/><desc class="value">36.56</desc><desc class="x left top">689.1555229511632</desc><desc class="y left top">354.1069889629401</desc><desc class="x_label">2009</desc></g><g class="dots"><desc class="label">322 wickets in 367 innings (2473.0 overs)</desc><circle class="dot reactive tooltip-trigger" cx="717.9230769230769" cy="353.6735654758374" r="2.5"/><desc class="value">36.72</desc><desc class="x left top">717.9230769230769</desc><desc class="y left top">353.6735654758374</desc><desc class="x_label">2011</desc></g></g><g class="series serie-2 color-2"/></g><g class="plot text-overlay" transform="translate(48, 46)"><g class="series serie-0 color-0"/><g class="series serie-1 color-1"/><g class="series serie-2 color-2"/></g><g class="plot tooltip-overlay" transform="translate(48, 46)"><g class="tooltip" style="opacity: 0" transform="translate(0 0)"><rect class="tooltip-box" height="0" rx="10" ry="10" width="0"/><g class="text"/></g></g><g class="legends" transform="translate(58, 545)"><g class="legend reactive activate-serie" id="activate-serie-0"><rect class="color-0 reactive" height="12" width="12" x="0.0" y="1.0"/><text x="17.0" y="11.2">Future Average</text></g><g class="legend reactive activate-serie" id="activate-serie-1"><rect class="color-1 reactive" height="12" width="12" x="366.0" y="1.0"/><text x="383.0" y="11.2">Past Average</text></g><g class="legend reactive activate-serie" id="activate-serie-2"><rect class="color-2 reactive" height="12" width="12" x="0.0" y="22.0"/><text x="17.0" y="32.2">Career Average</text></g></g></g></svg>