<?xml version='1.0' encoding='utf-8'?>
<svg xmlns:xlink="http://www.w3.org/1999/xlink" xmlns="http://www.w3.org/2000/svg" id="chart-c943a468-38cc-4acb-9a56-c6f4ab405511" class="pygal-chart" viewBox="0 0 800 600"><!--Generated with pygal 2.4.0 (lxml) ©Kozea 2012-2016 on 2019-08-04--><!--http://pygal.org--><!--http://github.com/Kozea/pygal--><defs><style type="text/css">#chart-c943a468-38cc-4acb-9a56-c6f4ab405511{-webkit-user-select:none;-webkit-font-smoothing:antialiased;font-family:Consolas,"Liberation Mono",Menlo,Courier,monospace}#chart-c943a468-38cc-4acb-9a56-c6f4ab405511 .title{font-family:Consolas,"Liberation Mono",Menlo,Courier,monospace;font-size:16px}#chart-c943a468-38cc-4acb-9a56-c6f4ab405511 .legends .legend text{font-family:Consolas,"Liberation Mono",Menlo,Courier,monospace;font-size:14px}#chart-c943a468-38cc-4acb-9a56-c6f4ab405511 .axis text{font-family:Consolas,"Liberation Mono",Menlo,Courier,monospace;font-size:10px}#chart-c943a468-38cc-4acb-9a56-c6f4ab405511 .axis text.major{font-family:Consolas,"Liberation Mono",Menlo,Courier,monospace;font-size:10px}#chart-c943a468-38cc-4acb-9a56-c6f4ab405511 .text-overlay text.value{font-family:Consolas,"Liberation Mono",Menlo,Courier,monospace;font-size:16px}#chart-c943a468-38cc-4acb-9a56-c6f4ab405511 .text-overlay text.label{font-family:Consolas,"Liberation Mono",Menlo,Courier,monospace;font-size:10px}#chart-c943a468-38cc-4acb-9a56-c6f4ab405511 .tooltip{font-family:Consolas,"Liberation Mono",Menlo,Courier,monospace;font-size:14px}#chart-c943a468-38cc-4acb-9a56-c6f4ab405511 text.no_data{font-family:Consolas,"Liberation Mono",Menlo,Courier,monospace;font-size:64px}
#chart-c943a468-38cc-4acb-9a56-c6f4ab405511{background-color:rgba(249,249,249,1)}#chart-c943a468-38cc-4acb-9a56-c6f4ab405511 path,#chart-c943a468-38cc-4acb-9a56-c6f4ab405511 line,#chart-c943a468-38cc-4acb-9a56-c6f4ab405511 rect,#chart-c943a468-38cc-4acb-9a56-c6f4ab405511 circle{-webkit-transition:150ms;-moz-transition:150ms;transition:150ms}#chart-c943a468-38cc-4acb-9a56-c6f4ab405511 .graph &gt; .background{fill:rgba(249,249,249,1)}#chart-c943a468-38cc-4acb-9a56-c6f4ab405511 .plot &gt; .background{fill:rgba(255,255,255,1)}#chart-c943a468-38cc-4acb-9a56-c6f4ab405511 .graph{fill:rgba(0,0,0,.87)}#chart-c943a468-38cc-4acb-9a56-c6f4ab405511 text.no_data{fill:rgba(0,0,0,1)}#chart-c943a468-38cc-4acb-9a56-c6f4ab405511 .title{fill:rgba(0,0,0,1)}#chart-c943a468-38cc-4acb-9a56-c6f4ab405511 .legends .legend text{fill:rgba(0,0,0,.87)}#chart-c943a468-38cc-4acb-9a56-c6f4ab405511 .legends .legend:hover text{fill:rgba(0,0,0,1)}#chart-c943a468-38cc-4acb-9a56-c6f4ab405511 .axis .line{stroke:rgba(0,0,0,1)}#chart-c943a468-38cc-4acb-9a56-c6f4ab405511 .axis .guide.line{stroke:rgba(0,0,0,.54)}#chart-c943a468-38cc-4acb-9a56-c6f4ab405511 .axis .major.line{stroke:rgba(0,0,0,.87)}#chart-c943a468-38cc-4acb-9a56-c6f4ab405511 .axis text.major{fill:rgba(0,0,0,1)}#chart-c943a468-38cc-4acb-9a56-c6f4ab405511 .axis.y .guides:hover .guide.line,#chart-c943a468-38cc-4acb-9a56-c6f4ab405511 .line-graph .axis.x .guides:hover .guide.line,#chart-c943a468-38cc-4acb-9a56-c6f4ab405511 .stackedline-graph .axis.x .guides:hover .guide.line,#chart-c943a468-38cc-4acb-9a56-c6f4ab405511 .xy-graph .axis.x .guides:hover .guide.line{stroke:rgba(0,0,0,1)}#chart-c943a468-38cc-4acb-9a56-c6f4ab405511 .axis .guides:hover text{fill:rgba(0,0,0,1)}#chart-c943a468-38cc-4acb-9a56-c6f4ab405511 .reactive{fill-opacity:.7;stroke-opacity:.8}#chart-c943a468-38cc-4acb-9a56-c6f4ab405511 .ci{stroke:rgba(0,0,0,.87)}#chart-c943a468-38cc-4acb-9a56-c6f4ab405511 .reactive.active,#chart-c943a468-38cc-4acb-9a56-c6f4ab405511 .active .reactive{fill-opacity:.8;stroke-opacity:.9;stroke-width:4}#chart-c943a468-38cc-4acb-9a56-c6f4ab405511 .ci .reactive.active{stroke-width:1.5}#chart-c943a468-38cc-4acb-9a56-c6f4ab405511 .series text{fill:rgba(0,0,0,1)}#chart-c943a468-38cc-4acb-9a56-c6f4ab405511 .tooltip rect{fill:rgba(255,255,255,1);stroke:rgba(0,0,0,1);-webkit-transition:opacity 150ms;-moz-transition:opacity 150ms;transition:opacity 150ms}#chart-c943a468-38cc-4acb-9a56-c6f4ab405511 .tooltip .label{fill:rgba(0,0,0,.87)}#chart-c943a468-38cc-4acb-9a56-c6f4ab405511 .tooltip .label{fill:rgba(0,0,0,.87)}#chart-c943a468-38cc-4acb-9a56-c6f4ab405511 .tooltip .legend{font-size:.8em;fill:rgba(0,0,0,.54)}#chart-c943a468-38cc-4acb-9a56-c6f4ab405511 .tooltip .x_label{font-size:.6em;fill:rgba(0,0,0,1)}#chart-c943a468-38cc-4acb-9a56-c6f4ab405511 .tooltip .xlink{font-size:.5em;text-decoration:underline}#chart-c943a468-38cc-4acb-9a56-c6f4ab405511 .tooltip .value{font-size:1.5em}#chart-c943a468-38cc-4acb-9a56-c6f4ab405511 .bound{font-size:.5em}#chart-c943a468-38cc-4acb-9a56-c6f4ab405511 .max-value{font-size:.75em;fill:rgba(0,0,0,.54)}#chart-c943a468-38cc-4acb-9a56-c6f4ab405511 .map-element{fill:rgba(255,255,255,1);stroke:rgba(0,0,0,.54) !important}#chart-c943a468-38cc-4acb-9a56-c6f4ab405511 .map-element .reactive{fill-opacity:inherit;stroke-opacity:inherit}#chart-c943a468-38cc-4acb-9a56-c6f4ab405511 .color-0,#chart-c943a468-38cc-4acb-9a56-c6f4ab405511 .color-0 a:visited{stroke:red;fill:red}#chart-c943a468-38cc-4acb-9a56-c6f4ab405511 .color-1,#chart-c943a468-38cc-4acb-9a56-c6f4ab405511 .color-1 a:visited{stroke:blue;fill:blue}#chart-c943a468-38cc-4acb-9a56-c6f4ab405511 .color-2,#chart-c943a468-38cc-4acb-9a56-c6f4ab405511 .color-2 a:visited{stroke:green;fill:green}#chart-c943a468-38cc-4acb-9a56-c6f4ab405511 .text-overlay .color-0 text{fill:white}#chart-c943a468-38cc-4acb-9a56-c6f4ab405511 .text-overlay .color-1 text{fill:white}#chart-c943a468-38cc-4acb-9a56-c6f4ab405511 .text-overlay .color-2 text{fill:white}
#chart-c943a468-38cc-4acb-9a56-c6f4ab405511 text.no_data{text-anchor:middle}#chart-c943a468-38cc-4acb-9a56-c6f4ab405511 .guide.line{fill:none}#chart-c943a468-38cc-4acb-9a56-c6f4ab405511 .centered{text-anchor:middle}#chart-c943a468-38cc-4acb-9a56-c6f4ab405511 .title{text-anchor:middle}#chart-c943a468-38cc-4acb-9a56-c6f4ab405511 .legends .legend text{fill-opacity:1}#chart-c943a468-38cc-4acb-9a56-c6f4ab405511 .axis.x text{text-anchor:middle}#chart-c943a468-38cc-4acb-9a56-c6f4ab405511 .axis.x:not(.web) text[transform]{text-anchor:start}#chart-c943a468-38cc-4acb-9a56-c6f4ab405511 .axis.x:not(.web) text[transform].backwards{text-anchor:end}#chart-c943a468-38cc-4acb-9a56-c6f4ab405511 .axis.y text{text-anchor:end}#chart-c943a468-38cc-4acb-9a56-c6f4ab405511 .axis.y text[transform].backwards{text-anchor:start}#chart-c943a468-38cc-4acb-9a56-c6f4ab405511 .axis.y2 text{text-anchor:start}#chart-c943a468-38cc-4acb-9a56-c6f4ab405511 .axis.y2 text[transform].backwards{text-anchor:end}#chart-c943a468-38cc-4acb-9a56-c6f4ab405511 .axis .guide.line{stroke-dasharray:4,4}#chart-c943a468-38cc-4acb-9a56-c6f4ab405511 .axis .major.guide.line{stroke-dasharray:6,6}#chart-c943a468-38cc-4acb-9a56-c6f4ab405511 .horizontal .axis.y .guide.line,#chart-c943a468-38cc-4acb-9a56-c6f4ab405511 .horizontal .axis.y2 .guide.line,#chart-c943a468-38cc-4acb-9a56-c6f4ab405511 .vertical .axis.x .guide.line{opacity:0}#chart-c943a468-38cc-4acb-9a56-c6f4ab405511 .horizontal .axis.always_show .guide.line,#chart-c943a468-38cc-4acb-9a56-c6f4ab405511 .vertical .axis.always_show .guide.line{opacity:1 !important}#chart-c943a468-38cc-4acb-9a56-c6f4ab405511 .axis.y .guides:hover .guide.line,#chart-c943a468-38cc-4acb-9a56-c6f4ab405511 .axis.y2 .guides:hover .guide.line,#chart-c943a468-38cc-4acb-9a56-c6f4ab405511 .axis.x .guides:hover .guide.line{opacity:1}#chart-c943a468-38cc-4acb-9a56-c6f4ab405511 .axis .guides:hover text{opacity:1}#chart-c943a468-38cc-4acb-9a56-c6f4ab405511 .nofill{fill:none}#chart-c943a468-38cc-4acb-9a56-c6f4ab405511 .subtle-fill{fill-opacity:.2}#chart-c943a468-38cc-4acb-9a56-c6f4ab405511 .dot{stroke-width:1px;fill-opacity:1}#chart-c943a468-38cc-4acb-9a56-c6f4ab405511 .dot.active{stroke-width:5px}#chart-c943a468-38cc-4acb-9a56-c6f4ab405511 .dot.negative{fill:transparent}#chart-c943a468-38cc-4acb-9a56-c6f4ab405511 text,#chart-c943a468-38cc-4acb-9a56-c6f4ab405511 tspan{stroke:none !important}#chart-c943a468-38cc-4acb-9a56-c6f4ab405511 .series text.active{opacity:1}#chart-c943a468-38cc-4acb-9a56-c6f4ab405511 .tooltip rect{fill-opacity:.95;stroke-width:.5}#chart-c943a468-38cc-4acb-9a56-c6f4ab405511 .tooltip text{fill-opacity:1}#chart-c943a468-38cc-4acb-9a56-c6f4ab405511 .showable{visibility:hidden}#chart-c943a468-38cc-4acb-9a56-c6f4ab405511 .showable.shown{visibility:visible}#chart-c943a468-38cc-4acb-9a56-c6f4ab405511 .gauge-background{fill:rgba(229,229,229,1);stroke:none}#chart-c943a468-38cc-4acb-9a56-c6f4ab405511 .bg-lines{stroke:rgba(249,249,249,1);stroke-width:2px}</style><script type="text/javascript">window.pygal = window.pygal || {};window.pygal.config = window.pygal.config || {};window.pygal.config['c943a468-38cc-4acb-9a56-c6f4ab405511'] = {"allow_interruptions": false, "box_mode": "extremes", "classes": ["pygal-chart"], "css": ["file://style.css", "file://graph.css"], "defs": [], "disable_xml_declaration": false, "dots_size": 2.5, "dynamic_print_values": false, "explicit_size": false, "fill": false, "force_uri_protocol": "https", "formatter": null, "half_pie": false, "height": 600, "include_x_axis": false, "inner_radius": 0, "interpolate": null, "interpolation_parameters": {}, "interpolation_precision": 250, "inverse_y_axis": false, "js": ["//kozea.github.io/pygal.js/2.0.x/pygal-tooltips.min.js"], "legend_at_bottom": true, "legend_at_bottom_columns": null, "legend_box_size": 12, "logarithmic": false, "margin": 20, "margin_bottom": null, "margin_left": null, "margin_right": null, "margin_top": null, "max_scale": 16, "min_scale": 4, "missing_value_fill_truncation": "x", "no_data_text": "No data", "no_prefix": false, "order_min": null, "pretty_print": false, "print_labels": false, "print_values": false, "print_values_position": "center", "print_zeroes": true, "range": null, "rounded_bars": null, "secondary_range": null, "show_dots": true, "show_legend": true, "show_minor_x_labels": false, "show_minor_y_labels": true, "show_only_major_dots": false, "show_x_guides": false, "show_x_labels": true, "show_y_guides": true, "show_y_labels": true, "spacing": 10, "stack_from_top": false, "strict": false, "stroke": true, "stroke_style": null, "style": {"background": "rgba(249, 249, 249, 1)", "ci_colors": [], "colors": ["red", "blue", "green", "#a3a3a3"], "font_family": "Consolas, \"Liberation Mono\", Menlo, Courier, monospace", "foreground": "rgba(0, 0, 0, .87)", "foreground_strong": "rgba(0, 0, 0, 1)", "foreground_subtle": "rgba(0, 0, 0, .54)", "guide_stroke_dasharray": "4,4", "label_font_family": "Consolas, \"Liberation Mono\", Menlo, Courier, monospace", "label_font_size": 10, "legend_font_family": "Consolas, \"Liberation Mono\", Menlo, Courier, monospace", "legend_font_size": 14, "major_guide_stroke_dasharray": "6,6", "major_label_font_family": "Consolas, \"Liberation Mono\", Menlo, Courier, monospace", "major_label_font_size": 10, "no_data_font_family": "Consolas, \"Liberation Mono\", Menlo, Courier, monospace", "no_data_font_size": 64, "opacity": ".7", "opacity_hover": ".8", "plot_background": "rgba(255, 255, 255, 1)", "stroke_opacity": ".8", "stroke_opacity_hover": ".9", "title_font_family": "Consolas, \"Liberation Mono\", Menlo, Courier, monospace", "title_font_size": 16, "tooltip_font_family": "Consolas, \"Liberation Mono\", Menlo, Courier, monospace", "tooltip_font_size": 14, "transition": "150ms", "value_background": "rgba(229, 229, 229, 1)", "value_colors": [], "value_font_family": "Consolas, \"Liberation Mono\", Menlo, Courier, monospace", "value_font_size": 16, "value_label_font_family": "Consolas, \"Liberation Mono\", Menlo, Courier, monospace", "value_label_font_size": 10}, "title": "TA Boult: Future and Past Averages in ODIs", "tooltip_border_radius": 10, "tooltip_fancy_mode": true, "truncate_label": null, "truncate_legend": null, "width": 800, "x_label_rotation": 45, "x_labels": ["2012", "0", "0", "0", "0", "0", "0", "2013", "2014", "0", "2015", "0", "0", "0", "0", "0", "0", "0", "0", "0", "0", "0", "0", "0", "0", "0", "0", "2016", "0", "0", "0", "0", "0", "0", "0", "0", "0", "0", "0", "0", "0", "2017", "0", "0", "0", "0", "0", "0", "0", "0", "0", "0", "0", "0", "0", "0", "0", "2018", "0", "0", "0", "0", "0", "0", "0", "0", "0", "0", "0", "2019", "0", "0", "0", "0", "0", "0", "0", "0", "0", "0", "0", "0", "0", "0", "0", "0", "0", "0", "0"], "x_labels_major": ["2012", "2013", "2014", "2015", "2016", "2017", "2018", "2019"], "x_labels_major_count": null, "x_labels_major_every": null, "x_title": null, "xrange": null, "y_label_rotation": 0, "y_labels": null, "y_labels_major": null, "y_labels_major_count": null, "y_labels_major_every": null, "y_title": null, "zero": 70.0, "legends": ["Future Average", "Past Average", "Career Average"]}</script><script type="text/javascript" xlink:href="https://kozea.github.io/pygal.js/2.0.x/pygal-tooltips.min.js"/></defs><title>TA Boult: Future and Past Averages in ODIs</title><g class="graph line-graph vertical"><rect class="background" height="600" width="800" x="0" y="0"/><g class="plot" transform="translate(42, 46)"><rect class="background" height="462.02943725152284" width="738.0" x="0" y="0"/><g class="axis y always_show"><g class="guides"><path class="axis major line" d="M0.000000 453.144256 h738.000000"/><text class="major" x="-5" y="456.6442557659166">0</text><title>0</title></g><g class="guides"><path class="guide line" d="M0.000000 386.836931 h738.000000"/><text class="" x="-5" y="390.3369312464673">10</text><title>10</title></g><g class="guides"><path class="guide line" d="M0.000000 320.529607 h738.000000"/><text class="" x="-5" y="324.02960672701806">20</text><title>20</title></g><g class="guides"><path class="guide line" d="M0.000000 254.222282 h738.000000"/><text class="" x="-5" y="257.7222822075687">30</text><title>30</title></g><g class="guides"><path class="guide line" d="M0.000000 187.914958 h738.000000"/><text class="" x="-5" y="191.41495768811933">40</text><title>40</title></g><g class="guides"><path class="major guide line" d="M0.000000 121.607633 h738.000000"/><text class="major" x="-5" y="125.10763316867002">50</text><title>50</title></g><g class="guides"><path class="guide line" d="M0.000000 55.300309 h738.000000"/><text class="" x="-5" y="58.80030864922077">60</text><title>60</title></g></g><g class="axis x"><g class="guides"><path class="major line" d="M14.192308 0.000000 v462.029437"/><text class="major" x="14.192307692307692" y="477.02943725152284" transform="rotate(45 14.192308 477.029437)">2012</text></g><g class="guides"><path class="major guide line" d="M70.638986 0.000000 v462.029437"/><text class="major" x="70.63898601398601" y="477.02943725152284" transform="rotate(45 70.638986 477.029437)">2013</text></g><g class="guides"><path class="major guide line" d="M78.702797 0.000000 v462.029437"/><text class="major" x="78.70279720279721" y="477.02943725152284" transform="rotate(45 78.702797 477.029437)">2014</text></g><g class="guides"><path class="major guide line" d="M94.830420 0.000000 v462.029437"/><text class="major" x="94.83041958041957" y="477.02943725152284" transform="rotate(45 94.830420 477.029437)">2015</text></g><g class="guides"><path class="major guide line" d="M231.915210 0.000000 v462.029437"/><text class="major" x="231.91520979020981" y="477.02943725152284" transform="rotate(45 231.915210 477.029437)">2016</text></g><g class="guides"><path class="major guide line" d="M344.808566 0.000000 v462.029437"/><text class="major" x="344.80856643356645" y="477.02943725152284" transform="rotate(45 344.808566 477.029437)">2017</text></g><g class="guides"><path class="major guide line" d="M473.829545 0.000000 v462.029437"/><text class="major" x="473.8295454545454" y="477.02943725152284" transform="rotate(45 473.829545 477.029437)">2018</text></g><g class="guides"><path class="major guide line" d="M570.595280 0.000000 v462.029437"/><text class="major" x="570.5952797202797" y="477.02943725152284" transform="rotate(45 570.595280 477.029437)">2019</text></g></g><g class="series serie-0 color-0"><path class="line reactive nofill" d="M14.192308 286.911793 L22.256119 286.712871 30.319930 287.641174 38.383741 288.834706 46.447552 288.834706 54.511364 290.094545 62.575175 290.359774 70.638986 290.293467 78.702797 292.614223 86.766608 292.282686 94.830420 293.210989 102.894231 295.200209 110.958042 297.388350 119.021853 295.200209 127.085664 295.531745 135.149476 294.470828 143.213287 295.001287 151.277098 295.730667 159.340909 294.537136 167.404720 294.868672 175.468531 290.426081 183.532343 288.436862 191.596154 288.768398 199.659965 285.850876 207.723776 285.983491 215.787587 286.779179 223.851399 284.259500 231.915210 284.392115 239.979021 282.469202 248.042832 278.689685 256.106643 279.153836 264.170455 276.634158 272.234266 279.087529 280.298077 277.363538 288.361888 282.005051 296.425699 281.806129 304.489510 281.806129 312.553322 281.739822 320.617133 285.519339 328.680944 283.596427 336.744755 286.646564 344.808566 284.922573 352.872378 285.453032 360.936189 275.971085 369.000000 277.429846 377.063811 276.037392 385.127622 277.761382 393.191434 281.540900 401.255245 285.320417 409.319056 285.519339 417.382867 288.237940 425.446678 290.359774 433.510490 284.325808 441.574301 289.431472 449.638112 297.123121 457.701923 301.698327 465.765734 288.436862 473.829545 282.203973 481.893357 280.281061 489.957168 283.530120 498.020979 269.406660 506.084790 275.308011 514.148601 276.700465 522.212413 275.639548 530.276224 274.711245 538.340035 275.042782 546.403846 278.689685 554.467657 274.446016 562.531469 284.657344 570.595280 294.205599 578.659091 297.322043 586.722902 304.416927 594.786713 307.997522 602.850524 311.511811 610.914336 310.915045 618.978147 288.901013 627.041958 278.755992 635.105769 265.826064 643.169580 273.053562 651.233392 266.290215 659.297203 272.854640 667.361014 267.947898 675.424825 284.060578 683.488636 303.157088 691.552448 258.664873 699.616259 274.114480 707.680070 179.626542 715.743881 91.769337 723.807692 8.885181"/></g><g class="series serie-1 color-1"><path class="line reactive nofill" d="M14.192308 453.144256 L22.256119 303.952776 30.319930 249.779691 38.383741 185.726816 46.447552 209.464838 54.511364 161.392028 62.575175 177.305786 70.638986 197.861056 78.702797 137.057240 86.766608 182.941908 94.830420 190.567251 102.894231 160.065881 110.958042 125.586073 119.021853 198.325208 127.085664 201.640574 135.149476 221.466464 143.213287 221.466464 151.277098 223.389376 159.340909 237.976988 167.404720 238.109602 175.468531 270.069733 183.532343 280.546290 191.596154 279.750602 199.659965 290.625003 207.723776 289.895623 215.787587 287.375944 223.851399 294.139292 231.915210 293.409911 239.979021 297.388350 248.042832 304.151698 256.106643 302.295092 264.170455 305.809381 272.234266 300.836331 280.298077 303.157088 288.361888 295.200209 296.425699 295.133901 304.489510 294.736057 312.553322 294.404521 320.617133 288.967320 328.680944 291.288077 336.744755 287.309637 344.808566 289.497779 352.872378 288.702091 360.936189 298.184038 369.000000 296.460048 377.063811 297.056814 385.127622 295.266516 393.191434 291.752228 401.255245 288.370554 409.319056 288.105325 417.382867 285.784569 425.446678 284.126886 433.510490 288.834706 441.574301 285.055188 449.638112 279.352758 457.701923 275.971085 465.765734 285.983491 473.829545 289.696701 481.893357 290.558696 489.957168 288.768398 498.020979 295.067594 506.084790 292.216379 514.148601 291.288077 522.212413 291.486999 530.276224 291.553306 538.340035 291.155462 546.403846 289.763008 554.467657 290.823925 562.531469 287.641174 570.595280 284.723651 578.659091 283.994271 586.722902 282.203973 594.786713 281.209363 602.850524 280.745212 610.914336 281.341978 618.978147 286.580257 627.041958 288.237940 635.105769 289.895623 643.169580 288.768398 651.233392 289.298857 659.297203 288.436862 667.361014 288.702091 675.424825 287.177022 683.488636 285.519339 691.552448 288.569476 699.616259 287.574866 707.680070 289.630394 715.743881 289.365164 723.807692 289.630394"/></g><g class="series serie-2 color-2"><path class="line reactive nofill" d="M14.192308 286.911793 L22.256119 286.911793 30.319930 286.911793 38.383741 286.911793 46.447552 286.911793 54.511364 286.911793 62.575175 286.911793 70.638986 286.911793 78.702797 286.911793 86.766608 286.911793 94.830420 286.911793 102.894231 286.911793 110.958042 286.911793 119.021853 286.911793 127.085664 286.911793 135.149476 286.911793 143.213287 286.911793 151.277098 286.911793 159.340909 286.911793 167.404720 286.911793 175.468531 286.911793 183.532343 286.911793 191.596154 286.911793 199.659965 286.911793 207.723776 286.911793 215.787587 286.911793 223.851399 286.911793 231.915210 286.911793 239.979021 286.911793 248.042832 286.911793 256.106643 286.911793 264.170455 286.911793 272.234266 286.911793 280.298077 286.911793 288.361888 286.911793 296.425699 286.911793 304.489510 286.911793 312.553322 286.911793 320.617133 286.911793 328.680944 286.911793 336.744755 286.911793 344.808566 286.911793 352.872378 286.911793 360.936189 286.911793 369.000000 286.911793 377.063811 286.911793 385.127622 286.911793 393.191434 286.911793 401.255245 286.911793 409.319056 286.911793 417.382867 286.911793 425.446678 286.911793 433.510490 286.911793 441.574301 286.911793 449.638112 286.911793 457.701923 286.911793 465.765734 286.911793 473.829545 286.911793 481.893357 286.911793 489.957168 286.911793 498.020979 286.911793 506.084790 286.911793 514.148601 286.911793 522.212413 286.911793 530.276224 286.911793 538.340035 286.911793 546.403846 286.911793 554.467657 286.911793 562.531469 286.911793 570.595280 286.911793 578.659091 286.911793 586.722902 286.911793 594.786713 286.911793 602.850524 286.911793 610.914336 286.911793 618.978147 286.911793 627.041958 286.911793 635.105769 286.911793 643.169580 286.911793 651.233392 286.911793 659.297203 286.911793 667.361014 286.911793 675.424825 286.911793 683.488636 286.911793 691.552448 286.911793 699.616259 286.911793 707.680070 286.911793 715.743881 286.911793 723.807692 286.911793"/></g></g><g class="titles"><text class="title plot_title" x="400.0" y="26">TA Boult: Future and Past Averages in ODIs</text></g><g class="plot overlay" transform="translate(42, 46)"><g class="series serie-0 color-0"><g class="dots"><desc class="label">164 wickets in 89 innings (814.0 overs)</desc><circle class="dot reactive tooltip-trigger" cx="14.192307692307692" cy="286.9117931956572" r="2.5"/><desc class="value">25.07</desc><desc class="x top">14.192307692307692</desc><desc class="y top">286.9117931956572</desc><desc class="x_label">2012</desc></g><g class="dots"><desc class="label">158 wickets in 82 innings (764.3 overs)</desc><circle class="dot reactive tooltip-trigger" cx="70.63898601398601" cy="290.29346674614914" r="2.5"/><desc class="value">24.56</desc><desc class="x top">70.63898601398601</desc><desc class="y top">290.29346674614914</desc><desc class="x_label">2013</desc></g><g class="dots"><desc class="label">158 wickets in 81 innings (755.3 overs)</desc><circle class="dot reactive tooltip-trigger" cx="78.70279720279721" cy="292.6142231043299" r="2.5"/><desc class="value">24.21</desc><desc class="x top">78.70279720279721</desc><desc class="y top">292.6142231043299</desc><desc class="x_label">2014</desc></g><g class="dots"><desc class="label">154 wickets in 79 innings (735.3 overs)</desc><circle class="dot reactive tooltip-trigger" cx="94.83041958041957" cy="293.2109890250049" r="2.5"/><desc class="value">24.12</desc><desc class="x top">94.83041958041957</desc><desc class="y top">293.2109890250049</desc><desc class="x_label">2015</desc></g><g class="dots"><desc class="label">118 wickets in 62 innings (575.2 overs)</desc><circle class="dot reactive tooltip-trigger" cx="231.91520979020981" cy="284.3921148639181" r="2.5"/><desc class="value">25.45</desc><desc class="x top">231.91520979020981</desc><desc class="y top">284.3921148639181</desc><desc class="x_label">2016</desc></g><g class="dots"><desc class="label">91 wickets in 48 innings (445.2 overs)</desc><circle class="dot reactive tooltip-trigger" cx="344.80856643356645" cy="284.92257346007375" r="2.5"/><desc class="value">25.37</desc><desc class="x top">344.80856643356645</desc><desc class="y top">284.92257346007375</desc><desc class="x_label">2017</desc></g><g class="dots"><desc class="label">60 wickets in 32 innings (301.0 overs)</desc><circle class="dot reactive tooltip-trigger" cx="473.8295454545454" cy="282.2039731547763" r="2.5"/><desc class="value">25.78</desc><desc class="x left top">473.8295454545454</desc><desc class="y left top">282.2039731547763</desc><desc class="x_label">2018</desc></g><g class="dots"><desc class="label">38 wickets in 20 innings (193.4 overs)</desc><circle class="dot reactive tooltip-trigger" cx="570.5952797202797" cy="294.2055988927966" r="2.5"/><desc class="value">23.97</desc><desc class="x left top">570.5952797202797</desc><desc class="y left top">294.2055988927966</desc><desc class="x_label">2019</desc></g></g><g class="series serie-1 color-1"><g class="dots"><desc class="label">0 wickets over 0 innings</desc><circle class="dot reactive tooltip-trigger" cx="14.192307692307692" cy="453.1442557659166" r="2.5"/><desc class="value">0</desc><desc class="x top">14.192307692307692</desc><desc class="y top">453.1442557659166</desc><desc class="x_label">2012</desc></g><g class="dots"><desc class="label">6 wickets in 7 innings (49.3 overs)</desc><circle class="dot reactive tooltip-trigger" cx="70.63898601398601" cy="197.86105636603673" r="2.5"/><desc class="value">38.5</desc><desc class="x ">70.63898601398601</desc><desc class="y ">197.86105636603673</desc><desc class="x_label">2013</desc></g><g class="dots"><desc class="label">6 wickets in 8 innings (58.3 overs)</desc><circle class="dot reactive tooltip-trigger" cx="78.70279720279721" cy="137.05723978170175" r="2.5"/><desc class="value">47.67</desc><desc class="x ">78.70279720279721</desc><desc class="y ">137.05723978170175</desc><desc class="x_label">2014</desc></g><g class="dots"><desc class="label">10 wickets in 10 innings (78.3 overs)</desc><circle class="dot reactive tooltip-trigger" cx="94.83041958041957" cy="190.56725066889732" r="2.5"/><desc class="value">39.6</desc><desc class="x ">94.83041958041957</desc><desc class="y ">190.56725066889732</desc><desc class="x_label">2015</desc></g><g class="dots"><desc class="label">46 wickets in 27 innings (238.4 overs)</desc><circle class="dot reactive tooltip-trigger" cx="231.91520979020981" cy="293.40991099856325" r="2.5"/><desc class="value">24.09</desc><desc class="x top">231.91520979020981</desc><desc class="y top">293.40991099856325</desc><desc class="x_label">2016</desc></g><g class="dots"><desc class="label">73 wickets in 41 innings (368.4 overs)</desc><circle class="dot reactive tooltip-trigger" cx="344.80856643356645" cy="289.49777885191577" r="2.5"/><desc class="value">24.68</desc><desc class="x top">344.80856643356645</desc><desc class="y top">289.49777885191577</desc><desc class="x_label">2017</desc></g><g class="dots"><desc class="label">104 wickets in 57 innings (513.0 overs)</desc><circle class="dot reactive tooltip-trigger" cx="473.8295454545454" cy="289.69670082547407" r="2.5"/><desc class="value">24.65</desc><desc class="x left top">473.8295454545454</desc><desc class="y left top">289.69670082547407</desc><desc class="x_label">2018</desc></g><g class="dots"><desc class="label">126 wickets in 69 innings (620.2 overs)</desc><circle class="dot reactive tooltip-trigger" cx="570.5952797202797" cy="284.7236514865154" r="2.5"/><desc class="value">25.4</desc><desc class="x left top">570.5952797202797</desc><desc class="y left top">284.7236514865154</desc><desc class="x_label">2019</desc></g></g><g class="series serie-2 color-2"/></g><g class="plot text-overlay" transform="translate(42, 46)"><g class="series serie-0 color-0"/><g class="series serie-1 color-1"/><g class="series serie-2 color-2"/></g><g class="plot tooltip-overlay" transform="translate(42, 46)"><g class="tooltip" style="opacity: 0" transform="translate(0 0)"><rect class="tooltip-box" height="0" rx="10" ry="10" width="0"/><g class="text"/></g></g><g class="legends" transform="translate(52, 545)"><g class="legend reactive activate-serie" id="activate-serie-0"><rect class="color-0 reactive" height="12" width="12" x="0.0" y="1.0"/><text x="17.0" y="11.2">Future Average</text></g><g class="legend reactive activate-serie" id="activate-serie-1"><rect class="color-1 reactive" height="12" width="12" x="369.0" y="1.0"/><text x="386.0" y="11.2">Past Average</text></g><g class="legend reactive activate-serie" id="activate-serie-2"><rect class="color-2 reactive" height="12" width="12" x="0.0" y="22.0"/><text x="17.0" y="32.2">Career Average</text></g></g></g></svg>