<?xml version='1.0' encoding='utf-8'?>
<svg xmlns:xlink="http://www.w3.org/1999/xlink" xmlns="http://www.w3.org/2000/svg" id="chart-5de1365f-a9a0-4565-bf39-ae297fb311a0" class="pygal-chart" viewBox="0 0 800 600"><!--Generated with pygal 2.4.0 (lxml) ©Kozea 2012-2016 on 2019-08-04--><!--http://pygal.org--><!--http://github.com/Kozea/pygal--><defs><style type="text/css">#chart-5de1365f-a9a0-4565-bf39-ae297fb311a0{-webkit-user-select:none;-webkit-font-smoothing:antialiased;font-family:Consolas,"Liberation Mono",Menlo,Courier,monospace}#chart-5de1365f-a9a0-4565-bf39-ae297fb311a0 .title{font-family:Consolas,"Liberation Mono",Menlo,Courier,monospace;font-size:16px}#chart-5de1365f-a9a0-4565-bf39-ae297fb311a0 .legends .legend text{font-family:Consolas,"Liberation Mono",Menlo,Courier,monospace;font-size:14px}#chart-5de1365f-a9a0-4565-bf39-ae297fb311a0 .axis text{font-family:Consolas,"Liberation Mono",Menlo,Courier,monospace;font-size:10px}#chart-5de1365f-a9a0-4565-bf39-ae297fb311a0 .axis text.major{font-family:Consolas,"Liberation Mono",Menlo,Courier,monospace;font-size:10px}#chart-5de1365f-a9a0-4565-bf39-ae297fb311a0 .text-overlay text.value{font-family:Consolas,"Liberation Mono",Menlo,Courier,monospace;font-size:16px}#chart-5de1365f-a9a0-4565-bf39-ae297fb311a0 .text-overlay text.label{font-family:Consolas,"Liberation Mono",Menlo,Courier,monospace;font-size:10px}#chart-5de1365f-a9a0-4565-bf39-ae297fb311a0 .tooltip{font-family:Consolas,"Liberation Mono",Menlo,Courier,monospace;font-size:14px}#chart-5de1365f-a9a0-4565-bf39-ae297fb311a0 text.no_data{font-family:Consolas,"Liberation Mono",Menlo,Courier,monospace;font-size:64px}
#chart-5de1365f-a9a0-4565-bf39-ae297fb311a0{background-color:rgba(249,249,249,1)}#chart-5de1365f-a9a0-4565-bf39-ae297fb311a0 path,#chart-5de1365f-a9a0-4565-bf39-ae297fb311a0 line,#chart-5de1365f-a9a0-4565-bf39-ae297fb311a0 rect,#chart-5de1365f-a9a0-4565-bf39-ae297fb311a0 circle{-webkit-transition:150ms;-moz-transition:150ms;transition:150ms}#chart-5de1365f-a9a0-4565-bf39-ae297fb311a0 .graph &gt; .background{fill:rgba(249,249,249,1)}#chart-5de1365f-a9a0-4565-bf39-ae297fb311a0 .plot &gt; .background{fill:rgba(255,255,255,1)}#chart-5de1365f-a9a0-4565-bf39-ae297fb311a0 .graph{fill:rgba(0,0,0,.87)}#chart-5de1365f-a9a0-4565-bf39-ae297fb311a0 text.no_data{fill:rgba(0,0,0,1)}#chart-5de1365f-a9a0-4565-bf39-ae297fb311a0 .title{fill:rgba(0,0,0,1)}#chart-5de1365f-a9a0-4565-bf39-ae297fb311a0 .legends .legend text{fill:rgba(0,0,0,.87)}#chart-5de1365f-a9a0-4565-bf39-ae297fb311a0 .legends .legend:hover text{fill:rgba(0,0,0,1)}#chart-5de1365f-a9a0-4565-bf39-ae297fb311a0 .axis .line{stroke:rgba(0,0,0,1)}#chart-5de1365f-a9a0-4565-bf39-ae297fb311a0 .axis .guide.line{stroke:rgba(0,0,0,.54)}#chart-5de1365f-a9a0-4565-bf39-ae297fb311a0 .axis .major.line{stroke:rgba(0,0,0,.87)}#chart-5de1365f-a9a0-4565-bf39-ae297fb311a0 .axis text.major{fill:rgba(0,0,0,1)}#chart-5de1365f-a9a0-4565-bf39-ae297fb311a0 .axis.y .guides:hover .guide.line,#chart-5de1365f-a9a0-4565-bf39-ae297fb311a0 .line-graph .axis.x .guides:hover .guide.line,#chart-5de1365f-a9a0-4565-bf39-ae297fb311a0 .stackedline-graph .axis.x .guides:hover .guide.line,#chart-5de1365f-a9a0-4565-bf39-ae297fb311a0 .xy-graph .axis.x .guides:hover .guide.line{stroke:rgba(0,0,0,1)}#chart-5de1365f-a9a0-4565-bf39-ae297fb311a0 .axis .guides:hover text{fill:rgba(0,0,0,1)}#chart-5de1365f-a9a0-4565-bf39-ae297fb311a0 .reactive{fill-opacity:.7;stroke-opacity:.8}#chart-5de1365f-a9a0-4565-bf39-ae297fb311a0 .ci{stroke:rgba(0,0,0,.87)}#chart-5de1365f-a9a0-4565-bf39-ae297fb311a0 .reactive.active,#chart-5de1365f-a9a0-4565-bf39-ae297fb311a0 .active .reactive{fill-opacity:.8;stroke-opacity:.9;stroke-width:4}#chart-5de1365f-a9a0-4565-bf39-ae297fb311a0 .ci .reactive.active{stroke-width:1.5}#chart-5de1365f-a9a0-4565-bf39-ae297fb311a0 .series text{fill:rgba(0,0,0,1)}#chart-5de1365f-a9a0-4565-bf39-ae297fb311a0 .tooltip rect{fill:rgba(255,255,255,1);stroke:rgba(0,0,0,1);-webkit-transition:opacity 150ms;-moz-transition:opacity 150ms;transition:opacity 150ms}#chart-5de1365f-a9a0-4565-bf39-ae297fb311a0 .tooltip .label{fill:rgba(0,0,0,.87)}#chart-5de1365f-a9a0-4565-bf39-ae297fb311a0 .tooltip .label{fill:rgba(0,0,0,.87)}#chart-5de1365f-a9a0-4565-bf39-ae297fb311a0 .tooltip .legend{font-size:.8em;fill:rgba(0,0,0,.54)}#chart-5de1365f-a9a0-4565-bf39-ae297fb311a0 .tooltip .x_label{font-size:.6em;fill:rgba(0,0,0,1)}#chart-5de1365f-a9a0-4565-bf39-ae297fb311a0 .tooltip .xlink{font-size:.5em;text-decoration:underline}#chart-5de1365f-a9a0-4565-bf39-ae297fb311a0 .tooltip .value{font-size:1.5em}#chart-5de1365f-a9a0-4565-bf39-ae297fb311a0 .bound{font-size:.5em}#chart-5de1365f-a9a0-4565-bf39-ae297fb311a0 .max-value{font-size:.75em;fill:rgba(0,0,0,.54)}#chart-5de1365f-a9a0-4565-bf39-ae297fb311a0 .map-element{fill:rgba(255,255,255,1);stroke:rgba(0,0,0,.54) !important}#chart-5de1365f-a9a0-4565-bf39-ae297fb311a0 .map-element .reactive{fill-opacity:inherit;stroke-opacity:inherit}#chart-5de1365f-a9a0-4565-bf39-ae297fb311a0 .color-0,#chart-5de1365f-a9a0-4565-bf39-ae297fb311a0 .color-0 a:visited{stroke:red;fill:red}#chart-5de1365f-a9a0-4565-bf39-ae297fb311a0 .color-1,#chart-5de1365f-a9a0-4565-bf39-ae297fb311a0 .color-1 a:visited{stroke:blue;fill:blue}#chart-5de1365f-a9a0-4565-bf39-ae297fb311a0 .color-2,#chart-5de1365f-a9a0-4565-bf39-ae297fb311a0 .color-2 a:visited{stroke:green;fill:green}#chart-5de1365f-a9a0-4565-bf39-ae297fb311a0 .text-overlay .color-0 text{fill:white}#chart-5de1365f-a9a0-4565-bf39-ae297fb311a0 .text-overlay .color-1 text{fill:white}#chart-5de1365f-a9a0-4565-bf39-ae297fb311a0 .text-overlay .color-2 text{fill:white}
#chart-5de1365f-a9a0-4565-bf39-ae297fb311a0 text.no_data{text-anchor:middle}#chart-5de1365f-a9a0-4565-bf39-ae297fb311a0 .guide.line{fill:none}#chart-5de1365f-a9a0-4565-bf39-ae297fb311a0 .centered{text-anchor:middle}#chart-5de1365f-a9a0-4565-bf39-ae297fb311a0 .title{text-anchor:middle}#chart-5de1365f-a9a0-4565-bf39-ae297fb311a0 .legends .legend text{fill-opacity:1}#chart-5de1365f-a9a0-4565-bf39-ae297fb311a0 .axis.x text{text-anchor:middle}#chart-5de1365f-a9a0-4565-bf39-ae297fb311a0 .axis.x:not(.web) text[transform]{text-anchor:start}#chart-5de1365f-a9a0-4565-bf39-ae297fb311a0 .axis.x:not(.web) text[transform].backwards{text-anchor:end}#chart-5de1365f-a9a0-4565-bf39-ae297fb311a0 .axis.y text{text-anchor:end}#chart-5de1365f-a9a0-4565-bf39-ae297fb311a0 .axis.y text[transform].backwards{text-anchor:start}#chart-5de1365f-a9a0-4565-bf39-ae297fb311a0 .axis.y2 text{text-anchor:start}#chart-5de1365f-a9a0-4565-bf39-ae297fb311a0 .axis.y2 text[transform].backwards{text-anchor:end}#chart-5de1365f-a9a0-4565-bf39-ae297fb311a0 .axis .guide.line{stroke-dasharray:4,4}#chart-5de1365f-a9a0-4565-bf39-ae297fb311a0 .axis .major.guide.line{stroke-dasharray:6,6}#chart-5de1365f-a9a0-4565-bf39-ae297fb311a0 .horizontal .axis.y .guide.line,#chart-5de1365f-a9a0-4565-bf39-ae297fb311a0 .horizontal .axis.y2 .guide.line,#chart-5de1365f-a9a0-4565-bf39-ae297fb311a0 .vertical .axis.x .guide.line{opacity:0}#chart-5de1365f-a9a0-4565-bf39-ae297fb311a0 .horizontal .axis.always_show .guide.line,#chart-5de1365f-a9a0-4565-bf39-ae297fb311a0 .vertical .axis.always_show .guide.line{opacity:1 !important}#chart-5de1365f-a9a0-4565-bf39-ae297fb311a0 .axis.y .guides:hover .guide.line,#chart-5de1365f-a9a0-4565-bf39-ae297fb311a0 .axis.y2 .guides:hover .guide.line,#chart-5de1365f-a9a0-4565-bf39-ae297fb311a0 .axis.x .guides:hover .guide.line{opacity:1}#chart-5de1365f-a9a0-4565-bf39-ae297fb311a0 .axis .guides:hover text{opacity:1}#chart-5de1365f-a9a0-4565-bf39-ae297fb311a0 .nofill{fill:none}#chart-5de1365f-a9a0-4565-bf39-ae297fb311a0 .subtle-fill{fill-opacity:.2}#chart-5de1365f-a9a0-4565-bf39-ae297fb311a0 .dot{stroke-width:1px;fill-opacity:1}#chart-5de1365f-a9a0-4565-bf39-ae297fb311a0 .dot.active{stroke-width:5px}#chart-5de1365f-a9a0-4565-bf39-ae297fb311a0 .dot.negative{fill:transparent}#chart-5de1365f-a9a0-4565-bf39-ae297fb311a0 text,#chart-5de1365f-a9a0-4565-bf39-ae297fb311a0 tspan{stroke:none !important}#chart-5de1365f-a9a0-4565-bf39-ae297fb311a0 .series text.active{opacity:1}#chart-5de1365f-a9a0-4565-bf39-ae297fb311a0 .tooltip rect{fill-opacity:.95;stroke-width:.5}#chart-5de1365f-a9a0-4565-bf39-ae297fb311a0 .tooltip text{fill-opacity:1}#chart-5de1365f-a9a0-4565-bf39-ae297fb311a0 .showable{visibility:hidden}#chart-5de1365f-a9a0-4565-bf39-ae297fb311a0 .showable.shown{visibility:visible}#chart-5de1365f-a9a0-4565-bf39-ae297fb311a0 .gauge-background{fill:rgba(229,229,229,1);stroke:none}#chart-5de1365f-a9a0-4565-bf39-ae297fb311a0 .bg-lines{stroke:rgba(249,249,249,1);stroke-width:2px}</style><script type="text/javascript">window.pygal = window.pygal || {};window.pygal.config = window.pygal.config || {};window.pygal.config['5de1365f-a9a0-4565-bf39-ae297fb311a0'] = {"allow_interruptions": false, "box_mode": "extremes", "classes": ["pygal-chart"], "css": ["file://style.css", "file://graph.css"], "defs": [], "disable_xml_declaration": false, "dots_size": 2.5, "dynamic_print_values": false, "explicit_size": false, "fill": false, "force_uri_protocol": "https", "formatter": null, "half_pie": false, "height": 600, "include_x_axis": false, "inner_radius": 0, "interpolate": null, "interpolation_parameters": {}, "interpolation_precision": 250, "inverse_y_axis": false, "js": ["//kozea.github.io/pygal.js/2.0.x/pygal-tooltips.min.js"], "legend_at_bottom": true, "legend_at_bottom_columns": null, "legend_box_size": 12, "logarithmic": false, "margin": 20, "margin_bottom": null, "margin_left": null, "margin_right": null, "margin_top": null, "max_scale": 16, "min_scale": 4, "missing_value_fill_truncation": "x", "no_data_text": "No data", "no_prefix": false, "order_min": null, "pretty_print": false, "print_labels": false, "print_values": false, "print_values_position": "center", "print_zeroes": true, "range": null, "rounded_bars": null, "secondary_range": null, "show_dots": true, "show_legend": true, "show_minor_x_labels": false, "show_minor_y_labels": true, "show_only_major_dots": false, "show_x_guides": false, "show_x_labels": true, "show_y_guides": true, "show_y_labels": true, "spacing": 10, "stack_from_top": false, "strict": false, "stroke": true, "stroke_style": null, "style": {"background": "rgba(249, 249, 249, 1)", "ci_colors": [], "colors": ["red", "blue", "green", "#a3a3a3"], "font_family": "Consolas, \"Liberation Mono\", Menlo, Courier, monospace", "foreground": "rgba(0, 0, 0, .87)", "foreground_strong": "rgba(0, 0, 0, 1)", "foreground_subtle": "rgba(0, 0, 0, .54)", "guide_stroke_dasharray": "4,4", "label_font_family": "Consolas, \"Liberation Mono\", Menlo, Courier, monospace", "label_font_size": 10, "legend_font_family": "Consolas, \"Liberation Mono\", Menlo, Courier, monospace", "legend_font_size": 14, "major_guide_stroke_dasharray": "6,6", "major_label_font_family": "Consolas, \"Liberation Mono\", Menlo, Courier, monospace", "major_label_font_size": 10, "no_data_font_family": "Consolas, \"Liberation Mono\", Menlo, Courier, monospace", "no_data_font_size": 64, "opacity": ".7", "opacity_hover": ".8", "plot_background": "rgba(255, 255, 255, 1)", "stroke_opacity": ".8", "stroke_opacity_hover": ".9", "title_font_family": "Consolas, \"Liberation Mono\", Menlo, Courier, monospace", "title_font_size": 16, "tooltip_font_family": "Consolas, \"Liberation Mono\", Menlo, Courier, monospace", "tooltip_font_size": 14, "transition": "150ms", "value_background": "rgba(229, 229, 229, 1)", "value_colors": [], "value_font_family": "Consolas, \"Liberation Mono\", Menlo, Courier, monospace", "value_font_size": 16, "value_label_font_family": "Consolas, \"Liberation Mono\", Menlo, Courier, monospace", "value_label_font_size": 10}, "title": "TG Southee: Future and Past Averages in ODIs", "tooltip_border_radius": 10, "tooltip_fancy_mode": true, "truncate_label": null, "truncate_legend": null, "width": 800, "x_label_rotation": 45, "x_labels": ["2008", "0", "0", "0", "0", "0", "0", "0", "0", "0", "0", "2009", "0", "0", "0", "0", "0", "0", "0", "0", "0", "0", "0", "0", "2010", "0", "0", "0", "0", "0", "0", "0", "0", "0", "0", "0", "0", "2011", "0", "0", "0", "0", "0", "0", "0", "0", "0", "0", "0", "0", "2012", "0", "0", "0", "0", "0", "0", "0", "0", "0", "0", "0", "0", "2013", "0", "0", "0", "0", "0", "0", "0", "2014", "0", "0", "0", "0", "0", "0", "0", "2015", "0", "0", "0", "0", "0", "0", "0", "0", "0", "0", "0", "0", "0", "0", "0", "0", "0", "2016", "0", "0", "0", "0", "0", "0", "0", "0", "0", "2017", "0", "0", "0", "0", "0", "0", "0", "0", "0", "0", "0", "0", "0", "2018", "0", "0", "0", "0", "0", "0", "0", "0", "0", "0", "0", "2019", "0", "0", "0", "0"], "x_labels_major": ["2008", "2009", "2010", "2011", "2012", "2013", "2014", "2015", "2016", "2017", "2018", "2019"], "x_labels_major_count": null, "x_labels_major_every": null, "x_title": null, "xrange": null, "y_label_rotation": 0, "y_labels": null, "y_labels_major": null, "y_labels_major_count": null, "y_labels_major_every": null, "y_title": null, "zero": 80.0, "legends": ["Future Average", "Past Average", "Career Average"]}</script><script type="text/javascript" xlink:href="https://kozea.github.io/pygal.js/2.0.x/pygal-tooltips.min.js"/></defs><title>TG Southee: Future and Past Averages in ODIs</title><g class="graph line-graph vertical"><rect class="background" height="600" width="800" x="0" y="0"/><g class="plot" transform="translate(42, 46)"><rect class="background" height="462.02943725152284" width="738.0" x="0" y="0"/><g class="axis y always_show"><g class="guides"><path class="axis major line" d="M0.000000 453.144256 h738.000000"/><text class="major" x="-5" y="456.6442557659166">0</text><title>0</title></g><g class="guides"><path class="guide line" d="M0.000000 389.678674 h738.000000"/><text class="" x="-5" y="393.1786737258723">10</text><title>10</title></g><g class="guides"><path class="guide line" d="M0.000000 326.213092 h738.000000"/><text class="" x="-5" y="329.713091685828">20</text><title>20</title></g><g class="guides"><path class="guide line" d="M0.000000 262.747510 h738.000000"/><text class="" x="-5" y="266.2475096457837">30</text><title>30</title></g><g class="guides"><path class="guide line" d="M0.000000 199.281928 h738.000000"/><text class="" x="-5" y="202.78192760573927">40</text><title>40</title></g><g class="guides"><path class="major guide line" d="M0.000000 135.816346 h738.000000"/><text class="major" x="-5" y="139.31634556569497">50</text><title>50</title></g><g class="guides"><path class="guide line" d="M0.000000 72.350764 h738.000000"/><text class="" x="-5" y="75.85076352565062">60</text><title>60</title></g><g class="guides"><path class="guide line" d="M0.000000 8.885181 h738.000000"/><text class="" x="-5" y="12.38518148560621">70</text><title>70</title></g></g><g class="axis x"><g class="guides"><path class="major line" d="M14.192308 0.000000 v462.029437"/><text class="major" x="14.192307692307692" y="477.02943725152284" transform="rotate(45 14.192308 477.029437)">2008</text></g><g class="guides"><path class="major guide line" d="M71.168725 0.000000 v462.029437"/><text class="major" x="71.16872543514879" y="477.02943725152284" transform="rotate(45 71.168725 477.029437)">2009</text></g><g class="guides"><path class="major guide line" d="M138.504492 0.000000 v462.029437"/><text class="major" x="138.50449185850644" y="477.02943725152284" transform="rotate(45 138.504492 477.029437)">2010</text></g><g class="guides"><path class="major guide line" d="M205.840258 0.000000 v462.029437"/><text class="major" x="205.84025828186412" y="477.02943725152284" transform="rotate(45 205.840258 477.029437)">2011</text></g><g class="guides"><path class="major guide line" d="M273.176025 0.000000 v462.029437"/><text class="major" x="273.1760247052218" y="477.02943725152284" transform="rotate(45 273.176025 477.029437)">2012</text></g><g class="guides"><path class="major guide line" d="M340.511791 0.000000 v462.029437"/><text class="major" x="340.51179112857943" y="477.02943725152284" transform="rotate(45 340.511791 477.029437)">2013</text></g><g class="guides"><path class="major guide line" d="M381.949186 0.000000 v462.029437"/><text class="major" x="381.9491858506457" y="477.02943725152284" transform="rotate(45 381.949186 477.029437)">2014</text></g><g class="guides"><path class="major guide line" d="M423.386581 0.000000 v462.029437"/><text class="major" x="423.3865805727119" y="477.02943725152284" transform="rotate(45 423.386581 477.029437)">2015</text></g><g class="guides"><path class="major guide line" d="M516.620719 0.000000 v462.029437"/><text class="major" x="516.620718697361" y="477.02943725152284" transform="rotate(45 516.620719 477.029437)">2016</text></g><g class="guides"><path class="major guide line" d="M568.417462 0.000000 v462.029437"/><text class="major" x="568.4174620999439" y="477.02943725152284" transform="rotate(45 568.417462 477.029437)">2017</text></g><g class="guides"><path class="major guide line" d="M640.932903 0.000000 v462.029437"/><text class="major" x="640.9329028635599" y="477.02943725152284" transform="rotate(45 640.932903 477.029437)">2018</text></g><g class="guides"><path class="major guide line" d="M703.088995 0.000000 v462.029437"/><text class="major" x="703.0889949466592" y="477.02943725152284" transform="rotate(45 703.088995 477.029437)">2019</text></g></g><g class="series serie-0 color-0"><path class="line reactive nofill" d="M14.192308 235.711172 L19.371982 236.853552 24.551656 235.711172 29.731331 232.157099 34.911005 230.126200 40.090679 228.031836 45.270354 224.922023 50.450028 225.366282 55.629702 226.889456 60.809377 226.762525 65.989051 226.952921 71.168725 225.493213 76.348400 225.556679 81.528074 224.160436 86.707748 224.541229 91.887423 227.016387 97.067097 226.952921 102.246771 227.777974 107.426446 229.808873 112.606120 230.887787 117.785794 232.791755 122.965469 236.980483 128.145143 237.742070 133.324818 238.313261 138.504492 236.599690 143.684166 237.995933 148.863841 235.330378 154.043515 236.663155 159.223189 239.011382 164.402864 239.392175 169.582538 241.740402 174.762212 237.551674 179.941887 237.869001 185.121561 233.934135 190.301235 235.647706 195.480910 236.536224 200.660584 237.995933 205.840258 239.328710 211.019933 233.045617 216.199607 233.489876 221.379281 232.918686 226.558956 236.218896 231.738630 238.440192 236.918304 234.187998 242.097979 234.695722 247.277653 230.951253 252.457327 226.889456 257.637002 226.889456 262.816676 224.541229 267.996350 224.985488 273.176025 222.193003 278.355699 223.652711 283.535373 224.477764 288.715048 226.000938 293.894722 229.428079 299.074396 231.458978 304.254071 228.603027 309.433745 227.397180 314.613419 224.223901 319.793094 219.844776 324.972768 220.796760 330.152442 221.621812 335.332117 221.367950 340.511791 215.529117 345.691465 216.544566 350.871140 212.292372 356.050814 207.024729 361.230488 211.467319 366.410163 213.244356 371.589837 215.021392 376.769512 209.436421 381.949186 212.609700 387.128860 214.132874 392.308535 218.702396 397.488209 219.083189 402.667883 213.434752 407.847558 216.163772 413.027232 213.180890 418.206906 211.086526 423.386581 213.434752 428.566255 208.865230 433.745929 205.882348 438.925604 203.407190 444.105278 200.995498 449.284952 197.631822 454.464627 193.252697 459.644301 165.962497 464.823975 163.106546 470.003650 167.866464 475.183324 173.578367 480.362998 172.880245 485.542673 179.226804 490.722347 186.715742 495.902021 194.522009 501.081696 185.002172 506.261370 188.429313 511.441044 191.919920 516.620719 197.441426 521.800393 204.486105 526.980067 195.854786 532.159742 197.822219 537.339416 186.144552 542.519090 194.204681 547.698765 191.412195 552.878439 198.203013 558.058113 195.473993 563.237788 187.413864 568.417462 187.985054 573.597136 191.729523 578.776811 198.583806 583.956485 192.364179 589.136159 195.981717 594.315834 201.058964 599.495508 207.278591 604.675182 215.465651 609.854857 218.511999 615.034531 211.975044 620.214206 195.156665 625.393880 181.638496 630.573554 186.588811 635.753229 180.876909 640.932903 196.425976 646.112577 159.362077 651.292252 144.257268 656.471926 152.317397 661.651600 100.402551 666.831275 124.709869 672.010949 149.588377 677.190623 178.655613 682.370298 181.384633 687.549972 209.436421 692.729646 222.129537 697.909321 218.321602 703.088995 252.148757 708.268669 281.025597 713.448344 298.097839 718.628018 330.719148 723.807692 8.885181"/></g><g class="series serie-1 color-1"><path class="line reactive nofill" d="M14.192308 453.144256 L19.371982 21.578298 24.551656 235.266913 29.731331 325.324574 34.911005 333.828962 40.090679 337.446500 45.270354 350.393478 50.450028 345.633560 55.629702 329.386371 60.809377 324.372590 65.989051 317.391376 71.168725 320.501189 76.348400 315.360477 81.528074 317.391376 86.707748 314.598890 91.887423 297.209321 97.067097 294.734163 102.246771 286.610568 107.426446 273.409727 112.606120 265.413064 117.785794 253.481535 122.965469 227.841440 128.145143 223.462314 133.324818 220.796760 138.504492 230.824322 143.684166 223.589246 148.863841 237.361277 154.043515 231.395512 159.223189 220.733294 164.402864 219.590914 169.582538 209.626817 174.762212 228.729958 179.941887 227.841440 185.121561 241.232677 190.301235 235.901568 195.480910 233.045617 200.660584 228.285699 205.840258 224.223901 211.019933 242.946248 216.199607 241.676936 221.379281 242.882782 226.558956 234.314929 231.738630 228.603027 236.918304 239.328710 242.097979 238.059398 247.277653 245.865665 252.457327 253.354604 257.637002 252.846879 262.816676 255.893227 267.996350 254.687381 273.176025 258.051057 278.355699 255.575899 283.535373 253.925794 288.715048 251.006377 293.894722 245.675268 299.074396 242.375058 304.254071 246.182993 309.433745 247.706167 314.613419 251.260239 319.793094 255.766296 324.972768 254.560450 330.152442 253.100741 335.332117 253.100741 340.511791 258.685712 345.691465 256.972142 350.871140 260.081955 356.050814 263.762959 361.230488 259.383834 366.410163 257.670263 371.589837 255.956692 376.769512 259.828093 381.949186 256.845211 387.128860 255.512433 392.308535 251.323705 397.488209 250.562118 402.667883 254.052725 407.847558 251.387170 413.027232 253.100741 418.206906 253.862328 423.386581 252.148757 428.566255 254.179656 433.745929 255.385502 438.925604 256.083624 444.105278 256.591348 449.284952 257.606798 454.464627 259.066506 459.644301 268.078619 464.823975 267.761291 470.003650 265.666926 475.183324 263.128303 480.362998 262.049388 485.542673 259.383834 490.722347 256.274020 495.902021 252.973810 501.081696 255.385502 506.261370 253.545000 511.441044 252.212223 516.620719 250.117859 521.800393 247.452304 526.980067 249.546669 532.159742 248.531219 537.339416 251.006377 542.519090 248.531219 547.698765 248.594685 552.878439 246.627252 558.058113 246.690717 563.237788 248.086960 568.417462 247.515770 573.597136 246.246458 578.776811 244.596353 583.956485 245.357940 589.136159 244.215560 594.315834 242.882782 599.495508 241.359608 604.675182 239.709503 609.854857 239.138313 615.034531 240.090297 620.214206 242.311592 625.393880 243.327042 630.573554 242.248127 635.753229 242.311592 640.932903 240.407625 646.112577 243.390507 651.292252 243.707835 656.471926 243.009714 661.651600 245.040612 666.831275 243.327042 672.010949 241.613471 677.190623 239.646038 682.370298 239.074848 687.549972 237.170880 692.729646 236.472759 697.909321 236.599690 703.088995 234.822654 708.268669 233.680273 713.448344 233.236014 718.628018 231.966702 723.807692 236.917018"/></g><g class="series serie-2 color-2"><path class="line reactive nofill" d="M14.192308 235.711172 L19.371982 235.711172 24.551656 235.711172 29.731331 235.711172 34.911005 235.711172 40.090679 235.711172 45.270354 235.711172 50.450028 235.711172 55.629702 235.711172 60.809377 235.711172 65.989051 235.711172 71.168725 235.711172 76.348400 235.711172 81.528074 235.711172 86.707748 235.711172 91.887423 235.711172 97.067097 235.711172 102.246771 235.711172 107.426446 235.711172 112.606120 235.711172 117.785794 235.711172 122.965469 235.711172 128.145143 235.711172 133.324818 235.711172 138.504492 235.711172 143.684166 235.711172 148.863841 235.711172 154.043515 235.711172 159.223189 235.711172 164.402864 235.711172 169.582538 235.711172 174.762212 235.711172 179.941887 235.711172 185.121561 235.711172 190.301235 235.711172 195.480910 235.711172 200.660584 235.711172 205.840258 235.711172 211.019933 235.711172 216.199607 235.711172 221.379281 235.711172 226.558956 235.711172 231.738630 235.711172 236.918304 235.711172 242.097979 235.711172 247.277653 235.711172 252.457327 235.711172 257.637002 235.711172 262.816676 235.711172 267.996350 235.711172 273.176025 235.711172 278.355699 235.711172 283.535373 235.711172 288.715048 235.711172 293.894722 235.711172 299.074396 235.711172 304.254071 235.711172 309.433745 235.711172 314.613419 235.711172 319.793094 235.711172 324.972768 235.711172 330.152442 235.711172 335.332117 235.711172 340.511791 235.711172 345.691465 235.711172 350.871140 235.711172 356.050814 235.711172 361.230488 235.711172 366.410163 235.711172 371.589837 235.711172 376.769512 235.711172 381.949186 235.711172 387.128860 235.711172 392.308535 235.711172 397.488209 235.711172 402.667883 235.711172 407.847558 235.711172 413.027232 235.711172 418.206906 235.711172 423.386581 235.711172 428.566255 235.711172 433.745929 235.711172 438.925604 235.711172 444.105278 235.711172 449.284952 235.711172 454.464627 235.711172 459.644301 235.711172 464.823975 235.711172 470.003650 235.711172 475.183324 235.711172 480.362998 235.711172 485.542673 235.711172 490.722347 235.711172 495.902021 235.711172 501.081696 235.711172 506.261370 235.711172 511.441044 235.711172 516.620719 235.711172 521.800393 235.711172 526.980067 235.711172 532.159742 235.711172 537.339416 235.711172 542.519090 235.711172 547.698765 235.711172 552.878439 235.711172 558.058113 235.711172 563.237788 235.711172 568.417462 235.711172 573.597136 235.711172 578.776811 235.711172 583.956485 235.711172 589.136159 235.711172 594.315834 235.711172 599.495508 235.711172 604.675182 235.711172 609.854857 235.711172 615.034531 235.711172 620.214206 235.711172 625.393880 235.711172 630.573554 235.711172 635.753229 235.711172 640.932903 235.711172 646.112577 235.711172 651.292252 235.711172 656.471926 235.711172 661.651600 235.711172 666.831275 235.711172 672.010949 235.711172 677.190623 235.711172 682.370298 235.711172 687.549972 235.711172 692.729646 235.711172 697.909321 235.711172 703.088995 235.711172 708.268669 235.711172 713.448344 235.711172 718.628018 235.711172 723.807692 235.711172"/></g></g><g class="titles"><text class="title plot_title" x="400.0" y="26">TG Southee: Future and Past Averages in ODIs</text></g><g class="plot overlay" transform="translate(42, 46)"><g class="series serie-0 color-0"><g class="dots"><desc class="label">186 wickets in 138 innings (1170.1 overs)</desc><circle class="dot reactive tooltip-trigger" cx="14.192307692307692" cy="235.71117169672476" r="2.5"/><desc class="value">34.26</desc><desc class="x top">14.192307692307692</desc><desc class="y top">235.71117169672476</desc><desc class="x_label">2008</desc></g><g class="dots"><desc class="label">166 wickets in 127 innings (1080.3 overs)</desc><circle class="dot reactive tooltip-trigger" cx="71.16872543514879" cy="225.4932129882776" r="2.5"/><desc class="value">35.87</desc><desc class="x ">71.16872543514879</desc><desc class="y ">225.4932129882776</desc><desc class="x_label">2009</desc></g><g class="dots"><desc class="label">156 wickets in 114 innings (971.1 overs)</desc><circle class="dot reactive tooltip-trigger" cx="138.50449185850644" cy="236.5996898452854" r="2.5"/><desc class="value">34.12</desc><desc class="x top">138.50449185850644</desc><desc class="y top">236.5996898452854</desc><desc class="x_label">2010</desc></g><g class="dots"><desc class="label">141 wickets in 101 innings (871.0 overs)</desc><circle class="dot reactive tooltip-trigger" cx="205.84025828186412" cy="239.32870987300728" r="2.5"/><desc class="value">33.69</desc><desc class="x top">205.84025828186412</desc><desc class="y top">239.32870987300728</desc><desc class="x_label">2011</desc></g><g class="dots"><desc class="label">116 wickets in 88 innings (759.1 overs)</desc><circle class="dot reactive tooltip-trigger" cx="273.1760247052218" cy="222.1930027221953" r="2.5"/><desc class="value">36.39</desc><desc class="x ">273.1760247052218</desc><desc class="y ">222.1930027221953</desc><desc class="x_label">2012</desc></g><g class="dots"><desc class="label">99 wickets in 75 innings (656.5 overs)</desc><circle class="dot reactive tooltip-trigger" cx="340.51179112857943" cy="215.52911660799066" r="2.5"/><desc class="value">37.44</desc><desc class="x ">340.51179112857943</desc><desc class="y ">215.52911660799066</desc><desc class="x_label">2013</desc></g><g class="dots"><desc class="label">89 wickets in 67 innings (587.5 overs)</desc><circle class="dot reactive tooltip-trigger" cx="381.9491858506457" cy="212.6096998341486" r="2.5"/><desc class="value">37.9</desc><desc class="x left">381.9491858506457</desc><desc class="y left">212.6096998341486</desc><desc class="x_label">2014</desc></g><g class="dots"><desc class="label">79 wickets in 59 innings (516.3 overs)</desc><circle class="dot reactive tooltip-trigger" cx="423.3865805727119" cy="213.43475240066917" r="2.5"/><desc class="value">37.77</desc><desc class="x left">423.3865805727119</desc><desc class="y left">213.43475240066917</desc><desc class="x_label">2015</desc></g><g class="dots"><desc class="label">51 wickets in 41 innings (362.3 overs)</desc><circle class="dot reactive tooltip-trigger" cx="516.620718697361" cy="197.44142572657802" r="2.5"/><desc class="value">40.29</desc><desc class="x left">516.620718697361</desc><desc class="y left">197.44142572657802</desc><desc class="x_label">2016</desc></g><g class="dots"><desc class="label">37 wickets in 31 innings (266.1 overs)</desc><circle class="dot reactive tooltip-trigger" cx="568.4174620999439" cy="187.98505400261138" r="2.5"/><desc class="value">41.78</desc><desc class="x left">568.4174620999439</desc><desc class="y left">187.98505400261138</desc><desc class="x_label">2017</desc></g><g class="dots"><desc class="label">20 wickets in 17 innings (140.5 overs)</desc><circle class="dot reactive tooltip-trigger" cx="640.9329028635599" cy="196.4259764139373" r="2.5"/><desc class="value">40.45</desc><desc class="x left">640.9329028635599</desc><desc class="y left">196.4259764139373</desc><desc class="x_label">2018</desc></g><g class="dots"><desc class="label">9 wickets in 5 innings (40.1 overs)</desc><circle class="dot reactive tooltip-trigger" cx="703.0889949466592" cy="252.14875744509624" r="2.5"/><desc class="value">31.67</desc><desc class="x left top">703.0889949466592</desc><desc class="y left top">252.14875744509624</desc><desc class="x_label">2019</desc></g></g><g class="series serie-1 color-1"><g class="dots"><desc class="label">0 wickets over 0 innings</desc><circle class="dot reactive tooltip-trigger" cx="14.192307692307692" cy="453.1442557659166" r="2.5"/><desc class="value">0</desc><desc class="x top">14.192307692307692</desc><desc class="y top">453.1442557659166</desc><desc class="x_label">2008</desc></g><g class="dots"><desc class="label">20 wickets in 11 innings (89.4 overs)</desc><circle class="dot reactive tooltip-trigger" cx="71.16872543514879" cy="320.501189302224" r="2.5"/><desc class="value">20.9</desc><desc class="x top">71.16872543514879</desc><desc class="y top">320.501189302224</desc><desc class="x_label">2009</desc></g><g class="dots"><desc class="label">30 wickets in 24 innings (199.0 overs)</desc><circle class="dot reactive tooltip-trigger" cx="138.50449185850644" cy="230.8243218796413" r="2.5"/><desc class="value">35.03</desc><desc class="x ">138.50449185850644</desc><desc class="y ">230.8243218796413</desc><desc class="x_label">2010</desc></g><g class="dots"><desc class="label">45 wickets in 37 innings (299.1 overs)</desc><circle class="dot reactive tooltip-trigger" cx="205.84025828186412" cy="224.2239013474767" r="2.5"/><desc class="value">36.07</desc><desc class="x ">205.84025828186412</desc><desc class="y ">224.2239013474767</desc><desc class="x_label">2011</desc></g><g class="dots"><desc class="label">70 wickets in 50 innings (411.0 overs)</desc><circle class="dot reactive tooltip-trigger" cx="273.1760247052218" cy="258.05105657482034" r="2.5"/><desc class="value">30.74</desc><desc class="x top">273.1760247052218</desc><desc class="y top">258.05105657482034</desc><desc class="x_label">2012</desc></g><g class="dots"><desc class="label">87 wickets in 63 innings (513.2 overs)</desc><circle class="dot reactive tooltip-trigger" cx="340.51179112857943" cy="258.6857123952208" r="2.5"/><desc class="value">30.64</desc><desc class="x top">340.51179112857943</desc><desc class="y top">258.6857123952208</desc><desc class="x_label">2013</desc></g><g class="dots"><desc class="label">97 wickets in 71 innings (582.2 overs)</desc><circle class="dot reactive tooltip-trigger" cx="381.9491858506457" cy="256.8452105160595" r="2.5"/><desc class="value">30.93</desc><desc class="x left top">381.9491858506457</desc><desc class="y left top">256.8452105160595</desc><desc class="x_label">2014</desc></g><g class="dots"><desc class="label">107 wickets in 79 innings (653.4 overs)</desc><circle class="dot reactive tooltip-trigger" cx="423.3865805727119" cy="252.14875744509624" r="2.5"/><desc class="value">31.67</desc><desc class="x left top">423.3865805727119</desc><desc class="y left top">252.14875744509624</desc><desc class="x_label">2015</desc></g><g class="dots"><desc class="label">135 wickets in 97 innings (807.4 overs)</desc><circle class="dot reactive tooltip-trigger" cx="516.620718697361" cy="250.11785881981478" r="2.5"/><desc class="value">31.99</desc><desc class="x left top">516.620718697361</desc><desc class="y left top">250.11785881981478</desc><desc class="x_label">2016</desc></g><g class="dots"><desc class="label">149 wickets in 107 innings (904.0 overs)</desc><circle class="dot reactive tooltip-trigger" cx="568.4174620999439" cy="247.51576995617302" r="2.5"/><desc class="value">32.4</desc><desc class="x left top">568.4174620999439</desc><desc class="y left top">247.51576995617302</desc><desc class="x_label">2017</desc></g><g class="dots"><desc class="label">166 wickets in 121 innings (1029.2 overs)</desc><circle class="dot reactive tooltip-trigger" cx="640.9329028635599" cy="240.40762476768802" r="2.5"/><desc class="value">33.52</desc><desc class="x left top">640.9329028635599</desc><desc class="y left top">240.40762476768802</desc><desc class="x_label">2018</desc></g><g class="dots"><desc class="label">177 wickets in 133 innings (1130.0 overs)</desc><circle class="dot reactive tooltip-trigger" cx="703.0889949466592" cy="234.82265354816414" r="2.5"/><desc class="value">34.4</desc><desc class="x left top">703.0889949466592</desc><desc class="y left top">234.82265354816414</desc><desc class="x_label">2019</desc></g></g><g class="series serie-2 color-2"/></g><g class="plot text-overlay" transform="translate(42, 46)"><g class="series serie-0 color-0"/><g class="series serie-1 color-1"/><g class="series serie-2 color-2"/></g><g class="plot tooltip-overlay" transform="translate(42, 46)"><g class="tooltip" style="opacity: 0" transform="translate(0 0)"><rect class="tooltip-box" height="0" rx="10" ry="10" width="0"/><g class="text"/></g></g><g class="legends" transform="translate(52, 545)"><g class="legend reactive activate-serie" id="activate-serie-0"><rect class="color-0 reactive" height="12" width="12" x="0.0" y="1.0"/><text x="17.0" y="11.2">Future Average</text></g><g class="legend reactive activate-serie" id="activate-serie-1"><rect class="color-1 reactive" height="12" width="12" x="369.0" y="1.0"/><text x="386.0" y="11.2">Past Average</text></g><g class="legend reactive activate-serie" id="activate-serie-2"><rect class="color-2 reactive" height="12" width="12" x="0.0" y="22.0"/><text x="17.0" y="32.2">Career Average</text></g></g></g></svg>