<?xml version='1.0' encoding='utf-8'?>
<svg xmlns:xlink="http://www.w3.org/1999/xlink" xmlns="http://www.w3.org/2000/svg" id="chart-8d561bb6-a82f-4b31-bcec-e5827f35957a" class="pygal-chart" viewBox="0 0 800 600"><!--Generated with pygal 2.4.0 (lxml) ©Kozea 2012-2016 on 2019-08-04--><!--http://pygal.org--><!--http://github.com/Kozea/pygal--><defs><style type="text/css">#chart-8d561bb6-a82f-4b31-bcec-e5827f35957a{-webkit-user-select:none;-webkit-font-smoothing:antialiased;font-family:Consolas,"Liberation Mono",Menlo,Courier,monospace}#chart-8d561bb6-a82f-4b31-bcec-e5827f35957a .title{font-family:Consolas,"Liberation Mono",Menlo,Courier,monospace;font-size:16px}#chart-8d561bb6-a82f-4b31-bcec-e5827f35957a .legends .legend text{font-family:Consolas,"Liberation Mono",Menlo,Courier,monospace;font-size:14px}#chart-8d561bb6-a82f-4b31-bcec-e5827f35957a .axis text{font-family:Consolas,"Liberation Mono",Menlo,Courier,monospace;font-size:10px}#chart-8d561bb6-a82f-4b31-bcec-e5827f35957a .axis text.major{font-family:Consolas,"Liberation Mono",Menlo,Courier,monospace;font-size:10px}#chart-8d561bb6-a82f-4b31-bcec-e5827f35957a .text-overlay text.value{font-family:Consolas,"Liberation Mono",Menlo,Courier,monospace;font-size:16px}#chart-8d561bb6-a82f-4b31-bcec-e5827f35957a .text-overlay text.label{font-family:Consolas,"Liberation Mono",Menlo,Courier,monospace;font-size:10px}#chart-8d561bb6-a82f-4b31-bcec-e5827f35957a .tooltip{font-family:Consolas,"Liberation Mono",Menlo,Courier,monospace;font-size:14px}#chart-8d561bb6-a82f-4b31-bcec-e5827f35957a text.no_data{font-family:Consolas,"Liberation Mono",Menlo,Courier,monospace;font-size:64px}
#chart-8d561bb6-a82f-4b31-bcec-e5827f35957a{background-color:rgba(249,249,249,1)}#chart-8d561bb6-a82f-4b31-bcec-e5827f35957a path,#chart-8d561bb6-a82f-4b31-bcec-e5827f35957a line,#chart-8d561bb6-a82f-4b31-bcec-e5827f35957a rect,#chart-8d561bb6-a82f-4b31-bcec-e5827f35957a circle{-webkit-transition:150ms;-moz-transition:150ms;transition:150ms}#chart-8d561bb6-a82f-4b31-bcec-e5827f35957a .graph &gt; .background{fill:rgba(249,249,249,1)}#chart-8d561bb6-a82f-4b31-bcec-e5827f35957a .plot &gt; .background{fill:rgba(255,255,255,1)}#chart-8d561bb6-a82f-4b31-bcec-e5827f35957a .graph{fill:rgba(0,0,0,.87)}#chart-8d561bb6-a82f-4b31-bcec-e5827f35957a text.no_data{fill:rgba(0,0,0,1)}#chart-8d561bb6-a82f-4b31-bcec-e5827f35957a .title{fill:rgba(0,0,0,1)}#chart-8d561bb6-a82f-4b31-bcec-e5827f35957a .legends .legend text{fill:rgba(0,0,0,.87)}#chart-8d561bb6-a82f-4b31-bcec-e5827f35957a .legends .legend:hover text{fill:rgba(0,0,0,1)}#chart-8d561bb6-a82f-4b31-bcec-e5827f35957a .axis .line{stroke:rgba(0,0,0,1)}#chart-8d561bb6-a82f-4b31-bcec-e5827f35957a .axis .guide.line{stroke:rgba(0,0,0,.54)}#chart-8d561bb6-a82f-4b31-bcec-e5827f35957a .axis .major.line{stroke:rgba(0,0,0,.87)}#chart-8d561bb6-a82f-4b31-bcec-e5827f35957a .axis text.major{fill:rgba(0,0,0,1)}#chart-8d561bb6-a82f-4b31-bcec-e5827f35957a .axis.y .guides:hover .guide.line,#chart-8d561bb6-a82f-4b31-bcec-e5827f35957a .line-graph .axis.x .guides:hover .guide.line,#chart-8d561bb6-a82f-4b31-bcec-e5827f35957a .stackedline-graph .axis.x .guides:hover .guide.line,#chart-8d561bb6-a82f-4b31-bcec-e5827f35957a .xy-graph .axis.x .guides:hover .guide.line{stroke:rgba(0,0,0,1)}#chart-8d561bb6-a82f-4b31-bcec-e5827f35957a .axis .guides:hover text{fill:rgba(0,0,0,1)}#chart-8d561bb6-a82f-4b31-bcec-e5827f35957a .reactive{fill-opacity:.7;stroke-opacity:.8}#chart-8d561bb6-a82f-4b31-bcec-e5827f35957a .ci{stroke:rgba(0,0,0,.87)}#chart-8d561bb6-a82f-4b31-bcec-e5827f35957a .reactive.active,#chart-8d561bb6-a82f-4b31-bcec-e5827f35957a .active .reactive{fill-opacity:.8;stroke-opacity:.9;stroke-width:4}#chart-8d561bb6-a82f-4b31-bcec-e5827f35957a .ci .reactive.active{stroke-width:1.5}#chart-8d561bb6-a82f-4b31-bcec-e5827f35957a .series text{fill:rgba(0,0,0,1)}#chart-8d561bb6-a82f-4b31-bcec-e5827f35957a .tooltip rect{fill:rgba(255,255,255,1);stroke:rgba(0,0,0,1);-webkit-transition:opacity 150ms;-moz-transition:opacity 150ms;transition:opacity 150ms}#chart-8d561bb6-a82f-4b31-bcec-e5827f35957a .tooltip .label{fill:rgba(0,0,0,.87)}#chart-8d561bb6-a82f-4b31-bcec-e5827f35957a .tooltip .label{fill:rgba(0,0,0,.87)}#chart-8d561bb6-a82f-4b31-bcec-e5827f35957a .tooltip .legend{font-size:.8em;fill:rgba(0,0,0,.54)}#chart-8d561bb6-a82f-4b31-bcec-e5827f35957a .tooltip .x_label{font-size:.6em;fill:rgba(0,0,0,1)}#chart-8d561bb6-a82f-4b31-bcec-e5827f35957a .tooltip .xlink{font-size:.5em;text-decoration:underline}#chart-8d561bb6-a82f-4b31-bcec-e5827f35957a .tooltip .value{font-size:1.5em}#chart-8d561bb6-a82f-4b31-bcec-e5827f35957a .bound{font-size:.5em}#chart-8d561bb6-a82f-4b31-bcec-e5827f35957a .max-value{font-size:.75em;fill:rgba(0,0,0,.54)}#chart-8d561bb6-a82f-4b31-bcec-e5827f35957a .map-element{fill:rgba(255,255,255,1);stroke:rgba(0,0,0,.54) !important}#chart-8d561bb6-a82f-4b31-bcec-e5827f35957a .map-element .reactive{fill-opacity:inherit;stroke-opacity:inherit}#chart-8d561bb6-a82f-4b31-bcec-e5827f35957a .color-0,#chart-8d561bb6-a82f-4b31-bcec-e5827f35957a .color-0 a:visited{stroke:red;fill:red}#chart-8d561bb6-a82f-4b31-bcec-e5827f35957a .color-1,#chart-8d561bb6-a82f-4b31-bcec-e5827f35957a .color-1 a:visited{stroke:blue;fill:blue}#chart-8d561bb6-a82f-4b31-bcec-e5827f35957a .color-2,#chart-8d561bb6-a82f-4b31-bcec-e5827f35957a .color-2 a:visited{stroke:green;fill:green}#chart-8d561bb6-a82f-4b31-bcec-e5827f35957a .text-overlay .color-0 text{fill:white}#chart-8d561bb6-a82f-4b31-bcec-e5827f35957a .text-overlay .color-1 text{fill:white}#chart-8d561bb6-a82f-4b31-bcec-e5827f35957a .text-overlay .color-2 text{fill:white}
#chart-8d561bb6-a82f-4b31-bcec-e5827f35957a text.no_data{text-anchor:middle}#chart-8d561bb6-a82f-4b31-bcec-e5827f35957a .guide.line{fill:none}#chart-8d561bb6-a82f-4b31-bcec-e5827f35957a .centered{text-anchor:middle}#chart-8d561bb6-a82f-4b31-bcec-e5827f35957a .title{text-anchor:middle}#chart-8d561bb6-a82f-4b31-bcec-e5827f35957a .legends .legend text{fill-opacity:1}#chart-8d561bb6-a82f-4b31-bcec-e5827f35957a .axis.x text{text-anchor:middle}#chart-8d561bb6-a82f-4b31-bcec-e5827f35957a .axis.x:not(.web) text[transform]{text-anchor:start}#chart-8d561bb6-a82f-4b31-bcec-e5827f35957a .axis.x:not(.web) text[transform].backwards{text-anchor:end}#chart-8d561bb6-a82f-4b31-bcec-e5827f35957a .axis.y text{text-anchor:end}#chart-8d561bb6-a82f-4b31-bcec-e5827f35957a .axis.y text[transform].backwards{text-anchor:start}#chart-8d561bb6-a82f-4b31-bcec-e5827f35957a .axis.y2 text{text-anchor:start}#chart-8d561bb6-a82f-4b31-bcec-e5827f35957a .axis.y2 text[transform].backwards{text-anchor:end}#chart-8d561bb6-a82f-4b31-bcec-e5827f35957a .axis .guide.line{stroke-dasharray:4,4}#chart-8d561bb6-a82f-4b31-bcec-e5827f35957a .axis .major.guide.line{stroke-dasharray:6,6}#chart-8d561bb6-a82f-4b31-bcec-e5827f35957a .horizontal .axis.y .guide.line,#chart-8d561bb6-a82f-4b31-bcec-e5827f35957a .horizontal .axis.y2 .guide.line,#chart-8d561bb6-a82f-4b31-bcec-e5827f35957a .vertical .axis.x .guide.line{opacity:0}#chart-8d561bb6-a82f-4b31-bcec-e5827f35957a .horizontal .axis.always_show .guide.line,#chart-8d561bb6-a82f-4b31-bcec-e5827f35957a .vertical .axis.always_show .guide.line{opacity:1 !important}#chart-8d561bb6-a82f-4b31-bcec-e5827f35957a .axis.y .guides:hover .guide.line,#chart-8d561bb6-a82f-4b31-bcec-e5827f35957a .axis.y2 .guides:hover .guide.line,#chart-8d561bb6-a82f-4b31-bcec-e5827f35957a .axis.x .guides:hover .guide.line{opacity:1}#chart-8d561bb6-a82f-4b31-bcec-e5827f35957a .axis .guides:hover text{opacity:1}#chart-8d561bb6-a82f-4b31-bcec-e5827f35957a .nofill{fill:none}#chart-8d561bb6-a82f-4b31-bcec-e5827f35957a .subtle-fill{fill-opacity:.2}#chart-8d561bb6-a82f-4b31-bcec-e5827f35957a .dot{stroke-width:1px;fill-opacity:1}#chart-8d561bb6-a82f-4b31-bcec-e5827f35957a .dot.active{stroke-width:5px}#chart-8d561bb6-a82f-4b31-bcec-e5827f35957a .dot.negative{fill:transparent}#chart-8d561bb6-a82f-4b31-bcec-e5827f35957a text,#chart-8d561bb6-a82f-4b31-bcec-e5827f35957a tspan{stroke:none !important}#chart-8d561bb6-a82f-4b31-bcec-e5827f35957a .series text.active{opacity:1}#chart-8d561bb6-a82f-4b31-bcec-e5827f35957a .tooltip rect{fill-opacity:.95;stroke-width:.5}#chart-8d561bb6-a82f-4b31-bcec-e5827f35957a .tooltip text{fill-opacity:1}#chart-8d561bb6-a82f-4b31-bcec-e5827f35957a .showable{visibility:hidden}#chart-8d561bb6-a82f-4b31-bcec-e5827f35957a .showable.shown{visibility:visible}#chart-8d561bb6-a82f-4b31-bcec-e5827f35957a .gauge-background{fill:rgba(229,229,229,1);stroke:none}#chart-8d561bb6-a82f-4b31-bcec-e5827f35957a .bg-lines{stroke:rgba(249,249,249,1);stroke-width:2px}</style><script type="text/javascript">window.pygal = window.pygal || {};window.pygal.config = window.pygal.config || {};window.pygal.config['8d561bb6-a82f-4b31-bcec-e5827f35957a'] = {"allow_interruptions": false, "box_mode": "extremes", "classes": ["pygal-chart"], "css": ["file://style.css", "file://graph.css"], "defs": [], "disable_xml_declaration": false, "dots_size": 2.5, "dynamic_print_values": false, "explicit_size": false, "fill": false, "force_uri_protocol": "https", "formatter": null, "half_pie": false, "height": 600, "include_x_axis": false, "inner_radius": 0, "interpolate": null, "interpolation_parameters": {}, "interpolation_precision": 250, "inverse_y_axis": false, "js": ["//kozea.github.io/pygal.js/2.0.x/pygal-tooltips.min.js"], "legend_at_bottom": true, "legend_at_bottom_columns": null, "legend_box_size": 12, "logarithmic": false, "margin": 20, "margin_bottom": null, "margin_left": null, "margin_right": null, "margin_top": null, "max_scale": 16, "min_scale": 4, "missing_value_fill_truncation": "x", "no_data_text": "No data", "no_prefix": false, "order_min": null, "pretty_print": false, "print_labels": false, "print_values": false, "print_values_position": "center", "print_zeroes": true, "range": null, "rounded_bars": null, "secondary_range": null, "show_dots": true, "show_legend": true, "show_minor_x_labels": false, "show_minor_y_labels": true, "show_only_major_dots": false, "show_x_guides": false, "show_x_labels": true, "show_y_guides": true, "show_y_labels": true, "spacing": 10, "stack_from_top": false, "strict": false, "stroke": true, "stroke_style": null, "style": {"background": "rgba(249, 249, 249, 1)", "ci_colors": [], "colors": ["red", "blue", "green", "#a3a3a3"], "font_family": "Consolas, \"Liberation Mono\", Menlo, Courier, monospace", "foreground": "rgba(0, 0, 0, .87)", "foreground_strong": "rgba(0, 0, 0, 1)", "foreground_subtle": "rgba(0, 0, 0, .54)", "guide_stroke_dasharray": "4,4", "label_font_family": "Consolas, \"Liberation Mono\", Menlo, Courier, monospace", "label_font_size": 10, "legend_font_family": "Consolas, \"Liberation Mono\", Menlo, Courier, monospace", "legend_font_size": 14, "major_guide_stroke_dasharray": "6,6", "major_label_font_family": "Consolas, \"Liberation Mono\", Menlo, Courier, monospace", "major_label_font_size": 10, "no_data_font_family": "Consolas, \"Liberation Mono\", Menlo, Courier, monospace", "no_data_font_size": 64, "opacity": ".7", "opacity_hover": ".8", "plot_background": "rgba(255, 255, 255, 1)", "stroke_opacity": ".8", "stroke_opacity_hover": ".9", "title_font_family": "Consolas, \"Liberation Mono\", Menlo, Courier, monospace", "title_font_size": 16, "tooltip_font_family": "Consolas, \"Liberation Mono\", Menlo, Courier, monospace", "tooltip_font_size": 14, "transition": "150ms", "value_background": "rgba(229, 229, 229, 1)", "value_colors": [], "value_font_family": "Consolas, \"Liberation Mono\", Menlo, Courier, monospace", "value_font_size": 16, "value_label_font_family": "Consolas, \"Liberation Mono\", Menlo, Courier, monospace", "value_label_font_size": 10}, "title": "TM Dilshan: Future and Past Averages in ODIs", "tooltip_border_radius": 10, "tooltip_fancy_mode": true, "truncate_label": null, "truncate_legend": null, "width": 800, "x_label_rotation": 45, "x_labels": ["2003", "0", "0", "2004", "0", "0", "0", "0", "0", "0", "0", "0", "0", "0", "0", "0", "0", "0", "0", "0", "2005", "0", "0", "0", "0", "0", "0", "0", "0", "0", "0", "0", "0", "0", "0", "2006", "0", "0", "0", "0", "0", "0", "0", "0", "0", "0", "0", "0", "0", "0", "0", "0", "0", "0", "0", "0", "0", "0", "0", "0", "0", "2007", "0", "0", "0", "0", "0", "0", "0", "0", "0", "0", "0", "0", "0", "0", "0", "0", "0", "0", "0", "0", "0", "2008", "0", "0", "0", "0", "0", "2009", "0", "0", "0", "0", "0", "0", "0", "2010", "0", "0", "0", "0", "0", "0", "0", "2011", "0", "0", "0", "0", "0", "0", "0", "0", "0", "0", "0", "0", "0", "0", "0", "0", "0", "0", "0", "0", "2012", "0", "0", "0", "0", "0", "0", "0", "0", "0", "0", "0", "0", "0", "0", "0", "0", "0", "0", "2013", "0", "0", "0", "0", "0", "0", "0", "0", "0", "0", "0", "0", "0", "0", "0", "0", "2014", "0", "0", "0", "0", "0", "0", "0", "0", "0", "0", "0", "0", "0", "0", "0", "0", "0", "0", "2015", "0", "0", "0", "0", "0", "0", "0", "0", "0", "0", "0", "0", "0", "0", "0", "0", "0", "0", "2016", "0", "0", "0"], "x_labels_major": ["2003", "2004", "2005", "2006", "2007", "2008", "2009", "2010", "2011", "2012", "2013", "2014", "2015", "2016"], "x_labels_major_count": null, "x_labels_major_every": null, "x_title": null, "xrange": null, "y_label_rotation": 0, "y_labels": null, "y_labels_major": null, "y_labels_major_count": null, "y_labels_major_every": null, "y_title": null, "zero": 210.0, "legends": ["Future Average", "Past Average", "Career Average"]}</script><script type="text/javascript" xlink:href="https://kozea.github.io/pygal.js/2.0.x/pygal-tooltips.min.js"/></defs><title>TM Dilshan: Future and Past Averages in ODIs</title><g class="graph line-graph vertical"><rect class="background" height="600" width="800" x="0" y="0"/><g class="plot" transform="translate(48, 46)"><rect class="background" height="462.02943725152284" width="732.0" x="0" y="0"/><g class="axis y always_show"><g class="guides"><path class="axis major line" d="M0.000000 453.144256 h732.000000"/><text class="major" x="-5" y="456.6442557659166">0</text><title>0</title></g><g class="guides"><path class="guide line" d="M0.000000 408.718348 h732.000000"/><text class="" x="-5" y="412.2183483378856">20</text><title>20</title></g><g class="guides"><path class="guide line" d="M0.000000 364.292441 h732.000000"/><text class="" x="-5" y="367.7924409098546">40</text><title>40</title></g><g class="guides"><path class="guide line" d="M0.000000 319.866533 h732.000000"/><text class="" x="-5" y="323.36653348182347">60</text><title>60</title></g><g class="guides"><path class="guide line" d="M0.000000 275.440626 h732.000000"/><text class="" x="-5" y="278.94062605379247">80</text><title>80</title></g><g class="guides"><path class="major guide line" d="M0.000000 231.014719 h732.000000"/><text class="major" x="-5" y="234.51471862576142">100</text><title>100</title></g><g class="guides"><path class="guide line" d="M0.000000 186.588811 h732.000000"/><text class="" x="-5" y="190.08881119773037">120</text><title>120</title></g><g class="guides"><path class="guide line" d="M0.000000 142.162904 h732.000000"/><text class="" x="-5" y="145.66290376969937">140</text><title>140</title></g><g class="guides"><path class="guide line" d="M0.000000 97.736996 h732.000000"/><text class="" x="-5" y="101.23699634166832">160</text><title>160</title></g><g class="guides"><path class="guide line" d="M0.000000 53.311089 h732.000000"/><text class="" x="-5" y="56.81108891363726">180</text><title>180</title></g><g class="guides"><path class="major guide line" d="M0.000000 8.885181 h732.000000"/><text class="major" x="-5" y="12.38518148560621">200</text><title>200</title></g></g><g class="axis x"><g class="guides"><path class="major line" d="M14.076923 0.000000 v462.029437"/><text class="major" x="14.076923076923077" y="477.02943725152284" transform="rotate(45 14.076923 477.029437)">2003</text></g><g class="guides"><path class="major guide line" d="M24.478590 0.000000 v462.029437"/><text class="major" x="24.478590375142097" y="477.02943725152284" transform="rotate(45 24.478590 477.029437)">2004</text></g><g class="guides"><path class="major guide line" d="M83.421372 0.000000 v462.029437"/><text class="major" x="83.42137173171656" y="477.02943725152284" transform="rotate(45 83.421372 477.029437)">2005</text></g><g class="guides"><path class="major guide line" d="M135.429708 0.000000 v462.029437"/><text class="major" x="135.42970822281168" y="477.02943725152284" transform="rotate(45 135.429708 477.029437)">2006</text></g><g class="guides"><path class="major guide line" d="M225.577491 0.000000 v462.029437"/><text class="major" x="225.57749147404323" y="477.02943725152284" transform="rotate(45 225.577491 477.029437)">2007</text></g><g class="guides"><path class="major guide line" d="M301.856385 0.000000 v462.029437"/><text class="major" x="301.85638499431604" y="477.02943725152284" transform="rotate(45 301.856385 477.029437)">2008</text></g><g class="guides"><path class="major guide line" d="M322.659720 0.000000 v462.029437"/><text class="major" x="322.6597195907541" y="477.02943725152284" transform="rotate(45 322.659720 477.029437)">2009</text></g><g class="guides"><path class="major guide line" d="M350.397499 0.000000 v462.029437"/><text class="major" x="350.3974990526715" y="477.02943725152284" transform="rotate(45 350.397499 477.029437)">2010</text></g><g class="guides"><path class="major guide line" d="M378.135279 0.000000 v462.029437"/><text class="major" x="378.13527851458883" y="477.02943725152284" transform="rotate(45 378.135279 477.029437)">2011</text></g><g class="guides"><path class="major guide line" d="M450.946950 0.000000 v462.029437"/><text class="major" x="450.946949602122" y="477.02943725152284" transform="rotate(45 450.946950 477.029437)">2012</text></g><g class="guides"><path class="major guide line" d="M516.824176 0.000000 v462.029437"/><text class="major" x="516.8241758241758" y="477.02943725152284" transform="rotate(45 516.824176 477.029437)">2013</text></g><g class="guides"><path class="major guide line" d="M575.766957 0.000000 v462.029437"/><text class="major" x="575.7669571807503" y="477.02943725152284" transform="rotate(45 575.766957 477.029437)">2014</text></g><g class="guides"><path class="major guide line" d="M641.644183 0.000000 v462.029437"/><text class="major" x="641.6441834028042" y="477.02943725152284" transform="rotate(45 641.644183 477.029437)">2015</text></g><g class="guides"><path class="major guide line" d="M707.521410 0.000000 v462.029437"/><text class="major" x="707.5214096248578" y="477.02943725152284" transform="rotate(45 707.521410 477.029437)">2016</text></g></g><g class="series serie-0 color-0"><path class="line reactive nofill" d="M14.076923 353.008260 L17.544146 352.364085 21.011368 352.586214 24.478590 352.719492 27.945813 353.319242 31.413035 353.985630 34.880258 354.030056 38.347480 354.274399 41.814703 354.740871 45.281925 355.251769 48.749147 356.295778 52.216370 355.629389 55.683592 356.828888 59.150815 354.141121 62.618037 351.653270 66.085260 351.608844 69.552482 352.319659 73.019704 352.630640 76.486927 352.986047 79.954149 353.541371 83.421372 354.118908 86.888594 354.429889 90.355817 353.385881 93.823039 349.720743 97.290261 350.276067 100.757484 350.165002 104.224706 349.965086 107.691929 346.810846 111.159151 344.811681 114.626374 343.234561 118.093596 343.523329 121.560818 343.123496 125.028041 343.878736 128.495263 344.411847 131.962486 345.033810 135.429708 345.344791 138.896931 345.056023 142.364153 346.077819 145.831376 346.633143 149.298598 348.165837 152.765820 348.965503 156.233043 348.854438 159.700265 348.210262 163.167488 348.876651 166.634710 350.142789 170.101933 349.454188 173.569155 349.676317 177.036377 349.965086 180.503600 350.564836 183.970822 348.232475 187.438045 348.454605 190.905267 347.632726 194.372490 346.877485 197.839712 345.322578 201.306934 346.233310 204.774157 346.655356 208.241379 347.654939 211.708602 348.054772 215.175824 348.410179 218.643047 348.654521 222.110269 349.654104 225.577491 348.965503 229.044714 349.187632 232.511936 349.698530 235.979159 350.764752 239.446381 349.676317 242.913604 348.210262 246.380826 348.521244 249.848049 348.876651 253.315271 349.387549 256.782493 349.298697 260.249716 349.942873 263.716938 347.521661 267.184161 348.299114 270.651383 348.610096 274.118606 350.276067 277.585828 350.920243 281.053050 350.920243 284.520273 351.209011 287.987495 351.853187 291.454718 349.343123 294.921940 349.431975 298.389163 349.720743 301.856385 350.320493 305.323607 350.609261 308.790830 351.009095 312.258052 350.276067 315.725275 350.387132 319.192497 349.187632 322.659720 349.565253 326.126942 349.809595 329.594164 350.898030 333.061387 349.876234 336.528609 350.431558 339.995832 351.075733 343.463054 352.053103 346.930277 352.652853 350.397499 353.297029 353.864721 352.186381 357.331944 351.120159 360.799166 349.498614 364.266389 349.032142 367.733611 349.587466 371.200834 345.189301 374.668056 346.477652 378.135279 347.210680 381.602501 348.010346 385.069723 349.165419 388.536946 350.231641 392.004168 350.831391 395.471391 351.253437 398.938613 342.968005 402.405836 341.746293 405.873058 340.524580 409.340280 339.125164 412.807503 337.881239 416.274725 339.347294 419.741948 340.413516 423.209170 340.324664 426.676393 341.257608 430.143615 342.079487 433.610837 344.100866 437.078060 344.967171 440.545282 345.122662 444.012505 344.567338 447.479727 344.722829 450.946950 345.367004 454.414172 346.255522 457.881394 348.587883 461.348617 347.232892 464.815839 350.475984 468.283062 351.120159 471.750284 352.586214 475.217507 352.652853 478.684729 353.074899 482.151951 354.963000 485.619174 354.740871 489.086396 354.563167 492.553619 357.628555 496.020841 358.361582 499.488064 359.050184 502.955286 359.738785 506.422509 361.338118 509.889731 362.137784 513.356953 362.693108 516.824176 363.204006 520.291398 364.181376 523.758621 363.115154 527.225843 363.825969 530.693066 362.137784 534.160288 363.870395 537.627510 362.071146 541.094733 357.428638 544.561955 355.873731 548.029178 358.494860 551.496400 355.273982 554.963623 355.029639 558.430845 356.007009 561.898067 358.294943 565.365290 359.694359 568.832512 360.671729 572.299735 362.515405 575.766957 363.337284 579.234180 363.781543 582.701402 365.025468 586.168624 367.335616 589.635847 361.093776 593.103069 364.536783 596.570292 365.936199 600.037514 364.714487 603.504737 366.336033 606.971959 367.113486 610.439182 364.558996 613.906404 365.536366 617.373626 369.623550 620.840849 369.201504 624.308071 364.803339 627.775294 367.935365 631.242516 361.960081 634.709739 362.448766 638.176961 358.739202 641.644183 343.278987 645.111406 328.951632 648.578628 334.416018 652.045851 338.036730 655.513073 344.300783 658.980296 342.745876 662.447518 337.148211 665.914740 345.789050 669.381963 326.219438 672.849185 318.022858 676.316408 305.650243 679.783630 277.106598 683.250853 282.659836 686.718075 259.158531 690.185297 196.584640 693.652520 218.797594 697.119742 252.117025 700.586965 259.891558 704.054187 88.851815 707.521410 184.367516 710.988632 293.210989 714.455854 348.743373 717.923077 399.833167"/></g><g class="series serie-1 color-1"><path class="line reactive nofill" d="M14.076923 453.144256 L17.544146 422.046121 21.011368 397.611871 24.478590 384.284099 27.945813 322.087829 31.413035 251.006377 34.880258 246.563786 38.347480 222.129537 41.814703 173.261039 45.281925 117.728655 48.749147 8.885181 52.216370 217.686946 55.683592 154.380028 59.150815 334.304953 62.618037 367.757662 66.085260 366.513736 69.552482 359.627721 73.019704 356.740037 76.486927 353.408094 79.954149 348.076985 83.421372 342.523746 86.888594 339.413933 90.355817 349.742956 93.823039 373.022132 97.290261 369.623550 100.757484 369.001587 104.224706 369.001587 107.691929 379.730444 111.159151 384.395164 114.626374 386.416543 118.093596 385.483599 121.560818 385.083766 125.028041 382.595915 128.495263 380.907730 131.962486 378.864139 135.429708 377.886769 138.896931 377.531361 142.364153 374.377122 145.831376 372.666724 149.298598 367.957578 152.765820 365.491940 156.233043 365.203172 159.700265 366.424884 163.167488 364.536783 166.634710 361.049350 170.101933 362.448766 173.569155 361.915655 177.036377 361.160414 180.503600 359.538869 183.970822 364.581209 187.438045 364.070311 190.905267 365.469727 194.372490 366.580375 197.839712 368.601754 201.306934 366.758079 204.774157 365.936199 208.241379 363.914821 211.708602 363.092941 215.175824 362.382127 218.643047 361.871229 222.110269 359.849850 225.577491 360.893859 229.044714 360.471813 232.511936 359.472230 235.979159 357.384212 239.446381 359.250100 242.913604 361.604674 246.380826 361.071563 249.848049 360.427387 253.315271 359.494443 256.782493 359.383378 260.249716 358.317156 263.716938 361.737951 267.184161 360.494026 270.651383 360.005341 274.118606 357.361999 277.585828 356.317991 281.053050 356.317991 284.520273 355.895944 287.987495 354.874149 291.454718 358.406008 294.921940 358.072814 298.389163 357.672981 301.856385 356.828888 305.323607 356.406842 308.790830 355.851518 312.258052 356.740037 315.725275 356.584546 319.192497 358.006175 322.659720 357.539703 326.126942 357.184296 329.594164 355.784880 333.061387 356.962166 336.528609 356.251352 339.995832 355.451685 343.463054 354.229973 346.930277 353.474732 350.397499 352.675066 353.864721 354.030056 357.331944 355.229556 360.799166 356.962166 364.266389 357.317573 367.733611 356.717824 371.200834 360.538452 374.668056 359.316739 378.135279 358.605925 381.602501 357.828471 385.069723 356.717824 388.536946 355.696028 392.004168 355.118491 395.471391 354.718658 398.938613 361.338118 402.405836 362.004507 405.873058 362.582043 409.340280 363.270645 412.807503 363.759330 416.274725 362.715321 419.741948 361.960081 423.209170 361.693525 426.676393 361.049350 430.143615 360.494026 433.610837 359.116823 437.078060 358.517073 440.545282 358.406008 444.012505 358.561499 447.479727 358.472647 450.946950 358.050601 454.414172 357.450851 457.881394 355.918157 461.348617 356.673398 464.815839 354.629806 468.283062 354.207760 471.750284 353.297029 475.217507 353.252603 478.684729 352.986047 482.151951 351.786548 485.619174 351.964252 489.086396 352.119742 492.553619 350.342706 496.020841 349.898447 499.488064 349.498614 502.955286 349.098781 506.422509 348.188049 509.889731 347.721577 513.356953 347.388383 516.824176 347.077402 520.291398 346.522078 523.758621 347.366170 527.225843 346.988550 530.693066 348.121411 534.160288 347.188467 537.627510 348.365753 541.094733 350.942456 544.561955 351.719909 548.029178 350.542623 551.496400 352.097529 554.963623 352.230807 558.430845 351.830974 561.898067 350.942456 565.365290 350.387132 568.832512 350.009512 572.299735 349.276484 575.766957 348.943290 579.234180 348.765586 582.701402 348.276901 586.168624 347.366170 589.635847 350.253854 593.103069 349.076568 596.570292 348.610096 600.037514 349.209845 603.504737 348.698947 606.971959 348.432392 610.439182 349.454188 613.906404 349.165419 617.373626 347.899281 620.840849 348.276901 624.308071 349.942873 627.775294 349.120994 631.242516 351.075733 634.709739 351.097946 638.176961 352.008678 641.644183 354.385464 645.111406 355.807093 648.578628 355.162917 652.045851 354.763084 655.513073 354.030056 658.980296 354.096695 662.447518 354.496528 665.914740 353.696862 669.381963 354.918574 672.849185 355.118491 676.316408 355.362834 679.783630 355.984796 683.250853 355.784880 686.718075 355.762667 690.185297 356.029222 693.652520 355.607176 697.119742 354.963000 700.586965 354.807510 704.054187 355.540537 707.521410 354.629806 710.988632 354.518741 714.455854 354.007843 717.923077 353.519158"/></g><g class="series serie-2 color-2"><path class="line reactive nofill" d="M14.076923 353.008260 L17.544146 353.008260 21.011368 353.008260 24.478590 353.008260 27.945813 353.008260 31.413035 353.008260 34.880258 353.008260 38.347480 353.008260 41.814703 353.008260 45.281925 353.008260 48.749147 353.008260 52.216370 353.008260 55.683592 353.008260 59.150815 353.008260 62.618037 353.008260 66.085260 353.008260 69.552482 353.008260 73.019704 353.008260 76.486927 353.008260 79.954149 353.008260 83.421372 353.008260 86.888594 353.008260 90.355817 353.008260 93.823039 353.008260 97.290261 353.008260 100.757484 353.008260 104.224706 353.008260 107.691929 353.008260 111.159151 353.008260 114.626374 353.008260 118.093596 353.008260 121.560818 353.008260 125.028041 353.008260 128.495263 353.008260 131.962486 353.008260 135.429708 353.008260 138.896931 353.008260 142.364153 353.008260 145.831376 353.008260 149.298598 353.008260 152.765820 353.008260 156.233043 353.008260 159.700265 353.008260 163.167488 353.008260 166.634710 353.008260 170.101933 353.008260 173.569155 353.008260 177.036377 353.008260 180.503600 353.008260 183.970822 353.008260 187.438045 353.008260 190.905267 353.008260 194.372490 353.008260 197.839712 353.008260 201.306934 353.008260 204.774157 353.008260 208.241379 353.008260 211.708602 353.008260 215.175824 353.008260 218.643047 353.008260 222.110269 353.008260 225.577491 353.008260 229.044714 353.008260 232.511936 353.008260 235.979159 353.008260 239.446381 353.008260 242.913604 353.008260 246.380826 353.008260 249.848049 353.008260 253.315271 353.008260 256.782493 353.008260 260.249716 353.008260 263.716938 353.008260 267.184161 353.008260 270.651383 353.008260 274.118606 353.008260 277.585828 353.008260 281.053050 353.008260 284.520273 353.008260 287.987495 353.008260 291.454718 353.008260 294.921940 353.008260 298.389163 353.008260 301.856385 353.008260 305.323607 353.008260 308.790830 353.008260 312.258052 353.008260 315.725275 353.008260 319.192497 353.008260 322.659720 353.008260 326.126942 353.008260 329.594164 353.008260 333.061387 353.008260 336.528609 353.008260 339.995832 353.008260 343.463054 353.008260 346.930277 353.008260 350.397499 353.008260 353.864721 353.008260 357.331944 353.008260 360.799166 353.008260 364.266389 353.008260 367.733611 353.008260 371.200834 353.008260 374.668056 353.008260 378.135279 353.008260 381.602501 353.008260 385.069723 353.008260 388.536946 353.008260 392.004168 353.008260 395.471391 353.008260 398.938613 353.008260 402.405836 353.008260 405.873058 353.008260 409.340280 353.008260 412.807503 353.008260 416.274725 353.008260 419.741948 353.008260 423.209170 353.008260 426.676393 353.008260 430.143615 353.008260 433.610837 353.008260 437.078060 353.008260 440.545282 353.008260 444.012505 353.008260 447.479727 353.008260 450.946950 353.008260 454.414172 353.008260 457.881394 353.008260 461.348617 353.008260 464.815839 353.008260 468.283062 353.008260 471.750284 353.008260 475.217507 353.008260 478.684729 353.008260 482.151951 353.008260 485.619174 353.008260 489.086396 353.008260 492.553619 353.008260 496.020841 353.008260 499.488064 353.008260 502.955286 353.008260 506.422509 353.008260 509.889731 353.008260 513.356953 353.008260 516.824176 353.008260 520.291398 353.008260 523.758621 353.008260 527.225843 353.008260 530.693066 353.008260 534.160288 353.008260 537.627510 353.008260 541.094733 353.008260 544.561955 353.008260 548.029178 353.008260 551.496400 353.008260 554.963623 353.008260 558.430845 353.008260 561.898067 353.008260 565.365290 353.008260 568.832512 353.008260 572.299735 353.008260 575.766957 353.008260 579.234180 353.008260 582.701402 353.008260 586.168624 353.008260 589.635847 353.008260 593.103069 353.008260 596.570292 353.008260 600.037514 353.008260 603.504737 353.008260 606.971959 353.008260 610.439182 353.008260 613.906404 353.008260 617.373626 353.008260 620.840849 353.008260 624.308071 353.008260 627.775294 353.008260 631.242516 353.008260 634.709739 353.008260 638.176961 353.008260 641.644183 353.008260 645.111406 353.008260 648.578628 353.008260 652.045851 353.008260 655.513073 353.008260 658.980296 353.008260 662.447518 353.008260 665.914740 353.008260 669.381963 353.008260 672.849185 353.008260 676.316408 353.008260 679.783630 353.008260 683.250853 353.008260 686.718075 353.008260 690.185297 353.008260 693.652520 353.008260 697.119742 353.008260 700.586965 353.008260 704.054187 353.008260 707.521410 353.008260 710.988632 353.008260 714.455854 353.008260 717.923077 353.008260"/></g></g><g class="titles"><text class="title plot_title" x="400.0" y="26">TM Dilshan: Future and Past Averages in ODIs</text></g><g class="plot overlay" transform="translate(48, 46)"><g class="series serie-0 color-0"><g class="dots"><desc class="label">106 wickets in 204 innings (980.0 overs)</desc><circle class="dot reactive tooltip-trigger" cx="14.076923076923077" cy="353.00826042313463" r="2.5"/><desc class="value">45.08</desc><desc class="x top">14.076923076923077</desc><desc class="y top">353.00826042313463</desc><desc class="x_label">2003</desc></g><g class="dots"><desc class="label">105 wickets in 201 innings (972.0 overs)</desc><circle class="dot reactive tooltip-trigger" cx="24.478590375142097" cy="352.71949202485246" r="2.5"/><desc class="value">45.21</desc><desc class="x top">24.478590375142097</desc><desc class="y top">352.71949202485246</desc><desc class="x_label">2004</desc></g><g class="dots"><desc class="label">96 wickets in 184 innings (876.5 overs)</desc><circle class="dot reactive tooltip-trigger" cx="83.42137173171656" cy="354.1189081088354" r="2.5"/><desc class="value">44.58</desc><desc class="x top">83.42137173171656</desc><desc class="y top">354.1189081088354</desc><desc class="x_label">2005</desc></g><g class="dots"><desc class="label">81 wickets in 169 innings (797.3 overs)</desc><circle class="dot reactive tooltip-trigger" cx="135.42970822281168" cy="345.3447913917993" r="2.5"/><desc class="value">48.53</desc><desc class="x top">135.42970822281168</desc><desc class="y top">345.3447913917993</desc><desc class="x_label">2006</desc></g><g class="dots"><desc class="label">70 wickets in 143 innings (669.2 overs)</desc><circle class="dot reactive tooltip-trigger" cx="225.57749147404323" cy="348.96550284718387" r="2.5"/><desc class="value">46.9</desc><desc class="x top">225.57749147404323</desc><desc class="y top">348.96550284718387</desc><desc class="x_label">2007</desc></g><g class="dots"><desc class="label">62 wickets in 121 innings (574.3 overs)</desc><circle class="dot reactive tooltip-trigger" cx="301.85638499431604" cy="350.3204930237388" r="2.5"/><desc class="value">46.29</desc><desc class="x top">301.85638499431604</desc><desc class="y top">350.3204930237388</desc><desc class="x_label">2008</desc></g><g class="dots"><desc class="label">60 wickets in 115 innings (557.0 overs)</desc><circle class="dot reactive tooltip-trigger" cx="322.6597195907541" cy="349.5652525974623" r="2.5"/><desc class="value">46.63</desc><desc class="x top">322.6597195907541</desc><desc class="y top">349.5652525974623</desc><desc class="x_label">2009</desc></g><g class="dots"><desc class="label">59 wickets in 107 innings (534.5 overs)</desc><circle class="dot reactive tooltip-trigger" cx="350.3974990526715" cy="353.29702882141686" r="2.5"/><desc class="value">44.95</desc><desc class="x top">350.3974990526715</desc><desc class="y top">353.29702882141686</desc><desc class="x_label">2010</desc></g><g class="dots"><desc class="label">52 wickets in 99 innings (495.5 overs)</desc><circle class="dot reactive tooltip-trigger" cx="378.13527851458883" cy="347.21067950377665" r="2.5"/><desc class="value">47.69</desc><desc class="x left top">378.13527851458883</desc><desc class="y left top">347.21067950377665</desc><desc class="x_label">2011</desc></g><g class="dots"><desc class="label">42 wickets in 78 innings (403.5 overs)</desc><circle class="dot reactive tooltip-trigger" cx="450.946949602122" cy="345.3670043455133" r="2.5"/><desc class="value">48.52</desc><desc class="x left top">450.946949602122</desc><desc class="y left top">345.3670043455133</desc><desc class="x_label">2012</desc></g><g class="dots"><desc class="label">39 wickets in 59 innings (313.5 overs)</desc><circle class="dot reactive tooltip-trigger" cx="516.8241758241758" cy="363.20400617786777" r="2.5"/><desc class="value">40.49</desc><desc class="x left top">516.8241758241758</desc><desc class="y left top">363.20400617786777</desc><desc class="x_label">2013</desc></g><g class="dots"><desc class="label">30 wickets in 42 innings (228.4 overs)</desc><circle class="dot reactive tooltip-trigger" cx="575.7669571807503" cy="363.3372839001519" r="2.5"/><desc class="value">40.43</desc><desc class="x left top">575.7669571807503</desc><desc class="y left top">363.3372839001519</desc><desc class="x_label">2014</desc></g><g class="dots"><desc class="label">13 wickets in 23 innings (118.3 overs)</desc><circle class="dot reactive tooltip-trigger" cx="641.6441834028042" cy="343.27898669639586" r="2.5"/><desc class="value">49.46</desc><desc class="x left top">641.6441834028042</desc><desc class="y left top">343.27898669639586</desc><desc class="x_label">2015</desc></g><g class="dots"><desc class="label">1 wickets in 4 innings (22.5 overs)</desc><circle class="dot reactive tooltip-trigger" cx="707.5214096248578" cy="184.36751582632883" r="2.5"/><desc class="value">121</desc><desc class="x left">707.5214096248578</desc><desc class="y left">184.36751582632883</desc><desc class="x_label">2016</desc></g></g><g class="series serie-1 color-1"><g class="dots"><desc class="label">0 wickets over 0 innings</desc><circle class="dot reactive tooltip-trigger" cx="14.076923076923077" cy="453.1442557659166" r="2.5"/><desc class="value">0</desc><desc class="x top">14.076923076923077</desc><desc class="y top">453.1442557659166</desc><desc class="x_label">2003</desc></g><g class="dots"><desc class="label">1 wickets in 3 innings (8.0 overs)</desc><circle class="dot reactive tooltip-trigger" cx="24.478590375142097" cy="384.28409925246854" r="2.5"/><desc class="value">31</desc><desc class="x top">24.478590375142097</desc><desc class="y top">384.28409925246854</desc><desc class="x_label">2004</desc></g><g class="dots"><desc class="label">10 wickets in 20 innings (103.1 overs)</desc><circle class="dot reactive tooltip-trigger" cx="83.42137173171656" cy="342.5237462701193" r="2.5"/><desc class="value">49.8</desc><desc class="x top">83.42137173171656</desc><desc class="y top">342.5237462701193</desc><desc class="x_label">2005</desc></g><g class="dots"><desc class="label">25 wickets in 35 innings (182.3 overs)</desc><circle class="dot reactive tooltip-trigger" cx="135.42970822281168" cy="377.886768582832" r="2.5"/><desc class="value">33.88</desc><desc class="x top">135.42970822281168</desc><desc class="y top">377.886768582832</desc><desc class="x_label">2006</desc></g><g class="dots"><desc class="label">36 wickets in 61 innings (310.4 overs)</desc><circle class="dot reactive tooltip-trigger" cx="225.57749147404323" cy="360.89385899161016" r="2.5"/><desc class="value">41.53</desc><desc class="x top">225.57749147404323</desc><desc class="y top">360.89385899161016</desc><desc class="x_label">2007</desc></g><g class="dots"><desc class="label">44 wickets in 83 innings (405.3 overs)</desc><circle class="dot reactive tooltip-trigger" cx="301.85638499431604" cy="356.8288884619453" r="2.5"/><desc class="value">43.36</desc><desc class="x top">301.85638499431604</desc><desc class="y top">356.8288884619453</desc><desc class="x_label">2008</desc></g><g class="dots"><desc class="label">46 wickets in 89 innings (423.0 overs)</desc><circle class="dot reactive tooltip-trigger" cx="322.6597195907541" cy="357.53970298079383" r="2.5"/><desc class="value">43.04</desc><desc class="x top">322.6597195907541</desc><desc class="y top">357.53970298079383</desc><desc class="x_label">2009</desc></g><g class="dots"><desc class="label">47 wickets in 97 innings (445.1 overs)</desc><circle class="dot reactive tooltip-trigger" cx="350.3974990526715" cy="352.6750661174244" r="2.5"/><desc class="value">45.23</desc><desc class="x top">350.3974990526715</desc><desc class="y top">352.6750661174244</desc><desc class="x_label">2010</desc></g><g class="dots"><desc class="label">54 wickets in 105 innings (484.1 overs)</desc><circle class="dot reactive tooltip-trigger" cx="378.13527851458883" cy="358.60592475906657" r="2.5"/><desc class="value">42.56</desc><desc class="x left top">378.13527851458883</desc><desc class="y left top">358.60592475906657</desc><desc class="x_label">2011</desc></g><g class="dots"><desc class="label">64 wickets in 126 innings (576.1 overs)</desc><circle class="dot reactive tooltip-trigger" cx="450.946949602122" cy="358.0506009162162" r="2.5"/><desc class="value">42.81</desc><desc class="x left top">450.946949602122</desc><desc class="y left top">358.0506009162162</desc><desc class="x_label">2012</desc></g><g class="dots"><desc class="label">67 wickets in 145 innings (666.1 overs)</desc><circle class="dot reactive tooltip-trigger" cx="516.8241758241758" cy="347.07740178149254" r="2.5"/><desc class="value">47.75</desc><desc class="x left top">516.8241758241758</desc><desc class="y left top">347.07740178149254</desc><desc class="x_label">2013</desc></g><g class="dots"><desc class="label">76 wickets in 162 innings (751.2 overs)</desc><circle class="dot reactive tooltip-trigger" cx="575.7669571807503" cy="348.9432898934698" r="2.5"/><desc class="value">46.91</desc><desc class="x left top">575.7669571807503</desc><desc class="y left top">348.9432898934698</desc><desc class="x_label">2014</desc></g><g class="dots"><desc class="label">93 wickets in 181 innings (861.3 overs)</desc><circle class="dot reactive tooltip-trigger" cx="641.6441834028042" cy="354.3854635534036" r="2.5"/><desc class="value">44.46</desc><desc class="x left top">641.6441834028042</desc><desc class="y left top">354.3854635534036</desc><desc class="x_label">2015</desc></g><g class="dots"><desc class="label">105 wickets in 200 innings (957.1 overs)</desc><circle class="dot reactive tooltip-trigger" cx="707.5214096248578" cy="354.6298060442578" r="2.5"/><desc class="value">44.35</desc><desc class="x left top">707.5214096248578</desc><desc class="y left top">354.6298060442578</desc><desc class="x_label">2016</desc></g></g><g class="series serie-2 color-2"/></g><g class="plot text-overlay" transform="translate(48, 46)"><g class="series serie-0 color-0"/><g class="series serie-1 color-1"/><g class="series serie-2 color-2"/></g><g class="plot tooltip-overlay" transform="translate(48, 46)"><g class="tooltip" style="opacity: 0" transform="translate(0 0)"><rect class="tooltip-box" height="0" rx="10" ry="10" width="0"/><g class="text"/></g></g><g class="legends" transform="translate(58, 545)"><g class="legend reactive activate-serie" id="activate-serie-0"><rect class="color-0 reactive" height="12" width="12" x="0.0" y="1.0"/><text x="17.0" y="11.2">Future Average</text></g><g class="legend reactive activate-serie" id="activate-serie-1"><rect class="color-1 reactive" height="12" width="12" x="366.0" y="1.0"/><text x="383.0" y="11.2">Past Average</text></g><g class="legend reactive activate-serie" id="activate-serie-2"><rect class="color-2 reactive" height="12" width="12" x="0.0" y="22.0"/><text x="17.0" y="32.2">Career Average</text></g></g></g></svg>