<?xml version='1.0' encoding='utf-8'?>
<svg xmlns:xlink="http://www.w3.org/1999/xlink" xmlns="http://www.w3.org/2000/svg" id="chart-a8cad3c0-b5fc-4b70-b6ea-dd99a063a0d8" class="pygal-chart" viewBox="0 0 800 600"><!--Generated with pygal 2.4.0 (lxml) ©Kozea 2012-2016 on 2019-08-04--><!--http://pygal.org--><!--http://github.com/Kozea/pygal--><defs><style type="text/css">#chart-a8cad3c0-b5fc-4b70-b6ea-dd99a063a0d8{-webkit-user-select:none;-webkit-font-smoothing:antialiased;font-family:Consolas,"Liberation Mono",Menlo,Courier,monospace}#chart-a8cad3c0-b5fc-4b70-b6ea-dd99a063a0d8 .title{font-family:Consolas,"Liberation Mono",Menlo,Courier,monospace;font-size:16px}#chart-a8cad3c0-b5fc-4b70-b6ea-dd99a063a0d8 .legends .legend text{font-family:Consolas,"Liberation Mono",Menlo,Courier,monospace;font-size:14px}#chart-a8cad3c0-b5fc-4b70-b6ea-dd99a063a0d8 .axis text{font-family:Consolas,"Liberation Mono",Menlo,Courier,monospace;font-size:10px}#chart-a8cad3c0-b5fc-4b70-b6ea-dd99a063a0d8 .axis text.major{font-family:Consolas,"Liberation Mono",Menlo,Courier,monospace;font-size:10px}#chart-a8cad3c0-b5fc-4b70-b6ea-dd99a063a0d8 .text-overlay text.value{font-family:Consolas,"Liberation Mono",Menlo,Courier,monospace;font-size:16px}#chart-a8cad3c0-b5fc-4b70-b6ea-dd99a063a0d8 .text-overlay text.label{font-family:Consolas,"Liberation Mono",Menlo,Courier,monospace;font-size:10px}#chart-a8cad3c0-b5fc-4b70-b6ea-dd99a063a0d8 .tooltip{font-family:Consolas,"Liberation Mono",Menlo,Courier,monospace;font-size:14px}#chart-a8cad3c0-b5fc-4b70-b6ea-dd99a063a0d8 text.no_data{font-family:Consolas,"Liberation Mono",Menlo,Courier,monospace;font-size:64px}
#chart-a8cad3c0-b5fc-4b70-b6ea-dd99a063a0d8{background-color:rgba(249,249,249,1)}#chart-a8cad3c0-b5fc-4b70-b6ea-dd99a063a0d8 path,#chart-a8cad3c0-b5fc-4b70-b6ea-dd99a063a0d8 line,#chart-a8cad3c0-b5fc-4b70-b6ea-dd99a063a0d8 rect,#chart-a8cad3c0-b5fc-4b70-b6ea-dd99a063a0d8 circle{-webkit-transition:150ms;-moz-transition:150ms;transition:150ms}#chart-a8cad3c0-b5fc-4b70-b6ea-dd99a063a0d8 .graph &gt; .background{fill:rgba(249,249,249,1)}#chart-a8cad3c0-b5fc-4b70-b6ea-dd99a063a0d8 .plot &gt; .background{fill:rgba(255,255,255,1)}#chart-a8cad3c0-b5fc-4b70-b6ea-dd99a063a0d8 .graph{fill:rgba(0,0,0,.87)}#chart-a8cad3c0-b5fc-4b70-b6ea-dd99a063a0d8 text.no_data{fill:rgba(0,0,0,1)}#chart-a8cad3c0-b5fc-4b70-b6ea-dd99a063a0d8 .title{fill:rgba(0,0,0,1)}#chart-a8cad3c0-b5fc-4b70-b6ea-dd99a063a0d8 .legends .legend text{fill:rgba(0,0,0,.87)}#chart-a8cad3c0-b5fc-4b70-b6ea-dd99a063a0d8 .legends .legend:hover text{fill:rgba(0,0,0,1)}#chart-a8cad3c0-b5fc-4b70-b6ea-dd99a063a0d8 .axis .line{stroke:rgba(0,0,0,1)}#chart-a8cad3c0-b5fc-4b70-b6ea-dd99a063a0d8 .axis .guide.line{stroke:rgba(0,0,0,.54)}#chart-a8cad3c0-b5fc-4b70-b6ea-dd99a063a0d8 .axis .major.line{stroke:rgba(0,0,0,.87)}#chart-a8cad3c0-b5fc-4b70-b6ea-dd99a063a0d8 .axis text.major{fill:rgba(0,0,0,1)}#chart-a8cad3c0-b5fc-4b70-b6ea-dd99a063a0d8 .axis.y .guides:hover .guide.line,#chart-a8cad3c0-b5fc-4b70-b6ea-dd99a063a0d8 .line-graph .axis.x .guides:hover .guide.line,#chart-a8cad3c0-b5fc-4b70-b6ea-dd99a063a0d8 .stackedline-graph .axis.x .guides:hover .guide.line,#chart-a8cad3c0-b5fc-4b70-b6ea-dd99a063a0d8 .xy-graph .axis.x .guides:hover .guide.line{stroke:rgba(0,0,0,1)}#chart-a8cad3c0-b5fc-4b70-b6ea-dd99a063a0d8 .axis .guides:hover text{fill:rgba(0,0,0,1)}#chart-a8cad3c0-b5fc-4b70-b6ea-dd99a063a0d8 .reactive{fill-opacity:.7;stroke-opacity:.8}#chart-a8cad3c0-b5fc-4b70-b6ea-dd99a063a0d8 .ci{stroke:rgba(0,0,0,.87)}#chart-a8cad3c0-b5fc-4b70-b6ea-dd99a063a0d8 .reactive.active,#chart-a8cad3c0-b5fc-4b70-b6ea-dd99a063a0d8 .active .reactive{fill-opacity:.8;stroke-opacity:.9;stroke-width:4}#chart-a8cad3c0-b5fc-4b70-b6ea-dd99a063a0d8 .ci .reactive.active{stroke-width:1.5}#chart-a8cad3c0-b5fc-4b70-b6ea-dd99a063a0d8 .series text{fill:rgba(0,0,0,1)}#chart-a8cad3c0-b5fc-4b70-b6ea-dd99a063a0d8 .tooltip rect{fill:rgba(255,255,255,1);stroke:rgba(0,0,0,1);-webkit-transition:opacity 150ms;-moz-transition:opacity 150ms;transition:opacity 150ms}#chart-a8cad3c0-b5fc-4b70-b6ea-dd99a063a0d8 .tooltip .label{fill:rgba(0,0,0,.87)}#chart-a8cad3c0-b5fc-4b70-b6ea-dd99a063a0d8 .tooltip .label{fill:rgba(0,0,0,.87)}#chart-a8cad3c0-b5fc-4b70-b6ea-dd99a063a0d8 .tooltip .legend{font-size:.8em;fill:rgba(0,0,0,.54)}#chart-a8cad3c0-b5fc-4b70-b6ea-dd99a063a0d8 .tooltip .x_label{font-size:.6em;fill:rgba(0,0,0,1)}#chart-a8cad3c0-b5fc-4b70-b6ea-dd99a063a0d8 .tooltip .xlink{font-size:.5em;text-decoration:underline}#chart-a8cad3c0-b5fc-4b70-b6ea-dd99a063a0d8 .tooltip .value{font-size:1.5em}#chart-a8cad3c0-b5fc-4b70-b6ea-dd99a063a0d8 .bound{font-size:.5em}#chart-a8cad3c0-b5fc-4b70-b6ea-dd99a063a0d8 .max-value{font-size:.75em;fill:rgba(0,0,0,.54)}#chart-a8cad3c0-b5fc-4b70-b6ea-dd99a063a0d8 .map-element{fill:rgba(255,255,255,1);stroke:rgba(0,0,0,.54) !important}#chart-a8cad3c0-b5fc-4b70-b6ea-dd99a063a0d8 .map-element .reactive{fill-opacity:inherit;stroke-opacity:inherit}#chart-a8cad3c0-b5fc-4b70-b6ea-dd99a063a0d8 .color-0,#chart-a8cad3c0-b5fc-4b70-b6ea-dd99a063a0d8 .color-0 a:visited{stroke:red;fill:red}#chart-a8cad3c0-b5fc-4b70-b6ea-dd99a063a0d8 .color-1,#chart-a8cad3c0-b5fc-4b70-b6ea-dd99a063a0d8 .color-1 a:visited{stroke:blue;fill:blue}#chart-a8cad3c0-b5fc-4b70-b6ea-dd99a063a0d8 .color-2,#chart-a8cad3c0-b5fc-4b70-b6ea-dd99a063a0d8 .color-2 a:visited{stroke:green;fill:green}#chart-a8cad3c0-b5fc-4b70-b6ea-dd99a063a0d8 .text-overlay .color-0 text{fill:white}#chart-a8cad3c0-b5fc-4b70-b6ea-dd99a063a0d8 .text-overlay .color-1 text{fill:white}#chart-a8cad3c0-b5fc-4b70-b6ea-dd99a063a0d8 .text-overlay .color-2 text{fill:white}
#chart-a8cad3c0-b5fc-4b70-b6ea-dd99a063a0d8 text.no_data{text-anchor:middle}#chart-a8cad3c0-b5fc-4b70-b6ea-dd99a063a0d8 .guide.line{fill:none}#chart-a8cad3c0-b5fc-4b70-b6ea-dd99a063a0d8 .centered{text-anchor:middle}#chart-a8cad3c0-b5fc-4b70-b6ea-dd99a063a0d8 .title{text-anchor:middle}#chart-a8cad3c0-b5fc-4b70-b6ea-dd99a063a0d8 .legends .legend text{fill-opacity:1}#chart-a8cad3c0-b5fc-4b70-b6ea-dd99a063a0d8 .axis.x text{text-anchor:middle}#chart-a8cad3c0-b5fc-4b70-b6ea-dd99a063a0d8 .axis.x:not(.web) text[transform]{text-anchor:start}#chart-a8cad3c0-b5fc-4b70-b6ea-dd99a063a0d8 .axis.x:not(.web) text[transform].backwards{text-anchor:end}#chart-a8cad3c0-b5fc-4b70-b6ea-dd99a063a0d8 .axis.y text{text-anchor:end}#chart-a8cad3c0-b5fc-4b70-b6ea-dd99a063a0d8 .axis.y text[transform].backwards{text-anchor:start}#chart-a8cad3c0-b5fc-4b70-b6ea-dd99a063a0d8 .axis.y2 text{text-anchor:start}#chart-a8cad3c0-b5fc-4b70-b6ea-dd99a063a0d8 .axis.y2 text[transform].backwards{text-anchor:end}#chart-a8cad3c0-b5fc-4b70-b6ea-dd99a063a0d8 .axis .guide.line{stroke-dasharray:4,4}#chart-a8cad3c0-b5fc-4b70-b6ea-dd99a063a0d8 .axis .major.guide.line{stroke-dasharray:6,6}#chart-a8cad3c0-b5fc-4b70-b6ea-dd99a063a0d8 .horizontal .axis.y .guide.line,#chart-a8cad3c0-b5fc-4b70-b6ea-dd99a063a0d8 .horizontal .axis.y2 .guide.line,#chart-a8cad3c0-b5fc-4b70-b6ea-dd99a063a0d8 .vertical .axis.x .guide.line{opacity:0}#chart-a8cad3c0-b5fc-4b70-b6ea-dd99a063a0d8 .horizontal .axis.always_show .guide.line,#chart-a8cad3c0-b5fc-4b70-b6ea-dd99a063a0d8 .vertical .axis.always_show .guide.line{opacity:1 !important}#chart-a8cad3c0-b5fc-4b70-b6ea-dd99a063a0d8 .axis.y .guides:hover .guide.line,#chart-a8cad3c0-b5fc-4b70-b6ea-dd99a063a0d8 .axis.y2 .guides:hover .guide.line,#chart-a8cad3c0-b5fc-4b70-b6ea-dd99a063a0d8 .axis.x .guides:hover .guide.line{opacity:1}#chart-a8cad3c0-b5fc-4b70-b6ea-dd99a063a0d8 .axis .guides:hover text{opacity:1}#chart-a8cad3c0-b5fc-4b70-b6ea-dd99a063a0d8 .nofill{fill:none}#chart-a8cad3c0-b5fc-4b70-b6ea-dd99a063a0d8 .subtle-fill{fill-opacity:.2}#chart-a8cad3c0-b5fc-4b70-b6ea-dd99a063a0d8 .dot{stroke-width:1px;fill-opacity:1}#chart-a8cad3c0-b5fc-4b70-b6ea-dd99a063a0d8 .dot.active{stroke-width:5px}#chart-a8cad3c0-b5fc-4b70-b6ea-dd99a063a0d8 .dot.negative{fill:transparent}#chart-a8cad3c0-b5fc-4b70-b6ea-dd99a063a0d8 text,#chart-a8cad3c0-b5fc-4b70-b6ea-dd99a063a0d8 tspan{stroke:none !important}#chart-a8cad3c0-b5fc-4b70-b6ea-dd99a063a0d8 .series text.active{opacity:1}#chart-a8cad3c0-b5fc-4b70-b6ea-dd99a063a0d8 .tooltip rect{fill-opacity:.95;stroke-width:.5}#chart-a8cad3c0-b5fc-4b70-b6ea-dd99a063a0d8 .tooltip text{fill-opacity:1}#chart-a8cad3c0-b5fc-4b70-b6ea-dd99a063a0d8 .showable{visibility:hidden}#chart-a8cad3c0-b5fc-4b70-b6ea-dd99a063a0d8 .showable.shown{visibility:visible}#chart-a8cad3c0-b5fc-4b70-b6ea-dd99a063a0d8 .gauge-background{fill:rgba(229,229,229,1);stroke:none}#chart-a8cad3c0-b5fc-4b70-b6ea-dd99a063a0d8 .bg-lines{stroke:rgba(249,249,249,1);stroke-width:2px}</style><script type="text/javascript">window.pygal = window.pygal || {};window.pygal.config = window.pygal.config || {};window.pygal.config['a8cad3c0-b5fc-4b70-b6ea-dd99a063a0d8'] = {"allow_interruptions": false, "box_mode": "extremes", "classes": ["pygal-chart"], "css": ["file://style.css", "file://graph.css"], "defs": [], "disable_xml_declaration": false, "dots_size": 2.5, "dynamic_print_values": false, "explicit_size": false, "fill": false, "force_uri_protocol": "https", "formatter": null, "half_pie": false, "height": 600, "include_x_axis": false, "inner_radius": 0, "interpolate": null, "interpolation_parameters": {}, "interpolation_precision": 250, "inverse_y_axis": false, "js": ["//kozea.github.io/pygal.js/2.0.x/pygal-tooltips.min.js"], "legend_at_bottom": true, "legend_at_bottom_columns": null, "legend_box_size": 12, "logarithmic": false, "margin": 20, "margin_bottom": null, "margin_left": null, "margin_right": null, "margin_top": null, "max_scale": 16, "min_scale": 4, "missing_value_fill_truncation": "x", "no_data_text": "No data", "no_prefix": false, "order_min": null, "pretty_print": false, "print_labels": false, "print_values": false, "print_values_position": "center", "print_zeroes": true, "range": null, "rounded_bars": null, "secondary_range": null, "show_dots": true, "show_legend": true, "show_minor_x_labels": false, "show_minor_y_labels": true, "show_only_major_dots": false, "show_x_guides": false, "show_x_labels": true, "show_y_guides": true, "show_y_labels": true, "spacing": 10, "stack_from_top": false, "strict": false, "stroke": true, "stroke_style": null, "style": {"background": "rgba(249, 249, 249, 1)", "ci_colors": [], "colors": ["red", "blue", "green", "#a3a3a3"], "font_family": "Consolas, \"Liberation Mono\", Menlo, Courier, monospace", "foreground": "rgba(0, 0, 0, .87)", "foreground_strong": "rgba(0, 0, 0, 1)", "foreground_subtle": "rgba(0, 0, 0, .54)", "guide_stroke_dasharray": "4,4", "label_font_family": "Consolas, \"Liberation Mono\", Menlo, Courier, monospace", "label_font_size": 10, "legend_font_family": "Consolas, \"Liberation Mono\", Menlo, Courier, monospace", "legend_font_size": 14, "major_guide_stroke_dasharray": "6,6", "major_label_font_family": "Consolas, \"Liberation Mono\", Menlo, Courier, monospace", "major_label_font_size": 10, "no_data_font_family": "Consolas, \"Liberation Mono\", Menlo, Courier, monospace", "no_data_font_size": 64, "opacity": ".7", "opacity_hover": ".8", "plot_background": "rgba(255, 255, 255, 1)", "stroke_opacity": ".8", "stroke_opacity_hover": ".9", "title_font_family": "Consolas, \"Liberation Mono\", Menlo, Courier, monospace", "title_font_size": 16, "tooltip_font_family": "Consolas, \"Liberation Mono\", Menlo, Courier, monospace", "tooltip_font_size": 14, "transition": "150ms", "value_background": "rgba(229, 229, 229, 1)", "value_colors": [], "value_font_family": "Consolas, \"Liberation Mono\", Menlo, Courier, monospace", "value_font_size": 16, "value_label_font_family": "Consolas, \"Liberation Mono\", Menlo, Courier, monospace", "value_label_font_size": 10}, "title": "TM Odoyo: Future and Past Averages in ODIs", "tooltip_border_radius": 10, "tooltip_fancy_mode": true, "truncate_label": null, "truncate_legend": null, "width": 800, "x_label_rotation": 45, "x_labels": ["1996", "0", "0", "0", "0", "0", "0", "0", "1997", "0", "0", "0", "0", "0", "1998", "0", "0", "0", "0", "1999", "0", "0", "0", "0", "0", "0", "0", "0", "0", "0", "0", "0", "2000", "2001", "0", "0", "0", "0", "0", "0", "0", "0", "2002", "0", "0", "0", "0", "0", "0", "2003", "0", "0", "0", "0", "0", "0", "0", "0", "0", "2004", "0", "2005", "2006", "0", "0", "0", "0", "0", "0", "0", "0", "0", "0", "0", "0", "0", "0", "0", "2007", "0", "0", "0", "0", "0", "0", "0", "0", "0", "0", "0", "0", "0", "0", "0", "0", "0", "2008", "0", "0", "0", "0", "0", "2009", "0", "0", "0", "0", "0", "0", "0", "0", "0", "0", "0", "2010", "0", "0", "0", "0", "0", "0", "0", "0", "2011", "0", "0", "0", "2014", "0"], "x_labels_major": ["1996", "1997", "1998", "1999", "2000", "2001", "2002", "2003", "2004", "2005", "2006", "2007", "2008", "2009", "2010", "2011", "2014"], "x_labels_major_count": null, "x_labels_major_every": null, "x_title": null, "xrange": null, "y_label_rotation": 0, "y_labels": null, "y_labels_major": null, "y_labels_major_count": null, "y_labels_major_every": null, "y_title": null, "zero": 150.0, "legends": ["Future Average", "Past Average", "Career Average"]}</script><script type="text/javascript" xlink:href="https://kozea.github.io/pygal.js/2.0.x/pygal-tooltips.min.js"/></defs><title>TM Odoyo: Future and Past Averages in ODIs</title><g class="graph line-graph vertical"><rect class="background" height="600" width="800" x="0" y="0"/><g class="plot" transform="translate(48, 46)"><rect class="background" height="462.02943725152284" width="732.0" x="0" y="0"/><g class="axis y always_show"><g class="guides"><path class="axis major line" d="M0.000000 453.144256 h732.000000"/><text class="major" x="-5" y="456.6442557659166">0</text><title>0</title></g><g class="guides"><path class="guide line" d="M0.000000 422.715552 h732.000000"/><text class="" x="-5" y="426.21555204808715">10</text><title>10</title></g><g class="guides"><path class="guide line" d="M0.000000 392.286848 h732.000000"/><text class="" x="-5" y="395.78684833025767">20</text><title>20</title></g><g class="guides"><path class="guide line" d="M0.000000 361.858145 h732.000000"/><text class="" x="-5" y="365.3581446124282">30</text><title>30</title></g><g class="guides"><path class="guide line" d="M0.000000 331.429441 h732.000000"/><text class="" x="-5" y="334.92944089459866">40</text><title>40</title></g><g class="guides"><path class="major guide line" d="M0.000000 301.000737 h732.000000"/><text class="major" x="-5" y="304.5007371767692">50</text><title>50</title></g><g class="guides"><path class="guide line" d="M0.000000 270.572033 h732.000000"/><text class="" x="-5" y="274.0720334589397">60</text><title>60</title></g><g class="guides"><path class="guide line" d="M0.000000 240.143330 h732.000000"/><text class="" x="-5" y="243.64332974111022">70</text><title>70</title></g><g class="guides"><path class="guide line" d="M0.000000 209.714626 h732.000000"/><text class="" x="-5" y="213.21462602328074">80</text><title>80</title></g><g class="guides"><path class="guide line" d="M0.000000 179.285922 h732.000000"/><text class="" x="-5" y="182.78592230545127">90</text><title>90</title></g><g class="guides"><path class="major guide line" d="M0.000000 148.857219 h732.000000"/><text class="major" x="-5" y="152.35721858762173">100</text><title>100</title></g><g class="guides"><path class="guide line" d="M0.000000 118.428515 h732.000000"/><text class="" x="-5" y="121.92851486979225">110</text><title>110</title></g><g class="guides"><path class="guide line" d="M0.000000 87.999811 h732.000000"/><text class="" x="-5" y="91.49981115196277">120</text><title>120</title></g><g class="guides"><path class="guide line" d="M0.000000 57.571107 h732.000000"/><text class="" x="-5" y="61.07110743413335">130</text><title>130</title></g><g class="guides"><path class="guide line" d="M0.000000 27.142404 h732.000000"/><text class="" x="-5" y="30.642403716303875">140</text><title>140</title></g></g><g class="axis x"><g class="guides"><path class="major line" d="M14.076923 0.000000 v462.029437"/><text class="major" x="14.076923076923077" y="477.02943725152284" transform="rotate(45 14.076923 477.029437)">1996</text></g><g class="guides"><path class="major guide line" d="M58.067308 0.000000 v462.029437"/><text class="major" x="58.06730769230769" y="477.02943725152284" transform="rotate(45 58.067308 477.029437)">1997</text></g><g class="guides"><path class="major guide line" d="M91.060096 0.000000 v462.029437"/><text class="major" x="91.06009615384613" y="477.02943725152284" transform="rotate(45 91.060096 477.029437)">1998</text></g><g class="guides"><path class="major guide line" d="M118.554087 0.000000 v462.029437"/><text class="major" x="118.55408653846152" y="477.02943725152284" transform="rotate(45 118.554087 477.029437)">1999</text></g><g class="guides"><path class="major guide line" d="M190.038462 0.000000 v462.029437"/><text class="major" x="190.03846153846155" y="477.02943725152284" transform="rotate(45 190.038462 477.029437)">2000</text></g><g class="guides"><path class="major guide line" d="M195.537260 0.000000 v462.029437"/><text class="major" x="195.5372596153846" y="477.02943725152284" transform="rotate(45 195.537260 477.029437)">2001</text></g><g class="guides"><path class="major guide line" d="M245.026442 0.000000 v462.029437"/><text class="major" x="245.02644230769232" y="477.02943725152284" transform="rotate(45 245.026442 477.029437)">2002</text></g><g class="guides"><path class="major guide line" d="M283.518029 0.000000 v462.029437"/><text class="major" x="283.5180288461538" y="477.02943725152284" transform="rotate(45 283.518029 477.029437)">2003</text></g><g class="guides"><path class="major guide line" d="M338.506010 0.000000 v462.029437"/><text class="major" x="338.5060096153846" y="477.02943725152284" transform="rotate(45 338.506010 477.029437)">2004</text></g><g class="guides"><path class="major guide line" d="M349.503606 0.000000 v462.029437"/><text class="major" x="349.5036057692307" y="477.02943725152284" transform="rotate(45 349.503606 477.029437)">2005</text></g><g class="guides"><path class="major guide line" d="M355.002404 0.000000 v462.029437"/><text class="major" x="355.0024038461538" y="477.02943725152284" transform="rotate(45 355.002404 477.029437)">2006</text></g><g class="guides"><path class="major guide line" d="M442.983173 0.000000 v462.029437"/><text class="major" x="442.98317307692304" y="477.02943725152284" transform="rotate(45 442.983173 477.029437)">2007</text></g><g class="guides"><path class="major guide line" d="M541.961538 0.000000 v462.029437"/><text class="major" x="541.9615384615385" y="477.02943725152284" transform="rotate(45 541.961538 477.029437)">2008</text></g><g class="guides"><path class="major guide line" d="M574.954327 0.000000 v462.029437"/><text class="major" x="574.9543269230769" y="477.02943725152284" transform="rotate(45 574.954327 477.029437)">2009</text></g><g class="guides"><path class="major guide line" d="M640.939904 0.000000 v462.029437"/><text class="major" x="640.9399038461538" y="477.02943725152284" transform="rotate(45 640.939904 477.029437)">2010</text></g><g class="guides"><path class="major guide line" d="M690.429087 0.000000 v462.029437"/><text class="major" x="690.4290865384615" y="477.02943725152284" transform="rotate(45 690.429087 477.029437)">2011</text></g><g class="guides"><path class="major guide line" d="M712.424279 0.000000 v462.029437"/><text class="major" x="712.4242788461538" y="477.02943725152284" transform="rotate(45 712.424279 477.029437)">2014</text></g></g><g class="series serie-0 color-0"><path class="line reactive nofill" d="M14.076923 362.162432 L19.575721 362.649291 25.074519 363.866439 30.573317 364.049011 36.072115 364.201155 41.570913 364.535871 47.069712 365.235731 52.568510 363.927296 58.067308 364.444584 63.566106 364.840158 69.064904 365.327017 74.563702 365.022730 80.062500 365.844305 85.561298 365.540018 91.060096 365.966020 96.558894 366.392021 102.057692 367.152739 107.556490 366.544165 113.055288 367.091882 118.554087 367.974314 124.052885 367.274454 129.551683 367.091882 135.050481 366.696309 140.549279 366.726737 146.048077 367.031024 151.546875 366.605022 157.045673 367.517884 162.544471 368.978461 168.043269 368.735032 173.542067 368.035171 179.040865 368.156886 184.539663 368.339459 190.038462 368.582888 195.537260 369.069747 201.036058 369.678321 206.534856 370.591183 212.033654 371.230185 217.532452 370.408610 223.031250 371.412758 228.530048 372.660334 234.028846 371.595330 239.527644 372.995050 245.026442 372.629906 250.525240 373.055908 256.024038 373.421052 261.522837 372.964621 267.021635 374.090484 272.520433 375.368489 278.019231 375.642347 283.518029 376.798638 289.016827 377.833214 294.515625 375.581490 300.014423 375.824920 305.513221 376.098778 311.012019 375.338060 316.510817 375.916206 322.009615 376.585637 327.508413 376.981210 333.007212 377.437641 338.506010 378.046215 344.004808 377.802785 349.503606 378.533074 355.002404 377.468070 360.501202 378.715646 366.000000 378.137501 371.498798 375.733634 376.997596 374.668629 382.496394 375.520633 387.995192 376.281350 393.493990 375.855348 398.992788 376.037921 404.491587 376.372636 409.990385 377.102925 415.489183 377.042068 420.987981 374.029626 426.486779 373.755768 431.985577 372.812478 437.484375 368.674174 442.983173 367.091882 448.481971 367.670027 453.980769 370.652040 459.479567 370.499896 464.978365 367.487455 470.477163 370.804184 475.975962 373.634053 481.474760 369.556607 486.973558 369.465321 492.472356 369.769608 497.971154 369.769608 503.469952 369.739179 508.968750 373.329766 514.467548 375.733634 519.966346 376.342208 525.465144 376.190064 530.963942 377.224640 536.462740 371.777902 541.961538 372.995050 547.460337 371.899617 552.959135 370.652040 558.457933 371.504044 563.956731 370.104323 569.455529 372.021332 574.954327 374.546914 580.453125 377.863643 585.951923 378.898219 591.450721 382.032375 596.949519 383.949384 602.448317 378.076644 607.947115 381.119514 613.445913 381.758517 618.944712 380.237082 624.443510 372.508191 629.942308 372.660334 635.441106 374.759915 640.939904 382.001946 646.438702 379.202506 651.937500 375.216346 657.436298 383.675525 662.935096 378.502646 668.433894 370.286896 673.932692 372.264761 679.431490 364.596728 684.930288 361.858145 690.429087 348.378229 695.927885 359.241276 701.426683 320.018677 706.925481 333.711594 712.424279 371.747473 717.923077 399.376736"/></g><g class="series serie-1 color-1"><path class="line reactive nofill" d="M14.076923 453.144256 L19.575721 386.201108 25.074519 209.714626 30.573317 179.285922 36.072115 157.985830 41.570913 112.342774 47.069712 8.885181 52.568510 279.700645 58.067308 281.982797 63.566106 268.289881 69.064904 274.223478 74.563702 296.436432 80.062500 277.175062 85.561298 304.408752 91.060096 305.047755 96.558894 298.627298 102.057692 287.125248 107.556490 308.760057 113.055288 302.096171 118.554087 291.598268 124.052885 310.372778 129.551683 319.470960 135.050481 328.021426 140.549279 330.090578 146.048077 331.885871 151.546875 337.363038 157.045673 333.802880 162.544471 326.013132 168.043269 329.025573 173.542067 336.511034 179.040865 337.180466 184.539663 337.515182 190.038462 337.606468 195.537260 335.780746 201.036058 334.563597 206.534856 331.246869 212.033654 328.873430 217.532452 334.198453 223.031250 330.790438 228.530048 326.530420 234.028846 333.620308 239.527644 330.607866 245.026442 334.715741 250.525240 334.533169 256.024038 334.624455 261.522837 337.363038 267.021635 335.689459 272.520433 332.859590 278.019231 332.251016 283.518029 329.664576 289.016827 327.382423 294.515625 335.902460 300.014423 336.237176 305.513221 335.689459 311.012019 338.641044 316.510817 338.306328 322.009615 337.910755 327.508413 337.971612 333.007212 337.880326 338.506010 337.667325 344.004808 339.371333 349.503606 338.336757 355.002404 341.683914 360.501202 340.010335 366.000000 341.988201 371.498798 346.369934 376.997596 348.773802 382.496394 348.286943 387.995192 347.465368 393.493990 348.682516 398.992788 348.865088 404.491587 348.925946 409.990385 348.226085 415.489183 348.682516 420.987981 352.546961 426.486779 353.033821 431.985577 353.977110 437.484375 357.719841 442.983173 358.997846 448.481971 358.602273 453.980769 356.685265 459.479567 356.928695 464.978365 359.119561 470.477163 357.202553 475.975962 355.559403 481.474760 358.389272 486.973558 358.571845 492.472356 358.541416 497.971154 358.754417 503.469952 358.876132 508.968750 357.293839 514.467548 356.472264 519.966346 356.380978 525.465144 356.654836 530.963942 356.228834 536.462740 358.754417 541.961538 358.328415 547.460337 358.845703 552.959135 359.362991 558.457933 359.089133 563.956731 359.636849 569.455529 359.028275 574.954327 358.237129 580.453125 357.172124 585.951923 356.837408 591.450721 355.863690 596.949519 355.498546 602.448317 358.024128 607.947115 357.232982 613.445913 357.476411 618.944712 358.054557 624.443510 360.123709 629.942308 360.306281 635.441106 360.032422 640.939904 358.815274 646.438702 359.454277 651.937500 360.336709 657.436298 359.119561 662.935096 360.275852 668.433894 361.371285 673.932692 361.249571 679.431490 361.979859 684.930288 362.192860 690.429087 362.862292 695.927885 362.314575 701.426683 363.379580 706.925481 362.984007 712.424279 361.888573 717.923077 361.401714"/></g><g class="series serie-2 color-2"><path class="line reactive nofill" d="M14.076923 362.162432 L19.575721 362.162432 25.074519 362.162432 30.573317 362.162432 36.072115 362.162432 41.570913 362.162432 47.069712 362.162432 52.568510 362.162432 58.067308 362.162432 63.566106 362.162432 69.064904 362.162432 74.563702 362.162432 80.062500 362.162432 85.561298 362.162432 91.060096 362.162432 96.558894 362.162432 102.057692 362.162432 107.556490 362.162432 113.055288 362.162432 118.554087 362.162432 124.052885 362.162432 129.551683 362.162432 135.050481 362.162432 140.549279 362.162432 146.048077 362.162432 151.546875 362.162432 157.045673 362.162432 162.544471 362.162432 168.043269 362.162432 173.542067 362.162432 179.040865 362.162432 184.539663 362.162432 190.038462 362.162432 195.537260 362.162432 201.036058 362.162432 206.534856 362.162432 212.033654 362.162432 217.532452 362.162432 223.031250 362.162432 228.530048 362.162432 234.028846 362.162432 239.527644 362.162432 245.026442 362.162432 250.525240 362.162432 256.024038 362.162432 261.522837 362.162432 267.021635 362.162432 272.520433 362.162432 278.019231 362.162432 283.518029 362.162432 289.016827 362.162432 294.515625 362.162432 300.014423 362.162432 305.513221 362.162432 311.012019 362.162432 316.510817 362.162432 322.009615 362.162432 327.508413 362.162432 333.007212 362.162432 338.506010 362.162432 344.004808 362.162432 349.503606 362.162432 355.002404 362.162432 360.501202 362.162432 366.000000 362.162432 371.498798 362.162432 376.997596 362.162432 382.496394 362.162432 387.995192 362.162432 393.493990 362.162432 398.992788 362.162432 404.491587 362.162432 409.990385 362.162432 415.489183 362.162432 420.987981 362.162432 426.486779 362.162432 431.985577 362.162432 437.484375 362.162432 442.983173 362.162432 448.481971 362.162432 453.980769 362.162432 459.479567 362.162432 464.978365 362.162432 470.477163 362.162432 475.975962 362.162432 481.474760 362.162432 486.973558 362.162432 492.472356 362.162432 497.971154 362.162432 503.469952 362.162432 508.968750 362.162432 514.467548 362.162432 519.966346 362.162432 525.465144 362.162432 530.963942 362.162432 536.462740 362.162432 541.961538 362.162432 547.460337 362.162432 552.959135 362.162432 558.457933 362.162432 563.956731 362.162432 569.455529 362.162432 574.954327 362.162432 580.453125 362.162432 585.951923 362.162432 591.450721 362.162432 596.949519 362.162432 602.448317 362.162432 607.947115 362.162432 613.445913 362.162432 618.944712 362.162432 624.443510 362.162432 629.942308 362.162432 635.441106 362.162432 640.939904 362.162432 646.438702 362.162432 651.937500 362.162432 657.436298 362.162432 662.935096 362.162432 668.433894 362.162432 673.932692 362.162432 679.431490 362.162432 684.930288 362.162432 690.429087 362.162432 695.927885 362.162432 701.426683 362.162432 706.925481 362.162432 712.424279 362.162432 717.923077 362.162432"/></g></g><g class="titles"><text class="title plot_title" x="400.0" y="26">TM Odoyo: Future and Past Averages in ODIs</text></g><g class="plot overlay" transform="translate(48, 46)"><g class="series serie-0 color-0"><g class="dots"><desc class="label">145 wickets in 129 innings (941.3 overs)</desc><circle class="dot reactive tooltip-trigger" cx="14.076923076923077" cy="362.16243164960645" r="2.5"/><desc class="value">29.9</desc><desc class="x top">14.076923076923077</desc><desc class="y top">362.16243164960645</desc><desc class="x_label">1996</desc></g><g class="dots"><desc class="label">141 wickets in 121 innings (897.3 overs)</desc><circle class="dot reactive tooltip-trigger" cx="58.06730769230769" cy="364.4445844284437" r="2.5"/><desc class="value">29.15</desc><desc class="x top">58.06730769230769</desc><desc class="y top">364.4445844284437</desc><desc class="x_label">1997</desc></g><g class="dots"><desc class="label">136 wickets in 115 innings (859.3 overs)</desc><circle class="dot reactive tooltip-trigger" cx="91.06009615384613" cy="365.96601961433515" r="2.5"/><desc class="value">28.65</desc><desc class="x top">91.06009615384613</desc><desc class="y top">365.96601961433515</desc><desc class="x_label">1998</desc></g><g class="dots"><desc class="label">134 wickets in 110 innings (829.3 overs)</desc><circle class="dot reactive tooltip-trigger" cx="118.55408653846152" cy="367.9743140597119" r="2.5"/><desc class="value">27.99</desc><desc class="x top">118.55408653846152</desc><desc class="y top">367.9743140597119</desc><desc class="x_label">1999</desc></g><g class="dots"><desc class="label">115 wickets in 97 innings (707.1 overs)</desc><circle class="dot reactive tooltip-trigger" cx="190.03846153846155" cy="368.58288813406847" r="2.5"/><desc class="value">27.79</desc><desc class="x top">190.03846153846155</desc><desc class="y top">368.58288813406847</desc><desc class="x_label">2000</desc></g><g class="dots"><desc class="label">115 wickets in 96 innings (701.1 overs)</desc><circle class="dot reactive tooltip-trigger" cx="195.5372596153846" cy="369.06974739355377" r="2.5"/><desc class="value">27.63</desc><desc class="x top">195.5372596153846</desc><desc class="y top">369.06974739355377</desc><desc class="x_label">2001</desc></g><g class="dots"><desc class="label">105 wickets in 87 innings (632.3 overs)</desc><circle class="dot reactive tooltip-trigger" cx="245.02644230769232" cy="372.6299057285398" r="2.5"/><desc class="value">26.46</desc><desc class="x top">245.02644230769232</desc><desc class="y top">372.6299057285398</desc><desc class="x_label">2002</desc></g><g class="dots"><desc class="label">100 wickets in 80 innings (581.1 overs)</desc><circle class="dot reactive tooltip-trigger" cx="283.5180288461538" cy="376.79863813788245" r="2.5"/><desc class="value">25.09</desc><desc class="x top">283.5180288461538</desc><desc class="y top">376.79863813788245</desc><desc class="x_label">2003</desc></g><g class="dots"><desc class="label">88 wickets in 70 innings (498.1 overs)</desc><circle class="dot reactive tooltip-trigger" cx="338.5060096153846" cy="378.04621499031344" r="2.5"/><desc class="value">24.68</desc><desc class="x top">338.5060096153846</desc><desc class="y top">378.04621499031344</desc><desc class="x_label">2004</desc></g><g class="dots"><desc class="label">86 wickets in 68 innings (485.1 overs)</desc><circle class="dot reactive tooltip-trigger" cx="349.5036057692307" cy="378.53307424979874" r="2.5"/><desc class="value">24.52</desc><desc class="x top">349.5036057692307</desc><desc class="y top">378.53307424979874</desc><desc class="x_label">2005</desc></g><g class="dots"><desc class="label">83 wickets in 67 innings (475.1 overs)</desc><circle class="dot reactive tooltip-trigger" cx="355.0024038461538" cy="377.4680696196747" r="2.5"/><desc class="value">24.87</desc><desc class="x top">355.0024038461538</desc><desc class="y top">377.4680696196747</desc><desc class="x_label">2006</desc></g><g class="dots"><desc class="label">57 wickets in 51 innings (359.1 overs)</desc><circle class="dot reactive tooltip-trigger" cx="442.98317307692304" cy="367.0918816518948" r="2.5"/><desc class="value">28.28</desc><desc class="x left top">442.98317307692304</desc><desc class="y left top">367.0918816518948</desc><desc class="x_label">2007</desc></g><g class="dots"><desc class="label">38 wickets in 33 innings (222.4 overs)</desc><circle class="dot reactive tooltip-trigger" cx="541.9615384615385" cy="372.9950501731538" r="2.5"/><desc class="value">26.34</desc><desc class="x left top">541.9615384615385</desc><desc class="y left top">372.9950501731538</desc><desc class="x_label">2008</desc></g><g class="dots"><desc class="label">35 wickets in 27 innings (194.5 overs)</desc><circle class="dot reactive tooltip-trigger" cx="574.9543269230769" cy="374.54691406276305" r="2.5"/><desc class="value">25.83</desc><desc class="x left top">574.9543269230769</desc><desc class="y left top">374.54691406276305</desc><desc class="x_label">2009</desc></g><g class="dots"><desc class="label">21 wickets in 15 innings (111.5 overs)</desc><circle class="dot reactive tooltip-trigger" cx="640.9399038461538" cy="382.0019464736313" r="2.5"/><desc class="value">23.38</desc><desc class="x left top">640.9399038461538</desc><desc class="y left top">382.0019464736313</desc><desc class="x_label">2010</desc></g><g class="dots"><desc class="label">7 wickets in 6 innings (42.3 overs)</desc><circle class="dot reactive tooltip-trigger" cx="690.4290865384615" cy="348.3782288654297" r="2.5"/><desc class="value">34.43</desc><desc class="x left top">690.4290865384615</desc><desc class="y left top">348.3782288654297</desc><desc class="x_label">2011</desc></g><g class="dots"><desc class="label">4 wickets in 2 innings (17.3 overs)</desc><circle class="dot reactive tooltip-trigger" cx="712.4242788461538" cy="371.74747332072275" r="2.5"/><desc class="value">26.75</desc><desc class="x left top">712.4242788461538</desc><desc class="y left top">371.74747332072275</desc><desc class="x_label">2014</desc></g></g><g class="series serie-1 color-1"><g class="dots"><desc class="label">0 wickets over 0 innings</desc><circle class="dot reactive tooltip-trigger" cx="14.076923076923077" cy="453.1442557659166" r="2.5"/><desc class="value">0</desc><desc class="x top">14.076923076923077</desc><desc class="y top">453.1442557659166</desc><desc class="x_label">1996</desc></g><g class="dots"><desc class="label">4 wickets in 8 innings (44.0 overs)</desc><circle class="dot reactive tooltip-trigger" cx="58.06730769230769" cy="281.98279735312576" r="2.5"/><desc class="value">56.25</desc><desc class="x top">58.06730769230769</desc><desc class="y top">281.98279735312576</desc><desc class="x_label">1997</desc></g><g class="dots"><desc class="label">9 wickets in 14 innings (82.0 overs)</desc><circle class="dot reactive tooltip-trigger" cx="91.06009615384613" cy="305.04775477124053" r="2.5"/><desc class="value">48.67</desc><desc class="x top">91.06009615384613</desc><desc class="y top">305.04775477124053</desc><desc class="x_label">1998</desc></g><g class="dots"><desc class="label">11 wickets in 19 innings (112.0 overs)</desc><circle class="dot reactive tooltip-trigger" cx="118.55408653846152" cy="291.59826772795986" r="2.5"/><desc class="value">53.09</desc><desc class="x top">118.55408653846152</desc><desc class="y top">291.59826772795986</desc><desc class="x_label">1999</desc></g><g class="dots"><desc class="label">30 wickets in 32 innings (234.2 overs)</desc><circle class="dot reactive tooltip-trigger" cx="190.03846153846155" cy="337.6064677493181" r="2.5"/><desc class="value">37.97</desc><desc class="x top">190.03846153846155</desc><desc class="y top">337.6064677493181</desc><desc class="x_label">2000</desc></g><g class="dots"><desc class="label">30 wickets in 33 innings (240.2 overs)</desc><circle class="dot reactive tooltip-trigger" cx="195.5372596153846" cy="335.78074552624827" r="2.5"/><desc class="value">38.57</desc><desc class="x top">195.5372596153846</desc><desc class="y top">335.78074552624827</desc><desc class="x_label">2001</desc></g><g class="dots"><desc class="label">40 wickets in 42 innings (309.0 overs)</desc><circle class="dot reactive tooltip-trigger" cx="245.02644230769232" cy="334.71574089612426" r="2.5"/><desc class="value">38.92</desc><desc class="x top">245.02644230769232</desc><desc class="y top">334.71574089612426</desc><desc class="x_label">2002</desc></g><g class="dots"><desc class="label">45 wickets in 49 innings (360.2 overs)</desc><circle class="dot reactive tooltip-trigger" cx="283.5180288461538" cy="329.6645760789646" r="2.5"/><desc class="value">40.58</desc><desc class="x top">283.5180288461538</desc><desc class="y top">329.6645760789646</desc><desc class="x_label">2003</desc></g><g class="dots"><desc class="label">57 wickets in 59 innings (443.2 overs)</desc><circle class="dot reactive tooltip-trigger" cx="338.5060096153846" cy="337.6673251567537" r="2.5"/><desc class="value">37.95</desc><desc class="x top">338.5060096153846</desc><desc class="y top">337.6673251567537</desc><desc class="x_label">2004</desc></g><g class="dots"><desc class="label">59 wickets in 61 innings (456.2 overs)</desc><circle class="dot reactive tooltip-trigger" cx="349.5036057692307" cy="338.336756638546" r="2.5"/><desc class="value">37.73</desc><desc class="x top">349.5036057692307</desc><desc class="y top">338.336756638546</desc><desc class="x_label">2005</desc></g><g class="dots"><desc class="label">62 wickets in 62 innings (466.2 overs)</desc><circle class="dot reactive tooltip-trigger" cx="355.0024038461538" cy="341.6839140475072" r="2.5"/><desc class="value">36.63</desc><desc class="x top">355.0024038461538</desc><desc class="y top">341.6839140475072</desc><desc class="x_label">2006</desc></g><g class="dots"><desc class="label">88 wickets in 78 innings (582.2 overs)</desc><circle class="dot reactive tooltip-trigger" cx="442.98317307692304" cy="358.9978464629522" r="2.5"/><desc class="value">30.94</desc><desc class="x left top">442.98317307692304</desc><desc class="y left top">358.9978464629522</desc><desc class="x_label">2007</desc></g><g class="dots"><desc class="label">107 wickets in 96 innings (718.5 overs)</desc><circle class="dot reactive tooltip-trigger" cx="541.9615384615385" cy="358.32841498115994" r="2.5"/><desc class="value">31.16</desc><desc class="x left top">541.9615384615385</desc><desc class="y left top">358.32841498115994</desc><desc class="x_label">2008</desc></g><g class="dots"><desc class="label">110 wickets in 102 innings (746.4 overs)</desc><circle class="dot reactive tooltip-trigger" cx="574.9543269230769" cy="358.2371288700065" r="2.5"/><desc class="value">31.19</desc><desc class="x left top">574.9543269230769</desc><desc class="y left top">358.2371288700065</desc><desc class="x_label">2009</desc></g><g class="dots"><desc class="label">124 wickets in 114 innings (829.4 overs)</desc><circle class="dot reactive tooltip-trigger" cx="640.9399038461538" cy="358.8152742406452" r="2.5"/><desc class="value">31</desc><desc class="x left top">640.9399038461538</desc><desc class="y left top">358.8152742406452</desc><desc class="x_label">2010</desc></g><g class="dots"><desc class="label">138 wickets in 123 innings (899.0 overs)</desc><circle class="dot reactive tooltip-trigger" cx="690.4290865384615" cy="362.86229183511654" r="2.5"/><desc class="value">29.67</desc><desc class="x left top">690.4290865384615</desc><desc class="y left top">362.86229183511654</desc><desc class="x_label">2011</desc></g><g class="dots"><desc class="label">141 wickets in 127 innings (924.0 overs)</desc><circle class="dot reactive tooltip-trigger" cx="712.4242788461538" cy="361.888573316146" r="2.5"/><desc class="value">29.99</desc><desc class="x left top">712.4242788461538</desc><desc class="y left top">361.888573316146</desc><desc class="x_label">2014</desc></g></g><g class="series serie-2 color-2"/></g><g class="plot text-overlay" transform="translate(48, 46)"><g class="series serie-0 color-0"/><g class="series serie-1 color-1"/><g class="series serie-2 color-2"/></g><g class="plot tooltip-overlay" transform="translate(48, 46)"><g class="tooltip" style="opacity: 0" transform="translate(0 0)"><rect class="tooltip-box" height="0" rx="10" ry="10" width="0"/><g class="text"/></g></g><g class="legends" transform="translate(58, 545)"><g class="legend reactive activate-serie" id="activate-serie-0"><rect class="color-0 reactive" height="12" width="12" x="0.0" y="1.0"/><text x="17.0" y="11.2">Future Average</text></g><g class="legend reactive activate-serie" id="activate-serie-1"><rect class="color-1 reactive" height="12" width="12" x="366.0" y="1.0"/><text x="383.0" y="11.2">Past Average</text></g><g class="legend reactive activate-serie" id="activate-serie-2"><rect class="color-2 reactive" height="12" width="12" x="0.0" y="22.0"/><text x="17.0" y="32.2">Career Average</text></g></g></g></svg>