<?xml version='1.0' encoding='utf-8'?>
<svg xmlns:xlink="http://www.w3.org/1999/xlink" xmlns="http://www.w3.org/2000/svg" id="chart-92feb43e-c968-4263-888b-ff5b44e5014c" class="pygal-chart" viewBox="0 0 800 600"><!--Generated with pygal 2.4.0 (lxml) ©Kozea 2012-2016 on 2019-08-04--><!--http://pygal.org--><!--http://github.com/Kozea/pygal--><defs><style type="text/css">#chart-92feb43e-c968-4263-888b-ff5b44e5014c{-webkit-user-select:none;-webkit-font-smoothing:antialiased;font-family:Consolas,"Liberation Mono",Menlo,Courier,monospace}#chart-92feb43e-c968-4263-888b-ff5b44e5014c .title{font-family:Consolas,"Liberation Mono",Menlo,Courier,monospace;font-size:16px}#chart-92feb43e-c968-4263-888b-ff5b44e5014c .legends .legend text{font-family:Consolas,"Liberation Mono",Menlo,Courier,monospace;font-size:14px}#chart-92feb43e-c968-4263-888b-ff5b44e5014c .axis text{font-family:Consolas,"Liberation Mono",Menlo,Courier,monospace;font-size:10px}#chart-92feb43e-c968-4263-888b-ff5b44e5014c .axis text.major{font-family:Consolas,"Liberation Mono",Menlo,Courier,monospace;font-size:10px}#chart-92feb43e-c968-4263-888b-ff5b44e5014c .text-overlay text.value{font-family:Consolas,"Liberation Mono",Menlo,Courier,monospace;font-size:16px}#chart-92feb43e-c968-4263-888b-ff5b44e5014c .text-overlay text.label{font-family:Consolas,"Liberation Mono",Menlo,Courier,monospace;font-size:10px}#chart-92feb43e-c968-4263-888b-ff5b44e5014c .tooltip{font-family:Consolas,"Liberation Mono",Menlo,Courier,monospace;font-size:14px}#chart-92feb43e-c968-4263-888b-ff5b44e5014c text.no_data{font-family:Consolas,"Liberation Mono",Menlo,Courier,monospace;font-size:64px}
#chart-92feb43e-c968-4263-888b-ff5b44e5014c{background-color:rgba(249,249,249,1)}#chart-92feb43e-c968-4263-888b-ff5b44e5014c path,#chart-92feb43e-c968-4263-888b-ff5b44e5014c line,#chart-92feb43e-c968-4263-888b-ff5b44e5014c rect,#chart-92feb43e-c968-4263-888b-ff5b44e5014c circle{-webkit-transition:150ms;-moz-transition:150ms;transition:150ms}#chart-92feb43e-c968-4263-888b-ff5b44e5014c .graph &gt; .background{fill:rgba(249,249,249,1)}#chart-92feb43e-c968-4263-888b-ff5b44e5014c .plot &gt; .background{fill:rgba(255,255,255,1)}#chart-92feb43e-c968-4263-888b-ff5b44e5014c .graph{fill:rgba(0,0,0,.87)}#chart-92feb43e-c968-4263-888b-ff5b44e5014c text.no_data{fill:rgba(0,0,0,1)}#chart-92feb43e-c968-4263-888b-ff5b44e5014c .title{fill:rgba(0,0,0,1)}#chart-92feb43e-c968-4263-888b-ff5b44e5014c .legends .legend text{fill:rgba(0,0,0,.87)}#chart-92feb43e-c968-4263-888b-ff5b44e5014c .legends .legend:hover text{fill:rgba(0,0,0,1)}#chart-92feb43e-c968-4263-888b-ff5b44e5014c .axis .line{stroke:rgba(0,0,0,1)}#chart-92feb43e-c968-4263-888b-ff5b44e5014c .axis .guide.line{stroke:rgba(0,0,0,.54)}#chart-92feb43e-c968-4263-888b-ff5b44e5014c .axis .major.line{stroke:rgba(0,0,0,.87)}#chart-92feb43e-c968-4263-888b-ff5b44e5014c .axis text.major{fill:rgba(0,0,0,1)}#chart-92feb43e-c968-4263-888b-ff5b44e5014c .axis.y .guides:hover .guide.line,#chart-92feb43e-c968-4263-888b-ff5b44e5014c .line-graph .axis.x .guides:hover .guide.line,#chart-92feb43e-c968-4263-888b-ff5b44e5014c .stackedline-graph .axis.x .guides:hover .guide.line,#chart-92feb43e-c968-4263-888b-ff5b44e5014c .xy-graph .axis.x .guides:hover .guide.line{stroke:rgba(0,0,0,1)}#chart-92feb43e-c968-4263-888b-ff5b44e5014c .axis .guides:hover text{fill:rgba(0,0,0,1)}#chart-92feb43e-c968-4263-888b-ff5b44e5014c .reactive{fill-opacity:.7;stroke-opacity:.8}#chart-92feb43e-c968-4263-888b-ff5b44e5014c .ci{stroke:rgba(0,0,0,.87)}#chart-92feb43e-c968-4263-888b-ff5b44e5014c .reactive.active,#chart-92feb43e-c968-4263-888b-ff5b44e5014c .active .reactive{fill-opacity:.8;stroke-opacity:.9;stroke-width:4}#chart-92feb43e-c968-4263-888b-ff5b44e5014c .ci .reactive.active{stroke-width:1.5}#chart-92feb43e-c968-4263-888b-ff5b44e5014c .series text{fill:rgba(0,0,0,1)}#chart-92feb43e-c968-4263-888b-ff5b44e5014c .tooltip rect{fill:rgba(255,255,255,1);stroke:rgba(0,0,0,1);-webkit-transition:opacity 150ms;-moz-transition:opacity 150ms;transition:opacity 150ms}#chart-92feb43e-c968-4263-888b-ff5b44e5014c .tooltip .label{fill:rgba(0,0,0,.87)}#chart-92feb43e-c968-4263-888b-ff5b44e5014c .tooltip .label{fill:rgba(0,0,0,.87)}#chart-92feb43e-c968-4263-888b-ff5b44e5014c .tooltip .legend{font-size:.8em;fill:rgba(0,0,0,.54)}#chart-92feb43e-c968-4263-888b-ff5b44e5014c .tooltip .x_label{font-size:.6em;fill:rgba(0,0,0,1)}#chart-92feb43e-c968-4263-888b-ff5b44e5014c .tooltip .xlink{font-size:.5em;text-decoration:underline}#chart-92feb43e-c968-4263-888b-ff5b44e5014c .tooltip .value{font-size:1.5em}#chart-92feb43e-c968-4263-888b-ff5b44e5014c .bound{font-size:.5em}#chart-92feb43e-c968-4263-888b-ff5b44e5014c .max-value{font-size:.75em;fill:rgba(0,0,0,.54)}#chart-92feb43e-c968-4263-888b-ff5b44e5014c .map-element{fill:rgba(255,255,255,1);stroke:rgba(0,0,0,.54) !important}#chart-92feb43e-c968-4263-888b-ff5b44e5014c .map-element .reactive{fill-opacity:inherit;stroke-opacity:inherit}#chart-92feb43e-c968-4263-888b-ff5b44e5014c .color-0,#chart-92feb43e-c968-4263-888b-ff5b44e5014c .color-0 a:visited{stroke:red;fill:red}#chart-92feb43e-c968-4263-888b-ff5b44e5014c .color-1,#chart-92feb43e-c968-4263-888b-ff5b44e5014c .color-1 a:visited{stroke:blue;fill:blue}#chart-92feb43e-c968-4263-888b-ff5b44e5014c .color-2,#chart-92feb43e-c968-4263-888b-ff5b44e5014c .color-2 a:visited{stroke:green;fill:green}#chart-92feb43e-c968-4263-888b-ff5b44e5014c .text-overlay .color-0 text{fill:white}#chart-92feb43e-c968-4263-888b-ff5b44e5014c .text-overlay .color-1 text{fill:white}#chart-92feb43e-c968-4263-888b-ff5b44e5014c .text-overlay .color-2 text{fill:white}
#chart-92feb43e-c968-4263-888b-ff5b44e5014c text.no_data{text-anchor:middle}#chart-92feb43e-c968-4263-888b-ff5b44e5014c .guide.line{fill:none}#chart-92feb43e-c968-4263-888b-ff5b44e5014c .centered{text-anchor:middle}#chart-92feb43e-c968-4263-888b-ff5b44e5014c .title{text-anchor:middle}#chart-92feb43e-c968-4263-888b-ff5b44e5014c .legends .legend text{fill-opacity:1}#chart-92feb43e-c968-4263-888b-ff5b44e5014c .axis.x text{text-anchor:middle}#chart-92feb43e-c968-4263-888b-ff5b44e5014c .axis.x:not(.web) text[transform]{text-anchor:start}#chart-92feb43e-c968-4263-888b-ff5b44e5014c .axis.x:not(.web) text[transform].backwards{text-anchor:end}#chart-92feb43e-c968-4263-888b-ff5b44e5014c .axis.y text{text-anchor:end}#chart-92feb43e-c968-4263-888b-ff5b44e5014c .axis.y text[transform].backwards{text-anchor:start}#chart-92feb43e-c968-4263-888b-ff5b44e5014c .axis.y2 text{text-anchor:start}#chart-92feb43e-c968-4263-888b-ff5b44e5014c .axis.y2 text[transform].backwards{text-anchor:end}#chart-92feb43e-c968-4263-888b-ff5b44e5014c .axis .guide.line{stroke-dasharray:4,4}#chart-92feb43e-c968-4263-888b-ff5b44e5014c .axis .major.guide.line{stroke-dasharray:6,6}#chart-92feb43e-c968-4263-888b-ff5b44e5014c .horizontal .axis.y .guide.line,#chart-92feb43e-c968-4263-888b-ff5b44e5014c .horizontal .axis.y2 .guide.line,#chart-92feb43e-c968-4263-888b-ff5b44e5014c .vertical .axis.x .guide.line{opacity:0}#chart-92feb43e-c968-4263-888b-ff5b44e5014c .horizontal .axis.always_show .guide.line,#chart-92feb43e-c968-4263-888b-ff5b44e5014c .vertical .axis.always_show .guide.line{opacity:1 !important}#chart-92feb43e-c968-4263-888b-ff5b44e5014c .axis.y .guides:hover .guide.line,#chart-92feb43e-c968-4263-888b-ff5b44e5014c .axis.y2 .guides:hover .guide.line,#chart-92feb43e-c968-4263-888b-ff5b44e5014c .axis.x .guides:hover .guide.line{opacity:1}#chart-92feb43e-c968-4263-888b-ff5b44e5014c .axis .guides:hover text{opacity:1}#chart-92feb43e-c968-4263-888b-ff5b44e5014c .nofill{fill:none}#chart-92feb43e-c968-4263-888b-ff5b44e5014c .subtle-fill{fill-opacity:.2}#chart-92feb43e-c968-4263-888b-ff5b44e5014c .dot{stroke-width:1px;fill-opacity:1}#chart-92feb43e-c968-4263-888b-ff5b44e5014c .dot.active{stroke-width:5px}#chart-92feb43e-c968-4263-888b-ff5b44e5014c .dot.negative{fill:transparent}#chart-92feb43e-c968-4263-888b-ff5b44e5014c text,#chart-92feb43e-c968-4263-888b-ff5b44e5014c tspan{stroke:none !important}#chart-92feb43e-c968-4263-888b-ff5b44e5014c .series text.active{opacity:1}#chart-92feb43e-c968-4263-888b-ff5b44e5014c .tooltip rect{fill-opacity:.95;stroke-width:.5}#chart-92feb43e-c968-4263-888b-ff5b44e5014c .tooltip text{fill-opacity:1}#chart-92feb43e-c968-4263-888b-ff5b44e5014c .showable{visibility:hidden}#chart-92feb43e-c968-4263-888b-ff5b44e5014c .showable.shown{visibility:visible}#chart-92feb43e-c968-4263-888b-ff5b44e5014c .gauge-background{fill:rgba(229,229,229,1);stroke:none}#chart-92feb43e-c968-4263-888b-ff5b44e5014c .bg-lines{stroke:rgba(249,249,249,1);stroke-width:2px}</style><script type="text/javascript">window.pygal = window.pygal || {};window.pygal.config = window.pygal.config || {};window.pygal.config['92feb43e-c968-4263-888b-ff5b44e5014c'] = {"allow_interruptions": false, "box_mode": "extremes", "classes": ["pygal-chart"], "css": ["file://style.css", "file://graph.css"], "defs": [], "disable_xml_declaration": false, "dots_size": 2.5, "dynamic_print_values": false, "explicit_size": false, "fill": false, "force_uri_protocol": "https", "formatter": null, "half_pie": false, "height": 600, "include_x_axis": false, "inner_radius": 0, "interpolate": null, "interpolation_parameters": {}, "interpolation_precision": 250, "inverse_y_axis": false, "js": ["//kozea.github.io/pygal.js/2.0.x/pygal-tooltips.min.js"], "legend_at_bottom": true, "legend_at_bottom_columns": null, "legend_box_size": 12, "logarithmic": false, "margin": 20, "margin_bottom": null, "margin_left": null, "margin_right": null, "margin_top": null, "max_scale": 16, "min_scale": 4, "missing_value_fill_truncation": "x", "no_data_text": "No data", "no_prefix": false, "order_min": null, "pretty_print": false, "print_labels": false, "print_values": false, "print_values_position": "center", "print_zeroes": true, "range": null, "rounded_bars": null, "secondary_range": null, "show_dots": true, "show_legend": true, "show_minor_x_labels": false, "show_minor_y_labels": true, "show_only_major_dots": false, "show_x_guides": false, "show_x_labels": true, "show_y_guides": true, "show_y_labels": true, "spacing": 10, "stack_from_top": false, "strict": false, "stroke": true, "stroke_style": null, "style": {"background": "rgba(249, 249, 249, 1)", "ci_colors": [], "colors": ["red", "blue", "green", "#a3a3a3"], "font_family": "Consolas, \"Liberation Mono\", Menlo, Courier, monospace", "foreground": "rgba(0, 0, 0, .87)", "foreground_strong": "rgba(0, 0, 0, 1)", "foreground_subtle": "rgba(0, 0, 0, .54)", "guide_stroke_dasharray": "4,4", "label_font_family": "Consolas, \"Liberation Mono\", Menlo, Courier, monospace", "label_font_size": 10, "legend_font_family": "Consolas, \"Liberation Mono\", Menlo, Courier, monospace", "legend_font_size": 14, "major_guide_stroke_dasharray": "6,6", "major_label_font_family": "Consolas, \"Liberation Mono\", Menlo, Courier, monospace", "major_label_font_size": 10, "no_data_font_family": "Consolas, \"Liberation Mono\", Menlo, Courier, monospace", "no_data_font_size": 64, "opacity": ".7", "opacity_hover": ".8", "plot_background": "rgba(255, 255, 255, 1)", "stroke_opacity": ".8", "stroke_opacity_hover": ".9", "title_font_family": "Consolas, \"Liberation Mono\", Menlo, Courier, monospace", "title_font_size": 16, "tooltip_font_family": "Consolas, \"Liberation Mono\", Menlo, Courier, monospace", "tooltip_font_size": 14, "transition": "150ms", "value_background": "rgba(229, 229, 229, 1)", "value_colors": [], "value_font_family": "Consolas, \"Liberation Mono\", Menlo, Courier, monospace", "value_font_size": 16, "value_label_font_family": "Consolas, \"Liberation Mono\", Menlo, Courier, monospace", "value_label_font_size": 10}, "title": "UDU Chandana: Future and Past Averages in ODIs", "tooltip_border_radius": 10, "tooltip_fancy_mode": true, "truncate_label": null, "truncate_legend": null, "width": 800, "x_label_rotation": 45, "x_labels": ["1996", "0", "0", "0", "0", "0", "0", "0", "0", "0", "1997", "0", "0", "0", "0", "0", "0", "0", "1998", "0", "0", "0", "0", "0", "0", "0", "0", "0", "0", "0", "0", "1999", "0", "0", "0", "0", "0", "0", "0", "0", "0", "0", "0", "0", "0", "0", "0", "0", "0", "0", "0", "0", "0", "0", "0", "0", "0", "2000", "0", "0", "0", "0", "0", "0", "0", "0", "0", "0", "0", "2001", "0", "0", "2002", "0", "0", "0", "0", "0", "0", "0", "0", "0", "0", "0", "0", "0", "0", "0", "0", "0", "0", "0", "0", "2003", "0", "0", "2004", "0", "0", "0", "0", "0", "0", "0", "0", "0", "0", "0", "0", "0", "0", "0", "0", "0", "0", "0", "0", "0", "0", "0", "0", "0", "0", "2005", "0", "0", "0", "0", "0", "0", "0", "0", "0", "0", "0", "2007"], "x_labels_major": ["1996", "1997", "1998", "1999", "2000", "2001", "2002", "2003", "2004", "2005", "2007"], "x_labels_major_count": null, "x_labels_major_every": null, "x_title": null, "xrange": null, "y_label_rotation": 0, "y_labels": null, "y_labels_major": null, "y_labels_major_count": null, "y_labels_major_every": null, "y_title": null, "zero": 120.0, "legends": ["Future Average", "Past Average", "Career Average"]}</script><script type="text/javascript" xlink:href="https://kozea.github.io/pygal.js/2.0.x/pygal-tooltips.min.js"/></defs><title>UDU Chandana: Future and Past Averages in ODIs</title><g class="graph line-graph vertical"><rect class="background" height="600" width="800" x="0" y="0"/><g class="plot" transform="translate(48, 46)"><rect class="background" height="462.02943725152284" width="732.0" x="0" y="0"/><g class="axis y always_show"><g class="guides"><path class="axis major line" d="M0.000000 453.144256 h732.000000"/><text class="major" x="-5" y="456.6442557659166">0</text><title>0</title></g><g class="guides"><path class="guide line" d="M0.000000 413.829293 h732.000000"/><text class="" x="-5" y="417.32929344022546">10</text><title>10</title></g><g class="guides"><path class="guide line" d="M0.000000 374.514331 h732.000000"/><text class="" x="-5" y="378.01433111453423">20</text><title>20</title></g><g class="guides"><path class="guide line" d="M0.000000 335.199369 h732.000000"/><text class="" x="-5" y="338.6993687888431">30</text><title>30</title></g><g class="guides"><path class="guide line" d="M0.000000 295.884406 h732.000000"/><text class="" x="-5" y="299.3844064631519">40</text><title>40</title></g><g class="guides"><path class="major guide line" d="M0.000000 256.569444 h732.000000"/><text class="major" x="-5" y="260.06944413746066">50</text><title>50</title></g><g class="guides"><path class="guide line" d="M0.000000 217.254482 h732.000000"/><text class="" x="-5" y="220.75448181176952">60</text><title>60</title></g><g class="guides"><path class="guide line" d="M0.000000 177.939519 h732.000000"/><text class="" x="-5" y="181.43951948607832">70</text><title>70</title></g><g class="guides"><path class="guide line" d="M0.000000 138.624557 h732.000000"/><text class="" x="-5" y="142.12455716038716">80</text><title>80</title></g><g class="guides"><path class="guide line" d="M0.000000 99.309595 h732.000000"/><text class="" x="-5" y="102.80959483469593">90</text><title>90</title></g><g class="guides"><path class="major guide line" d="M0.000000 59.994633 h732.000000"/><text class="major" x="-5" y="63.49463250900476">100</text><title>100</title></g><g class="guides"><path class="guide line" d="M0.000000 20.679670 h732.000000"/><text class="" x="-5" y="24.17967018331359">110</text><title>110</title></g></g><g class="axis x"><g class="guides"><path class="major line" d="M14.076923 0.000000 v462.029437"/><text class="major" x="14.076923076923077" y="477.02943725152284" transform="rotate(45 14.076923 477.029437)">1996</text></g><g class="guides"><path class="major guide line" d="M66.213675 0.000000 v462.029437"/><text class="major" x="66.21367521367522" y="477.02943725152284" transform="rotate(45 66.213675 477.029437)">1997</text></g><g class="guides"><path class="major guide line" d="M107.923077 0.000000 v462.029437"/><text class="major" x="107.92307692307692" y="477.02943725152284" transform="rotate(45 107.923077 477.029437)">1998</text></g><g class="guides"><path class="major guide line" d="M175.700855 0.000000 v462.029437"/><text class="major" x="175.7008547008547" y="477.02943725152284" transform="rotate(45 175.700855 477.029437)">1999</text></g><g class="guides"><path class="major guide line" d="M311.256410 0.000000 v462.029437"/><text class="major" x="311.2564102564103" y="477.02943725152284" transform="rotate(45 311.256410 477.029437)">2000</text></g><g class="guides"><path class="major guide line" d="M373.820513 0.000000 v462.029437"/><text class="major" x="373.82051282051276" y="477.02943725152284" transform="rotate(45 373.820513 477.029437)">2001</text></g><g class="guides"><path class="major guide line" d="M389.461538 0.000000 v462.029437"/><text class="major" x="389.46153846153845" y="477.02943725152284" transform="rotate(45 389.461538 477.029437)">2002</text></g><g class="guides"><path class="major guide line" d="M498.948718 0.000000 v462.029437"/><text class="major" x="498.9487179487179" y="477.02943725152284" transform="rotate(45 498.948718 477.029437)">2003</text></g><g class="guides"><path class="major guide line" d="M514.589744 0.000000 v462.029437"/><text class="major" x="514.5897435897436" y="477.02943725152284" transform="rotate(45 514.589744 477.029437)">2004</text></g><g class="guides"><path class="major guide line" d="M655.358974 0.000000 v462.029437"/><text class="major" x="655.3589743589744" y="477.02943725152284" transform="rotate(45 655.358974 477.029437)">2005</text></g><g class="guides"><path class="major guide line" d="M717.923077 0.000000 v462.029437"/><text class="major" x="717.9230769230769" y="477.02943725152284" transform="rotate(45 717.923077 477.029437)">2007</text></g></g><g class="series serie-0 color-0"><path class="line reactive nofill" d="M14.076923 327.690211 L19.290598 328.240620 24.504274 329.616644 29.717949 329.813219 34.931624 328.319250 40.145299 329.616644 45.358974 327.100487 50.572650 327.729526 55.786325 327.768841 61.000000 328.240620 66.213675 328.869660 71.427350 329.498699 76.641026 328.869660 81.854701 329.066235 87.068376 327.257746 92.282051 327.886786 97.495726 327.847471 102.709402 328.830345 107.923077 329.420069 113.136752 326.550077 118.350427 325.842408 123.564103 326.432132 128.777778 324.898849 133.991453 326.235557 139.205128 325.803093 144.418803 326.117612 149.632479 323.719400 154.846154 322.382691 160.059829 322.343376 165.273504 322.500636 170.487179 323.522825 175.700855 322.618581 180.914530 322.893786 186.128205 325.016794 191.341880 326.353502 196.555556 327.886786 201.769231 329.341439 206.982906 328.673085 212.196581 330.049109 217.410256 327.886786 222.623932 327.336376 227.837607 328.987605 233.051282 328.594455 238.264957 329.144865 243.478632 330.127739 248.692308 330.599518 253.905983 330.992668 259.119658 329.931164 264.333333 327.572266 269.547009 328.279935 274.760684 327.021857 279.974359 328.161991 285.188034 328.437195 290.401709 326.038983 295.615385 324.427069 300.829060 320.888723 306.042735 320.495573 311.256410 320.456258 316.470085 320.652833 321.683761 320.377628 326.897436 321.006667 332.111111 321.832282 337.324786 323.247620 342.538462 323.758715 347.752137 319.276809 352.965812 321.360502 358.179487 318.883659 363.393162 318.136675 368.606838 319.945163 373.820513 322.264746 379.034188 320.849408 384.247863 323.129675 389.461538 324.073234 394.675214 325.134738 399.888889 326.903912 405.102564 327.454321 410.316239 327.218431 415.529915 328.083361 420.743590 330.560203 425.957265 331.425132 431.170940 333.784030 436.384615 335.671148 441.598291 335.395944 446.811966 336.221558 452.025641 330.678148 457.239316 331.582392 462.452991 331.464447 467.666667 329.970479 472.880342 330.245684 478.094017 325.724463 483.307692 326.510762 488.521368 329.262809 493.735043 330.914038 498.948718 334.373755 504.162393 337.361692 509.376068 337.007857 514.589744 334.177180 519.803419 333.076361 525.017094 333.862660 530.230769 336.889912 535.444444 332.250747 540.658120 332.919101 545.871795 334.059235 551.085470 335.946353 556.299145 332.368692 561.512821 331.149928 566.726496 319.355439 571.940171 323.876660 577.153846 327.100487 582.367521 331.621707 587.581197 336.457448 592.794872 329.380754 598.008547 327.218431 603.222222 328.673085 608.435897 332.211432 613.649573 332.093487 618.863248 316.210242 624.076923 310.470257 629.290598 322.461321 634.504274 328.279935 639.717949 310.745462 644.931624 312.750525 650.145299 298.400564 655.358974 295.294682 660.572650 290.655516 665.786325 299.108233 671.000000 295.884406 676.213675 280.630201 681.427350 248.038097 686.641026 182.853890 691.854701 226.100348 697.068376 28.542663 702.282051 109.138335 707.495726 272.295429 712.709402 217.254482 717.923077 343.062361"/></g><g class="series serie-1 color-1"><path class="line reactive nofill" d="M14.076923 453.144256 L19.290598 370.582835 24.504274 166.145031 29.717949 8.885181 34.931624 304.730273 40.145299 257.552318 45.358974 338.147991 50.572650 327.336376 55.786325 326.903912 61.000000 319.473384 66.213675 308.976289 71.427350 299.383438 76.641026 312.671895 81.854701 311.924911 87.068376 331.778967 92.282051 326.038983 97.495726 326.353502 102.709402 318.765715 107.923077 314.165864 113.136752 334.806219 118.350427 337.951416 123.564103 334.373755 128.777778 340.585519 133.991453 334.452385 139.205128 336.024983 144.418803 334.373755 149.632479 342.590582 154.846154 346.050298 160.059829 345.421259 165.273504 344.281125 170.487179 340.978668 175.700855 342.865786 180.914530 341.568393 186.128205 335.395944 191.341880 331.582392 196.555556 327.139802 201.769231 323.011730 206.982906 325.134738 212.196581 321.399817 217.410256 327.257746 222.623932 328.515825 227.837607 324.780904 233.051282 325.763778 238.264957 324.623644 243.478632 322.500636 248.692308 321.439132 253.905983 320.613518 259.119658 323.168990 264.333333 327.926101 269.547009 326.668022 274.760684 328.869660 279.974359 326.903912 285.188034 326.510762 290.401709 330.206369 295.615385 332.408006 300.829060 336.693337 306.042735 336.968542 311.256410 336.771967 316.470085 336.300188 321.683761 336.378818 326.897436 335.671148 332.111111 334.688274 337.324786 332.958416 342.538462 332.290062 347.752137 336.457448 352.965812 334.295125 358.179487 336.378818 363.393162 336.654022 368.606838 334.963479 373.820513 332.761841 379.034188 333.784030 384.247863 331.739652 389.461538 330.914038 394.675214 330.009794 399.888889 328.437195 405.102564 327.926101 410.316239 328.122676 415.529915 327.375691 420.743590 325.331313 425.957265 324.702274 431.170940 322.854471 436.384615 321.360502 441.598291 321.753652 446.811966 321.242557 452.025641 325.606518 457.239316 325.056109 462.452991 325.213368 467.666667 326.274872 472.880342 326.156927 478.094017 328.791030 483.307692 328.358565 488.521368 326.864597 493.735043 325.960353 498.948718 324.073234 504.162393 322.500636 509.376068 322.815156 514.589744 324.505699 519.803419 325.213368 525.017094 324.898849 530.230769 323.562140 535.444444 325.842408 540.658120 325.606518 545.871795 325.252683 551.085470 324.505699 556.299145 326.038983 561.512821 326.550077 566.726496 330.127739 571.940171 328.830345 577.153846 327.886786 582.367521 326.550077 587.581197 325.134738 592.794872 327.257746 598.008547 327.808156 603.222222 327.454321 608.435897 326.628707 613.649573 326.707337 618.863248 329.773904 624.076923 330.481573 629.290598 328.555140 634.504274 327.611581 639.717949 330.009794 644.931624 329.577329 650.145299 330.678148 655.358974 330.756778 660.572650 330.914038 665.786325 329.931164 671.000000 329.970479 676.213675 330.324313 681.427350 330.992668 686.641026 331.661022 691.854701 330.481573 697.068376 331.700337 702.282051 330.638833 707.495726 328.437195 712.709402 328.437195 717.923077 328.437195"/></g><g class="series serie-2 color-2"><path class="line reactive nofill" d="M14.076923 327.690211 L19.290598 327.690211 24.504274 327.690211 29.717949 327.690211 34.931624 327.690211 40.145299 327.690211 45.358974 327.690211 50.572650 327.690211 55.786325 327.690211 61.000000 327.690211 66.213675 327.690211 71.427350 327.690211 76.641026 327.690211 81.854701 327.690211 87.068376 327.690211 92.282051 327.690211 97.495726 327.690211 102.709402 327.690211 107.923077 327.690211 113.136752 327.690211 118.350427 327.690211 123.564103 327.690211 128.777778 327.690211 133.991453 327.690211 139.205128 327.690211 144.418803 327.690211 149.632479 327.690211 154.846154 327.690211 160.059829 327.690211 165.273504 327.690211 170.487179 327.690211 175.700855 327.690211 180.914530 327.690211 186.128205 327.690211 191.341880 327.690211 196.555556 327.690211 201.769231 327.690211 206.982906 327.690211 212.196581 327.690211 217.410256 327.690211 222.623932 327.690211 227.837607 327.690211 233.051282 327.690211 238.264957 327.690211 243.478632 327.690211 248.692308 327.690211 253.905983 327.690211 259.119658 327.690211 264.333333 327.690211 269.547009 327.690211 274.760684 327.690211 279.974359 327.690211 285.188034 327.690211 290.401709 327.690211 295.615385 327.690211 300.829060 327.690211 306.042735 327.690211 311.256410 327.690211 316.470085 327.690211 321.683761 327.690211 326.897436 327.690211 332.111111 327.690211 337.324786 327.690211 342.538462 327.690211 347.752137 327.690211 352.965812 327.690211 358.179487 327.690211 363.393162 327.690211 368.606838 327.690211 373.820513 327.690211 379.034188 327.690211 384.247863 327.690211 389.461538 327.690211 394.675214 327.690211 399.888889 327.690211 405.102564 327.690211 410.316239 327.690211 415.529915 327.690211 420.743590 327.690211 425.957265 327.690211 431.170940 327.690211 436.384615 327.690211 441.598291 327.690211 446.811966 327.690211 452.025641 327.690211 457.239316 327.690211 462.452991 327.690211 467.666667 327.690211 472.880342 327.690211 478.094017 327.690211 483.307692 327.690211 488.521368 327.690211 493.735043 327.690211 498.948718 327.690211 504.162393 327.690211 509.376068 327.690211 514.589744 327.690211 519.803419 327.690211 525.017094 327.690211 530.230769 327.690211 535.444444 327.690211 540.658120 327.690211 545.871795 327.690211 551.085470 327.690211 556.299145 327.690211 561.512821 327.690211 566.726496 327.690211 571.940171 327.690211 577.153846 327.690211 582.367521 327.690211 587.581197 327.690211 592.794872 327.690211 598.008547 327.690211 603.222222 327.690211 608.435897 327.690211 613.649573 327.690211 618.863248 327.690211 624.076923 327.690211 629.290598 327.690211 634.504274 327.690211 639.717949 327.690211 644.931624 327.690211 650.145299 327.690211 655.358974 327.690211 660.572650 327.690211 665.786325 327.690211 671.000000 327.690211 676.213675 327.690211 681.427350 327.690211 686.641026 327.690211 691.854701 327.690211 697.068376 327.690211 702.282051 327.690211 707.495726 327.690211 712.709402 327.690211 717.923077 327.690211"/></g></g><g class="titles"><text class="title plot_title" x="400.0" y="26">UDU Chandana: Future and Past Averages in ODIs</text></g><g class="plot overlay" transform="translate(48, 46)"><g class="series serie-0 color-0"><g class="dots"><desc class="label">151 wickets in 136 innings (1023.4 overs)</desc><circle class="dot reactive tooltip-trigger" cx="14.076923076923077" cy="327.69021098463605" r="2.5"/><desc class="value">31.91</desc><desc class="x top">14.076923076923077</desc><desc class="y top">327.69021098463605</desc><desc class="x_label">1996</desc></g><g class="dots"><desc class="label">142 wickets in 126 innings (951.4 overs)</desc><circle class="dot reactive tooltip-trigger" cx="66.21367521367522" cy="328.8696598544068" r="2.5"/><desc class="value">31.61</desc><desc class="x top">66.21367521367522</desc><desc class="y top">328.8696598544068</desc><desc class="x_label">1997</desc></g><g class="dots"><desc class="label">134 wickets in 118 innings (897.4 overs)</desc><circle class="dot reactive tooltip-trigger" cx="107.92307692307692" cy="329.4200693269665" r="2.5"/><desc class="value">31.47</desc><desc class="x top">107.92307692307692</desc><desc class="y top">329.4200693269665</desc><desc class="x_label">1998</desc></g><g class="dots"><desc class="label">113 wickets in 105 innings (803.5 overs)</desc><circle class="dot reactive tooltip-trigger" cx="175.7008547008547" cy="322.6185808446219" r="2.5"/><desc class="value">33.2</desc><desc class="x top">175.7008547008547</desc><desc class="y top">322.6185808446219</desc><desc class="x_label">1999</desc></g><g class="dots"><desc class="label">84 wickets in 79 innings (601.3 overs)</desc><circle class="dot reactive tooltip-trigger" cx="311.2564102564103" cy="320.45625791670886" r="2.5"/><desc class="value">33.75</desc><desc class="x top">311.2564102564103</desc><desc class="y top">320.45625791670886</desc><desc class="x_label">2000</desc></g><g class="dots"><desc class="label">73 wickets in 67 innings (514.1 overs)</desc><circle class="dot reactive tooltip-trigger" cx="373.82051282051276" cy="322.2647461836907" r="2.5"/><desc class="value">33.29</desc><desc class="x left top">373.82051282051276</desc><desc class="y left top">322.2647461836907</desc><desc class="x_label">2001</desc></g><g class="dots"><desc class="label">71 wickets in 64 innings (492.5 overs)</desc><circle class="dot reactive tooltip-trigger" cx="389.46153846153845" cy="324.0732344506725" r="2.5"/><desc class="value">32.83</desc><desc class="x left top">389.46153846153845</desc><desc class="y left top">324.0732344506725</desc><desc class="x_label">2002</desc></g><g class="dots"><desc class="label">53 wickets in 43 innings (329.5 overs)</desc><circle class="dot reactive tooltip-trigger" cx="498.9487179487179" cy="334.37375458000355" r="2.5"/><desc class="value">30.21</desc><desc class="x left top">498.9487179487179</desc><desc class="y left top">334.37375458000355</desc><desc class="x_label">2003</desc></g><g class="dots"><desc class="label">50 wickets in 40 innings (311.5 overs)</desc><circle class="dot reactive tooltip-trigger" cx="514.5897435897436" cy="334.1771797683751" r="2.5"/><desc class="value">30.26</desc><desc class="x left top">514.5897435897436</desc><desc class="y left top">334.1771797683751</desc><desc class="x_label">2004</desc></g><g class="dots"><desc class="label">13 wickets in 13 innings (102.1 overs)</desc><circle class="dot reactive tooltip-trigger" cx="655.3589743589744" cy="295.2946820282665" r="2.5"/><desc class="value">40.15</desc><desc class="x left top">655.3589743589744</desc><desc class="y left top">295.2946820282665</desc><desc class="x_label">2005</desc></g><g class="dots"><desc class="label">0 wickets in 1 innings (7.0 overs)</desc><circle class="dot reactive tooltip-trigger" cx="717.9230769230769" cy="343.0623612539813" r="2.5"/><desc class="value">28</desc><desc class="x left top">717.9230769230769</desc><desc class="y left top">343.0623612539813</desc><desc class="x_label">2007</desc></g></g><g class="series serie-1 color-1"><g class="dots"><desc class="label">0 wickets over 0 innings</desc><circle class="dot reactive tooltip-trigger" cx="14.076923076923077" cy="453.1442557659166" r="2.5"/><desc class="value">0</desc><desc class="x top">14.076923076923077</desc><desc class="y top">453.1442557659166</desc><desc class="x_label">1996</desc></g><g class="dots"><desc class="label">9 wickets in 10 innings (72.0 overs)</desc><circle class="dot reactive tooltip-trigger" cx="66.21367521367522" cy="308.976288917607" r="2.5"/><desc class="value">36.67</desc><desc class="x top">66.21367521367522</desc><desc class="y top">308.976288917607</desc><desc class="x_label">1997</desc></g><g class="dots"><desc class="label">17 wickets in 18 innings (126.0 overs)</desc><circle class="dot reactive tooltip-trigger" cx="107.92307692307692" cy="314.1658639445983" r="2.5"/><desc class="value">35.35</desc><desc class="x top">107.92307692307692</desc><desc class="y top">314.1658639445983</desc><desc class="x_label">1998</desc></g><g class="dots"><desc class="label">38 wickets in 31 innings (219.5 overs)</desc><circle class="dot reactive tooltip-trigger" cx="175.7008547008547" cy="342.8657864423528" r="2.5"/><desc class="value">28.05</desc><desc class="x top">175.7008547008547</desc><desc class="y top">342.8657864423528</desc><desc class="x_label">1999</desc></g><g class="dots"><desc class="label">67 wickets in 57 innings (422.1 overs)</desc><circle class="dot reactive tooltip-trigger" cx="311.2564102564103" cy="336.77196728187073" r="2.5"/><desc class="value">29.6</desc><desc class="x top">311.2564102564103</desc><desc class="y top">336.77196728187073</desc><desc class="x_label">2000</desc></g><g class="dots"><desc class="label">78 wickets in 69 innings (509.3 overs)</desc><circle class="dot reactive tooltip-trigger" cx="373.82051282051276" cy="332.76184112465023" r="2.5"/><desc class="value">30.62</desc><desc class="x left top">373.82051282051276</desc><desc class="y left top">332.76184112465023</desc><desc class="x_label">2001</desc></g><g class="dots"><desc class="label">80 wickets in 72 innings (530.5 overs)</desc><circle class="dot reactive tooltip-trigger" cx="389.46153846153845" cy="330.91403789534274" r="2.5"/><desc class="value">31.09</desc><desc class="x left top">389.46153846153845</desc><desc class="y left top">330.91403789534274</desc><desc class="x_label">2002</desc></g><g class="dots"><desc class="label">98 wickets in 93 innings (693.5 overs)</desc><circle class="dot reactive tooltip-trigger" cx="498.9487179487179" cy="324.0732344506725" r="2.5"/><desc class="value">32.83</desc><desc class="x left top">498.9487179487179</desc><desc class="y left top">324.0732344506725</desc><desc class="x_label">2003</desc></g><g class="dots"><desc class="label">101 wickets in 96 innings (711.5 overs)</desc><circle class="dot reactive tooltip-trigger" cx="514.5897435897436" cy="324.5056990362551" r="2.5"/><desc class="value">32.72</desc><desc class="x left top">514.5897435897436</desc><desc class="y left top">324.5056990362551</desc><desc class="x_label">2004</desc></g><g class="dots"><desc class="label">138 wickets in 123 innings (921.3 overs)</desc><circle class="dot reactive tooltip-trigger" cx="655.3589743589744" cy="330.7567780460399" r="2.5"/><desc class="value">31.13</desc><desc class="x left top">655.3589743589744</desc><desc class="y left top">330.7567780460399</desc><desc class="x_label">2005</desc></g><g class="dots"><desc class="label">151 wickets in 135 innings (1016.4 overs)</desc><circle class="dot reactive tooltip-trigger" cx="717.9230769230769" cy="328.4371952688242" r="2.5"/><desc class="value">31.72</desc><desc class="x left top">717.9230769230769</desc><desc class="y left top">328.4371952688242</desc><desc class="x_label">2007</desc></g></g><g class="series serie-2 color-2"/></g><g class="plot text-overlay" transform="translate(48, 46)"><g class="series serie-0 color-0"/><g class="series serie-1 color-1"/><g class="series serie-2 color-2"/></g><g class="plot tooltip-overlay" transform="translate(48, 46)"><g class="tooltip" style="opacity: 0" transform="translate(0 0)"><rect class="tooltip-box" height="0" rx="10" ry="10" width="0"/><g class="text"/></g></g><g class="legends" transform="translate(58, 545)"><g class="legend reactive activate-serie" id="activate-serie-0"><rect class="color-0 reactive" height="12" width="12" x="0.0" y="1.0"/><text x="17.0" y="11.2">Future Average</text></g><g class="legend reactive activate-serie" id="activate-serie-1"><rect class="color-1 reactive" height="12" width="12" x="366.0" y="1.0"/><text x="383.0" y="11.2">Past Average</text></g><g class="legend reactive activate-serie" id="activate-serie-2"><rect class="color-2 reactive" height="12" width="12" x="0.0" y="22.0"/><text x="17.0" y="32.2">Career Average</text></g></g></g></svg>