<?xml version='1.0' encoding='utf-8'?>
<svg xmlns:xlink="http://www.w3.org/1999/xlink" xmlns="http://www.w3.org/2000/svg" id="chart-10713e0f-49e8-4c26-96ba-fba9fe69fa36" class="pygal-chart" viewBox="0 0 800 600"><!--Generated with pygal 2.4.0 (lxml) ©Kozea 2012-2016 on 2019-08-04--><!--http://pygal.org--><!--http://github.com/Kozea/pygal--><defs><style type="text/css">#chart-10713e0f-49e8-4c26-96ba-fba9fe69fa36{-webkit-user-select:none;-webkit-font-smoothing:antialiased;font-family:Consolas,"Liberation Mono",Menlo,Courier,monospace}#chart-10713e0f-49e8-4c26-96ba-fba9fe69fa36 .title{font-family:Consolas,"Liberation Mono",Menlo,Courier,monospace;font-size:16px}#chart-10713e0f-49e8-4c26-96ba-fba9fe69fa36 .legends .legend text{font-family:Consolas,"Liberation Mono",Menlo,Courier,monospace;font-size:14px}#chart-10713e0f-49e8-4c26-96ba-fba9fe69fa36 .axis text{font-family:Consolas,"Liberation Mono",Menlo,Courier,monospace;font-size:10px}#chart-10713e0f-49e8-4c26-96ba-fba9fe69fa36 .axis text.major{font-family:Consolas,"Liberation Mono",Menlo,Courier,monospace;font-size:10px}#chart-10713e0f-49e8-4c26-96ba-fba9fe69fa36 .text-overlay text.value{font-family:Consolas,"Liberation Mono",Menlo,Courier,monospace;font-size:16px}#chart-10713e0f-49e8-4c26-96ba-fba9fe69fa36 .text-overlay text.label{font-family:Consolas,"Liberation Mono",Menlo,Courier,monospace;font-size:10px}#chart-10713e0f-49e8-4c26-96ba-fba9fe69fa36 .tooltip{font-family:Consolas,"Liberation Mono",Menlo,Courier,monospace;font-size:14px}#chart-10713e0f-49e8-4c26-96ba-fba9fe69fa36 text.no_data{font-family:Consolas,"Liberation Mono",Menlo,Courier,monospace;font-size:64px}
#chart-10713e0f-49e8-4c26-96ba-fba9fe69fa36{background-color:rgba(249,249,249,1)}#chart-10713e0f-49e8-4c26-96ba-fba9fe69fa36 path,#chart-10713e0f-49e8-4c26-96ba-fba9fe69fa36 line,#chart-10713e0f-49e8-4c26-96ba-fba9fe69fa36 rect,#chart-10713e0f-49e8-4c26-96ba-fba9fe69fa36 circle{-webkit-transition:150ms;-moz-transition:150ms;transition:150ms}#chart-10713e0f-49e8-4c26-96ba-fba9fe69fa36 .graph &gt; .background{fill:rgba(249,249,249,1)}#chart-10713e0f-49e8-4c26-96ba-fba9fe69fa36 .plot &gt; .background{fill:rgba(255,255,255,1)}#chart-10713e0f-49e8-4c26-96ba-fba9fe69fa36 .graph{fill:rgba(0,0,0,.87)}#chart-10713e0f-49e8-4c26-96ba-fba9fe69fa36 text.no_data{fill:rgba(0,0,0,1)}#chart-10713e0f-49e8-4c26-96ba-fba9fe69fa36 .title{fill:rgba(0,0,0,1)}#chart-10713e0f-49e8-4c26-96ba-fba9fe69fa36 .legends .legend text{fill:rgba(0,0,0,.87)}#chart-10713e0f-49e8-4c26-96ba-fba9fe69fa36 .legends .legend:hover text{fill:rgba(0,0,0,1)}#chart-10713e0f-49e8-4c26-96ba-fba9fe69fa36 .axis .line{stroke:rgba(0,0,0,1)}#chart-10713e0f-49e8-4c26-96ba-fba9fe69fa36 .axis .guide.line{stroke:rgba(0,0,0,.54)}#chart-10713e0f-49e8-4c26-96ba-fba9fe69fa36 .axis .major.line{stroke:rgba(0,0,0,.87)}#chart-10713e0f-49e8-4c26-96ba-fba9fe69fa36 .axis text.major{fill:rgba(0,0,0,1)}#chart-10713e0f-49e8-4c26-96ba-fba9fe69fa36 .axis.y .guides:hover .guide.line,#chart-10713e0f-49e8-4c26-96ba-fba9fe69fa36 .line-graph .axis.x .guides:hover .guide.line,#chart-10713e0f-49e8-4c26-96ba-fba9fe69fa36 .stackedline-graph .axis.x .guides:hover .guide.line,#chart-10713e0f-49e8-4c26-96ba-fba9fe69fa36 .xy-graph .axis.x .guides:hover .guide.line{stroke:rgba(0,0,0,1)}#chart-10713e0f-49e8-4c26-96ba-fba9fe69fa36 .axis .guides:hover text{fill:rgba(0,0,0,1)}#chart-10713e0f-49e8-4c26-96ba-fba9fe69fa36 .reactive{fill-opacity:.7;stroke-opacity:.8}#chart-10713e0f-49e8-4c26-96ba-fba9fe69fa36 .ci{stroke:rgba(0,0,0,.87)}#chart-10713e0f-49e8-4c26-96ba-fba9fe69fa36 .reactive.active,#chart-10713e0f-49e8-4c26-96ba-fba9fe69fa36 .active .reactive{fill-opacity:.8;stroke-opacity:.9;stroke-width:4}#chart-10713e0f-49e8-4c26-96ba-fba9fe69fa36 .ci .reactive.active{stroke-width:1.5}#chart-10713e0f-49e8-4c26-96ba-fba9fe69fa36 .series text{fill:rgba(0,0,0,1)}#chart-10713e0f-49e8-4c26-96ba-fba9fe69fa36 .tooltip rect{fill:rgba(255,255,255,1);stroke:rgba(0,0,0,1);-webkit-transition:opacity 150ms;-moz-transition:opacity 150ms;transition:opacity 150ms}#chart-10713e0f-49e8-4c26-96ba-fba9fe69fa36 .tooltip .label{fill:rgba(0,0,0,.87)}#chart-10713e0f-49e8-4c26-96ba-fba9fe69fa36 .tooltip .label{fill:rgba(0,0,0,.87)}#chart-10713e0f-49e8-4c26-96ba-fba9fe69fa36 .tooltip .legend{font-size:.8em;fill:rgba(0,0,0,.54)}#chart-10713e0f-49e8-4c26-96ba-fba9fe69fa36 .tooltip .x_label{font-size:.6em;fill:rgba(0,0,0,1)}#chart-10713e0f-49e8-4c26-96ba-fba9fe69fa36 .tooltip .xlink{font-size:.5em;text-decoration:underline}#chart-10713e0f-49e8-4c26-96ba-fba9fe69fa36 .tooltip .value{font-size:1.5em}#chart-10713e0f-49e8-4c26-96ba-fba9fe69fa36 .bound{font-size:.5em}#chart-10713e0f-49e8-4c26-96ba-fba9fe69fa36 .max-value{font-size:.75em;fill:rgba(0,0,0,.54)}#chart-10713e0f-49e8-4c26-96ba-fba9fe69fa36 .map-element{fill:rgba(255,255,255,1);stroke:rgba(0,0,0,.54) !important}#chart-10713e0f-49e8-4c26-96ba-fba9fe69fa36 .map-element .reactive{fill-opacity:inherit;stroke-opacity:inherit}#chart-10713e0f-49e8-4c26-96ba-fba9fe69fa36 .color-0,#chart-10713e0f-49e8-4c26-96ba-fba9fe69fa36 .color-0 a:visited{stroke:red;fill:red}#chart-10713e0f-49e8-4c26-96ba-fba9fe69fa36 .color-1,#chart-10713e0f-49e8-4c26-96ba-fba9fe69fa36 .color-1 a:visited{stroke:blue;fill:blue}#chart-10713e0f-49e8-4c26-96ba-fba9fe69fa36 .color-2,#chart-10713e0f-49e8-4c26-96ba-fba9fe69fa36 .color-2 a:visited{stroke:green;fill:green}#chart-10713e0f-49e8-4c26-96ba-fba9fe69fa36 .text-overlay .color-0 text{fill:white}#chart-10713e0f-49e8-4c26-96ba-fba9fe69fa36 .text-overlay .color-1 text{fill:white}#chart-10713e0f-49e8-4c26-96ba-fba9fe69fa36 .text-overlay .color-2 text{fill:white}
#chart-10713e0f-49e8-4c26-96ba-fba9fe69fa36 text.no_data{text-anchor:middle}#chart-10713e0f-49e8-4c26-96ba-fba9fe69fa36 .guide.line{fill:none}#chart-10713e0f-49e8-4c26-96ba-fba9fe69fa36 .centered{text-anchor:middle}#chart-10713e0f-49e8-4c26-96ba-fba9fe69fa36 .title{text-anchor:middle}#chart-10713e0f-49e8-4c26-96ba-fba9fe69fa36 .legends .legend text{fill-opacity:1}#chart-10713e0f-49e8-4c26-96ba-fba9fe69fa36 .axis.x text{text-anchor:middle}#chart-10713e0f-49e8-4c26-96ba-fba9fe69fa36 .axis.x:not(.web) text[transform]{text-anchor:start}#chart-10713e0f-49e8-4c26-96ba-fba9fe69fa36 .axis.x:not(.web) text[transform].backwards{text-anchor:end}#chart-10713e0f-49e8-4c26-96ba-fba9fe69fa36 .axis.y text{text-anchor:end}#chart-10713e0f-49e8-4c26-96ba-fba9fe69fa36 .axis.y text[transform].backwards{text-anchor:start}#chart-10713e0f-49e8-4c26-96ba-fba9fe69fa36 .axis.y2 text{text-anchor:start}#chart-10713e0f-49e8-4c26-96ba-fba9fe69fa36 .axis.y2 text[transform].backwards{text-anchor:end}#chart-10713e0f-49e8-4c26-96ba-fba9fe69fa36 .axis .guide.line{stroke-dasharray:4,4}#chart-10713e0f-49e8-4c26-96ba-fba9fe69fa36 .axis .major.guide.line{stroke-dasharray:6,6}#chart-10713e0f-49e8-4c26-96ba-fba9fe69fa36 .horizontal .axis.y .guide.line,#chart-10713e0f-49e8-4c26-96ba-fba9fe69fa36 .horizontal .axis.y2 .guide.line,#chart-10713e0f-49e8-4c26-96ba-fba9fe69fa36 .vertical .axis.x .guide.line{opacity:0}#chart-10713e0f-49e8-4c26-96ba-fba9fe69fa36 .horizontal .axis.always_show .guide.line,#chart-10713e0f-49e8-4c26-96ba-fba9fe69fa36 .vertical .axis.always_show .guide.line{opacity:1 !important}#chart-10713e0f-49e8-4c26-96ba-fba9fe69fa36 .axis.y .guides:hover .guide.line,#chart-10713e0f-49e8-4c26-96ba-fba9fe69fa36 .axis.y2 .guides:hover .guide.line,#chart-10713e0f-49e8-4c26-96ba-fba9fe69fa36 .axis.x .guides:hover .guide.line{opacity:1}#chart-10713e0f-49e8-4c26-96ba-fba9fe69fa36 .axis .guides:hover text{opacity:1}#chart-10713e0f-49e8-4c26-96ba-fba9fe69fa36 .nofill{fill:none}#chart-10713e0f-49e8-4c26-96ba-fba9fe69fa36 .subtle-fill{fill-opacity:.2}#chart-10713e0f-49e8-4c26-96ba-fba9fe69fa36 .dot{stroke-width:1px;fill-opacity:1}#chart-10713e0f-49e8-4c26-96ba-fba9fe69fa36 .dot.active{stroke-width:5px}#chart-10713e0f-49e8-4c26-96ba-fba9fe69fa36 .dot.negative{fill:transparent}#chart-10713e0f-49e8-4c26-96ba-fba9fe69fa36 text,#chart-10713e0f-49e8-4c26-96ba-fba9fe69fa36 tspan{stroke:none !important}#chart-10713e0f-49e8-4c26-96ba-fba9fe69fa36 .series text.active{opacity:1}#chart-10713e0f-49e8-4c26-96ba-fba9fe69fa36 .tooltip rect{fill-opacity:.95;stroke-width:.5}#chart-10713e0f-49e8-4c26-96ba-fba9fe69fa36 .tooltip text{fill-opacity:1}#chart-10713e0f-49e8-4c26-96ba-fba9fe69fa36 .showable{visibility:hidden}#chart-10713e0f-49e8-4c26-96ba-fba9fe69fa36 .showable.shown{visibility:visible}#chart-10713e0f-49e8-4c26-96ba-fba9fe69fa36 .gauge-background{fill:rgba(229,229,229,1);stroke:none}#chart-10713e0f-49e8-4c26-96ba-fba9fe69fa36 .bg-lines{stroke:rgba(249,249,249,1);stroke-width:2px}</style><script type="text/javascript">window.pygal = window.pygal || {};window.pygal.config = window.pygal.config || {};window.pygal.config['10713e0f-49e8-4c26-96ba-fba9fe69fa36'] = {"allow_interruptions": false, "box_mode": "extremes", "classes": ["pygal-chart"], "css": ["file://style.css", "file://graph.css"], "defs": [], "disable_xml_declaration": false, "dots_size": 2.5, "dynamic_print_values": false, "explicit_size": false, "fill": false, "force_uri_protocol": "https", "formatter": null, "half_pie": false, "height": 600, "include_x_axis": false, "inner_radius": 0, "interpolate": null, "interpolation_parameters": {}, "interpolation_precision": 250, "inverse_y_axis": false, "js": ["//kozea.github.io/pygal.js/2.0.x/pygal-tooltips.min.js"], "legend_at_bottom": true, "legend_at_bottom_columns": null, "legend_box_size": 12, "logarithmic": false, "margin": 20, "margin_bottom": null, "margin_left": null, "margin_right": null, "margin_top": null, "max_scale": 16, "min_scale": 4, "missing_value_fill_truncation": "x", "no_data_text": "No data", "no_prefix": false, "order_min": null, "pretty_print": false, "print_labels": false, "print_values": false, "print_values_position": "center", "print_zeroes": true, "range": null, "rounded_bars": null, "secondary_range": null, "show_dots": true, "show_legend": true, "show_minor_x_labels": false, "show_minor_y_labels": true, "show_only_major_dots": false, "show_x_guides": false, "show_x_labels": true, "show_y_guides": true, "show_y_labels": true, "spacing": 10, "stack_from_top": false, "strict": false, "stroke": true, "stroke_style": null, "style": {"background": "rgba(249, 249, 249, 1)", "ci_colors": [], "colors": ["red", "blue", "green", "#a3a3a3"], "font_family": "Consolas, \"Liberation Mono\", Menlo, Courier, monospace", "foreground": "rgba(0, 0, 0, .87)", "foreground_strong": "rgba(0, 0, 0, 1)", "foreground_subtle": "rgba(0, 0, 0, .54)", "guide_stroke_dasharray": "4,4", "label_font_family": "Consolas, \"Liberation Mono\", Menlo, Courier, monospace", "label_font_size": 10, "legend_font_family": "Consolas, \"Liberation Mono\", Menlo, Courier, monospace", "legend_font_size": 14, "major_guide_stroke_dasharray": "6,6", "major_label_font_family": "Consolas, \"Liberation Mono\", Menlo, Courier, monospace", "major_label_font_size": 10, "no_data_font_family": "Consolas, \"Liberation Mono\", Menlo, Courier, monospace", "no_data_font_size": 64, "opacity": ".7", "opacity_hover": ".8", "plot_background": "rgba(255, 255, 255, 1)", "stroke_opacity": ".8", "stroke_opacity_hover": ".9", "title_font_family": "Consolas, \"Liberation Mono\", Menlo, Courier, monospace", "title_font_size": 16, "tooltip_font_family": "Consolas, \"Liberation Mono\", Menlo, Courier, monospace", "tooltip_font_size": 14, "transition": "150ms", "value_background": "rgba(229, 229, 229, 1)", "value_colors": [], "value_font_family": "Consolas, \"Liberation Mono\", Menlo, Courier, monospace", "value_font_size": 16, "value_label_font_family": "Consolas, \"Liberation Mono\", Menlo, Courier, monospace", "value_label_font_size": 10}, "title": "Umar Gul: Future and Past Averages in ODIs", "tooltip_border_radius": 10, "tooltip_fancy_mode": true, "truncate_label": null, "truncate_legend": null, "width": 800, "x_label_rotation": 45, "x_labels": ["2003", "0", "0", "0", "0", "0", "0", "0", "0", "0", "0", "0", "0", "0", "0", "2006", "0", "0", "0", "0", "0", "0", "0", "0", "0", "2007", "0", "0", "0", "0", "0", "0", "0", "0", "0", "0", "0", "0", "0", "2008", "0", "0", "0", "0", "0", "0", "0", "0", "0", "0", "0", "2009", "0", "0", "0", "0", "0", "0", "0", "0", "0", "0", "0", "0", "0", "0", "0", "2010", "0", "0", "0", "0", "0", "0", "0", "2011", "0", "0", "0", "0", "0", "0", "0", "0", "0", "0", "0", "0", "0", "0", "0", "0", "0", "0", "0", "0", "0", "2012", "0", "0", "0", "0", "0", "0", "0", "0", "0", "0", "0", "0", "2013", "0", "0", "0", "0", "0", "0", "2014", "0", "0", "0", "0", "0", "2015", "2016", "0", "0", "0"], "x_labels_major": ["2003", "2006", "2007", "2008", "2009", "2010", "2011", "2012", "2013", "2014", "2015", "2016"], "x_labels_major_count": null, "x_labels_major_every": null, "x_title": null, "xrange": null, "y_label_rotation": 0, "y_labels": null, "y_labels_major": null, "y_labels_major_count": null, "y_labels_major_every": null, "y_title": null, "zero": 80.0, "legends": ["Future Average", "Past Average", "Career Average"]}</script><script type="text/javascript" xlink:href="https://kozea.github.io/pygal.js/2.0.x/pygal-tooltips.min.js"/></defs><title>Umar Gul: Future and Past Averages in ODIs</title><g class="graph line-graph vertical"><rect class="background" height="600" width="800" x="0" y="0"/><g class="plot" transform="translate(42, 46)"><rect class="background" height="462.02943725152284" width="738.0" x="0" y="0"/><g class="axis y always_show"><g class="guides"><path class="axis major line" d="M0.000000 453.144256 h738.000000"/><text class="major" x="-5" y="456.6442557659166">0</text><title>0</title></g><g class="guides"><path class="guide line" d="M0.000000 395.448272 h738.000000"/><text class="" x="-5" y="398.94827209314906">10</text><title>10</title></g><g class="guides"><path class="guide line" d="M0.000000 337.752288 h738.000000"/><text class="" x="-5" y="341.2522884203815">20</text><title>20</title></g><g class="guides"><path class="guide line" d="M0.000000 280.056305 h738.000000"/><text class="" x="-5" y="283.5563047476139">30</text><title>30</title></g><g class="guides"><path class="guide line" d="M0.000000 222.360321 h738.000000"/><text class="" x="-5" y="225.86032107484633">40</text><title>40</title></g><g class="guides"><path class="major guide line" d="M0.000000 164.664337 h738.000000"/><text class="major" x="-5" y="168.16433740207873">50</text><title>50</title></g><g class="guides"><path class="guide line" d="M0.000000 106.968354 h738.000000"/><text class="" x="-5" y="110.46835372931116">60</text><title>60</title></g><g class="guides"><path class="guide line" d="M0.000000 49.272370 h738.000000"/><text class="" x="-5" y="52.77237005654354">70</text><title>70</title></g></g><g class="axis x"><g class="guides"><path class="major line" d="M14.192308 0.000000 v462.029437"/><text class="major" x="14.192307692307692" y="477.02943725152284" transform="rotate(45 14.192308 477.029437)">2003</text></g><g class="guides"><path class="major guide line" d="M98.005148 0.000000 v462.029437"/><text class="major" x="98.00514839491217" y="477.02943725152284" transform="rotate(45 98.005148 477.029437)">2006</text></g><g class="guides"><path class="major guide line" d="M153.880376 0.000000 v462.029437"/><text class="major" x="153.88037552998185" y="477.02943725152284" transform="rotate(45 153.880376 477.029437)">2007</text></g><g class="guides"><path class="major guide line" d="M232.105694 0.000000 v462.029437"/><text class="major" x="232.10569351907935" y="477.02943725152284" transform="rotate(45 232.105694 477.029437)">2008</text></g><g class="guides"><path class="major guide line" d="M299.155966 0.000000 v462.029437"/><text class="major" x="299.15596608116294" y="477.02943725152284" transform="rotate(45 299.155966 477.029437)">2009</text></g><g class="guides"><path class="major guide line" d="M388.556329 0.000000 v462.029437"/><text class="major" x="388.55632949727436" y="477.02943725152284" transform="rotate(45 388.556329 477.029437)">2010</text></g><g class="guides"><path class="major guide line" d="M433.256511 0.000000 v462.029437"/><text class="major" x="433.25651120533007" y="477.02943725152284" transform="rotate(45 433.256511 477.029437)">2011</text></g><g class="guides"><path class="major guide line" d="M556.182011 0.000000 v462.029437"/><text class="major" x="556.1820109024833" y="477.02943725152284" transform="rotate(45 556.182011 477.029437)">2012</text></g><g class="guides"><path class="major guide line" d="M628.819806 0.000000 v462.029437"/><text class="major" x="628.8198061780739" y="477.02943725152284" transform="rotate(45 628.819806 477.029437)">2013</text></g><g class="guides"><path class="major guide line" d="M667.932465 0.000000 v462.029437"/><text class="major" x="667.9324651726226" y="477.02943725152284" transform="rotate(45 667.932465 477.029437)">2014</text></g><g class="guides"><path class="major guide line" d="M701.457601 0.000000 v462.029437"/><text class="major" x="701.4576014536643" y="477.02943725152284" transform="rotate(45 701.457601 477.029437)">2015</text></g><g class="guides"><path class="major guide line" d="M707.045124 0.000000 v462.029437"/><text class="major" x="707.0451241671715" y="477.02943725152284" transform="rotate(45 707.045124 477.029437)">2016</text></g></g><g class="series serie-0 color-0"><path class="line reactive nofill" d="M14.192308 283.806544 L19.779830 282.710320 25.367353 283.287280 30.954876 283.114192 36.542399 283.864240 42.129921 284.787375 47.717444 284.787375 53.304967 283.921936 58.892489 284.671983 64.480012 283.691152 70.067535 279.133169 75.655058 277.979249 81.242580 278.786993 86.830103 280.690961 92.417626 282.191056 98.005148 282.421840 103.592671 283.691152 109.180194 285.479727 114.767717 285.941295 120.355239 284.498895 125.942762 285.364335 131.530285 284.960463 137.117807 282.998800 142.705330 281.441008 148.292853 282.075664 153.880376 283.921936 159.467898 283.114192 165.055421 284.037328 170.642944 282.133360 176.230466 280.979440 181.817989 280.114001 187.405512 282.306448 192.993035 281.094832 198.580557 279.594737 204.168080 281.787184 209.755603 282.941104 215.343125 282.768016 220.930648 284.556591 226.518171 285.133551 232.105694 285.998991 237.693216 287.037519 243.280739 288.018350 248.868262 286.287471 254.455784 285.479727 260.043307 284.095024 265.630830 282.768016 271.218353 279.710129 276.805875 280.633265 282.393398 280.979440 287.980921 279.767825 293.568443 277.286898 299.155966 273.998226 304.743489 270.478771 310.331012 266.497749 315.918534 263.324469 321.506057 264.247605 327.093580 265.401525 332.681102 261.593590 338.268625 262.285942 343.856148 263.151382 349.443671 265.055349 355.031193 260.381974 360.618716 264.074517 366.206239 264.420693 371.793761 265.516917 377.381284 262.632118 382.968807 262.112854 388.556329 263.093686 394.143852 265.863093 399.731375 267.017012 405.318898 272.094259 410.906420 274.229010 416.493943 262.170550 422.081466 253.227672 427.668988 255.073944 433.256511 258.131831 438.844034 254.727768 444.431557 259.285751 450.019079 255.535512 455.606602 261.420502 461.194125 255.997080 466.781647 258.593399 472.369170 257.208695 477.956693 249.592825 483.544216 241.515388 489.131738 231.707070 494.719261 228.533791 500.306784 237.188189 505.894306 236.091965 511.481829 243.534747 517.069352 244.919451 522.656875 249.419737 528.244397 241.457692 533.831920 244.054011 539.419443 243.765531 545.006965 241.284604 550.594488 223.456545 556.182011 223.975809 561.769534 215.552195 567.357056 224.552768 572.944579 231.880158 578.532102 241.861564 584.119624 232.226334 589.707147 220.975617 595.294670 217.686946 600.882193 213.821315 606.469715 187.454251 612.057238 202.685991 617.644761 204.763046 623.232283 216.590723 628.819806 227.033696 634.407329 210.532644 639.994852 211.455780 645.582374 233.264862 651.169897 245.092539 656.757420 210.821124 662.344942 168.010704 667.932465 165.183601 673.519988 125.546460 679.107511 68.254349 684.695033 61.792399 690.282556 134.835514 695.870079 177.184366 701.457601 224.264289 707.045124 275.267538 712.632647 141.585944 718.220170 118.507550 723.807692 8.885181"/></g><g class="series serie-1 color-1"><path class="line reactive nofill" d="M14.192308 453.144256 L19.779830 381.024276 25.367353 314.673895 30.954876 316.116295 36.542399 281.498704 42.129921 241.111516 47.717444 250.054393 53.304967 280.864049 58.892489 265.632309 64.480012 286.402863 70.067535 335.444449 75.655058 339.425472 81.242580 329.097891 86.830103 311.789096 92.417626 298.345932 98.005148 295.518828 103.592671 284.902767 109.180194 270.017204 114.767717 267.074708 120.355239 279.017777 125.942762 272.959699 131.530285 276.709938 137.117807 288.595310 142.705330 296.153484 148.292853 292.576333 153.880376 283.344976 159.467898 287.095215 165.055421 282.768016 170.642944 291.076238 176.230466 294.711085 181.817989 297.192012 187.405512 289.229966 192.993035 292.807117 198.580557 296.845836 204.168080 290.037710 209.755603 286.633647 215.343125 286.806735 220.930648 281.787184 226.518171 280.287089 232.105694 278.036945 237.693216 275.325234 243.280739 273.017395 248.868262 277.979249 254.455784 280.056305 260.043307 283.287280 265.630830 285.941295 271.218353 291.249326 276.805875 289.518446 282.393398 288.999182 287.980921 290.672366 293.568443 293.961037 299.155966 298.057452 304.743489 301.923083 310.331012 305.327146 315.918534 307.519593 321.506057 305.961801 327.093580 304.230922 332.681102 306.827241 338.268625 305.615626 343.856148 304.288618 349.443671 302.384650 355.031193 305.500234 360.618716 302.096171 366.206239 301.346123 371.793761 300.019115 377.381284 301.749995 382.968807 301.403819 388.556329 300.192203 394.143852 297.711276 399.731375 296.268876 405.318898 292.518637 410.906420 290.787758 416.493943 297.422796 422.081466 301.288427 427.668988 299.846027 433.256511 298.115148 438.844034 299.211371 444.431557 296.845836 450.019079 298.115148 455.606602 295.114956 461.194125 297.192012 466.781647 295.634220 472.369170 295.980396 477.956693 298.230540 483.544216 300.249899 489.131738 302.384650 494.719261 302.961610 500.306784 299.961419 505.894306 299.846027 511.481829 297.365100 517.069352 296.903532 522.656875 295.403436 528.244397 296.845836 533.831920 296.038092 539.419443 295.749612 545.006965 296.095788 550.594488 299.038283 556.182011 298.922891 561.769534 299.846027 567.357056 297.711276 572.944579 296.038092 578.532102 293.672557 584.119624 294.653389 589.707147 295.980396 595.294670 295.576524 600.882193 295.172652 606.469715 297.307404 612.057238 295.172652 617.644761 294.307213 623.232283 292.749421 628.819806 291.364718 634.407329 292.518637 639.994852 291.941677 645.582374 289.460750 651.169897 288.133742 656.757420 290.499278 662.344942 292.172461 667.932465 291.595501 673.519988 292.230157 679.107511 292.576333 684.695033 291.537805 690.282556 288.999182 695.870079 287.499087 701.457601 285.883599 707.045124 284.152720 712.632647 286.229775 718.220170 285.710511 723.807692 285.364335"/></g><g class="series serie-2 color-2"><path class="line reactive nofill" d="M14.192308 283.806544 L19.779830 283.806544 25.367353 283.806544 30.954876 283.806544 36.542399 283.806544 42.129921 283.806544 47.717444 283.806544 53.304967 283.806544 58.892489 283.806544 64.480012 283.806544 70.067535 283.806544 75.655058 283.806544 81.242580 283.806544 86.830103 283.806544 92.417626 283.806544 98.005148 283.806544 103.592671 283.806544 109.180194 283.806544 114.767717 283.806544 120.355239 283.806544 125.942762 283.806544 131.530285 283.806544 137.117807 283.806544 142.705330 283.806544 148.292853 283.806544 153.880376 283.806544 159.467898 283.806544 165.055421 283.806544 170.642944 283.806544 176.230466 283.806544 181.817989 283.806544 187.405512 283.806544 192.993035 283.806544 198.580557 283.806544 204.168080 283.806544 209.755603 283.806544 215.343125 283.806544 220.930648 283.806544 226.518171 283.806544 232.105694 283.806544 237.693216 283.806544 243.280739 283.806544 248.868262 283.806544 254.455784 283.806544 260.043307 283.806544 265.630830 283.806544 271.218353 283.806544 276.805875 283.806544 282.393398 283.806544 287.980921 283.806544 293.568443 283.806544 299.155966 283.806544 304.743489 283.806544 310.331012 283.806544 315.918534 283.806544 321.506057 283.806544 327.093580 283.806544 332.681102 283.806544 338.268625 283.806544 343.856148 283.806544 349.443671 283.806544 355.031193 283.806544 360.618716 283.806544 366.206239 283.806544 371.793761 283.806544 377.381284 283.806544 382.968807 283.806544 388.556329 283.806544 394.143852 283.806544 399.731375 283.806544 405.318898 283.806544 410.906420 283.806544 416.493943 283.806544 422.081466 283.806544 427.668988 283.806544 433.256511 283.806544 438.844034 283.806544 444.431557 283.806544 450.019079 283.806544 455.606602 283.806544 461.194125 283.806544 466.781647 283.806544 472.369170 283.806544 477.956693 283.806544 483.544216 283.806544 489.131738 283.806544 494.719261 283.806544 500.306784 283.806544 505.894306 283.806544 511.481829 283.806544 517.069352 283.806544 522.656875 283.806544 528.244397 283.806544 533.831920 283.806544 539.419443 283.806544 545.006965 283.806544 550.594488 283.806544 556.182011 283.806544 561.769534 283.806544 567.357056 283.806544 572.944579 283.806544 578.532102 283.806544 584.119624 283.806544 589.707147 283.806544 595.294670 283.806544 600.882193 283.806544 606.469715 283.806544 612.057238 283.806544 617.644761 283.806544 623.232283 283.806544 628.819806 283.806544 634.407329 283.806544 639.994852 283.806544 645.582374 283.806544 651.169897 283.806544 656.757420 283.806544 662.344942 283.806544 667.932465 283.806544 673.519988 283.806544 679.107511 283.806544 684.695033 283.806544 690.282556 283.806544 695.870079 283.806544 701.457601 283.806544 707.045124 283.806544 712.632647 283.806544 718.220170 283.806544 723.807692 283.806544"/></g></g><g class="titles"><text class="title plot_title" x="400.0" y="26">Umar Gul: Future and Past Averages in ODIs</text></g><g class="plot overlay" transform="translate(42, 46)"><g class="series serie-0 color-0"><g class="dots"><desc class="label">179 wickets in 128 innings (1010.4 overs)</desc><circle class="dot reactive tooltip-trigger" cx="14.192307692307692" cy="283.8065436863438" r="2.5"/><desc class="value">29.35</desc><desc class="x top">14.192307692307692</desc><desc class="y top">283.8065436863438</desc><desc class="x_label">2003</desc></g><g class="dots"><desc class="label">160 wickets in 113 innings (898.2 overs)</desc><circle class="dot reactive tooltip-trigger" cx="98.00514839491217" cy="282.42184007819736" r="2.5"/><desc class="value">29.59</desc><desc class="x top">98.00514839491217</desc><desc class="y top">282.42184007819736</desc><desc class="x_label">2006</desc></g><g class="dots"><desc class="label">149 wickets in 103 innings (818.3 overs)</desc><circle class="dot reactive tooltip-trigger" cx="153.88037552998185" cy="283.9219356536894" r="2.5"/><desc class="value">29.33</desc><desc class="x top">153.88037552998185</desc><desc class="y top">283.9219356536894</desc><desc class="x_label">2007</desc></g><g class="dots"><desc class="label">130 wickets in 89 innings (705.5 overs)</desc><circle class="dot reactive tooltip-trigger" cx="232.10569351907935" cy="285.99899106590897" r="2.5"/><desc class="value">28.97</desc><desc class="x top">232.10569351907935</desc><desc class="y top">285.99899106590897</desc><desc class="x_label">2008</desc></g><g class="dots"><desc class="label">106 wickets in 77 innings (612.4 overs)</desc><circle class="dot reactive tooltip-trigger" cx="299.15596608116294" cy="273.9982264619733" r="2.5"/><desc class="value">31.05</desc><desc class="x top">299.15596608116294</desc><desc class="y top">273.9982264619733</desc><desc class="x_label">2009</desc></g><g class="dots"><desc class="label">79 wickets in 61 innings (478.0 overs)</desc><circle class="dot reactive tooltip-trigger" cx="388.55632949727436" cy="263.0936855478202" r="2.5"/><desc class="value">32.94</desc><desc class="x left top">388.55632949727436</desc><desc class="y left top">263.0936855478202</desc><desc class="x_label">2010</desc></g><g class="dots"><desc class="label">64 wickets in 53 innings (407.5 overs)</desc><circle class="dot reactive tooltip-trigger" cx="433.25651120533007" cy="258.13183095196223" r="2.5"/><desc class="value">33.8</desc><desc class="x left top">433.25651120533007</desc><desc class="y left top">258.13183095196223</desc><desc class="x_label">2011</desc></g><g class="dots"><desc class="label">36 wickets in 31 innings (249.3 overs)</desc><circle class="dot reactive tooltip-trigger" cx="556.1820109024833" cy="223.97580861768384" r="2.5"/><desc class="value">39.72</desc><desc class="x left">556.1820109024833</desc><desc class="y left">223.97580861768384</desc><desc class="x_label">2012</desc></g><g class="dots"><desc class="label">21 wickets in 18 innings (139.3 overs)</desc><circle class="dot reactive tooltip-trigger" cx="628.8198061780739" cy="227.03369575234052" r="2.5"/><desc class="value">39.19</desc><desc class="x left">628.8198061780739</desc><desc class="y left">227.03369575234052</desc><desc class="x_label">2013</desc></g><g class="dots"><desc class="label">11 wickets in 11 innings (89.0 overs)</desc><circle class="dot reactive tooltip-trigger" cx="667.9324651726226" cy="165.18360125513368" r="2.5"/><desc class="value">49.91</desc><desc class="x left">667.9324651726226</desc><desc class="y left">165.18360125513368</desc><desc class="x_label">2014</desc></g><g class="dots"><desc class="label">6 wickets in 5 innings (38.0 overs)</desc><circle class="dot reactive tooltip-trigger" cx="701.4576014536643" cy="224.26428853604764" r="2.5"/><desc class="value">39.67</desc><desc class="x left">701.4576014536643</desc><desc class="y left">224.26428853604764</desc><desc class="x_label">2015</desc></g><g class="dots"><desc class="label">6 wickets in 4 innings (31.0 overs)</desc><circle class="dot reactive tooltip-trigger" cx="707.0451241671715" cy="275.2675381027742" r="2.5"/><desc class="value">30.83</desc><desc class="x left top">707.0451241671715</desc><desc class="y left top">275.2675381027742</desc><desc class="x_label">2016</desc></g></g><g class="series serie-1 color-1"><g class="dots"><desc class="label">0 wickets over 0 innings</desc><circle class="dot reactive tooltip-trigger" cx="14.192307692307692" cy="453.1442557659166" r="2.5"/><desc class="value">0</desc><desc class="x top">14.192307692307692</desc><desc class="y top">453.1442557659166</desc><desc class="x_label">2003</desc></g><g class="dots"><desc class="label">19 wickets in 15 innings (112.2 overs)</desc><circle class="dot reactive tooltip-trigger" cx="98.00514839491217" cy="295.51882837191556" r="2.5"/><desc class="value">27.32</desc><desc class="x top">98.00514839491217</desc><desc class="y top">295.51882837191556</desc><desc class="x_label">2006</desc></g><g class="dots"><desc class="label">30 wickets in 25 innings (192.1 overs)</desc><circle class="dot reactive tooltip-trigger" cx="153.88037552998185" cy="283.34497581696166" r="2.5"/><desc class="value">29.43</desc><desc class="x top">153.88037552998185</desc><desc class="y top">283.34497581696166</desc><desc class="x_label">2007</desc></g><g class="dots"><desc class="label">49 wickets in 39 innings (304.5 overs)</desc><circle class="dot reactive tooltip-trigger" cx="232.10569351907935" cy="278.03694531906706" r="2.5"/><desc class="value">30.35</desc><desc class="x top">232.10569351907935</desc><desc class="y top">278.03694531906706</desc><desc class="x_label">2008</desc></g><g class="dots"><desc class="label">73 wickets in 51 innings (398.0 overs)</desc><circle class="dot reactive tooltip-trigger" cx="299.15596608116294" cy="298.05745165351743" r="2.5"/><desc class="value">26.88</desc><desc class="x top">299.15596608116294</desc><desc class="y top">298.05745165351743</desc><desc class="x_label">2009</desc></g><g class="dots"><desc class="label">100 wickets in 67 innings (532.4 overs)</desc><circle class="dot reactive tooltip-trigger" cx="388.55632949727436" cy="300.1922030494098" r="2.5"/><desc class="value">26.51</desc><desc class="x left top">388.55632949727436</desc><desc class="y left top">300.1922030494098</desc><desc class="x_label">2010</desc></g><g class="dots"><desc class="label">115 wickets in 75 innings (602.5 overs)</desc><circle class="dot reactive tooltip-trigger" cx="433.25651120533007" cy="298.11514763719015" r="2.5"/><desc class="value">26.87</desc><desc class="x left top">433.25651120533007</desc><desc class="y left top">298.11514763719015</desc><desc class="x_label">2011</desc></g><g class="dots"><desc class="label">143 wickets in 97 innings (761.1 overs)</desc><circle class="dot reactive tooltip-trigger" cx="556.1820109024833" cy="298.92289140860885" r="2.5"/><desc class="value">26.73</desc><desc class="x left top">556.1820109024833</desc><desc class="y left top">298.92289140860885</desc><desc class="x_label">2012</desc></g><g class="dots"><desc class="label">158 wickets in 110 innings (871.1 overs)</desc><circle class="dot reactive tooltip-trigger" cx="628.8198061780739" cy="291.36471754747635" r="2.5"/><desc class="value">28.04</desc><desc class="x left top">628.8198061780739</desc><desc class="y left top">291.36471754747635</desc><desc class="x_label">2013</desc></g><g class="dots"><desc class="label">168 wickets in 117 innings (921.4 overs)</desc><circle class="dot reactive tooltip-trigger" cx="667.9324651726226" cy="291.5955014821674" r="2.5"/><desc class="value">28</desc><desc class="x left top">667.9324651726226</desc><desc class="y left top">291.5955014821674</desc><desc class="x_label">2014</desc></g><g class="dots"><desc class="label">173 wickets in 123 innings (972.4 overs)</desc><circle class="dot reactive tooltip-trigger" cx="701.4576014536643" cy="285.8835990985634" r="2.5"/><desc class="value">28.99</desc><desc class="x left top">701.4576014536643</desc><desc class="y left top">285.8835990985634</desc><desc class="x_label">2015</desc></g><g class="dots"><desc class="label">173 wickets in 124 innings (979.4 overs)</desc><circle class="dot reactive tooltip-trigger" cx="707.0451241671715" cy="284.15271958838036" r="2.5"/><desc class="value">29.29</desc><desc class="x left top">707.0451241671715</desc><desc class="y left top">284.15271958838036</desc><desc class="x_label">2016</desc></g></g><g class="series serie-2 color-2"/></g><g class="plot text-overlay" transform="translate(42, 46)"><g class="series serie-0 color-0"/><g class="series serie-1 color-1"/><g class="series serie-2 color-2"/></g><g class="plot tooltip-overlay" transform="translate(42, 46)"><g class="tooltip" style="opacity: 0" transform="translate(0 0)"><rect class="tooltip-box" height="0" rx="10" ry="10" width="0"/><g class="text"/></g></g><g class="legends" transform="translate(52, 545)"><g class="legend reactive activate-serie" id="activate-serie-0"><rect class="color-0 reactive" height="12" width="12" x="0.0" y="1.0"/><text x="17.0" y="11.2">Future Average</text></g><g class="legend reactive activate-serie" id="activate-serie-1"><rect class="color-1 reactive" height="12" width="12" x="369.0" y="1.0"/><text x="386.0" y="11.2">Past Average</text></g><g class="legend reactive activate-serie" id="activate-serie-2"><rect class="color-2 reactive" height="12" width="12" x="0.0" y="22.0"/><text x="17.0" y="32.2">Career Average</text></g></g></g></svg>