<?xml version='1.0' encoding='utf-8'?>
<svg xmlns:xlink="http://www.w3.org/1999/xlink" xmlns="http://www.w3.org/2000/svg" id="chart-4e3d713d-82dd-4c72-a60f-032df70da0f0" class="pygal-chart" viewBox="0 0 800 600"><!--Generated with pygal 2.4.0 (lxml) ©Kozea 2012-2016 on 2019-08-02--><!--http://pygal.org--><!--http://github.com/Kozea/pygal--><defs><style type="text/css">#chart-4e3d713d-82dd-4c72-a60f-032df70da0f0{-webkit-user-select:none;-webkit-font-smoothing:antialiased;font-family:Consolas,"Liberation Mono",Menlo,Courier,monospace}#chart-4e3d713d-82dd-4c72-a60f-032df70da0f0 .title{font-family:Consolas,"Liberation Mono",Menlo,Courier,monospace;font-size:16px}#chart-4e3d713d-82dd-4c72-a60f-032df70da0f0 .legends .legend text{font-family:Consolas,"Liberation Mono",Menlo,Courier,monospace;font-size:14px}#chart-4e3d713d-82dd-4c72-a60f-032df70da0f0 .axis text{font-family:Consolas,"Liberation Mono",Menlo,Courier,monospace;font-size:10px}#chart-4e3d713d-82dd-4c72-a60f-032df70da0f0 .axis text.major{font-family:Consolas,"Liberation Mono",Menlo,Courier,monospace;font-size:10px}#chart-4e3d713d-82dd-4c72-a60f-032df70da0f0 .text-overlay text.value{font-family:Consolas,"Liberation Mono",Menlo,Courier,monospace;font-size:16px}#chart-4e3d713d-82dd-4c72-a60f-032df70da0f0 .text-overlay text.label{font-family:Consolas,"Liberation Mono",Menlo,Courier,monospace;font-size:10px}#chart-4e3d713d-82dd-4c72-a60f-032df70da0f0 .tooltip{font-family:Consolas,"Liberation Mono",Menlo,Courier,monospace;font-size:14px}#chart-4e3d713d-82dd-4c72-a60f-032df70da0f0 text.no_data{font-family:Consolas,"Liberation Mono",Menlo,Courier,monospace;font-size:64px}
#chart-4e3d713d-82dd-4c72-a60f-032df70da0f0{background-color:rgba(249,249,249,1)}#chart-4e3d713d-82dd-4c72-a60f-032df70da0f0 path,#chart-4e3d713d-82dd-4c72-a60f-032df70da0f0 line,#chart-4e3d713d-82dd-4c72-a60f-032df70da0f0 rect,#chart-4e3d713d-82dd-4c72-a60f-032df70da0f0 circle{-webkit-transition:150ms;-moz-transition:150ms;transition:150ms}#chart-4e3d713d-82dd-4c72-a60f-032df70da0f0 .graph &gt; .background{fill:rgba(249,249,249,1)}#chart-4e3d713d-82dd-4c72-a60f-032df70da0f0 .plot &gt; .background{fill:rgba(255,255,255,1)}#chart-4e3d713d-82dd-4c72-a60f-032df70da0f0 .graph{fill:rgba(0,0,0,.87)}#chart-4e3d713d-82dd-4c72-a60f-032df70da0f0 text.no_data{fill:rgba(0,0,0,1)}#chart-4e3d713d-82dd-4c72-a60f-032df70da0f0 .title{fill:rgba(0,0,0,1)}#chart-4e3d713d-82dd-4c72-a60f-032df70da0f0 .legends .legend text{fill:rgba(0,0,0,.87)}#chart-4e3d713d-82dd-4c72-a60f-032df70da0f0 .legends .legend:hover text{fill:rgba(0,0,0,1)}#chart-4e3d713d-82dd-4c72-a60f-032df70da0f0 .axis .line{stroke:rgba(0,0,0,1)}#chart-4e3d713d-82dd-4c72-a60f-032df70da0f0 .axis .guide.line{stroke:rgba(0,0,0,.54)}#chart-4e3d713d-82dd-4c72-a60f-032df70da0f0 .axis .major.line{stroke:rgba(0,0,0,.87)}#chart-4e3d713d-82dd-4c72-a60f-032df70da0f0 .axis text.major{fill:rgba(0,0,0,1)}#chart-4e3d713d-82dd-4c72-a60f-032df70da0f0 .axis.y .guides:hover .guide.line,#chart-4e3d713d-82dd-4c72-a60f-032df70da0f0 .line-graph .axis.x .guides:hover .guide.line,#chart-4e3d713d-82dd-4c72-a60f-032df70da0f0 .stackedline-graph .axis.x .guides:hover .guide.line,#chart-4e3d713d-82dd-4c72-a60f-032df70da0f0 .xy-graph .axis.x .guides:hover .guide.line{stroke:rgba(0,0,0,1)}#chart-4e3d713d-82dd-4c72-a60f-032df70da0f0 .axis .guides:hover text{fill:rgba(0,0,0,1)}#chart-4e3d713d-82dd-4c72-a60f-032df70da0f0 .reactive{fill-opacity:.7;stroke-opacity:.8}#chart-4e3d713d-82dd-4c72-a60f-032df70da0f0 .ci{stroke:rgba(0,0,0,.87)}#chart-4e3d713d-82dd-4c72-a60f-032df70da0f0 .reactive.active,#chart-4e3d713d-82dd-4c72-a60f-032df70da0f0 .active .reactive{fill-opacity:.8;stroke-opacity:.9;stroke-width:4}#chart-4e3d713d-82dd-4c72-a60f-032df70da0f0 .ci .reactive.active{stroke-width:1.5}#chart-4e3d713d-82dd-4c72-a60f-032df70da0f0 .series text{fill:rgba(0,0,0,1)}#chart-4e3d713d-82dd-4c72-a60f-032df70da0f0 .tooltip rect{fill:rgba(255,255,255,1);stroke:rgba(0,0,0,1);-webkit-transition:opacity 150ms;-moz-transition:opacity 150ms;transition:opacity 150ms}#chart-4e3d713d-82dd-4c72-a60f-032df70da0f0 .tooltip .label{fill:rgba(0,0,0,.87)}#chart-4e3d713d-82dd-4c72-a60f-032df70da0f0 .tooltip .label{fill:rgba(0,0,0,.87)}#chart-4e3d713d-82dd-4c72-a60f-032df70da0f0 .tooltip .legend{font-size:.8em;fill:rgba(0,0,0,.54)}#chart-4e3d713d-82dd-4c72-a60f-032df70da0f0 .tooltip .x_label{font-size:.6em;fill:rgba(0,0,0,1)}#chart-4e3d713d-82dd-4c72-a60f-032df70da0f0 .tooltip .xlink{font-size:.5em;text-decoration:underline}#chart-4e3d713d-82dd-4c72-a60f-032df70da0f0 .tooltip .value{font-size:1.5em}#chart-4e3d713d-82dd-4c72-a60f-032df70da0f0 .bound{font-size:.5em}#chart-4e3d713d-82dd-4c72-a60f-032df70da0f0 .max-value{font-size:.75em;fill:rgba(0,0,0,.54)}#chart-4e3d713d-82dd-4c72-a60f-032df70da0f0 .map-element{fill:rgba(255,255,255,1);stroke:rgba(0,0,0,.54) !important}#chart-4e3d713d-82dd-4c72-a60f-032df70da0f0 .map-element .reactive{fill-opacity:inherit;stroke-opacity:inherit}#chart-4e3d713d-82dd-4c72-a60f-032df70da0f0 .color-0,#chart-4e3d713d-82dd-4c72-a60f-032df70da0f0 .color-0 a:visited{stroke:#F44336;fill:#F44336}#chart-4e3d713d-82dd-4c72-a60f-032df70da0f0 .color-1,#chart-4e3d713d-82dd-4c72-a60f-032df70da0f0 .color-1 a:visited{stroke:#3F51B5;fill:#3F51B5}#chart-4e3d713d-82dd-4c72-a60f-032df70da0f0 .color-2,#chart-4e3d713d-82dd-4c72-a60f-032df70da0f0 .color-2 a:visited{stroke:#009688;fill:#009688}#chart-4e3d713d-82dd-4c72-a60f-032df70da0f0 .text-overlay .color-0 text{fill:black}#chart-4e3d713d-82dd-4c72-a60f-032df70da0f0 .text-overlay .color-1 text{fill:black}#chart-4e3d713d-82dd-4c72-a60f-032df70da0f0 .text-overlay .color-2 text{fill:black}
#chart-4e3d713d-82dd-4c72-a60f-032df70da0f0 text.no_data{text-anchor:middle}#chart-4e3d713d-82dd-4c72-a60f-032df70da0f0 .guide.line{fill:none}#chart-4e3d713d-82dd-4c72-a60f-032df70da0f0 .centered{text-anchor:middle}#chart-4e3d713d-82dd-4c72-a60f-032df70da0f0 .title{text-anchor:middle}#chart-4e3d713d-82dd-4c72-a60f-032df70da0f0 .legends .legend text{fill-opacity:1}#chart-4e3d713d-82dd-4c72-a60f-032df70da0f0 .axis.x text{text-anchor:middle}#chart-4e3d713d-82dd-4c72-a60f-032df70da0f0 .axis.x:not(.web) text[transform]{text-anchor:start}#chart-4e3d713d-82dd-4c72-a60f-032df70da0f0 .axis.x:not(.web) text[transform].backwards{text-anchor:end}#chart-4e3d713d-82dd-4c72-a60f-032df70da0f0 .axis.y text{text-anchor:end}#chart-4e3d713d-82dd-4c72-a60f-032df70da0f0 .axis.y text[transform].backwards{text-anchor:start}#chart-4e3d713d-82dd-4c72-a60f-032df70da0f0 .axis.y2 text{text-anchor:start}#chart-4e3d713d-82dd-4c72-a60f-032df70da0f0 .axis.y2 text[transform].backwards{text-anchor:end}#chart-4e3d713d-82dd-4c72-a60f-032df70da0f0 .axis .guide.line{stroke-dasharray:4,4}#chart-4e3d713d-82dd-4c72-a60f-032df70da0f0 .axis .major.guide.line{stroke-dasharray:6,6}#chart-4e3d713d-82dd-4c72-a60f-032df70da0f0 .horizontal .axis.y .guide.line,#chart-4e3d713d-82dd-4c72-a60f-032df70da0f0 .horizontal .axis.y2 .guide.line,#chart-4e3d713d-82dd-4c72-a60f-032df70da0f0 .vertical .axis.x .guide.line{opacity:0}#chart-4e3d713d-82dd-4c72-a60f-032df70da0f0 .horizontal .axis.always_show .guide.line,#chart-4e3d713d-82dd-4c72-a60f-032df70da0f0 .vertical .axis.always_show .guide.line{opacity:1 !important}#chart-4e3d713d-82dd-4c72-a60f-032df70da0f0 .axis.y .guides:hover .guide.line,#chart-4e3d713d-82dd-4c72-a60f-032df70da0f0 .axis.y2 .guides:hover .guide.line,#chart-4e3d713d-82dd-4c72-a60f-032df70da0f0 .axis.x .guides:hover .guide.line{opacity:1}#chart-4e3d713d-82dd-4c72-a60f-032df70da0f0 .axis .guides:hover text{opacity:1}#chart-4e3d713d-82dd-4c72-a60f-032df70da0f0 .nofill{fill:none}#chart-4e3d713d-82dd-4c72-a60f-032df70da0f0 .subtle-fill{fill-opacity:.2}#chart-4e3d713d-82dd-4c72-a60f-032df70da0f0 .dot{stroke-width:1px;fill-opacity:1}#chart-4e3d713d-82dd-4c72-a60f-032df70da0f0 .dot.active{stroke-width:5px}#chart-4e3d713d-82dd-4c72-a60f-032df70da0f0 .dot.negative{fill:transparent}#chart-4e3d713d-82dd-4c72-a60f-032df70da0f0 text,#chart-4e3d713d-82dd-4c72-a60f-032df70da0f0 tspan{stroke:none !important}#chart-4e3d713d-82dd-4c72-a60f-032df70da0f0 .series text.active{opacity:1}#chart-4e3d713d-82dd-4c72-a60f-032df70da0f0 .tooltip rect{fill-opacity:.95;stroke-width:.5}#chart-4e3d713d-82dd-4c72-a60f-032df70da0f0 .tooltip text{fill-opacity:1}#chart-4e3d713d-82dd-4c72-a60f-032df70da0f0 .showable{visibility:hidden}#chart-4e3d713d-82dd-4c72-a60f-032df70da0f0 .showable.shown{visibility:visible}#chart-4e3d713d-82dd-4c72-a60f-032df70da0f0 .gauge-background{fill:rgba(229,229,229,1);stroke:none}#chart-4e3d713d-82dd-4c72-a60f-032df70da0f0 .bg-lines{stroke:rgba(249,249,249,1);stroke-width:2px}</style><script type="text/javascript">window.pygal = window.pygal || {};window.pygal.config = window.pygal.config || {};window.pygal.config['4e3d713d-82dd-4c72-a60f-032df70da0f0'] = {"allow_interruptions": false, "box_mode": "extremes", "classes": ["pygal-chart"], "css": ["file://style.css", "file://graph.css"], "defs": [], "disable_xml_declaration": false, "dots_size": 2.5, "dynamic_print_values": false, "explicit_size": false, "fill": false, "force_uri_protocol": "https", "formatter": null, "half_pie": false, "height": 600, "include_x_axis": false, "inner_radius": 0, "interpolate": null, "interpolation_parameters": {}, "interpolation_precision": 250, "inverse_y_axis": false, "js": ["//kozea.github.io/pygal.js/2.0.x/pygal-tooltips.min.js"], "legend_at_bottom": true, "legend_at_bottom_columns": null, "legend_box_size": 12, "logarithmic": false, "margin": 20, "margin_bottom": null, "margin_left": null, "margin_right": null, "margin_top": null, "max_scale": 16, "min_scale": 4, "missing_value_fill_truncation": "x", "no_data_text": "No data", "no_prefix": false, "order_min": null, "pretty_print": false, "print_labels": false, "print_values": false, "print_values_position": "center", "print_zeroes": true, "range": null, "rounded_bars": null, "secondary_range": null, "show_dots": true, "show_legend": true, "show_minor_x_labels": false, "show_minor_y_labels": true, "show_only_major_dots": false, "show_x_guides": false, "show_x_labels": true, "show_y_guides": true, "show_y_labels": true, "spacing": 10, "stack_from_top": false, "strict": false, "stroke": true, "stroke_style": null, "style": {"background": "rgba(249, 249, 249, 1)", "ci_colors": [], "colors": ["#F44336", "#3F51B5", "#009688", "#FFC107", "#FF5722", "#9C27B0", "#03A9F4", "#8BC34A", "#FF9800", "#E91E63", "#2196F3", "#4CAF50", "#FFEB3B", "#673AB7", "#00BCD4", "#CDDC39", "#9E9E9E", "#607D8B"], "font_family": "Consolas, \"Liberation Mono\", Menlo, Courier, monospace", "foreground": "rgba(0, 0, 0, .87)", "foreground_strong": "rgba(0, 0, 0, 1)", "foreground_subtle": "rgba(0, 0, 0, .54)", "guide_stroke_dasharray": "4,4", "label_font_family": "Consolas, \"Liberation Mono\", Menlo, Courier, monospace", "label_font_size": 10, "legend_font_family": "Consolas, \"Liberation Mono\", Menlo, Courier, monospace", "legend_font_size": 14, "major_guide_stroke_dasharray": "6,6", "major_label_font_family": "Consolas, \"Liberation Mono\", Menlo, Courier, monospace", "major_label_font_size": 10, "no_data_font_family": "Consolas, \"Liberation Mono\", Menlo, Courier, monospace", "no_data_font_size": 64, "opacity": ".7", "opacity_hover": ".8", "plot_background": "rgba(255, 255, 255, 1)", "stroke_opacity": ".8", "stroke_opacity_hover": ".9", "title_font_family": "Consolas, \"Liberation Mono\", Menlo, Courier, monospace", "title_font_size": 16, "tooltip_font_family": "Consolas, \"Liberation Mono\", Menlo, Courier, monospace", "tooltip_font_size": 14, "transition": "150ms", "value_background": "rgba(229, 229, 229, 1)", "value_colors": [], "value_font_family": "Consolas, \"Liberation Mono\", Menlo, Courier, monospace", "value_font_size": 16, "value_label_font_family": "Consolas, \"Liberation Mono\", Menlo, Courier, monospace", "value_label_font_size": 10}, "title": "V Sehwag: Future and Past Averages in ODIs", "tooltip_border_radius": 10, "tooltip_fancy_mode": true, "truncate_label": null, "truncate_legend": null, "width": 800, "x_label_rotation": 45, "x_labels": ["2000", "0", "2001", "0", "0", "0", "0", "0", "0", "0", "0", "0", "0", "0", "0", "0", "0", "2002", "0", "0", "0", "0", "0", "0", "0", "0", "0", "0", "0", "0", "0", "0", "0", "0", "0", "0", "0", "0", "2003", "0", "0", "0", "0", "0", "0", "0", "0", "0", "0", "0", "0", "0", "2004", "0", "0", "0", "0", "0", "0", "0", "0", "0", "0", "0", "0", "0", "0", "0", "0", "0", "2005", "0", "0", "0", "0", "0", "0", "0", "0", "0", "0", "0", "0", "0", "0", "0", "0", "0", "0", "0", "0", "0", "2006", "0", "0", "0", "0", "0", "0", "0", "0", "0", "0", "0", "0", "2007", "0", "0", "0", "0", "0", "0", "0", "2008", "0", "0", "0", "0", "0", "0", "0", "0", "0", "0", "0", "2009", "0", "0", "0", "0", "0", "0", "2010", "0", "0", "0", "0", "0", "0", "0", "2012", "0", "0", "0", "0", "0"], "x_labels_major": ["2000", "2001", "2002", "2003", "2004", "2005", "2006", "2007", "2008", "2009", "2010", "2012"], "x_labels_major_count": null, "x_labels_major_every": null, "x_title": null, "xrange": null, "y_label_rotation": 0, "y_labels": null, "y_labels_major": null, "y_labels_major_count": null, "y_labels_major_every": null, "y_title": null, "zero": 0, "legends": ["Future Average", "Past Average", "Career Average"]}</script><script type="text/javascript" xlink:href="https://kozea.github.io/pygal.js/2.0.x/pygal-tooltips.min.js"/></defs><title>V Sehwag: Future and Past Averages in ODIs</title><g class="graph line-graph vertical"><rect class="background" height="600" width="800" x="0" y="0"/><g class="plot" transform="translate(42, 46)"><rect class="background" height="462.02943725152284" width="738.0" x="0" y="0"/><g class="axis y always_show"><g class="guides"><path class="axis major line" d="M0.000000 453.144256 h738.000000"/><text class="major" x="-5" y="456.6442557659166">0</text><title>0</title></g><g class="guides"><path class="guide line" d="M0.000000 400.878482 h738.000000"/><text class="" x="-5" y="404.37848232117426">10</text><title>10</title></g><g class="guides"><path class="guide line" d="M0.000000 348.612709 h738.000000"/><text class="" x="-5" y="352.11270887643184">20</text><title>20</title></g><g class="guides"><path class="guide line" d="M0.000000 296.346935 h738.000000"/><text class="" x="-5" y="299.8469354316894">30</text><title>30</title></g><g class="guides"><path class="guide line" d="M0.000000 244.081162 h738.000000"/><text class="" x="-5" y="247.58116198694702">40</text><title>40</title></g><g class="guides"><path class="major guide line" d="M0.000000 191.815389 h738.000000"/><text class="major" x="-5" y="195.31538854220463">50</text><title>50</title></g><g class="guides"><path class="guide line" d="M0.000000 139.549615 h738.000000"/><text class="" x="-5" y="143.0496150974622">60</text><title>60</title></g><g class="guides"><path class="guide line" d="M0.000000 87.283842 h738.000000"/><text class="" x="-5" y="90.78384165271984">70</text><title>70</title></g><g class="guides"><path class="guide line" d="M0.000000 35.018068 h738.000000"/><text class="" x="-5" y="38.51806820797742">80</text><title>80</title></g></g><g class="axis x"><g class="guides"><path class="major line" d="M14.192308 0.000000 v462.029437"/><text class="major" x="14.192307692307692" y="477.02943725152284" transform="rotate(45 14.192308 477.029437)">2000</text></g><g class="guides"><path class="major guide line" d="M23.980106 0.000000 v462.029437"/><text class="major" x="23.98010610079576" y="477.02943725152284" transform="rotate(45 23.980106 477.029437)">2001</text></g><g class="guides"><path class="major guide line" d="M97.388594 0.000000 v462.029437"/><text class="major" x="97.38859416445622" y="477.02943725152284" transform="rotate(45 97.388594 477.029437)">2002</text></g><g class="guides"><path class="major guide line" d="M200.160477 0.000000 v462.029437"/><text class="major" x="200.1604774535809" y="477.02943725152284" transform="rotate(45 200.160477 477.029437)">2003</text></g><g class="guides"><path class="major guide line" d="M268.675066 0.000000 v462.029437"/><text class="major" x="268.6750663129974" y="477.02943725152284" transform="rotate(45 268.675066 477.029437)">2004</text></g><g class="guides"><path class="major guide line" d="M356.765252 0.000000 v462.029437"/><text class="major" x="356.7652519893899" y="477.02943725152284" transform="rotate(45 356.765252 477.029437)">2005</text></g><g class="guides"><path class="major guide line" d="M464.431034 0.000000 v462.029437"/><text class="major" x="464.43103448275866" y="477.02943725152284" transform="rotate(45 464.431034 477.029437)">2006</text></g><g class="guides"><path class="major guide line" d="M528.051724 0.000000 v462.029437"/><text class="major" x="528.0517241379309" y="477.02943725152284" transform="rotate(45 528.051724 477.029437)">2007</text></g><g class="guides"><path class="major guide line" d="M567.202918 0.000000 v462.029437"/><text class="major" x="567.2029177718833" y="477.02943725152284" transform="rotate(45 567.202918 477.029437)">2008</text></g><g class="guides"><path class="major guide line" d="M625.929708 0.000000 v462.029437"/><text class="major" x="625.9297082228115" y="477.02943725152284" transform="rotate(45 625.929708 477.029437)">2009</text></g><g class="guides"><path class="major guide line" d="M660.187003 0.000000 v462.029437"/><text class="major" x="660.1870026525199" y="477.02943725152284" transform="rotate(45 660.187003 477.029437)">2010</text></g><g class="guides"><path class="major guide line" d="M699.338196 0.000000 v462.029437"/><text class="major" x="699.3381962864721" y="477.02943725152284" transform="rotate(45 699.338196 477.029437)">2012</text></g></g><g class="series serie-0 color-0"><path class="line reactive nofill" d="M14.192308 243.349441 L19.086207 245.283275 23.980106 242.931315 28.874005 239.377242 33.767905 240.474824 38.661804 242.722252 43.555703 244.447022 48.449602 247.164843 53.343501 248.941879 58.237401 248.628284 63.131300 245.231009 68.025199 245.231009 72.919098 246.380856 77.812997 247.948829 82.706897 246.642185 87.600796 243.192644 92.494695 245.544604 97.388594 246.224059 102.282493 246.903514 107.176393 247.478437 112.070292 248.576019 116.964191 244.969680 121.858090 246.537653 126.751989 247.896563 131.645889 248.001095 136.539788 248.576019 141.433687 249.255474 146.327586 250.927978 151.221485 252.548217 156.115385 246.485388 161.009284 248.628284 165.903183 250.718915 170.797082 250.614384 175.690981 251.450636 180.584881 253.436735 185.478780 254.168456 190.372679 255.370569 195.266578 255.631898 200.160477 251.555168 205.054377 251.973294 209.948276 250.143992 214.842175 251.346104 219.736074 252.809546 224.629973 250.091726 229.523873 251.293839 234.417772 252.391420 239.311671 245.387806 244.205570 243.035847 249.099469 243.244910 253.993369 239.429508 258.887268 241.833734 263.781167 244.917414 268.675066 244.499288 273.568966 241.676936 278.462865 237.913801 283.356764 240.579355 288.250663 243.349441 293.144562 242.565455 298.038462 246.224059 302.932361 245.231009 307.826260 249.516802 312.720159 248.053361 317.614058 239.795369 322.507958 238.854585 327.401857 238.227395 332.295756 234.725589 337.189655 237.391143 342.083554 240.945216 346.977454 238.854585 351.871353 239.063648 356.765252 242.669986 361.659151 248.053361 366.553050 249.203208 371.446950 249.673600 376.340849 245.440072 381.234748 250.875713 386.128647 246.014996 391.022546 249.203208 395.916446 249.725866 400.810345 251.502902 405.704244 252.443686 410.598143 242.408657 415.492042 239.429508 420.385942 241.311076 425.279841 238.279661 430.173740 236.398093 435.067639 235.509575 439.961538 238.227395 444.855438 242.042797 449.749337 244.865149 454.643236 236.345828 459.537135 238.540990 464.431034 235.561841 469.324934 237.443409 474.218833 240.945216 479.112732 241.833734 484.006631 245.492338 488.900531 236.450359 493.794430 240.370292 498.688329 242.408657 503.582228 240.213495 508.476127 248.523753 513.370027 252.600483 518.263926 252.130091 523.157825 254.743380 528.051724 251.398370 532.945623 257.670263 537.839523 255.422835 542.733422 241.467873 547.627321 245.021946 552.521220 246.589919 557.415119 245.910464 562.309019 248.785082 567.202918 255.579632 572.096817 261.851525 576.990716 265.510129 581.884615 263.314967 586.778515 272.409211 591.672414 279.569622 596.566313 260.701678 601.460212 271.154833 606.354111 277.897117 611.248011 276.747270 616.141910 288.663867 621.035809 259.760894 625.929708 261.485665 630.823607 269.795923 635.717507 267.339431 640.611406 251.032510 645.505305 266.137318 650.399204 270.788972 655.293103 264.987471 660.187003 274.813437 665.080902 291.747547 669.974801 302.880157 674.868700 319.239344 679.762599 193.122033 684.656499 217.948275 689.550398 240.161229 694.444297 246.694451 699.338196 274.133982 704.232095 285.893781 709.125995 8.885181 714.019894 134.323038 718.913793 238.854585 723.807692 254.534317"/></g><g class="series serie-1 color-1"><path class="line reactive nofill" d="M14.192308 453.144256 L19.086207 270.214049 23.980106 264.987471 28.874005 316.207929 33.767905 296.346935 38.661804 255.579632 43.555703 224.220168 48.449602 174.045026 53.343501 141.640246 58.237401 164.793984 63.131300 223.174853 68.025199 225.474547 72.919098 214.446468 77.812997 199.341660 82.706897 217.948275 87.600796 244.499288 92.494695 229.603543 97.388594 225.160952 102.282493 220.770627 107.176393 217.164289 112.070292 210.317472 116.964191 234.673323 121.858090 226.310799 126.751989 218.993591 131.645889 218.314136 136.539788 215.178189 141.433687 211.676382 146.327586 202.634404 151.221485 193.906019 156.115385 229.864872 161.009284 220.561564 165.903183 211.571851 170.797082 214.080608 175.690981 212.721698 180.584881 205.143161 185.478780 204.777300 190.372679 203.000264 195.266578 204.515971 200.160477 221.345551 205.054377 220.143438 209.948276 226.101736 214.842175 222.965790 219.736074 219.307185 224.629973 227.094786 229.523873 224.115637 234.417772 221.502348 239.311671 239.168179 244.205570 244.081162 249.099469 243.610770 253.993369 250.196257 258.887268 246.014996 263.781167 240.631621 268.675066 241.467873 273.568966 246.067261 278.462865 251.293839 283.356764 247.426171 288.250663 243.401707 293.144562 244.499288 298.038462 239.377242 302.932361 240.892950 307.826260 235.143715 312.720159 237.338877 317.614058 247.426171 322.507958 248.262424 327.401857 248.732816 332.295756 251.659699 337.189655 249.098676 342.083554 245.701401 346.977454 247.530703 351.871353 247.164843 356.765252 243.976630 361.659151 239.272711 366.553050 238.436458 371.446950 238.070598 376.340849 241.729202 381.234748 237.286611 386.128647 241.415608 391.022546 239.063648 395.916446 238.854585 400.810345 237.547940 405.704244 236.868485 410.598143 243.976630 415.492042 245.753667 420.385942 244.603820 425.279841 246.328590 430.173740 247.217108 435.067639 247.478437 439.961538 246.067261 444.855438 244.081162 449.749337 242.565455 454.643236 246.746716 459.537135 245.701401 464.431034 246.955780 469.324934 246.067261 474.218833 244.499288 479.112732 244.081162 484.006631 242.408657 488.900531 246.224059 493.794430 244.603820 498.688329 243.767567 503.582228 244.603820 508.476127 241.363342 513.370027 239.743103 518.263926 240.108963 523.157825 239.168179 528.051724 240.527089 532.945623 238.331927 537.839523 239.377242 542.733422 243.924365 547.627321 242.879049 552.521220 242.460923 557.415119 242.722252 562.309019 241.938265 567.202918 240.161229 572.096817 238.488724 576.990716 237.547940 581.884615 238.436458 586.778515 236.189030 591.672414 234.464260 596.566313 239.638571 601.460212 237.391143 606.354111 235.927701 611.248011 236.711688 616.141910 234.986917 621.035809 241.049747 625.929708 240.788418 630.823607 239.586305 635.717507 240.265761 640.611406 242.565455 645.505305 240.997481 650.399204 240.527089 655.293103 241.415608 660.187003 240.527089 665.080902 238.959116 669.974801 237.966066 674.868700 236.502625 679.762599 245.544604 684.656499 244.499288 689.550398 243.506238 694.444297 243.244910 699.338196 242.042797 704.232095 241.520139 709.125995 245.858198 714.019894 244.499288 718.913793 243.401707 723.807692 243.244910"/></g><g class="series serie-2 color-2"><path class="line reactive nofill" d="M14.192308 243.349441 L19.086207 243.349441 23.980106 243.349441 28.874005 243.349441 33.767905 243.349441 38.661804 243.349441 43.555703 243.349441 48.449602 243.349441 53.343501 243.349441 58.237401 243.349441 63.131300 243.349441 68.025199 243.349441 72.919098 243.349441 77.812997 243.349441 82.706897 243.349441 87.600796 243.349441 92.494695 243.349441 97.388594 243.349441 102.282493 243.349441 107.176393 243.349441 112.070292 243.349441 116.964191 243.349441 121.858090 243.349441 126.751989 243.349441 131.645889 243.349441 136.539788 243.349441 141.433687 243.349441 146.327586 243.349441 151.221485 243.349441 156.115385 243.349441 161.009284 243.349441 165.903183 243.349441 170.797082 243.349441 175.690981 243.349441 180.584881 243.349441 185.478780 243.349441 190.372679 243.349441 195.266578 243.349441 200.160477 243.349441 205.054377 243.349441 209.948276 243.349441 214.842175 243.349441 219.736074 243.349441 224.629973 243.349441 229.523873 243.349441 234.417772 243.349441 239.311671 243.349441 244.205570 243.349441 249.099469 243.349441 253.993369 243.349441 258.887268 243.349441 263.781167 243.349441 268.675066 243.349441 273.568966 243.349441 278.462865 243.349441 283.356764 243.349441 288.250663 243.349441 293.144562 243.349441 298.038462 243.349441 302.932361 243.349441 307.826260 243.349441 312.720159 243.349441 317.614058 243.349441 322.507958 243.349441 327.401857 243.349441 332.295756 243.349441 337.189655 243.349441 342.083554 243.349441 346.977454 243.349441 351.871353 243.349441 356.765252 243.349441 361.659151 243.349441 366.553050 243.349441 371.446950 243.349441 376.340849 243.349441 381.234748 243.349441 386.128647 243.349441 391.022546 243.349441 395.916446 243.349441 400.810345 243.349441 405.704244 243.349441 410.598143 243.349441 415.492042 243.349441 420.385942 243.349441 425.279841 243.349441 430.173740 243.349441 435.067639 243.349441 439.961538 243.349441 444.855438 243.349441 449.749337 243.349441 454.643236 243.349441 459.537135 243.349441 464.431034 243.349441 469.324934 243.349441 474.218833 243.349441 479.112732 243.349441 484.006631 243.349441 488.900531 243.349441 493.794430 243.349441 498.688329 243.349441 503.582228 243.349441 508.476127 243.349441 513.370027 243.349441 518.263926 243.349441 523.157825 243.349441 528.051724 243.349441 532.945623 243.349441 537.839523 243.349441 542.733422 243.349441 547.627321 243.349441 552.521220 243.349441 557.415119 243.349441 562.309019 243.349441 567.202918 243.349441 572.096817 243.349441 576.990716 243.349441 581.884615 243.349441 586.778515 243.349441 591.672414 243.349441 596.566313 243.349441 601.460212 243.349441 606.354111 243.349441 611.248011 243.349441 616.141910 243.349441 621.035809 243.349441 625.929708 243.349441 630.823607 243.349441 635.717507 243.349441 640.611406 243.349441 645.505305 243.349441 650.399204 243.349441 655.293103 243.349441 660.187003 243.349441 665.080902 243.349441 669.974801 243.349441 674.868700 243.349441 679.762599 243.349441 684.656499 243.349441 689.550398 243.349441 694.444297 243.349441 699.338196 243.349441 704.232095 243.349441 709.125995 243.349441 714.019894 243.349441 718.913793 243.349441 723.807692 243.349441"/></g></g><g class="titles"><text class="title plot_title" x="400.0" y="26">V Sehwag: Future and Past Averages in ODIs</text></g><g class="plot overlay" transform="translate(42, 46)"><g class="series serie-0 color-0"><g class="dots"><desc class="label">96 wickets in 146 innings (732.0 overs)</desc><circle class="dot reactive tooltip-trigger" cx="14.192307692307692" cy="243.34944115872062" r="2.5"/><desc class="value">40.14</desc><desc class="x top">14.192307692307692</desc><desc class="y top">243.34944115872062</desc><desc class="x_label">2000</desc></g><g class="dots"><desc class="label">94 wickets in 144 innings (721.0 overs)</desc><circle class="dot reactive tooltip-trigger" cx="23.98010610079576" cy="242.9313149711627" r="2.5"/><desc class="value">40.22</desc><desc class="x top">23.98010610079576</desc><desc class="y top">242.9313149711627</desc><desc class="x_label">2001</desc></g><g class="dots"><desc class="label">83 wickets in 129 innings (625.2 overs)</desc><circle class="dot reactive tooltip-trigger" cx="97.38859416445622" cy="246.2240586981814" r="2.5"/><desc class="value">39.59</desc><desc class="x top">97.38859416445622</desc><desc class="y top">246.2240586981814</desc><desc class="x_label">2002</desc></g><g class="dots"><desc class="label">70 wickets in 108 innings (516.2 overs)</desc><circle class="dot reactive tooltip-trigger" cx="200.1604774535809" cy="251.5551675895452" r="2.5"/><desc class="value">38.57</desc><desc class="x top">200.1604774535809</desc><desc class="y top">251.5551675895452</desc><desc class="x_label">2003</desc></g><g class="dots"><desc class="label">60 wickets in 94 innings (456.3 overs)</desc><circle class="dot reactive tooltip-trigger" cx="268.6750663129974" cy="244.49928817450493" r="2.5"/><desc class="value">39.92</desc><desc class="x top">268.6750663129974</desc><desc class="y top">244.49928817450493</desc><desc class="x_label">2004</desc></g><g class="dots"><desc class="label">45 wickets in 76 innings (342.3 overs)</desc><circle class="dot reactive tooltip-trigger" cx="356.7652519893899" cy="242.66998610393895" r="2.5"/><desc class="value">40.27</desc><desc class="x top">356.7652519893899</desc><desc class="y top">242.66998610393895</desc><desc class="x_label">2005</desc></g><g class="dots"><desc class="label">30 wickets in 54 innings (242.4 overs)</desc><circle class="dot reactive tooltip-trigger" cx="464.43103448275866" cy="235.561840915454" r="2.5"/><desc class="value">41.63</desc><desc class="x left top">464.43103448275866</desc><desc class="y left top">235.561840915454</desc><desc class="x_label">2006</desc></g><g class="dots"><desc class="label">25 wickets in 41 innings (182.4 overs)</desc><circle class="dot reactive tooltip-trigger" cx="528.0517241379309" cy="251.39837026921094" r="2.5"/><desc class="value">38.6</desc><desc class="x left top">528.0517241379309</desc><desc class="y left top">251.39837026921094</desc><desc class="x_label">2007</desc></g><g class="dots"><desc class="label">20 wickets in 33 innings (143.4 overs)</desc><circle class="dot reactive tooltip-trigger" cx="567.2029177718833" cy="255.57963214479037" r="2.5"/><desc class="value">37.8</desc><desc class="x left top">567.2029177718833</desc><desc class="y left top">255.57963214479037</desc><desc class="x_label">2008</desc></g><g class="dots"><desc class="label">12 wickets in 21 innings (86.5 overs)</desc><circle class="dot reactive tooltip-trigger" cx="625.9297082228115" cy="261.48566454404624" r="2.5"/><desc class="value">36.67</desc><desc class="x left top">625.9297082228115</desc><desc class="y left top">261.48566454404624</desc><desc class="x_label">2009</desc></g><g class="dots"><desc class="label">8 wickets in 14 innings (53.5 overs)</desc><circle class="dot reactive tooltip-trigger" cx="660.1870026525199" cy="274.8134367724556" r="2.5"/><desc class="value">34.12</desc><desc class="x left top">660.1870026525199</desc><desc class="y left top">274.8134367724556</desc><desc class="x_label">2010</desc></g><g class="dots"><desc class="label">4 wickets in 6 innings (27.0 overs)</desc><circle class="dot reactive tooltip-trigger" cx="699.3381962864721" cy="274.1339817176739" r="2.5"/><desc class="value">34.25</desc><desc class="x left top">699.3381962864721</desc><desc class="y left top">274.1339817176739</desc><desc class="x_label">2012</desc></g></g><g class="series serie-1 color-1"><g class="dots"><desc class="label">0 wickets over 0 innings</desc><circle class="dot reactive tooltip-trigger" cx="14.192307692307692" cy="453.1442557659166" r="2.5"/><desc class="value">0</desc><desc class="x top">14.192307692307692</desc><desc class="y top">453.1442557659166</desc><desc class="x_label">2000</desc></g><g class="dots"><desc class="label">2 wickets in 2 innings (11.0 overs)</desc><circle class="dot reactive tooltip-trigger" cx="23.98010610079576" cy="264.987471364844" r="2.5"/><desc class="value">36</desc><desc class="x top">23.98010610079576</desc><desc class="y top">264.987471364844</desc><desc class="x_label">2001</desc></g><g class="dots"><desc class="label">13 wickets in 17 innings (106.4 overs)</desc><circle class="dot reactive tooltip-trigger" cx="97.38859416445622" cy="225.1609519999503" r="2.5"/><desc class="value">43.62</desc><desc class="x ">97.38859416445622</desc><desc class="y ">225.1609519999503</desc><desc class="x_label">2002</desc></g><g class="dots"><desc class="label">26 wickets in 38 innings (215.4 overs)</desc><circle class="dot reactive tooltip-trigger" cx="200.1604774535809" cy="221.34555053848408" r="2.5"/><desc class="value">44.35</desc><desc class="x ">200.1604774535809</desc><desc class="y ">221.34555053848408</desc><desc class="x_label">2003</desc></g><g class="dots"><desc class="label">36 wickets in 52 innings (275.3 overs)</desc><circle class="dot reactive tooltip-trigger" cx="268.6750663129974" cy="241.4678733147099" r="2.5"/><desc class="value">40.5</desc><desc class="x top">268.6750663129974</desc><desc class="y top">241.4678733147099</desc><desc class="x_label">2004</desc></g><g class="dots"><desc class="label">51 wickets in 70 innings (389.3 overs)</desc><circle class="dot reactive tooltip-trigger" cx="356.7652519893899" cy="243.9766304400575" r="2.5"/><desc class="value">40.02</desc><desc class="x top">356.7652519893899</desc><desc class="y top">243.9766304400575</desc><desc class="x_label">2005</desc></g><g class="dots"><desc class="label">66 wickets in 92 innings (489.2 overs)</desc><circle class="dot reactive tooltip-trigger" cx="464.43103448275866" cy="246.9557795264078" r="2.5"/><desc class="value">39.45</desc><desc class="x left top">464.43103448275866</desc><desc class="y left top">246.9557795264078</desc><desc class="x_label">2006</desc></g><g class="dots"><desc class="label">71 wickets in 105 innings (549.2 overs)</desc><circle class="dot reactive tooltip-trigger" cx="528.0517241379309" cy="240.52708939270454" r="2.5"/><desc class="value">40.68</desc><desc class="x left top">528.0517241379309</desc><desc class="y left top">240.52708939270454</desc><desc class="x_label">2007</desc></g><g class="dots"><desc class="label">76 wickets in 113 innings (588.2 overs)</desc><circle class="dot reactive tooltip-trigger" cx="567.2029177718833" cy="240.16122897859134" r="2.5"/><desc class="value">40.75</desc><desc class="x left top">567.2029177718833</desc><desc class="y left top">240.16122897859134</desc><desc class="x_label">2008</desc></g><g class="dots"><desc class="label">84 wickets in 125 innings (645.1 overs)</desc><circle class="dot reactive tooltip-trigger" cx="625.9297082228115" cy="240.78841825992822" r="2.5"/><desc class="value">40.63</desc><desc class="x left top">625.9297082228115</desc><desc class="y left top">240.78841825992822</desc><desc class="x_label">2009</desc></g><g class="dots"><desc class="label">88 wickets in 132 innings (678.1 overs)</desc><circle class="dot reactive tooltip-trigger" cx="660.1870026525199" cy="240.52708939270454" r="2.5"/><desc class="value">40.68</desc><desc class="x left top">660.1870026525199</desc><desc class="y left top">240.52708939270454</desc><desc class="x_label">2010</desc></g><g class="dots"><desc class="label">92 wickets in 140 innings (705.0 overs)</desc><circle class="dot reactive tooltip-trigger" cx="699.3381962864721" cy="242.04279682260207" r="2.5"/><desc class="value">40.39</desc><desc class="x left top">699.3381962864721</desc><desc class="y left top">242.04279682260207</desc><desc class="x_label">2012</desc></g></g><g class="series serie-2 color-2"/></g><g class="plot text-overlay" transform="translate(42, 46)"><g class="series serie-0 color-0"/><g class="series serie-1 color-1"/><g class="series serie-2 color-2"/></g><g class="plot tooltip-overlay" transform="translate(42, 46)"><g class="tooltip" style="opacity: 0" transform="translate(0 0)"><rect class="tooltip-box" height="0" rx="10" ry="10" width="0"/><g class="text"/></g></g><g class="legends" transform="translate(52, 545)"><g class="legend reactive activate-serie" id="activate-serie-0"><rect class="color-0 reactive" height="12" width="12" x="0.0" y="1.0"/><text x="17.0" y="11.2">Future Average</text></g><g class="legend reactive activate-serie" id="activate-serie-1"><rect class="color-1 reactive" height="12" width="12" x="369.0" y="1.0"/><text x="386.0" y="11.2">Past Average</text></g><g class="legend reactive activate-serie" id="activate-serie-2"><rect class="color-2 reactive" height="12" width="12" x="0.0" y="22.0"/><text x="17.0" y="32.2">Career Average</text></g></g></g></svg>