<?xml version='1.0' encoding='utf-8'?>
<svg xmlns:xlink="http://www.w3.org/1999/xlink" xmlns="http://www.w3.org/2000/svg" id="chart-0074e284-ae4c-49fb-b874-351d7c79dd33" class="pygal-chart" viewBox="0 0 800 600"><!--Generated with pygal 2.4.0 (lxml) ©Kozea 2012-2016 on 2019-08-04--><!--http://pygal.org--><!--http://github.com/Kozea/pygal--><defs><style type="text/css">#chart-0074e284-ae4c-49fb-b874-351d7c79dd33{-webkit-user-select:none;-webkit-font-smoothing:antialiased;font-family:Consolas,"Liberation Mono",Menlo,Courier,monospace}#chart-0074e284-ae4c-49fb-b874-351d7c79dd33 .title{font-family:Consolas,"Liberation Mono",Menlo,Courier,monospace;font-size:16px}#chart-0074e284-ae4c-49fb-b874-351d7c79dd33 .legends .legend text{font-family:Consolas,"Liberation Mono",Menlo,Courier,monospace;font-size:14px}#chart-0074e284-ae4c-49fb-b874-351d7c79dd33 .axis text{font-family:Consolas,"Liberation Mono",Menlo,Courier,monospace;font-size:10px}#chart-0074e284-ae4c-49fb-b874-351d7c79dd33 .axis text.major{font-family:Consolas,"Liberation Mono",Menlo,Courier,monospace;font-size:10px}#chart-0074e284-ae4c-49fb-b874-351d7c79dd33 .text-overlay text.value{font-family:Consolas,"Liberation Mono",Menlo,Courier,monospace;font-size:16px}#chart-0074e284-ae4c-49fb-b874-351d7c79dd33 .text-overlay text.label{font-family:Consolas,"Liberation Mono",Menlo,Courier,monospace;font-size:10px}#chart-0074e284-ae4c-49fb-b874-351d7c79dd33 .tooltip{font-family:Consolas,"Liberation Mono",Menlo,Courier,monospace;font-size:14px}#chart-0074e284-ae4c-49fb-b874-351d7c79dd33 text.no_data{font-family:Consolas,"Liberation Mono",Menlo,Courier,monospace;font-size:64px}
#chart-0074e284-ae4c-49fb-b874-351d7c79dd33{background-color:rgba(249,249,249,1)}#chart-0074e284-ae4c-49fb-b874-351d7c79dd33 path,#chart-0074e284-ae4c-49fb-b874-351d7c79dd33 line,#chart-0074e284-ae4c-49fb-b874-351d7c79dd33 rect,#chart-0074e284-ae4c-49fb-b874-351d7c79dd33 circle{-webkit-transition:150ms;-moz-transition:150ms;transition:150ms}#chart-0074e284-ae4c-49fb-b874-351d7c79dd33 .graph &gt; .background{fill:rgba(249,249,249,1)}#chart-0074e284-ae4c-49fb-b874-351d7c79dd33 .plot &gt; .background{fill:rgba(255,255,255,1)}#chart-0074e284-ae4c-49fb-b874-351d7c79dd33 .graph{fill:rgba(0,0,0,.87)}#chart-0074e284-ae4c-49fb-b874-351d7c79dd33 text.no_data{fill:rgba(0,0,0,1)}#chart-0074e284-ae4c-49fb-b874-351d7c79dd33 .title{fill:rgba(0,0,0,1)}#chart-0074e284-ae4c-49fb-b874-351d7c79dd33 .legends .legend text{fill:rgba(0,0,0,.87)}#chart-0074e284-ae4c-49fb-b874-351d7c79dd33 .legends .legend:hover text{fill:rgba(0,0,0,1)}#chart-0074e284-ae4c-49fb-b874-351d7c79dd33 .axis .line{stroke:rgba(0,0,0,1)}#chart-0074e284-ae4c-49fb-b874-351d7c79dd33 .axis .guide.line{stroke:rgba(0,0,0,.54)}#chart-0074e284-ae4c-49fb-b874-351d7c79dd33 .axis .major.line{stroke:rgba(0,0,0,.87)}#chart-0074e284-ae4c-49fb-b874-351d7c79dd33 .axis text.major{fill:rgba(0,0,0,1)}#chart-0074e284-ae4c-49fb-b874-351d7c79dd33 .axis.y .guides:hover .guide.line,#chart-0074e284-ae4c-49fb-b874-351d7c79dd33 .line-graph .axis.x .guides:hover .guide.line,#chart-0074e284-ae4c-49fb-b874-351d7c79dd33 .stackedline-graph .axis.x .guides:hover .guide.line,#chart-0074e284-ae4c-49fb-b874-351d7c79dd33 .xy-graph .axis.x .guides:hover .guide.line{stroke:rgba(0,0,0,1)}#chart-0074e284-ae4c-49fb-b874-351d7c79dd33 .axis .guides:hover text{fill:rgba(0,0,0,1)}#chart-0074e284-ae4c-49fb-b874-351d7c79dd33 .reactive{fill-opacity:.7;stroke-opacity:.8}#chart-0074e284-ae4c-49fb-b874-351d7c79dd33 .ci{stroke:rgba(0,0,0,.87)}#chart-0074e284-ae4c-49fb-b874-351d7c79dd33 .reactive.active,#chart-0074e284-ae4c-49fb-b874-351d7c79dd33 .active .reactive{fill-opacity:.8;stroke-opacity:.9;stroke-width:4}#chart-0074e284-ae4c-49fb-b874-351d7c79dd33 .ci .reactive.active{stroke-width:1.5}#chart-0074e284-ae4c-49fb-b874-351d7c79dd33 .series text{fill:rgba(0,0,0,1)}#chart-0074e284-ae4c-49fb-b874-351d7c79dd33 .tooltip rect{fill:rgba(255,255,255,1);stroke:rgba(0,0,0,1);-webkit-transition:opacity 150ms;-moz-transition:opacity 150ms;transition:opacity 150ms}#chart-0074e284-ae4c-49fb-b874-351d7c79dd33 .tooltip .label{fill:rgba(0,0,0,.87)}#chart-0074e284-ae4c-49fb-b874-351d7c79dd33 .tooltip .label{fill:rgba(0,0,0,.87)}#chart-0074e284-ae4c-49fb-b874-351d7c79dd33 .tooltip .legend{font-size:.8em;fill:rgba(0,0,0,.54)}#chart-0074e284-ae4c-49fb-b874-351d7c79dd33 .tooltip .x_label{font-size:.6em;fill:rgba(0,0,0,1)}#chart-0074e284-ae4c-49fb-b874-351d7c79dd33 .tooltip .xlink{font-size:.5em;text-decoration:underline}#chart-0074e284-ae4c-49fb-b874-351d7c79dd33 .tooltip .value{font-size:1.5em}#chart-0074e284-ae4c-49fb-b874-351d7c79dd33 .bound{font-size:.5em}#chart-0074e284-ae4c-49fb-b874-351d7c79dd33 .max-value{font-size:.75em;fill:rgba(0,0,0,.54)}#chart-0074e284-ae4c-49fb-b874-351d7c79dd33 .map-element{fill:rgba(255,255,255,1);stroke:rgba(0,0,0,.54) !important}#chart-0074e284-ae4c-49fb-b874-351d7c79dd33 .map-element .reactive{fill-opacity:inherit;stroke-opacity:inherit}#chart-0074e284-ae4c-49fb-b874-351d7c79dd33 .color-0,#chart-0074e284-ae4c-49fb-b874-351d7c79dd33 .color-0 a:visited{stroke:red;fill:red}#chart-0074e284-ae4c-49fb-b874-351d7c79dd33 .color-1,#chart-0074e284-ae4c-49fb-b874-351d7c79dd33 .color-1 a:visited{stroke:blue;fill:blue}#chart-0074e284-ae4c-49fb-b874-351d7c79dd33 .color-2,#chart-0074e284-ae4c-49fb-b874-351d7c79dd33 .color-2 a:visited{stroke:green;fill:green}#chart-0074e284-ae4c-49fb-b874-351d7c79dd33 .text-overlay .color-0 text{fill:white}#chart-0074e284-ae4c-49fb-b874-351d7c79dd33 .text-overlay .color-1 text{fill:white}#chart-0074e284-ae4c-49fb-b874-351d7c79dd33 .text-overlay .color-2 text{fill:white}
#chart-0074e284-ae4c-49fb-b874-351d7c79dd33 text.no_data{text-anchor:middle}#chart-0074e284-ae4c-49fb-b874-351d7c79dd33 .guide.line{fill:none}#chart-0074e284-ae4c-49fb-b874-351d7c79dd33 .centered{text-anchor:middle}#chart-0074e284-ae4c-49fb-b874-351d7c79dd33 .title{text-anchor:middle}#chart-0074e284-ae4c-49fb-b874-351d7c79dd33 .legends .legend text{fill-opacity:1}#chart-0074e284-ae4c-49fb-b874-351d7c79dd33 .axis.x text{text-anchor:middle}#chart-0074e284-ae4c-49fb-b874-351d7c79dd33 .axis.x:not(.web) text[transform]{text-anchor:start}#chart-0074e284-ae4c-49fb-b874-351d7c79dd33 .axis.x:not(.web) text[transform].backwards{text-anchor:end}#chart-0074e284-ae4c-49fb-b874-351d7c79dd33 .axis.y text{text-anchor:end}#chart-0074e284-ae4c-49fb-b874-351d7c79dd33 .axis.y text[transform].backwards{text-anchor:start}#chart-0074e284-ae4c-49fb-b874-351d7c79dd33 .axis.y2 text{text-anchor:start}#chart-0074e284-ae4c-49fb-b874-351d7c79dd33 .axis.y2 text[transform].backwards{text-anchor:end}#chart-0074e284-ae4c-49fb-b874-351d7c79dd33 .axis .guide.line{stroke-dasharray:4,4}#chart-0074e284-ae4c-49fb-b874-351d7c79dd33 .axis .major.guide.line{stroke-dasharray:6,6}#chart-0074e284-ae4c-49fb-b874-351d7c79dd33 .horizontal .axis.y .guide.line,#chart-0074e284-ae4c-49fb-b874-351d7c79dd33 .horizontal .axis.y2 .guide.line,#chart-0074e284-ae4c-49fb-b874-351d7c79dd33 .vertical .axis.x .guide.line{opacity:0}#chart-0074e284-ae4c-49fb-b874-351d7c79dd33 .horizontal .axis.always_show .guide.line,#chart-0074e284-ae4c-49fb-b874-351d7c79dd33 .vertical .axis.always_show .guide.line{opacity:1 !important}#chart-0074e284-ae4c-49fb-b874-351d7c79dd33 .axis.y .guides:hover .guide.line,#chart-0074e284-ae4c-49fb-b874-351d7c79dd33 .axis.y2 .guides:hover .guide.line,#chart-0074e284-ae4c-49fb-b874-351d7c79dd33 .axis.x .guides:hover .guide.line{opacity:1}#chart-0074e284-ae4c-49fb-b874-351d7c79dd33 .axis .guides:hover text{opacity:1}#chart-0074e284-ae4c-49fb-b874-351d7c79dd33 .nofill{fill:none}#chart-0074e284-ae4c-49fb-b874-351d7c79dd33 .subtle-fill{fill-opacity:.2}#chart-0074e284-ae4c-49fb-b874-351d7c79dd33 .dot{stroke-width:1px;fill-opacity:1}#chart-0074e284-ae4c-49fb-b874-351d7c79dd33 .dot.active{stroke-width:5px}#chart-0074e284-ae4c-49fb-b874-351d7c79dd33 .dot.negative{fill:transparent}#chart-0074e284-ae4c-49fb-b874-351d7c79dd33 text,#chart-0074e284-ae4c-49fb-b874-351d7c79dd33 tspan{stroke:none !important}#chart-0074e284-ae4c-49fb-b874-351d7c79dd33 .series text.active{opacity:1}#chart-0074e284-ae4c-49fb-b874-351d7c79dd33 .tooltip rect{fill-opacity:.95;stroke-width:.5}#chart-0074e284-ae4c-49fb-b874-351d7c79dd33 .tooltip text{fill-opacity:1}#chart-0074e284-ae4c-49fb-b874-351d7c79dd33 .showable{visibility:hidden}#chart-0074e284-ae4c-49fb-b874-351d7c79dd33 .showable.shown{visibility:visible}#chart-0074e284-ae4c-49fb-b874-351d7c79dd33 .gauge-background{fill:rgba(229,229,229,1);stroke:none}#chart-0074e284-ae4c-49fb-b874-351d7c79dd33 .bg-lines{stroke:rgba(249,249,249,1);stroke-width:2px}</style><script type="text/javascript">window.pygal = window.pygal || {};window.pygal.config = window.pygal.config || {};window.pygal.config['0074e284-ae4c-49fb-b874-351d7c79dd33'] = {"allow_interruptions": false, "box_mode": "extremes", "classes": ["pygal-chart"], "css": ["file://style.css", "file://graph.css"], "defs": [], "disable_xml_declaration": false, "dots_size": 2.5, "dynamic_print_values": false, "explicit_size": false, "fill": false, "force_uri_protocol": "https", "formatter": null, "half_pie": false, "height": 600, "include_x_axis": false, "inner_radius": 0, "interpolate": null, "interpolation_parameters": {}, "interpolation_precision": 250, "inverse_y_axis": false, "js": ["//kozea.github.io/pygal.js/2.0.x/pygal-tooltips.min.js"], "legend_at_bottom": true, "legend_at_bottom_columns": null, "legend_box_size": 12, "logarithmic": false, "margin": 20, "margin_bottom": null, "margin_left": null, "margin_right": null, "margin_top": null, "max_scale": 16, "min_scale": 4, "missing_value_fill_truncation": "x", "no_data_text": "No data", "no_prefix": false, "order_min": null, "pretty_print": false, "print_labels": false, "print_values": false, "print_values_position": "center", "print_zeroes": true, "range": null, "rounded_bars": null, "secondary_range": null, "show_dots": true, "show_legend": true, "show_minor_x_labels": false, "show_minor_y_labels": true, "show_only_major_dots": false, "show_x_guides": false, "show_x_labels": true, "show_y_guides": true, "show_y_labels": true, "spacing": 10, "stack_from_top": false, "strict": false, "stroke": true, "stroke_style": null, "style": {"background": "rgba(249, 249, 249, 1)", "ci_colors": [], "colors": ["red", "blue", "green", "#a3a3a3"], "font_family": "Consolas, \"Liberation Mono\", Menlo, Courier, monospace", "foreground": "rgba(0, 0, 0, .87)", "foreground_strong": "rgba(0, 0, 0, 1)", "foreground_subtle": "rgba(0, 0, 0, .54)", "guide_stroke_dasharray": "4,4", "label_font_family": "Consolas, \"Liberation Mono\", Menlo, Courier, monospace", "label_font_size": 10, "legend_font_family": "Consolas, \"Liberation Mono\", Menlo, Courier, monospace", "legend_font_size": 14, "major_guide_stroke_dasharray": "6,6", "major_label_font_family": "Consolas, \"Liberation Mono\", Menlo, Courier, monospace", "major_label_font_size": 10, "no_data_font_family": "Consolas, \"Liberation Mono\", Menlo, Courier, monospace", "no_data_font_size": 64, "opacity": ".7", "opacity_hover": ".8", "plot_background": "rgba(255, 255, 255, 1)", "stroke_opacity": ".8", "stroke_opacity_hover": ".9", "title_font_family": "Consolas, \"Liberation Mono\", Menlo, Courier, monospace", "title_font_size": 16, "tooltip_font_family": "Consolas, \"Liberation Mono\", Menlo, Courier, monospace", "tooltip_font_size": 14, "transition": "150ms", "value_background": "rgba(229, 229, 229, 1)", "value_colors": [], "value_font_family": "Consolas, \"Liberation Mono\", Menlo, Courier, monospace", "value_font_size": 16, "value_label_font_family": "Consolas, \"Liberation Mono\", Menlo, Courier, monospace", "value_label_font_size": 10}, "title": "Wasim Akram: Future and Past Averages in ODIs", "tooltip_border_radius": 10, "tooltip_fancy_mode": true, "truncate_label": null, "truncate_legend": null, "width": 800, "x_label_rotation": 45, "x_labels": ["1985", "0", "0", "0", "0", "0", "0", "0", "0", "0", "0", "0", "0", "0", "1986", "0", "0", "0", "0", "0", "0", "0", "0", "0", "0", "0", "0", "0", "0", "0", "1987", "0", "0", "0", "0", "0", "0", "0", "0", "0", "0", "0", "0", "0", "0", "0", "0", "0", "0", "0", "0", "0", "0", "0", "1988", "0", "0", "0", "0", "0", "0", "0", "0", "0", "0", "0", "1989", "0", "0", "0", "0", "0", "0", "0", "0", "0", "0", "0", "0", "0", "0", "0", "0", "1990", "0", "0", "0", "0", "0", "0", "0", "0", "0", "0", "0", "0", "1991", "0", "0", "0", "0", "0", "0", "0", "1992", "0", "0", "0", "0", "0", "0", "0", "0", "0", "0", "0", "0", "0", "0", "0", "0", "0", "0", "0", "0", "0", "0", "0", "0", "0", "0", "1993", "0", "0", "0", "0", "0", "0", "0", "0", "0", "0", "0", "0", "0", "0", "0", "0", "0", "0", "0", "0", "0", "0", "0", "0", "0", "1994", "0", "0", "0", "0", "0", "0", "0", "0", "0", "0", "0", "0", "0", "0", "0", "0", "0", "0", "0", "0", "1995", "0", "0", "0", "0", "0", "0", "0", "0", "0", "0", "0", "1996", "0", "0", "0", "0", "0", "0", "0", "0", "0", "0", "0", "0", "0", "0", "0", "0", "0", "0", "0", "0", "0", "0", "0", "0", "1997", "0", "0", "0", "0", "0", "0", "0", "0", "0", "0", "0", "0", "0", "0", "0", "0", "0", "0", "1998", "0", "0", "0", "0", "0", "0", "0", "0", "0", "0", "0", "0", "0", "0", "0", "1999", "0", "0", "0", "0", "0", "0", "0", "0", "0", "0", "0", "0", "0", "0", "0", "0", "0", "0", "0", "0", "0", "0", "0", "0", "0", "0", "2000", "0", "0", "0", "0", "0", "0", "0", "0", "0", "0", "0", "0", "0", "0", "0", "0", "0", "0", "0", "0", "0", "0", "0", "0", "0", "0", "0", "0", "0", "2001", "0", "0", "0", "0", "0", "0", "0", "0", "0", "0", "0", "2002", "0", "0", "0", "0", "0", "0", "0", "0", "0", "0", "0", "0", "0", "0", "0", "0", "0", "0", "0", "0", "0", "0", "0", "0", "0", "0", "2003", "0", "0", "0", "0"], "x_labels_major": ["1985", "1986", "1987", "1988", "1989", "1990", "1991", "1992", "1993", "1994", "1995", "1996", "1997", "1998", "1999", "2000", "2001", "2002", "2003"], "x_labels_major_count": null, "x_labels_major_every": null, "x_title": null, "xrange": null, "y_label_rotation": 0, "y_labels": null, "y_labels_major": null, "y_labels_major_count": null, "y_labels_major_every": null, "y_title": null, "zero": 70.0, "legends": ["Future Average", "Past Average", "Career Average"]}</script><script type="text/javascript" xlink:href="https://kozea.github.io/pygal.js/2.0.x/pygal-tooltips.min.js"/></defs><title>Wasim Akram: Future and Past Averages in ODIs</title><g class="graph line-graph vertical"><rect class="background" height="600" width="800" x="0" y="0"/><g class="plot" transform="translate(42, 46)"><rect class="background" height="462.02943725152284" width="738.0" x="0" y="0"/><g class="axis y always_show"><g class="guides"><path class="axis major line" d="M0.000000 453.144256 h738.000000"/><text class="major" x="-5" y="456.6442557659166">0</text><title>0</title></g><g class="guides"><path class="guide line" d="M0.000000 388.758883 h738.000000"/><text class="" x="-5" y="392.25888268181365">10</text><title>10</title></g><g class="guides"><path class="guide line" d="M0.000000 324.373510 h738.000000"/><text class="" x="-5" y="327.8735095977107">20</text><title>20</title></g><g class="guides"><path class="guide line" d="M0.000000 259.988137 h738.000000"/><text class="" x="-5" y="263.48813651360774">30</text><title>30</title></g><g class="guides"><path class="guide line" d="M0.000000 195.602763 h738.000000"/><text class="" x="-5" y="199.10276342950476">40</text><title>40</title></g><g class="guides"><path class="major guide line" d="M0.000000 131.217390 h738.000000"/><text class="major" x="-5" y="134.71739034540178">50</text><title>50</title></g><g class="guides"><path class="guide line" d="M0.000000 66.832017 h738.000000"/><text class="" x="-5" y="70.3320172612988">60</text><title>60</title></g></g><g class="axis x"><g class="guides"><path class="major line" d="M14.192308 0.000000 v462.029437"/><text class="major" x="14.192307692307692" y="477.02943725152284" transform="rotate(45 14.192308 477.029437)">1985</text></g><g class="guides"><path class="major guide line" d="M42.576923 0.000000 v462.029437"/><text class="major" x="42.57692307692307" y="477.02943725152284" transform="rotate(45 42.576923 477.029437)">1986</text></g><g class="guides"><path class="major guide line" d="M75.016484 0.000000 v462.029437"/><text class="major" x="75.01648351648352" y="477.02943725152284" transform="rotate(45 75.016484 477.029437)">1987</text></g><g class="guides"><path class="major guide line" d="M123.675824 0.000000 v462.029437"/><text class="major" x="123.67582417582416" y="477.02943725152284" transform="rotate(45 123.675824 477.029437)">1988</text></g><g class="guides"><path class="major guide line" d="M148.005495 0.000000 v462.029437"/><text class="major" x="148.0054945054945" y="477.02943725152284" transform="rotate(45 148.005495 477.029437)">1989</text></g><g class="guides"><path class="major guide line" d="M182.472527 0.000000 v462.029437"/><text class="major" x="182.4725274725275" y="477.02943725152284" transform="rotate(45 182.472527 477.029437)">1990</text></g><g class="guides"><path class="major guide line" d="M208.829670 0.000000 v462.029437"/><text class="major" x="208.82967032967034" y="477.02943725152284" transform="rotate(45 208.829670 477.029437)">1991</text></g><g class="guides"><path class="major guide line" d="M225.049451 0.000000 v462.029437"/><text class="major" x="225.04945054945057" y="477.02943725152284" transform="rotate(45 225.049451 477.029437)">1992</text></g><g class="guides"><path class="major guide line" d="M279.791209 0.000000 v462.029437"/><text class="major" x="279.79120879120876" y="477.02943725152284" transform="rotate(45 279.791209 477.029437)">1993</text></g><g class="guides"><path class="major guide line" d="M332.505495 0.000000 v462.029437"/><text class="major" x="332.50549450549454" y="477.02943725152284" transform="rotate(45 332.505495 477.029437)">1994</text></g><g class="guides"><path class="major guide line" d="M375.082418 0.000000 v462.029437"/><text class="major" x="375.0824175824176" y="477.02943725152284" transform="rotate(45 375.082418 477.029437)">1995</text></g><g class="guides"><path class="major guide line" d="M399.412088 0.000000 v462.029437"/><text class="major" x="399.4120879120879" y="477.02943725152284" transform="rotate(45 399.412088 477.029437)">1996</text></g><g class="guides"><path class="major guide line" d="M450.098901 0.000000 v462.029437"/><text class="major" x="450.09890109890114" y="477.02943725152284" transform="rotate(45 450.098901 477.029437)">1997</text></g><g class="guides"><path class="major guide line" d="M488.620879 0.000000 v462.029437"/><text class="major" x="488.6208791208791" y="477.02943725152284" transform="rotate(45 488.620879 477.029437)">1998</text></g><g class="guides"><path class="major guide line" d="M521.060440 0.000000 v462.029437"/><text class="major" x="521.0604395604396" y="477.02943725152284" transform="rotate(45 521.060440 477.029437)">1999</text></g><g class="guides"><path class="major guide line" d="M575.802198 0.000000 v462.029437"/><text class="major" x="575.8021978021978" y="477.02943725152284" transform="rotate(45 575.802198 477.029437)">2000</text></g><g class="guides"><path class="major guide line" d="M636.626374 0.000000 v462.029437"/><text class="major" x="636.6263736263736" y="477.02943725152284" transform="rotate(45 636.626374 477.029437)">2001</text></g><g class="guides"><path class="major guide line" d="M660.956044 0.000000 v462.029437"/><text class="major" x="660.9560439560439" y="477.02943725152284" transform="rotate(45 660.956044 477.029437)">2002</text></g><g class="guides"><path class="major guide line" d="M715.697802 0.000000 v462.029437"/><text class="major" x="715.697802197802" y="477.02943725152284" transform="rotate(45 715.697802 477.029437)">2003</text></g></g><g class="series serie-0 color-0"><path class="line reactive nofill" d="M14.192308 301.645473 L16.219780 302.031785 18.247253 302.546868 20.274725 301.259161 22.302198 302.031785 24.329670 302.096171 26.357143 302.160556 28.384615 301.903014 30.412088 302.096171 32.439560 301.967400 34.467033 302.096171 36.494505 301.774244 38.521978 302.096171 40.549451 302.031785 42.576923 302.031785 44.604396 302.482483 46.631868 301.645473 48.659341 301.838629 50.686813 300.808463 52.714286 301.130390 54.741758 300.744078 56.769231 300.937234 58.796703 300.100224 60.824176 299.713912 62.851648 299.778297 64.879121 300.357765 66.906593 300.679692 68.934066 301.066005 70.961538 301.066005 72.989011 300.486536 75.016484 299.971453 77.043956 300.100224 79.071429 300.164609 81.098901 299.585141 83.126374 300.035839 85.153846 299.713912 87.181319 300.035839 89.208791 300.228995 91.236264 299.585141 93.263736 300.164609 95.291209 299.778297 97.318681 300.357765 99.346154 300.293380 101.373626 300.808463 103.401099 300.422151 105.428571 300.872848 107.456044 300.808463 109.483516 301.259161 111.510989 301.259161 113.538462 301.903014 115.565934 302.418097 117.593407 302.031785 119.620879 302.804410 121.648352 302.160556 123.675824 302.289327 125.703297 302.611253 127.730769 303.190722 129.758242 302.675639 131.785714 302.224941 133.813187 302.096171 135.840659 302.418097 137.868132 302.224941 139.895604 302.353712 141.923077 302.096171 143.950549 302.418097 145.978022 302.740024 148.005495 302.933180 150.032967 302.997566 152.060440 301.903014 154.087912 301.259161 156.115385 301.967400 158.142857 302.933180 160.170330 301.645473 162.197802 301.001619 164.225275 300.744078 166.252747 300.679692 168.280220 300.550922 170.307692 300.293380 172.335165 299.842682 174.362637 300.293380 176.390110 301.066005 178.417582 301.323546 180.445055 300.937234 182.472527 300.808463 184.500000 300.808463 186.527473 301.452317 188.554945 301.774244 190.582418 301.323546 192.609890 301.323546 194.637363 302.160556 196.664835 301.838629 198.692308 302.546868 200.719780 302.675639 202.747253 302.096171 204.774725 301.709858 206.802198 301.581088 208.829670 301.452317 210.857143 301.709858 212.884615 302.031785 214.912088 302.675639 216.939560 302.611253 218.967033 302.997566 220.994505 302.224941 223.021978 302.031785 225.049451 302.804410 227.076923 303.383878 229.104396 302.675639 231.131868 302.482483 233.159341 302.997566 235.186813 302.933180 237.214286 303.641419 239.241758 302.740024 241.269231 302.418097 243.296703 303.255107 245.324176 303.190722 247.351648 302.868795 249.379121 303.061951 251.406593 301.903014 253.434066 301.774244 255.461538 301.387931 257.489011 301.709858 259.516484 302.289327 261.543956 302.160556 263.571429 303.061951 265.598901 302.096171 267.626374 302.804410 269.653846 302.160556 271.681319 302.933180 273.708791 303.190722 275.736264 301.259161 277.763736 301.194775 279.791209 301.259161 281.818681 301.452317 283.846154 302.031785 285.873626 302.868795 287.901099 303.577034 289.928571 302.096171 291.956044 300.679692 293.983516 300.937234 296.010989 301.387931 298.038462 299.263214 300.065934 299.585141 302.093407 299.842682 304.120879 299.263214 306.148352 299.971453 308.175824 299.713912 310.203297 299.649526 312.230769 299.971453 314.258242 301.323546 316.285714 299.585141 318.313187 300.164609 320.340659 299.391985 322.368132 298.748131 324.395604 297.460424 326.423077 298.426204 328.450549 295.979560 330.478022 295.593248 332.505495 296.237102 334.532967 296.687799 336.560440 294.885009 338.587912 294.691853 340.615385 294.691853 342.642857 295.078165 344.670330 295.400092 346.697802 294.047999 348.725275 294.047999 350.752747 293.790457 352.780220 294.756238 354.807692 295.593248 356.835165 294.369926 358.862637 293.983614 360.890110 292.567135 362.917582 291.215042 364.945055 291.279428 366.972527 290.635574 369.000000 291.730125 371.027473 292.309594 373.054945 292.631521 375.082418 294.305540 377.109890 295.464477 379.137363 296.043945 381.164835 295.400092 383.192308 295.142550 385.219780 294.691853 387.247253 294.627467 389.274725 293.983614 391.302198 294.305540 393.329670 292.695906 395.357143 292.438365 397.384615 291.215042 399.412088 291.215042 401.439560 290.506803 403.467033 291.408199 405.494505 292.824677 407.521978 293.017833 409.549451 292.116438 411.576923 293.597301 413.604396 292.760291 415.631868 293.854843 417.659341 295.464477 419.686813 293.468531 421.714286 292.245208 423.741758 292.760291 425.769231 292.502750 427.796703 292.567135 429.824176 292.631521 431.851648 293.275374 433.879121 291.408199 435.906593 292.438365 437.934066 292.631521 439.961538 290.828730 441.989011 292.309594 444.016484 291.215042 446.043956 291.601355 448.071429 292.245208 450.098901 293.210989 452.126374 293.532916 454.153846 293.726072 456.181319 291.536969 458.208791 292.052052 460.236264 291.730125 462.263736 289.025940 464.291209 289.862950 466.318681 287.609462 468.346154 287.673847 470.373626 287.609462 472.401099 288.897169 474.428571 289.347867 476.456044 289.541023 478.483516 286.836837 480.510989 288.188930 482.538462 289.927335 484.565934 289.347867 486.593407 289.669794 488.620879 291.086272 490.648352 293.146604 492.675824 295.206936 494.703297 294.756238 496.730769 293.919228 498.758242 291.794511 500.785714 292.438365 502.813187 289.991720 504.840659 289.991720 506.868132 290.120491 508.895604 289.219096 510.923077 290.249262 512.950549 290.506803 514.978022 291.472584 517.005495 293.082218 519.032967 294.498696 521.060440 294.498696 523.087912 293.854843 525.115385 291.923282 527.142857 293.532916 529.170330 295.400092 531.197802 297.396038 533.225275 297.975507 535.252747 299.585141 537.280220 300.744078 539.307692 301.903014 541.335165 303.834576 543.362637 300.937234 545.390110 302.740024 547.417582 300.357765 549.445055 297.524809 551.472527 297.653580 553.500000 298.233048 555.527473 299.327599 557.554945 298.168663 559.582418 299.456370 561.609890 299.263214 563.637363 300.228995 565.664835 301.194775 567.692308 301.001619 569.719780 300.486536 571.747253 298.554975 573.774725 298.104277 575.802198 296.430258 577.829670 298.812516 579.857143 300.100224 581.884615 301.838629 583.912088 299.971453 585.939560 297.524809 587.967033 298.683746 589.994505 300.744078 592.021978 296.559028 594.049451 298.361819 596.076923 301.194775 598.104396 302.868795 600.131868 304.414044 602.159341 302.160556 604.186813 302.868795 606.214286 302.289327 608.241758 302.482483 610.269231 302.482483 612.296703 304.027732 614.324176 304.349659 616.351648 306.731917 618.379121 303.898961 620.406593 305.701751 622.434066 304.864742 624.461538 305.444210 626.489011 304.800356 628.516484 302.224941 630.543956 306.409991 632.571429 309.693645 634.598901 312.397830 636.626374 312.848528 638.653846 310.659425 640.681319 308.663479 642.708791 305.959293 644.736264 312.333445 646.763736 314.586933 648.791209 316.711650 650.818681 323.729656 652.846154 325.339290 654.873626 326.047529 656.901099 325.661217 658.928571 321.154241 660.956044 318.707597 662.983516 321.669324 665.010989 324.631051 667.038462 327.270851 669.065934 326.111915 671.093407 323.987197 673.120879 322.957031 675.148352 323.794041 677.175824 326.498227 679.203297 330.039422 681.230769 323.729656 683.258242 324.888593 685.285714 333.129920 687.313187 336.349189 689.340659 335.061482 691.368132 330.232579 693.395604 324.180353 695.423077 329.395569 697.450549 330.554505 699.478022 334.288857 701.505495 340.920550 703.532967 347.681015 705.560440 331.198359 707.587912 339.890385 709.615385 345.234370 711.642857 330.812047 713.670330 347.809785 715.697802 345.298756 717.725275 355.149718 719.752747 277.694114 721.780220 298.619360 723.807692 144.094465"/></g><g class="series serie-1 color-1"><path class="line reactive nofill" d="M14.192308 453.144256 L16.219780 253.549599 18.247253 8.885181 20.274725 337.250584 22.302198 261.275844 24.329670 265.332122 26.357143 267.328069 28.384615 288.575242 30.412088 279.303748 32.439560 286.321754 34.467033 283.617568 36.494505 296.752185 38.521978 285.742286 40.549451 290.184876 42.576923 290.313647 44.604396 277.436573 46.631868 302.289327 48.659341 297.074111 50.686813 317.162348 52.714286 311.496435 54.741758 317.484275 56.769231 313.556767 58.796703 325.017363 60.824176 328.365403 62.851648 326.755768 64.879121 319.222680 66.906593 314.458162 68.934066 309.629259 70.961538 309.178562 72.989011 316.067796 75.016484 320.832314 77.043956 318.256899 79.071429 317.162348 81.098901 322.248792 83.126374 317.355504 85.153846 319.222680 87.181319 316.132182 89.208791 314.136235 91.236264 318.771982 93.263736 313.814308 95.291209 316.132182 97.318681 311.818362 99.346154 311.947133 101.373626 307.762083 103.401099 310.659425 105.428571 307.053844 107.456044 307.504542 109.483516 304.220888 111.510989 304.349659 113.538462 300.035839 115.565934 296.623414 117.593407 299.263214 119.620879 294.176770 121.648352 298.619360 123.675824 297.782351 125.703297 295.786404 127.730769 292.438365 129.758242 295.593248 131.785714 298.619360 133.813187 299.327599 135.840659 297.653580 137.868132 298.748131 139.895604 297.975507 141.923077 299.456370 143.950549 297.846736 145.978022 296.237102 148.005495 295.464477 150.032967 295.271321 152.060440 300.357765 154.087912 303.383878 156.115385 300.228995 158.142857 296.301487 160.170330 301.645473 162.197802 304.156502 164.225275 304.993512 166.252747 305.122283 168.280220 305.572981 170.307692 306.538761 172.335165 307.890854 174.362637 306.281220 176.390110 303.705805 178.417582 302.804410 180.445055 303.963346 182.472527 304.478429 184.500000 304.478429 186.527473 302.353712 188.554945 301.259161 190.582418 302.675639 192.609890 302.675639 194.637363 300.100224 196.664835 301.001619 198.692308 298.812516 200.719780 298.619360 202.747253 300.228995 204.774725 301.516702 206.802198 301.903014 208.829670 302.096171 210.857143 301.452317 212.884615 300.550922 214.912088 298.876902 216.939560 299.070058 218.967033 298.104277 220.994505 300.164609 223.021978 300.679692 225.049451 298.748131 227.076923 297.267268 229.104396 299.134443 231.131868 299.713912 233.159341 298.361819 235.186813 298.554975 237.214286 296.945341 239.241758 299.134443 241.269231 299.842682 243.296703 297.975507 245.324176 298.233048 247.351648 299.005673 249.379121 298.490590 251.406593 301.066005 253.434066 301.323546 255.461538 302.160556 257.489011 301.581088 259.516484 300.357765 261.543956 300.615307 263.571429 298.941287 265.598901 300.744078 267.626374 299.520756 269.653846 300.744078 271.681319 299.327599 273.708791 298.812516 275.736264 302.353712 277.763736 302.418097 279.791209 302.224941 281.818681 301.903014 283.846154 300.937234 285.873626 299.649526 287.901099 298.426204 289.928571 300.872848 291.956044 303.190722 293.983516 302.804410 296.010989 302.031785 298.038462 305.251054 300.065934 304.671585 302.093407 304.349659 304.120879 305.057898 306.148352 304.092117 308.175824 304.414044 310.203297 304.414044 312.230769 304.027732 314.258242 302.096171 316.285714 304.414044 318.313187 303.577034 320.340659 304.607200 322.368132 305.315439 324.395604 306.796303 326.423077 305.572981 328.450549 308.405937 330.478022 308.792249 332.505495 307.955239 334.532967 307.440156 336.560440 309.307332 338.587912 309.436103 340.615385 309.371718 342.642857 308.921020 344.670330 308.534708 346.697802 309.822415 348.725275 309.693645 350.752747 309.822415 352.780220 308.856635 354.807692 307.955239 356.835165 309.049791 358.862637 309.307332 360.890110 310.530654 362.917582 311.560820 364.945055 311.496435 366.972527 311.882747 369.000000 310.852581 371.027473 310.273113 373.054945 309.951186 375.082418 308.405937 377.109890 307.311386 379.137363 306.731917 381.164835 307.247000 383.192308 307.375771 385.219780 307.697698 387.247253 307.633313 389.274725 308.148396 391.302198 307.762083 393.329670 308.985405 395.357143 309.049791 397.384615 309.886801 399.412088 309.758030 401.439560 310.208728 403.467033 309.500488 405.494505 308.405937 407.521978 308.212781 409.549451 308.727864 411.576923 307.633313 413.604396 308.084010 415.631868 307.311386 417.659341 306.152449 419.686813 307.375771 421.714286 308.084010 423.741758 307.762083 425.769231 307.826469 427.796703 307.762083 429.824176 307.697698 431.851648 307.247000 433.879121 308.277166 435.906593 307.568927 437.934066 307.375771 439.961538 308.341552 441.989011 307.440156 444.016484 307.955239 446.043956 307.633313 448.071429 307.247000 450.098901 306.667532 452.126374 306.409991 454.153846 306.281220 456.181319 307.375771 458.208791 307.053844 460.236264 307.182615 462.263736 308.470322 464.291209 308.019625 466.318681 308.985405 468.346154 308.856635 470.373626 308.792249 472.401099 308.148396 474.428571 307.955239 476.456044 307.826469 478.483516 308.921020 480.510989 308.212781 482.538462 307.375771 484.565934 307.504542 486.593407 307.311386 488.620879 306.667532 490.648352 305.637366 492.675824 304.671585 494.703297 304.864742 496.730769 305.122283 498.758242 305.959293 500.785714 305.637366 502.813187 306.538761 504.840659 306.474376 506.868132 306.345605 508.895604 306.603147 510.923077 306.152449 512.950549 305.959293 514.978022 305.572981 517.005495 304.993512 519.032967 304.414044 521.060440 304.414044 523.087912 304.607200 525.115385 305.186668 527.142857 304.607200 529.170330 303.963346 531.197802 303.190722 533.225275 302.997566 535.252747 302.418097 537.280220 301.967400 539.307692 301.516702 541.335165 300.872848 543.362637 301.903014 545.390110 301.259161 547.417582 302.096171 549.445055 302.997566 551.472527 302.933180 553.500000 302.740024 555.527473 302.418097 557.554945 302.740024 559.582418 302.353712 561.609890 302.353712 563.637363 302.096171 565.664835 301.774244 567.692308 301.838629 569.719780 301.967400 571.747253 302.482483 573.774725 302.611253 575.802198 303.061951 577.829670 302.418097 579.857143 302.031785 581.884615 301.581088 583.912088 302.096171 585.939560 302.675639 587.967033 302.353712 589.994505 301.838629 592.021978 302.804410 594.049451 302.418097 596.076923 301.774244 598.104396 301.387931 600.131868 301.001619 602.159341 301.516702 604.186813 301.387931 606.214286 301.516702 608.241758 301.452317 610.269231 301.452317 612.296703 301.194775 614.324176 301.130390 616.351648 300.679692 618.379121 301.194775 620.406593 300.872848 622.434066 301.066005 624.461538 300.937234 626.489011 301.066005 628.516484 301.581088 630.543956 300.872848 632.571429 300.293380 634.598901 299.842682 636.626374 299.842682 638.653846 300.228995 640.681319 300.615307 642.708791 301.001619 644.736264 300.100224 646.763736 299.842682 648.791209 299.520756 650.818681 298.554975 652.846154 298.297433 654.873626 298.233048 656.901099 298.297433 658.928571 299.070058 660.956044 299.520756 662.983516 299.198829 665.010989 298.876902 667.038462 298.619360 669.065934 298.876902 671.093407 299.263214 673.120879 299.520756 675.148352 299.456370 677.175824 299.327599 679.203297 299.005673 681.230769 299.713912 683.258242 299.713912 685.285714 299.005673 687.313187 298.876902 689.340659 299.134443 691.368132 299.713912 693.395604 300.293380 695.423077 300.100224 697.450549 300.100224 699.478022 300.035839 701.505495 299.778297 703.532967 299.649526 705.560440 300.615307 707.587912 300.293380 709.615385 300.100224 711.642857 300.808463 713.670330 300.293380 715.697802 300.550922 717.725275 300.679692 719.752747 301.838629 721.780220 301.645473 723.807692 302.289327"/></g><g class="series serie-2 color-2"><path class="line reactive nofill" d="M14.192308 301.645473 L16.219780 301.645473 18.247253 301.645473 20.274725 301.645473 22.302198 301.645473 24.329670 301.645473 26.357143 301.645473 28.384615 301.645473 30.412088 301.645473 32.439560 301.645473 34.467033 301.645473 36.494505 301.645473 38.521978 301.645473 40.549451 301.645473 42.576923 301.645473 44.604396 301.645473 46.631868 301.645473 48.659341 301.645473 50.686813 301.645473 52.714286 301.645473 54.741758 301.645473 56.769231 301.645473 58.796703 301.645473 60.824176 301.645473 62.851648 301.645473 64.879121 301.645473 66.906593 301.645473 68.934066 301.645473 70.961538 301.645473 72.989011 301.645473 75.016484 301.645473 77.043956 301.645473 79.071429 301.645473 81.098901 301.645473 83.126374 301.645473 85.153846 301.645473 87.181319 301.645473 89.208791 301.645473 91.236264 301.645473 93.263736 301.645473 95.291209 301.645473 97.318681 301.645473 99.346154 301.645473 101.373626 301.645473 103.401099 301.645473 105.428571 301.645473 107.456044 301.645473 109.483516 301.645473 111.510989 301.645473 113.538462 301.645473 115.565934 301.645473 117.593407 301.645473 119.620879 301.645473 121.648352 301.645473 123.675824 301.645473 125.703297 301.645473 127.730769 301.645473 129.758242 301.645473 131.785714 301.645473 133.813187 301.645473 135.840659 301.645473 137.868132 301.645473 139.895604 301.645473 141.923077 301.645473 143.950549 301.645473 145.978022 301.645473 148.005495 301.645473 150.032967 301.645473 152.060440 301.645473 154.087912 301.645473 156.115385 301.645473 158.142857 301.645473 160.170330 301.645473 162.197802 301.645473 164.225275 301.645473 166.252747 301.645473 168.280220 301.645473 170.307692 301.645473 172.335165 301.645473 174.362637 301.645473 176.390110 301.645473 178.417582 301.645473 180.445055 301.645473 182.472527 301.645473 184.500000 301.645473 186.527473 301.645473 188.554945 301.645473 190.582418 301.645473 192.609890 301.645473 194.637363 301.645473 196.664835 301.645473 198.692308 301.645473 200.719780 301.645473 202.747253 301.645473 204.774725 301.645473 206.802198 301.645473 208.829670 301.645473 210.857143 301.645473 212.884615 301.645473 214.912088 301.645473 216.939560 301.645473 218.967033 301.645473 220.994505 301.645473 223.021978 301.645473 225.049451 301.645473 227.076923 301.645473 229.104396 301.645473 231.131868 301.645473 233.159341 301.645473 235.186813 301.645473 237.214286 301.645473 239.241758 301.645473 241.269231 301.645473 243.296703 301.645473 245.324176 301.645473 247.351648 301.645473 249.379121 301.645473 251.406593 301.645473 253.434066 301.645473 255.461538 301.645473 257.489011 301.645473 259.516484 301.645473 261.543956 301.645473 263.571429 301.645473 265.598901 301.645473 267.626374 301.645473 269.653846 301.645473 271.681319 301.645473 273.708791 301.645473 275.736264 301.645473 277.763736 301.645473 279.791209 301.645473 281.818681 301.645473 283.846154 301.645473 285.873626 301.645473 287.901099 301.645473 289.928571 301.645473 291.956044 301.645473 293.983516 301.645473 296.010989 301.645473 298.038462 301.645473 300.065934 301.645473 302.093407 301.645473 304.120879 301.645473 306.148352 301.645473 308.175824 301.645473 310.203297 301.645473 312.230769 301.645473 314.258242 301.645473 316.285714 301.645473 318.313187 301.645473 320.340659 301.645473 322.368132 301.645473 324.395604 301.645473 326.423077 301.645473 328.450549 301.645473 330.478022 301.645473 332.505495 301.645473 334.532967 301.645473 336.560440 301.645473 338.587912 301.645473 340.615385 301.645473 342.642857 301.645473 344.670330 301.645473 346.697802 301.645473 348.725275 301.645473 350.752747 301.645473 352.780220 301.645473 354.807692 301.645473 356.835165 301.645473 358.862637 301.645473 360.890110 301.645473 362.917582 301.645473 364.945055 301.645473 366.972527 301.645473 369.000000 301.645473 371.027473 301.645473 373.054945 301.645473 375.082418 301.645473 377.109890 301.645473 379.137363 301.645473 381.164835 301.645473 383.192308 301.645473 385.219780 301.645473 387.247253 301.645473 389.274725 301.645473 391.302198 301.645473 393.329670 301.645473 395.357143 301.645473 397.384615 301.645473 399.412088 301.645473 401.439560 301.645473 403.467033 301.645473 405.494505 301.645473 407.521978 301.645473 409.549451 301.645473 411.576923 301.645473 413.604396 301.645473 415.631868 301.645473 417.659341 301.645473 419.686813 301.645473 421.714286 301.645473 423.741758 301.645473 425.769231 301.645473 427.796703 301.645473 429.824176 301.645473 431.851648 301.645473 433.879121 301.645473 435.906593 301.645473 437.934066 301.645473 439.961538 301.645473 441.989011 301.645473 444.016484 301.645473 446.043956 301.645473 448.071429 301.645473 450.098901 301.645473 452.126374 301.645473 454.153846 301.645473 456.181319 301.645473 458.208791 301.645473 460.236264 301.645473 462.263736 301.645473 464.291209 301.645473 466.318681 301.645473 468.346154 301.645473 470.373626 301.645473 472.401099 301.645473 474.428571 301.645473 476.456044 301.645473 478.483516 301.645473 480.510989 301.645473 482.538462 301.645473 484.565934 301.645473 486.593407 301.645473 488.620879 301.645473 490.648352 301.645473 492.675824 301.645473 494.703297 301.645473 496.730769 301.645473 498.758242 301.645473 500.785714 301.645473 502.813187 301.645473 504.840659 301.645473 506.868132 301.645473 508.895604 301.645473 510.923077 301.645473 512.950549 301.645473 514.978022 301.645473 517.005495 301.645473 519.032967 301.645473 521.060440 301.645473 523.087912 301.645473 525.115385 301.645473 527.142857 301.645473 529.170330 301.645473 531.197802 301.645473 533.225275 301.645473 535.252747 301.645473 537.280220 301.645473 539.307692 301.645473 541.335165 301.645473 543.362637 301.645473 545.390110 301.645473 547.417582 301.645473 549.445055 301.645473 551.472527 301.645473 553.500000 301.645473 555.527473 301.645473 557.554945 301.645473 559.582418 301.645473 561.609890 301.645473 563.637363 301.645473 565.664835 301.645473 567.692308 301.645473 569.719780 301.645473 571.747253 301.645473 573.774725 301.645473 575.802198 301.645473 577.829670 301.645473 579.857143 301.645473 581.884615 301.645473 583.912088 301.645473 585.939560 301.645473 587.967033 301.645473 589.994505 301.645473 592.021978 301.645473 594.049451 301.645473 596.076923 301.645473 598.104396 301.645473 600.131868 301.645473 602.159341 301.645473 604.186813 301.645473 606.214286 301.645473 608.241758 301.645473 610.269231 301.645473 612.296703 301.645473 614.324176 301.645473 616.351648 301.645473 618.379121 301.645473 620.406593 301.645473 622.434066 301.645473 624.461538 301.645473 626.489011 301.645473 628.516484 301.645473 630.543956 301.645473 632.571429 301.645473 634.598901 301.645473 636.626374 301.645473 638.653846 301.645473 640.681319 301.645473 642.708791 301.645473 644.736264 301.645473 646.763736 301.645473 648.791209 301.645473 650.818681 301.645473 652.846154 301.645473 654.873626 301.645473 656.901099 301.645473 658.928571 301.645473 660.956044 301.645473 662.983516 301.645473 665.010989 301.645473 667.038462 301.645473 669.065934 301.645473 671.093407 301.645473 673.120879 301.645473 675.148352 301.645473 677.175824 301.645473 679.203297 301.645473 681.230769 301.645473 683.258242 301.645473 685.285714 301.645473 687.313187 301.645473 689.340659 301.645473 691.368132 301.645473 693.395604 301.645473 695.423077 301.645473 697.450549 301.645473 699.478022 301.645473 701.505495 301.645473 703.532967 301.645473 705.560440 301.645473 707.587912 301.645473 709.615385 301.645473 711.642857 301.645473 713.670330 301.645473 715.697802 301.645473 717.725275 301.645473 719.752747 301.645473 721.780220 301.645473 723.807692 301.645473"/></g></g><g class="titles"><text class="title plot_title" x="400.0" y="26">Wasim Akram: Future and Past Averages in ODIs</text></g><g class="plot overlay" transform="translate(42, 46)"><g class="series serie-0 color-0"><g class="dots"><desc class="label">502 wickets in 351 innings (3031.0 overs)</desc><circle class="dot reactive tooltip-trigger" cx="14.192307692307692" cy="301.64547289902237" r="2.5"/><desc class="value">23.53</desc><desc class="x top">14.192307692307692</desc><desc class="y top">301.64547289902237</desc><desc class="x_label">1985</desc></g><g class="dots"><desc class="label">485 wickets in 337 innings (2925.4 overs)</desc><circle class="dot reactive tooltip-trigger" cx="42.57692307692307" cy="302.031785137527" r="2.5"/><desc class="value">23.47</desc><desc class="x top">42.57692307692307</desc><desc class="y top">302.031785137527</desc><desc class="x_label">1986</desc></g><g class="dots"><desc class="label">462 wickets in 321 innings (2797.4 overs)</desc><circle class="dot reactive tooltip-trigger" cx="75.01648351648352" cy="299.97145319883566" r="2.5"/><desc class="value">23.79</desc><desc class="x top">75.01648351648352</desc><desc class="y top">299.97145319883566</desc><desc class="x_label">1987</desc></g><g class="dots"><desc class="label">431 wickets in 297 innings (2572.4 overs)</desc><circle class="dot reactive tooltip-trigger" cx="123.67582417582416" cy="302.28932662986335" r="2.5"/><desc class="value">23.43</desc><desc class="x top">123.67582417582416</desc><desc class="y top">302.28932662986335</desc><desc class="x_label">1988</desc></g><g class="dots"><desc class="label">415 wickets in 285 innings (2469.5 overs)</desc><circle class="dot reactive tooltip-trigger" cx="148.0054945054945" cy="302.93318036070445" r="2.5"/><desc class="value">23.33</desc><desc class="x top">148.0054945054945</desc><desc class="y top">302.93318036070445</desc><desc class="x_label">1989</desc></g><g class="dots"><desc class="label">385 wickets in 268 innings (2327.5 overs)</desc><circle class="dot reactive tooltip-trigger" cx="182.4725274725275" cy="300.808463048929" r="2.5"/><desc class="value">23.66</desc><desc class="x top">182.4725274725275</desc><desc class="y top">300.808463048929</desc><desc class="x_label">1990</desc></g><g class="dots"><desc class="label">369 wickets in 255 innings (2207.3 overs)</desc><circle class="dot reactive tooltip-trigger" cx="208.82967032967034" cy="301.45231677977006" r="2.5"/><desc class="value">23.56</desc><desc class="x top">208.82967032967034</desc><desc class="y top">301.45231677977006</desc><desc class="x_label">1991</desc></g><g class="dots"><desc class="label">359 wickets in 247 innings (2139.0 overs)</desc><circle class="dot reactive tooltip-trigger" cx="225.04945054945057" cy="302.8044096145362" r="2.5"/><desc class="value">23.35</desc><desc class="x top">225.04945054945057</desc><desc class="y top">302.8044096145362</desc><desc class="x_label">1992</desc></g><g class="dots"><desc class="label">316 wickets in 220 innings (1895.3 overs)</desc><circle class="dot reactive tooltip-trigger" cx="279.79120879120876" cy="301.25916066051775" r="2.5"/><desc class="value">23.59</desc><desc class="x top">279.79120879120876</desc><desc class="y top">301.25916066051775</desc><desc class="x_label">1993</desc></g><g class="dots"><desc class="label">271 wickets in 194 innings (1666.5 overs)</desc><circle class="dot reactive tooltip-trigger" cx="332.50549450549454" cy="296.2371015599577" r="2.5"/><desc class="value">24.37</desc><desc class="x top">332.50549450549454</desc><desc class="y top">296.2371015599577</desc><desc class="x_label">1994</desc></g><g class="dots"><desc class="label">240 wickets in 173 innings (1473.3 overs)</desc><circle class="dot reactive tooltip-trigger" cx="375.0824175824176" cy="294.3055403674346" r="2.5"/><desc class="value">24.67</desc><desc class="x left top">375.0824175824176</desc><desc class="y left top">294.3055403674346</desc><desc class="x_label">1995</desc></g><g class="dots"><desc class="label">220 wickets in 161 innings (1361.2 overs)</desc><circle class="dot reactive tooltip-trigger" cx="399.4120879120879" cy="291.21504245939764" r="2.5"/><desc class="value">25.15</desc><desc class="x left top">399.4120879120879</desc><desc class="y left top">291.21504245939764</desc><desc class="x_label">1996</desc></g><g class="dots"><desc class="label">187 wickets in 136 innings (1150.1 overs)</desc><circle class="dot reactive tooltip-trigger" cx="450.09890109890114" cy="293.2109890250049" r="2.5"/><desc class="value">24.84</desc><desc class="x left top">450.09890109890114</desc><desc class="y left top">293.2109890250049</desc><desc class="x_label">1997</desc></g><g class="dots"><desc class="label">161 wickets in 117 innings (988.4 overs)</desc><circle class="dot reactive tooltip-trigger" cx="488.6208791208791" cy="291.08627171322945" r="2.5"/><desc class="value">25.17</desc><desc class="x left top">488.6208791208791</desc><desc class="y left top">291.08627171322945</desc><desc class="x_label">1998</desc></g><g class="dots"><desc class="label">139 wickets in 101 innings (845.4 overs)</desc><circle class="dot reactive tooltip-trigger" cx="521.0604395604396" cy="294.4986964866869" r="2.5"/><desc class="value">24.64</desc><desc class="x left top">521.0604395604396</desc><desc class="y left top">294.4986964866869</desc><desc class="x_label">1999</desc></g><g class="dots"><desc class="label">106 wickets in 74 innings (623.3 overs)</desc><circle class="dot reactive tooltip-trigger" cx="575.8021978021978" cy="296.43025767921006" r="2.5"/><desc class="value">24.34</desc><desc class="x left top">575.8021978021978</desc><desc class="y left top">296.43025767921006</desc><desc class="x_label">2000</desc></g><g class="dots"><desc class="label">70 wickets in 44 innings (371.1 overs)</desc><circle class="dot reactive tooltip-trigger" cx="636.6263736263736" cy="312.84852781565627" r="2.5"/><desc class="value">21.79</desc><desc class="x left top">636.6263736263736</desc><desc class="y left top">312.84852781565627</desc><desc class="x_label">2001</desc></g><g class="dots"><desc class="label">56 wickets in 32 innings (273.5 overs)</desc><circle class="dot reactive tooltip-trigger" cx="660.9560439560439" cy="318.7075967663096" r="2.5"/><desc class="value">20.88</desc><desc class="x left top">660.9560439560439</desc><desc class="y left top">318.7075967663096</desc><desc class="x_label">2002</desc></g><g class="dots"><desc class="label">12 wickets in 5 innings (47.3 overs)</desc><circle class="dot reactive tooltip-trigger" cx="715.697802197802" cy="345.2987558500442" r="2.5"/><desc class="value">16.75</desc><desc class="x left top">715.697802197802</desc><desc class="y left top">345.2987558500442</desc><desc class="x_label">2003</desc></g></g><g class="series serie-1 color-1"><g class="dots"><desc class="label">0 wickets over 0 innings</desc><circle class="dot reactive tooltip-trigger" cx="14.192307692307692" cy="453.1442557659166" r="2.5"/><desc class="value">0</desc><desc class="x top">14.192307692307692</desc><desc class="y top">453.1442557659166</desc><desc class="x_label">1985</desc></g><g class="dots"><desc class="label">17 wickets in 14 innings (105.2 overs)</desc><circle class="dot reactive tooltip-trigger" cx="42.57692307692307" cy="290.3136472362203" r="2.5"/><desc class="value">25.29</desc><desc class="x top">42.57692307692307</desc><desc class="y top">290.3136472362203</desc><desc class="x_label">1986</desc></g><g class="dots"><desc class="label">40 wickets in 30 innings (233.2 overs)</desc><circle class="dot reactive tooltip-trigger" cx="75.01648351648352" cy="320.832314078085" r="2.5"/><desc class="value">20.55</desc><desc class="x top">75.01648351648352</desc><desc class="y top">320.832314078085</desc><desc class="x_label">1987</desc></g><g class="dots"><desc class="label">71 wickets in 54 innings (458.2 overs)</desc><circle class="dot reactive tooltip-trigger" cx="123.67582417582416" cy="297.78235051397616" r="2.5"/><desc class="value">24.13</desc><desc class="x top">123.67582417582416</desc><desc class="y top">297.78235051397616</desc><desc class="x_label">1988</desc></g><g class="dots"><desc class="label">87 wickets in 66 innings (561.1 overs)</desc><circle class="dot reactive tooltip-trigger" cx="148.0054945054945" cy="295.46447708294846" r="2.5"/><desc class="value">24.49</desc><desc class="x top">148.0054945054945</desc><desc class="y top">295.46447708294846</desc><desc class="x_label">1989</desc></g><g class="dots"><desc class="label">117 wickets in 83 innings (703.1 overs)</desc><circle class="dot reactive tooltip-trigger" cx="182.4725274725275" cy="304.4784293147229" r="2.5"/><desc class="value">23.09</desc><desc class="x top">182.4725274725275</desc><desc class="y top">304.4784293147229</desc><desc class="x_label">1990</desc></g><g class="dots"><desc class="label">133 wickets in 96 innings (823.3 overs)</desc><circle class="dot reactive tooltip-trigger" cx="208.82967032967034" cy="302.09617051061105" r="2.5"/><desc class="value">23.46</desc><desc class="x top">208.82967032967034</desc><desc class="y top">302.09617051061105</desc><desc class="x_label">1991</desc></g><g class="dots"><desc class="label">143 wickets in 104 innings (892.0 overs)</desc><circle class="dot reactive tooltip-trigger" cx="225.04945054945057" cy="298.74813111023775" r="2.5"/><desc class="value">23.98</desc><desc class="x top">225.04945054945057</desc><desc class="y top">298.74813111023775</desc><desc class="x_label">1992</desc></g><g class="dots"><desc class="label">186 wickets in 131 innings (1135.3 overs)</desc><circle class="dot reactive tooltip-trigger" cx="279.79120879120876" cy="302.2249412567793" r="2.5"/><desc class="value">23.44</desc><desc class="x top">279.79120879120876</desc><desc class="y top">302.2249412567793</desc><desc class="x_label">1993</desc></g><g class="dots"><desc class="label">231 wickets in 157 innings (1364.1 overs)</desc><circle class="dot reactive tooltip-trigger" cx="332.50549450549454" cy="307.95523946126445" r="2.5"/><desc class="value">22.55</desc><desc class="x top">332.50549450549454</desc><desc class="y top">307.95523946126445</desc><desc class="x_label">1994</desc></g><g class="dots"><desc class="label">262 wickets in 178 innings (1557.3 overs)</desc><circle class="dot reactive tooltip-trigger" cx="375.0824175824176" cy="308.40593707285313" r="2.5"/><desc class="value">22.48</desc><desc class="x left top">375.0824175824176</desc><desc class="y left top">308.40593707285313</desc><desc class="x_label">1995</desc></g><g class="dots"><desc class="label">282 wickets in 190 innings (1669.4 overs)</desc><circle class="dot reactive tooltip-trigger" cx="399.4120879120879" cy="309.75802990761935" r="2.5"/><desc class="value">22.27</desc><desc class="x left top">399.4120879120879</desc><desc class="y left top">309.75802990761935</desc><desc class="x_label">1996</desc></g><g class="dots"><desc class="label">315 wickets in 215 innings (1880.5 overs)</desc><circle class="dot reactive tooltip-trigger" cx="450.09890109890114" cy="306.66753199958237" r="2.5"/><desc class="value">22.75</desc><desc class="x left top">450.09890109890114</desc><desc class="y left top">306.66753199958237</desc><desc class="x_label">1997</desc></g><g class="dots"><desc class="label">341 wickets in 234 innings (2042.2 overs)</desc><circle class="dot reactive tooltip-trigger" cx="488.6208791208791" cy="306.66753199958237" r="2.5"/><desc class="value">22.75</desc><desc class="x left top">488.6208791208791</desc><desc class="y left top">306.66753199958237</desc><desc class="x_label">1998</desc></g><g class="dots"><desc class="label">363 wickets in 250 innings (2185.2 overs)</desc><circle class="dot reactive tooltip-trigger" cx="521.0604395604396" cy="304.41404394163874" r="2.5"/><desc class="value">23.1</desc><desc class="x left top">521.0604395604396</desc><desc class="y left top">304.41404394163874</desc><desc class="x_label">1999</desc></g><g class="dots"><desc class="label">396 wickets in 277 innings (2407.3 overs)</desc><circle class="dot reactive tooltip-trigger" cx="575.8021978021978" cy="303.0619511068726" r="2.5"/><desc class="value">23.31</desc><desc class="x left top">575.8021978021978</desc><desc class="y left top">303.0619511068726</desc><desc class="x_label">2000</desc></g><g class="dots"><desc class="label">432 wickets in 307 innings (2659.5 overs)</desc><circle class="dot reactive tooltip-trigger" cx="636.6263736263736" cy="299.8426824526675" r="2.5"/><desc class="value">23.81</desc><desc class="x left top">636.6263736263736</desc><desc class="y left top">299.8426824526675</desc><desc class="x_label">2001</desc></g><g class="dots"><desc class="label">446 wickets in 319 innings (2757.1 overs)</desc><circle class="dot reactive tooltip-trigger" cx="660.9560439560439" cy="299.520755587247" r="2.5"/><desc class="value">23.86</desc><desc class="x left top">660.9560439560439</desc><desc class="y left top">299.520755587247</desc><desc class="x_label">2002</desc></g><g class="dots"><desc class="label">490 wickets in 346 innings (2983.3 overs)</desc><circle class="dot reactive tooltip-trigger" cx="715.697802197802" cy="300.5509215565926" r="2.5"/><desc class="value">23.7</desc><desc class="x left top">715.697802197802</desc><desc class="y left top">300.5509215565926</desc><desc class="x_label">2003</desc></g></g><g class="series serie-2 color-2"/></g><g class="plot text-overlay" transform="translate(42, 46)"><g class="series serie-0 color-0"/><g class="series serie-1 color-1"/><g class="series serie-2 color-2"/></g><g class="plot tooltip-overlay" transform="translate(42, 46)"><g class="tooltip" style="opacity: 0" transform="translate(0 0)"><rect class="tooltip-box" height="0" rx="10" ry="10" width="0"/><g class="text"/></g></g><g class="legends" transform="translate(52, 545)"><g class="legend reactive activate-serie" id="activate-serie-0"><rect class="color-0 reactive" height="12" width="12" x="0.0" y="1.0"/><text x="17.0" y="11.2">Future Average</text></g><g class="legend reactive activate-serie" id="activate-serie-1"><rect class="color-1 reactive" height="12" width="12" x="369.0" y="1.0"/><text x="386.0" y="11.2">Past Average</text></g><g class="legend reactive activate-serie" id="activate-serie-2"><rect class="color-2 reactive" height="12" width="12" x="0.0" y="22.0"/><text x="17.0" y="32.2">Career Average</text></g></g></g></svg>