<?xml version='1.0' encoding='utf-8'?>
<svg xmlns:xlink="http://www.w3.org/1999/xlink" xmlns="http://www.w3.org/2000/svg" id="chart-2413e279-b9b4-460a-b3af-f72b3f040bfd" class="pygal-chart" viewBox="0 0 800 600"><!--Generated with pygal 2.4.0 (lxml) ©Kozea 2012-2016 on 2019-08-04--><!--http://pygal.org--><!--http://github.com/Kozea/pygal--><defs><style type="text/css">#chart-2413e279-b9b4-460a-b3af-f72b3f040bfd{-webkit-user-select:none;-webkit-font-smoothing:antialiased;font-family:Consolas,"Liberation Mono",Menlo,Courier,monospace}#chart-2413e279-b9b4-460a-b3af-f72b3f040bfd .title{font-family:Consolas,"Liberation Mono",Menlo,Courier,monospace;font-size:16px}#chart-2413e279-b9b4-460a-b3af-f72b3f040bfd .legends .legend text{font-family:Consolas,"Liberation Mono",Menlo,Courier,monospace;font-size:14px}#chart-2413e279-b9b4-460a-b3af-f72b3f040bfd .axis text{font-family:Consolas,"Liberation Mono",Menlo,Courier,monospace;font-size:10px}#chart-2413e279-b9b4-460a-b3af-f72b3f040bfd .axis text.major{font-family:Consolas,"Liberation Mono",Menlo,Courier,monospace;font-size:10px}#chart-2413e279-b9b4-460a-b3af-f72b3f040bfd .text-overlay text.value{font-family:Consolas,"Liberation Mono",Menlo,Courier,monospace;font-size:16px}#chart-2413e279-b9b4-460a-b3af-f72b3f040bfd .text-overlay text.label{font-family:Consolas,"Liberation Mono",Menlo,Courier,monospace;font-size:10px}#chart-2413e279-b9b4-460a-b3af-f72b3f040bfd .tooltip{font-family:Consolas,"Liberation Mono",Menlo,Courier,monospace;font-size:14px}#chart-2413e279-b9b4-460a-b3af-f72b3f040bfd text.no_data{font-family:Consolas,"Liberation Mono",Menlo,Courier,monospace;font-size:64px}
#chart-2413e279-b9b4-460a-b3af-f72b3f040bfd{background-color:rgba(249,249,249,1)}#chart-2413e279-b9b4-460a-b3af-f72b3f040bfd path,#chart-2413e279-b9b4-460a-b3af-f72b3f040bfd line,#chart-2413e279-b9b4-460a-b3af-f72b3f040bfd rect,#chart-2413e279-b9b4-460a-b3af-f72b3f040bfd circle{-webkit-transition:150ms;-moz-transition:150ms;transition:150ms}#chart-2413e279-b9b4-460a-b3af-f72b3f040bfd .graph &gt; .background{fill:rgba(249,249,249,1)}#chart-2413e279-b9b4-460a-b3af-f72b3f040bfd .plot &gt; .background{fill:rgba(255,255,255,1)}#chart-2413e279-b9b4-460a-b3af-f72b3f040bfd .graph{fill:rgba(0,0,0,.87)}#chart-2413e279-b9b4-460a-b3af-f72b3f040bfd text.no_data{fill:rgba(0,0,0,1)}#chart-2413e279-b9b4-460a-b3af-f72b3f040bfd .title{fill:rgba(0,0,0,1)}#chart-2413e279-b9b4-460a-b3af-f72b3f040bfd .legends .legend text{fill:rgba(0,0,0,.87)}#chart-2413e279-b9b4-460a-b3af-f72b3f040bfd .legends .legend:hover text{fill:rgba(0,0,0,1)}#chart-2413e279-b9b4-460a-b3af-f72b3f040bfd .axis .line{stroke:rgba(0,0,0,1)}#chart-2413e279-b9b4-460a-b3af-f72b3f040bfd .axis .guide.line{stroke:rgba(0,0,0,.54)}#chart-2413e279-b9b4-460a-b3af-f72b3f040bfd .axis .major.line{stroke:rgba(0,0,0,.87)}#chart-2413e279-b9b4-460a-b3af-f72b3f040bfd .axis text.major{fill:rgba(0,0,0,1)}#chart-2413e279-b9b4-460a-b3af-f72b3f040bfd .axis.y .guides:hover .guide.line,#chart-2413e279-b9b4-460a-b3af-f72b3f040bfd .line-graph .axis.x .guides:hover .guide.line,#chart-2413e279-b9b4-460a-b3af-f72b3f040bfd .stackedline-graph .axis.x .guides:hover .guide.line,#chart-2413e279-b9b4-460a-b3af-f72b3f040bfd .xy-graph .axis.x .guides:hover .guide.line{stroke:rgba(0,0,0,1)}#chart-2413e279-b9b4-460a-b3af-f72b3f040bfd .axis .guides:hover text{fill:rgba(0,0,0,1)}#chart-2413e279-b9b4-460a-b3af-f72b3f040bfd .reactive{fill-opacity:.7;stroke-opacity:.8}#chart-2413e279-b9b4-460a-b3af-f72b3f040bfd .ci{stroke:rgba(0,0,0,.87)}#chart-2413e279-b9b4-460a-b3af-f72b3f040bfd .reactive.active,#chart-2413e279-b9b4-460a-b3af-f72b3f040bfd .active .reactive{fill-opacity:.8;stroke-opacity:.9;stroke-width:4}#chart-2413e279-b9b4-460a-b3af-f72b3f040bfd .ci .reactive.active{stroke-width:1.5}#chart-2413e279-b9b4-460a-b3af-f72b3f040bfd .series text{fill:rgba(0,0,0,1)}#chart-2413e279-b9b4-460a-b3af-f72b3f040bfd .tooltip rect{fill:rgba(255,255,255,1);stroke:rgba(0,0,0,1);-webkit-transition:opacity 150ms;-moz-transition:opacity 150ms;transition:opacity 150ms}#chart-2413e279-b9b4-460a-b3af-f72b3f040bfd .tooltip .label{fill:rgba(0,0,0,.87)}#chart-2413e279-b9b4-460a-b3af-f72b3f040bfd .tooltip .label{fill:rgba(0,0,0,.87)}#chart-2413e279-b9b4-460a-b3af-f72b3f040bfd .tooltip .legend{font-size:.8em;fill:rgba(0,0,0,.54)}#chart-2413e279-b9b4-460a-b3af-f72b3f040bfd .tooltip .x_label{font-size:.6em;fill:rgba(0,0,0,1)}#chart-2413e279-b9b4-460a-b3af-f72b3f040bfd .tooltip .xlink{font-size:.5em;text-decoration:underline}#chart-2413e279-b9b4-460a-b3af-f72b3f040bfd .tooltip .value{font-size:1.5em}#chart-2413e279-b9b4-460a-b3af-f72b3f040bfd .bound{font-size:.5em}#chart-2413e279-b9b4-460a-b3af-f72b3f040bfd .max-value{font-size:.75em;fill:rgba(0,0,0,.54)}#chart-2413e279-b9b4-460a-b3af-f72b3f040bfd .map-element{fill:rgba(255,255,255,1);stroke:rgba(0,0,0,.54) !important}#chart-2413e279-b9b4-460a-b3af-f72b3f040bfd .map-element .reactive{fill-opacity:inherit;stroke-opacity:inherit}#chart-2413e279-b9b4-460a-b3af-f72b3f040bfd .color-0,#chart-2413e279-b9b4-460a-b3af-f72b3f040bfd .color-0 a:visited{stroke:red;fill:red}#chart-2413e279-b9b4-460a-b3af-f72b3f040bfd .color-1,#chart-2413e279-b9b4-460a-b3af-f72b3f040bfd .color-1 a:visited{stroke:blue;fill:blue}#chart-2413e279-b9b4-460a-b3af-f72b3f040bfd .color-2,#chart-2413e279-b9b4-460a-b3af-f72b3f040bfd .color-2 a:visited{stroke:green;fill:green}#chart-2413e279-b9b4-460a-b3af-f72b3f040bfd .text-overlay .color-0 text{fill:white}#chart-2413e279-b9b4-460a-b3af-f72b3f040bfd .text-overlay .color-1 text{fill:white}#chart-2413e279-b9b4-460a-b3af-f72b3f040bfd .text-overlay .color-2 text{fill:white}
#chart-2413e279-b9b4-460a-b3af-f72b3f040bfd text.no_data{text-anchor:middle}#chart-2413e279-b9b4-460a-b3af-f72b3f040bfd .guide.line{fill:none}#chart-2413e279-b9b4-460a-b3af-f72b3f040bfd .centered{text-anchor:middle}#chart-2413e279-b9b4-460a-b3af-f72b3f040bfd .title{text-anchor:middle}#chart-2413e279-b9b4-460a-b3af-f72b3f040bfd .legends .legend text{fill-opacity:1}#chart-2413e279-b9b4-460a-b3af-f72b3f040bfd .axis.x text{text-anchor:middle}#chart-2413e279-b9b4-460a-b3af-f72b3f040bfd .axis.x:not(.web) text[transform]{text-anchor:start}#chart-2413e279-b9b4-460a-b3af-f72b3f040bfd .axis.x:not(.web) text[transform].backwards{text-anchor:end}#chart-2413e279-b9b4-460a-b3af-f72b3f040bfd .axis.y text{text-anchor:end}#chart-2413e279-b9b4-460a-b3af-f72b3f040bfd .axis.y text[transform].backwards{text-anchor:start}#chart-2413e279-b9b4-460a-b3af-f72b3f040bfd .axis.y2 text{text-anchor:start}#chart-2413e279-b9b4-460a-b3af-f72b3f040bfd .axis.y2 text[transform].backwards{text-anchor:end}#chart-2413e279-b9b4-460a-b3af-f72b3f040bfd .axis .guide.line{stroke-dasharray:4,4}#chart-2413e279-b9b4-460a-b3af-f72b3f040bfd .axis .major.guide.line{stroke-dasharray:6,6}#chart-2413e279-b9b4-460a-b3af-f72b3f040bfd .horizontal .axis.y .guide.line,#chart-2413e279-b9b4-460a-b3af-f72b3f040bfd .horizontal .axis.y2 .guide.line,#chart-2413e279-b9b4-460a-b3af-f72b3f040bfd .vertical .axis.x .guide.line{opacity:0}#chart-2413e279-b9b4-460a-b3af-f72b3f040bfd .horizontal .axis.always_show .guide.line,#chart-2413e279-b9b4-460a-b3af-f72b3f040bfd .vertical .axis.always_show .guide.line{opacity:1 !important}#chart-2413e279-b9b4-460a-b3af-f72b3f040bfd .axis.y .guides:hover .guide.line,#chart-2413e279-b9b4-460a-b3af-f72b3f040bfd .axis.y2 .guides:hover .guide.line,#chart-2413e279-b9b4-460a-b3af-f72b3f040bfd .axis.x .guides:hover .guide.line{opacity:1}#chart-2413e279-b9b4-460a-b3af-f72b3f040bfd .axis .guides:hover text{opacity:1}#chart-2413e279-b9b4-460a-b3af-f72b3f040bfd .nofill{fill:none}#chart-2413e279-b9b4-460a-b3af-f72b3f040bfd .subtle-fill{fill-opacity:.2}#chart-2413e279-b9b4-460a-b3af-f72b3f040bfd .dot{stroke-width:1px;fill-opacity:1}#chart-2413e279-b9b4-460a-b3af-f72b3f040bfd .dot.active{stroke-width:5px}#chart-2413e279-b9b4-460a-b3af-f72b3f040bfd .dot.negative{fill:transparent}#chart-2413e279-b9b4-460a-b3af-f72b3f040bfd text,#chart-2413e279-b9b4-460a-b3af-f72b3f040bfd tspan{stroke:none !important}#chart-2413e279-b9b4-460a-b3af-f72b3f040bfd .series text.active{opacity:1}#chart-2413e279-b9b4-460a-b3af-f72b3f040bfd .tooltip rect{fill-opacity:.95;stroke-width:.5}#chart-2413e279-b9b4-460a-b3af-f72b3f040bfd .tooltip text{fill-opacity:1}#chart-2413e279-b9b4-460a-b3af-f72b3f040bfd .showable{visibility:hidden}#chart-2413e279-b9b4-460a-b3af-f72b3f040bfd .showable.shown{visibility:visible}#chart-2413e279-b9b4-460a-b3af-f72b3f040bfd .gauge-background{fill:rgba(229,229,229,1);stroke:none}#chart-2413e279-b9b4-460a-b3af-f72b3f040bfd .bg-lines{stroke:rgba(249,249,249,1);stroke-width:2px}</style><script type="text/javascript">window.pygal = window.pygal || {};window.pygal.config = window.pygal.config || {};window.pygal.config['2413e279-b9b4-460a-b3af-f72b3f040bfd'] = {"allow_interruptions": false, "box_mode": "extremes", "classes": ["pygal-chart"], "css": ["file://style.css", "file://graph.css"], "defs": [], "disable_xml_declaration": false, "dots_size": 2.5, "dynamic_print_values": false, "explicit_size": false, "fill": false, "force_uri_protocol": "https", "formatter": null, "half_pie": false, "height": 600, "include_x_axis": false, "inner_radius": 0, "interpolate": null, "interpolation_parameters": {}, "interpolation_precision": 250, "inverse_y_axis": false, "js": ["//kozea.github.io/pygal.js/2.0.x/pygal-tooltips.min.js"], "legend_at_bottom": true, "legend_at_bottom_columns": null, "legend_box_size": 12, "logarithmic": false, "margin": 20, "margin_bottom": null, "margin_left": null, "margin_right": null, "margin_top": null, "max_scale": 16, "min_scale": 4, "missing_value_fill_truncation": "x", "no_data_text": "No data", "no_prefix": false, "order_min": null, "pretty_print": false, "print_labels": false, "print_values": false, "print_values_position": "center", "print_zeroes": true, "range": null, "rounded_bars": null, "secondary_range": null, "show_dots": true, "show_legend": true, "show_minor_x_labels": false, "show_minor_y_labels": true, "show_only_major_dots": false, "show_x_guides": false, "show_x_labels": true, "show_y_guides": true, "show_y_labels": true, "spacing": 10, "stack_from_top": false, "strict": false, "stroke": true, "stroke_style": null, "style": {"background": "rgba(249, 249, 249, 1)", "ci_colors": [], "colors": ["red", "blue", "green", "#a3a3a3"], "font_family": "Consolas, \"Liberation Mono\", Menlo, Courier, monospace", "foreground": "rgba(0, 0, 0, .87)", "foreground_strong": "rgba(0, 0, 0, 1)", "foreground_subtle": "rgba(0, 0, 0, .54)", "guide_stroke_dasharray": "4,4", "label_font_family": "Consolas, \"Liberation Mono\", Menlo, Courier, monospace", "label_font_size": 10, "legend_font_family": "Consolas, \"Liberation Mono\", Menlo, Courier, monospace", "legend_font_size": 14, "major_guide_stroke_dasharray": "6,6", "major_label_font_family": "Consolas, \"Liberation Mono\", Menlo, Courier, monospace", "major_label_font_size": 10, "no_data_font_family": "Consolas, \"Liberation Mono\", Menlo, Courier, monospace", "no_data_font_size": 64, "opacity": ".7", "opacity_hover": ".8", "plot_background": "rgba(255, 255, 255, 1)", "stroke_opacity": ".8", "stroke_opacity_hover": ".9", "title_font_family": "Consolas, \"Liberation Mono\", Menlo, Courier, monospace", "title_font_size": 16, "tooltip_font_family": "Consolas, \"Liberation Mono\", Menlo, Courier, monospace", "tooltip_font_size": 14, "transition": "150ms", "value_background": "rgba(229, 229, 229, 1)", "value_colors": [], "value_font_family": "Consolas, \"Liberation Mono\", Menlo, Courier, monospace", "value_font_size": 16, "value_label_font_family": "Consolas, \"Liberation Mono\", Menlo, Courier, monospace", "value_label_font_size": 10}, "title": "WJ Cronje: Future and Past Averages in ODIs", "tooltip_border_radius": 10, "tooltip_fancy_mode": true, "truncate_label": null, "truncate_legend": null, "width": 800, "x_label_rotation": 45, "x_labels": ["1992", "0", "0", "0", "0", "0", "0", "0", "0", "0", "0", "0", "0", "0", "1993", "0", "0", "0", "0", "0", "0", "0", "0", "0", "0", "0", "0", "0", "1994", "0", "0", "0", "0", "0", "0", "0", "0", "0", "0", "0", "0", "0", "0", "0", "0", "0", "0", "0", "0", "0", "0", "0", "0", "0", "1995", "0", "0", "0", "0", "0", "0", "1996", "0", "0", "0", "0", "0", "0", "0", "0", "0", "0", "0", "0", "0", "0", "0", "0", "0", "0", "0", "0", "0", "0", "0", "0", "0", "1997", "0", "0", "0", "0", "0", "0", "0", "0", "0", "0", "0", "0", "0", "0", "0", "0", "0", "0", "0", "0", "1998", "0", "0", "0", "0", "0", "0", "0", "0", "0", "0", "0", "0", "0", "0", "1999", "0", "0", "0", "0", "0", "0", "0", "0", "0", "0", "0", "0", "0", "0", "0", "0", "0", "0", "2000", "0", "0", "0", "0", "0", "0", "0", "0", "0", "0"], "x_labels_major": ["1992", "1993", "1994", "1995", "1996", "1997", "1998", "1999", "2000"], "x_labels_major_count": null, "x_labels_major_every": null, "x_title": null, "xrange": null, "y_label_rotation": 0, "y_labels": null, "y_labels_major": null, "y_labels_major_count": null, "y_labels_major_every": null, "y_title": null, "zero": 220.0, "legends": ["Future Average", "Past Average", "Career Average"]}</script><script type="text/javascript" xlink:href="https://kozea.github.io/pygal.js/2.0.x/pygal-tooltips.min.js"/></defs><title>WJ Cronje: Future and Past Averages in ODIs</title><g class="graph line-graph vertical"><rect class="background" height="600" width="800" x="0" y="0"/><g class="plot" transform="translate(48, 46)"><rect class="background" height="462.02943725152284" width="732.0" x="0" y="0"/><g class="axis y always_show"><g class="guides"><path class="axis major line" d="M0.000000 453.144256 h732.000000"/><text class="major" x="-5" y="456.6442557659166">0</text><title>0</title></g><g class="guides"><path class="guide line" d="M0.000000 410.833868 h732.000000"/><text class="" x="-5" y="414.3338677392204">20</text><title>20</title></g><g class="guides"><path class="guide line" d="M0.000000 368.523480 h732.000000"/><text class="" x="-5" y="372.02347971252414">40</text><title>40</title></g><g class="guides"><path class="guide line" d="M0.000000 326.213092 h732.000000"/><text class="" x="-5" y="329.7130916858279">60</text><title>60</title></g><g class="guides"><path class="guide line" d="M0.000000 283.902704 h732.000000"/><text class="" x="-5" y="287.4027036591317">80</text><title>80</title></g><g class="guides"><path class="major guide line" d="M0.000000 241.592316 h732.000000"/><text class="major" x="-5" y="245.09231563243546">100</text><title>100</title></g><g class="guides"><path class="guide line" d="M0.000000 199.281928 h732.000000"/><text class="" x="-5" y="202.7819276057392">120</text><title>120</title></g><g class="guides"><path class="guide line" d="M0.000000 156.971540 h732.000000"/><text class="" x="-5" y="160.47153957904305">140</text><title>140</title></g><g class="guides"><path class="guide line" d="M0.000000 114.661152 h732.000000"/><text class="" x="-5" y="118.16115155234678">160</text><title>160</title></g><g class="guides"><path class="guide line" d="M0.000000 72.350764 h732.000000"/><text class="" x="-5" y="75.85076352565056">180</text><title>180</title></g><g class="guides"><path class="major guide line" d="M0.000000 30.040375 h732.000000"/><text class="major" x="-5" y="33.54037549895429">200</text><title>200</title></g></g><g class="axis x"><g class="guides"><path class="major line" d="M14.076923 0.000000 v462.029437"/><text class="major" x="14.076923076923077" y="477.02943725152284" transform="rotate(45 14.076923 477.029437)">1992</text></g><g class="guides"><path class="major guide line" d="M78.904858 0.000000 v462.029437"/><text class="major" x="78.90485829959513" y="477.02943725152284" transform="rotate(45 78.904858 477.029437)">1993</text></g><g class="guides"><path class="major guide line" d="M143.732794 0.000000 v462.029437"/><text class="major" x="143.73279352226717" y="477.02943725152284" transform="rotate(45 143.732794 477.029437)">1994</text></g><g class="guides"><path class="major guide line" d="M264.127530 0.000000 v462.029437"/><text class="major" x="264.1275303643725" y="477.02943725152284" transform="rotate(45 264.127530 477.029437)">1995</text></g><g class="guides"><path class="major guide line" d="M296.541498 0.000000 v462.029437"/><text class="major" x="296.5414979757085" y="477.02943725152284" transform="rotate(45 296.541498 477.029437)">1996</text></g><g class="guides"><path class="major guide line" d="M416.936235 0.000000 v462.029437"/><text class="major" x="416.9362348178137" y="477.02943725152284" transform="rotate(45 416.936235 477.029437)">1997</text></g><g class="guides"><path class="major guide line" d="M514.178138 0.000000 v462.029437"/><text class="major" x="514.1781376518219" y="477.02943725152284" transform="rotate(45 514.178138 477.029437)">1998</text></g><g class="guides"><path class="major guide line" d="M583.636640 0.000000 v462.029437"/><text class="major" x="583.6366396761133" y="477.02943725152284" transform="rotate(45 583.636640 477.029437)">1999</text></g><g class="guides"><path class="major guide line" d="M671.617409 0.000000 v462.029437"/><text class="major" x="671.6174089068826" y="477.02943725152284" transform="rotate(45 671.617409 477.029437)">2000</text></g></g><g class="series serie-0 color-0"><path class="line reactive nofill" d="M14.076923 379.545336 L18.707490 379.862664 23.338057 380.116526 27.968623 380.285768 32.599190 379.312629 37.229757 379.566491 41.860324 379.841509 46.490891 380.179992 51.121457 377.408661 55.752024 377.747144 60.382591 377.662524 65.013158 377.958696 69.643725 378.360645 74.274291 378.043317 78.904858 378.487576 83.535425 378.508731 88.165992 378.974146 92.796559 379.587646 97.427126 377.979851 102.057692 378.889525 106.688259 379.418405 111.318826 380.095371 115.949393 379.312629 120.579960 378.254869 125.210526 376.520143 129.841093 377.070178 134.471660 376.393212 139.102227 375.864332 143.732794 376.647074 148.363360 376.710540 152.993927 377.429816 157.624494 377.747144 162.255061 377.302885 166.885628 377.810610 171.516194 378.720283 176.146761 378.720283 180.777328 379.206853 185.407895 379.228008 190.038462 380.730027 194.669028 380.349233 199.299595 381.153131 203.930162 381.872407 208.560729 382.866701 213.191296 384.093703 217.821862 384.072547 222.452429 383.564823 227.082996 383.501357 231.713563 384.664893 236.344130 385.828428 240.974696 386.082291 245.605263 385.532256 250.235830 384.812979 254.866397 385.616876 259.496964 386.209222 264.127530 385.236083 268.758097 384.305254 273.388664 383.649443 278.019231 382.168580 282.649798 381.195441 287.280364 380.624251 291.910931 380.095371 296.541498 376.625919 301.172065 377.218264 305.802632 377.091333 310.433198 376.435522 315.063765 375.885487 319.694332 376.181660 324.324899 376.774005 328.955466 377.366351 333.586032 377.831765 338.216599 378.424111 342.847166 376.583609 347.477733 376.689385 352.108300 377.324040 356.738866 376.837471 361.369433 377.683679 366.000000 377.831765 370.630567 377.366351 375.261134 378.149093 379.891700 378.466421 384.522267 378.868370 389.152834 379.058766 393.783401 380.391544 398.413968 380.835803 403.044534 380.920423 407.675101 381.639700 412.305668 382.655149 416.936235 384.009082 421.566802 383.797530 426.197368 382.528218 430.827935 382.485908 435.458502 382.083959 440.089069 382.803236 444.719636 384.326410 449.350202 383.924461 453.980769 384.030237 458.611336 385.109152 463.241903 386.188067 467.872470 387.436223 472.503036 388.218965 477.133603 387.330447 481.764170 388.028569 486.394737 386.991964 491.025304 387.330447 495.655870 387.668930 500.286437 390.080622 504.917004 391.011451 509.547571 391.455710 514.178138 394.248196 518.808704 394.692455 523.439271 394.861696 528.069838 394.227040 532.700405 392.069211 537.330972 394.078954 541.961538 395.073248 546.592105 394.819386 551.222672 394.205885 555.853239 394.100109 560.483806 396.215629 565.114372 394.607834 569.744939 393.782781 574.375506 395.073248 579.006073 392.957729 583.636640 391.942279 588.267206 393.444298 592.897773 396.342560 597.528340 393.211591 602.158907 387.668930 606.789474 377.916386 611.420040 371.294810 616.050607 373.812278 620.681174 375.800866 625.311741 380.560785 629.942308 381.216596 634.572874 368.840808 639.203441 372.754519 643.834008 366.936840 648.464575 372.754519 653.095142 373.812278 657.725709 365.773304 662.356275 367.825358 666.986842 368.290773 671.617409 363.234681 676.247976 352.805171 680.878543 357.945883 685.509109 350.901203 690.139676 314.577735 694.770243 226.783680 699.400810 8.885181 704.031377 154.856020 708.661943 224.668160 713.292510 355.830363 717.923077 406.602829"/></g><g class="series serie-1 color-1"><path class="line reactive nofill" d="M14.076923 453.144256 L18.707490 417.180426 23.338057 387.563154 27.968623 368.523480 32.599190 392.851953 37.229757 378.043317 41.860324 363.234681 46.490891 344.195007 51.121457 412.335887 55.752024 406.899002 60.382591 404.487310 65.013158 400.510133 69.643725 395.221335 74.274291 396.956060 78.904858 391.794193 83.535425 390.313330 88.165992 385.447635 92.796559 379.101077 97.427126 391.794193 102.057692 384.643738 106.688259 380.560785 111.318826 375.356607 115.949393 381.068510 120.579960 386.949654 125.210526 393.803937 129.841093 391.159537 134.471660 392.746177 139.102227 394.100109 143.732794 391.053761 148.363360 390.207554 152.993927 387.478534 157.624494 386.336153 162.255061 387.563154 166.885628 385.701497 171.516194 382.485908 176.146761 382.358977 180.777328 380.730027 185.407895 380.581940 190.038462 375.737401 194.669028 377.070178 199.299595 374.637331 203.930162 372.373725 208.560729 369.348532 213.191296 365.582908 217.821862 366.259874 222.452429 368.311928 227.082996 368.925428 231.713563 365.857925 236.344130 362.726957 240.974696 362.049990 245.605263 364.228975 250.235830 367.148392 254.866397 365.286735 259.496964 363.848182 264.127530 367.233013 268.758097 370.025498 273.388664 371.675604 278.019231 374.870038 282.649798 376.837471 287.280364 377.874075 291.910931 378.741438 296.541498 383.289805 301.172065 382.528218 305.802632 382.591684 310.433198 383.247495 315.063765 383.607133 319.694332 383.289805 324.324899 382.633994 328.955466 381.957028 333.586032 381.449303 338.216599 380.793492 342.847166 382.612839 347.477733 382.507063 352.108300 381.851252 356.738866 382.253201 361.369433 381.406993 366.000000 381.258907 370.630567 381.660855 375.261134 380.878113 379.891700 380.603095 384.522267 380.201147 389.152834 380.010750 393.783401 378.741438 398.413968 378.297179 403.044534 378.233714 407.675101 377.535592 412.305668 376.541298 416.936235 375.229676 421.566802 375.589315 426.197368 376.943247 430.827935 377.091333 435.458502 377.493282 440.089069 376.922092 444.719636 375.673935 449.350202 376.118194 453.980769 376.181660 458.611336 375.356607 463.241903 374.552710 467.872470 373.600726 472.503036 373.008381 477.133603 374.087296 481.764170 373.812278 486.394737 374.679641 491.025304 374.658486 495.655870 374.637331 500.286437 373.177622 504.917004 372.606432 509.547571 372.331415 514.178138 370.638999 518.808704 370.363982 523.439271 370.617844 528.069838 371.612138 532.700405 373.283398 537.330972 372.289104 541.961538 371.781380 546.592105 372.204483 551.222672 372.775674 555.853239 373.093002 560.483806 372.162173 565.114372 373.410330 569.744939 374.235382 574.375506 373.748813 579.006073 374.975814 583.636640 375.695090 588.267206 375.229676 592.897773 374.341158 597.528340 375.906642 602.158907 377.704834 606.789474 379.841509 611.420040 380.899268 616.050607 380.476164 620.681174 380.158836 625.311741 379.376094 629.942308 379.270318 634.572874 380.920423 639.203441 380.412699 643.834008 381.026199 648.464575 380.349233 653.095142 380.222302 657.725709 380.878113 662.356275 380.560785 666.986842 380.518475 671.617409 380.772337 676.247976 381.301217 680.878543 380.962734 685.509109 381.131975 690.139676 381.914718 694.770243 382.274356 699.400810 382.824391 704.031377 382.168580 708.661943 381.555079 713.292510 380.391544 717.923077 379.947284"/></g><g class="series serie-2 color-2"><path class="line reactive nofill" d="M14.076923 379.545336 L18.707490 379.545336 23.338057 379.545336 27.968623 379.545336 32.599190 379.545336 37.229757 379.545336 41.860324 379.545336 46.490891 379.545336 51.121457 379.545336 55.752024 379.545336 60.382591 379.545336 65.013158 379.545336 69.643725 379.545336 74.274291 379.545336 78.904858 379.545336 83.535425 379.545336 88.165992 379.545336 92.796559 379.545336 97.427126 379.545336 102.057692 379.545336 106.688259 379.545336 111.318826 379.545336 115.949393 379.545336 120.579960 379.545336 125.210526 379.545336 129.841093 379.545336 134.471660 379.545336 139.102227 379.545336 143.732794 379.545336 148.363360 379.545336 152.993927 379.545336 157.624494 379.545336 162.255061 379.545336 166.885628 379.545336 171.516194 379.545336 176.146761 379.545336 180.777328 379.545336 185.407895 379.545336 190.038462 379.545336 194.669028 379.545336 199.299595 379.545336 203.930162 379.545336 208.560729 379.545336 213.191296 379.545336 217.821862 379.545336 222.452429 379.545336 227.082996 379.545336 231.713563 379.545336 236.344130 379.545336 240.974696 379.545336 245.605263 379.545336 250.235830 379.545336 254.866397 379.545336 259.496964 379.545336 264.127530 379.545336 268.758097 379.545336 273.388664 379.545336 278.019231 379.545336 282.649798 379.545336 287.280364 379.545336 291.910931 379.545336 296.541498 379.545336 301.172065 379.545336 305.802632 379.545336 310.433198 379.545336 315.063765 379.545336 319.694332 379.545336 324.324899 379.545336 328.955466 379.545336 333.586032 379.545336 338.216599 379.545336 342.847166 379.545336 347.477733 379.545336 352.108300 379.545336 356.738866 379.545336 361.369433 379.545336 366.000000 379.545336 370.630567 379.545336 375.261134 379.545336 379.891700 379.545336 384.522267 379.545336 389.152834 379.545336 393.783401 379.545336 398.413968 379.545336 403.044534 379.545336 407.675101 379.545336 412.305668 379.545336 416.936235 379.545336 421.566802 379.545336 426.197368 379.545336 430.827935 379.545336 435.458502 379.545336 440.089069 379.545336 444.719636 379.545336 449.350202 379.545336 453.980769 379.545336 458.611336 379.545336 463.241903 379.545336 467.872470 379.545336 472.503036 379.545336 477.133603 379.545336 481.764170 379.545336 486.394737 379.545336 491.025304 379.545336 495.655870 379.545336 500.286437 379.545336 504.917004 379.545336 509.547571 379.545336 514.178138 379.545336 518.808704 379.545336 523.439271 379.545336 528.069838 379.545336 532.700405 379.545336 537.330972 379.545336 541.961538 379.545336 546.592105 379.545336 551.222672 379.545336 555.853239 379.545336 560.483806 379.545336 565.114372 379.545336 569.744939 379.545336 574.375506 379.545336 579.006073 379.545336 583.636640 379.545336 588.267206 379.545336 592.897773 379.545336 597.528340 379.545336 602.158907 379.545336 606.789474 379.545336 611.420040 379.545336 616.050607 379.545336 620.681174 379.545336 625.311741 379.545336 629.942308 379.545336 634.572874 379.545336 639.203441 379.545336 643.834008 379.545336 648.464575 379.545336 653.095142 379.545336 657.725709 379.545336 662.356275 379.545336 666.986842 379.545336 671.617409 379.545336 676.247976 379.545336 680.878543 379.545336 685.509109 379.545336 690.139676 379.545336 694.770243 379.545336 699.400810 379.545336 704.031377 379.545336 708.661943 379.545336 713.292510 379.545336 717.923077 379.545336"/></g></g><g class="titles"><text class="title plot_title" x="400.0" y="26">WJ Cronje: Future and Past Averages in ODIs</text></g><g class="plot overlay" transform="translate(48, 46)"><g class="series serie-0 color-0"><g class="dots"><desc class="label">114 wickets in 153 innings (892.5 overs)</desc><circle class="dot reactive tooltip-trigger" cx="14.076923076923077" cy="379.5453357934785" r="2.5"/><desc class="value">34.79</desc><desc class="x top">14.076923076923077</desc><desc class="y top">379.5453357934785</desc><desc class="x_label">1992</desc></g><g class="dots"><desc class="label">105 wickets in 139 innings (825.5 overs)</desc><circle class="dot reactive tooltip-trigger" cx="78.90485829959513" cy="378.4875760928111" r="2.5"/><desc class="value">35.29</desc><desc class="x top">78.90485829959513</desc><desc class="y top">378.4875760928111</desc><desc class="x_label">1993</desc></g><g class="dots"><desc class="label">91 wickets in 125 innings (711.5 overs)</desc><circle class="dot reactive tooltip-trigger" cx="143.73279352226717" cy="376.64707421364983" r="2.5"/><desc class="value">36.16</desc><desc class="x top">143.73279352226717</desc><desc class="y top">376.64707421364983</desc><desc class="x_label">1994</desc></g><g class="dots"><desc class="label">78 wickets in 99 innings (548.3 overs)</desc><circle class="dot reactive tooltip-trigger" cx="264.1275303643725" cy="385.23608298306914" r="2.5"/><desc class="value">32.1</desc><desc class="x top">264.1275303643725</desc><desc class="y top">385.23608298306914</desc><desc class="x_label">1995</desc></g><g class="dots"><desc class="label">64 wickets in 92 innings (495.2 overs)</desc><circle class="dot reactive tooltip-trigger" cx="296.5414979757085" cy="376.62591901963646" r="2.5"/><desc class="value">36.17</desc><desc class="x top">296.5414979757085</desc><desc class="y top">376.62591901963646</desc><desc class="x_label">1996</desc></g><g class="dots"><desc class="label">56 wickets in 66 innings (391.2 overs)</desc><circle class="dot reactive tooltip-trigger" cx="416.9362348178137" cy="384.00908173029495" r="2.5"/><desc class="value">32.68</desc><desc class="x left top">416.9362348178137</desc><desc class="y left top">384.00908173029495</desc><desc class="x_label">1997</desc></g><g class="dots"><desc class="label">43 wickets in 45 innings (261.3 overs)</desc><circle class="dot reactive tooltip-trigger" cx="514.1781376518219" cy="394.2481956327555" r="2.5"/><desc class="value">27.84</desc><desc class="x left top">514.1781376518219</desc><desc class="y left top">394.2481956327555</desc><desc class="x_label">1998</desc></g><g class="dots"><desc class="label">27 wickets in 30 innings (156.0 overs)</desc><circle class="dot reactive tooltip-trigger" cx="583.6366396761133" cy="391.9422794853005" r="2.5"/><desc class="value">28.93</desc><desc class="x left top">583.6366396761133</desc><desc class="y left top">391.9422794853005</desc><desc class="x_label">1999</desc></g><g class="dots"><desc class="label">8 wickets in 11 innings (64.3 overs)</desc><circle class="dot reactive tooltip-trigger" cx="671.6174089068826" cy="363.2346812091871" r="2.5"/><desc class="value">42.5</desc><desc class="x left top">671.6174089068826</desc><desc class="y left top">363.2346812091871</desc><desc class="x_label">2000</desc></g></g><g class="series serie-1 color-1"><g class="dots"><desc class="label">0 wickets over 0 innings</desc><circle class="dot reactive tooltip-trigger" cx="14.076923076923077" cy="453.1442557659166" r="2.5"/><desc class="value">0</desc><desc class="x top">14.076923076923077</desc><desc class="y top">453.1442557659166</desc><desc class="x_label">1992</desc></g><g class="dots"><desc class="label">9 wickets in 14 innings (67.0 overs)</desc><circle class="dot reactive tooltip-trigger" cx="78.90485829959513" cy="391.7941931272071" r="2.5"/><desc class="value">29</desc><desc class="x top">78.90485829959513</desc><desc class="y top">391.7941931272071</desc><desc class="x_label">1993</desc></g><g class="dots"><desc class="label">23 wickets in 28 innings (181.0 overs)</desc><circle class="dot reactive tooltip-trigger" cx="143.73279352226717" cy="391.0537613367399" r="2.5"/><desc class="value">29.35</desc><desc class="x top">143.73279352226717</desc><desc class="y top">391.0537613367399</desc><desc class="x_label">1994</desc></g><g class="dots"><desc class="label">36 wickets in 54 innings (344.2 overs)</desc><circle class="dot reactive tooltip-trigger" cx="264.1275303643725" cy="367.23301287770994" r="2.5"/><desc class="value">40.61</desc><desc class="x top">264.1275303643725</desc><desc class="y top">367.23301287770994</desc><desc class="x_label">1995</desc></g><g class="dots"><desc class="label">50 wickets in 61 innings (397.3 overs)</desc><circle class="dot reactive tooltip-trigger" cx="296.5414979757085" cy="383.2898051338411" r="2.5"/><desc class="value">33.02</desc><desc class="x top">296.5414979757085</desc><desc class="y top">383.2898051338411</desc><desc class="x_label">1996</desc></g><g class="dots"><desc class="label">58 wickets in 87 innings (501.3 overs)</desc><circle class="dot reactive tooltip-trigger" cx="416.9362348178137" cy="375.2296762147555" r="2.5"/><desc class="value">36.83</desc><desc class="x left top">416.9362348178137</desc><desc class="y left top">375.2296762147555</desc><desc class="x_label">1997</desc></g><g class="dots"><desc class="label">71 wickets in 108 innings (631.2 overs)</desc><circle class="dot reactive tooltip-trigger" cx="514.1781376518219" cy="370.638999113859" r="2.5"/><desc class="value">39</desc><desc class="x left top">514.1781376518219</desc><desc class="y left top">370.638999113859</desc><desc class="x_label">1998</desc></g><g class="dots"><desc class="label">87 wickets in 123 innings (736.5 overs)</desc><circle class="dot reactive tooltip-trigger" cx="583.6366396761133" cy="375.69509048304917" r="2.5"/><desc class="value">36.61</desc><desc class="x left top">583.6366396761133</desc><desc class="y left top">375.69509048304917</desc><desc class="x_label">1999</desc></g><g class="dots"><desc class="label">106 wickets in 142 innings (828.2 overs)</desc><circle class="dot reactive tooltip-trigger" cx="671.6174089068826" cy="380.7723370462527" r="2.5"/><desc class="value">34.21</desc><desc class="x left top">671.6174089068826</desc><desc class="y left top">380.7723370462527</desc><desc class="x_label">2000</desc></g></g><g class="series serie-2 color-2"/></g><g class="plot text-overlay" transform="translate(48, 46)"><g class="series serie-0 color-0"/><g class="series serie-1 color-1"/><g class="series serie-2 color-2"/></g><g class="plot tooltip-overlay" transform="translate(48, 46)"><g class="tooltip" style="opacity: 0" transform="translate(0 0)"><rect class="tooltip-box" height="0" rx="10" ry="10" width="0"/><g class="text"/></g></g><g class="legends" transform="translate(58, 545)"><g class="legend reactive activate-serie" id="activate-serie-0"><rect class="color-0 reactive" height="12" width="12" x="0.0" y="1.0"/><text x="17.0" y="11.2">Future Average</text></g><g class="legend reactive activate-serie" id="activate-serie-1"><rect class="color-1 reactive" height="12" width="12" x="366.0" y="1.0"/><text x="383.0" y="11.2">Past Average</text></g><g class="legend reactive activate-serie" id="activate-serie-2"><rect class="color-2 reactive" height="12" width="12" x="0.0" y="22.0"/><text x="17.0" y="32.2">Career Average</text></g></g></g></svg>