<?xml version='1.0' encoding='utf-8'?>
<svg xmlns:xlink="http://www.w3.org/1999/xlink" xmlns="http://www.w3.org/2000/svg" id="chart-6d74ca54-0aad-420e-9b78-eba3c6bf6f16" class="pygal-chart" viewBox="0 0 800 600"><!--Generated with pygal 2.4.0 (lxml) ©Kozea 2012-2016 on 2019-08-04--><!--http://pygal.org--><!--http://github.com/Kozea/pygal--><defs><style type="text/css">#chart-6d74ca54-0aad-420e-9b78-eba3c6bf6f16{-webkit-user-select:none;-webkit-font-smoothing:antialiased;font-family:Consolas,"Liberation Mono",Menlo,Courier,monospace}#chart-6d74ca54-0aad-420e-9b78-eba3c6bf6f16 .title{font-family:Consolas,"Liberation Mono",Menlo,Courier,monospace;font-size:16px}#chart-6d74ca54-0aad-420e-9b78-eba3c6bf6f16 .legends .legend text{font-family:Consolas,"Liberation Mono",Menlo,Courier,monospace;font-size:14px}#chart-6d74ca54-0aad-420e-9b78-eba3c6bf6f16 .axis text{font-family:Consolas,"Liberation Mono",Menlo,Courier,monospace;font-size:10px}#chart-6d74ca54-0aad-420e-9b78-eba3c6bf6f16 .axis text.major{font-family:Consolas,"Liberation Mono",Menlo,Courier,monospace;font-size:10px}#chart-6d74ca54-0aad-420e-9b78-eba3c6bf6f16 .text-overlay text.value{font-family:Consolas,"Liberation Mono",Menlo,Courier,monospace;font-size:16px}#chart-6d74ca54-0aad-420e-9b78-eba3c6bf6f16 .text-overlay text.label{font-family:Consolas,"Liberation Mono",Menlo,Courier,monospace;font-size:10px}#chart-6d74ca54-0aad-420e-9b78-eba3c6bf6f16 .tooltip{font-family:Consolas,"Liberation Mono",Menlo,Courier,monospace;font-size:14px}#chart-6d74ca54-0aad-420e-9b78-eba3c6bf6f16 text.no_data{font-family:Consolas,"Liberation Mono",Menlo,Courier,monospace;font-size:64px}
#chart-6d74ca54-0aad-420e-9b78-eba3c6bf6f16{background-color:rgba(249,249,249,1)}#chart-6d74ca54-0aad-420e-9b78-eba3c6bf6f16 path,#chart-6d74ca54-0aad-420e-9b78-eba3c6bf6f16 line,#chart-6d74ca54-0aad-420e-9b78-eba3c6bf6f16 rect,#chart-6d74ca54-0aad-420e-9b78-eba3c6bf6f16 circle{-webkit-transition:150ms;-moz-transition:150ms;transition:150ms}#chart-6d74ca54-0aad-420e-9b78-eba3c6bf6f16 .graph &gt; .background{fill:rgba(249,249,249,1)}#chart-6d74ca54-0aad-420e-9b78-eba3c6bf6f16 .plot &gt; .background{fill:rgba(255,255,255,1)}#chart-6d74ca54-0aad-420e-9b78-eba3c6bf6f16 .graph{fill:rgba(0,0,0,.87)}#chart-6d74ca54-0aad-420e-9b78-eba3c6bf6f16 text.no_data{fill:rgba(0,0,0,1)}#chart-6d74ca54-0aad-420e-9b78-eba3c6bf6f16 .title{fill:rgba(0,0,0,1)}#chart-6d74ca54-0aad-420e-9b78-eba3c6bf6f16 .legends .legend text{fill:rgba(0,0,0,.87)}#chart-6d74ca54-0aad-420e-9b78-eba3c6bf6f16 .legends .legend:hover text{fill:rgba(0,0,0,1)}#chart-6d74ca54-0aad-420e-9b78-eba3c6bf6f16 .axis .line{stroke:rgba(0,0,0,1)}#chart-6d74ca54-0aad-420e-9b78-eba3c6bf6f16 .axis .guide.line{stroke:rgba(0,0,0,.54)}#chart-6d74ca54-0aad-420e-9b78-eba3c6bf6f16 .axis .major.line{stroke:rgba(0,0,0,.87)}#chart-6d74ca54-0aad-420e-9b78-eba3c6bf6f16 .axis text.major{fill:rgba(0,0,0,1)}#chart-6d74ca54-0aad-420e-9b78-eba3c6bf6f16 .axis.y .guides:hover .guide.line,#chart-6d74ca54-0aad-420e-9b78-eba3c6bf6f16 .line-graph .axis.x .guides:hover .guide.line,#chart-6d74ca54-0aad-420e-9b78-eba3c6bf6f16 .stackedline-graph .axis.x .guides:hover .guide.line,#chart-6d74ca54-0aad-420e-9b78-eba3c6bf6f16 .xy-graph .axis.x .guides:hover .guide.line{stroke:rgba(0,0,0,1)}#chart-6d74ca54-0aad-420e-9b78-eba3c6bf6f16 .axis .guides:hover text{fill:rgba(0,0,0,1)}#chart-6d74ca54-0aad-420e-9b78-eba3c6bf6f16 .reactive{fill-opacity:.7;stroke-opacity:.8}#chart-6d74ca54-0aad-420e-9b78-eba3c6bf6f16 .ci{stroke:rgba(0,0,0,.87)}#chart-6d74ca54-0aad-420e-9b78-eba3c6bf6f16 .reactive.active,#chart-6d74ca54-0aad-420e-9b78-eba3c6bf6f16 .active .reactive{fill-opacity:.8;stroke-opacity:.9;stroke-width:4}#chart-6d74ca54-0aad-420e-9b78-eba3c6bf6f16 .ci .reactive.active{stroke-width:1.5}#chart-6d74ca54-0aad-420e-9b78-eba3c6bf6f16 .series text{fill:rgba(0,0,0,1)}#chart-6d74ca54-0aad-420e-9b78-eba3c6bf6f16 .tooltip rect{fill:rgba(255,255,255,1);stroke:rgba(0,0,0,1);-webkit-transition:opacity 150ms;-moz-transition:opacity 150ms;transition:opacity 150ms}#chart-6d74ca54-0aad-420e-9b78-eba3c6bf6f16 .tooltip .label{fill:rgba(0,0,0,.87)}#chart-6d74ca54-0aad-420e-9b78-eba3c6bf6f16 .tooltip .label{fill:rgba(0,0,0,.87)}#chart-6d74ca54-0aad-420e-9b78-eba3c6bf6f16 .tooltip .legend{font-size:.8em;fill:rgba(0,0,0,.54)}#chart-6d74ca54-0aad-420e-9b78-eba3c6bf6f16 .tooltip .x_label{font-size:.6em;fill:rgba(0,0,0,1)}#chart-6d74ca54-0aad-420e-9b78-eba3c6bf6f16 .tooltip .xlink{font-size:.5em;text-decoration:underline}#chart-6d74ca54-0aad-420e-9b78-eba3c6bf6f16 .tooltip .value{font-size:1.5em}#chart-6d74ca54-0aad-420e-9b78-eba3c6bf6f16 .bound{font-size:.5em}#chart-6d74ca54-0aad-420e-9b78-eba3c6bf6f16 .max-value{font-size:.75em;fill:rgba(0,0,0,.54)}#chart-6d74ca54-0aad-420e-9b78-eba3c6bf6f16 .map-element{fill:rgba(255,255,255,1);stroke:rgba(0,0,0,.54) !important}#chart-6d74ca54-0aad-420e-9b78-eba3c6bf6f16 .map-element .reactive{fill-opacity:inherit;stroke-opacity:inherit}#chart-6d74ca54-0aad-420e-9b78-eba3c6bf6f16 .color-0,#chart-6d74ca54-0aad-420e-9b78-eba3c6bf6f16 .color-0 a:visited{stroke:red;fill:red}#chart-6d74ca54-0aad-420e-9b78-eba3c6bf6f16 .color-1,#chart-6d74ca54-0aad-420e-9b78-eba3c6bf6f16 .color-1 a:visited{stroke:blue;fill:blue}#chart-6d74ca54-0aad-420e-9b78-eba3c6bf6f16 .color-2,#chart-6d74ca54-0aad-420e-9b78-eba3c6bf6f16 .color-2 a:visited{stroke:green;fill:green}#chart-6d74ca54-0aad-420e-9b78-eba3c6bf6f16 .text-overlay .color-0 text{fill:white}#chart-6d74ca54-0aad-420e-9b78-eba3c6bf6f16 .text-overlay .color-1 text{fill:white}#chart-6d74ca54-0aad-420e-9b78-eba3c6bf6f16 .text-overlay .color-2 text{fill:white}
#chart-6d74ca54-0aad-420e-9b78-eba3c6bf6f16 text.no_data{text-anchor:middle}#chart-6d74ca54-0aad-420e-9b78-eba3c6bf6f16 .guide.line{fill:none}#chart-6d74ca54-0aad-420e-9b78-eba3c6bf6f16 .centered{text-anchor:middle}#chart-6d74ca54-0aad-420e-9b78-eba3c6bf6f16 .title{text-anchor:middle}#chart-6d74ca54-0aad-420e-9b78-eba3c6bf6f16 .legends .legend text{fill-opacity:1}#chart-6d74ca54-0aad-420e-9b78-eba3c6bf6f16 .axis.x text{text-anchor:middle}#chart-6d74ca54-0aad-420e-9b78-eba3c6bf6f16 .axis.x:not(.web) text[transform]{text-anchor:start}#chart-6d74ca54-0aad-420e-9b78-eba3c6bf6f16 .axis.x:not(.web) text[transform].backwards{text-anchor:end}#chart-6d74ca54-0aad-420e-9b78-eba3c6bf6f16 .axis.y text{text-anchor:end}#chart-6d74ca54-0aad-420e-9b78-eba3c6bf6f16 .axis.y text[transform].backwards{text-anchor:start}#chart-6d74ca54-0aad-420e-9b78-eba3c6bf6f16 .axis.y2 text{text-anchor:start}#chart-6d74ca54-0aad-420e-9b78-eba3c6bf6f16 .axis.y2 text[transform].backwards{text-anchor:end}#chart-6d74ca54-0aad-420e-9b78-eba3c6bf6f16 .axis .guide.line{stroke-dasharray:4,4}#chart-6d74ca54-0aad-420e-9b78-eba3c6bf6f16 .axis .major.guide.line{stroke-dasharray:6,6}#chart-6d74ca54-0aad-420e-9b78-eba3c6bf6f16 .horizontal .axis.y .guide.line,#chart-6d74ca54-0aad-420e-9b78-eba3c6bf6f16 .horizontal .axis.y2 .guide.line,#chart-6d74ca54-0aad-420e-9b78-eba3c6bf6f16 .vertical .axis.x .guide.line{opacity:0}#chart-6d74ca54-0aad-420e-9b78-eba3c6bf6f16 .horizontal .axis.always_show .guide.line,#chart-6d74ca54-0aad-420e-9b78-eba3c6bf6f16 .vertical .axis.always_show .guide.line{opacity:1 !important}#chart-6d74ca54-0aad-420e-9b78-eba3c6bf6f16 .axis.y .guides:hover .guide.line,#chart-6d74ca54-0aad-420e-9b78-eba3c6bf6f16 .axis.y2 .guides:hover .guide.line,#chart-6d74ca54-0aad-420e-9b78-eba3c6bf6f16 .axis.x .guides:hover .guide.line{opacity:1}#chart-6d74ca54-0aad-420e-9b78-eba3c6bf6f16 .axis .guides:hover text{opacity:1}#chart-6d74ca54-0aad-420e-9b78-eba3c6bf6f16 .nofill{fill:none}#chart-6d74ca54-0aad-420e-9b78-eba3c6bf6f16 .subtle-fill{fill-opacity:.2}#chart-6d74ca54-0aad-420e-9b78-eba3c6bf6f16 .dot{stroke-width:1px;fill-opacity:1}#chart-6d74ca54-0aad-420e-9b78-eba3c6bf6f16 .dot.active{stroke-width:5px}#chart-6d74ca54-0aad-420e-9b78-eba3c6bf6f16 .dot.negative{fill:transparent}#chart-6d74ca54-0aad-420e-9b78-eba3c6bf6f16 text,#chart-6d74ca54-0aad-420e-9b78-eba3c6bf6f16 tspan{stroke:none !important}#chart-6d74ca54-0aad-420e-9b78-eba3c6bf6f16 .series text.active{opacity:1}#chart-6d74ca54-0aad-420e-9b78-eba3c6bf6f16 .tooltip rect{fill-opacity:.95;stroke-width:.5}#chart-6d74ca54-0aad-420e-9b78-eba3c6bf6f16 .tooltip text{fill-opacity:1}#chart-6d74ca54-0aad-420e-9b78-eba3c6bf6f16 .showable{visibility:hidden}#chart-6d74ca54-0aad-420e-9b78-eba3c6bf6f16 .showable.shown{visibility:visible}#chart-6d74ca54-0aad-420e-9b78-eba3c6bf6f16 .gauge-background{fill:rgba(229,229,229,1);stroke:none}#chart-6d74ca54-0aad-420e-9b78-eba3c6bf6f16 .bg-lines{stroke:rgba(249,249,249,1);stroke-width:2px}</style><script type="text/javascript">window.pygal = window.pygal || {};window.pygal.config = window.pygal.config || {};window.pygal.config['6d74ca54-0aad-420e-9b78-eba3c6bf6f16'] = {"allow_interruptions": false, "box_mode": "extremes", "classes": ["pygal-chart"], "css": ["file://style.css", "file://graph.css"], "defs": [], "disable_xml_declaration": false, "dots_size": 2.5, "dynamic_print_values": false, "explicit_size": false, "fill": false, "force_uri_protocol": "https", "formatter": null, "half_pie": false, "height": 600, "include_x_axis": false, "inner_radius": 0, "interpolate": null, "interpolation_parameters": {}, "interpolation_precision": 250, "inverse_y_axis": false, "js": ["//kozea.github.io/pygal.js/2.0.x/pygal-tooltips.min.js"], "legend_at_bottom": true, "legend_at_bottom_columns": null, "legend_box_size": 12, "logarithmic": false, "margin": 20, "margin_bottom": null, "margin_left": null, "margin_right": null, "margin_top": null, "max_scale": 16, "min_scale": 4, "missing_value_fill_truncation": "x", "no_data_text": "No data", "no_prefix": false, "order_min": null, "pretty_print": false, "print_labels": false, "print_values": false, "print_values_position": "center", "print_zeroes": true, "range": null, "rounded_bars": null, "secondary_range": null, "show_dots": true, "show_legend": true, "show_minor_x_labels": false, "show_minor_y_labels": true, "show_only_major_dots": false, "show_x_guides": false, "show_x_labels": true, "show_y_guides": true, "show_y_labels": true, "spacing": 10, "stack_from_top": false, "strict": false, "stroke": true, "stroke_style": null, "style": {"background": "rgba(249, 249, 249, 1)", "ci_colors": [], "colors": ["red", "blue", "green", "#a3a3a3"], "font_family": "Consolas, \"Liberation Mono\", Menlo, Courier, monospace", "foreground": "rgba(0, 0, 0, .87)", "foreground_strong": "rgba(0, 0, 0, 1)", "foreground_subtle": "rgba(0, 0, 0, .54)", "guide_stroke_dasharray": "4,4", "label_font_family": "Consolas, \"Liberation Mono\", Menlo, Courier, monospace", "label_font_size": 10, "legend_font_family": "Consolas, \"Liberation Mono\", Menlo, Courier, monospace", "legend_font_size": 14, "major_guide_stroke_dasharray": "6,6", "major_label_font_family": "Consolas, \"Liberation Mono\", Menlo, Courier, monospace", "major_label_font_size": 10, "no_data_font_family": "Consolas, \"Liberation Mono\", Menlo, Courier, monospace", "no_data_font_size": 64, "opacity": ".7", "opacity_hover": ".8", "plot_background": "rgba(255, 255, 255, 1)", "stroke_opacity": ".8", "stroke_opacity_hover": ".9", "title_font_family": "Consolas, \"Liberation Mono\", Menlo, Courier, monospace", "title_font_size": 16, "tooltip_font_family": "Consolas, \"Liberation Mono\", Menlo, Courier, monospace", "tooltip_font_size": 14, "transition": "150ms", "value_background": "rgba(229, 229, 229, 1)", "value_colors": [], "value_font_family": "Consolas, \"Liberation Mono\", Menlo, Courier, monospace", "value_font_size": 16, "value_label_font_family": "Consolas, \"Liberation Mono\", Menlo, Courier, monospace", "value_label_font_size": 10}, "title": "WPUJC Vaas: Future and Past Averages in ODIs", "tooltip_border_radius": 10, "tooltip_fancy_mode": true, "truncate_label": null, "truncate_legend": null, "width": 800, "x_label_rotation": 45, "x_labels": ["1994", "0", "0", "0", "0", "0", "0", "0", "0", "0", "0", "0", "0", "0", "0", "0", "0", "0", "0", "0", "0", "0", "0", "1995", "0", "0", "0", "0", "0", "0", "0", "0", "0", "1996", "0", "0", "0", "0", "0", "0", "0", "0", "0", "0", "0", "0", "0", "0", "0", "0", "0", "0", "0", "0", "0", "0", "0", "0", "0", "0", "0", "0", "1997", "0", "0", "0", "0", "0", "0", "0", "0", "0", "0", "0", "0", "0", "0", "0", "0", "0", "0", "0", "1998", "0", "0", "0", "0", "0", "0", "0", "0", "0", "0", "0", "1999", "0", "0", "0", "0", "0", "0", "0", "0", "0", "0", "0", "0", "0", "0", "0", "0", "0", "0", "0", "0", "0", "0", "0", "0", "0", "0", "0", "0", "0", "0", "2000", "0", "0", "0", "0", "0", "0", "0", "0", "0", "0", "0", "0", "0", "0", "0", "0", "0", "0", "0", "2001", "0", "0", "0", "0", "0", "0", "0", "0", "0", "0", "0", "0", "0", "0", "0", "0", "0", "0", "0", "0", "0", "0", "0", "0", "0", "0", "0", "0", "2002", "0", "0", "0", "0", "0", "0", "0", "0", "0", "0", "0", "0", "0", "0", "0", "0", "0", "0", "0", "0", "0", "0", "0", "0", "0", "0", "0", "0", "0", "2003", "0", "0", "0", "0", "0", "0", "0", "0", "0", "0", "0", "0", "0", "0", "0", "0", "0", "0", "0", "0", "0", "0", "2004", "0", "0", "0", "0", "0", "0", "0", "0", "0", "0", "0", "0", "0", "0", "0", "0", "0", "0", "0", "0", "2005", "0", "0", "0", "0", "0", "0", "0", "0", "0", "0", "0", "2006", "0", "0", "0", "0", "0", "0", "0", "0", "0", "0", "0", "0", "0", "0", "0", "0", "0", "0", "0", "0", "0", "0", "0", "0", "0", "0", "2007", "0", "0", "0", "0", "0", "0", "0", "0", "0", "0", "0", "0", "0", "0", "0", "2008", "0", "0", "0", "0", "0", "0", "0", "0", "0", "0", "0", "0", "0", "0", "0", "0"], "x_labels_major": ["1994", "1995", "1996", "1997", "1998", "1999", "2000", "2001", "2002", "2003", "2004", "2005", "2006", "2007", "2008"], "x_labels_major_count": null, "x_labels_major_every": null, "x_title": null, "xrange": null, "y_label_rotation": 0, "y_labels": null, "y_labels_major": null, "y_labels_major_count": null, "y_labels_major_every": null, "y_title": null, "zero": 80.0, "legends": ["Future Average", "Past Average", "Career Average"]}</script><script type="text/javascript" xlink:href="https://kozea.github.io/pygal.js/2.0.x/pygal-tooltips.min.js"/></defs><title>WPUJC Vaas: Future and Past Averages in ODIs</title><g class="graph line-graph vertical"><rect class="background" height="600" width="800" x="0" y="0"/><g class="plot" transform="translate(42, 46)"><rect class="background" height="462.02943725152284" width="738.0" x="0" y="0"/><g class="axis y always_show"><g class="guides"><path class="axis major line" d="M0.000000 453.144256 h738.000000"/><text class="major" x="-5" y="456.6442557659166">0</text><title>0</title></g><g class="guides"><path class="guide line" d="M0.000000 392.286848 h738.000000"/><text class="" x="-5" y="395.78684833025767">10</text><title>10</title></g><g class="guides"><path class="guide line" d="M0.000000 331.429441 h738.000000"/><text class="" x="-5" y="334.92944089459866">20</text><title>20</title></g><g class="guides"><path class="guide line" d="M0.000000 270.572033 h738.000000"/><text class="" x="-5" y="274.0720334589397">30</text><title>30</title></g><g class="guides"><path class="guide line" d="M0.000000 209.714626 h738.000000"/><text class="" x="-5" y="213.21462602328074">40</text><title>40</title></g><g class="guides"><path class="major guide line" d="M0.000000 148.857219 h738.000000"/><text class="major" x="-5" y="152.35721858762173">50</text><title>50</title></g><g class="guides"><path class="guide line" d="M0.000000 87.999811 h738.000000"/><text class="" x="-5" y="91.49981115196277">60</text><title>60</title></g><g class="guides"><path class="guide line" d="M0.000000 27.142404 h738.000000"/><text class="" x="-5" y="30.642403716303875">70</text><title>70</title></g></g><g class="axis x"><g class="guides"><path class="major line" d="M14.192308 0.000000 v462.029437"/><text class="major" x="14.192307692307692" y="477.02943725152284" transform="rotate(45 14.192308 477.029437)">1994</text></g><g class="guides"><path class="major guide line" d="M65.355799 0.000000 v462.029437"/><text class="major" x="65.35579937304075" y="477.02943725152284" transform="rotate(45 65.355799 477.029437)">1995</text></g><g class="guides"><path class="major guide line" d="M87.600796 0.000000 v462.029437"/><text class="major" x="87.60079575596816" y="477.02943725152284" transform="rotate(45 87.600796 477.029437)">1996</text></g><g class="guides"><path class="major guide line" d="M152.111285 0.000000 v462.029437"/><text class="major" x="152.11128526645766" y="477.02943725152284" transform="rotate(45 152.111285 477.029437)">1997</text></g><g class="guides"><path class="major guide line" d="M196.601278 0.000000 v462.029437"/><text class="major" x="196.60127803231254" y="477.02943725152284" transform="rotate(45 196.601278 477.029437)">1998</text></g><g class="guides"><path class="major guide line" d="M223.295274 0.000000 v462.029437"/><text class="major" x="223.2952736918254" y="477.02943725152284" transform="rotate(45 223.295274 477.029437)">1999</text></g><g class="guides"><path class="major guide line" d="M292.254762 0.000000 v462.029437"/><text class="major" x="292.25476247890043" y="477.02943725152284" transform="rotate(45 292.254762 477.029437)">2000</text></g><g class="guides"><path class="major guide line" d="M336.744755 0.000000 v462.029437"/><text class="major" x="336.7447552447552" y="477.02943725152284" transform="rotate(45 336.744755 477.029437)">2001</text></g><g class="guides"><path class="major guide line" d="M401.255245 0.000000 v462.029437"/><text class="major" x="401.25524475524475" y="477.02943725152284" transform="rotate(45 401.255245 477.029437)">2002</text></g><g class="guides"><path class="major guide line" d="M467.990234 0.000000 v462.029437"/><text class="major" x="467.99023390402704" y="477.02943725152284" transform="rotate(45 467.990234 477.029437)">2003</text></g><g class="guides"><path class="major guide line" d="M519.153726 0.000000 v462.029437"/><text class="major" x="519.1537255847601" y="477.02943725152284" transform="rotate(45 519.153726 477.029437)">2004</text></g><g class="guides"><path class="major guide line" d="M565.868218 0.000000 v462.029437"/><text class="major" x="565.8682179889076" y="477.02943725152284" transform="rotate(45 565.868218 477.029437)">2005</text></g><g class="guides"><path class="major guide line" d="M592.562214 0.000000 v462.029437"/><text class="major" x="592.5622136484205" y="477.02943725152284" transform="rotate(45 592.562214 477.029437)">2006</text></g><g class="guides"><path class="major guide line" d="M652.623704 0.000000 v462.029437"/><text class="major" x="652.6237038823247" y="477.02943725152284" transform="rotate(45 652.623704 477.029437)">2007</text></g><g class="guides"><path class="major guide line" d="M688.215698 0.000000 v462.029437"/><text class="major" x="688.2156980950084" y="477.02943725152284" transform="rotate(45 688.215698 477.029437)">2008</text></g></g><g class="series serie-0 color-0"><path class="line reactive nofill" d="M14.192308 285.542956 L16.416807 285.786385 18.641307 286.090672 20.865807 286.334102 23.090306 286.455817 25.314806 286.516674 27.539306 286.394959 29.763805 286.760104 31.988305 287.064391 34.212804 287.246963 36.437304 287.368678 38.661804 287.672965 40.886303 287.855537 43.110803 288.220682 45.335303 287.672965 47.559802 286.273245 49.784302 285.908100 52.008802 285.177811 54.233301 285.238669 56.457801 284.690952 58.682300 285.177811 60.906800 285.056096 63.131300 285.177811 65.355799 284.934382 67.580299 285.177811 69.804799 284.386665 72.029298 284.934382 74.253798 284.630095 76.478298 285.786385 78.702797 285.360383 80.927297 285.725528 83.151796 285.603813 85.376296 285.421241 87.600796 285.786385 89.825295 284.751809 92.049795 284.204093 94.274295 284.873524 96.498794 284.508380 98.723294 284.508380 100.947794 284.751809 103.172293 284.082378 105.396793 284.386665 107.621293 283.960663 109.845792 284.569237 112.070292 284.873524 114.294791 284.934382 116.519291 284.812667 118.743791 284.873524 120.968290 284.082378 123.192790 283.960663 125.417290 283.108659 127.641789 282.743515 129.866289 282.560943 132.090789 283.169517 134.315288 283.717233 136.539788 283.108659 138.764287 283.352089 140.988787 283.047802 143.213287 283.899806 145.437786 282.195798 147.662286 282.439228 149.886786 282.926087 152.111285 283.352089 154.335785 284.204093 156.560285 282.560943 158.784784 281.465509 161.009284 282.317513 163.233783 282.195798 165.458283 281.708939 167.682783 282.560943 169.907282 281.708939 172.131782 281.587224 174.356282 281.830654 176.580781 281.830654 178.805281 281.465509 181.029781 280.978650 183.254280 280.491791 185.478780 280.735221 187.703279 280.248361 189.927779 279.761502 192.152279 279.822359 194.376778 279.639787 196.601278 280.248361 198.825778 280.674363 201.050277 281.343795 203.274777 281.952369 205.499277 280.856935 207.723776 280.370076 209.948276 281.039508 212.172776 280.978650 214.397275 281.100365 216.621775 280.309219 218.846274 281.100365 221.070774 281.282937 223.295274 281.100365 225.519773 281.952369 227.744273 282.317513 229.968773 283.108659 232.193272 281.891511 234.417772 282.926087 236.642272 282.500085 238.866771 282.074083 241.091271 281.952369 243.315770 282.500085 245.540270 282.743515 247.764770 284.021521 249.989269 283.412946 252.213769 283.960663 254.438269 283.960663 256.662768 283.108659 258.887268 284.204093 261.111768 285.542956 263.336267 284.812667 265.560767 286.273245 267.785266 286.699246 270.009766 287.490393 272.234266 288.890113 274.458765 288.098967 276.683265 287.490393 278.907765 287.186106 281.132264 286.820961 283.356764 286.638389 285.581264 287.429535 287.805763 287.916395 290.030263 288.585826 292.254762 288.950971 294.479262 288.403254 296.703762 288.038109 298.928261 287.672965 301.152761 287.003533 303.377261 286.881819 305.601760 287.551250 307.826260 288.829256 310.050760 289.133543 312.275259 289.802974 314.499759 290.289833 316.724259 291.020122 318.948758 291.932983 321.173258 293.028417 323.397757 292.663272 325.622257 293.697848 327.846757 293.089274 330.071256 292.602415 332.295756 289.437830 334.520256 290.046404 336.744755 290.837550 338.969255 291.080980 341.193755 290.107261 343.418254 290.168119 345.642754 289.437830 347.867253 288.829256 350.091753 288.829256 352.316253 288.646683 354.540752 286.699246 356.765252 287.246963 358.989752 288.159824 361.214251 288.768398 363.438751 289.681259 365.663251 288.342396 367.887750 288.646683 370.112250 288.464111 372.336749 289.194400 374.561249 288.950971 376.785749 287.125248 379.010248 286.516674 381.234748 286.029815 383.459248 286.942676 385.683747 287.672965 387.908247 287.429535 390.132747 287.855537 392.357246 288.098967 394.581746 281.465509 396.806245 282.804372 399.030745 283.656376 401.255245 284.447522 403.479744 284.569237 405.704244 286.029815 407.928744 286.820961 410.153243 285.238669 412.377743 286.273245 414.602243 286.394959 416.826742 285.847243 419.051242 285.238669 421.275741 284.204093 423.500241 285.238669 425.724741 286.577532 427.949240 287.612108 430.173740 287.003533 432.398240 288.220682 434.622739 289.255258 436.847239 287.368678 439.071739 286.516674 441.296238 286.516674 443.520738 285.908100 445.745238 286.029815 447.969737 286.029815 450.194237 285.908100 452.418736 285.725528 454.643236 287.612108 456.867736 287.003533 459.092235 287.551250 461.316735 287.977252 463.541235 288.829256 465.765734 287.003533 467.990234 288.890113 470.214734 289.011828 472.439233 291.202695 474.663733 292.784987 476.888232 292.845845 479.112732 293.636991 481.337232 294.549852 483.561731 288.768398 485.786231 285.847243 488.010731 283.960663 490.235230 279.700645 492.459730 281.282937 494.684230 284.082378 496.908729 283.047802 499.133229 282.560943 501.357728 280.065789 503.582228 281.161222 505.806728 282.317513 508.031227 283.534661 510.255727 284.082378 512.480227 282.074083 514.704726 282.317513 516.929226 282.195798 519.153726 278.483496 521.378225 279.518072 523.602725 277.448920 525.827224 274.527765 528.051724 275.440626 530.276224 275.501483 532.500723 270.876320 534.725223 264.182006 536.949723 263.512574 539.174222 264.364578 541.398722 260.287132 543.623222 259.800272 545.847721 253.349387 548.072221 254.627393 550.296721 254.018819 552.521220 254.688250 554.745720 253.653674 556.970219 253.045100 559.194719 249.637085 561.419219 249.271941 563.643718 249.941372 565.868218 249.758800 568.092718 251.767095 570.317217 249.454513 572.541717 251.158520 574.766217 249.697943 576.990716 252.497383 579.215216 254.323106 581.439715 255.175109 583.664215 254.809965 585.888715 256.818259 588.113214 260.165417 590.337714 264.547150 592.562214 265.216582 594.786713 266.251158 597.011213 255.235967 599.235713 246.715930 601.460212 254.262248 603.684712 249.515370 605.909211 249.393656 608.133711 255.357682 610.358211 259.800272 612.582710 257.061689 614.807210 261.443422 617.031710 256.087970 619.256209 263.086572 621.480709 254.323106 623.705209 260.043702 625.929708 264.729722 628.154208 270.085174 630.378707 267.103161 632.603207 273.067187 634.827707 278.483496 637.052206 279.031213 639.276706 277.509778 641.501206 269.963459 643.725705 270.085174 645.950205 271.850039 648.174705 264.668865 650.399204 256.939974 652.623704 259.495985 654.848204 242.151624 657.072703 237.222174 659.297203 231.866722 661.521702 224.016117 663.746202 222.372967 665.970702 207.341187 668.195201 208.619193 670.419701 180.563928 672.644201 171.496174 674.868700 163.888998 677.093200 183.241654 679.317700 194.682846 681.542199 188.779678 683.766699 179.285922 685.991198 195.108848 688.215698 172.287320 690.440198 205.941467 692.664697 179.833639 694.889197 201.438019 697.113697 197.543145 699.338196 187.379957 701.562696 180.016211 703.787196 202.107450 706.011695 224.928978 708.236195 240.873619 710.460694 241.908195 712.685194 222.920683 714.909694 230.406145 717.134193 206.671756 719.358693 127.557126 721.583193 8.885181 723.807692 209.714626"/></g><g class="series serie-1 color-1"><path class="line reactive nofill" d="M14.192308 453.144256 L16.416807 209.714626 18.641307 75.828330 20.865807 133.642867 23.090306 169.122735 25.314806 192.978839 27.539306 220.668959 29.763805 193.891700 31.988305 165.897293 34.212804 174.234757 36.437304 168.149017 38.661804 147.822643 40.886303 158.411832 43.110803 135.833733 45.335303 195.534850 47.559802 265.399154 49.784302 278.179209 52.008802 293.576133 54.233301 291.689554 56.457801 301.000737 58.682300 291.872126 60.906800 293.576133 63.131300 291.872126 65.355799 294.428137 67.580299 291.080980 69.804799 299.966161 72.029298 293.089274 74.253798 296.497289 76.478298 283.352089 78.702797 288.098967 80.927297 283.656376 83.151796 285.542956 85.376296 287.307821 87.600796 283.595519 89.825295 293.089274 92.049795 297.227578 94.274295 291.263552 96.498794 294.062993 98.723294 293.941278 100.947794 291.750411 103.172293 296.375574 105.396793 293.819563 107.621293 296.436432 109.845792 292.115556 112.070292 290.107261 114.294791 289.863832 116.519291 290.289833 118.743791 289.924689 120.968290 294.367280 123.192790 294.610709 125.417290 298.749013 127.641789 300.270448 129.866289 300.818165 132.090789 297.592722 134.315288 294.914996 136.539788 297.531865 138.764287 296.253859 140.988787 297.349293 143.213287 293.515276 145.437786 300.331306 147.662286 299.357587 149.886786 297.288435 152.111285 295.401856 154.335785 291.689554 156.560285 297.957867 158.784784 301.852741 161.009284 298.444726 163.233783 298.749013 165.458283 300.148733 167.682783 296.862433 169.907282 299.540159 172.131782 299.661874 174.356282 298.688156 176.580781 298.383869 178.805281 299.418445 181.029781 300.635593 183.254280 301.365882 185.478780 300.574735 187.703279 301.487596 189.927779 302.400458 192.152279 301.852741 194.376778 302.217885 196.601278 300.574735 198.825778 299.357587 201.050277 297.471008 203.274777 295.584428 205.499277 298.079582 207.723776 299.053300 209.948276 297.410150 212.172776 297.349293 214.397275 296.984148 216.621775 298.688156 218.846274 296.679861 221.070774 296.071287 223.295274 296.253859 225.519773 294.184708 227.744273 293.332704 229.968773 291.324409 232.193272 293.941278 234.417772 291.506982 236.642272 292.298128 238.866771 293.028417 241.091271 293.089274 243.315770 291.993841 245.540270 291.263552 247.764770 288.707541 249.989269 289.802974 252.213769 288.646683 254.438269 288.646683 256.662768 290.168119 258.887268 288.159824 261.111768 285.664671 263.336267 286.942676 265.560767 284.325808 267.785266 283.534661 270.009766 282.195798 272.234266 279.700645 274.458765 281.161222 276.683265 282.317513 278.907765 282.804372 281.132264 283.534661 283.356764 283.838948 285.581264 282.500085 287.805763 281.708939 290.030263 280.674363 292.254762 280.065789 294.479262 281.039508 296.703762 281.769796 298.928261 282.378371 301.152761 283.473804 303.377261 283.595519 305.601760 282.682658 307.826260 280.674363 310.050760 280.309219 312.275259 279.335500 314.499759 278.726926 316.724259 277.692350 318.948758 276.292630 321.173258 274.771195 323.397757 275.440626 325.622257 273.980048 327.846757 275.136339 330.071256 275.927485 332.295756 280.552648 334.520256 279.761502 336.744755 278.909498 338.969255 278.605211 341.193755 280.065789 343.418254 280.004932 345.642754 280.978650 347.867253 281.769796 350.091753 281.830654 352.316253 282.074083 354.540752 284.325808 356.765252 283.717233 358.989752 282.682658 361.214251 282.134941 363.438751 281.222080 365.663251 282.682658 367.887750 282.439228 370.112250 282.621800 372.336749 281.891511 374.561249 282.134941 376.785749 284.082378 379.010248 284.690952 381.234748 285.116954 383.459248 284.325808 385.683747 283.595519 387.908247 283.838948 390.132747 283.473804 392.357246 283.291232 394.581746 289.011828 396.806245 287.855537 399.030745 287.125248 401.255245 286.516674 403.479744 286.394959 405.704244 285.238669 407.928744 284.508380 410.153243 285.847243 412.377743 284.995239 414.602243 284.934382 416.826742 285.360383 419.051242 285.786385 421.275741 286.577532 423.500241 285.786385 425.724741 284.873524 427.949240 284.082378 430.173740 284.569237 432.398240 283.656376 434.622739 282.926087 436.847239 284.325808 439.071739 284.934382 441.296238 284.934382 443.520738 285.360383 445.745238 285.238669 447.969737 285.238669 450.194237 285.360383 452.418736 285.482098 454.643236 284.264950 456.867736 284.690952 459.092235 284.325808 461.316735 284.082378 463.541235 283.595519 465.765734 284.751809 467.990234 283.595519 470.214734 283.534661 472.439233 282.256656 474.663733 281.343795 476.888232 281.404652 479.112732 280.978650 481.337232 280.491791 483.561731 283.838948 485.786231 285.421241 488.010731 286.394959 490.235230 288.342396 492.459730 287.612108 494.684230 286.273245 496.908729 286.760104 499.133229 286.942676 501.357728 287.977252 503.582228 287.490393 505.806728 287.003533 508.031227 286.455817 510.255727 286.212387 512.480227 287.064391 514.704726 286.942676 516.929226 287.003533 519.153726 288.403254 521.378225 288.038109 523.602725 288.707541 525.827224 289.681259 528.051724 289.316115 530.276224 289.255258 532.500723 290.654978 534.725223 292.602415 536.949723 292.663272 539.174222 292.358985 541.398722 293.332704 543.623222 293.393561 545.847721 294.793282 548.072221 294.428137 550.296721 294.488995 552.521220 294.184708 554.745720 294.184708 556.970219 294.245565 559.194719 294.854139 561.419219 294.671567 563.643718 294.367280 565.868218 294.245565 568.092718 293.636991 570.317217 293.880421 572.541717 293.515276 574.766217 293.697848 576.990716 292.967559 579.215216 292.541558 581.439715 292.237271 583.664215 292.237271 585.888715 291.689554 588.113214 290.959265 590.337714 290.046404 592.562214 289.802974 594.786713 289.498687 597.011213 291.263552 599.235713 292.298128 601.460212 290.959265 603.684712 291.567839 605.909211 291.446124 608.133711 290.472406 610.358211 289.742117 612.582710 290.046404 614.807210 289.316115 617.031710 289.985546 619.256209 288.950971 621.480709 289.802974 623.705209 289.072685 625.929708 288.403254 628.154208 287.672965 630.378707 287.977252 632.603207 287.186106 634.827707 286.516674 637.052206 286.394959 639.276706 286.577532 641.501206 287.429535 643.725705 287.307821 645.950205 287.064391 648.174705 287.733822 650.399204 288.220682 652.623704 287.916395 654.848204 289.072685 657.072703 289.376972 659.297203 289.620402 661.521702 289.863832 663.746202 289.802974 665.970702 290.350691 668.195201 290.046404 670.419701 290.837550 672.644201 290.959265 674.868700 290.959265 677.093200 290.107261 679.317700 289.620402 681.542199 289.620402 683.766699 289.742117 685.991198 289.072685 688.215698 289.376972 690.440198 288.220682 692.664697 288.585826 694.889197 287.977252 697.113697 287.855537 699.338196 287.855537 701.562696 287.733822 703.787196 287.246963 706.011695 286.820961 708.236195 286.455817 710.460694 286.334102 712.685194 286.516674 714.909694 286.273245 717.134193 286.394959 719.358693 286.394959 721.583193 286.273245 723.807692 285.786385"/></g><g class="series serie-2 color-2"><path class="line reactive nofill" d="M14.192308 285.542956 L16.416807 285.542956 18.641307 285.542956 20.865807 285.542956 23.090306 285.542956 25.314806 285.542956 27.539306 285.542956 29.763805 285.542956 31.988305 285.542956 34.212804 285.542956 36.437304 285.542956 38.661804 285.542956 40.886303 285.542956 43.110803 285.542956 45.335303 285.542956 47.559802 285.542956 49.784302 285.542956 52.008802 285.542956 54.233301 285.542956 56.457801 285.542956 58.682300 285.542956 60.906800 285.542956 63.131300 285.542956 65.355799 285.542956 67.580299 285.542956 69.804799 285.542956 72.029298 285.542956 74.253798 285.542956 76.478298 285.542956 78.702797 285.542956 80.927297 285.542956 83.151796 285.542956 85.376296 285.542956 87.600796 285.542956 89.825295 285.542956 92.049795 285.542956 94.274295 285.542956 96.498794 285.542956 98.723294 285.542956 100.947794 285.542956 103.172293 285.542956 105.396793 285.542956 107.621293 285.542956 109.845792 285.542956 112.070292 285.542956 114.294791 285.542956 116.519291 285.542956 118.743791 285.542956 120.968290 285.542956 123.192790 285.542956 125.417290 285.542956 127.641789 285.542956 129.866289 285.542956 132.090789 285.542956 134.315288 285.542956 136.539788 285.542956 138.764287 285.542956 140.988787 285.542956 143.213287 285.542956 145.437786 285.542956 147.662286 285.542956 149.886786 285.542956 152.111285 285.542956 154.335785 285.542956 156.560285 285.542956 158.784784 285.542956 161.009284 285.542956 163.233783 285.542956 165.458283 285.542956 167.682783 285.542956 169.907282 285.542956 172.131782 285.542956 174.356282 285.542956 176.580781 285.542956 178.805281 285.542956 181.029781 285.542956 183.254280 285.542956 185.478780 285.542956 187.703279 285.542956 189.927779 285.542956 192.152279 285.542956 194.376778 285.542956 196.601278 285.542956 198.825778 285.542956 201.050277 285.542956 203.274777 285.542956 205.499277 285.542956 207.723776 285.542956 209.948276 285.542956 212.172776 285.542956 214.397275 285.542956 216.621775 285.542956 218.846274 285.542956 221.070774 285.542956 223.295274 285.542956 225.519773 285.542956 227.744273 285.542956 229.968773 285.542956 232.193272 285.542956 234.417772 285.542956 236.642272 285.542956 238.866771 285.542956 241.091271 285.542956 243.315770 285.542956 245.540270 285.542956 247.764770 285.542956 249.989269 285.542956 252.213769 285.542956 254.438269 285.542956 256.662768 285.542956 258.887268 285.542956 261.111768 285.542956 263.336267 285.542956 265.560767 285.542956 267.785266 285.542956 270.009766 285.542956 272.234266 285.542956 274.458765 285.542956 276.683265 285.542956 278.907765 285.542956 281.132264 285.542956 283.356764 285.542956 285.581264 285.542956 287.805763 285.542956 290.030263 285.542956 292.254762 285.542956 294.479262 285.542956 296.703762 285.542956 298.928261 285.542956 301.152761 285.542956 303.377261 285.542956 305.601760 285.542956 307.826260 285.542956 310.050760 285.542956 312.275259 285.542956 314.499759 285.542956 316.724259 285.542956 318.948758 285.542956 321.173258 285.542956 323.397757 285.542956 325.622257 285.542956 327.846757 285.542956 330.071256 285.542956 332.295756 285.542956 334.520256 285.542956 336.744755 285.542956 338.969255 285.542956 341.193755 285.542956 343.418254 285.542956 345.642754 285.542956 347.867253 285.542956 350.091753 285.542956 352.316253 285.542956 354.540752 285.542956 356.765252 285.542956 358.989752 285.542956 361.214251 285.542956 363.438751 285.542956 365.663251 285.542956 367.887750 285.542956 370.112250 285.542956 372.336749 285.542956 374.561249 285.542956 376.785749 285.542956 379.010248 285.542956 381.234748 285.542956 383.459248 285.542956 385.683747 285.542956 387.908247 285.542956 390.132747 285.542956 392.357246 285.542956 394.581746 285.542956 396.806245 285.542956 399.030745 285.542956 401.255245 285.542956 403.479744 285.542956 405.704244 285.542956 407.928744 285.542956 410.153243 285.542956 412.377743 285.542956 414.602243 285.542956 416.826742 285.542956 419.051242 285.542956 421.275741 285.542956 423.500241 285.542956 425.724741 285.542956 427.949240 285.542956 430.173740 285.542956 432.398240 285.542956 434.622739 285.542956 436.847239 285.542956 439.071739 285.542956 441.296238 285.542956 443.520738 285.542956 445.745238 285.542956 447.969737 285.542956 450.194237 285.542956 452.418736 285.542956 454.643236 285.542956 456.867736 285.542956 459.092235 285.542956 461.316735 285.542956 463.541235 285.542956 465.765734 285.542956 467.990234 285.542956 470.214734 285.542956 472.439233 285.542956 474.663733 285.542956 476.888232 285.542956 479.112732 285.542956 481.337232 285.542956 483.561731 285.542956 485.786231 285.542956 488.010731 285.542956 490.235230 285.542956 492.459730 285.542956 494.684230 285.542956 496.908729 285.542956 499.133229 285.542956 501.357728 285.542956 503.582228 285.542956 505.806728 285.542956 508.031227 285.542956 510.255727 285.542956 512.480227 285.542956 514.704726 285.542956 516.929226 285.542956 519.153726 285.542956 521.378225 285.542956 523.602725 285.542956 525.827224 285.542956 528.051724 285.542956 530.276224 285.542956 532.500723 285.542956 534.725223 285.542956 536.949723 285.542956 539.174222 285.542956 541.398722 285.542956 543.623222 285.542956 545.847721 285.542956 548.072221 285.542956 550.296721 285.542956 552.521220 285.542956 554.745720 285.542956 556.970219 285.542956 559.194719 285.542956 561.419219 285.542956 563.643718 285.542956 565.868218 285.542956 568.092718 285.542956 570.317217 285.542956 572.541717 285.542956 574.766217 285.542956 576.990716 285.542956 579.215216 285.542956 581.439715 285.542956 583.664215 285.542956 585.888715 285.542956 588.113214 285.542956 590.337714 285.542956 592.562214 285.542956 594.786713 285.542956 597.011213 285.542956 599.235713 285.542956 601.460212 285.542956 603.684712 285.542956 605.909211 285.542956 608.133711 285.542956 610.358211 285.542956 612.582710 285.542956 614.807210 285.542956 617.031710 285.542956 619.256209 285.542956 621.480709 285.542956 623.705209 285.542956 625.929708 285.542956 628.154208 285.542956 630.378707 285.542956 632.603207 285.542956 634.827707 285.542956 637.052206 285.542956 639.276706 285.542956 641.501206 285.542956 643.725705 285.542956 645.950205 285.542956 648.174705 285.542956 650.399204 285.542956 652.623704 285.542956 654.848204 285.542956 657.072703 285.542956 659.297203 285.542956 661.521702 285.542956 663.746202 285.542956 665.970702 285.542956 668.195201 285.542956 670.419701 285.542956 672.644201 285.542956 674.868700 285.542956 677.093200 285.542956 679.317700 285.542956 681.542199 285.542956 683.766699 285.542956 685.991198 285.542956 688.215698 285.542956 690.440198 285.542956 692.664697 285.542956 694.889197 285.542956 697.113697 285.542956 699.338196 285.542956 701.562696 285.542956 703.787196 285.542956 706.011695 285.542956 708.236195 285.542956 710.460694 285.542956 712.685194 285.542956 714.909694 285.542956 717.134193 285.542956 719.358693 285.542956 721.583193 285.542956 723.807692 285.542956"/></g></g><g class="titles"><text class="title plot_title" x="400.0" y="26">WPUJC Vaas: Future and Past Averages in ODIs</text></g><g class="plot overlay" transform="translate(42, 46)"><g class="series serie-0 color-0"><g class="dots"><desc class="label">400 wickets in 320 innings (2629.1 overs)</desc><circle class="dot reactive tooltip-trigger" cx="14.192307692307692" cy="285.5429556881118" r="2.5"/><desc class="value">27.54</desc><desc class="x top">14.192307692307692</desc><desc class="y top">285.5429556881118</desc><desc class="x_label">1994</desc></g><g class="dots"><desc class="label">374 wickets in 297 innings (2453.1 overs)</desc><circle class="dot reactive tooltip-trigger" cx="65.35579937304075" cy="284.93438161375525" r="2.5"/><desc class="value">27.64</desc><desc class="x top">65.35579937304075</desc><desc class="y top">284.93438161375525</desc><desc class="x_label">1995</desc></g><g class="dots"><desc class="label">363 wickets in 287 innings (2372.1 overs)</desc><circle class="dot reactive tooltip-trigger" cx="87.60079575596816" cy="285.7863853178544" r="2.5"/><desc class="value">27.5</desc><desc class="x top">87.60079575596816</desc><desc class="y top">285.7863853178544</desc><desc class="x_label">1996</desc></g><g class="dots"><desc class="label">326 wickets in 258 innings (2134.3 overs)</desc><circle class="dot reactive tooltip-trigger" cx="152.11128526645766" cy="283.35208902042814" r="2.5"/><desc class="value">27.9</desc><desc class="x top">152.11128526645766</desc><desc class="y top">283.35208902042814</desc><desc class="x_label">1997</desc></g><g class="dots"><desc class="label">295 wickets in 238 innings (1971.5 overs)</desc><circle class="dot reactive tooltip-trigger" cx="196.60127803231254" cy="280.24836124120947" r="2.5"/><desc class="value">28.41</desc><desc class="x top">196.60127803231254</desc><desc class="y top">280.24836124120947</desc><desc class="x_label">1998</desc></g><g class="dots"><desc class="label">282 wickets in 226 innings (1877.0 overs)</desc><circle class="dot reactive tooltip-trigger" cx="223.2952736918254" cy="281.1003649453087" r="2.5"/><desc class="value">28.27</desc><desc class="x top">223.2952736918254</desc><desc class="y top">281.1003649453087</desc><desc class="x_label">1999</desc></g><g class="dots"><desc class="label">247 wickets in 195 innings (1610.3 overs)</desc><circle class="dot reactive tooltip-trigger" cx="292.25476247890043" cy="288.95097050450875" r="2.5"/><desc class="value">26.98</desc><desc class="x top">292.25476247890043</desc><desc class="y top">288.95097050450875</desc><desc class="x_label">2000</desc></g><g class="dots"><desc class="label">224 wickets in 175 innings (1444.4 overs)</desc><circle class="dot reactive tooltip-trigger" cx="336.7447552447552" cy="290.8375501350141" r="2.5"/><desc class="value">26.67</desc><desc class="x top">336.7447552447552</desc><desc class="y top">290.8375501350141</desc><desc class="x_label">2001</desc></g><g class="dots"><desc class="label">182 wickets in 146 innings (1212.2 overs)</desc><circle class="dot reactive tooltip-trigger" cx="401.25524475524475" cy="284.44752235426995" r="2.5"/><desc class="value">27.72</desc><desc class="x left top">401.25524475524475</desc><desc class="y left top">284.44752235426995</desc><desc class="x_label">2002</desc></g><g class="dots"><desc class="label">149 wickets in 116 innings (968.4 overs)</desc><circle class="dot reactive tooltip-trigger" cx="467.99023390402704" cy="288.890113097073" r="2.5"/><desc class="value">26.99</desc><desc class="x left top">467.99023390402704</desc><desc class="y left top">288.890113097073</desc><desc class="x_label">2003</desc></g><g class="dots"><desc class="label">115 wickets in 93 innings (773.3 overs)</desc><circle class="dot reactive tooltip-trigger" cx="519.1537255847601" cy="278.48349642557537" r="2.5"/><desc class="value">28.7</desc><desc class="x left top">519.1537255847601</desc><desc class="y left top">278.48349642557537</desc><desc class="x_label">2004</desc></g><g class="dots"><desc class="label">78 wickets in 72 innings (592.4 overs)</desc><circle class="dot reactive tooltip-trigger" cx="565.8682179889076" cy="249.75880011594433" r="2.5"/><desc class="value">33.42</desc><desc class="x left top">565.8682179889076</desc><desc class="y left top">249.75880011594433</desc><desc class="x_label">2005</desc></g><g class="dots"><desc class="label">69 wickets in 60 innings (502.1 overs)</desc><circle class="dot reactive tooltip-trigger" cx="592.5622136484205" cy="265.21658160460174" r="2.5"/><desc class="value">30.88</desc><desc class="x left top">592.5622136484205</desc><desc class="y left top">265.21658160460174</desc><desc class="x_label">2006</desc></g><g class="dots"><desc class="label">33 wickets in 33 innings (264.4 overs)</desc><circle class="dot reactive tooltip-trigger" cx="652.6237038823247" cy="259.4959853056498" r="2.5"/><desc class="value">31.82</desc><desc class="x left top">652.6237038823247</desc><desc class="y left top">259.4959853056498</desc><desc class="x_label">2007</desc></g><g class="dots"><desc class="label">13 wickets in 17 innings (141.0 overs)</desc><circle class="dot reactive tooltip-trigger" cx="688.2156980950084" cy="172.28732045035048" r="2.5"/><desc class="value">46.15</desc><desc class="x left">688.2156980950084</desc><desc class="y left">172.28732045035048</desc><desc class="x_label">2008</desc></g></g><g class="series serie-1 color-1"><g class="dots"><desc class="label">0 wickets over 0 innings</desc><circle class="dot reactive tooltip-trigger" cx="14.192307692307692" cy="453.1442557659166" r="2.5"/><desc class="value">0</desc><desc class="x top">14.192307692307692</desc><desc class="y top">453.1442557659166</desc><desc class="x_label">1994</desc></g><g class="dots"><desc class="label">26 wickets in 23 innings (176.0 overs)</desc><circle class="dot reactive tooltip-trigger" cx="65.35579937304075" cy="294.428137173718" r="2.5"/><desc class="value">26.08</desc><desc class="x top">65.35579937304075</desc><desc class="y top">294.428137173718</desc><desc class="x_label">1995</desc></g><g class="dots"><desc class="label">37 wickets in 33 innings (257.0 overs)</desc><circle class="dot reactive tooltip-trigger" cx="87.60079575596816" cy="283.59551865017073" r="2.5"/><desc class="value">27.86</desc><desc class="x top">87.60079575596816</desc><desc class="y top">283.59551865017073</desc><desc class="x_label">1996</desc></g><g class="dots"><desc class="label">74 wickets in 62 innings (494.4 overs)</desc><circle class="dot reactive tooltip-trigger" cx="152.11128526645766" cy="295.4018556926885" r="2.5"/><desc class="value">25.92</desc><desc class="x top">152.11128526645766</desc><desc class="y top">295.4018556926885</desc><desc class="x_label">1997</desc></g><g class="dots"><desc class="label">105 wickets in 82 innings (657.2 overs)</desc><circle class="dot reactive tooltip-trigger" cx="196.60127803231254" cy="300.5747353247196" r="2.5"/><desc class="value">25.07</desc><desc class="x top">196.60127803231254</desc><desc class="y top">300.5747353247196</desc><desc class="x_label">1998</desc></g><g class="dots"><desc class="label">118 wickets in 94 innings (752.1 overs)</desc><circle class="dot reactive tooltip-trigger" cx="223.2952736918254" cy="296.2538593967878" r="2.5"/><desc class="value">25.78</desc><desc class="x top">223.2952736918254</desc><desc class="y top">296.2538593967878</desc><desc class="x_label">1999</desc></g><g class="dots"><desc class="label">153 wickets in 125 innings (1018.4 overs)</desc><circle class="dot reactive tooltip-trigger" cx="292.25476247890043" cy="280.0657890189025" r="2.5"/><desc class="value">28.44</desc><desc class="x top">292.25476247890043</desc><desc class="y top">280.0657890189025</desc><desc class="x_label">2000</desc></g><g class="dots"><desc class="label">176 wickets in 145 innings (1184.3 overs)</desc><circle class="dot reactive tooltip-trigger" cx="336.7447552447552" cy="278.909498277625" r="2.5"/><desc class="value">28.63</desc><desc class="x top">336.7447552447552</desc><desc class="y top">278.909498277625</desc><desc class="x_label">2001</desc></g><g class="dots"><desc class="label">218 wickets in 174 innings (1416.5 overs)</desc><circle class="dot reactive tooltip-trigger" cx="401.25524475524475" cy="286.51667420708236" r="2.5"/><desc class="value">27.38</desc><desc class="x left top">401.25524475524475</desc><desc class="y left top">286.51667420708236</desc><desc class="x_label">2002</desc></g><g class="dots"><desc class="label">251 wickets in 204 innings (1660.3 overs)</desc><circle class="dot reactive tooltip-trigger" cx="467.99023390402704" cy="283.59551865017073" r="2.5"/><desc class="value">27.86</desc><desc class="x left top">467.99023390402704</desc><desc class="y left top">283.59551865017073</desc><desc class="x_label">2003</desc></g><g class="dots"><desc class="label">285 wickets in 227 innings (1855.4 overs)</desc><circle class="dot reactive tooltip-trigger" cx="519.1537255847601" cy="288.4032538375878" r="2.5"/><desc class="value">27.07</desc><desc class="x left top">519.1537255847601</desc><desc class="y left top">288.4032538375878</desc><desc class="x_label">2004</desc></g><g class="dots"><desc class="label">322 wickets in 248 innings (2036.3 overs)</desc><circle class="dot reactive tooltip-trigger" cx="565.8682179889076" cy="294.24556495141104" r="2.5"/><desc class="value">26.11</desc><desc class="x left top">565.8682179889076</desc><desc class="y left top">294.24556495141104</desc><desc class="x_label">2005</desc></g><g class="dots"><desc class="label">331 wickets in 260 innings (2127.0 overs)</desc><circle class="dot reactive tooltip-trigger" cx="592.5622136484205" cy="289.8029742086079" r="2.5"/><desc class="value">26.84</desc><desc class="x left top">592.5622136484205</desc><desc class="y left top">289.8029742086079</desc><desc class="x_label">2006</desc></g><g class="dots"><desc class="label">367 wickets in 287 innings (2364.3 overs)</desc><circle class="dot reactive tooltip-trigger" cx="652.6237038823247" cy="287.91639457810254" r="2.5"/><desc class="value">27.15</desc><desc class="x left top">652.6237038823247</desc><desc class="y left top">287.91639457810254</desc><desc class="x_label">2007</desc></g><g class="dots"><desc class="label">387 wickets in 303 innings (2488.1 overs)</desc><circle class="dot reactive tooltip-trigger" cx="688.2156980950084" cy="289.3769723565583" r="2.5"/><desc class="value">26.91</desc><desc class="x left top">688.2156980950084</desc><desc class="y left top">289.3769723565583</desc><desc class="x_label">2008</desc></g></g><g class="series serie-2 color-2"/></g><g class="plot text-overlay" transform="translate(42, 46)"><g class="series serie-0 color-0"/><g class="series serie-1 color-1"/><g class="series serie-2 color-2"/></g><g class="plot tooltip-overlay" transform="translate(42, 46)"><g class="tooltip" style="opacity: 0" transform="translate(0 0)"><rect class="tooltip-box" height="0" rx="10" ry="10" width="0"/><g class="text"/></g></g><g class="legends" transform="translate(52, 545)"><g class="legend reactive activate-serie" id="activate-serie-0"><rect class="color-0 reactive" height="12" width="12" x="0.0" y="1.0"/><text x="17.0" y="11.2">Future Average</text></g><g class="legend reactive activate-serie" id="activate-serie-1"><rect class="color-1 reactive" height="12" width="12" x="369.0" y="1.0"/><text x="386.0" y="11.2">Past Average</text></g><g class="legend reactive activate-serie" id="activate-serie-2"><rect class="color-2 reactive" height="12" width="12" x="0.0" y="22.0"/><text x="17.0" y="32.2">Career Average</text></g></g></g></svg>