<?xml version='1.0' encoding='utf-8'?>
<svg xmlns:xlink="http://www.w3.org/1999/xlink" xmlns="http://www.w3.org/2000/svg" id="chart-a141750e-ed55-4d3d-9cd0-63e11d4cd987" class="pygal-chart" viewBox="0 0 800 600"><!--Generated with pygal 2.4.0 (lxml) ©Kozea 2012-2016 on 2019-08-04--><!--http://pygal.org--><!--http://github.com/Kozea/pygal--><defs><style type="text/css">#chart-a141750e-ed55-4d3d-9cd0-63e11d4cd987{-webkit-user-select:none;-webkit-font-smoothing:antialiased;font-family:Consolas,"Liberation Mono",Menlo,Courier,monospace}#chart-a141750e-ed55-4d3d-9cd0-63e11d4cd987 .title{font-family:Consolas,"Liberation Mono",Menlo,Courier,monospace;font-size:16px}#chart-a141750e-ed55-4d3d-9cd0-63e11d4cd987 .legends .legend text{font-family:Consolas,"Liberation Mono",Menlo,Courier,monospace;font-size:14px}#chart-a141750e-ed55-4d3d-9cd0-63e11d4cd987 .axis text{font-family:Consolas,"Liberation Mono",Menlo,Courier,monospace;font-size:10px}#chart-a141750e-ed55-4d3d-9cd0-63e11d4cd987 .axis text.major{font-family:Consolas,"Liberation Mono",Menlo,Courier,monospace;font-size:10px}#chart-a141750e-ed55-4d3d-9cd0-63e11d4cd987 .text-overlay text.value{font-family:Consolas,"Liberation Mono",Menlo,Courier,monospace;font-size:16px}#chart-a141750e-ed55-4d3d-9cd0-63e11d4cd987 .text-overlay text.label{font-family:Consolas,"Liberation Mono",Menlo,Courier,monospace;font-size:10px}#chart-a141750e-ed55-4d3d-9cd0-63e11d4cd987 .tooltip{font-family:Consolas,"Liberation Mono",Menlo,Courier,monospace;font-size:14px}#chart-a141750e-ed55-4d3d-9cd0-63e11d4cd987 text.no_data{font-family:Consolas,"Liberation Mono",Menlo,Courier,monospace;font-size:64px}
#chart-a141750e-ed55-4d3d-9cd0-63e11d4cd987{background-color:rgba(249,249,249,1)}#chart-a141750e-ed55-4d3d-9cd0-63e11d4cd987 path,#chart-a141750e-ed55-4d3d-9cd0-63e11d4cd987 line,#chart-a141750e-ed55-4d3d-9cd0-63e11d4cd987 rect,#chart-a141750e-ed55-4d3d-9cd0-63e11d4cd987 circle{-webkit-transition:150ms;-moz-transition:150ms;transition:150ms}#chart-a141750e-ed55-4d3d-9cd0-63e11d4cd987 .graph &gt; .background{fill:rgba(249,249,249,1)}#chart-a141750e-ed55-4d3d-9cd0-63e11d4cd987 .plot &gt; .background{fill:rgba(255,255,255,1)}#chart-a141750e-ed55-4d3d-9cd0-63e11d4cd987 .graph{fill:rgba(0,0,0,.87)}#chart-a141750e-ed55-4d3d-9cd0-63e11d4cd987 text.no_data{fill:rgba(0,0,0,1)}#chart-a141750e-ed55-4d3d-9cd0-63e11d4cd987 .title{fill:rgba(0,0,0,1)}#chart-a141750e-ed55-4d3d-9cd0-63e11d4cd987 .legends .legend text{fill:rgba(0,0,0,.87)}#chart-a141750e-ed55-4d3d-9cd0-63e11d4cd987 .legends .legend:hover text{fill:rgba(0,0,0,1)}#chart-a141750e-ed55-4d3d-9cd0-63e11d4cd987 .axis .line{stroke:rgba(0,0,0,1)}#chart-a141750e-ed55-4d3d-9cd0-63e11d4cd987 .axis .guide.line{stroke:rgba(0,0,0,.54)}#chart-a141750e-ed55-4d3d-9cd0-63e11d4cd987 .axis .major.line{stroke:rgba(0,0,0,.87)}#chart-a141750e-ed55-4d3d-9cd0-63e11d4cd987 .axis text.major{fill:rgba(0,0,0,1)}#chart-a141750e-ed55-4d3d-9cd0-63e11d4cd987 .axis.y .guides:hover .guide.line,#chart-a141750e-ed55-4d3d-9cd0-63e11d4cd987 .line-graph .axis.x .guides:hover .guide.line,#chart-a141750e-ed55-4d3d-9cd0-63e11d4cd987 .stackedline-graph .axis.x .guides:hover .guide.line,#chart-a141750e-ed55-4d3d-9cd0-63e11d4cd987 .xy-graph .axis.x .guides:hover .guide.line{stroke:rgba(0,0,0,1)}#chart-a141750e-ed55-4d3d-9cd0-63e11d4cd987 .axis .guides:hover text{fill:rgba(0,0,0,1)}#chart-a141750e-ed55-4d3d-9cd0-63e11d4cd987 .reactive{fill-opacity:.7;stroke-opacity:.8}#chart-a141750e-ed55-4d3d-9cd0-63e11d4cd987 .ci{stroke:rgba(0,0,0,.87)}#chart-a141750e-ed55-4d3d-9cd0-63e11d4cd987 .reactive.active,#chart-a141750e-ed55-4d3d-9cd0-63e11d4cd987 .active .reactive{fill-opacity:.8;stroke-opacity:.9;stroke-width:4}#chart-a141750e-ed55-4d3d-9cd0-63e11d4cd987 .ci .reactive.active{stroke-width:1.5}#chart-a141750e-ed55-4d3d-9cd0-63e11d4cd987 .series text{fill:rgba(0,0,0,1)}#chart-a141750e-ed55-4d3d-9cd0-63e11d4cd987 .tooltip rect{fill:rgba(255,255,255,1);stroke:rgba(0,0,0,1);-webkit-transition:opacity 150ms;-moz-transition:opacity 150ms;transition:opacity 150ms}#chart-a141750e-ed55-4d3d-9cd0-63e11d4cd987 .tooltip .label{fill:rgba(0,0,0,.87)}#chart-a141750e-ed55-4d3d-9cd0-63e11d4cd987 .tooltip .label{fill:rgba(0,0,0,.87)}#chart-a141750e-ed55-4d3d-9cd0-63e11d4cd987 .tooltip .legend{font-size:.8em;fill:rgba(0,0,0,.54)}#chart-a141750e-ed55-4d3d-9cd0-63e11d4cd987 .tooltip .x_label{font-size:.6em;fill:rgba(0,0,0,1)}#chart-a141750e-ed55-4d3d-9cd0-63e11d4cd987 .tooltip .xlink{font-size:.5em;text-decoration:underline}#chart-a141750e-ed55-4d3d-9cd0-63e11d4cd987 .tooltip .value{font-size:1.5em}#chart-a141750e-ed55-4d3d-9cd0-63e11d4cd987 .bound{font-size:.5em}#chart-a141750e-ed55-4d3d-9cd0-63e11d4cd987 .max-value{font-size:.75em;fill:rgba(0,0,0,.54)}#chart-a141750e-ed55-4d3d-9cd0-63e11d4cd987 .map-element{fill:rgba(255,255,255,1);stroke:rgba(0,0,0,.54) !important}#chart-a141750e-ed55-4d3d-9cd0-63e11d4cd987 .map-element .reactive{fill-opacity:inherit;stroke-opacity:inherit}#chart-a141750e-ed55-4d3d-9cd0-63e11d4cd987 .color-0,#chart-a141750e-ed55-4d3d-9cd0-63e11d4cd987 .color-0 a:visited{stroke:red;fill:red}#chart-a141750e-ed55-4d3d-9cd0-63e11d4cd987 .color-1,#chart-a141750e-ed55-4d3d-9cd0-63e11d4cd987 .color-1 a:visited{stroke:blue;fill:blue}#chart-a141750e-ed55-4d3d-9cd0-63e11d4cd987 .color-2,#chart-a141750e-ed55-4d3d-9cd0-63e11d4cd987 .color-2 a:visited{stroke:green;fill:green}#chart-a141750e-ed55-4d3d-9cd0-63e11d4cd987 .text-overlay .color-0 text{fill:white}#chart-a141750e-ed55-4d3d-9cd0-63e11d4cd987 .text-overlay .color-1 text{fill:white}#chart-a141750e-ed55-4d3d-9cd0-63e11d4cd987 .text-overlay .color-2 text{fill:white}
#chart-a141750e-ed55-4d3d-9cd0-63e11d4cd987 text.no_data{text-anchor:middle}#chart-a141750e-ed55-4d3d-9cd0-63e11d4cd987 .guide.line{fill:none}#chart-a141750e-ed55-4d3d-9cd0-63e11d4cd987 .centered{text-anchor:middle}#chart-a141750e-ed55-4d3d-9cd0-63e11d4cd987 .title{text-anchor:middle}#chart-a141750e-ed55-4d3d-9cd0-63e11d4cd987 .legends .legend text{fill-opacity:1}#chart-a141750e-ed55-4d3d-9cd0-63e11d4cd987 .axis.x text{text-anchor:middle}#chart-a141750e-ed55-4d3d-9cd0-63e11d4cd987 .axis.x:not(.web) text[transform]{text-anchor:start}#chart-a141750e-ed55-4d3d-9cd0-63e11d4cd987 .axis.x:not(.web) text[transform].backwards{text-anchor:end}#chart-a141750e-ed55-4d3d-9cd0-63e11d4cd987 .axis.y text{text-anchor:end}#chart-a141750e-ed55-4d3d-9cd0-63e11d4cd987 .axis.y text[transform].backwards{text-anchor:start}#chart-a141750e-ed55-4d3d-9cd0-63e11d4cd987 .axis.y2 text{text-anchor:start}#chart-a141750e-ed55-4d3d-9cd0-63e11d4cd987 .axis.y2 text[transform].backwards{text-anchor:end}#chart-a141750e-ed55-4d3d-9cd0-63e11d4cd987 .axis .guide.line{stroke-dasharray:4,4}#chart-a141750e-ed55-4d3d-9cd0-63e11d4cd987 .axis .major.guide.line{stroke-dasharray:6,6}#chart-a141750e-ed55-4d3d-9cd0-63e11d4cd987 .horizontal .axis.y .guide.line,#chart-a141750e-ed55-4d3d-9cd0-63e11d4cd987 .horizontal .axis.y2 .guide.line,#chart-a141750e-ed55-4d3d-9cd0-63e11d4cd987 .vertical .axis.x .guide.line{opacity:0}#chart-a141750e-ed55-4d3d-9cd0-63e11d4cd987 .horizontal .axis.always_show .guide.line,#chart-a141750e-ed55-4d3d-9cd0-63e11d4cd987 .vertical .axis.always_show .guide.line{opacity:1 !important}#chart-a141750e-ed55-4d3d-9cd0-63e11d4cd987 .axis.y .guides:hover .guide.line,#chart-a141750e-ed55-4d3d-9cd0-63e11d4cd987 .axis.y2 .guides:hover .guide.line,#chart-a141750e-ed55-4d3d-9cd0-63e11d4cd987 .axis.x .guides:hover .guide.line{opacity:1}#chart-a141750e-ed55-4d3d-9cd0-63e11d4cd987 .axis .guides:hover text{opacity:1}#chart-a141750e-ed55-4d3d-9cd0-63e11d4cd987 .nofill{fill:none}#chart-a141750e-ed55-4d3d-9cd0-63e11d4cd987 .subtle-fill{fill-opacity:.2}#chart-a141750e-ed55-4d3d-9cd0-63e11d4cd987 .dot{stroke-width:1px;fill-opacity:1}#chart-a141750e-ed55-4d3d-9cd0-63e11d4cd987 .dot.active{stroke-width:5px}#chart-a141750e-ed55-4d3d-9cd0-63e11d4cd987 .dot.negative{fill:transparent}#chart-a141750e-ed55-4d3d-9cd0-63e11d4cd987 text,#chart-a141750e-ed55-4d3d-9cd0-63e11d4cd987 tspan{stroke:none !important}#chart-a141750e-ed55-4d3d-9cd0-63e11d4cd987 .series text.active{opacity:1}#chart-a141750e-ed55-4d3d-9cd0-63e11d4cd987 .tooltip rect{fill-opacity:.95;stroke-width:.5}#chart-a141750e-ed55-4d3d-9cd0-63e11d4cd987 .tooltip text{fill-opacity:1}#chart-a141750e-ed55-4d3d-9cd0-63e11d4cd987 .showable{visibility:hidden}#chart-a141750e-ed55-4d3d-9cd0-63e11d4cd987 .showable.shown{visibility:visible}#chart-a141750e-ed55-4d3d-9cd0-63e11d4cd987 .gauge-background{fill:rgba(229,229,229,1);stroke:none}#chart-a141750e-ed55-4d3d-9cd0-63e11d4cd987 .bg-lines{stroke:rgba(249,249,249,1);stroke-width:2px}</style><script type="text/javascript">window.pygal = window.pygal || {};window.pygal.config = window.pygal.config || {};window.pygal.config['a141750e-ed55-4d3d-9cd0-63e11d4cd987'] = {"allow_interruptions": false, "box_mode": "extremes", "classes": ["pygal-chart"], "css": ["file://style.css", "file://graph.css"], "defs": [], "disable_xml_declaration": false, "dots_size": 2.5, "dynamic_print_values": false, "explicit_size": false, "fill": false, "force_uri_protocol": "https", "formatter": null, "half_pie": false, "height": 600, "include_x_axis": false, "inner_radius": 0, "interpolate": null, "interpolation_parameters": {}, "interpolation_precision": 250, "inverse_y_axis": false, "js": ["//kozea.github.io/pygal.js/2.0.x/pygal-tooltips.min.js"], "legend_at_bottom": true, "legend_at_bottom_columns": null, "legend_box_size": 12, "logarithmic": false, "margin": 20, "margin_bottom": null, "margin_left": null, "margin_right": null, "margin_top": null, "max_scale": 16, "min_scale": 4, "missing_value_fill_truncation": "x", "no_data_text": "No data", "no_prefix": false, "order_min": null, "pretty_print": false, "print_labels": false, "print_values": false, "print_values_position": "center", "print_zeroes": true, "range": null, "rounded_bars": null, "secondary_range": null, "show_dots": true, "show_legend": true, "show_minor_x_labels": false, "show_minor_y_labels": true, "show_only_major_dots": false, "show_x_guides": false, "show_x_labels": true, "show_y_guides": true, "show_y_labels": true, "spacing": 10, "stack_from_top": false, "strict": false, "stroke": true, "stroke_style": null, "style": {"background": "rgba(249, 249, 249, 1)", "ci_colors": [], "colors": ["red", "blue", "green", "#a3a3a3"], "font_family": "Consolas, \"Liberation Mono\", Menlo, Courier, monospace", "foreground": "rgba(0, 0, 0, .87)", "foreground_strong": "rgba(0, 0, 0, 1)", "foreground_subtle": "rgba(0, 0, 0, .54)", "guide_stroke_dasharray": "4,4", "label_font_family": "Consolas, \"Liberation Mono\", Menlo, Courier, monospace", "label_font_size": 10, "legend_font_family": "Consolas, \"Liberation Mono\", Menlo, Courier, monospace", "legend_font_size": 14, "major_guide_stroke_dasharray": "6,6", "major_label_font_family": "Consolas, \"Liberation Mono\", Menlo, Courier, monospace", "major_label_font_size": 10, "no_data_font_family": "Consolas, \"Liberation Mono\", Menlo, Courier, monospace", "no_data_font_size": 64, "opacity": ".7", "opacity_hover": ".8", "plot_background": "rgba(255, 255, 255, 1)", "stroke_opacity": ".8", "stroke_opacity_hover": ".9", "title_font_family": "Consolas, \"Liberation Mono\", Menlo, Courier, monospace", "title_font_size": 16, "tooltip_font_family": "Consolas, \"Liberation Mono\", Menlo, Courier, monospace", "tooltip_font_size": 14, "transition": "150ms", "value_background": "rgba(229, 229, 229, 1)", "value_colors": [], "value_font_family": "Consolas, \"Liberation Mono\", Menlo, Courier, monospace", "value_font_size": 16, "value_label_font_family": "Consolas, \"Liberation Mono\", Menlo, Courier, monospace", "value_label_font_size": 10}, "title": "Yuvraj Singh: Future and Past Averages in ODIs", "tooltip_border_radius": 10, "tooltip_fancy_mode": true, "truncate_label": null, "truncate_legend": null, "width": 800, "x_label_rotation": 45, "x_labels": ["2000", "0", "0", "0", "0", "0", "0", "2001", "0", "0", "0", "0", "0", "0", "0", "0", "0", "2002", "0", "0", "0", "0", "0", "0", "0", "0", "0", "0", "2003", "0", "0", "0", "0", "0", "0", "0", "0", "2004", "0", "0", "0", "0", "0", "0", "0", "0", "0", "2005", "0", "0", "0", "0", "0", "0", "0", "0", "0", "2006", "0", "0", "0", "0", "0", "0", "0", "0", "2007", "0", "0", "0", "0", "0", "0", "0", "0", "0", "0", "0", "0", "0", "0", "0", "0", "0", "0", "0", "0", "2008", "0", "0", "0", "0", "0", "0", "0", "0", "0", "0", "0", "0", "0", "0", "0", "0", "0", "0", "0", "2009", "0", "0", "0", "0", "0", "0", "0", "0", "0", "0", "0", "0", "0", "0", "0", "0", "2010", "0", "0", "0", "0", "0", "0", "0", "0", "0", "0", "0", "2011", "0", "0", "0", "0", "0", "0", "0", "0", "0", "0", "0", "0", "0", "2012", "2013", "0", "0", "0", "0", "0", "0", "2017", "0", "0"], "x_labels_major": ["2000", "2001", "2002", "2003", "2004", "2005", "2006", "2007", "2008", "2009", "2010", "2011", "2012", "2013", "2017"], "x_labels_major_count": null, "x_labels_major_every": null, "x_title": null, "xrange": null, "y_label_rotation": 0, "y_labels": null, "y_labels_major": null, "y_labels_major_count": null, "y_labels_major_every": null, "y_title": null, "zero": 130.0, "legends": ["Future Average", "Past Average", "Career Average"]}</script><script type="text/javascript" xlink:href="https://kozea.github.io/pygal.js/2.0.x/pygal-tooltips.min.js"/></defs><title>Yuvraj Singh: Future and Past Averages in ODIs</title><g class="graph line-graph vertical"><rect class="background" height="600" width="800" x="0" y="0"/><g class="plot" transform="translate(48, 46)"><rect class="background" height="462.02943725152284" width="732.0" x="0" y="0"/><g class="axis y always_show"><g class="guides"><path class="axis major line" d="M0.000000 453.144256 h732.000000"/><text class="major" x="-5" y="456.6442557659166">0</text><title>0</title></g><g class="guides"><path class="guide line" d="M0.000000 417.025632 h732.000000"/><text class="" x="-5" y="420.5256318406881">10</text><title>10</title></g><g class="guides"><path class="guide line" d="M0.000000 380.907008 h732.000000"/><text class="" x="-5" y="384.40700791545964">20</text><title>20</title></g><g class="guides"><path class="guide line" d="M0.000000 344.788384 h732.000000"/><text class="" x="-5" y="348.2883839902311">30</text><title>30</title></g><g class="guides"><path class="guide line" d="M0.000000 308.669760 h732.000000"/><text class="" x="-5" y="312.1697600650026">40</text><title>40</title></g><g class="guides"><path class="major guide line" d="M0.000000 272.551136 h732.000000"/><text class="major" x="-5" y="276.05113613977414">50</text><title>50</title></g><g class="guides"><path class="guide line" d="M0.000000 236.432512 h732.000000"/><text class="" x="-5" y="239.93251221454568">60</text><title>60</title></g><g class="guides"><path class="guide line" d="M0.000000 200.313888 h732.000000"/><text class="" x="-5" y="203.81388828931716">70</text><title>70</title></g><g class="guides"><path class="guide line" d="M0.000000 164.195264 h732.000000"/><text class="" x="-5" y="167.6952643640887">80</text><title>80</title></g><g class="guides"><path class="guide line" d="M0.000000 128.076640 h732.000000"/><text class="" x="-5" y="131.57664043886024">90</text><title>90</title></g><g class="guides"><path class="major guide line" d="M0.000000 91.958017 h732.000000"/><text class="major" x="-5" y="95.45801651363172">100</text><title>100</title></g><g class="guides"><path class="guide line" d="M0.000000 55.839393 h732.000000"/><text class="" x="-5" y="59.33939258840326">110</text><title>110</title></g><g class="guides"><path class="guide line" d="M0.000000 19.720769 h732.000000"/><text class="" x="-5" y="23.220768663174738">120</text><title>120</title></g></g><g class="axis x"><g class="guides"><path class="major line" d="M14.076923 0.000000 v462.029437"/><text class="major" x="14.076923076923077" y="477.02943725152284" transform="rotate(45 14.076923 477.029437)">2000</text></g><g class="guides"><path class="major guide line" d="M44.870192 0.000000 v462.029437"/><text class="major" x="44.87019230769231" y="477.02943725152284" transform="rotate(45 44.870192 477.029437)">2001</text></g><g class="guides"><path class="major guide line" d="M88.860577 0.000000 v462.029437"/><text class="major" x="88.86057692307692" y="477.02943725152284" transform="rotate(45 88.860577 477.029437)">2002</text></g><g class="guides"><path class="major guide line" d="M137.250000 0.000000 v462.029437"/><text class="major" x="137.24999999999997" y="477.02943725152284" transform="rotate(45 137.250000 477.029437)">2003</text></g><g class="guides"><path class="major guide line" d="M176.841346 0.000000 v462.029437"/><text class="major" x="176.84134615384616" y="477.02943725152284" transform="rotate(45 176.841346 477.029437)">2004</text></g><g class="guides"><path class="major guide line" d="M220.831731 0.000000 v462.029437"/><text class="major" x="220.83173076923077" y="477.02943725152284" transform="rotate(45 220.831731 477.029437)">2005</text></g><g class="guides"><path class="major guide line" d="M264.822115 0.000000 v462.029437"/><text class="major" x="264.8221153846154" y="477.02943725152284" transform="rotate(45 264.822115 477.029437)">2006</text></g><g class="guides"><path class="major guide line" d="M304.413462 0.000000 v462.029437"/><text class="major" x="304.4134615384615" y="477.02943725152284" transform="rotate(45 304.413462 477.029437)">2007</text></g><g class="guides"><path class="major guide line" d="M396.793269 0.000000 v462.029437"/><text class="major" x="396.79326923076917" y="477.02943725152284" transform="rotate(45 396.793269 477.029437)">2008</text></g><g class="guides"><path class="major guide line" d="M484.774038 0.000000 v462.029437"/><text class="major" x="484.7740384615384" y="477.02943725152284" transform="rotate(45 484.774038 477.029437)">2009</text></g><g class="guides"><path class="major guide line" d="M559.557692 0.000000 v462.029437"/><text class="major" x="559.5576923076924" y="477.02943725152284" transform="rotate(45 559.557692 477.029437)">2010</text></g><g class="guides"><path class="major guide line" d="M612.346154 0.000000 v462.029437"/><text class="major" x="612.3461538461538" y="477.02943725152284" transform="rotate(45 612.346154 477.029437)">2011</text></g><g class="guides"><path class="major guide line" d="M673.932692 0.000000 v462.029437"/><text class="major" x="673.9326923076923" y="477.02943725152284" transform="rotate(45 673.932692 477.029437)">2012</text></g><g class="guides"><path class="major guide line" d="M678.331731 0.000000 v462.029437"/><text class="major" x="678.3317307692308" y="477.02943725152284" transform="rotate(45 678.331731 477.029437)">2013</text></g><g class="guides"><path class="major guide line" d="M709.125000 0.000000 v462.029437"/><text class="major" x="709.125" y="477.02943725152284" transform="rotate(45 709.125000 477.029437)">2017</text></g></g><g class="series serie-0 color-0"><path class="line reactive nofill" d="M14.076923 313.437418 L18.475962 313.943079 22.875000 313.184588 27.274038 314.232028 31.673077 314.665452 36.072115 314.990519 40.471154 315.207231 44.870192 315.676773 49.269231 316.182434 53.668269 316.363027 58.067308 315.171112 62.466346 313.365181 66.865385 312.715046 71.264423 311.306420 75.663462 313.292944 80.062500 313.509656 84.461538 314.520977 88.860577 313.003995 93.259615 313.798605 97.658654 310.909115 102.057692 310.836878 106.456731 309.789437 110.855769 310.475691 115.254808 311.414775 119.653846 310.584047 124.052885 311.234182 128.451923 311.667606 132.850962 313.509656 137.250000 314.232028 141.649038 308.236337 146.048077 308.597523 150.447115 308.705879 154.846154 309.211539 159.245192 309.392133 163.644231 309.247658 168.043269 309.536607 172.442308 310.909115 176.841346 311.956555 181.240385 310.367335 185.639423 310.764640 190.038462 311.523131 194.437500 312.245504 198.836538 313.220707 203.235577 312.570571 207.634615 313.329063 212.033654 311.884318 216.432692 312.317741 220.831731 313.365181 225.230769 314.629333 229.629808 311.920436 234.028846 310.584047 238.427885 312.101029 242.826923 313.112351 247.225962 313.112351 251.625000 313.762486 256.024038 315.026638 260.423077 314.015316 264.822115 315.098875 269.221154 312.967876 273.620192 312.967876 278.019231 313.906961 282.418269 311.739843 286.817308 312.967876 291.216346 312.570571 295.615385 311.450894 300.014423 311.956555 304.413462 312.751165 308.812500 311.595369 313.211538 312.389978 317.610577 310.331217 322.009615 311.089708 326.408654 311.306420 330.807692 311.848199 335.206731 313.762486 339.605769 309.175421 344.004808 310.150624 348.403846 311.812080 352.802885 311.812080 357.201923 312.281622 361.600962 315.712892 366.000000 316.363027 370.399038 315.785129 374.798077 317.085399 379.197115 317.771653 383.596154 318.674619 387.995192 317.482704 392.394231 315.893485 396.793269 316.471383 401.192308 317.157637 405.591346 318.566263 409.990385 318.855212 414.389423 321.275160 418.788462 321.961414 423.187500 320.805618 427.586538 321.744702 431.985577 320.480550 436.384615 321.130685 440.783654 322.647668 445.182692 324.236887 449.581731 325.103734 453.980769 325.753869 458.379808 325.862225 462.778846 324.634192 467.177885 325.392683 471.576923 316.868688 475.975962 318.132840 480.375000 320.516669 484.774038 323.442277 489.173077 321.708583 493.572115 321.744702 497.971154 318.927449 502.370192 319.324754 506.769231 319.071924 511.168269 319.324754 515.567308 322.467074 519.966346 324.236887 524.365385 316.579739 528.764423 318.602382 533.163462 317.229874 537.562500 321.275160 541.961538 320.552787 546.360577 322.467074 550.759615 326.404004 555.158654 329.582443 559.557692 330.124223 563.956731 332.219103 568.355769 332.146866 572.754808 330.340934 577.153846 330.232579 581.552885 331.099426 585.951923 329.690799 590.350962 330.088104 594.750000 336.481100 599.149038 328.390529 603.548077 335.614254 607.947115 338.756574 612.346154 329.185138 616.745192 334.458458 621.144231 334.928000 625.543269 339.876251 629.942308 328.426647 634.341346 323.333921 638.740385 332.255221 643.139423 342.043369 647.538462 305.057898 651.937500 290.971634 656.336538 307.947388 660.735577 279.774861 665.134615 248.460014 669.533654 197.604991 673.932692 30.556356 678.331731 90.152085 682.730769 108.211397 687.129808 142.524090 691.528846 169.613058 695.927885 8.885181 700.326923 135.300365 704.725962 207.537613 709.125000 250.879962 713.524038 301.446035 717.923077 362.847696"/></g><g class="series serie-1 color-1"><path class="line reactive nofill" d="M14.076923 453.144256 L18.475962 395.354457 22.875000 341.176522 27.274038 225.596925 31.673077 175.030852 36.072115 138.912228 40.471154 117.241053 44.870192 66.674980 49.269231 8.885181 53.668269 153.359677 58.067308 266.230377 62.466346 314.087554 66.865385 323.622870 71.264423 337.564659 75.663462 314.701570 80.062500 312.642809 84.461538 302.168408 88.860577 316.796450 93.259615 310.186742 97.658654 329.365732 102.057692 328.751715 106.456731 333.519373 110.855769 329.690799 115.254808 324.598073 119.653846 328.137698 124.052885 324.706429 128.451923 322.503193 132.850962 312.895639 137.250000 309.283777 141.649038 334.458458 146.048077 332.977594 150.447115 331.424493 154.846154 329.546325 159.245192 328.787834 163.644231 328.535003 168.043269 327.487563 172.442308 322.503193 176.841346 318.746856 181.240385 323.406159 185.639423 322.142007 190.038462 319.649822 194.437500 317.265993 198.836538 314.087554 203.235577 316.037959 207.634615 313.762486 212.033654 317.952246 216.432692 316.651976 220.831731 313.581893 225.230769 309.825556 229.629808 317.302111 234.028846 320.408313 238.427885 316.688095 242.826923 314.195910 247.225962 314.159791 251.625000 312.606690 256.024038 309.644963 260.423077 312.064911 264.822115 309.608844 269.221154 314.376503 273.620192 314.340384 278.019231 312.462216 282.418269 316.543620 286.817308 314.232028 291.216346 314.882163 295.615385 316.760332 300.014423 315.893485 304.413462 314.557096 308.812500 316.399146 313.211538 315.134994 317.610577 318.096721 322.009615 316.977044 326.408654 316.543620 330.807692 315.749010 335.206731 312.931758 339.605769 318.963568 344.004808 317.699416 348.403846 315.532299 352.802885 315.460061 357.201923 314.846045 361.600962 310.511810 366.000000 309.717200 370.399038 310.547929 374.798077 308.958709 379.197115 308.308574 383.596154 307.261134 387.995192 308.814235 392.394231 310.728522 396.793269 310.222861 401.192308 309.464370 405.591346 307.983506 409.990385 307.658439 414.389423 305.130135 418.788462 304.371644 423.187500 305.924745 427.586538 304.913423 431.985577 306.466524 436.384615 305.816389 440.783654 304.335525 445.182692 302.818543 449.581731 301.951696 453.980769 301.301561 458.379808 301.626628 462.778846 303.540915 467.177885 302.854662 471.576923 310.800759 475.975962 309.970031 480.375000 308.236337 484.774038 306.069219 489.173077 307.550083 493.572115 307.730676 497.971154 309.933912 502.370192 309.825556 506.769231 310.258980 511.168269 310.222861 515.567308 308.525286 519.966346 307.550083 524.365385 311.884318 528.764423 310.945233 533.163462 311.667606 537.562500 309.825556 541.961538 310.258980 546.360577 309.608844 550.759615 307.911269 555.158654 306.574880 559.557692 306.358168 563.956731 305.491321 568.355769 305.852507 572.754808 306.863829 577.153846 307.188896 581.552885 307.188896 585.951923 307.947388 590.350962 308.055743 594.750000 305.996982 599.149038 309.283777 603.548077 307.297252 607.947115 306.430405 612.346154 309.536607 616.745192 308.236337 621.144231 308.091862 625.543269 306.899947 629.942308 310.331217 634.341346 311.631487 638.740385 310.006149 643.139423 308.236337 647.538462 314.448740 651.937500 315.640654 656.336538 313.979198 660.735577 316.037959 665.134615 317.121518 669.533654 317.735535 673.932692 318.602382 678.331731 317.518823 682.730769 317.193755 687.129808 316.543620 691.528846 316.074078 695.927885 317.410467 700.326923 316.290790 704.725962 315.640654 709.125000 315.243350 713.524038 314.773808 717.923077 314.232028"/></g><g class="series serie-2 color-2"><path class="line reactive nofill" d="M14.076923 313.437418 L18.475962 313.437418 22.875000 313.437418 27.274038 313.437418 31.673077 313.437418 36.072115 313.437418 40.471154 313.437418 44.870192 313.437418 49.269231 313.437418 53.668269 313.437418 58.067308 313.437418 62.466346 313.437418 66.865385 313.437418 71.264423 313.437418 75.663462 313.437418 80.062500 313.437418 84.461538 313.437418 88.860577 313.437418 93.259615 313.437418 97.658654 313.437418 102.057692 313.437418 106.456731 313.437418 110.855769 313.437418 115.254808 313.437418 119.653846 313.437418 124.052885 313.437418 128.451923 313.437418 132.850962 313.437418 137.250000 313.437418 141.649038 313.437418 146.048077 313.437418 150.447115 313.437418 154.846154 313.437418 159.245192 313.437418 163.644231 313.437418 168.043269 313.437418 172.442308 313.437418 176.841346 313.437418 181.240385 313.437418 185.639423 313.437418 190.038462 313.437418 194.437500 313.437418 198.836538 313.437418 203.235577 313.437418 207.634615 313.437418 212.033654 313.437418 216.432692 313.437418 220.831731 313.437418 225.230769 313.437418 229.629808 313.437418 234.028846 313.437418 238.427885 313.437418 242.826923 313.437418 247.225962 313.437418 251.625000 313.437418 256.024038 313.437418 260.423077 313.437418 264.822115 313.437418 269.221154 313.437418 273.620192 313.437418 278.019231 313.437418 282.418269 313.437418 286.817308 313.437418 291.216346 313.437418 295.615385 313.437418 300.014423 313.437418 304.413462 313.437418 308.812500 313.437418 313.211538 313.437418 317.610577 313.437418 322.009615 313.437418 326.408654 313.437418 330.807692 313.437418 335.206731 313.437418 339.605769 313.437418 344.004808 313.437418 348.403846 313.437418 352.802885 313.437418 357.201923 313.437418 361.600962 313.437418 366.000000 313.437418 370.399038 313.437418 374.798077 313.437418 379.197115 313.437418 383.596154 313.437418 387.995192 313.437418 392.394231 313.437418 396.793269 313.437418 401.192308 313.437418 405.591346 313.437418 409.990385 313.437418 414.389423 313.437418 418.788462 313.437418 423.187500 313.437418 427.586538 313.437418 431.985577 313.437418 436.384615 313.437418 440.783654 313.437418 445.182692 313.437418 449.581731 313.437418 453.980769 313.437418 458.379808 313.437418 462.778846 313.437418 467.177885 313.437418 471.576923 313.437418 475.975962 313.437418 480.375000 313.437418 484.774038 313.437418 489.173077 313.437418 493.572115 313.437418 497.971154 313.437418 502.370192 313.437418 506.769231 313.437418 511.168269 313.437418 515.567308 313.437418 519.966346 313.437418 524.365385 313.437418 528.764423 313.437418 533.163462 313.437418 537.562500 313.437418 541.961538 313.437418 546.360577 313.437418 550.759615 313.437418 555.158654 313.437418 559.557692 313.437418 563.956731 313.437418 568.355769 313.437418 572.754808 313.437418 577.153846 313.437418 581.552885 313.437418 585.951923 313.437418 590.350962 313.437418 594.750000 313.437418 599.149038 313.437418 603.548077 313.437418 607.947115 313.437418 612.346154 313.437418 616.745192 313.437418 621.144231 313.437418 625.543269 313.437418 629.942308 313.437418 634.341346 313.437418 638.740385 313.437418 643.139423 313.437418 647.538462 313.437418 651.937500 313.437418 656.336538 313.437418 660.735577 313.437418 665.134615 313.437418 669.533654 313.437418 673.932692 313.437418 678.331731 313.437418 682.730769 313.437418 687.129808 313.437418 691.528846 313.437418 695.927885 313.437418 700.326923 313.437418 704.725962 313.437418 709.125000 313.437418 713.524038 313.437418 717.923077 313.437418"/></g></g><g class="titles"><text class="title plot_title" x="400.0" y="26">Yuvraj Singh: Future and Past Averages in ODIs</text></g><g class="plot overlay" transform="translate(48, 46)"><g class="series serie-0 color-0"><g class="dots"><desc class="label">111 wickets in 161 innings (841.2 overs)</desc><circle class="dot reactive tooltip-trigger" cx="14.076923076923077" cy="313.43741842313284" r="2.5"/><desc class="value">38.68</desc><desc class="x top">14.076923076923077</desc><desc class="y top">313.43741842313284</desc><desc class="x_label">2000</desc></g><g class="dots"><desc class="label">110 wickets in 154 innings (816.2 overs)</desc><circle class="dot reactive tooltip-trigger" cx="44.87019230769231" cy="315.67677310649697" r="2.5"/><desc class="value">38.06</desc><desc class="x top">44.87019230769231</desc><desc class="y top">315.67677310649697</desc><desc class="x_label">2001</desc></g><g class="dots"><desc class="label">99 wickets in 144 innings (734.2 overs)</desc><circle class="dot reactive tooltip-trigger" cx="88.86057692307692" cy="313.0039949360301" r="2.5"/><desc class="value">38.8</desc><desc class="x top">88.86057692307692</desc><desc class="y top">313.0039949360301</desc><desc class="x_label">2002</desc></g><g class="dots"><desc class="label">93 wickets in 133 innings (693.2 overs)</desc><circle class="dot reactive tooltip-trigger" cx="137.24999999999997" cy="314.23202814948786" r="2.5"/><desc class="value">38.46</desc><desc class="x top">137.24999999999997</desc><desc class="y top">314.23202814948786</desc><desc class="x_label">2003</desc></g><g class="dots"><desc class="label">87 wickets in 124 innings (659.5 overs)</desc><circle class="dot reactive tooltip-trigger" cx="176.84134615384616" cy="311.95655484219844" r="2.5"/><desc class="value">39.09</desc><desc class="x top">176.84134615384616</desc><desc class="y top">311.95655484219844</desc><desc class="x_label">2004</desc></g><g class="dots"><desc class="label">83 wickets in 114 innings (621.3 overs)</desc><circle class="dot reactive tooltip-trigger" cx="220.83173076923077" cy="313.3651811752824" r="2.5"/><desc class="value">38.7</desc><desc class="x top">220.83173076923077</desc><desc class="y top">313.3651811752824</desc><desc class="x_label">2005</desc></g><g class="dots"><desc class="label">77 wickets in 104 innings (572.5 overs)</desc><circle class="dot reactive tooltip-trigger" cx="264.8221153846154" cy="315.09887512369335" r="2.5"/><desc class="value">38.22</desc><desc class="x top">264.8221153846154</desc><desc class="y top">315.09887512369335</desc><desc class="x_label">2006</desc></g><g class="dots"><desc class="label">70 wickets in 95 innings (521.5 overs)</desc><circle class="dot reactive tooltip-trigger" cx="304.4134615384615" cy="312.75116456855346" r="2.5"/><desc class="value">38.87</desc><desc class="x top">304.4134615384615</desc><desc class="y top">312.75116456855346</desc><desc class="x_label">2007</desc></g><g class="dots"><desc class="label">57 wickets in 74 innings (427.4 overs)</desc><circle class="dot reactive tooltip-trigger" cx="396.79326923076917" cy="316.471382832852" r="2.5"/><desc class="value">37.84</desc><desc class="x left top">396.79326923076917</desc><desc class="y left top">316.471382832852</desc><desc class="x_label">2008</desc></g><g class="dots"><desc class="label">47 wickets in 54 innings (329.4 overs)</desc><circle class="dot reactive tooltip-trigger" cx="484.7740384615384" cy="323.4422772504211" r="2.5"/><desc class="value">35.91</desc><desc class="x left top">484.7740384615384</desc><desc class="y left top">323.4422772504211</desc><desc class="x_label">2009</desc></g><g class="dots"><desc class="label">33 wickets in 37 innings (224.0 overs)</desc><circle class="dot reactive tooltip-trigger" cx="559.5576923076924" cy="330.1242226765884" r="2.5"/><desc class="value">34.06</desc><desc class="x left top">559.5576923076924</desc><desc class="y left top">330.1242226765884</desc><desc class="x_label">2010</desc></g><g class="dots"><desc class="label">22 wickets in 25 innings (140.0 overs)</desc><circle class="dot reactive tooltip-trigger" cx="612.3461538461538" cy="329.1851384545324" r="2.5"/><desc class="value">34.32</desc><desc class="x left top">612.3461538461538</desc><desc class="y left top">329.1851384545324</desc><desc class="x_label">2011</desc></g><g class="dots"><desc class="label">2 wickets in 11 innings (36.0 overs)</desc><circle class="dot reactive tooltip-trigger" cx="673.9326923076923" cy="30.556355840743265" r="2.5"/><desc class="value">117</desc><desc class="x left">673.9326923076923</desc><desc class="y left">30.556355840743265</desc><desc class="x_label">2012</desc></g><g class="dots"><desc class="label">2 wickets in 10 innings (31.0 overs)</desc><circle class="dot reactive tooltip-trigger" cx="678.3317307692308" cy="90.15208531737028" r="2.5"/><desc class="value">100.5</desc><desc class="x left">678.3317307692308</desc><desc class="y left">90.15208531737028</desc><desc class="x_label">2013</desc></g><g class="dots"><desc class="label">0 wickets in 3 innings (10.0 overs)</desc><circle class="dot reactive tooltip-trigger" cx="709.125" cy="250.87996178463706" r="2.5"/><desc class="value">56</desc><desc class="x left top">709.125</desc><desc class="y left top">250.87996178463706</desc><desc class="x_label">2017</desc></g></g><g class="series serie-1 color-1"><g class="dots"><desc class="label">0 wickets over 0 innings</desc><circle class="dot reactive tooltip-trigger" cx="14.076923076923077" cy="453.1442557659166" r="2.5"/><desc class="value">0</desc><desc class="x top">14.076923076923077</desc><desc class="y top">453.1442557659166</desc><desc class="x_label">2000</desc></g><g class="dots"><desc class="label">1 wickets in 7 innings (25.0 overs)</desc><circle class="dot reactive tooltip-trigger" cx="44.87019230769231" cy="66.67497976597178" r="2.5"/><desc class="value">107</desc><desc class="x ">44.87019230769231</desc><desc class="y ">66.67497976597178</desc><desc class="x_label">2001</desc></g><g class="dots"><desc class="label">12 wickets in 17 innings (107.0 overs)</desc><circle class="dot reactive tooltip-trigger" cx="88.86057692307692" cy="316.79645044817903" r="2.5"/><desc class="value">37.75</desc><desc class="x top">88.86057692307692</desc><desc class="y top">316.79645044817903</desc><desc class="x_label">2002</desc></g><g class="dots"><desc class="label">18 wickets in 28 innings (148.0 overs)</desc><circle class="dot reactive tooltip-trigger" cx="137.24999999999997" cy="309.2837766717315" r="2.5"/><desc class="value">39.83</desc><desc class="x top">137.24999999999997</desc><desc class="y top">309.2837766717315</desc><desc class="x_label">2003</desc></g><g class="dots"><desc class="label">24 wickets in 37 innings (181.3 overs)</desc><circle class="dot reactive tooltip-trigger" cx="176.84134615384616" cy="318.7468561401414" r="2.5"/><desc class="value">37.21</desc><desc class="x top">176.84134615384616</desc><desc class="y top">318.7468561401414</desc><desc class="x_label">2004</desc></g><g class="dots"><desc class="label">28 wickets in 47 innings (219.5 overs)</desc><circle class="dot reactive tooltip-trigger" cx="220.83173076923077" cy="313.5818929188338" r="2.5"/><desc class="value">38.64</desc><desc class="x top">220.83173076923077</desc><desc class="y top">313.5818929188338</desc><desc class="x_label">2005</desc></g><g class="dots"><desc class="label">34 wickets in 57 innings (268.3 overs)</desc><circle class="dot reactive tooltip-trigger" cx="264.8221153846154" cy="309.60884428705856" r="2.5"/><desc class="value">39.74</desc><desc class="x top">264.8221153846154</desc><desc class="y top">309.60884428705856</desc><desc class="x_label">2006</desc></g><g class="dots"><desc class="label">41 wickets in 66 innings (319.3 overs)</desc><circle class="dot reactive tooltip-trigger" cx="304.4134615384615" cy="314.5570957648149" r="2.5"/><desc class="value">38.37</desc><desc class="x top">304.4134615384615</desc><desc class="y top">314.5570957648149</desc><desc class="x_label">2007</desc></g><g class="dots"><desc class="label">54 wickets in 87 innings (413.4 overs)</desc><circle class="dot reactive tooltip-trigger" cx="396.79326923076917" cy="310.22286089378747" r="2.5"/><desc class="value">39.57</desc><desc class="x left top">396.79326923076917</desc><desc class="y left top">310.22286089378747</desc><desc class="x_label">2008</desc></g><g class="dots"><desc class="label">64 wickets in 107 innings (511.4 overs)</desc><circle class="dot reactive tooltip-trigger" cx="484.7740384615384" cy="306.0692191423862" r="2.5"/><desc class="value">40.72</desc><desc class="x left top">484.7740384615384</desc><desc class="y left top">306.0692191423862</desc><desc class="x_label">2009</desc></g><g class="dots"><desc class="label">78 wickets in 124 innings (617.2 overs)</desc><circle class="dot reactive tooltip-trigger" cx="559.5576923076924" cy="306.358168133788" r="2.5"/><desc class="value">40.64</desc><desc class="x left top">559.5576923076924</desc><desc class="y left top">306.358168133788</desc><desc class="x_label">2010</desc></g><g class="dots"><desc class="label">89 wickets in 136 innings (701.2 overs)</desc><circle class="dot reactive tooltip-trigger" cx="612.3461538461538" cy="309.53660703920815" r="2.5"/><desc class="value">39.76</desc><desc class="x left top">612.3461538461538</desc><desc class="y left top">309.53660703920815</desc><desc class="x_label">2011</desc></g><g class="dots"><desc class="label">109 wickets in 150 innings (805.2 overs)</desc><circle class="dot reactive tooltip-trigger" cx="673.9326923076923" cy="318.60238164444047" r="2.5"/><desc class="value">37.25</desc><desc class="x left top">673.9326923076923</desc><desc class="y left top">318.60238164444047</desc><desc class="x_label">2012</desc></g><g class="dots"><desc class="label">109 wickets in 151 innings (810.2 overs)</desc><circle class="dot reactive tooltip-trigger" cx="678.3317307692308" cy="317.51882292668364" r="2.5"/><desc class="value">37.55</desc><desc class="x left top">678.3317307692308</desc><desc class="y left top">317.51882292668364</desc><desc class="x_label">2013</desc></g><g class="dots"><desc class="label">111 wickets in 158 innings (831.2 overs)</desc><circle class="dot reactive tooltip-trigger" cx="709.125" cy="315.2433496193942" r="2.5"/><desc class="value">38.18</desc><desc class="x left top">709.125</desc><desc class="y left top">315.2433496193942</desc><desc class="x_label">2017</desc></g></g><g class="series serie-2 color-2"/></g><g class="plot text-overlay" transform="translate(48, 46)"><g class="series serie-0 color-0"/><g class="series serie-1 color-1"/><g class="series serie-2 color-2"/></g><g class="plot tooltip-overlay" transform="translate(48, 46)"><g class="tooltip" style="opacity: 0" transform="translate(0 0)"><rect class="tooltip-box" height="0" rx="10" ry="10" width="0"/><g class="text"/></g></g><g class="legends" transform="translate(58, 545)"><g class="legend reactive activate-serie" id="activate-serie-0"><rect class="color-0 reactive" height="12" width="12" x="0.0" y="1.0"/><text x="17.0" y="11.2">Future Average</text></g><g class="legend reactive activate-serie" id="activate-serie-1"><rect class="color-1 reactive" height="12" width="12" x="366.0" y="1.0"/><text x="383.0" y="11.2">Past Average</text></g><g class="legend reactive activate-serie" id="activate-serie-2"><rect class="color-2 reactive" height="12" width="12" x="0.0" y="22.0"/><text x="17.0" y="32.2">Career Average</text></g></g></g></svg>